<?xml version="1.0" encoding="utf-8"?>
<!-- Generator: Adobe Illustrator 23.0.1, SVG Export Plug-In . SVG Version: 6.00 Build 0)  -->
<svg version="1.1" id="Layer_1" xmlns="http://www.w3.org/2000/svg" xmlns:xlink="http://www.w3.org/1999/xlink" x="0px" y="0px"
	 viewBox="0 0 822 582" style="enable-background:new 0 0 822 582;" xml:space="preserve">
<style type="text/css">
	.st0{font-family:'GloberSemiBold';}
	.st1{font-size:22px;}
	.st2{fill:none;stroke:#999999;stroke-width:1.0827;stroke-miterlimit:10;}
	.st3{fill:url(#SVGID_1_);stroke:#999999;stroke-width:1.0827;stroke-miterlimit:10;}
	.st4{fill:#40AD4A;}
	.st5{fill:#308017;}
	.st6{fill:#08B5E5;}
	.st7{fill:#007DA6;}
	.st8{fill:#FF8C00;}
	.st9{fill:#DF6000;}
	.st10{fill:#FFFFFF;}
	.st11{font-family:'GloberBold';}
	.st12{font-size:33.2553px;}
	.st13{font-family:'GloberBoldFree';}
	.st14{fill:none;stroke:#000000;stroke-width:4.3137;stroke-miterlimit:10;}
	.st15{font-size:37.774px;}
</style>
<g>
	<text transform="matrix(1 0 0 1 82.5186 164.6958)"><tspan x="0" y="0" class="st0 st1">80</tspan><tspan x="1.9" y="41.6" class="st0 st1">70</tspan><tspan x="0.6" y="83.2" class="st0 st1">60</tspan><tspan x="1.3" y="124.8" class="st0 st1">50</tspan><tspan x="0" y="166.4" class="st0 st1">40</tspan><tspan x="1.2" y="208" class="st0 st1">30</tspan><tspan x="1.1" y="249.6" class="st0 st1">20</tspan><tspan x="3.7" y="291.2" class="st0 st1">10</tspan><tspan x="11.9" y="332.8" class="st0 st1">0</tspan></text>
	<text transform="matrix(0.583 0 0 0.583 110.23 159.3696)"><tspan x="0" y="0" class="st0 st1">%</tspan><tspan x="0" y="71.4" class="st0 st1">%</tspan><tspan x="0" y="142.7" class="st0 st1">%</tspan><tspan x="0" y="214.1" class="st0 st1">%</tspan><tspan x="0" y="285.4" class="st0 st1">%</tspan><tspan x="0" y="356.8" class="st0 st1">%</tspan><tspan x="0" y="428.1" class="st0 st1">%</tspan><tspan x="0" y="499.5" class="st0 st1">%</tspan><tspan x="0" y="570.8" class="st0 st1">%</tspan></text>
	<g>
		<line class="st2" x1="131" y1="157" x2="766" y2="157"/>
		<line class="st2" x1="131" y1="493" x2="766" y2="493"/>
		<line class="st2" x1="131" y1="451" x2="766" y2="451"/>
		<line class="st2" x1="131" y1="409" x2="766" y2="409"/>
		<line class="st2" x1="131" y1="367" x2="766" y2="367"/>
		<line class="st2" x1="131" y1="325" x2="766" y2="325"/>
		<line class="st2" x1="131" y1="283" x2="766" y2="283"/>
		<line class="st2" x1="131" y1="241" x2="766" y2="241"/>
		<line class="st2" x1="131" y1="199" x2="766" y2="199"/>
	</g>
	<g>
		<g>
		</g>
	</g>
	<rect x="154.1" y="178" class="st4" width="71.6" height="314.4"/>
	<rect x="255.1" y="211" class="st5" width="71.6" height="281.4"/>
	<rect x="355.1" y="315" class="st6" width="71.6" height="177.4"/>
	<rect x="458.1" y="330" class="st7" width="71.6" height="162.4"/>
	<rect x="568.1" y="404" class="st8" width="71.6" height="88.4"/>
	<rect x="687.1" y="461" class="st9" width="71.6" height="31.4"/>
	<text transform="matrix(1 0 0 1 167.2217 221.2627)" class="st10 st11 st12">75</text>
	<text transform="matrix(0.583 0 0 0.583 201.2236 210.1885)" class="st10 st11 st12">%</text>
	<text transform="matrix(1 0 0 1 267.2217 251.2627)" class="st10 st13 st12">6</text>
	<text transform="matrix(1 0 0 1 285.5703 251.2627)" class="st10 st13 st12">7</text>
	<text transform="matrix(0.583 0 0 0.583 302.7168 240.1885)" class="st10 st11 st12">%</text>
	<text transform="matrix(1 0 0 1 366.2217 363.2627)" class="st10 st13 st12">43</text>
	<text transform="matrix(0.583 0 0 0.583 402.9189 352.1885)" class="st10 st11 st12">%</text>
	<text transform="matrix(1 0 0 1 470.2217 363.2627)" class="st10 st13 st12">39</text>
	<text transform="matrix(0.583 0 0 0.583 506.0264 352.1885)" class="st10 st11 st12">%</text>
	<text transform="matrix(1 0 0 1 583.2217 440.2627)" class="st10 st13 st12">21</text>
	<text transform="matrix(0.583 0 0 0.583 614.6582 429.1885)" class="st10 st11 st12">%</text>
	<line class="st14" x1="125" y1="493.8" x2="771" y2="493.8"/>
	<text transform="matrix(1 0 0 1 710.2217 493.2627)" class="st10 st13 st12">8</text>
	<text transform="matrix(0.583 0 0 0.583 729.5283 482.1885)" class="st10 st11 st12">%</text>
	<text transform="matrix(1 0 0 1 150.2212 535.3335)" class="st0 st1">AlgaeCal</text>
	<g>
		<text transform="matrix(0 -1 1 0 53.0918 407.3765)" class="st0 st1">% of Calcium Absorbed</text>
	</g>
	<text transform="matrix(1 0 0 1 89.667 65.0327)"><tspan x="0" y="0" class="st11 st15">Calcium from Algaecal is absorbed better</tspan><tspan x="0" y="45.4" class="st11 st15">than calcium from other whole foods!</tspan></text>
	<text transform="matrix(1 0 0 1 268.0542 535.3335)" class="st0 st1">Pear</text>
	<text transform="matrix(1 0 0 1 358.0327 535.3335)" class="st0 st1">Yogurt</text>
	<text transform="matrix(1 0 0 1 455.6812 535.3335)" class="st0 st1">Orange</text>
	<text transform="matrix(1 0 0 1 550.73 535.3335)" class="st0 st1">Cauliflower</text>
	<text transform="matrix(1 0 0 1 681.2769 535.3335)" class="st0 st1">Spirulina</text>
	<circle class="st4" cx="141" cy="528" r="5"/>
	<circle class="st5" cx="262" cy="528" r="5"/>
	<circle class="st6" cx="352" cy="528" r="5"/>
	<circle class="st7" cx="449" cy="528" r="5"/>
	<circle class="st8" cx="545" cy="528" r="5"/>
	<circle class="st9" cx="674" cy="528" r="5"/>
</g>
</svg>
