<?xml version="1.0" encoding="utf-8"?>
<!-- Generator: Adobe Illustrator 23.0.1, SVG Export Plug-In . SVG Version: 6.00 Build 0)  -->
<svg version="1.1" id="Layer_1" xmlns="http://www.w3.org/2000/svg" xmlns:xlink="http://www.w3.org/1999/xlink" x="0px" y="0px"
	 viewBox="0 0 720 600" style="enable-background:new 0 0 720 600;" xml:space="preserve">
<style type="text/css">
	.st0{fill:none;stroke:#999999;stroke-width:1.1445;stroke-miterlimit:10;}
	.st1{fill:url(#SVGID_1_);stroke:#999999;stroke-width:1.1445;stroke-miterlimit:10;}
	.st2{fill:#40AD4A;}
	.st3{fill:#308017;}
	.st4{fill:#08B5E5;}
	.st5{fill:#DF6000;}
	.st6{fill:#FFFFFF;}
	.st7{fill:none;stroke:#000000;stroke-width:4.5601;stroke-miterlimit:10;}
</style>
<g>
	<g>
		<path d="M99.4,48.8c0-0.5,0.1-1.1,0.2-1.6c0.2-0.5,0.4-0.9,0.6-1.3c0.2-0.4,0.5-0.7,0.9-1.1c0.3-0.3,0.7-0.6,1-0.8
			c0.3-0.2,0.6-0.4,1-0.6c-1-0.6-1.7-1.2-2.3-2c-0.5-0.8-0.8-1.7-0.8-2.8c0-1.5,0.5-2.7,1.6-3.6c1.1-0.9,2.6-1.3,4.5-1.3
			c1.9,0,3.3,0.4,4.4,1.2c1.1,0.8,1.6,2,1.6,3.5c0,2-0.9,3.6-2.8,4.9c0.6,0.3,1,0.6,1.4,0.9c0.4,0.3,0.8,0.7,1.2,1.1
			c0.4,0.4,0.6,0.9,0.8,1.5c0.2,0.6,0.3,1.2,0.3,1.8c0,1.7-0.6,3-1.8,4s-2.9,1.4-5.1,1.4c-2.1,0-3.7-0.5-4.9-1.4
			C100,51.7,99.4,50.4,99.4,48.8z M102.2,48.6c0,0.9,0.3,1.7,1,2.2c0.7,0.5,1.7,0.8,2.9,0.8c1.2,0,2.2-0.3,2.8-0.8
			c0.7-0.5,1-1.3,1-2.2c0-0.3,0-0.6-0.1-0.8c-0.1-0.3-0.2-0.5-0.3-0.7c-0.1-0.2-0.3-0.4-0.5-0.6c-0.2-0.2-0.5-0.4-0.6-0.5
			c-0.2-0.1-0.5-0.3-0.8-0.5s-0.6-0.3-0.8-0.4c-0.2-0.1-0.5-0.2-1-0.4c-0.4-0.2-0.7-0.3-0.9-0.4c-0.3,0.2-0.5,0.4-0.8,0.6
			c-0.3,0.2-0.5,0.5-0.8,0.9c-0.3,0.4-0.6,0.8-0.8,1.3S102.2,48.1,102.2,48.6z M102.8,38.5c0,0.4,0.1,0.7,0.2,1.1
			c0.2,0.3,0.4,0.6,0.6,0.8c0.2,0.2,0.5,0.5,0.9,0.7c0.4,0.2,0.8,0.4,1.1,0.6c0.3,0.2,0.8,0.3,1.3,0.6c0.2,0.1,0.4,0.2,0.5,0.2
			c1.4-1.1,2.1-2.4,2.1-3.8c0-0.9-0.3-1.6-0.9-2.1c-0.6-0.5-1.5-0.7-2.5-0.7c-1,0-1.9,0.2-2.4,0.7C103.1,37,102.8,37.7,102.8,38.5z"
			/>
		<path d="M115.1,43.8c0-3.5,0.6-6,1.8-7.7c1.2-1.6,3-2.5,5.4-2.5c2.4,0,4.2,0.8,5.4,2.4c1.2,1.6,1.8,4.2,1.8,7.7
			c0,3.5-0.6,6.1-1.8,7.7c-1.2,1.6-3,2.4-5.4,2.4c-1.6,0-2.9-0.3-3.9-1c-1-0.7-1.9-1.8-2.4-3.3C115.4,48.1,115.1,46.2,115.1,43.8z
			 M118.5,40.1c-0.2,1-0.3,2.3-0.3,3.7c0,1.5,0.1,2.7,0.3,3.7s0.4,1.8,0.8,2.4c0.4,0.6,0.8,1,1.3,1.2c0.5,0.2,1.1,0.4,1.8,0.4
			c0.6,0,1.1-0.1,1.5-0.2s0.8-0.4,1.1-0.7c0.3-0.4,0.6-0.8,0.8-1.4s0.4-1.3,0.5-2.2c0.1-0.9,0.2-1.9,0.2-3.1c0-1.2-0.1-2.2-0.2-3.1
			s-0.3-1.6-0.5-2.2s-0.5-1.1-0.8-1.4c-0.3-0.4-0.7-0.6-1.1-0.7c-0.4-0.1-0.9-0.2-1.5-0.2c-0.7,0-1.3,0.1-1.8,0.4
			c-0.5,0.2-0.9,0.6-1.3,1.2C118.9,38.3,118.7,39.1,118.5,40.1z"/>
		<path d="M101.2,90c0-0.2,0-0.5,0.1-0.7s0.1-0.4,0.1-0.5l0.1-0.1h12c0.1,0.5,0.2,1,0.2,1.6c0,0.9-0.2,1.8-0.5,2.6
			c-0.3,0.8-0.6,1.6-1,2.3c-0.4,0.7-0.9,1.4-1.4,2.1c-0.5,0.7-1,1.4-1.5,2.2c-0.5,0.7-1,1.5-1.4,2.4s-0.7,1.8-1,2.9
			c-0.3,1.1-0.4,2.3-0.4,3.5c-0.4,0.1-0.9,0.1-1.4,0.1c-0.5,0-1,0-1.4-0.1c0-1.3,0.1-2.6,0.3-3.7s0.5-2.2,0.9-3
			c0.4-0.8,0.8-1.6,1.2-2.4c0.5-0.7,0.9-1.4,1.4-2.1s0.9-1.2,1.3-1.8s0.8-1.2,1.1-1.9c0.3-0.7,0.6-1.4,0.7-2.1h-9.3
			C101.3,90.9,101.2,90.5,101.2,90z"/>
		<path d="M115.1,98.5c0-3.5,0.6-6,1.8-7.7c1.2-1.6,3-2.5,5.4-2.5c2.4,0,4.2,0.8,5.4,2.4c1.2,1.6,1.8,4.2,1.8,7.7
			c0,3.5-0.6,6.1-1.8,7.7c-1.2,1.6-3,2.4-5.4,2.4c-1.6,0-2.9-0.3-3.9-1c-1-0.7-1.9-1.8-2.4-3.3C115.4,102.8,115.1,100.9,115.1,98.5z
			 M118.5,94.8c-0.2,1-0.3,2.3-0.3,3.7c0,1.5,0.1,2.7,0.3,3.7s0.4,1.8,0.8,2.4c0.4,0.6,0.8,1,1.3,1.2c0.5,0.2,1.1,0.4,1.8,0.4
			c0.6,0,1.1-0.1,1.5-0.2s0.8-0.4,1.1-0.7c0.3-0.4,0.6-0.8,0.8-1.4s0.4-1.3,0.5-2.2c0.1-0.9,0.2-1.9,0.2-3.1c0-1.2-0.1-2.2-0.2-3.1
			s-0.3-1.6-0.5-2.2s-0.5-1.1-0.8-1.4c-0.3-0.4-0.7-0.6-1.1-0.7c-0.4-0.1-0.9-0.2-1.5-0.2c-0.7,0-1.3,0.1-1.8,0.4
			c-0.5,0.2-0.9,0.6-1.3,1.2C118.9,93,118.7,93.8,118.5,94.8z"/>
		<path d="M100.3,155.6c0-3.9,0.9-6.9,2.8-8.9c1.9-2,4.6-3.1,8.1-3.3c0.1,0.3,0.2,0.7,0.2,1.1s-0.1,0.8-0.2,1.2
			c-2.1,0.2-3.8,0.8-5.1,1.8c-1.2,0.9-2.1,2.4-2.5,4.2c1.2-0.5,2.4-0.7,3.6-0.7c0.9,0,1.6,0.1,2.3,0.3c0.7,0.2,1.3,0.6,1.9,1.1
			s1,1.1,1.3,1.9s0.5,1.7,0.5,2.8c0,2-0.6,3.6-1.7,4.6c-1.1,1-2.7,1.5-4.7,1.5s-3.6-0.6-4.8-1.9
			C100.8,160.2,100.3,158.3,100.3,155.6z M103.2,155.8c0,1.8,0.3,3.2,0.9,4.1s1.5,1.3,2.6,1.3c1.1,0,1.9-0.3,2.5-1
			c0.6-0.7,0.9-1.6,0.9-2.9c0-2.6-1.2-3.9-3.5-3.9c-1,0-2.1,0.3-3.5,0.8C103.2,154.5,103.2,155,103.2,155.8z"/>
		<path d="M115.1,153.2c0-3.5,0.6-6,1.8-7.7c1.2-1.6,3-2.5,5.4-2.5c2.4,0,4.2,0.8,5.4,2.4c1.2,1.6,1.8,4.2,1.8,7.7
			c0,3.5-0.6,6.1-1.8,7.7c-1.2,1.6-3,2.4-5.4,2.4c-1.6,0-2.9-0.3-3.9-1c-1-0.7-1.9-1.8-2.4-3.3C115.4,157.5,115.1,155.6,115.1,153.2
			z M118.5,149.5c-0.2,1-0.3,2.3-0.3,3.7c0,1.5,0.1,2.7,0.3,3.7s0.4,1.8,0.8,2.4c0.4,0.6,0.8,1,1.3,1.2c0.5,0.2,1.1,0.4,1.8,0.4
			c0.6,0,1.1-0.1,1.5-0.2s0.8-0.4,1.1-0.7c0.3-0.4,0.6-0.8,0.8-1.4s0.4-1.3,0.5-2.2c0.1-0.9,0.2-1.9,0.2-3.1c0-1.2-0.1-2.2-0.2-3.1
			s-0.3-1.6-0.5-2.2s-0.5-1.1-0.8-1.4c-0.3-0.4-0.7-0.6-1.1-0.7c-0.4-0.1-0.9-0.2-1.5-0.2c-0.7,0-1.3,0.1-1.8,0.4
			c-0.5,0.2-0.9,0.6-1.3,1.2C118.9,147.7,118.7,148.5,118.5,149.5z"/>
		<path d="M100.8,217.1c0-0.4,0-0.8,0.2-1.2c0.1-0.4,0.3-0.7,0.6-1c0.1,0,0.3,0.1,0.5,0.2c0.2,0.1,0.7,0.2,1.3,0.3
			c0.7,0.1,1.3,0.2,2,0.2c1.6,0,2.7-0.3,3.5-0.8s1.2-1.4,1.2-2.7c0-1.3-0.4-2.2-1.1-2.8c-0.7-0.5-1.9-0.8-3.7-0.8
			c-0.7,0-1.8,0.1-3.3,0.2v-10.6h10.2c0.3,0.9,0.3,1.7,0,2.5h-7.3v5.6c0.5-0.1,0.9-0.1,1.5-0.1c2.2,0,3.9,0.5,5,1.5
			c1.1,1,1.7,2.5,1.7,4.5c0,1.9-0.6,3.4-1.8,4.4c-1.2,1-3.1,1.5-5.5,1.5c-1,0-1.9-0.1-2.7-0.2c-0.8-0.2-1.4-0.3-1.7-0.5L100.8,217.1
			z"/>
		<path d="M115.1,207.9c0-3.5,0.6-6,1.8-7.7c1.2-1.6,3-2.5,5.4-2.5c2.4,0,4.2,0.8,5.4,2.4c1.2,1.6,1.8,4.2,1.8,7.7
			c0,3.5-0.6,6.1-1.8,7.7c-1.2,1.6-3,2.4-5.4,2.4c-1.6,0-2.9-0.3-3.9-1c-1-0.7-1.9-1.8-2.4-3.3C115.4,212.3,115.1,210.3,115.1,207.9
			z M118.5,204.2c-0.2,1-0.3,2.3-0.3,3.7c0,1.5,0.1,2.7,0.3,3.7s0.4,1.8,0.8,2.4c0.4,0.6,0.8,1,1.3,1.2c0.5,0.2,1.1,0.4,1.8,0.4
			c0.6,0,1.1-0.1,1.5-0.2s0.8-0.4,1.1-0.7c0.3-0.4,0.6-0.8,0.8-1.4s0.4-1.3,0.5-2.2c0.1-0.9,0.2-1.9,0.2-3.1c0-1.2-0.1-2.2-0.2-3.1
			s-0.3-1.6-0.5-2.2s-0.5-1.1-0.8-1.4c-0.3-0.4-0.7-0.6-1.1-0.7c-0.4-0.1-0.9-0.2-1.5-0.2c-0.7,0-1.3,0.1-1.8,0.4
			c-0.5,0.2-0.9,0.6-1.3,1.2C118.9,202.4,118.7,203.2,118.5,204.2z"/>
		<path d="M98.7,266.4c0-0.2,0-0.4,0.1-0.6c0-0.2,0.1-0.3,0.1-0.4l0.1-0.1l9-12.2c0.3-0.1,0.8-0.2,1.5-0.2c0.3,0,0.5,0,0.8,0
			c0.2,0,0.4,0.1,0.5,0.1l0.1,0.1v12.2h2.5c0.1,0.3,0.2,0.7,0.2,1.1c0,0.2,0,0.4,0,0.6c0,0.2-0.1,0.3-0.1,0.4l-0.1,0.1h-2.5v4.7
			c-0.3,0.1-0.8,0.2-1.4,0.2c-0.3,0-0.5,0-0.8,0c-0.2,0-0.4-0.1-0.5-0.1l-0.2-0.1v-4.7h-9.1C98.8,267.3,98.7,266.9,98.7,266.4z
			 M101.8,265.3h6.2v-8.4L101.8,265.3z"/>
		<path d="M115.1,262.7c0-3.5,0.6-6,1.8-7.7c1.2-1.6,3-2.5,5.4-2.5c2.4,0,4.2,0.8,5.4,2.4c1.2,1.6,1.8,4.2,1.8,7.7
			c0,3.5-0.6,6.1-1.8,7.7c-1.2,1.6-3,2.4-5.4,2.4c-1.6,0-2.9-0.3-3.9-1c-1-0.7-1.9-1.8-2.4-3.3C115.4,267,115.1,265,115.1,262.7z
			 M118.5,258.9c-0.2,1-0.3,2.3-0.3,3.7c0,1.5,0.1,2.7,0.3,3.7s0.4,1.8,0.8,2.4c0.4,0.6,0.8,1,1.3,1.2c0.5,0.2,1.1,0.4,1.8,0.4
			c0.6,0,1.1-0.1,1.5-0.2s0.8-0.4,1.1-0.7c0.3-0.4,0.6-0.8,0.8-1.4s0.4-1.3,0.5-2.2c0.1-0.9,0.2-1.9,0.2-3.1c0-1.2-0.1-2.2-0.2-3.1
			s-0.3-1.6-0.5-2.2s-0.5-1.1-0.8-1.4c-0.3-0.4-0.7-0.6-1.1-0.7c-0.4-0.1-0.9-0.2-1.5-0.2c-0.7,0-1.3,0.1-1.8,0.4
			c-0.5,0.2-0.9,0.6-1.3,1.2C118.9,257.1,118.7,257.9,118.5,258.9z"/>
		<path d="M100.7,326.5c0-0.4,0-0.8,0.2-1.2c0.1-0.4,0.3-0.7,0.6-0.9c0.2,0.1,0.4,0.1,0.7,0.2c0.3,0.1,0.8,0.2,1.5,0.3
			c0.7,0.1,1.3,0.2,2,0.2c1.5,0,2.6-0.3,3.3-0.8c0.7-0.6,1.1-1.4,1.1-2.6c0-2.3-1.4-3.5-4.1-3.5h-2.1c-0.3-0.8-0.3-1.6,0-2.3h2.1
			c1.1,0,2-0.3,2.6-0.8c0.6-0.5,0.9-1.3,0.9-2.3c0-2.1-1.2-3.1-3.7-3.1c-0.6,0-1.3,0.1-1.9,0.2c-0.6,0.1-1.1,0.2-1.4,0.3l-0.5,0.2
			c-0.7-0.5-1-1.2-0.9-2c0.1-0.1,0.3-0.2,0.6-0.3c0.3-0.1,0.8-0.3,1.7-0.4c0.8-0.2,1.7-0.3,2.6-0.3c2,0,3.6,0.4,4.7,1.3
			c1.1,0.9,1.7,2.1,1.7,3.8c0,2.3-0.8,3.8-2.5,4.5c2.1,0.8,3.2,2.5,3.2,5.1c0,3.7-2.4,5.5-7.1,5.5c-0.9,0-1.8-0.1-2.7-0.3
			c-0.8-0.2-1.4-0.3-1.8-0.5L100.7,326.5z"/>
		<path d="M115.1,317.4c0-3.5,0.6-6,1.8-7.7c1.2-1.6,3-2.5,5.4-2.5c2.4,0,4.2,0.8,5.4,2.4c1.2,1.6,1.8,4.2,1.8,7.7
			c0,3.5-0.6,6.1-1.8,7.7c-1.2,1.6-3,2.4-5.4,2.4c-1.6,0-2.9-0.3-3.9-1c-1-0.7-1.9-1.8-2.4-3.3C115.4,321.7,115.1,319.7,115.1,317.4
			z M118.5,313.6c-0.2,1-0.3,2.3-0.3,3.7s0.1,2.7,0.3,3.7s0.4,1.8,0.8,2.4c0.4,0.6,0.8,1,1.3,1.2c0.5,0.2,1.1,0.4,1.8,0.4
			c0.6,0,1.1-0.1,1.5-0.2c0.4-0.1,0.8-0.4,1.1-0.7c0.3-0.4,0.6-0.8,0.8-1.4s0.4-1.3,0.5-2.2s0.2-1.9,0.2-3.1c0-1.2-0.1-2.2-0.2-3.1
			s-0.3-1.6-0.5-2.2s-0.5-1.1-0.8-1.4c-0.3-0.4-0.7-0.6-1.1-0.7c-0.4-0.1-0.9-0.2-1.5-0.2c-0.7,0-1.3,0.1-1.8,0.4
			c-0.5,0.2-0.9,0.6-1.3,1.2C118.9,311.8,118.7,312.6,118.5,313.6z"/>
		<path d="M100.6,380c0-0.8,0.1-1.6,0.3-2.3c0.2-0.7,0.5-1.3,0.7-1.8s0.7-0.9,1.2-1.4s1-0.8,1.4-1.1s0.9-0.6,1.5-1
			c0.2-0.1,0.4-0.2,0.5-0.3c0.5-0.4,0.9-0.6,1.2-0.8c0.3-0.2,0.6-0.4,0.9-0.7c0.4-0.3,0.6-0.5,0.8-0.7c0.2-0.2,0.3-0.4,0.5-0.7
			c0.2-0.3,0.3-0.6,0.3-0.9c0.1-0.3,0.1-0.6,0.1-1c0-0.9-0.3-1.7-0.9-2.2c-0.6-0.5-1.6-0.8-2.9-0.8c-0.6,0-1.3,0.1-2,0.2
			c-0.7,0.1-1.2,0.2-1.6,0.4l-0.5,0.2c-0.6-0.5-0.9-1.2-0.8-2.1c0.2-0.1,0.4-0.2,0.7-0.3c0.3-0.1,0.9-0.3,1.9-0.5s1.9-0.3,2.8-0.3
			c0.9,0,1.7,0.1,2.5,0.3c0.7,0.2,1.4,0.5,2,0.9c0.6,0.4,1,1,1.4,1.7s0.5,1.5,0.5,2.4c0,0.4,0,0.8-0.1,1.1c-0.1,0.4-0.1,0.7-0.2,1
			c-0.1,0.3-0.2,0.6-0.4,0.9s-0.3,0.5-0.5,0.7c-0.1,0.2-0.4,0.4-0.6,0.7c-0.3,0.3-0.5,0.5-0.7,0.6c-0.2,0.2-0.5,0.4-0.9,0.6
			c-0.4,0.3-0.7,0.5-1,0.6c-0.2,0.2-0.6,0.4-1.1,0.7c-0.1,0.1-0.4,0.3-0.9,0.5c-0.4,0.3-0.8,0.5-1,0.6s-0.5,0.3-0.8,0.6
			c-0.3,0.3-0.6,0.5-0.8,0.8c-0.2,0.2-0.3,0.5-0.5,0.9c-0.1,0.3-0.2,0.7-0.2,1.1c0,0.3,0,0.5,0.1,0.6h9.1c0.2,0.3,0.3,0.8,0.3,1.3
			c0,0.5-0.1,0.9-0.3,1.3h-11.7C100.6,381.3,100.6,380.7,100.6,380z"/>
		<path d="M115.1,372.1c0-3.5,0.6-6,1.8-7.7c1.2-1.6,3-2.5,5.4-2.5c2.4,0,4.2,0.8,5.4,2.4c1.2,1.6,1.8,4.2,1.8,7.7
			c0,3.5-0.6,6.1-1.8,7.7c-1.2,1.6-3,2.4-5.4,2.4c-1.6,0-2.9-0.3-3.9-1c-1-0.7-1.9-1.8-2.4-3.3C115.4,376.4,115.1,374.4,115.1,372.1
			z M118.5,368.3c-0.2,1-0.3,2.3-0.3,3.7s0.1,2.7,0.3,3.7s0.4,1.8,0.8,2.4c0.4,0.6,0.8,1,1.3,1.2c0.5,0.2,1.1,0.4,1.8,0.4
			c0.6,0,1.1-0.1,1.5-0.2c0.4-0.1,0.8-0.4,1.1-0.7c0.3-0.4,0.6-0.8,0.8-1.4s0.4-1.3,0.5-2.2s0.2-1.9,0.2-3.1c0-1.2-0.1-2.2-0.2-3.1
			s-0.3-1.6-0.5-2.2s-0.5-1.1-0.8-1.4c-0.3-0.4-0.7-0.6-1.1-0.7c-0.4-0.1-0.9-0.2-1.5-0.2c-0.7,0-1.3,0.1-1.8,0.4
			c-0.5,0.2-0.9,0.6-1.3,1.2C118.9,366.5,118.7,367.3,118.5,368.3z"/>
		<path d="M103.4,421c1.2-0.3,2.3-0.8,3.2-1.4c0.9-0.6,1.7-1.4,2.4-2.5c0.3-0.1,0.8-0.2,1.4-0.2c0.3,0,0.5,0,0.8,0
			c0.2,0,0.4,0.1,0.5,0.1l0.1,0.1v19.3c-0.3,0.1-0.8,0.2-1.5,0.2c-0.3,0-0.5,0-0.8,0c-0.3,0-0.4-0.1-0.5-0.1l-0.2-0.1v-11.9
			c0-1.3,0.1-2.6,0.2-3.8c-1.2,1.2-2.9,2.1-4.9,2.6c-0.3-0.3-0.5-0.6-0.6-1.1C103.4,421.9,103.4,421.5,103.4,421z"/>
		<path d="M115.1,426.8c0-3.5,0.6-6,1.8-7.7c1.2-1.6,3-2.5,5.4-2.5c2.4,0,4.2,0.8,5.4,2.4c1.2,1.6,1.8,4.2,1.8,7.7
			c0,3.5-0.6,6.1-1.8,7.7c-1.2,1.6-3,2.4-5.4,2.4c-1.6,0-2.9-0.3-3.9-1c-1-0.7-1.9-1.8-2.4-3.3C115.4,431.1,115.1,429.1,115.1,426.8
			z M118.5,423.1c-0.2,1-0.3,2.3-0.3,3.7s0.1,2.7,0.3,3.7s0.4,1.8,0.8,2.4c0.4,0.6,0.8,1,1.3,1.2c0.5,0.2,1.1,0.4,1.8,0.4
			c0.6,0,1.1-0.1,1.5-0.2c0.4-0.1,0.8-0.4,1.1-0.7c0.3-0.4,0.6-0.8,0.8-1.4s0.4-1.3,0.5-2.2s0.2-1.9,0.2-3.1c0-1.2-0.1-2.2-0.2-3.1
			s-0.3-1.6-0.5-2.2s-0.5-1.1-0.8-1.4c-0.3-0.4-0.7-0.6-1.1-0.7c-0.4-0.1-0.9-0.2-1.5-0.2c-0.7,0-1.3,0.1-1.8,0.4
			c-0.5,0.2-0.9,0.6-1.3,1.2C118.9,421.3,118.7,422,118.5,423.1z"/>
		<path d="M115.1,481.5c0-3.5,0.6-6,1.8-7.7c1.2-1.6,3-2.5,5.4-2.5c2.4,0,4.2,0.8,5.4,2.4c1.2,1.6,1.8,4.2,1.8,7.7
			c0,3.5-0.6,6.1-1.8,7.7c-1.2,1.6-3,2.4-5.4,2.4c-1.6,0-2.9-0.3-3.9-1c-1-0.7-1.9-1.8-2.4-3.3C115.4,485.8,115.1,483.9,115.1,481.5
			z M118.5,477.8c-0.2,1-0.3,2.3-0.3,3.7s0.1,2.7,0.3,3.7s0.4,1.8,0.8,2.4c0.4,0.6,0.8,1,1.3,1.2c0.5,0.2,1.1,0.4,1.8,0.4
			c0.6,0,1.1-0.1,1.5-0.2c0.4-0.1,0.8-0.4,1.1-0.7c0.3-0.4,0.6-0.8,0.8-1.4s0.4-1.3,0.5-2.2s0.2-1.9,0.2-3.1c0-1.2-0.1-2.2-0.2-3.1
			s-0.3-1.6-0.5-2.2s-0.5-1.1-0.8-1.4c-0.3-0.4-0.7-0.6-1.1-0.7c-0.4-0.1-0.9-0.2-1.5-0.2c-0.7,0-1.3,0.1-1.8,0.4
			c-0.5,0.2-0.9,0.6-1.3,1.2C118.9,476,118.7,476.8,118.5,477.8z"/>
	</g>
	<g>
		<path d="M134.9,37.9c0-1,0.2-1.7,0.6-2.2c0.4-0.5,1-0.7,1.8-0.7c0.8,0,1.4,0.2,1.8,0.7s0.6,1.2,0.6,2.2c0,1-0.2,1.8-0.6,2.2
			c-0.4,0.5-1,0.7-1.8,0.7c-0.8,0-1.4-0.2-1.8-0.7C135.1,39.7,134.9,38.9,134.9,37.9z M136.2,37.9c0,0.8,0.1,1.3,0.3,1.5
			c0.2,0.3,0.4,0.4,0.8,0.4c0.2,0,0.4,0,0.6-0.1c0.1-0.1,0.3-0.3,0.3-0.6s0.1-0.7,0.1-1.2c0-0.7-0.1-1.2-0.3-1.5
			c-0.2-0.3-0.4-0.4-0.8-0.4c-0.4,0-0.6,0.1-0.8,0.4C136.3,36.7,136.2,37.2,136.2,37.9z M136.8,46.7l6.7-11.8
			c0.1-0.1,0.4-0.1,0.7-0.1c0.1,0,0.3,0,0.4,0s0.2,0,0.2,0.1l0.1,0l-6.7,11.8c-0.1,0.1-0.4,0.1-0.7,0.1c-0.1,0-0.2,0-0.4,0
			C137,46.8,136.9,46.8,136.8,46.7L136.8,46.7z M141.9,43.9c0-1,0.2-1.7,0.6-2.2c0.4-0.5,1-0.7,1.8-0.7c1.6,0,2.4,1,2.4,2.9
			c0,1.9-0.8,2.9-2.4,2.9c-0.8,0-1.4-0.2-1.8-0.7C142.1,45.7,141.9,44.9,141.9,43.9z M143.2,43.9c0,0.7,0.1,1.3,0.3,1.5
			s0.4,0.4,0.8,0.4c0.2,0,0.4,0,0.6-0.1c0.1-0.1,0.3-0.3,0.3-0.6c0.1-0.3,0.1-0.7,0.1-1.2c0-0.7-0.1-1.2-0.3-1.5
			c-0.2-0.3-0.4-0.4-0.8-0.4c-0.4,0-0.6,0.1-0.8,0.4C143.3,42.7,143.2,43.2,143.2,43.9z"/>
		<path d="M134.9,92.6c0-1,0.2-1.7,0.6-2.2c0.4-0.5,1-0.7,1.8-0.7c0.8,0,1.4,0.2,1.8,0.7s0.6,1.2,0.6,2.2c0,1-0.2,1.8-0.6,2.2
			c-0.4,0.5-1,0.7-1.8,0.7c-0.8,0-1.4-0.2-1.8-0.7C135.1,94.4,134.9,93.6,134.9,92.6z M136.2,92.6c0,0.8,0.1,1.3,0.3,1.5
			c0.2,0.3,0.4,0.4,0.8,0.4c0.2,0,0.4,0,0.6-0.1c0.1-0.1,0.3-0.3,0.3-0.6s0.1-0.7,0.1-1.2c0-0.7-0.1-1.2-0.3-1.5
			c-0.2-0.3-0.4-0.4-0.8-0.4c-0.4,0-0.6,0.1-0.8,0.4C136.3,91.4,136.2,91.9,136.2,92.6z M136.8,101.4l6.7-11.8
			c0.1-0.1,0.4-0.1,0.7-0.1c0.1,0,0.3,0,0.4,0s0.2,0,0.2,0.1l0.1,0l-6.7,11.8c-0.1,0.1-0.4,0.1-0.7,0.1c-0.1,0-0.2,0-0.4,0
			C137,101.5,136.9,101.5,136.8,101.4L136.8,101.4z M141.9,98.6c0-1,0.2-1.7,0.6-2.2c0.4-0.5,1-0.7,1.8-0.7c1.6,0,2.4,1,2.4,2.9
			c0,1.9-0.8,2.9-2.4,2.9c-0.8,0-1.4-0.2-1.8-0.7C142.1,100.4,141.9,99.6,141.9,98.6z M143.2,98.6c0,0.7,0.1,1.3,0.3,1.5
			s0.4,0.4,0.8,0.4c0.2,0,0.4,0,0.6-0.1c0.1-0.1,0.3-0.3,0.3-0.6c0.1-0.3,0.1-0.7,0.1-1.2c0-0.7-0.1-1.2-0.3-1.5
			c-0.2-0.3-0.4-0.4-0.8-0.4c-0.4,0-0.6,0.1-0.8,0.4C143.3,97.4,143.2,97.9,143.2,98.6z"/>
		<path d="M134.9,147.3c0-1,0.2-1.7,0.6-2.2c0.4-0.5,1-0.7,1.8-0.7c0.8,0,1.4,0.2,1.8,0.7s0.6,1.2,0.6,2.2c0,1-0.2,1.8-0.6,2.2
			c-0.4,0.5-1,0.7-1.8,0.7c-0.8,0-1.4-0.2-1.8-0.7C135.1,149.1,134.9,148.4,134.9,147.3z M136.2,147.3c0,0.8,0.1,1.3,0.3,1.5
			c0.2,0.3,0.4,0.4,0.8,0.4c0.2,0,0.4,0,0.6-0.1c0.1-0.1,0.3-0.3,0.3-0.6s0.1-0.7,0.1-1.2c0-0.7-0.1-1.2-0.3-1.5
			c-0.2-0.3-0.4-0.4-0.8-0.4c-0.4,0-0.6,0.1-0.8,0.4C136.3,146.1,136.2,146.6,136.2,147.3z M136.8,156.1l6.7-11.8
			c0.1-0.1,0.4-0.1,0.7-0.1c0.1,0,0.3,0,0.4,0s0.2,0,0.2,0.1l0.1,0l-6.7,11.8c-0.1,0.1-0.4,0.1-0.7,0.1c-0.1,0-0.2,0-0.4,0
			C137,156.2,136.9,156.2,136.8,156.1L136.8,156.1z M141.9,153.3c0-1,0.2-1.7,0.6-2.2c0.4-0.5,1-0.7,1.8-0.7c1.6,0,2.4,1,2.4,2.9
			c0,1.9-0.8,2.9-2.4,2.9c-0.8,0-1.4-0.2-1.8-0.7C142.1,155.1,141.9,154.3,141.9,153.3z M143.2,153.3c0,0.7,0.1,1.3,0.3,1.5
			s0.4,0.4,0.8,0.4c0.2,0,0.4,0,0.6-0.1c0.1-0.1,0.3-0.3,0.3-0.6c0.1-0.3,0.1-0.7,0.1-1.2c0-0.7-0.1-1.2-0.3-1.5
			c-0.2-0.3-0.4-0.4-0.8-0.4c-0.4,0-0.6,0.1-0.8,0.4C143.3,152.1,143.2,152.6,143.2,153.3z"/>
		<path d="M134.9,202c0-1,0.2-1.7,0.6-2.2c0.4-0.5,1-0.7,1.8-0.7c0.8,0,1.4,0.2,1.8,0.7s0.6,1.2,0.6,2.2c0,1-0.2,1.8-0.6,2.2
			c-0.4,0.5-1,0.7-1.8,0.7c-0.8,0-1.4-0.2-1.8-0.7C135.1,203.8,134.9,203.1,134.9,202z M136.2,202c0,0.8,0.1,1.3,0.3,1.5
			c0.2,0.3,0.4,0.4,0.8,0.4c0.2,0,0.4,0,0.6-0.1c0.1-0.1,0.3-0.3,0.3-0.6s0.1-0.7,0.1-1.2c0-0.7-0.1-1.2-0.3-1.5
			c-0.2-0.3-0.4-0.4-0.8-0.4c-0.4,0-0.6,0.1-0.8,0.4C136.3,200.8,136.2,201.3,136.2,202z M136.8,210.8l6.7-11.8
			c0.1-0.1,0.4-0.1,0.7-0.1c0.1,0,0.3,0,0.4,0s0.2,0,0.2,0.1l0.1,0l-6.7,11.8c-0.1,0.1-0.4,0.1-0.7,0.1c-0.1,0-0.2,0-0.4,0
			C137,210.9,136.9,210.9,136.8,210.8L136.8,210.8z M141.9,208c0-1,0.2-1.7,0.6-2.2c0.4-0.5,1-0.7,1.8-0.7c1.6,0,2.4,1,2.4,2.9
			c0,1.9-0.8,2.9-2.4,2.9c-0.8,0-1.4-0.2-1.8-0.7C142.1,209.8,141.9,209,141.9,208z M143.2,208c0,0.7,0.1,1.3,0.3,1.5
			s0.4,0.4,0.8,0.4c0.2,0,0.4,0,0.6-0.1c0.1-0.1,0.3-0.3,0.3-0.6c0.1-0.3,0.1-0.7,0.1-1.2c0-0.7-0.1-1.2-0.3-1.5
			c-0.2-0.3-0.4-0.4-0.8-0.4c-0.4,0-0.6,0.1-0.8,0.4C143.3,206.8,143.2,207.3,143.2,208z"/>
		<path d="M134.9,256.7c0-1,0.2-1.7,0.6-2.2c0.4-0.5,1-0.7,1.8-0.7c0.8,0,1.4,0.2,1.8,0.7s0.6,1.2,0.6,2.2c0,1-0.2,1.8-0.6,2.2
			c-0.4,0.5-1,0.7-1.8,0.7c-0.8,0-1.4-0.2-1.8-0.7C135.1,258.5,134.9,257.8,134.9,256.7z M136.2,256.7c0,0.8,0.1,1.3,0.3,1.5
			c0.2,0.3,0.4,0.4,0.8,0.4c0.2,0,0.4,0,0.6-0.1c0.1-0.1,0.3-0.3,0.3-0.6s0.1-0.7,0.1-1.2c0-0.7-0.1-1.2-0.3-1.5
			c-0.2-0.3-0.4-0.4-0.8-0.4c-0.4,0-0.6,0.1-0.8,0.4C136.3,255.5,136.2,256,136.2,256.7z M136.8,265.6l6.7-11.8
			c0.1-0.1,0.4-0.1,0.7-0.1c0.1,0,0.3,0,0.4,0s0.2,0,0.2,0.1l0.1,0l-6.7,11.8c-0.1,0.1-0.4,0.1-0.7,0.1c-0.1,0-0.2,0-0.4,0
			C137,265.6,136.9,265.6,136.8,265.6L136.8,265.6z M141.9,262.7c0-1,0.2-1.7,0.6-2.2c0.4-0.5,1-0.7,1.8-0.7c1.6,0,2.4,1,2.4,2.9
			c0,1.9-0.8,2.9-2.4,2.9c-0.8,0-1.4-0.2-1.8-0.7C142.1,264.5,141.9,263.8,141.9,262.7z M143.2,262.7c0,0.7,0.1,1.3,0.3,1.5
			s0.4,0.4,0.8,0.4c0.2,0,0.4,0,0.6-0.1c0.1-0.1,0.3-0.3,0.3-0.6c0.1-0.3,0.1-0.7,0.1-1.2c0-0.7-0.1-1.2-0.3-1.5
			c-0.2-0.3-0.4-0.4-0.8-0.4c-0.4,0-0.6,0.1-0.8,0.4C143.3,261.5,143.2,262,143.2,262.7z"/>
		<path d="M134.9,311.5c0-1,0.2-1.7,0.6-2.2c0.4-0.5,1-0.7,1.8-0.7c0.8,0,1.4,0.2,1.8,0.7s0.6,1.2,0.6,2.2c0,1-0.2,1.8-0.6,2.2
			s-1,0.7-1.8,0.7c-0.8,0-1.4-0.2-1.8-0.7S134.9,312.5,134.9,311.5z M136.2,311.5c0,0.8,0.1,1.3,0.3,1.5c0.2,0.3,0.4,0.4,0.8,0.4
			c0.2,0,0.4,0,0.6-0.1c0.1-0.1,0.3-0.3,0.3-0.6s0.1-0.7,0.1-1.2c0-0.7-0.1-1.2-0.3-1.5c-0.2-0.3-0.4-0.4-0.8-0.4
			c-0.4,0-0.6,0.1-0.8,0.4C136.3,310.2,136.2,310.7,136.2,311.5z M136.8,320.3l6.7-11.8c0.1-0.1,0.4-0.1,0.7-0.1c0.1,0,0.3,0,0.4,0
			s0.2,0,0.2,0.1l0.1,0l-6.7,11.8c-0.1,0.1-0.4,0.1-0.7,0.1c-0.1,0-0.2,0-0.4,0C137,320.3,136.9,320.3,136.8,320.3L136.8,320.3z
			 M141.9,317.4c0-1,0.2-1.7,0.6-2.2c0.4-0.5,1-0.7,1.8-0.7c1.6,0,2.4,1,2.4,2.9s-0.8,2.9-2.4,2.9c-0.8,0-1.4-0.2-1.8-0.7
			C142.1,319.2,141.9,318.5,141.9,317.4z M143.2,317.4c0,0.7,0.1,1.3,0.3,1.5c0.2,0.3,0.4,0.4,0.8,0.4c0.2,0,0.4,0,0.6-0.1
			c0.1-0.1,0.3-0.3,0.3-0.6c0.1-0.3,0.1-0.7,0.1-1.2c0-0.7-0.1-1.2-0.3-1.5c-0.2-0.3-0.4-0.4-0.8-0.4c-0.4,0-0.6,0.1-0.8,0.4
			C143.3,316.2,143.2,316.7,143.2,317.4z"/>
		<path d="M134.9,366.2c0-1,0.2-1.7,0.6-2.2s1-0.7,1.8-0.7c0.8,0,1.4,0.2,1.8,0.7s0.6,1.2,0.6,2.2s-0.2,1.8-0.6,2.2s-1,0.7-1.8,0.7
			c-0.8,0-1.4-0.2-1.8-0.7S134.9,367.2,134.9,366.2z M136.2,366.2c0,0.8,0.1,1.3,0.3,1.5c0.2,0.3,0.4,0.4,0.8,0.4
			c0.2,0,0.4,0,0.6-0.1c0.1-0.1,0.3-0.3,0.3-0.6s0.1-0.7,0.1-1.2c0-0.7-0.1-1.2-0.3-1.5c-0.2-0.3-0.4-0.4-0.8-0.4
			c-0.4,0-0.6,0.1-0.8,0.4C136.3,364.9,136.2,365.4,136.2,366.2z M136.8,375l6.7-11.8c0.1-0.1,0.4-0.1,0.7-0.1c0.1,0,0.3,0,0.4,0
			c0.1,0,0.2,0,0.2,0.1l0.1,0l-6.7,11.8c-0.1,0.1-0.4,0.1-0.7,0.1c-0.1,0-0.2,0-0.4,0C137,375,136.9,375,136.8,375L136.8,375z
			 M141.9,372.2c0-1,0.2-1.7,0.6-2.2c0.4-0.5,1-0.7,1.8-0.7c1.6,0,2.4,1,2.4,2.9s-0.8,2.9-2.4,2.9c-0.8,0-1.4-0.2-1.8-0.7
			C142.1,373.9,141.9,373.2,141.9,372.2z M143.2,372.2c0,0.7,0.1,1.3,0.3,1.5c0.2,0.3,0.4,0.4,0.8,0.4c0.2,0,0.4,0,0.6-0.1
			c0.1-0.1,0.3-0.3,0.3-0.6c0.1-0.3,0.1-0.7,0.1-1.2c0-0.7-0.1-1.2-0.3-1.5c-0.2-0.3-0.4-0.4-0.8-0.4c-0.4,0-0.6,0.1-0.8,0.4
			C143.3,370.9,143.2,371.4,143.2,372.2z"/>
		<path d="M134.9,420.9c0-1,0.2-1.7,0.6-2.2s1-0.7,1.8-0.7c0.8,0,1.4,0.2,1.8,0.7s0.6,1.2,0.6,2.2s-0.2,1.8-0.6,2.2s-1,0.7-1.8,0.7
			c-0.8,0-1.4-0.2-1.8-0.7S134.9,421.9,134.9,420.9z M136.2,420.9c0,0.8,0.1,1.3,0.3,1.5c0.2,0.3,0.4,0.4,0.8,0.4
			c0.2,0,0.4,0,0.6-0.1c0.1-0.1,0.3-0.3,0.3-0.6s0.1-0.7,0.1-1.2c0-0.7-0.1-1.2-0.3-1.5c-0.2-0.3-0.4-0.4-0.8-0.4
			c-0.4,0-0.6,0.1-0.8,0.4C136.3,419.6,136.2,420.1,136.2,420.9z M136.8,429.7l6.7-11.8c0.1-0.1,0.4-0.1,0.7-0.1c0.1,0,0.3,0,0.4,0
			c0.1,0,0.2,0,0.2,0.1l0.1,0l-6.7,11.8c-0.1,0.1-0.4,0.1-0.7,0.1c-0.1,0-0.2,0-0.4,0C137,429.7,136.9,429.7,136.8,429.7
			L136.8,429.7z M141.9,426.9c0-1,0.2-1.7,0.6-2.2c0.4-0.5,1-0.7,1.8-0.7c1.6,0,2.4,1,2.4,2.9s-0.8,2.9-2.4,2.9
			c-0.8,0-1.4-0.2-1.8-0.7C142.1,428.6,141.9,427.9,141.9,426.9z M143.2,426.9c0,0.7,0.1,1.3,0.3,1.5c0.2,0.3,0.4,0.4,0.8,0.4
			c0.2,0,0.4,0,0.6-0.1c0.1-0.1,0.3-0.3,0.3-0.6c0.1-0.3,0.1-0.7,0.1-1.2c0-0.7-0.1-1.2-0.3-1.5c-0.2-0.3-0.4-0.4-0.8-0.4
			c-0.4,0-0.6,0.1-0.8,0.4C143.3,425.6,143.2,426.1,143.2,426.9z"/>
		<path d="M134.9,475.6c0-1,0.2-1.7,0.6-2.2s1-0.7,1.8-0.7c0.8,0,1.4,0.2,1.8,0.7s0.6,1.2,0.6,2.2s-0.2,1.8-0.6,2.2s-1,0.7-1.8,0.7
			c-0.8,0-1.4-0.2-1.8-0.7S134.9,476.6,134.9,475.6z M136.2,475.6c0,0.8,0.1,1.3,0.3,1.5c0.2,0.3,0.4,0.4,0.8,0.4
			c0.2,0,0.4,0,0.6-0.1c0.1-0.1,0.3-0.3,0.3-0.6s0.1-0.7,0.1-1.2c0-0.7-0.1-1.2-0.3-1.5c-0.2-0.3-0.4-0.4-0.8-0.4
			c-0.4,0-0.6,0.1-0.8,0.4C136.3,474.3,136.2,474.8,136.2,475.6z M136.8,484.4l6.7-11.8c0.1-0.1,0.4-0.1,0.7-0.1c0.1,0,0.3,0,0.4,0
			c0.1,0,0.2,0,0.2,0.1l0.1,0l-6.7,11.8c-0.1,0.1-0.4,0.1-0.7,0.1c-0.1,0-0.2,0-0.4,0C137,484.4,136.9,484.4,136.8,484.4
			L136.8,484.4z M141.9,481.6c0-1,0.2-1.7,0.6-2.2c0.4-0.5,1-0.7,1.8-0.7c1.6,0,2.4,1,2.4,2.9s-0.8,2.9-2.4,2.9
			c-0.8,0-1.4-0.2-1.8-0.7C142.1,483.3,141.9,482.6,141.9,481.6z M143.2,481.6c0,0.7,0.1,1.3,0.3,1.5c0.2,0.3,0.4,0.4,0.8,0.4
			c0.2,0,0.4,0,0.6-0.1c0.1-0.1,0.3-0.3,0.3-0.6c0.1-0.3,0.1-0.7,0.1-1.2c0-0.7-0.1-1.2-0.3-1.5c-0.2-0.3-0.4-0.4-0.8-0.4
			c-0.4,0-0.6,0.1-0.8,0.4C143.3,480.3,143.2,480.8,143.2,481.6z"/>
	</g>
	<g>
		<line class="st0" x1="158.7" y1="43.5" x2="698.3" y2="43.5"/>
		<line class="st0" x1="158.7" y1="485.4" x2="698.3" y2="485.4"/>
		<line class="st0" x1="158.7" y1="430.2" x2="698.3" y2="430.2"/>
		<line class="st0" x1="158.7" y1="374.9" x2="698.3" y2="374.9"/>
		<line class="st0" x1="158.7" y1="319.7" x2="698.3" y2="319.7"/>
		<line class="st0" x1="158.7" y1="264.5" x2="698.3" y2="264.5"/>
		<line class="st0" x1="158.7" y1="209.2" x2="698.3" y2="209.2"/>
		<line class="st0" x1="158.7" y1="154" x2="698.3" y2="154"/>
		<line class="st0" x1="158.7" y1="98.8" x2="698.3" y2="98.8"/>
	</g>
	<g>
		<g>
		</g>
	</g>
	<rect x="191.9" y="71.2" class="st2" width="94.1" height="413.4"/>
	<rect x="324.7" y="114.6" class="st3" width="94.1" height="370"/>
	<rect x="456.2" y="251.3" class="st4" width="94.1" height="233.3"/>
	<rect x="586.1" y="443.3" class="st5" width="94.1" height="41.3"/>
	<g>
		<path class="st6" d="M210.6,100.7c0-0.5,0-0.9,0.1-1.3c0.1-0.4,0.1-0.7,0.2-0.9l0.1-0.3h18.3c0.3,0.8,0.4,1.9,0.3,3.1
			c-0.1,1.3-0.3,2.6-0.7,3.9c-0.4,1.2-1,2.4-1.6,3.4c-0.6,1-1.3,2-2.1,3.1s-1.5,2.1-2.2,3.2s-1.4,2.3-2,3.5
			c-0.6,1.2-1.1,2.6-1.5,4.2c-0.4,1.6-0.6,3.3-0.6,5.2c-0.8,0.2-1.6,0.3-2.6,0.3c-1,0-1.8-0.1-2.6-0.3c0-2,0.2-3.8,0.5-5.5
			c0.3-1.7,0.7-3.2,1.2-4.5c0.5-1.3,1.1-2.4,1.7-3.5c0.6-1.1,1.3-2.1,2-3c0.7-0.9,1.3-1.8,2-2.6c0.6-0.8,1.2-1.7,1.7-2.6
			c0.5-0.9,0.9-1.9,1.1-2.8h-13C210.7,102.6,210.6,101.7,210.6,100.7z"/>
		<path class="st6" d="M232.8,126.9c0-0.8,0.1-1.5,0.3-2.3c0.2-0.8,0.6-1.4,1-1.8c0.2,0.1,0.4,0.2,0.7,0.3s1,0.2,2,0.4
			c1,0.2,2,0.3,3,0.3c2,0,3.6-0.4,4.7-1.1s1.6-1.9,1.6-3.5c0-1-0.1-1.8-0.4-2.4c-0.2-0.6-0.7-1.1-1.2-1.4c-0.6-0.3-1.3-0.6-2-0.7
			c-0.8-0.1-1.8-0.2-3-0.2c-1.8,0-3.5,0.1-5,0.2V98.3h16c0.3,0.8,0.4,1.6,0.4,2.5c0,0.9-0.1,1.6-0.4,2.3H240v7c0.3,0,0.9,0,1.6,0
			c3.3,0,5.8,0.7,7.5,2.2c1.7,1.5,2.5,3.8,2.5,6.9c0,3-0.9,5.3-2.8,6.9c-1.9,1.6-4.7,2.4-8.5,2.4c-1,0-2-0.1-2.8-0.2
			c-0.9-0.1-1.6-0.2-2.2-0.4c-0.6-0.1-1-0.3-1.4-0.5c-0.4-0.2-0.7-0.3-0.9-0.4L232.8,126.9z"/>
		<path class="st6" d="M254.8,100.3c0-1.5,0.3-2.6,0.9-3.3s1.5-1.1,2.7-1.1s2.1,0.3,2.7,1c0.6,0.7,0.9,1.8,0.9,3.4
			c0,1.5-0.3,2.7-0.9,3.4c-0.6,0.7-1.5,1-2.7,1s-2.1-0.3-2.7-1S254.8,101.8,254.8,100.3z M257,100.3c0,1.1,0.1,1.8,0.3,2.1
			s0.5,0.5,1,0.5c0.3,0,0.5-0.1,0.7-0.2c0.2-0.1,0.3-0.4,0.4-0.8c0.1-0.4,0.2-1,0.2-1.7c0-1-0.1-1.7-0.3-2.1c-0.2-0.4-0.5-0.5-1-0.5
			c-0.5,0-0.8,0.2-1,0.5C257.2,98.5,257,99.2,257,100.3z M257.7,113.6l9.8-17.8c0.2-0.1,0.6-0.2,1.2-0.2c0.2,0,0.4,0,0.6,0
			c0.2,0,0.3,0.1,0.4,0.1l0.1,0l-9.8,17.8c-0.3,0.1-0.7,0.2-1.2,0.2c-0.2,0-0.4,0-0.6,0c-0.2,0-0.3-0.1-0.4-0.1L257.7,113.6z
			 M265.4,109.3c0-1.5,0.3-2.6,0.9-3.3c0.6-0.7,1.5-1.1,2.7-1.1c1.2,0,2.1,0.3,2.7,1c0.6,0.7,0.9,1.8,0.9,3.4s-0.3,2.7-0.9,3.4
			c-0.6,0.7-1.5,1-2.7,1c-1.2,0-2.1-0.3-2.7-1C265.7,112,265.4,110.9,265.4,109.3z M267.7,109.3c0,0.7,0.1,1.3,0.2,1.7
			c0.1,0.4,0.2,0.7,0.4,0.8c0.2,0.1,0.4,0.2,0.7,0.2c0.3,0,0.5-0.1,0.7-0.2c0.2-0.1,0.3-0.4,0.4-0.8c0.1-0.4,0.2-1,0.2-1.7
			c0-0.7-0.1-1.3-0.2-1.7c-0.1-0.4-0.2-0.7-0.4-0.8s-0.4-0.2-0.7-0.2c-0.5,0-0.8,0.2-1,0.5S267.7,108.3,267.7,109.3z"/>
	</g>
	<g>
		<path class="st6" d="M342.9,156.2c0-6,1.4-10.5,4.3-13.5s7.1-4.7,12.6-5.1c0.3,0.6,0.4,1.4,0.4,2.2c0,0.8-0.1,1.6-0.4,2.3
			c-3,0.3-5.3,1.1-7,2.3c-1.7,1.2-2.9,3-3.5,5.4c1.6-0.4,3.1-0.6,4.5-0.6c1.3,0,2.5,0.2,3.5,0.5s2,0.9,2.9,1.6
			c0.9,0.7,1.5,1.7,2,2.9s0.7,2.6,0.7,4.3c0,3.2-0.9,5.5-2.6,7.1s-4.2,2.3-7.4,2.3c-3.2,0-5.7-1-7.4-2.9
			C343.8,163.1,342.9,160.2,342.9,156.2z M348.5,156.4c0,4.8,1.5,7.2,4.4,7.2c1.4,0,2.5-0.4,3.2-1.2c0.8-0.8,1.1-2.1,1.1-3.8
			c0-3.3-1.5-5-4.5-5c-1.4,0-2.8,0.2-4.3,0.7C348.5,154.7,348.5,155.4,348.5,156.4z"/>
		<path class="st6" d="M366.3,140.2c0-0.5,0-0.9,0.1-1.3c0.1-0.4,0.1-0.7,0.2-0.9l0.1-0.3H385c0.3,0.8,0.4,1.9,0.3,3.1
			c-0.1,1.3-0.3,2.6-0.7,3.9c-0.4,1.2-1,2.4-1.6,3.4c-0.6,1-1.3,2-2.1,3.1s-1.5,2.1-2.2,3.2s-1.4,2.3-2,3.5
			c-0.6,1.2-1.1,2.6-1.5,4.2c-0.4,1.6-0.6,3.3-0.6,5.2c-0.8,0.2-1.6,0.3-2.6,0.3c-1,0-1.8-0.1-2.6-0.3c0-2,0.2-3.8,0.5-5.5
			c0.3-1.7,0.7-3.2,1.2-4.5c0.5-1.3,1.1-2.4,1.7-3.5c0.6-1.1,1.3-2.1,2-3c0.7-0.9,1.3-1.8,2-2.6c0.6-0.8,1.2-1.7,1.7-2.6
			c0.5-0.9,0.9-1.9,1.1-2.8h-13C366.4,142,366.3,141.2,366.3,140.2z"/>
		<path class="st6" d="M388.4,139.7c0-1.5,0.3-2.6,0.9-3.3s1.5-1.1,2.7-1.1s2.1,0.3,2.7,1c0.6,0.7,0.9,1.8,0.9,3.4
			c0,1.5-0.3,2.7-0.9,3.4c-0.6,0.7-1.5,1-2.7,1s-2.1-0.3-2.7-1S388.4,141.3,388.4,139.7z M390.7,139.7c0,1.1,0.1,1.8,0.3,2.1
			s0.5,0.5,1,0.5c0.3,0,0.5-0.1,0.7-0.2c0.2-0.1,0.3-0.4,0.4-0.8c0.1-0.4,0.2-1,0.2-1.7c0-1-0.1-1.7-0.3-2.1c-0.2-0.4-0.5-0.5-1-0.5
			c-0.5,0-0.8,0.2-1,0.5C390.8,138,390.7,138.7,390.7,139.7z M391.3,153l9.8-17.8c0.2-0.1,0.6-0.2,1.2-0.2c0.2,0,0.4,0,0.6,0
			c0.2,0,0.3,0.1,0.4,0.1l0.1,0l-9.8,17.8c-0.3,0.1-0.7,0.2-1.2,0.2c-0.2,0-0.4,0-0.6,0c-0.2,0-0.3-0.1-0.4-0.1L391.3,153z
			 M399,148.8c0-1.5,0.3-2.6,0.9-3.3c0.6-0.7,1.5-1.1,2.7-1.1c1.2,0,2.1,0.3,2.7,1c0.6,0.7,0.9,1.8,0.9,3.4s-0.3,2.7-0.9,3.4
			c-0.6,0.7-1.5,1-2.7,1c-1.2,0-2.1-0.3-2.7-1C399.3,151.4,399,150.3,399,148.8z M401.3,148.8c0,0.7,0.1,1.3,0.2,1.7
			c0.1,0.4,0.2,0.7,0.4,0.8c0.2,0.1,0.4,0.2,0.7,0.2c0.3,0,0.5-0.1,0.7-0.2c0.2-0.1,0.3-0.4,0.4-0.8c0.1-0.4,0.2-1,0.2-1.7
			c0-0.7-0.1-1.3-0.2-1.7c-0.1-0.4-0.2-0.7-0.4-0.8s-0.4-0.2-0.7-0.2c-0.5,0-0.8,0.2-1,0.5S401.3,147.7,401.3,148.8z"/>
	</g>
	<g>
		<path class="st6" d="M471.9,305.4c0-0.4,0-0.8,0.1-1.2c0.1-0.4,0.2-0.6,0.2-0.8l0.1-0.2l13.1-17.8c0.6-0.3,1.6-0.4,2.8-0.4
			c0.5,0,1,0,1.5,0.1c0.4,0.1,0.7,0.1,0.9,0.2l0.3,0.1v17.8h3.7c0.3,0.5,0.4,1.2,0.4,2.2c0,0.4,0,0.8-0.1,1.1s-0.1,0.6-0.2,0.8
			l-0.1,0.2h-3.7v6.8c-0.6,0.3-1.5,0.4-2.5,0.4c-0.5,0-1,0-1.4-0.1c-0.4-0.1-0.8-0.1-1-0.2l-0.3-0.1v-6.8h-13.4
			C472.1,307.1,471.9,306.4,471.9,305.4z M477.9,303.3h7.9v-10.7L477.9,303.3z"/>
		<path class="st6" d="M498.2,313.7c0-0.8,0.1-1.5,0.3-2.3c0.2-0.8,0.6-1.4,1.1-1.8c1.9,0.6,3.9,0.9,6.1,0.9c2,0,3.5-0.3,4.5-1
			c1-0.7,1.5-1.9,1.5-3.5c0-1.6-0.4-2.7-1.2-3.4c-0.8-0.7-2.2-1.1-4-1.1h-3.7c-0.6-1.5-0.6-2.9,0-4.3h3.7c2.9,0,4.3-1.3,4.3-3.9
			c0-1.4-0.4-2.5-1.3-3.1c-0.8-0.6-2.1-1-3.8-1c-0.9,0-1.8,0.1-2.7,0.2c-0.9,0.2-1.5,0.3-2,0.5l-0.6,0.2c-1.3-1-1.9-2.3-1.7-4
			c0.2-0.1,0.5-0.3,0.9-0.4c0.4-0.2,1.3-0.4,2.6-0.7c1.3-0.3,2.7-0.4,4.1-0.4c3.2,0,5.7,0.7,7.4,2c1.8,1.4,2.7,3.4,2.7,6
			c0,3.2-1.2,5.4-3.5,6.5c3,1.2,4.5,3.7,4.5,7.4c0,2.8-0.9,5-2.6,6.4c-1.8,1.5-4.6,2.2-8.5,2.2c-0.9,0-1.9-0.1-2.7-0.2
			c-0.9-0.1-1.6-0.2-2.2-0.4s-1.1-0.3-1.6-0.5c-0.5-0.2-0.8-0.3-1-0.4L498.2,313.7z"/>
		<path class="st6" d="M520.5,287c0-1.5,0.3-2.6,0.9-3.3c0.6-0.7,1.5-1.1,2.7-1.1c1.2,0,2.1,0.3,2.7,1c0.6,0.7,0.9,1.8,0.9,3.4
			c0,1.5-0.3,2.7-0.9,3.4s-1.5,1-2.7,1c-1.2,0-2.1-0.3-2.7-1C520.8,289.7,520.5,288.6,520.5,287z M522.7,287c0,1.1,0.1,1.8,0.3,2.1
			s0.5,0.5,1,0.5c0.3,0,0.5-0.1,0.7-0.2c0.2-0.1,0.3-0.4,0.4-0.8c0.1-0.4,0.2-1,0.2-1.7c0-1-0.1-1.7-0.3-2.1s-0.5-0.5-1-0.5
			c-0.5,0-0.8,0.2-1,0.5S522.7,286,522.7,287z M523.3,300.3l9.8-17.8c0.2-0.1,0.6-0.2,1.2-0.2c0.2,0,0.4,0,0.6,0
			c0.2,0,0.3,0.1,0.4,0.1l0.1,0l-9.8,17.8c-0.3,0.1-0.7,0.2-1.2,0.2c-0.2,0-0.4,0-0.6,0c-0.2,0-0.3-0.1-0.4-0.1L523.3,300.3z
			 M531.1,296.1c0-1.5,0.3-2.6,0.9-3.3c0.6-0.7,1.5-1.1,2.7-1.1c1.2,0,2.1,0.3,2.7,1c0.6,0.7,0.9,1.8,0.9,3.4s-0.3,2.7-0.9,3.4
			c-0.6,0.7-1.5,1-2.7,1c-1.2,0-2.1-0.3-2.7-1S531.1,297.6,531.1,296.1z M533.4,296.1c0,0.7,0.1,1.3,0.2,1.7
			c0.1,0.4,0.2,0.7,0.4,0.8c0.2,0.1,0.4,0.2,0.7,0.2c0.3,0,0.5-0.1,0.7-0.2c0.2-0.1,0.3-0.4,0.4-0.8c0.1-0.4,0.2-1,0.2-1.7
			c0-0.7-0.1-1.3-0.2-1.7c-0.1-0.4-0.2-0.7-0.4-0.8c-0.2-0.1-0.4-0.2-0.7-0.2c-0.5,0-0.8,0.2-1,0.5
			C533.5,294.3,533.4,295,533.4,296.1z"/>
	</g>
	<line class="st7" x1="153.6" y1="486.4" x2="702.6" y2="486.4"/>
	<g>
		<path class="st6" d="M618.8,478.2c0-3.2,1.8-5.7,5.3-7.5c-1.4-0.8-2.5-1.8-3.3-3s-1.2-2.6-1.2-4.3c0-2.4,0.8-4.4,2.5-5.8
			s4.1-2.1,7.1-2.1c2.9,0,5.3,0.7,6.9,2c1.7,1.3,2.5,3.1,2.5,5.5c0,2.8-1.4,5.2-4.1,7c1.6,0.9,2.9,2,3.8,3.2s1.4,2.8,1.4,4.7
			c0,2.7-0.9,4.8-2.8,6.3s-4.5,2.2-7.8,2.2c-3.2,0-5.7-0.7-7.6-2.1C619.7,482.8,618.8,480.8,618.8,478.2z M624,477.9
			c0,1.3,0.5,2.2,1.4,2.9c0.9,0.7,2.2,1,3.9,1c1.5,0,2.6-0.3,3.5-1c0.9-0.7,1.3-1.6,1.3-2.9c0-0.3,0-0.6-0.1-0.8
			c-0.1-0.3-0.2-0.5-0.3-0.7c-0.1-0.2-0.2-0.4-0.5-0.7c-0.2-0.2-0.4-0.4-0.5-0.6c-0.1-0.2-0.4-0.3-0.7-0.6c-0.3-0.2-0.6-0.4-0.8-0.5
			c-0.2-0.1-0.5-0.3-0.9-0.5c-0.4-0.2-0.7-0.4-0.9-0.4s-0.5-0.2-1-0.5c-0.5-0.2-0.8-0.4-1-0.4C625.1,473.8,624,475.7,624,477.9z
			 M625.1,463c0,0.4,0.1,0.7,0.2,1.1c0.1,0.3,0.3,0.6,0.4,0.9c0.2,0.3,0.4,0.5,0.8,0.8c0.4,0.3,0.7,0.5,0.9,0.7
			c0.2,0.2,0.6,0.4,1.2,0.7s1,0.5,1.2,0.6c0.2,0.1,0.7,0.3,1.4,0.6c1.6-1.4,2.4-3.1,2.4-4.9c0-1.2-0.4-2.1-1.1-2.7s-1.8-0.9-3.2-0.9
			c-1.3,0-2.3,0.3-3,0.9C625.5,461.1,625.1,461.9,625.1,463z"/>
		<path class="st6" d="M642.9,458c0-1.5,0.3-2.6,0.9-3.3c0.6-0.7,1.5-1.1,2.7-1.1c1.2,0,2.1,0.3,2.7,1s0.9,1.8,0.9,3.4
			s-0.3,2.7-0.9,3.4s-1.5,1-2.7,1c-1.2,0-2.1-0.3-2.7-1C643.2,460.6,642.9,459.5,642.9,458z M645.2,458c0,1.1,0.1,1.8,0.3,2.1
			s0.5,0.5,1,0.5c0.3,0,0.5-0.1,0.7-0.2c0.2-0.1,0.3-0.4,0.4-0.8c0.1-0.4,0.2-1,0.2-1.7c0-1-0.1-1.7-0.3-2.1s-0.5-0.5-1-0.5
			c-0.5,0-0.8,0.2-1,0.5S645.2,456.9,645.2,458z M645.8,471.3l9.8-17.8c0.2-0.1,0.6-0.2,1.2-0.2c0.2,0,0.4,0,0.6,0
			c0.2,0,0.3,0.1,0.4,0.1l0.1,0l-9.8,17.8c-0.3,0.1-0.7,0.2-1.2,0.2c-0.2,0-0.4,0-0.6,0s-0.3-0.1-0.4-0.1L645.8,471.3z M653.6,467
			c0-1.5,0.3-2.6,0.9-3.3c0.6-0.7,1.5-1.1,2.7-1.1c1.2,0,2.1,0.3,2.7,1c0.6,0.7,0.9,1.8,0.9,3.4s-0.3,2.7-0.9,3.4
			c-0.6,0.7-1.5,1-2.7,1c-1.2,0-2.1-0.3-2.7-1S653.6,468.6,653.6,467z M655.8,467c0,0.7,0.1,1.3,0.2,1.7c0.1,0.4,0.2,0.7,0.4,0.8
			c0.2,0.1,0.4,0.2,0.7,0.2c0.3,0,0.5-0.1,0.7-0.2s0.3-0.4,0.4-0.8c0.1-0.4,0.2-1,0.2-1.7c0-0.7-0.1-1.3-0.2-1.7
			c-0.1-0.4-0.2-0.7-0.4-0.8c-0.2-0.1-0.4-0.2-0.7-0.2c-0.5,0-0.8,0.2-1,0.5C655.9,465.3,655.8,466,655.8,467z"/>
	</g>
	<g>
		<path d="M187.4,540.9l7.3-20.4c0.5-0.1,1.1-0.2,1.7-0.2c0.3,0,0.6,0,0.9,0c0.3,0,0.5,0.1,0.6,0.1l0.2,0.1l7.3,20.4
			c-0.3,0.1-0.9,0.2-1.6,0.2c-0.3,0-0.6,0-0.8,0c-0.2,0-0.4-0.1-0.5-0.1l-0.1-0.1l-1.8-5.1H192l-1.8,5.1c-0.3,0.1-0.8,0.2-1.4,0.2
			c-0.3,0-0.5,0-0.7,0c-0.2,0-0.4-0.1-0.5-0.1L187.4,540.9z M192.8,533.4h6.9l-2.6-7.3c-0.2-0.4-0.3-0.9-0.4-1.3
			c-0.1-0.4-0.2-0.8-0.3-1l-0.1-0.3h-0.1c-0.2,0.8-0.4,1.6-0.7,2.6L192.8,533.4z"/>
		<path d="M208,540.9v-21.3c0.3-0.1,0.8-0.2,1.4-0.2c0.3,0,0.5,0,0.8,0s0.4,0.1,0.5,0.1l0.1,0.1v21.3c-0.3,0.1-0.8,0.2-1.4,0.2
			c-0.3,0-0.6,0-0.8,0c-0.2,0-0.4-0.1-0.5-0.1L208,540.9z"/>
		<path d="M213.9,544.3c0-0.5,0.1-1,0.3-1.5c0.2-0.5,0.4-0.9,0.7-1.2s0.6-0.6,0.8-0.8s0.5-0.4,0.7-0.5c-0.4-0.4-0.6-1-0.6-1.7
			c0-1.1,0.5-2.1,1.4-3.2c-1.7-0.8-2.6-2.4-2.6-4.6c0-1.6,0.5-2.9,1.5-3.8c1-0.9,2.4-1.4,4.2-1.4c1.3,0,2.4,0.2,3.2,0.7l4.1-0.7
			c0.1,0.3,0.2,0.7,0.2,1.1c0,0.5-0.1,0.8-0.2,1.1l-2.4-0.1c0.5,0.8,0.8,1.8,0.8,3c0,1.6-0.5,2.9-1.5,3.8c-1,0.9-2.4,1.4-4.2,1.4
			c-0.4,0-0.8,0-1.3-0.1c-0.4,0.5-0.6,1-0.6,1.5c0,0.1,0,0.1,0,0.2c0,0.3,0.2,0.6,0.5,0.8c0.3,0.2,0.7,0.3,1.1,0.4s0.9,0.1,1.5,0.2
			s1.1,0.2,1.6,0.2s1.1,0.2,1.6,0.4c0.5,0.2,1,0.4,1.4,0.7c0.4,0.3,0.8,0.7,1,1.2c0.3,0.5,0.4,1.1,0.4,1.8c0,1.5-0.7,2.6-2,3.6
			c-1.3,0.9-3.2,1.4-5.5,1.4c-2.1,0-3.6-0.4-4.6-1.1C214.4,546.5,213.9,545.5,213.9,544.3z M216.7,543.7c0,0.8,0.3,1.4,0.9,1.8
			c0.6,0.5,1.4,0.7,2.6,0.7c1.5,0,2.6-0.2,3.4-0.7s1.2-1.1,1.2-1.9c0-0.5-0.1-0.8-0.4-1.1s-0.7-0.5-1.2-0.5c-0.5-0.1-1-0.2-1.6-0.3
			s-1.1-0.2-1.8-0.3c-0.7-0.1-1.2-0.2-1.7-0.4c-0.4,0.3-0.7,0.7-1,1.2C216.8,542.7,216.7,543.2,216.7,543.7z M218.1,528.4
			c-0.5,0.5-0.8,1.3-0.8,2.4s0.3,1.8,0.8,2.4c0.5,0.5,1.2,0.8,2.1,0.8c0.9,0,1.6-0.3,2.1-0.8c0.5-0.5,0.8-1.3,0.8-2.4
			s-0.3-1.8-0.8-2.4s-1.2-0.8-2.1-0.8C219.4,527.6,218.7,527.9,218.1,528.4z"/>
		<path d="M229.5,536.5c0-1.6,0.5-2.7,1.4-3.4c0.9-0.7,2.3-1.1,4.1-1.1c1.2,0,2.3,0.1,3.3,0.2v-1.1c0-1-0.2-1.8-0.7-2.3
			c-0.5-0.5-1.2-0.8-2.3-0.8c-0.6,0-1.2,0.1-1.9,0.2c-0.6,0.1-1.1,0.2-1.5,0.4l-0.5,0.2l0,0c0,0,0-0.1-0.1-0.1s-0.1-0.1-0.1-0.1
			c0-0.1-0.1-0.1-0.1-0.2c0-0.1-0.1-0.1-0.1-0.2c-0.1-0.1-0.1-0.2-0.1-0.3c0-0.1-0.1-0.1-0.1-0.2c0-0.1,0-0.1-0.1-0.2
			c0-0.1,0-0.1,0-0.2s0-0.1,0-0.2s0-0.1,0-0.1s0-0.1,0-0.1c0,0,0-0.1,0-0.1v0c0.1,0,0.1-0.1,0.2-0.1c0.1,0,0.3-0.1,0.7-0.3
			s0.7-0.2,1.1-0.3c0.4-0.1,0.8-0.2,1.4-0.3c0.6-0.1,1.1-0.1,1.6-0.1c2,0,3.5,0.5,4.3,1.4c0.8,0.9,1.2,2.3,1.2,4.3v9.7
			c-0.2,0.1-0.6,0.2-1.1,0.2c-0.2,0-0.4,0-0.6,0c-0.2,0-0.3-0.1-0.4-0.1l-0.1-0.1l-0.4-1.9c-0.8,1.6-2.3,2.3-4.6,2.3
			c-1.4,0-2.5-0.4-3.3-1.2C229.9,539.3,229.5,538.1,229.5,536.5z M232.5,536.5c0,1.7,0.8,2.6,2.5,2.6c0.7,0,1.4-0.2,1.9-0.6
			c0.5-0.4,0.9-0.9,1.1-1.5c0.2-0.6,0.4-1.2,0.4-1.9v-1c-1.3-0.1-2.3-0.2-2.9-0.2c-1,0-1.7,0.2-2.2,0.6
			C232.7,535,232.5,535.6,232.5,536.5z"/>
		<path d="M244.7,533.4c0-2.6,0.6-4.6,1.7-5.9c1.1-1.3,2.7-1.9,4.7-1.9c1.8,0,3.2,0.5,4.2,1.5c1,1,1.5,2.4,1.5,4.3
			c0,0.5,0,1.1-0.1,1.6c-0.1,0.5-0.1,0.9-0.2,1.1l-0.1,0.3h-8.9c0.1,1.7,0.5,2.8,1.2,3.5c0.7,0.7,1.6,1,2.9,1c0.6,0,1.2-0.1,1.8-0.2
			c0.6-0.1,1-0.3,1.3-0.4l0.4-0.2c0.6,0.5,0.9,1.2,0.9,2.1c0,0-0.1,0.1-0.2,0.1c-0.1,0.1-0.3,0.2-0.6,0.3c-0.3,0.1-0.6,0.3-1,0.4
			c-0.3,0.1-0.8,0.2-1.3,0.3c-0.6,0.1-1.1,0.1-1.7,0.1C246.9,541.4,244.7,538.7,244.7,533.4z M247.6,532.3h6.2
			c0.1-0.5,0.1-0.9,0.1-1.3c0-0.9-0.2-1.7-0.7-2.3c-0.4-0.6-1.2-0.9-2.2-0.9C249,527.9,247.8,529.3,247.6,532.3z"/>
		<path d="M259.8,530.7c0-3.5,0.7-6.2,2.1-8c1.4-1.8,3.5-2.7,6.3-2.7c1,0,1.8,0.1,2.7,0.2c0.8,0.2,1.4,0.3,1.8,0.5l0.5,0.2
			c0,0.1,0,0.1,0,0.2c0,0.7-0.3,1.4-0.9,2c-0.1,0-0.3-0.1-0.5-0.2s-0.7-0.2-1.3-0.3c-0.7-0.1-1.3-0.2-1.9-0.2
			c-0.7,0-1.3,0.1-1.9,0.2s-1.1,0.4-1.6,0.8c-0.5,0.4-0.9,0.9-1.2,1.5c-0.3,0.6-0.6,1.4-0.8,2.4c-0.2,1-0.3,2.1-0.3,3.3
			c0,1.3,0.1,2.4,0.3,3.3c0.2,0.9,0.4,1.7,0.8,2.3c0.3,0.6,0.7,1.1,1.2,1.5s1,0.6,1.6,0.8c0.5,0.1,1.2,0.2,1.9,0.2
			c0.7,0,1.3-0.1,2-0.2s1.2-0.2,1.5-0.4l0.5-0.2c0.6,0.5,0.9,1.3,0.9,2.3c0,0-0.1,0.1-0.2,0.1c-0.1,0-0.3,0.1-0.7,0.2
			c-0.3,0.1-0.7,0.2-1.1,0.3c-0.4,0.1-0.9,0.2-1.5,0.3s-1.2,0.1-1.9,0.1c-2.8,0-4.9-0.9-6.3-2.7
			C260.5,536.9,259.8,534.2,259.8,530.7z"/>
		<path d="M275.5,536.5c0-1.6,0.5-2.7,1.4-3.4c0.9-0.7,2.3-1.1,4.1-1.1c1.2,0,2.3,0.1,3.3,0.2v-1.1c0-1-0.2-1.8-0.7-2.3
			c-0.5-0.5-1.2-0.8-2.3-0.8c-0.6,0-1.2,0.1-1.9,0.2c-0.6,0.1-1.1,0.2-1.5,0.4l-0.5,0.2l0,0c0,0,0-0.1-0.1-0.1s-0.1-0.1-0.1-0.1
			c0-0.1-0.1-0.1-0.1-0.2c0-0.1-0.1-0.1-0.1-0.2c-0.1-0.1-0.1-0.2-0.1-0.3c0-0.1-0.1-0.1-0.1-0.2c0-0.1,0-0.1-0.1-0.2
			c0-0.1,0-0.1,0-0.2s0-0.1,0-0.2s0-0.1,0-0.1s0-0.1,0-0.1c0,0,0-0.1,0-0.1v0c0.1,0,0.1-0.1,0.2-0.1c0.1,0,0.3-0.1,0.7-0.3
			s0.7-0.2,1.1-0.3c0.4-0.1,0.8-0.2,1.4-0.3c0.6-0.1,1.1-0.1,1.6-0.1c2,0,3.5,0.5,4.3,1.4c0.8,0.9,1.2,2.3,1.2,4.3v9.7
			c-0.2,0.1-0.6,0.2-1.1,0.2c-0.2,0-0.4,0-0.6,0c-0.2,0-0.3-0.1-0.4-0.1l-0.1-0.1l-0.4-1.9c-0.8,1.6-2.3,2.3-4.6,2.3
			c-1.4,0-2.5-0.4-3.3-1.2C275.9,539.3,275.5,538.1,275.5,536.5z M278.5,536.5c0,1.7,0.8,2.6,2.5,2.6c0.7,0,1.4-0.2,1.9-0.6
			c0.5-0.4,0.9-0.9,1.1-1.5c0.2-0.6,0.4-1.2,0.4-1.9v-1c-1.3-0.1-2.3-0.2-2.9-0.2c-1,0-1.7,0.2-2.2,0.6
			C278.7,535,278.5,535.6,278.5,536.5z"/>
		<path d="M291.4,540.9v-21.3c0.3-0.1,0.8-0.2,1.4-0.2c0.3,0,0.5,0,0.8,0s0.4,0.1,0.5,0.1l0.1,0.1v21.3c-0.3,0.1-0.8,0.2-1.4,0.2
			c-0.3,0-0.6,0-0.8,0c-0.2,0-0.4-0.1-0.5-0.1L291.4,540.9z"/>
	</g>
	<g>
		<g>
			<path d="M59.2,366.8l-20.2-11.5c-0.1-0.2-0.2-0.6-0.2-1.1c0-0.2,0-0.4,0-0.6s0.1-0.3,0.1-0.4l0-0.1l20.2,11.4
				c0.1,0.3,0.2,0.6,0.2,1.2c0,0.2,0,0.4,0,0.6s-0.1,0.3-0.1,0.4L59.2,366.8z M44.1,370.1c-1.7,0-3-0.3-3.8-1
				c-0.8-0.7-1.2-1.7-1.2-3c0-1.3,0.4-2.3,1.2-3s2.1-1,3.8-1s3,0.3,3.8,1s1.2,1.7,1.2,3c0,1.3-0.4,2.4-1.2,3
				C47.1,369.8,45.8,370.1,44.1,370.1z M44.1,367.8c1.3,0,2.2-0.1,2.6-0.4s0.7-0.8,0.7-1.4c0-0.4-0.1-0.7-0.2-1
				c-0.2-0.2-0.5-0.4-1-0.6c-0.5-0.2-1.2-0.2-2.1-0.2c-1.3,0-2.1,0.2-2.6,0.5c-0.5,0.3-0.7,0.7-0.7,1.3c0,0.6,0.2,1.1,0.7,1.4
				C41.9,367.7,42.8,367.8,44.1,367.8z M54.3,358.1c-1.7,0-3-0.3-3.8-1s-1.2-1.7-1.2-3c0-2.7,1.7-4.1,5-4.1s5,1.4,5,4.1
				c0,1.3-0.4,2.4-1.2,3.1C57.4,357.8,56.1,358.1,54.3,358.1z M54.3,355.9c1.3,0,2.2-0.1,2.6-0.4c0.5-0.3,0.7-0.8,0.7-1.4
				c0-0.4-0.1-0.7-0.2-1c-0.2-0.2-0.5-0.4-1-0.6c-0.5-0.2-1.2-0.2-2.1-0.2c-1.3,0-2.1,0.1-2.6,0.4c-0.5,0.3-0.7,0.7-0.7,1.3
				c0,0.6,0.2,1.1,0.7,1.4C52.2,355.7,53.1,355.9,54.3,355.9z"/>
			<path d="M57.5,339.7c-1.2,1.1-3.3,1.7-6,1.7c-2.8,0-4.8-0.6-6-1.7c-1.2-1.1-1.9-2.7-1.9-4.8c0-2.1,0.6-3.7,1.9-4.8
				c1.2-1.1,3.3-1.6,6-1.6c2.8,0,4.8,0.5,6,1.6c1.2,1.1,1.9,2.7,1.9,4.8C59.3,337,58.7,338.6,57.5,339.7z M51.4,338.4
				c1.1,0,2-0.1,2.8-0.2c0.7-0.2,1.3-0.4,1.8-0.7c0.4-0.3,0.7-0.7,0.9-1.1s0.3-0.9,0.3-1.4c0-0.6-0.1-1-0.3-1.4s-0.5-0.8-0.9-1.1
				c-0.4-0.3-1-0.5-1.8-0.7c-0.8-0.2-1.7-0.2-2.8-0.2s-2,0.1-2.8,0.2c-0.7,0.2-1.3,0.4-1.7,0.7c-0.4,0.3-0.7,0.7-0.9,1.1
				s-0.3,0.9-0.3,1.4c0,0.4,0.1,0.8,0.2,1.2c0.1,0.3,0.3,0.7,0.6,1s0.6,0.5,1,0.7c0.4,0.2,1,0.3,1.6,0.5
				C49.8,338.4,50.6,338.4,51.4,338.4z"/>
			<path d="M44.9,326.4c-0.4,0-0.7-0.1-1.1-0.2v-1.9h-1.7c-1.5,0-2.7-0.4-3.5-1.1c-0.8-0.7-1.2-2-1.2-3.7c0-0.6,0.1-1.1,0.2-1.7
				c0.1-0.5,0.2-0.9,0.3-1.2l0.2-0.4c0.8,0,1.4,0.3,2,0.7c-0.2,0.6-0.3,1.3-0.3,2.2c0,0.8,0.2,1.4,0.5,1.7c0.4,0.3,0.9,0.5,1.7,0.5
				h1.9v-3.6c0.4-0.1,0.7-0.1,1.1-0.1c0.3,0,0.7,0,1,0.1v3.6h12.9c0.1,0.3,0.2,0.8,0.2,1.4c0,0.3,0,0.6,0,0.8s-0.1,0.4-0.1,0.5
				l-0.1,0.1H46v1.9C45.4,326.3,45,326.4,44.9,326.4z"/>
			<path d="M48.7,309.5c-3.5,0-6.2-0.7-8-2.1c-1.8-1.4-2.7-3.5-2.7-6.3c0-1,0.1-1.8,0.2-2.7c0.2-0.8,0.3-1.4,0.5-1.8l0.2-0.5
				c0.1,0,0.1,0,0.2,0c0.7,0,1.4,0.3,2,0.9c0,0.1-0.1,0.3-0.2,0.5s-0.2,0.7-0.3,1.3c-0.1,0.7-0.2,1.3-0.2,1.9c0,0.7,0.1,1.3,0.2,1.9
				c0.2,0.6,0.4,1.1,0.8,1.6c0.4,0.5,0.9,0.9,1.5,1.2c0.6,0.3,1.4,0.6,2.4,0.8c1,0.2,2.1,0.3,3.3,0.3s2.4-0.1,3.3-0.3
				c0.9-0.2,1.7-0.4,2.3-0.8c0.6-0.3,1.1-0.7,1.5-1.2s0.6-1,0.8-1.6c0.1-0.5,0.2-1.2,0.2-1.9c0-0.7-0.1-1.3-0.2-2s-0.2-1.2-0.4-1.5
				l-0.2-0.5c0.5-0.6,1.3-0.9,2.3-0.9c0,0,0.1,0.1,0.1,0.2c0,0.1,0.1,0.3,0.2,0.7c0.1,0.3,0.2,0.7,0.3,1.1s0.2,0.9,0.3,1.5
				c0.1,0.6,0.1,1.2,0.1,1.9c0,2.8-0.9,4.9-2.7,6.3S52.2,309.5,48.7,309.5z"/>
			<path d="M54.5,293.7c-1.6,0-2.7-0.5-3.4-1.4c-0.7-0.9-1.1-2.3-1.1-4.1c0-1.2,0.1-2.3,0.2-3.3h-1.1c-1,0-1.8,0.2-2.3,0.7
				c-0.5,0.5-0.8,1.2-0.8,2.3c0,0.6,0.1,1.2,0.2,1.9c0.1,0.6,0.2,1.1,0.4,1.5l0.2,0.5l0,0c0,0-0.1,0-0.1,0.1c0,0-0.1,0.1-0.1,0.1
				c-0.1,0-0.1,0.1-0.2,0.1c-0.1,0-0.1,0.1-0.2,0.1c-0.1,0.1-0.2,0.1-0.3,0.1c-0.1,0-0.1,0.1-0.2,0.1c-0.1,0-0.1,0-0.2,0.1
				c-0.1,0-0.1,0-0.2,0c-0.1,0-0.1,0-0.2,0s-0.1,0-0.1,0s-0.1,0-0.1,0c0,0-0.1,0-0.1,0h0c0-0.1-0.1-0.1-0.1-0.2
				c0-0.1-0.1-0.3-0.3-0.7s-0.2-0.7-0.3-1.1c-0.1-0.4-0.2-0.8-0.3-1.4c-0.1-0.6-0.1-1.1-0.1-1.6c0-2,0.5-3.5,1.4-4.3
				s2.3-1.2,4.3-1.2h9.7c0.1,0.2,0.2,0.6,0.2,1.1c0,0.2,0,0.4,0,0.6c0,0.2-0.1,0.3-0.1,0.4l-0.1,0.1l-1.9,0.4
				c1.6,0.8,2.3,2.3,2.3,4.6c0,1.4-0.4,2.5-1.2,3.3C57.3,293.3,56.1,293.7,54.5,293.7z M54.5,290.8c1.7,0,2.6-0.8,2.6-2.5
				c0-0.7-0.2-1.4-0.6-1.9c-0.4-0.5-0.9-0.9-1.5-1.1c-0.6-0.2-1.2-0.4-1.9-0.4h-1c-0.1,1.3-0.2,2.3-0.2,2.9c0,1,0.2,1.7,0.6,2.2
				C53,290.5,53.6,290.8,54.5,290.8z"/>
			<path d="M58.9,277.8H37.6c-0.1-0.3-0.2-0.8-0.2-1.4c0-0.3,0-0.5,0-0.8c0-0.2,0.1-0.4,0.1-0.5l0.1-0.1h21.3
				c0.1,0.3,0.2,0.8,0.2,1.4c0,0.3,0,0.6,0,0.8s-0.1,0.4-0.1,0.5L58.9,277.8z"/>
			<path d="M57.3,269.7c-1.3,1.1-3.3,1.6-5.9,1.6c-2.6,0-4.5-0.5-5.9-1.6c-1.3-1.1-2-2.6-2-4.7c0-0.8,0.1-1.6,0.2-2.2
				s0.2-1.1,0.4-1.3l0.2-0.4c0.9,0,1.6,0.3,2.1,0.8c-0.3,0.7-0.4,1.5-0.4,2.5c0,1.4,0.4,2.4,1.3,3s2.3,0.9,4.2,0.9
				c1.9,0,3.3-0.3,4.1-1c0.9-0.6,1.3-1.7,1.3-3c0-0.5,0-0.9-0.1-1.4c-0.1-0.5-0.2-0.8-0.2-1l-0.1-0.3c0.2-0.2,0.5-0.4,0.9-0.6
				c0.4-0.2,0.8-0.2,1.2-0.3c0.1,0.1,0.1,0.2,0.2,0.4c0.1,0.2,0.2,0.6,0.4,1.4c0.2,0.7,0.2,1.5,0.2,2.4
				C59.3,267,58.7,268.6,57.3,269.7z"/>
			<path d="M40.9,257.7h-2.7c-0.1-0.3-0.2-0.8-0.2-1.5c0-0.3,0-0.6,0-0.8c0-0.2,0.1-0.4,0.1-0.5l0-0.2h2.7c0.1,0.3,0.2,0.8,0.2,1.5
				c0,0.3,0,0.6,0,0.8s-0.1,0.4-0.1,0.5L40.9,257.7z M58.9,257.6H44c-0.1-0.3-0.2-0.8-0.2-1.4c0-0.3,0-0.5,0-0.8
				c0-0.2,0.1-0.4,0.1-0.5l0-0.1h14.8c0.1,0.3,0.2,0.8,0.2,1.4c0,0.3,0,0.6,0,0.8s-0.1,0.4-0.1,0.5L58.9,257.6z"/>
			<path d="M55,250.6H44c-0.1-0.3-0.2-0.8-0.2-1.4c0-0.3,0-0.6,0-0.8c0-0.2,0.1-0.4,0.1-0.5l0-0.1h10.4c1.7,0,2.6-0.9,2.6-2.7
				c0-0.6-0.2-1.3-0.5-1.8c-0.3-0.6-0.8-1.1-1.4-1.4H44c-0.1-0.3-0.2-0.8-0.2-1.4c0-0.3,0-0.6,0-0.8c0-0.2,0.1-0.4,0.1-0.5l0-0.1
				h14.8c0.1,0.3,0.2,0.8,0.2,1.4c0,0.3,0,0.5,0,0.8s-0.1,0.4-0.1,0.5l-0.1,0.2h-1.4c1.2,1.1,1.8,2.5,1.8,4.4c0,1.4-0.4,2.5-1.2,3.3
				C57.4,250.2,56.3,250.6,55,250.6z"/>
			<path d="M58.9,234.6H44c-0.1-0.3-0.2-0.8-0.2-1.5c0-0.3,0-0.5,0-0.8c0-0.2,0.1-0.4,0.1-0.5l0-0.1h1.3c-1.2-1.1-1.8-2.4-1.8-4.2
				c0-1.8,0.7-3,2.1-3.8c-1.4-1.2-2.1-2.8-2.1-4.7c0-1.4,0.4-2.4,1.2-3.2c0.8-0.8,1.9-1.1,3.2-1.1h10.9c0.1,0.3,0.2,0.8,0.2,1.4
				c0,0.3,0,0.6,0,0.8c0,0.2-0.1,0.4-0.1,0.5l-0.1,0.1H48.4c-1.7,0-2.5,0.8-2.5,2.5c0,0.6,0.2,1.2,0.5,1.7c0.3,0.5,0.8,1,1.4,1.4
				h11.1c0.1,0.3,0.2,0.8,0.2,1.4c0,0.3,0,0.6,0,0.8c0,0.2-0.1,0.4-0.1,0.5l-0.1,0.1H48.4c-1.7,0-2.5,0.8-2.5,2.5
				c0,0.6,0.2,1.2,0.5,1.7c0.3,0.5,0.8,1,1.3,1.4h11.1c0.1,0.3,0.2,0.8,0.2,1.4c0,0.3,0,0.6,0,0.8c0,0.2-0.1,0.4-0.1,0.5L58.9,234.6
				z"/>
			<path d="M58.9,206.5l-20.4-7.3c-0.1-0.5-0.2-1.1-0.2-1.7c0-0.3,0-0.6,0-0.9c0-0.3,0.1-0.5,0.1-0.6l0.1-0.2l20.4-7.3
				c0.1,0.3,0.2,0.9,0.2,1.6c0,0.3,0,0.6,0,0.8s-0.1,0.4-0.1,0.5l-0.1,0.1l-5.1,1.8v8.6l5.1,1.8c0.1,0.3,0.2,0.8,0.2,1.4
				c0,0.3,0,0.5,0,0.7s-0.1,0.4-0.1,0.5L58.9,206.5z M51.4,201v-6.9l-7.3,2.6c-0.4,0.2-0.9,0.3-1.3,0.4c-0.4,0.1-0.8,0.2-1,0.3
				l-0.3,0.1v0.1c0.8,0.2,1.6,0.4,2.6,0.7L51.4,201z"/>
			<path d="M58.9,185.9H37.6c-0.1-0.3-0.2-0.8-0.2-1.4c0-0.3,0-0.6,0-0.8c0-0.2,0.1-0.4,0.1-0.5l0.1-0.1h7.9
				c-1.3-0.8-1.9-2.2-1.9-4.2c0-0.8,0.1-1.6,0.4-2.2c0.3-0.6,0.7-1.2,1.3-1.7s1.4-0.9,2.5-1.1c1-0.3,2.3-0.4,3.7-0.4
				c1.4,0,2.7,0.1,3.7,0.4s1.8,0.6,2.5,1.1c0.6,0.5,1,1.1,1.3,1.7c0.3,0.6,0.4,1.4,0.4,2.2c0,1.9-0.6,3.3-1.9,4.2h1.4
				c0.1,0.3,0.2,0.8,0.2,1.5c0,0.3,0,0.5,0,0.8c0,0.2-0.1,0.4-0.1,0.5L58.9,185.9z M53.3,183c1,0,1.9-0.3,2.6-0.9s1.1-1.3,1.1-2.3
				c0-0.8-0.2-1.5-0.5-1.9c-0.3-0.5-0.9-0.9-1.7-1.1c-0.8-0.3-1.9-0.4-3.3-0.4c-2.1,0-3.5,0.3-4.3,0.8c-0.8,0.5-1.2,1.4-1.2,2.6
				c0,1,0.4,1.7,1.1,2.3s1.6,0.9,2.6,0.9H53.3z"/>
			<path d="M58.3,170.6c-0.9,0-1.6-0.3-2.1-0.8c0.1-0.1,0.1-0.3,0.2-0.6c0.1-0.2,0.2-0.7,0.3-1.4c0.1-0.7,0.2-1.3,0.2-1.9
				c0-1.9-0.7-2.8-2.1-2.8c-0.3,0-0.6,0.1-0.8,0.2c-0.2,0.1-0.4,0.2-0.5,0.4c-0.1,0.1-0.3,0.4-0.4,0.7s-0.2,0.6-0.3,0.8
				c-0.1,0.2-0.1,0.5-0.3,0.9c0,0.1-0.1,0.3-0.1,0.3c-0.1,0.5-0.3,0.9-0.4,1.2c-0.1,0.3-0.3,0.7-0.5,1.1c-0.2,0.4-0.5,0.7-0.8,1
				c-0.3,0.2-0.6,0.4-1.1,0.6s-0.9,0.3-1.5,0.3c-1.4,0-2.5-0.5-3.3-1.4c-0.8-0.9-1.2-2.3-1.2-4.1c0-0.8,0.1-1.6,0.2-2.3
				c0.1-0.7,0.3-1.2,0.4-1.4l0.2-0.4c0.9,0,1.6,0.3,2.1,0.8c-0.3,0.9-0.5,1.9-0.5,3.1c0,2,0.7,3,2.1,3c0.2,0,0.4,0,0.5-0.1
				c0.2-0.1,0.3-0.2,0.4-0.3c0.1-0.2,0.2-0.3,0.3-0.4c0.1-0.1,0.2-0.3,0.3-0.6s0.2-0.5,0.2-0.7c0.1-0.2,0.1-0.4,0.2-0.8
				c0.1-0.4,0.2-0.6,0.2-0.8c0.1-0.4,0.3-0.8,0.4-1.1s0.3-0.7,0.6-1c0.2-0.4,0.5-0.7,0.8-0.9c0.3-0.2,0.7-0.4,1.1-0.6
				s0.9-0.2,1.5-0.2c1.5,0,2.6,0.5,3.4,1.4c0.8,0.9,1.2,2.3,1.2,4.1c0,0.6,0,1.1-0.1,1.7c-0.1,0.5-0.2,1-0.3,1.4
				c-0.1,0.4-0.2,0.7-0.3,1c-0.1,0.3-0.2,0.5-0.3,0.6L58.3,170.6z"/>
			<path d="M57.5,156c-1.2,1.1-3.3,1.7-6,1.7c-2.8,0-4.8-0.6-6-1.7c-1.2-1.1-1.9-2.7-1.9-4.8c0-2.1,0.6-3.7,1.9-4.8
				c1.2-1.1,3.3-1.6,6-1.6c2.8,0,4.8,0.5,6,1.6c1.2,1.1,1.9,2.7,1.9,4.8S58.7,154.9,57.5,156z M51.4,154.7c1.1,0,2-0.1,2.8-0.2
				c0.7-0.2,1.3-0.4,1.8-0.7c0.4-0.3,0.7-0.7,0.9-1.1s0.3-0.9,0.3-1.4s-0.1-1-0.3-1.4s-0.5-0.8-0.9-1.1c-0.4-0.3-1-0.5-1.8-0.7
				c-0.8-0.2-1.7-0.2-2.8-0.2s-2,0.1-2.8,0.2s-1.3,0.4-1.7,0.7c-0.4,0.3-0.7,0.7-0.9,1.1s-0.3,0.9-0.3,1.4c0,0.4,0.1,0.8,0.2,1.2
				s0.3,0.7,0.6,1s0.6,0.5,1,0.7c0.4,0.2,1,0.3,1.6,0.5C49.8,154.6,50.6,154.7,51.4,154.7z"/>
			<path d="M58.9,141.2H44c-0.1-0.3-0.2-0.8-0.2-1.4c0-0.3,0-0.5,0-0.8c0-0.2,0.1-0.4,0.1-0.5l0-0.1h2c-1.6-1-2.4-2.2-2.4-3.5
				c0-0.9,0.2-1.8,0.7-2.5c1,0.1,1.8,0.5,2.4,1.3c-0.4,0.5-0.6,1.1-0.6,1.8c0,0.6,0.2,1.1,0.6,1.6c0.4,0.5,0.9,1,1.6,1.4h10.5
				c0.1,0.3,0.2,0.8,0.2,1.4c0,0.3,0,0.6,0,0.8s-0.1,0.4-0.1,0.5L58.9,141.2z"/>
			<path d="M58.9,129.8H37.6c-0.1-0.3-0.2-0.8-0.2-1.4c0-0.3,0-0.6,0-0.8c0-0.2,0.1-0.4,0.1-0.5l0.1-0.1h7.9
				c-1.3-0.8-1.9-2.2-1.9-4.2c0-0.8,0.1-1.6,0.4-2.2c0.3-0.6,0.7-1.2,1.3-1.7s1.4-0.9,2.5-1.1c1-0.3,2.3-0.4,3.7-0.4
				c1.4,0,2.7,0.1,3.7,0.4s1.8,0.6,2.5,1.1c0.6,0.5,1,1.1,1.3,1.7c0.3,0.6,0.4,1.4,0.4,2.2c0,1.9-0.6,3.3-1.9,4.2h1.4
				c0.1,0.3,0.2,0.8,0.2,1.5c0,0.3,0,0.5,0,0.8c0,0.2-0.1,0.4-0.1,0.5L58.9,129.8z M53.3,126.9c1,0,1.9-0.3,2.6-0.9s1.1-1.3,1.1-2.3
				c0-0.8-0.2-1.5-0.5-1.9c-0.3-0.5-0.9-0.9-1.7-1.1c-0.8-0.3-1.9-0.4-3.3-0.4c-2.1,0-3.5,0.3-4.3,0.8c-0.8,0.5-1.2,1.4-1.2,2.6
				c0,1,0.4,1.7,1.1,2.3s1.6,0.9,2.6,0.9H53.3z"/>
			<path d="M51.4,114.4c-2.6,0-4.6-0.6-5.9-1.7c-1.3-1.1-1.9-2.7-1.9-4.7c0-1.8,0.5-3.2,1.5-4.2s2.4-1.5,4.3-1.5
				c0.5,0,1.1,0,1.6,0.1c0.5,0.1,0.9,0.1,1.1,0.2l0.3,0.1v8.9c1.7-0.1,2.8-0.5,3.5-1.2c0.7-0.7,1-1.6,1-2.9c0-0.6-0.1-1.2-0.2-1.8
				c-0.1-0.6-0.3-1-0.4-1.3L56,104c0.5-0.6,1.2-0.9,2.1-0.9c0,0,0.1,0.1,0.1,0.2c0.1,0.1,0.2,0.3,0.3,0.6c0.1,0.3,0.3,0.6,0.4,1
				s0.2,0.8,0.3,1.3c0.1,0.6,0.1,1.1,0.1,1.7C59.3,112.2,56.7,114.4,51.4,114.4z M50.3,111.5v-6.2c-0.5-0.1-0.9-0.1-1.3-0.1
				c-0.9,0-1.7,0.2-2.3,0.7c-0.6,0.4-0.9,1.2-0.9,2.2C45.8,110.1,47.3,111.3,50.3,111.5z"/>
			<path d="M55.2,99.2c-1,0.3-2.3,0.4-3.7,0.4c-1.4,0-2.7-0.1-3.7-0.4c-1-0.3-1.9-0.6-2.5-1.1c-0.6-0.5-1-1.1-1.3-1.7
				c-0.3-0.6-0.4-1.4-0.4-2.2c0-1.9,0.6-3.3,1.9-4.2h-7.9c-0.1-0.3-0.2-0.8-0.2-1.5c0-0.3,0-0.5,0-0.8c0-0.2,0.1-0.4,0.1-0.5
				l0.1-0.1h21.3c0.1,0.3,0.2,0.7,0.2,1.2c0,0.2,0,0.4,0,0.6c0,0.2-0.1,0.4-0.1,0.5l-0.1,0.2l-1.6,0.2c1.4,0.9,2,2.3,2,4.4
				c0,0.8-0.1,1.6-0.4,2.2c-0.3,0.6-0.7,1.2-1.3,1.7C57,98.5,56.2,98.9,55.2,99.2z M51.5,96.6c2.1,0,3.5-0.3,4.3-0.8
				c0.8-0.6,1.2-1.4,1.2-2.7c0-1-0.4-1.7-1.1-2.3s-1.6-0.8-2.6-0.8h-3.7c-1,0-1.9,0.3-2.6,0.9c-0.7,0.6-1,1.3-1,2.3
				c0,0.8,0.2,1.5,0.5,1.9c0.3,0.5,0.9,0.9,1.7,1.1S50,96.6,51.5,96.6z"/>
		</g>
	</g>
	<g>
		<path d="M345.3,540.9v-20.6h7.6c1.9,0,3.4,0.6,4.5,1.8c1.1,1.2,1.7,2.7,1.7,4.6c0,1.9-0.6,3.4-1.7,4.6c-1.1,1.2-2.6,1.8-4.5,1.8
			h-4.6v7.9c-0.3,0.1-0.8,0.2-1.4,0.2c-0.3,0-0.6,0-0.9,0s-0.4-0.1-0.5-0.1L345.3,540.9z M348.3,530.5h4.2c1.1,0,2-0.3,2.6-1
			s0.9-1.6,0.9-2.9c0-1.2-0.3-2.2-0.9-2.9c-0.6-0.7-1.5-1-2.6-1h-4.2V530.5z"/>
		<path d="M361.3,533.4c0-2.6,0.6-4.6,1.7-5.9c1.1-1.3,2.7-1.9,4.7-1.9c1.8,0,3.2,0.5,4.2,1.5c1,1,1.5,2.4,1.5,4.3
			c0,0.5,0,1.1-0.1,1.6c-0.1,0.5-0.1,0.9-0.2,1.1l-0.1,0.3h-8.9c0.1,1.7,0.5,2.8,1.2,3.5c0.7,0.7,1.6,1,2.9,1c0.6,0,1.2-0.1,1.8-0.2
			c0.6-0.1,1-0.3,1.3-0.4l0.4-0.2c0.6,0.5,0.9,1.2,0.9,2.1c0,0-0.1,0.1-0.2,0.1c-0.1,0.1-0.3,0.2-0.6,0.3c-0.3,0.1-0.6,0.3-1,0.4
			c-0.3,0.1-0.8,0.2-1.3,0.3c-0.6,0.1-1.1,0.1-1.7,0.1C363.5,541.4,361.3,538.7,361.3,533.4z M364.3,532.3h6.2
			c0.1-0.5,0.1-0.9,0.1-1.3c0-0.9-0.2-1.7-0.7-2.3c-0.4-0.6-1.2-0.9-2.2-0.9C365.6,527.9,364.5,529.3,364.3,532.3z"/>
		<path d="M375.9,536.5c0-1.6,0.5-2.7,1.4-3.4c0.9-0.7,2.3-1.1,4.1-1.1c1.2,0,2.3,0.1,3.3,0.2v-1.1c0-1-0.2-1.8-0.7-2.3
			c-0.5-0.5-1.2-0.8-2.3-0.8c-0.6,0-1.2,0.1-1.9,0.2c-0.6,0.1-1.1,0.2-1.5,0.4l-0.5,0.2l0,0c0,0,0-0.1-0.1-0.1s-0.1-0.1-0.1-0.1
			c0-0.1-0.1-0.1-0.1-0.2c0-0.1-0.1-0.1-0.1-0.2c-0.1-0.1-0.1-0.2-0.1-0.3c0-0.1-0.1-0.1-0.1-0.2c0-0.1,0-0.1-0.1-0.2
			c0-0.1,0-0.1,0-0.2s0-0.1,0-0.2s0-0.1,0-0.1s0-0.1,0-0.1c0,0,0-0.1,0-0.1v0c0.1,0,0.1-0.1,0.2-0.1c0.1,0,0.3-0.1,0.7-0.3
			s0.7-0.2,1.1-0.3c0.4-0.1,0.8-0.2,1.4-0.3c0.6-0.1,1.1-0.1,1.6-0.1c2,0,3.5,0.5,4.3,1.4c0.8,0.9,1.2,2.3,1.2,4.3v9.7
			c-0.2,0.1-0.6,0.2-1.1,0.2c-0.2,0-0.4,0-0.6,0c-0.2,0-0.3-0.1-0.4-0.1l-0.1-0.1l-0.4-1.9c-0.8,1.6-2.3,2.3-4.6,2.3
			c-1.4,0-2.5-0.4-3.3-1.2C376.3,539.3,375.9,538.1,375.9,536.5z M378.9,536.5c0,1.7,0.8,2.6,2.5,2.6c0.7,0,1.4-0.2,1.9-0.6
			c0.5-0.4,0.9-0.9,1.1-1.5c0.2-0.6,0.4-1.2,0.4-1.9v-1c-1.3-0.1-2.3-0.2-2.9-0.2c-1,0-1.7,0.2-2.2,0.6
			C379.1,535,378.9,535.6,378.9,536.5z"/>
		<path d="M391.8,540.9v-14.8c0.3-0.1,0.8-0.2,1.4-0.2c0.3,0,0.5,0,0.8,0c0.2,0,0.4,0.1,0.5,0.1l0.1,0v2c1-1.6,2.2-2.4,3.5-2.4
			c0.9,0,1.8,0.2,2.5,0.7c-0.1,1-0.5,1.8-1.3,2.4c-0.5-0.4-1.1-0.6-1.8-0.6c-0.6,0-1.1,0.2-1.6,0.6c-0.5,0.4-1,0.9-1.4,1.6v10.5
			c-0.3,0.1-0.8,0.2-1.4,0.2c-0.3,0-0.6,0-0.8,0s-0.4-0.1-0.5-0.1L391.8,540.9z"/>
	</g>
	<g>
		<path d="M463.4,520.5c0.4-0.1,1-0.2,1.8-0.2c0.3,0,0.6,0,0.9,0c0.3,0,0.5,0.1,0.6,0.1l0.2,0.1l5.3,8.9l5.4-8.9
			c0.3-0.1,0.9-0.2,1.5-0.2c0.3,0,0.6,0,0.9,0c0.3,0,0.5,0.1,0.6,0.1l0.2,0.1l-7.3,11.9v8.5c-0.3,0.1-0.8,0.2-1.5,0.2
			c-0.3,0-0.6,0-0.8,0c-0.2,0-0.4-0.1-0.5-0.1l-0.1-0.1v-8.4L463.4,520.5z"/>
		<path d="M481.5,539.5c-1.1-1.2-1.7-3.3-1.7-6c0-2.8,0.6-4.8,1.7-6s2.7-1.9,4.8-1.9c2.1,0,3.7,0.6,4.8,1.9c1.1,1.2,1.6,3.3,1.6,6
			c0,2.8-0.5,4.8-1.6,6c-1.1,1.2-2.7,1.9-4.8,1.9C484.2,541.4,482.6,540.7,481.5,539.5z M482.8,533.5c0,1.1,0.1,2,0.2,2.8
			c0.2,0.8,0.4,1.3,0.7,1.8c0.3,0.4,0.7,0.7,1.1,0.9c0.4,0.2,0.9,0.3,1.4,0.3c0.6,0,1-0.1,1.4-0.3c0.4-0.2,0.8-0.5,1.1-0.9
			c0.3-0.4,0.5-1,0.7-1.8c0.2-0.7,0.2-1.7,0.2-2.8s-0.1-2-0.2-2.8s-0.4-1.3-0.7-1.7c-0.3-0.4-0.7-0.7-1.1-0.9
			c-0.4-0.2-0.9-0.3-1.4-0.3c-0.4,0-0.8,0.1-1.2,0.2s-0.7,0.3-1,0.6c-0.3,0.3-0.5,0.6-0.7,1c-0.2,0.4-0.3,1-0.5,1.6
			S482.8,532.6,482.8,533.5z"/>
		<path d="M495,544.3c0-0.5,0.1-1,0.3-1.5s0.4-0.9,0.7-1.2s0.6-0.6,0.8-0.8s0.5-0.4,0.7-0.5c-0.4-0.4-0.6-1-0.6-1.7
			c0-1.1,0.5-2.1,1.4-3.2c-1.7-0.8-2.6-2.4-2.6-4.6c0-1.6,0.5-2.9,1.5-3.8c1-0.9,2.4-1.4,4.2-1.4c1.3,0,2.4,0.2,3.2,0.7l4.1-0.7
			c0.1,0.3,0.2,0.7,0.2,1.1c0,0.5-0.1,0.8-0.2,1.1l-2.4-0.1c0.5,0.8,0.8,1.8,0.8,3c0,1.6-0.5,2.9-1.5,3.8c-1,0.9-2.4,1.4-4.2,1.4
			c-0.4,0-0.8,0-1.3-0.1c-0.4,0.5-0.6,1-0.6,1.5c0,0.1,0,0.1,0,0.2c0,0.3,0.2,0.6,0.5,0.8c0.3,0.2,0.7,0.3,1.1,0.4
			c0.4,0.1,0.9,0.1,1.5,0.2c0.5,0.1,1.1,0.2,1.6,0.2s1.1,0.2,1.6,0.4s1,0.4,1.4,0.7s0.8,0.7,1,1.2c0.3,0.5,0.4,1.1,0.4,1.8
			c0,1.5-0.7,2.6-2,3.6s-3.2,1.4-5.5,1.4c-2.1,0-3.6-0.4-4.6-1.1C495.5,546.5,495,545.5,495,544.3z M497.8,543.7
			c0,0.8,0.3,1.4,0.9,1.8c0.6,0.5,1.4,0.7,2.6,0.7c1.5,0,2.6-0.2,3.4-0.7s1.2-1.1,1.2-1.9c0-0.5-0.1-0.8-0.4-1.1
			c-0.3-0.3-0.7-0.5-1.2-0.5s-1-0.2-1.6-0.3s-1.1-0.2-1.8-0.3c-0.7-0.1-1.2-0.2-1.7-0.4c-0.4,0.3-0.7,0.7-1,1.2
			C497.9,542.7,497.8,543.2,497.8,543.7z M499.2,528.4c-0.5,0.5-0.8,1.3-0.8,2.4s0.3,1.8,0.8,2.4c0.5,0.5,1.2,0.8,2.1,0.8
			c0.9,0,1.6-0.3,2.1-0.8c0.5-0.5,0.8-1.3,0.8-2.4s-0.3-1.8-0.8-2.4c-0.5-0.5-1.2-0.8-2.1-0.8C500.4,527.6,499.7,527.9,499.2,528.4z
			"/>
		<path d="M511.5,537v-10.9c0.3-0.1,0.8-0.2,1.4-0.2c0.3,0,0.6,0,0.8,0c0.2,0,0.4,0.1,0.5,0.1l0.1,0v10.4c0,1.7,0.9,2.6,2.7,2.6
			c0.6,0,1.3-0.2,1.8-0.5c0.6-0.3,1.1-0.8,1.4-1.4v-11.1c0.3-0.1,0.8-0.2,1.4-0.2c0.3,0,0.6,0,0.8,0c0.2,0,0.4,0.1,0.5,0.1l0.1,0
			v14.8c-0.3,0.1-0.8,0.2-1.4,0.2c-0.3,0-0.5,0-0.8,0c-0.2,0-0.4-0.1-0.5-0.1l-0.2-0.1v-1.4c-1.1,1.2-2.5,1.8-4.4,1.8
			c-1.4,0-2.5-0.4-3.3-1.2C511.9,539.4,511.5,538.3,511.5,537z"/>
		<path d="M527.5,540.9v-14.8c0.3-0.1,0.8-0.2,1.4-0.2c0.3,0,0.5,0,0.8,0c0.2,0,0.4,0.1,0.5,0.1l0.1,0v2c1-1.6,2.2-2.4,3.5-2.4
			c0.9,0,1.8,0.2,2.5,0.7c-0.1,1-0.5,1.8-1.3,2.4c-0.5-0.4-1.1-0.6-1.8-0.6c-0.6,0-1.1,0.2-1.6,0.6c-0.5,0.4-1,0.9-1.4,1.6v10.5
			c-0.3,0.1-0.8,0.2-1.4,0.2c-0.3,0-0.6,0-0.8,0s-0.4-0.1-0.5-0.1L527.5,540.9z"/>
		<path d="M537.4,527c0-0.2,0-0.4,0-0.6c0-0.2,0.1-0.3,0.1-0.4l0-0.1h2.2v-2.6c0.6-0.4,1.4-0.6,2.3-0.6c0.2,0,0.4,0,0.5,0v3.2h3.8
			c0.1,0.3,0.2,0.6,0.2,1.1c0,0.2,0,0.4,0,0.6s-0.1,0.3-0.1,0.4l0,0.1h-3.8v7.6c0,1.3,0.2,2.2,0.7,2.7c0.4,0.5,1.2,0.7,2.2,0.7
			c0.2,0,0.4,0,0.6,0s0.4,0,0.5-0.1l0.2,0c0.1,0.3,0.2,0.7,0.2,1.2c0,0.2,0,0.4,0,0.6c0,0.2,0,0.3-0.1,0.4l0,0.1
			c-0.6,0.2-1.3,0.3-2.1,0.3c-1.7,0-3-0.5-3.8-1.4c-0.8-0.9-1.2-2.3-1.2-4.2V528h-2.2C537.5,527.8,537.4,527.4,537.4,527z"/>
	</g>
	<g>
		<path d="M580.1,540.2c0,0,0-0.1,0-0.1c0-0.8,0.2-1.5,0.7-2.2c0.2,0.1,0.5,0.1,0.8,0.2c0.3,0.1,1,0.2,2,0.4s1.8,0.2,2.6,0.2
			c2.9,0,4.4-1.1,4.4-3.3c0-0.5-0.1-0.9-0.3-1.3c-0.2-0.4-0.5-0.7-0.8-1s-0.7-0.5-1.1-0.6c-0.4-0.2-0.8-0.3-1.4-0.5
			c-0.2-0.1-0.5-0.2-0.9-0.3c-0.4-0.1-0.7-0.2-1-0.3c-0.2-0.1-0.5-0.2-0.9-0.3c-0.4-0.1-0.7-0.3-0.9-0.4s-0.5-0.3-0.8-0.5
			c-0.3-0.2-0.6-0.4-0.8-0.6c-0.2-0.2-0.4-0.4-0.6-0.7s-0.4-0.6-0.5-0.9c-0.1-0.3-0.2-0.6-0.3-1c-0.1-0.4-0.1-0.8-0.1-1.2
			c0-1.8,0.6-3.3,1.8-4.3c1.2-1.1,2.9-1.6,5.2-1.6c1,0,2,0.1,3,0.2s1.6,0.3,2.1,0.5l0.7,0.2c0,0.9-0.3,1.7-0.8,2.2
			c-0.2,0-0.4-0.1-0.6-0.2c-0.3-0.1-0.8-0.2-1.6-0.3c-0.8-0.1-1.5-0.2-2.3-0.2c-1.5,0-2.7,0.3-3.4,0.8c-0.8,0.6-1.1,1.4-1.1,2.5
			c0,0.2,0,0.5,0.1,0.7s0.1,0.4,0.3,0.6c0.1,0.2,0.3,0.3,0.4,0.5c0.1,0.1,0.3,0.3,0.6,0.4c0.3,0.1,0.5,0.3,0.6,0.3
			c0.2,0.1,0.4,0.2,0.8,0.3c0.3,0.1,0.6,0.2,0.8,0.3c0.2,0.1,0.5,0.2,0.9,0.3c0.4,0.1,0.7,0.2,0.9,0.3c0.5,0.2,1,0.3,1.3,0.5
			s0.8,0.4,1.2,0.6s0.8,0.5,1.1,0.8c0.3,0.3,0.6,0.6,0.9,1c0.3,0.4,0.5,0.8,0.6,1.3c0.1,0.5,0.2,1.1,0.2,1.7c0,2-0.6,3.4-1.9,4.5
			c-1.2,1-3,1.6-5.4,1.6c-1.1,0-2.2-0.1-3.2-0.3c-1-0.2-1.8-0.4-2.3-0.6L580.1,540.2z"/>
		<path d="M597.1,547.6v-21.5c0.3-0.1,0.8-0.2,1.4-0.2c0.3,0,0.6,0,0.8,0c0.2,0,0.4,0.1,0.5,0.1l0.1,0v1.4c0.8-1.3,2.2-1.9,4.2-1.9
			c0.8,0,1.6,0.1,2.2,0.4c0.6,0.3,1.2,0.7,1.7,1.3c0.5,0.6,0.9,1.4,1.1,2.5c0.3,1,0.4,2.3,0.4,3.7c0,1.4-0.1,2.7-0.4,3.7
			c-0.3,1-0.6,1.8-1.1,2.5c-0.5,0.6-1.1,1-1.7,1.3c-0.6,0.3-1.4,0.4-2.2,0.4c-1.9,0-3.3-0.6-4.2-1.9v8.1c-0.3,0.1-0.8,0.2-1.5,0.2
			c-0.3,0-0.5,0-0.8,0s-0.4-0.1-0.5-0.1L597.1,547.6z M599.9,535.3c0,1,0.3,1.9,0.9,2.6c0.6,0.7,1.3,1.1,2.3,1.1
			c0.8,0,1.5-0.2,1.9-0.5c0.5-0.3,0.9-0.9,1.1-1.7c0.3-0.8,0.4-1.9,0.4-3.3c0-2.1-0.3-3.5-0.8-4.3c-0.5-0.8-1.4-1.2-2.6-1.2
			c-1,0-1.7,0.4-2.3,1.1c-0.6,0.7-0.9,1.6-0.9,2.6V535.3z"/>
		<path d="M613.2,522.9v-2.7c0.3-0.1,0.8-0.2,1.5-0.2c0.3,0,0.6,0,0.8,0s0.4,0.1,0.5,0.1l0.2,0v2.7c-0.3,0.1-0.8,0.2-1.5,0.2
			c-0.3,0-0.6,0-0.8,0c-0.2,0-0.4-0.1-0.5-0.1L613.2,522.9z M613.2,540.9v-14.8c0.3-0.1,0.8-0.2,1.4-0.2c0.3,0,0.5,0,0.8,0
			s0.4,0.1,0.5,0.1l0.1,0v14.8c-0.3,0.1-0.8,0.2-1.4,0.2c-0.3,0-0.6,0-0.8,0c-0.2,0-0.4-0.1-0.5-0.1L613.2,540.9z"/>
		<path d="M620.4,540.9v-14.8c0.3-0.1,0.8-0.2,1.4-0.2c0.3,0,0.5,0,0.8,0c0.2,0,0.4,0.1,0.5,0.1l0.1,0v2c1-1.6,2.2-2.4,3.5-2.4
			c0.9,0,1.8,0.2,2.5,0.7c-0.1,1-0.5,1.8-1.3,2.4c-0.5-0.4-1.1-0.6-1.8-0.6c-0.6,0-1.1,0.2-1.6,0.6c-0.5,0.4-1,0.9-1.4,1.6v10.5
			c-0.3,0.1-0.8,0.2-1.4,0.2c-0.3,0-0.6,0-0.8,0s-0.4-0.1-0.5-0.1L620.4,540.9z"/>
		<path d="M631.7,537v-10.9c0.3-0.1,0.8-0.2,1.4-0.2c0.3,0,0.6,0,0.8,0c0.2,0,0.4,0.1,0.5,0.1l0.1,0v10.4c0,1.7,0.9,2.6,2.7,2.6
			c0.6,0,1.3-0.2,1.8-0.5c0.6-0.3,1.1-0.8,1.4-1.4v-11.1c0.3-0.1,0.8-0.2,1.4-0.2c0.3,0,0.6,0,0.8,0c0.2,0,0.4,0.1,0.5,0.1l0.1,0
			v14.8c-0.3,0.1-0.8,0.2-1.4,0.2c-0.3,0-0.5,0-0.8,0c-0.2,0-0.4-0.1-0.5-0.1l-0.2-0.1v-1.4c-1.1,1.2-2.5,1.8-4.4,1.8
			c-1.4,0-2.5-0.4-3.3-1.2C632.1,539.4,631.7,538.3,631.7,537z"/>
		<path d="M647.7,540.9v-21.3c0.3-0.1,0.8-0.2,1.4-0.2c0.3,0,0.5,0,0.8,0s0.4,0.1,0.5,0.1l0.1,0.1v21.3c-0.3,0.1-0.8,0.2-1.4,0.2
			c-0.3,0-0.6,0-0.8,0c-0.2,0-0.4-0.1-0.5-0.1L647.7,540.9z"/>
		<path d="M654.9,522.9v-2.7c0.3-0.1,0.8-0.2,1.5-0.2c0.3,0,0.6,0,0.8,0s0.4,0.1,0.5,0.1l0.2,0v2.7c-0.3,0.1-0.8,0.2-1.5,0.2
			c-0.3,0-0.6,0-0.8,0c-0.2,0-0.4-0.1-0.5-0.1L654.9,522.9z M655,540.9v-14.8c0.3-0.1,0.8-0.2,1.4-0.2c0.3,0,0.5,0,0.8,0
			s0.4,0.1,0.5,0.1l0.1,0v14.8c-0.3,0.1-0.8,0.2-1.4,0.2c-0.3,0-0.6,0-0.8,0c-0.2,0-0.4-0.1-0.5-0.1L655,540.9z"/>
		<path d="M662.2,540.9v-14.8c0.3-0.1,0.8-0.2,1.4-0.2c0.3,0,0.5,0,0.8,0s0.4,0.1,0.5,0.1l0.2,0v1.3c1.1-1.2,2.5-1.8,4.4-1.8
			c1.4,0,2.5,0.4,3.3,1.2s1.2,1.9,1.2,3.2v10.9c-0.3,0.1-0.8,0.2-1.4,0.2c-0.3,0-0.6,0-0.8,0c-0.2,0-0.4-0.1-0.5-0.1l-0.1-0.1v-10.4
			c0-1.7-0.9-2.5-2.7-2.5c-0.6,0-1.3,0.2-1.8,0.5c-0.6,0.3-1.1,0.8-1.4,1.4v11.1c-0.3,0.1-0.8,0.2-1.4,0.2c-0.3,0-0.6,0-0.8,0
			c-0.2,0-0.4-0.1-0.5-0.1L662.2,540.9z"/>
		<path d="M677.1,536.5c0-1.6,0.5-2.7,1.4-3.4c0.9-0.7,2.3-1.1,4.1-1.1c1.2,0,2.3,0.1,3.3,0.2v-1.1c0-1-0.2-1.8-0.7-2.3
			c-0.5-0.5-1.2-0.8-2.3-0.8c-0.6,0-1.2,0.1-1.9,0.2c-0.6,0.1-1.1,0.2-1.5,0.4l-0.5,0.2l0,0c0,0,0-0.1-0.1-0.1c0,0-0.1-0.1-0.1-0.1
			s-0.1-0.1-0.1-0.2c0-0.1-0.1-0.1-0.1-0.2c-0.1-0.1-0.1-0.2-0.1-0.3c0-0.1-0.1-0.1-0.1-0.2s0-0.1-0.1-0.2c0-0.1,0-0.1,0-0.2
			c0-0.1,0-0.1,0-0.2s0-0.1,0-0.1s0-0.1,0-0.1c0,0,0-0.1,0-0.1v0c0.1,0,0.1-0.1,0.2-0.1c0.1,0,0.3-0.1,0.7-0.3s0.7-0.2,1.1-0.3
			s0.8-0.2,1.4-0.3c0.6-0.1,1.1-0.1,1.6-0.1c2,0,3.5,0.5,4.3,1.4s1.2,2.3,1.2,4.3v9.7c-0.2,0.1-0.6,0.2-1.1,0.2c-0.2,0-0.4,0-0.6,0
			c-0.2,0-0.3-0.1-0.4-0.1l-0.1-0.1l-0.4-1.9c-0.8,1.6-2.3,2.3-4.6,2.3c-1.4,0-2.5-0.4-3.3-1.2C677.5,539.3,677.1,538.1,677.1,536.5
			z M680,536.5c0,1.7,0.8,2.6,2.5,2.6c0.7,0,1.4-0.2,1.9-0.6c0.5-0.4,0.9-0.9,1.1-1.5c0.2-0.6,0.4-1.2,0.4-1.9v-1
			c-1.3-0.1-2.3-0.2-2.9-0.2c-1,0-1.7,0.2-2.2,0.6C680.3,535,680,535.6,680,536.5z"/>
	</g>
	<circle class="st2" cx="174.7" cy="531.4" r="6.6"/>
	<circle class="st3" cx="333.8" cy="531.4" r="6.6"/>
	<circle class="st4" cx="452.1" cy="531.4" r="6.6"/>
	<circle class="st5" cx="568.9" cy="531.4" r="6.6"/>
</g>
</svg>
