<?xml version="1.0" encoding="utf-8"?>
<!-- Generator: Adobe Illustrator 23.0.1, SVG Export Plug-In . SVG Version: 6.00 Build 0)  -->
<svg version="1.1" id="Layer_1" xmlns="http://www.w3.org/2000/svg" xmlns:xlink="http://www.w3.org/1999/xlink" x="0px" y="0px"
	 viewBox="0 0 477.9 480.3" style="enable-background:new 0 0 477.9 480.3;" xml:space="preserve">
<style type="text/css">
	.st0{fill:none;}
	.st1{enable-background:new    ;}
	.st2{fill:#DD6126;}
	.st3{fill:#2AB5E3;}
	.st4{fill:#41AD4A;}
	.st5{fill:#FFFFFF;}
	.st6{fill:none;stroke:#010101;stroke-width:9.195;stroke-miterlimit:10;}
</style>
<g>
	<g>
		<rect x="139.3" y="371.1" class="st0" width="218" height="109.1"/>
		<g class="st1">
			<path d="M192.9,377v-1.5c0-0.5,0.1-0.9,0.2-1.3c0.1-0.4,0.2-0.8,0.4-1.1c0.2-0.3,0.3-0.5,0.5-0.7c0.2-0.2,0.3-0.4,0.4-0.5
				l0.2-0.1l0.9,0.6c-0.1,0.1-0.1,0.1-0.2,0.3s-0.2,0.4-0.3,0.7c-0.1,0.4-0.2,0.8-0.3,1.2c0.2,0,0.3,0,0.4,0.1c0.1,0,0.2,0,0.3,0.1
				l0.1,0v2.3c-0.3,0.1-0.7,0.2-1.3,0.2c-0.2,0-0.5,0-0.7,0c-0.2,0-0.4-0.1-0.5-0.1L192.9,377z M196.1,377v-1.5
				c0-0.5,0.1-0.9,0.2-1.3c0.1-0.4,0.2-0.8,0.4-1.1c0.2-0.3,0.3-0.5,0.5-0.7c0.2-0.2,0.3-0.4,0.4-0.5l0.2-0.1l0.9,0.6
				c-0.1,0.1-0.1,0.1-0.2,0.3c-0.1,0.1-0.2,0.4-0.3,0.7c-0.1,0.4-0.2,0.8-0.3,1.2c0.2,0,0.3,0,0.4,0.1c0.1,0,0.2,0,0.3,0.1l0.1,0
				v2.3c-0.3,0.1-0.7,0.2-1.3,0.2c-0.2,0-0.5,0-0.7,0c-0.2,0-0.4-0.1-0.4-0.1L196.1,377z"/>
			<path d="M200.3,372.8c0-0.2,0-0.4,0.1-0.6c0-0.2,0.1-0.3,0.1-0.4l0-0.1h9.9c0.1,0.3,0.2,0.7,0.2,1.1c0,0.2,0,0.4,0,0.6
				s-0.1,0.3-0.1,0.4l0,0.1h-3.6v12.2c-0.3,0.1-0.7,0.2-1.3,0.2c-0.3,0-0.5,0-0.7,0c-0.2,0-0.4-0.1-0.4-0.1l-0.1,0v-12.2h-3.7
				C200.4,373.6,200.3,373.3,200.3,372.8z"/>
			<path d="M210.8,386.1v-10.3c0.3-0.1,0.7-0.2,1.3-0.2c0.2,0,0.5,0,0.7,0c0.2,0,0.4,0.1,0.5,0.1l0.1,0v1.1c0.7-1,1.5-1.5,2.2-1.5
				c0.6,0,1.2,0.2,1.8,0.5c-0.1,0.9-0.4,1.6-1.1,2.1c-0.4-0.3-0.7-0.4-1.2-0.4c-0.7,0-1.3,0.4-1.8,1.1v7.4c-0.3,0.1-0.7,0.2-1.3,0.2
				c-0.3,0-0.5,0-0.7,0c-0.2,0-0.4-0.1-0.4-0.1L210.8,386.1z"/>
			<path d="M218.1,383c0-1.1,0.3-1.9,1-2.4c0.7-0.5,1.6-0.8,2.9-0.8c0.7,0,1.4,0,2,0.1v-0.4c0-1.2-0.6-1.8-1.8-1.8
				c-0.4,0-0.8,0-1.2,0.1c-0.4,0.1-0.8,0.2-1,0.2l-0.3,0.1c-0.2-0.1-0.4-0.4-0.6-0.8c-0.1-0.2-0.1-0.3-0.1-0.5c0-0.2,0-0.3,0-0.4
				l0-0.1c0,0,0.1,0,0.2-0.1c0.1,0,0.2-0.1,0.5-0.2c0.2-0.1,0.5-0.2,0.8-0.2c0.3-0.1,0.6-0.1,1-0.2c0.4-0.1,0.8-0.1,1.2-0.1
				c1.5,0,2.5,0.3,3.1,0.9c0.6,0.6,0.9,1.6,0.9,2.9v6.9c-0.2,0.1-0.5,0.2-1,0.2c-0.2,0-0.4,0-0.5,0s-0.3-0.1-0.4-0.1l-0.1,0
				l-0.4-1.1c-0.5,1-1.5,1.5-3,1.5c-1,0-1.7-0.3-2.3-0.9C218.4,385,218.1,384.1,218.1,383z M220.7,383c0,0.5,0.1,0.9,0.4,1.2
				c0.2,0.2,0.6,0.4,1.1,0.4c0.3,0,0.6-0.1,0.9-0.2c0.3-0.1,0.4-0.3,0.6-0.6c0.1-0.2,0.2-0.5,0.3-0.7c0.1-0.3,0.1-0.5,0.1-0.8v-0.6
				c-0.7-0.1-1.2-0.1-1.7-0.1C221.3,381.5,220.7,382,220.7,383z"/>
			<path d="M229,383.5c-0.2-0.7-0.3-1.6-0.3-2.6s0.1-1.9,0.3-2.6s0.4-1.3,0.8-1.7c0.3-0.4,0.7-0.7,1.2-0.9c0.4-0.2,1-0.3,1.5-0.3
				c1.2,0,2.1,0.4,2.7,1.1v-5.2c0.3-0.1,0.7-0.2,1.3-0.2c0.3,0,0.5,0,0.7,0c0.2,0,0.4,0.1,0.4,0.1l0.1,0v14.8
				c-0.3,0.1-0.7,0.2-1.1,0.2c-0.2,0-0.4,0-0.6,0c-0.2,0-0.3-0.1-0.4-0.1l-0.1,0l-0.2-0.9c-0.6,0.8-1.5,1.2-2.9,1.2
				c-0.6,0-1.1-0.1-1.5-0.3c-0.4-0.2-0.8-0.5-1.2-0.9C229.5,384.8,229.2,384.3,229,383.5z M231.4,381c0,0.7,0,1.3,0.1,1.7
				c0.1,0.5,0.2,0.8,0.4,1.1s0.4,0.4,0.6,0.5c0.2,0.1,0.5,0.1,0.9,0.1c0.6,0,1-0.2,1.3-0.6c0.3-0.4,0.5-0.9,0.5-1.6v-2.6
				c0-0.6-0.2-1.1-0.5-1.5c-0.3-0.4-0.8-0.6-1.3-0.6c-0.3,0-0.5,0-0.7,0.1c-0.2,0.1-0.4,0.2-0.6,0.3s-0.3,0.4-0.4,0.6
				c-0.1,0.3-0.2,0.6-0.3,1S231.4,380.4,231.4,381z"/>
			<path d="M240.5,373.9v-2.3c0.3-0.1,0.7-0.2,1.3-0.2c0.2,0,0.5,0,0.7,0c0.2,0,0.4,0.1,0.5,0.1l0.1,0v2.3c-0.3,0.1-0.7,0.2-1.3,0.2
				c-0.3,0-0.5,0-0.7,0s-0.4-0.1-0.4-0.1L240.5,373.9z M240.5,386.1v-10.3c0.3-0.1,0.7-0.2,1.3-0.2c0.2,0,0.5,0,0.7,0
				c0.2,0,0.4,0.1,0.5,0.1l0.1,0v10.3c-0.3,0.1-0.7,0.2-1.3,0.2c-0.3,0-0.5,0-0.7,0s-0.4-0.1-0.4-0.1L240.5,386.1z"/>
			<path d="M244.8,376.6c0-0.2,0-0.4,0-0.5c0-0.2,0-0.3,0.1-0.4l0-0.1h1.5V374c0.6-0.3,1.3-0.5,2.1-0.5c0.2,0,0.3,0,0.5,0v2.1h2.4
				c0.1,0.2,0.1,0.6,0.1,1c0,0.2,0,0.3,0,0.5c0,0.2,0,0.3-0.1,0.4l0,0.1H249v4.7c0,0.8,0.1,1.3,0.4,1.6s0.8,0.4,1.5,0.4l0.7-0.1
				c0.1,0.3,0.2,0.7,0.2,1c0,0.2,0,0.3,0,0.5s-0.1,0.3-0.1,0.3l0,0.1c-0.4,0.1-0.9,0.2-1.5,0.2c-1.3,0-2.2-0.3-2.8-1s-0.9-1.7-0.9-3
				v-4.9h-1.5C244.8,377.4,244.8,377,244.8,376.6z"/>
			<path d="M253.6,373.9v-2.3c0.3-0.1,0.7-0.2,1.3-0.2c0.2,0,0.5,0,0.7,0c0.2,0,0.4,0.1,0.5,0.1l0.1,0v2.3c-0.3,0.1-0.7,0.2-1.3,0.2
				c-0.3,0-0.5,0-0.7,0s-0.4-0.1-0.4-0.1L253.6,373.9z M253.6,386.1v-10.3c0.3-0.1,0.7-0.2,1.3-0.2c0.2,0,0.5,0,0.7,0
				c0.2,0,0.4,0.1,0.5,0.1l0.1,0v10.3c-0.3,0.1-0.7,0.2-1.3,0.2c-0.3,0-0.5,0-0.7,0s-0.4-0.1-0.4-0.1L253.6,386.1z"/>
			<path d="M259.6,385.1c-0.8-0.9-1.2-2.3-1.2-4.2s0.4-3.3,1.2-4.2c0.8-0.9,1.9-1.3,3.4-1.3s2.6,0.4,3.4,1.3
				c0.8,0.9,1.2,2.3,1.2,4.2c0,1.9-0.4,3.3-1.2,4.2c-0.8,0.9-1.9,1.3-3.4,1.3S260.4,386,259.6,385.1z M261.1,379.2
				c-0.1,0.5-0.1,1.1-0.1,1.7s0,1.3,0.1,1.7c0.1,0.5,0.2,0.8,0.4,1.1c0.2,0.3,0.4,0.4,0.6,0.5c0.2,0.1,0.5,0.2,0.8,0.2
				s0.6-0.1,0.8-0.2c0.2-0.1,0.4-0.3,0.6-0.5c0.2-0.3,0.3-0.6,0.4-1.1c0.1-0.5,0.1-1.1,0.1-1.8s0-1.3-0.1-1.7
				c-0.1-0.5-0.2-0.8-0.4-1.1c-0.2-0.3-0.4-0.4-0.6-0.5c-0.2-0.1-0.5-0.2-0.8-0.2s-0.6,0.1-0.8,0.2c-0.2,0.1-0.4,0.3-0.6,0.5
				C261.4,378.4,261.2,378.7,261.1,379.2z"/>
			<path d="M269.9,386.1v-10.3c0.3-0.1,0.7-0.2,1.3-0.2c0.2,0,0.5,0,0.7,0s0.4,0.1,0.5,0.1l0.1,0v0.6c0.7-0.7,1.6-1,2.8-1
				c1,0,1.8,0.3,2.3,0.8c0.5,0.6,0.8,1.3,0.8,2.2v7.6c-0.3,0.1-0.7,0.2-1.3,0.2c-0.3,0-0.5,0-0.7,0s-0.4-0.1-0.4-0.1l-0.1,0V379
				c0-0.5-0.1-0.8-0.4-1.1c-0.3-0.3-0.7-0.4-1.2-0.4c-0.7,0-1.3,0.2-1.8,0.8v7.9c-0.3,0.1-0.7,0.2-1.3,0.2c-0.3,0-0.5,0-0.7,0
				s-0.4-0.1-0.4-0.1L269.9,386.1z"/>
			<path d="M280.4,383c0-1.1,0.3-1.9,1-2.4c0.7-0.5,1.6-0.8,2.9-0.8c0.7,0,1.4,0,2,0.1v-0.4c0-1.2-0.6-1.8-1.8-1.8
				c-0.4,0-0.8,0-1.2,0.1c-0.4,0.1-0.8,0.2-1,0.2l-0.3,0.1c-0.2-0.1-0.4-0.4-0.6-0.8c-0.1-0.2-0.1-0.3-0.1-0.5s0-0.3,0-0.4l0-0.1
				c0,0,0.1,0,0.2-0.1s0.2-0.1,0.5-0.2s0.5-0.2,0.8-0.2c0.3-0.1,0.6-0.1,1-0.2c0.4-0.1,0.8-0.1,1.2-0.1c1.5,0,2.5,0.3,3.1,0.9
				c0.6,0.6,0.9,1.6,0.9,2.9v6.9c-0.2,0.1-0.5,0.2-1,0.2c-0.2,0-0.4,0-0.5,0c-0.2,0-0.3-0.1-0.4-0.1l-0.1,0l-0.4-1.1
				c-0.5,1-1.5,1.5-3,1.5c-1,0-1.7-0.3-2.3-0.9C280.6,385,280.4,384.1,280.4,383z M283,383c0,0.5,0.1,0.9,0.4,1.2
				c0.2,0.2,0.6,0.4,1.1,0.4c0.3,0,0.6-0.1,0.9-0.2c0.3-0.1,0.4-0.3,0.6-0.6s0.2-0.5,0.3-0.7c0.1-0.3,0.1-0.5,0.1-0.8v-0.6
				c-0.7-0.1-1.2-0.1-1.7-0.1C283.5,381.5,283,382,283,383z"/>
			<path d="M291.5,386.1v-14.9c0.3-0.1,0.7-0.2,1.3-0.2c0.2,0,0.5,0,0.7,0s0.4,0.1,0.5,0.1l0.1,0v14.9c-0.3,0.1-0.7,0.2-1.3,0.2
				c-0.3,0-0.5,0-0.7,0s-0.4-0.1-0.4-0.1L291.5,386.1z"/>
			<path d="M296.5,374.1v-2.2c0.3-0.1,0.7-0.2,1.3-0.2c0.2,0,0.5,0,0.7,0s0.4,0.1,0.5,0.1l0.1,0v1.4c0,0.4-0.1,0.9-0.2,1.3
				c-0.1,0.4-0.2,0.8-0.4,1.1c-0.2,0.3-0.3,0.5-0.5,0.7c-0.2,0.2-0.3,0.4-0.4,0.5l-0.2,0.1l-0.9-0.6c0.1-0.1,0.1-0.1,0.2-0.3
				s0.2-0.3,0.3-0.7c0.1-0.4,0.2-0.8,0.2-1.2c-0.2,0-0.3,0-0.4-0.1C296.8,374.2,296.7,374.1,296.5,374.1L296.5,374.1z M299.8,374.1
				v-2.2c0.3-0.1,0.7-0.2,1.3-0.2c0.2,0,0.5,0,0.7,0s0.4,0.1,0.4,0.1l0.1,0v1.4c0,0.4-0.1,0.9-0.2,1.3c-0.1,0.4-0.2,0.8-0.4,1.1
				c-0.2,0.3-0.3,0.5-0.5,0.7c-0.2,0.2-0.3,0.4-0.4,0.5l-0.2,0.1l-0.9-0.6c0.1-0.1,0.1-0.1,0.2-0.3s0.2-0.3,0.3-0.7
				c0.1-0.4,0.2-0.8,0.2-1.2c-0.2,0-0.3,0-0.4-0.1C300,374.2,299.9,374.2,299.8,374.1L299.8,374.1z"/>
		</g>
		<g class="st1">
			<path d="M187.5,407.3c-0.2-1.1-0.3-2.1-0.3-3.1s0.1-2.1,0.3-3.1c0.2-1.1,0.4-2,0.7-2.8c0.3-0.8,0.5-1.5,0.8-2.1
				c0.3-0.6,0.5-1.1,0.7-1.4l0.3-0.5c0.3,0,0.7,0.1,1.1,0.3c0.2,0.1,0.3,0.2,0.5,0.3c0.1,0.1,0.2,0.2,0.3,0.3l0.1,0.1
				c-0.1,0.1-0.1,0.2-0.2,0.4c-0.1,0.2-0.3,0.6-0.5,1.2c-0.2,0.6-0.4,1.2-0.6,1.9s-0.3,1.5-0.5,2.5c-0.1,1-0.2,2-0.2,3s0.1,2,0.2,3
				c0.1,1,0.3,1.8,0.5,2.5c0.2,0.7,0.4,1.3,0.6,1.8c0.2,0.5,0.4,0.9,0.5,1.2l0.2,0.4c0,0,0,0.1-0.1,0.1c0,0.1-0.1,0.1-0.3,0.3
				c-0.1,0.1-0.3,0.2-0.5,0.3c-0.2,0.1-0.3,0.2-0.5,0.2c-0.2,0-0.3,0.1-0.4,0.1h-0.1c-0.1-0.1-0.2-0.3-0.3-0.5
				c-0.1-0.2-0.3-0.7-0.6-1.4c-0.3-0.7-0.6-1.4-0.8-2.2C187.9,409.2,187.7,408.3,187.5,407.3z"/>
			<path d="M193.4,410.4v-10.3c0.3-0.1,0.7-0.2,1.3-0.2c0.2,0,0.5,0,0.7,0c0.2,0,0.4,0.1,0.5,0.1l0.1,0v1.1c0.7-1,1.5-1.5,2.2-1.5
				c0.6,0,1.2,0.2,1.8,0.5c-0.1,0.9-0.4,1.6-1.1,2.1c-0.4-0.3-0.7-0.4-1.2-0.4c-0.7,0-1.3,0.4-1.8,1.1v7.4c-0.3,0.1-0.7,0.2-1.3,0.2
				c-0.3,0-0.5,0-0.7,0c-0.2,0-0.4-0.1-0.4-0.1L193.4,410.4z"/>
			<path d="M201.9,409.4c-0.8-0.9-1.2-2.3-1.2-4.2s0.4-3.3,1.2-4.2c0.8-0.9,1.9-1.3,3.4-1.3c1.5,0,2.6,0.4,3.4,1.3s1.2,2.3,1.2,4.2
				c0,1.9-0.4,3.3-1.2,4.2c-0.8,0.9-1.9,1.3-3.4,1.3S202.7,410.3,201.9,409.4z M203.5,403.5c-0.1,0.5-0.1,1.1-0.1,1.7s0,1.3,0.1,1.7
				c0.1,0.5,0.2,0.8,0.4,1.1c0.2,0.3,0.4,0.4,0.6,0.5c0.2,0.1,0.5,0.2,0.8,0.2s0.6-0.1,0.8-0.2c0.2-0.1,0.4-0.3,0.6-0.5
				s0.3-0.6,0.4-1.1s0.1-1.1,0.1-1.8s0-1.3-0.1-1.7s-0.2-0.8-0.4-1.1s-0.4-0.4-0.6-0.5c-0.2-0.1-0.5-0.2-0.8-0.2s-0.6,0.1-0.8,0.2
				c-0.2,0.1-0.4,0.3-0.6,0.5C203.7,402.7,203.6,403,203.5,403.5z"/>
			<path d="M211.8,405.3c0-3.7,1.5-5.5,4.5-5.5c0.6,0,1.2,0,1.6,0.1c0.5,0.1,0.8,0.2,1,0.2l0.2,0.1c0,0.4-0.1,0.7-0.2,1
				c-0.1,0.3-0.3,0.6-0.5,0.8c-0.5-0.2-1-0.3-1.7-0.3c-0.9,0-1.5,0.3-1.8,0.8s-0.5,1.4-0.5,2.6c0,1.2,0.2,2.1,0.6,2.6
				c0.4,0.5,1,0.8,1.9,0.8c0.3,0,0.6,0,0.9-0.1c0.3,0,0.5-0.1,0.7-0.1l0.2-0.1c0.2,0.2,0.4,0.5,0.5,0.8c0.1,0.3,0.2,0.7,0.2,1
				c-0.1,0-0.2,0.1-0.3,0.2c-0.1,0.1-0.5,0.2-1,0.3c-0.5,0.1-1.1,0.2-1.7,0.2C213.3,410.8,211.8,408.9,211.8,405.3z"/>
			<path d="M221.3,410.4v-14.9c0.3-0.1,0.8-0.1,1.3-0.1c0.2,0,0.4,0,0.6,0c0.2,0,0.4,0,0.5,0.1l0.2,0v8.6h0.7l2.5-4
				c0.3-0.1,0.8-0.2,1.3-0.2c0.2,0,0.4,0,0.6,0c0.2,0,0.4,0.1,0.5,0.1l0.2,0l-3,4.8l3.4,5.6c-0.4,0.1-0.9,0.2-1.4,0.2
				c-0.3,0-0.5,0-0.7,0c-0.2,0-0.4-0.1-0.5-0.1l-0.1,0l-2.7-4.5h-0.6v4.5c-0.3,0.1-0.8,0.2-1.3,0.2c-0.2,0-0.5,0-0.7,0
				c-0.2,0-0.4-0.1-0.5-0.1L221.3,410.4z"/>
			<path d="M230.9,413c0.1-0.1,0.1-0.2,0.2-0.4c0.1-0.2,0.3-0.6,0.5-1.2c0.2-0.6,0.4-1.2,0.6-1.9c0.2-0.6,0.3-1.5,0.5-2.5
				c0.1-1,0.2-2,0.2-3s-0.1-2-0.2-3c-0.1-1-0.3-1.8-0.5-2.5c-0.2-0.7-0.4-1.3-0.6-1.8c-0.2-0.5-0.4-0.9-0.5-1.2l-0.2-0.4
				c0.2-0.3,0.4-0.5,0.8-0.7c0.2-0.1,0.3-0.2,0.5-0.2s0.3-0.1,0.4-0.1l0.1,0c0.1,0.1,0.2,0.3,0.3,0.5c0.1,0.2,0.3,0.7,0.6,1.4
				c0.3,0.7,0.6,1.4,0.8,2.2c0.2,0.7,0.5,1.6,0.6,2.7c0.2,1.1,0.3,2.1,0.3,3.1s-0.1,2.1-0.3,3.1s-0.4,2-0.7,2.8s-0.5,1.5-0.8,2.1
				s-0.5,1.1-0.7,1.4l-0.3,0.5c-0.3,0-0.7-0.1-1.1-0.3c-0.2-0.1-0.3-0.2-0.5-0.3c-0.1-0.1-0.2-0.2-0.3-0.3L230.9,413z"/>
			<path d="M243.3,408.9c-1-1.3-1.6-3.1-1.6-5.6c0-2.5,0.5-4.3,1.6-5.6c1-1.3,2.6-1.9,4.6-1.9c0.7,0,1.3,0.1,1.9,0.2
				c0.6,0.1,1,0.2,1.3,0.4l0.4,0.2c0,0.1,0,0.1,0,0.2c0,0.6-0.3,1.2-0.8,1.7c-0.8-0.3-1.6-0.4-2.5-0.4c-0.6,0-1.1,0.1-1.5,0.2
				c-0.4,0.2-0.8,0.4-1.2,0.8c-0.3,0.4-0.6,0.9-0.8,1.7c-0.2,0.7-0.3,1.6-0.3,2.6c0,0.8,0.1,1.5,0.2,2.2s0.3,1.1,0.5,1.5
				s0.5,0.7,0.8,0.9c0.3,0.2,0.7,0.4,1,0.5c0.4,0.1,0.8,0.1,1.2,0.1c0.4,0,0.9,0,1.3-0.1s0.8-0.1,1-0.2l0.3-0.1
				c0.5,0.5,0.8,1.1,0.8,2c0,0-0.1,0-0.2,0.1c-0.1,0-0.2,0.1-0.5,0.2s-0.5,0.2-0.8,0.2c-0.3,0.1-0.6,0.1-1,0.2
				c-0.4,0-0.8,0.1-1.3,0.1C245.8,410.8,244.3,410.1,243.3,408.9z"/>
			<path d="M252.8,407.3c0-1.1,0.3-1.9,1-2.4c0.7-0.5,1.6-0.8,2.9-0.8c0.7,0,1.4,0,2,0.1v-0.4c0-1.2-0.6-1.8-1.8-1.8
				c-0.4,0-0.8,0-1.2,0.1c-0.4,0.1-0.8,0.2-1,0.2l-0.3,0.1c-0.2-0.1-0.4-0.4-0.6-0.8c-0.1-0.2-0.1-0.3-0.1-0.5s0-0.3,0-0.4l0-0.1
				c0,0,0.1,0,0.2-0.1s0.2-0.1,0.5-0.2s0.5-0.2,0.8-0.2c0.3-0.1,0.6-0.1,1-0.2c0.4-0.1,0.8-0.1,1.2-0.1c1.5,0,2.5,0.3,3.1,0.9
				c0.6,0.6,0.9,1.6,0.9,2.9v6.9c-0.2,0.1-0.5,0.2-1,0.2c-0.2,0-0.4,0-0.5,0c-0.2,0-0.3-0.1-0.4-0.1l-0.1,0l-0.4-1.1
				c-0.5,1-1.5,1.5-3,1.5c-1,0-1.7-0.3-2.3-0.9C253.1,409.3,252.8,408.4,252.8,407.3z M255.4,407.3c0,0.5,0.1,0.9,0.4,1.2
				c0.2,0.2,0.6,0.4,1.1,0.4c0.3,0,0.6-0.1,0.9-0.2c0.3-0.1,0.4-0.3,0.6-0.6s0.2-0.5,0.3-0.7c0.1-0.3,0.1-0.5,0.1-0.8v-0.6
				c-0.7-0.1-1.2-0.1-1.7-0.1C255.9,405.8,255.4,406.3,255.4,407.3z"/>
			<path d="M263.9,410.4v-14.9c0.3-0.1,0.7-0.2,1.3-0.2c0.2,0,0.5,0,0.7,0c0.2,0,0.4,0.1,0.5,0.1l0.1,0v14.9
				c-0.3,0.1-0.7,0.2-1.3,0.2c-0.3,0-0.5,0-0.7,0c-0.2,0-0.4-0.1-0.4-0.1L263.9,410.4z"/>
			<path d="M268.7,405.3c0-3.7,1.5-5.5,4.5-5.5c0.6,0,1.2,0,1.6,0.1c0.5,0.1,0.8,0.2,1,0.2l0.2,0.1c0,0.4-0.1,0.7-0.2,1
				c-0.1,0.3-0.3,0.6-0.5,0.8c-0.5-0.2-1-0.3-1.7-0.3c-0.9,0-1.5,0.3-1.8,0.8s-0.5,1.4-0.5,2.6c0,1.2,0.2,2.1,0.6,2.6
				c0.4,0.5,1,0.8,1.9,0.8c0.3,0,0.6,0,0.9-0.1s0.5-0.1,0.7-0.1l0.2-0.1c0.2,0.2,0.4,0.5,0.5,0.8s0.2,0.7,0.2,1
				c-0.1,0-0.2,0.1-0.3,0.2s-0.5,0.2-1,0.3s-1.1,0.2-1.7,0.2C270.2,410.8,268.7,408.9,268.7,405.3z"/>
			<path d="M278.2,398.2v-2.3c0.3-0.1,0.7-0.2,1.3-0.2c0.2,0,0.5,0,0.7,0c0.2,0,0.4,0.1,0.5,0.1l0.1,0v2.3c-0.3,0.1-0.7,0.2-1.3,0.2
				c-0.3,0-0.5,0-0.7,0s-0.4-0.1-0.4-0.1L278.2,398.2z M278.2,410.4v-10.3c0.3-0.1,0.7-0.2,1.3-0.2c0.2,0,0.5,0,0.7,0
				c0.2,0,0.4,0.1,0.5,0.1l0.1,0v10.3c-0.3,0.1-0.7,0.2-1.3,0.2c-0.3,0-0.5,0-0.7,0s-0.4-0.1-0.4-0.1L278.2,410.4z"/>
			<path d="M283.4,407.7v-7.6c0.3-0.1,0.7-0.2,1.3-0.2c0.3,0,0.5,0,0.7,0s0.4,0.1,0.4,0.1l0.1,0v7.1c0,0.5,0.1,0.8,0.4,1.1
				s0.7,0.4,1.2,0.4c0.7,0,1.3-0.2,1.8-0.7v-7.8c0.3-0.1,0.7-0.2,1.3-0.2c0.3,0,0.5,0,0.7,0s0.4,0.1,0.4,0.1l0.1,0v10.3
				c-0.3,0.1-0.7,0.2-1.3,0.2c-0.2,0-0.5,0-0.7,0s-0.4-0.1-0.5-0.1l-0.1,0v-0.6c-0.7,0.7-1.6,1-2.8,1c-1,0-1.8-0.3-2.4-0.8
				S283.4,408.6,283.4,407.7z"/>
			<path d="M294.5,410.4v-10.3c0.3-0.1,0.7-0.2,1.3-0.2c0.2,0,0.5,0,0.7,0c0.2,0,0.4,0.1,0.5,0.1l0.1,0v0.6c0.7-0.6,1.6-1,2.6-1
				c1.2,0,2,0.4,2.6,1.2c0.8-0.8,1.9-1.2,3.2-1.2c1,0,1.7,0.3,2.3,0.8c0.5,0.6,0.8,1.3,0.8,2.2v7.6c-0.3,0.1-0.7,0.2-1.3,0.2
				c-0.3,0-0.5,0-0.7,0s-0.4-0.1-0.4-0.1l-0.1,0v-7.1c0-1-0.5-1.5-1.5-1.5c-0.7,0-1.2,0.2-1.7,0.7v7.9c-0.3,0.1-0.7,0.2-1.3,0.2
				c-0.3,0-0.5,0-0.7,0s-0.4-0.1-0.4-0.1l-0.1,0v-7.1c0-1-0.5-1.5-1.5-1.5c-0.7,0-1.2,0.2-1.7,0.7v7.9c-0.3,0.1-0.7,0.2-1.3,0.2
				c-0.3,0-0.5,0-0.7,0s-0.4-0.1-0.4-0.1L294.5,410.4z"/>
		</g>
		<g class="st1">
			<path d="M191.4,434.2C191.4,434.2,191.4,434.1,191.4,434.2c0-0.8,0.2-1.4,0.6-2c0.1,0,0.3,0.1,0.6,0.2s0.7,0.2,1.4,0.3
				s1.3,0.2,1.8,0.2c0.9,0,1.6-0.2,2-0.5s0.6-0.8,0.6-1.5c0-0.3-0.1-0.5-0.2-0.7c-0.1-0.2-0.3-0.4-0.5-0.6c-0.2-0.2-0.4-0.3-0.7-0.4
				c-0.2-0.1-0.5-0.2-0.8-0.3c-0.2-0.1-0.4-0.2-0.8-0.3c-0.4-0.1-0.6-0.2-0.9-0.3c-0.2-0.1-0.5-0.2-0.8-0.3s-0.6-0.3-0.8-0.4
				c-0.2-0.1-0.4-0.3-0.7-0.5c-0.2-0.2-0.4-0.4-0.6-0.7c-0.1-0.2-0.2-0.5-0.3-0.8c-0.1-0.3-0.1-0.7-0.1-1.1c0-1.3,0.4-2.4,1.3-3.1
				c0.9-0.8,2.1-1.1,3.8-1.1c0.7,0,1.4,0.1,2.1,0.2s1.2,0.2,1.5,0.3l0.5,0.1c0,0.4-0.1,0.7-0.2,1.1c-0.1,0.4-0.3,0.7-0.5,0.9
				c-0.1,0-0.2-0.1-0.4-0.1c-0.2,0-0.5-0.1-1.1-0.2c-0.5-0.1-1-0.1-1.5-0.1c-1.9,0-2.9,0.7-2.9,2c0,0.2,0,0.3,0.1,0.5
				c0.1,0.1,0.2,0.3,0.3,0.4s0.3,0.2,0.4,0.3s0.3,0.2,0.6,0.3c0.2,0.1,0.5,0.2,0.6,0.2c0.2,0.1,0.4,0.1,0.7,0.2
				c0.3,0.1,0.6,0.2,0.7,0.3c0.3,0.1,0.6,0.2,0.9,0.4c0.3,0.1,0.5,0.3,0.8,0.4c0.3,0.2,0.5,0.4,0.7,0.6c0.2,0.2,0.4,0.5,0.6,0.7
				c0.2,0.3,0.3,0.6,0.4,0.9c0.1,0.4,0.1,0.7,0.1,1.2c0,1.4-0.4,2.5-1.3,3.2c-0.9,0.7-2.2,1.1-3.9,1.1c-0.8,0-1.6-0.1-2.4-0.2
				c-0.7-0.1-1.3-0.3-1.6-0.4L191.4,434.2z"/>
			<path d="M203.2,432v-7.6c0.3-0.1,0.7-0.2,1.3-0.2c0.3,0,0.5,0,0.7,0s0.4,0.1,0.4,0.1l0.1,0v7.1c0,0.5,0.1,0.8,0.4,1.1
				s0.7,0.4,1.2,0.4c0.7,0,1.3-0.2,1.8-0.7v-7.8c0.3-0.1,0.7-0.2,1.3-0.2c0.3,0,0.5,0,0.7,0s0.4,0.1,0.4,0.1l0.1,0v10.3
				c-0.3,0.1-0.7,0.2-1.3,0.2c-0.2,0-0.5,0-0.7,0c-0.2,0-0.4-0.1-0.5-0.1l-0.1,0v-0.6c-0.7,0.7-1.6,1-2.8,1c-1,0-1.8-0.3-2.4-0.8
				C203.5,433.7,203.2,432.9,203.2,432z"/>
			<path d="M214.3,439.3v-14.9c0.3-0.1,0.7-0.2,1.3-0.2c0.3,0,0.5,0,0.7,0c0.2,0,0.4,0.1,0.5,0.1l0.1,0v0.7c0.6-0.7,1.5-1.1,2.7-1.1
				c0.6,0,1.1,0.1,1.5,0.3s0.8,0.5,1.2,0.9c0.3,0.4,0.6,1,0.8,1.7s0.3,1.6,0.3,2.6s-0.1,1.9-0.3,2.6s-0.4,1.3-0.8,1.7
				c-0.3,0.4-0.7,0.7-1.2,0.9c-0.4,0.2-0.9,0.3-1.5,0.3c-1.3,0-2.2-0.4-2.7-1.1v5.2c-0.3,0.1-0.7,0.2-1.3,0.2c-0.3,0-0.5,0-0.7,0
				c-0.2,0-0.4-0.1-0.4-0.1L214.3,439.3z M216.9,430.8c0,0.6,0.2,1.2,0.5,1.6c0.3,0.4,0.8,0.6,1.3,0.6c0.3,0,0.6,0,0.9-0.1
				s0.4-0.3,0.6-0.5s0.3-0.6,0.4-1.1s0.1-1,0.1-1.7s0-1.3-0.1-1.7s-0.2-0.8-0.4-1.1c-0.2-0.2-0.4-0.4-0.6-0.5s-0.5-0.1-0.9-0.1
				c-0.6,0-1,0.2-1.3,0.6c-0.3,0.4-0.5,0.9-0.5,1.6V430.8z"/>
			<path d="M225.6,439.3v-14.9c0.3-0.1,0.7-0.2,1.3-0.2c0.3,0,0.5,0,0.7,0c0.2,0,0.4,0.1,0.5,0.1l0.1,0v0.7c0.6-0.7,1.5-1.1,2.7-1.1
				c0.6,0,1.1,0.1,1.5,0.3s0.8,0.5,1.2,0.9c0.3,0.4,0.6,1,0.8,1.7s0.3,1.6,0.3,2.6s-0.1,1.9-0.3,2.6s-0.4,1.3-0.8,1.7
				c-0.3,0.4-0.7,0.7-1.2,0.9c-0.4,0.2-0.9,0.3-1.5,0.3c-1.3,0-2.2-0.4-2.7-1.1v5.2c-0.3,0.1-0.7,0.2-1.3,0.2c-0.3,0-0.5,0-0.7,0
				c-0.2,0-0.4-0.1-0.4-0.1L225.6,439.3z M228.2,430.8c0,0.6,0.2,1.2,0.5,1.6c0.3,0.4,0.8,0.6,1.3,0.6c0.3,0,0.6,0,0.9-0.1
				s0.4-0.3,0.6-0.5s0.3-0.6,0.4-1.1s0.1-1,0.1-1.7s0-1.3-0.1-1.7s-0.2-0.8-0.4-1.1c-0.2-0.2-0.4-0.4-0.6-0.5s-0.5-0.1-0.9-0.1
				c-0.6,0-1,0.2-1.3,0.6c-0.3,0.4-0.5,0.9-0.5,1.6V430.8z"/>
			<path d="M237,434.7v-14.9c0.3-0.1,0.7-0.2,1.3-0.2c0.2,0,0.5,0,0.7,0c0.2,0,0.4,0.1,0.5,0.1l0.1,0v14.9c-0.3,0.1-0.7,0.2-1.3,0.2
				c-0.3,0-0.5,0-0.7,0c-0.2,0-0.4-0.1-0.4-0.1L237,434.7z"/>
			<path d="M241.8,429.5c0-1.9,0.4-3.2,1.2-4.1c0.8-0.9,1.9-1.3,3.4-1.3c1.3,0,2.3,0.3,3.1,1c0.7,0.7,1.1,1.7,1.1,3.1
				c0,0.4,0,0.8-0.1,1.1c0,0.4-0.1,0.6-0.1,0.8l-0.1,0.2h-6c0.1,1,0.3,1.7,0.7,2c0.4,0.4,1,0.6,1.8,0.6c0.4,0,0.8,0,1.2-0.1
				s0.7-0.2,0.9-0.2l0.3-0.1c0.2,0.2,0.4,0.5,0.5,0.8c0.1,0.3,0.2,0.7,0.2,1c0,0-0.1,0-0.1,0.1c-0.1,0-0.2,0.1-0.4,0.2
				c-0.2,0.1-0.5,0.2-0.7,0.2c-0.2,0.1-0.6,0.1-1,0.2c-0.4,0.1-0.8,0.1-1.2,0.1c-1.6,0-2.8-0.5-3.6-1.4
				C242.1,432.8,241.8,431.4,241.8,429.5z M244.4,428.6h3.6c0-0.3,0-0.5,0-0.7c0-1.3-0.5-1.9-1.6-1.9
				C245.2,426,244.5,426.9,244.4,428.6z"/>
			<path d="M252.6,434.7v-10.3c0.3-0.1,0.7-0.2,1.3-0.2c0.2,0,0.5,0,0.7,0s0.4,0.1,0.5,0.1l0.1,0v0.6c0.7-0.6,1.6-1,2.6-1
				c1.2,0,2,0.4,2.6,1.2c0.8-0.8,1.9-1.2,3.2-1.2c1,0,1.7,0.3,2.3,0.8c0.5,0.6,0.8,1.3,0.8,2.2v7.6c-0.3,0.1-0.7,0.2-1.3,0.2
				c-0.3,0-0.5,0-0.7,0c-0.2,0-0.4-0.1-0.4-0.1l-0.1,0v-7.1c0-1-0.5-1.5-1.5-1.5c-0.7,0-1.2,0.2-1.7,0.7v7.9
				c-0.3,0.1-0.7,0.2-1.3,0.2c-0.3,0-0.5,0-0.7,0c-0.2,0-0.4-0.1-0.4-0.1l-0.1,0v-7.1c0-1-0.5-1.5-1.5-1.5c-0.7,0-1.2,0.2-1.7,0.7
				v7.9c-0.3,0.1-0.7,0.2-1.3,0.2c-0.3,0-0.5,0-0.7,0s-0.4-0.1-0.4-0.1L252.6,434.7z"/>
			<path d="M268.8,429.5c0-1.9,0.4-3.2,1.2-4.1c0.8-0.9,1.9-1.3,3.4-1.3c1.3,0,2.3,0.3,3.1,1c0.7,0.7,1.1,1.7,1.1,3.1
				c0,0.4,0,0.8-0.1,1.1s-0.1,0.6-0.1,0.8l-0.1,0.2h-6c0.1,1,0.3,1.7,0.7,2c0.4,0.4,1,0.6,1.8,0.6c0.4,0,0.8,0,1.2-0.1
				c0.4-0.1,0.7-0.2,0.9-0.2l0.3-0.1c0.2,0.2,0.4,0.5,0.5,0.8c0.1,0.3,0.2,0.7,0.2,1c0,0-0.1,0-0.1,0.1c-0.1,0-0.2,0.1-0.4,0.2
				c-0.2,0.1-0.5,0.2-0.7,0.2s-0.6,0.1-1,0.2c-0.4,0.1-0.8,0.1-1.2,0.1c-1.6,0-2.8-0.5-3.6-1.4C269.2,432.8,268.8,431.4,268.8,429.5
				z M271.4,428.6h3.6c0-0.3,0-0.5,0-0.7c0-1.3-0.5-1.9-1.6-1.9C272.2,426,271.6,426.9,271.4,428.6z"/>
			<path d="M279.7,434.7v-10.3c0.3-0.1,0.7-0.2,1.3-0.2c0.2,0,0.5,0,0.7,0s0.4,0.1,0.5,0.1l0.1,0v0.6c0.7-0.7,1.6-1,2.8-1
				c1,0,1.8,0.3,2.3,0.8c0.5,0.6,0.8,1.3,0.8,2.2v7.6c-0.3,0.1-0.7,0.2-1.3,0.2c-0.3,0-0.5,0-0.7,0s-0.4-0.1-0.4-0.1l-0.1,0v-7.1
				c0-0.5-0.1-0.8-0.4-1.1c-0.3-0.3-0.7-0.4-1.2-0.4c-0.7,0-1.3,0.2-1.8,0.8v7.9c-0.3,0.1-0.7,0.2-1.3,0.2c-0.3,0-0.5,0-0.7,0
				s-0.4-0.1-0.4-0.1L279.7,434.7z"/>
			<path d="M289.8,425.2c0-0.2,0-0.4,0-0.5c0-0.2,0-0.3,0.1-0.4l0-0.1h1.5v-1.7c0.6-0.3,1.3-0.5,2.1-0.5c0.2,0,0.3,0,0.5,0v2.1h2.4
				c0.1,0.2,0.1,0.6,0.1,1c0,0.2,0,0.3,0,0.5c0,0.2,0,0.3-0.1,0.4l0,0.1H294v4.7c0,0.8,0.1,1.3,0.4,1.6s0.8,0.4,1.5,0.4l0.7-0.1
				c0.1,0.3,0.2,0.7,0.2,1c0,0.2,0,0.3,0,0.5s-0.1,0.3-0.1,0.3l0,0.1c-0.4,0.1-0.9,0.2-1.5,0.2c-1.3,0-2.2-0.3-2.8-1s-0.9-1.7-0.9-3
				v-4.9h-1.5C289.9,426,289.8,425.6,289.8,425.2z"/>
			<path d="M298.1,434.3c0-0.8,0.2-1.4,0.7-1.9c0.9,0.3,1.8,0.5,2.7,0.5c1.1,0,1.6-0.4,1.6-1.1c0-0.3-0.1-0.5-0.3-0.7
				s-0.4-0.3-0.6-0.4c-0.2-0.1-0.5-0.2-1-0.3c-0.1,0-0.2-0.1-0.2-0.1c-0.3-0.1-0.5-0.2-0.7-0.2s-0.4-0.2-0.6-0.3
				c-0.2-0.1-0.4-0.3-0.6-0.4c-0.2-0.1-0.3-0.3-0.5-0.5c-0.1-0.2-0.3-0.4-0.3-0.7s-0.1-0.6-0.1-0.9c0-1,0.3-1.8,1-2.4
				s1.6-0.9,2.9-0.9c0.6,0,1.2,0,1.7,0.1c0.5,0.1,0.8,0.2,1,0.3l0.3,0.1c0,0.8-0.2,1.4-0.7,1.8c-0.6-0.2-1.3-0.3-2.1-0.3
				c-1.2,0-1.7,0.4-1.7,1.1c0,0.1,0,0.3,0.1,0.4c0.1,0.1,0.2,0.2,0.3,0.3c0.1,0.1,0.3,0.1,0.4,0.2c0.2,0.1,0.4,0.1,0.5,0.2
				s0.4,0.1,0.6,0.2c0.2,0.1,0.5,0.1,0.6,0.2c0.3,0.1,0.7,0.2,0.9,0.4c0.3,0.1,0.5,0.3,0.8,0.6s0.4,0.5,0.6,0.9
				c0.1,0.4,0.2,0.8,0.2,1.2c0,1.1-0.3,1.9-1,2.5c-0.7,0.6-1.7,0.9-3,0.9c-0.4,0-0.8,0-1.2-0.1c-0.4-0.1-0.7-0.1-1-0.2
				c-0.3-0.1-0.5-0.1-0.7-0.2c-0.2-0.1-0.4-0.1-0.5-0.2L298.1,434.3z"/>
		</g>
		<g class="st1">
			<path d="M196.6,455.8c0-0.4,0.1-0.8,0.2-1.2s0.3-0.8,0.5-1s0.5-0.6,0.8-0.8s0.6-0.5,0.8-0.6c0.2-0.2,0.5-0.3,0.7-0.4
				c-0.6-1.2-0.8-2.2-0.8-3.2c0-1,0.3-1.8,0.9-2.4s1.5-0.9,2.7-0.9c1,0,1.8,0.2,2.4,0.7c0.6,0.4,0.9,1.1,0.9,1.9
				c0,0.5-0.1,0.9-0.3,1.3c-0.2,0.4-0.4,0.8-0.8,1.2s-0.7,0.6-1,0.9c-0.3,0.2-0.7,0.5-1.2,0.8c0.7,1,1.6,2,2.6,2.9
				c0.2-0.3,0.5-0.9,0.8-1.7c0.4,0,0.7,0,1.1,0.1s0.6,0.3,0.8,0.6c-0.3,0.7-0.7,1.4-1.3,2.1c0.8,0.5,1.5,0.9,2.2,1.2
				c0,0.4-0.1,0.8-0.3,1.2c-0.2,0.4-0.5,0.7-0.8,0.9c-0.9-0.4-1.8-0.9-2.7-1.5c-0.2,0.2-0.4,0.4-0.7,0.6s-0.5,0.3-0.9,0.5
				c-0.4,0.2-0.8,0.3-1.2,0.4c-0.5,0.1-0.9,0.2-1.5,0.2c-0.5,0-1-0.1-1.5-0.2c-0.5-0.1-0.9-0.3-1.3-0.6c-0.4-0.3-0.7-0.6-0.9-1.1
				C196.7,457,196.6,456.4,196.6,455.8z M199,455.5c0,0.5,0.2,1,0.6,1.3c0.4,0.3,0.9,0.5,1.6,0.5c0.8,0,1.6-0.2,2.3-0.7
				c-1.2-1.1-2.2-2.2-3-3.5C199.5,453.8,199,454.6,199,455.5z M201.2,448.3c0,0.7,0.2,1.4,0.5,2.2c0.5-0.4,0.9-0.7,1.2-1.1
				s0.4-0.9,0.4-1.5c0-0.3-0.1-0.6-0.3-0.8c-0.2-0.2-0.4-0.3-0.8-0.3c-0.3,0-0.6,0.1-0.8,0.4C201.3,447.5,201.2,447.8,201.2,448.3z"
				/>
			<path d="M213,444.9c0.3-0.2,0.8-0.2,1.4-0.2c0.3,0,0.5,0,0.7,0.1s0.4,0.1,0.4,0.1l0.1,0l2.9,8.7c0.2,0.5,0.3,1,0.4,1.4
				s0.2,0.9,0.3,1.1l0.1,0.4h0.1c0.2-0.9,0.4-1.8,0.8-2.9l2.9-8.7c0.2-0.1,0.6-0.2,1.2-0.2c0.2,0,0.5,0,0.7,0.1
				c0.2,0,0.4,0.1,0.5,0.1l0.2,0l-4.7,14.2c-0.4,0.1-1,0.2-1.6,0.2c-0.3,0-0.5,0-0.8,0s-0.5-0.1-0.6-0.1l-0.2,0L213,444.9z"/>
			<path d="M227.3,446.8v-2.3c0.3-0.1,0.7-0.2,1.3-0.2c0.2,0,0.5,0,0.7,0c0.2,0,0.4,0.1,0.5,0.1l0.1,0v2.3c-0.3,0.1-0.7,0.2-1.3,0.2
				c-0.3,0-0.5,0-0.7,0s-0.4-0.1-0.4-0.1L227.3,446.8z M227.3,459v-10.3c0.3-0.1,0.7-0.2,1.3-0.2c0.2,0,0.5,0,0.7,0
				c0.2,0,0.4,0.1,0.5,0.1l0.1,0V459c-0.3,0.1-0.7,0.2-1.3,0.2c-0.3,0-0.5,0-0.7,0s-0.4-0.1-0.4-0.1L227.3,459z"/>
			<path d="M231.6,449.5c0-0.2,0-0.4,0-0.5s0-0.3,0.1-0.4l0-0.1h1.5v-1.7c0.6-0.3,1.3-0.5,2.1-0.5c0.2,0,0.3,0,0.5,0v2.1h2.4
				c0.1,0.2,0.1,0.6,0.1,1c0,0.2,0,0.3,0,0.5s0,0.3-0.1,0.4l0,0.1h-2.4v4.7c0,0.8,0.1,1.3,0.4,1.6s0.8,0.4,1.5,0.4l0.7-0.1
				c0.1,0.3,0.2,0.7,0.2,1c0,0.2,0,0.3,0,0.5s-0.1,0.3-0.1,0.3l0,0.1c-0.4,0.1-0.9,0.2-1.5,0.2c-1.3,0-2.2-0.3-2.8-1
				c-0.6-0.7-0.9-1.7-0.9-3v-4.9h-1.5C231.6,450.3,231.6,449.9,231.6,449.5z"/>
			<path d="M239.7,455.9c0-1.1,0.3-1.9,1-2.4s1.6-0.8,2.9-0.8c0.7,0,1.4,0,2,0.1v-0.4c0-1.2-0.6-1.8-1.8-1.8c-0.4,0-0.8,0-1.2,0.1
				c-0.4,0.1-0.8,0.2-1,0.2l-0.3,0.1c-0.2-0.1-0.4-0.4-0.6-0.8c-0.1-0.2-0.1-0.3-0.1-0.5c0-0.2,0-0.3,0-0.4l0-0.1c0,0,0.1,0,0.2-0.1
				c0.1,0,0.2-0.1,0.5-0.2c0.2-0.1,0.5-0.2,0.8-0.2s0.6-0.1,1-0.2c0.4-0.1,0.8-0.1,1.2-0.1c1.5,0,2.5,0.3,3.1,0.9
				c0.6,0.6,0.9,1.6,0.9,2.9v6.9c-0.2,0.1-0.5,0.2-1,0.2c-0.2,0-0.4,0-0.5,0c-0.2,0-0.3-0.1-0.4-0.1l-0.1,0l-0.4-1.1
				c-0.5,1-1.5,1.5-3,1.5c-1,0-1.7-0.3-2.3-0.9C240,457.9,239.7,457,239.7,455.9z M242.3,455.9c0,0.5,0.1,0.9,0.4,1.2
				c0.2,0.2,0.6,0.4,1.1,0.4c0.3,0,0.6-0.1,0.9-0.2c0.3-0.1,0.4-0.3,0.6-0.6c0.1-0.2,0.2-0.5,0.3-0.7c0.1-0.3,0.1-0.5,0.1-0.8v-0.6
				c-0.7-0.1-1.2-0.1-1.7-0.1C242.9,454.4,242.3,454.9,242.3,455.9z"/>
			<path d="M250.8,459v-10.3c0.3-0.1,0.7-0.2,1.3-0.2c0.2,0,0.5,0,0.7,0s0.4,0.1,0.5,0.1l0.1,0v0.6c0.7-0.6,1.6-1,2.6-1
				c1.2,0,2,0.4,2.6,1.2c0.8-0.8,1.9-1.2,3.2-1.2c1,0,1.7,0.3,2.3,0.8c0.5,0.6,0.8,1.3,0.8,2.2v7.6c-0.3,0.1-0.7,0.2-1.3,0.2
				c-0.3,0-0.5,0-0.7,0c-0.2,0-0.4-0.1-0.4-0.1l-0.1,0v-7.1c0-1-0.5-1.5-1.5-1.5c-0.7,0-1.2,0.2-1.7,0.7v7.9
				c-0.3,0.1-0.7,0.2-1.3,0.2c-0.3,0-0.5,0-0.7,0c-0.2,0-0.4-0.1-0.4-0.1l-0.1,0v-7.1c0-1-0.5-1.5-1.5-1.5c-0.7,0-1.2,0.2-1.7,0.7
				v7.9c-0.3,0.1-0.7,0.2-1.3,0.2c-0.3,0-0.5,0-0.7,0s-0.4-0.1-0.4-0.1L250.8,459z"/>
			<path d="M267.5,446.8v-2.3c0.3-0.1,0.7-0.2,1.3-0.2c0.2,0,0.5,0,0.7,0c0.2,0,0.4,0.1,0.5,0.1l0.1,0v2.3c-0.3,0.1-0.7,0.2-1.3,0.2
				c-0.3,0-0.5,0-0.7,0s-0.4-0.1-0.4-0.1L267.5,446.8z M267.5,459v-10.3c0.3-0.1,0.7-0.2,1.3-0.2c0.2,0,0.5,0,0.7,0
				c0.2,0,0.4,0.1,0.5,0.1l0.1,0V459c-0.3,0.1-0.7,0.2-1.3,0.2c-0.3,0-0.5,0-0.7,0s-0.4-0.1-0.4-0.1L267.5,459z"/>
			<path d="M272.7,459v-10.3c0.3-0.1,0.7-0.2,1.3-0.2c0.2,0,0.5,0,0.7,0c0.2,0,0.4,0.1,0.5,0.1l0.1,0v0.6c0.7-0.7,1.6-1,2.8-1
				c1,0,1.8,0.3,2.3,0.8c0.5,0.6,0.8,1.3,0.8,2.2v7.6c-0.3,0.1-0.7,0.2-1.3,0.2c-0.3,0-0.5,0-0.7,0c-0.2,0-0.4-0.1-0.4-0.1l-0.1,0
				v-7.1c0-0.5-0.1-0.8-0.4-1.1s-0.7-0.4-1.2-0.4c-0.7,0-1.3,0.2-1.8,0.8v7.9c-0.3,0.1-0.7,0.2-1.3,0.2c-0.3,0-0.5,0-0.7,0
				s-0.4-0.1-0.4-0.1L272.7,459z"/>
			<path d="M288.4,459.2v-14.6h4.7c4,0,6,2.4,6,7.3s-2,7.3-6,7.3H288.4z M291,457h2c0.4,0,0.8,0,1.1-0.1c0.3-0.1,0.6-0.2,0.9-0.5
				c0.3-0.2,0.5-0.5,0.7-0.9c0.2-0.4,0.3-0.9,0.5-1.5c0.1-0.6,0.2-1.3,0.2-2.2c0-0.8-0.1-1.6-0.2-2.2c-0.1-0.6-0.3-1.1-0.5-1.5
				c-0.2-0.4-0.4-0.7-0.7-0.9c-0.3-0.2-0.6-0.4-0.9-0.5s-0.7-0.1-1.1-0.1h-2V457z"/>
		</g>
	</g>
	<g>
		<rect y="395.8" class="st0" width="171" height="72"/>
		<g class="st1">
			<path d="M37.8,410.7v-14.2c0.4-0.1,0.9-0.2,1.6-0.2c0.3,0,0.6,0,0.8,0c0.3,0,0.4,0.1,0.5,0.1l0.1,0l4.2,8.1
				c0.2,0.4,0.5,0.9,0.7,1.4c0.2,0.5,0.4,0.9,0.5,1.2l0.2,0.4h0.1c-0.1-1.1-0.2-2.4-0.2-3.8v-7.4c0.2-0.1,0.6-0.2,1.2-0.2
				c0.2,0,0.5,0,0.7,0c0.2,0,0.3,0.1,0.4,0.1l0.1,0v14.2c-0.3,0.1-0.8,0.2-1.5,0.2c-0.3,0-0.6,0-0.8,0c-0.3,0-0.5-0.1-0.6-0.1
				l-0.2,0l-4.2-8.1c-0.2-0.4-0.5-0.9-0.7-1.4c-0.2-0.5-0.4-0.9-0.5-1.2l-0.2-0.4H40c0.1,1.1,0.2,2.3,0.2,3.7v7.4
				c-0.3,0.1-0.7,0.2-1.2,0.2c-0.2,0-0.5,0-0.7,0c-0.2,0-0.3-0.1-0.4-0.1L37.8,410.7z"/>
			<path d="M52.2,409.8c-0.8-0.9-1.2-2.3-1.2-4.2s0.4-3.3,1.2-4.2c0.8-0.9,1.9-1.3,3.4-1.3c1.5,0,2.6,0.4,3.4,1.3s1.2,2.3,1.2,4.2
				c0,1.9-0.4,3.3-1.2,4.2c-0.8,0.9-1.9,1.3-3.4,1.3S53,410.7,52.2,409.8z M53.8,403.8c-0.1,0.5-0.1,1.1-0.1,1.7s0,1.3,0.1,1.7
				c0.1,0.5,0.2,0.8,0.4,1.1c0.2,0.3,0.4,0.4,0.6,0.5c0.2,0.1,0.5,0.2,0.8,0.2s0.6-0.1,0.8-0.2c0.2-0.1,0.4-0.3,0.6-0.5
				s0.3-0.6,0.4-1.1s0.1-1.1,0.1-1.8s0-1.3-0.1-1.7s-0.2-0.8-0.4-1.1s-0.4-0.4-0.6-0.5c-0.2-0.1-0.5-0.2-0.8-0.2s-0.6,0.1-0.8,0.2
				c-0.2,0.1-0.4,0.3-0.6,0.5C54,403,53.9,403.4,53.8,403.8z"/>
			<path d="M68.2,409.2c-1-1.3-1.6-3.1-1.6-5.6c0-2.5,0.5-4.3,1.6-5.6s2.6-1.9,4.6-1.9c0.7,0,1.3,0.1,1.9,0.2c0.6,0.1,1,0.2,1.3,0.4
				l0.4,0.2c0,0.1,0,0.1,0,0.2c0,0.6-0.3,1.2-0.8,1.7c-0.8-0.3-1.6-0.4-2.5-0.4c-0.6,0-1.1,0.1-1.5,0.2c-0.4,0.2-0.8,0.4-1.2,0.8
				c-0.3,0.4-0.6,0.9-0.8,1.7c-0.2,0.7-0.3,1.6-0.3,2.6c0,0.8,0.1,1.5,0.2,2.2c0.1,0.6,0.3,1.1,0.5,1.5s0.5,0.7,0.8,0.9
				c0.3,0.2,0.7,0.4,1,0.5c0.4,0.1,0.8,0.1,1.2,0.1c0.4,0,0.9,0,1.3-0.1c0.4-0.1,0.8-0.1,1-0.2l0.3-0.1c0.5,0.5,0.8,1.1,0.8,2
				c0,0-0.1,0-0.2,0.1c-0.1,0-0.2,0.1-0.5,0.2c-0.2,0.1-0.5,0.2-0.8,0.2c-0.3,0.1-0.6,0.1-1,0.2s-0.8,0.1-1.3,0.1
				C70.8,411.1,69.3,410.5,68.2,409.2z"/>
			<path d="M77.7,407.6c0-1.1,0.3-1.9,1-2.4c0.7-0.5,1.6-0.8,2.9-0.8c0.7,0,1.4,0,2,0.1V404c0-1.2-0.6-1.8-1.8-1.8
				c-0.4,0-0.8,0-1.2,0.1c-0.4,0.1-0.8,0.2-1,0.2l-0.3,0.1c-0.2-0.1-0.4-0.4-0.6-0.8c-0.1-0.2-0.1-0.3-0.1-0.5c0-0.2,0-0.3,0-0.4
				l0-0.1c0,0,0.1,0,0.2-0.1c0.1,0,0.2-0.1,0.5-0.2c0.2-0.1,0.5-0.2,0.8-0.2c0.3-0.1,0.6-0.1,1-0.2c0.4-0.1,0.8-0.1,1.2-0.1
				c1.5,0,2.5,0.3,3.1,0.9c0.6,0.6,0.9,1.6,0.9,2.9v6.9c-0.2,0.1-0.5,0.2-1,0.2c-0.2,0-0.4,0-0.5,0s-0.3-0.1-0.4-0.1l-0.1,0
				l-0.4-1.1c-0.5,1-1.5,1.5-3,1.5c-1,0-1.7-0.3-2.3-0.9C78,409.6,77.7,408.8,77.7,407.6z M80.3,407.6c0,0.5,0.1,0.9,0.4,1.2
				c0.2,0.2,0.6,0.4,1.1,0.4c0.3,0,0.6-0.1,0.9-0.2c0.3-0.1,0.4-0.3,0.6-0.6c0.1-0.2,0.2-0.5,0.3-0.7c0.1-0.3,0.1-0.5,0.1-0.8v-0.6
				c-0.7-0.1-1.2-0.1-1.7-0.1C80.9,406.1,80.3,406.6,80.3,407.6z"/>
			<path d="M88.9,410.7v-14.9c0.3-0.1,0.7-0.2,1.3-0.2c0.2,0,0.5,0,0.7,0c0.2,0,0.4,0.1,0.5,0.1l0.1,0v14.9
				c-0.3,0.1-0.7,0.2-1.3,0.2c-0.3,0-0.5,0-0.7,0c-0.2,0-0.4-0.1-0.4-0.1L88.9,410.7z"/>
			<path d="M93.7,405.6c0-3.7,1.5-5.5,4.5-5.5c0.6,0,1.2,0,1.6,0.1c0.5,0.1,0.8,0.2,1,0.2l0.2,0.1c0,0.4-0.1,0.7-0.2,1
				c-0.1,0.3-0.3,0.6-0.5,0.8c-0.5-0.2-1-0.3-1.7-0.3c-0.9,0-1.5,0.3-1.8,0.8s-0.5,1.4-0.5,2.6c0,1.2,0.2,2.1,0.6,2.6
				c0.4,0.5,1,0.8,1.9,0.8c0.3,0,0.6,0,0.9-0.1c0.3,0,0.5-0.1,0.7-0.1l0.2-0.1c0.2,0.2,0.4,0.5,0.5,0.8c0.1,0.3,0.2,0.7,0.2,1
				c-0.1,0-0.2,0.1-0.3,0.2c-0.1,0.1-0.5,0.2-1,0.3c-0.5,0.1-1.1,0.2-1.7,0.2C95.2,411.1,93.7,409.3,93.7,405.6z"/>
			<path d="M103.2,398.5v-2.3c0.3-0.1,0.7-0.2,1.3-0.2c0.2,0,0.5,0,0.7,0c0.2,0,0.4,0.1,0.5,0.1l0.1,0v2.3c-0.3,0.1-0.7,0.2-1.3,0.2
				c-0.3,0-0.5,0-0.7,0s-0.4-0.1-0.4-0.1L103.2,398.5z M103.2,410.7v-10.3c0.3-0.1,0.7-0.2,1.3-0.2c0.2,0,0.5,0,0.7,0
				c0.2,0,0.4,0.1,0.5,0.1l0.1,0v10.3c-0.3,0.1-0.7,0.2-1.3,0.2c-0.3,0-0.5,0-0.7,0s-0.4-0.1-0.4-0.1L103.2,410.7z"/>
			<path d="M108.3,408v-7.6c0.3-0.1,0.7-0.2,1.3-0.2c0.3,0,0.5,0,0.7,0s0.4,0.1,0.4,0.1l0.1,0v7.1c0,0.5,0.1,0.8,0.4,1.1
				s0.7,0.4,1.2,0.4c0.7,0,1.3-0.2,1.8-0.7v-7.8c0.3-0.1,0.7-0.2,1.3-0.2c0.3,0,0.5,0,0.7,0s0.4,0.1,0.4,0.1l0.1,0v10.3
				c-0.3,0.1-0.7,0.2-1.3,0.2c-0.2,0-0.5,0-0.7,0c-0.2,0-0.4-0.1-0.5-0.1l-0.1,0v-0.6c-0.7,0.7-1.6,1-2.8,1c-1,0-1.8-0.3-2.4-0.8
				C108.6,409.7,108.3,409,108.3,408z"/>
			<path d="M119.5,410.7v-10.3c0.3-0.1,0.7-0.2,1.3-0.2c0.2,0,0.5,0,0.7,0c0.2,0,0.4,0.1,0.5,0.1l0.1,0v0.6c0.7-0.6,1.6-1,2.6-1
				c1.2,0,2,0.4,2.6,1.2c0.8-0.8,1.9-1.2,3.2-1.2c1,0,1.7,0.3,2.3,0.8c0.5,0.6,0.8,1.3,0.8,2.2v7.6c-0.3,0.1-0.7,0.2-1.3,0.2
				c-0.3,0-0.5,0-0.7,0c-0.2,0-0.4-0.1-0.4-0.1l-0.1,0v-7.1c0-1-0.5-1.5-1.5-1.5c-0.7,0-1.2,0.2-1.7,0.7v7.9
				c-0.3,0.1-0.7,0.2-1.3,0.2c-0.3,0-0.5,0-0.7,0c-0.2,0-0.4-0.1-0.4-0.1l-0.1,0v-7.1c0-1-0.5-1.5-1.5-1.5c-0.7,0-1.2,0.2-1.7,0.7
				v7.9c-0.3,0.1-0.7,0.2-1.3,0.2c-0.3,0-0.5,0-0.7,0s-0.4-0.1-0.4-0.1L119.5,410.7z"/>
		</g>
		<g class="st1">
			<path d="M32.1,434.1c-0.8-0.9-1.2-2.3-1.2-4.2s0.4-3.3,1.2-4.2c0.8-0.9,1.9-1.3,3.4-1.3c1.5,0,2.6,0.4,3.4,1.3s1.2,2.3,1.2,4.2
				c0,1.9-0.4,3.3-1.2,4.2c-0.8,0.9-1.9,1.3-3.4,1.3S32.9,435,32.1,434.1z M33.6,428.1c-0.1,0.5-0.1,1.1-0.1,1.7s0,1.3,0.1,1.7
				c0.1,0.5,0.2,0.8,0.4,1.1c0.2,0.3,0.4,0.4,0.6,0.5c0.2,0.1,0.5,0.2,0.8,0.2s0.6-0.1,0.8-0.2c0.2-0.1,0.4-0.3,0.6-0.5
				s0.3-0.6,0.4-1.1s0.1-1.1,0.1-1.8s0-1.3-0.1-1.7s-0.2-0.8-0.4-1.1s-0.4-0.4-0.6-0.5c-0.2-0.1-0.5-0.2-0.8-0.2s-0.6,0.1-0.8,0.2
				c-0.2,0.1-0.4,0.3-0.6,0.5C33.9,427.3,33.7,427.7,33.6,428.1z"/>
			<path d="M42.4,435v-10.3c0.3-0.1,0.7-0.2,1.3-0.2c0.2,0,0.5,0,0.7,0c0.2,0,0.4,0.1,0.5,0.1l0.1,0v1.1c0.7-1,1.5-1.5,2.2-1.5
				c0.6,0,1.2,0.2,1.8,0.5c-0.1,0.9-0.4,1.6-1.1,2.1c-0.4-0.3-0.7-0.4-1.2-0.4c-0.7,0-1.3,0.4-1.8,1.1v7.4c-0.3,0.1-0.7,0.2-1.3,0.2
				c-0.3,0-0.5,0-0.7,0c-0.2,0-0.4-0.1-0.4-0.1L42.4,435z"/>
			<path d="M52.9,420.9c0.3-0.2,0.8-0.2,1.4-0.2c0.3,0,0.5,0,0.7,0.1s0.4,0.1,0.4,0.1l0.1,0l2.9,8.7c0.2,0.5,0.3,1,0.4,1.4
				s0.2,0.9,0.3,1.1l0.1,0.4h0.1c0.2-0.9,0.4-1.8,0.8-2.9l2.9-8.7c0.2-0.1,0.6-0.2,1.2-0.2c0.2,0,0.5,0,0.7,0.1
				c0.2,0,0.4,0.1,0.5,0.1l0.2,0L60.7,435c-0.4,0.1-1,0.2-1.6,0.2c-0.3,0-0.5,0-0.8,0s-0.5-0.1-0.6-0.1l-0.2,0L52.9,420.9z"/>
			<path d="M67.1,422.8v-2.3c0.3-0.1,0.7-0.2,1.3-0.2c0.2,0,0.5,0,0.7,0c0.2,0,0.4,0.1,0.5,0.1l0.1,0v2.3c-0.3,0.1-0.7,0.2-1.3,0.2
				c-0.3,0-0.5,0-0.7,0s-0.4-0.1-0.4-0.1L67.1,422.8z M67.1,435v-10.3c0.3-0.1,0.7-0.2,1.3-0.2c0.2,0,0.5,0,0.7,0
				c0.2,0,0.4,0.1,0.5,0.1l0.1,0V435c-0.3,0.1-0.7,0.2-1.3,0.2c-0.3,0-0.5,0-0.7,0s-0.4-0.1-0.4-0.1L67.1,435z"/>
			<path d="M71.4,425.6c0-0.2,0-0.4,0-0.5s0-0.3,0.1-0.4l0-0.1h1.5v-1.7c0.6-0.3,1.3-0.5,2.1-0.5c0.2,0,0.3,0,0.5,0v2.1H78
				c0.1,0.2,0.1,0.6,0.1,1c0,0.2,0,0.3,0,0.5s0,0.3-0.1,0.4l0,0.1h-2.4v4.7c0,0.8,0.1,1.3,0.4,1.6s0.8,0.4,1.5,0.4l0.7-0.1
				c0.1,0.3,0.2,0.7,0.2,1c0,0.2,0,0.3,0,0.5s-0.1,0.3-0.1,0.3l0,0.1c-0.4,0.1-0.9,0.2-1.5,0.2c-1.3,0-2.2-0.3-2.8-1
				c-0.6-0.7-0.9-1.7-0.9-3v-4.9h-1.5C71.5,426.3,71.4,426,71.4,425.6z"/>
			<path d="M79.6,431.9c0-1.1,0.3-1.9,1-2.4c0.7-0.5,1.6-0.8,2.9-0.8c0.7,0,1.4,0,2,0.1v-0.4c0-1.2-0.6-1.8-1.8-1.8
				c-0.4,0-0.8,0-1.2,0.1c-0.4,0.1-0.8,0.2-1,0.2l-0.3,0.1c-0.2-0.1-0.4-0.4-0.6-0.8c-0.1-0.2-0.1-0.3-0.1-0.5c0-0.2,0-0.3,0-0.4
				l0-0.1c0,0,0.1,0,0.2-0.1c0.1,0,0.2-0.1,0.5-0.2c0.2-0.1,0.5-0.2,0.8-0.2c0.3-0.1,0.6-0.1,1-0.2c0.4-0.1,0.8-0.1,1.2-0.1
				c1.5,0,2.5,0.3,3.1,0.9c0.6,0.6,0.9,1.6,0.9,2.9v6.9c-0.2,0.1-0.5,0.2-1,0.2c-0.2,0-0.4,0-0.5,0s-0.3-0.1-0.4-0.1l-0.1,0
				l-0.4-1.1c-0.5,1-1.5,1.5-3,1.5c-1,0-1.7-0.3-2.3-0.9C79.9,433.9,79.6,433.1,79.6,431.9z M82.2,431.9c0,0.5,0.1,0.9,0.4,1.2
				c0.2,0.2,0.6,0.4,1.1,0.4c0.3,0,0.6-0.1,0.9-0.2c0.3-0.1,0.4-0.3,0.6-0.6c0.1-0.2,0.2-0.5,0.3-0.7c0.1-0.3,0.1-0.5,0.1-0.8v-0.6
				c-0.7-0.1-1.2-0.1-1.7-0.1C82.7,430.4,82.2,430.9,82.2,431.9z"/>
			<path d="M90.7,435v-10.3c0.3-0.1,0.7-0.2,1.3-0.2c0.2,0,0.5,0,0.7,0c0.2,0,0.4,0.1,0.5,0.1l0.1,0v0.6c0.7-0.6,1.6-1,2.6-1
				c1.2,0,2,0.4,2.6,1.2c0.8-0.8,1.9-1.2,3.2-1.2c1,0,1.7,0.3,2.3,0.8c0.5,0.6,0.8,1.3,0.8,2.2v7.6c-0.3,0.1-0.7,0.2-1.3,0.2
				c-0.3,0-0.5,0-0.7,0c-0.2,0-0.4-0.1-0.4-0.1l-0.1,0v-7.1c0-1-0.5-1.5-1.5-1.5c-0.7,0-1.2,0.2-1.7,0.7v7.9
				c-0.3,0.1-0.7,0.2-1.3,0.2c-0.3,0-0.5,0-0.7,0c-0.2,0-0.4-0.1-0.4-0.1l-0.1,0v-7.1c0-1-0.5-1.5-1.5-1.5c-0.7,0-1.2,0.2-1.7,0.7
				v7.9c-0.3,0.1-0.7,0.2-1.3,0.2c-0.3,0-0.5,0-0.7,0s-0.4-0.1-0.4-0.1L90.7,435z"/>
			<path d="M107.3,422.8v-2.3c0.3-0.1,0.7-0.2,1.3-0.2c0.2,0,0.5,0,0.7,0c0.2,0,0.4,0.1,0.5,0.1l0.1,0v2.3c-0.3,0.1-0.7,0.2-1.3,0.2
				c-0.3,0-0.5,0-0.7,0s-0.4-0.1-0.4-0.1L107.3,422.8z M107.3,435v-10.3c0.3-0.1,0.7-0.2,1.3-0.2c0.2,0,0.5,0,0.7,0
				c0.2,0,0.4,0.1,0.5,0.1l0.1,0V435c-0.3,0.1-0.7,0.2-1.3,0.2c-0.3,0-0.5,0-0.7,0s-0.4-0.1-0.4-0.1L107.3,435z"/>
			<path d="M112.5,435v-10.3c0.3-0.1,0.7-0.2,1.3-0.2c0.2,0,0.5,0,0.7,0c0.2,0,0.4,0.1,0.5,0.1l0.1,0v0.6c0.7-0.7,1.6-1,2.8-1
				c1,0,1.8,0.3,2.3,0.8c0.5,0.6,0.8,1.3,0.8,2.2v7.6c-0.3,0.1-0.7,0.2-1.3,0.2c-0.3,0-0.5,0-0.7,0c-0.2,0-0.4-0.1-0.4-0.1l-0.1,0
				v-7.1c0-0.5-0.1-0.8-0.4-1.1c-0.3-0.3-0.7-0.4-1.2-0.4c-0.7,0-1.3,0.2-1.8,0.8v7.9c-0.3,0.1-0.7,0.2-1.3,0.2c-0.3,0-0.5,0-0.7,0
				s-0.4-0.1-0.4-0.1L112.5,435z"/>
			<path d="M128.3,435.2v-14.6h4.7c4,0,6,2.4,6,7.3s-2,7.3-6,7.3H128.3z M130.9,433.1h2c0.4,0,0.8,0,1.1-0.1
				c0.3-0.1,0.6-0.2,0.9-0.5c0.3-0.2,0.5-0.5,0.7-0.9s0.3-0.9,0.5-1.5s0.2-1.3,0.2-2.2c0-0.8-0.1-1.6-0.2-2.2s-0.3-1.1-0.5-1.5
				c-0.2-0.4-0.4-0.7-0.7-0.9c-0.3-0.2-0.6-0.4-0.9-0.5c-0.3-0.1-0.7-0.1-1.1-0.1h-2V433.1z"/>
		</g>
	</g>
	<rect x="39.1" y="314.5" class="st2" width="88.9" height="67.5"/>
	<rect x="197.1" y="315" class="st3" width="89.1" height="12"/>
	<rect x="363.4" class="st4" width="87.8" height="315.4"/>
	<g class="st1">
		<path class="st5" d="M378.4,39.2c0-0.2,0-0.5,0-0.7c0-0.2,0.1-0.4,0.1-0.5l0.1-0.2h3.9v-3.7c0.3-0.1,0.8-0.2,1.3-0.2
			c0.2,0,0.4,0,0.7,0c0.2,0,0.4,0.1,0.5,0.1l0.2,0v3.7h3.9c0.1,0.4,0.2,0.8,0.2,1.4c0,0.2,0,0.5,0,0.7c0,0.2-0.1,0.4-0.1,0.5
			l-0.1,0.2h-3.9v3.7c-0.3,0.1-0.8,0.2-1.3,0.2c-0.2,0-0.4,0-0.7,0c-0.2,0-0.4-0.1-0.5-0.1l-0.2,0v-3.7h-3.9
			C378.5,40.2,378.4,39.7,378.4,39.2z"/>
		<path class="st5" d="M391.1,32.1c1.2-0.3,2.1-0.7,3-1.3c0.8-0.6,1.6-1.3,2.2-2.2c0.4-0.2,0.9-0.3,1.7-0.3c0.3,0,0.7,0,1,0.1
			c0.3,0,0.5,0.1,0.6,0.1l0.2,0.1v18.5c-0.4,0.2-1,0.2-1.8,0.2c-0.3,0-0.6,0-1-0.1c-0.3,0-0.5-0.1-0.7-0.1l-0.2-0.1V36.4
			c0-1.3,0-2.4,0.1-3.5c-1.2,1-2.6,1.6-4.4,2.1c-0.3-0.3-0.6-0.8-0.8-1.3C391,33.1,391,32.6,391.1,32.1z"/>
		<path class="st5" d="M403.9,47.1v-3.2c0.4-0.1,0.9-0.2,1.8-0.2c0.3,0,0.7,0,1,0.1c0.3,0,0.5,0.1,0.6,0.1l0.2,0.1v3.2
			c-0.4,0.1-1,0.2-1.8,0.2c-0.4,0-0.7,0-1-0.1c-0.3,0-0.5-0.1-0.6-0.1L403.9,47.1z"/>
		<path class="st5" d="M410.3,46.6c0-0.5,0-1,0.2-1.4c0.2-0.5,0.4-0.9,0.7-1.2c1.2,0.4,2.5,0.6,3.9,0.6c1.3,0,2.3-0.2,2.9-0.6
			c0.6-0.4,0.9-1.2,0.9-2.3c0-1-0.3-1.7-0.8-2.2s-1.4-0.7-2.6-0.7h-2.4c-0.4-1-0.4-1.9,0-2.7h2.4c1.8,0,2.7-0.8,2.7-2.5
			c0-0.9-0.3-1.6-0.8-2c-0.5-0.4-1.3-0.6-2.4-0.6c-0.6,0-1.2,0.1-1.7,0.2c-0.6,0.1-1,0.2-1.3,0.3l-0.4,0.2c-0.8-0.6-1.2-1.5-1.1-2.5
			c0.1-0.1,0.3-0.2,0.6-0.3c0.3-0.1,0.8-0.3,1.6-0.5c0.8-0.2,1.7-0.3,2.6-0.3c2,0,3.6,0.4,4.8,1.3c1.1,0.9,1.7,2.2,1.7,3.9
			c0,2.1-0.7,3.5-2.2,4.2c1.9,0.8,2.9,2.3,2.9,4.8c0,1.8-0.6,3.2-1.7,4.1s-2.9,1.4-5.5,1.4c-0.6,0-1.2,0-1.8-0.1
			c-0.6-0.1-1-0.2-1.4-0.2c-0.4-0.1-0.7-0.2-1-0.3c-0.3-0.1-0.5-0.2-0.6-0.3L410.3,46.6z"/>
	</g>
	<g class="st1">
		<path class="st5" d="M424.5,29.6c0-1,0.2-1.7,0.6-2.1c0.4-0.5,1-0.7,1.7-0.7c0.7,0,1.3,0.2,1.7,0.7c0.4,0.4,0.6,1.2,0.6,2.2
			s-0.2,1.7-0.6,2.2c-0.4,0.4-1,0.7-1.7,0.7c-0.8,0-1.3-0.2-1.7-0.7C424.7,31.3,424.5,30.6,424.5,29.6z M426,29.6
			c0,0.7,0.1,1.1,0.2,1.3c0.1,0.2,0.3,0.3,0.6,0.3c0.2,0,0.3,0,0.4-0.1c0.1-0.1,0.2-0.2,0.3-0.5c0.1-0.3,0.1-0.6,0.1-1.1
			c0-0.7-0.1-1.1-0.2-1.3c-0.1-0.2-0.3-0.4-0.6-0.4c-0.3,0-0.5,0.1-0.6,0.4C426.1,28.5,426,28.9,426,29.6z M426.4,38.1l6.3-11.4
			c0.2-0.1,0.4-0.1,0.8-0.1c0.1,0,0.3,0,0.4,0c0.1,0,0.2,0,0.3,0.1l0.1,0l-6.3,11.4c-0.2,0.1-0.4,0.1-0.8,0.1c-0.1,0-0.3,0-0.4,0
			C426.6,38.2,426.5,38.1,426.4,38.1L426.4,38.1z M431.4,35.4c0-1,0.2-1.7,0.6-2.1c0.4-0.5,1-0.7,1.7-0.7c0.8,0,1.3,0.2,1.7,0.7
			s0.6,1.2,0.6,2.2s-0.2,1.7-0.6,2.2s-1,0.7-1.7,0.7c-0.8,0-1.3-0.2-1.7-0.7C431.6,37.1,431.4,36.4,431.4,35.4z M432.8,35.4
			c0,0.5,0,0.8,0.1,1.1c0.1,0.3,0.2,0.4,0.3,0.5c0.1,0.1,0.3,0.1,0.5,0.1c0.2,0,0.3,0,0.5-0.1c0.1-0.1,0.2-0.2,0.3-0.5
			c0.1-0.3,0.1-0.6,0.1-1.1c0-0.5,0-0.8-0.1-1.1s-0.2-0.4-0.3-0.5c-0.1-0.1-0.3-0.1-0.4-0.1c-0.3,0-0.5,0.1-0.6,0.4
			S432.8,34.7,432.8,35.4z"/>
	</g>
	<g class="st1">
		<path class="st5" d="M391.3,67.6c0-0.3,0-0.5,0-0.8c0-0.2,0.1-0.4,0.1-0.5l0-0.1h2.1v-2.3c0.8-0.5,1.8-0.7,2.9-0.7
			c0.2,0,0.4,0,0.7,0v3h3.3c0.1,0.3,0.2,0.8,0.2,1.4c0,0.2,0,0.5,0,0.7c0,0.2-0.1,0.4-0.1,0.5l0,0.2h-3.3v6.5c0,1.1,0.2,1.9,0.6,2.3
			c0.4,0.4,1.1,0.6,2,0.6l1-0.1c0.2,0.4,0.3,0.9,0.3,1.4c0,0.2,0,0.4-0.1,0.7c0,0.2-0.1,0.4-0.1,0.5l0,0.2c-0.6,0.2-1.3,0.3-2.1,0.3
			c-1.8,0-3.1-0.5-3.9-1.4s-1.3-2.3-1.3-4.1V69h-2.1C391.4,68.6,391.3,68.2,391.3,67.6z"/>
		<path class="st5" d="M404.5,79.4c-1.1-1.2-1.7-3.2-1.7-5.8c0-2.6,0.6-4.6,1.7-5.8s2.7-1.8,4.8-1.8s3.6,0.6,4.7,1.8
			c1.1,1.2,1.6,3.1,1.6,5.8c0,2.7-0.5,4.6-1.6,5.8c-1.1,1.2-2.7,1.8-4.8,1.8S405.6,80.6,404.5,79.4z M406.6,71.2
			c-0.1,0.7-0.2,1.5-0.2,2.4s0.1,1.8,0.2,2.4c0.1,0.7,0.3,1.2,0.6,1.5c0.3,0.4,0.6,0.6,0.9,0.8c0.3,0.1,0.7,0.2,1.2,0.2
			c0.5,0,0.8-0.1,1.2-0.2c0.3-0.1,0.6-0.4,0.9-0.8s0.4-0.9,0.6-1.5s0.2-1.5,0.2-2.4s-0.1-1.8-0.2-2.4c-0.1-0.6-0.3-1.1-0.6-1.5
			s-0.5-0.6-0.9-0.8c-0.3-0.1-0.7-0.2-1.2-0.2c-0.5,0-0.8,0.1-1.2,0.2c-0.3,0.1-0.6,0.4-0.9,0.8C407,70,406.8,70.5,406.6,71.2z"/>
	</g>
	<g class="st1">
		<path class="st5" d="M376.6,106.4c0-0.2,0-0.5,0-0.7c0-0.2,0.1-0.4,0.1-0.5l0.1-0.2h3.9v-3.7c0.3-0.1,0.8-0.2,1.3-0.2
			c0.2,0,0.4,0,0.7,0c0.2,0,0.4,0.1,0.5,0.1l0.2,0v3.7h3.9c0.1,0.4,0.2,0.8,0.2,1.4c0,0.2,0,0.5,0,0.7c0,0.2-0.1,0.4-0.1,0.5
			l-0.1,0.2h-3.9v3.7c-0.3,0.1-0.8,0.2-1.3,0.2c-0.2,0-0.4,0-0.7,0c-0.2,0-0.4-0.1-0.5-0.1l-0.2,0v-3.7h-3.9
			C376.6,107.4,376.6,106.9,376.6,106.4z"/>
		<path class="st5" d="M389.4,113.8c0-0.5,0-1,0.2-1.4c0.2-0.5,0.4-0.9,0.7-1.2c1.2,0.4,2.5,0.6,3.9,0.6c1.3,0,2.3-0.2,2.9-0.6
			c0.6-0.4,0.9-1.2,0.9-2.3c0-1-0.3-1.7-0.8-2.2s-1.4-0.7-2.6-0.7h-2.4c-0.4-1-0.4-1.9,0-2.7h2.4c1.8,0,2.7-0.8,2.7-2.5
			c0-0.9-0.3-1.6-0.8-2c-0.5-0.4-1.3-0.6-2.4-0.6c-0.6,0-1.2,0.1-1.7,0.2c-0.6,0.1-1,0.2-1.3,0.3l-0.4,0.2c-0.8-0.6-1.2-1.5-1.1-2.5
			c0.1-0.1,0.3-0.2,0.6-0.3c0.3-0.1,0.8-0.3,1.6-0.5c0.8-0.2,1.7-0.3,2.6-0.3c2,0,3.6,0.4,4.8,1.3c1.1,0.9,1.7,2.2,1.7,3.9
			c0,2.1-0.7,3.5-2.2,4.2c1.9,0.8,2.9,2.3,2.9,4.8c0,1.8-0.6,3.2-1.7,4.1s-2.9,1.4-5.5,1.4c-0.6,0-1.2,0-1.8-0.1
			c-0.6-0.1-1-0.2-1.4-0.2c-0.4-0.1-0.7-0.2-1-0.3c-0.3-0.1-0.5-0.2-0.6-0.3L389.4,113.8z"/>
		<path class="st5" d="M404.7,114.3v-3.2c0.4-0.1,0.9-0.2,1.8-0.2c0.3,0,0.7,0,1,0.1c0.3,0,0.5,0.1,0.6,0.1l0.2,0.1v3.2
			c-0.4,0.1-1,0.2-1.8,0.2c-0.4,0-0.7,0-1-0.1c-0.3,0-0.5-0.1-0.6-0.1L404.7,114.3z"/>
	</g>
	<g class="st1">
		<path class="st5" d="M411.1,97.1c0-0.3,0-0.6,0.1-0.8c0-0.3,0.1-0.4,0.1-0.5l0.1-0.2h11.7c0.2,0.5,0.2,1.2,0.2,2
			c0,0.9-0.2,1.7-0.5,2.5c-0.3,0.8-0.6,1.5-1,2.2c-0.4,0.6-0.8,1.3-1.3,2c-0.5,0.7-1,1.3-1.4,2.1c-0.5,0.7-0.9,1.5-1.3,2.2
			c-0.4,0.8-0.7,1.7-0.9,2.7s-0.4,2.1-0.4,3.3c-0.5,0.1-1,0.2-1.6,0.2c-0.6,0-1.2-0.1-1.7-0.2c0-1.2,0.1-2.4,0.3-3.5
			c0.2-1.1,0.5-2,0.8-2.9c0.3-0.8,0.7-1.6,1.1-2.3c0.4-0.7,0.8-1.3,1.3-1.9s0.9-1.2,1.3-1.7s0.8-1.1,1.1-1.7
			c0.3-0.6,0.6-1.2,0.7-1.8h-8.3C411.2,98.3,411.1,97.7,411.1,97.1z"/>
	</g>
	<g class="st1">
		<path class="st5" d="M426.4,96.8c0-1,0.2-1.7,0.6-2.1c0.4-0.5,1-0.7,1.7-0.7c0.8,0,1.3,0.2,1.7,0.7c0.4,0.4,0.6,1.2,0.6,2.2
			s-0.2,1.7-0.6,2.2s-1,0.7-1.7,0.7c-0.7,0-1.3-0.2-1.7-0.7C426.6,98.5,426.4,97.8,426.4,96.8z M427.9,96.8c0,0.7,0.1,1.1,0.2,1.3
			c0.1,0.2,0.3,0.3,0.6,0.3c0.2,0,0.3,0,0.5-0.1c0.1-0.1,0.2-0.2,0.3-0.5s0.1-0.6,0.1-1.1c0-0.7-0.1-1.1-0.2-1.3
			c-0.1-0.2-0.3-0.4-0.6-0.4c-0.3,0-0.5,0.1-0.6,0.4C427.9,95.7,427.9,96.1,427.9,96.8z M428.3,105.3l6.3-11.4
			c0.2-0.1,0.4-0.1,0.8-0.1c0.1,0,0.3,0,0.4,0c0.1,0,0.2,0,0.3,0.1l0.1,0l-6.3,11.4c-0.2,0.1-0.4,0.1-0.8,0.1c-0.1,0-0.3,0-0.4,0
			C428.5,105.4,428.4,105.3,428.3,105.3L428.3,105.3z M433.2,102.6c0-1,0.2-1.7,0.6-2.1c0.4-0.5,1-0.7,1.7-0.7s1.3,0.2,1.7,0.7
			s0.6,1.2,0.6,2.2s-0.2,1.7-0.6,2.2s-1,0.7-1.7,0.7c-0.8,0-1.3-0.2-1.7-0.7C433.4,104.3,433.2,103.6,433.2,102.6z M434.7,102.6
			c0,0.5,0,0.8,0.1,1.1c0.1,0.3,0.2,0.4,0.3,0.5s0.3,0.1,0.5,0.1c0.2,0,0.3,0,0.5-0.1s0.2-0.2,0.3-0.5c0.1-0.3,0.1-0.6,0.1-1.1
			c0-0.5,0-0.8-0.1-1.1c-0.1-0.3-0.2-0.4-0.3-0.5s-0.3-0.1-0.4-0.1c-0.3,0-0.5,0.1-0.6,0.4C434.8,101.5,434.7,101.9,434.7,102.6z"/>
	</g>
	<g class="st1">
		<path class="st3" d="M214.1,344.4c0-0.2,0-0.5,0-0.7c0-0.2,0.1-0.4,0.1-0.5l0-0.2h6.2c0.1,0.4,0.2,0.8,0.2,1.4c0,0.2,0,0.5,0,0.7
			c0,0.2-0.1,0.4-0.1,0.5l-0.1,0.2h-6.2C214.1,345.4,214.1,345,214.1,344.4z"/>
		<path class="st3" d="M223.9,343.1c0-3.4,0.6-5.8,1.8-7.4c1.2-1.6,3-2.4,5.3-2.4c2.3,0,4.1,0.8,5.3,2.4s1.8,4.1,1.8,7.4
			s-0.6,5.9-1.8,7.4s-3,2.4-5.3,2.4c-2.3,0-4.1-0.8-5.3-2.3C224.5,349,223.9,346.5,223.9,343.1z M227.9,340.2
			c-0.1,0.8-0.1,1.8-0.1,2.9s0,2.1,0.1,2.9s0.2,1.5,0.4,2c0.2,0.5,0.4,0.9,0.7,1.2c0.3,0.3,0.6,0.5,0.9,0.6c0.3,0.1,0.7,0.2,1.2,0.2
			c0.5,0,0.8-0.1,1.2-0.2c0.3-0.1,0.6-0.3,0.9-0.6s0.5-0.7,0.7-1.2s0.3-1.2,0.4-2c0.1-0.8,0.1-1.8,0.1-2.9c0-1.1,0-2.1-0.1-2.9
			c-0.1-0.8-0.2-1.5-0.4-2s-0.4-0.9-0.7-1.2s-0.6-0.5-0.9-0.6c-0.3-0.1-0.7-0.2-1.2-0.2c-0.4,0-0.8,0.1-1.2,0.2
			c-0.3,0.1-0.6,0.3-0.9,0.6c-0.3,0.3-0.5,0.7-0.7,1.2S228,339.4,227.9,340.2z"/>
		<path class="st3" d="M241,352.4v-3.2c0.4-0.1,0.9-0.2,1.8-0.2c0.3,0,0.7,0,1,0.1s0.5,0.1,0.6,0.1l0.2,0.1v3.2
			c-0.4,0.1-1,0.2-1.8,0.2c-0.4,0-0.7,0-1-0.1s-0.5-0.1-0.6-0.1L241,352.4z"/>
		<path class="st3" d="M245.6,337.3c1.2-0.3,2.1-0.7,3-1.3c0.8-0.6,1.6-1.3,2.2-2.2c0.4-0.2,0.9-0.3,1.7-0.3c0.3,0,0.7,0,1,0.1
			c0.3,0,0.5,0.1,0.6,0.1l0.2,0.1v18.5c-0.4,0.2-1,0.2-1.8,0.2c-0.3,0-0.6,0-1-0.1s-0.5-0.1-0.7-0.1l-0.2-0.1v-10.7
			c0-1.3,0-2.4,0.1-3.5c-1.2,1-2.6,1.6-4.4,2.1c-0.3-0.3-0.6-0.8-0.8-1.3C245.5,338.4,245.5,337.9,245.6,337.3z"/>
	</g>
	<g class="st1">
		<path class="st3" d="M259,334.8c0-1,0.2-1.7,0.6-2.1c0.4-0.5,1-0.7,1.7-0.7c0.7,0,1.3,0.2,1.7,0.7c0.4,0.4,0.6,1.2,0.6,2.2
			s-0.2,1.7-0.6,2.2c-0.4,0.4-1,0.7-1.7,0.7c-0.8,0-1.3-0.2-1.7-0.7C259.2,336.6,259,335.8,259,334.8z M260.5,334.8
			c0,0.7,0.1,1.1,0.2,1.3c0.1,0.2,0.3,0.3,0.6,0.3c0.2,0,0.3,0,0.4-0.1c0.1-0.1,0.2-0.2,0.3-0.5c0.1-0.3,0.1-0.6,0.1-1.1
			c0-0.7-0.1-1.1-0.2-1.3c-0.1-0.2-0.3-0.4-0.6-0.4c-0.3,0-0.5,0.1-0.6,0.4C260.6,333.7,260.5,334.2,260.5,334.8z M260.9,343.4
			l6.3-11.4c0.2-0.1,0.4-0.1,0.8-0.1c0.1,0,0.3,0,0.4,0c0.1,0,0.2,0,0.3,0.1l0.1,0l-6.3,11.4c-0.2,0.1-0.4,0.1-0.8,0.1
			c-0.1,0-0.3,0-0.4,0C261.1,343.4,261,343.4,260.9,343.4L260.9,343.4z M265.9,340.6c0-1,0.2-1.7,0.6-2.1c0.4-0.5,1-0.7,1.7-0.7
			c0.8,0,1.3,0.2,1.7,0.7s0.6,1.2,0.6,2.2s-0.2,1.7-0.6,2.2s-1,0.7-1.7,0.7c-0.8,0-1.3-0.2-1.7-0.7
			C266.1,342.3,265.9,341.6,265.9,340.6z M267.3,340.6c0,0.5,0,0.8,0.1,1.1c0.1,0.3,0.2,0.4,0.3,0.5c0.1,0.1,0.3,0.1,0.5,0.1
			c0.2,0,0.3,0,0.5-0.1c0.1-0.1,0.2-0.2,0.3-0.5c0.1-0.3,0.1-0.6,0.1-1.1c0-0.5,0-0.8-0.1-1.1c-0.1-0.3-0.2-0.4-0.3-0.5
			c-0.1-0.1-0.3-0.1-0.4-0.1c-0.3,0-0.5,0.1-0.6,0.4C267.4,339.5,267.3,340,267.3,340.6z"/>
	</g>
	<g>
		<g class="st1">
			<path class="st5" d="M41.7,349c0-0.2,0-0.5,0-0.7c0-0.2,0.1-0.4,0.1-0.5l0-0.2H48c0.1,0.4,0.2,0.8,0.2,1.4c0,0.2,0,0.5,0,0.7
				c0,0.2-0.1,0.4-0.1,0.5l-0.1,0.2h-6.2C41.7,350,41.7,349.5,41.7,349z"/>
			<path class="st5" d="M51.5,347.7c0-3.4,0.6-5.8,1.8-7.4c1.2-1.6,3-2.4,5.3-2.4c2.3,0,4.1,0.8,5.3,2.4s1.8,4.1,1.8,7.4
				s-0.6,5.9-1.8,7.4s-3,2.4-5.3,2.4c-2.3,0-4.1-0.8-5.3-2.3C52.1,353.6,51.5,351.1,51.5,347.7z M55.4,344.8
				c-0.1,0.8-0.1,1.8-0.1,2.9s0,2.1,0.1,2.9s0.2,1.5,0.4,2c0.2,0.5,0.4,0.9,0.7,1.2c0.3,0.3,0.6,0.5,0.9,0.6
				c0.3,0.1,0.7,0.2,1.2,0.2c0.5,0,0.8-0.1,1.2-0.2c0.3-0.1,0.6-0.3,0.9-0.6s0.5-0.7,0.7-1.2s0.3-1.2,0.4-2c0.1-0.8,0.1-1.8,0.1-2.9
				c0-1.1,0-2.1-0.1-2.9c-0.1-0.8-0.2-1.5-0.4-2s-0.4-0.9-0.7-1.2s-0.6-0.5-0.9-0.6c-0.3-0.1-0.7-0.2-1.2-0.2
				c-0.4,0-0.8,0.1-1.2,0.2c-0.3,0.1-0.6,0.3-0.9,0.6c-0.3,0.3-0.5,0.7-0.7,1.2S55.5,344,55.4,344.8z"/>
			<path class="st5" d="M68.6,357v-3.2c0.4-0.1,0.9-0.2,1.8-0.2c0.3,0,0.7,0,1,0.1c0.3,0,0.5,0.1,0.6,0.1l0.2,0.1v3.2
				c-0.4,0.1-1,0.2-1.8,0.2c-0.4,0-0.7,0-1-0.1c-0.3,0-0.5-0.1-0.6-0.1L68.6,357z"/>
			<path class="st5" d="M74.2,339.7c0-0.3,0-0.6,0.1-0.8c0-0.3,0.1-0.4,0.1-0.5l0.1-0.2h11.7c0.2,0.5,0.2,1.2,0.2,2
				c0,0.9-0.2,1.7-0.5,2.5c-0.3,0.8-0.6,1.5-1,2.2c-0.4,0.6-0.8,1.3-1.3,2s-1,1.3-1.4,2.1s-0.9,1.5-1.3,2.2s-0.7,1.7-0.9,2.7
				c-0.2,1-0.4,2.1-0.4,3.3c-0.5,0.1-1,0.2-1.6,0.2c-0.6,0-1.2-0.1-1.7-0.2c0-1.2,0.1-2.4,0.3-3.5s0.5-2,0.8-2.9s0.7-1.6,1.1-2.3
				c0.4-0.7,0.8-1.3,1.3-1.9s0.9-1.2,1.3-1.7s0.8-1.1,1.1-1.7c0.3-0.6,0.6-1.2,0.7-1.8h-8.3C74.2,340.9,74.2,340.4,74.2,339.7z"/>
			<path class="st5" d="M88.4,356.5c0-0.5,0-1,0.2-1.4c0.2-0.5,0.4-0.9,0.7-1.2c0.1,0,0.3,0.1,0.5,0.2c0.2,0.1,0.6,0.2,1.3,0.3
				c0.6,0.1,1.3,0.2,1.9,0.2c1.3,0,2.3-0.2,3-0.7s1-1.2,1-2.2c0-0.6-0.1-1.1-0.2-1.5s-0.4-0.7-0.8-0.9s-0.8-0.4-1.3-0.4
				c-0.5-0.1-1.1-0.1-1.9-0.1c-1.2,0-2.2,0-3.2,0.1v-10.5h10.2c0.2,0.5,0.3,1,0.3,1.6s-0.1,1-0.3,1.5H93v4.5c0.2,0,0.6,0,1,0
				c2.1,0,3.7,0.5,4.8,1.4s1.6,2.4,1.6,4.4c0,1.9-0.6,3.4-1.8,4.4c-1.2,1-3,1.5-5.5,1.5c-0.6,0-1.3,0-1.8-0.1
				c-0.6-0.1-1-0.2-1.4-0.2s-0.7-0.2-0.9-0.3s-0.4-0.2-0.6-0.3L88.4,356.5z"/>
			<path class="st5" d="M102.9,342.7c0-1.7,0.3-2.9,1-3.7c0.7-0.8,1.6-1.2,2.9-1.2s2.3,0.4,2.9,1.1c0.7,0.8,1,2,1,3.7
				s-0.3,2.9-1,3.7c-0.7,0.8-1.7,1.1-2.9,1.1s-2.3-0.4-2.9-1.1C103.2,345.6,102.9,344.4,102.9,342.7z M105.4,342.7
				c0,1.2,0.1,1.9,0.3,2.3s0.6,0.6,1.1,0.6c0.3,0,0.6-0.1,0.8-0.2c0.2-0.1,0.3-0.4,0.5-0.8c0.1-0.4,0.2-1,0.2-1.8
				c0-1.1-0.1-1.9-0.3-2.3c-0.2-0.4-0.6-0.6-1.1-0.6c-0.5,0-0.9,0.2-1.1,0.6C105.5,340.8,105.4,341.6,105.4,342.7z M106,357.3
				l10.8-19.5c0.3-0.1,0.7-0.2,1.3-0.2c0.3,0,0.5,0,0.7,0.1s0.4,0.1,0.5,0.1l0.1,0l-10.8,19.5c-0.3,0.1-0.7,0.2-1.3,0.2
				c-0.3,0-0.5,0-0.7,0s-0.4-0.1-0.5-0.1L106,357.3z M114.6,352.6c0-1.7,0.3-2.9,1-3.7c0.7-0.8,1.6-1.2,2.9-1.2s2.3,0.4,2.9,1.1
				s1,2,1,3.7s-0.3,2.9-1,3.7s-1.6,1.1-2.9,1.1c-1.3,0-2.3-0.4-2.9-1.1C114.9,355.6,114.6,354.3,114.6,352.6z M117.1,352.6
				c0,0.8,0.1,1.4,0.2,1.8c0.1,0.4,0.3,0.7,0.5,0.8s0.5,0.2,0.8,0.2c0.3,0,0.6-0.1,0.8-0.2c0.2-0.1,0.3-0.4,0.5-0.8
				c0.1-0.4,0.2-1,0.2-1.8c0-0.8-0.1-1.4-0.2-1.8c-0.1-0.4-0.3-0.7-0.5-0.9s-0.4-0.2-0.8-0.2c-0.5,0-0.9,0.2-1.1,0.6
				C117.2,350.7,117.1,351.5,117.1,352.6z"/>
		</g>
	</g>
	<g class="st1">
		<path class="st4" d="M26.4,209.7l6.3-18.5c0.6-0.2,1.3-0.2,2.1-0.2c0.4,0,0.7,0,1.1,0.1c0.3,0,0.6,0.1,0.7,0.1l0.2,0.1l6.3,18.5
			c-0.4,0.2-1,0.2-1.8,0.2c-0.3,0-0.6,0-0.9-0.1c-0.3,0-0.5-0.1-0.6-0.1l-0.2-0.1l-1.4-4.2H31l-1.4,4.2c-0.4,0.2-0.9,0.2-1.6,0.2
			c-0.3,0-0.6,0-0.8-0.1c-0.3,0-0.4-0.1-0.6-0.1L26.4,209.7z M32,202.8h5.4l-1.8-5.4c-0.2-0.5-0.3-1-0.5-1.5s-0.2-0.9-0.3-1.1
			l-0.1-0.4h-0.1c-0.2,0.9-0.4,1.9-0.8,2.9L32,202.8z"/>
		<path class="st4" d="M45.3,209.7v-13.5c0.3-0.1,0.9-0.2,1.7-0.2c0.3,0,0.6,0,0.9,0.1c0.3,0,0.5,0.1,0.6,0.1l0.2,0.1v0.8
			c0.9-0.9,2.1-1.3,3.6-1.3c1.3,0,2.3,0.4,3.1,1.1c0.7,0.7,1.1,1.7,1.1,2.9v9.9c-0.4,0.1-0.9,0.2-1.7,0.2c-0.3,0-0.7,0-0.9-0.1
			s-0.5-0.1-0.6-0.1l-0.2-0.1v-9.3c0-0.6-0.2-1.1-0.5-1.4c-0.3-0.3-0.9-0.5-1.6-0.5c-0.9,0-1.6,0.3-2.3,1v10.2
			c-0.4,0.1-0.9,0.2-1.7,0.2c-0.3,0-0.7,0-0.9-0.1s-0.5-0.1-0.6-0.1L45.3,209.7z"/>
		<path class="st4" d="M59.7,209.7v-13.5c0.3-0.1,0.9-0.2,1.7-0.2c0.3,0,0.6,0,0.9,0.1c0.3,0,0.5,0.1,0.6,0.1l0.2,0.1v0.8
			c0.9-0.9,2.1-1.3,3.6-1.3c1.3,0,2.3,0.4,3.1,1.1c0.7,0.7,1.1,1.7,1.1,2.9v9.9c-0.4,0.1-0.9,0.2-1.7,0.2c-0.3,0-0.7,0-0.9-0.1
			s-0.5-0.1-0.6-0.1l-0.2-0.1v-9.3c0-0.6-0.2-1.1-0.5-1.4c-0.3-0.3-0.9-0.5-1.6-0.5c-0.9,0-1.6,0.3-2.3,1v10.2
			c-0.4,0.1-0.9,0.2-1.7,0.2c-0.3,0-0.7,0-0.9-0.1s-0.5-0.1-0.6-0.1L59.7,209.7z"/>
		<path class="st4" d="M74,206.2v-9.9c0.4-0.1,0.9-0.2,1.7-0.2c0.3,0,0.7,0,0.9,0.1s0.5,0.1,0.6,0.1l0.2,0.1v9.3
			c0,0.6,0.2,1.1,0.5,1.4c0.3,0.3,0.9,0.5,1.6,0.5c0.9,0,1.7-0.3,2.3-1v-10.2c0.4-0.1,0.9-0.2,1.7-0.2c0.3,0,0.7,0,0.9,0.1
			s0.5,0.1,0.6,0.1l0.2,0.1v13.5c-0.3,0.1-0.9,0.2-1.7,0.2c-0.3,0-0.6,0-0.9-0.1c-0.3,0-0.5-0.1-0.6-0.1l-0.2-0.1v-0.8
			c-0.9,0.9-2.1,1.3-3.6,1.3c-1.3,0-2.4-0.4-3.1-1.1C74.4,208.4,74,207.4,74,206.2z"/>
		<path class="st4" d="M87.8,205.7c0-1.5,0.4-2.5,1.3-3.2c0.9-0.7,2.1-1,3.8-1c0.9,0,1.8,0,2.6,0.1V201c0-1.6-0.8-2.4-2.4-2.4
			c-0.5,0-1,0.1-1.6,0.2c-0.6,0.1-1,0.2-1.3,0.3l-0.4,0.2c-0.3-0.2-0.5-0.5-0.7-1c-0.1-0.2-0.2-0.4-0.2-0.7c0-0.2,0-0.4,0-0.5l0-0.2
			c0.1,0,0.1-0.1,0.2-0.1c0.1,0,0.3-0.1,0.6-0.3c0.3-0.1,0.7-0.2,1-0.3c0.3-0.1,0.8-0.2,1.3-0.3c0.5-0.1,1-0.1,1.6-0.1
			c1.9,0,3.2,0.4,4.1,1.2c0.8,0.8,1.2,2,1.2,3.7v9c-0.2,0.1-0.7,0.2-1.3,0.2c-0.2,0-0.5,0-0.7-0.1c-0.2,0-0.4-0.1-0.5-0.1l-0.2-0.1
			l-0.5-1.4c-0.6,1.3-1.9,1.9-3.9,1.9c-1.3,0-2.3-0.4-3-1.1C88.1,208.3,87.8,207.2,87.8,205.7z M91.1,205.6c0,0.7,0.2,1.2,0.5,1.5
			s0.8,0.5,1.4,0.5c0.4,0,0.8-0.1,1.2-0.3c0.3-0.2,0.6-0.4,0.8-0.7c0.2-0.3,0.3-0.6,0.4-1c0.1-0.3,0.1-0.7,0.1-1.1v-0.8
			c-0.9-0.1-1.6-0.1-2.2-0.1C91.8,203.7,91.1,204.3,91.1,205.6z"/>
		<path class="st4" d="M102.2,209.7v-19.4c0.3-0.1,0.9-0.2,1.7-0.2c0.3,0,0.6,0,0.9,0.1c0.3,0,0.5,0.1,0.6,0.1l0.2,0.1v19.4
			c-0.4,0.1-0.9,0.2-1.7,0.2c-0.3,0-0.7,0-0.9-0.1c-0.3,0-0.5-0.1-0.6-0.1L102.2,209.7z"/>
		<path class="st4" d="M116.4,207.7c-1.4-1.7-2-4.1-2-7.3s0.7-5.6,2-7.3c1.4-1.7,3.4-2.5,6-2.5c0.9,0,1.7,0.1,2.4,0.2
			c0.8,0.2,1.3,0.3,1.6,0.5l0.5,0.2c0,0.1,0,0.1,0,0.2c0,0.8-0.3,1.6-1,2.3c-1-0.4-2.1-0.6-3.2-0.6c-0.7,0-1.4,0.1-1.9,0.3
			c-0.6,0.2-1.1,0.6-1.5,1.1c-0.4,0.5-0.8,1.2-1,2.2c-0.2,0.9-0.4,2.1-0.4,3.4c0,1.1,0.1,2,0.2,2.8c0.2,0.8,0.4,1.5,0.7,2
			c0.3,0.5,0.6,0.9,1,1.2c0.4,0.3,0.9,0.5,1.3,0.6c0.5,0.1,1,0.2,1.6,0.2c0.6,0,1.1,0,1.7-0.1c0.6-0.1,1-0.2,1.3-0.3l0.4-0.1
			c0.7,0.6,1,1.5,1,2.5c-0.1,0-0.1,0.1-0.2,0.1s-0.3,0.1-0.6,0.2s-0.6,0.2-1,0.3c-0.3,0.1-0.8,0.2-1.3,0.2c-0.5,0.1-1.1,0.1-1.7,0.1
			C119.8,210.2,117.8,209.4,116.4,207.7z"/>
		<path class="st4" d="M129.6,209.7v-19.4c0.3-0.1,0.9-0.2,1.7-0.2c0.3,0,0.6,0,0.9,0.1c0.3,0,0.5,0.1,0.6,0.1l0.2,0.1v6.7
			c0.9-0.9,2.1-1.3,3.6-1.3c1.3,0,2.3,0.4,3.1,1.1c0.7,0.7,1.1,1.7,1.1,2.9v9.9c-0.4,0.1-0.9,0.2-1.7,0.2c-0.3,0-0.7,0-0.9-0.1
			s-0.5-0.1-0.6-0.1l-0.2-0.1v-9.3c0-0.6-0.2-1.1-0.5-1.4c-0.3-0.3-0.9-0.5-1.6-0.5c-0.9,0-1.6,0.3-2.3,1v10.2
			c-0.4,0.1-0.9,0.2-1.7,0.2c-0.3,0-0.7,0-0.9-0.1s-0.5-0.1-0.6-0.1L129.6,209.7z"/>
		<path class="st4" d="M143.3,205.7c0-1.5,0.4-2.5,1.3-3.2c0.9-0.7,2.1-1,3.8-1c0.9,0,1.8,0,2.6,0.1V201c0-1.6-0.8-2.4-2.4-2.4
			c-0.5,0-1,0.1-1.6,0.2c-0.6,0.1-1,0.2-1.3,0.3l-0.4,0.2c-0.3-0.2-0.5-0.5-0.7-1c-0.1-0.2-0.2-0.4-0.2-0.7c0-0.2,0-0.4,0-0.5l0-0.2
			c0.1,0,0.1-0.1,0.2-0.1c0.1,0,0.3-0.1,0.6-0.3c0.3-0.1,0.7-0.2,1-0.3c0.3-0.1,0.8-0.2,1.3-0.3c0.5-0.1,1-0.1,1.6-0.1
			c1.9,0,3.2,0.4,4.1,1.2c0.8,0.8,1.2,2,1.2,3.7v9c-0.2,0.1-0.7,0.2-1.3,0.2c-0.2,0-0.5,0-0.7-0.1c-0.2,0-0.4-0.1-0.5-0.1l-0.2-0.1
			l-0.5-1.4c-0.6,1.3-1.9,1.9-3.9,1.9c-1.3,0-2.3-0.4-3-1.1C143.6,208.3,143.3,207.2,143.3,205.7z M146.6,205.6
			c0,0.7,0.2,1.2,0.5,1.5s0.8,0.5,1.4,0.5c0.4,0,0.8-0.1,1.2-0.3c0.3-0.2,0.6-0.4,0.8-0.7c0.2-0.3,0.3-0.6,0.4-1
			c0.1-0.3,0.1-0.7,0.1-1.1v-0.8c-0.9-0.1-1.6-0.1-2.2-0.1C147.4,203.7,146.6,204.3,146.6,205.6z"/>
		<path class="st4" d="M157.7,209.7v-13.5c0.3-0.1,0.9-0.2,1.7-0.2c0.3,0,0.6,0,0.9,0.1c0.3,0,0.5,0.1,0.6,0.1l0.2,0.1v0.8
			c0.9-0.9,2.1-1.3,3.6-1.3c1.3,0,2.3,0.4,3.1,1.1c0.7,0.7,1.1,1.7,1.1,2.9v9.9c-0.4,0.1-0.9,0.2-1.7,0.2c-0.3,0-0.7,0-0.9-0.1
			s-0.5-0.1-0.6-0.1l-0.2-0.1v-9.3c0-0.6-0.2-1.1-0.5-1.4c-0.3-0.3-0.9-0.5-1.6-0.5c-0.9,0-1.6,0.3-2.3,1v10.2
			c-0.4,0.1-0.9,0.2-1.7,0.2c-0.3,0-0.7,0-0.9-0.1s-0.5-0.1-0.6-0.1L157.7,209.7z"/>
		<path class="st4" d="M171,213c0-1.4,0.8-2.6,2.3-3.5c-0.5-0.4-0.7-0.9-0.7-1.5c0-1,0.5-2,1.5-2.9c-1.6-0.8-2.4-2.2-2.4-4.3
			c0-1.5,0.5-2.7,1.4-3.6c0.9-0.9,2.2-1.3,4-1.3c1.2,0,2.2,0.2,3,0.6l3.8-0.6c0.1,0.3,0.2,0.7,0.2,1.3s-0.1,0.9-0.2,1.3l-2-0.3
			c0.4,0.7,0.6,1.5,0.6,2.6c0,1.5-0.5,2.7-1.4,3.6c-0.9,0.9-2.2,1.3-4,1.3c-0.4,0-0.8,0-1,0c-0.2,0.3-0.3,0.6-0.3,0.9
			c0,0.1,0,0.2,0,0.2c0.1,0.3,0.2,0.5,0.5,0.6c0.3,0.2,0.6,0.3,1,0.3c0.4,0.1,0.8,0.1,1.3,0.2s1,0.1,1.4,0.2c0.5,0.1,1,0.2,1.4,0.4
			c0.5,0.2,0.9,0.4,1.2,0.7c0.3,0.3,0.6,0.6,0.8,1.1c0.2,0.5,0.3,1.1,0.3,1.7c0,1.4-0.6,2.5-1.9,3.4s-2.9,1.3-5,1.3
			c-1.9,0-3.4-0.3-4.3-1C171.4,214.9,171,214.1,171,213z M174.1,212.3c0,0.6,0.2,1,0.7,1.4c0.5,0.4,1.1,0.5,2.1,0.5
			c1.2,0,2.1-0.2,2.8-0.5c0.6-0.4,0.9-0.8,0.9-1.4c0-0.3-0.1-0.6-0.3-0.8c-0.2-0.2-0.5-0.3-1-0.4c-0.4-0.1-0.9-0.1-1.3-0.2
			c-0.4-0.1-0.9-0.2-1.5-0.2c-0.6-0.1-1.1-0.2-1.5-0.3C174.4,210.9,174.1,211.5,174.1,212.3z M174.7,200.7c0,0.9,0.2,1.5,0.6,1.9
			c0.4,0.4,0.9,0.6,1.6,0.6c0.7,0,1.2-0.2,1.6-0.6s0.6-1.1,0.6-1.9s-0.2-1.5-0.6-1.9c-0.4-0.4-0.9-0.6-1.6-0.6
			c-0.7,0-1.2,0.2-1.6,0.6C174.9,199.2,174.7,199.8,174.7,200.7z"/>
		<path class="st4" d="M185.5,202.9c0-2.4,0.5-4.2,1.6-5.4c1.1-1.2,2.5-1.8,4.4-1.8c1.7,0,3,0.5,4,1.4c1,0.9,1.4,2.3,1.4,4.1
			c0,0.5,0,1-0.1,1.4c0,0.5-0.1,0.8-0.1,1l-0.1,0.3h-7.8c0.1,1.3,0.4,2.2,1,2.6s1.3,0.7,2.3,0.7c0.5,0,1-0.1,1.5-0.2
			s0.9-0.2,1.1-0.3l0.4-0.2c0.3,0.3,0.5,0.6,0.7,1s0.3,0.9,0.3,1.3c0,0-0.1,0.1-0.2,0.1c-0.1,0.1-0.3,0.1-0.6,0.3
			c-0.3,0.1-0.6,0.2-0.9,0.3c-0.3,0.1-0.7,0.2-1.3,0.3s-1,0.1-1.6,0.1c-2.1,0-3.7-0.6-4.7-1.8C186,207.2,185.5,205.4,185.5,202.9z
			 M188.9,201.7h4.7c0-0.4,0.1-0.7,0.1-0.9c0-1.6-0.7-2.5-2.1-2.5C190,198.4,189.1,199.5,188.9,201.7z"/>
		<path class="st4" d="M205.3,193.8v-3c0.3-0.1,0.9-0.2,1.7-0.2c0.3,0,0.6,0,0.9,0.1c0.3,0,0.5,0.1,0.6,0.1l0.2,0.1v3
			c-0.4,0.1-0.9,0.2-1.7,0.2c-0.3,0-0.7,0-0.9-0.1c-0.3,0-0.5-0.1-0.6-0.1L205.3,193.8z M205.3,209.7v-13.5c0.3-0.1,0.9-0.2,1.7-0.2
			c0.3,0,0.6,0,0.9,0.1c0.3,0,0.5,0.1,0.6,0.1l0.2,0.1v13.5c-0.4,0.1-0.9,0.2-1.7,0.2c-0.3,0-0.7,0-0.9-0.1c-0.3,0-0.5-0.1-0.6-0.1
			L205.3,209.7z"/>
		<path class="st4" d="M212.1,209.7v-13.5c0.3-0.1,0.9-0.2,1.7-0.2c0.3,0,0.6,0,0.9,0.1c0.3,0,0.5,0.1,0.6,0.1l0.2,0.1v0.8
			c0.9-0.9,2.1-1.3,3.6-1.3c1.3,0,2.3,0.4,3.1,1.1c0.7,0.7,1.1,1.7,1.1,2.9v9.9c-0.4,0.1-0.9,0.2-1.7,0.2c-0.3,0-0.7,0-0.9-0.1
			s-0.5-0.1-0.6-0.1l-0.2-0.1v-9.3c0-0.6-0.2-1.1-0.5-1.4c-0.3-0.3-0.9-0.5-1.6-0.5c-0.9,0-1.6,0.3-2.3,1v10.2
			c-0.4,0.1-0.9,0.2-1.7,0.2c-0.3,0-0.7,0-0.9-0.1s-0.5-0.1-0.6-0.1L212.1,209.7z"/>
	</g>
	<g class="st1">
		<path class="st4" d="M28.2,241.7v-19h7.4c1.6,0,2.8,0.5,3.8,1.5c0.9,1,1.4,2.3,1.4,3.8c0,0.8-0.2,1.6-0.5,2.2
			c-0.3,0.7-0.8,1.2-1.4,1.6c0.8,0.4,1.5,1,1.9,1.7c0.5,0.7,0.7,1.6,0.7,2.6c0,1.7-0.5,3-1.5,4c-1,1-2.4,1.5-4.1,1.5H28.2z
			 M31.5,230.7h3.3c0.8,0,1.4-0.2,1.9-0.7c0.4-0.5,0.6-1.1,0.6-1.9c0-0.8-0.2-1.5-0.6-2c-0.4-0.5-1-0.7-1.9-0.7h-3.3V230.7z
			 M31.5,239.1H35c1,0,1.7-0.3,2.1-0.8c0.5-0.5,0.7-1.2,0.7-2.1c0-1-0.2-1.7-0.7-2.2c-0.5-0.5-1.2-0.7-2.2-0.7h-3.5V239.1z"/>
		<path class="st4" d="M45.3,240.2c-1-1.2-1.6-3-1.6-5.5s0.5-4.3,1.6-5.5c1-1.2,2.5-1.7,4.5-1.7s3.4,0.6,4.5,1.7
			c1,1.1,1.6,3,1.6,5.5c0,2.5-0.5,4.3-1.5,5.5c-1,1.1-2.5,1.7-4.5,1.7S46.3,241.3,45.3,240.2z M47.3,232.4c-0.1,0.6-0.2,1.4-0.2,2.3
			c0,0.9,0.1,1.7,0.2,2.3c0.1,0.6,0.3,1.1,0.6,1.4s0.5,0.6,0.8,0.7c0.3,0.1,0.7,0.2,1.1,0.2s0.8-0.1,1.1-0.2
			c0.3-0.1,0.6-0.4,0.8-0.7c0.2-0.3,0.4-0.8,0.5-1.4c0.1-0.6,0.2-1.4,0.2-2.3s-0.1-1.7-0.2-2.3s-0.3-1.1-0.5-1.4
			c-0.2-0.3-0.5-0.6-0.8-0.7c-0.3-0.1-0.7-0.2-1.1-0.2s-0.8,0.1-1.1,0.2c-0.3,0.1-0.6,0.4-0.8,0.7S47.4,231.8,47.3,232.4z"/>
		<path class="st4" d="M58.7,241.4V228c0.3-0.1,0.9-0.2,1.7-0.2c0.3,0,0.6,0,0.9,0.1c0.3,0,0.5,0.1,0.6,0.1l0.2,0.1v0.8
			c0.9-0.9,2.1-1.3,3.6-1.3c1.3,0,2.3,0.4,3.1,1.1c0.7,0.7,1.1,1.7,1.1,2.9v9.9c-0.4,0.1-0.9,0.2-1.7,0.2c-0.3,0-0.7,0-0.9-0.1
			s-0.5-0.1-0.6-0.1l-0.2-0.1v-9.3c0-0.6-0.2-1.1-0.5-1.4c-0.3-0.3-0.9-0.5-1.6-0.5c-0.9,0-1.6,0.3-2.3,1v10.2
			c-0.4,0.1-0.9,0.2-1.7,0.2c-0.3,0-0.7,0-0.9-0.1s-0.5-0.1-0.6-0.1L58.7,241.4z"/>
		<path class="st4" d="M72.6,234.6c0-2.4,0.5-4.2,1.6-5.4c1.1-1.2,2.5-1.8,4.4-1.8c1.7,0,3,0.5,4,1.4c1,0.9,1.4,2.3,1.4,4.1
			c0,0.5,0,1-0.1,1.4c0,0.5-0.1,0.8-0.1,1l-0.1,0.3H76c0.1,1.3,0.4,2.2,1,2.6s1.3,0.7,2.3,0.7c0.5,0,1-0.1,1.5-0.2s0.9-0.2,1.1-0.3
			l0.4-0.2c0.3,0.3,0.5,0.6,0.7,1s0.3,0.9,0.3,1.3c0,0-0.1,0.1-0.2,0.1c-0.1,0.1-0.3,0.1-0.6,0.3c-0.3,0.1-0.6,0.2-0.9,0.3
			c-0.3,0.1-0.7,0.2-1.3,0.3s-1,0.1-1.6,0.1c-2.1,0-3.7-0.6-4.7-1.8C73.1,238.9,72.6,237.1,72.6,234.6z M76,233.4h4.7
			c0-0.4,0.1-0.7,0.1-0.9c0-1.6-0.7-2.5-2.1-2.5C77.1,230.1,76.2,231.2,76,233.4z"/>
		<path class="st4" d="M92.9,241.4v-18.5c0.6-0.2,1.2-0.2,2.1-0.2c0.3,0,0.6,0,1,0.1c0.3,0,0.6,0.1,0.8,0.1l0.3,0.1l2.4,4.8
			c1.2,2.5,2,4.2,2.3,5.2h0.1c0.3-1,0.7-1.9,1.1-2.7c1-1.9,2.1-4.4,3.4-7.2c0.7-0.2,1.5-0.2,2.2-0.2c0.4,0,0.7,0,1.1,0.1
			c0.4,0,0.6,0.1,0.8,0.1l0.3,0.1v18.5c-0.4,0.2-0.9,0.2-1.7,0.2c-0.3,0-0.6,0-0.9-0.1c-0.3,0-0.5-0.1-0.6-0.1l-0.2-0.1v-5.8
			c0-0.4,0-1.1,0-2.2c0-1.1,0-1.9,0-2.5c0-0.6,0-1.3,0.1-2.1s0.1-1.4,0.2-2h-0.2c-0.1,0.4-0.3,0.9-0.5,1.5s-0.5,1.1-0.7,1.5
			c-0.2,0.4-0.5,1.1-0.9,1.9c-0.4,0.9-0.7,1.4-0.8,1.7l-1.9,3.9c-0.3,0.1-0.6,0.1-1,0.1c-0.2,0-0.3,0-0.5,0s-0.2,0-0.3-0.1l-0.1,0
			c-0.1-0.3-0.4-0.8-0.8-1.7c-0.4-0.9-0.8-1.5-1-2c-0.6-1.1-1-2-1.2-2.5c-0.3-0.5-0.6-1.3-1-2.2c-0.4-0.9-0.6-1.6-0.8-2.1h-0.2
			c0.1,0.3,0.1,0.7,0.2,1.1c0,0.4,0.1,0.8,0.1,1.2c0,0.4,0,0.9,0,1.5c0,0.6,0,1.1,0,1.4c0,0.2,0,0.4,0,0.6c0,0.3,0,0.6,0,0.9
			c0,0.7,0,1.2,0,1.4v6.4c-0.4,0.2-0.9,0.2-1.6,0.2c-0.3,0-0.5,0-0.8-0.1c-0.3,0-0.4-0.1-0.6-0.1L92.9,241.4z"/>
		<path class="st4" d="M114.3,225.5v-3c0.3-0.1,0.9-0.2,1.7-0.2c0.3,0,0.6,0,0.9,0.1c0.3,0,0.5,0.1,0.6,0.1l0.2,0.1v3
			c-0.4,0.1-0.9,0.2-1.7,0.2c-0.3,0-0.7,0-0.9-0.1c-0.3,0-0.5-0.1-0.6-0.1L114.3,225.5z M114.3,241.4V228c0.3-0.1,0.9-0.2,1.7-0.2
			c0.3,0,0.6,0,0.9,0.1c0.3,0,0.5,0.1,0.6,0.1l0.2,0.1v13.5c-0.4,0.1-0.9,0.2-1.7,0.2c-0.3,0-0.7,0-0.9-0.1c-0.3,0-0.5-0.1-0.6-0.1
			L114.3,241.4z"/>
		<path class="st4" d="M121.1,241.4V228c0.3-0.1,0.9-0.2,1.7-0.2c0.3,0,0.6,0,0.9,0.1c0.3,0,0.5,0.1,0.6,0.1l0.2,0.1v0.8
			c0.9-0.9,2.1-1.3,3.6-1.3c1.3,0,2.3,0.4,3.1,1.1c0.7,0.7,1.1,1.7,1.1,2.9v9.9c-0.4,0.1-0.9,0.2-1.7,0.2c-0.3,0-0.7,0-0.9-0.1
			s-0.5-0.1-0.6-0.1l-0.2-0.1v-9.3c0-0.6-0.2-1.1-0.5-1.4c-0.3-0.3-0.9-0.5-1.6-0.5c-0.9,0-1.6,0.3-2.3,1v10.2
			c-0.4,0.1-0.9,0.2-1.7,0.2c-0.3,0-0.7,0-0.9-0.1s-0.5-0.1-0.6-0.1L121.1,241.4z"/>
		<path class="st4" d="M135,234.6c0-2.4,0.5-4.2,1.6-5.4c1.1-1.2,2.5-1.8,4.4-1.8c1.7,0,3,0.5,4,1.4c1,0.9,1.4,2.3,1.4,4.1
			c0,0.5,0,1-0.1,1.4c0,0.5-0.1,0.8-0.1,1l-0.1,0.3h-7.8c0.1,1.3,0.4,2.2,1,2.6s1.3,0.7,2.3,0.7c0.5,0,1-0.1,1.5-0.2
			s0.9-0.2,1.1-0.3l0.4-0.2c0.3,0.3,0.5,0.6,0.7,1s0.3,0.9,0.3,1.3c0,0-0.1,0.1-0.2,0.1c-0.1,0.1-0.3,0.1-0.6,0.3
			c-0.3,0.1-0.6,0.2-0.9,0.3c-0.3,0.1-0.7,0.2-1.3,0.3s-1,0.1-1.6,0.1c-2.1,0-3.7-0.6-4.7-1.8C135.5,238.9,135,237.1,135,234.6z
			 M138.4,233.4h4.7c0-0.4,0.1-0.7,0.1-0.9c0-1.6-0.7-2.5-2.1-2.5C139.4,230.1,138.6,231.2,138.4,233.4z"/>
		<path class="st4" d="M149.1,241.4V228c0.3-0.1,0.9-0.2,1.7-0.2c0.3,0,0.6,0,0.9,0.1c0.3,0,0.5,0.1,0.6,0.1l0.2,0.1v1.5
			c1-1.3,1.9-1.9,2.9-1.9c0.8,0,1.6,0.2,2.3,0.7c-0.1,1.1-0.6,2.1-1.4,2.8c-0.5-0.4-1-0.6-1.5-0.6c-0.9,0-1.6,0.5-2.3,1.4v9.6
			c-0.4,0.1-0.9,0.2-1.7,0.2c-0.3,0-0.7,0-0.9-0.1s-0.5-0.1-0.6-0.1L149.1,241.4z"/>
		<path class="st4" d="M158.6,237.4c0-1.5,0.4-2.5,1.3-3.2c0.9-0.7,2.1-1,3.8-1c0.9,0,1.8,0,2.6,0.1v-0.6c0-1.6-0.8-2.4-2.4-2.4
			c-0.5,0-1,0.1-1.6,0.2c-0.6,0.1-1,0.2-1.3,0.3l-0.4,0.2c-0.3-0.2-0.5-0.5-0.7-1c-0.1-0.2-0.2-0.4-0.2-0.7c0-0.2,0-0.4,0-0.5l0-0.2
			c0.1,0,0.1-0.1,0.2-0.1c0.1,0,0.3-0.1,0.6-0.3c0.3-0.1,0.7-0.2,1-0.3c0.3-0.1,0.8-0.2,1.3-0.3c0.5-0.1,1-0.1,1.6-0.1
			c1.9,0,3.2,0.4,4.1,1.2c0.8,0.8,1.2,2,1.2,3.7v9c-0.2,0.1-0.7,0.2-1.3,0.2c-0.2,0-0.5,0-0.7-0.1c-0.2,0-0.4-0.1-0.5-0.1l-0.2-0.1
			l-0.5-1.4c-0.6,1.3-1.9,1.9-3.9,1.9c-1.3,0-2.3-0.4-3-1.1C159,240,158.6,238.9,158.6,237.4z M162,237.3c0,0.7,0.2,1.2,0.5,1.5
			s0.8,0.5,1.4,0.5c0.4,0,0.8-0.1,1.2-0.3c0.3-0.2,0.6-0.4,0.8-0.7c0.2-0.3,0.3-0.6,0.4-1c0.1-0.3,0.1-0.7,0.1-1.1v-0.8
			c-0.9-0.1-1.6-0.1-2.2-0.1C162.7,235.4,162,236,162,237.3z"/>
		<path class="st4" d="M173.1,241.4v-19.4c0.3-0.1,0.9-0.2,1.7-0.2c0.3,0,0.6,0,0.9,0.1c0.3,0,0.5,0.1,0.6,0.1l0.2,0.1v19.4
			c-0.4,0.1-0.9,0.2-1.7,0.2c-0.3,0-0.7,0-0.9-0.1c-0.3,0-0.5-0.1-0.6-0.1L173.1,241.4z"/>
		<path class="st4" d="M186.1,241.7v-19h6.2c5.2,0,7.8,3.2,7.8,9.5s-2.6,9.5-7.8,9.5H186.1z M189.5,238.9h2.6c0.5,0,1-0.1,1.4-0.2
			s0.8-0.3,1.2-0.6c0.4-0.3,0.7-0.7,1-1.2c0.2-0.5,0.4-1.1,0.6-1.9c0.1-0.8,0.2-1.7,0.2-2.8s-0.1-2-0.2-2.8
			c-0.1-0.8-0.3-1.5-0.6-1.9c-0.2-0.5-0.6-0.9-1-1.2c-0.4-0.3-0.8-0.5-1.2-0.6c-0.4-0.1-0.9-0.2-1.4-0.2h-2.6V238.9z"/>
		<path class="st4" d="M202.6,234.6c0-2.4,0.5-4.2,1.6-5.4c1.1-1.2,2.5-1.8,4.4-1.8c1.7,0,3,0.5,4,1.4c1,0.9,1.4,2.3,1.4,4.1
			c0,0.5,0,1-0.1,1.4c0,0.5-0.1,0.8-0.1,1l-0.1,0.3H206c0.1,1.3,0.4,2.2,1,2.6s1.3,0.7,2.3,0.7c0.5,0,1-0.1,1.5-0.2s0.9-0.2,1.1-0.3
			l0.4-0.2c0.3,0.3,0.5,0.6,0.7,1s0.3,0.9,0.3,1.3c0,0-0.1,0.1-0.2,0.1c-0.1,0.1-0.3,0.1-0.6,0.3c-0.3,0.1-0.6,0.2-0.9,0.3
			c-0.3,0.1-0.7,0.2-1.3,0.3s-1,0.1-1.6,0.1c-2.1,0-3.7-0.6-4.7-1.8C203.1,238.9,202.6,237.1,202.6,234.6z M206,233.4h4.7
			c0-0.4,0.1-0.7,0.1-0.9c0-1.6-0.7-2.5-2.1-2.5C207.1,230.1,206.2,231.2,206,233.4z"/>
		<path class="st4" d="M216.8,241.4V228c0.3-0.1,0.9-0.2,1.7-0.2c0.3,0,0.6,0,0.9,0.1c0.3,0,0.5,0.1,0.6,0.1l0.2,0.1v0.8
			c0.9-0.9,2.1-1.3,3.6-1.3c1.3,0,2.3,0.4,3.1,1.1c0.7,0.7,1.1,1.7,1.1,2.9v9.9c-0.4,0.1-0.9,0.2-1.7,0.2c-0.3,0-0.7,0-0.9-0.1
			s-0.5-0.1-0.6-0.1l-0.2-0.1v-9.3c0-0.6-0.2-1.1-0.5-1.4c-0.3-0.3-0.9-0.5-1.6-0.5c-0.9,0-1.6,0.3-2.3,1v10.2
			c-0.4,0.1-0.9,0.2-1.7,0.2c-0.3,0-0.7,0-0.9-0.1s-0.5-0.1-0.6-0.1L216.8,241.4z"/>
		<path class="st4" d="M230.6,240.9c0-1.1,0.3-1.9,0.9-2.4c1.1,0.4,2.3,0.6,3.5,0.6c1.4,0,2.1-0.5,2.1-1.5c0-0.3-0.1-0.6-0.4-0.9
			c-0.3-0.2-0.5-0.4-0.8-0.5c-0.2-0.1-0.7-0.2-1.3-0.4c-0.1,0-0.2-0.1-0.3-0.1c-0.4-0.1-0.6-0.2-0.9-0.3c-0.2-0.1-0.5-0.2-0.8-0.4
			c-0.3-0.2-0.6-0.3-0.8-0.5c-0.2-0.2-0.4-0.4-0.6-0.7s-0.3-0.6-0.4-0.9c-0.1-0.4-0.1-0.8-0.1-1.2c0-1.3,0.4-2.4,1.3-3.1
			c0.9-0.8,2.1-1.2,3.8-1.2c0.8,0,1.6,0.1,2.2,0.2c0.7,0.1,1.1,0.3,1.3,0.4l0.3,0.2c0,1-0.3,1.8-0.9,2.4c-0.8-0.3-1.7-0.4-2.7-0.4
			c-1.5,0-2.3,0.5-2.3,1.5c0,0.2,0,0.3,0.1,0.5c0.1,0.2,0.2,0.3,0.3,0.4c0.1,0.1,0.3,0.2,0.6,0.3c0.2,0.1,0.5,0.2,0.7,0.2
			c0.2,0.1,0.5,0.1,0.8,0.2c0.3,0.1,0.6,0.2,0.8,0.3c0.5,0.2,0.8,0.3,1.2,0.5c0.3,0.2,0.7,0.4,1,0.7s0.6,0.7,0.7,1.1
			c0.2,0.5,0.3,1,0.3,1.6c0,1.4-0.4,2.5-1.3,3.2s-2.2,1.1-3.9,1.1c-0.5,0-1,0-1.5-0.1c-0.5-0.1-0.9-0.2-1.3-0.2
			c-0.3-0.1-0.6-0.2-0.9-0.3c-0.3-0.1-0.5-0.2-0.6-0.2L230.6,240.9z"/>
		<path class="st4" d="M243,225.5v-3c0.3-0.1,0.9-0.2,1.7-0.2c0.3,0,0.6,0,0.9,0.1c0.3,0,0.5,0.1,0.6,0.1l0.2,0.1v3
			c-0.4,0.1-0.9,0.2-1.7,0.2c-0.3,0-0.7,0-0.9-0.1s-0.5-0.1-0.6-0.1L243,225.5z M243,241.4V228c0.3-0.1,0.9-0.2,1.7-0.2
			c0.3,0,0.6,0,0.9,0.1s0.5,0.1,0.6,0.1l0.2,0.1v13.5c-0.4,0.1-0.9,0.2-1.7,0.2c-0.3,0-0.7,0-0.9-0.1s-0.5-0.1-0.6-0.1L243,241.4z"
			/>
		<path class="st4" d="M248.6,229.1c0-0.3,0-0.5,0-0.7c0-0.2,0.1-0.4,0.1-0.5l0-0.1h2v-2.2c0.8-0.4,1.7-0.7,2.7-0.7
			c0.2,0,0.4,0,0.6,0v2.8h3.1c0.1,0.3,0.2,0.7,0.2,1.3c0,0.2,0,0.4,0,0.7s-0.1,0.4-0.1,0.5l0,0.2h-3.1v6.1c0,1,0.2,1.8,0.6,2.1
			s1,0.6,1.9,0.6l0.9-0.1c0.2,0.4,0.2,0.9,0.2,1.4c0,0.2,0,0.4-0.1,0.6s-0.1,0.4-0.1,0.4l0,0.1c-0.5,0.2-1.2,0.2-1.9,0.2
			c-1.7,0-2.9-0.4-3.7-1.3c-0.8-0.9-1.2-2.2-1.2-3.9v-6.4h-2C248.7,230,248.6,229.6,248.6,229.1z"/>
		<path class="st4" d="M258.8,228c0.4-0.1,1-0.2,1.7-0.2c0.3,0,0.6,0,0.9,0.1c0.3,0,0.5,0.1,0.6,0.1l0.2,0.1l2.5,7.1
			c0.2,0.6,0.4,1.2,0.5,1.7s0.2,1,0.3,1.2l0.1,0.4h0.1c0.2-0.9,0.4-2,0.8-3.3l2.2-7.1c0.3-0.1,0.9-0.2,1.6-0.2c0.3,0,0.5,0,0.8-0.1
			c0.3-0.1,0.4-0.1,0.6-0.2l0.2-0.1l-4.8,15.7c-0.2,0.6-0.3,1.1-0.5,1.5c-0.2,0.4-0.3,0.8-0.5,1.3c-0.2,0.4-0.4,0.8-0.7,1
			c-0.2,0.3-0.5,0.5-0.8,0.7s-0.7,0.4-1.1,0.5c-0.4,0.1-0.9,0.1-1.5,0.1c-0.3,0-0.5,0-0.8-0.1c-0.3-0.1-0.4-0.1-0.5-0.2l-0.2-0.1
			c-0.2-0.4-0.2-0.8-0.2-1.2c0-0.2,0-0.4,0.1-0.6c0-0.2,0.1-0.4,0.1-0.5l0.1-0.2c0.4,0.1,0.8,0.1,1.2,0.1c0.3,0,0.5,0,0.7,0
			c0.2,0,0.3-0.1,0.5-0.2c0.2-0.1,0.4-0.3,0.5-0.5c0.1-0.2,0.3-0.5,0.4-0.8s0.3-0.8,0.5-1.3l0.3-1c-0.4,0-0.7-0.1-1-0.2L258.8,228z"
			/>
	</g>
	<line class="st6" x1="25.4" y1="313" x2="464.4" y2="313"/>
	<rect x="326.3" y="338" class="st0" width="151.6" height="76"/>
	<g class="st1">
		<path d="M337.1,353l4.8-14.2c0.4-0.1,1-0.2,1.6-0.2c0.3,0,0.6,0,0.8,0s0.5,0.1,0.6,0.1l0.2,0l4.8,14.2c-0.3,0.1-0.8,0.2-1.4,0.2
			c-0.3,0-0.5,0-0.7,0c-0.2,0-0.4-0.1-0.4-0.1l-0.1,0l-1.1-3.2h-5.5l-1.1,3.2c-0.3,0.1-0.7,0.2-1.3,0.2c-0.2,0-0.4,0-0.6,0
			c-0.2,0-0.3-0.1-0.4-0.1L337.1,353z M341.3,347.7h4.1l-1.4-4.1c-0.1-0.4-0.2-0.7-0.3-1.1c-0.1-0.4-0.2-0.7-0.2-0.9l-0.1-0.3h-0.1
			c-0.1,0.7-0.3,1.4-0.6,2.2L341.3,347.7z"/>
		<path d="M351.6,353v-14.9c0.3-0.1,0.7-0.2,1.3-0.2c0.2,0,0.5,0,0.7,0c0.2,0,0.4,0.1,0.5,0.1l0.1,0V353c-0.3,0.1-0.7,0.2-1.3,0.2
			c-0.3,0-0.5,0-0.7,0s-0.4-0.1-0.4-0.1L351.6,353z"/>
		<path d="M356,355.5c0-1.1,0.6-2,1.8-2.7c-0.4-0.3-0.6-0.7-0.6-1.2c0-0.8,0.4-1.5,1.1-2.3c-1.2-0.6-1.9-1.7-1.9-3.3
			c0-1.2,0.4-2.1,1.1-2.7c0.7-0.7,1.7-1,3-1c0.9,0,1.7,0.2,2.3,0.5l2.9-0.5c0.1,0.3,0.1,0.6,0.1,1s0,0.7-0.1,1l-1.6-0.2
			c0.3,0.5,0.4,1.2,0.4,2c0,1.2-0.3,2.1-1,2.7c-0.7,0.7-1.7,1-3,1c-0.3,0-0.6,0-0.7,0c-0.2,0.2-0.2,0.5-0.2,0.7c0,0.1,0,0.1,0,0.2
			c0,0.2,0.2,0.4,0.4,0.5c0.2,0.1,0.5,0.2,0.7,0.3c0.3,0,0.6,0.1,1,0.1s0.7,0.1,1.1,0.2c0.4,0.1,0.7,0.2,1.1,0.3
			c0.3,0.1,0.7,0.3,0.9,0.5c0.3,0.2,0.5,0.5,0.6,0.9c0.2,0.4,0.2,0.8,0.2,1.3c0,1.1-0.5,1.9-1.4,2.6s-2.2,1-3.9,1
			c-1.5,0-2.6-0.2-3.3-0.7S356,356.3,356,355.5z M358.4,355c0,0.4,0.2,0.8,0.5,1.1c0.3,0.3,0.9,0.4,1.6,0.4c0.9,0,1.6-0.1,2.1-0.4
			c0.5-0.3,0.7-0.6,0.7-1.1c0-0.2-0.1-0.4-0.2-0.6s-0.4-0.3-0.7-0.3c-0.3-0.1-0.7-0.1-1-0.2c-0.3-0.1-0.7-0.1-1.2-0.2
			c-0.4-0.1-0.8-0.1-1.1-0.2C358.6,353.9,358.4,354.4,358.4,355z M358.8,346.1c0,0.7,0.2,1.1,0.5,1.5c0.3,0.3,0.7,0.5,1.2,0.5
			c0.5,0,0.9-0.2,1.2-0.5c0.3-0.3,0.4-0.8,0.4-1.5c0-0.7-0.1-1.2-0.4-1.5c-0.3-0.3-0.7-0.5-1.2-0.5c-0.5,0-0.9,0.2-1.2,0.5
			C359,344.9,358.8,345.4,358.8,346.1z"/>
		<path d="M366.9,349.9c0-1.1,0.3-1.9,1-2.4c0.7-0.5,1.6-0.8,2.9-0.8c0.7,0,1.4,0,2,0.1v-0.4c0-1.2-0.6-1.8-1.8-1.8
			c-0.4,0-0.8,0-1.2,0.1c-0.4,0.1-0.8,0.2-1,0.2l-0.3,0.1c-0.2-0.1-0.4-0.4-0.6-0.8c-0.1-0.2-0.1-0.3-0.1-0.5c0-0.2,0-0.3,0-0.4
			l0-0.1c0,0,0.1,0,0.2-0.1c0.1,0,0.2-0.1,0.5-0.2c0.2-0.1,0.5-0.2,0.8-0.2s0.6-0.1,1-0.2c0.4-0.1,0.8-0.1,1.2-0.1
			c1.5,0,2.5,0.3,3.1,0.9c0.6,0.6,0.9,1.6,0.9,2.9v6.9c-0.2,0.1-0.5,0.2-1,0.2c-0.2,0-0.4,0-0.5,0s-0.3-0.1-0.4-0.1l-0.1,0l-0.4-1.1
			c-0.5,1-1.5,1.5-3,1.5c-1,0-1.7-0.3-2.3-0.9C367.2,351.9,366.9,351,366.9,349.9z M369.5,349.9c0,0.5,0.1,0.9,0.4,1.2
			c0.2,0.2,0.6,0.4,1.1,0.4c0.3,0,0.6-0.1,0.9-0.2c0.3-0.1,0.4-0.3,0.6-0.6s0.2-0.5,0.3-0.7c0.1-0.3,0.1-0.5,0.1-0.8v-0.6
			c-0.7-0.1-1.2-0.1-1.7-0.1C370.1,348.4,369.5,348.9,369.5,349.9z"/>
		<path d="M377.6,347.8c0-1.9,0.4-3.2,1.2-4.1c0.8-0.9,1.9-1.3,3.4-1.3c1.3,0,2.3,0.3,3.1,1c0.7,0.7,1.1,1.7,1.1,3.1
			c0,0.4,0,0.8-0.1,1.1c0,0.4-0.1,0.6-0.1,0.8l-0.1,0.2h-6c0.1,1,0.3,1.7,0.7,2c0.4,0.4,1,0.6,1.8,0.6c0.4,0,0.8,0,1.2-0.1
			s0.7-0.2,0.9-0.2l0.3-0.1c0.2,0.2,0.4,0.5,0.5,0.8c0.1,0.3,0.2,0.7,0.2,1c0,0-0.1,0-0.1,0.1c-0.1,0-0.2,0.1-0.4,0.2
			c-0.2,0.1-0.5,0.2-0.7,0.2c-0.2,0.1-0.6,0.1-1,0.2c-0.4,0.1-0.8,0.1-1.2,0.1c-1.6,0-2.8-0.5-3.6-1.4
			C378,351,377.6,349.7,377.6,347.8z M380.2,346.9h3.6c0-0.3,0-0.5,0-0.7c0-1.3-0.5-1.9-1.6-1.9C381,344.3,380.4,345.2,380.2,346.9z
			"/>
		<path d="M389.7,351.5c-1-1.3-1.6-3.1-1.6-5.6c0-2.5,0.5-4.3,1.6-5.6c1-1.3,2.6-1.9,4.6-1.9c0.7,0,1.3,0.1,1.9,0.2
			c0.6,0.1,1,0.2,1.2,0.4l0.4,0.2c0,0.1,0,0.1,0,0.2c0,0.6-0.3,1.2-0.8,1.7c-0.8-0.3-1.6-0.4-2.5-0.4c-0.6,0-1.1,0.1-1.5,0.2
			c-0.4,0.2-0.8,0.4-1.2,0.8c-0.3,0.4-0.6,0.9-0.8,1.7c-0.2,0.7-0.3,1.6-0.3,2.6c0,0.8,0.1,1.5,0.2,2.2c0.1,0.6,0.3,1.1,0.5,1.5
			s0.5,0.7,0.8,0.9c0.3,0.2,0.7,0.4,1,0.5c0.4,0.1,0.8,0.1,1.2,0.1c0.4,0,0.9,0,1.3-0.1s0.8-0.1,1-0.2l0.3-0.1
			c0.5,0.5,0.8,1.1,0.8,2c0,0-0.1,0-0.2,0.1c-0.1,0-0.2,0.1-0.5,0.2c-0.2,0.1-0.5,0.2-0.8,0.2c-0.3,0.1-0.6,0.1-1,0.2
			s-0.8,0.1-1.3,0.1C392.3,353.4,390.8,352.7,389.7,351.5z"/>
		<path d="M399.3,349.9c0-1.1,0.3-1.9,1-2.4c0.7-0.5,1.6-0.8,2.9-0.8c0.7,0,1.4,0,2,0.1v-0.4c0-1.2-0.6-1.8-1.8-1.8
			c-0.4,0-0.8,0-1.2,0.1c-0.4,0.1-0.8,0.2-1,0.2l-0.3,0.1c-0.2-0.1-0.4-0.4-0.6-0.8c-0.1-0.2-0.1-0.3-0.1-0.5c0-0.2,0-0.3,0-0.4
			l0-0.1c0,0,0.1,0,0.2-0.1c0.1,0,0.2-0.1,0.5-0.2s0.5-0.2,0.8-0.2s0.6-0.1,1-0.2c0.4-0.1,0.8-0.1,1.2-0.1c1.5,0,2.5,0.3,3.1,0.9
			c0.6,0.6,0.9,1.6,0.9,2.9v6.9c-0.2,0.1-0.5,0.2-1,0.2c-0.2,0-0.4,0-0.5,0c-0.2,0-0.3-0.1-0.4-0.1l-0.1,0l-0.4-1.1
			c-0.5,1-1.5,1.5-3,1.5c-1,0-1.7-0.3-2.3-0.9C399.5,351.9,399.3,351,399.3,349.9z M401.9,349.9c0,0.5,0.1,0.9,0.4,1.2
			c0.2,0.2,0.6,0.4,1.1,0.4c0.3,0,0.6-0.1,0.9-0.2c0.3-0.1,0.4-0.3,0.6-0.6c0.1-0.2,0.2-0.5,0.3-0.7c0.1-0.3,0.1-0.5,0.1-0.8v-0.6
			c-0.7-0.1-1.2-0.1-1.7-0.1C402.4,348.4,401.9,348.9,401.9,349.9z"/>
		<path d="M410.4,353v-14.9c0.3-0.1,0.7-0.2,1.3-0.2c0.2,0,0.5,0,0.7,0c0.2,0,0.4,0.1,0.5,0.1l0.1,0V353c-0.3,0.1-0.7,0.2-1.3,0.2
			c-0.3,0-0.5,0-0.7,0c-0.2,0-0.4-0.1-0.4-0.1L410.4,353z"/>
		<path d="M419.4,349.9c0-1.1,0.3-1.9,1-2.4c0.7-0.5,1.6-0.8,2.9-0.8c0.7,0,1.4,0,2,0.1v-0.4c0-1.2-0.6-1.8-1.8-1.8
			c-0.4,0-0.8,0-1.2,0.1c-0.4,0.1-0.8,0.2-1,0.2l-0.3,0.1c-0.2-0.1-0.4-0.4-0.6-0.8c-0.1-0.2-0.1-0.3-0.1-0.5c0-0.2,0-0.3,0-0.4
			l0-0.1c0,0,0.1,0,0.2-0.1c0.1,0,0.2-0.1,0.5-0.2s0.5-0.2,0.8-0.2s0.6-0.1,1-0.2c0.4-0.1,0.8-0.1,1.2-0.1c1.5,0,2.5,0.3,3.1,0.9
			c0.6,0.6,0.9,1.6,0.9,2.9v6.9c-0.2,0.1-0.5,0.2-1,0.2c-0.2,0-0.4,0-0.5,0c-0.2,0-0.3-0.1-0.4-0.1l-0.1,0l-0.4-1.1
			c-0.5,1-1.5,1.5-3,1.5c-1,0-1.7-0.3-2.3-0.9C419.6,351.9,419.4,351,419.4,349.9z M422,349.9c0,0.5,0.1,0.9,0.4,1.2
			c0.2,0.2,0.6,0.4,1.1,0.4c0.3,0,0.6-0.1,0.9-0.2c0.3-0.1,0.4-0.3,0.6-0.6c0.1-0.2,0.2-0.5,0.3-0.7c0.1-0.3,0.1-0.5,0.1-0.8v-0.6
			c-0.7-0.1-1.2-0.1-1.7-0.1C422.5,348.4,422,348.9,422,349.9z"/>
		<path d="M430.5,353v-14.9c0.3-0.1,0.7-0.2,1.3-0.2c0.2,0,0.5,0,0.7,0c0.2,0,0.4,0.1,0.5,0.1l0.1,0V353c-0.3,0.1-0.7,0.2-1.3,0.2
			c-0.3,0-0.5,0-0.7,0c-0.2,0-0.4-0.1-0.4-0.1L430.5,353z"/>
		<path d="M436.5,352c-0.8-0.9-1.2-2.3-1.2-4.2s0.4-3.3,1.2-4.2c0.8-0.9,1.9-1.3,3.4-1.3s2.6,0.4,3.4,1.3c0.8,0.9,1.2,2.3,1.2,4.2
			c0,1.9-0.4,3.3-1.2,4.2c-0.8,0.9-1.9,1.3-3.4,1.3S437.3,352.9,436.5,352z M438,346.1c-0.1,0.5-0.1,1.1-0.1,1.7s0,1.3,0.1,1.7
			c0.1,0.5,0.2,0.8,0.4,1.1c0.2,0.3,0.4,0.4,0.6,0.5c0.2,0.1,0.5,0.2,0.8,0.2s0.6-0.1,0.8-0.2c0.2-0.1,0.4-0.3,0.6-0.5
			c0.2-0.3,0.3-0.6,0.4-1.1c0.1-0.5,0.1-1.1,0.1-1.8s0-1.3-0.1-1.7c-0.1-0.5-0.2-0.8-0.4-1.1c-0.2-0.3-0.4-0.4-0.6-0.5
			c-0.2-0.1-0.5-0.2-0.8-0.2s-0.6,0.1-0.8,0.2c-0.2,0.1-0.4,0.3-0.6,0.5C438.3,345.3,438.1,345.6,438,346.1z"/>
		<path d="M446.8,353v-10.3c0.3-0.1,0.7-0.2,1.3-0.2c0.2,0,0.5,0,0.7,0c0.2,0,0.4,0.1,0.5,0.1l0.1,0v0.6c0.7-0.7,1.6-1,2.8-1
			c1,0,1.8,0.3,2.3,0.8c0.6,0.6,0.8,1.3,0.8,2.2v7.6c-0.3,0.1-0.7,0.2-1.3,0.2c-0.3,0-0.5,0-0.7,0c-0.2,0-0.4-0.1-0.4-0.1l-0.1,0
			v-7.1c0-0.5-0.1-0.8-0.4-1.1s-0.7-0.4-1.2-0.4c-0.7,0-1.3,0.2-1.8,0.8v7.9c-0.3,0.1-0.7,0.2-1.3,0.2c-0.3,0-0.5,0-0.7,0
			s-0.4-0.1-0.4-0.1L446.8,353z"/>
		<path d="M457,355.5c0-1.1,0.6-2,1.8-2.7c-0.4-0.3-0.6-0.7-0.6-1.2c0-0.8,0.4-1.5,1.1-2.3c-1.2-0.6-1.9-1.7-1.9-3.3
			c0-1.2,0.4-2.1,1.1-2.7s1.7-1,3-1c0.9,0,1.7,0.2,2.3,0.5l2.9-0.5c0.1,0.3,0.1,0.6,0.1,1s0,0.7-0.1,1l-1.6-0.2
			c0.3,0.5,0.4,1.2,0.4,2c0,1.2-0.3,2.1-1,2.7c-0.7,0.7-1.7,1-3,1c-0.3,0-0.6,0-0.7,0c-0.2,0.2-0.2,0.5-0.2,0.7c0,0.1,0,0.1,0,0.2
			c0,0.2,0.2,0.4,0.4,0.5c0.2,0.1,0.5,0.2,0.7,0.3c0.3,0,0.6,0.1,1,0.1c0.4,0.1,0.7,0.1,1.1,0.2c0.4,0.1,0.7,0.2,1.1,0.3
			s0.7,0.3,0.9,0.5c0.3,0.2,0.5,0.5,0.6,0.9c0.2,0.4,0.2,0.8,0.2,1.3c0,1.1-0.5,1.9-1.4,2.6s-2.2,1-3.9,1c-1.5,0-2.6-0.2-3.3-0.7
			S457,356.3,457,355.5z M459.4,355c0,0.4,0.2,0.8,0.5,1.1c0.3,0.3,0.9,0.4,1.6,0.4c0.9,0,1.6-0.1,2.1-0.4c0.5-0.3,0.7-0.6,0.7-1.1
			c0-0.2-0.1-0.4-0.2-0.6c-0.2-0.2-0.4-0.3-0.7-0.3c-0.3-0.1-0.7-0.1-1-0.2c-0.3-0.1-0.7-0.1-1.2-0.2c-0.4-0.1-0.8-0.1-1.1-0.2
			C459.6,353.9,459.4,354.4,459.4,355z M459.9,346.1c0,0.7,0.2,1.1,0.5,1.5s0.7,0.5,1.2,0.5s0.9-0.2,1.2-0.5s0.4-0.8,0.4-1.5
			c0-0.7-0.1-1.2-0.4-1.5c-0.3-0.3-0.7-0.5-1.2-0.5s-0.9,0.2-1.2,0.5C460,344.9,459.9,345.4,459.9,346.1z"/>
	</g>
	<g class="st1">
		<path d="M354.6,367c0.3-0.1,0.7-0.2,1.3-0.2c0.3,0,0.5,0,0.7,0.1c0.2,0,0.3,0.1,0.4,0.1l0.1,0.1l1.6,5.8c0.2,0.6,0.3,1.3,0.4,2.1
			h0.1c0.1-0.8,0.3-1.5,0.4-2.1l1.5-5.8c0.4-0.1,0.9-0.2,1.4-0.2c0.2,0,0.5,0,0.7,0s0.4,0.1,0.4,0.1l0.1,0l1.4,5.8
			c0.2,0.8,0.3,1.5,0.4,2.2h0.1c0.1-0.6,0.3-1.3,0.5-2.1l1.6-5.9c0.3-0.1,0.7-0.2,1.2-0.2c0.3,0,0.5-0.1,0.7-0.2
			c0.2-0.2,0.3-0.3,0.4-0.5l0.1-0.2l-3.2,11.4c-0.4,0.1-0.9,0.2-1.5,0.2s-1-0.1-1.5-0.2l-1.2-4.8c-0.2-1-0.4-2-0.5-3.1h-0.1
			c-0.1,1.1-0.2,2.2-0.5,3.1l-1.2,4.8c-0.4,0.1-0.9,0.2-1.5,0.2c-0.6,0-1.1-0.1-1.5-0.2L354.6,367z"/>
		<path d="M371.7,365.1v-2.3c0.3-0.1,0.7-0.2,1.3-0.2c0.2,0,0.5,0,0.7,0s0.4,0.1,0.5,0.1l0.1,0v2.3c-0.3,0.1-0.7,0.2-1.3,0.2
			c-0.3,0-0.5,0-0.7,0s-0.4-0.1-0.4-0.1L371.7,365.1z M371.7,377.3V367c0.3-0.1,0.7-0.2,1.3-0.2c0.2,0,0.5,0,0.7,0s0.4,0.1,0.5,0.1
			l0.1,0v10.3c-0.3,0.1-0.7,0.2-1.3,0.2c-0.3,0-0.5,0-0.7,0s-0.4-0.1-0.4-0.1L371.7,377.3z"/>
		<path d="M375.9,367.8c0-0.2,0-0.4,0-0.5c0-0.2,0-0.3,0.1-0.4l0-0.1h1.5v-1.7c0.6-0.3,1.3-0.5,2.1-0.5c0.2,0,0.3,0,0.5,0v2.1h2.4
			c0.1,0.2,0.1,0.6,0.1,1c0,0.2,0,0.3,0,0.5c0,0.2,0,0.3-0.1,0.4l0,0.1h-2.4v4.7c0,0.8,0.2,1.3,0.5,1.6s0.8,0.4,1.5,0.4l0.7-0.1
			c0.1,0.3,0.2,0.7,0.2,1c0,0.2,0,0.3,0,0.5s-0.1,0.3-0.1,0.3l0,0.1c-0.4,0.1-0.9,0.2-1.5,0.2c-1.3,0-2.2-0.3-2.8-1
			c-0.6-0.7-0.9-1.7-0.9-3v-4.9h-1.5C376,368.6,375.9,368.2,375.9,367.8z"/>
		<path d="M384.7,377.3v-14.9c0.3-0.1,0.7-0.2,1.3-0.2c0.2,0,0.5,0,0.7,0c0.2,0,0.4,0.1,0.5,0.1l0.1,0v5.1c0.7-0.7,1.6-1,2.8-1
			c1,0,1.8,0.3,2.3,0.8c0.5,0.6,0.8,1.3,0.8,2.2v7.6c-0.3,0.1-0.7,0.2-1.3,0.2c-0.3,0-0.5,0-0.7,0c-0.2,0-0.4-0.1-0.4-0.1l-0.1,0
			v-7.1c0-0.5-0.1-0.8-0.4-1.1s-0.7-0.4-1.2-0.4c-0.7,0-1.3,0.2-1.8,0.8v7.9c-0.3,0.1-0.7,0.2-1.3,0.2c-0.3,0-0.5,0-0.7,0
			s-0.4-0.1-0.4-0.1L384.7,377.3z"/>
		<path d="M399.9,370.2c0-2.5,0.5-4.4,1.5-5.6c1-1.2,2.5-1.9,4.3-1.9c1.8,0,3.3,0.6,4.3,1.8c1,1.2,1.5,3.1,1.5,5.6
			c0,2.5-0.5,4.4-1.5,5.7s-2.5,1.8-4.3,1.8s-3.3-0.6-4.3-1.8C400.4,374.6,399.9,372.7,399.9,370.2z M402.6,370.2
			c0,0.8,0,1.6,0.1,2.2c0.1,0.6,0.2,1.1,0.4,1.5s0.4,0.7,0.7,1c0.3,0.2,0.6,0.4,0.9,0.5c0.3,0.1,0.6,0.1,1,0.1
			c0.5,0,0.9-0.1,1.3-0.2c0.4-0.2,0.7-0.4,1-0.8s0.5-0.9,0.6-1.7c0.1-0.7,0.2-1.6,0.2-2.6c0-0.8,0-1.6-0.1-2.2s-0.2-1.1-0.4-1.5
			s-0.4-0.7-0.7-1c-0.3-0.2-0.6-0.4-0.9-0.5c-0.3-0.1-0.7-0.1-1.1-0.1c-0.5,0-0.9,0.1-1.3,0.2s-0.7,0.4-1,0.8s-0.5,0.9-0.6,1.6
			C402.7,368.3,402.6,369.1,402.6,370.2z"/>
		<path d="M413,367.8c0-0.2,0-0.4,0-0.5c0-0.2,0-0.3,0.1-0.4l0-0.1h1.5v-1.7c0.6-0.3,1.3-0.5,2.1-0.5c0.2,0,0.3,0,0.5,0v2.1h2.4
			c0.1,0.2,0.1,0.6,0.1,1c0,0.2,0,0.3,0,0.5c0,0.2,0,0.3-0.1,0.4l0,0.1h-2.4v4.7c0,0.8,0.2,1.3,0.5,1.6s0.8,0.4,1.5,0.4l0.7-0.1
			c0.1,0.3,0.2,0.7,0.2,1c0,0.2,0,0.3,0,0.5s-0.1,0.3-0.1,0.3l0,0.1c-0.4,0.1-0.9,0.2-1.5,0.2c-1.3,0-2.2-0.3-2.8-1
			c-0.6-0.7-0.9-1.7-0.9-3v-4.9h-1.5C413,368.6,413,368.2,413,367.8z"/>
		<path d="M421.8,377.3v-14.9c0.3-0.1,0.7-0.2,1.3-0.2c0.2,0,0.5,0,0.7,0s0.4,0.1,0.5,0.1l0.1,0v5.1c0.7-0.7,1.6-1,2.8-1
			c1,0,1.8,0.3,2.3,0.8c0.5,0.6,0.8,1.3,0.8,2.2v7.6c-0.3,0.1-0.7,0.2-1.3,0.2c-0.3,0-0.5,0-0.7,0s-0.4-0.1-0.4-0.1l-0.1,0v-7.1
			c0-0.5-0.1-0.8-0.4-1.1c-0.3-0.3-0.7-0.4-1.2-0.4c-0.7,0-1.3,0.2-1.8,0.8v7.9c-0.3,0.1-0.7,0.2-1.3,0.2c-0.3,0-0.5,0-0.7,0
			s-0.4-0.1-0.4-0.1L421.8,377.3z"/>
		<path d="M432.4,372.1c0-1.9,0.4-3.2,1.2-4.1c0.8-0.9,1.9-1.3,3.4-1.3c1.3,0,2.3,0.3,3.1,1c0.7,0.7,1.1,1.7,1.1,3.1
			c0,0.4,0,0.8-0.1,1.1s-0.1,0.6-0.1,0.8l-0.1,0.2h-6c0.1,1,0.3,1.7,0.7,2c0.4,0.4,1,0.6,1.8,0.6c0.4,0,0.8,0,1.2-0.1
			c0.4-0.1,0.7-0.2,0.9-0.2l0.3-0.1c0.2,0.2,0.4,0.5,0.5,0.8c0.1,0.3,0.2,0.7,0.2,1c0,0-0.1,0-0.1,0.1c-0.1,0-0.2,0.1-0.4,0.2
			c-0.2,0.1-0.5,0.2-0.7,0.2s-0.6,0.1-1,0.2c-0.4,0.1-0.8,0.1-1.2,0.1c-1.6,0-2.8-0.5-3.6-1.4C432.8,375.3,432.4,374,432.4,372.1z
			 M435,371.2h3.6c0-0.3,0-0.5,0-0.7c0-1.3-0.5-1.9-1.6-1.9C435.9,368.6,435.2,369.5,435,371.2z"/>
		<path d="M443.3,377.3V367c0.3-0.1,0.7-0.2,1.3-0.2c0.2,0,0.5,0,0.7,0c0.2,0,0.4,0.1,0.5,0.1l0.1,0v1.1c0.7-1,1.5-1.5,2.2-1.5
			c0.6,0,1.2,0.2,1.8,0.5c-0.1,0.9-0.4,1.6-1.1,2.1c-0.4-0.3-0.7-0.4-1.2-0.4c-0.7,0-1.3,0.4-1.8,1.1v7.4c-0.3,0.1-0.7,0.2-1.3,0.2
			c-0.3,0-0.5,0-0.7,0c-0.2,0-0.4-0.1-0.4-0.1L443.3,377.3z"/>
	</g>
	<g class="st1">
		<path d="M361.4,401.6v-14.2c0.4-0.1,0.9-0.2,1.6-0.2c0.3,0,0.6,0,0.8,0c0.3,0,0.4,0.1,0.5,0.1l0.1,0l4.2,8.1
			c0.2,0.4,0.5,0.9,0.7,1.4c0.2,0.5,0.4,0.9,0.5,1.2l0.2,0.4h0.1c-0.1-1.1-0.2-2.4-0.2-3.8v-7.4c0.2-0.1,0.6-0.2,1.2-0.2
			c0.2,0,0.5,0,0.7,0s0.3,0.1,0.4,0.1l0.1,0v14.2c-0.3,0.1-0.8,0.2-1.5,0.2c-0.3,0-0.6,0-0.8,0c-0.3,0-0.5-0.1-0.6-0.1l-0.2,0
			l-4.2-8.1c-0.2-0.4-0.5-0.9-0.7-1.4c-0.2-0.5-0.4-0.9-0.5-1.2l-0.2-0.4h-0.1c0.1,1.1,0.2,2.3,0.2,3.7v7.4
			c-0.3,0.1-0.7,0.2-1.2,0.2c-0.2,0-0.5,0-0.7,0c-0.2,0-0.3-0.1-0.4-0.1L361.4,401.6z"/>
		<path d="M375.1,398.9v-7.6c0.3-0.1,0.7-0.2,1.3-0.2c0.3,0,0.5,0,0.7,0s0.4,0.1,0.4,0.1l0.1,0v7.1c0,0.5,0.1,0.8,0.4,1.1
			s0.7,0.4,1.2,0.4c0.7,0,1.3-0.2,1.8-0.7v-7.8c0.3-0.1,0.7-0.2,1.3-0.2c0.3,0,0.5,0,0.7,0s0.4,0.1,0.4,0.1l0.1,0v10.3
			c-0.3,0.1-0.7,0.2-1.3,0.2c-0.2,0-0.5,0-0.7,0c-0.2,0-0.4-0.1-0.5-0.1l-0.1,0V401c-0.7,0.7-1.6,1-2.8,1c-1,0-1.8-0.3-2.4-0.8
			C375.4,400.6,375.1,399.8,375.1,398.9z"/>
		<path d="M385.3,392.1c0-0.2,0-0.4,0-0.5s0-0.3,0.1-0.4l0-0.1h1.5v-1.7c0.6-0.3,1.3-0.5,2.1-0.5c0.2,0,0.3,0,0.5,0v2.1h2.4
			c0.1,0.2,0.1,0.6,0.1,1c0,0.2,0,0.3,0,0.5c0,0.2,0,0.3-0.1,0.4l0,0.1h-2.4v4.7c0,0.8,0.1,1.3,0.4,1.6s0.8,0.4,1.5,0.4l0.7-0.1
			c0.1,0.3,0.2,0.7,0.2,1c0,0.2,0,0.3,0,0.5s-0.1,0.3-0.1,0.3l0,0.1c-0.4,0.1-0.9,0.2-1.5,0.2c-1.3,0-2.2-0.3-2.8-1s-0.9-1.7-0.9-3
			v-4.9h-1.5C385.3,392.9,385.3,392.5,385.3,392.1z"/>
		<path d="M394.1,401.6v-10.3c0.3-0.1,0.7-0.2,1.3-0.2c0.2,0,0.5,0,0.7,0c0.2,0,0.4,0.1,0.5,0.1l0.1,0v1.1c0.7-1,1.5-1.5,2.2-1.5
			c0.6,0,1.2,0.2,1.8,0.5c-0.1,0.9-0.4,1.6-1.1,2.1c-0.4-0.3-0.7-0.4-1.2-0.4c-0.7,0-1.3,0.4-1.8,1.1v7.4c-0.3,0.1-0.7,0.2-1.3,0.2
			c-0.3,0-0.5,0-0.7,0c-0.2,0-0.4-0.1-0.4-0.1L394.1,401.6z"/>
		<path d="M402.1,389.4V387c0.3-0.1,0.7-0.2,1.3-0.2c0.2,0,0.5,0,0.7,0c0.2,0,0.4,0.1,0.5,0.1l0.1,0v2.3c-0.3,0.1-0.7,0.2-1.3,0.2
			c-0.3,0-0.5,0-0.7,0s-0.4-0.1-0.4-0.1L402.1,389.4z M402.1,401.6v-10.3c0.3-0.1,0.7-0.2,1.3-0.2c0.2,0,0.5,0,0.7,0
			c0.2,0,0.4,0.1,0.5,0.1l0.1,0v10.3c-0.3,0.1-0.7,0.2-1.3,0.2c-0.3,0-0.5,0-0.7,0s-0.4-0.1-0.4-0.1L402.1,401.6z"/>
		<path d="M406.9,396.4c0-1.9,0.4-3.2,1.2-4.1c0.8-0.9,1.9-1.3,3.4-1.3c1.3,0,2.3,0.3,3.1,1s1.1,1.7,1.1,3.1c0,0.4,0,0.8-0.1,1.1
			s-0.1,0.6-0.1,0.8l-0.1,0.2h-6c0.1,1,0.3,1.7,0.7,2c0.4,0.4,1,0.6,1.8,0.6c0.4,0,0.8,0,1.2-0.1c0.4-0.1,0.7-0.2,0.9-0.2l0.3-0.1
			c0.2,0.2,0.4,0.5,0.5,0.8c0.1,0.3,0.2,0.7,0.2,1c0,0-0.1,0-0.1,0.1c-0.1,0-0.2,0.1-0.4,0.2c-0.2,0.1-0.5,0.2-0.7,0.2
			s-0.6,0.1-1,0.2c-0.4,0.1-0.8,0.1-1.2,0.1c-1.6,0-2.8-0.5-3.6-1.4C407.3,399.6,406.9,398.2,406.9,396.4z M409.5,395.5h3.6
			c0-0.3,0-0.5,0-0.7c0-1.3-0.5-1.9-1.6-1.9C410.4,392.9,409.7,393.8,409.5,395.5z"/>
		<path d="M417.8,401.6v-10.3c0.3-0.1,0.7-0.2,1.3-0.2c0.2,0,0.5,0,0.7,0s0.4,0.1,0.5,0.1l0.1,0v0.6c0.7-0.7,1.6-1,2.8-1
			c1,0,1.8,0.3,2.3,0.8c0.5,0.6,0.8,1.3,0.8,2.2v7.6c-0.3,0.1-0.7,0.2-1.3,0.2c-0.3,0-0.5,0-0.7,0c-0.2,0-0.4-0.1-0.4-0.1l-0.1,0
			v-7.1c0-0.5-0.1-0.8-0.4-1.1c-0.3-0.3-0.7-0.4-1.2-0.4c-0.7,0-1.3,0.2-1.8,0.8v7.9c-0.3,0.1-0.7,0.2-1.3,0.2c-0.3,0-0.5,0-0.7,0
			s-0.4-0.1-0.4-0.1L417.8,401.6z"/>
		<path d="M427.9,392.1c0-0.2,0-0.4,0-0.5c0-0.2,0-0.3,0.1-0.4l0-0.1h1.5v-1.7c0.6-0.3,1.3-0.5,2.1-0.5c0.2,0,0.3,0,0.5,0v2.1h2.4
			c0.1,0.2,0.1,0.6,0.1,1c0,0.2,0,0.3,0,0.5s0,0.3-0.1,0.4l0,0.1h-2.4v4.7c0,0.8,0.1,1.3,0.5,1.6c0.3,0.3,0.8,0.4,1.5,0.4l0.7-0.1
			c0.1,0.3,0.2,0.7,0.2,1c0,0.2,0,0.3,0,0.5c0,0.2-0.1,0.3-0.1,0.3l0,0.1c-0.4,0.1-0.9,0.2-1.5,0.2c-1.3,0-2.2-0.3-2.8-1
			c-0.6-0.7-0.9-1.7-0.9-3v-4.9h-1.5C428,392.9,427.9,392.5,427.9,392.1z"/>
		<path d="M436.2,401.2c0-0.8,0.2-1.4,0.7-1.9c0.9,0.3,1.8,0.5,2.7,0.5c1.1,0,1.6-0.4,1.6-1.1c0-0.3-0.1-0.5-0.3-0.7
			s-0.4-0.3-0.6-0.4c-0.2-0.1-0.5-0.2-1-0.3c-0.1,0-0.2-0.1-0.2-0.1c-0.3-0.1-0.5-0.2-0.7-0.2s-0.4-0.2-0.6-0.3
			c-0.2-0.1-0.4-0.3-0.6-0.4s-0.3-0.3-0.5-0.5c-0.1-0.2-0.3-0.4-0.3-0.7c-0.1-0.3-0.1-0.6-0.1-0.9c0-1,0.3-1.8,1-2.4
			c0.7-0.6,1.6-0.9,2.9-0.9c0.6,0,1.2,0,1.7,0.1c0.5,0.1,0.8,0.2,1,0.3l0.3,0.1c0,0.8-0.2,1.4-0.7,1.8c-0.6-0.2-1.3-0.3-2.1-0.3
			c-1.2,0-1.7,0.4-1.7,1.1c0,0.1,0,0.3,0.1,0.4c0.1,0.1,0.2,0.2,0.3,0.3s0.3,0.1,0.4,0.2c0.2,0.1,0.4,0.1,0.5,0.2s0.4,0.1,0.6,0.2
			c0.2,0.1,0.5,0.1,0.6,0.2c0.3,0.1,0.7,0.2,0.9,0.4c0.3,0.1,0.5,0.3,0.8,0.6c0.2,0.2,0.4,0.5,0.6,0.9c0.1,0.4,0.2,0.8,0.2,1.2
			c0,1.1-0.3,1.9-1,2.5c-0.7,0.6-1.7,0.9-3,0.9c-0.4,0-0.8,0-1.2-0.1c-0.4-0.1-0.7-0.1-1-0.2c-0.3-0.1-0.5-0.1-0.7-0.2
			c-0.2-0.1-0.4-0.1-0.5-0.2L436.2,401.2z"/>
	</g>
</g>
</svg>
