<?xml version="1.0" encoding="utf-8"?>
<!-- Generator: Adobe Illustrator 23.0.1, SVG Export Plug-In . SVG Version: 6.00 Build 0)  -->
<svg version="1.1" id="Layer_1" xmlns="http://www.w3.org/2000/svg" xmlns:xlink="http://www.w3.org/1999/xlink" x="0px" y="0px"
	 viewBox="0 0 223.9 223.9" style="enable-background:new 0 0 223.9 223.9;" xml:space="preserve">
<style type="text/css">
	.st0{fill-rule:evenodd;clip-rule:evenodd;fill:#3FAC49;}
	.st1{fill:#FFFFFF;}
</style>
<g>
	<g>
		<path class="st0" d="M111.9,0c61.8,0,111.9,50.1,111.9,111.9s-50.1,111.9-111.9,111.9C50.1,223.9,0,173.8,0,111.9S50.1,0,111.9,0z
			"/>
		<g>
			<path class="st1" d="M41.2,58l7.9-23.3c0.7-0.2,1.6-0.3,2.6-0.3c0.5,0,0.9,0,1.4,0.1c0.4,0,0.7,0.1,0.9,0.2l0.3,0.1L62.2,58
				c-0.5,0.2-1.3,0.3-2.3,0.3c-0.4,0-0.8,0-1.1-0.1c-0.3,0-0.6-0.1-0.7-0.2h-0.2l-1.8-5.3H47L45.2,58c-0.5,0.2-1.2,0.3-2.1,0.3
				c-0.4,0-0.7,0-1.1-0.1c-0.3,0-0.6-0.1-0.7-0.2H41.2z M48.2,49.3h6.7l-2.3-6.7c-0.2-0.6-0.4-1.2-0.6-1.8c-0.2-0.6-0.3-1.1-0.4-1.4
				l-0.1-0.5h-0.1c-0.2,1.1-0.6,2.3-1,3.7L48.2,49.3z"/>
			<path class="st1" d="M64.2,57.4c0-1.3,0.4-2.4,1.1-3.1c1.4,0.5,2.9,0.8,4.4,0.8c1.7,0,2.6-0.6,2.6-1.8c0-0.4-0.2-0.8-0.5-1.1
				s-0.7-0.5-1-0.6s-0.8-0.3-1.6-0.5C69,51,68.9,51,68.8,51c-0.4-0.1-0.8-0.3-1.1-0.4c-0.3-0.1-0.6-0.3-1-0.5s-0.7-0.4-1-0.6
				c-0.3-0.2-0.5-0.5-0.7-0.9c-0.2-0.3-0.4-0.7-0.5-1.2s-0.2-1-0.2-1.5c0-1.7,0.5-3,1.6-4s2.6-1.4,4.7-1.4c1.1,0,2,0.1,2.8,0.2
				c0.8,0.2,1.4,0.3,1.7,0.5l0.4,0.2c0,1.3-0.4,2.3-1.1,3c-1-0.4-2.2-0.5-3.4-0.5c-1.9,0-2.9,0.6-2.9,1.9c0,0.2,0.1,0.4,0.2,0.6
				c0.1,0.2,0.3,0.3,0.4,0.5c0.2,0.1,0.4,0.2,0.7,0.4s0.6,0.2,0.9,0.3s0.6,0.2,1,0.3s0.8,0.2,1,0.3c0.6,0.2,1.1,0.4,1.5,0.6
				c0.4,0.2,0.8,0.5,1.2,0.9c0.4,0.4,0.7,0.9,0.9,1.4c0.2,0.6,0.3,1.2,0.3,2c0,1.8-0.6,3.1-1.7,4s-2.7,1.4-4.9,1.4
				c-0.7,0-1.3,0-1.9-0.1s-1.2-0.2-1.6-0.3s-0.8-0.2-1.1-0.4s-0.6-0.2-0.7-0.3H64.2z"/>
			<path class="st1" d="M86.9,58.1V33.7c0.4-0.2,1.1-0.3,2.1-0.3c0.4,0,0.8,0,1.1,0.1c0.4,0,0.6,0.1,0.8,0.1l0.2,0.1v24.4
				c-0.5,0.2-1.2,0.3-2.1,0.3c-0.4,0-0.8,0-1.2-0.1c-0.3,0-0.6-0.1-0.7-0.1L86.9,58.1z"/>
			<path class="st1" d="M96.8,56.5c-1.3-1.5-2-3.7-2-6.9c0-3.1,0.7-5.4,2-6.9s3.2-2.2,5.6-2.2s4.3,0.7,5.6,2.1s2,3.7,2,6.9
				s-0.6,5.5-1.9,6.9s-3.2,2.2-5.6,2.2S98.1,57.9,96.8,56.5z M99.3,46.7c-0.2,0.8-0.2,1.7-0.2,2.9c0,1.1,0.1,2.1,0.2,2.9
				c0.2,0.8,0.4,1.4,0.7,1.8s0.7,0.7,1,0.9c0.4,0.2,0.8,0.3,1.4,0.3s1-0.1,1.4-0.3s0.7-0.5,1-0.9s0.5-1,0.7-1.8s0.2-1.7,0.2-2.9
				s-0.1-2.1-0.2-2.9s-0.4-1.4-0.7-1.8c-0.3-0.4-0.6-0.7-1-0.9s-0.8-0.3-1.4-0.3s-1,0.1-1.4,0.3s-0.7,0.5-1,0.9
				C99.7,45.4,99.4,46,99.3,46.7z"/>
			<path class="st1" d="M111.9,41.1c0.5-0.2,1.2-0.3,2.1-0.3c0.4,0,0.8,0,1.1,0.1s0.5,0.1,0.6,0.2l0.1,0.1l2.6,9.5
				c0.3,1,0.5,2.2,0.7,3.5h0.1c0.2-1.4,0.5-2.5,0.7-3.5l2.4-9.6c0.7-0.2,1.5-0.3,2.3-0.3c0.4,0,0.8,0,1.1,0.1s0.6,0.1,0.7,0.1
				l0.2,0.1l2.4,9.6c0.3,1.3,0.5,2.4,0.7,3.5h0.1c0.2-1,0.4-2.2,0.8-3.5l2.7-9.6c0.5-0.2,1.2-0.3,2-0.3c0.4,0,0.8-0.1,1.1-0.4
				c0.3-0.3,0.5-0.5,0.7-0.8l0.2-0.4L132.2,58c-0.7,0.2-1.5,0.3-2.4,0.3s-1.7-0.1-2.5-0.3l-1.9-7.9c-0.4-1.6-0.7-3.3-0.8-5.1h-0.1
				c-0.1,1.8-0.4,3.5-0.8,5.1l-2,7.9c-0.7,0.2-1.5,0.3-2.4,0.3c-1,0-1.8-0.1-2.5-0.3L111.9,41.1z"/>
			<path class="st1" d="M145.3,52.9c0-1.8,0.5-3.2,1.6-4s2.7-1.3,4.8-1.3c1.1,0,2.2,0.1,3.3,0.2v-0.7c0-2-1-3-3-3
				c-0.6,0-1.3,0.1-2,0.2c-0.7,0.1-1.2,0.3-1.6,0.4l-0.6,0.2c-0.3-0.2-0.6-0.6-0.9-1.2c-0.1-0.3-0.2-0.5-0.2-0.8s-0.1-0.5,0-0.7V42
				c0.1,0,0.2-0.1,0.3-0.1c0.1-0.1,0.4-0.2,0.8-0.3c0.4-0.2,0.8-0.3,1.3-0.4c0.4-0.1,1-0.2,1.6-0.3c0.7-0.1,1.3-0.1,2-0.1
				c2.4,0,4.1,0.5,5.1,1.5s1.5,2.6,1.5,4.7v11.4c-0.3,0.2-0.9,0.3-1.6,0.3c-0.3,0-0.6,0-0.9-0.1c-0.3,0-0.5-0.1-0.6-0.1l-0.2-0.1
				l-0.6-1.8c-0.8,1.6-2.4,2.4-4.9,2.4c-1.6,0-2.8-0.5-3.7-1.4C145.8,56.3,145.3,54.8,145.3,52.9z M149.6,52.9
				c0,0.9,0.2,1.5,0.6,1.9c0.4,0.4,1,0.6,1.8,0.6c0.6,0,1-0.1,1.5-0.4c0.4-0.2,0.7-0.5,1-0.9c0.2-0.4,0.4-0.8,0.5-1.2
				s0.2-0.9,0.2-1.3v-1c-1.1-0.1-2-0.1-2.8-0.1C150.5,50.4,149.6,51.3,149.6,52.9z"/>
			<path class="st1" d="M162.7,57.4c0-1.3,0.4-2.4,1.1-3.1c1.4,0.5,2.9,0.8,4.4,0.8c1.7,0,2.6-0.6,2.6-1.8c0-0.4-0.2-0.8-0.5-1.1
				s-0.7-0.5-1-0.6s-0.8-0.3-1.6-0.5c-0.2-0.1-0.3-0.1-0.4-0.1c-0.4-0.1-0.8-0.3-1.1-0.4c-0.3-0.1-0.6-0.3-1-0.5s-0.7-0.4-1-0.6
				c-0.3-0.2-0.5-0.5-0.7-0.9c-0.2-0.3-0.4-0.7-0.5-1.2s-0.2-1-0.2-1.5c0-1.7,0.5-3,1.6-4s2.6-1.4,4.7-1.4c1.1,0,2,0.1,2.8,0.2
				c0.8,0.2,1.4,0.3,1.7,0.5l0.4,0.2c0,1.3-0.4,2.3-1.1,3c-1-0.4-2.2-0.5-3.4-0.5c-1.9,0-2.9,0.6-2.9,1.9c0,0.2,0.1,0.4,0.2,0.6
				c0.1,0.2,0.3,0.3,0.4,0.5c0.2,0.1,0.4,0.2,0.7,0.4s0.6,0.2,0.9,0.3c0.3,0.1,0.6,0.2,1,0.3s0.8,0.2,1,0.3c0.6,0.2,1.1,0.4,1.5,0.6
				c0.4,0.2,0.8,0.5,1.2,0.9s0.7,0.9,0.9,1.4c0.2,0.6,0.3,1.2,0.3,2c0,1.8-0.6,3.1-1.7,4c-1.1,0.9-2.7,1.4-4.9,1.4
				c-0.7,0-1.3,0-1.9-0.1c-0.6-0.1-1.2-0.2-1.6-0.3c-0.4-0.1-0.8-0.2-1.1-0.4S162.9,57.5,162.7,57.4L162.7,57.4z"/>
			<path class="st1" d="M48.5,95.8c0-4,1.2-7.1,3.6-9.5c2.4-2.3,5.9-3.7,10.5-4.2L61.9,74c1-0.4,2.2-0.6,3.7-0.6c0.7,0,1.4,0,2,0.1
				s1.1,0.2,1.3,0.3l0.4,0.2l-0.6,8c1.9,0.1,3.8,0.3,5.7,0.6c1.9,0.3,3.3,0.6,4.2,0.9l1.4,0.4c0,1.1-0.1,2.3-0.6,3.7
				c-0.2,0.6-0.4,1.1-0.7,1.6c-0.3,0.5-0.6,0.9-0.8,1.1l-0.3,0.4c-2.9-1-6.3-1.5-10.1-1.5c-3.2,0-5.7,0.4-7.3,1.3s-2.5,2.3-2.5,4.3
				c0,1.1,0.4,2,1.1,2.8c0.7,0.8,1.7,1.4,2.8,1.9c1.2,0.5,2.5,0.9,4.1,1.4c1.5,0.5,3.1,0.9,4.7,1.4s3.1,1.1,4.6,1.8
				c1.5,0.8,2.9,1.6,4,2.6c1.2,1,2.1,2.3,2.8,3.9s1.1,3.5,1.1,5.5c0,8.2-4.8,12.8-14.3,13.7l0.7,9c-0.8,0.4-2,0.6-3.6,0.6
				c-0.7,0-1.3,0-2-0.1c-0.6-0.1-1.1-0.2-1.4-0.3l-0.4-0.1l0.7-8.8c-2.5-0.1-4.9-0.4-7.2-0.9s-4-0.9-5-1.4l-1.6-0.6
				c-0.2-0.8-0.1-2,0.3-3.4c0.2-0.6,0.4-1.2,0.7-1.8c0.3-0.6,0.5-1,0.7-1.2l0.3-0.4c0.5,0.2,1.2,0.4,2.1,0.6
				c0.9,0.2,2.5,0.5,4.9,0.9s4.6,0.6,6.6,0.6c3.2,0,5.5-0.4,7-1.3s2.3-2.3,2.3-4.5c0-1.4-0.5-2.6-1.4-3.6s-2.2-1.7-3.6-2.2
				c-1.5-0.5-3.1-1-4.9-1.6c-1.7-0.6-3.5-1.1-5.3-1.7s-3.4-1.3-4.9-2.2c-1.5-0.9-2.7-2.2-3.6-3.8C48.9,100.1,48.5,98.1,48.5,95.8z"
				/>
			<path class="st1" d="M35.7,182.9v-24.3c0.4-0.2,1.1-0.3,2.1-0.3c0.4,0,0.8,0,1.1,0.1c0.4,0,0.6,0.1,0.8,0.1l0.2,0.1v1.1
				c0.9-1.2,2.4-1.7,4.5-1.7c0.9,0,1.8,0.2,2.5,0.5s1.3,0.8,1.9,1.5c0.5,0.7,1,1.6,1.2,2.8s0.4,2.6,0.4,4.2c0,1.6-0.1,3.1-0.4,4.2
				c-0.3,1.2-0.7,2.1-1.2,2.8s-1.2,1.2-1.9,1.5s-1.6,0.5-2.5,0.5c-2.1,0-3.6-0.6-4.5-1.7v8.6c-0.5,0.2-1.2,0.3-2.1,0.3
				c-0.4,0-0.8,0-1.1-0.1S36.1,183,36,183L35.7,182.9z M39.9,169.1c0,1.1,0.3,1.9,0.8,2.6c0.5,0.7,1.3,1,2.2,1c0.6,0,1-0.1,1.4-0.2
				s0.7-0.4,1-0.8c0.3-0.4,0.5-1,0.7-1.7c0.1-0.8,0.2-1.7,0.2-2.8s-0.1-2.1-0.2-2.8c-0.1-0.8-0.4-1.3-0.7-1.7s-0.6-0.7-1-0.8
				s-0.8-0.2-1.4-0.2c-0.9,0-1.6,0.3-2.2,1s-0.8,1.5-0.8,2.6V169.1z"/>
			<path class="st1" d="M53.5,167c0-3,0.7-5.3,2-6.8s3.2-2.2,5.6-2.2c2.1,0,3.8,0.6,5,1.7c1.2,1.1,1.8,2.9,1.8,5.2
				c0,0.6,0,1.2-0.1,1.8s-0.1,1-0.2,1.3l-0.1,0.4h-9.8c0.1,1.6,0.5,2.7,1.2,3.3s1.6,0.9,2.9,0.9c0.7,0,1.3-0.1,1.9-0.2
				c0.6-0.1,1.1-0.3,1.4-0.4l0.5-0.2c0.4,0.3,0.7,0.8,0.9,1.3c0.2,0.5,0.4,1.1,0.4,1.7c-0.1,0-0.1,0.1-0.2,0.1
				c-0.1,0.1-0.3,0.2-0.7,0.3c-0.4,0.2-0.7,0.3-1.2,0.4s-0.9,0.2-1.6,0.3c-0.6,0.1-1.3,0.1-2,0.1c-2.7,0-4.6-0.8-5.9-2.3
				C54.1,172.3,53.5,170,53.5,167z M57.7,165.5h5.9c0-0.5,0.1-0.9,0.1-1.1c0-2.1-0.9-3.1-2.7-3.1C59.1,161.3,58,162.7,57.7,165.5z"
				/>
			<path class="st1" d="M71.3,175.5v-16.9c0.4-0.2,1.1-0.3,2.1-0.3c0.4,0,0.8,0,1.1,0.1c0.4,0,0.6,0.1,0.8,0.1l0.2,0.1v1.9
				c1.2-1.6,2.4-2.4,3.7-2.4c1.1,0,2,0.3,2.9,0.9c-0.1,1.4-0.7,2.6-1.8,3.5c-0.6-0.5-1.2-0.7-1.9-0.7c-1.1,0-2.1,0.6-2.9,1.7v12.1
				c-0.5,0.2-1.2,0.3-2.1,0.3c-0.4,0-0.8,0-1.2-0.1c-0.3,0-0.6-0.1-0.7-0.1L71.3,175.5z"/>
			<path class="st1" d="M90.9,175.5v-16.9c0.4-0.2,1.1-0.3,2.1-0.3c0.4,0,0.8,0,1.1,0.1c0.4,0,0.6,0.1,0.8,0.1l0.2,0.1v1
				c1.1-1.1,2.6-1.6,4.3-1.6c1.9,0,3.3,0.7,4.3,2c1.3-1.3,3-2,5.2-2c1.6,0,2.8,0.5,3.7,1.4c0.9,0.9,1.3,2.1,1.3,3.7v12.5
				c-0.5,0.2-1.2,0.3-2.1,0.3c-0.4,0-0.8,0-1.2-0.1s-0.6-0.1-0.7-0.1l-0.2-0.1v-11.7c0-1.6-0.8-2.4-2.5-2.4c-1.1,0-2,0.4-2.8,1.2
				v12.9c-0.5,0.2-1.2,0.3-2.1,0.3c-0.4,0-0.8,0-1.2-0.1s-0.6-0.1-0.7-0.1l-0.2-0.1v-11.7c0-1.6-0.8-2.4-2.5-2.4
				c-1.1,0-2,0.4-2.8,1.2v12.9c-0.5,0.2-1.2,0.3-2.1,0.3c-0.4,0-0.8,0-1.2-0.1c-0.3,0-0.6-0.1-0.7-0.1L90.9,175.5z"/>
			<path class="st1" d="M119.3,173.9c-1.3-1.5-2-3.7-2-6.9c0-3.1,0.7-5.4,2-6.9s3.2-2.2,5.6-2.2s4.3,0.7,5.6,2.1
				c1.3,1.4,2,3.7,2,6.9s-0.6,5.5-1.9,6.9c-1.3,1.4-3.2,2.2-5.6,2.2S120.7,175.4,119.3,173.9z M121.9,164.2
				c-0.2,0.8-0.2,1.7-0.2,2.9s0.1,2.1,0.2,2.9c0.2,0.8,0.4,1.4,0.7,1.8c0.3,0.4,0.7,0.7,1,0.9c0.4,0.2,0.8,0.3,1.4,0.3
				s1-0.1,1.4-0.3s0.7-0.5,1-0.9s0.5-1,0.7-1.8c0.2-0.8,0.2-1.7,0.2-2.9c0-1.1-0.1-2.1-0.2-2.9c-0.2-0.8-0.4-1.4-0.7-1.8
				s-0.6-0.7-1-0.9s-0.8-0.3-1.4-0.3s-1,0.1-1.4,0.3s-0.7,0.5-1,0.9C122.3,162.8,122,163.4,121.9,164.2z"/>
			<path class="st1" d="M136.3,175.5v-16.9c0.4-0.2,1.1-0.3,2.1-0.3c0.4,0,0.8,0,1.1,0.1c0.4,0,0.6,0.1,0.8,0.1l0.2,0.1v1
				c1.2-1.1,2.7-1.6,4.5-1.6c1.7,0,2.9,0.5,3.8,1.4c0.9,0.9,1.4,2.1,1.4,3.7v12.5c-0.5,0.2-1.2,0.3-2.1,0.3c-0.4,0-0.8,0-1.2-0.1
				s-0.6-0.1-0.7-0.1l-0.2-0.1v-11.7c0-0.7-0.2-1.3-0.6-1.8c-0.4-0.4-1.1-0.6-2-0.6c-1.1,0-2.1,0.4-2.9,1.2v12.9
				c-0.5,0.2-1.2,0.3-2.1,0.3c-0.4,0-0.8,0-1.2-0.1s-0.6-0.1-0.7-0.1L136.3,175.5z"/>
			<path class="st1" d="M152.9,160c0-0.3,0-0.6,0.1-0.9c0-0.3,0.1-0.5,0.1-0.6v-0.2h2.5v-2.7c1-0.6,2.1-0.8,3.4-0.8
				c0.3,0,0.5,0,0.8,0v3.5h3.9c0.2,0.4,0.2,0.9,0.2,1.6c0,0.3,0,0.5-0.1,0.8s-0.1,0.5-0.1,0.6v0.2h-3.9v7.7c0,1.3,0.2,2.2,0.7,2.7
				s1.3,0.7,2.4,0.7l1.1-0.1c0.2,0.5,0.3,1.1,0.3,1.7c0,0.3,0,0.5-0.1,0.8c0,0.3-0.1,0.4-0.1,0.6v0.2c-0.7,0.2-1.5,0.3-2.4,0.3
				c-2.1,0-3.6-0.5-4.6-1.6s-1.5-2.7-1.5-4.9v-8h-2.5C152.9,161.2,152.9,160.6,152.9,160z"/>
			<path class="st1" d="M167.2,175.5v-24.3c0.4-0.2,1.1-0.3,2.1-0.3c0.4,0,0.8,0,1.1,0.1c0.4,0,0.6,0.1,0.8,0.1l0.2,0.1v8.4
				c1.2-1.1,2.7-1.6,4.5-1.6c1.7,0,2.9,0.5,3.8,1.4c0.9,0.9,1.4,2.1,1.4,3.7v12.5c-0.5,0.2-1.2,0.3-2.1,0.3c-0.4,0-0.8,0-1.2-0.1
				c-0.3,0-0.6-0.1-0.7-0.1l-0.2-0.1v-11.7c0-0.7-0.2-1.3-0.6-1.8s-1.1-0.6-2-0.6c-1.1,0-2.1,0.4-2.9,1.2v12.9
				c-0.5,0.2-1.2,0.3-2.1,0.3c-0.4,0-0.8,0-1.2-0.1c-0.3,0-0.6-0.1-0.7-0.1L167.2,175.5z"/>
		</g>
	</g>
	<g>
		<path class="st1" d="M91.4,113.6c0-9.9,2.4-17.3,7.1-22.3s11.7-7.7,20.8-8.3c0.5,1.1,0.7,2.3,0.7,3.6s-0.2,2.6-0.7,3.8
			c-4.9,0.6-8.8,1.8-11.6,3.8s-4.7,4.9-5.8,8.9c2.7-0.6,5.2-0.9,7.5-0.9c2.1,0,4.1,0.3,5.8,0.9c1.8,0.6,3.3,1.4,4.7,2.6
			c1.4,1.2,2.5,2.8,3.3,4.8c0.8,2,1.2,4.3,1.2,7c0,5.2-1.4,9.1-4.2,11.6c-2.8,2.5-6.9,3.8-12.2,3.8c-5.3,0-9.3-1.6-12.2-4.7
			S91.4,120.1,91.4,113.6z M100.6,113.8c0,7.9,2.4,11.9,7.3,11.9c2.3,0,4-0.7,5.3-2.1s1.9-3.5,1.9-6.3c0-5.4-2.5-8.2-7.4-8.2
			c-2.2,0-4.6,0.4-7,1.1C100.7,111.1,100.6,112.2,100.6,113.8z"/>
		<path class="st1" d="M131.2,113.6c0-9.9,2.4-17.3,7.1-22.3s11.7-7.7,20.8-8.3c0.5,1.1,0.7,2.3,0.7,3.6s-0.2,2.6-0.7,3.8
			c-4.9,0.6-8.8,1.8-11.6,3.8s-4.7,4.9-5.8,8.9c2.7-0.6,5.2-0.9,7.5-0.9c2.1,0,4.1,0.3,5.8,0.9c1.8,0.6,3.3,1.4,4.7,2.6
			c1.4,1.2,2.5,2.8,3.3,4.8c0.8,2,1.2,4.3,1.2,7c0,5.2-1.4,9.1-4.2,11.6c-2.8,2.5-6.9,3.8-12.2,3.8s-9.3-1.6-12.2-4.7
			C132.7,124.9,131.2,120.1,131.2,113.6z M140.4,113.8c0,7.9,2.4,11.9,7.3,11.9c2.3,0,4-0.7,5.3-2.1s1.9-3.5,1.9-6.3
			c0-5.4-2.5-8.2-7.4-8.2c-2.2,0-4.6,0.4-7,1.1C140.5,111.1,140.4,112.2,140.4,113.8z"/>
	</g>
</g>
</svg>
