<svg xmlns="http://www.w3.org/2000/svg" viewBox="0 0 375 157"><defs xmlns="http://www.w3.org/2000/svg"><style type="text/css"><![CDATA[@font-face {font-family: 'GloberBook';src: url('/assets/fonts/webfonts/316613_0_0.eot');src: url('/assets/fonts/webfonts/316613_0_0.eot?#iefix') format('embedded-opentype'),url('/assets/fonts/webfonts/316613_0_0.woff2') format('woff2'),url('/assets/fonts/webfonts/316613_0_0.woff') format('woff'),url('/assets/fonts/webfonts/316613_0_0.ttf') format('truetype');}@font-face {font-family: 'Glober';font-weight: bold;font-style: normal;src: url('/assets/fonts/webfonts/316613_1_0.eot');src: url('/assets/fonts/webfonts/316613_1_0.eot?#iefix') format('embedded-opentype'),url('/assets/fonts/webfonts/316613_1_0.woff2') format('woff2'),url('/assets/fonts/webfonts/316613_1_0.woff') format('woff'),url('/assets/fonts/webfonts/316613_1_0.ttf') format('truetype');}@font-face {font-family: 'Glober';font-weight: bold;font-style: italic;src: url('/assets/fonts/webfonts/316613_2_0.eot');src: url('/assets/fonts/webfonts/316613_2_0.eot?#iefix') format('embedded-opentype'),url('/assets/fonts/webfonts/316613_2_0.woff2') format('woff2'),url('/assets/fonts/webfonts/316613_2_0.woff') format('woff'),url('/assets/fonts/webfonts/316613_2_0.ttf') format('truetype');}@font-face {font-family: 'GloberBookItalic';src: url('/assets/fonts/webfonts/316613_3_0.eot');src: url('/assets/fonts/webfonts/316613_3_0.eot?#iefix') format('embedded-opentype'),url('/assets/fonts/webfonts/316613_3_0.woff2') format('woff2'),url('/assets/fonts/webfonts/316613_3_0.woff') format('woff'),url('/assets/fonts/webfonts/316613_3_0.ttf') format('truetype');}@font-face {font-family: 'Glober';font-weight: normal;font-style: normal;src: url('/assets/fonts/webfonts/316613_4_0.eot');src: url('/assets/fonts/webfonts/316613_4_0.eot?#iefix') format('embedded-opentype'),url('/assets/fonts/webfonts/316613_4_0.woff2') format('woff2'),url('/assets/fonts/webfonts/316613_4_0.woff') format('woff'),url('/assets/fonts/webfonts/316613_4_0.ttf') format('truetype');}@font-face {font-family: 'Glober';font-weight: normal;font-style: italic;src: url('/assets/fonts/webfonts/316613_5_0.eot');src: url('/assets/fonts/webfonts/316613_5_0.eot?#iefix') format('embedded-opentype'),url('/assets/fonts/webfonts/316613_5_0.woff2') format('woff2'),url('/assets/fonts/webfonts/316613_5_0.woff') format('woff'),url('/assets/fonts/webfonts/316613_5_0.ttf') format('truetype');}]]></style></defs><title>bone-study-1-mobile</title><text transform="translate(14.52 125.41)" font-size="49.16" fill="#fff" font-family=" Glober" font-weight="700">6</text><path d="M313.75,30.54c-2.86.14-21.05.31-24.67.5a6.2,6.2,0,0,0-1.67.27c-1.91.69-3.65,1.49-5.94,1.13-2.1-.34-3.37,1.27-3.57,3.37-.18,1.75-.9,2.54-2.48,2.72a3.74,3.74,0,0,1-3.63-2.2A3.09,3.09,0,0,1,273,32.65a9.66,9.66,0,0,0,2.3-2c.93-1.28.52-2.22-1-2.77-1.18-.44-1.29-1.13-.3-1.93,2.55-2.06,4.63-2.11,7.69-.84a16,16,0,0,0,5.58,1.05c10.64.26,23.42.49,34.06.51,3.77,0,18.88-.56,22.65-.93a6.85,6.85,0,0,0,4.37-2.07,4.87,4.87,0,0,1,3.48-1.54,13.87,13.87,0,0,0,1.68-.24c1-.16,2.1-.62,2.7.7s.24,3.35-.86,4c-.68.41-1.59.79-1.17,1.67a3.16,3.16,0,0,0,1.7,1.47A2.19,2.19,0,0,1,357.45,32,2.28,2.28,0,0,1,356,34.28c-2.84,1.52-5.43,1.06-8.2-.25-4.05-1.92-19.83-2.51-24.29-2.71C316.36,31,321.64,30.81,313.75,30.54Z" fill="#fff"/><text transform="translate(274.4 97.4)" font-size="12.96" fill="#fff" font-family=" Glober" font-weight="700">Bone <tspan x="31.8" y="0" letter-spacing="0em">M</tspan><tspan x="42.51" y="0">ine</tspan><tspan x="59.64" y="0" letter-spacing="-0.01em">r</tspan><tspan x="64.7" y="0">al </tspan><tspan x="-10.75" y="16.88">Densit</tspan><tspan x="25.8" y="16.88" letter-spacing="-0.02em">y</tspan><tspan x="32.41" y="16.88" letter-spacing="0em"> </tspan><tspan x="35.19" y="16.88" letter-spacing="0em">I</tspan><tspan x="38.85" y="16.88" letter-spacing="0em">nc</tspan><tspan x="51.73" y="16.88" letter-spacing="-0.01em">r</tspan><tspan x="56.71" y="16.88" letter-spacing="0em">eases</tspan><tspan x="12.85" y="33.75" letter-spacing="-0.01em">A</tspan><tspan x="21.36" y="33.75">chi</tspan><tspan x="37.6" y="33.75" letter-spacing="-0.01em">e</tspan><tspan x="44.19" y="33.75" letter-spacing="-0.01em">v</tspan><tspan x="50.82" y="33.75" letter-spacing="0em">ed</tspan></text><text transform="translate(284.17 75.33)" font-size="39.47" fill="#fff" font-family=" Glober" font-weight="700">&gt;2</text><text transform="translate(322.63 62.18) scale(0.58 0.58)" font-size="39.47" fill="#fff" font-family=" Glober" font-weight="700" letter-spacing="0em">%</text><path d="M184.57,52.7v1.44c0,3.62,0,7.24,0,10.86a1.62,1.62,0,0,0,1.65,1.8,1.7,1.7,0,0,0,2-1.62,9.58,9.58,0,0,0,.06-1.31V54c0-.42.06-.84.09-1.37h2.55c-.07-.45-.1-.76-.18-1.06-.65-2.58-1.31-5.15-2-7.73-.51-2-1.05-4-1.53-6-.06-.22.15-.51.24-.77a4.3,4.3,0,0,1,.51.54,2.1,2.1,0,0,1,.17.57c.85,3.14,1.69,6.28,2.55,9.42.37,1.38,1.09,2,2,1.67s1.16-1,.78-2.38c-1.13-4.09-2.28-8.18-3.4-12.28a2,2,0,0,0-2.26-1.67c-2.67,0-5.33,0-8,0-1.48,0-1.92.39-2.33,1.87q-1,3.49-1.94,7c-.49,1.76-1,3.53-1.47,5.28-.28,1-.19,1.76.85,2.15.83.31,1.51-.19,1.87-1.31.07-.22.13-.45.2-.68.85-3.1,1.69-6.21,2.57-9.3a3.57,3.57,0,0,1,.62-.87,2.73,2.73,0,0,1,.13,1c-1.05,4.2-2.14,8.39-3.21,12.58-.16.62-.27,1.26-.44,2h2.7v1.4c0,3.27,0,6.53,0,9.79,0,2.17.52,3,1.89,3s1.82-.79,1.82-3V54c0-.43,0-.85.06-1.32ZM180,28a3.75,3.75,0,0,0,3.87,3.81,3.8,3.8,0,0,0,3.78-3.92,3.76,3.76,0,0,0-3.84-3.73A3.68,3.68,0,0,0,180,28Z" fill="#fff"/><path d="M185.05,52.7h-1.44c0,.47-.06.89-.06,1.32v9.79c0,2.21-.48,3-1.82,3s-1.89-.78-1.89-3q0-4.89,0-9.79v-1.4h-2.7c.17-.78.29-1.42.45-2,1.07-4.19,2.16-8.38,3.21-12.58a3,3,0,0,0-.13-1,3.32,3.32,0,0,0-.62.87c-.88,3.09-1.72,6.2-2.58,9.3-.06.23-.12.46-.2.68-.35,1.12-1,1.62-1.86,1.31-1-.39-1.13-1.18-.85-2.15.5-1.75,1-3.52,1.47-5.28q1-3.49,1.94-7c.41-1.48.85-1.86,2.33-1.87,2.67,0,5.33,0,8,0a2,2,0,0,1,2.26,1.67c1.12,4.1,2.27,8.19,3.4,12.28.37,1.37.12,2.1-.78,2.38s-1.63-.29-2-1.67c-.85-3.14-1.69-6.28-2.54-9.42a2.1,2.1,0,0,0-.17-.57,5.18,5.18,0,0,0-.51-.54c-.09.26-.3.55-.24.77.48,2,1,4,1.53,6,.66,2.58,1.32,5.15,2,7.73.07.3.1.61.18,1.06h-2.55c0,.53-.09.95-.09,1.37,0,3.3,0,6.6,0,9.91a11.49,11.49,0,0,1-.06,1.31,1.71,1.71,0,0,1-2,1.62,1.64,1.64,0,0,1-1.66-1.8c0-3.62,0-7.24,0-10.86Z" fill="#fff"/><path d="M180,28a3.68,3.68,0,0,1,3.81-3.84,3.76,3.76,0,0,1,3.84,3.73,3.8,3.8,0,0,1-3.78,3.92A3.75,3.75,0,0,1,180,28Z" fill="#fff"/><text transform="translate(145.94 130.35)" font-size="14.58" fill="#fff" font-family=" Glober" font-weight="700" letter-spacing="-0.01em">P<tspan x="8.65" y="0" letter-spacing="0em">articipants</tspan></text><text transform="translate(151.13 108.45) rotate(0.01)" font-size="43.99" fill="#fff" font-family=" Glober" font-weight="700">216</text><text transform="translate(48.66 105.05)" font-size="17.12" fill="#fff" font-family=" Glober" font-weight="700"><tspan letter-spacing="-0.01em">M</tspan><tspan x="14.12" y="0">onth</tspan><tspan x="0" y="20.55" letter-spacing="-0.01em">S</tspan><tspan x="9.57" y="20.55">tud</tspan><tspan x="35.12" y="20.55" letter-spacing="-0.02em">y</tspan></text><line x1="121.04" y1="158.02" x2="121.04" y2="-4.5" fill="none" stroke="#fff" stroke-linecap="round" stroke-linejoin="round" stroke-width="3.57" stroke-dasharray="0.45 7.15"/><line x1="248.57" y1="158.02" x2="248.57" y2="-4.5" fill="none" stroke="#fff" stroke-linecap="round" stroke-linejoin="round" stroke-width="3.57" stroke-dasharray="0.45 7.15"/><rect x="42.09" y="24.26" width="1.52" height="6.76" rx="0.41" ry="0.41" fill="#fff"/><rect x="47.92" y="24.26" width="1.52" height="6.76" rx="0.41" ry="0.41" fill="#fff"/><rect x="54" y="24.26" width="1.52" height="6.76" rx="0.41" ry="0.41" fill="#fff"/><rect x="59.83" y="24.26" width="1.52" height="6.76" rx="0.41" ry="0.41" fill="#fff"/><rect x="65.66" y="24.26" width="1.52" height="6.76" rx="0.41" ry="0.41" fill="#fff"/><rect x="71.75" y="24.26" width="1.52" height="6.76" rx="0.41" ry="0.41" fill="#fff"/><path d="M84.19,28.37a1.38,1.38,0,0,0-1-.91,30.77,30.77,0,0,0-3.38-.05v1.45a2.47,2.47,0,0,1,0,.66l0,.2v1.5a.83.83,0,0,1-.83.83H77.14a.83.83,0,0,1-.83-.83V27.5a9.81,9.81,0,0,0-2,.11v3.61a.83.83,0,0,1-.83.83H71.57a.84.84,0,0,1-.84-.83V27.56s-.06-.06-.09-.06a6.57,6.57,0,0,0-2.35.11c-.05,0-.07.09-.09.19v3.42a.84.84,0,0,1-.84.83H65.48a.83.83,0,0,1-.83-.83V27.45a7,7,0,0,0-1.35-.05,2.59,2.59,0,0,0-.93.15v3.67a.84.84,0,0,1-.84.83H59.65a.83.83,0,0,1-.83-.83V27.59a8.71,8.71,0,0,0-2.28,0v3.65a.84.84,0,0,1-.84.83H53.82a.83.83,0,0,1-.83-.83V27.51s0,0,0,0a7.09,7.09,0,0,0-2.35.14c-.16.05,0,1.14,0,1.75,0,.09.07.19,0,.26s-.11.3-.16.45v1.13a.83.83,0,0,1-.83.83H47.74a.84.84,0,0,1-.84-.83V27.5a7,7,0,0,0-2.14.13c-.16,0,0,1.15-.1,1.75,0,.06,0,.12,0,.18v1.66a.83.83,0,0,1-.83.83H41.91a.84.84,0,0,1-.84-.83V27.43s0,0,0,0c-1,0-1.87,0-2.74,0s-1.21.44-1.21,1.28c0,1,0,2.08,0,3.12,0,1.95.08,2,2,2h43c.34,0,.74.12,1,0,.41-.24,1-.64,1-1A29.51,29.51,0,0,0,84.19,28.37Z" fill="#fff"/><rect x="77.32" y="24.26" width="1.52" height="6.76" rx="0.41" ry="0.41" fill="#fff"/><path d="M62.54,34.88H82.43c1.57,0,1.75.2,1.75,2.12q0,15.93,0,31.86c0,1.9-.15,2.08-1.65,2.08H38.76c-1.62,0-1.84-.24-1.84-2.06q0-16,0-32c0-1.81.19-2,1.87-2ZM50,68.73c0-1.36,0-2.6,0-3.83s-1-1.22-1.67-1.07c-1.1.24-2.88-1-3.2,1-.59,3.83-.18,4.19,3.6,4C49.06,68.87,49.4,68.8,50,68.73ZM43.44,66.4c0-2.61,0-2.61-2.32-2.61-2.58,0-2.6,0-2.58,2.36,0,2.9-.42,2.73,2.49,2.74S43.39,69,43.44,66.4Zm21.16-.12c.05,2.74-.42,2.6,2.45,2.61,2.39,0,2.39,0,2.39-2.53s0-2.57-2.38-2.57S64.6,63.79,64.6,66.28ZM63,68.85c0-1.51.06-2.8,0-4.07a1.34,1.34,0,0,0-.86-.93,20.43,20.43,0,0,0-3.13,0c-1.1,0-1,1-.83,1.62.22,1.14-.88,2.82.75,3.34C60.05,69.17,61.47,68.85,63,68.85Zm-9.06,0c2.88,0,2.51.11,2.53-2.38,0-2.72,0-2.72-2.23-2.72-2.59,0-2.6,0-2.59,2.48C51.63,69.16,51.34,68.85,53.89,68.89ZM51.6,46.08c0,3-.2,2.63,2.67,2.66,2.16,0,2.17,0,2.15-2.63,0-2.89.27-2.27-3.21-2.47C51,43.51,51.76,45.09,51.6,46.08Zm21.95,11c-2.53,0-2.53,0-2.53,2.36,0,2.69,0,2.69,2.24,2.69,2.68,0,2.7,0,2.68-2.39C75.93,56.82,76.18,57.15,73.55,57.12ZM63,59.76c0-2.64,0-2.66-2.14-2.64-2.9,0-2.77-.37-2.76,2.3,0,2.91-.33,2.74,2.51,2.75C63,62.18,63,62.17,63,59.76Zm-15.4-2.64c-2.49,0-2.49,0-2.5,2.41,0,2.64,0,2.64,2.45,2.64s2.49,0,2.48-2.43C50,56.85,50.26,57.14,47.56,57.12Zm-4.12,2.43c0-2.43,0-2.45-2.18-2.43-2.95,0-2.7-.35-2.72,2.51,0,2.54,0,2.55,2.42,2.54C43.79,62.16,43.41,62.33,43.44,59.55ZM80,55.41c2.77,0,2.42.24,2.45-2.77,0-2.26,0-2.26-2.38-2.26s-2.52,0-2.5,2.41C77.61,55.67,77.27,55.38,80,55.41Zm-6.57,0c2.5,0,2.51,0,2.49-2.44,0-2.7.35-2.58-2.51-2.59-2.41,0-2.41,0-2.41,2.54S71,55.41,73.45,55.41Zm-13,0C63,55.41,63,55.41,63,53c0-2.64,0-2.64-2.46-2.64s-2.45,0-2.44,2.34C58.07,55.68,57.81,55.38,60.44,55.41Zm-13,0c2.73,0,2.51.3,2.53-2.39s0-2.64-2.31-2.64c-2.61,0-2.63,0-2.61,2.34C45.08,55.67,44.8,55.38,47.46,55.41Zm-4-2.38c0-2.65,0-2.65-2.29-2.65-2.61,0-2.62,0-2.61,2.48,0,2.88-.2,2.52,2.53,2.54C43.44,55.42,43.44,55.41,43.44,53Zm39-6.79c0-2.56,0-2.57-2.23-2.56-2.95,0-2.65-.29-2.64,2.41s-.42,2.64,2.42,2.65C82.47,48.74,82.47,48.74,82.47,46.24Zm-9-2.56c-2.48,0-2.5,0-2.48,2.26,0,3-.36,2.78,2.43,2.8,2.5,0,2.5,0,2.5-2.59S76,43.68,73.5,43.68ZM63,46.15c0-2.74.27-2.46-2.61-2.46-2.64,0-2.27-.18-2.29,2.79,0,2.26,0,2.26,2.53,2.26C63,48.74,63,48.74,63,46.15ZM50,46.2c0-2.52,0-2.53-2.23-2.52-2.95,0-2.67-.29-2.69,2.36s0,2.7,2.39,2.7C50.33,48.73,50,48.89,50,46.2Zm-8.87-2.52c-2.58,0-2.58,0-2.58,2.37,0,2.69,0,2.69,2.27,2.69,2.63,0,2.65,0,2.63-2.31C43.41,43.44,43.78,43.71,41.12,43.68Zm28.32,2.37c0-2.37,0-2.38-2-2.36-3.08,0-2.77-.38-2.79,2.55,0,2.5,0,2.5,2.43,2.5S69.44,48.74,69.44,46.05ZM80,42c2.59,0,2.44.37,2.45-2.45,0-2.63,0-2.64-2.46-2.63-2.75,0-2.41-.18-2.42,2.65S77.34,42,80,42Zm-6.48,0c2.54,0,2.41.39,2.4-2.5s.2-2.55-2.66-2.58c-2.26,0-2.27,0-2.26,2.7S70.87,42,73.54,42Zm-4.37,0c1-4.37.31-5.36-3.41-5-.05,0-.13,0-.15,0-.34.39-1,.82-1,1.17.15,1.29-.72,2.76.56,3.86,0,0,.09,0,.14,0ZM60.5,42c2.64,0,2.46.37,2.45-2.42s.28-2.64-2.58-2.66c-2.32,0-2.32,0-2.31,2.63C58.07,42.35,57.88,42,60.5,42ZM80.11,57.12c-2.73,0-2.53-.28-2.52,2.22,0,2.93-.41,2.82,2.26,2.83s2.62,0,2.62-2.48S82.47,57.12,80.11,57.12ZM51.74,55.4c1.39,0,2.58,0,3.77,0,.3,0,.81-.38.83-.61a27,27,0,0,0,0-3.71c0-.23-.52-.57-.84-.63-3.51-.63-4-.19-3.88,3.42C51.62,54.3,51.69,54.75,51.74,55.4Zm15.28,0c2.53,0,2.4.39,2.42-2.5,0-2.53,0-2.53-2.28-2.53-2.56,0-2.57,0-2.56,2.53C64.61,55.66,64.36,55.38,67,55.41ZM51.88,57.14c-1,4.32-.29,5.38,3.42,5,.1,0,.27,0,.29,0,.29-.55.84-1.15.77-1.67-.14-1.1.79-2.49-.66-3.31a.32.32,0,0,0-.14,0ZM64.6,59.51c0,2.66,0,2.66,2.3,2.66,2.54,0,2.54,0,2.54-2.42,0-2.63,0-2.65-2.16-2.63C64.4,57.14,64.63,56.77,64.6,59.51Z" fill="#fff"/></svg>
