<svg xmlns="http://www.w3.org/2000/svg" viewBox="0 0 1100 188"><defs xmlns="http://www.w3.org/2000/svg"><style type="text/css"><![CDATA[@font-face {font-family: 'GloberBook';src: url('/assets/fonts/webfonts/316613_0_0.eot');src: url('/assets/fonts/webfonts/316613_0_0.eot?#iefix') format('embedded-opentype'),url('/assets/fonts/webfonts/316613_0_0.woff2') format('woff2'),url('/assets/fonts/webfonts/316613_0_0.woff') format('woff'),url('/assets/fonts/webfonts/316613_0_0.ttf') format('truetype');}@font-face {font-family: 'Glober';font-weight: bold;font-style: normal;src: url('/assets/fonts/webfonts/316613_1_0.eot');src: url('/assets/fonts/webfonts/316613_1_0.eot?#iefix') format('embedded-opentype'),url('/assets/fonts/webfonts/316613_1_0.woff2') format('woff2'),url('/assets/fonts/webfonts/316613_1_0.woff') format('woff'),url('/assets/fonts/webfonts/316613_1_0.ttf') format('truetype');}@font-face {font-family: 'Glober';font-weight: bold;font-style: italic;src: url('/assets/fonts/webfonts/316613_2_0.eot');src: url('/assets/fonts/webfonts/316613_2_0.eot?#iefix') format('embedded-opentype'),url('/assets/fonts/webfonts/316613_2_0.woff2') format('woff2'),url('/assets/fonts/webfonts/316613_2_0.woff') format('woff'),url('/assets/fonts/webfonts/316613_2_0.ttf') format('truetype');}@font-face {font-family: 'GloberBookItalic';src: url('/assets/fonts/webfonts/316613_3_0.eot');src: url('/assets/fonts/webfonts/316613_3_0.eot?#iefix') format('embedded-opentype'),url('/assets/fonts/webfonts/316613_3_0.woff2') format('woff2'),url('/assets/fonts/webfonts/316613_3_0.woff') format('woff'),url('/assets/fonts/webfonts/316613_3_0.ttf') format('truetype');}@font-face {font-family: 'Glober';font-weight: normal;font-style: normal;src: url('/assets/fonts/webfonts/316613_4_0.eot');src: url('/assets/fonts/webfonts/316613_4_0.eot?#iefix') format('embedded-opentype'),url('/assets/fonts/webfonts/316613_4_0.woff2') format('woff2'),url('/assets/fonts/webfonts/316613_4_0.woff') format('woff'),url('/assets/fonts/webfonts/316613_4_0.ttf') format('truetype');}@font-face {font-family: 'Glober';font-weight: normal;font-style: italic;src: url('/assets/fonts/webfonts/316613_5_0.eot');src: url('/assets/fonts/webfonts/316613_5_0.eot?#iefix') format('embedded-opentype'),url('/assets/fonts/webfonts/316613_5_0.woff2') format('woff2'),url('/assets/fonts/webfonts/316613_5_0.woff') format('woff'),url('/assets/fonts/webfonts/316613_5_0.ttf') format('truetype');}]]></style></defs><title>bone-study-1</title><text transform="translate(180.26 130.7)" font-size="86.31" fill="#fff" font-family=" Glober" font-weight="700">6</text><path d="M412,116.77v2.53c0,6.35,0,12.71,0,19.07a2.86,2.86,0,0,0,2.9,3.15,3,3,0,0,0,3.44-2.85,17.63,17.63,0,0,0,.11-2.3c0-5.8,0-11.6,0-17.39,0-.74.1-1.47.16-2.41h4.48c-.13-.78-.19-1.33-.32-1.86q-1.71-6.78-3.46-13.56c-.9-3.51-1.84-7-2.69-10.53-.09-.4.27-.9.43-1.36a7.22,7.22,0,0,1,.89.95,3.53,3.53,0,0,1,.3,1c1.49,5.51,3,11,4.47,16.53.66,2.42,1.91,3.44,3.52,2.94s2-1.77,1.36-4.18c-2-7.19-4-14.37-6-21.56a3.6,3.6,0,0,0-4-2.93c-4.68.06-9.36,0-14,0-2.6,0-3.38.69-4.09,3.29-1.13,4.09-2.28,8.18-3.41,12.27-.86,3.09-1.69,6.19-2.59,9.27-.49,1.69-.32,3.09,1.51,3.78,1.44.54,2.65-.35,3.27-2.3.12-.4.23-.8.35-1.21,1.5-5.44,3-10.89,4.52-16.32a5.75,5.75,0,0,1,1.09-1.53,5,5,0,0,1,.22,1.76c-1.84,7.37-3.75,14.72-5.63,22.08-.28,1.09-.48,2.21-.78,3.59h4.74v2.46c0,5.73,0,11.45,0,17.18,0,3.81.91,5.2,3.31,5.18s3.19-1.39,3.2-5.27c0-5.73,0-11.46,0-17.19,0-.74.07-1.49.11-2.31Zm-8-43.4a6.58,6.58,0,0,0,6.79,6.69,6.68,6.68,0,0,0,6.64-6.89,6.61,6.61,0,0,0-6.74-6.55A6.48,6.48,0,0,0,404,73.37Z" fill="#fff"/><path d="M412.82,116.77H410.3c0,.82-.11,1.57-.11,2.31,0,5.73,0,11.46,0,17.19,0,3.88-.84,5.24-3.2,5.27s-3.31-1.37-3.32-5.18c0-5.73,0-11.45,0-17.18v-2.46h-4.74c.3-1.38.5-2.5.78-3.59,1.88-7.36,3.79-14.71,5.63-22.08a5,5,0,0,0-.22-1.76A5.75,5.75,0,0,0,404,90.82c-1.55,5.43-3,10.88-4.53,16.32-.11.41-.22.81-.34,1.21-.62,2-1.83,2.84-3.27,2.3-1.83-.69-2-2.09-1.51-3.78.9-3.08,1.73-6.18,2.58-9.27l3.42-12.27c.71-2.6,1.49-3.27,4.09-3.29,4.68,0,9.36,0,14,0a3.59,3.59,0,0,1,4,2.93c2,7.19,4,14.37,6,21.56.67,2.41.23,3.68-1.36,4.18s-2.86-.52-3.52-2.94c-1.51-5.5-3-11-4.47-16.53a3.53,3.53,0,0,0-.3-1,7.3,7.3,0,0,0-.9-.95c-.15.46-.52,1-.42,1.36.85,3.52,1.79,7,2.69,10.53q1.74,6.78,3.46,13.56c.13.53.18,1.08.32,1.86h-4.48c-.06.94-.16,1.67-.16,2.41,0,5.79,0,11.59,0,17.39a17.63,17.63,0,0,1-.1,2.3,3,3,0,0,1-3.44,2.85,2.86,2.86,0,0,1-2.9-3.15c-.05-6.36,0-12.72,0-19.07Z" fill="#fff"/><path d="M404,73.37a6.48,6.48,0,0,1,6.69-6.75,6.61,6.61,0,0,1,6.74,6.55,6.68,6.68,0,0,1-6.64,6.89A6.58,6.58,0,0,1,404,73.37Z" fill="#fff"/><text transform="translate(237.36 94.95)" font-size="30.06" fill="#fff" font-family=" Glober" font-weight="700"><tspan letter-spacing="-0.01em">M</tspan><tspan x="24.79" y="0">onth</tspan><tspan letter-spacing="-0.01em"><tspan x="0" y="36.08">S</tspan><tspan x="16.79" y="36.08" letter-spacing="0em">tud</tspan><tspan x="61.65" y="36.08" letter-spacing="-0.02em">y</tspan></tspan></text><path d="M690.21,101.74c.23,4.62.51,10.44.83,16.27a9,9,0,0,0,.46,2.69c1.16,3.09,2.49,5.9,1.89,9.59-.56,3.39,2.13,5.43,5.66,5.76,2.94.28,4.27,1.45,4.57,4a6,6,0,0,1-3.69,5.84,5.3,5.3,0,0,1-6.19-2,15.39,15.39,0,0,0-3.36-3.69c-2.15-1.51-3.72-.85-4.65,1.58-.73,1.9-1.89,2.08-3.23.48-3.47-4.12-3.56-7.48-1.43-12.41a24.75,24.75,0,0,0,1.77-9c.44-17.15.83-14.26.86-31.42,0-6.08-1-12.17-1.56-18.24a10.86,10.86,0,0,0-3.48-7,7.75,7.75,0,0,1-2.59-5.6,20.81,20.81,0,0,0-.39-2.71c-.28-1.63-1.06-3.39,1.17-4.36s5.63-.39,6.76,1.39c.69,1.1,1.33,2.57,2.82,1.89A5.34,5.34,0,0,0,688.9,52a3.67,3.67,0,0,1,3.76-2.49,3.84,3.84,0,0,1,3.83,2.35c2.55,4.58,1.78,8.76-.42,13.22-3.24,6.54-4.22,13.7-4.56,20.89C691,97.52,690.66,89,690.21,101.74Z" fill="#fff"/><text transform="matrix(1, 0.01, -0.01, 1, 715.9, 120.49)" font-size="69.29" fill="#fff" font-family=" Glober" font-weight="700">&gt;2</text><text transform="matrix(0.58, 0.01, -0.01, 0.58, 783.66, 98.1)" font-size="69.29" fill="#fff" font-family=" Glober" font-weight="700">%</text><text transform="translate(828.25 82.93)" font-size="25.59" fill="#fff" font-family=" Glober" font-weight="700">Bone <tspan x="62.8" y="0" letter-spacing="0em">M</tspan><tspan x="83.95" y="0" letter-spacing="0em">ine</tspan><tspan x="117.78" y="0" letter-spacing="-0.01em">r</tspan><tspan x="127.79" y="0">al </tspan><tspan x="0" y="26.79">Densit</tspan><tspan x="72.19" y="26.79" letter-spacing="-0.02em">y</tspan><tspan x="85.24" y="26.79"> </tspan><tspan x="90.73" y="26.79" letter-spacing="0em">I</tspan><tspan x="97.97" y="26.79">nc</tspan><tspan x="123.39" y="26.79" letter-spacing="-0.01em">r</tspan><tspan x="133.24" y="26.79" letter-spacing="0em">eases</tspan><tspan x="0" y="53.57" letter-spacing="-0.01em">A</tspan><tspan x="16.8" y="53.57">chi</tspan><tspan x="48.88" y="53.57" letter-spacing="-0.01em">e</tspan><tspan x="61.9" y="53.57" letter-spacing="-0.01em">v</tspan><tspan x="74.99" y="53.57">ed</tspan></text><text transform="translate(447.93 140.78)" font-size="25.59" fill="#fff" font-family=" Glober" font-weight="700"><tspan letter-spacing="-0.01em">P</tspan><tspan x="15.19" y="0">articipants</tspan></text><text transform="translate(461.07 110.89) rotate(0.01)" font-size="68.99" fill="#fff" font-family=" Glober" font-weight="700">216</text><line x1="361.57" y1="187.43" x2="361.57" y2="1.21" fill="none" stroke="#fff" stroke-linecap="round" stroke-linejoin="round" stroke-width="3.45" stroke-dasharray="0.43 6.9"/><line x1="623.85" y1="187.43" x2="623.85" y2="1.21" fill="none" stroke="#fff" stroke-linecap="round" stroke-linejoin="round" stroke-width="3.45" stroke-dasharray="0.43 6.9"/><rect x="85.18" y="57.6" width="2.67" height="11.86" rx="0.46" ry="0.46" fill="#fff"/><rect x="95.41" y="57.6" width="2.67" height="11.86" rx="0.46" ry="0.46" fill="#fff"/><rect x="106.09" y="57.6" width="2.67" height="11.86" rx="0.46" ry="0.46" fill="#fff"/><rect x="116.33" y="57.6" width="2.67" height="11.86" rx="0.46" ry="0.46" fill="#fff"/><rect x="126.57" y="57.6" width="2.67" height="11.86" rx="0.46" ry="0.46" fill="#fff"/><rect x="137.25" y="57.6" width="2.67" height="11.86" rx="0.46" ry="0.46" fill="#fff"/><path d="M159.09,64.82a2.41,2.41,0,0,0-1.66-1.6,52.21,52.21,0,0,0-6-.08s0,0,0,0v2.5a4.16,4.16,0,0,1,0,1.16c0,.11,0,.24,0,.35v2.64A1.46,1.46,0,0,1,150,71.28h-3.3a1.46,1.46,0,0,1-1.46-1.46V63.29a16.2,16.2,0,0,0-3.56.2v6.33a1.46,1.46,0,0,1-1.47,1.46h-3.3a1.46,1.46,0,0,1-1.46-1.46V63.4c-.06,0-.12-.11-.18-.11a11.12,11.12,0,0,0-4.12.2c-.08,0-.12.15-.15.33v6a1.46,1.46,0,0,1-1.47,1.46h-3.3a1.46,1.46,0,0,1-1.47-1.46V63.2a11.07,11.07,0,0,0-2.36-.08,4.61,4.61,0,0,0-1.64.26v6.44a1.46,1.46,0,0,1-1.46,1.46H116a1.46,1.46,0,0,1-1.46-1.46V63.45a15,15,0,0,0-4,0v6.4a1.46,1.46,0,0,1-1.46,1.46h-3.3a1.46,1.46,0,0,1-1.47-1.46v-6.5s0,0-.07,0a12.07,12.07,0,0,0-4.12.24c-.28.08-.06,2-.06,3.08,0,.15.12.32.07.44s-.18.53-.27.81v2a1.46,1.46,0,0,1-1.46,1.46H95.1a1.46,1.46,0,0,1-1.47-1.46V63.3a12.09,12.09,0,0,0-3.76.21c-.28.07,0,2-.18,3.08l-.06.32v2.91a1.46,1.46,0,0,1-1.47,1.46h-3.3a1.46,1.46,0,0,1-1.46-1.46V63.13c-1.72,0-3.27,0-4.8,0s-2.13.77-2.12,2.24c0,1.83,0,3.65,0,5.47,0,3.42.13,3.54,3.54,3.54h75.56c.59,0,1.3.2,1.75-.06.71-.42,1.74-1.11,1.79-1.76A51.15,51.15,0,0,0,159.09,64.82Z" fill="#fff"/><rect x="147.04" y="57.6" width="2.67" height="11.86" rx="0.46" ry="0.46" fill="#fff"/><path d="M121.07,76.25H156c2.77,0,3.08.34,3.08,3.73q0,28,0,55.93c0,3.32-.26,3.64-2.9,3.65H79.33c-2.85,0-3.22-.41-3.23-3.61q0-28.09,0-56.2c0-3.18.34-3.49,3.28-3.5Q100.23,76.23,121.07,76.25Zm-22,59.43c0-2.4,0-4.57,0-6.74,0-2.4-1.72-2.13-2.94-1.87-1.93.42-5.06-1.81-5.62,1.81-1,6.73-.31,7.35,6.31,7.06C97.41,135.92,98,135.8,99.05,135.68Zm-11.5-4.1c0-4.58,0-4.58-4.07-4.58-4.53,0-4.57,0-4.52,4.15.05,5.08-.75,4.79,4.36,4.8S87.46,136.08,87.55,131.58Zm37.15-.22c.09,4.82-.73,4.57,4.31,4.6,4.18,0,4.18,0,4.18-4.45s0-4.52-4.17-4.51C124.69,127,124.69,127,124.7,131.36Zm-2.9,4.53c0-2.66.11-4.92-.08-7.15a2.29,2.29,0,0,0-1.5-1.63,34.81,34.81,0,0,0-5.5,0c-1.92.08-1.66,1.74-1.45,2.84.38,2-1.54,4.94,1.31,5.86C116.71,136.44,119.2,135.89,121.8,135.89Zm-15.9.07c5.06,0,4.39.19,4.43-4.19,0-4.77,0-4.77-3.9-4.78-4.55,0-4.58,0-4.55,4.37C101.92,136.42,101.41,135.88,105.9,136Zm-4-40.06c.07,5.33-.35,4.62,4.69,4.67,3.79,0,3.81,0,3.78-4.61,0-5.06.47-4-5.64-4.33C100.74,91.4,102.16,94.18,101.87,95.9Zm38.55,19.38c-4.45,0-4.45,0-4.45,4.16,0,4.71,0,4.71,3.93,4.71,4.72,0,4.73,0,4.71-4.19C144.59,114.76,145,115.34,140.42,115.28Zm-18.6,4.65c0-4.64,0-4.67-3.75-4.64-5.11,0-4.86-.64-4.85,4,0,5.11-.59,4.8,4.41,4.82C121.82,124.17,121.82,124.16,121.82,119.93Zm-27-4.65c-4.37,0-4.37,0-4.38,4.24,0,4.63,0,4.63,4.3,4.63s4.37,0,4.35-4.27C99,114.82,99.53,115.33,94.78,115.28Zm-7.23,4.28c0-4.28,0-4.3-3.82-4.27-5.18,0-4.75-.62-4.78,4.41,0,4.45,0,4.47,4.25,4.45C88.16,124.13,87.49,124.43,87.55,119.56Zm64.21-7.27c4.87-.05,4.27.43,4.31-4.86,0-4,0-4-4.17-4-4.4,0-4.43,0-4.4,4.24C147.54,112.74,146.94,112.24,151.76,112.29Zm-11.52,0c4.38,0,4.4,0,4.37-4.28,0-4.75.61-4.53-4.41-4.55-4.23,0-4.23,0-4.23,4.46S136,112.29,140.24,112.29Zm-22.85,0c4.42,0,4.42,0,4.43-4.2,0-4.64,0-4.64-4.31-4.64s-4.32,0-4.3,4.12C113.24,112.77,112.78,112.24,117.39,112.29Zm-22.78,0c4.79-.06,4.41.52,4.44-4.2s0-4.63-4.06-4.64c-4.58,0-4.6,0-4.58,4.12C90.44,112.74,89.94,112.24,94.61,112.29Zm-7.06-4.18c0-4.65,0-4.65-4-4.66-4.59,0-4.61,0-4.59,4.37,0,5-.34,4.42,4.43,4.46C87.55,112.31,87.55,112.29,87.55,108.11Zm68.52-11.93c0-4.48,0-4.5-3.92-4.48-5.17,0-4.65-.51-4.64,4.22s-.72,4.64,4.26,4.65C156.07,100.59,156.07,100.58,156.07,96.18ZM140.33,91.7c-4.36,0-4.39,0-4.35,4,0,5.24-.65,4.87,4.26,4.9,4.38,0,4.38,0,4.38-4.54C144.62,91.7,144.62,91.7,140.33,91.7ZM121.82,96c-.06-4.82.47-4.31-4.59-4.32-4.62,0-4-.31-4,4.91,0,4,0,4,4.46,4C121.82,100.57,121.82,100.57,121.82,96Zm-22.77.09c0-4.42,0-4.44-3.92-4.42-5.17,0-4.69-.51-4.72,4.14s0,4.74,4.19,4.73C99.64,100.56,99,100.84,99.05,96.12ZM83.47,91.7c-4.52,0-4.52,0-4.52,4.15,0,4.72,0,4.72,4,4.73,4.61,0,4.64,0,4.61-4C87.5,91.27,88.15,91.75,83.47,91.7Zm49.72,4.15c0-4.15,0-4.18-3.59-4.14-5.41,0-4.86-.66-4.9,4.48,0,4.38,0,4.38,4.27,4.39S133.19,100.58,133.19,95.85Zm18.59-7.12c4.53,0,4.28.64,4.29-4.3,0-4.62,0-4.63-4.32-4.61-4.82,0-4.24-.33-4.24,4.64S147.07,88.67,151.78,88.73Zm-11.39,0c4.47-.06,4.23.68,4.22-4.38s.34-4.49-4.68-4.53c-4,0-4,0-4,4.72S135.7,88.68,140.39,88.73Zm-7.67,0c1.78-7.68.55-9.43-6-8.87-.09,0-.22,0-.26,0-.59.69-1.73,1.45-1.66,2.06.25,2.26-1.27,4.84,1,6.77.06,0,.17,0,.26,0Zm-15.22,0c4.64-.06,4.31.66,4.31-4.25,0-5.07.48-4.64-4.53-4.66-4.07,0-4.08,0-4.07,4.61C113.23,89.35,112.9,88.68,117.5,88.73Zm34.42,26.55c-4.78,0-4.43-.47-4.41,3.91,0,5.13-.73,4.94,4,5s4.6,0,4.6-4.36S156.07,115.28,151.92,115.28Zm-49.79-3c2.43,0,4.52.07,6.6,0,.53,0,1.43-.67,1.46-1.08a45.49,45.49,0,0,0,0-6.5c0-.42-.91-1-1.47-1.11-6.16-1.1-7-.34-6.82,6C101.92,110.33,102,111.13,102.13,112.27Zm26.82,0c4.44-.08,4.22.69,4.24-4.4,0-4.43,0-4.43-4-4.44-4.5,0-4.52,0-4.5,4.46C124.72,112.73,124.27,112.24,129,112.29Zm-26.59,3c-1.82,7.59-.49,9.45,6,8.82.17,0,.46,0,.51,0,.5-1,1.46-2,1.35-2.93-.25-1.94,1.38-4.38-1.16-5.82a.55.55,0,0,0-.26,0Zm22.34,4.17c0,4.66,0,4.66,4,4.67,4.45,0,4.45,0,4.45-4.25,0-4.62,0-4.65-3.78-4.62C124.34,115.33,124.74,114.68,124.7,119.49Z" fill="#fff"/></svg>
