<?xml version="1.0" encoding="utf-8"?>
<!-- Generator: Adobe Illustrator 23.0.1, SVG Export Plug-In . SVG Version: 6.00 Build 0)  -->
<svg version="1.1" id="Layer_1" xmlns="http://www.w3.org/2000/svg" xmlns:xlink="http://www.w3.org/1999/xlink" x="0px" y="0px"
	 viewBox="0 0 375 157" style="enable-background:new 0 0 375 157;" xml:space="preserve">
<style type="text/css">
	.st0{fill:#FFFFFF;}
	.st1{enable-background:new    ;}
	.st2{fill:none;stroke:#FFFFFF;stroke-width:3.77;stroke-linecap:round;stroke-linejoin:round;stroke-dasharray:0.47,7.54;}
</style>
<g>
	<path class="st0" d="M309,27.5c-3.2,0.1-23.2,0.3-27.2,0.5c-0.6,0-1.3,0.1-1.9,0.3c-2.1,0.8-4,1.6-6.6,1.2
		c-2.3-0.4-3.7,1.4-3.9,3.7c-0.2,1.9-1,2.8-2.7,3c-1.7,0.1-3.3-0.9-4-2.4c-0.6-1.5,0-3.2,1.4-4.1c1-0.6,1.8-1.3,2.5-2.2
		c1-1.4,0.6-2.5-1.1-3.1c-1.3-0.5-1.4-1.2-0.3-2.1c2.8-2.3,5.1-2.3,8.5-0.9c2,0.8,4,1.1,6.1,1.2c11.7,0.3,25.8,0.5,37.6,0.6
		c4.2,0,20.8-0.6,25-1c1.8-0.2,3.5-1,4.8-2.3c1-1.1,2.4-1.7,3.8-1.7c0.6,0,1.2-0.1,1.9-0.2c1.1-0.2,2.3-0.7,3,0.8s0.3,3.7-1,4.4
		c-0.8,0.5-1.8,0.9-1.3,1.9c0.4,0.7,1.1,1.3,1.9,1.6c1.1,0.3,1.8,1.3,1.7,2.5c0.1,1.1-0.6,2.1-1.6,2.5c-3.1,1.7-6,1.2-9-0.3
		c-4.5-2.1-21.9-2.8-26.8-3C311.9,28,317.7,27.8,309,27.5z"/>
	<path class="st0" d="M175.4,52v1.6c0,4,0,8,0,12c-0.1,1,0.6,1.9,1.6,2c0.1,0,0.2,0,0.2,0c1,0.2,2-0.6,2.1-1.6c0-0.1,0-0.1,0-0.2
		c0.1-0.5,0.1-1,0.1-1.4v-11c0-0.5,0.1-0.9,0.1-1.5h2.8c-0.1-0.5-0.1-0.8-0.2-1.2c-0.7-2.8-1.4-5.7-2.2-8.5
		c-0.6-2.2-1.1-4.4-1.7-6.6c-0.1-0.2,0.2-0.6,0.3-0.9c0.2,0.2,0.4,0.4,0.6,0.6c0.1,0.2,0.2,0.4,0.2,0.6c0.9,3.5,1.9,6.9,2.8,10.4
		c0.4,1.5,1.2,2.2,2.2,1.8s1.3-1.1,0.9-2.6c-1.2-4.5-2.5-9-3.8-13.5c-0.2-1.2-1.3-2-2.5-1.8c-2.9,0-5.9,0-8.8,0
		c-1.6,0-2.1,0.4-2.6,2.1c-0.7,2.6-1.4,5.1-2.1,7.7c-0.5,1.9-1.1,3.9-1.6,5.8c-0.3,1.1-0.2,1.9,1,2.4c0.9,0.3,1.7-0.2,2-1.5
		c0.1-0.2,0.1-0.5,0.2-0.8c0.9-3.4,1.9-6.8,2.9-10.3c0.2-0.4,0.4-0.7,0.7-1c0.1,0.4,0.2,0.7,0.1,1.1c-1.2,4.6-2.4,9.2-3.5,13.9
		c-0.2,0.7-0.3,1.4-0.5,2.3h3v1.5c0,3.6,0,7.2,0,10.8c0,2.4,0.6,3.3,2.1,3.2s2-0.9,2-3.3c0-3.6,0-7.2,0-10.8c0-0.5,0-0.9,0.1-1.5
		L175.4,52z M170.4,24.7c0,2.3,1.8,4.2,4.1,4.2c0.1,0,0.1,0,0.2,0c2.3,0,4.2-1.9,4.2-4.2v-0.1c0-2.3-1.9-4.1-4.2-4.1l0,0
		c-2.2-0.1-4.1,1.6-4.2,3.9C170.4,24.5,170.4,24.6,170.4,24.7L170.4,24.7z"/>
	<path class="st0" d="M175.9,52h-1.6c0,0.5-0.1,1-0.1,1.5v10.8c0,2.4-0.5,3.3-2,3.3s-2.1-0.9-2.1-3.2c0-3.6,0-7.2,0-10.8V52h-3
		c0.2-0.9,0.3-1.6,0.5-2.3c1.2-4.6,2.4-9.2,3.5-13.9c0-0.4,0-0.8-0.1-1.1c-0.3,0.3-0.5,0.6-0.7,1c-1,3.4-1.9,6.8-2.8,10.3
		c-0.1,0.3-0.1,0.5-0.2,0.8c-0.4,1.2-1.1,1.8-2.1,1.5c-1.1-0.4-1.2-1.3-0.9-2.4c0.6-1.9,1.1-3.9,1.6-5.8c0.7-2.6,1.4-5.2,2.1-7.7
		c0.4-1.6,0.9-2,2.6-2.1c2.9,0,5.9,0,8.8,0c1.2-0.2,2.3,0.6,2.5,1.8c1.2,4.5,2.5,9,3.8,13.5c0.4,1.5,0.1,2.3-0.9,2.6
		s-1.8-0.3-2.2-1.8c-0.9-3.5-1.9-6.9-2.8-10.4c0-0.2-0.1-0.4-0.2-0.6c-0.2-0.2-0.4-0.4-0.6-0.6c-0.1,0.3-0.3,0.6-0.3,0.9
		c0.5,2.2,1.1,4.4,1.7,6.6c0.7,2.8,1.4,5.7,2.2,8.5c0.1,0.3,0.1,0.7,0.2,1.2H180c0,0.6-0.1,1-0.1,1.5c0,3.6,0,7.3,0,10.9
		c0,0.5,0,1-0.1,1.4c0,1-0.9,1.9-2,1.8c-0.1,0-0.1,0-0.2,0c-1,0-1.8-0.8-1.8-1.8c0-0.1,0-0.1,0-0.2c0-4,0-8,0-12L175.9,52z"/>
	<path class="st0" d="M170.4,24.7c-0.1-2.2,1.6-4.1,3.9-4.2c0.1,0,0.2,0,0.3,0c2.3,0,4.2,1.8,4.2,4.1l0,0c0.1,2.3-1.7,4.3-4.1,4.3
		h-0.1c-2.3,0.1-4.2-1.7-4.3-4C170.4,24.8,170.4,24.8,170.4,24.7z"/>
	<g class="st1">
		<path class="st0" d="M132.3,138.5v-11.4h4.3c1.1,0,1.9,0.3,2.6,1c0.7,0.7,1,1.5,1,2.6c0,1.1-0.3,2-1,2.6c-0.7,0.7-1.5,1-2.6,1
			h-2.3v4.2c-0.2,0.1-0.6,0.1-1,0.1c-0.2,0-0.4,0-0.6,0S132.5,138.6,132.3,138.5L132.3,138.5z M134.4,132.6h2c0.6,0,1-0.2,1.3-0.5
			c0.3-0.3,0.4-0.8,0.4-1.4c0-0.6-0.1-1.1-0.4-1.4s-0.7-0.5-1.3-0.5h-2V132.6z"/>
	</g>
	<g class="st1">
		<path class="st0" d="M141.1,136c0-0.9,0.3-1.5,0.8-1.9s1.3-0.6,2.3-0.6c0.6,0,1.1,0,1.6,0.1v-0.4c0-1-0.5-1.5-1.5-1.5
			c-0.3,0-0.6,0-1,0.1s-0.6,0.1-0.8,0.2l-0.3,0.1c-0.2-0.1-0.3-0.3-0.4-0.6c-0.1-0.1-0.1-0.3-0.1-0.4c0-0.1,0-0.3,0-0.3l0-0.1
			c0,0,0.1,0,0.1-0.1c0.1,0,0.2-0.1,0.4-0.2c0.2-0.1,0.4-0.1,0.6-0.2c0.2-0.1,0.5-0.1,0.8-0.2c0.3,0,0.6-0.1,1-0.1
			c1.2,0,2,0.2,2.5,0.7s0.7,1.2,0.7,2.3v5.5c-0.2,0.1-0.4,0.1-0.8,0.1c-0.1,0-0.3,0-0.4,0c-0.1,0-0.2,0-0.3-0.1l-0.1,0l-0.3-0.9
			c-0.4,0.8-1.2,1.2-2.4,1.2c-0.8,0-1.4-0.2-1.8-0.7S141.1,136.9,141.1,136z M143.2,136c0,0.4,0.1,0.7,0.3,0.9s0.5,0.3,0.9,0.3
			c0.3,0,0.5-0.1,0.7-0.2s0.4-0.3,0.5-0.5c0.1-0.2,0.2-0.4,0.2-0.6c0.1-0.2,0.1-0.4,0.1-0.7v-0.5c-0.5,0-1-0.1-1.3-0.1
			C143.6,134.8,143.2,135.2,143.2,136z"/>
		<path class="st0" d="M149.9,138.5v-8.2c0.2-0.1,0.5-0.1,1-0.1c0.2,0,0.4,0,0.5,0c0.2,0,0.3,0,0.4,0.1l0.1,0v0.9
			c0.6-0.8,1.2-1.2,1.8-1.2c0.5,0,1,0.1,1.4,0.4c-0.1,0.7-0.3,1.3-0.9,1.7c-0.3-0.2-0.6-0.4-0.9-0.4c-0.5,0-1,0.3-1.4,0.8v5.9
			c-0.2,0.1-0.6,0.1-1,0.1c-0.2,0-0.4,0-0.6,0c-0.2,0-0.3,0-0.3-0.1L149.9,138.5z"/>
		<path class="st0" d="M155.5,131c0-0.2,0-0.3,0-0.4c0-0.1,0-0.2,0.1-0.3l0-0.1h1.2v-1.3c0.5-0.3,1-0.4,1.6-0.4c0.1,0,0.3,0,0.4,0
			v1.7h1.9c0.1,0.2,0.1,0.5,0.1,0.8c0,0.1,0,0.3,0,0.4c0,0.1,0,0.2-0.1,0.3l0,0.1h-1.9v3.7c0,0.6,0.1,1.1,0.4,1.3
			c0.2,0.2,0.6,0.3,1.2,0.3l0.6-0.1c0.1,0.2,0.1,0.5,0.1,0.8c0,0.1,0,0.3,0,0.4s0,0.2-0.1,0.3l0,0.1c-0.3,0.1-0.7,0.1-1.2,0.1
			c-1,0-1.8-0.3-2.2-0.8c-0.5-0.5-0.7-1.3-0.7-2.4v-3.9h-1.2C155.6,131.6,155.5,131.3,155.5,131z"/>
		<path class="st0" d="M162.5,128.8v-1.9c0.2-0.1,0.5-0.1,1-0.1c0.2,0,0.4,0,0.5,0c0.2,0,0.3,0,0.4,0.1l0.1,0v1.9
			c-0.2,0.1-0.6,0.1-1,0.1c-0.2,0-0.4,0-0.6,0c-0.2,0-0.3,0-0.3-0.1L162.5,128.8z M162.5,138.5v-8.2c0.2-0.1,0.5-0.1,1-0.1
			c0.2,0,0.4,0,0.5,0c0.2,0,0.3,0,0.4,0.1l0.1,0v8.2c-0.2,0.1-0.6,0.1-1,0.1c-0.2,0-0.4,0-0.6,0c-0.2,0-0.3,0-0.3-0.1L162.5,138.5z"
			/>
		<path class="st0" d="M166.4,134.4c0-2.9,1.2-4.4,3.6-4.4c0.5,0,0.9,0,1.3,0.1c0.4,0.1,0.6,0.1,0.8,0.2l0.2,0.1
			c0,0.3-0.1,0.5-0.2,0.8s-0.2,0.5-0.4,0.7c-0.4-0.1-0.8-0.2-1.4-0.2c-0.7,0-1.2,0.2-1.5,0.6c-0.3,0.4-0.4,1.1-0.4,2.1
			c0,0.9,0.2,1.6,0.5,2.1c0.3,0.4,0.8,0.6,1.5,0.6c0.2,0,0.5,0,0.7-0.1s0.4-0.1,0.5-0.1l0.2-0.1c0.2,0.2,0.3,0.4,0.4,0.6
			c0.1,0.3,0.2,0.5,0.2,0.8c-0.1,0-0.1,0.1-0.2,0.1s-0.4,0.1-0.8,0.2s-0.9,0.1-1.4,0.1C167.6,138.8,166.4,137.3,166.4,134.4z"/>
		<path class="st0" d="M173.9,128.8v-1.9c0.2-0.1,0.5-0.1,1-0.1c0.2,0,0.4,0,0.5,0c0.2,0,0.3,0,0.4,0.1l0.1,0v1.9
			c-0.2,0.1-0.6,0.1-1,0.1c-0.2,0-0.4,0-0.6,0c-0.2,0-0.3,0-0.3-0.1L173.9,128.8z M173.9,138.5v-8.2c0.2-0.1,0.5-0.1,1-0.1
			c0.2,0,0.4,0,0.5,0c0.2,0,0.3,0,0.4,0.1l0.1,0v8.2c-0.2,0.1-0.6,0.1-1,0.1c-0.2,0-0.4,0-0.6,0c-0.2,0-0.3,0-0.3-0.1L173.9,138.5z"
			/>
		<path class="st0" d="M178.1,142.1v-11.8c0.2-0.1,0.5-0.1,1-0.1c0.2,0,0.4,0,0.6,0c0.2,0,0.3,0,0.4,0.1l0.1,0v0.6
			c0.5-0.6,1.2-0.8,2.2-0.8c0.5,0,0.9,0.1,1.2,0.2c0.3,0.2,0.7,0.4,0.9,0.7c0.3,0.3,0.5,0.8,0.6,1.4c0.1,0.6,0.2,1.3,0.2,2.1
			c0,0.8-0.1,1.5-0.2,2.1s-0.3,1-0.6,1.4c-0.3,0.3-0.6,0.6-0.9,0.7s-0.8,0.2-1.2,0.2c-1,0-1.7-0.3-2.2-0.8v4.2
			c-0.2,0.1-0.6,0.1-1,0.1c-0.2,0-0.4,0-0.5,0s-0.3,0-0.3-0.1L178.1,142.1z M180.1,135.4c0,0.5,0.1,0.9,0.4,1.2
			c0.3,0.3,0.6,0.5,1.1,0.5c0.3,0,0.5,0,0.7-0.1s0.3-0.2,0.5-0.4c0.1-0.2,0.3-0.5,0.3-0.8c0.1-0.4,0.1-0.8,0.1-1.4
			c0-0.6,0-1-0.1-1.4c-0.1-0.4-0.2-0.6-0.3-0.8c-0.1-0.2-0.3-0.3-0.5-0.4s-0.4-0.1-0.7-0.1c-0.4,0-0.8,0.2-1.1,0.5
			c-0.3,0.3-0.4,0.7-0.4,1.2V135.4z"/>
		<path class="st0" d="M186.5,136c0-0.9,0.3-1.5,0.8-1.9s1.3-0.6,2.3-0.6c0.6,0,1.1,0,1.6,0.1v-0.4c0-1-0.5-1.5-1.5-1.5
			c-0.3,0-0.6,0-1,0.1c-0.3,0.1-0.6,0.1-0.8,0.2l-0.3,0.1c-0.2-0.1-0.3-0.3-0.4-0.6c-0.1-0.1-0.1-0.3-0.1-0.4c0-0.1,0-0.3,0-0.3
			l0-0.1c0,0,0.1,0,0.1-0.1c0.1,0,0.2-0.1,0.4-0.2c0.2-0.1,0.4-0.1,0.6-0.2c0.2-0.1,0.5-0.1,0.8-0.2c0.3,0,0.6-0.1,1-0.1
			c1.2,0,2,0.2,2.5,0.7s0.7,1.2,0.7,2.3v5.5c-0.2,0.1-0.4,0.1-0.8,0.1c-0.1,0-0.3,0-0.4,0c-0.1,0-0.2,0-0.3-0.1l-0.1,0l-0.3-0.9
			c-0.4,0.8-1.2,1.2-2.4,1.2c-0.8,0-1.4-0.2-1.8-0.7S186.5,136.9,186.5,136z M188.6,136c0,0.4,0.1,0.7,0.3,0.9
			c0.2,0.2,0.5,0.3,0.9,0.3c0.3,0,0.5-0.1,0.7-0.2s0.4-0.3,0.5-0.5s0.2-0.4,0.2-0.6c0.1-0.2,0.1-0.4,0.1-0.7v-0.5
			c-0.5,0-1-0.1-1.3-0.1C189,134.8,188.6,135.2,188.6,136z"/>
		<path class="st0" d="M195.3,138.5v-8.2c0.2-0.1,0.5-0.1,1-0.1c0.2,0,0.4,0,0.5,0c0.2,0,0.3,0,0.4,0.1l0.1,0v0.5
			c0.6-0.5,1.3-0.8,2.2-0.8c0.8,0,1.4,0.2,1.9,0.7c0.4,0.4,0.7,1,0.7,1.8v6c-0.2,0.1-0.6,0.1-1,0.1c-0.2,0-0.4,0-0.6,0
			c-0.2,0-0.3,0-0.3-0.1l-0.1,0v-5.7c0-0.4-0.1-0.6-0.3-0.9c-0.2-0.2-0.5-0.3-1-0.3c-0.5,0-1,0.2-1.4,0.6v6.2
			c-0.2,0.1-0.6,0.1-1,0.1c-0.2,0-0.4,0-0.6,0c-0.2,0-0.3,0-0.3-0.1L195.3,138.5z"/>
		<path class="st0" d="M203.4,131c0-0.2,0-0.3,0-0.4c0-0.1,0-0.2,0.1-0.3l0-0.1h1.2v-1.3c0.5-0.3,1-0.4,1.6-0.4c0.1,0,0.3,0,0.4,0
			v1.7h1.9c0.1,0.2,0.1,0.5,0.1,0.8c0,0.1,0,0.3,0,0.4c0,0.1,0,0.2-0.1,0.3l0,0.1h-1.9v3.7c0,0.6,0.1,1.1,0.4,1.3
			c0.2,0.2,0.6,0.3,1.2,0.3l0.6-0.1c0.1,0.2,0.1,0.5,0.1,0.8c0,0.1,0,0.3,0,0.4c0,0.1,0,0.2-0.1,0.3l0,0.1c-0.3,0.1-0.7,0.1-1.2,0.1
			c-1,0-1.8-0.3-2.2-0.8c-0.5-0.5-0.7-1.3-0.7-2.4v-3.9h-1.2C203.4,131.6,203.4,131.3,203.4,131z"/>
		<path class="st0" d="M210,138.2c0-0.6,0.2-1.1,0.5-1.5c0.7,0.3,1.4,0.4,2.1,0.4c0.8,0,1.3-0.3,1.3-0.9c0-0.2-0.1-0.4-0.2-0.5
			c-0.2-0.1-0.3-0.2-0.5-0.3c-0.1-0.1-0.4-0.1-0.8-0.2c-0.1,0-0.1,0-0.2-0.1c-0.2-0.1-0.4-0.1-0.5-0.2c-0.1-0.1-0.3-0.1-0.5-0.2
			c-0.2-0.1-0.3-0.2-0.5-0.3c-0.1-0.1-0.2-0.3-0.4-0.4c-0.1-0.2-0.2-0.3-0.3-0.6s-0.1-0.5-0.1-0.7c0-0.8,0.3-1.5,0.8-1.9
			s1.3-0.7,2.3-0.7c0.5,0,1,0,1.4,0.1c0.4,0.1,0.7,0.2,0.8,0.2l0.2,0.1c0,0.6-0.2,1.1-0.5,1.4c-0.5-0.2-1.1-0.3-1.7-0.3
			c-0.9,0-1.4,0.3-1.4,0.9c0,0.1,0,0.2,0.1,0.3c0.1,0.1,0.1,0.2,0.2,0.2s0.2,0.1,0.3,0.2c0.1,0.1,0.3,0.1,0.4,0.1
			c0.1,0,0.3,0.1,0.5,0.1c0.2,0.1,0.4,0.1,0.5,0.2c0.3,0.1,0.5,0.2,0.7,0.3c0.2,0.1,0.4,0.3,0.6,0.4s0.3,0.4,0.5,0.7
			c0.1,0.3,0.2,0.6,0.2,1c0,0.9-0.3,1.5-0.8,2c-0.5,0.5-1.3,0.7-2.4,0.7c-0.3,0-0.6,0-0.9-0.1s-0.6-0.1-0.8-0.2s-0.4-0.1-0.6-0.2
			c-0.2-0.1-0.3-0.1-0.4-0.1L210,138.2z"/>
	</g>
	<line class="st2" x1="105.3" y1="166.1" x2="105.3" y2="-9.1"/>
	<line class="st2" x1="238.9" y1="166.1" x2="238.9" y2="-9.1"/>
	<g class="st1">
		<path class="st0" d="M9,99.7c0-0.5,0-0.9,0.1-1.4s0.1-0.7,0.2-0.9l0.1-0.3h18.9c0.3,0.9,0.4,1.9,0.3,3.2c-0.1,1.4-0.3,2.7-0.7,4
			s-1,2.4-1.6,3.5s-1.4,2.1-2.1,3.2c-0.8,1.1-1.5,2.2-2.3,3.3s-1.5,2.4-2.1,3.6c-0.6,1.3-1.1,2.7-1.5,4.4c-0.4,1.7-0.6,3.4-0.6,5.3
			c-0.8,0.2-1.7,0.3-2.7,0.3c-1,0-1.9-0.1-2.7-0.3c0-2,0.2-3.9,0.5-5.7c0.3-1.8,0.8-3.3,1.3-4.6s1.1-2.5,1.8-3.7
			c0.7-1.1,1.3-2.2,2.1-3.1c0.7-1,1.4-1.9,2-2.7c0.6-0.9,1.2-1.8,1.8-2.7s0.9-1.9,1.2-2.9H9.4C9.1,101.7,9,100.8,9,99.7z"/>
	</g>
	<g class="st1">
		<path class="st0" d="M39.1,98.1c0.3-0.1,0.7-0.1,1.2-0.1c0.2,0,0.4,0,0.6,0c0.2,0,0.3,0,0.4,0.1l0.1,0l2.6,4.5l2.6-4.5
			c0.2-0.1,0.6-0.1,1-0.1c0.2,0,0.4,0,0.6,0c0.2,0,0.3,0,0.4,0.1l0.1,0l-3.9,6.5v4.6c-0.2,0.1-0.5,0.1-1,0.1c-0.2,0-0.4,0-0.6,0
			c-0.2,0-0.3,0-0.4-0.1l-0.1,0v-4.5L39.1,98.1z"/>
	</g>
	<g class="st1">
		<path class="st0" d="M48.6,105.1c0-1.4,0.3-2.5,0.9-3.2c0.6-0.7,1.5-1,2.6-1c1,0,1.8,0.3,2.4,0.8c0.6,0.5,0.9,1.4,0.9,2.5
			c0,0.3,0,0.6,0,0.9c0,0.3-0.1,0.5-0.1,0.6l0,0.2h-4.6c0.1,0.8,0.3,1.3,0.6,1.6c0.3,0.3,0.8,0.4,1.4,0.4c0.3,0,0.6,0,0.9-0.1
			c0.3-0.1,0.5-0.1,0.7-0.2l0.2-0.1c0.2,0.2,0.3,0.4,0.4,0.6c0.1,0.3,0.2,0.5,0.2,0.8c0,0-0.1,0-0.1,0.1c0,0-0.2,0.1-0.3,0.2
			c-0.2,0.1-0.4,0.1-0.5,0.2s-0.4,0.1-0.8,0.2c-0.3,0-0.6,0.1-1,0.1c-1.3,0-2.2-0.4-2.8-1.1C48.9,107.6,48.6,106.5,48.6,105.1z
			 M50.6,104.4h2.8c0-0.2,0-0.4,0-0.5c0-1-0.4-1.5-1.3-1.5C51.2,102.4,50.7,103.1,50.6,104.4z"/>
		<path class="st0" d="M56.6,106.7c0-0.9,0.3-1.5,0.8-1.9c0.5-0.4,1.3-0.6,2.3-0.6c0.5,0,1.1,0,1.6,0.1v-0.3c0-1-0.5-1.4-1.4-1.4
			c-0.3,0-0.6,0-1,0.1c-0.3,0.1-0.6,0.1-0.8,0.2l-0.3,0.1c-0.2-0.1-0.3-0.3-0.4-0.6c-0.1-0.1-0.1-0.3-0.1-0.4c0-0.1,0-0.2,0-0.3
			l0-0.1c0,0,0.1,0,0.1-0.1c0.1,0,0.2-0.1,0.4-0.2c0.2-0.1,0.4-0.1,0.6-0.2c0.2-0.1,0.5-0.1,0.8-0.1c0.3,0,0.6-0.1,0.9-0.1
			c1.1,0,1.9,0.2,2.4,0.7c0.5,0.5,0.7,1.2,0.7,2.2v5.4c-0.1,0.1-0.4,0.1-0.8,0.1c-0.1,0-0.3,0-0.4,0c-0.1,0-0.2,0-0.3-0.1l-0.1,0
			l-0.3-0.9c-0.4,0.8-1.1,1.1-2.3,1.1c-0.8,0-1.4-0.2-1.8-0.7C56.8,108.3,56.6,107.6,56.6,106.7z M58.6,106.7c0,0.4,0.1,0.7,0.3,0.9
			c0.2,0.2,0.5,0.3,0.8,0.3c0.3,0,0.5-0.1,0.7-0.2s0.4-0.3,0.5-0.4c0.1-0.2,0.2-0.4,0.2-0.6c0.1-0.2,0.1-0.4,0.1-0.6v-0.5
			c-0.5,0-1-0.1-1.3-0.1C59,105.5,58.6,105.9,58.6,106.7z"/>
		<path class="st0" d="M65.2,109.2v-8c0.2-0.1,0.5-0.1,1-0.1c0.2,0,0.4,0,0.5,0c0.2,0,0.3,0,0.4,0.1l0.1,0v0.9
			c0.6-0.8,1.2-1.2,1.7-1.2c0.5,0,1,0.1,1.4,0.4c-0.1,0.7-0.3,1.2-0.9,1.7c-0.3-0.2-0.6-0.3-0.9-0.3c-0.5,0-1,0.3-1.4,0.8v5.8
			c-0.2,0.1-0.6,0.1-1,0.1c-0.2,0-0.4,0-0.6,0c-0.2,0-0.3,0-0.3-0.1L65.2,109.2z"/>
	</g>
	<g class="st1">
		<path class="st0" d="M39.7,127.7C39.7,127.6,39.7,127.6,39.7,127.7c0-0.6,0.2-1.1,0.5-1.6c0.1,0,0.3,0.1,0.5,0.1
			c0.2,0.1,0.6,0.1,1.1,0.2s1,0.1,1.4,0.1c0.7,0,1.2-0.1,1.6-0.4c0.3-0.3,0.5-0.6,0.5-1.2c0-0.2,0-0.4-0.1-0.6s-0.2-0.3-0.4-0.4
			c-0.2-0.1-0.3-0.2-0.5-0.3c-0.2-0.1-0.4-0.2-0.7-0.3c-0.1-0.1-0.3-0.1-0.6-0.2s-0.5-0.2-0.7-0.2c-0.2-0.1-0.4-0.1-0.6-0.3
			c-0.3-0.1-0.5-0.2-0.6-0.3c-0.2-0.1-0.3-0.2-0.5-0.4c-0.2-0.2-0.3-0.3-0.4-0.5c-0.1-0.2-0.2-0.4-0.3-0.7s-0.1-0.5-0.1-0.8
			c0-1,0.3-1.8,1-2.4c0.7-0.6,1.7-0.9,3-0.9c0.6,0,1.1,0,1.6,0.1c0.5,0.1,0.9,0.2,1.1,0.2l0.4,0.1c0,0.3,0,0.6-0.1,0.9
			c-0.1,0.3-0.2,0.5-0.4,0.7c-0.1,0-0.2-0.1-0.3-0.1s-0.4-0.1-0.8-0.2s-0.8-0.1-1.2-0.1c-1.5,0-2.3,0.5-2.3,1.5c0,0.1,0,0.3,0.1,0.4
			c0,0.1,0.1,0.2,0.2,0.3c0.1,0.1,0.2,0.2,0.3,0.3c0.1,0.1,0.3,0.1,0.5,0.2s0.4,0.1,0.5,0.2s0.3,0.1,0.6,0.2
			c0.2,0.1,0.4,0.1,0.6,0.2c0.3,0.1,0.5,0.2,0.7,0.3c0.2,0.1,0.4,0.2,0.6,0.3s0.4,0.3,0.6,0.5c0.2,0.2,0.3,0.4,0.4,0.6
			c0.1,0.2,0.2,0.5,0.3,0.7c0.1,0.3,0.1,0.6,0.1,0.9c0,1.1-0.3,1.9-1,2.5c-0.7,0.6-1.7,0.9-3,0.9c-0.6,0-1.2-0.1-1.8-0.2
			c-0.6-0.1-1-0.2-1.3-0.3L39.7,127.7z"/>
	</g>
	<g class="st1">
		<path class="st0" d="M48,120.7c0-0.2,0-0.3,0-0.4c0-0.1,0-0.2,0.1-0.3l0-0.1h1.2v-1.3c0.5-0.3,1-0.4,1.6-0.4c0.1,0,0.2,0,0.4,0
			v1.7h1.9c0.1,0.2,0.1,0.4,0.1,0.8c0,0.1,0,0.3,0,0.4s0,0.2-0.1,0.3l0,0.1h-1.9v3.7c0,0.6,0.1,1,0.4,1.3s0.6,0.3,1.2,0.3l0.5-0.1
			c0.1,0.2,0.1,0.5,0.1,0.8c0,0.1,0,0.2,0,0.4s0,0.2-0.1,0.3l0,0.1c-0.3,0.1-0.7,0.1-1.2,0.1c-1,0-1.7-0.3-2.2-0.8
			c-0.5-0.5-0.7-1.3-0.7-2.3v-3.8h-1.2C48,121.3,48,121,48,120.7z"/>
		<path class="st0" d="M54.8,126V120c0.2-0.1,0.6-0.1,1-0.1c0.2,0,0.4,0,0.6,0s0.3,0,0.3,0.1l0.1,0v5.6c0,0.4,0.1,0.6,0.3,0.8
			s0.5,0.3,1,0.3c0.5,0,1-0.2,1.4-0.6V120c0.2-0.1,0.6-0.1,1-0.1c0.2,0,0.4,0,0.6,0c0.2,0,0.3,0,0.3,0.1l0.1,0v8
			c-0.2,0.1-0.5,0.1-1,0.1c-0.2,0-0.4,0-0.5,0c-0.2,0-0.3,0-0.4-0.1l-0.1,0v-0.5c-0.5,0.5-1.3,0.8-2.2,0.8c-0.8,0-1.4-0.2-1.8-0.7
			C55,127.3,54.8,126.7,54.8,126z"/>
		<path class="st0" d="M63.3,126.1c-0.1-0.6-0.2-1.2-0.2-2s0.1-1.5,0.2-2c0.1-0.6,0.3-1,0.6-1.3c0.3-0.3,0.6-0.6,0.9-0.7
			c0.3-0.1,0.7-0.2,1.2-0.2c1,0,1.7,0.3,2.1,0.8v-4.1c0.2-0.1,0.6-0.1,1-0.1c0.2,0,0.4,0,0.5,0c0.2,0,0.3,0,0.3,0.1l0.1,0v11.6
			c-0.2,0.1-0.5,0.1-0.8,0.1c-0.1,0-0.3,0-0.5,0s-0.3,0-0.3-0.1l-0.1,0l-0.1-0.7c-0.5,0.6-1.2,1-2.2,1c-0.5,0-0.8-0.1-1.2-0.2
			s-0.6-0.4-0.9-0.7C63.7,127.1,63.5,126.6,63.3,126.1z M65.1,124c0,0.5,0,1,0.1,1.3c0.1,0.4,0.2,0.6,0.3,0.8
			c0.1,0.2,0.3,0.3,0.5,0.4c0.2,0.1,0.4,0.1,0.7,0.1c0.4,0,0.8-0.2,1-0.5c0.3-0.3,0.4-0.7,0.4-1.2v-2c0-0.5-0.2-0.9-0.4-1.2
			s-0.6-0.5-1-0.5c-0.2,0-0.4,0-0.5,0.1s-0.3,0.1-0.4,0.2c-0.1,0.1-0.2,0.3-0.3,0.5c-0.1,0.2-0.2,0.5-0.2,0.8
			C65.2,123.2,65.1,123.6,65.1,124z"/>
	</g>
	<g class="st1">
		<path class="st0" d="M71.5,120c0.3-0.1,0.6-0.1,1-0.1c0.2,0,0.4,0,0.6,0c0.2,0,0.3,0,0.4,0.1l0.1,0l1.5,4.2c0.1,0.3,0.2,0.7,0.3,1
			c0.1,0.3,0.1,0.6,0.2,0.7l0,0.2h0.1c0.1-0.5,0.3-1.2,0.5-2l1.3-4.2c0.2-0.1,0.5-0.1,0.9-0.1c0.2,0,0.3,0,0.5-0.1
			c0.2,0,0.3-0.1,0.3-0.1l0.1-0.1l-2.9,9.4c-0.1,0.4-0.2,0.7-0.3,0.9s-0.2,0.5-0.3,0.8c-0.1,0.3-0.3,0.5-0.4,0.6s-0.3,0.3-0.5,0.4
			c-0.2,0.1-0.4,0.2-0.7,0.3s-0.6,0.1-0.9,0.1c-0.2,0-0.3,0-0.5,0c-0.2,0-0.3-0.1-0.3-0.1l-0.1,0c-0.1-0.2-0.1-0.5-0.1-0.7
			c0-0.1,0-0.3,0-0.4c0-0.1,0-0.2,0.1-0.3l0-0.1c0.3,0,0.5,0.1,0.7,0.1c0.2,0,0.3,0,0.4,0s0.2-0.1,0.3-0.1s0.2-0.2,0.3-0.3
			s0.2-0.3,0.3-0.5c0.1-0.2,0.2-0.5,0.3-0.8l0.2-0.6c-0.2,0-0.4,0-0.6-0.1L71.5,120z"/>
	</g>
	<g class="st1">
		<path class="st0" d="M144.9,91.6c1.8-0.5,3.3-1.2,4.6-2c1.3-0.9,2.4-2,3.5-3.4c0.6-0.3,1.4-0.4,2.7-0.4c0.5,0,1,0,1.5,0.1
			c0.5,0.1,0.8,0.1,1,0.2l0.3,0.1l0,28.7c-0.6,0.3-1.5,0.4-2.7,0.4c-0.5,0-1,0-1.5-0.1c-0.5-0.1-0.8-0.1-1-0.2l-0.3-0.1l0-16.6
			c0-2,0.1-3.8,0.2-5.4c-1.8,1.5-4.1,2.5-6.8,3.2c-0.5-0.5-0.9-1.2-1.2-2C144.8,93.3,144.7,92.4,144.9,91.6z"/>
		<path class="st0" d="M163.5,88.2c0-0.5,0-0.9,0.1-1.3c0.1-0.4,0.1-0.7,0.2-0.9l0.1-0.3l18.2,0c0.3,0.8,0.4,1.9,0.3,3.1
			c-0.1,1.3-0.3,2.6-0.7,3.8c-0.4,1.2-0.9,2.3-1.6,3.3s-1.3,2-2.1,3c-0.7,1-1.5,2.1-2.2,3.2c-0.7,1.1-1.4,2.3-2,3.5
			s-1.1,2.6-1.5,4.2c-0.4,1.6-0.6,3.3-0.6,5.1c-0.8,0.2-1.6,0.3-2.5,0.3c-1,0-1.8-0.1-2.6-0.3c0-1.9,0.2-3.7,0.5-5.4
			c0.3-1.7,0.7-3.2,1.2-4.4c0.5-1.2,1.1-2.4,1.7-3.5c0.6-1.1,1.3-2.1,2-3c0.7-0.9,1.3-1.8,2-2.6c0.6-0.8,1.2-1.7,1.7-2.6
			c0.5-0.9,0.9-1.9,1.1-2.8l-12.9,0C163.7,90,163.5,89.2,163.5,88.2z"/>
		<path class="st0" d="M185.5,112.4c0-1.6,0.2-2.9,0.6-4.2c0.4-1.2,1.1-2.3,2.1-3.4c1-1,1.8-1.8,2.4-2.3c0.6-0.5,1.6-1.2,3-2.1
			c0.2-0.1,0.3-0.2,0.4-0.3c1.4-0.9,2.4-1.7,3.1-2.3c0.7-0.6,1.2-1.2,1.5-1.9c0.4-0.7,0.5-1.5,0.5-2.4c0-1.3-0.5-2.2-1.4-2.9
			c-0.9-0.6-2.2-0.9-3.7-0.9c-0.9,0-1.8,0.1-2.8,0.3c-1,0.2-1.7,0.4-2.2,0.5l-0.8,0.2c-1.2-1-1.7-2.3-1.6-4c0.3-0.1,0.6-0.2,1.1-0.4
			c0.5-0.2,1.4-0.4,2.9-0.7c1.5-0.3,2.9-0.4,4.3-0.4c1.4,0,2.7,0.2,3.8,0.5c1.2,0.3,2.2,0.8,3.1,1.4c0.9,0.6,1.6,1.5,2.1,2.5
			c0.5,1.1,0.8,2.3,0.8,3.7c0,0.7,0,1.3-0.1,1.9s-0.2,1.2-0.5,1.7s-0.4,1-0.7,1.4c-0.2,0.4-0.5,0.8-1,1.3c-0.4,0.4-0.8,0.8-1.1,1.1
			c-0.3,0.3-0.8,0.7-1.4,1.1c-0.6,0.4-1.2,0.8-1.6,1c-0.4,0.3-1,0.6-1.8,1.1c-0.2,0.1-0.6,0.4-1.2,0.7c-0.6,0.3-1,0.6-1.3,0.8
			c-0.3,0.2-0.7,0.5-1.1,0.8c-0.5,0.4-0.8,0.7-1,1c-0.2,0.3-0.4,0.6-0.6,1c-0.2,0.4-0.3,0.8-0.3,1.3c0,0.2,0,0.4,0.1,0.7l12.7,0
			c0.3,0.6,0.5,1.5,0.5,2.4c0,0.9-0.2,1.7-0.5,2.5l-18,0C185.6,114.4,185.5,113.4,185.5,112.4z"/>
	</g>
	<g class="st1">
		<path class="st0" d="M263.8,58.8c1.8-0.5,3.3-1.1,4.6-2s2.4-2,3.5-3.4c0.6-0.3,1.5-0.4,2.7-0.4c0.5,0,1,0,1.5,0.1
			c0.5,0.1,0.8,0.1,1,0.2l0.3,0.1l-0.3,28.8c-0.6,0.2-1.5,0.4-2.7,0.4c-0.5,0-1,0-1.5-0.1s-0.8-0.1-1-0.2l-0.3-0.1l0.2-16.7
			c0-2,0.1-3.8,0.3-5.4c-1.9,1.5-4.1,2.5-6.9,3.1c-0.5-0.5-0.9-1.2-1.1-2C263.7,60.5,263.6,59.6,263.8,58.8z"/>
	</g>
	<g class="st1">
		<path class="st0" d="M283.5,82.4l0-5c0.6-0.2,1.5-0.3,2.7-0.3c0.5,0,1,0,1.5,0.1c0.5,0.1,0.8,0.1,1,0.2l0.3,0.1l0,5
			c-0.6,0.2-1.6,0.3-2.7,0.3c-0.6,0-1.1,0-1.5-0.1c-0.5-0.1-0.8-0.1-0.9-0.2L283.5,82.4z"/>
	</g>
	<g class="st1">
		<path class="st0" d="M293.4,68.1c0.1-5.2,1-9.1,2.9-11.5c1.9-2.4,4.7-3.6,8.3-3.6c3.6,0,6.3,1.3,8.2,3.7c1.8,2.5,2.7,6.3,2.7,11.6
			c-0.1,5.3-1,9.1-2.9,11.5s-4.6,3.6-8.3,3.6c-3.6,0-6.4-1.3-8.2-3.7C294.2,77.2,293.3,73.3,293.4,68.1z M299.5,63.6
			c-0.2,1.3-0.3,2.7-0.3,4.5c0,1.7,0,3.2,0.2,4.5c0.1,1.2,0.4,2.3,0.6,3.1s0.6,1.4,1.1,1.9c0.4,0.5,0.9,0.8,1.4,1
			c0.5,0.2,1.1,0.3,1.8,0.3c0.7,0,1.3-0.1,1.8-0.2c0.5-0.2,1-0.5,1.4-0.9s0.8-1.1,1.1-1.9c0.3-0.8,0.5-1.8,0.6-3
			c0.2-1.2,0.2-2.7,0.3-4.5c0-1.7,0-3.2-0.2-4.5c-0.1-1.2-0.3-2.3-0.6-3.1c-0.3-0.8-0.6-1.4-1-1.9c-0.4-0.5-0.9-0.8-1.4-1
			c-0.5-0.2-1.1-0.3-1.8-0.3c-0.7,0-1.3,0.1-1.8,0.2c-0.5,0.2-1,0.5-1.5,0.9c-0.5,0.5-0.8,1.1-1.1,1.9
			C299.9,61.4,299.7,62.4,299.5,63.6z"/>
		<path class="st0" d="M318.9,73.8c0-0.4,0-0.8,0.1-1.2c0.1-0.4,0.2-0.6,0.2-0.8l0.1-0.2L332.6,54c0.6-0.3,1.6-0.4,2.8-0.4
			c0.5,0,1,0,1.5,0.1c0.4,0.1,0.7,0.1,0.9,0.2l0.2,0.1l-0.2,17.7l3.6,0c0.3,0.5,0.4,1.2,0.4,2.2c0,0.4,0,0.8-0.1,1.1
			c-0.1,0.4-0.1,0.6-0.2,0.8l-0.1,0.2l-3.6,0l-0.1,6.8c-0.6,0.2-1.5,0.4-2.5,0.4c-0.5,0-1,0-1.4-0.1s-0.8-0.1-1-0.2l-0.3-0.1
			l0.1-6.8l-13.3-0.1C319.1,75.4,318.9,74.7,318.9,73.8z M324.9,71.7l7.8,0.1l0.1-10.7L324.9,71.7z"/>
	</g>
	<g class="st1">
		<path class="st0" d="M344.4,55.8c0-1.5,0.3-2.6,1-3.3c0.6-0.7,1.5-1,2.7-1s2,0.4,2.6,1.1c0.6,0.7,0.9,1.8,0.9,3.3
			c0,1.5-0.4,2.6-1,3.3c-0.6,0.7-1.5,1-2.7,1s-2-0.4-2.6-1.1C344.7,58.4,344.4,57.3,344.4,55.8z M346.7,55.8c0,1,0.1,1.7,0.3,2.1
			c0.2,0.3,0.5,0.5,1,0.5c0.3,0,0.5-0.1,0.7-0.2s0.3-0.4,0.4-0.8c0.1-0.4,0.2-0.9,0.2-1.7c0-1-0.1-1.7-0.3-2.1
			c-0.2-0.4-0.5-0.6-1-0.6c-0.5,0-0.8,0.2-1,0.5C346.8,54.1,346.7,54.8,346.7,55.8z M347,69l10-17.5c0.2-0.1,0.6-0.2,1.2-0.2
			c0.2,0,0.4,0,0.6,0.1s0.3,0.1,0.4,0.1l0.1,0l-10,17.5c-0.3,0.1-0.7,0.2-1.2,0.2c-0.2,0-0.4,0-0.6-0.1c-0.2,0-0.3-0.1-0.4-0.1
			L347,69z M354.8,64.9c0-1.5,0.3-2.6,1-3.3c0.6-0.7,1.5-1,2.7-1c1.2,0,2,0.4,2.6,1.1c0.6,0.7,0.9,1.8,0.8,3.3c0,1.5-0.3,2.6-1,3.3
			c-0.6,0.7-1.5,1-2.7,1c-1.2,0-2-0.4-2.6-1.1C355.1,67.6,354.8,66.5,354.8,64.9z M357.1,65c0,0.7,0,1.3,0.1,1.7s0.2,0.6,0.4,0.8
			c0.2,0.1,0.4,0.2,0.7,0.2c0.3,0,0.5-0.1,0.7-0.2s0.3-0.4,0.4-0.8s0.2-0.9,0.2-1.7c0-0.7,0-1.3-0.1-1.6c-0.1-0.4-0.2-0.7-0.4-0.8
			c-0.2-0.1-0.4-0.2-0.7-0.2c-0.5,0-0.8,0.2-1,0.5C357.2,63.3,357.1,64,357.1,65z"/>
	</g>
	<g class="st1">
		<path class="st0" d="M264.7,108.8l3.4-10c0.3-0.1,0.7-0.1,1.1-0.1c0.2,0,0.4,0,0.6,0c0.2,0,0.3,0,0.4,0.1l0.1,0l3.4,10
			c-0.2,0.1-0.6,0.1-1,0.1c-0.2,0-0.3,0-0.5,0c-0.1,0-0.3,0-0.3-0.1l-0.1,0l-0.8-2.3h-3.9l-0.8,2.3c-0.2,0.1-0.5,0.1-0.9,0.1
			c-0.2,0-0.3,0-0.5,0C265,108.9,264.9,108.9,264.7,108.8L264.7,108.8z M267.7,105.1h2.9l-1-2.9c-0.1-0.3-0.2-0.5-0.2-0.8
			c-0.1-0.3-0.1-0.5-0.2-0.6l0-0.2h-0.1c-0.1,0.5-0.2,1-0.4,1.6L267.7,105.1z"/>
	</g>
	<g class="st1">
		<path class="st0" d="M273.7,101.6c0.2-0.1,0.5-0.1,0.9-0.1c0.2,0,0.4,0,0.5,0c0.2,0,0.3,0,0.3,0l0.1,0l1.3,4.2
			c0.1,0.2,0.1,0.5,0.2,0.8c0.1,0.3,0.1,0.5,0.1,0.6l0,0.2h0.1c0.1-0.5,0.3-1.1,0.4-1.6l1.3-4.1c0.2-0.1,0.5-0.1,0.8-0.1
			c0.2,0,0.3,0,0.5-0.1c0.1-0.1,0.2-0.1,0.3-0.2l0.1-0.1l-2.5,7.7c-0.3,0.1-0.7,0.1-1.1,0.1c-0.2,0-0.4,0-0.6,0s-0.3,0-0.4-0.1
			l-0.1,0L273.7,101.6z"/>
	</g>
	<g class="st1">
		<path class="st0" d="M281.5,105.2c0-1.3,0.3-2.3,0.9-2.9c0.6-0.6,1.4-0.9,2.4-0.9c0.9,0,1.6,0.2,2.2,0.7c0.5,0.5,0.8,1.2,0.8,2.2
			c0,0.3,0,0.5,0,0.8c0,0.3-0.1,0.4-0.1,0.5l0,0.2h-4.2c0.1,0.7,0.2,1.2,0.5,1.4c0.3,0.3,0.7,0.4,1.2,0.4c0.3,0,0.6,0,0.8-0.1
			c0.3-0.1,0.5-0.1,0.6-0.2l0.2-0.1c0.2,0.1,0.3,0.3,0.4,0.6c0.1,0.2,0.2,0.5,0.2,0.7c0,0-0.1,0-0.1,0.1c0,0-0.1,0.1-0.3,0.1
			c-0.2,0.1-0.3,0.1-0.5,0.2c-0.2,0.1-0.4,0.1-0.7,0.1c-0.3,0-0.6,0.1-0.9,0.1c-1.1,0-2-0.3-2.5-1
			C281.7,107.5,281.5,106.5,281.5,105.2z M283.3,104.5h2.5c0-0.2,0-0.4,0-0.5c0-0.9-0.4-1.3-1.1-1.3
			C283.9,102.7,283.4,103.3,283.3,104.5z"/>
	</g>
	<g class="st1">
		<path class="st0" d="M289.1,108.9v-7.3c0.2-0.1,0.5-0.1,0.9-0.1c0.2,0,0.3,0,0.5,0s0.3,0,0.3,0.1l0.1,0v0.8c0.5-0.7,1-1,1.6-1
			c0.5,0,0.9,0.1,1.3,0.4c-0.1,0.6-0.3,1.1-0.8,1.5c-0.3-0.2-0.5-0.3-0.8-0.3c-0.5,0-0.9,0.2-1.2,0.7v5.2c-0.2,0.1-0.5,0.1-0.9,0.1
			c-0.2,0-0.4,0-0.5,0C289.4,108.9,289.3,108.9,289.1,108.9L289.1,108.9z"/>
	</g>
	<g class="st1">
		<path class="st0" d="M294.3,106.6c0-0.8,0.2-1.4,0.7-1.7c0.5-0.4,1.2-0.5,2.1-0.5c0.5,0,1,0,1.4,0.1v-0.3c0-0.9-0.4-1.3-1.3-1.3
			c-0.3,0-0.6,0-0.9,0.1c-0.3,0.1-0.5,0.1-0.7,0.2l-0.2,0.1c-0.1-0.1-0.3-0.3-0.4-0.5c0-0.1-0.1-0.2-0.1-0.4c0-0.1,0-0.2,0-0.3
			l0-0.1c0,0,0.1,0,0.1-0.1c0.1,0,0.2-0.1,0.3-0.1s0.4-0.1,0.5-0.2c0.2,0,0.4-0.1,0.7-0.1c0.3,0,0.6-0.1,0.8-0.1
			c1,0,1.8,0.2,2.2,0.6s0.7,1.1,0.7,2v4.9c-0.1,0.1-0.4,0.1-0.7,0.1c-0.1,0-0.3,0-0.4,0c-0.1,0-0.2,0-0.3-0.1l-0.1,0l-0.3-0.8
			c-0.3,0.7-1,1-2.1,1c-0.7,0-1.2-0.2-1.6-0.6S294.3,107.5,294.3,106.6z M296.1,106.6c0,0.4,0.1,0.7,0.3,0.8
			c0.2,0.2,0.4,0.3,0.8,0.3c0.2,0,0.4-0.1,0.6-0.2s0.3-0.2,0.4-0.4s0.2-0.3,0.2-0.5c0-0.2,0.1-0.4,0.1-0.6v-0.4
			c-0.5,0-0.9-0.1-1.2-0.1C296.5,105.6,296.1,105.9,296.1,106.6z"/>
	</g>
	<g class="st1">
		<path class="st0" d="M301.5,110.6c0-0.8,0.4-1.4,1.2-1.9c-0.3-0.2-0.4-0.5-0.4-0.8c0-0.5,0.3-1.1,0.8-1.6
			c-0.9-0.4-1.3-1.2-1.3-2.3c0-0.8,0.2-1.5,0.7-1.9s1.2-0.7,2.1-0.7c0.7,0,1.2,0.1,1.6,0.3l2-0.3c0.1,0.2,0.1,0.4,0.1,0.7
			c0,0.3,0,0.5-0.1,0.7l-1.1-0.1c0.2,0.4,0.3,0.8,0.3,1.4c0,0.8-0.2,1.5-0.7,1.9s-1.2,0.7-2.1,0.7c-0.2,0-0.4,0-0.5,0
			c-0.1,0.2-0.2,0.3-0.2,0.5c0,0,0,0.1,0,0.1c0,0.1,0.1,0.3,0.3,0.3c0.1,0.1,0.3,0.1,0.5,0.2c0.2,0,0.4,0.1,0.7,0.1
			c0.3,0,0.5,0.1,0.8,0.1c0.3,0,0.5,0.1,0.8,0.2s0.5,0.2,0.7,0.4s0.3,0.3,0.5,0.6s0.2,0.6,0.2,0.9c0,0.7-0.3,1.4-1,1.8
			c-0.7,0.5-1.6,0.7-2.7,0.7c-1.1,0-1.8-0.2-2.3-0.5C301.7,111.7,301.5,111.2,301.5,110.6z M303.2,110.2c0,0.3,0.1,0.6,0.4,0.8
			c0.2,0.2,0.6,0.3,1.1,0.3c0.7,0,1.2-0.1,1.5-0.3c0.3-0.2,0.5-0.5,0.5-0.8c0-0.2-0.1-0.3-0.2-0.4c-0.1-0.1-0.3-0.2-0.5-0.2
			c-0.2,0-0.5-0.1-0.7-0.1c-0.2,0-0.5-0.1-0.8-0.1c-0.3-0.1-0.6-0.1-0.8-0.2C303.3,109.5,303.2,109.8,303.2,110.2z M303.5,103.9
			c0,0.5,0.1,0.8,0.3,1c0.2,0.2,0.5,0.3,0.9,0.3c0.4,0,0.7-0.1,0.9-0.3s0.3-0.6,0.3-1c0-0.5-0.1-0.8-0.3-1c-0.2-0.2-0.5-0.3-0.9-0.3
			c-0.4,0-0.7,0.1-0.9,0.3C303.6,103.1,303.5,103.5,303.5,103.9z"/>
	</g>
	<g class="st1">
		<path class="st0" d="M309.3,105.2c0-1.3,0.3-2.3,0.9-2.9c0.6-0.6,1.4-0.9,2.4-0.9c0.9,0,1.6,0.2,2.2,0.7c0.5,0.5,0.8,1.2,0.8,2.2
			c0,0.3,0,0.5,0,0.8c0,0.3-0.1,0.4-0.1,0.5l0,0.2h-4.2c0.1,0.7,0.2,1.2,0.5,1.4c0.3,0.3,0.7,0.4,1.2,0.4c0.3,0,0.6,0,0.8-0.1
			c0.3-0.1,0.5-0.1,0.6-0.2l0.2-0.1c0.2,0.1,0.3,0.3,0.4,0.6c0.1,0.2,0.2,0.5,0.2,0.7c0,0-0.1,0-0.1,0.1c0,0-0.1,0.1-0.3,0.1
			s-0.3,0.1-0.5,0.2c-0.2,0.1-0.4,0.1-0.7,0.1c-0.3,0-0.6,0.1-0.9,0.1c-1.1,0-2-0.3-2.5-1C309.6,107.5,309.3,106.5,309.3,105.2z
			 M311.2,104.5h2.5c0-0.2,0-0.4,0-0.5c0-0.9-0.4-1.3-1.1-1.3C311.8,102.7,311.3,103.3,311.2,104.5z"/>
		<path class="st0" d="M319.7,106.6c0-0.8,0.2-1.4,0.7-1.7c0.5-0.4,1.2-0.5,2.1-0.5c0.5,0,1,0,1.4,0.1v-0.3c0-0.9-0.4-1.3-1.3-1.3
			c-0.3,0-0.6,0-0.9,0.1c-0.3,0.1-0.5,0.1-0.7,0.2l-0.2,0.1c-0.1-0.1-0.3-0.3-0.4-0.5c0-0.1-0.1-0.2-0.1-0.4s0-0.2,0-0.3l0-0.1
			c0,0,0.1,0,0.1-0.1s0.2-0.1,0.3-0.1c0.2-0.1,0.4-0.1,0.5-0.2c0.2,0,0.4-0.1,0.7-0.1s0.6-0.1,0.8-0.1c1,0,1.8,0.2,2.2,0.6
			s0.7,1.1,0.7,2v4.9c-0.1,0.1-0.4,0.1-0.7,0.1c-0.1,0-0.3,0-0.4,0c-0.1,0-0.2,0-0.3-0.1l-0.1,0l-0.3-0.8c-0.3,0.7-1,1-2.1,1
			c-0.7,0-1.2-0.2-1.6-0.6S319.7,107.5,319.7,106.6z M321.5,106.6c0,0.4,0.1,0.7,0.3,0.8c0.2,0.2,0.4,0.3,0.8,0.3
			c0.2,0,0.4-0.1,0.6-0.2c0.2-0.1,0.3-0.2,0.4-0.4s0.2-0.3,0.2-0.5c0-0.2,0.1-0.4,0.1-0.6v-0.4c-0.5,0-0.9-0.1-1.2-0.1
			C321.9,105.6,321.5,105.9,321.5,106.6z"/>
		<path class="st0" d="M327.5,108.9v-7.3c0.2-0.1,0.5-0.1,0.9-0.1c0.2,0,0.3,0,0.5,0s0.3,0,0.3,0.1l0.1,0v0.4c0.5-0.5,1.2-0.7,2-0.7
			c0.7,0,1.3,0.2,1.7,0.6s0.6,0.9,0.6,1.6v5.4c-0.2,0.1-0.5,0.1-0.9,0.1c-0.2,0-0.4,0-0.5,0c-0.1,0-0.3,0-0.3-0.1l-0.1,0v-5
			c0-0.3-0.1-0.6-0.3-0.8c-0.2-0.2-0.5-0.3-0.9-0.3c-0.5,0-0.9,0.2-1.3,0.5v5.5c-0.2,0.1-0.5,0.1-0.9,0.1c-0.2,0-0.4,0-0.5,0
			C327.7,108.9,327.6,108.9,327.5,108.9L327.5,108.9z"/>
		<path class="st0" d="M335.3,108.9v-7.3c0.2-0.1,0.5-0.1,0.9-0.1c0.2,0,0.3,0,0.5,0s0.3,0,0.3,0.1l0.1,0v0.4c0.5-0.5,1.2-0.7,2-0.7
			c0.7,0,1.3,0.2,1.7,0.6s0.6,0.9,0.6,1.6v5.4c-0.2,0.1-0.5,0.1-0.9,0.1c-0.2,0-0.4,0-0.5,0c-0.1,0-0.3,0-0.3-0.1l-0.1,0v-5
			c0-0.3-0.1-0.6-0.3-0.8c-0.2-0.2-0.5-0.3-0.9-0.3c-0.5,0-0.9,0.2-1.3,0.5v5.5c-0.2,0.1-0.5,0.1-0.9,0.1c-0.2,0-0.4,0-0.5,0
			C335.5,108.9,335.4,108.9,335.3,108.9L335.3,108.9z"/>
		<path class="st0" d="M343.1,106.9v-5.4c0.2-0.1,0.5-0.1,0.9-0.1c0.2,0,0.4,0,0.5,0c0.1,0,0.3,0,0.3,0.1l0.1,0v5
			c0,0.3,0.1,0.6,0.3,0.8c0.2,0.2,0.5,0.3,0.9,0.3c0.5,0,0.9-0.2,1.3-0.5v-5.5c0.2-0.1,0.5-0.1,0.9-0.1c0.2,0,0.4,0,0.5,0
			s0.3,0,0.3,0.1l0.1,0v7.3c-0.2,0.1-0.5,0.1-0.9,0.1c-0.2,0-0.3,0-0.5,0s-0.3,0-0.3-0.1l-0.1,0v-0.4c-0.5,0.5-1.1,0.7-2,0.7
			c-0.7,0-1.3-0.2-1.7-0.6C343.2,108.1,343.1,107.6,343.1,106.9z"/>
		<path class="st0" d="M350.5,106.6c0-0.8,0.2-1.4,0.7-1.7c0.5-0.4,1.2-0.5,2.1-0.5c0.5,0,1,0,1.4,0.1v-0.3c0-0.9-0.4-1.3-1.3-1.3
			c-0.3,0-0.6,0-0.9,0.1c-0.3,0.1-0.5,0.1-0.7,0.2l-0.2,0.1c-0.1-0.1-0.3-0.3-0.4-0.5c-0.1-0.1-0.1-0.2-0.1-0.4c0-0.1,0-0.2,0-0.3
			l0-0.1c0,0,0.1,0,0.1-0.1c0.1,0,0.2-0.1,0.3-0.1s0.4-0.1,0.5-0.2s0.4-0.1,0.7-0.1c0.3,0,0.6-0.1,0.8-0.1c1,0,1.8,0.2,2.2,0.6
			s0.7,1.1,0.7,2v4.9c-0.1,0.1-0.4,0.1-0.7,0.1c-0.1,0-0.3,0-0.4,0c-0.1,0-0.2,0-0.3-0.1l-0.1,0l-0.3-0.8c-0.3,0.7-1,1-2.1,1
			c-0.7,0-1.2-0.2-1.6-0.6C350.7,108.1,350.5,107.5,350.5,106.6z M352.3,106.6c0,0.4,0.1,0.7,0.3,0.8c0.2,0.2,0.4,0.3,0.8,0.3
			c0.2,0,0.4-0.1,0.6-0.2s0.3-0.2,0.4-0.4s0.2-0.3,0.2-0.5c0-0.2,0.1-0.4,0.1-0.6v-0.4c-0.5,0-0.9-0.1-1.2-0.1
			C352.7,105.6,352.3,105.9,352.3,106.6z"/>
		<path class="st0" d="M358.3,108.9V98.4c0.2-0.1,0.5-0.1,0.9-0.1c0.2,0,0.3,0,0.5,0c0.2,0,0.3,0,0.3,0.1l0.1,0v10.5
			c-0.2,0.1-0.5,0.1-0.9,0.1c-0.2,0-0.4,0-0.5,0C358.6,108.9,358.5,108.9,358.3,108.9L358.3,108.9z"/>
	</g>
	<g class="st1">
		<path class="st0" d="M261.9,117v-1.6c0.2-0.1,0.5-0.1,0.9-0.1c0.2,0,0.3,0,0.5,0s0.3,0,0.3,0.1l0.1,0v1.6
			c-0.2,0.1-0.5,0.1-0.9,0.1c-0.2,0-0.4,0-0.5,0C262.2,117.1,262.1,117.1,261.9,117L261.9,117z M261.9,125.7v-7.3
			c0.2-0.1,0.5-0.1,0.9-0.1c0.2,0,0.3,0,0.5,0c0.2,0,0.3,0,0.3,0.1l0.1,0v7.3c-0.2,0.1-0.5,0.1-0.9,0.1c-0.2,0-0.4,0-0.5,0
			C262.2,125.8,262.1,125.7,261.9,125.7L261.9,125.7z"/>
		<path class="st0" d="M265.6,125.7v-7.3c0.2-0.1,0.5-0.1,0.9-0.1c0.2,0,0.3,0,0.5,0s0.3,0,0.3,0.1l0.1,0v0.4c0.5-0.5,1.2-0.7,2-0.7
			c0.7,0,1.3,0.2,1.7,0.6s0.6,0.9,0.6,1.6v5.4c-0.2,0.1-0.5,0.1-0.9,0.1c-0.2,0-0.4,0-0.5,0c-0.1,0-0.3,0-0.3-0.1l-0.1,0v-5
			c0-0.3-0.1-0.6-0.3-0.8c-0.2-0.2-0.5-0.3-0.9-0.3c-0.5,0-0.9,0.2-1.3,0.5v5.5c-0.2,0.1-0.5,0.1-0.9,0.1c-0.2,0-0.4,0-0.5,0
			C265.9,125.8,265.8,125.7,265.6,125.7L265.6,125.7z"/>
		<path class="st0" d="M273.1,122c0-2.6,1.1-3.9,3.2-3.9c0.4,0,0.8,0,1.2,0.1c0.3,0.1,0.6,0.1,0.7,0.2l0.2,0.1c0,0.2,0,0.5-0.1,0.7
			s-0.2,0.4-0.4,0.6c-0.3-0.1-0.7-0.2-1.2-0.2c-0.6,0-1,0.2-1.3,0.6s-0.4,1-0.4,1.9c0,0.8,0.1,1.5,0.4,1.8c0.3,0.4,0.7,0.6,1.3,0.6
			c0.2,0,0.4,0,0.6,0c0.2,0,0.4-0.1,0.5-0.1l0.2,0c0.1,0.1,0.3,0.3,0.4,0.6c0.1,0.2,0.1,0.5,0.1,0.7c0,0-0.1,0.1-0.2,0.1
			c-0.1,0-0.3,0.1-0.7,0.2s-0.8,0.1-1.2,0.1C274.2,125.9,273.1,124.6,273.1,122z"/>
	</g>
	<g class="st1">
		<path class="st0" d="M279.8,125.7v-7.3c0.2-0.1,0.5-0.1,0.9-0.1c0.2,0,0.3,0,0.5,0s0.3,0,0.3,0.1l0.1,0v0.8c0.5-0.7,1-1,1.6-1
			c0.5,0,0.9,0.1,1.3,0.4c-0.1,0.6-0.3,1.1-0.8,1.5c-0.3-0.2-0.5-0.3-0.8-0.3c-0.5,0-0.9,0.2-1.2,0.7v5.2c-0.2,0.1-0.5,0.1-0.9,0.1
			c-0.2,0-0.4,0-0.5,0C280.1,125.8,280,125.7,279.8,125.7L279.8,125.7z"/>
	</g>
	<g class="st1">
		<path class="st0" d="M285,122c0-1.3,0.3-2.3,0.9-2.9c0.6-0.6,1.4-0.9,2.4-0.9c0.9,0,1.6,0.2,2.2,0.7c0.5,0.5,0.8,1.2,0.8,2.2
			c0,0.3,0,0.5,0,0.8c0,0.3-0.1,0.4-0.1,0.5l0,0.2h-4.2c0.1,0.7,0.2,1.2,0.5,1.4c0.3,0.3,0.7,0.4,1.2,0.4c0.3,0,0.6,0,0.8-0.1
			c0.3-0.1,0.5-0.1,0.6-0.2l0.2-0.1c0.2,0.1,0.3,0.3,0.4,0.6c0.1,0.2,0.2,0.5,0.2,0.7c0,0-0.1,0-0.1,0.1c0,0-0.1,0.1-0.3,0.1
			c-0.2,0.1-0.3,0.1-0.5,0.2c-0.2,0.1-0.4,0.1-0.7,0.1c-0.3,0-0.6,0.1-0.9,0.1c-1.1,0-2-0.3-2.5-1C285.3,124.3,285,123.3,285,122z
			 M286.9,121.4h2.5c0-0.2,0-0.4,0-0.5c0-0.9-0.4-1.3-1.1-1.3C287.5,119.5,287,120.1,286.9,121.4z"/>
		<path class="st0" d="M292.3,123.5c0-0.8,0.2-1.4,0.7-1.7c0.5-0.4,1.2-0.5,2.1-0.5c0.5,0,1,0,1.4,0.1V121c0-0.9-0.4-1.3-1.3-1.3
			c-0.3,0-0.6,0-0.9,0.1c-0.3,0.1-0.5,0.1-0.7,0.2l-0.2,0.1c-0.1-0.1-0.3-0.3-0.4-0.5c-0.1-0.1-0.1-0.2-0.1-0.4c0-0.1,0-0.2,0-0.3
			l0-0.1c0,0,0.1,0,0.1-0.1c0.1,0,0.2-0.1,0.3-0.1s0.4-0.1,0.5-0.2s0.4-0.1,0.7-0.1c0.3,0,0.6-0.1,0.8-0.1c1,0,1.8,0.2,2.2,0.6
			s0.7,1.1,0.7,2v4.9c-0.1,0.1-0.4,0.1-0.7,0.1c-0.1,0-0.3,0-0.4,0c-0.1,0-0.2,0-0.3-0.1l-0.1,0l-0.3-0.8c-0.3,0.7-1,1-2.1,1
			c-0.7,0-1.2-0.2-1.6-0.6C292.5,124.9,292.3,124.3,292.3,123.5z M294.1,123.5c0,0.4,0.1,0.7,0.3,0.8c0.2,0.2,0.4,0.3,0.8,0.3
			c0.2,0,0.4-0.1,0.6-0.2s0.3-0.2,0.4-0.4s0.2-0.3,0.2-0.5c0-0.2,0.1-0.4,0.1-0.6v-0.4c-0.5,0-0.9-0.1-1.2-0.1
			C294.5,122.4,294.1,122.8,294.1,123.5z"/>
		<path class="st0" d="M299.8,125.4c0-0.6,0.2-1,0.5-1.3c0.6,0.2,1.2,0.3,1.9,0.3c0.7,0,1.1-0.3,1.1-0.8c0-0.2-0.1-0.3-0.2-0.5
			c-0.1-0.1-0.3-0.2-0.4-0.3s-0.4-0.1-0.7-0.2c-0.1,0-0.1,0-0.2,0c-0.2-0.1-0.4-0.1-0.5-0.2s-0.3-0.1-0.4-0.2
			c-0.2-0.1-0.3-0.2-0.4-0.3c-0.1-0.1-0.2-0.2-0.3-0.4c-0.1-0.1-0.2-0.3-0.2-0.5c-0.1-0.2-0.1-0.4-0.1-0.6c0-0.7,0.2-1.3,0.7-1.7
			c0.5-0.4,1.1-0.6,2-0.6c0.5,0,0.9,0,1.2,0.1s0.6,0.1,0.7,0.2l0.2,0.1c0,0.6-0.2,1-0.5,1.3c-0.5-0.2-0.9-0.2-1.5-0.2
			c-0.8,0-1.2,0.3-1.2,0.8c0,0.1,0,0.2,0.1,0.3c0.1,0.1,0.1,0.1,0.2,0.2c0.1,0.1,0.2,0.1,0.3,0.2c0.1,0.1,0.3,0.1,0.4,0.1
			c0.1,0,0.3,0.1,0.4,0.1c0.2,0.1,0.3,0.1,0.4,0.1c0.2,0.1,0.5,0.2,0.6,0.3c0.2,0.1,0.4,0.2,0.5,0.4c0.2,0.2,0.3,0.4,0.4,0.6
			c0.1,0.2,0.1,0.5,0.1,0.9c0,0.8-0.2,1.3-0.7,1.7c-0.5,0.4-1.2,0.6-2.1,0.6c-0.3,0-0.6,0-0.8-0.1c-0.3,0-0.5-0.1-0.7-0.1
			s-0.4-0.1-0.5-0.2s-0.2-0.1-0.3-0.1L299.8,125.4z"/>
		<path class="st0" d="M306.1,122c0-1.3,0.3-2.3,0.9-2.9c0.6-0.6,1.4-0.9,2.4-0.9c0.9,0,1.6,0.2,2.2,0.7c0.5,0.5,0.8,1.2,0.8,2.2
			c0,0.3,0,0.5,0,0.8c0,0.3-0.1,0.4-0.1,0.5l0,0.2H308c0.1,0.7,0.2,1.2,0.5,1.4c0.3,0.3,0.7,0.4,1.2,0.4c0.3,0,0.6,0,0.8-0.1
			c0.3-0.1,0.5-0.1,0.6-0.2l0.2-0.1c0.2,0.1,0.3,0.3,0.4,0.6c0.1,0.2,0.2,0.5,0.2,0.7c0,0-0.1,0-0.1,0.1c0,0-0.1,0.1-0.3,0.1
			c-0.2,0.1-0.3,0.1-0.5,0.2c-0.2,0.1-0.4,0.1-0.7,0.1c-0.3,0-0.6,0.1-0.9,0.1c-1.1,0-2-0.3-2.5-1
			C306.4,124.3,306.1,123.3,306.1,122z M308,121.4h2.5c0-0.2,0-0.4,0-0.5c0-0.9-0.4-1.3-1.1-1.3C308.6,119.5,308.1,120.1,308,121.4z
			"/>
		<path class="st0" d="M316.9,117v-1.6c0.2-0.1,0.5-0.1,0.9-0.1c0.2,0,0.3,0,0.5,0s0.3,0,0.3,0.1l0.1,0v1.6
			c-0.2,0.1-0.5,0.1-0.9,0.1c-0.2,0-0.4,0-0.5,0C317.2,117.1,317.1,117.1,316.9,117L316.9,117z M316.9,125.7v-7.3
			c0.2-0.1,0.5-0.1,0.9-0.1c0.2,0,0.3,0,0.5,0c0.2,0,0.3,0,0.3,0.1l0.1,0v7.3c-0.2,0.1-0.5,0.1-0.9,0.1c-0.2,0-0.4,0-0.5,0
			C317.2,125.8,317.1,125.7,316.9,125.7L316.9,125.7z"/>
		<path class="st0" d="M320.6,125.7v-7.3c0.2-0.1,0.5-0.1,0.9-0.1c0.2,0,0.3,0,0.5,0s0.3,0,0.3,0.1l0.1,0v0.4c0.5-0.5,1.2-0.7,2-0.7
			c0.7,0,1.3,0.2,1.7,0.6s0.6,0.9,0.6,1.6v5.4c-0.2,0.1-0.5,0.1-0.9,0.1c-0.2,0-0.4,0-0.5,0c-0.1,0-0.3,0-0.3-0.1l-0.1,0v-5
			c0-0.3-0.1-0.6-0.3-0.8c-0.2-0.2-0.5-0.3-0.9-0.3c-0.5,0-0.9,0.2-1.3,0.5v5.5c-0.2,0.1-0.5,0.1-0.9,0.1c-0.2,0-0.4,0-0.5,0
			C320.8,125.8,320.7,125.7,320.6,125.7L320.6,125.7z"/>
		<path class="st0" d="M331.5,125.7v-10.5c0.2-0.1,0.5-0.1,0.9-0.1c0.2,0,0.3,0,0.5,0s0.3,0,0.3,0.1l0.1,0v3.7
			c0.4-0.5,1-0.8,1.9-0.8c0.4,0,0.8,0.1,1.1,0.2c0.3,0.1,0.6,0.4,0.8,0.7c0.2,0.3,0.4,0.7,0.5,1.2c0.1,0.5,0.2,1.1,0.2,1.8
			c0,0.7-0.1,1.3-0.2,1.8c-0.1,0.5-0.3,0.9-0.5,1.2s-0.5,0.5-0.8,0.7c-0.3,0.1-0.7,0.2-1.1,0.2c-0.9,0-1.5-0.2-1.9-0.7v0.5
			c-0.2,0.1-0.5,0.1-0.9,0.1c-0.2,0-0.3,0-0.5,0C331.7,125.8,331.6,125.7,331.5,125.7L331.5,125.7z M333.3,122.9
			c0,0.5,0.1,0.8,0.3,1.1c0.2,0.3,0.5,0.4,0.9,0.4c0.2,0,0.4,0,0.6-0.1c0.2-0.1,0.3-0.2,0.4-0.4c0.1-0.2,0.2-0.4,0.3-0.7
			c0.1-0.3,0.1-0.7,0.1-1.2c0-0.5,0-0.9-0.1-1.2s-0.2-0.6-0.3-0.7c-0.1-0.2-0.3-0.3-0.4-0.4c-0.2-0.1-0.4-0.1-0.6-0.1
			c-0.4,0-0.7,0.1-0.9,0.4s-0.3,0.7-0.3,1.1V122.9z"/>
		<path class="st0" d="M340,125c-0.6-0.6-0.8-1.6-0.8-3c0-1.3,0.3-2.3,0.8-3s1.4-0.9,2.4-0.9s1.9,0.3,2.4,0.9c0.6,0.6,0.8,1.6,0.8,3
			c0,1.4-0.3,2.4-0.8,3c-0.6,0.6-1.4,0.9-2.4,0.9C341.4,125.9,340.6,125.6,340,125z M341.1,120.8c-0.1,0.3-0.1,0.7-0.1,1.2
			c0,0.5,0,0.9,0.1,1.2c0.1,0.3,0.2,0.6,0.3,0.8s0.3,0.3,0.4,0.4c0.2,0.1,0.4,0.1,0.6,0.1s0.4,0,0.6-0.1c0.2-0.1,0.3-0.2,0.4-0.4
			s0.2-0.4,0.3-0.8s0.1-0.7,0.1-1.2c0-0.5,0-0.9-0.1-1.2c-0.1-0.3-0.2-0.6-0.3-0.8c-0.1-0.2-0.3-0.3-0.4-0.4
			c-0.2-0.1-0.4-0.1-0.6-0.1s-0.4,0-0.6,0.1c-0.2,0.1-0.3,0.2-0.4,0.4C341.2,120.2,341.1,120.5,341.1,120.8z"/>
		<path class="st0" d="M347.3,125.7v-7.3c0.2-0.1,0.5-0.1,0.9-0.1c0.2,0,0.3,0,0.5,0s0.3,0,0.3,0.1l0.1,0v0.4c0.5-0.5,1.2-0.7,2-0.7
			c0.7,0,1.3,0.2,1.7,0.6c0.4,0.4,0.6,0.9,0.6,1.6v5.4c-0.2,0.1-0.5,0.1-0.9,0.1c-0.2,0-0.4,0-0.5,0s-0.3,0-0.3-0.1l-0.1,0v-5
			c0-0.3-0.1-0.6-0.3-0.8c-0.2-0.2-0.5-0.3-0.9-0.3c-0.5,0-0.9,0.2-1.3,0.5v5.5c-0.2,0.1-0.5,0.1-0.9,0.1c-0.2,0-0.4,0-0.5,0
			C347.5,125.8,347.4,125.7,347.3,125.7L347.3,125.7z"/>
		<path class="st0" d="M354.8,122c0-1.3,0.3-2.3,0.9-2.9c0.6-0.6,1.4-0.9,2.4-0.9c0.9,0,1.6,0.2,2.2,0.7c0.5,0.5,0.8,1.2,0.8,2.2
			c0,0.3,0,0.5,0,0.8c0,0.3-0.1,0.4-0.1,0.5l0,0.2h-4.2c0.1,0.7,0.2,1.2,0.5,1.4c0.3,0.3,0.7,0.4,1.2,0.4c0.3,0,0.6,0,0.8-0.1
			c0.3-0.1,0.5-0.1,0.6-0.2l0.2-0.1c0.2,0.1,0.3,0.3,0.4,0.6c0.1,0.2,0.2,0.5,0.2,0.7c0,0-0.1,0-0.1,0.1c0,0-0.1,0.1-0.3,0.1
			c-0.2,0.1-0.3,0.1-0.5,0.2c-0.2,0.1-0.4,0.1-0.7,0.1c-0.3,0-0.6,0.1-0.9,0.1c-1.1,0-2-0.3-2.5-1
			C355.1,124.3,354.8,123.3,354.8,122z M356.6,121.4h2.5c0-0.2,0-0.4,0-0.5c0-0.9-0.4-1.3-1.1-1.3
			C357.2,119.5,356.8,120.1,356.6,121.4z"/>
	</g>
	<g class="st1">
		<path class="st0" d="M258.9,140.7c-0.1-0.5-0.2-1.1-0.2-1.8c0-0.7,0.1-1.3,0.2-1.8s0.3-0.9,0.5-1.2c0.2-0.3,0.5-0.5,0.8-0.7
			c0.3-0.1,0.7-0.2,1.1-0.2c0.9,0,1.5,0.3,1.9,0.8V132c0.2-0.1,0.5-0.1,0.9-0.1c0.2,0,0.3,0,0.5,0c0.1,0,0.3,0,0.3,0.1l0.1,0v10.5
			c-0.2,0.1-0.5,0.1-0.8,0.1c-0.1,0-0.3,0-0.4,0s-0.2,0-0.3-0.1l-0.1,0l-0.1-0.6c-0.4,0.6-1.1,0.9-2,0.9c-0.4,0-0.8-0.1-1.1-0.2
			c-0.3-0.1-0.6-0.4-0.8-0.7C259.2,141.6,259,141.2,258.9,140.7z M260.5,138.9c0,0.5,0,0.9,0.1,1.2c0.1,0.3,0.2,0.6,0.3,0.7
			c0.1,0.2,0.3,0.3,0.4,0.4c0.2,0.1,0.4,0.1,0.6,0.1c0.4,0,0.7-0.1,0.9-0.4c0.2-0.3,0.4-0.7,0.4-1.1v-1.8c0-0.4-0.1-0.8-0.4-1.1
			s-0.5-0.4-0.9-0.4c-0.2,0-0.4,0-0.5,0.1c-0.1,0-0.3,0.1-0.4,0.2s-0.2,0.2-0.3,0.4s-0.1,0.4-0.2,0.7
			C260.6,138.1,260.5,138.5,260.5,138.9z"/>
		<path class="st0" d="M266.7,138.8c0-1.3,0.3-2.3,0.9-2.9c0.6-0.6,1.4-0.9,2.4-0.9c0.9,0,1.6,0.2,2.2,0.7c0.5,0.5,0.8,1.2,0.8,2.2
			c0,0.3,0,0.5,0,0.8c0,0.3-0.1,0.4-0.1,0.5l0,0.2h-4.2c0.1,0.7,0.2,1.2,0.5,1.4c0.3,0.3,0.7,0.4,1.2,0.4c0.3,0,0.6,0,0.8-0.1
			c0.3-0.1,0.5-0.1,0.6-0.2l0.2-0.1c0.2,0.1,0.3,0.3,0.4,0.6c0.1,0.2,0.2,0.5,0.2,0.7c0,0-0.1,0-0.1,0.1c0,0-0.1,0.1-0.3,0.1
			c-0.2,0.1-0.3,0.1-0.5,0.2c-0.2,0.1-0.4,0.1-0.7,0.1c-0.3,0-0.6,0.1-0.9,0.1c-1.1,0-2-0.3-2.5-1
			C266.9,141.1,266.7,140.1,266.7,138.8z M268.5,138.2h2.5c0-0.2,0-0.4,0-0.5c0-0.9-0.4-1.3-1.1-1.3
			C269.1,136.4,268.6,137,268.5,138.2z"/>
		<path class="st0" d="M274.3,142.5v-7.3c0.2-0.1,0.5-0.1,0.9-0.1c0.2,0,0.3,0,0.5,0s0.3,0,0.3,0.1l0.1,0v0.4c0.5-0.5,1.2-0.7,2-0.7
			c0.7,0,1.3,0.2,1.7,0.6s0.6,0.9,0.6,1.6v5.4c-0.2,0.1-0.5,0.1-0.9,0.1c-0.2,0-0.4,0-0.5,0c-0.1,0-0.3,0-0.3-0.1l-0.1,0v-5
			c0-0.3-0.1-0.6-0.3-0.8c-0.2-0.2-0.5-0.3-0.9-0.3c-0.5,0-0.9,0.2-1.3,0.5v5.5c-0.2,0.1-0.5,0.1-0.9,0.1c-0.2,0-0.4,0-0.5,0
			C274.6,142.6,274.5,142.6,274.3,142.5L274.3,142.5z"/>
		<path class="st0" d="M281.8,142.2c0-0.6,0.2-1,0.5-1.3c0.6,0.2,1.2,0.3,1.9,0.3c0.7,0,1.1-0.3,1.1-0.8c0-0.2-0.1-0.3-0.2-0.5
			c-0.1-0.1-0.3-0.2-0.4-0.3s-0.4-0.1-0.7-0.2c-0.1,0-0.1,0-0.2,0c-0.2-0.1-0.4-0.1-0.5-0.2s-0.3-0.1-0.4-0.2
			c-0.2-0.1-0.3-0.2-0.4-0.3c-0.1-0.1-0.2-0.2-0.3-0.4c-0.1-0.1-0.2-0.3-0.2-0.5c-0.1-0.2-0.1-0.4-0.1-0.6c0-0.7,0.2-1.3,0.7-1.7
			c0.5-0.4,1.1-0.6,2-0.6c0.5,0,0.9,0,1.2,0.1s0.6,0.1,0.7,0.2l0.2,0.1c0,0.6-0.2,1-0.5,1.3c-0.5-0.2-0.9-0.2-1.5-0.2
			c-0.8,0-1.2,0.3-1.2,0.8c0,0.1,0,0.2,0.1,0.3c0.1,0.1,0.1,0.1,0.2,0.2c0.1,0.1,0.2,0.1,0.3,0.2c0.1,0.1,0.3,0.1,0.4,0.1
			c0.1,0,0.3,0.1,0.4,0.1c0.2,0.1,0.3,0.1,0.4,0.1c0.2,0.1,0.5,0.2,0.6,0.3c0.2,0.1,0.4,0.2,0.5,0.4c0.2,0.2,0.3,0.4,0.4,0.6
			c0.1,0.2,0.1,0.5,0.1,0.9c0,0.8-0.2,1.3-0.7,1.7c-0.5,0.4-1.2,0.6-2.1,0.6c-0.3,0-0.6,0-0.8-0.1c-0.3,0-0.5-0.1-0.7-0.1
			s-0.4-0.1-0.5-0.2s-0.2-0.1-0.3-0.1L281.8,142.2z"/>
		<path class="st0" d="M288.5,133.9v-1.6c0.2-0.1,0.5-0.1,0.9-0.1c0.2,0,0.3,0,0.5,0s0.3,0,0.3,0.1l0.1,0v1.6
			c-0.2,0.1-0.5,0.1-0.9,0.1c-0.2,0-0.4,0-0.5,0C288.8,133.9,288.7,133.9,288.5,133.9L288.5,133.9z M288.5,142.5v-7.3
			c0.2-0.1,0.5-0.1,0.9-0.1c0.2,0,0.3,0,0.5,0c0.2,0,0.3,0,0.3,0.1l0.1,0v7.3c-0.2,0.1-0.5,0.1-0.9,0.1c-0.2,0-0.4,0-0.5,0
			C288.8,142.6,288.7,142.6,288.5,142.5L288.5,142.5z"/>
		<path class="st0" d="M291.6,135.8c0-0.1,0-0.3,0-0.4c0-0.1,0-0.2,0.1-0.3l0-0.1h1.1V134c0.4-0.2,0.9-0.4,1.5-0.4
			c0.1,0,0.2,0,0.3,0v1.5h1.7c0.1,0.2,0.1,0.4,0.1,0.7c0,0.1,0,0.2,0,0.4c0,0.1,0,0.2-0.1,0.3l0,0.1h-1.7v3.3c0,0.6,0.1,1,0.3,1.2
			c0.2,0.2,0.6,0.3,1,0.3l0.5,0c0.1,0.2,0.1,0.5,0.1,0.7c0,0.1,0,0.2,0,0.3s0,0.2-0.1,0.2l0,0.1c-0.3,0.1-0.6,0.1-1.1,0.1
			c-0.9,0-1.6-0.2-2-0.7s-0.6-1.2-0.6-2.1v-3.4h-1.1C291.6,136.3,291.6,136.1,291.6,135.8z"/>
	</g>
	<g class="st1">
		<path class="st0" d="M297.1,135.2c0.2-0.1,0.5-0.1,0.9-0.1c0.2,0,0.3,0,0.5,0c0.2,0,0.3,0,0.3,0.1l0.1,0l1.3,3.8
			c0.1,0.3,0.2,0.6,0.3,0.9c0.1,0.3,0.1,0.5,0.2,0.7l0,0.2h0.1c0.1-0.5,0.2-1.1,0.5-1.8l1.2-3.8c0.2-0.1,0.5-0.1,0.9-0.1
			c0.2,0,0.3,0,0.4,0c0.1,0,0.2-0.1,0.3-0.1l0.1,0l-2.6,8.5c-0.1,0.3-0.2,0.6-0.3,0.8c-0.1,0.2-0.2,0.5-0.3,0.7
			c-0.1,0.2-0.2,0.4-0.4,0.6c-0.1,0.1-0.3,0.3-0.5,0.4s-0.4,0.2-0.6,0.3c-0.2,0.1-0.5,0.1-0.8,0.1c-0.1,0-0.3,0-0.4,0
			c-0.1,0-0.2-0.1-0.3-0.1l-0.1,0c-0.1-0.2-0.1-0.4-0.1-0.7c0-0.1,0-0.2,0-0.3c0-0.1,0-0.2,0.1-0.3l0-0.1c0.2,0,0.5,0.1,0.7,0.1
			c0.2,0,0.3,0,0.4,0c0.1,0,0.2,0,0.3-0.1c0.1-0.1,0.2-0.1,0.3-0.2s0.2-0.3,0.2-0.5c0.1-0.2,0.2-0.4,0.3-0.7l0.2-0.6
			c-0.2,0-0.4,0-0.6-0.1L297.1,135.2z"/>
	</g>
	<g class="st1">
		<path class="st0" d="M308.2,133.9v-1.6c0.2-0.1,0.5-0.1,0.9-0.1c0.2,0,0.3,0,0.5,0c0.2,0,0.3,0,0.3,0.1l0.1,0v1.6
			c-0.2,0.1-0.5,0.1-0.9,0.1c-0.2,0-0.4,0-0.5,0C308.4,133.9,308.3,133.9,308.2,133.9L308.2,133.9z M308.2,142.5v-7.3
			c0.2-0.1,0.5-0.1,0.9-0.1c0.2,0,0.3,0,0.5,0c0.2,0,0.3,0,0.3,0.1l0.1,0v7.3c-0.2,0.1-0.5,0.1-0.9,0.1c-0.2,0-0.4,0-0.5,0
			C308.4,142.6,308.3,142.6,308.2,142.5L308.2,142.5z"/>
		<path class="st0" d="M311.9,142.5v-7.3c0.2-0.1,0.5-0.1,0.9-0.1c0.2,0,0.3,0,0.5,0s0.3,0,0.3,0.1l0.1,0v0.4c0.5-0.5,1.2-0.7,2-0.7
			c0.7,0,1.3,0.2,1.7,0.6c0.4,0.4,0.6,0.9,0.6,1.6v5.4c-0.2,0.1-0.5,0.1-0.9,0.1c-0.2,0-0.4,0-0.5,0s-0.3,0-0.3-0.1l-0.1,0v-5
			c0-0.3-0.1-0.6-0.3-0.8c-0.2-0.2-0.5-0.3-0.9-0.3c-0.5,0-0.9,0.2-1.3,0.5v5.5c-0.2,0.1-0.5,0.1-0.9,0.1c-0.2,0-0.4,0-0.5,0
			C312.1,142.6,312,142.6,311.9,142.5L311.9,142.5z"/>
	</g>
	<g class="st1">
		<path class="st0" d="M321.8,135.2c0.2-0.1,0.5-0.1,0.9-0.1c0.2,0,0.3,0,0.5,0c0.1,0,0.2,0.1,0.3,0.1l0.1,0l1.1,4.1
			c0.1,0.4,0.2,0.9,0.3,1.5h0c0.1-0.6,0.2-1.1,0.3-1.5l1.1-4.1c0.3-0.1,0.6-0.1,1-0.1c0.2,0,0.3,0,0.5,0c0.1,0,0.3,0,0.3,0.1l0.1,0
			l1,4.1c0.1,0.5,0.2,1.1,0.3,1.5h0c0.1-0.4,0.2-0.9,0.4-1.5l1.2-4.1c0.2-0.1,0.5-0.1,0.9-0.1c0.2,0,0.3-0.1,0.5-0.2
			c0.1-0.1,0.2-0.2,0.3-0.3l0.1-0.2l-2.2,8c-0.3,0.1-0.7,0.1-1,0.1c-0.4,0-0.7,0-1.1-0.1l-0.8-3.4c-0.2-0.7-0.3-1.4-0.3-2.2h-0.1
			c-0.1,0.8-0.2,1.5-0.4,2.2l-0.9,3.4c-0.3,0.1-0.6,0.1-1.1,0.1c-0.4,0-0.8,0-1.1-0.1L321.8,135.2z"/>
	</g>
	<g class="st1">
		<path class="st0" d="M334.3,141.8c-0.6-0.6-0.8-1.6-0.8-3c0-1.3,0.3-2.3,0.8-3s1.4-0.9,2.4-0.9s1.9,0.3,2.4,0.9
			c0.6,0.6,0.8,1.6,0.8,3c0,1.4-0.3,2.4-0.8,3c-0.6,0.6-1.4,0.9-2.4,0.9C335.6,142.8,334.8,142.5,334.3,141.8z M335.4,137.6
			c-0.1,0.3-0.1,0.7-0.1,1.2c0,0.5,0,0.9,0.1,1.2c0.1,0.3,0.2,0.6,0.3,0.8s0.3,0.3,0.4,0.4c0.2,0.1,0.4,0.1,0.6,0.1s0.4,0,0.6-0.1
			c0.2-0.1,0.3-0.2,0.4-0.4s0.2-0.4,0.3-0.8s0.1-0.7,0.1-1.2c0-0.5,0-0.9-0.1-1.2c-0.1-0.3-0.2-0.6-0.3-0.8
			c-0.1-0.2-0.3-0.3-0.4-0.4c-0.2-0.1-0.4-0.1-0.6-0.1s-0.4,0-0.6,0.1c-0.2,0.1-0.3,0.2-0.4,0.4
			C335.5,137.1,335.4,137.3,335.4,137.6z"/>
		<path class="st0" d="M341.6,142.5v-7.3c0.2-0.1,0.5-0.1,0.9-0.1c0.2,0,0.3,0,0.5,0s0.3,0,0.3,0.1l0.1,0v0.4
			c0.5-0.5,1.1-0.7,1.9-0.7c0.8,0,1.4,0.3,1.8,0.9c0.6-0.6,1.3-0.9,2.2-0.9c0.7,0,1.2,0.2,1.6,0.6c0.4,0.4,0.6,0.9,0.6,1.6v5.4
			c-0.2,0.1-0.5,0.1-0.9,0.1c-0.2,0-0.4,0-0.5,0c-0.2,0-0.3,0-0.3-0.1l-0.1,0v-5c0-0.7-0.4-1-1.1-1c-0.5,0-0.9,0.2-1.2,0.5v5.6
			c-0.2,0.1-0.5,0.1-0.9,0.1c-0.2,0-0.4,0-0.5,0c-0.1,0-0.3,0-0.3-0.1l-0.1,0v-5c0-0.7-0.4-1-1.1-1c-0.5,0-0.9,0.2-1.2,0.5v5.6
			c-0.2,0.1-0.5,0.1-0.9,0.1c-0.2,0-0.4,0-0.5,0C341.8,142.6,341.7,142.6,341.6,142.5L341.6,142.5z"/>
		<path class="st0" d="M353,138.8c0-1.3,0.3-2.3,0.9-2.9c0.6-0.6,1.4-0.9,2.4-0.9c0.9,0,1.6,0.2,2.2,0.7c0.5,0.5,0.8,1.2,0.8,2.2
			c0,0.3,0,0.5,0,0.8c0,0.3-0.1,0.4-0.1,0.5l0,0.2h-4.2c0.1,0.7,0.2,1.2,0.5,1.4c0.3,0.3,0.7,0.4,1.2,0.4c0.3,0,0.6,0,0.8-0.1
			c0.3-0.1,0.5-0.1,0.6-0.2l0.2-0.1c0.2,0.1,0.3,0.3,0.4,0.6c0.1,0.2,0.2,0.5,0.2,0.7c0,0-0.1,0-0.1,0.1c0,0-0.1,0.1-0.3,0.1
			c-0.2,0.1-0.3,0.1-0.5,0.2c-0.2,0.1-0.4,0.1-0.7,0.1c-0.3,0-0.6,0.1-0.9,0.1c-1.1,0-2-0.3-2.5-1C353.3,141.1,353,140.1,353,138.8z
			 M354.8,138.2h2.5c0-0.2,0-0.4,0-0.5c0-0.9-0.4-1.3-1.1-1.3C355.4,136.4,354.9,137,354.8,138.2z"/>
		<path class="st0" d="M360.7,142.5v-7.3c0.2-0.1,0.5-0.1,0.9-0.1c0.2,0,0.3,0,0.5,0s0.3,0,0.3,0.1l0.1,0v0.4c0.5-0.5,1.2-0.7,2-0.7
			c0.7,0,1.3,0.2,1.7,0.6s0.6,0.9,0.6,1.6v5.4c-0.2,0.1-0.5,0.1-0.9,0.1c-0.2,0-0.4,0-0.5,0c-0.1,0-0.3,0-0.3-0.1l-0.1,0v-5
			c0-0.3-0.1-0.6-0.3-0.8c-0.2-0.2-0.5-0.3-0.9-0.3c-0.5,0-0.9,0.2-1.3,0.5v5.5c-0.2,0.1-0.5,0.1-0.9,0.1c-0.2,0-0.4,0-0.5,0
			C360.9,142.6,360.8,142.6,360.7,142.5L360.7,142.5z"/>
	</g>
	<path class="st0" d="M26.7,20.3h0.9c0.2,0,0.4,0.2,0.4,0.4v6.6c0,0.2-0.2,0.4-0.4,0.4h-0.9c-0.2,0-0.4-0.2-0.4-0.4v-6.6
		C26.2,20.4,26.4,20.3,26.7,20.3z"/>
	<path class="st0" d="M33.1,20.3H34c0.2,0,0.4,0.2,0.4,0.4v6.6c0,0.2-0.2,0.4-0.4,0.4h-0.9c-0.2,0-0.4-0.2-0.4-0.4v-6.6
		C32.7,20.4,32.9,20.3,33.1,20.3z"/>
	<path class="st0" d="M39.8,20.3h0.9c0.2,0,0.4,0.2,0.4,0.4v6.6c0,0.2-0.2,0.4-0.4,0.4h-0.9c-0.2,0-0.4-0.2-0.4-0.4v-6.6
		C39.4,20.4,39.6,20.3,39.8,20.3z"/>
	<path class="st0" d="M46.2,20.3h0.9c0.2,0,0.4,0.2,0.4,0.4v6.6c0,0.2-0.2,0.4-0.4,0.4h-0.9c-0.2,0-0.4-0.2-0.4-0.4v-6.6
		C45.8,20.4,46,20.3,46.2,20.3z"/>
	<path class="st0" d="M52.7,20.3h0.9c0.2,0,0.4,0.2,0.4,0.4v6.6c0,0.2-0.2,0.4-0.4,0.4h-0.9c-0.2,0-0.4-0.2-0.4-0.4v-6.6
		C52.3,20.4,52.4,20.3,52.7,20.3z"/>
	<path class="st0" d="M59.4,20.3h0.9c0.2,0,0.4,0.2,0.4,0.4v6.6c0,0.2-0.2,0.4-0.4,0.4h-0.9c-0.2,0-0.4-0.2-0.4-0.4v-6.6
		C59,20.4,59.2,20.3,59.4,20.3z"/>
	<path class="st0" d="M72.7,24.8c-0.2-0.5-0.5-0.8-1-1c-1.2-0.1-2.5-0.1-3.7,0l0,0v1.6c0,0.2,0,0.5,0,0.7c0,0.1,0,0.1,0,0.2V28
		c0,0.5-0.4,0.9-0.9,0.9H65c-0.5,0-0.9-0.4-0.9-0.9v-4.1c-0.7,0-1.5,0-2.2,0.1v4c0,0.5-0.4,0.9-0.9,0.9h-2.1c-0.5,0-0.9-0.4-0.9-0.9
		v-4l-0.1-0.1c-0.9-0.1-1.7-0.1-2.6,0.1c0,0-0.1,0.1-0.1,0.2V28c0,0.5-0.4,0.9-0.9,0.9h-2.1c-0.5,0-0.9-0.4-0.9-0.9v-4.2
		c-0.5-0.1-1-0.1-1.5,0c-0.3,0-0.7,0-1,0.2v4c0,0.5-0.4,0.9-0.9,0.9h-2.1c-0.5,0-0.9-0.4-0.9-0.9v-4c-0.8-0.1-1.7-0.1-2.5,0v4
		c0,0.5-0.4,0.9-0.9,0.9h-2.1c-0.5,0-0.9-0.4-0.9-0.9v-4.1l0,0c-0.9-0.1-1.7,0-2.6,0.1c-0.2,0.1,0,1.3,0,1.9c0,0.1,0.1,0.2,0,0.3
		s-0.1,0.3-0.2,0.5V28c0,0.5-0.4,0.9-0.9,0.9h-2.1c-0.5,0-0.9-0.4-0.9-0.9l0,0v-4.1c-0.8-0.1-1.6,0-2.4,0.1c-0.2,0,0,1.3-0.1,1.9
		c0,0.1,0,0.1,0,0.2V28c0,0.5-0.4,0.9-0.9,0.9l0,0H26c-0.5,0-0.9-0.4-0.9-0.9l0,0v-4.2l0,0c-1.1,0-2.1,0-3,0s-1.3,0.5-1.3,1.4
		c0,1.1,0,2.3,0,3.4c0,2.1,0.1,2.2,2.2,2.2h47.5c0.4,0,0.8,0.1,1.1,0c0.4-0.3,1.1-0.7,1.1-1.1C72.8,28.1,72.8,26.4,72.7,24.8z"/>
	<path class="st0" d="M65.5,20.3h0.9c0.2,0,0.4,0.2,0.4,0.4v6.6c0,0.2-0.2,0.4-0.4,0.4h-0.9c-0.2,0-0.4-0.2-0.4-0.4v-6.6
		C65.1,20.4,65.3,20.3,65.5,20.3z"/>
	<path class="st0" d="M48.8,32h22c1.7,0,1.9,0.2,1.9,2.3c0,11.7,0,23.4,0,35.1c0,2.1-0.2,2.3-1.8,2.3c-16.2,0-30.8,0-48.3,0
		c-1.8,0-2-0.3-2-2.3c0-11.8,0-23.5,0-35.3c0-2,0.2-2.2,2.1-2.2L48.8,32z M35,69.3c0-1.5,0-2.9,0-4.2s-1.1-1.3-1.8-1.2
		C32,64.2,30,62.8,29.7,65c-0.6,4.2-0.2,4.6,4,4.4C33.9,69.5,34.3,69.4,35,69.3z M27.8,66.8c0-2.9,0-2.9-2.6-2.9
		c-2.8,0-2.9,0-2.8,2.6c0,3.2-0.5,3,2.8,3S27.7,69.6,27.8,66.8L27.8,66.8z M51.1,66.6c0.1,3-0.5,2.9,2.7,2.9c2.6,0,2.6,0,2.6-2.8
		s0-2.8-2.6-2.8S51.1,63.9,51.1,66.6L51.1,66.6z M49.3,69.5c0-1.7,0.1-3.1,0-4.5c-0.1-0.5-0.5-0.8-0.9-1c-1.2-0.1-2.3-0.1-3.5,0
		s-1,1.1-0.9,1.8c0.2,1.3-1,3.1,0.8,3.7C46.1,69.8,47.6,69.5,49.3,69.5L49.3,69.5z M39.3,69.5c3.2,0,2.8,0.1,2.8-2.6c0-3,0-3-2.5-3
		c-2.9,0-2.9,0-2.9,2.8C36.8,69.8,36.5,69.5,39.3,69.5L39.3,69.5z M36.8,44.3c0,3.3-0.2,2.9,2.9,2.9c2.4,0,2.4,0,2.4-2.9
		c0-3.2,0.3-2.5-3.5-2.7C36,41.5,36.9,43.2,36.8,44.3z M61,56.5c-2.8,0-2.8,0-2.8,2.6c0,3,0,3,2.5,3c3,0,3,0,3-2.6
		C63.6,56.2,63.9,56.5,61,56.5z M49.3,59.4c0-2.9,0-2.9-2.4-2.9c-3.2,0-3-0.4-3,2.5c0,3.2-0.4,3,2.8,3
		C49.3,62.1,49.3,62.1,49.3,59.4z M32.3,56.5c-2.8,0-2.8,0-2.8,2.7c0,2.9,0,2.9,2.7,2.9s2.8,0,2.7-2.7C35,56.2,35.3,56.5,32.3,56.5
		L32.3,56.5z M27.8,59.2c0-2.7,0-2.7-2.4-2.7c-3.2,0-3-0.4-3,2.8c0,2.8,0,2.8,2.7,2.8C28.1,62.1,27.7,62.3,27.8,59.2z M68.1,54.6
		c3.1,0,2.7,0.3,2.7-3c0-2.5,0-2.5-2.6-2.5s-2.8,0-2.8,2.7C65.4,54.9,65.1,54.6,68.1,54.6z M60.9,54.6c2.8,0,2.8,0,2.8-2.7
		c0-3,0.4-2.8-2.8-2.9c-2.7,0-2.7,0-2.7,2.8S58.2,54.6,60.9,54.6z M46.5,54.6c2.8,0,2.8,0,2.8-2.6c0-2.9,0-2.9-2.7-2.9
		s-2.7,0-2.7,2.6C43.9,54.9,43.6,54.6,46.5,54.6z M32.2,54.6c3,0,2.8,0.3,2.8-2.6s0-2.9-2.5-2.9c-2.9,0-2.9,0-2.9,2.6
		C29.6,54.9,29.2,54.6,32.2,54.6z M27.8,52c0-2.9,0-2.9-2.5-2.9c-2.9,0-2.9,0-2.9,2.7c0,3.2-0.2,2.8,2.8,2.8
		C27.8,54.7,27.8,54.6,27.8,52z M70.8,44.5c0-2.8,0-2.8-2.5-2.8c-3.2,0-2.9-0.3-2.9,2.6s-0.4,2.9,2.7,2.9
		C70.8,47.3,70.8,47.3,70.8,44.5L70.8,44.5z M60.9,41.7c-2.7,0-2.8,0-2.7,2.5c0,3.3-0.4,3.1,2.7,3.1c2.8,0,2.8,0,2.8-2.9
		S63.6,41.7,60.9,41.7L60.9,41.7z M49.3,44.4c0-3,0.3-2.7-2.9-2.7c-2.9,0-2.5-0.2-2.5,3.1c0,2.5,0,2.5,2.8,2.5
		C49.3,47.3,49.3,47.3,49.3,44.4z M35,44.5c0-2.8,0-2.8-2.5-2.8c-3.2,0-3-0.3-3,2.6s0,3,2.6,3C35.3,47.3,34.9,47.4,35,44.5z
		 M25.2,41.7c-2.8,0-2.8,0-2.8,2.6c0,3,0,3,2.5,3c2.9,0,2.9,0,2.9-2.5C27.7,41.4,28.1,41.7,25.2,41.7L25.2,41.7z M56.4,44.3
		c0-2.6,0-2.6-2.3-2.6c-3.4,0-3-0.4-3.1,2.8c0,2.8,0,2.8,2.7,2.8S56.4,47.3,56.4,44.3z M68.1,39.8c2.8,0,2.7,0.4,2.7-2.7
		c0-2.9,0-2.9-2.7-2.9c-3,0-2.7-0.2-2.7,2.9S65.2,39.8,68.1,39.8z M61,39.8c2.8,0,2.7,0.4,2.7-2.8s0.2-2.8-3-2.8c-2.5,0-2.5,0-2.5,3
		S58,39.8,61,39.8L61,39.8z M56.1,39.8c1.1-4.8,0.3-5.9-3.8-5.6c-0.1,0-0.1,0-0.2,0c-0.4,0.4-1.1,0.9-1,1.3c0.2,1.4-0.8,3,0.6,4.3
		c0,0,0.1,0,0.2,0H56.1z M46.6,39.8c2.9,0,2.7,0.4,2.7-2.7s0.3-2.9-2.8-2.9c-2.6,0-2.6,0-2.6,2.9C43.9,40.2,43.7,39.8,46.6,39.8z
		 M68.2,56.5c-3,0-2.8-0.3-2.8,2.5c0,3.2-0.5,3.1,2.5,3.1s2.9,0,2.9-2.7S70.8,56.5,68.2,56.5z M36.9,54.6c1.5,0,2.8,0,4.2,0
		c0.3,0,0.9-0.4,0.9-0.7c0.1-1.4,0.1-2.7,0-4.1c0-0.3-0.6-0.6-0.9-0.7c-3.9-0.7-4.4-0.2-4.3,3.8C36.8,53.4,36.8,53.9,36.9,54.6z
		 M53.8,54.6c2.8,0,2.7,0.4,2.7-2.8c0-2.8,0-2.8-2.5-2.8c-2.8,0-2.8,0-2.8,2.8C51.1,54.9,50.8,54.6,53.8,54.6L53.8,54.6z M37,56.5
		c-1.1,4.8-0.3,5.9,3.8,5.5c0.1,0,0.3,0,0.3,0c0.3-0.6,0.9-1.3,0.8-1.8c-0.2-1.2,0.9-2.8-0.7-3.7c-0.1,0-0.1,0-0.2,0H37z M51,59.2
		c0,2.9,0,2.9,2.5,2.9c2.8,0,2.8,0,2.8-2.7c0-2.9,0-2.9-2.4-2.9C50.9,56.5,51.1,56.1,51,59.2L51,59.2z"/>
</g>
</svg>
