<svg xmlns="http://www.w3.org/2000/svg" viewBox="0 0 1100 188"><defs xmlns="http://www.w3.org/2000/svg"><style type="text/css"><![CDATA[@font-face {font-family: 'GloberBook';src: url('/assets/fonts/webfonts/316613_0_0.eot');src: url('/assets/fonts/webfonts/316613_0_0.eot?#iefix') format('embedded-opentype'),url('/assets/fonts/webfonts/316613_0_0.woff2') format('woff2'),url('/assets/fonts/webfonts/316613_0_0.woff') format('woff'),url('/assets/fonts/webfonts/316613_0_0.ttf') format('truetype');}@font-face {font-family: 'Glober';font-weight: bold;font-style: normal;src: url('/assets/fonts/webfonts/316613_1_0.eot');src: url('/assets/fonts/webfonts/316613_1_0.eot?#iefix') format('embedded-opentype'),url('/assets/fonts/webfonts/316613_1_0.woff2') format('woff2'),url('/assets/fonts/webfonts/316613_1_0.woff') format('woff'),url('/assets/fonts/webfonts/316613_1_0.ttf') format('truetype');}@font-face {font-family: 'Glober';font-weight: bold;font-style: italic;src: url('/assets/fonts/webfonts/316613_2_0.eot');src: url('/assets/fonts/webfonts/316613_2_0.eot?#iefix') format('embedded-opentype'),url('/assets/fonts/webfonts/316613_2_0.woff2') format('woff2'),url('/assets/fonts/webfonts/316613_2_0.woff') format('woff'),url('/assets/fonts/webfonts/316613_2_0.ttf') format('truetype');}@font-face {font-family: 'GloberBookItalic';src: url('/assets/fonts/webfonts/316613_3_0.eot');src: url('/assets/fonts/webfonts/316613_3_0.eot?#iefix') format('embedded-opentype'),url('/assets/fonts/webfonts/316613_3_0.woff2') format('woff2'),url('/assets/fonts/webfonts/316613_3_0.woff') format('woff'),url('/assets/fonts/webfonts/316613_3_0.ttf') format('truetype');}@font-face {font-family: 'Glober';font-weight: normal;font-style: normal;src: url('/assets/fonts/webfonts/316613_4_0.eot');src: url('/assets/fonts/webfonts/316613_4_0.eot?#iefix') format('embedded-opentype'),url('/assets/fonts/webfonts/316613_4_0.woff2') format('woff2'),url('/assets/fonts/webfonts/316613_4_0.woff') format('woff'),url('/assets/fonts/webfonts/316613_4_0.ttf') format('truetype');}@font-face {font-family: 'Glober';font-weight: normal;font-style: italic;src: url('/assets/fonts/webfonts/316613_5_0.eot');src: url('/assets/fonts/webfonts/316613_5_0.eot?#iefix') format('embedded-opentype'),url('/assets/fonts/webfonts/316613_5_0.woff2') format('woff2'),url('/assets/fonts/webfonts/316613_5_0.woff') format('woff'),url('/assets/fonts/webfonts/316613_5_0.ttf') format('truetype');}]]></style></defs><title>bone-study-4</title><text transform="translate(724.23 67.96)" font-size="26.44" fill="#fff" font-family=" Glober" font-weight="700"><tspan letter-spacing="-0.01em">U</tspan><tspan x="17.58" y="0">p</tspan><tspan x="32.33" y="0" letter-spacing="-0.02em"> </tspan><tspan x="37.53" y="0">to</tspan></text><text transform="translate(482.23 112.05)" font-size="42.85" fill="#fff" font-family=" Glober" font-weight="700"><tspan letter-spacing="-0.01em">v</tspan><tspan x="22.12" y="0">s.</tspan></text><text transform="matrix(1, 0.01, -0.01, 1, 686.17, 133.11)" font-size="73.07" fill="#fff" font-family=" Glober" font-weight="700">400</text><text transform="matrix(0.58, 0.01, -0.01, 0.58, 819.23, 110.12)" font-size="73.07" fill="#fff" font-family=" Glober" font-weight="700">%</text><text transform="translate(870.76 78.51)" font-size="26.98" fill="#fff" font-family=" Glober" font-weight="700"><tspan letter-spacing="-0.01em">M</tspan><tspan x="22.25" y="0">o</tspan><tspan x="37.04" y="0" letter-spacing="-0.01em">r</tspan><tspan x="47.42" y="0" letter-spacing="0em">e ef</tspan><tspan x="90.75" y="0" letter-spacing="-0.01em">f</tspan><tspan x="100.22" y="0">ecti</tspan><tspan x="143.66" y="0" letter-spacing="-0.01em">v</tspan><tspan x="157.47" y="0">e </tspan><tspan x="0" y="28.25">than</tspan><tspan x="53.91" y="28.25" letter-spacing="-0.02em"> </tspan><tspan x="59.22" y="28.25">t</tspan><tspan x="69.68" y="28.25" letter-spacing="-0.01em">r</tspan><tspan x="80.24" y="28.25" letter-spacing="0em">aditional</tspan><tspan x="0" y="56.49" letter-spacing="-0.01em">r</tspan><tspan x="10.38" y="56.49" letter-spacing="0em">oc</tspan><tspan x="37.22" y="56.49" letter-spacing="-0.01em">k</tspan><tspan x="50.55" y="56.49" xml:space="preserve"> calciums</tspan></text><line x1="658.99" y1="186.18" x2="658.99" y2="-1.55" fill="none" stroke="#fff" stroke-linecap="round" stroke-linejoin="round" stroke-width="3.35" stroke-dasharray="0.42 6.69"/><text transform="translate(153.85 91.99)" font-size="23.98" fill="#fff" font-family=" Glober" font-weight="700"><tspan letter-spacing="-0.09em">T</tspan><tspan x="11.08" y="0">esting on human </tspan><tspan x="0" y="31.24">osteoblast </tspan><tspan x="115.83" y="31.24" letter-spacing="-0.01em">c</tspan><tspan x="126.25" y="31.24">ells</tspan></text><path d="M450.24,109.71c10.43-13,11.62-33,2.74-47.37-4.22,2.42-8.25,5.42-12.76,7.12s-9.66,2-14.44,3.22c-5.34,1.36-10.78,2.6-15.85,4.69-12.64,5.21-18.27,18.9-13,30.48,6.94-3.52,13.79-7.23,20.84-10.52s14.25-6.15,21.38-9.2c-5.93,5.52-13,8.87-19.38,13.31-9.64,6.77-19,14-28,21.63-4.37,3.71-3.25,7.52,2.47,9.34l9.81-13C422.7,126,440.22,122.17,450.24,109.71Z" fill="#fff"/><line x1="361.55" y1="181.55" x2="361.55" y2="-3.17" fill="none" stroke="#fff" stroke-linecap="round" stroke-linejoin="round" stroke-width="3.35" stroke-dasharray="0.42 6.69"/><path d="M90.65,116.24c4.83-.59,10.94-1.32,17-2.1a9.64,9.64,0,0,0,2.81-.69c3.16-1.45,6-3.06,9.94-2.7,3.6.33,5.54-2.66,5.63-6.39.07-3.12,1.19-4.61,3.86-5.12a6.32,6.32,0,0,1,6.42,3.45,5.59,5.59,0,0,1-1.6,6.66,16.13,16.13,0,0,0-3.63,3.8c-1.43,2.38-.62,4,2,4.78,2.06.63,2.33,1.84.75,3.37-4.08,4-7.6,4.3-12.95,2.43a25.81,25.81,0,0,0-9.59-1.18c-18.07.83-15.07.21-33.12,1.46-6.39.44-12.73,1.91-19.07,3a11.41,11.41,0,0,0-7.15,4.2,8.18,8.18,0,0,1-5.69,3.14,23,23,0,0,0-2.83.61c-1.69.42-3.49,1.37-4.67-.9-1.25-2.42-.84-5.89.95-7.22,1.1-.81,2.6-1.59,1.78-3.1a5.58,5.58,0,0,0-3.08-2.39,3.87,3.87,0,0,1-2.9-3.77,4.06,4.06,0,0,1,2.18-4.21c4.63-3,9.09-2.53,13.94-.55,7.13,2.91,14.73,3.41,22.32,3.22C86.15,115.76,77.22,116.73,90.65,116.24Z" fill="#fff"/><polyline points="550.56 123.35 550.3 122.84 549.32 123.65 570.05 58.78 616.17 76.53 630.35 119.27 595.64 132.31" fill="#fff"/><path d="M573.56,66.34l27.65,30.12,25.53,22.09-29.8,11.59-20-33-3.39-30.8m-2.67-5.87.67,6.09,3.4,30.8,0,.44.23.38,20,33,.87,1.44,1.57-.61,29.8-11.59,3.11-1.21L628.05,117,602.61,95,575,65l-4.14-4.52Z" fill="#e37833"/><path d="M573.56,66.34l27.65,30.12,25.53,22.09-29.8,11.59-20-33-3.39-30.8m-2.67-5.87.67,6.09,3.4,30.8,0,.44.23.38,20,33,.87,1.44,1.57-.61,29.8-11.59,3.11-1.21L628.05,117,602.61,95,575,65l-4.14-4.52Z" fill="#e37833"/><polyline points="630.35 119.27 616.17 76.53 570.05 58.78 549.18 123.79 596.39 132.21 575.89 98.49 550.56 123.35" fill="none" stroke="#e37833" stroke-linejoin="round" stroke-width="2.01"/><path d="M97.64,72.77a11.23,11.23,0,0,1,21,7.92c-2.19,5.8-12.83,19.79-18.63,17.6S95.46,78.57,97.64,72.77Z" fill="#fff" stroke="#e37833" stroke-miterlimit="10" stroke-width="0.65"/><circle cx="108.36" cy="75.84" r="4.43" transform="translate(-20.07 107.43) rotate(-48.81)" fill="#fff" stroke="#e37833" stroke-miterlimit="10" stroke-width="0.65"/><path d="M63.76,104a6.61,6.61,0,1,1,8.15-10.4c2.88,2.25,8.86,10.69,6.61,13.57S66.63,106.28,63.76,104Z" fill="#fff" stroke="#e37833" stroke-miterlimit="10" stroke-width="0.38"/><circle cx="67.37" cy="98.55" r="2.61" transform="translate(-49.68 75.1) rotate(-44.31)" fill="#fff" stroke="#e37833" stroke-miterlimit="10" stroke-width="0.38"/><path d="M86.43,57.26A6.61,6.61,0,1,1,99.6,58.38c-.31,3.63-4.1,13.27-7.74,13S86.12,60.89,86.43,57.26Z" fill="#fff" stroke="#e37833" stroke-miterlimit="10" stroke-width="0.38"/><circle cx="92.99" cy="57.28" r="2.61" transform="matrix(0.97, -0.26, 0.26, 0.97, -11.53, 25.61)" fill="#fff" stroke="#e37833" stroke-miterlimit="10" stroke-width="0.38"/><path d="M61.86,79.36A11.79,11.79,0,1,1,81.49,66.29c3.61,5.42,9,23.08,3.6,26.69S65.47,84.79,61.86,79.36Z" fill="#fff" stroke="#e37833" stroke-miterlimit="10" stroke-width="0.68"/><circle cx="71.05" cy="72.09" r="4.66" transform="translate(-29.36 59.34) rotate(-38.18)" fill="#fff" stroke="#e37833" stroke-miterlimit="10" stroke-width="0.68"/></svg>
