<?xml version="1.0" encoding="utf-8"?>
<!-- Generator: Adobe Illustrator 23.0.3, SVG Export Plug-In . SVG Version: 6.00 Build 0)  -->
<svg version="1.1" id="Layer_1" xmlns="http://www.w3.org/2000/svg" xmlns:xlink="http://www.w3.org/1999/xlink" x="0px" y="0px"
	 viewBox="0 0 375 157" style="enable-background:new 0 0 375 157;" xml:space="preserve">
<style type="text/css">
	.st0{fill:#FFFFFF;}
	.st1{enable-background:new    ;}
	.st2{fill:none;stroke:#FFFFFF;stroke-width:3.57;stroke-linecap:round;stroke-linejoin:round;stroke-dasharray:0.45,7.15;}
</style>
<g>
	<title>bone-study-2-mobile</title>
	<path class="st0" d="M182.9,53v1.6c0,3.9,0,7.8,0,11.7c-0.1,1,0.6,1.8,1.6,1.9c0.1,0,0.1,0,0.2,0c1,0.1,2-0.5,2.1-1.6
		c0-0.1,0-0.1,0-0.2c0.1-0.5,0.1-0.9,0.1-1.4c0-3.6,0-7.2,0-10.7c0-0.5,0.1-0.9,0.1-1.5h2.8c-0.1-0.5-0.1-0.8-0.2-1.1l-2.1-8.4
		c-0.6-2.2-1.1-4.3-1.7-6.5c-0.1-0.2,0.2-0.5,0.3-0.8c0.2,0.2,0.4,0.4,0.6,0.6c0.1,0.2,0.2,0.4,0.2,0.6c0.9,3.4,1.8,6.8,2.8,10.2
		c0.4,1.5,1.2,2.1,2.2,1.8s1.2-1.1,0.8-2.6c-1.2-4.4-2.5-8.8-3.7-13.3c-0.2-1.2-1.3-2-2.4-1.8c-2.9,0-5.8,0-8.6,0
		c-1.6,0-2.1,0.4-2.5,2l-2.1,7.6c-0.5,1.9-1,3.8-1.6,5.7c-0.3,1-0.2,1.9,0.9,2.3c0.9,0.3,1.6-0.2,2-1.4c0.1-0.2,0.1-0.5,0.2-0.7
		c0.9-3.3,1.8-6.7,2.8-10c0.2-0.4,0.4-0.7,0.7-1c0.1,0.4,0.2,0.7,0.1,1.1c-1.1,4.5-2.3,9.1-3.5,13.6c-0.2,0.7-0.3,1.4-0.5,2.2h2.9
		v1.5c0,3.5,0,7.1,0,10.6c0,2.3,0.6,3.2,2.1,3.2s2-0.9,2-3.2c0-3.5,0-7.1,0-10.6c0-0.5,0-0.9,0.1-1.4L182.9,53z M178,26.2
		c0,2.2,1.8,4.1,4,4.1c0.1,0,0.1,0,0.2,0c2.3,0,4.1-1.9,4.1-4.1c0,0,0-0.1,0-0.1c0-2.2-1.9-4-4.1-4c0,0,0,0,0,0
		c-2.2-0.1-4.1,1.7-4.1,3.9C178,26.1,178,26.1,178,26.2z"/>
	<path class="st0" d="M183.4,53h-1.6c0,0.5-0.1,1-0.1,1.4V65c0,2.4-0.5,3.2-2,3.2s-2-0.8-2-3.2c0-3.5,0-7.1,0-10.6v-1.5h-2.9
		c0.2-0.8,0.3-1.5,0.5-2.2c1.1-4.5,2.3-9.1,3.5-13.6c0-0.4,0-0.7-0.1-1.1c-0.3,0.3-0.5,0.6-0.7,1c-0.9,3.3-1.9,6.7-2.8,10l-0.2,0.7
		c-0.4,1.2-1.1,1.8-2,1.4c-1.1-0.4-1.2-1.3-0.9-2.3c0.6-1.9,1.1-3.8,1.6-5.7l2.1-7.6c0.4-1.6,0.9-2,2.5-2c2.9,0,5.8,0,8.6,0
		c1.2-0.1,2.2,0.7,2.4,1.8c1.2,4.4,2.5,8.8,3.7,13.3c0.4,1.5,0.1,2.3-0.9,2.6s-1.8-0.3-2.2-1.8c-0.9-3.4-1.8-6.8-2.8-10.2
		c0-0.2-0.1-0.4-0.2-0.6c-0.2-0.2-0.3-0.4-0.6-0.6c-0.1,0.3-0.3,0.6-0.3,0.8c0.5,2.2,1.1,4.3,1.7,6.5c0.7,2.8,1.4,5.6,2.1,8.4
		c0.1,0.3,0.1,0.7,0.2,1.1h-2.8c0,0.6-0.1,1-0.1,1.5c0,3.6,0,7.1,0,10.7c0,0.5,0,0.9-0.1,1.4c0,1-0.9,1.8-1.9,1.8
		c-0.1,0-0.1,0-0.2,0c-1,0-1.8-0.8-1.8-1.7c0-0.1,0-0.1,0-0.2c0-3.9,0-7.8,0-11.8L183.4,53z"/>
	<path class="st0" d="M178,26.2c-0.1-2.2,1.6-4.1,3.8-4.2c0.1,0,0.2,0,0.3,0c2.2,0,4.1,1.7,4.1,4c0,0,0,0,0,0c0.1,2.3-1.7,4.2-4,4.2
		c0,0-0.1,0-0.1,0c-2.2,0.1-4.1-1.7-4.2-3.9C178,26.3,178,26.3,178,26.2z"/>
	<g class="st1">
		<path class="st0" d="M144.4,136.8c0,0-0.3,0.1-1,0.1c-0.7,0-1-0.1-1-0.1v-11.2h4.2c2.1,0,3.5,1.4,3.5,3.5c0,2.1-1.4,3.5-3.5,3.5
			h-2.2V136.8z M146.3,131c1.1,0,1.7-0.7,1.7-1.9c0-1.2-0.6-1.9-1.7-1.9h-1.9v3.8H146.3z"/>
	</g>
	<g class="st1">
		<path class="st0" d="M154.5,128.5c2.3,0,3.2,0.9,3.2,2.9v5.4c0,0-0.2,0.1-0.8,0.1c-0.5,0-0.8-0.1-0.8-0.1l-0.3-0.9
			c-0.4,0.7-1.2,1.1-2.3,1.1c-1.5,0-2.4-0.9-2.4-2.7c0-1.8,1.1-2.5,3.1-2.5c0.6,0,1.1,0,1.6,0.1v-0.3c0-0.8-0.3-1.4-1.4-1.4
			c-1,0-2,0.4-2,0.4s-0.3-0.2-0.4-0.6c-0.2-0.4-0.1-0.8-0.1-0.8S152.8,128.5,154.5,128.5z M154.4,133.2c-0.8,0-1.3,0.3-1.3,1.2
			c0,0.9,0.4,1.2,1.1,1.2c1.1,0,1.5-1,1.5-1.9v-0.5C155.3,133.2,154.8,133.2,154.4,133.2z"/>
		<path class="st0" d="M163.4,128.5c0.5,0,0.9,0.1,1.4,0.4c-0.1,0.7-0.3,1.2-0.9,1.7c-0.3-0.2-0.6-0.3-0.9-0.3c-0.5,0-1,0.3-1.4,0.8
			v5.7c0,0-0.3,0.1-1,0.1c-0.7,0-1-0.1-1-0.1v-8c0,0,0.3-0.1,1-0.1c0.6,0,1,0.1,1,0.1v0.9C162.2,128.9,162.8,128.5,163.4,128.5z"/>
		<path class="st0" d="M168.5,133.8c0,1.3,0.5,1.6,1.5,1.6c0.3,0,0.6,0,0.6,0s0.1,0.3,0.1,0.8c0,0.4-0.1,0.7-0.1,0.7
			c-0.4,0.1-0.8,0.1-1.2,0.1c-2,0-2.9-1.1-2.9-3.1v-3.8h-1.2c0,0-0.1-0.3-0.1-0.7c0-0.5,0.1-0.7,0.1-0.7h1.2v-1.4
			c0.5-0.3,1.3-0.5,2-0.4v1.8h1.9c0,0,0.1,0.3,0.1,0.7c0,0.4-0.1,0.7-0.1,0.7h-1.9V133.8z"/>
		<path class="st0" d="M174,127.2c0,0-0.3,0.1-1,0.1c-0.7,0-1-0.1-1-0.1v-1.8c0,0,0.3-0.1,1-0.1c0.6,0,1,0.1,1,0.1V127.2z
			 M174,136.8c0,0-0.3,0.1-1,0.1c-0.7,0-1-0.1-1-0.1v-8c0,0,0.3-0.1,1-0.1c0.6,0,1,0.1,1,0.1V136.8z"/>
		<path class="st0" d="M177.8,132.8c0,1.9,0.6,2.6,1.9,2.6c0.8,0,1.4-0.2,1.4-0.2c0.3,0.3,0.5,0.9,0.6,1.4c0,0-0.7,0.5-2.4,0.5
			c-2.4,0-3.5-1.5-3.5-4.3s1.1-4.3,3.5-4.3c1.6,0,2.2,0.4,2.2,0.4c0,0.5-0.2,1.1-0.6,1.4c0,0-0.5-0.2-1.3-0.2
			C178.3,130.1,177.8,130.9,177.8,132.8z"/>
		<path class="st0" d="M185.2,127.2c0,0-0.3,0.1-1,0.1c-0.7,0-1-0.1-1-0.1v-1.8c0,0,0.3-0.1,1-0.1c0.6,0,1,0.1,1,0.1V127.2z
			 M185.2,136.8c0,0-0.3,0.1-1,0.1c-0.7,0-1-0.1-1-0.1v-8c0,0,0.3-0.1,1-0.1c0.6,0,1,0.1,1,0.1V136.8z"/>
		<path class="st0" d="M191.4,128.5c1.8,0,2.9,1.1,2.9,4.3s-1.2,4.3-2.9,4.3c-1,0-1.7-0.3-2.1-0.8v4.1c0,0-0.3,0.1-1,0.1
			c-0.7,0-1-0.1-1-0.1v-11.6c0,0,0.3-0.1,1-0.1c0.7,0,1,0.1,1,0.1v0.5C189.7,128.8,190.4,128.5,191.4,128.5z M190.7,130.1
			c-0.9,0-1.4,0.7-1.4,1.7v2c0,1,0.5,1.7,1.4,1.7c1,0,1.6-0.5,1.6-2.7S191.7,130.1,190.7,130.1z"/>
		<path class="st0" d="M199.1,128.5c2.3,0,3.2,0.9,3.2,2.9v5.4c0,0-0.2,0.1-0.8,0.1c-0.5,0-0.8-0.1-0.8-0.1l-0.3-0.9
			c-0.4,0.7-1.2,1.1-2.3,1.1c-1.5,0-2.4-0.9-2.4-2.7c0-1.8,1.1-2.5,3.1-2.5c0.6,0,1.1,0,1.6,0.1v-0.3c0-0.8-0.3-1.4-1.4-1.4
			c-1,0-2,0.4-2,0.4s-0.3-0.2-0.4-0.6c-0.2-0.4-0.1-0.8-0.1-0.8S197.4,128.5,199.1,128.5z M198.9,133.2c-0.8,0-1.3,0.3-1.3,1.2
			c0,0.9,0.4,1.2,1.1,1.2c1.1,0,1.5-1,1.5-1.9v-0.5C199.8,133.2,199.4,133.2,198.9,133.2z"/>
		<path class="st0" d="M210.8,136.8c0,0-0.3,0.1-1,0.1c-0.7,0-1-0.1-1-0.1v-5.6c0-0.7-0.4-1.1-1.3-1.1c-0.5,0-1,0.2-1.4,0.6v6.1
			c0,0-0.3,0.1-1,0.1c-0.7,0-1-0.1-1-0.1v-8c0,0,0.3-0.1,1-0.1c0.6,0,1,0.1,1,0.1v0.5c0.6-0.5,1.3-0.8,2.2-0.8c1.6,0,2.5,1,2.5,2.4
			V136.8z"/>
		<path class="st0" d="M215.4,133.8c0,1.3,0.5,1.6,1.5,1.6c0.3,0,0.6,0,0.6,0s0.1,0.3,0.1,0.8c0,0.4-0.1,0.7-0.1,0.7
			c-0.4,0.1-0.8,0.1-1.2,0.1c-2,0-2.9-1.1-2.9-3.1v-3.8h-1.2c0,0-0.1-0.3-0.1-0.7c0-0.5,0.1-0.7,0.1-0.7h1.2v-1.4
			c0.5-0.3,1.3-0.5,2-0.4v1.8h1.9c0,0,0.1,0.3,0.1,0.7c0,0.4-0.1,0.7-0.1,0.7h-1.9V133.8z"/>
		<path class="st0" d="M221.7,128.5c1.7,0,2.3,0.5,2.3,0.5c0,0.5-0.2,1.1-0.5,1.4c0,0-0.7-0.3-1.6-0.3c-0.9,0-1.4,0.3-1.4,0.9
			c0,0.7,1,0.8,2,1.1c0.9,0.3,1.9,0.9,1.9,2.4c0,1.7-1,2.6-3.1,2.6c-1.7,0-2.7-0.6-2.7-0.6c0-0.6,0.2-1.1,0.5-1.5c0,0,1,0.4,2.1,0.4
			c0.9,0,1.2-0.3,1.2-0.9c0-0.7-0.8-0.9-1.6-1.1c-1-0.3-2.2-0.8-2.2-2.4C218.6,129.5,219.6,128.5,221.7,128.5z"/>
	</g>
	<line class="st2" x1="114.2" y1="156" x2="114.2" y2="1.9"/>
	<line class="st2" x1="252.1" y1="156" x2="252.1" y2="1.9"/>
	<g class="st1">
		<path class="st0" d="M11.9,97.7c0,0,0.8-0.4,2.7-0.4c1.9,0,2.8,0.4,2.8,0.4v29.4c0,0-0.9,0.4-2.8,0.4c-1.8,0-2.9-0.4-2.9-0.4v-17
			c0-2.2,0.1-4,0.2-5.5c-2.1,1.7-4.6,2.7-7,3.3c-1.1-1.1-1.6-2.8-1.3-4.6C7.4,102.3,9.8,100.6,11.9,97.7z"/>
		<path class="st0" d="M24.4,98.5c0,0,3.6-1.6,8.3-1.6c5.6,0,10.1,2.3,10.1,8.4c0,5.7-3.2,7.7-8.5,10.9c-2.4,1.5-5.7,2.9-5.7,5.7
			c0,0.2,0,0.4,0.1,0.7h13.2c0.4,0.7,0.5,1.6,0.5,2.5s-0.2,1.8-0.5,2.5H23.5c0,0-0.3-1.4-0.3-3c0-6.9,4.5-9.7,8.6-12.4
			c3.9-2.7,5.2-3.9,5.2-6.7c0-2.7-2.1-3.9-5.2-3.9c-3,0-5.8,1-5.8,1C24.8,101.6,24.2,100.1,24.4,98.5z"/>
	</g>
	<g class="st1">
		<path class="st0" d="M61.2,98c0.8,0,1.3,0.1,1.3,0.1V109c0,0-0.3,0.1-1,0.1c-0.6,0-1-0.1-1-0.1v-3.4c0-1.7-0.1-3.8,0.1-5.1h-0.1
			c-0.3,1-1.1,2.6-1.7,3.9l-1.1,2.3c0,0-0.2,0.1-0.6,0.1c-0.3,0-0.5-0.1-0.5-0.1c-0.4-0.7-0.7-1.5-1.1-2.2c-0.7-1.3-1.5-3-1.7-4
			h-0.1c0.2,1.1,0.2,3.1,0.2,4.7v3.8c0,0-0.3,0.1-0.9,0.1c-0.5,0-0.9-0.1-0.9-0.1V98.1c0,0,0.5-0.1,1.2-0.1c0.6,0,1.2,0.1,1.2,0.1
			l1.4,2.8c0.5,1.1,1.1,2.2,1.3,3h0.1c0.1-0.4,0.3-1,0.6-1.6c0.7-1.4,1.4-2.8,2-4.3C60.3,98.1,60.8,98,61.2,98z"/>
	</g>
	<g class="st1">
		<path class="st0" d="M67.8,100.9c2.2,0,3.6,1.2,3.6,4.2s-1.4,4.2-3.6,4.2c-2.2,0-3.6-1.2-3.6-4.2S65.6,100.9,67.8,100.9z
			 M67.8,102.3c-0.9,0-1.6,0.5-1.6,2.7c0,2.2,0.6,2.7,1.6,2.7s1.5-0.5,1.5-2.7C69.4,102.9,68.7,102.3,67.8,102.3z"/>
		<path class="st0" d="M79.5,109c0,0-0.3,0.1-1,0.1c-0.7,0-1-0.1-1-0.1v-5.5c0-0.7-0.4-1.1-1.2-1.1c-0.5,0-1,0.2-1.4,0.6v6
			c0,0-0.3,0.1-1,0.1c-0.7,0-1-0.1-1-0.1v-7.9c0,0,0.3-0.1,1-0.1c0.6,0,1,0.1,1,0.1v0.5c0.5-0.5,1.3-0.7,2.1-0.7
			c1.6,0,2.4,1,2.4,2.3V109z"/>
		<path class="st0" d="M84,106.1c0,1.3,0.5,1.6,1.5,1.6c0.2,0,0.5,0,0.5,0s0.1,0.3,0.1,0.8c0,0.4-0.1,0.7-0.1,0.7
			c-0.4,0.1-0.8,0.1-1.1,0.1c-2,0-2.8-1-2.8-3.1v-3.8h-1.2c0,0-0.1-0.3-0.1-0.7c0-0.5,0.1-0.7,0.1-0.7h1.2v-1.3
			c0.5-0.3,1.2-0.4,1.9-0.4v1.7h1.8c0,0,0.1,0.3,0.1,0.7c0,0.4-0.1,0.7-0.1,0.7H84V106.1z"/>
		<path class="st0" d="M94,109c0,0-0.3,0.1-1,0.1c-0.7,0-1-0.1-1-0.1v-5.5c0-0.7-0.4-1.1-1.2-1.1c-0.5,0-1,0.2-1.4,0.6v6
			c0,0-0.3,0.1-1,0.1c-0.7,0-1-0.1-1-0.1V97.7c0,0,0.3-0.1,1-0.1c0.6,0,1,0.1,1,0.1v3.9c0.5-0.5,1.3-0.7,2.1-0.7
			c1.6,0,2.4,1,2.4,2.3V109z"/>
	</g>
	<g class="st1">
		<path class="st0" d="M55.5,116.4c1.9,0,3.1,0.5,3.1,0.5c0,0.5-0.2,1.2-0.5,1.5c0,0-1-0.3-2.3-0.3c-1.5,0-2.2,0.5-2.2,1.5
			c0,1,1.3,1.2,2.7,1.7c1.4,0.5,2.8,1.3,2.8,3.2c0,2.1-1.3,3.3-4,3.3c-2.1,0-3.4-0.7-3.4-0.7c0-0.5,0.2-1.1,0.5-1.6
			c0,0,1.5,0.5,2.9,0.5c1.4,0,2-0.5,2-1.5c0-0.8-0.7-1.2-1.6-1.5c-1.6-0.6-3.8-0.9-3.8-3.4C51.6,117.7,52.9,116.4,55.5,116.4z"/>
	</g>
	<g class="st1">
		<path class="st0" d="M63,124.7c0,1.3,0.5,1.6,1.5,1.6c0.2,0,0.5,0,0.5,0s0.1,0.3,0.1,0.8c0,0.4-0.1,0.7-0.1,0.7
			c-0.4,0.1-0.8,0.1-1.1,0.1c-2,0-2.8-1-2.8-3.1V121h-1.2c0,0-0.1-0.3-0.1-0.7c0-0.5,0.1-0.7,0.1-0.7H61v-1.3
			c0.5-0.3,1.2-0.4,1.9-0.4v1.7h1.8c0,0,0.1,0.3,0.1,0.7c0,0.4-0.1,0.7-0.1,0.7H63V124.7z"/>
		<path class="st0" d="M66.4,119.7c0,0,0.3-0.1,1-0.1c0.7,0,1,0.1,1,0.1v5.5c0,0.7,0.4,1.1,1.2,1.1c0.5,0,1-0.2,1.4-0.6v-6
			c0,0,0.3-0.1,1-0.1c0.7,0,1,0.1,1,0.1v7.9c0,0-0.3,0.1-1,0.1c-0.6,0-1-0.1-1-0.1v-0.5c-0.5,0.5-1.3,0.7-2.1,0.7
			c-1.6,0-2.4-1-2.4-2.3V119.7z"/>
		<path class="st0" d="M80.6,116.1c0.6,0,1,0.1,1,0.1v11.3c0,0-0.3,0.1-0.8,0.1c-0.5,0-0.9-0.1-0.9-0.1l-0.1-0.7
			c-0.4,0.6-1.1,0.9-2.2,0.9c-1.7,0-2.9-1.1-2.9-4.2s1.1-4.2,2.9-4.2c1,0,1.6,0.3,2.1,0.8v-4C79.6,116.2,79.9,116.1,80.6,116.1z
			 M78.2,121c-1,0-1.5,0.5-1.5,2.6s0.6,2.6,1.5,2.6c0.9,0,1.4-0.7,1.4-1.7v-2C79.5,121.6,79,121,78.2,121z"/>
	</g>
	<g class="st1">
		<path class="st0" d="M87.7,128.6c-0.6,1.9-1.2,3-3.1,3c-0.5,0-0.9-0.2-0.9-0.2s-0.1-0.3-0.1-0.7c0-0.4,0.1-0.8,0.1-0.8
			s0.4,0.1,0.7,0.1c0.8,0,1.1-0.1,1.6-1.7l0.2-0.6c-0.2,0-0.4,0-0.6-0.1l-2.8-7.9c0,0,0.4-0.1,1-0.1c0.7,0,1,0.1,1,0.1l1.5,4.1
			c0.4,1.2,0.5,1.9,0.5,1.9h0.1c0,0,0.1-0.8,0.5-1.9l1.3-4.1c0,0,0.3-0.1,0.9-0.1c0.6,0,0.9,0.1,0.9,0.1L87.7,128.6z"/>
	</g>
	<g class="st1">
		<path class="st0" d="M297.2,42.6c0,0,0.8-0.4,2.6-0.4c1.8,0,2.7,0.4,2.7,0.4l-0.3,28.3c0,0-0.9,0.4-2.7,0.4
			c-1.7,0-2.8-0.4-2.8-0.4l0.2-16.3c0-2.1,0.1-3.9,0.3-5.3c-2,1.6-4.4,2.6-6.7,3.1c-1-1-1.6-2.7-1.2-4.5
			C292.8,46.9,295.1,45.3,297.2,42.6z"/>
		<path class="st0" d="M313.9,71.1c0,0-0.9,0.3-2.7,0.3c-1.9,0-2.7-0.4-2.7-0.4l0-4.9c0,0,0.8-0.3,2.7-0.3c1.8,0,2.7,0.4,2.7,0.4
			L313.9,71.1z"/>
		<path class="st0" d="M325.9,71.9c-4.9,0-7.6-1.6-7.6-1.6c-0.1-1.5,0.5-3.1,1.4-4c0,0,2.7,0.9,5.9,1c3.7,0,5.8-0.9,5.8-4.4
			c0-3-1.5-4.4-5.1-4.4l-3.6,0c-0.5-1.4-0.5-3,0-4.3l3.6,0c3.1,0,4.2-1.5,4.2-3.7c0-2.9-1.7-4-4.9-4c-3.1,0-5.2,0.8-5.2,0.8
			c-1.2-0.9-1.8-2.3-1.6-3.9c0,0,2.7-1.5,7.4-1.5c6.1,0.1,9.8,2.7,9.8,7.9c0,2.8-0.9,5.1-3.5,6.3c3,1.2,4.4,3.8,4.4,7.3
			C336.9,69,333.8,72,325.9,71.9z"/>
	</g>
	<g class="st1">
		<path class="st0" d="M340.4,44.6c0.1-3,1.3-4.3,3.5-4.2c2.2,0,3.5,1.2,3.4,4.3c-0.1,3.1-1.4,4.3-3.6,4.2
			C341.6,48.9,340.3,47.7,340.4,44.6z M342.6,44.7c0,2.2,0.4,2.6,1.2,2.6c0.8,0,1.2-0.4,1.3-2.5c0-2.1-0.4-2.6-1.2-2.6
			C343.1,42.1,342.6,42.5,342.6,44.7z M345.3,57.6c0,0-0.4,0.2-1.2,0.2c-0.8,0-1.2-0.2-1.2-0.2l9.8-17.1c0,0,0.4-0.2,1.2-0.2
			c0.8,0,1.2,0.2,1.2,0.2L345.3,57.6z M350.6,53.6c0.1-3,1.3-4.3,3.5-4.2c2.2,0,3.5,1.2,3.4,4.3c-0.1,3.1-1.4,4.3-3.6,4.2
			C351.8,57.9,350.5,56.7,350.6,53.6z M352.8,53.6c0,2.2,0.4,2.6,1.2,2.6c0.8,0,1.2-0.3,1.3-2.5c0-2.1-0.4-2.6-1.2-2.6
			C353.3,51.1,352.8,51.5,352.8,53.6z"/>
	</g>
	<g class="st1">
		<path class="st0" d="M268.1,84.5c0,0,0.3-0.1,0.9-0.1c0.6,0,0.9,0.1,0.9,0.1v9.8c0,0-0.3,0.1-0.9,0.1c-0.6,0-0.9-0.1-0.9-0.1V84.5
			z"/>
	</g>
	<g class="st1">
		<path class="st0" d="M277.8,94.3c0,0-0.3,0.1-0.9,0.1c-0.6,0-0.9-0.1-0.9-0.1v-5c0-0.6-0.3-1-1.1-1c-0.5,0-0.9,0.2-1.2,0.5v5.4
			c0,0-0.3,0.1-0.9,0.1c-0.6,0-0.9-0.1-0.9-0.1v-7.1c0,0,0.3-0.1,0.9-0.1c0.6,0,0.9,0.1,0.9,0.1v0.4c0.5-0.4,1.1-0.7,1.9-0.7
			c1.4,0,2.2,0.9,2.2,2.1V94.3z"/>
		<path class="st0" d="M281.1,90.7c0,1.7,0.5,2.3,1.7,2.3c0.7,0,1.3-0.2,1.3-0.2c0.3,0.3,0.5,0.8,0.5,1.2c0,0-0.6,0.4-2.1,0.4
			c-2.1,0-3.2-1.3-3.2-3.8c0-2.5,1-3.8,3.2-3.8c1.4,0,2,0.4,2,0.4c0,0.5-0.2,1-0.5,1.2c0,0-0.5-0.2-1.2-0.2
			C281.5,88.3,281.1,89.1,281.1,90.7z"/>
	</g>
	<g class="st1">
		<path class="st0" d="M289.1,86.9c0.4,0,0.8,0.1,1.2,0.4c-0.1,0.6-0.3,1.1-0.8,1.5c-0.3-0.2-0.5-0.3-0.8-0.3
			c-0.4,0-0.9,0.3-1.2,0.7v5.1c0,0-0.3,0.1-0.9,0.1c-0.6,0-0.9-0.1-0.9-0.1v-7.1c0,0,0.3-0.1,0.9-0.1c0.6,0,0.9,0.1,0.9,0.1V88
			C288.1,87.3,288.6,86.9,289.1,86.9z"/>
	</g>
	<g class="st1">
		<path class="st0" d="M292.7,91.3c0.1,1.4,0.8,1.8,1.7,1.8c0.9,0,1.6-0.3,1.6-0.3c0.3,0.3,0.5,0.8,0.5,1.2c0,0-0.8,0.6-2.4,0.6
			c-2.3,0-3.3-1.3-3.3-3.9c0-2.6,1.3-3.8,3.2-3.8c1.7,0,2.9,0.9,2.9,2.9c0,0.9-0.2,1.5-0.2,1.5H292.7z M294.1,88.3
			c-0.7,0-1.2,0.5-1.4,1.8h2.5c0-0.2,0-0.3,0-0.5C295.2,88.9,295,88.3,294.1,88.3z"/>
		<path class="st0" d="M301.1,86.9c2,0,2.8,0.8,2.8,2.6v4.8c0,0-0.2,0.1-0.7,0.1c-0.4,0-0.7-0.1-0.7-0.1l-0.3-0.8c-0.3,0.7-1,1-2,1
			c-1.3,0-2.2-0.8-2.2-2.4c0-1.6,1-2.2,2.7-2.2c0.5,0,1,0,1.4,0.1v-0.3c0-0.7-0.3-1.3-1.3-1.3c-0.9,0-1.8,0.3-1.8,0.3
			s-0.2-0.1-0.4-0.5c-0.2-0.4-0.1-0.7-0.1-0.7S299.6,86.9,301.1,86.9z M301,91.1c-0.7,0-1.1,0.3-1.1,1.1c0,0.8,0.4,1.1,1,1.1
			c1,0,1.3-0.9,1.3-1.7v-0.4C301.8,91.1,301.4,91.1,301,91.1z"/>
		<path class="st0" d="M308.1,86.9c1.5,0,2.1,0.4,2.1,0.4c0,0.4-0.1,1-0.4,1.2c0,0-0.7-0.2-1.4-0.2c-0.8,0-1.2,0.3-1.2,0.8
			c0,0.6,0.9,0.7,1.8,1c0.8,0.3,1.7,0.8,1.7,2.1c0,1.5-0.9,2.3-2.7,2.3c-1.5,0-2.4-0.5-2.4-0.5c0-0.5,0.2-1,0.5-1.3
			c0,0,0.9,0.3,1.9,0.3c0.8,0,1.1-0.3,1.1-0.8c0-0.6-0.7-0.8-1.4-1c-0.9-0.3-1.9-0.7-1.9-2.1C305.4,87.8,306.3,86.9,308.1,86.9z"/>
		<path class="st0" d="M313.4,91.3c0.1,1.4,0.8,1.8,1.7,1.8c0.9,0,1.6-0.3,1.6-0.3c0.3,0.3,0.5,0.8,0.5,1.2c0,0-0.8,0.6-2.4,0.6
			c-2.3,0-3.3-1.3-3.3-3.9c0-2.6,1.3-3.8,3.2-3.8c1.7,0,2.9,0.9,2.9,2.9c0,0.9-0.2,1.5-0.2,1.5H313.4z M314.8,88.3
			c-0.7,0-1.2,0.5-1.4,1.8h2.5c0-0.2,0-0.3,0-0.5C315.9,88.9,315.7,88.3,314.8,88.3z"/>
		<path class="st0" d="M324,85.8c0,0-0.3,0.1-0.9,0.1c-0.6,0-0.9-0.1-0.9-0.1v-1.6c0,0,0.3-0.1,0.9-0.1c0.6,0,0.9,0.1,0.9,0.1V85.8z
			 M324,94.3c0,0-0.3,0.1-0.9,0.1c-0.6,0-0.9-0.1-0.9-0.1v-7.1c0,0,0.3-0.1,0.9-0.1c0.6,0,0.9,0.1,0.9,0.1V94.3z"/>
		<path class="st0" d="M331.7,94.3c0,0-0.3,0.1-0.9,0.1c-0.6,0-0.9-0.1-0.9-0.1v-5c0-0.6-0.3-1-1.1-1c-0.5,0-0.9,0.2-1.2,0.5v5.4
			c0,0-0.3,0.1-0.9,0.1c-0.6,0-0.9-0.1-0.9-0.1v-7.1c0,0,0.3-0.1,0.9-0.1c0.6,0,0.9,0.1,0.9,0.1v0.4c0.5-0.4,1.1-0.7,1.9-0.7
			c1.4,0,2.2,0.9,2.2,2.1V94.3z"/>
		<path class="st0" d="M340.7,84.3c1.7,0,2.7,1.1,2.7,2.8c0,0.9-0.4,1.6-1,2c0.8,0.4,1.3,1.2,1.3,2.3c0,1.8-1.2,2.9-3,2.9h-4V84.3
			H340.7z M340.3,88.6c0.9,0,1.3-0.6,1.3-1.5c0-0.9-0.4-1.5-1.3-1.5h-1.8v2.9H340.3z M340.3,93c1,0,1.5-0.6,1.5-1.5
			c0-1-0.5-1.6-1.5-1.6h-1.8V93H340.3z"/>
		<path class="st0" d="M348.2,86.9c2,0,3.2,1.1,3.2,3.8s-1.2,3.8-3.2,3.8c-2,0-3.2-1-3.2-3.8S346.2,86.9,348.2,86.9z M348.2,88.2
			c-0.9,0-1.4,0.5-1.4,2.5c0,2,0.6,2.5,1.4,2.5s1.4-0.5,1.4-2.5C349.6,88.7,349.1,88.2,348.2,88.2z"/>
		<path class="st0" d="M358.9,94.3c0,0-0.3,0.1-0.9,0.1c-0.6,0-0.9-0.1-0.9-0.1v-5c0-0.6-0.3-1-1.1-1c-0.5,0-0.9,0.2-1.2,0.5v5.4
			c0,0-0.3,0.1-0.9,0.1c-0.6,0-0.9-0.1-0.9-0.1v-7.1c0,0,0.3-0.1,0.9-0.1c0.6,0,0.9,0.1,0.9,0.1v0.4c0.5-0.4,1.1-0.7,1.9-0.7
			c1.4,0,2.2,0.9,2.2,2.1V94.3z"/>
		<path class="st0" d="M362.1,91.3c0.1,1.4,0.8,1.8,1.7,1.8c0.9,0,1.6-0.3,1.6-0.3c0.3,0.3,0.5,0.8,0.5,1.2c0,0-0.8,0.6-2.4,0.6
			c-2.3,0-3.3-1.3-3.3-3.9c0-2.6,1.3-3.8,3.2-3.8c1.7,0,2.9,0.9,2.9,2.9c0,0.9-0.2,1.5-0.2,1.5H362.1z M363.5,88.3
			c-0.7,0-1.2,0.5-1.4,1.8h2.5c0-0.2,0-0.3,0-0.5C364.7,88.9,364.4,88.3,363.5,88.3z"/>
	</g>
	<g class="st1">
		<path class="st0" d="M275.8,100.8c2.5,0,4.1,1.4,4.1,5s-1.6,5-4.1,5h-3.3v-10.1H275.8z M275.7,109.4c1.4,0,2.4-0.6,2.4-3.6
			c0-3-1-3.6-2.4-3.6h-1.4v7.1H275.7z"/>
		<path class="st0" d="M283.1,107.8c0.1,1.4,0.8,1.8,1.7,1.8c0.9,0,1.6-0.3,1.6-0.3c0.3,0.3,0.5,0.8,0.5,1.2c0,0-0.8,0.6-2.4,0.6
			c-2.3,0-3.3-1.3-3.3-3.9c0-2.6,1.3-3.8,3.2-3.8c1.7,0,2.9,0.9,2.9,2.9c0,0.9-0.2,1.5-0.2,1.5H283.1z M284.5,104.8
			c-0.7,0-1.2,0.5-1.4,1.8h2.5c0-0.2,0-0.3,0-0.5C285.6,105.4,285.4,104.8,284.5,104.8z"/>
		<path class="st0" d="M294.7,110.8c0,0-0.3,0.1-0.9,0.1c-0.6,0-0.9-0.1-0.9-0.1v-5c0-0.6-0.3-1-1.1-1c-0.5,0-0.9,0.2-1.2,0.5v5.4
			c0,0-0.3,0.1-0.9,0.1c-0.6,0-0.9-0.1-0.9-0.1v-7.1c0,0,0.3-0.1,0.9-0.1c0.6,0,0.9,0.1,0.9,0.1v0.4c0.5-0.4,1.1-0.7,1.9-0.7
			c1.4,0,2.2,0.9,2.2,2.1V110.8z"/>
		<path class="st0" d="M298.9,103.4c1.5,0,2.1,0.4,2.1,0.4c0,0.4-0.1,1-0.4,1.2c0,0-0.7-0.2-1.4-0.2c-0.8,0-1.2,0.3-1.2,0.8
			c0,0.6,0.9,0.7,1.8,1c0.8,0.3,1.7,0.8,1.7,2.1c0,1.5-0.9,2.3-2.7,2.3c-1.5,0-2.4-0.5-2.4-0.5c0-0.5,0.2-1,0.5-1.3
			c0,0,0.9,0.3,1.9,0.3c0.8,0,1.1-0.3,1.1-0.8c0-0.6-0.7-0.8-1.4-1c-0.9-0.3-1.9-0.7-1.9-2.1C296.2,104.3,297.1,103.4,298.9,103.4z"
			/>
		<path class="st0" d="M304.5,102.3c0,0-0.3,0.1-0.9,0.1c-0.6,0-0.9-0.1-0.9-0.1v-1.6c0,0,0.3-0.1,0.9-0.1c0.6,0,0.9,0.1,0.9,0.1
			V102.3z M304.5,110.8c0,0-0.3,0.1-0.9,0.1c-0.6,0-0.9-0.1-0.9-0.1v-7.1c0,0,0.3-0.1,0.9-0.1c0.6,0,0.9,0.1,0.9,0.1V110.8z"/>
		<path class="st0" d="M308.7,108.2c0,1.2,0.4,1.5,1.3,1.5c0.2,0,0.5,0,0.5,0s0.1,0.3,0.1,0.7c0,0.4-0.1,0.6-0.1,0.6
			c-0.3,0.1-0.7,0.1-1,0.1c-1.8,0-2.6-0.9-2.6-2.8v-3.4h-1.1c0,0-0.1-0.3-0.1-0.6c0-0.4,0.1-0.7,0.1-0.7h1.1v-1.2
			c0.5-0.3,1.1-0.4,1.8-0.4v1.6h1.7c0,0,0.1,0.2,0.1,0.6c0,0.4-0.1,0.7-0.1,0.7h-1.7V108.2z"/>
	</g>
	<g class="st1">
		<path class="st0" d="M315.6,111.7c-0.5,1.7-1.1,2.7-2.8,2.7c-0.5,0-0.8-0.2-0.8-0.2s-0.1-0.3-0.1-0.7c0-0.4,0.1-0.7,0.1-0.7
			s0.4,0.1,0.6,0.1c0.7,0,1-0.1,1.4-1.5l0.2-0.5c-0.2,0-0.4,0-0.5-0.1l-2.5-7.1c0,0,0.3-0.1,0.9-0.1c0.6,0,0.9,0.1,0.9,0.1l1.3,3.8
			c0.4,1.1,0.5,1.8,0.5,1.8h0.1c0,0,0.1-0.7,0.4-1.8l1.1-3.8c0,0,0.3-0.1,0.9-0.1c0.5,0,0.8,0.1,0.8,0.1L315.6,111.7z"/>
	</g>
	<g class="st1">
		<path class="st0" d="M324.6,103.4c2,0,2.8,0.8,2.8,2.6v4.8c0,0-0.2,0.1-0.7,0.1c-0.4,0-0.7-0.1-0.7-0.1l-0.3-0.8c-0.3,0.7-1,1-2,1
			c-1.3,0-2.2-0.8-2.2-2.4c0-1.6,1-2.2,2.7-2.2c0.5,0,1,0,1.4,0.1v-0.3c0-0.7-0.3-1.3-1.3-1.3c-0.9,0-1.8,0.3-1.8,0.3
			s-0.2-0.1-0.4-0.5c-0.2-0.4-0.1-0.7-0.1-0.7S323.1,103.4,324.6,103.4z M324.5,107.6c-0.7,0-1.1,0.3-1.1,1.1c0,0.8,0.4,1.1,1,1.1
			c1,0,1.3-0.9,1.3-1.7v-0.4C325.3,107.6,324.9,107.6,324.5,107.6z"/>
		<path class="st0" d="M336.8,103.4c1.4,0,2.1,0.9,2.1,2.1v5.3c0,0-0.3,0.1-0.9,0.1c-0.6,0-0.9-0.1-0.9-0.1v-5c0-0.6-0.3-1-1-1
			c-0.4,0-0.9,0.2-1.2,0.5v5.5c0,0-0.3,0.1-0.9,0.1c-0.6,0-0.9-0.1-0.9-0.1v-5c0-0.6-0.3-1-1.1-1c-0.4,0-0.9,0.2-1.2,0.5v5.5
			c0,0-0.3,0.1-0.9,0.1c-0.6,0-0.9-0.1-0.9-0.1v-7.1c0,0,0.3-0.1,0.9-0.1c0.6,0,0.9,0.1,0.9,0.1v0.4c0.5-0.4,1.1-0.7,1.8-0.7
			c0.8,0,1.4,0.2,1.8,0.8C335.2,103.7,335.9,103.4,336.8,103.4z"/>
		<path class="st0" d="M343.6,103.4c2,0,3.2,1.1,3.2,3.8s-1.2,3.8-3.2,3.8c-2,0-3.2-1-3.2-3.8S341.6,103.4,343.6,103.4z
			 M343.6,104.7c-0.9,0-1.4,0.5-1.4,2.5c0,2,0.6,2.5,1.4,2.5s1.4-0.5,1.4-2.5C345,105.2,344.5,104.7,343.6,104.7z"/>
		<path class="st0" d="M354.2,110.8c0,0-0.3,0.1-0.9,0.1c-0.6,0-0.9-0.1-0.9-0.1v-5c0-0.6-0.3-1-1.1-1c-0.5,0-0.9,0.2-1.2,0.5v5.4
			c0,0-0.3,0.1-0.9,0.1c-0.6,0-0.9-0.1-0.9-0.1v-7.1c0,0,0.3-0.1,0.9-0.1c0.6,0,0.9,0.1,0.9,0.1v0.4c0.5-0.4,1.1-0.7,1.9-0.7
			c1.4,0,2.2,0.9,2.2,2.1V110.8z"/>
		<path class="st0" d="M362.2,103.4c0.1,0.3,0.1,1,0,1.3l-1.1-0.1c0.2,0.4,0.3,0.8,0.3,1.4c0,1.6-1,2.6-2.8,2.6c-0.2,0-0.4,0-0.5,0
			c-0.1,0.2-0.2,0.4-0.2,0.6c0.2,1.1,4.3-0.1,4.3,2.8c0,1.5-1.4,2.5-3.7,2.5c-2.2,0-3.1-0.8-3.1-1.9c0-1,0.9-1.6,1.3-1.9
			c-0.2-0.2-0.3-0.5-0.3-0.8c0-0.6,0.3-1.2,0.7-1.6c-0.9-0.4-1.3-1.2-1.3-2.3c0-1.6,1-2.6,2.8-2.6c0.6,0,1.2,0.1,1.6,0.3
			L362.2,103.4z M357.6,111.1c-0.2,0.2-0.5,0.6-0.5,1c0,0.6,0.4,1,1.5,1c1.3,0,2-0.4,2-1C360.5,111.3,358.8,111.4,357.6,111.1z
			 M358.6,104.6c-0.7,0-1.2,0.4-1.2,1.4s0.5,1.3,1.2,1.3s1.2-0.4,1.2-1.3S359.3,104.6,358.6,104.6z"/>
	</g>
	<g class="st1">
		<path class="st0" d="M265.2,127.3c0,0-0.3,0.1-0.9,0.1c-0.7,0-0.9-0.1-0.9-0.1v-10h3.8c1.9,0,3.1,1.3,3.1,3.2s-1.2,3.2-3.1,3.2h-2
			V127.3z M266.9,122.1c1,0,1.5-0.6,1.5-1.7s-0.5-1.7-1.5-1.7h-1.7v3.3H266.9z"/>
	</g>
	<g class="st1">
		<path class="st0" d="M274.4,119.9c2,0,3.2,1.1,3.2,3.8s-1.2,3.8-3.2,3.8c-2,0-3.2-1-3.2-3.8S272.4,119.9,274.4,119.9z
			 M274.4,121.2c-0.9,0-1.4,0.5-1.4,2.5c0,2,0.6,2.5,1.4,2.5s1.4-0.5,1.4-2.5C275.8,121.7,275.3,121.2,274.4,121.2z"/>
		<path class="st0" d="M281.6,119.9c1.5,0,2.1,0.4,2.1,0.4c0,0.4-0.1,1-0.4,1.2c0,0-0.7-0.2-1.4-0.2c-0.8,0-1.2,0.3-1.2,0.8
			c0,0.6,0.9,0.7,1.8,1c0.8,0.3,1.7,0.8,1.7,2.1c0,1.5-0.9,2.3-2.7,2.3c-1.5,0-2.4-0.5-2.4-0.5c0-0.5,0.2-1,0.5-1.3
			c0,0,0.9,0.3,1.9,0.3c0.8,0,1.1-0.3,1.1-0.8c0-0.6-0.7-0.8-1.4-1c-0.9-0.3-1.9-0.7-1.9-2.1C278.9,120.8,279.8,119.9,281.6,119.9z"
			/>
	</g>
	<g class="st1">
		<path class="st0" d="M287.7,124.7c0,1.2,0.4,1.5,1.3,1.5c0.2,0,0.5,0,0.5,0s0.1,0.3,0.1,0.7c0,0.4-0.1,0.6-0.1,0.6
			c-0.3,0.1-0.7,0.1-1,0.1c-1.8,0-2.6-0.9-2.6-2.8v-3.4h-1.1c0,0-0.1-0.3-0.1-0.6c0-0.4,0.1-0.7,0.1-0.7h1.1v-1.2
			c0.5-0.3,1.1-0.4,1.8-0.4v1.6h1.7c0,0,0.1,0.2,0.1,0.6c0,0.4-0.1,0.7-0.1,0.7h-1.7V124.7z"/>
	</g>
	<g class="st1">
		<path class="st0" d="M290.6,124c0,0-0.1-0.3-0.1-0.6c0-0.4,0.1-0.6,0.1-0.6h3.1c0,0,0.1,0.3,0.1,0.6c0,0.4-0.1,0.6-0.1,0.6H290.6z
			"/>
	</g>
	<g class="st1">
		<path class="st0" d="M307.1,117.3c0.7,0,1.2,0.1,1.2,0.1v9.8c0,0-0.3,0.1-0.9,0.1s-0.9-0.1-0.9-0.1v-3.1c0-1.5-0.1-3.5,0.1-4.6
			h-0.1c-0.2,0.9-1,2.3-1.5,3.5l-1,2.1c0,0-0.2,0.1-0.5,0.1c-0.3,0-0.4-0.1-0.4-0.1c-0.3-0.7-0.7-1.3-1-2c-0.6-1.2-1.4-2.7-1.6-3.6
			h-0.1c0.2,1,0.2,2.8,0.2,4.3v3.4c0,0-0.3,0.1-0.8,0.1c-0.5,0-0.8-0.1-0.8-0.1v-9.8c0,0,0.4-0.1,1.1-0.1c0.5,0,1.1,0.1,1.1,0.1
			l1.3,2.6c0.5,1,1,2,1.2,2.7h0.1c0.1-0.4,0.3-0.9,0.6-1.5c0.6-1.3,1.2-2.6,1.8-3.9C306.3,117.4,306.8,117.3,307.1,117.3z"/>
	</g>
	<g class="st1">
		<path class="st0" d="M311.7,124.3c0.1,1.4,0.8,1.8,1.7,1.8c0.9,0,1.6-0.3,1.6-0.3c0.3,0.3,0.5,0.8,0.5,1.2c0,0-0.8,0.6-2.4,0.6
			c-2.3,0-3.3-1.3-3.3-3.9c0-2.6,1.3-3.8,3.2-3.8c1.7,0,2.9,0.9,2.9,2.9c0,0.9-0.2,1.5-0.2,1.5H311.7z M313.1,121.3
			c-0.7,0-1.2,0.5-1.4,1.8h2.5c0-0.2,0-0.3,0-0.5C314.2,121.9,314,121.3,313.1,121.3z"/>
		<path class="st0" d="M323.3,127.3c0,0-0.3,0.1-0.9,0.1c-0.6,0-0.9-0.1-0.9-0.1v-5c0-0.6-0.3-1-1.1-1c-0.5,0-0.9,0.2-1.2,0.5v5.4
			c0,0-0.3,0.1-0.9,0.1c-0.6,0-0.9-0.1-0.9-0.1v-7.1c0,0,0.3-0.1,0.9-0.1c0.6,0,0.9,0.1,0.9,0.1v0.4c0.5-0.4,1.1-0.7,1.9-0.7
			c1.4,0,2.2,0.9,2.2,2.1V127.3z"/>
		<path class="st0" d="M328,119.9c2,0,3.2,1.1,3.2,3.8s-1.2,3.8-3.2,3.8c-2,0-3.2-1-3.2-3.8S326,119.9,328,119.9z M328,121.2
			c-0.9,0-1.4,0.5-1.4,2.5c0,2,0.6,2.5,1.4,2.5s1.4-0.5,1.4-2.5C329.4,121.7,328.9,121.2,328,121.2z"/>
		<path class="st0" d="M336.4,119.9c1.6,0,2.6,1,2.6,3.8c0,2.9-1,3.8-2.6,3.8c-0.9,0-1.5-0.3-1.9-0.7v3.6c0,0-0.3,0.1-0.9,0.1
			c-0.6,0-0.9-0.1-0.9-0.1v-10.3c0,0,0.3-0.1,0.9-0.1c0.6,0,0.9,0.1,0.9,0.1v0.5C334.9,120.2,335.5,119.9,336.4,119.9z M335.8,121.3
			c-0.8,0-1.3,0.6-1.3,1.5v1.8c0,0.9,0.5,1.5,1.3,1.5c0.9,0,1.4-0.4,1.4-2.4C337.2,121.8,336.7,121.3,335.8,121.3z"/>
		<path class="st0" d="M343.2,119.9c2,0,2.8,0.8,2.8,2.6v4.8c0,0-0.2,0.1-0.7,0.1c-0.4,0-0.7-0.1-0.7-0.1l-0.3-0.8c-0.3,0.7-1,1-2,1
			c-1.3,0-2.2-0.8-2.2-2.4c0-1.6,1-2.2,2.7-2.2c0.5,0,1,0,1.4,0.1v-0.3c0-0.7-0.3-1.3-1.3-1.3c-0.9,0-1.8,0.3-1.8,0.3
			s-0.2-0.1-0.4-0.5c-0.2-0.4-0.1-0.7-0.1-0.7S341.7,119.9,343.2,119.9z M343.1,124.1c-0.7,0-1.1,0.3-1.1,1.1c0,0.8,0.4,1.1,1,1.1
			c1,0,1.3-0.9,1.3-1.7v-0.4C343.9,124.1,343.5,124.1,343.1,124.1z"/>
		<path class="st0" d="M347.8,120.2c0,0,0.3-0.1,0.9-0.1c0.6,0,0.9,0.1,0.9,0.1v5c0,0.6,0.3,1,1.1,1c0.5,0,0.9-0.2,1.2-0.5v-5.4
			c0,0,0.3-0.1,0.9-0.1c0.6,0,0.9,0.1,0.9,0.1v7.1c0,0-0.3,0.1-0.9,0.1c-0.6,0-0.9-0.1-0.9-0.1v-0.4c-0.5,0.4-1.2,0.7-1.9,0.7
			c-1.4,0-2.2-0.9-2.2-2.1V120.2z"/>
		<path class="st0" d="M357.9,119.9c1.5,0,2.1,0.4,2.1,0.4c0,0.4-0.1,1-0.4,1.2c0,0-0.7-0.2-1.4-0.2c-0.8,0-1.2,0.3-1.2,0.8
			c0,0.6,0.9,0.7,1.8,1c0.8,0.3,1.7,0.8,1.7,2.1c0,1.5-0.9,2.3-2.7,2.3c-1.5,0-2.4-0.5-2.4-0.5c0-0.5,0.2-1,0.5-1.3
			c0,0,0.9,0.3,1.9,0.3c0.8,0,1.1-0.3,1.1-0.8c0-0.6-0.7-0.8-1.4-1c-0.9-0.3-1.9-0.7-1.9-2.1C355.2,120.8,356.1,119.9,357.9,119.9z"
			/>
		<path class="st0" d="M364.4,119.9c2,0,2.8,0.8,2.8,2.6v4.8c0,0-0.2,0.1-0.7,0.1c-0.4,0-0.7-0.1-0.7-0.1l-0.3-0.8c-0.3,0.7-1,1-2,1
			c-1.3,0-2.2-0.8-2.2-2.4c0-1.6,1-2.2,2.7-2.2c0.5,0,1,0,1.4,0.1v-0.3c0-0.7-0.3-1.3-1.3-1.3c-0.9,0-1.8,0.3-1.8,0.3
			s-0.2-0.1-0.4-0.5c-0.2-0.4-0.1-0.7-0.1-0.7S362.9,119.9,364.4,119.9z M364.3,124.1c-0.7,0-1.1,0.3-1.1,1.1c0,0.8,0.4,1.1,1,1.1
			c1,0,1.3-0.9,1.3-1.7v-0.4C365.1,124.1,364.7,124.1,364.3,124.1z"/>
		<path class="st0" d="M370.8,127.3c0,0-0.3,0.1-0.9,0.1c-0.6,0-0.9-0.1-0.9-0.1V117c0,0,0.3-0.1,0.9-0.1c0.6,0,0.9,0.1,0.9,0.1
			V127.3z"/>
	</g>
	<g class="st1">
		<path class="st0" d="M302.2,138c-0.3-1.5-0.3-2.4-0.3-2.4h-0.1c0,0,0,0.9-0.4,2.4l-1.3,5.8c-0.3,0.1-0.8,0.1-1.2,0.1
			c-0.4,0-0.8-0.1-1.1-0.1l-2.6-9.8c0,0,0.3-0.1,0.9-0.1c0.6,0,0.9,0.1,0.9,0.1l1.6,6c0.3,1,0.4,2.1,0.4,2.1h0.1
			c0,0,0.1-1.1,0.4-2.1l1.4-6c0,0,0.3-0.1,1-0.1c0.7,0,1,0.1,1,0.1l1.4,6c0.2,1,0.3,2.1,0.3,2.1h0.1c0,0,0.1-1,0.4-2.1l1.6-6
			c0,0,0.3-0.1,0.8-0.1c0.5,0,0.8,0.1,0.8,0.1l-2.7,9.8c0,0-0.4,0.1-1.1,0.1c-0.6,0-1.1-0.1-1.1-0.1L302.2,138z"/>
	</g>
	<g class="st1">
		<path class="st0" d="M311.8,136.4c2,0,3.2,1.1,3.2,3.8s-1.2,3.8-3.2,3.8c-2,0-3.2-1-3.2-3.8S309.8,136.4,311.8,136.4z
			 M311.8,137.7c-0.9,0-1.4,0.5-1.4,2.5c0,2,0.6,2.5,1.4,2.5s1.4-0.5,1.4-2.5C313.2,138.2,312.6,137.7,311.8,137.7z"/>
		<path class="st0" d="M324.1,136.4c1.4,0,2.1,0.9,2.1,2.1v5.3c0,0-0.3,0.1-0.9,0.1c-0.6,0-0.9-0.1-0.9-0.1v-5c0-0.6-0.3-1-1.1-1
			c-0.4,0-0.9,0.2-1.2,0.5v5.5c0,0-0.3,0.1-0.9,0.1c-0.6,0-0.9-0.1-0.9-0.1v-5c0-0.6-0.3-1-1.1-1c-0.4,0-0.9,0.2-1.2,0.5v5.5
			c0,0-0.3,0.1-0.9,0.1c-0.6,0-0.9-0.1-0.9-0.1v-7.1c0,0,0.3-0.1,0.9-0.1c0.6,0,0.9,0.1,0.9,0.1v0.4c0.5-0.4,1.1-0.7,1.8-0.7
			c0.8,0,1.4,0.2,1.8,0.8C322.5,136.7,323.2,136.4,324.1,136.4z"/>
		<path class="st0" d="M329.5,140.8c0.1,1.4,0.8,1.8,1.7,1.8c0.9,0,1.6-0.3,1.6-0.3c0.3,0.3,0.5,0.8,0.5,1.2c0,0-0.8,0.6-2.4,0.6
			c-2.3,0-3.3-1.3-3.3-3.9c0-2.6,1.3-3.8,3.2-3.8c1.7,0,2.9,0.9,2.9,2.9c0,0.9-0.2,1.5-0.2,1.5H329.5z M330.9,137.8
			c-0.7,0-1.2,0.5-1.4,1.8h2.5c0-0.2,0-0.3,0-0.5C332.1,138.4,331.8,137.8,330.9,137.8z"/>
		<path class="st0" d="M341.1,143.8c0,0-0.3,0.1-0.9,0.1c-0.6,0-0.9-0.1-0.9-0.1v-5c0-0.6-0.3-1-1.1-1c-0.5,0-0.9,0.2-1.2,0.5v5.4
			c0,0-0.3,0.1-0.9,0.1c-0.6,0-0.9-0.1-0.9-0.1v-7.1c0,0,0.3-0.1,0.9-0.1c0.6,0,0.9,0.1,0.9,0.1v0.4c0.5-0.4,1.1-0.7,1.9-0.7
			c1.4,0,2.2,0.9,2.2,2.1V143.8z"/>
	</g>
	<g class="st1">
		<path class="st0" d="M160.9,86.5c0,0,0.9-0.4,2.7-0.4c1.8,0,2.6,0.4,2.6,0.4l0,17.3h3.5c0,0,0.4,0.8,0.4,2.1
			c0,1.4-0.4,2.1-0.4,2.1h-3.5l0,6.6c0,0-0.9,0.4-2.5,0.4c-1.6,0-2.6-0.4-2.6-0.4l0-6.6l-12.9,0c0,0-0.4-0.8-0.4-2.1
			c0-1.4,0.4-2.1,0.4-2.1L160.9,86.5z M153.4,103.8h7.6l0-10.4L153.4,103.8z"/>
	</g>
	<g class="st1">
		<path class="st0" d="M179.8,86.5c0,0,0.8-0.4,2.6-0.4c1.8,0,2.7,0.4,2.7,0.4l0,28.1c0,0-0.9,0.4-2.7,0.4c-1.7,0-2.8-0.4-2.8-0.4
			l0-16.3c0-2.1,0.1-3.9,0.2-5.3c-2,1.6-4.4,2.6-6.7,3.1c-1-1-1.6-2.7-1.3-4.4C175.5,90.8,177.8,89.3,179.8,86.5z"/>
		<path class="st0" d="M203.1,86.5c0,0,0.9-0.4,2.7-0.4c1.8,0,2.6,0.4,2.6,0.4l0,17.3l3.5,0c0,0,0.4,0.8,0.4,2.1
			c0,1.4-0.4,2.1-0.4,2.1l-3.5,0l0,6.6c0,0-0.9,0.4-2.5,0.4c-1.6,0-2.6-0.4-2.6-0.4l0-6.6l-12.9,0c0,0-0.4-0.8-0.4-2.1
			c0-1.4,0.4-2.1,0.4-2.1L203.1,86.5z M195.6,103.8l7.6,0l0-10.4L195.6,103.8z"/>
	</g>
	<path class="st0" d="M29.2,20.1H30c0.2,0,0.4,0.2,0.4,0.4V27c0,0.2-0.2,0.4-0.4,0.4h-0.8c-0.2,0-0.4-0.2-0.4-0.4v-6.5
		C28.8,20.3,29,20.1,29.2,20.1z"/>
	<path class="st0" d="M35.5,20.1h0.8c0.2,0,0.4,0.2,0.4,0.4V27c0,0.2-0.2,0.4-0.4,0.4h-0.8c-0.2,0-0.4-0.2-0.4-0.4v-6.5
		C35.1,20.3,35.3,20.1,35.5,20.1z"/>
	<path class="st0" d="M42.1,20.1h0.8c0.2,0,0.4,0.2,0.4,0.4V27c0,0.2-0.2,0.4-0.4,0.4h-0.8c-0.2,0-0.4-0.2-0.4-0.4v-6.5
		C41.7,20.3,41.9,20.1,42.1,20.1z"/>
	<path class="st0" d="M48.4,20.1h0.8c0.2,0,0.4,0.2,0.4,0.4V27c0,0.2-0.2,0.4-0.4,0.4h-0.8c-0.2,0-0.4-0.2-0.4-0.4v-6.5
		C48,20.3,48.2,20.1,48.4,20.1z"/>
	<path class="st0" d="M54.7,20.1h0.8c0.2,0,0.4,0.2,0.4,0.4V27c0,0.2-0.2,0.4-0.4,0.4h-0.8c-0.2,0-0.4-0.2-0.4-0.4v-6.5
		C54.3,20.3,54.5,20.1,54.7,20.1z"/>
	<path class="st0" d="M61.3,20.1h0.8c0.2,0,0.4,0.2,0.4,0.4V27c0,0.2-0.2,0.4-0.4,0.4h-0.8c-0.2,0-0.4-0.2-0.4-0.4v-6.5
		C60.9,20.3,61.1,20.1,61.3,20.1z"/>
	<path class="st0" d="M74.3,24.5c-0.1-0.5-0.5-0.9-1-1c-1.2-0.1-2.4-0.1-3.7,0V25c0,0.2,0,0.5,0,0.7c0,0.1,0,0.1,0,0.2v1.6
		c0,0.5-0.4,0.9-0.9,0.9l0,0h-2c-0.5,0-0.9-0.4-0.9-0.9v-4c-0.7,0-1.5,0-2.2,0.1v3.9c0,0.5-0.4,0.9-0.9,0.9h-2
		c-0.5,0-0.9-0.4-0.9-0.9c0,0,0,0,0,0v-4c0,0-0.1-0.1-0.1-0.1c-0.8-0.1-1.7-0.1-2.5,0.1c0,0-0.1,0.1-0.1,0.2v3.7
		c0,0.5-0.4,0.9-0.9,0.9h-2c-0.5,0-0.9-0.4-0.9-0.9c0,0,0,0,0,0v-4c-0.5-0.1-1-0.1-1.5,0c-0.3,0-0.7,0-1,0.2v4
		c0,0.5-0.4,0.9-0.9,0.9l0,0h-2c-0.5,0-0.9-0.4-0.9-0.9v-4c-0.8-0.1-1.6-0.1-2.5,0v3.9c0,0.5-0.4,0.9-0.9,0.9h-2
		c-0.5,0-0.9-0.4-0.9-0.9c0,0,0,0,0,0v-4h0c-0.8-0.1-1.7,0-2.5,0.1c-0.2,0.1,0,1.2,0,1.9c0,0.1,0.1,0.2,0,0.3s-0.1,0.3-0.2,0.5v1.2
		c0,0.5-0.4,0.9-0.9,0.9h-2c-0.5,0-0.9-0.4-0.9-0.9c0,0,0,0,0,0v-4c-0.8-0.1-1.6,0-2.3,0.1c-0.2,0,0,1.2-0.1,1.9c0,0.1,0,0.1,0,0.2
		v1.8c0,0.5-0.4,0.9-0.9,0.9h-2c-0.5,0-0.9-0.4-0.9-0.9v-4.1l0,0c-1.1,0-2,0-3,0S23.7,24,23.7,25c0,1.1,0,2.2,0,3.4
		c0,2.1,0.1,2.2,2.2,2.2h46.3c0.4,0,0.8,0.1,1.1,0c0.4-0.3,1.1-0.7,1.1-1.1C74.5,27.8,74.5,26.2,74.3,24.5z"/>
	<path class="st0" d="M67.3,20.1h0.8c0.2,0,0.4,0.2,0.4,0.4V27c0,0.2-0.2,0.4-0.4,0.4h-0.8c-0.2,0-0.4-0.2-0.4-0.4v-6.5
		C66.9,20.3,67.1,20.1,67.3,20.1z"/>
	<path class="st0" d="M50.9,31.6c8.6,0,13.6,0,21.5,0c1.7,0,1.9,0.2,1.9,2.3c0,11.5,0,23,0,34.5c0,2-0.2,2.2-1.8,2.2
		c-15.8,0-30.2,0-47.3,0c-1.8,0-2-0.3-2-2.2c0-11.5,0-23.1,0-34.6c0-2,0.2-2.1,2-2.1C33.8,31.6,42.4,31.6,50.9,31.6z M37.4,68.2
		c0-1.5,0-2.8,0-4.1c0-1.5-1.1-1.3-1.8-1.2c-1.2,0.3-3.1-1.1-3.5,1.1c-0.6,4.1-0.2,4.5,3.9,4.3C36.3,68.3,36.7,68.2,37.4,68.2z
		 M30.3,65.7c0-2.8,0-2.8-2.5-2.8c-2.8,0-2.8,0-2.8,2.6c0,3.1-0.5,3,2.7,3S30.2,68.4,30.3,65.7z M53.2,65.5c0,3-0.5,2.8,2.7,2.8
		c2.6,0,2.6,0,2.6-2.7s0-2.8-2.6-2.8S53.2,62.8,53.2,65.5z M51.4,68.3c0-1.6,0.1-3,0-4.4c-0.1-0.5-0.5-0.8-0.9-1
		c-1.1-0.1-2.3-0.1-3.4,0c-1.2,0-1,1.1-0.9,1.8c0.2,1.2-1,3,0.8,3.6C48.2,68.6,49.8,68.3,51.4,68.3z M41.6,68.3
		c3.1,0,2.7,0.1,2.7-2.6c0-2.9,0-2.9-2.4-2.9c-2.8,0-2.8,0-2.8,2.7C39.1,68.6,38.8,68.3,41.6,68.3L41.6,68.3z M39.1,43.7
		c0,3.3-0.2,2.8,2.9,2.9c2.3,0,2.3,0,2.3-2.8c0-3.1,0.3-2.5-3.5-2.7C38.4,40.9,39.3,42.6,39.1,43.7z M62.8,55.6
		c-2.7,0-2.7,0-2.7,2.6c0,2.9,0,2.9,2.4,2.9c2.9,0,2.9,0,2.9-2.6C65.4,55.3,65.7,55.7,62.8,55.6z M51.4,58.5c0-2.9,0-2.9-2.3-2.9
		c-3.1,0-3-0.4-3,2.5c0,3.1-0.4,3,2.7,3C51.4,61.1,51.4,61.1,51.4,58.5z M34.7,55.6c-2.7,0-2.7,0-2.7,2.6c0,2.9,0,2.9,2.7,2.9
		s2.7,0,2.7-2.6C37.3,55.3,37.7,55.6,34.7,55.6z M30.3,58.2c0-2.6,0-2.7-2.4-2.6c-3.2,0-2.9-0.4-2.9,2.7c0,2.8,0,2.8,2.6,2.7
		C30.6,61.1,30.2,61.2,30.3,58.2z M69.8,53.8c3,0,2.6,0.3,2.7-3c0-2.4,0-2.4-2.6-2.4s-2.7,0-2.7,2.6C67.2,54,66.9,53.7,69.8,53.8z
		 M62.7,53.8c2.7,0,2.7,0,2.7-2.6c0-2.9,0.4-2.8-2.7-2.8c-2.6,0-2.6,0-2.6,2.7S60.1,53.8,62.7,53.8z M48.7,53.8c2.7,0,2.7,0,2.7-2.6
		c0-2.8,0-2.8-2.7-2.9s-2.7,0-2.7,2.5C46.1,54.1,45.8,53.7,48.7,53.8z M34.7,53.8c3,0,2.7,0.3,2.7-2.6s0-2.8-2.5-2.9
		c-2.8,0-2.8,0-2.8,2.5C32,54,31.8,53.7,34.7,53.8L34.7,53.8z M30.3,51.2c0-2.9,0-2.9-2.5-2.9c-2.8,0-2.8,0-2.8,2.7
		c0,3.1-0.2,2.7,2.7,2.8C30.3,53.8,30.3,53.8,30.3,51.2z M72.5,43.9c0-2.8,0-2.8-2.4-2.8c-3.2,0-2.9-0.3-2.9,2.6s-0.4,2.9,2.6,2.9
		C72.5,46.6,72.5,46.5,72.5,43.9z M62.8,41.1c-2.7,0-2.7,0-2.7,2.5c0,3.2-0.4,3,2.6,3c2.7,0,2.7,0,2.7-2.8S65.4,41.1,62.8,41.1z
		 M51.4,43.8c0-3,0.3-2.7-2.8-2.7c-2.8,0-2.5-0.2-2.5,3c0,2.5,0,2.5,2.7,2.4C51.4,46.5,51.4,46.5,51.4,43.8z M37.4,43.8
		c0-2.7,0-2.7-2.4-2.7c-3.2,0-2.9-0.3-2.9,2.5s0,2.9,2.6,2.9C37.7,46.5,37.3,46.7,37.4,43.8L37.4,43.8z M27.8,41.1
		c-2.8,0-2.8,0-2.8,2.6c0,2.9,0,2.9,2.5,2.9c2.8,0,2.9,0,2.8-2.5C30.2,40.8,30.6,41.1,27.8,41.1L27.8,41.1z M58.4,43.6
		c0-2.6,0-2.6-2.2-2.5c-3.3,0-3-0.4-3,2.8c0,2.7,0,2.7,2.6,2.7S58.4,46.5,58.4,43.6L58.4,43.6z M69.9,39.3c2.8,0,2.6,0.4,2.6-2.7
		c0-2.8,0-2.9-2.7-2.8c-3,0-2.6-0.2-2.6,2.9S66.9,39.2,69.9,39.3L69.9,39.3z M62.9,39.3c2.8,0,2.6,0.4,2.6-2.7s0.2-2.8-2.9-2.8
		c-2.4,0-2.5,0-2.4,2.9S59.9,39.2,62.9,39.3L62.9,39.3z M58.1,39.3c1.1-4.7,0.3-5.8-3.7-5.5c-0.1,0-0.1,0-0.2,0
		c-0.4,0.4-1.1,0.9-1,1.3c0.2,1.4-0.8,3,0.6,4.2c0,0,0.1,0,0.2,0L58.1,39.3z M48.8,39.3c2.9,0,2.7,0.4,2.7-2.6s0.3-2.8-2.8-2.9
		c-2.5,0-2.5,0-2.5,2.8C46.1,39.6,45.9,39.2,48.8,39.3L48.8,39.3z M69.9,55.6c-3,0-2.7-0.3-2.7,2.4c0,3.2-0.4,3,2.4,3.1
		s2.8,0,2.8-2.7S72.5,55.6,69.9,55.6z M39.2,53.8c1.5,0,2.8,0,4.1,0c0.3,0,0.9-0.4,0.9-0.7c0.1-1.3,0.1-2.7,0-4
		c0-0.3-0.6-0.6-0.9-0.7c-3.8-0.7-4.3-0.2-4.2,3.7C39.1,52.6,39.2,53,39.2,53.8z M55.8,53.8c2.7,0,2.6,0.4,2.6-2.7
		c0-2.7,0-2.7-2.5-2.7c-2.8,0-2.8,0-2.8,2.8C53.2,54,52.9,53.7,55.8,53.8L55.8,53.8z M39.4,55.6c-1.1,4.7-0.3,5.8,3.7,5.4
		c0.1,0,0.3,0,0.3,0c0.3-0.6,0.9-1.2,0.8-1.8c-0.2-1.2,0.8-2.7-0.7-3.6c-0.1,0-0.1,0-0.2,0L39.4,55.6z M53.2,58.2
		c0,2.9,0,2.9,2.5,2.9c2.7,0,2.7,0,2.7-2.6c0-2.8,0-2.9-2.3-2.8C52.9,55.6,53.2,55.2,53.2,58.2z"/>
</g>
</svg>
