<svg xmlns="http://www.w3.org/2000/svg" viewBox="0 0 1100 188"><defs xmlns="http://www.w3.org/2000/svg"><style type="text/css"><![CDATA[@font-face {font-family: 'GloberBook';src: url('/assets/fonts/webfonts/316613_0_0.eot');src: url('/assets/fonts/webfonts/316613_0_0.eot?#iefix') format('embedded-opentype'),url('/assets/fonts/webfonts/316613_0_0.woff2') format('woff2'),url('/assets/fonts/webfonts/316613_0_0.woff') format('woff'),url('/assets/fonts/webfonts/316613_0_0.ttf') format('truetype');}@font-face {font-family: 'Glober';font-weight: bold;font-style: normal;src: url('/assets/fonts/webfonts/316613_1_0.eot');src: url('/assets/fonts/webfonts/316613_1_0.eot?#iefix') format('embedded-opentype'),url('/assets/fonts/webfonts/316613_1_0.woff2') format('woff2'),url('/assets/fonts/webfonts/316613_1_0.woff') format('woff'),url('/assets/fonts/webfonts/316613_1_0.ttf') format('truetype');}@font-face {font-family: 'Glober';font-weight: bold;font-style: italic;src: url('/assets/fonts/webfonts/316613_2_0.eot');src: url('/assets/fonts/webfonts/316613_2_0.eot?#iefix') format('embedded-opentype'),url('/assets/fonts/webfonts/316613_2_0.woff2') format('woff2'),url('/assets/fonts/webfonts/316613_2_0.woff') format('woff'),url('/assets/fonts/webfonts/316613_2_0.ttf') format('truetype');}@font-face {font-family: 'GloberBookItalic';src: url('/assets/fonts/webfonts/316613_3_0.eot');src: url('/assets/fonts/webfonts/316613_3_0.eot?#iefix') format('embedded-opentype'),url('/assets/fonts/webfonts/316613_3_0.woff2') format('woff2'),url('/assets/fonts/webfonts/316613_3_0.woff') format('woff'),url('/assets/fonts/webfonts/316613_3_0.ttf') format('truetype');}@font-face {font-family: 'Glober';font-weight: normal;font-style: normal;src: url('/assets/fonts/webfonts/316613_4_0.eot');src: url('/assets/fonts/webfonts/316613_4_0.eot?#iefix') format('embedded-opentype'),url('/assets/fonts/webfonts/316613_4_0.woff2') format('woff2'),url('/assets/fonts/webfonts/316613_4_0.woff') format('woff'),url('/assets/fonts/webfonts/316613_4_0.ttf') format('truetype');}@font-face {font-family: 'Glober';font-weight: normal;font-style: italic;src: url('/assets/fonts/webfonts/316613_5_0.eot');src: url('/assets/fonts/webfonts/316613_5_0.eot?#iefix') format('embedded-opentype'),url('/assets/fonts/webfonts/316613_5_0.woff2') format('woff2'),url('/assets/fonts/webfonts/316613_5_0.woff') format('woff'),url('/assets/fonts/webfonts/316613_5_0.ttf') format('truetype');}]]></style></defs><title>bone-study-2</title><text transform="translate(98.06 129.48)" font-size="78.16" fill="#fff" font-family=" Glober" font-weight="700">12</text><path d="M352.74,115.39v2.74c0,6.9,0,13.81,0,20.71a3.12,3.12,0,0,0,3.15,3.42,3.25,3.25,0,0,0,3.74-3.09,19,19,0,0,0,.11-2.5c0-6.3,0-12.59,0-18.89,0-.79.1-1.59.17-2.61h4.86c-.14-.85-.2-1.44-.34-2q-1.86-7.37-3.75-14.72c-1-3.81-2-7.61-2.93-11.44-.1-.43.3-1,.46-1.47a7.23,7.23,0,0,1,1,1,3.88,3.88,0,0,1,.33,1.08c1.61,6,3.21,12,4.85,18,.72,2.63,2.08,3.72,3.82,3.18s2.2-1.92,1.48-4.54c-2.15-7.8-4.33-15.59-6.48-23.4a3.89,3.89,0,0,0-4.3-3.18c-5.08.07-10.17,0-15.25,0-2.82,0-3.66.75-4.44,3.57q-1.85,6.66-3.7,13.32c-.93,3.36-1.84,6.72-2.81,10.07-.53,1.84-.35,3.35,1.64,4.1,1.56.59,2.87-.38,3.55-2.5.13-.43.25-.87.37-1.3,1.63-5.91,3.24-11.83,4.92-17.73a6.26,6.26,0,0,1,1.18-1.66,5.45,5.45,0,0,1,.24,1.92c-2,8-4.07,16-6.11,24-.3,1.19-.53,2.4-.85,3.9h5.14V118c0,6.22,0,12.44,0,18.66,0,4.13,1,5.65,3.61,5.62s3.46-1.51,3.46-5.73c0-6.22,0-12.44,0-18.66,0-.8.07-1.61.11-2.5ZM344,68.27a7.15,7.15,0,0,0,7.37,7.26,7.24,7.24,0,0,0,7.21-7.48,7.16,7.16,0,0,0-7.31-7.11A7,7,0,0,0,344,68.27Z" fill="#fff"/><path d="M353.65,115.39h-2.74c0,.89-.11,1.7-.11,2.5,0,6.22,0,12.44,0,18.66,0,4.22-.9,5.7-3.46,5.73s-3.6-1.49-3.61-5.62c0-6.22,0-12.44,0-18.66v-2.67h-5.14c.32-1.5.55-2.71.85-3.9,2-8,4.11-16,6.11-24a5.45,5.45,0,0,0-.24-1.92,6.49,6.49,0,0,0-1.18,1.66c-1.68,5.9-3.29,11.82-4.91,17.73-.12.43-.25.87-.38,1.3-.68,2.12-2,3.09-3.55,2.5-2-.75-2.17-2.26-1.64-4.1,1-3.35,1.88-6.71,2.81-10.07q1.85-6.66,3.7-13.32c.78-2.82,1.62-3.55,4.44-3.57,5.09,0,10.17,0,15.25,0a3.91,3.91,0,0,1,4.31,3.18c2.14,7.81,4.32,15.6,6.47,23.4.72,2.62.25,4-1.48,4.54s-3.1-.55-3.82-3.18c-1.64-6-3.24-12-4.85-18a3.88,3.88,0,0,0-.33-1.08,7.23,7.23,0,0,0-1-1c-.16.49-.56,1-.46,1.47.93,3.83,1.95,7.63,2.93,11.44q1.89,7.36,3.75,14.72c.14.58.2,1.17.34,2h-4.86c-.07,1-.17,1.82-.17,2.61,0,6.3,0,12.59,0,18.89a19,19,0,0,1-.11,2.5,3.25,3.25,0,0,1-3.74,3.09,3.12,3.12,0,0,1-3.15-3.42c-.05-6.9,0-13.81,0-20.71Z" fill="#fff"/><path d="M344,68.27a7,7,0,0,1,7.27-7.33,7.16,7.16,0,0,1,7.31,7.11,7.24,7.24,0,0,1-7.21,7.48A7.15,7.15,0,0,1,344,68.27Z" fill="#fff"/><text transform="translate(180.16 97.11)" font-size="27.22" fill="#fff" font-family=" Glober" font-weight="700"><tspan letter-spacing="-0.01em">M</tspan><tspan x="22.45" y="0">onth</tspan><tspan letter-spacing="-0.01em"><tspan x="0" y="32.67">S</tspan><tspan x="15.21" y="32.67" letter-spacing="0em">tud</tspan><tspan x="55.83" y="32.67" letter-spacing="-0.02em">y</tspan></tspan></text><rect x="28.55" y="68.98" width="1.92" height="8.55" rx="0.3" ry="0.3" fill="#fff"/><rect x="35.93" y="68.98" width="1.92" height="8.55" rx="0.3" ry="0.3" fill="#fff"/><rect x="43.62" y="68.98" width="1.92" height="8.55" rx="0.3" ry="0.3" fill="#fff"/><rect x="51" y="68.98" width="1.92" height="8.55" rx="0.3" ry="0.3" fill="#fff"/><rect x="58.38" y="68.98" width="1.92" height="8.55" rx="0.3" ry="0.3" fill="#fff"/><rect x="66.07" y="68.98" width="1.92" height="8.55" rx="0.3" ry="0.3" fill="#fff"/><path d="M81.82,74.18A1.75,1.75,0,0,0,80.62,73,39.67,39.67,0,0,0,76.33,73s0,0,0,0v1.8a3.43,3.43,0,0,1,0,.84c0,.08,0,.17,0,.25v1.9a1.06,1.06,0,0,1-1.06,1.06H72.9a1.06,1.06,0,0,1-1.05-1.06V73.08a11.61,11.61,0,0,0-2.57.15v4.56a1.06,1.06,0,0,1-1,1.06H65.85a1.06,1.06,0,0,1-1.06-1.06V73.16a.35.35,0,0,0-.12-.08,8.17,8.17,0,0,0-3,.15c-.06,0-.09.11-.12.23v4.33a1.06,1.06,0,0,1-1,1.06H58.15a1.07,1.07,0,0,1-1.06-1.06V73a8,8,0,0,0-1.7-.06,3.06,3.06,0,0,0-1.18.19v4.64a1.07,1.07,0,0,1-1.06,1.06H50.77a1.06,1.06,0,0,1-1.05-1.06V73.2a10.37,10.37,0,0,0-2.89,0v4.61a1.06,1.06,0,0,1-1,1.06H43.4a1.06,1.06,0,0,1-1.06-1.06V73.1s0,0-.05,0a8.91,8.91,0,0,0-3,.18c-.21.06,0,1.44,0,2.22,0,.11.09.23.06.32s-.14.38-.2.58v1.42a1.06,1.06,0,0,1-1.05,1.06H35.7a1.06,1.06,0,0,1-1.06-1.06v-4.7a8.77,8.77,0,0,0-2.71.15c-.2.06,0,1.47-.13,2.22a1.85,1.85,0,0,0,0,.23v2.1a1.07,1.07,0,0,1-1.06,1.06H28.32a1.06,1.06,0,0,1-1.05-1.06V73c-1.24,0-2.36,0-3.46,0s-1.53.56-1.53,1.62c0,1.31,0,2.63,0,3.94,0,2.47.09,2.55,2.55,2.55H79.27c.43,0,.94.14,1.26,0,.52-.3,1.26-.79,1.29-1.26A37.12,37.12,0,0,0,81.82,74.18Z" fill="#fff"/><rect x="73.13" y="68.98" width="1.92" height="8.55" rx="0.3" ry="0.3" fill="#fff"/><path d="M54.42,82.42H79.58c2,0,2.22.24,2.22,2.68q0,20.15,0,40.31c0,2.39-.19,2.63-2.09,2.63H24.34c-2.06,0-2.33-.29-2.33-2.6Q22,105.2,22,85c0-2.29.24-2.52,2.36-2.52ZM38.55,125.25c0-1.73,0-3.29,0-4.85,0-1.73-1.24-1.54-2.12-1.35-1.38.3-3.64-1.31-4,1.3-.75,4.85-.23,5.3,4.54,5.09C37.37,125.42,37.8,125.34,38.55,125.25Zm-8.29-3c0-3.3,0-3.3-2.94-3.3-3.26,0-3.29,0-3.25,3,0,3.66-.54,3.45,3.14,3.46S30.19,125.54,30.26,122.3ZM57,122.14c.07,3.47-.52,3.3,3.11,3.31,3,0,3,0,3-3.2s0-3.26-3-3.26S57,119,57,122.14Zm-2.09,3.27c0-1.92.08-3.55,0-5.16a1.67,1.67,0,0,0-1.09-1.17,24.91,24.91,0,0,0-4,0c-1.39.06-1.2,1.25-1,2,.27,1.44-1.12,3.56.94,4.22C51.27,125.8,53.07,125.41,54.94,125.41Zm-11.46,0c3.65,0,3.17.13,3.2-3,0-3.44,0-3.44-2.81-3.45-3.28,0-3.3,0-3.28,3.15C40.62,125.79,40.25,125.4,43.48,125.46Zm-2.9-28.87c.05,3.84-.25,3.32,3.38,3.36,2.73,0,2.75,0,2.72-3.32,0-3.65.34-2.87-4.06-3.12C39.76,93.34,40.79,95.34,40.58,96.59Zm27.78,14c-3.2,0-3.2,0-3.21,3,0,3.4,0,3.4,2.84,3.4,3.39,0,3.41,0,3.39-3C71.37,110.18,71.69,110.6,68.36,110.55ZM55,113.9c0-3.34,0-3.36-2.71-3.34-3.68,0-3.5-.46-3.49,2.91,0,3.68-.42,3.46,3.17,3.47C55,117,55,117,55,113.9Zm-19.49-3.35c-3.15,0-3.15,0-3.15,3.06,0,3.34,0,3.34,3.09,3.34s3.15,0,3.14-3.08C38.53,110.22,38.89,110.59,35.47,110.55Zm-5.21,3.09c0-3.09,0-3.11-2.76-3.08-3.73,0-3.42-.45-3.44,3.17,0,3.22,0,3.23,3.07,3.21C30.7,116.93,30.22,117.15,30.26,113.64Zm46.28-5.25c3.5,0,3.07.31,3.1-3.5,0-2.86,0-2.86-3-2.86-3.17,0-3.19,0-3.16,3C73.49,108.72,73.06,108.36,76.54,108.39Zm-8.31,0c3.16,0,3.17,0,3.15-3.08,0-3.42.44-3.27-3.18-3.28-3,0-3,0-3,3.21S65.15,108.39,68.23,108.39Zm-16.46,0c3.18,0,3.18,0,3.19-3C55,102,55,102,51.85,102s-3.11,0-3.1,3C48.77,108.74,48.45,108.36,51.77,108.39Zm-16.42,0c3.45,0,3.18.38,3.2-3s0-3.34-2.93-3.34c-3.3,0-3.32,0-3.3,3C32.34,108.72,32,108.36,35.35,108.39Zm-5.09-3c0-3.36,0-3.36-2.89-3.36-3.31,0-3.32,0-3.31,3.14,0,3.64-.25,3.19,3.2,3.22C30.26,108.41,30.26,108.39,30.26,105.39Zm49.38-8.6c0-3.23,0-3.25-2.82-3.23-3.73,0-3.35-.37-3.35,3S73,99.94,76.54,100C79.64,100,79.64,100,79.64,96.79ZM68.29,93.56c-3.13,0-3.16,0-3.13,2.86,0,3.78-.47,3.51,3.07,3.53,3.16,0,3.16,0,3.16-3.27C71.39,93.56,71.39,93.56,68.29,93.56ZM55,96.68c0-3.47.34-3.11-3.31-3.12-3.33,0-2.87-.22-2.89,3.54,0,2.86,0,2.86,3.2,2.86C55,100,55,100,55,96.68Zm-16.41.06c0-3.18,0-3.2-2.83-3.18-3.73,0-3.38-.37-3.4,3s0,3.42,3,3.41C39,99.94,38.51,100.14,38.55,96.74ZM27.32,93.56c-3.25,0-3.25,0-3.26,3,0,3.4,0,3.4,2.88,3.41,3.32,0,3.34,0,3.32-2.92C30.23,93.25,30.69,93.6,27.32,93.56Zm35.83,3c0-3,0-3-2.59-3-3.9,0-3.5-.47-3.53,3.24C57,100,57,100,60.11,100S63.15,100,63.15,96.55Zm13.39-5.13c3.28,0,3.09.46,3.1-3.1,0-3.33,0-3.34-3.12-3.33-3.47,0-3-.23-3,3.35S73.15,91.38,76.54,91.42Zm-8.2,0c3.22,0,3,.49,3-3.16S71.63,85,68,85c-2.86,0-2.86,0-2.85,3.41S65,91.38,68.34,91.42Zm-5.53,0c1.29-5.54.4-6.8-4.31-6.4-.07,0-.16,0-.19,0-.43.5-1.25,1-1.2,1.49.18,1.62-.91,3.48.7,4.87,0,0,.12,0,.19,0Zm-11,0c3.35,0,3.11.47,3.11-3.07S55.29,85,51.68,85c-2.93,0-2.94,0-2.93,3.33C48.77,91.87,48.53,91.38,51.84,91.42Zm24.81,19.13c-3.45,0-3.19-.34-3.18,2.82,0,3.7-.52,3.56,2.86,3.58s3.31,0,3.31-3.15S79.64,110.55,76.65,110.55Zm-35.88-2.17c1.75,0,3.25.05,4.75,0,.38,0,1-.48,1.06-.77a35,35,0,0,0,0-4.69c0-.3-.66-.72-1.06-.79-4.44-.8-5-.25-4.91,4.32C40.61,107,40.69,107.56,40.77,108.38Zm19.33,0c3.19,0,3,.5,3-3.16,0-3.2,0-3.2-2.87-3.2C57,102,57,102,57,105.24,57.05,108.71,56.73,108.36,60.1,108.39Zm-19.17,2.19c-1.31,5.47-.35,6.81,4.34,6.35.13,0,.33,0,.37,0,.36-.7,1-1.46,1-2.11-.18-1.4,1-3.15-.83-4.19a.4.4,0,0,0-.19,0Zm16.1,3c0,3.36,0,3.36,2.91,3.37,3.21,0,3.21,0,3.21-3.06,0-3.33,0-3.35-2.73-3.33C56.77,110.59,57.06,110.12,57,113.58Z" fill="#fff"/><text transform="matrix(1, 0.01, -0.01, 1, 661.11, 125.6)" font-size="75.23" fill="#fff" font-family=" Glober" font-weight="700">1.3</text><text transform="matrix(0.58, 0.01, -0.01, 0.58, 751.65, 101.46)" font-size="75.23" fill="#fff" font-family=" Glober" font-weight="700">%</text><text transform="translate(807.79 69.39)" font-size="27.78" fill="#fff" font-family=" Glober" font-weight="700"><tspan letter-spacing="0em">I</tspan><tspan x="7.85" y="0">nc</tspan><tspan x="35.46" y="0" letter-spacing="-0.01em">r</tspan><tspan x="46.15" y="0" letter-spacing="0em">ease in bone </tspan><tspan x="0" y="35.26">densit</tspan><tspan x="75.38" y="35.26" letter-spacing="-0.02em">y</tspan><tspan x="89.54" y="35.26" xml:space="preserve"> among pos</tspan><tspan x="227" y="35.26" letter-spacing="-0.02em">t</tspan><tspan x="237.22" y="35.26">- </tspan><tspan x="0" y="70.51">menopausal</tspan><tspan x="146.59" y="70.51" letter-spacing="-0.02em"> </tspan><tspan x="152" y="70.51" letter-spacing="-0.01em">w</tspan><tspan x="173.92" y="70.51">omen</tspan></text><line x1="293.38" y1="187.48" x2="293.38" y2="0.72" fill="none" stroke="#fff" stroke-linecap="round" stroke-linejoin="round" stroke-width="3.32" stroke-dasharray="0.41 6.63"/><line x1="578.14" y1="187.48" x2="578.14" y2="0.72" fill="none" stroke="#fff" stroke-linecap="round" stroke-linejoin="round" stroke-width="3.32" stroke-dasharray="0.41 6.63"/><text transform="translate(394.86 141.45)" font-size="27.78" fill="#fff" font-family=" Glober" font-weight="700"><tspan letter-spacing="-0.01em">P</tspan><tspan x="16.5" y="0">articipants</tspan></text><text transform="translate(406.04 109) rotate(0.01)" font-size="74.9" fill="#fff" font-family=" Glober" font-weight="700"><tspan letter-spacing="-0.01em">4</tspan><tspan x="42.65" y="0">14</tspan></text><path d="M630.13,102.16c.25,5,.55,11.33.9,17.66a10,10,0,0,0,.5,2.93c1.26,3.35,2.71,6.4,2.05,10.41-.61,3.67,2.31,5.89,6.14,6.25,3.2.3,4.65,1.57,5,4.34a6.48,6.48,0,0,1-4,6.34A5.77,5.77,0,0,1,634,148a16.44,16.44,0,0,0-3.64-4c-2.33-1.65-4.05-.93-5.05,1.71-.8,2.07-2.06,2.26-3.51.52-3.77-4.47-3.86-8.11-1.55-13.47a26.77,26.77,0,0,0,1.92-9.77c.48-18.62.9-15.49.94-34.11,0-6.61-1-13.22-1.7-19.81a11.84,11.84,0,0,0-3.78-7.65,8.4,8.4,0,0,1-2.81-6.08,21.19,21.19,0,0,0-.43-2.95c-.3-1.77-1.14-3.68,1.27-4.73,2.58-1.11,6.12-.43,7.35,1.51.75,1.19,1.44,2.78,3,2.05a5.71,5.71,0,0,0,2.68-3c.78-2,2.22-2.63,4.09-2.7s3.14.72,4.16,2.55c2.77,5,1.93,9.51-.46,14.35-3.51,7.11-4.58,14.88-5,22.69C631,97.58,630.62,88.34,630.13,102.16Z" fill="#fff"/></svg>
