<svg xmlns="http://www.w3.org/2000/svg" viewBox="0 0 1100 188"><defs xmlns="http://www.w3.org/2000/svg"><style type="text/css"><![CDATA[@font-face {font-family: 'GloberBook';src: url('/assets/fonts/webfonts/316613_0_0.eot');src: url('/assets/fonts/webfonts/316613_0_0.eot?#iefix') format('embedded-opentype'),url('/assets/fonts/webfonts/316613_0_0.woff2') format('woff2'),url('/assets/fonts/webfonts/316613_0_0.woff') format('woff'),url('/assets/fonts/webfonts/316613_0_0.ttf') format('truetype');}@font-face {font-family: 'Glober';font-weight: bold;font-style: normal;src: url('/assets/fonts/webfonts/316613_1_0.eot');src: url('/assets/fonts/webfonts/316613_1_0.eot?#iefix') format('embedded-opentype'),url('/assets/fonts/webfonts/316613_1_0.woff2') format('woff2'),url('/assets/fonts/webfonts/316613_1_0.woff') format('woff'),url('/assets/fonts/webfonts/316613_1_0.ttf') format('truetype');}@font-face {font-family: 'Glober';font-weight: bold;font-style: italic;src: url('/assets/fonts/webfonts/316613_2_0.eot');src: url('/assets/fonts/webfonts/316613_2_0.eot?#iefix') format('embedded-opentype'),url('/assets/fonts/webfonts/316613_2_0.woff2') format('woff2'),url('/assets/fonts/webfonts/316613_2_0.woff') format('woff'),url('/assets/fonts/webfonts/316613_2_0.ttf') format('truetype');}@font-face {font-family: 'GloberBookItalic';src: url('/assets/fonts/webfonts/316613_3_0.eot');src: url('/assets/fonts/webfonts/316613_3_0.eot?#iefix') format('embedded-opentype'),url('/assets/fonts/webfonts/316613_3_0.woff2') format('woff2'),url('/assets/fonts/webfonts/316613_3_0.woff') format('woff'),url('/assets/fonts/webfonts/316613_3_0.ttf') format('truetype');}@font-face {font-family: 'Glober';font-weight: normal;font-style: normal;src: url('/assets/fonts/webfonts/316613_4_0.eot');src: url('/assets/fonts/webfonts/316613_4_0.eot?#iefix') format('embedded-opentype'),url('/assets/fonts/webfonts/316613_4_0.woff2') format('woff2'),url('/assets/fonts/webfonts/316613_4_0.woff') format('woff'),url('/assets/fonts/webfonts/316613_4_0.ttf') format('truetype');}@font-face {font-family: 'Glober';font-weight: normal;font-style: italic;src: url('/assets/fonts/webfonts/316613_5_0.eot');src: url('/assets/fonts/webfonts/316613_5_0.eot?#iefix') format('embedded-opentype'),url('/assets/fonts/webfonts/316613_5_0.woff2') format('woff2'),url('/assets/fonts/webfonts/316613_5_0.woff') format('woff'),url('/assets/fonts/webfonts/316613_5_0.ttf') format('truetype');}]]></style></defs><title>bone-study-3</title><text transform="translate(137.63 124.02)" font-size="76.57" fill="#fff" font-family=" Glober" font-weight="700">7</text><path d="M353.87,110.21v2.69c0,6.76,0,13.53,0,20.29a3,3,0,0,0,3.09,3.35,3.19,3.19,0,0,0,3.66-3,19.91,19.91,0,0,0,.11-2.45c0-6.16,0-12.33,0-18.5,0-.78.1-1.56.16-2.56h4.77c-.15-.83-.2-1.41-.34-2q-1.83-7.22-3.68-14.43c-1-3.73-2-7.46-2.86-11.2-.11-.42.29-1,.45-1.45a7.61,7.61,0,0,1,1,1,3.9,3.9,0,0,1,.32,1c1.58,5.87,3.15,11.73,4.75,17.59.7,2.58,2,3.65,3.74,3.12s2.16-1.88,1.46-4.44c-2.11-7.65-4.25-15.28-6.35-22.93a3.83,3.83,0,0,0-4.22-3.12c-5,.07-10,0-14.93,0-2.77,0-3.59.74-4.36,3.5-1.2,4.35-2.42,8.7-3.62,13-.92,3.29-1.8,6.59-2.75,9.86-.52,1.8-.35,3.29,1.6,4,1.53.58,2.82-.37,3.48-2.45.13-.42.25-.85.37-1.27,1.59-5.8,3.17-11.59,4.81-17.37A5.85,5.85,0,0,1,345.68,81a5.38,5.38,0,0,1,.24,1.87c-2,7.84-4,15.65-6,23.48-.3,1.17-.52,2.35-.84,3.82h5v2.61c0,6.1,0,12.19,0,18.29,0,4,1,5.53,3.53,5.5s3.39-1.48,3.4-5.61V112.67c0-.79.07-1.58.12-2.46Zm-8.53-46.16a7,7,0,0,0,7.22,7.12,7.1,7.1,0,0,0,7.06-7.33,7,7,0,0,0-7.16-7A6.89,6.89,0,0,0,345.34,64.05Z" fill="#fff"/><path d="M354.76,110.21h-2.68c0,.88-.11,1.67-.11,2.46,0,6.09,0,12.19,0,18.28,0,4.13-.89,5.58-3.4,5.61s-3.52-1.46-3.53-5.5q0-9.15,0-18.29v-2.61h-5c.32-1.47.54-2.65.84-3.82,2-7.83,4-15.64,6-23.48a5.38,5.38,0,0,0-.24-1.87,6.06,6.06,0,0,0-1.16,1.62c-1.64,5.78-3.22,11.57-4.81,17.37-.12.42-.24.85-.37,1.27-.66,2.08-2,3-3.48,2.45-1.94-.73-2.12-2.22-1.6-4,1-3.27,1.83-6.57,2.75-9.86l3.63-13c.76-2.76,1.58-3.48,4.35-3.5,5,0,10,0,14.93,0A3.82,3.82,0,0,1,365,76.36c2.1,7.65,4.24,15.28,6.35,22.93.71,2.56.24,3.91-1.45,4.44s-3-.54-3.75-3.12c-1.6-5.86-3.17-11.72-4.75-17.59a3.9,3.9,0,0,0-.32-1,7.61,7.61,0,0,0-.95-1c-.16.49-.55,1-.45,1.45.9,3.74,1.9,7.47,2.86,11.2q1.86,7.22,3.68,14.43c.14.56.2,1.14.34,2h-4.77c-.06,1-.16,1.78-.16,2.56,0,6.17,0,12.34,0,18.5a18.12,18.12,0,0,1-.11,2.45,3.19,3.19,0,0,1-3.66,3,3.05,3.05,0,0,1-3.09-3.35c-.05-6.76,0-13.53,0-20.29Z" fill="#fff"/><path d="M345.34,64.05a6.89,6.89,0,0,1,7.12-7.18,7,7,0,0,1,7.16,7,7.1,7.1,0,0,1-7.06,7.33A7,7,0,0,1,345.34,64.05Z" fill="#fff"/><text transform="translate(184.79 92.31)" font-size="26.67" fill="#fff" font-family=" Glober" font-weight="700"><tspan letter-spacing="-0.1em">Y</tspan><tspan x="14.49" y="0">ea</tspan><tspan x="42.02" y="0" letter-spacing="-0.02em">r</tspan><tspan x="0" y="32" letter-spacing="-0.01em">S</tspan><tspan x="14.9" y="32">tud</tspan><tspan x="54.69" y="32" letter-spacing="-0.02em">y</tspan></text><text transform="matrix(1, 0.01, -0.01, 1, 662.02, 120.22)" font-size="73.7" fill="#fff" font-family=" Glober" font-weight="700">1<tspan x="31.24" y="0" letter-spacing="-0.02em">.</tspan><tspan x="48.22" y="0">04</tspan></text><text transform="matrix(0.58, 0.01, -0.01, 0.58, 798.94, 97.05)" font-size="73.7" fill="#fff" font-family=" Glober" font-weight="700" letter-spacing="0em">%</text><text transform="translate(855.63 74.22)" font-size="27.22" fill="#fff" font-family=" Glober" font-weight="700"><tspan letter-spacing="-0.04em">A</tspan><tspan x="17.16" y="0" letter-spacing="-0.01em">v</tspan><tspan x="31.09" y="0">e</tspan><tspan x="45.12" y="0" letter-spacing="-0.01em">r</tspan><tspan x="55.76" y="0">a</tspan><tspan x="69.82" y="0" letter-spacing="-0.01em">g</tspan><tspan x="84.19" y="0">e annual</tspan><tspan x="0" y="28.49">inc</tspan><tspan x="34.12" y="28.49" letter-spacing="-0.01em">r</tspan><tspan x="44.59" y="28.49">ease in bone </tspan><tspan x="0" y="56.98">densit</tspan><tspan x="73.85" y="56.98" letter-spacing="-0.02em">y</tspan><tspan x="87.73" y="56.98" xml:space="preserve"> in</tspan><tspan x="115.53" y="56.98" letter-spacing="-0.02em"> </tspan><tspan x="120.83" y="56.98" letter-spacing="-0.01em">w</tspan><tspan x="142.31" y="56.98">omen</tspan></text><line x1="289.66" y1="184.79" x2="289.66" fill="none" stroke="#fff" stroke-linecap="round" stroke-linejoin="round" stroke-width="3.12" stroke-dasharray="0.39 6.24"/><line x1="574.69" y1="184.79" x2="574.69" fill="none" stroke="#fff" stroke-linecap="round" stroke-linejoin="round" stroke-width="3.12" stroke-dasharray="0.39 6.24"/><text transform="translate(392.11 135.75)" font-size="27.22" fill="#fff" font-family=" Glober" font-weight="700" letter-spacing="-0.01em">P<tspan x="16.16" y="0" letter-spacing="0em">articipants</tspan></text><text transform="translate(406.09 103.96) rotate(0.01)" font-size="73.38" fill="#fff" font-family=" Glober" font-weight="700">172</text><path d="M625.62,97.25c.25,4.91.55,11.11.88,17.31a9.81,9.81,0,0,0,.5,2.86c1.23,3.29,2.65,6.28,2,10.2-.59,3.6,2.27,5.77,6,6.13,3.14.3,4.56,1.53,4.87,4.25a6.35,6.35,0,0,1-3.93,6.21,5.64,5.64,0,0,1-6.58-2.09,16.58,16.58,0,0,0-3.57-3.93c-2.29-1.61-4-.9-4.95,1.68-.78,2-2,2.21-3.44.52-3.69-4.39-3.78-8-1.51-13.21a26.31,26.31,0,0,0,1.88-9.57c.47-18.24.87-15.17.92-33.42,0-6.47-1-12.94-1.67-19.4a11.52,11.52,0,0,0-3.71-7.5,8.22,8.22,0,0,1-2.74-6,23.8,23.8,0,0,0-.42-2.88c-.3-1.74-1.13-3.61,1.24-4.63,2.53-1.09,6-.43,7.2,1.47.73,1.17,1.41,2.73,3,2a5.61,5.61,0,0,0,2.63-2.92c.75-2,2.17-2.57,4-2.65a4.1,4.1,0,0,1,4.07,2.5c2.72,4.87,1.9,9.33-.44,14.07-3.44,7-4.49,14.57-4.85,22.22C626.43,92.77,626.1,83.71,625.62,97.25Z" fill="#fff"/><rect x="44.07" y="56.18" width="2.4" height="10.67" rx="0.39" ry="0.39" fill="#fff"/><rect x="53.28" y="56.18" width="2.4" height="10.67" rx="0.39" ry="0.39" fill="#fff"/><rect x="62.89" y="56.18" width="2.4" height="10.67" rx="0.39" ry="0.39" fill="#fff"/><rect x="72.1" y="56.18" width="2.4" height="10.67" rx="0.39" ry="0.39" fill="#fff"/><rect x="81.31" y="56.18" width="2.4" height="10.67" rx="0.39" ry="0.39" fill="#fff"/><rect x="90.92" y="56.18" width="2.4" height="10.67" rx="0.39" ry="0.39" fill="#fff"/><path d="M110.58,62.67a2.17,2.17,0,0,0-1.5-1.44,51.44,51.44,0,0,0-5.35-.07s0,0,0,0v2.25a4.16,4.16,0,0,1,.05,1c0,.1,0,.21-.05.31v2.37a1.32,1.32,0,0,1-1.32,1.32h-3a1.32,1.32,0,0,1-1.32-1.32V61.3a14.24,14.24,0,0,0-3.2.18v5.69a1.32,1.32,0,0,1-1.32,1.32h-3a1.32,1.32,0,0,1-1.32-1.32V61.4s-.11-.1-.15-.1a10,10,0,0,0-3.71.18c-.07,0-.12.13-.14.29v5.4A1.32,1.32,0,0,1,84,68.49H81a1.32,1.32,0,0,1-1.32-1.32v-6a9.81,9.81,0,0,0-2.13-.07,3.84,3.84,0,0,0-1.47.23v5.79a1.32,1.32,0,0,1-1.32,1.32h-3a1.32,1.32,0,0,1-1.32-1.32V61.45a13.16,13.16,0,0,0-3.6,0v5.75a1.32,1.32,0,0,1-1.32,1.32h-3a1.32,1.32,0,0,1-1.32-1.32V61.32l-.06,0a11.2,11.2,0,0,0-3.71.21c-.26.08-.06,1.81-.06,2.78,0,.13.11.29.07.39s-.17.48-.24.73v1.77A1.32,1.32,0,0,1,56,68.49H53a1.32,1.32,0,0,1-1.32-1.32V61.31a10.6,10.6,0,0,0-3.38.19c-.25.06,0,1.83-.17,2.76,0,.1,0,.2-.05.3v2.61a1.32,1.32,0,0,1-1.32,1.32h-3a1.32,1.32,0,0,1-1.32-1.32v-6s0,0,0,0c-1.55,0-2.94,0-4.33,0s-1.91.7-1.9,2c0,1.64,0,3.29,0,4.93,0,3.07.12,3.18,3.18,3.18h68c.53,0,1.17.18,1.57-.06.65-.37,1.57-1,1.62-1.58A46.2,46.2,0,0,0,110.58,62.67Z" fill="#fff"/><rect x="99.73" y="56.18" width="2.4" height="10.67" rx="0.39" ry="0.39" fill="#fff"/><path d="M76.37,73h31.42c2.49,0,2.77.3,2.77,3.35q0,25.17,0,50.32c0,3-.24,3.29-2.61,3.29-23.12,0-44.05,0-69.13,0-2.57,0-2.91-.37-2.91-3.24q0-25.29,0-50.57c0-2.86.31-3.15,3-3.15ZM56.55,126.43c0-2.16,0-4.11,0-6.06,0-2.16-1.54-1.92-2.64-1.68-1.74.37-4.55-1.64-5.05,1.62-.93,6.06-.29,6.61,5.67,6.36C55.08,126.64,55.62,126.54,56.55,126.43Zm-10.34-3.69c0-4.12,0-4.12-3.67-4.12-4.07,0-4.1,0-4.06,3.73,0,4.57-.67,4.31,3.92,4.33S46.13,126.79,46.21,122.74Zm33.42-.19c.09,4.33-.65,4.11,3.88,4.13,3.77,0,3.77,0,3.77-4s0-4.07-3.76-4.06S79.63,118.62,79.63,122.55ZM77,126.62c0-2.4.1-4.43-.06-6.43a2.1,2.1,0,0,0-1.36-1.47,31.33,31.33,0,0,0-4.94,0c-1.73.08-1.5,1.57-1.31,2.56.34,1.8-1.39,4.45,1.18,5.27C72.45,127.11,74.69,126.62,77,126.62Zm-14.3.06c4.55,0,4,.18,4-3.77,0-4.29,0-4.29-3.51-4.29-4.1,0-4.12,0-4.09,3.92C59.14,127.1,58.68,126.61,62.72,126.68Zm-3.62-36c.06,4.79-.32,4.15,4.21,4.2,3.41,0,3.44,0,3.4-4.15,0-4.55.43-3.57-5.07-3.89C58.08,86.59,59.35,89.09,59.1,90.64Zm34.68,17.44c-4,0-4,0-4,3.73,0,4.25,0,4.25,3.54,4.25,4.24,0,4.26,0,4.24-3.78C97.53,107.61,97.93,108.13,93.78,108.08ZM77,112.26c0-4.18,0-4.2-3.37-4.18-4.6,0-4.38-.57-4.37,3.64,0,4.6-.52,4.32,4,4.34C77,116.07,77,116.06,77,112.26Zm-24.32-4.18c-3.94,0-3.94,0-3.94,3.81,0,4.17,0,4.17,3.86,4.17s3.93,0,3.91-3.84C56.53,107.66,57,108.12,52.72,108.08Zm-6.51,3.85c0-3.85,0-3.88-3.44-3.85-4.66,0-4.27-.55-4.3,4,0,4,0,4,3.83,4C46.76,116,46.16,116.31,46.21,111.93ZM104,105.38c4.38,0,3.84.39,3.88-4.37,0-3.57,0-3.57-3.76-3.57-4,0-4,0-3.95,3.81C100.18,105.79,99.65,105.34,104,105.38Zm-10.36,0c3.93,0,4,0,3.93-3.84,0-4.28.54-4.09-4-4.1-3.81,0-3.81,0-3.81,4S89.78,105.38,93.62,105.38Zm-20.56,0c4,0,4,0,4-3.78,0-4.16,0-4.16-3.88-4.17s-3.88,0-3.86,3.71C69.32,105.81,68.91,105.34,73.06,105.38Zm-20.5,0c4.31,0,4,.47,4-3.78s0-4.16-3.65-4.17c-4.12,0-4.14,0-4.12,3.71C48.81,105.79,48.36,105.34,52.56,105.38Zm-6.35-3.75c0-4.19,0-4.19-3.61-4.2-4.13,0-4.15,0-4.13,3.93,0,4.54-.31,4,4,4C46.21,105.4,46.21,105.38,46.21,101.63Zm61.65-10.74c0-4,0-4-3.53-4-4.65,0-4.18-.46-4.17,3.8s-.65,4.17,3.83,4.18C107.86,94.86,107.86,94.85,107.86,90.89Zm-14.17-4c-3.91,0-3.94,0-3.91,3.57,0,4.72-.58,4.39,3.84,4.41,3.94,0,3.94,0,3.94-4.09C97.56,86.86,97.56,86.86,93.69,86.86ZM77,90.75c-.05-4.33.43-3.87-4.12-3.88-4.16,0-3.58-.28-3.62,4.42,0,3.56,0,3.56,4,3.56C77.05,94.84,77.05,94.84,77,90.75Zm-20.48.09c0-4,0-4-3.53-4-4.65,0-4.22-.46-4.25,3.72s0,4.27,3.78,4.26C57.09,94.83,56.51,95.08,56.56,90.84Zm-14-4c-4.06,0-4.06,0-4.07,3.73,0,4.25,0,4.25,3.59,4.26,4.15,0,4.18,0,4.15-3.65C46.17,86.47,46.75,86.91,42.54,86.86ZM87.28,90.6c0-3.74,0-3.76-3.24-3.74-4.86,0-4.37-.58-4.4,4,0,3.94,0,3.94,3.84,3.95S87.28,94.85,87.28,90.6ZM104,84.19c4.08,0,3.85.58,3.86-3.87,0-4.16,0-4.17-3.89-4.15-4.33,0-3.81-.3-3.81,4.18S99.76,84.14,104,84.19Zm-10.25,0c4-.06,3.8.61,3.8-4s.31-4-4.21-4.07c-3.57,0-3.58,0-3.56,4.25S89.53,84.14,93.75,84.19Zm-6.9,0c1.6-6.91.49-8.48-5.39-8-.08,0-.19,0-.23,0-.54.62-1.56,1.3-1.5,1.85.23,2-1.14,4.36.88,6.09,0,.05.15,0,.23,0Zm-13.7,0c4.18-.06,3.89.59,3.88-3.83s.43-4.17-4.08-4.19c-3.66,0-3.67,0-3.65,4.15C69.32,84.75,69,84.14,73.15,84.19Zm31,23.89c-4.31,0-4-.43-4,3.52,0,4.61-.66,4.44,3.56,4.46s4.14,0,4.14-3.92S107.86,108.08,104.13,108.08Zm-44.8-2.71c2.18,0,4.06.06,5.94-.05.47,0,1.29-.6,1.31-1a42.3,42.3,0,0,0,0-5.85c0-.37-.82-.9-1.32-1-5.54-1-6.31-.31-6.14,5.4C59.14,103.62,59.24,104.34,59.33,105.37Zm24.13,0c4-.07,3.79.62,3.81-3.95,0-4,0-4-3.59-4-4.05,0-4.06,0-4,4C79.66,105.78,79.25,105.34,83.46,105.38Zm-23.92,2.73c-1.64,6.83-.45,8.51,5.41,7.93.16,0,.42,0,.46,0,.45-.87,1.32-1.82,1.21-2.63-.22-1.75,1.24-3.94-1-5.24a.57.57,0,0,0-.23,0Zm20.09,3.75c0,4.2,0,4.2,3.64,4.2,4,0,4,0,4-3.82,0-4.16,0-4.18-3.41-4.16C79.31,108.12,79.67,107.54,79.63,111.86Z" fill="#fff"/></svg>
