<svg xmlns="http://www.w3.org/2000/svg" viewBox="0 0 375 157"><defs xmlns="http://www.w3.org/2000/svg"><style type="text/css"><![CDATA[@font-face {font-family: 'GloberBook';src: url('/assets/fonts/webfonts/316613_0_0.eot');src: url('/assets/fonts/webfonts/316613_0_0.eot?#iefix') format('embedded-opentype'),url('/assets/fonts/webfonts/316613_0_0.woff2') format('woff2'),url('/assets/fonts/webfonts/316613_0_0.woff') format('woff'),url('/assets/fonts/webfonts/316613_0_0.ttf') format('truetype');}@font-face {font-family: 'Glober';font-weight: bold;font-style: normal;src: url('/assets/fonts/webfonts/316613_1_0.eot');src: url('/assets/fonts/webfonts/316613_1_0.eot?#iefix') format('embedded-opentype'),url('/assets/fonts/webfonts/316613_1_0.woff2') format('woff2'),url('/assets/fonts/webfonts/316613_1_0.woff') format('woff'),url('/assets/fonts/webfonts/316613_1_0.ttf') format('truetype');}@font-face {font-family: 'Glober';font-weight: bold;font-style: italic;src: url('/assets/fonts/webfonts/316613_2_0.eot');src: url('/assets/fonts/webfonts/316613_2_0.eot?#iefix') format('embedded-opentype'),url('/assets/fonts/webfonts/316613_2_0.woff2') format('woff2'),url('/assets/fonts/webfonts/316613_2_0.woff') format('woff'),url('/assets/fonts/webfonts/316613_2_0.ttf') format('truetype');}@font-face {font-family: 'GloberBookItalic';src: url('/assets/fonts/webfonts/316613_3_0.eot');src: url('/assets/fonts/webfonts/316613_3_0.eot?#iefix') format('embedded-opentype'),url('/assets/fonts/webfonts/316613_3_0.woff2') format('woff2'),url('/assets/fonts/webfonts/316613_3_0.woff') format('woff'),url('/assets/fonts/webfonts/316613_3_0.ttf') format('truetype');}@font-face {font-family: 'Glober';font-weight: normal;font-style: normal;src: url('/assets/fonts/webfonts/316613_4_0.eot');src: url('/assets/fonts/webfonts/316613_4_0.eot?#iefix') format('embedded-opentype'),url('/assets/fonts/webfonts/316613_4_0.woff2') format('woff2'),url('/assets/fonts/webfonts/316613_4_0.woff') format('woff'),url('/assets/fonts/webfonts/316613_4_0.ttf') format('truetype');}@font-face {font-family: 'Glober';font-weight: normal;font-style: italic;src: url('/assets/fonts/webfonts/316613_5_0.eot');src: url('/assets/fonts/webfonts/316613_5_0.eot?#iefix') format('embedded-opentype'),url('/assets/fonts/webfonts/316613_5_0.woff2') format('woff2'),url('/assets/fonts/webfonts/316613_5_0.woff') format('woff'),url('/assets/fonts/webfonts/316613_5_0.ttf') format('truetype');}]]></style></defs><title>bone-study-4-mobile</title><line x1="134.98" y1="157" x2="134.98" fill="none" stroke="#fff" stroke-linecap="round" stroke-linejoin="round" stroke-width="3.84" stroke-dasharray="0.48 7.67"/><line x1="235.19" y1="157" x2="235.19" fill="none" stroke="#fff" stroke-linecap="round" stroke-linejoin="round" stroke-width="3.84" stroke-dasharray="0.48 7.67"/><text transform="translate(172.34 78.85)" font-size="22.12" fill="#fff" font-family=" Glober" font-weight="700"><tspan letter-spacing="-0.01em">v</tspan><tspan x="11.42" y="0">s.</tspan></text><text transform="translate(286.81 36.69)" font-size="13.65" fill="#fff" font-family=" Glober" font-weight="700"><tspan letter-spacing="-0.01em">U</tspan><tspan x="9.08" y="0">p</tspan><tspan x="16.69" y="0" letter-spacing="-0.02em"> </tspan><tspan x="19.37" y="0">to</tspan></text><text transform="matrix(1, 0.01, -0.01, 1, 267.17, 70.32)" font-size="37.72" fill="#fff" font-family=" Glober" font-weight="700">400</text><text transform="matrix(0.58, 0.01, -0.01, 0.58, 335.86, 58.46)" font-size="37.72" fill="#fff" font-family=" Glober" font-weight="700">%</text><text transform="translate(262.69 93.65)" font-size="13.93" fill="#fff" font-family=" Glober" font-weight="700"><tspan letter-spacing="-0.01em">M</tspan><tspan x="11.49" y="0">o</tspan><tspan x="19.12" y="0" letter-spacing="-0.01em">r</tspan><tspan x="24.48" y="0" letter-spacing="0em">e ef</tspan><tspan x="46.85" y="0" letter-spacing="-0.01em">f</tspan><tspan x="51.74" y="0" letter-spacing="0em">ecti</tspan><tspan x="74.16" y="0" letter-spacing="-0.01em">v</tspan><tspan x="81.29" y="0" letter-spacing="0em">e </tspan><tspan x="-1.82" y="14.58">than</tspan><tspan x="26.01" y="14.58" letter-spacing="-0.02em"> </tspan><tspan x="28.75" y="14.58">t</tspan><tspan x="34.15" y="14.58" letter-spacing="-0.01em">r</tspan><tspan x="39.6" y="14.58">aditional</tspan><tspan x="5.1" y="29.16" letter-spacing="-0.01em">r</tspan><tspan x="10.46" y="29.16">oc</tspan><tspan x="24.32" y="29.16" letter-spacing="-0.01em">k</tspan><tspan x="31.2" y="29.16" xml:space="preserve" letter-spacing="0em"> calciums</tspan></text><path d="M195.31,45.78A21.88,21.88,0,0,0,205,23.29a47.94,47.94,0,0,1-7.45,1.2c-2.52,0-5-.73-7.57-1a59.44,59.44,0,0,0-8.52-.53c-7.05.29-12.2,5.93-11.69,12.48,4-.48,8-1.06,12-1.41s8-.47,12-.69c-3.85,1.63-7.89,2-11.75,3-5.87,1.58-11.69,3.43-17.39,5.54-2.78,1-2.91,3.07-.46,5l7.06-4.57C179.07,48.82,188.24,50.05,195.31,45.78Z" fill="#fff"/><polyline points="163.93 131.73 163.8 131.47 163.29 131.88 174 98.39 197.8 107.56 205.12 129.62 187.2 136.35" fill="#fff"/><path d="M175.8,102.3l14.28,15.55,13.18,11.4-15.39,6-10.31-17-1.76-15.9m-2.38-5.25.6,5.45,1.75,15.89,0,.4.2.34,10.32,17,.78,1.29,1.4-.54,15.39-6,2.77-1.08-2.25-2-13.1-11.33-14.21-15.47-3.7-4Z" fill="#e37833"/><path d="M175.8,102.3l14.28,15.55,13.18,11.4-15.39,6-10.31-17-1.76-15.9m-2.38-5.25.6,5.45,1.75,15.89,0,.4.2.34,10.32,17,.78,1.29,1.4-.54,15.39-6,2.77-1.08-2.25-2-13.1-11.33-14.21-15.47-3.7-4Z" fill="#e37833"/><polyline points="205.12 129.62 197.8 107.56 174 98.39 163.22 131.95 187.59 136.3 177.01 118.89 163.93 131.73" fill="none" stroke="#e37833" stroke-linejoin="round" stroke-width="1.79"/><text transform="translate(20.6 99.29)" font-size="12.38" fill="#fff" font-family=" Glober" font-weight="700"><tspan letter-spacing="-0.09em">T</tspan><tspan x="5.72" y="0">esting on human </tspan><tspan x="5.61" y="16.13">osteoblast </tspan><tspan x="65.4" y="16.13" letter-spacing="-0.01em">c</tspan><tspan x="70.78" y="16.13">ells</tspan></text><path d="M68.19,64.92,77,63.83a5,5,0,0,0,1.45-.35c1.63-.75,3.1-1.59,5.13-1.4,1.86.17,2.87-1.37,2.91-3.3,0-1.61.62-2.38,2-2.64a3.28,3.28,0,0,1,3.32,1.78A2.9,2.9,0,0,1,91,61.36a8.51,8.51,0,0,0-1.88,2c-.73,1.23-.31,2.06,1,2.47,1.07.32,1.21.95.39,1.74-2.1,2-3.92,2.22-6.68,1.25a13.57,13.57,0,0,0-5-.61c-9.32.43-7.77.11-17.09.76-3.3.23-6.57,1-9.85,1.55a6,6,0,0,0-3.69,2.17,4.15,4.15,0,0,1-2.94,1.62,14.43,14.43,0,0,0-1.45.32c-.88.22-1.81.71-2.41-.46s-.44-3,.49-3.73c.56-.42,1.34-.82.91-1.6a3,3,0,0,0-1.58-1.24,2,2,0,0,1-1.5-1.94,2.07,2.07,0,0,1,1.12-2.17c2.39-1.57,4.69-1.31,7.2-.29A28.21,28.21,0,0,0,59.6,64.82C65.87,64.67,61.26,65.17,68.19,64.92Z" fill="#fff"/><path d="M71.8,42.48a5.8,5.8,0,1,1,10.85,4.09c-1.13,3-6.62,10.21-9.62,9.08S70.68,45.47,71.8,42.48Z" fill="#fff" stroke="#e37833" stroke-miterlimit="10" stroke-width="0.58"/><circle cx="77.34" cy="44.06" r="2.29" transform="translate(-6.64 73.55) rotate(-49.02)" fill="#fff" stroke="#e37833" stroke-miterlimit="10" stroke-width="0.58"/><path d="M54.31,58.62a3.42,3.42,0,0,1,4.21-5.38c1.49,1.17,4.57,5.53,3.41,7S55.8,59.78,54.31,58.62Z" fill="#fff" stroke="#e37833" stroke-miterlimit="10" stroke-width="0.34"/><circle cx="56.18" cy="55.78" r="1.35" transform="translate(-22.99 54.74) rotate(-44.04)" fill="#fff" stroke="#e37833" stroke-miterlimit="10" stroke-width="0.34"/><path d="M66,34.47a3.41,3.41,0,1,1,6.8.58c-.16,1.87-2.11,6.85-4,6.69S65.85,36.35,66,34.47Z" fill="#fff" stroke="#e37833" stroke-miterlimit="10" stroke-width="0.34"/><circle cx="69.4" cy="34.48" r="1.35" fill="#fff" stroke="#e37833" stroke-miterlimit="10" stroke-width="0.34"/><path d="M53.33,45.88a6.09,6.09,0,0,1,10.14-6.75c1.86,2.8,4.66,11.92,1.86,13.78S55.2,48.68,53.33,45.88Z" fill="#fff" stroke="#e37833" stroke-miterlimit="10" stroke-width="0.61"/><circle cx="58.08" cy="42.13" r="2.4" transform="translate(-13.64 44.27) rotate(-37.67)" fill="#fff" stroke="#e37833" stroke-miterlimit="10" stroke-width="0.61"/></svg>
