<?xml version="1.0" encoding="utf-8"?>
<!-- Generator: Adobe Illustrator 23.0.3, SVG Export Plug-In . SVG Version: 6.00 Build 0)  -->
<svg version="1.1" id="Layer_1" xmlns="http://www.w3.org/2000/svg" xmlns:xlink="http://www.w3.org/1999/xlink" x="0px" y="0px"
	 viewBox="0 0 375 157" style="enable-background:new 0 0 375 157;" xml:space="preserve">
<style type="text/css">
	.st0{fill:#FFFFFF;}
	.st1{enable-background:new    ;}
	.st2{fill:none;stroke:#FFFFFF;stroke-width:3.77;stroke-linecap:round;stroke-linejoin:round;stroke-dasharray:0.47,7.54;}
</style>
<title>bone-study-3-mobile</title>
<path class="st0" d="M175.4,52v1.6c0,4,0,8,0,12c-0.1,1,0.6,1.9,1.6,2c0.1,0,0.2,0,0.2,0c1,0.2,2-0.6,2.1-1.6c0-0.1,0-0.1,0-0.2
	c0.1-0.5,0.1-1,0.1-1.4v-11c0-0.5,0.1-0.9,0.1-1.5h2.8c-0.1-0.5-0.1-0.8-0.2-1.2c-0.7-2.8-1.4-5.7-2.2-8.5c-0.6-2.2-1.1-4.4-1.7-6.6
	c-0.1-0.2,0.2-0.6,0.3-0.9c0.2,0.2,0.4,0.4,0.6,0.6c0.1,0.2,0.2,0.4,0.2,0.6c0.9,3.5,1.9,6.9,2.8,10.4c0.4,1.5,1.2,2.2,2.2,1.8
	s1.3-1.1,0.9-2.6c-1.2-4.5-2.5-9-3.8-13.5c-0.2-1.2-1.3-2-2.5-1.8c-2.9,0-5.9,0-8.8,0c-1.6,0-2.1,0.4-2.6,2.1
	c-0.7,2.6-1.4,5.1-2.1,7.7c-0.5,1.9-1.1,3.9-1.6,5.8c-0.3,1.1-0.2,1.9,1,2.4c0.9,0.3,1.7-0.2,2-1.5c0.1-0.2,0.1-0.5,0.2-0.8
	c0.9-3.4,1.9-6.8,2.9-10.3c0.2-0.4,0.4-0.7,0.7-1c0.1,0.4,0.2,0.7,0.1,1.1c-1.2,4.6-2.4,9.2-3.5,13.9c-0.2,0.7-0.3,1.4-0.5,2.3h3
	v1.5c0,3.6,0,7.2,0,10.8c0,2.4,0.6,3.3,2.1,3.2s2-0.9,2-3.3c0-3.6,0-7.2,0-10.8c0-0.5,0-0.9,0.1-1.5L175.4,52z M170.4,24.7
	c0,2.3,1.8,4.2,4.1,4.2c0.1,0,0.1,0,0.2,0c2.3,0,4.2-1.9,4.2-4.2c0,0,0-0.1,0-0.1c0-2.3-1.9-4.1-4.2-4.1c0,0,0,0,0,0
	c-2.2-0.1-4.1,1.6-4.2,3.9C170.4,24.5,170.4,24.6,170.4,24.7L170.4,24.7z"/>
<path class="st0" d="M175.9,52h-1.6c0,0.5-0.1,1-0.1,1.5v10.8c0,2.4-0.5,3.3-2,3.3s-2.1-0.9-2.1-3.2c0-3.6,0-7.2,0-10.8v-1.6h-3
	c0.2-0.9,0.3-1.6,0.5-2.3c1.2-4.6,2.4-9.2,3.5-13.9c0-0.4,0-0.8-0.1-1.1c-0.3,0.3-0.5,0.6-0.7,1c-1,3.4-1.9,6.8-2.8,10.3
	c-0.1,0.3-0.1,0.5-0.2,0.8c-0.4,1.2-1.1,1.8-2.1,1.5c-1.1-0.4-1.2-1.3-0.9-2.4c0.6-1.9,1.1-3.9,1.6-5.8c0.7-2.6,1.4-5.2,2.1-7.7
	c0.4-1.6,0.9-2,2.6-2.1c2.9,0,5.9,0,8.8,0c1.2-0.2,2.3,0.6,2.5,1.8c1.2,4.5,2.5,9,3.8,13.5c0.4,1.5,0.1,2.3-0.9,2.6
	s-1.8-0.3-2.2-1.8c-0.9-3.5-1.9-6.9-2.8-10.4c0-0.2-0.1-0.4-0.2-0.6c-0.2-0.2-0.4-0.4-0.6-0.6c-0.1,0.3-0.3,0.6-0.3,0.9
	c0.5,2.2,1.1,4.4,1.7,6.6c0.7,2.8,1.4,5.7,2.2,8.5c0.1,0.3,0.1,0.7,0.2,1.2h-2.8c0,0.6-0.1,1-0.1,1.5c0,3.6,0,7.3,0,10.9
	c0,0.5,0,1-0.1,1.4c0,1-0.9,1.9-2,1.8c-0.1,0-0.1,0-0.2,0c-1,0-1.8-0.8-1.8-1.8c0-0.1,0-0.1,0-0.2c0-4,0-8,0-12L175.9,52z"/>
<path class="st0" d="M170.4,24.7c-0.1-2.2,1.6-4.1,3.9-4.2c0.1,0,0.2,0,0.3,0c2.3,0,4.2,1.8,4.2,4.1c0,0,0,0,0,0
	c0.1,2.3-1.7,4.3-4.1,4.3c0,0-0.1,0-0.1,0c-2.3,0.1-4.2-1.7-4.3-4C170.4,24.8,170.4,24.8,170.4,24.7z"/>
<g class="st1">
	<path class="st0" d="M134.4,148.5c0,0-0.3,0.1-1,0.1c-0.8,0-1-0.1-1-0.1v-11.4h4.3c2.2,0,3.6,1.5,3.6,3.6s-1.4,3.6-3.6,3.6h-2.3
		V148.5z M136.3,142.6c1.1,0,1.7-0.7,1.7-1.9s-0.6-1.9-1.7-1.9h-2v3.8H136.3z"/>
</g>
<g class="st1">
	<path class="st0" d="M144.7,140c2.3,0,3.2,1,3.2,3v5.5c0,0-0.2,0.1-0.8,0.1c-0.5,0-0.8-0.1-0.8-0.1l-0.3-0.9
		c-0.4,0.8-1.2,1.2-2.3,1.2c-1.5,0-2.5-0.9-2.5-2.8c0-1.8,1.1-2.6,3.1-2.6c0.6,0,1.1,0,1.6,0.1v-0.4c0-0.8-0.3-1.5-1.4-1.5
		c-1.1,0-2.1,0.4-2.1,0.4s-0.3-0.2-0.5-0.6c-0.2-0.4-0.1-0.9-0.1-0.9S142.9,140,144.7,140z M144.5,144.8c-0.8,0-1.3,0.3-1.3,1.2
		c0,0.9,0.4,1.2,1.2,1.2c1.1,0,1.5-1,1.5-1.9v-0.5C145.4,144.8,145,144.8,144.5,144.8z"/>
	<path class="st0" d="M153.7,140c0.5,0,0.9,0.1,1.4,0.4c-0.1,0.7-0.3,1.3-0.9,1.7c-0.3-0.2-0.6-0.4-0.9-0.4c-0.5,0-1,0.3-1.4,0.8
		v5.9c0,0-0.4,0.1-1,0.1c-0.7,0-1-0.1-1-0.1v-8.2c0,0,0.3-0.1,1-0.1c0.7,0,1,0.1,1,0.1v0.9C152.5,140.5,153.1,140,153.7,140z"/>
	<path class="st0" d="M158.9,145.5c0,1.4,0.5,1.7,1.5,1.7c0.3,0,0.6,0,0.6,0s0.1,0.4,0.1,0.8c0,0.4-0.1,0.7-0.1,0.7
		c-0.4,0.1-0.8,0.1-1.2,0.1c-2.1,0-3-1.1-3-3.2v-3.9h-1.2c0,0-0.1-0.3-0.1-0.7c0-0.5,0.1-0.8,0.1-0.8h1.2v-1.4
		c0.5-0.3,1.3-0.5,2-0.4v1.8h1.9c0,0,0.1,0.3,0.1,0.7c0,0.4-0.1,0.8-0.1,0.8h-1.9V145.5z"/>
	<path class="st0" d="M164.6,138.8c0,0-0.4,0.1-1,0.1c-0.7,0-1-0.1-1-0.1v-1.8c0,0,0.3-0.1,1-0.1c0.7,0,1,0.1,1,0.1V138.8z
		 M164.6,148.5c0,0-0.4,0.1-1,0.1c-0.7,0-1-0.1-1-0.1v-8.2c0,0,0.3-0.1,1-0.1c0.7,0,1,0.1,1,0.1V148.5z"/>
	<path class="st0" d="M168.4,144.4c0,1.9,0.6,2.7,1.9,2.7c0.8,0,1.4-0.2,1.4-0.2c0.3,0.3,0.5,0.9,0.6,1.4c0,0-0.7,0.5-2.4,0.5
		c-2.5,0-3.6-1.5-3.6-4.4c0-2.9,1.2-4.4,3.6-4.4c1.7,0,2.3,0.4,2.3,0.4c0,0.5-0.2,1.1-0.6,1.4c0,0-0.5-0.2-1.4-0.2
		C168.9,141.7,168.4,142.5,168.4,144.4z"/>
	<path class="st0" d="M176,138.8c0,0-0.4,0.1-1,0.1c-0.7,0-1-0.1-1-0.1v-1.8c0,0,0.3-0.1,1-0.1c0.7,0,1,0.1,1,0.1V138.8z M176,148.5
		c0,0-0.4,0.1-1,0.1c-0.7,0-1-0.1-1-0.1v-8.2c0,0,0.3-0.1,1-0.1c0.7,0,1,0.1,1,0.1V148.5z"/>
	<path class="st0" d="M182.3,140c1.8,0,3,1.1,3,4.4c0,3.3-1.2,4.4-3,4.4c-1,0-1.7-0.3-2.2-0.8v4.1c0,0-0.4,0.1-1,0.1s-1-0.1-1-0.1
		v-11.8c0,0,0.3-0.1,1-0.1s1,0.1,1,0.1v0.5C180.6,140.3,181.3,140,182.3,140z M181.6,141.7c-0.9,0-1.4,0.7-1.4,1.7v2
		c0,1,0.5,1.7,1.4,1.7c1,0,1.6-0.5,1.6-2.8S182.6,141.7,181.6,141.7z"/>
	<path class="st0" d="M190.1,140c2.3,0,3.2,1,3.2,3v5.5c0,0-0.2,0.1-0.8,0.1c-0.5,0-0.8-0.1-0.8-0.1l-0.3-0.9
		c-0.4,0.8-1.2,1.2-2.3,1.2c-1.5,0-2.5-0.9-2.5-2.8c0-1.8,1.1-2.6,3.1-2.6c0.6,0,1.1,0,1.6,0.1v-0.4c0-0.8-0.3-1.5-1.4-1.5
		c-1.1,0-2.1,0.4-2.1,0.4s-0.3-0.2-0.5-0.6c-0.2-0.4-0.1-0.9-0.1-0.9S188.4,140,190.1,140z M190,144.8c-0.8,0-1.3,0.3-1.3,1.2
		c0,0.9,0.4,1.2,1.2,1.2c1.1,0,1.5-1,1.5-1.9v-0.5C190.9,144.8,190.4,144.8,190,144.8z"/>
	<path class="st0" d="M202.1,148.5c0,0-0.4,0.1-1,0.1c-0.7,0-1-0.1-1-0.1v-5.7c0-0.7-0.4-1.2-1.3-1.2c-0.5,0-1,0.2-1.4,0.6v6.3
		c0,0-0.4,0.1-1,0.1c-0.7,0-1-0.1-1-0.1v-8.2c0,0,0.3-0.1,1-0.1c0.7,0,1,0.1,1,0.1v0.5c0.6-0.5,1.3-0.8,2.2-0.8c1.7,0,2.5,1,2.5,2.4
		V148.5z"/>
	<path class="st0" d="M206.8,145.5c0,1.4,0.5,1.7,1.5,1.7c0.3,0,0.6,0,0.6,0s0.1,0.4,0.1,0.8c0,0.4-0.1,0.7-0.1,0.7
		c-0.4,0.1-0.8,0.1-1.2,0.1c-2.1,0-3-1.1-3-3.2v-3.9h-1.2c0,0-0.1-0.3-0.1-0.7c0-0.5,0.1-0.8,0.1-0.8h1.2v-1.4
		c0.5-0.3,1.3-0.5,2-0.4v1.8h1.9c0,0,0.1,0.3,0.1,0.7c0,0.4-0.1,0.8-0.1,0.8h-1.9V145.5z"/>
	<path class="st0" d="M213.2,140c1.7,0,2.4,0.5,2.4,0.5c0,0.5-0.2,1.1-0.5,1.4c0,0-0.8-0.3-1.6-0.3c-0.9,0-1.4,0.3-1.4,0.9
		c0,0.7,1,0.8,2,1.2c1,0.3,1.9,0.9,1.9,2.4c0,1.7-1,2.7-3.2,2.7c-1.8,0-2.8-0.6-2.8-0.6c0-0.6,0.2-1.1,0.5-1.5c0,0,1,0.4,2.1,0.4
		c0.9,0,1.3-0.3,1.3-0.9c0-0.7-0.8-0.9-1.7-1.1c-1.1-0.3-2.2-0.8-2.2-2.4C210.1,141.1,211.1,140,213.2,140z"/>
</g>
<line class="st2" x1="105.3" y1="166.1" x2="105.3" y2="-9.1"/>
<line class="st2" x1="238.9" y1="166.1" x2="238.9" y2="-9.1"/>
<g class="st1">
	<path class="st0" d="M28.3,97.3c0.3,1,0.4,2.1,0.3,3.2c-0.5,10.3-10.9,13.4-10.9,27.3c-0.8,0.2-1.8,0.3-2.7,0.3s-1.9-0.1-2.8-0.3
		c0-14.8,8.9-18.2,10.7-25.4H9.4c0,0-0.4-1-0.4-2.6c0-1.6,0.4-2.5,0.4-2.5H28.3z"/>
</g>
<g class="st1">
	<path class="st0" d="M51.7,97.9c0.6,0,1.1,0.1,1.1,0.1l-3.9,6.5v4.6c0,0-0.3,0.1-1,0.1c-0.7,0-1-0.1-1-0.1v-4.5l-3.8-6.5
		c0,0,0.4-0.1,1.2-0.1c0.7,0,1.1,0.1,1.1,0.1l2.6,4.5l2.6-4.5C50.7,98.1,51,97.9,51.7,97.9z"/>
</g>
<g class="st1">
	<path class="st0" d="M54.6,105.8c0.1,1.6,0.9,2,2,2c1.1,0,1.8-0.4,1.8-0.4c0.3,0.3,0.6,0.9,0.6,1.4c0,0-0.9,0.6-2.7,0.6
		c-2.6,0-3.7-1.5-3.7-4.3c0-3,1.4-4.3,3.6-4.3c2,0,3.2,1,3.2,3.3c0,1-0.2,1.7-0.2,1.7H54.6z M56.2,102.4c-0.8,0-1.4,0.5-1.5,2h2.8
		c0-0.2,0-0.3,0-0.5C57.4,103,57.2,102.4,56.2,102.4z"/>
	<path class="st0" d="M64,100.8c2.3,0,3.2,0.9,3.2,2.9v5.4c0,0-0.2,0.1-0.8,0.1c-0.5,0-0.8-0.1-0.8-0.1l-0.3-0.9
		c-0.4,0.7-1.2,1.1-2.3,1.1c-1.5,0-2.4-0.9-2.4-2.7c0-1.8,1.1-2.5,3.1-2.5c0.6,0,1.1,0,1.6,0.1v-0.3c0-0.8-0.3-1.4-1.4-1.4
		c-1,0-2,0.4-2,0.4s-0.3-0.2-0.4-0.6c-0.2-0.4-0.1-0.8-0.1-0.8S62.4,100.8,64,100.8z M63.9,105.5c-0.8,0-1.3,0.3-1.3,1.2
		c0,0.9,0.4,1.2,1.1,1.2c1.1,0,1.5-1,1.5-1.9v-0.5C64.8,105.6,64.3,105.5,63.9,105.5z"/>
	<path class="st0" d="M72.9,100.9c0.5,0,0.9,0.1,1.4,0.4c-0.1,0.7-0.3,1.2-0.9,1.7c-0.3-0.2-0.6-0.3-0.9-0.3c-0.5,0-1,0.3-1.4,0.8
		v5.7c0,0-0.3,0.1-1,0.1c-0.7,0-1-0.1-1-0.1v-8c0,0,0.3-0.1,1-0.1c0.6,0,1,0.1,1,0.1v0.9C71.7,101.3,72.3,100.9,72.9,100.9z"/>
</g>
<g class="st1">
	<path class="st0" d="M43.6,116.7c2,0,3.2,0.5,3.2,0.5c0,0.6-0.2,1.2-0.5,1.6c0,0-1-0.3-2.3-0.3c-1.5,0-2.3,0.5-2.3,1.5
		c0,1,1.4,1.3,2.7,1.8c1.4,0.5,2.8,1.3,2.8,3.3c0,2.2-1.4,3.4-4.1,3.4c-2.2,0-3.5-0.7-3.5-0.7c0-0.5,0.2-1.2,0.5-1.6
		c0,0,1.5,0.5,3,0.5c1.5,0,2.1-0.5,2.1-1.5c0-0.9-0.7-1.2-1.6-1.6c-1.6-0.6-3.9-1-3.9-3.4C39.7,118,41,116.7,43.6,116.7z"/>
</g>
<g class="st1">
	<path class="st0" d="M51.3,125.1c0,1.3,0.5,1.6,1.5,1.6c0.3,0,0.6,0,0.6,0s0.1,0.3,0.1,0.8c0,0.4-0.1,0.7-0.1,0.7
		c-0.4,0.1-0.8,0.1-1.2,0.1c-2,0-2.9-1.1-2.9-3.1v-3.8h-1.2c0,0-0.1-0.3-0.1-0.7c0-0.5,0.1-0.7,0.1-0.7h1.2v-1.4
		c0.5-0.3,1.3-0.5,2-0.4v1.8h1.9c0,0,0.1,0.3,0.1,0.7c0,0.4-0.1,0.7-0.1,0.7h-1.9V125.1z"/>
	<path class="st0" d="M54.8,120c0,0,0.3-0.1,1-0.1c0.7,0,1,0.1,1,0.1v5.6c0,0.7,0.4,1.1,1.3,1.1c0.5,0,1-0.2,1.4-0.6V120
		c0,0,0.3-0.1,1-0.1c0.7,0,1,0.1,1,0.1v8c0,0-0.3,0.1-1,0.1c-0.6,0-1-0.1-1-0.1v-0.5c-0.6,0.5-1.3,0.8-2.2,0.8c-1.6,0-2.5-1-2.5-2.4
		V120z"/>
	<path class="st0" d="M69.2,116.4c0.7,0,1,0.1,1,0.1v11.6c0,0-0.3,0.1-0.8,0.1c-0.5,0-0.9-0.1-0.9-0.1l-0.1-0.7
		c-0.4,0.6-1.1,1-2.2,1c-1.8,0-2.9-1.1-2.9-4.3s1.2-4.3,2.9-4.3c1,0,1.7,0.3,2.1,0.8v-4.1C68.2,116.5,68.5,116.4,69.2,116.4z
		 M66.8,121.4c-1,0-1.6,0.5-1.6,2.7s0.6,2.7,1.6,2.7c0.9,0,1.4-0.7,1.4-1.7v-2C68.2,122,67.6,121.4,66.8,121.4z"/>
</g>
<g class="st1">
	<path class="st0" d="M76.5,129.1c-0.6,2-1.2,3-3.2,3c-0.6,0-0.9-0.2-0.9-0.2s-0.1-0.3-0.1-0.7c0-0.4,0.1-0.8,0.1-0.8
		s0.4,0.1,0.7,0.1c0.8,0,1.1-0.1,1.6-1.7l0.2-0.6c-0.2,0-0.4,0-0.6-0.1l-2.8-8c0,0,0.4-0.1,1-0.1c0.7,0,1,0.1,1,0.1l1.5,4.2
		c0.4,1.2,0.6,2,0.6,2h0.1c0,0,0.1-0.8,0.5-2l1.3-4.2c0,0,0.3-0.1,1-0.1c0.6,0,0.9,0.1,0.9,0.1L76.5,129.1z"/>
</g>
<g class="st1">
	<path class="st0" d="M152.9,86.2c0,0,0.8-0.4,2.7-0.4c1.8,0,2.7,0.4,2.7,0.4l0,28.7c0,0-0.9,0.4-2.7,0.4c-1.7,0-2.8-0.4-2.8-0.4
		l0-16.6c0-2.1,0.1-3.9,0.2-5.4c-2,1.6-4.5,2.6-6.8,3.2c-1-1-1.6-2.8-1.3-4.5C148.5,90.6,150.8,89,152.9,86.2z"/>
	<path class="st0" d="M182.1,85.8c0.3,1,0.3,2,0.3,3c-0.4,9.8-10.5,12.8-10.5,26.2c-0.8,0.2-1.7,0.3-2.6,0.3s-1.9-0.1-2.6-0.3
		c0-14.2,8.5-17.4,10.2-24.4l-13,0c0,0-0.4-1-0.4-2.5c0-1.6,0.4-2.4,0.4-2.4L182.1,85.8z"/>
	<path class="st0" d="M186.7,86.9c0,0,3.5-1.6,8.1-1.6c5.5,0,9.9,2.3,9.9,8.2c0,5.6-3.1,7.5-8.3,10.6c-2.4,1.5-5.6,2.9-5.6,5.5
		c0,0.2,0,0.4,0.1,0.7l12.9,0c0.4,0.7,0.5,1.6,0.5,2.4s-0.2,1.7-0.5,2.5l-18,0c0,0-0.3-1.4-0.3-2.9c0-6.8,4.4-9.5,8.4-12.1
		c3.8-2.6,5.1-3.8,5.1-6.5c0-2.6-2-3.8-5.1-3.8c-2.9,0-5.7,1-5.7,1C187.1,89.9,186.5,88.5,186.7,86.9z"/>
</g>
<g class="st1">
	<path class="st0" d="M271.9,51.4c0,0,0.8-0.4,2.7-0.4c1.8,0,2.7,0.4,2.7,0.4l-0.3,28.8c0,0-0.9,0.4-2.7,0.4c-1.7,0-2.8-0.4-2.8-0.4
		l0.2-16.7c0-2.1,0.1-4,0.3-5.4c-2.1,1.6-4.5,2.6-6.9,3.2c-1-1.1-1.6-2.8-1.3-4.5C267.4,55.8,269.8,54.2,271.9,51.4z"/>
</g>
<g class="st1">
	<path class="st0" d="M289,80.5c0,0-1,0.3-2.7,0.3c-1.9,0-2.7-0.4-2.7-0.4l0-5c0,0,0.8-0.3,2.7-0.3c1.8,0,2.7,0.4,2.7,0.4L289,80.5z
		"/>
</g>
<g class="st1">
	<path class="st0" d="M293.4,66.1c0.1-10.7,4.2-15.2,11.2-15.1c7.1,0.1,11.1,4.5,11,15.4c-0.1,10.8-4.2,15.2-11.3,15.1
		C297.2,81.3,293.3,76.9,293.4,66.1z M299.2,66.1c-0.1,8.8,1.9,10.6,5.1,10.7c3.4,0,5.2-1.8,5.3-10.6c0.1-8.8-1.7-10.6-5.1-10.7
		C301.3,55.5,299.3,57.3,299.2,66.1z"/>
	<path class="st0" d="M332.7,52c0,0,1-0.4,2.8-0.4c1.8,0,2.7,0.4,2.7,0.4L338,69.8l3.6,0c0,0,0.4,0.8,0.4,2.2s-0.4,2.2-0.4,2.2
		l-3.6,0l-0.1,6.8c0,0-1,0.4-2.5,0.4c-1.7,0-2.7-0.4-2.7-0.4l0.1-6.8l-13.2-0.1c0,0-0.4-0.8-0.4-2.2s0.5-2.2,0.5-2.2L332.7,52z
		 M324.9,69.6l7.8,0.1l0.1-10.6L324.9,69.6z"/>
</g>
<g class="st1">
	<path class="st0" d="M344.4,53.8c0.1-3.1,1.4-4.3,3.6-4.3c2.2,0,3.5,1.3,3.5,4.4s-1.4,4.3-3.6,4.3C345.7,58.2,344.4,57,344.4,53.8z
		 M346.7,53.8c0,2.2,0.4,2.6,1.2,2.6c0.8,0,1.3-0.4,1.3-2.6c0-2.2-0.4-2.6-1.2-2.6C347.2,51.2,346.7,51.7,346.7,53.8z M349.4,67.1
		c0,0-0.4,0.2-1.2,0.2c-0.8,0-1.2-0.2-1.2-0.2l10-17.5c0,0,0.4-0.2,1.2-0.2c0.8,0,1.2,0.2,1.2,0.2L349.4,67.1z M354.8,63
		c0.1-3.1,1.4-4.3,3.6-4.3c2.2,0,3.5,1.3,3.5,4.4c-0.1,3.2-1.4,4.3-3.6,4.3C356.1,67.3,354.8,66.1,354.8,63z M357.1,63
		c0,2.2,0.4,2.6,1.2,2.6c0.8,0,1.3-0.4,1.3-2.6c0-2.2-0.4-2.6-1.2-2.6C357.6,60.4,357.1,60.8,357.1,63z"/>
</g>
<g class="st1">
	<path class="st0" d="M269.3,96.7c0.7,0,1.1,0.1,1.1,0.1l3.4,10c0,0-0.3,0.1-1,0.1c-0.6,0-0.9-0.1-0.9-0.1l-0.8-2.3h-3.9l-0.8,2.3
		c0,0-0.3,0.1-0.9,0.1c-0.5,0-0.8-0.1-0.8-0.1l3.4-10C268.1,96.8,268.6,96.7,269.3,96.7z M269.2,98.6c0,0-0.1,0.7-0.4,1.6l-1,2.9
		h2.9l-1-2.9C269.4,99.3,269.2,98.6,269.2,98.6L269.2,98.6z"/>
</g>
<g class="st1">
	<path class="st0" d="M276.9,103.7c0.3,0.8,0.4,1.6,0.4,1.6h0.1c0,0,0.2-0.8,0.4-1.6l1.3-4.1c0,0,0.3-0.1,0.8-0.1
		c0.6,0,0.8,0.1,0.8,0.1l-2.4,7.3c0,0-0.5,0.1-1.1,0.1c-0.7,0-1.1-0.1-1.1-0.1l-2.4-7.3c0,0,0.3-0.1,0.9-0.1c0.6,0,0.9,0.1,0.9,0.1
		L276.9,103.7z"/>
</g>
<g class="st1">
	<path class="st0" d="M283.3,103.8c0.1,1.5,0.8,1.8,1.8,1.8c1,0,1.6-0.3,1.6-0.3c0.3,0.3,0.5,0.8,0.5,1.3c0,0-0.8,0.6-2.4,0.6
		c-2.3,0-3.4-1.4-3.4-3.9c0-2.7,1.3-3.9,3.3-3.9c1.8,0,2.9,0.9,2.9,3c0,0.9-0.2,1.5-0.2,1.5H283.3z M284.7,100.7
		c-0.7,0-1.3,0.5-1.4,1.8h2.5c0-0.2,0-0.3,0-0.5C285.9,101.3,285.6,100.7,284.7,100.7z"/>
</g>
<g class="st1">
	<path class="st0" d="M292.5,99.3c0.4,0,0.8,0.1,1.3,0.4c-0.1,0.7-0.3,1.1-0.8,1.5c-0.3-0.2-0.5-0.3-0.8-0.3c-0.5,0-0.9,0.3-1.2,0.7
		v5.2c0,0-0.3,0.1-0.9,0.1c-0.6,0-0.9-0.1-0.9-0.1v-7.3c0,0,0.3-0.1,0.9-0.1c0.6,0,0.9,0.1,0.9,0.1v0.8
		C291.4,99.7,292,99.3,292.5,99.3z"/>
</g>
<g class="st1">
	<path class="st0" d="M297.4,99.3c2.1,0,2.9,0.9,2.9,2.7v4.9c0,0-0.2,0.1-0.7,0.1c-0.4,0-0.7-0.1-0.7-0.1l-0.3-0.8
		c-0.3,0.7-1.1,1-2.1,1c-1.4,0-2.2-0.8-2.2-2.5c0-1.6,1-2.3,2.8-2.3c0.5,0,1,0,1.4,0.1v-0.3c0-0.7-0.3-1.3-1.3-1.3
		c-0.9,0-1.8,0.3-1.8,0.3s-0.2-0.1-0.4-0.5c-0.2-0.4-0.1-0.8-0.1-0.8S295.9,99.3,297.4,99.3z M297.3,103.6c-0.7,0-1.2,0.3-1.2,1.1
		c0,0.8,0.4,1.1,1,1.1c1,0,1.3-0.9,1.3-1.7v-0.4C298.1,103.6,297.7,103.6,297.3,103.6z"/>
</g>
<g class="st1">
	<path class="st0" d="M308.4,99.3c0.1,0.4,0.1,1,0,1.4l-1.1-0.1c0.2,0.4,0.3,0.9,0.3,1.4c0,1.6-1,2.6-2.9,2.6c-0.2,0-0.4,0-0.5,0
		c-0.1,0.2-0.2,0.4-0.2,0.6c0.2,1.2,4.3-0.1,4.3,2.8c0,1.5-1.5,2.5-3.8,2.5c-2.2,0-3.2-0.8-3.2-1.9c0-1.1,0.9-1.7,1.3-1.9
		c-0.2-0.2-0.3-0.5-0.3-0.8c0-0.6,0.3-1.2,0.7-1.6c-0.9-0.4-1.3-1.2-1.3-2.3c0-1.6,1-2.6,2.9-2.6c0.7,0,1.2,0.1,1.6,0.3L308.4,99.3z
		 M303.7,107.2c-0.2,0.2-0.5,0.6-0.5,1.1c0,0.6,0.4,1.1,1.5,1.1c1.4,0,2-0.4,2-1.1C306.7,107.3,304.9,107.5,303.7,107.2z
		 M304.7,100.5c-0.7,0-1.2,0.4-1.2,1.4c0,1,0.5,1.4,1.2,1.4s1.2-0.4,1.2-1.4C305.9,101,305.4,100.5,304.7,100.5z"/>
</g>
<g class="st1">
	<path class="st0" d="M311.2,103.8c0.1,1.5,0.8,1.8,1.8,1.8c1,0,1.6-0.3,1.6-0.3c0.3,0.3,0.5,0.8,0.5,1.3c0,0-0.8,0.6-2.4,0.6
		c-2.3,0-3.4-1.4-3.4-3.9c0-2.7,1.3-3.9,3.3-3.9c1.8,0,2.9,0.9,2.9,3c0,0.9-0.2,1.5-0.2,1.5H311.2z M312.6,100.7
		c-0.7,0-1.3,0.5-1.4,1.8h2.5c0-0.2,0-0.3,0-0.5C313.8,101.3,313.5,100.7,312.6,100.7z"/>
	<path class="st0" d="M322.8,99.3c2.1,0,2.9,0.9,2.9,2.7v4.9c0,0-0.2,0.1-0.7,0.1c-0.4,0-0.7-0.1-0.7-0.1l-0.3-0.8
		c-0.3,0.7-1.1,1-2.1,1c-1.4,0-2.2-0.8-2.2-2.5c0-1.6,1-2.3,2.8-2.3c0.5,0,1,0,1.4,0.1v-0.3c0-0.7-0.3-1.3-1.3-1.3
		c-0.9,0-1.8,0.3-1.8,0.3s-0.2-0.1-0.4-0.5c-0.2-0.4-0.1-0.8-0.1-0.8S321.3,99.3,322.8,99.3z M322.7,103.6c-0.7,0-1.2,0.3-1.2,1.1
		c0,0.8,0.4,1.1,1,1.1c1,0,1.3-0.9,1.3-1.7v-0.4C323.5,103.6,323.1,103.6,322.7,103.6z"/>
	<path class="st0" d="M333.5,106.9c0,0-0.3,0.1-0.9,0.1c-0.6,0-0.9-0.1-0.9-0.1v-5.1c0-0.6-0.3-1-1.1-1c-0.5,0-0.9,0.2-1.3,0.5v5.6
		c0,0-0.3,0.1-0.9,0.1c-0.6,0-0.9-0.1-0.9-0.1v-7.3c0,0,0.3-0.1,0.9-0.1c0.6,0,0.9,0.1,0.9,0.1v0.4c0.5-0.5,1.2-0.7,2-0.7
		c1.5,0,2.2,0.9,2.2,2.2V106.9z"/>
	<path class="st0" d="M341.3,106.9c0,0-0.3,0.1-0.9,0.1c-0.6,0-0.9-0.1-0.9-0.1v-5.1c0-0.6-0.3-1-1.1-1c-0.5,0-0.9,0.2-1.3,0.5v5.6
		c0,0-0.3,0.1-0.9,0.1c-0.6,0-0.9-0.1-0.9-0.1v-7.3c0,0,0.3-0.1,0.9-0.1c0.6,0,0.9,0.1,0.9,0.1v0.4c0.5-0.5,1.2-0.7,2-0.7
		c1.5,0,2.2,0.9,2.2,2.2V106.9z"/>
	<path class="st0" d="M343.1,99.6c0,0,0.3-0.1,0.9-0.1c0.6,0,0.9,0.1,0.9,0.1v5.1c0,0.6,0.3,1,1.1,1c0.5,0,0.9-0.2,1.3-0.5v-5.6
		c0,0,0.3-0.1,0.9-0.1c0.6,0,0.9,0.1,0.9,0.1v7.3c0,0-0.3,0.1-0.9,0.1c-0.6,0-0.9-0.1-0.9-0.1v-0.4c-0.5,0.5-1.2,0.7-2,0.7
		c-1.5,0-2.2-0.9-2.2-2.2V99.6z"/>
	<path class="st0" d="M353.6,99.3c2.1,0,2.9,0.9,2.9,2.7v4.9c0,0-0.2,0.1-0.7,0.1c-0.4,0-0.7-0.1-0.7-0.1l-0.3-0.8
		c-0.3,0.7-1.1,1-2.1,1c-1.4,0-2.2-0.8-2.2-2.5c0-1.6,1-2.3,2.8-2.3c0.5,0,1,0,1.4,0.1v-0.3c0-0.7-0.3-1.3-1.3-1.3
		c-0.9,0-1.8,0.3-1.8,0.3s-0.2-0.1-0.4-0.5c-0.2-0.4-0.1-0.8-0.1-0.8S352.1,99.3,353.6,99.3z M353.5,103.6c-0.7,0-1.2,0.3-1.2,1.1
		c0,0.8,0.4,1.1,1,1.1c1,0,1.3-0.9,1.3-1.7v-0.4C354.3,103.6,353.9,103.6,353.5,103.6z"/>
	<path class="st0" d="M360.2,106.9c0,0-0.3,0.1-0.9,0.1c-0.6,0-0.9-0.1-0.9-0.1V96.4c0,0,0.3-0.1,0.9-0.1c0.6,0,0.9,0.1,0.9,0.1
		V106.9z"/>
</g>
<g class="st1">
	<path class="st0" d="M263.7,115c0,0-0.3,0.1-0.9,0.1c-0.6,0-0.9-0.1-0.9-0.1v-1.6c0,0,0.3-0.1,0.9-0.1c0.6,0,0.9,0.1,0.9,0.1V115z
		 M263.7,123.7c0,0-0.3,0.1-0.9,0.1c-0.6,0-0.9-0.1-0.9-0.1v-7.3c0,0,0.3-0.1,0.9-0.1c0.6,0,0.9,0.1,0.9,0.1V123.7z"/>
	<path class="st0" d="M271.6,123.7c0,0-0.3,0.1-0.9,0.1c-0.6,0-0.9-0.1-0.9-0.1v-5.1c0-0.6-0.3-1-1.1-1c-0.5,0-0.9,0.2-1.3,0.5v5.6
		c0,0-0.3,0.1-0.9,0.1c-0.6,0-0.9-0.1-0.9-0.1v-7.3c0,0,0.3-0.1,0.9-0.1c0.6,0,0.9,0.1,0.9,0.1v0.4c0.5-0.5,1.2-0.7,2-0.7
		c1.5,0,2.2,0.9,2.2,2.2V123.7z"/>
	<path class="st0" d="M275,120c0,1.7,0.5,2.4,1.7,2.4c0.7,0,1.3-0.2,1.3-0.2c0.3,0.3,0.5,0.8,0.5,1.3c0,0-0.6,0.4-2.1,0.4
		c-2.2,0-3.2-1.4-3.2-3.9c0-2.5,1-3.9,3.2-3.9c1.5,0,2,0.4,2,0.4c0,0.5-0.2,1-0.5,1.3c0,0-0.5-0.2-1.2-0.2
		C275.4,117.6,275,118.3,275,120z"/>
</g>
<g class="st1">
	<path class="st0" d="M283.2,116.2c0.4,0,0.8,0.1,1.3,0.4c-0.1,0.7-0.3,1.1-0.8,1.5c-0.3-0.2-0.5-0.3-0.8-0.3
		c-0.5,0-0.9,0.3-1.2,0.7v5.2c0,0-0.3,0.1-0.9,0.1c-0.6,0-0.9-0.1-0.9-0.1v-7.3c0,0,0.3-0.1,0.9-0.1c0.6,0,0.9,0.1,0.9,0.1v0.8
		C282.1,116.5,282.7,116.2,283.2,116.2z"/>
</g>
<g class="st1">
	<path class="st0" d="M286.9,120.6c0.1,1.5,0.8,1.8,1.8,1.8c1,0,1.6-0.3,1.6-0.3c0.3,0.3,0.5,0.8,0.5,1.3c0,0-0.8,0.6-2.4,0.6
		c-2.3,0-3.4-1.4-3.4-3.9c0-2.7,1.3-3.9,3.3-3.9c1.8,0,2.9,0.9,2.9,3c0,0.9-0.2,1.5-0.2,1.5H286.9z M288.3,117.5
		c-0.7,0-1.3,0.5-1.4,1.8h2.5c0-0.2,0-0.3,0-0.5C289.4,118.1,289.2,117.5,288.3,117.5z"/>
	<path class="st0" d="M295.4,116.1c2.1,0,2.9,0.9,2.9,2.7v4.9c0,0-0.2,0.1-0.7,0.1c-0.4,0-0.7-0.1-0.7-0.1l-0.3-0.8
		c-0.3,0.7-1.1,1-2.1,1c-1.4,0-2.2-0.8-2.2-2.5c0-1.6,1-2.3,2.8-2.3c0.5,0,1,0,1.4,0.1V119c0-0.7-0.3-1.3-1.3-1.3
		c-0.9,0-1.8,0.3-1.8,0.3s-0.2-0.1-0.4-0.5c-0.2-0.4-0.1-0.8-0.1-0.8S293.9,116.1,295.4,116.1z M295.3,120.4c-0.7,0-1.2,0.3-1.2,1.1
		c0,0.8,0.4,1.1,1,1.1c1,0,1.3-0.9,1.3-1.7v-0.4C296.1,120.4,295.7,120.4,295.3,120.4z"/>
	<path class="st0" d="M302.6,116.1c1.5,0,2.1,0.4,2.1,0.4c0,0.5-0.1,1-0.5,1.3c0,0-0.7-0.2-1.5-0.2c-0.8,0-1.2,0.3-1.2,0.8
		c0,0.6,0.9,0.7,1.8,1c0.9,0.3,1.7,0.8,1.7,2.1c0,1.5-0.9,2.4-2.8,2.4c-1.6,0-2.5-0.5-2.5-0.5c0-0.5,0.2-1,0.5-1.3
		c0,0,0.9,0.3,1.9,0.3c0.8,0,1.1-0.3,1.1-0.8c0-0.6-0.7-0.8-1.5-1c-0.9-0.3-2-0.7-2-2.2C299.8,117.1,300.7,116.1,302.6,116.1z"/>
	<path class="st0" d="M308,120.6c0.1,1.5,0.8,1.8,1.8,1.8c1,0,1.6-0.3,1.6-0.3c0.3,0.3,0.5,0.8,0.5,1.3c0,0-0.8,0.6-2.4,0.6
		c-2.3,0-3.4-1.4-3.4-3.9c0-2.7,1.3-3.9,3.3-3.9c1.8,0,2.9,0.9,2.9,3c0,0.9-0.2,1.5-0.2,1.5H308z M309.4,117.5
		c-0.7,0-1.3,0.5-1.4,1.8h2.5c0-0.2,0-0.3,0-0.5C310.6,118.1,310.3,117.5,309.4,117.5z"/>
	<path class="st0" d="M318.7,115c0,0-0.3,0.1-0.9,0.1c-0.6,0-0.9-0.1-0.9-0.1v-1.6c0,0,0.3-0.1,0.9-0.1c0.6,0,0.9,0.1,0.9,0.1V115z
		 M318.7,123.7c0,0-0.3,0.1-0.9,0.1c-0.6,0-0.9-0.1-0.9-0.1v-7.3c0,0,0.3-0.1,0.9-0.1c0.6,0,0.9,0.1,0.9,0.1V123.7z"/>
	<path class="st0" d="M326.6,123.7c0,0-0.3,0.1-0.9,0.1c-0.6,0-0.9-0.1-0.9-0.1v-5.1c0-0.6-0.3-1-1.1-1c-0.5,0-0.9,0.2-1.3,0.5v5.6
		c0,0-0.3,0.1-0.9,0.1c-0.6,0-0.9-0.1-0.9-0.1v-7.3c0,0,0.3-0.1,0.9-0.1c0.6,0,0.9,0.1,0.9,0.1v0.4c0.5-0.5,1.2-0.7,2-0.7
		c1.5,0,2.2,0.9,2.2,2.2V123.7z"/>
	<path class="st0" d="M333.3,116.9c0.4-0.5,1-0.7,1.9-0.7c1.6,0,2.6,1,2.6,3.9c0,2.9-1,3.9-2.6,3.9c-0.9,0-1.5-0.3-1.9-0.7v0.5
		c0,0-0.3,0.1-0.9,0.1s-0.9-0.1-0.9-0.1v-10.5c0,0,0.3-0.1,0.9-0.1s0.9,0.1,0.9,0.1V116.9z M334.6,117.6c-0.8,0-1.3,0.6-1.3,1.5v1.8
		c0,0.9,0.5,1.5,1.3,1.5c0.9,0,1.4-0.4,1.4-2.4C336,118,335.5,117.6,334.6,117.6z"/>
	<path class="st0" d="M342.5,116.1c2,0,3.3,1.1,3.3,3.9c0,2.8-1.3,3.9-3.3,3.9c-2,0-3.3-1.1-3.3-3.9
		C339.2,117.2,340.5,116.1,342.5,116.1z M342.5,117.5c-0.9,0-1.4,0.5-1.4,2.5c0,2,0.6,2.5,1.4,2.5s1.4-0.5,1.4-2.5
		C343.9,118,343.3,117.5,342.5,117.5z"/>
	<path class="st0" d="M353.3,123.7c0,0-0.3,0.1-0.9,0.1c-0.6,0-0.9-0.1-0.9-0.1v-5.1c0-0.6-0.3-1-1.1-1c-0.5,0-0.9,0.2-1.3,0.5v5.6
		c0,0-0.3,0.1-0.9,0.1c-0.6,0-0.9-0.1-0.9-0.1v-7.3c0,0,0.3-0.1,0.9-0.1c0.6,0,0.9,0.1,0.9,0.1v0.4c0.5-0.5,1.2-0.7,2-0.7
		c1.5,0,2.2,0.9,2.2,2.2V123.7z"/>
	<path class="st0" d="M356.7,120.6c0.1,1.5,0.8,1.8,1.8,1.8c1,0,1.6-0.3,1.6-0.3c0.3,0.3,0.5,0.8,0.5,1.3c0,0-0.8,0.6-2.4,0.6
		c-2.3,0-3.4-1.4-3.4-3.9c0-2.7,1.3-3.9,3.3-3.9c1.8,0,2.9,0.9,2.9,3c0,0.9-0.2,1.5-0.2,1.5H356.7z M358.1,117.5
		c-0.7,0-1.3,0.5-1.4,1.8h2.5c0-0.2,0-0.3,0-0.5C359.2,118.1,359,117.5,358.1,117.5z"/>
</g>
<g class="st1">
	<path class="st0" d="M264.2,129.9c0.6,0,0.9,0.1,0.9,0.1v10.5c0,0-0.3,0.1-0.8,0.1c-0.5,0-0.8-0.1-0.8-0.1l-0.1-0.6
		c-0.4,0.6-1,0.9-2,0.9c-1.6,0-2.6-1-2.6-3.9c0-2.9,1-3.9,2.6-3.9c0.9,0,1.5,0.3,1.9,0.7V130C263.3,130,263.6,129.9,264.2,129.9z
		 M262,134.4c-0.9,0-1.4,0.4-1.4,2.4c0,2,0.5,2.4,1.4,2.4c0.8,0,1.3-0.6,1.3-1.5v-1.9C263.3,135,262.8,134.4,262,134.4z"/>
	<path class="st0" d="M268.5,137.4c0.1,1.5,0.8,1.8,1.8,1.8c1,0,1.6-0.3,1.6-0.3c0.3,0.3,0.5,0.8,0.5,1.3c0,0-0.8,0.6-2.4,0.6
		c-2.3,0-3.4-1.4-3.4-3.9c0-2.7,1.3-3.9,3.3-3.9c1.8,0,2.9,0.9,2.9,3c0,0.9-0.2,1.5-0.2,1.5H268.5z M269.9,134.4
		c-0.7,0-1.3,0.5-1.4,1.8h2.5c0-0.2,0-0.3,0-0.5C271.1,135,270.8,134.4,269.9,134.4z"/>
	<path class="st0" d="M280.3,140.5c0,0-0.3,0.1-0.9,0.1c-0.6,0-0.9-0.1-0.9-0.1v-5.1c0-0.6-0.3-1-1.1-1c-0.5,0-0.9,0.2-1.3,0.5v5.6
		c0,0-0.3,0.1-0.9,0.1c-0.6,0-0.9-0.1-0.9-0.1v-7.3c0,0,0.3-0.1,0.9-0.1c0.6,0,0.9,0.1,0.9,0.1v0.4c0.5-0.5,1.2-0.7,2-0.7
		c1.5,0,2.2,0.9,2.2,2.2V140.5z"/>
	<path class="st0" d="M284.6,133c1.5,0,2.1,0.4,2.1,0.4c0,0.5-0.1,1-0.5,1.3c0,0-0.7-0.2-1.5-0.2c-0.8,0-1.2,0.3-1.2,0.8
		c0,0.6,0.9,0.7,1.8,1c0.9,0.3,1.7,0.8,1.7,2.1c0,1.5-0.9,2.4-2.8,2.4c-1.6,0-2.5-0.5-2.5-0.5c0-0.5,0.2-1,0.5-1.3
		c0,0,0.9,0.3,1.9,0.3c0.8,0,1.1-0.3,1.1-0.8c0-0.6-0.7-0.8-1.5-1c-0.9-0.3-2-0.7-2-2.2C281.9,133.9,282.8,133,284.6,133z"/>
	<path class="st0" d="M290.4,131.9c0,0-0.3,0.1-0.9,0.1c-0.6,0-0.9-0.1-0.9-0.1v-1.6c0,0,0.3-0.1,0.9-0.1c0.6,0,0.9,0.1,0.9,0.1
		V131.9z M290.4,140.5c0,0-0.3,0.1-0.9,0.1c-0.6,0-0.9-0.1-0.9-0.1v-7.3c0,0,0.3-0.1,0.9-0.1c0.6,0,0.9,0.1,0.9,0.1V140.5z"/>
	<path class="st0" d="M294.6,137.9c0,1.2,0.4,1.5,1.4,1.5c0.2,0,0.5,0,0.5,0s0.1,0.3,0.1,0.7c0,0.4-0.1,0.6-0.1,0.6
		c-0.3,0.1-0.7,0.1-1.1,0.1c-1.8,0-2.6-1-2.6-2.8v-3.5h-1.1c0,0-0.1-0.3-0.1-0.7c0-0.4,0.1-0.7,0.1-0.7h1.1v-1.2
		c0.5-0.3,1.1-0.4,1.8-0.4v1.6h1.7c0,0,0.1,0.2,0.1,0.7c0,0.4-0.1,0.7-0.1,0.7h-1.7V137.9z"/>
</g>
<g class="st1">
	<path class="st0" d="M301.7,141.5c-0.6,1.8-1.1,2.8-2.9,2.8c-0.5,0-0.8-0.2-0.8-0.2s-0.1-0.3-0.1-0.7c0-0.4,0.1-0.7,0.1-0.7
		s0.4,0.1,0.7,0.1c0.7,0,1-0.1,1.4-1.5l0.2-0.6c-0.2,0-0.4,0-0.6-0.1l-2.6-7.3c0,0,0.3-0.1,0.9-0.1c0.6,0,0.9,0.1,0.9,0.1l1.3,3.8
		c0.4,1.1,0.5,1.8,0.5,1.8h0.1c0,0,0.1-0.7,0.5-1.8l1.2-3.8c0,0,0.3-0.1,0.9-0.1c0.5,0,0.8,0.1,0.8,0.1L301.7,141.5z"/>
</g>
<g class="st1">
	<path class="st0" d="M310,131.9c0,0-0.3,0.1-0.9,0.1c-0.6,0-0.9-0.1-0.9-0.1v-1.6c0,0,0.3-0.1,0.9-0.1c0.6,0,0.9,0.1,0.9,0.1V131.9
		z M310,140.5c0,0-0.3,0.1-0.9,0.1c-0.6,0-0.9-0.1-0.9-0.1v-7.3c0,0,0.3-0.1,0.9-0.1c0.6,0,0.9,0.1,0.9,0.1V140.5z"/>
	<path class="st0" d="M317.9,140.5c0,0-0.3,0.1-0.9,0.1c-0.6,0-0.9-0.1-0.9-0.1v-5.1c0-0.6-0.3-1-1.1-1c-0.5,0-0.9,0.2-1.3,0.5v5.6
		c0,0-0.3,0.1-0.9,0.1c-0.6,0-0.9-0.1-0.9-0.1v-7.3c0,0,0.3-0.1,0.9-0.1c0.6,0,0.9,0.1,0.9,0.1v0.4c0.5-0.5,1.2-0.7,2-0.7
		c1.5,0,2.2,0.9,2.2,2.2V140.5z"/>
</g>
<g class="st1">
	<path class="st0" d="M327.6,137.1c-0.2-0.8-0.3-1.6-0.3-2.2h-0.1c0,0.6-0.1,1.4-0.4,2.2l-0.9,3.4c-0.3,0.1-0.7,0.1-1.1,0.1
		c-0.4,0-0.8,0-1.1-0.1l-2-7.3c0,0,0.3-0.1,0.9-0.1c0.6,0,0.8,0.1,0.8,0.1l1.2,4.1c0.2,0.6,0.2,1.1,0.3,1.5h0
		c0.1-0.4,0.2-0.9,0.3-1.5l1.1-4.1c0,0,0.5-0.1,1-0.1c0.6,0,0.9,0.1,0.9,0.1l1,4.1c0.1,0.6,0.2,1.1,0.3,1.5h0
		c0.1-0.4,0.2-0.9,0.4-1.5l1.2-4.1c0,0,0.3-0.1,0.8-0.1c0.5,0,0.8,0.1,0.8,0.1l-2,7.3c-0.4,0.1-0.7,0.1-1.1,0.1
		c-0.4,0-0.7,0-1.1-0.1L327.6,137.1z"/>
</g>
<g class="st1">
	<path class="st0" d="M336.7,133c2,0,3.3,1.1,3.3,3.9c0,2.8-1.3,3.9-3.3,3.9c-2,0-3.3-1.1-3.3-3.9C333.4,134,334.7,133,336.7,133z
		 M336.7,134.3c-0.9,0-1.4,0.5-1.4,2.5c0,2,0.6,2.5,1.4,2.5s1.4-0.5,1.4-2.5C338.1,134.8,337.6,134.3,336.7,134.3z"/>
	<path class="st0" d="M349.3,133c1.4,0,2.2,0.9,2.2,2.2v5.4c0,0-0.3,0.1-0.9,0.1c-0.6,0-0.9-0.1-0.9-0.1v-5.1c0-0.6-0.3-1-1.1-1
		c-0.5,0-0.9,0.2-1.2,0.5v5.6c0,0-0.3,0.1-0.9,0.1c-0.6,0-0.9-0.1-0.9-0.1v-5.1c0-0.6-0.3-1-1.1-1c-0.4,0-0.9,0.2-1.2,0.5v5.6
		c0,0-0.3,0.1-0.9,0.1c-0.6,0-0.9-0.1-0.9-0.1v-7.3c0,0,0.3-0.1,0.9-0.1c0.6,0,0.9,0.1,0.9,0.1v0.4c0.5-0.4,1.2-0.7,1.9-0.7
		c0.8,0,1.4,0.2,1.8,0.8C347.7,133.2,348.4,133,349.3,133z"/>
	<path class="st0" d="M354.8,137.4c0.1,1.5,0.8,1.8,1.8,1.8c1,0,1.6-0.3,1.6-0.3c0.3,0.3,0.5,0.8,0.5,1.3c0,0-0.8,0.6-2.4,0.6
		c-2.3,0-3.4-1.4-3.4-3.9c0-2.7,1.3-3.9,3.3-3.9c1.8,0,2.9,0.9,2.9,3c0,0.9-0.2,1.5-0.2,1.5H354.8z M356.3,134.4
		c-0.7,0-1.3,0.5-1.4,1.8h2.5c0-0.2,0-0.3,0-0.5C357.4,135,357.2,134.4,356.3,134.4z"/>
	<path class="st0" d="M366.7,140.5c0,0-0.3,0.1-0.9,0.1c-0.6,0-0.9-0.1-0.9-0.1v-5.1c0-0.6-0.3-1-1.1-1c-0.5,0-0.9,0.2-1.3,0.5v5.6
		c0,0-0.3,0.1-0.9,0.1c-0.6,0-0.9-0.1-0.9-0.1v-7.3c0,0,0.3-0.1,0.9-0.1c0.6,0,0.9,0.1,0.9,0.1v0.4c0.5-0.5,1.2-0.7,2-0.7
		c1.5,0,2.2,0.9,2.2,2.2V140.5z"/>
</g>
<path class="st0" d="M26.7,20.3h0.9c0.2,0,0.4,0.2,0.4,0.4v6.6c0,0.2-0.2,0.4-0.4,0.4h-0.9c-0.2,0-0.4-0.2-0.4-0.4v-6.6
	C26.2,20.4,26.4,20.3,26.7,20.3z"/>
<path class="st0" d="M33.1,20.3H34c0.2,0,0.4,0.2,0.4,0.4v6.6c0,0.2-0.2,0.4-0.4,0.4h-0.9c-0.2,0-0.4-0.2-0.4-0.4v-6.6
	C32.7,20.4,32.9,20.3,33.1,20.3z"/>
<path class="st0" d="M39.8,20.3h0.9c0.2,0,0.4,0.2,0.4,0.4v6.6c0,0.2-0.2,0.4-0.4,0.4h-0.9c-0.2,0-0.4-0.2-0.4-0.4v-6.6
	C39.4,20.4,39.6,20.3,39.8,20.3z"/>
<path class="st0" d="M46.2,20.3h0.9c0.2,0,0.4,0.2,0.4,0.4v6.6c0,0.2-0.2,0.4-0.4,0.4h-0.9c-0.2,0-0.4-0.2-0.4-0.4v-6.6
	C45.8,20.4,46,20.3,46.2,20.3z"/>
<path class="st0" d="M52.7,20.3h0.9c0.2,0,0.4,0.2,0.4,0.4v6.6c0,0.2-0.2,0.4-0.4,0.4h-0.9c-0.2,0-0.4-0.2-0.4-0.4v-6.6
	C52.3,20.4,52.4,20.3,52.7,20.3z"/>
<path class="st0" d="M59.4,20.3h0.9c0.2,0,0.4,0.2,0.4,0.4v6.6c0,0.2-0.2,0.4-0.4,0.4h-0.9c-0.2,0-0.4-0.2-0.4-0.4v-6.6
	C59,20.4,59.2,20.3,59.4,20.3z"/>
<path class="st0" d="M72.7,24.8c-0.2-0.5-0.5-0.8-1-1c-1.2-0.1-2.5-0.1-3.7,0l0,0v1.6c0,0.2,0,0.5,0,0.7c0,0.1,0,0.1,0,0.2v1.7
	c0,0.5-0.4,0.9-0.9,0.9h-2.1c-0.5,0-0.9-0.4-0.9-0.9v-4.1c-0.7,0-1.5,0-2.2,0.1v4c0,0.5-0.4,0.9-0.9,0.9h-2.1
	c-0.5,0-0.9-0.4-0.9-0.9v-4c0,0-0.1-0.1-0.1-0.1c-0.9-0.1-1.7-0.1-2.6,0.1c0,0-0.1,0.1-0.1,0.2V28c0,0.5-0.4,0.9-0.9,0.9h-2.1
	c-0.5,0-0.9-0.4-0.9-0.9v-4.2c-0.5-0.1-1-0.1-1.5,0c-0.3,0-0.7,0-1,0.2v4c0,0.5-0.4,0.9-0.9,0.9h-2.1c-0.5,0-0.9-0.4-0.9-0.9v-4
	c-0.8-0.1-1.7-0.1-2.5,0v4c0,0.5-0.4,0.9-0.9,0.9h-2.1c-0.5,0-0.9-0.4-0.9-0.9v-4.1h0c-0.9-0.1-1.7,0-2.6,0.1c-0.2,0.1,0,1.3,0,1.9
	c0,0.1,0.1,0.2,0,0.3s-0.1,0.3-0.2,0.5V28c0,0.5-0.4,0.9-0.9,0.9h-2.1c-0.5,0-0.9-0.4-0.9-0.9l0,0v-4.1c-0.8-0.1-1.6,0-2.4,0.1
	c-0.2,0,0,1.3-0.1,1.9c0,0.1,0,0.1,0,0.2V28c0,0.5-0.4,0.9-0.9,0.9l0,0H26c-0.5,0-0.9-0.4-0.9-0.9l0,0v-4.2l0,0c-1.1,0-2.1,0-3,0
	s-1.3,0.5-1.3,1.4c0,1.1,0,2.3,0,3.4c0,2.1,0.1,2.2,2.2,2.2h47.5c0.4,0,0.8,0.1,1.1,0c0.4-0.3,1.1-0.7,1.1-1.1
	C72.8,28.1,72.8,26.4,72.7,24.8z"/>
<path class="st0" d="M65.5,20.3h0.9c0.2,0,0.4,0.2,0.4,0.4v6.6c0,0.2-0.2,0.4-0.4,0.4h-0.9c-0.2,0-0.4-0.2-0.4-0.4v-6.6
	C65.1,20.4,65.3,20.3,65.5,20.3z"/>
<path class="st0" d="M48.8,32h22c1.7,0,1.9,0.2,1.9,2.3c0,11.7,0,23.4,0,35.1c0,2.1-0.2,2.3-1.8,2.3c-16.2,0-30.8,0-48.3,0
	c-1.8,0-2-0.3-2-2.3c0-11.8,0-23.5,0-35.3c0-2,0.2-2.2,2.1-2.2L48.8,32z M35,69.3c0-1.5,0-2.9,0-4.2s-1.1-1.3-1.8-1.2
	c-1.2,0.3-3.2-1.1-3.5,1.1c-0.6,4.2-0.2,4.6,4,4.4C33.9,69.5,34.3,69.4,35,69.3z M27.8,66.8c0-2.9,0-2.9-2.6-2.9
	c-2.8,0-2.9,0-2.8,2.6c0,3.2-0.5,3,2.8,3S27.7,69.6,27.8,66.8L27.8,66.8z M51.1,66.6c0.1,3-0.5,2.9,2.7,2.9c2.6,0,2.6,0,2.6-2.8
	s0-2.8-2.6-2.8S51.1,63.9,51.1,66.6L51.1,66.6z M49.3,69.5c0-1.7,0.1-3.1,0-4.5c-0.1-0.5-0.5-0.8-0.9-1c-1.2-0.1-2.3-0.1-3.5,0
	c-1.2,0.1-1,1.1-0.9,1.8c0.2,1.3-1,3.1,0.8,3.7C46.1,69.8,47.6,69.5,49.3,69.5L49.3,69.5z M39.3,69.5c3.2,0,2.8,0.1,2.8-2.6
	c0-3,0-3-2.5-3c-2.9,0-2.9,0-2.9,2.8C36.8,69.8,36.5,69.5,39.3,69.5L39.3,69.5z M36.8,44.3c0,3.3-0.2,2.9,2.9,2.9
	c2.4,0,2.4,0,2.4-2.9c0-3.2,0.3-2.5-3.5-2.7C36,41.5,36.9,43.2,36.8,44.3z M61,56.5c-2.8,0-2.8,0-2.8,2.6c0,3,0,3,2.5,3
	c3,0,3,0,3-2.6C63.6,56.2,63.9,56.5,61,56.5z M49.3,59.4c0-2.9,0-2.9-2.4-2.9c-3.2,0-3-0.4-3,2.5c0,3.2-0.4,3,2.8,3
	C49.3,62.1,49.3,62.1,49.3,59.4z M32.3,56.5c-2.8,0-2.8,0-2.8,2.7c0,2.9,0,2.9,2.7,2.9s2.8,0,2.7-2.7C35,56.2,35.3,56.5,32.3,56.5
	L32.3,56.5z M27.8,59.2c0-2.7,0-2.7-2.4-2.7c-3.2,0-3-0.4-3,2.8c0,2.8,0,2.8,2.7,2.8C28.1,62.1,27.7,62.3,27.8,59.2z M68.1,54.6
	c3.1,0,2.7,0.3,2.7-3c0-2.5,0-2.5-2.6-2.5s-2.8,0-2.8,2.7C65.4,54.9,65.1,54.6,68.1,54.6z M60.9,54.6c2.8,0,2.8,0,2.8-2.7
	c0-3,0.4-2.8-2.8-2.9c-2.7,0-2.7,0-2.7,2.8S58.2,54.6,60.9,54.6z M46.5,54.6c2.8,0,2.8,0,2.8-2.6c0-2.9,0-2.9-2.7-2.9
	s-2.7,0-2.7,2.6C43.9,54.9,43.6,54.6,46.5,54.6z M32.2,54.6c3,0,2.8,0.3,2.8-2.6s0-2.9-2.5-2.9c-2.9,0-2.9,0-2.9,2.6
	C29.6,54.9,29.2,54.6,32.2,54.6z M27.8,52c0-2.9,0-2.9-2.5-2.9c-2.9,0-2.9,0-2.9,2.7c0,3.2-0.2,2.8,2.8,2.8
	C27.8,54.7,27.8,54.6,27.8,52z M70.8,44.5c0-2.8,0-2.8-2.5-2.8c-3.2,0-2.9-0.3-2.9,2.6s-0.4,2.9,2.7,2.9
	C70.8,47.3,70.8,47.3,70.8,44.5L70.8,44.5z M60.9,41.7c-2.7,0-2.8,0-2.7,2.5c0,3.3-0.4,3.1,2.7,3.1c2.8,0,2.8,0,2.8-2.9
	S63.6,41.7,60.9,41.7L60.9,41.7z M49.3,44.4c0-3,0.3-2.7-2.9-2.7c-2.9,0-2.5-0.2-2.5,3.1c0,2.5,0,2.5,2.8,2.5
	C49.3,47.3,49.3,47.3,49.3,44.4z M35,44.5c0-2.8,0-2.8-2.5-2.8c-3.2,0-3-0.3-3,2.6s0,3,2.6,3C35.3,47.3,34.9,47.4,35,44.5z
	 M25.2,41.7c-2.8,0-2.8,0-2.8,2.6c0,3,0,3,2.5,3c2.9,0,2.9,0,2.9-2.5C27.7,41.4,28.1,41.7,25.2,41.7L25.2,41.7z M56.4,44.3
	c0-2.6,0-2.6-2.3-2.6c-3.4,0-3-0.4-3.1,2.8c0,2.8,0,2.8,2.7,2.8S56.4,47.3,56.4,44.3z M68.1,39.8c2.8,0,2.7,0.4,2.7-2.7
	c0-2.9,0-2.9-2.7-2.9c-3,0-2.7-0.2-2.7,2.9S65.2,39.8,68.1,39.8z M61,39.8c2.8,0,2.7,0.4,2.7-2.8s0.2-2.8-3-2.8c-2.5,0-2.5,0-2.5,3
	S58,39.8,61,39.8L61,39.8z M56.1,39.8c1.1-4.8,0.3-5.9-3.8-5.6c-0.1,0-0.1,0-0.2,0c-0.4,0.4-1.1,0.9-1,1.3c0.2,1.4-0.8,3,0.6,4.3
	c0,0,0.1,0,0.2,0L56.1,39.8z M46.6,39.8c2.9,0,2.7,0.4,2.7-2.7s0.3-2.9-2.8-2.9c-2.6,0-2.6,0-2.6,2.9C43.9,40.2,43.7,39.8,46.6,39.8
	z M68.2,56.5c-3,0-2.8-0.3-2.8,2.5c0,3.2-0.5,3.1,2.5,3.1s2.9,0,2.9-2.7S70.8,56.5,68.2,56.5z M36.9,54.6c1.5,0,2.8,0,4.2,0
	c0.3,0,0.9-0.4,0.9-0.7c0.1-1.4,0.1-2.7,0-4.1c0-0.3-0.6-0.6-0.9-0.7c-3.9-0.7-4.4-0.2-4.3,3.8C36.8,53.4,36.8,53.9,36.9,54.6z
	 M53.8,54.6c2.8,0,2.7,0.4,2.7-2.8c0-2.8,0-2.8-2.5-2.8c-2.8,0-2.8,0-2.8,2.8C51.1,54.9,50.8,54.6,53.8,54.6L53.8,54.6z M37,56.5
	c-1.1,4.8-0.3,5.9,3.8,5.5c0.1,0,0.3,0,0.3,0c0.3-0.6,0.9-1.3,0.8-1.8c-0.2-1.2,0.9-2.8-0.7-3.7c-0.1,0-0.1,0-0.2,0L37,56.5z
	 M51,59.2c0,2.9,0,2.9,2.5,2.9c2.8,0,2.8,0,2.8-2.7c0-2.9,0-2.9-2.4-2.9C50.9,56.5,51.1,56.1,51,59.2L51,59.2z"/>
</svg>
