<?xml version="1.0" encoding="utf-8"?>
<!-- Generator: Adobe Illustrator 23.0.1, SVG Export Plug-In . SVG Version: 6.00 Build 0)  -->
<svg version="1.1" id="Layer_1" xmlns="http://www.w3.org/2000/svg" xmlns:xlink="http://www.w3.org/1999/xlink" x="0px" y="0px"
	 viewBox="0 0 375 157" style="enable-background:new 0 0 375 157;" xml:space="preserve">
<style type="text/css">
	.st0{fill:#FFFFFF;}
	.st1{font-family:'GloberBold';}
	.st2{font-size:16.08px;}
	.st3{fill:none;stroke:#FFFFFF;stroke-width:3.77;stroke-linecap:round;stroke-linejoin:round;stroke-dasharray:0.47,7.54;}
	.st4{font-size:45.24px;}
	.st5{font-size:15.76px;}
	.st6{font-size:43.36px;}
	.st7{font-size:43.5422px;}
	.st8{font-size:25.257px;}
	.st9{font-size:14.29px;}
</style>
<title>bone-study-3-mobile</title>
<path class="st0" d="M309,27.5c-3.2,0.1-23.2,0.3-27.2,0.5c-0.6,0-1.3,0.1-1.9,0.3c-2.1,0.8-4,1.6-6.6,1.2c-2.3-0.4-3.7,1.4-3.9,3.7
	c-0.2,1.9-1,2.8-2.7,3c-1.7,0.1-3.3-0.9-4-2.4c-0.6-1.5,0-3.2,1.4-4.1c1-0.6,1.8-1.3,2.5-2.2c1-1.4,0.6-2.5-1.1-3.1
	c-1.3-0.5-1.4-1.2-0.3-2.1c2.8-2.3,5.1-2.3,8.5-0.9c2,0.8,4,1.1,6.1,1.2c11.7,0.3,25.8,0.5,37.6,0.6c4.2,0,20.8-0.6,25-1
	c1.8-0.2,3.5-1,4.8-2.3c1-1.1,2.4-1.7,3.8-1.7c0.6,0,1.2-0.1,1.9-0.2c1.1-0.2,2.3-0.7,3,0.8s0.3,3.7-1,4.4c-0.8,0.5-1.8,0.9-1.3,1.9
	c0.4,0.7,1.1,1.3,1.9,1.6c1.1,0.3,1.8,1.3,1.7,2.5c0.1,1.1-0.6,2.1-1.6,2.5c-3.1,1.7-6,1.2-9-0.3c-4.5-2.1-21.9-2.8-26.8-3
	C311.9,28,317.7,27.8,309,27.5z"/>
<path class="st0" d="M175.4,52v1.6c0,4,0,8,0,12c-0.1,1,0.6,1.9,1.6,2c0.1,0,0.2,0,0.2,0c1,0.2,2-0.6,2.1-1.6c0-0.1,0-0.1,0-0.2
	c0.1-0.5,0.1-1,0.1-1.4v-11c0-0.5,0.1-0.9,0.1-1.5h2.8c-0.1-0.5-0.1-0.8-0.2-1.2c-0.7-2.8-1.4-5.7-2.2-8.5c-0.6-2.2-1.1-4.4-1.7-6.6
	c-0.1-0.2,0.2-0.6,0.3-0.9c0.2,0.2,0.4,0.4,0.6,0.6c0.1,0.2,0.2,0.4,0.2,0.6c0.9,3.5,1.9,6.9,2.8,10.4c0.4,1.5,1.2,2.2,2.2,1.8
	s1.3-1.1,0.9-2.6c-1.2-4.5-2.5-9-3.8-13.5c-0.2-1.2-1.3-2-2.5-1.8c-2.9,0-5.9,0-8.8,0c-1.6,0-2.1,0.4-2.6,2.1
	c-0.7,2.6-1.4,5.1-2.1,7.7c-0.5,1.9-1.1,3.9-1.6,5.8c-0.3,1.1-0.2,1.9,1,2.4c0.9,0.3,1.7-0.2,2-1.5c0.1-0.2,0.1-0.5,0.2-0.8
	c0.9-3.4,1.9-6.8,2.9-10.3c0.2-0.4,0.4-0.7,0.7-1c0.1,0.4,0.2,0.7,0.1,1.1c-1.2,4.6-2.4,9.2-3.5,13.9c-0.2,0.7-0.3,1.4-0.5,2.3h3
	v1.5c0,3.6,0,7.2,0,10.8c0,2.4,0.6,3.3,2.1,3.2s2-0.9,2-3.3c0-3.6,0-7.2,0-10.8c0-0.5,0-0.9,0.1-1.5L175.4,52z M170.4,24.7
	c0,2.3,1.8,4.2,4.1,4.2c0.1,0,0.1,0,0.2,0c2.3,0,4.2-1.9,4.2-4.2c0,0,0-0.1,0-0.1c0-2.3-1.9-4.1-4.2-4.1c0,0,0,0,0,0
	c-2.2-0.1-4.1,1.6-4.2,3.9C170.4,24.5,170.4,24.6,170.4,24.7L170.4,24.7z"/>
<path class="st0" d="M175.9,52h-1.6c0,0.5-0.1,1-0.1,1.5v10.8c0,2.4-0.5,3.3-2,3.3s-2.1-0.9-2.1-3.2c0-3.6,0-7.2,0-10.8v-1.6h-3
	c0.2-0.9,0.3-1.6,0.5-2.3c1.2-4.6,2.4-9.2,3.5-13.9c0-0.4,0-0.8-0.1-1.1c-0.3,0.3-0.5,0.6-0.7,1c-1,3.4-1.9,6.8-2.8,10.3
	c-0.1,0.3-0.1,0.5-0.2,0.8c-0.4,1.2-1.1,1.8-2.1,1.5c-1.1-0.4-1.2-1.3-0.9-2.4c0.6-1.9,1.1-3.9,1.6-5.8c0.7-2.6,1.4-5.2,2.1-7.7
	c0.4-1.6,0.9-2,2.6-2.1c2.9,0,5.9,0,8.8,0c1.2-0.2,2.3,0.6,2.5,1.8c1.2,4.5,2.5,9,3.8,13.5c0.4,1.5,0.1,2.3-0.9,2.6
	s-1.8-0.3-2.2-1.8c-0.9-3.5-1.9-6.9-2.8-10.4c0-0.2-0.1-0.4-0.2-0.6c-0.2-0.2-0.4-0.4-0.6-0.6c-0.1,0.3-0.3,0.6-0.3,0.9
	c0.5,2.2,1.1,4.4,1.7,6.6c0.7,2.8,1.4,5.7,2.2,8.5c0.1,0.3,0.1,0.7,0.2,1.2h-2.8c0,0.6-0.1,1-0.1,1.5c0,3.6,0,7.3,0,10.9
	c0,0.5,0,1-0.1,1.4c0,1-0.9,1.9-2,1.8c-0.1,0-0.1,0-0.2,0c-1,0-1.8-0.8-1.8-1.8c0-0.1,0-0.1,0-0.2c0-4,0-8,0-12L175.9,52z"/>
<path class="st0" d="M170.4,24.7c-0.1-2.2,1.6-4.1,3.9-4.2c0.1,0,0.2,0,0.3,0c2.3,0,4.2,1.8,4.2,4.1c0,0,0,0,0,0
	c0.1,2.3-1.7,4.3-4.1,4.3c0,0-0.1,0-0.1,0c-2.3,0.1-4.2-1.7-4.3-4C170.4,24.8,170.4,24.8,170.4,24.7z"/>
<text transform="matrix(1 0 0 1 131 138.6399)" class="st0 st1 st2">P</text>
<text transform="matrix(1 0 0 1 140.55 138.6399)" class="st0 st1 st2">articipants</text>
<line class="st3" x1="105.3" y1="166.1" x2="105.3" y2="-9.1"/>
<line class="st3" x1="238.9" y1="166.1" x2="238.9" y2="-9.1"/>
<text transform="matrix(1 0 0 1 7.45 128.03)" class="st0 st1 st4">7</text>
<text transform="matrix(1 0 0 1 38.88 109.29)" class="st0 st1 st5">Y</text>
<text transform="matrix(1 0 0 1 47.88 109.29)" class="st0 st1 st5">ear</text>
<text transform="matrix(1 0 0 1 38.88 128.2)" class="st0 st1 st5">S</text>
<text transform="matrix(1 0 0 1 47.68 128.2)" class="st0 st1 st5">tud</text>
<text transform="matrix(1 0 0 1 71.2 128.2)" class="st0 st1 st5">y</text>
<text transform="matrix(1 1.745329e-04 -1.745329e-04 1 143.72 115.28)" class="st0 st1 st6">172</text>
<text transform="matrix(0.9999 9.999500e-03 -9.999500e-03 0.9999 262.3798 82.5498)" class="st0 st1 st7">1</text>
<text transform="matrix(0.9999 9.999500e-03 -9.999500e-03 0.9999 280.8398 82.7344)" class="st0 st1 st7">.</text>
<text transform="matrix(0.9999 9.999500e-03 -9.999500e-03 0.9999 290.8696 82.8347)" class="st0 st1 st7">04</text>
<text transform="matrix(0.9999 1.723882e-02 -1.723882e-02 0.9999 343.2696 68.8702)" class="st0 st1 st8">%</text>
<text transform="matrix(1 0 0 1 264.5 108.97)" class="st0 st1 st9">A</text>
<text transform="matrix(1 0 0 1 273.51 108.97)" class="st0 st1 st9">v</text>
<text transform="matrix(1 0 0 1 280.83 108.97)" class="st0 st1 st9">e</text>
<text transform="matrix(1 0 0 1 288.2 108.97)" class="st0 st1 st9">r</text>
<text transform="matrix(1 0 0 1 293.79 108.97)" class="st0 st1 st9">a</text>
<text transform="matrix(1 0 0 1 301.17 108.97)" class="st0 st1 st9">g</text>
<text transform="matrix(1 0 0 1 308.72 108.97)" class="st0 st1 st9">e annual</text>
<text transform="matrix(1 0 0 1 260.99 125.8)" class="st0 st1 st9">inc</text>
<text transform="matrix(1 0 0 1 278.9 125.8)" class="st0 st1 st9">r</text>
<text transform="matrix(1 0 0 1 284.4 125.8)" class="st0 st1 st9">ease in bone </text>
<text transform="matrix(1 0 0 1 258.06 142.64)" class="st0 st1 st9">densit</text>
<text transform="matrix(1 0 0 1 296.85 142.64)" class="st0 st1 st9">y</text>
<text transform="matrix(1 0 0 1 304.14 142.64)" class="st0 st1 st9"> in</text>
<text transform="matrix(1 0 0 1 318.74 142.64)" class="st0 st1 st9"> </text>
<text transform="matrix(1 0 0 1 321.52 142.64)" class="st0 st1 st9">w</text>
<text transform="matrix(1 0 0 1 332.8 142.64)" class="st0 st1 st9">omen</text>
<path class="st0" d="M26.7,20.3h0.9c0.2,0,0.4,0.2,0.4,0.4v6.6c0,0.2-0.2,0.4-0.4,0.4h-0.9c-0.2,0-0.4-0.2-0.4-0.4v-6.6
	C26.2,20.4,26.4,20.3,26.7,20.3z"/>
<path class="st0" d="M33.1,20.3H34c0.2,0,0.4,0.2,0.4,0.4v6.6c0,0.2-0.2,0.4-0.4,0.4h-0.9c-0.2,0-0.4-0.2-0.4-0.4v-6.6
	C32.7,20.4,32.9,20.3,33.1,20.3z"/>
<path class="st0" d="M39.8,20.3h0.9c0.2,0,0.4,0.2,0.4,0.4v6.6c0,0.2-0.2,0.4-0.4,0.4h-0.9c-0.2,0-0.4-0.2-0.4-0.4v-6.6
	C39.4,20.4,39.6,20.3,39.8,20.3z"/>
<path class="st0" d="M46.2,20.3h0.9c0.2,0,0.4,0.2,0.4,0.4v6.6c0,0.2-0.2,0.4-0.4,0.4h-0.9c-0.2,0-0.4-0.2-0.4-0.4v-6.6
	C45.8,20.4,46,20.3,46.2,20.3z"/>
<path class="st0" d="M52.7,20.3h0.9c0.2,0,0.4,0.2,0.4,0.4v6.6c0,0.2-0.2,0.4-0.4,0.4h-0.9c-0.2,0-0.4-0.2-0.4-0.4v-6.6
	C52.3,20.4,52.4,20.3,52.7,20.3z"/>
<path class="st0" d="M59.4,20.3h0.9c0.2,0,0.4,0.2,0.4,0.4v6.6c0,0.2-0.2,0.4-0.4,0.4h-0.9c-0.2,0-0.4-0.2-0.4-0.4v-6.6
	C59,20.4,59.2,20.3,59.4,20.3z"/>
<path class="st0" d="M72.7,24.8c-0.2-0.5-0.5-0.8-1-1c-1.2-0.1-2.5-0.1-3.7,0l0,0v1.6c0,0.2,0,0.5,0,0.7c0,0.1,0,0.1,0,0.2v1.7
	c0,0.5-0.4,0.9-0.9,0.9h-2.1c-0.5,0-0.9-0.4-0.9-0.9v-4.1c-0.7,0-1.5,0-2.2,0.1v4c0,0.5-0.4,0.9-0.9,0.9h-2.1
	c-0.5,0-0.9-0.4-0.9-0.9v-4c0,0-0.1-0.1-0.1-0.1c-0.9-0.1-1.7-0.1-2.6,0.1c0,0-0.1,0.1-0.1,0.2V28c0,0.5-0.4,0.9-0.9,0.9h-2.1
	c-0.5,0-0.9-0.4-0.9-0.9v-4.2c-0.5-0.1-1-0.1-1.5,0c-0.3,0-0.7,0-1,0.2v4c0,0.5-0.4,0.9-0.9,0.9h-2.1c-0.5,0-0.9-0.4-0.9-0.9v-4
	c-0.8-0.1-1.7-0.1-2.5,0v4c0,0.5-0.4,0.9-0.9,0.9h-2.1c-0.5,0-0.9-0.4-0.9-0.9v-4.1h0c-0.9-0.1-1.7,0-2.6,0.1c-0.2,0.1,0,1.3,0,1.9
	c0,0.1,0.1,0.2,0,0.3s-0.1,0.3-0.2,0.5V28c0,0.5-0.4,0.9-0.9,0.9h-2.1c-0.5,0-0.9-0.4-0.9-0.9l0,0v-4.1c-0.8-0.1-1.6,0-2.4,0.1
	c-0.2,0,0,1.3-0.1,1.9c0,0.1,0,0.1,0,0.2V28c0,0.5-0.4,0.9-0.9,0.9l0,0H26c-0.5,0-0.9-0.4-0.9-0.9l0,0v-4.2l0,0c-1.1,0-2.1,0-3,0
	s-1.3,0.5-1.3,1.4c0,1.1,0,2.3,0,3.4c0,2.1,0.1,2.2,2.2,2.2h47.5c0.4,0,0.8,0.1,1.1,0c0.4-0.3,1.1-0.7,1.1-1.1
	C72.8,28.1,72.8,26.4,72.7,24.8z"/>
<path class="st0" d="M65.5,20.3h0.9c0.2,0,0.4,0.2,0.4,0.4v6.6c0,0.2-0.2,0.4-0.4,0.4h-0.9c-0.2,0-0.4-0.2-0.4-0.4v-6.6
	C65.1,20.4,65.3,20.3,65.5,20.3z"/>
<path class="st0" d="M48.8,32h22c1.7,0,1.9,0.2,1.9,2.3c0,11.7,0,23.4,0,35.1c0,2.1-0.2,2.3-1.8,2.3c-16.2,0-30.8,0-48.3,0
	c-1.8,0-2-0.3-2-2.3c0-11.8,0-23.5,0-35.3c0-2,0.2-2.2,2.1-2.2L48.8,32z M35,69.3c0-1.5,0-2.9,0-4.2s-1.1-1.3-1.8-1.2
	c-1.2,0.3-3.2-1.1-3.5,1.1c-0.6,4.2-0.2,4.6,4,4.4C33.9,69.5,34.3,69.4,35,69.3z M27.8,66.8c0-2.9,0-2.9-2.6-2.9
	c-2.8,0-2.9,0-2.8,2.6c0,3.2-0.5,3,2.8,3S27.7,69.6,27.8,66.8L27.8,66.8z M51.1,66.6c0.1,3-0.5,2.9,2.7,2.9c2.6,0,2.6,0,2.6-2.8
	s0-2.8-2.6-2.8S51.1,63.9,51.1,66.6L51.1,66.6z M49.3,69.5c0-1.7,0.1-3.1,0-4.5c-0.1-0.5-0.5-0.8-0.9-1c-1.2-0.1-2.3-0.1-3.5,0
	c-1.2,0.1-1,1.1-0.9,1.8c0.2,1.3-1,3.1,0.8,3.7C46.1,69.8,47.6,69.5,49.3,69.5L49.3,69.5z M39.3,69.5c3.2,0,2.8,0.1,2.8-2.6
	c0-3,0-3-2.5-3c-2.9,0-2.9,0-2.9,2.8C36.8,69.8,36.5,69.5,39.3,69.5L39.3,69.5z M36.8,44.3c0,3.3-0.2,2.9,2.9,2.9
	c2.4,0,2.4,0,2.4-2.9c0-3.2,0.3-2.5-3.5-2.7C36,41.5,36.9,43.2,36.8,44.3z M61,56.5c-2.8,0-2.8,0-2.8,2.6c0,3,0,3,2.5,3
	c3,0,3,0,3-2.6C63.6,56.2,63.9,56.5,61,56.5z M49.3,59.4c0-2.9,0-2.9-2.4-2.9c-3.2,0-3-0.4-3,2.5c0,3.2-0.4,3,2.8,3
	C49.3,62.1,49.3,62.1,49.3,59.4z M32.3,56.5c-2.8,0-2.8,0-2.8,2.7c0,2.9,0,2.9,2.7,2.9s2.8,0,2.7-2.7C35,56.2,35.3,56.5,32.3,56.5
	L32.3,56.5z M27.8,59.2c0-2.7,0-2.7-2.4-2.7c-3.2,0-3-0.4-3,2.8c0,2.8,0,2.8,2.7,2.8C28.1,62.1,27.7,62.3,27.8,59.2z M68.1,54.6
	c3.1,0,2.7,0.3,2.7-3c0-2.5,0-2.5-2.6-2.5s-2.8,0-2.8,2.7C65.4,54.9,65.1,54.6,68.1,54.6z M60.9,54.6c2.8,0,2.8,0,2.8-2.7
	c0-3,0.4-2.8-2.8-2.9c-2.7,0-2.7,0-2.7,2.8S58.2,54.6,60.9,54.6z M46.5,54.6c2.8,0,2.8,0,2.8-2.6c0-2.9,0-2.9-2.7-2.9
	s-2.7,0-2.7,2.6C43.9,54.9,43.6,54.6,46.5,54.6z M32.2,54.6c3,0,2.8,0.3,2.8-2.6s0-2.9-2.5-2.9c-2.9,0-2.9,0-2.9,2.6
	C29.6,54.9,29.2,54.6,32.2,54.6z M27.8,52c0-2.9,0-2.9-2.5-2.9c-2.9,0-2.9,0-2.9,2.7c0,3.2-0.2,2.8,2.8,2.8
	C27.8,54.7,27.8,54.6,27.8,52z M70.8,44.5c0-2.8,0-2.8-2.5-2.8c-3.2,0-2.9-0.3-2.9,2.6s-0.4,2.9,2.7,2.9
	C70.8,47.3,70.8,47.3,70.8,44.5L70.8,44.5z M60.9,41.7c-2.7,0-2.8,0-2.7,2.5c0,3.3-0.4,3.1,2.7,3.1c2.8,0,2.8,0,2.8-2.9
	S63.6,41.7,60.9,41.7L60.9,41.7z M49.3,44.4c0-3,0.3-2.7-2.9-2.7c-2.9,0-2.5-0.2-2.5,3.1c0,2.5,0,2.5,2.8,2.5
	C49.3,47.3,49.3,47.3,49.3,44.4z M35,44.5c0-2.8,0-2.8-2.5-2.8c-3.2,0-3-0.3-3,2.6s0,3,2.6,3C35.3,47.3,34.9,47.4,35,44.5z
	 M25.2,41.7c-2.8,0-2.8,0-2.8,2.6c0,3,0,3,2.5,3c2.9,0,2.9,0,2.9-2.5C27.7,41.4,28.1,41.7,25.2,41.7L25.2,41.7z M56.4,44.3
	c0-2.6,0-2.6-2.3-2.6c-3.4,0-3-0.4-3.1,2.8c0,2.8,0,2.8,2.7,2.8S56.4,47.3,56.4,44.3z M68.1,39.8c2.8,0,2.7,0.4,2.7-2.7
	c0-2.9,0-2.9-2.7-2.9c-3,0-2.7-0.2-2.7,2.9S65.2,39.8,68.1,39.8z M61,39.8c2.8,0,2.7,0.4,2.7-2.8s0.2-2.8-3-2.8c-2.5,0-2.5,0-2.5,3
	S58,39.8,61,39.8L61,39.8z M56.1,39.8c1.1-4.8,0.3-5.9-3.8-5.6c-0.1,0-0.1,0-0.2,0c-0.4,0.4-1.1,0.9-1,1.3c0.2,1.4-0.8,3,0.6,4.3
	c0,0,0.1,0,0.2,0L56.1,39.8z M46.6,39.8c2.9,0,2.7,0.4,2.7-2.7s0.3-2.9-2.8-2.9c-2.6,0-2.6,0-2.6,2.9C43.9,40.2,43.7,39.8,46.6,39.8
	z M68.2,56.5c-3,0-2.8-0.3-2.8,2.5c0,3.2-0.5,3.1,2.5,3.1s2.9,0,2.9-2.7S70.8,56.5,68.2,56.5z M36.9,54.6c1.5,0,2.8,0,4.2,0
	c0.3,0,0.9-0.4,0.9-0.7c0.1-1.4,0.1-2.7,0-4.1c0-0.3-0.6-0.6-0.9-0.7c-3.9-0.7-4.4-0.2-4.3,3.8C36.8,53.4,36.8,53.9,36.9,54.6z
	 M53.8,54.6c2.8,0,2.7,0.4,2.7-2.8c0-2.8,0-2.8-2.5-2.8c-2.8,0-2.8,0-2.8,2.8C51.1,54.9,50.8,54.6,53.8,54.6L53.8,54.6z M37,56.5
	c-1.1,4.8-0.3,5.9,3.8,5.5c0.1,0,0.3,0,0.3,0c0.3-0.6,0.9-1.3,0.8-1.8c-0.2-1.2,0.9-2.8-0.7-3.7c-0.1,0-0.1,0-0.2,0L37,56.5z
	 M51,59.2c0,2.9,0,2.9,2.5,2.9c2.8,0,2.8,0,2.8-2.7c0-2.9,0-2.9-2.4-2.9C50.9,56.5,51.1,56.1,51,59.2L51,59.2z"/>
</svg>
