<svg xmlns="http://www.w3.org/2000/svg" viewBox="0 0 375 157"><defs xmlns="http://www.w3.org/2000/svg"><style type="text/css"><![CDATA[@font-face {font-family: 'GloberBook';src: url('/assets/fonts/webfonts/316613_0_0.eot');src: url('/assets/fonts/webfonts/316613_0_0.eot?#iefix') format('embedded-opentype'),url('/assets/fonts/webfonts/316613_0_0.woff2') format('woff2'),url('/assets/fonts/webfonts/316613_0_0.woff') format('woff'),url('/assets/fonts/webfonts/316613_0_0.ttf') format('truetype');}@font-face {font-family: 'Glober';font-weight: bold;font-style: normal;src: url('/assets/fonts/webfonts/316613_1_0.eot');src: url('/assets/fonts/webfonts/316613_1_0.eot?#iefix') format('embedded-opentype'),url('/assets/fonts/webfonts/316613_1_0.woff2') format('woff2'),url('/assets/fonts/webfonts/316613_1_0.woff') format('woff'),url('/assets/fonts/webfonts/316613_1_0.ttf') format('truetype');}@font-face {font-family: 'Glober';font-weight: bold;font-style: italic;src: url('/assets/fonts/webfonts/316613_2_0.eot');src: url('/assets/fonts/webfonts/316613_2_0.eot?#iefix') format('embedded-opentype'),url('/assets/fonts/webfonts/316613_2_0.woff2') format('woff2'),url('/assets/fonts/webfonts/316613_2_0.woff') format('woff'),url('/assets/fonts/webfonts/316613_2_0.ttf') format('truetype');}@font-face {font-family: 'GloberBookItalic';src: url('/assets/fonts/webfonts/316613_3_0.eot');src: url('/assets/fonts/webfonts/316613_3_0.eot?#iefix') format('embedded-opentype'),url('/assets/fonts/webfonts/316613_3_0.woff2') format('woff2'),url('/assets/fonts/webfonts/316613_3_0.woff') format('woff'),url('/assets/fonts/webfonts/316613_3_0.ttf') format('truetype');}@font-face {font-family: 'Glober';font-weight: normal;font-style: normal;src: url('/assets/fonts/webfonts/316613_4_0.eot');src: url('/assets/fonts/webfonts/316613_4_0.eot?#iefix') format('embedded-opentype'),url('/assets/fonts/webfonts/316613_4_0.woff2') format('woff2'),url('/assets/fonts/webfonts/316613_4_0.woff') format('woff'),url('/assets/fonts/webfonts/316613_4_0.ttf') format('truetype');}@font-face {font-family: 'Glober';font-weight: normal;font-style: italic;src: url('/assets/fonts/webfonts/316613_5_0.eot');src: url('/assets/fonts/webfonts/316613_5_0.eot?#iefix') format('embedded-opentype'),url('/assets/fonts/webfonts/316613_5_0.woff2') format('woff2'),url('/assets/fonts/webfonts/316613_5_0.woff') format('woff'),url('/assets/fonts/webfonts/316613_5_0.ttf') format('truetype');}]]></style></defs><title>bone-study-3-mobile</title><path d="M309,27.53c-3.16.15-23.23.33-27.21.54a6.76,6.76,0,0,0-1.85.31c-2.11.76-4,1.64-6.56,1.24-2.31-.37-3.71,1.4-3.94,3.72-.19,1.93-1,2.81-2.73,3a4.11,4.11,0,0,1-4-2.43,3.4,3.4,0,0,1,1.35-4.06,10.75,10.75,0,0,0,2.53-2.2c1-1.42.58-2.45-1.08-3.06-1.31-.48-1.43-1.24-.34-2.12,2.83-2.28,5.12-2.34,8.5-.94a17.49,17.49,0,0,0,6.15,1.16c11.73.29,25.84.54,37.58.57,4.16,0,20.83-.63,25-1a7.54,7.54,0,0,0,4.82-2.29,5.41,5.41,0,0,1,3.83-1.7,14.82,14.82,0,0,0,1.86-.25c1.12-.19,2.32-.7,3,.77s.27,3.69-.95,4.44c-.75.45-1.76.87-1.29,1.85a3.6,3.6,0,0,0,1.87,1.62,2.41,2.41,0,0,1,1.71,2.47,2.53,2.53,0,0,1-1.61,2.52c-3.13,1.67-6,1.17-9.05-.28-4.47-2.13-21.88-2.77-26.8-3C311.87,28,317.7,27.83,309,27.53Z" fill="#fff"/><path d="M175.41,52v1.59c0,4,0,8,0,12a1.8,1.8,0,0,0,1.82,2,1.88,1.88,0,0,0,2.16-1.79,10.06,10.06,0,0,0,.07-1.45V53.36c0-.46.06-.92.1-1.51h2.82c-.09-.5-.12-.84-.2-1.17q-1.08-4.26-2.18-8.52c-.56-2.21-1.15-4.41-1.69-6.62-.06-.25.17-.57.27-.86a5.24,5.24,0,0,1,.56.6,2.56,2.56,0,0,1,.19.63q1.4,5.19,2.81,10.39c.41,1.52,1.2,2.16,2.21,1.84s1.27-1.11.86-2.62c-1.25-4.52-2.51-9-3.75-13.55a2.26,2.26,0,0,0-2.5-1.84c-2.94,0-5.88,0-8.82,0-1.63,0-2.12.43-2.57,2.06-.71,2.57-1.43,5.14-2.14,7.72-.54,1.94-1.07,3.89-1.63,5.82-.31,1.06-.2,1.94,1,2.38.9.34,1.66-.22,2-1.45.08-.25.15-.5.22-.76.94-3.42,1.87-6.84,2.85-10.26a3.53,3.53,0,0,1,.68-1,3.35,3.35,0,0,1,.14,1.11c-1.16,4.63-2.36,9.25-3.54,13.87-.17.69-.3,1.39-.49,2.26h3v1.54c0,3.61,0,7.21,0,10.81,0,2.39.58,3.26,2.09,3.25s2-.88,2-3.32c0-3.6,0-7.2,0-10.8,0-.46,0-.93.06-1.45Zm-5-27.27a4.13,4.13,0,0,0,4.26,4.2,4.2,4.2,0,0,0,4.18-4.33,4.15,4.15,0,0,0-4.23-4.11A4.07,4.07,0,0,0,170.37,24.7Z" fill="#fff"/><path d="M175.93,52h-1.58c0,.52-.06,1-.07,1.45v10.8c0,2.44-.52,3.3-2,3.32s-2.08-.86-2.08-3.25c0-3.6,0-7.2,0-10.81V51.94h-3c.18-.87.31-1.57.49-2.26,1.18-4.62,2.38-9.24,3.54-13.87a3.35,3.35,0,0,0-.14-1.11,3.57,3.57,0,0,0-.69,1c-1,3.42-1.9,6.84-2.84,10.26-.07.26-.14.51-.22.76-.39,1.23-1.15,1.79-2.06,1.45-1.14-.44-1.25-1.32-.94-2.38.56-1.93,1.08-3.88,1.62-5.82.72-2.58,1.43-5.15,2.15-7.72.45-1.63.93-2.05,2.57-2.06,2.94,0,5.88,0,8.82,0A2.25,2.25,0,0,1,182,32c1.24,4.52,2.51,9,3.75,13.55.42,1.51.14,2.31-.85,2.62s-1.8-.32-2.22-1.84q-1.41-5.19-2.8-10.39a2.56,2.56,0,0,0-.19-.63,5.24,5.24,0,0,0-.56-.6c-.1.29-.33.61-.27.86.53,2.21,1.13,4.41,1.69,6.62q1.09,4.26,2.17,8.52c.09.33.12.67.2,1.17h-2.81c0,.59-.1,1-.1,1.51,0,3.64,0,7.29,0,10.93a11.73,11.73,0,0,1-.07,1.45,1.89,1.89,0,0,1-2.16,1.79,1.81,1.81,0,0,1-1.83-2c0-4,0-8,0-12Z" fill="#fff"/><path d="M170.37,24.7a4.07,4.07,0,0,1,4.21-4.24,4.15,4.15,0,0,1,4.23,4.11,4.2,4.2,0,0,1-4.18,4.33A4.13,4.13,0,0,1,170.37,24.7Z" fill="#fff"/><text transform="translate(131 148.64)" font-size="16.08" fill="#fff" font-family=" Glober" font-weight="700"><tspan letter-spacing="-0.01em">P</tspan><tspan x="9.55" y="0">articipants</tspan></text><line x1="105.31" y1="166.07" x2="105.31" y2="-9.07" fill="none" stroke="#fff" stroke-linecap="round" stroke-linejoin="round" stroke-width="3.77" stroke-dasharray="0.47 7.54"/><line x1="238.87" y1="166.07" x2="238.87" y2="-9.07" fill="none" stroke="#fff" stroke-linecap="round" stroke-linejoin="round" stroke-width="3.77" stroke-dasharray="0.47 7.54"/><text transform="translate(7.45 128.03)" font-size="45.24" fill="#fff" font-family=" Glober" font-weight="700">7</text><text transform="translate(38.88 109.29)" font-size="15.76" fill="#fff" font-family=" Glober" font-weight="700"><tspan letter-spacing="-0.01em">M</tspan><tspan x="13" y="0">onth</tspan><tspan x="0" y="18.91" letter-spacing="-0.01em">S</tspan><tspan x="8.8" y="18.91">tud</tspan><tspan x="32.32" y="18.91" letter-spacing="-0.02em">y</tspan></text><text transform="translate(143.72 115.28) rotate(0.01)" font-size="43.36" fill="#fff" font-family=" Glober" font-weight="700">172</text><text transform="matrix(1, 0.01, -0.01, 1, 262.38, 82.55)" font-size="43.54" fill="#fff" font-family=" Glober" font-weight="700">1<tspan x="18.46" y="0" letter-spacing="-0.02em">.</tspan><tspan x="28.49" y="0">04</tspan></text><text transform="matrix(0.58, 0.01, -0.01, 0.58, 343.27, 68.87)" font-size="43.54" fill="#fff" font-family=" Glober" font-weight="700">%</text><text transform="translate(264.5 108.97)" font-size="14.29" fill="#fff" font-family=" Glober" font-weight="700"><tspan letter-spacing="-0.04em">A</tspan><tspan x="9.01" y="0" letter-spacing="-0.01em">v</tspan><tspan x="16.33" y="0">e</tspan><tspan x="23.7" y="0" letter-spacing="-0.01em">r</tspan><tspan x="29.29" y="0">a</tspan><tspan x="36.67" y="0" letter-spacing="-0.01em">g</tspan><tspan x="44.22" y="0">e annual</tspan><tspan x="-3.51" y="16.83">inc</tspan><tspan x="14.4" y="16.83" letter-spacing="-0.01em">r</tspan><tspan x="19.9" y="16.83" letter-spacing="0em">ease in bone </tspan><tspan x="-6.44" y="33.67">densit</tspan><tspan x="32.35" y="33.67" letter-spacing="-0.02em">y</tspan><tspan x="39.64" y="33.67" xml:space="preserve"> in</tspan><tspan x="54.24" y="33.67" letter-spacing="-0.02em"> </tspan><tspan x="57.02" y="33.67" letter-spacing="-0.01em">w</tspan><tspan x="68.3" y="33.67">omen</tspan></text><rect x="26.25" y="20.26" width="1.68" height="7.45" rx="0.41" ry="0.41" fill="#fff"/><rect x="32.69" y="20.26" width="1.68" height="7.45" rx="0.41" ry="0.41" fill="#fff"/><rect x="39.4" y="20.26" width="1.68" height="7.45" rx="0.41" ry="0.41" fill="#fff"/><rect x="45.83" y="20.26" width="1.68" height="7.45" rx="0.41" ry="0.41" fill="#fff"/><rect x="52.26" y="20.26" width="1.68" height="7.45" rx="0.41" ry="0.41" fill="#fff"/><rect x="58.98" y="20.26" width="1.68" height="7.45" rx="0.41" ry="0.41" fill="#fff"/><path d="M72.71,24.8a1.54,1.54,0,0,0-1-1,34.83,34.83,0,0,0-3.74-.05,0,0,0,0,0,0,0v1.58a2.57,2.57,0,0,1,0,.73,1.52,1.52,0,0,1,0,.21v1.66a.92.92,0,0,1-.92.92H64.93a.92.92,0,0,1-.92-.92v-4.1a9.85,9.85,0,0,0-2.24.12v4a.92.92,0,0,1-.92.92H58.78a.92.92,0,0,1-.92-.92v-4a.2.2,0,0,0-.11-.07,7.22,7.22,0,0,0-2.59.12s-.08.1-.1.21v3.77a.92.92,0,0,1-.92.92H52.07a.92.92,0,0,1-.92-.92V23.78a8.6,8.6,0,0,0-1.49-.05,2.6,2.6,0,0,0-1,.17v4a.92.92,0,0,1-.92.92H45.63a.92.92,0,0,1-.92-.92v-4a9.59,9.59,0,0,0-2.51,0v4a.92.92,0,0,1-.92.92H39.2a.92.92,0,0,1-.92-.92V23.85l-.05,0a7.67,7.67,0,0,0-2.58.15c-.18.06,0,1.26,0,1.94,0,.09.08.2,0,.28s-.11.33-.17.5v1.24a.92.92,0,0,1-.92.92H32.49a.92.92,0,0,1-.92-.92v-4.1a7.42,7.42,0,0,0-2.36.14c-.18,0,0,1.28-.12,1.93,0,.07,0,.14,0,.2v1.83a.92.92,0,0,1-.92.92H26.05a.92.92,0,0,1-.92-.92V23.76s0,0,0,0c-1.08,0-2.06,0-3,0s-1.34.49-1.33,1.41c0,1.15,0,2.29,0,3.44,0,2.15.08,2.22,2.22,2.22H70.49c.37,0,.81.13,1.09,0,.45-.26,1.1-.69,1.13-1.1A32.85,32.85,0,0,0,72.71,24.8Z" fill="#fff"/><rect x="65.13" y="20.26" width="1.68" height="7.45" rx="0.41" ry="0.41" fill="#fff"/><path d="M48.81,32h22c1.74,0,1.93.21,1.93,2.34q0,17.56,0,35.14c0,2.09-.16,2.3-1.82,2.3-16.15,0-30.77,0-48.29,0-1.79,0-2-.26-2-2.27q0-17.65,0-35.32c0-2,.21-2.19,2.06-2.19ZM35,69.33c0-1.51,0-2.87,0-4.23s-1.08-1.34-1.85-1.18c-1.21.27-3.18-1.14-3.53,1.14-.65,4.23-.2,4.62,4,4.44C33.94,69.48,34.32,69.41,35,69.33Zm-7.22-2.58c0-2.87,0-2.87-2.57-2.87-2.84,0-2.86,0-2.84,2.6,0,3.2-.47,3,2.75,3S27.69,69.58,27.75,66.75Zm23.34-.13c.06,3-.46,2.87,2.71,2.89,2.63,0,2.63,0,2.63-2.8s0-2.84-2.62-2.83S51.09,63.88,51.09,66.62Zm-1.82,2.85c0-1.68.07-3.1-.05-4.5a1.44,1.44,0,0,0-.94-1,22.19,22.19,0,0,0-3.46,0c-1.21.06-1,1.1-.91,1.79.24,1.26-1,3.11.82,3.68C46.07,69.81,47.64,69.47,49.27,69.47Zm-10,0c3.19,0,2.77.12,2.79-2.63,0-3,0-3-2.45-3-2.86,0-2.88,0-2.86,2.75C36.78,69.8,36.46,69.46,39.27,69.51ZM36.75,44.33c0,3.35-.22,2.91,2.94,2.94,2.38,0,2.4,0,2.37-2.9,0-3.18.3-2.5-3.54-2.72C36,41.5,36.93,43.25,36.75,44.33ZM61,56.51c-2.79,0-2.79,0-2.8,2.61,0,3,0,3,2.48,3,3,0,3,0,3-2.64C63.59,56.19,63.87,56.55,61,56.51ZM49.28,59.44c0-2.92,0-2.94-2.36-2.92-3.2,0-3.05-.4-3,2.54,0,3.21-.37,3,2.77,3C49.28,62.1,49.28,62.09,49.28,59.44Zm-17-2.93c-2.75,0-2.75,0-2.75,2.67,0,2.91,0,2.91,2.7,2.91s2.75,0,2.73-2.68C35,56.23,35.27,56.54,32.29,56.51ZM27.75,59.2c0-2.69,0-2.7-2.41-2.68-3.25,0-3-.39-3,2.77,0,2.8,0,2.81,2.67,2.8C28.13,62.08,27.71,62.26,27.75,59.2ZM68.1,54.63c3.06,0,2.68.27,2.71-3.05,0-2.5,0-2.5-2.63-2.5s-2.78,0-2.76,2.66C65.44,54.92,65.07,54.6,68.1,54.63Zm-7.24,0c2.75,0,2.76,0,2.75-2.69,0-3,.38-2.85-2.78-2.86-2.66,0-2.66,0-2.66,2.8S58.18,54.63,60.86,54.63Zm-14.36,0c2.78,0,2.78,0,2.78-2.64,0-2.91,0-2.91-2.71-2.91s-2.71,0-2.7,2.59C43.89,54.93,43.6,54.6,46.5,54.63Zm-14.32,0c3,0,2.78.33,2.79-2.64s0-2.91-2.55-2.91c-2.88,0-2.89,0-2.88,2.58C29.56,54.91,29.25,54.6,32.18,54.63ZM27.75,52c0-2.93,0-2.93-2.53-2.93-2.88,0-2.89,0-2.88,2.74,0,3.17-.22,2.78,2.79,2.81C27.75,54.65,27.75,54.63,27.75,52Zm43.06-7.5c0-2.82,0-2.83-2.47-2.81-3.25,0-2.92-.33-2.91,2.64S65,47.26,68.1,47.27C70.81,47.28,70.81,47.27,70.81,44.51Zm-9.9-2.82c-2.73,0-2.75,0-2.73,2.5,0,3.29-.41,3.06,2.68,3.08,2.75,0,2.75,0,2.75-2.86S63.61,41.69,60.91,41.69ZM49.28,44.41c0-3,.3-2.71-2.88-2.71-2.91,0-2.5-.2-2.53,3.08,0,2.5,0,2.5,2.8,2.49C49.29,47.27,49.29,47.27,49.28,44.41ZM35,44.47c0-2.77,0-2.79-2.46-2.77-3.25,0-2.95-.33-3,2.59s0,3,2.64,3C35.34,47.26,34.94,47.44,35,44.47Zm-9.79-2.78c-2.84,0-2.84,0-2.84,2.61,0,3,0,3,2.51,3,2.89,0,2.91,0,2.89-2.54C27.72,41.42,28.12,41.73,25.18,41.69ZM56.43,44.3c0-2.61,0-2.62-2.26-2.6-3.4,0-3.05-.41-3.08,2.82,0,2.75,0,2.75,2.69,2.75S56.43,47.27,56.43,44.3Zm11.68-4.47c2.85,0,2.69.4,2.7-2.7,0-2.91,0-2.92-2.72-2.91-3,0-2.66-.2-2.66,2.93S65.15,39.79,68.11,39.83Zm-7.16,0c2.81,0,2.66.42,2.66-2.76s.21-2.82-3-2.84c-2.49,0-2.49,0-2.48,3S58,39.8,61,39.83Zm-4.82,0c1.12-4.83.35-5.93-3.76-5.58-.06,0-.14,0-.16,0-.38.43-1.09.91-1.05,1.29.16,1.42-.8,3,.61,4.26,0,0,.11,0,.16,0Zm-9.56,0c2.91,0,2.71.41,2.71-2.68s.3-2.91-2.85-2.93c-2.56,0-2.57,0-2.56,2.9C43.88,40.22,43.67,39.79,46.57,39.83ZM68.2,56.51c-3,0-2.79-.3-2.77,2.46,0,3.23-.46,3.11,2.49,3.12s2.89,0,2.89-2.74S70.81,56.51,68.2,56.51ZM36.91,54.62c1.52,0,2.84.05,4.15,0,.33,0,.9-.42.91-.68a27.78,27.78,0,0,0,0-4.08c0-.27-.58-.64-.93-.7-3.87-.69-4.4-.22-4.28,3.77C36.77,53.4,36.84,53.9,36.91,54.62Zm16.85,0c2.79-.05,2.65.43,2.67-2.76,0-2.79,0-2.79-2.51-2.79-2.83,0-2.84,0-2.83,2.8C51.11,54.91,50.82,54.6,53.76,54.63ZM37.05,56.54c-1.14,4.77-.31,5.94,3.79,5.54.11,0,.29,0,.31,0,.32-.61.93-1.27.85-1.84-.15-1.22.87-2.75-.72-3.66a.47.47,0,0,0-.17,0Zm14,2.62c0,2.93,0,2.93,2.54,2.93,2.8,0,2.8,0,2.8-2.67,0-2.9,0-2.92-2.38-2.9C50.87,56.54,51.12,56.14,51.09,59.16Z" fill="#fff"/></svg>
