<svg xmlns="http://www.w3.org/2000/svg" viewBox="0 0 375 157"><defs xmlns="http://www.w3.org/2000/svg"><style type="text/css"><![CDATA[@font-face {font-family: 'GloberBook';src: url('/assets/fonts/webfonts/316613_0_0.eot');src: url('/assets/fonts/webfonts/316613_0_0.eot?#iefix') format('embedded-opentype'),url('/assets/fonts/webfonts/316613_0_0.woff2') format('woff2'),url('/assets/fonts/webfonts/316613_0_0.woff') format('woff'),url('/assets/fonts/webfonts/316613_0_0.ttf') format('truetype');}@font-face {font-family: 'Glober';font-weight: bold;font-style: normal;src: url('/assets/fonts/webfonts/316613_1_0.eot');src: url('/assets/fonts/webfonts/316613_1_0.eot?#iefix') format('embedded-opentype'),url('/assets/fonts/webfonts/316613_1_0.woff2') format('woff2'),url('/assets/fonts/webfonts/316613_1_0.woff') format('woff'),url('/assets/fonts/webfonts/316613_1_0.ttf') format('truetype');}@font-face {font-family: 'Glober';font-weight: bold;font-style: italic;src: url('/assets/fonts/webfonts/316613_2_0.eot');src: url('/assets/fonts/webfonts/316613_2_0.eot?#iefix') format('embedded-opentype'),url('/assets/fonts/webfonts/316613_2_0.woff2') format('woff2'),url('/assets/fonts/webfonts/316613_2_0.woff') format('woff'),url('/assets/fonts/webfonts/316613_2_0.ttf') format('truetype');}@font-face {font-family: 'GloberBookItalic';src: url('/assets/fonts/webfonts/316613_3_0.eot');src: url('/assets/fonts/webfonts/316613_3_0.eot?#iefix') format('embedded-opentype'),url('/assets/fonts/webfonts/316613_3_0.woff2') format('woff2'),url('/assets/fonts/webfonts/316613_3_0.woff') format('woff'),url('/assets/fonts/webfonts/316613_3_0.ttf') format('truetype');}@font-face {font-family: 'Glober';font-weight: normal;font-style: normal;src: url('/assets/fonts/webfonts/316613_4_0.eot');src: url('/assets/fonts/webfonts/316613_4_0.eot?#iefix') format('embedded-opentype'),url('/assets/fonts/webfonts/316613_4_0.woff2') format('woff2'),url('/assets/fonts/webfonts/316613_4_0.woff') format('woff'),url('/assets/fonts/webfonts/316613_4_0.ttf') format('truetype');}@font-face {font-family: 'Glober';font-weight: normal;font-style: italic;src: url('/assets/fonts/webfonts/316613_5_0.eot');src: url('/assets/fonts/webfonts/316613_5_0.eot?#iefix') format('embedded-opentype'),url('/assets/fonts/webfonts/316613_5_0.woff2') format('woff2'),url('/assets/fonts/webfonts/316613_5_0.woff') format('woff'),url('/assets/fonts/webfonts/316613_5_0.ttf') format('truetype');}]]></style></defs><title>bone-study-2-mobile</title><path d="M319.09,25.49c-3.09.15-22.77.33-26.67.53a6.41,6.41,0,0,0-1.81.3c-2.07.74-3.95,1.61-6.43,1.21-2.27-.35-3.64,1.38-3.86,3.65-.19,1.89-1,2.75-2.68,2.94a4,4,0,0,1-3.92-2.38,3.34,3.34,0,0,1,1.32-4,10.13,10.13,0,0,0,2.48-2.16c1-1.38.57-2.4-1.06-3-1.28-.46-1.4-1.21-.33-2.08,2.77-2.23,5-2.29,8.33-.91a17.26,17.26,0,0,0,6,1.14c11.5.28,25.33.53,36.83.55,4.08,0,20.42-.61,24.5-1a7.41,7.41,0,0,0,4.72-2.25,5.27,5.27,0,0,1,3.76-1.66,14.24,14.24,0,0,0,1.82-.26c1.09-.17,2.27-.68,2.92.76s.27,3.62-.93,4.35c-.73.45-1.72.86-1.27,1.81a3.47,3.47,0,0,0,1.84,1.59,2.36,2.36,0,0,1,1.67,2.42,2.46,2.46,0,0,1-1.57,2.47c-3.07,1.65-5.88,1.15-8.87-.27-4.39-2.08-21.45-2.72-26.27-2.93C321.92,26,327.63,25.78,319.09,25.49Z" fill="#fff"/><path d="M182.89,53v1.56c0,3.91,0,7.83,0,11.75a1.77,1.77,0,0,0,1.79,1.94,1.85,1.85,0,0,0,2.12-1.76,11,11,0,0,0,.06-1.41c0-3.58,0-7.15,0-10.72,0-.45.06-.9.1-1.48h2.75c-.08-.48-.11-.82-.19-1.14l-2.13-8.36c-.56-2.16-1.13-4.32-1.66-6.49-.06-.24.17-.55.26-.83a3.75,3.75,0,0,1,.55.58,2.41,2.41,0,0,1,.19.61q1.37,5.1,2.75,10.19c.41,1.49,1.18,2.12,2.17,1.81s1.25-1.09.84-2.58c-1.22-4.42-2.46-8.85-3.68-13.27a2.2,2.2,0,0,0-2.44-1.81c-2.88,0-5.77,0-8.65,0-1.6,0-2.08.42-2.52,2l-2.1,7.56c-.53,1.91-1,3.82-1.59,5.71-.3,1-.2,1.91.93,2.33.88.34,1.63-.21,2-1.42.08-.24.15-.49.21-.74.93-3.35,1.84-6.71,2.79-10.05a3.67,3.67,0,0,1,.67-.95,3.27,3.27,0,0,1,.14,1.09c-1.14,4.54-2.31,9.07-3.47,13.6-.17.67-.3,1.36-.48,2.21h2.92v1.51c0,3.53,0,7.06,0,10.59,0,2.35.57,3.21,2.05,3.19s2-.86,2-3.25c0-3.53,0-7.06,0-10.59,0-.45,0-.91.06-1.42ZM178,26.22a4.06,4.06,0,0,0,4.19,4.12,4.12,4.12,0,0,0,4.09-4.24,4.07,4.07,0,0,0-4.15-4A4,4,0,0,0,178,26.22Z" fill="#fff"/><path d="M183.41,53h-1.55c0,.51-.07,1-.07,1.42V65c0,2.39-.51,3.23-2,3.25s-2-.84-2-3.19c0-3.53,0-7.06,0-10.59V52.92h-2.92c.19-.85.32-1.54.49-2.21,1.15-4.53,2.33-9.06,3.47-13.6a3.27,3.27,0,0,0-.14-1.09A3.67,3.67,0,0,0,178,37c-.95,3.34-1.87,6.7-2.79,10.05l-.21.74c-.39,1.21-1.13,1.76-2,1.42-1.12-.42-1.23-1.28-.93-2.33.56-1.89,1.07-3.8,1.6-5.71l2.1-7.56c.44-1.6.91-2,2.52-2,2.88,0,5.76,0,8.65,0a2.21,2.21,0,0,1,2.44,1.81c1.22,4.42,2.46,8.85,3.68,13.27.4,1.49.13,2.27-.85,2.58s-1.76-.32-2.16-1.81c-.93-3.39-1.84-6.79-2.76-10.19a2.05,2.05,0,0,0-.18-.61,4.3,4.3,0,0,0-.55-.58c-.1.28-.32.59-.26.83.52,2.17,1.1,4.33,1.66,6.49q1.06,4.17,2.12,8.36c.09.32.12.66.2,1.14H187.5c0,.58-.09,1-.09,1.48,0,3.57,0,7.14,0,10.72a11,11,0,0,1-.06,1.41,1.85,1.85,0,0,1-2.12,1.76,1.77,1.77,0,0,1-1.79-1.94c0-3.92,0-7.84,0-11.75Z" fill="#fff"/><path d="M178,26.22a4,4,0,0,1,4.13-4.16,4.07,4.07,0,0,1,4.15,4,4.12,4.12,0,0,1-4.09,4.24A4.06,4.06,0,0,1,178,26.22Z" fill="#fff"/><text transform="translate(141.12 136.92)" font-size="15.76" fill="#fff" font-family=" Glober" font-weight="700"><tspan letter-spacing="-0.01em">P</tspan><tspan x="9.36" y="0">articipants</tspan></text><line x1="114.19" y1="156.03" x2="114.19" y2="1.91" fill="none" stroke="#fff" stroke-linecap="round" stroke-linejoin="round" stroke-width="3.57" stroke-dasharray="0.45 7.15"/><line x1="252.11" y1="156.03" x2="252.11" y2="1.91" fill="none" stroke="#fff" stroke-linecap="round" stroke-linejoin="round" stroke-width="3.57" stroke-dasharray="0.45 7.15"/><text transform="translate(2.5 127.5)" font-size="44.34" fill="#fff" font-family=" Glober" font-weight="700">12</text><text transform="translate(50.83 109.14)" font-size="15.45" fill="#fff" font-family=" Glober" font-weight="700" letter-spacing="-0.01em">M<tspan x="12.74" y="0" letter-spacing="0em">onth</tspan><tspan letter-spacing="-0.01em"><tspan x="0" y="18.53">S</tspan><tspan x="8.63" y="18.53" letter-spacing="0em">tud</tspan><tspan x="31.68" y="18.53" letter-spacing="-0.02em">y</tspan></tspan></text><text transform="matrix(1, 0.01, -0.01, 1, 287.81, 77.14)" font-size="42.68" fill="#fff" font-family=" Glober" font-weight="700">1.3</text><text transform="matrix(0.58, 0.01, -0.01, 0.58, 339.17, 63.45)" font-size="42.68" fill="#fff" font-family=" Glober" font-weight="700">%</text><text transform="translate(267.02 100.41)" font-size="14.01" fill="#fff" font-family=" Glober" font-weight="700"><tspan letter-spacing="0em">I</tspan><tspan x="3.96" y="0">nc</tspan><tspan x="17.88" y="0" letter-spacing="-0.01em">r</tspan><tspan x="23.27" y="0">ease in Bone </tspan><tspan x="4.33" y="16.5">Densit</tspan><tspan x="43.86" y="16.5" letter-spacing="-0.02em">y</tspan><tspan x="51" y="16.5" xml:space="preserve"> among </tspan><tspan x="-4.78" y="33" letter-spacing="-0.01em">P</tspan><tspan x="3.56" y="33">os</tspan><tspan x="17.48" y="33" letter-spacing="-0.02em">t</tspan><tspan x="22.63" y="33">- </tspan><tspan x="30.7" y="33" letter-spacing="-0.01em">M</tspan><tspan x="42.25" y="33">enopausal </tspan><tspan x="27.93" y="49.5" letter-spacing="-0.05em">W</tspan><tspan x="40.92" y="49.5">omen</tspan></text><text transform="translate(146.58 115.01) rotate(0.01)" font-size="42.5" fill="#fff" font-family=" Glober" font-weight="700" letter-spacing="-0.01em">4<tspan x="24.2" y="0" letter-spacing="0em">14</tspan></text><rect x="28.81" y="20.08" width="1.64" height="7.31" rx="0.41" ry="0.41" fill="#fff"/><rect x="35.12" y="20.08" width="1.64" height="7.31" rx="0.41" ry="0.41" fill="#fff"/><rect x="41.7" y="20.08" width="1.64" height="7.31" rx="0.41" ry="0.41" fill="#fff"/><rect x="48" y="20.08" width="1.64" height="7.31" rx="0.41" ry="0.41" fill="#fff"/><rect x="54.31" y="20.08" width="1.64" height="7.31" rx="0.41" ry="0.41" fill="#fff"/><rect x="60.89" y="20.08" width="1.64" height="7.31" rx="0.41" ry="0.41" fill="#fff"/><path d="M74.34,24.52a1.48,1.48,0,0,0-1-1,33.42,33.42,0,0,0-3.66-.05v1.56a2.52,2.52,0,0,1,0,.72,1.77,1.77,0,0,1,0,.21v1.63a.9.9,0,0,1-.9.9h-2a.91.91,0,0,1-.9-.9v-4a10,10,0,0,0-2.19.13v3.9a.91.91,0,0,1-.9.9h-2a.9.9,0,0,1-.9-.9v-4a.34.34,0,0,0-.11-.07,6.89,6.89,0,0,0-2.53.13s-.08.09-.1.2v3.7a.91.91,0,0,1-.9.9h-2a.9.9,0,0,1-.9-.9V23.53a6.64,6.64,0,0,0-1.46-.05,2.79,2.79,0,0,0-1,.16v4a.9.9,0,0,1-.9.9h-2a.91.91,0,0,1-.91-.9V23.69a8.45,8.45,0,0,0-2.46,0v3.94a.91.91,0,0,1-.9.9h-2a.9.9,0,0,1-.9-.9v-4l-.05,0a7.63,7.63,0,0,0-2.53.14c-.18.06,0,1.24,0,1.9,0,.09.07.2,0,.27s-.11.33-.16.5v1.22a.91.91,0,0,1-.9.9h-2a.9.9,0,0,1-.9-.9v-4a7.49,7.49,0,0,0-2.32.13c-.17.05,0,1.25-.11,1.89,0,.07,0,.14,0,.2v1.8a.9.9,0,0,1-.9.9h-2a.91.91,0,0,1-.91-.9v-4.1a0,0,0,0,1,0,0c-1.06,0-2,0-3,0s-1.31.47-1.31,1.38c0,1.12,0,2.25,0,3.37,0,2.11.08,2.18,2.18,2.18H72.17c.36,0,.8.12,1.07,0,.45-.26,1.08-.68,1.11-1.08A31.65,31.65,0,0,0,74.34,24.52Z" fill="#fff"/><rect x="66.92" y="20.08" width="1.64" height="7.31" rx="0.41" ry="0.41" fill="#fff"/><path d="M50.92,31.57c8.56,0,13.62,0,21.51,0,1.71,0,1.9.21,1.9,2.29q0,17.24,0,34.46c0,2-.16,2.24-1.79,2.24-15.83,0-30.16,0-47.33,0-1.75,0-2-.26-2-2.23q0-17.31,0-34.62c0-1.95.21-2.15,2-2.15Q38.08,31.56,50.92,31.57ZM37.36,68.17c0-1.47,0-2.81,0-4.14,0-1.48-1.06-1.32-1.81-1.16-1.19.26-3.11-1.11-3.46,1.12-.63,4.14-.19,4.52,3.89,4.35C36.35,68.32,36.72,68.25,37.36,68.17Zm-7.08-2.52c0-2.82,0-2.82-2.52-2.82-2.78,0-2.81,0-2.78,2.55,0,3.13-.46,3,2.69,3S30.22,68.42,30.28,65.65Zm22.88-.13c.05,3-.45,2.81,2.65,2.83,2.58,0,2.58,0,2.58-2.74s0-2.78-2.57-2.78S53.15,62.83,53.16,65.52Zm-1.79,2.79c0-1.64.07-3,0-4.41a1.46,1.46,0,0,0-.93-1,20.19,20.19,0,0,0-3.39,0c-1.18.05-1,1.07-.89,1.75.23,1.23-.95,3,.81,3.6C48.24,68.64,49.77,68.31,51.37,68.31Zm-9.8,0c3.12,0,2.71.12,2.74-2.58,0-2.94,0-2.94-2.41-2.94-2.8,0-2.82,0-2.8,2.68C39.13,68.63,38.81,68.3,41.57,68.35ZM39.1,43.67c0,3.29-.22,2.85,2.88,2.88,2.34,0,2.35,0,2.33-2.84,0-3.12.29-2.45-3.47-2.67C38.4,40.9,39.27,42.61,39.1,43.67ZM62.84,55.61c-2.74,0-2.74,0-2.74,2.56,0,2.91,0,2.91,2.42,2.91,2.91,0,2.92,0,2.9-2.59C65.41,55.29,65.68,55.65,62.84,55.61ZM51.38,58.48c0-2.86,0-2.88-2.31-2.86-3.14,0-3-.4-3,2.49,0,3.14-.36,3,2.71,3C51.38,61.08,51.38,61.08,51.38,58.48ZM34.73,55.61c-2.7,0-2.7,0-2.7,2.61,0,2.86,0,2.86,2.65,2.86s2.69,0,2.68-2.63C37.34,55.33,37.65,55.64,34.73,55.61Zm-4.45,2.64c0-2.64,0-2.65-2.36-2.63-3.19,0-2.93-.38-2.94,2.71,0,2.75,0,2.75,2.62,2.74C30.65,61.06,30.24,61.25,30.28,58.25Zm39.55-4.48c3,0,2.63.26,2.65-3,0-2.44,0-2.44-2.57-2.44s-2.72,0-2.71,2.6C67.23,54.05,66.86,53.74,69.83,53.77Zm-7.1,0c2.7,0,2.71,0,2.69-2.64,0-2.92.38-2.79-2.71-2.8-2.61,0-2.61,0-2.61,2.74S60.1,53.77,62.73,53.77Zm-14.07,0c2.72,0,2.72,0,2.72-2.59,0-2.85,0-2.85-2.65-2.86s-2.66,0-2.65,2.54C46.1,54.06,45.82,53.74,48.66,53.77Zm-14,0c3,0,2.72.32,2.74-2.59s0-2.85-2.5-2.86c-2.83,0-2.84,0-2.83,2.54C32.05,54,31.75,53.74,34.62,53.77ZM30.28,51.2c0-2.87,0-2.87-2.48-2.88C25,48.32,25,48.32,25,51c0,3.11-.22,2.73,2.73,2.75C30.28,53.78,30.28,53.77,30.28,51.2Zm42.2-7.35c0-2.77,0-2.78-2.41-2.76-3.19,0-2.87-.32-2.86,2.59s-.45,2.86,2.62,2.87C72.48,46.56,72.48,46.55,72.48,43.85Zm-9.7-2.77c-2.68,0-2.7,0-2.68,2.45,0,3.23-.39,3,2.63,3,2.7,0,2.7,0,2.7-2.8S65.43,41.08,62.78,41.08Zm-11.4,2.67c0-3,.29-2.65-2.82-2.66-2.85,0-2.45-.19-2.48,3,0,2.45,0,2.45,2.74,2.44C51.39,46.55,51.39,46.55,51.38,43.75Zm-14,.06c0-2.72,0-2.74-2.42-2.72-3.18,0-2.89-.32-2.91,2.54s0,2.93,2.59,2.92C37.72,46.54,37.32,46.71,37.36,43.81Zm-9.6-2.73c-2.78,0-2.78,0-2.79,2.56,0,2.91,0,2.91,2.46,2.91,2.84,0,2.86,0,2.84-2.49C30.25,40.82,30.64,41.12,27.76,41.08Zm30.63,2.56c0-2.56,0-2.57-2.21-2.55-3.34,0-3-.41-3,2.76,0,2.7,0,2.7,2.63,2.7S58.39,46.55,58.39,43.64Zm11.45-4.38c2.79,0,2.63.39,2.64-2.65,0-2.85,0-2.86-2.66-2.85-3,0-2.61-.2-2.61,2.87S66.94,39.22,69.84,39.26Zm-7,0c2.76,0,2.61.41,2.6-2.71s.21-2.76-2.88-2.78c-2.44,0-2.45,0-2.44,2.91S59.94,39.22,62.82,39.26Zm-4.72,0c1.1-4.73.34-5.81-3.69-5.47-.06,0-.13,0-.16,0-.37.42-1.07.89-1,1.27.16,1.39-.78,3,.6,4.17,0,0,.11,0,.16,0Zm-9.38,0c2.86,0,2.66.4,2.66-2.63s.29-2.85-2.8-2.87c-2.5,0-2.51,0-2.5,2.84C46.09,39.64,45.89,39.22,48.72,39.26ZM69.93,55.61c-3,0-2.73-.29-2.72,2.41,0,3.16-.45,3,2.44,3.06s2.83,0,2.83-2.69S72.48,55.61,69.93,55.61ZM39.25,53.75c1.5,0,2.79,0,4.07,0,.33,0,.88-.41.9-.66a29.66,29.66,0,0,0,0-4c0-.26-.57-.62-.91-.69-3.8-.68-4.32-.21-4.2,3.7C39.12,52.56,39.19,53.05,39.25,53.75Zm16.53,0c2.73-.05,2.59.42,2.61-2.71,0-2.73,0-2.73-2.46-2.74-2.77,0-2.78,0-2.77,2.75C53.17,54,52.9,53.74,55.78,53.77ZM39.4,55.63c-1.13,4.68-.31,5.83,3.7,5.44.11,0,.29,0,.32,0,.31-.6.9-1.25.83-1.81-.15-1.2.85-2.69-.71-3.58a.44.44,0,0,0-.16,0ZM53.16,58.2c0,2.87,0,2.87,2.49,2.88,2.74,0,2.74,0,2.74-2.62,0-2.85,0-2.86-2.33-2.84C52.94,55.64,53.18,55.24,53.16,58.2Z" fill="#fff"/></svg>
