<?xml version="1.0" encoding="utf-8"?>
<!-- Generator: Adobe Illustrator 23.0.3, SVG Export Plug-In . SVG Version: 6.00 Build 0)  -->
<svg version="1.1" id="Layer_1" xmlns="http://www.w3.org/2000/svg" xmlns:xlink="http://www.w3.org/1999/xlink" x="0px" y="0px"
	 viewBox="0 0 375 157" style="enable-background:new 0 0 375 157;" xml:space="preserve">
<style type="text/css">
	.st0{enable-background:new    ;}
	.st1{fill:#FFFFFF;}
	.st2{fill:none;stroke:#FFFFFF;stroke-width:3.57;stroke-linecap:round;stroke-linejoin:round;stroke-dasharray:0.45,7.15;}
</style>
<g>
	<title>bone-study-1-mobile</title>
	<g class="st0">
		<path class="st1" d="M36.2,96.9c-6.6,0.7-10.4,3.1-11.9,8.7c1.4-0.3,3.1-0.6,5.1-0.6c5.7,0,10.3,2.9,10.3,10.5
			c0,7.3-4.3,10.5-11.3,10.5c-6.9,0-11.3-3.9-11.3-13.1C17.1,99,24,92.7,36.2,92C36.8,93.4,36.8,95.4,36.2,96.9z M28.3,109.8
			c-1.9,0-3.6,0.4-4.8,0.8c0,0.7,0,1.6,0,2.4c0,6,2,8.2,5,8.2s4.9-1.7,4.9-5.8C33.3,111.2,31.2,109.8,28.3,109.8z"/>
	</g>
	<g class="st0">
		<path class="st1" d="M279.1,84.1c1.6,0,2.5,1.1,2.5,2.6c0,0.8-0.4,1.5-1,1.9c0.8,0.4,1.2,1.1,1.2,2.1c0,1.6-1.1,2.7-2.8,2.7h-3.7
			v-9.3H279.1z M278.7,88c0.8,0,1.2-0.6,1.2-1.3c0-0.8-0.4-1.4-1.2-1.4h-1.6V88H278.7z M278.8,92.1c0.9,0,1.4-0.5,1.4-1.4
			c0-1-0.5-1.4-1.4-1.4h-1.7v2.9H278.8z"/>
		<path class="st1" d="M286.1,86.5c1.8,0,3,1,3,3.5c0,2.6-1.2,3.5-3,3.5s-3-1-3-3.5C283.1,87.4,284.3,86.5,286.1,86.5z M286.1,87.7
			c-0.8,0-1.3,0.5-1.3,2.3s0.5,2.3,1.3,2.3s1.3-0.5,1.3-2.3S286.9,87.7,286.1,87.7z"/>
		<path class="st1" d="M295.9,93.3c0,0-0.3,0.1-0.8,0.1c-0.6,0-0.8-0.1-0.8-0.1v-4.6c0-0.6-0.3-0.9-1-0.9c-0.4,0-0.8,0.2-1.1,0.5v5
			c0,0-0.3,0.1-0.8,0.1c-0.6,0-0.8-0.1-0.8-0.1v-6.6c0,0,0.2-0.1,0.8-0.1c0.5,0,0.8,0.1,0.8,0.1v0.4c0.5-0.4,1.1-0.6,1.8-0.6
			c1.3,0,2,0.8,2,2V93.3z"/>
		<path class="st1" d="M299,90.5c0.1,1.3,0.7,1.7,1.6,1.7c0.9,0,1.5-0.3,1.5-0.3c0.3,0.3,0.5,0.7,0.5,1.2c0,0-0.8,0.5-2.2,0.5
			c-2.1,0-3-1.2-3-3.6c0-2.4,1.2-3.5,3-3.5c1.6,0,2.7,0.8,2.7,2.7c0,0.8-0.1,1.4-0.1,1.4H299z M300.3,87.7c-0.7,0-1.2,0.4-1.3,1.6
			h2.3c0-0.1,0-0.3,0-0.4C301.3,88.3,301.1,87.7,300.3,87.7z"/>
	</g>
	<g class="st0">
		<path class="st1" d="M314.9,84.1c0.6,0,1.1,0.1,1.1,0.1v9.1c0,0-0.3,0.1-0.8,0.1c-0.5,0-0.8-0.1-0.8-0.1v-2.8
			c0-1.4-0.1-3.2,0.1-4.3h-0.1c-0.2,0.8-0.9,2.2-1.4,3.3l-0.9,1.9c0,0-0.2,0.1-0.5,0.1s-0.4-0.1-0.4-0.1c-0.3-0.6-0.6-1.2-0.9-1.8
			c-0.6-1.1-1.3-2.5-1.5-3.3h-0.1c0.2,0.9,0.2,2.6,0.2,4v3.2c0,0-0.3,0.1-0.8,0.1c-0.5,0-0.7-0.1-0.7-0.1v-9.1c0,0,0.4-0.1,1-0.1
			c0.5,0,1,0.1,1,0.1l1.2,2.4c0.4,0.9,0.9,1.9,1.1,2.5h0.1c0.1-0.4,0.3-0.8,0.5-1.3c0.6-1.2,1.1-2.4,1.7-3.6
			C314.1,84.1,314.6,84.1,314.9,84.1z"/>
	</g>
	<g class="st0">
		<path class="st1" d="M319.4,85.4c0,0-0.3,0.1-0.8,0.1c-0.6,0-0.8-0.1-0.8-0.1V84c0,0,0.2-0.1,0.8-0.1c0.5,0,0.8,0.1,0.8,0.1V85.4z
			 M319.4,93.3c0,0-0.3,0.1-0.8,0.1c-0.6,0-0.8-0.1-0.8-0.1v-6.6c0,0,0.2-0.1,0.8-0.1c0.5,0,0.8,0.1,0.8,0.1V93.3z"/>
		<path class="st1" d="M326.6,93.3c0,0-0.3,0.1-0.8,0.1c-0.6,0-0.8-0.1-0.8-0.1v-4.6c0-0.6-0.3-0.9-1-0.9c-0.4,0-0.8,0.2-1.1,0.5v5
			c0,0-0.3,0.1-0.8,0.1c-0.6,0-0.8-0.1-0.8-0.1v-6.6c0,0,0.2-0.1,0.8-0.1c0.5,0,0.8,0.1,0.8,0.1v0.4c0.5-0.4,1.1-0.6,1.8-0.6
			c1.3,0,2,0.8,2,2V93.3z"/>
		<path class="st1" d="M329.6,90.5c0.1,1.3,0.7,1.7,1.6,1.7c0.9,0,1.5-0.3,1.5-0.3c0.3,0.3,0.5,0.7,0.5,1.2c0,0-0.8,0.5-2.2,0.5
			c-2.1,0-3-1.2-3-3.6c0-2.4,1.2-3.5,3-3.5c1.6,0,2.7,0.8,2.7,2.7c0,0.8-0.1,1.4-0.1,1.4H329.6z M330.9,87.7c-0.7,0-1.2,0.4-1.3,1.6
			h2.3c0-0.1,0-0.3,0-0.4C331.9,88.3,331.7,87.7,330.9,87.7z"/>
	</g>
	<g class="st0">
		<path class="st1" d="M338,86.5c0.4,0,0.7,0.1,1.1,0.3c-0.1,0.6-0.3,1-0.7,1.4c-0.2-0.2-0.5-0.3-0.8-0.3c-0.4,0-0.8,0.2-1.1,0.7
			v4.7c0,0-0.3,0.1-0.8,0.1c-0.6,0-0.8-0.1-0.8-0.1v-6.6c0,0,0.2-0.1,0.8-0.1c0.5,0,0.8,0.1,0.8,0.1v0.7
			C337,86.8,337.4,86.5,338,86.5z"/>
	</g>
	<g class="st0">
		<path class="st1" d="M342.4,86.5c1.9,0,2.6,0.8,2.6,2.4v4.4c0,0-0.2,0.1-0.6,0.1c-0.4,0-0.7-0.1-0.7-0.1l-0.2-0.7
			c-0.3,0.6-1,0.9-1.9,0.9c-1.2,0-2-0.7-2-2.2c0-1.5,0.9-2.1,2.5-2.1c0.5,0,0.9,0,1.3,0.1V89c0-0.6-0.2-1.2-1.2-1.2
			c-0.9,0-1.7,0.3-1.7,0.3s-0.2-0.1-0.4-0.5c-0.2-0.3-0.1-0.7-0.1-0.7S341,86.5,342.4,86.5z M342.3,90.3c-0.7,0-1,0.3-1,1
			c0,0.7,0.3,1,0.9,1c0.9,0,1.2-0.8,1.2-1.5v-0.4C343,90.3,342.7,90.3,342.3,90.3z"/>
		<path class="st1" d="M348.3,93.3c0,0-0.3,0.1-0.8,0.1c-0.6,0-0.8-0.1-0.8-0.1v-9.5c0,0,0.2-0.1,0.8-0.1c0.5,0,0.8,0.1,0.8,0.1
			V93.3z"/>
	</g>
	<g class="st0">
		<path class="st1" d="M267.8,101c2.4,0,3.8,1.3,3.8,4.7c0,3.4-1.5,4.7-3.8,4.7h-3V101H267.8z M267.6,108.9c1.3,0,2.2-0.6,2.2-3.3
			c0-2.7-0.9-3.3-2.2-3.3h-1.3v6.6H267.6z"/>
		<path class="st1" d="M274.5,107.4c0.1,1.3,0.7,1.7,1.6,1.7c0.9,0,1.5-0.3,1.5-0.3c0.3,0.3,0.5,0.7,0.5,1.2c0,0-0.8,0.5-2.2,0.5
			c-2.1,0-3-1.2-3-3.6c0-2.4,1.2-3.5,3-3.5c1.6,0,2.7,0.8,2.7,2.7c0,0.8-0.1,1.4-0.1,1.4H274.5z M275.8,104.6
			c-0.7,0-1.2,0.4-1.3,1.6h2.3c0-0.1,0-0.3,0-0.4C276.8,105.2,276.6,104.6,275.8,104.6z"/>
		<path class="st1" d="M285.3,110.2c0,0-0.3,0.1-0.8,0.1c-0.6,0-0.8-0.1-0.8-0.1v-4.6c0-0.6-0.3-0.9-1-0.9c-0.4,0-0.8,0.2-1.1,0.5v5
			c0,0-0.3,0.1-0.8,0.1c-0.6,0-0.8-0.1-0.8-0.1v-6.6c0,0,0.2-0.1,0.8-0.1c0.5,0,0.8,0.1,0.8,0.1v0.4c0.5-0.4,1.1-0.6,1.8-0.6
			c1.3,0,2,0.8,2,2V110.2z"/>
		<path class="st1" d="M289.1,103.3c1.4,0,1.9,0.4,1.9,0.4c0,0.4-0.1,0.9-0.4,1.2c0,0-0.6-0.2-1.3-0.2c-0.8,0-1.1,0.3-1.1,0.7
			c0,0.6,0.8,0.6,1.6,0.9c0.8,0.3,1.5,0.7,1.5,1.9c0,1.4-0.8,2.2-2.5,2.2c-1.4,0-2.2-0.5-2.2-0.5c0-0.5,0.1-0.9,0.4-1.2
			c0,0,0.8,0.3,1.7,0.3c0.7,0,1-0.2,1-0.7c0-0.6-0.6-0.7-1.3-0.9c-0.9-0.3-1.8-0.6-1.8-2C286.6,104.2,287.4,103.3,289.1,103.3z"/>
		<path class="st1" d="M294.3,102.3c0,0-0.3,0.1-0.8,0.1c-0.6,0-0.8-0.1-0.8-0.1v-1.5c0,0,0.2-0.1,0.8-0.1c0.5,0,0.8,0.1,0.8,0.1
			V102.3z M294.3,110.2c0,0-0.3,0.1-0.8,0.1c-0.6,0-0.8-0.1-0.8-0.1v-6.6c0,0,0.2-0.1,0.8-0.1c0.5,0,0.8,0.1,0.8,0.1V110.2z"/>
		<path class="st1" d="M298.2,107.8c0,1.1,0.4,1.3,1.2,1.3c0.2,0,0.5,0,0.5,0s0.1,0.3,0.1,0.6c0,0.3-0.1,0.6-0.1,0.6
			c-0.3,0.1-0.7,0.1-1,0.1c-1.7,0-2.4-0.9-2.4-2.6v-3.2h-1c0,0-0.1-0.2-0.1-0.6c0-0.4,0.1-0.6,0.1-0.6h1v-1.1c0.4-0.3,1-0.4,1.6-0.3
			v1.4h1.5c0,0,0.1,0.2,0.1,0.6c0,0.4-0.1,0.6-0.1,0.6h-1.5V107.8z"/>
	</g>
	<g class="st0">
		<path class="st1" d="M304.6,111c-0.5,1.6-1,2.5-2.6,2.5c-0.5,0-0.8-0.1-0.8-0.1s-0.1-0.3-0.1-0.6c0-0.4,0.1-0.6,0.1-0.6
			s0.3,0.1,0.6,0.1c0.6,0,0.9-0.1,1.3-1.4l0.2-0.5c-0.2,0-0.3,0-0.5-0.1l-2.3-6.6c0,0,0.3-0.1,0.8-0.1c0.6,0,0.8,0.1,0.8,0.1
			l1.2,3.5c0.3,1,0.5,1.6,0.5,1.6h0.1c0,0,0.1-0.6,0.4-1.6l1-3.5c0,0,0.3-0.1,0.8-0.1c0.5,0,0.8,0.1,0.8,0.1L304.6,111z"/>
	</g>
	<g class="st0">
		<path class="st1" d="M310.6,101.1c0,0,0.3-0.1,0.8-0.1c0.6,0,0.8,0.1,0.8,0.1v9.1c0,0-0.3,0.1-0.8,0.1c-0.6,0-0.8-0.1-0.8-0.1
			V101.1z"/>
	</g>
	<g class="st0">
		<path class="st1" d="M319.5,110.2c0,0-0.3,0.1-0.8,0.1c-0.6,0-0.8-0.1-0.8-0.1v-4.6c0-0.6-0.3-0.9-1-0.9c-0.4,0-0.8,0.2-1.1,0.5v5
			c0,0-0.3,0.1-0.8,0.1c-0.6,0-0.8-0.1-0.8-0.1v-6.6c0,0,0.2-0.1,0.8-0.1c0.5,0,0.8,0.1,0.8,0.1v0.4c0.5-0.4,1.1-0.6,1.8-0.6
			c1.3,0,2,0.8,2,2V110.2z"/>
		<path class="st1" d="M322.6,106.9c0,1.5,0.5,2.2,1.6,2.2c0.7,0,1.2-0.2,1.2-0.2c0.3,0.2,0.4,0.7,0.5,1.2c0,0-0.6,0.4-1.9,0.4
			c-2,0-2.9-1.2-2.9-3.5s0.9-3.5,2.9-3.5c1.3,0,1.8,0.3,1.8,0.3c0,0.4-0.2,0.9-0.5,1.2c0,0-0.4-0.2-1.1-0.2
			C323,104.7,322.6,105.3,322.6,106.9z"/>
	</g>
	<g class="st0">
		<path class="st1" d="M330,103.3c0.4,0,0.7,0.1,1.1,0.3c-0.1,0.6-0.3,1-0.7,1.4c-0.2-0.2-0.5-0.3-0.8-0.3c-0.4,0-0.8,0.2-1.1,0.7
			v4.7c0,0-0.3,0.1-0.8,0.1c-0.6,0-0.8-0.1-0.8-0.1v-6.6c0,0,0.2-0.1,0.8-0.1c0.5,0,0.8,0.1,0.8,0.1v0.7
			C329.1,103.7,329.5,103.3,330,103.3z"/>
	</g>
	<g class="st0">
		<path class="st1" d="M333.4,107.4c0.1,1.3,0.7,1.7,1.6,1.7c0.9,0,1.5-0.3,1.5-0.3c0.3,0.3,0.5,0.7,0.5,1.2c0,0-0.8,0.5-2.2,0.5
			c-2.1,0-3-1.2-3-3.6c0-2.4,1.2-3.5,3-3.5c1.6,0,2.7,0.8,2.7,2.7c0,0.8-0.1,1.4-0.1,1.4H333.4z M334.6,104.6
			c-0.7,0-1.2,0.4-1.3,1.6h2.3c0-0.1,0-0.3,0-0.4C335.7,105.2,335.5,104.6,334.6,104.6z"/>
		<path class="st1" d="M341.1,103.3c1.9,0,2.6,0.8,2.6,2.4v4.4c0,0-0.2,0.1-0.6,0.1c-0.4,0-0.7-0.1-0.7-0.1l-0.2-0.7
			c-0.3,0.6-1,0.9-1.9,0.9c-1.2,0-2-0.7-2-2.2c0-1.5,0.9-2.1,2.5-2.1c0.5,0,0.9,0,1.3,0.1v-0.3c0-0.6-0.2-1.2-1.2-1.2
			c-0.9,0-1.7,0.3-1.7,0.3s-0.2-0.1-0.4-0.5c-0.2-0.3-0.1-0.7-0.1-0.7S339.7,103.3,341.1,103.3z M341,107.2c-0.7,0-1,0.3-1,1
			c0,0.7,0.3,1,0.9,1c0.9,0,1.2-0.8,1.2-1.5v-0.4C341.7,107.2,341.4,107.2,341,107.2z"/>
		<path class="st1" d="M347.6,103.3c1.4,0,1.9,0.4,1.9,0.4c0,0.4-0.1,0.9-0.4,1.2c0,0-0.6-0.2-1.3-0.2c-0.8,0-1.1,0.3-1.1,0.7
			c0,0.6,0.8,0.6,1.6,0.9c0.8,0.3,1.5,0.7,1.5,1.9c0,1.4-0.8,2.2-2.5,2.2c-1.4,0-2.2-0.5-2.2-0.5c0-0.5,0.1-0.9,0.4-1.2
			c0,0,0.8,0.3,1.7,0.3c0.7,0,1-0.2,1-0.7c0-0.6-0.6-0.7-1.3-0.9c-0.9-0.3-1.8-0.6-1.8-2C345.1,104.2,345.9,103.3,347.6,103.3z"/>
		<path class="st1" d="M352.5,107.4c0.1,1.3,0.7,1.7,1.6,1.7c0.9,0,1.5-0.3,1.5-0.3c0.3,0.3,0.5,0.7,0.5,1.2c0,0-0.8,0.5-2.2,0.5
			c-2.1,0-3-1.2-3-3.6c0-2.4,1.2-3.5,3-3.5c1.6,0,2.7,0.8,2.7,2.7c0,0.8-0.1,1.4-0.1,1.4H352.5z M353.8,104.6
			c-0.7,0-1.2,0.4-1.3,1.6h2.3c0-0.1,0-0.3,0-0.4C354.8,105.2,354.6,104.6,353.8,104.6z"/>
		<path class="st1" d="M360,103.3c1.4,0,1.9,0.4,1.9,0.4c0,0.4-0.1,0.9-0.4,1.2c0,0-0.6-0.2-1.3-0.2c-0.8,0-1.1,0.3-1.1,0.7
			c0,0.6,0.8,0.6,1.6,0.9c0.8,0.3,1.5,0.7,1.5,1.9c0,1.4-0.8,2.2-2.5,2.2c-1.4,0-2.2-0.5-2.2-0.5c0-0.5,0.1-0.9,0.4-1.2
			c0,0,0.8,0.3,1.7,0.3c0.7,0,1-0.2,1-0.7c0-0.6-0.6-0.7-1.3-0.9c-0.9-0.3-1.8-0.6-1.8-2C357.5,104.2,358.4,103.3,360,103.3z"/>
	</g>
	<g class="st0">
		<path class="st1" d="M291.6,117.8c0.6,0,1,0.1,1,0.1l3.1,9.1c0,0-0.3,0.1-0.9,0.1c-0.6,0-0.8-0.1-0.8-0.1l-0.7-2.1h-3.5L289,127
			c0,0-0.3,0.1-0.8,0.1c-0.5,0-0.8-0.1-0.8-0.1l3.1-9.1C290.6,117.9,291,117.8,291.6,117.8z M291.5,119.6c0,0-0.1,0.7-0.4,1.4
			l-0.9,2.6h2.6l-0.9-2.6C291.7,120.2,291.5,119.6,291.5,119.6L291.5,119.6z"/>
	</g>
	<g class="st0">
		<path class="st1" d="M298,123.7c0,1.5,0.5,2.2,1.6,2.2c0.7,0,1.2-0.2,1.2-0.2c0.3,0.2,0.4,0.7,0.5,1.2c0,0-0.6,0.4-1.9,0.4
			c-2,0-2.9-1.2-2.9-3.5s0.9-3.5,2.9-3.5c1.3,0,1.8,0.3,1.8,0.3c0,0.4-0.2,0.9-0.5,1.2c0,0-0.4-0.2-1.1-0.2
			C298.4,121.5,298,122.2,298,123.7z"/>
		<path class="st1" d="M307.8,127c0,0-0.3,0.1-0.8,0.1c-0.6,0-0.8-0.1-0.8-0.1v-4.6c0-0.6-0.3-0.9-1-0.9c-0.4,0-0.8,0.2-1.1,0.5v5
			c0,0-0.3,0.1-0.8,0.1c-0.6,0-0.8-0.1-0.8-0.1v-9.5c0,0,0.2-0.1,0.8-0.1c0.5,0,0.8,0.1,0.8,0.1v3.3c0.5-0.4,1.1-0.6,1.8-0.6
			c1.3,0,2,0.8,2,2V127z"/>
		<path class="st1" d="M311.1,119.2c0,0-0.3,0.1-0.8,0.1c-0.6,0-0.8-0.1-0.8-0.1v-1.5c0,0,0.2-0.1,0.8-0.1c0.5,0,0.8,0.1,0.8,0.1
			V119.2z M311.1,127c0,0-0.3,0.1-0.8,0.1c-0.6,0-0.8-0.1-0.8-0.1v-6.6c0,0,0.2-0.1,0.8-0.1c0.5,0,0.8,0.1,0.8,0.1V127z"/>
	</g>
	<g class="st0">
		<path class="st1" d="M314.2,124.2c0.1,1.3,0.7,1.7,1.6,1.7c0.9,0,1.5-0.3,1.5-0.3c0.3,0.3,0.5,0.7,0.5,1.2c0,0-0.8,0.5-2.2,0.5
			c-2.1,0-3-1.2-3-3.6c0-2.4,1.2-3.5,3-3.5c1.6,0,2.7,0.8,2.7,2.7c0,0.8-0.1,1.4-0.1,1.4H314.2z M315.5,121.5
			c-0.7,0-1.2,0.4-1.3,1.6h2.3c0-0.1,0-0.3,0-0.4C316.6,122,316.3,121.5,315.5,121.5z"/>
	</g>
	<g class="st0">
		<path class="st1" d="M321.7,124.2c0.2,0.7,0.3,1.5,0.3,1.5h0.1c0,0,0.2-0.7,0.4-1.5l1.2-3.7c0,0,0.3-0.1,0.7-0.1
			c0.5,0,0.8,0.1,0.8,0.1L323,127c0,0-0.4,0.1-1,0.1c-0.6,0-1-0.1-1-0.1l-2.2-6.6c0,0,0.3-0.1,0.8-0.1c0.6,0,0.8,0.1,0.8,0.1
			L321.7,124.2z"/>
	</g>
	<g class="st0">
		<path class="st1" d="M327.5,124.2c0.1,1.3,0.7,1.7,1.6,1.7c0.9,0,1.5-0.3,1.5-0.3c0.3,0.3,0.5,0.7,0.5,1.2c0,0-0.8,0.5-2.2,0.5
			c-2.1,0-3-1.2-3-3.6c0-2.4,1.2-3.5,3-3.5c1.6,0,2.7,0.8,2.7,2.7c0,0.8-0.1,1.4-0.1,1.4H327.5z M328.7,121.5
			c-0.7,0-1.2,0.4-1.3,1.6h2.3c0-0.1,0-0.3,0-0.4C329.8,122,329.6,121.5,328.7,121.5z"/>
		<path class="st1" d="M337.5,117.4c0.5,0,0.8,0.1,0.8,0.1v9.5c0,0-0.3,0.1-0.7,0.1c-0.4,0-0.8-0.1-0.8-0.1l-0.1-0.6
			c-0.4,0.5-0.9,0.8-1.8,0.8c-1.5,0-2.4-0.9-2.4-3.5s0.9-3.5,2.4-3.5c0.8,0,1.4,0.2,1.7,0.7v-3.3
			C336.6,117.5,336.9,117.4,337.5,117.4z M335.5,121.5c-0.8,0-1.3,0.4-1.3,2.2c0,1.8,0.5,2.2,1.3,2.2c0.7,0,1.2-0.6,1.2-1.4v-1.7
			C336.6,122.1,336.2,121.5,335.5,121.5z"/>
	</g>
	<g class="st0">
		<path class="st1" d="M287,67.4c0,0-0.3-0.7-0.3-1.9c0-1.2,0.3-1.8,0.3-1.8l8.5-3.8l-8.5-3.9c0,0-0.3-0.7-0.3-1.9
			c0-1.2,0.3-1.8,0.3-1.8l12.6,5.6c0,0,0.3,0.7,0.3,1.8c0,1.1-0.3,1.9-0.3,1.9L287,67.4z"/>
		<path class="st1" d="M304.3,45.5c0,0,3.2-1.4,7.4-1.4c5,0,9,2.1,9,7.5c0,5.1-2.8,6.8-7.5,9.7c-2.2,1.3-5.1,2.6-5.1,5.1
			c0,0.2,0,0.4,0.1,0.6h11.7c0.4,0.6,0.5,1.4,0.5,2.2s-0.2,1.6-0.5,2.2h-16.4c0,0-0.2-1.3-0.2-2.6c0-6.2,4-8.6,7.6-11.1
			c3.5-2.4,4.7-3.5,4.7-6c0-2.4-1.9-3.5-4.7-3.5c-2.7,0-5.2,0.9-5.2,0.9C304.7,48.2,304.1,47,304.3,45.5z"/>
	</g>
	<g class="st0">
		<path class="st1" d="M323.5,46.3c0-2.8,1.2-4,3.2-4c2,0,3.2,1.1,3.2,4c0,2.9-1.2,4-3.2,4C324.6,50.3,323.5,49.2,323.5,46.3z
			 M325.5,46.3c0,2,0.4,2.4,1.2,2.4c0.7,0,1.1-0.3,1.1-2.4c0-2-0.4-2.4-1.1-2.4C325.9,43.9,325.5,44.4,325.5,46.3z M328.2,58.2
			c0,0-0.3,0.2-1.1,0.2c-0.7,0-1.1-0.2-1.1-0.2l8.8-16c0,0,0.3-0.2,1.1-0.2c0.7,0,1.1,0.2,1.1,0.2L328.2,58.2z M333,54.4
			c0-2.8,1.2-4,3.2-4c2,0,3.2,1.1,3.2,4c0,2.9-1.2,4-3.2,4C334.2,58.4,333,57.3,333,54.4z M335.1,54.4c0,2,0.4,2.4,1.2,2.4
			c0.7,0,1.1-0.3,1.1-2.4c0-2-0.4-2.4-1.1-2.4C335.5,52.1,335.1,52.5,335.1,54.4z"/>
	</g>
	<path class="st1" d="M184.6,52.7v1.4c0,3.6,0,7.2,0,10.9c-0.1,0.9,0.5,1.7,1.4,1.8c0.1,0,0.1,0,0.2,0c0.9,0.2,1.8-0.4,2-1.4
		c0-0.1,0-0.2,0-0.2c0-0.4,0.1-0.9,0.1-1.3V54c0-0.4,0.1-0.8,0.1-1.4h2.6c-0.1-0.5-0.1-0.8-0.2-1.1c-0.6-2.6-1.3-5.2-2-7.7
		c-0.5-2-1.1-4-1.5-6c-0.1-0.2,0.1-0.5,0.2-0.8c0.2,0.2,0.4,0.3,0.5,0.5c0.1,0.2,0.1,0.4,0.2,0.6c0.9,3.1,1.7,6.3,2.6,9.4
		c0.4,1.4,1.1,2,2,1.7s1.2-1,0.8-2.4c-1.1-4.1-2.3-8.2-3.4-12.3c-0.2-1.1-1.2-1.8-2.3-1.7c-2.7,0-5.3,0-8,0c-1.5,0-1.9,0.4-2.3,1.9
		c-0.7,2.3-1.3,4.7-1.9,7c-0.5,1.8-1,3.5-1.5,5.3c-0.3,1-0.2,1.8,0.9,2.2c0.8,0.3,1.5-0.2,1.9-1.3c0.1-0.2,0.1-0.5,0.2-0.7
		c0.9-3.1,1.7-6.2,2.6-9.3c0.2-0.3,0.4-0.6,0.6-0.9c0.1,0.3,0.1,0.7,0.1,1c-1.1,4.2-2.1,8.4-3.2,12.6c-0.2,0.6-0.3,1.3-0.4,2h2.7
		v1.4c0,3.3,0,6.5,0,9.8c0,2.2,0.5,3,1.9,3s1.8-0.8,1.8-3V54c0-0.4,0-0.8,0.1-1.3L184.6,52.7z M180,28c0,2.1,1.6,3.8,3.7,3.8
		c0.1,0,0.1,0,0.2,0c2.1,0,3.8-1.7,3.8-3.8c0,0,0-0.1,0-0.1c0-2.1-1.7-3.7-3.8-3.7c0,0,0,0-0.1,0c-2-0.1-3.7,1.5-3.8,3.5
		C180,27.8,180,27.9,180,28z"/>
	<path class="st1" d="M185.1,52.7h-1.4c0,0.5-0.1,0.9-0.1,1.3v9.8c0,2.2-0.5,3-1.8,3s-1.9-0.8-1.9-3c0-3.3,0-6.5,0-9.8v-1.4h-2.7
		c0.2-0.8,0.3-1.4,0.4-2c1.1-4.2,2.2-8.4,3.2-12.6c0-0.3,0-0.7-0.1-1c-0.3,0.3-0.5,0.5-0.6,0.9c-0.9,3.1-1.7,6.2-2.6,9.3
		c-0.1,0.2-0.1,0.5-0.2,0.7c-0.4,1.1-1,1.6-1.9,1.3c-1-0.4-1.1-1.2-0.9-2.2c0.5-1.8,1-3.5,1.5-5.3c0.7-2.3,1.3-4.7,1.9-7
		c0.4-1.5,0.9-1.9,2.3-1.9c2.7,0,5.3,0,8,0c1.1-0.2,2.1,0.6,2.3,1.7c1.1,4.1,2.3,8.2,3.4,12.3c0.4,1.4,0.1,2.1-0.8,2.4
		s-1.6-0.3-2-1.7c-0.9-3.1-1.7-6.3-2.5-9.4c0-0.2-0.1-0.4-0.2-0.6c-0.2-0.2-0.3-0.4-0.5-0.5c-0.1,0.3-0.3,0.5-0.2,0.8
		c0.5,2,1,4,1.5,6c0.7,2.6,1.3,5.2,2,7.7c0.1,0.3,0.1,0.6,0.2,1.1h-2.6c0,0.5-0.1,1-0.1,1.4c0,3.3,0,6.6,0,9.9c0,0.4,0,0.9-0.1,1.3
		c0,0.9-0.8,1.7-1.8,1.6c-0.1,0-0.2,0-0.2,0c-0.9,0-1.7-0.7-1.7-1.6c0-0.1,0-0.1,0-0.2c0-3.6,0-7.2,0-10.9L185.1,52.7z"/>
	<path class="st1" d="M180,28c-0.1-2,1.5-3.7,3.5-3.8c0.1,0,0.2,0,0.3,0c2.1,0,3.8,1.6,3.8,3.7c0,0,0,0,0,0.1
		c0.1,2.1-1.6,3.9-3.7,3.9c0,0-0.1,0-0.1,0c-2.1,0.1-3.8-1.6-3.9-3.6C180,28.1,180,28.1,180,28z"/>
	<g class="st0">
		<path class="st1" d="M149,130.2c0,0-0.3,0.1-0.9,0.1c-0.7,0-0.9-0.1-0.9-0.1v-10.4h3.9c2,0,3.3,1.3,3.3,3.3s-1.3,3.3-3.3,3.3h-2
			V130.2z M150.8,124.9c1,0,1.6-0.6,1.6-1.7s-0.5-1.7-1.6-1.7H149v3.5H150.8z"/>
	</g>
	<g class="st0">
		<path class="st1" d="M158.3,122.5c2.1,0,2.9,0.9,2.9,2.7v5c0,0-0.2,0.1-0.7,0.1c-0.5,0-0.7-0.1-0.7-0.1l-0.3-0.8
			c-0.3,0.7-1.1,1-2.1,1c-1.4,0-2.3-0.8-2.3-2.5c0-1.6,1-2.3,2.8-2.3c0.5,0,1,0,1.4,0.1v-0.3c0-0.7-0.3-1.3-1.3-1.3
			c-1,0-1.9,0.3-1.9,0.3s-0.2-0.1-0.4-0.5c-0.2-0.4-0.1-0.8-0.1-0.8S156.8,122.5,158.3,122.5z M158.2,126.9c-0.7,0-1.2,0.3-1.2,1.1
			c0,0.8,0.4,1.1,1.1,1.1c1,0,1.3-0.9,1.3-1.7v-0.4C159,126.9,158.6,126.9,158.2,126.9z"/>
		<path class="st1" d="M166.5,122.5c0.4,0,0.8,0.1,1.3,0.4c-0.1,0.7-0.3,1.1-0.8,1.6c-0.3-0.2-0.6-0.3-0.8-0.3
			c-0.5,0-0.9,0.3-1.3,0.8v5.3c0,0-0.3,0.1-0.9,0.1c-0.6,0-0.9-0.1-0.9-0.1v-7.4c0,0,0.3-0.1,0.9-0.1c0.6,0,0.9,0.1,0.9,0.1v0.8
			C165.4,122.9,166,122.5,166.5,122.5z"/>
		<path class="st1" d="M171.2,127.5c0,1.2,0.5,1.5,1.4,1.5c0.2,0,0.5,0,0.5,0s0.1,0.3,0.1,0.7c0,0.4-0.1,0.7-0.1,0.7
			c-0.4,0.1-0.7,0.1-1.1,0.1c-1.9,0-2.7-1-2.7-2.9V124h-1.1c0,0-0.1-0.3-0.1-0.7c0-0.5,0.1-0.7,0.1-0.7h1.1v-1.3
			c0.5-0.3,1.2-0.4,1.8-0.4v1.6h1.7c0,0,0.1,0.2,0.1,0.7c0,0.4-0.1,0.7-0.1,0.7h-1.7V127.5z"/>
		<path class="st1" d="M176.4,121.4c0,0-0.3,0.1-0.9,0.1c-0.6,0-0.9-0.1-0.9-0.1v-1.7c0,0,0.3-0.1,0.9-0.1c0.6,0,0.9,0.1,0.9,0.1
			V121.4z M176.4,130.2c0,0-0.3,0.1-0.9,0.1c-0.6,0-0.9-0.1-0.9-0.1v-7.4c0,0,0.3-0.1,0.9-0.1c0.6,0,0.9,0.1,0.9,0.1V130.2z"/>
		<path class="st1" d="M179.9,126.5c0,1.7,0.5,2.4,1.8,2.4c0.7,0,1.3-0.2,1.3-0.2c0.3,0.3,0.5,0.8,0.5,1.3c0,0-0.6,0.5-2.2,0.5
			c-2.2,0-3.3-1.4-3.3-4c0-2.6,1.1-4,3.3-4c1.5,0,2,0.4,2,0.4c0,0.5-0.2,1-0.5,1.3c0,0-0.5-0.2-1.2-0.2
			C180.3,124,179.9,124.8,179.9,126.5z"/>
		<path class="st1" d="M186.7,121.4c0,0-0.3,0.1-0.9,0.1c-0.6,0-0.9-0.1-0.9-0.1v-1.7c0,0,0.3-0.1,0.9-0.1c0.6,0,0.9,0.1,0.9,0.1
			V121.4z M186.7,130.2c0,0-0.3,0.1-0.9,0.1c-0.6,0-0.9-0.1-0.9-0.1v-7.4c0,0,0.3-0.1,0.9-0.1c0.6,0,0.9,0.1,0.9,0.1V130.2z"/>
		<path class="st1" d="M192.4,122.5c1.6,0,2.7,1,2.7,4c0,3-1.1,4-2.7,4c-0.9,0-1.6-0.3-2-0.8v3.8c0,0-0.3,0.1-0.9,0.1
			c-0.6,0-0.9-0.1-0.9-0.1v-10.7c0,0,0.3-0.1,0.9-0.1c0.6,0,0.9,0.1,0.9,0.1v0.5C190.9,122.8,191.5,122.5,192.4,122.5z M191.8,124
			c-0.8,0-1.3,0.7-1.3,1.6v1.8c0,0.9,0.5,1.6,1.3,1.6c0.9,0,1.5-0.4,1.5-2.5C193.2,124.5,192.7,124,191.8,124z"/>
		<path class="st1" d="M199.5,122.5c2.1,0,2.9,0.9,2.9,2.7v5c0,0-0.2,0.1-0.7,0.1c-0.5,0-0.7-0.1-0.7-0.1l-0.3-0.8
			c-0.3,0.7-1.1,1-2.1,1c-1.4,0-2.3-0.8-2.3-2.5c0-1.6,1-2.3,2.8-2.3c0.5,0,1,0,1.4,0.1v-0.3c0-0.7-0.3-1.3-1.3-1.3
			c-1,0-1.9,0.3-1.9,0.3s-0.2-0.1-0.4-0.5c-0.2-0.4-0.1-0.8-0.1-0.8S198,122.5,199.5,122.5z M199.4,126.9c-0.7,0-1.2,0.3-1.2,1.1
			c0,0.8,0.4,1.1,1,1.1c1,0,1.3-0.9,1.3-1.7v-0.4C200.2,126.9,199.8,126.9,199.4,126.9z"/>
		<path class="st1" d="M210.4,130.2c0,0-0.3,0.1-0.9,0.1c-0.6,0-0.9-0.1-0.9-0.1v-5.2c0-0.6-0.3-1.1-1.2-1.1c-0.5,0-0.9,0.2-1.3,0.5
			v5.7c0,0-0.3,0.1-0.9,0.1c-0.6,0-0.9-0.1-0.9-0.1v-7.4c0,0,0.3-0.1,0.9-0.1c0.6,0,0.9,0.1,0.9,0.1v0.4c0.5-0.5,1.2-0.7,2-0.7
			c1.5,0,2.3,0.9,2.3,2.2V130.2z"/>
		<path class="st1" d="M214.6,127.5c0,1.2,0.5,1.5,1.4,1.5c0.2,0,0.5,0,0.5,0s0.1,0.3,0.1,0.7c0,0.4-0.1,0.7-0.1,0.7
			c-0.3,0.1-0.7,0.1-1.1,0.1c-1.9,0-2.7-1-2.7-2.9V124h-1.1c0,0-0.1-0.3-0.1-0.7c0-0.5,0.1-0.7,0.1-0.7h1.1v-1.3
			c0.5-0.3,1.2-0.4,1.8-0.4v1.6h1.7c0,0,0.1,0.2,0.1,0.7c0,0.4-0.1,0.7-0.1,0.7h-1.7V127.5z"/>
		<path class="st1" d="M220.4,122.5c1.6,0,2.1,0.4,2.1,0.4c0,0.5-0.1,1-0.5,1.3c0,0-0.7-0.2-1.5-0.2c-0.8,0-1.3,0.3-1.3,0.8
			c0,0.6,0.9,0.7,1.9,1c0.9,0.3,1.7,0.8,1.7,2.2c0,1.5-0.9,2.4-2.9,2.4c-1.6,0-2.5-0.6-2.5-0.6c0-0.5,0.2-1,0.5-1.4
			c0,0,0.9,0.3,1.9,0.3c0.8,0,1.1-0.3,1.1-0.8c0-0.6-0.7-0.8-1.5-1c-1-0.3-2-0.7-2-2.2C217.6,123.5,218.5,122.5,220.4,122.5z"/>
	</g>
	<g class="st0">
		<path class="st1" d="M154.2,79.7c0,0,3.6-1.6,8.2-1.6c5.5,0,10,2.3,10,8.3c0,5.7-3.2,7.6-8.4,10.8c-2.4,1.5-5.6,2.9-5.6,5.6
			c0,0.2,0,0.4,0.1,0.7l13.1,0c0.4,0.7,0.5,1.6,0.5,2.5s-0.2,1.8-0.5,2.5l-18.3,0c0,0-0.3-1.4-0.3-2.9c0-6.9,4.5-9.6,8.5-12.3
			c3.9-2.6,5.2-3.9,5.2-6.6c0-2.7-2.1-3.9-5.2-3.9c-3,0-5.8,1-5.8,1C154.6,82.7,154,81.3,154.2,79.7z"/>
		<path class="st1" d="M184,78.9c0,0,0.8-0.4,2.7-0.4c1.8,0,2.8,0.4,2.8,0.4l0,29.1c0,0-0.9,0.4-2.8,0.4c-1.8,0-2.9-0.4-2.9-0.4
			l0-16.8c0-2.2,0.1-4,0.2-5.5c-2.1,1.7-4.5,2.7-6.9,3.3c-1.1-1.1-1.6-2.8-1.3-4.6C179.5,83.4,181.9,81.8,184,78.9z"/>
		<path class="st1" d="M212.7,83c-5.9,0.7-9.3,2.8-10.7,7.7c1.3-0.3,2.8-0.6,4.6-0.6c5.1,0,9.2,2.6,9.2,9.4c0,6.5-3.9,9.4-10.1,9.4
			c-6.2,0-10.1-3.5-10.1-11.7c0-12.3,6.2-17.9,17.1-18.6C213.3,79.8,213.3,81.6,212.7,83z M205.6,94.5c-1.7,0-3.2,0.4-4.3,0.7
			c0,0.7,0,1.4,0,2.2c0,5.4,1.8,7.3,4.4,7.3c2.7,0,4.4-1.5,4.4-5.1C210.1,95.7,208.2,94.5,205.6,94.5z"/>
	</g>
	<g class="st0">
		<path class="st1" d="M60.1,92.7c0.8,0,1.4,0.2,1.4,0.2v12c0,0-0.4,0.2-1.1,0.2s-1.1-0.2-1.1-0.2v-3.7c0-1.9-0.1-4.2,0.1-5.7h-0.1
			c-0.3,1.1-1.2,2.9-1.9,4.3l-1.2,2.5c0,0-0.3,0.1-0.6,0.1c-0.4,0-0.5-0.1-0.5-0.1c-0.4-0.8-0.8-1.6-1.2-2.4
			c-0.7-1.5-1.7-3.3-1.9-4.4h-0.1c0.3,1.2,0.2,3.4,0.2,5.2v4.2c0,0-0.4,0.2-1,0.2c-0.6,0-1-0.2-1-0.2v-12c0,0,0.5-0.2,1.3-0.2
			c0.7,0,1.3,0.2,1.3,0.2l1.6,3.1c0.6,1.2,1.2,2.5,1.5,3.4h0.1c0.2-0.5,0.4-1.1,0.7-1.8c0.8-1.6,1.5-3.1,2.2-4.7
			C59.2,92.8,59.7,92.7,60.1,92.7z"/>
	</g>
	<g class="st0">
		<path class="st1" d="M67.5,95.9c2.4,0,3.9,1.3,3.9,4.7s-1.5,4.7-3.9,4.7s-3.9-1.3-3.9-4.7S65.1,95.9,67.5,95.9z M67.5,97.5
			c-1,0-1.7,0.6-1.7,3c0,2.4,0.7,3,1.7,3s1.7-0.6,1.7-3C69.2,98.1,68.5,97.5,67.5,97.5z"/>
		<path class="st1" d="M80.5,104.9c0,0-0.4,0.1-1.1,0.1c-0.8,0-1.1-0.1-1.1-0.1v-6.1c0-0.7-0.4-1.2-1.4-1.2c-0.6,0-1.1,0.2-1.5,0.6
			v6.7c0,0-0.4,0.1-1.1,0.1c-0.8,0-1.1-0.1-1.1-0.1v-8.7c0,0,0.3-0.1,1.1-0.1c0.7,0,1.1,0.1,1.1,0.1v0.5c0.6-0.5,1.4-0.8,2.3-0.8
			c1.8,0,2.7,1.1,2.7,2.6V104.9z"/>
		<path class="st1" d="M85.4,101.7c0,1.5,0.5,1.8,1.6,1.8c0.3,0,0.6-0.1,0.6-0.1s0.2,0.4,0.2,0.9c0,0.5-0.1,0.8-0.1,0.8
			c-0.4,0.1-0.9,0.2-1.3,0.2c-2.2,0-3.2-1.1-3.2-3.4v-4.2H82c0,0-0.1-0.3-0.1-0.8c0-0.5,0.1-0.8,0.1-0.8h1.3v-1.5
			c0.6-0.3,1.4-0.5,2.2-0.4V96h2c0,0,0.1,0.3,0.1,0.8c0,0.5-0.1,0.8-0.1,0.8h-2V101.7z"/>
		<path class="st1" d="M96.5,104.9c0,0-0.4,0.1-1.1,0.1c-0.8,0-1.1-0.1-1.1-0.1v-6.1c0-0.7-0.4-1.2-1.4-1.2c-0.6,0-1.1,0.2-1.5,0.6
			v6.7c0,0-0.4,0.1-1.1,0.1c-0.8,0-1.1-0.1-1.1-0.1V92.3c0,0,0.3-0.1,1.1-0.1c0.7,0,1.1,0.1,1.1,0.1v4.3c0.6-0.5,1.4-0.8,2.3-0.8
			c1.8,0,2.7,1.1,2.7,2.6V104.9z"/>
	</g>
	<g class="st0">
		<path class="st1" d="M53.8,113.1c2.1,0,3.4,0.5,3.4,0.5c0,0.6-0.2,1.3-0.6,1.7c0,0-1.1-0.4-2.6-0.4c-1.7,0-2.4,0.5-2.4,1.7
			c0,1.1,1.5,1.4,3,1.9c1.5,0.6,3.1,1.4,3.1,3.6c0,2.4-1.5,3.7-4.4,3.7c-2.3,0-3.8-0.8-3.8-0.8c0-0.6,0.2-1.2,0.5-1.7
			c0,0,1.6,0.5,3.2,0.5c1.6,0,2.3-0.6,2.3-1.7c0-0.9-0.8-1.4-1.8-1.7c-1.8-0.6-4.2-1-4.2-3.7C49.5,114.6,50.9,113.1,53.8,113.1z"/>
	</g>
	<g class="st0">
		<path class="st1" d="M62.1,122.3c0,1.5,0.5,1.8,1.6,1.8c0.3,0,0.6-0.1,0.6-0.1s0.2,0.4,0.2,0.9c0,0.5-0.1,0.8-0.1,0.8
			c-0.4,0.1-0.9,0.2-1.3,0.2c-2.2,0-3.2-1.1-3.2-3.4v-4.2h-1.3c0,0-0.1-0.3-0.1-0.8c0-0.5,0.1-0.8,0.1-0.8H60v-1.5
			c0.6-0.3,1.4-0.5,2.2-0.4v1.9h2c0,0,0.1,0.3,0.1,0.8c0,0.5-0.1,0.8-0.1,0.8h-2V122.3z"/>
		<path class="st1" d="M65.9,116.7c0,0,0.4-0.1,1.1-0.1c0.8,0,1.1,0.1,1.1,0.1v6.1c0,0.7,0.4,1.2,1.4,1.2c0.6,0,1.1-0.2,1.5-0.6
			v-6.7c0,0,0.4-0.1,1.1-0.1c0.8,0,1.1,0.1,1.1,0.1v8.7c0,0-0.3,0.1-1.1,0.1c-0.7,0-1.1-0.1-1.1-0.1v-0.5c-0.6,0.5-1.4,0.8-2.3,0.8
			c-1.8,0-2.7-1.1-2.7-2.6V116.7z"/>
		<path class="st1" d="M81.6,112.8c0.7,0,1.1,0.1,1.1,0.1v12.6c0,0-0.4,0.1-0.9,0.1c-0.5,0-1-0.1-1-0.1l-0.1-0.7
			c-0.5,0.7-1.2,1-2.4,1c-1.9,0-3.2-1.2-3.2-4.7c0-3.5,1.2-4.7,3.2-4.7c1.1,0,1.8,0.3,2.3,0.9v-4.4
			C80.5,112.9,80.9,112.8,81.6,112.8z M79,118.2c-1.1,0-1.7,0.5-1.7,2.9s0.6,2.9,1.7,2.9c1,0,1.5-0.8,1.5-1.8V120
			C80.5,118.9,79.9,118.2,79,118.2z"/>
	</g>
	<g class="st0">
		<path class="st1" d="M89.5,126.6c-0.7,2.1-1.3,3.3-3.5,3.3c-0.6,0-1-0.2-1-0.2s-0.2-0.4-0.2-0.8c0-0.5,0.2-0.9,0.2-0.9
			s0.4,0.1,0.8,0.1c0.8,0,1.2-0.1,1.7-1.8l0.2-0.7c-0.2,0-0.4,0-0.7-0.1l-3.1-8.7c0,0,0.4-0.1,1.1-0.1c0.7,0,1.1,0.1,1.1,0.1
			l1.6,4.6c0.4,1.3,0.6,2.2,0.6,2.2h0.1c0,0,0.2-0.9,0.5-2.2l1.4-4.6c0,0,0.3-0.1,1-0.1c0.6,0,1,0.1,1,0.1L89.5,126.6z"/>
	</g>
	<line class="st2" x1="121" y1="158" x2="121" y2="-4.5"/>
	<line class="st2" x1="248.6" y1="158" x2="248.6" y2="-4.5"/>
	<path class="st1" d="M42.5,24.3h0.7c0.2,0,0.4,0.2,0.4,0.4v5.9c0,0.2-0.2,0.4-0.4,0.4h-0.7c-0.2,0-0.4-0.2-0.4-0.4v-5.9
		C42.1,24.4,42.3,24.3,42.5,24.3z"/>
	<path class="st1" d="M48.3,24.3H49c0.2,0,0.4,0.2,0.4,0.4v5.9c0,0.2-0.2,0.4-0.4,0.4h-0.7c-0.2,0-0.4-0.2-0.4-0.4v-5.9
		C47.9,24.4,48.1,24.3,48.3,24.3z"/>
	<path class="st1" d="M54.4,24.3h0.7c0.2,0,0.4,0.2,0.4,0.4v5.9c0,0.2-0.2,0.4-0.4,0.4h-0.7c-0.2,0-0.4-0.2-0.4-0.4v-5.9
		C54,24.4,54.2,24.3,54.4,24.3z"/>
	<path class="st1" d="M60.2,24.3h0.7c0.2,0,0.4,0.2,0.4,0.4v5.9c0,0.2-0.2,0.4-0.4,0.4h-0.7c-0.2,0-0.4-0.2-0.4-0.4v-5.9
		C59.8,24.4,60,24.3,60.2,24.3z"/>
	<path class="st1" d="M66.1,24.3h0.7c0.2,0,0.4,0.2,0.4,0.4v5.9c0,0.2-0.2,0.4-0.4,0.4h-0.7c-0.2,0-0.4-0.2-0.4-0.4v-5.9
		C65.7,24.4,65.8,24.3,66.1,24.3z"/>
	<path class="st1" d="M72.2,24.3h0.7c0.2,0,0.4,0.2,0.4,0.4v5.9c0,0.2-0.2,0.4-0.4,0.4h-0.7c-0.2,0-0.4-0.2-0.4-0.4v-5.9
		C71.8,24.4,71.9,24.3,72.2,24.3z"/>
	<path class="st1" d="M84.2,28.4c-0.2-0.5-0.5-0.8-1-0.9c-1.1-0.1-2.3-0.1-3.4,0v1.5c0,0.2,0,0.4,0,0.7v0.2v1.5
		c0,0.5-0.4,0.8-0.8,0.8l0,0h-1.8c-0.5,0-0.8-0.4-0.8-0.8v0v-3.7c-0.7,0-1.3,0-2,0.1v3.6c0,0.5-0.4,0.8-0.8,0.8l0,0h-1.9
		c-0.5,0-0.8-0.4-0.8-0.8v-3.7c0,0-0.1-0.1-0.1-0.1c-0.8-0.1-1.6-0.1-2.3,0.1c-0.1,0-0.1,0.1-0.1,0.2v3.4c0,0.5-0.4,0.8-0.8,0.8
		h-1.9c-0.5,0-0.8-0.4-0.8-0.8v0v-3.8c-0.4-0.1-0.9-0.1-1.3,0c-0.3,0-0.6,0-0.9,0.1v3.7c0,0.5-0.4,0.8-0.8,0.8h-1.9
		c-0.5,0-0.8-0.4-0.8-0.8v0v-3.6c-0.8-0.1-1.5-0.1-2.3,0v3.6c0,0.5-0.4,0.8-0.8,0.8h-1.9c-0.5,0-0.8-0.4-0.8-0.8v0v-3.7l0,0
		c-0.8-0.1-1.6,0-2.3,0.1c-0.2,0,0,1.1,0,1.8c0,0.1,0.1,0.2,0,0.3s-0.1,0.3-0.2,0.5v1.1c0,0.5-0.4,0.8-0.8,0.8l0,0h-1.9
		c-0.5,0-0.8-0.4-0.8-0.8v-3.7c-0.7-0.1-1.4,0-2.1,0.1c-0.2,0,0,1.1-0.1,1.8c0,0.1,0,0.1,0,0.2v1.7c0,0.5-0.4,0.8-0.8,0.8l0,0h-1.9
		c-0.5,0-0.8-0.4-0.8-0.8v-3.8l0,0c-1,0-1.9,0-2.7,0s-1.2,0.4-1.2,1.3c0,1,0,2.1,0,3.1c0,2,0.1,2,2,2h43c0.3,0,0.7,0.1,1,0
		c0.4-0.2,1-0.6,1-1C84.3,31.3,84.3,29.9,84.2,28.4z"/>
	<path class="st1" d="M77.7,24.3h0.7c0.2,0,0.4,0.2,0.4,0.4v5.9c0,0.2-0.2,0.4-0.4,0.4h-0.7c-0.2,0-0.4-0.2-0.4-0.4v-5.9
		C77.3,24.4,77.5,24.3,77.7,24.3z"/>
	<path class="st1" d="M62.5,34.9h19.9c1.6,0,1.8,0.2,1.8,2.1c0,10.6,0,21.2,0,31.9c0,1.9-0.2,2.1-1.7,2.1H38.8
		c-1.6,0-1.8-0.2-1.8-2.1c0-10.7,0-21.3,0-32c0-1.8,0.2-2,1.9-2L62.5,34.9z M50,68.7c0-1.4,0-2.6,0-3.8s-1-1.2-1.7-1.1
		c-1.1,0.2-2.9-1-3.2,1c-0.6,3.8-0.2,4.2,3.6,4C49.1,68.9,49.4,68.8,50,68.7z M43.4,66.4c0-2.6,0-2.6-2.3-2.6c-2.6,0-2.6,0-2.6,2.4
		c0,2.9-0.4,2.7,2.5,2.7S43.4,69,43.4,66.4z M64.6,66.3c0.1,2.7-0.4,2.6,2.4,2.6c2.4,0,2.4,0,2.4-2.5s0-2.6-2.4-2.6
		S64.6,63.8,64.6,66.3z M63,68.8c0-1.5,0.1-2.8,0-4.1c-0.1-0.4-0.4-0.8-0.9-0.9c-1-0.1-2.1-0.1-3.1,0c-1.1,0-1,1-0.8,1.6
		c0.2,1.1-0.9,2.8,0.8,3.3C60,69.2,61.5,68.8,63,68.8z M53.9,68.8c2.9,0,2.5,0.1,2.5-2.4c0-2.7,0-2.7-2.2-2.7c-2.6,0-2.6,0-2.6,2.5
		C51.6,69.2,51.3,68.8,53.9,68.8L53.9,68.8z M51.6,46.1c0,3-0.2,2.6,2.7,2.7c2.2,0,2.2,0,2.2-2.6c0-2.9,0.3-2.3-3.2-2.5
		C51,43.5,51.8,45.1,51.6,46.1z M73.6,57.1c-2.5,0-2.5,0-2.5,2.4c0,2.7,0,2.7,2.2,2.7c2.7,0,2.7,0,2.7-2.4
		C75.9,56.8,76.2,57.2,73.6,57.1L73.6,57.1z M63,59.8c0-2.6,0-2.7-2.1-2.6c-2.9,0-2.8-0.4-2.8,2.3c0,2.9-0.3,2.7,2.5,2.8
		C63,62.2,63,62.2,63,59.8z M47.6,57.1c-2.5,0-2.5,0-2.5,2.4c0,2.6,0,2.6,2.5,2.6s2.5,0,2.5-2.4C50,56.8,50.3,57.1,47.6,57.1
		L47.6,57.1z M43.5,59.5c0-2.4,0-2.5-2.2-2.4c-3,0-2.7-0.3-2.7,2.5c0,2.5,0,2.5,2.4,2.5C43.8,62.2,43.4,62.3,43.5,59.5L43.5,59.5z
		 M80,55.4c2.8,0,2.4,0.2,2.4-2.8c0-2.3,0-2.3-2.4-2.3s-2.5,0-2.5,2.4C77.6,55.7,77.3,55.4,80,55.4z M73.4,55.4c2.5,0,2.5,0,2.5-2.4
		c0-2.7,0.3-2.6-2.5-2.6c-2.4,0-2.4,0-2.4,2.5S71,55.4,73.4,55.4L73.4,55.4z M60.4,55.4c2.6,0,2.6,0,2.6-2.4c0-2.6,0-2.6-2.5-2.6
		s-2.5,0-2.4,2.3C58.1,55.7,57.8,55.4,60.4,55.4L60.4,55.4z M47.4,55.4c2.7,0,2.5,0.3,2.5-2.4s0-2.6-2.3-2.6c-2.6,0-2.6,0-2.6,2.3
		C45.1,55.7,44.8,55.4,47.4,55.4L47.4,55.4z M43.4,53c0-2.7,0-2.7-2.3-2.7c-2.6,0-2.6,0-2.6,2.5c0,2.9-0.2,2.5,2.5,2.5
		C43.4,55.4,43.4,55.4,43.4,53L43.4,53z M82.4,46.2c0-2.6,0-2.6-2.2-2.6c-2.9,0-2.7-0.3-2.6,2.4s-0.4,2.6,2.4,2.7
		C82.5,48.7,82.5,48.7,82.4,46.2L82.4,46.2z M73.4,43.7c-2.5,0-2.5,0-2.5,2.3c0,3-0.4,2.8,2.4,2.8c2.5,0,2.5,0,2.5-2.6
		S76,43.7,73.4,43.7L73.4,43.7z M63,46.2c0-2.7,0.3-2.5-2.6-2.5c-2.6,0-2.3-0.2-2.3,2.8c0,2.3,0,2.3,2.5,2.3
		C63,48.7,63,48.7,63,46.2z M50,46.2c0-2.5,0-2.5-2.2-2.5c-3,0-2.7-0.3-2.7,2.4s0,2.7,2.4,2.7C50.3,48.7,50,48.9,50,46.2z
		 M41.1,43.7c-2.6,0-2.6,0-2.6,2.4c0,2.7,0,2.7,2.3,2.7c2.6,0,2.7,0,2.6-2.3C43.4,43.4,43.8,43.7,41.1,43.7L41.1,43.7z M69.4,46
		c0-2.4,0-2.4-2-2.4c-3.1,0-2.8-0.4-2.8,2.5c0,2.5,0,2.5,2.4,2.5S69.4,48.7,69.4,46L69.4,46z M80,42c2.6,0,2.4,0.4,2.4-2.5
		c0-2.6,0-2.6-2.5-2.6c-2.8,0-2.4-0.2-2.4,2.7S77.3,42,80,42z M73.5,42c2.5,0,2.4,0.4,2.4-2.5s0.2-2.5-2.7-2.6c-2.3,0-2.3,0-2.3,2.7
		S70.9,42,73.5,42L73.5,42z M69.1,42c1-4.4,0.3-5.4-3.4-5c-0.1,0-0.1,0-0.2,0c-0.3,0.4-1,0.8-1,1.2c0.2,1.3-0.7,2.8,0.6,3.9
		c0,0,0.1,0,0.1,0L69.1,42z M60.5,42c2.6,0,2.5,0.4,2.5-2.4s0.3-2.6-2.6-2.7c-2.3,0-2.3,0-2.3,2.6C58.1,42.3,57.9,42,60.5,42z
		 M80.1,57.1c-2.7,0-2.5-0.3-2.5,2.2c0,2.9-0.4,2.8,2.3,2.8s2.6,0,2.6-2.5S82.5,57.1,80.1,57.1z M51.7,55.4c1.4,0,2.6,0,3.8,0
		c0.3,0,0.8-0.4,0.8-0.6c0.1-1.2,0.1-2.5,0-3.7c0-0.2-0.5-0.6-0.8-0.6c-3.5-0.6-4-0.2-3.9,3.4C51.6,54.3,51.7,54.8,51.7,55.4z
		 M67,55.4c2.5,0,2.4,0.4,2.4-2.5c0-2.5,0-2.5-2.3-2.5c-2.6,0-2.6,0-2.6,2.5C64.6,55.7,64.4,55.4,67,55.4L67,55.4z M51.9,57.1
		c-1,4.3-0.3,5.4,3.4,5c0.1,0,0.3,0,0.3,0c0.3-0.5,0.8-1.2,0.8-1.7c-0.1-1.1,0.8-2.5-0.7-3.3c0,0-0.1,0-0.1,0L51.9,57.1z M64.6,59.5
		c0,2.7,0,2.7,2.3,2.7c2.5,0,2.5,0,2.5-2.4c0-2.6,0-2.7-2.2-2.6C64.4,57.1,64.6,56.8,64.6,59.5z"/>
</g>
</svg>
