<?xml version="1.0" encoding="utf-8"?>
<!-- Generator: Adobe Illustrator 22.1.0, SVG Export Plug-In . SVG Version: 6.00 Build 0)  -->
<svg version="1.1" id="Layer_2_1_" xmlns="http://www.w3.org/2000/svg" xmlns:xlink="http://www.w3.org/1999/xlink" x="0px" y="0px"
	 viewBox="0 0 358 183.4" style="enable-background:new 0 0 358 183.4;" xml:space="preserve">
<style type="text/css">
	.st0{fill:#41AD49;}
	.st1{fill:#08B5E5;}
	.st2{fill:#EC8922;}
	.st3{font-family:'GloberSemiBold';}
	.st4{font-size:18px;}
	.st5{font-family:'GloberBold';}
	.st6{font-size:16px;}
	.st7{fill:#DF6000;}
	.st8{fill:#FFFFFF;}
	.st9{font-size:13px;}
	.st10{font-size:8.91px;}
	.st11{letter-spacing:10;}
	.st12{letter-spacing:16;}
	.st13{letter-spacing:6;}
	.st14{letter-spacing:5;}
	.st15{fill:none;stroke:#000000;stroke-width:0.5569;stroke-miterlimit:10;}
	.st16{fill:#FFFFFF;stroke:#00C3C8;stroke-width:1.1137;stroke-miterlimit:10;}
	.st17{opacity:0.41;}
	.st18{fill:none;stroke:#FFFFFF;stroke-width:6;stroke-linecap:round;stroke-linejoin:round;}
	.st19{fill:none;stroke:#FFFFFF;stroke-width:6;stroke-linecap:round;stroke-linejoin:round;stroke-dasharray:0,10.2712;}
	.st20{fill:none;stroke:#FFFFFF;stroke-width:6;stroke-linecap:round;stroke-linejoin:round;stroke-dasharray:0,9.8646;}
</style>
<path class="st0" d="M150.5,36.2c-14.4,3.4-21.5,7.3-27.8,12.8c-8.4,7.2-37.3,42.9-45.1,50.1s-44.5,44-44.5,44
	c0-0.2,53.3-0.2,117.5-0.2V36.2H150.5z"/>
<path class="st1" d="M354.9,93.4c-10.5-3.7-65.9-21-83.5-30.5c-13.5-7.2-42-27.4-80.7-30.4V143c77.6,0,156.9,0.1,164.3,0.2V93.4
	H354.9z"/>
<path class="st2" d="M150.5,142.9c13.4,0,27.3,0,41.2,0V32.4c-0.7-0.1-1.5-0.1-2.2-0.1c-15.7-0.9-28.7,1.1-39,3.9V142.9z"/>
<text transform="matrix(0 -1 1 0 15.4824 141.167)" class="st3 st4">Bone Density</text>
<text transform="matrix(1 0 0 1 145.5073 178.9196)" class="st3 st4">Age (years)</text>
<text transform="matrix(1 0 0 1 52.5073 43.9196)" class="st0 st5 st6">Growth</text>
<text transform="matrix(1 0 0 1 154.5073 18.9196)" class="st7 st5 st6">Peak</text>
<text transform="matrix(1 0 0 1 240.5073 22.9196)" class="st1 st5 st6">Age-Related</text>
<text transform="matrix(1 0 0 1 240.5073 42.1196)" class="st1 st5 st6">       Bone Loss</text>
<text transform="matrix(1.220000e-02 -0.9999 0.9999 1.220000e-02 254.873 137.4463)" class="st8 st5 st9">MENOPAUSE</text>
<text transform="matrix(1 0 0 1 26.5371 155.5533)" class="st5 st10">0</text>
<text transform="matrix(1 0 0 1 32.0371 155.5533)" class="st5 st10 st11"> </text>
<text transform="matrix(1 0 0 1 46.5371 155.5533)" class="st5 st10 st12"> </text>
<text transform="matrix(1 0 0 1 66.6371 155.5533)" class="st5 st10">10</text>
<text transform="matrix(1 0 0 1 75.9371 155.5533)" class="st5 st10 st13"> </text>
<text transform="matrix(1 0 0 1 86.6371 155.5533)" class="st5 st10 st12"> </text>
<text transform="matrix(1 0 0 1 106.7371 155.5533)" class="st5 st10">20</text>
<text transform="matrix(1 0 0 1 117.0371 155.5533)" class="st5 st10 st14"> </text>
<text transform="matrix(1 0 0 1 126.7371 155.5533)" class="st5 st10 st12"> </text>
<text transform="matrix(1 0 0 1 146.8371 155.5533)" class="st5 st10">30</text>
<text transform="matrix(1 0 0 1 157.0371 155.5533)" class="st5 st10 st14"> </text>
<text transform="matrix(1 0 0 1 166.8371 155.5533)" class="st5 st10 st12"> </text>
<text transform="matrix(1 0 0 1 186.9371 155.5533)" class="st5 st10">40</text>
<text transform="matrix(1 0 0 1 197.6371 155.5533)" class="st5 st10 st14"> </text>
<text transform="matrix(1 0 0 1 206.9371 155.5533)" class="st5 st10 st12"> </text>
<text transform="matrix(1 0 0 1 227.0371 155.5533)" class="st5 st10">50</text>
<text transform="matrix(1 0 0 1 237.2371 155.5533)" class="st5 st10 st14"> </text>
<text transform="matrix(1 0 0 1 247.0371 155.5533)" class="st5 st10 st12"> </text>
<text transform="matrix(1 0 0 1 267.1371 155.5533)" class="st5 st10">60</text>
<text transform="matrix(1 0 0 1 277.5371 155.5533)" class="st5 st10 st14"> </text>
<text transform="matrix(1 0 0 1 287.1371 155.5533)" class="st5 st10 st12"> </text>
<text transform="matrix(1 0 0 1 307.2371 155.5533)" class="st5 st10">70</text>
<text transform="matrix(1 0 0 1 317.1371 155.5533)" class="st5 st10 st13"> </text>
<text transform="matrix(1 0 0 1 327.2371 155.5533)" class="st5 st10 st12"> </text>
<text transform="matrix(1 0 0 1 347.337 155.5533)" class="st5 st10">80</text>
<line class="st15" x1="33" y1="0" x2="33" y2="143.1"/>
<line class="st15" x1="150.8" y1="145.9" x2="150.8" y2="142.6"/>
<line class="st15" x1="111.3" y1="145.9" x2="111.3" y2="142.6"/>
<line class="st15" x1="231.6" y1="145.9" x2="231.6" y2="142.6"/>
<line class="st15" x1="355.2" y1="145.9" x2="355.2" y2="142.6"/>
<line class="st15" x1="312.9" y1="145.9" x2="312.9" y2="142.6"/>
<line class="st15" x1="191.5" y1="145.9" x2="191.5" y2="142.6"/>
<line class="st15" x1="273.9" y1="145.9" x2="273.9" y2="142.6"/>
<line class="st15" x1="71.2" y1="145.9" x2="71.2" y2="142.6"/>
<circle class="st16" cx="231" cy="41.5" r="4.2"/>
<circle class="st16" cx="274.7" cy="65.2" r="4.2"/>
<g class="st17">
	<g>
		<line class="st18" x1="231.3" y1="140.3" x2="231.3" y2="140.3"/>
		<line class="st19" x1="231.3" y1="130.1" x2="231.3" y2="53"/>
		<line class="st18" x1="231.3" y1="47.9" x2="231.3" y2="47.9"/>
	</g>
</g>
<g class="st17">
	<g>
		<line class="st18" x1="274.2" y1="140.3" x2="274.2" y2="140.3"/>
		<line class="st20" x1="274.2" y1="130.5" x2="274.2" y2="76.2"/>
		<line class="st18" x1="274.2" y1="71.3" x2="274.2" y2="71.3"/>
	</g>
</g>
<line class="st15" x1="355.2" y1="142.8" x2="32.8" y2="142.8"/>
</svg>
