<svg xmlns="http://www.w3.org/2000/svg" viewBox="0 0 622.97 359.4"><defs><style>.cls-1{fill:#41ad49}.cls-2{fill:#20bec6}.cls-3{fill:#ec8922}.cls-4,.cls-6{fill:#fff}.cls-10,.cls-11,.cls-5,.cls-8,.cls-9{fill:none}.cls-11,.cls-5{stroke:#000}.cls-5,.cls-6{stroke-miterlimit:10}.cls-6{stroke:#00c3c8}.cls-10,.cls-6,.cls-8,.cls-9{stroke-width:2px}.cls-7{opacity:.41}.cls-10,.cls-8,.cls-9{stroke:#fff}.cls-10,.cls-11,.cls-8,.cls-9{stroke-linecap:round;stroke-linejoin:round}.cls-9{stroke-dasharray:1.98 9.88}.cls-10{stroke-dasharray:2.07 10.34}</style></defs><title>changes in bone density with age</title><g id="Layer_2" data-name="Layer 2"><path class="cls-1" d="M268 158c-25.77 6.06-38.65 13.14-50 23-15 13-67 77-81 90s-80 79-80 79c0-.3 95.8-.36 211-.32z" transform="translate(-32.03 -38.8)"/><path class="cls-2" d="M635 260.71C616.12 254 516.7 223.07 485 206c-24.16-13-75.48-49.17-145-54.65v198.37c139.28.09 281.75.26 295 .28z" transform="translate(-32.03 -38.8)"/><path class="cls-3" d="M268 349.68h74V151.27c-1.33-.1-2.66-.19-4-.27-28.25-1.59-51.57 1.89-70 7z" transform="translate(-32.03 -38.8)"/><path d="M45.38 39.46a8.89 8.89 0 0 1 4.33.92A3.33 3.33 0 0 1 48.63 43a8.88 8.88 0 0 0-2.75-.47c-2.4 0-3.93 1.25-3.93 5.74s1.53 5.67 3.93 5.67a9.35 9.35 0 0 0 3-.52 3.62 3.62 0 0 1 1.11 2.66 9.6 9.6 0 0 1-4.57.92C40.58 57 38 53.92 38 48.22s2.58-8.76 7.38-8.76zm16.7 17.05a6.8 6.8 0 0 1-1.81.19 6.59 6.59 0 0 1-1.81-.19v-8.24c0-.87-.42-1.41-1.51-1.41a2.43 2.43 0 0 0-1.62.66v9a7 7 0 0 1-1.81.19 6.59 6.59 0 0 1-1.81-.19V39.23a6.59 6.59 0 0 1 1.8-.23 7 7 0 0 1 1.81.19v5.89A4.53 4.53 0 0 1 58.48 44a3.25 3.25 0 0 1 3.6 3.51zM69.31 44c3.53 0 5 1.39 5 4.36v8.15a4.83 4.83 0 0 1-1.51.19 5.21 5.21 0 0 1-1.51-.19l-.42-1.15c-.52 1-1.65 1.58-3.3 1.58-2.33 0-3.65-1.34-3.65-4.1S65.52 49 68.6 49c.71 0 1.44 0 2 .09v-.38c0-1.06-.49-1.79-1.93-1.79a9.17 9.17 0 0 0-2.87.54 2.75 2.75 0 0 1-.78-1.11 2.94 2.94 0 0 1-.18-1.35 10.59 10.59 0 0 1 4.47-1zm-.17 7.25c-1 0-1.62.45-1.62 1.6s.49 1.65 1.37 1.65c1.29 0 1.77-1.22 1.77-2.47v-.71c-.48-.04-1-.06-1.52-.06zm18 5.26a6.8 6.8 0 0 1-1.81.19 6.59 6.59 0 0 1-1.81-.19v-8.24c0-.87-.42-1.41-1.51-1.41a2.43 2.43 0 0 0-1.62.66v9a7 7 0 0 1-1.81.19 6.59 6.59 0 0 1-1.81-.19V44.43a6.59 6.59 0 0 1 1.81-.19 7 7 0 0 1 1.81.19v.71A4.55 4.55 0 0 1 83.53 44a3.26 3.26 0 0 1 3.6 3.53zM100.61 44a4.12 4.12 0 0 1 0 2.66l-1.67-.24a4.16 4.16 0 0 1 .4 1.93c0 2.71-1.7 4.38-5.06 4.38a6.42 6.42 0 0 1-.68 0 1.17 1.17 0 0 0-.21.92c.38 1.74 7.25-.33 7.25 4.64 0 2.59-2.45 4.31-6.52 4.31-3.74 0-5.49-1.18-5.49-3.2a3.65 3.65 0 0 1 2.07-3.06 2.12 2.12 0 0 1-.49-1.44 3.8 3.8 0 0 1 1.29-2.66 3.9 3.9 0 0 1-2.28-3.86c0-2.66 1.72-4.36 5.06-4.36a6.63 6.63 0 0 1 2.92.59zm-8.08 13.24a2.23 2.23 0 0 0-.53 1.41c0 .89.61 1.51 2.21 1.51 2.07 0 3-.56 3-1.44-.04-1.27-2.68-.99-4.68-1.48zm1.74-10.95c-1 0-1.58.59-1.58 2.07s.61 2.1 1.58 2.1 1.58-.59 1.58-2.1-.61-2.07-1.58-2.07zm11.28 5.25c.24 1.93 1.13 2.43 2.54 2.43a5.68 5.68 0 0 0 2.5-.57 3.73 3.73 0 0 1 1.11 2.47 7.35 7.35 0 0 1-4.19 1.06c-3.86 0-5.67-2-5.67-6.4s2.1-6.52 5.51-6.52c3.08 0 4.85 1.58 4.85 4.94a11.74 11.74 0 0 1-.26 2.59zm1.86-4.9c-1 0-1.69.68-1.88 2.64h3.37a7.15 7.15 0 0 0 0-.73c.04-1.08-.36-1.91-1.49-1.91zM118.55 44a8 8 0 0 1 3.81.73 3.28 3.28 0 0 1-.82 2.42 10 10 0 0 0-2.61-.38c-1.25 0-1.77.38-1.77 1 0 .82 1.46.94 2.9 1.46s2.85 1.37 2.85 3.63c0 2.52-1.53 4-4.87 4a9.15 9.15 0 0 1-4.34-.86 3.45 3.45 0 0 1 .87-2.47 10.49 10.49 0 0 0 3.13.54c1.22 0 1.72-.35 1.72-1s-1.2-1-2.5-1.46c-1.51-.47-3.13-1.22-3.13-3.6S115.3 44 118.55 44zm14.58-2.07a7.25 7.25 0 0 1-1.81.19 6.59 6.59 0 0 1-1.81-.19V39a6.4 6.4 0 0 1 1.81-.19 7.27 7.27 0 0 1 1.81.19zm0 14.57a7.25 7.25 0 0 1-1.81.19 6.59 6.59 0 0 1-1.81-.19V44.41a6.38 6.38 0 0 1 1.81-.19 7.25 7.25 0 0 1 1.81.19zm12.95.01a6.8 6.8 0 0 1-1.81.19 6.59 6.59 0 0 1-1.81-.19v-8.24c0-.87-.42-1.41-1.51-1.41a2.43 2.43 0 0 0-1.62.66v9a7 7 0 0 1-1.81.19 6.59 6.59 0 0 1-1.81-.19V44.43a6.59 6.59 0 0 1 1.81-.19 7 7 0 0 1 1.81.19v.71a4.55 4.55 0 0 1 3.15-1.14 3.26 3.26 0 0 1 3.6 3.53zm14.42-16.76c3.06 0 4.9 1.79 4.9 4.73a3.85 3.85 0 0 1-1.84 3.46 4.05 4.05 0 0 1 2.33 3.86c0 3.15-2 4.9-5.3 4.9h-7v-17zm-.75 7c1.27 0 1.91-.85 1.91-2.14s-.64-2.14-1.91-2.14h-2.42v4.28zm.12 7.23a2 2 0 0 0 2.21-2.26c0-1.58-.75-2.26-2.21-2.26h-2.54V54zM173.31 44c3.48 0 5.67 1.77 5.67 6.45s-2.21 6.47-5.67 6.47-5.7-1.79-5.7-6.47 2.24-6.45 5.7-6.45zm0 2.75c-1.22 0-1.93.73-1.93 3.7s.71 3.74 1.93 3.74 1.91-.78 1.91-3.74-.71-3.69-1.91-3.69zm18.15 9.76a6.8 6.8 0 0 1-1.81.19 6.59 6.59 0 0 1-1.81-.19v-8.24c0-.87-.42-1.41-1.51-1.41a2.42 2.42 0 0 0-1.62.66v9a7 7 0 0 1-1.81.19 6.59 6.59 0 0 1-1.81-.19V44.43a6.59 6.59 0 0 1 1.81-.19 7 7 0 0 1 1.81.19v.71a4.55 4.55 0 0 1 3.15-1.14 3.26 3.26 0 0 1 3.6 3.53zm5.78-4.97c.24 1.93 1.13 2.43 2.54 2.43a5.68 5.68 0 0 0 2.5-.57 3.73 3.73 0 0 1 1.11 2.47 7.35 7.35 0 0 1-4.19 1.06c-3.86 0-5.67-2-5.67-6.4S195.61 44 199 44c3.08 0 4.85 1.58 4.85 4.94a11.74 11.74 0 0 1-.26 2.59zm1.86-4.9c-1 0-1.69.68-1.88 2.64h3.37a7.15 7.15 0 0 0 0-.73c.04-1.08-.36-1.91-1.49-1.91zm17.59-6.89c4.61 0 7.28 2.38 7.28 8.48s-2.66 8.48-7.28 8.48h-5.82v-17zm-.14 14c2.12 0 3.44-1 3.44-5.53s-1.32-5.53-3.44-5.53h-1.91v11.06zm12.95-2.21c.24 1.93 1.13 2.43 2.54 2.43a5.68 5.68 0 0 0 2.5-.57 3.73 3.73 0 0 1 1.11 2.47 7.35 7.35 0 0 1-4.19 1.06c-3.86 0-5.67-2-5.67-6.4s2.1-6.52 5.51-6.52c3.08 0 4.85 1.58 4.85 4.94a11.76 11.76 0 0 1-.26 2.59zm1.86-4.9c-1 0-1.7.68-1.88 2.64h3.37a7 7 0 0 0 0-.73c.04-1.08-.36-1.91-1.49-1.91zm17.17 9.87a6.8 6.8 0 0 1-1.81.19 6.59 6.59 0 0 1-1.81-.19v-8.24c0-.87-.42-1.41-1.51-1.41a2.43 2.43 0 0 0-1.62.66v9a7 7 0 0 1-1.81.19 6.59 6.59 0 0 1-1.81-.19V44.43a6.59 6.59 0 0 1 1.81-.19 7 7 0 0 1 1.81.19v.71a4.55 4.55 0 0 1 3.14-1.14 3.26 3.26 0 0 1 3.6 3.53zM255.38 44a8 8 0 0 1 3.81.73 3.28 3.28 0 0 1-.82 2.42 10 10 0 0 0-2.61-.38c-1.25 0-1.77.38-1.77 1 0 .82 1.46.94 2.9 1.46s2.85 1.37 2.85 3.63c0 2.52-1.53 4-4.87 4a9.15 9.15 0 0 1-4.33-.94 3.45 3.45 0 0 1 .87-2.47 10.49 10.49 0 0 0 3.13.54c1.22 0 1.72-.35 1.72-1s-1.2-1-2.5-1.46c-1.51-.47-3.13-1.22-3.13-3.6s1.5-3.93 4.75-3.93zm9.94-2.07a7.25 7.25 0 0 1-1.81.19 6.59 6.59 0 0 1-1.81-.19V39a6.4 6.4 0 0 1 1.81-.19 7.27 7.27 0 0 1 1.81.19zm0 14.57a7.25 7.25 0 0 1-1.81.19 6.59 6.59 0 0 1-1.81-.19V44.41a6.38 6.38 0 0 1 1.81-.19 7.25 7.25 0 0 1 1.81.19zm7.09-4.35c0 1.62.66 2 1.91 2a5.5 5.5 0 0 0 .94-.09 3.35 3.35 0 0 1 .28 1.44 3.71 3.71 0 0 1-.17 1.18 8 8 0 0 1-2.12.26c-3.18 0-4.47-1.41-4.47-4.69V46.9h-1.7a4.41 4.41 0 0 1-.16-1.27 4.19 4.19 0 0 1 .16-1.32h1.7v-2.1a6.92 6.92 0 0 1 3.63-.59v2.68H275a4.28 4.28 0 0 1 .17 1.29 4.89 4.89 0 0 1-.17 1.31h-2.54zM284.4 58c-.89 2.94-2 4.54-5.09 4.54a5.78 5.78 0 0 1-1.79-.28 3.89 3.89 0 0 1 0-2.66 7.5 7.5 0 0 0 1 .09c1.18 0 1.79-.21 2.45-2.28l.24-.75a3.31 3.31 0 0 1-1.11-.19l-4.12-12.1a8.14 8.14 0 0 1 1.91-.19 6.69 6.69 0 0 1 1.84.19l1.98 5.63a16.25 16.25 0 0 1 .75 3.25h.09a21.65 21.65 0 0 1 .71-3.25l1.67-5.58a6.51 6.51 0 0 1 1.74-.19 7.28 7.28 0 0 1 1.77.19zm18.06-6.13a23.66 23.66 0 0 1-.54-4.33h-.09a23.1 23.1 0 0 1-.54 4.33l-1.11 4.64a10.41 10.41 0 0 1-2.12.19 11.2 11.2 0 0 1-2.21-.19l-3.13-12.1a7.38 7.38 0 0 1 1.79-.19 4 4 0 0 1 1.55.19l1.48 5.51a24.43 24.43 0 0 1 .57 3.41h.07a25.08 25.08 0 0 1 .59-3.44l1.34-5.49a10.19 10.19 0 0 1 1.93-.19 7.15 7.15 0 0 1 1.79.19l1.32 5.49a28.29 28.29 0 0 1 .54 3.44h.07a23.25 23.25 0 0 1 .61-3.44l1.46-5.49a5.46 5.46 0 0 1 1.58-.19 4.81 4.81 0 0 1 1.55.19l-3.08 12.1a12.41 12.41 0 0 1-4.31 0zm13.73-9.94a7.25 7.25 0 0 1-1.81.19 6.59 6.59 0 0 1-1.81-.19V39a6.4 6.4 0 0 1 1.81-.19 7.27 7.27 0 0 1 1.81.19zm0 14.57a7.25 7.25 0 0 1-1.81.19 6.59 6.59 0 0 1-1.81-.19V44.41a6.38 6.38 0 0 1 1.81-.19 7.25 7.25 0 0 1 1.81.19zm7.09-4.35c0 1.62.66 2 1.91 2a5.5 5.5 0 0 0 .94-.09 3.35 3.35 0 0 1 .28 1.44 3.71 3.71 0 0 1-.17 1.18 8 8 0 0 1-2.12.26c-3.18 0-4.47-1.41-4.47-4.69V46.9H318a4.41 4.41 0 0 1-.16-1.27 4.19 4.19 0 0 1 .16-1.32h1.7v-2.1a6.92 6.92 0 0 1 3.63-.59v2.68h2.54a4.28 4.28 0 0 1 .17 1.29 4.89 4.89 0 0 1-.17 1.29h-2.54zm15.09 4.36a6.8 6.8 0 0 1-1.81.19 6.59 6.59 0 0 1-1.81-.19v-8.24c0-.87-.42-1.41-1.51-1.41a2.43 2.43 0 0 0-1.62.66v9a7 7 0 0 1-1.81.19 6.59 6.59 0 0 1-1.81-.19V39.23a6.59 6.59 0 0 1 1.8-.23 7 7 0 0 1 1.81.19v5.89a4.53 4.53 0 0 1 3.16-1.08 3.25 3.25 0 0 1 3.6 3.51zm13.26-16.76A10.58 10.58 0 0 1 354 40l5.37 16.53a7.14 7.14 0 0 1-2 .21 5.91 5.91 0 0 1-1.81-.21L354.48 53h-5.91l-1.11 3.44a6.8 6.8 0 0 1-1.84.21 6 6 0 0 1-1.74-.21L349.25 40a11.38 11.38 0 0 1 2.38-.25zm-.17 3.53a17.73 17.73 0 0 1-.64 2.75l-1.39 4.26h4.17L352.24 46a18.78 18.78 0 0 1-.68-2.75zm20.07.72a4.12 4.12 0 0 1 0 2.66l-1.67-.24a4.17 4.17 0 0 1 .4 1.93c0 2.71-1.7 4.38-5.06 4.38a6.42 6.42 0 0 1-.68 0 1.18 1.18 0 0 0-.21.92c.38 1.74 7.25-.33 7.25 4.64 0 2.59-2.45 4.31-6.52 4.31-3.74 0-5.49-1.18-5.49-3.2a3.65 3.65 0 0 1 2.07-3.06 2.12 2.12 0 0 1-.49-1.44 3.8 3.8 0 0 1 1.29-2.66 3.9 3.9 0 0 1-2.28-3.86c0-2.66 1.72-4.36 5.06-4.36a6.63 6.63 0 0 1 2.92.59zm-8.08 13.23a2.23 2.23 0 0 0-.56 1.41c0 .89.61 1.51 2.21 1.51 2.07 0 3-.56 3-1.44-.01-1.26-2.64-.98-4.64-1.47zm1.74-10.95c-1 0-1.58.59-1.58 2.07s.61 2.1 1.58 2.1 1.58-.59 1.58-2.1-.61-2.06-1.57-2.06zm11.29 5.26c.24 1.93 1.13 2.43 2.54 2.43a5.68 5.68 0 0 0 2.5-.57 3.73 3.73 0 0 1 1.11 2.47 7.35 7.35 0 0 1-4.19 1.06c-3.86 0-5.67-2-5.67-6.4s2.1-6.52 5.51-6.52c3.08 0 4.85 1.58 4.85 4.94a11.76 11.76 0 0 1-.26 2.59zm1.86-4.9c-1 0-1.7.68-1.88 2.64h3.37a7.16 7.16 0 0 0 0-.73c.04-1.08-.36-1.91-1.49-1.91zM32.75 262.71a3.39 3.39 0 0 1 3.62-3.71 2.94 2.94 0 0 1 2.65 1.4 3.1 3.1 0 0 1 3-1.78c2.41 0 3.75 1.55 3.75 4.05V268h-13zm5.35.58c0-1-.65-1.46-1.64-1.46s-1.64.49-1.64 1.46v1.86h3.28zm5.53-.09a1.52 1.52 0 0 0-1.73-1.69c-1.21 0-1.73.58-1.73 1.69v1.95h3.46zM36 252.92c0-2.66 1.35-4.34 4.93-4.34s5 1.69 5 4.34-1.37 4.36-5 4.36-4.93-1.71-4.93-4.36zm2.11 0c0 .94.56 1.48 2.83 1.48s2.86-.54 2.86-1.48-.59-1.46-2.86-1.46-2.83.54-2.83 1.46zM45.57 239a5.21 5.21 0 0 1 .14 1.39 5 5 0 0 1-.14 1.39h-6.3c-.67 0-1.08.32-1.08 1.15a1.85 1.85 0 0 0 .5 1.24h6.88a5.38 5.38 0 0 1 .14 1.39 5.05 5.05 0 0 1-.14 1.39h-9.24a5.05 5.05 0 0 1-.14-1.39 5.38 5.38 0 0 1 .14-1.39h.54a3.48 3.48 0 0 1-.87-2.37 2.5 2.5 0 0 1 2.7-2.76zm-3.8-4.37c1.48-.18 1.85-.86 1.85-1.94a4.34 4.34 0 0 0-.43-1.91 2.85 2.85 0 0 1 1.89-.85 5.62 5.62 0 0 1 .81 3.21c0 3-1.55 4.34-4.9 4.34s-5-1.6-5-4.21c0-2.36 1.21-3.71 3.78-3.71a8.93 8.93 0 0 1 2 .2zM38 233.21c0 .74.52 1.3 2 1.44v-2.57a5.56 5.56 0 0 0-.56 0c-.79-.08-1.44.27-1.44 1.13zm-5.25-13.44c0-3.53 1.82-5.56 6.48-5.56s6.48 2 6.48 5.56v4.45h-13zm10.71.11c0-1.62-.76-2.63-4.23-2.63s-4.23 1-4.23 2.63v1.46h8.46zM41.77 210c1.48-.18 1.85-.86 1.85-1.94a4.34 4.34 0 0 0-.43-1.91 2.85 2.85 0 0 1 1.89-.85 5.62 5.62 0 0 1 .81 3.2c0 3-1.55 4.34-4.9 4.34s-5-1.6-5-4.21c0-2.36 1.21-3.71 3.78-3.71a9 9 0 0 1 2 .2zM38 208.55c0 .74.52 1.3 2 1.44v-2.57a5.42 5.42 0 0 0-.56 0c-.79-.04-1.44.27-1.44 1.13zm7.57-13.12a5.21 5.21 0 0 1 .14 1.39 5 5 0 0 1-.14 1.39h-6.3c-.67 0-1.08.32-1.08 1.15a1.85 1.85 0 0 0 .5 1.24h6.88a5.37 5.37 0 0 1 .14 1.39 5 5 0 0 1-.14 1.39h-9.24a5 5 0 0 1-.14-1.39 5.37 5.37 0 0 1 .14-1.39h.54a3.48 3.48 0 0 1-.86-2.41 2.5 2.5 0 0 1 2.7-2.75zM36 190.19a6.11 6.11 0 0 1 .56-2.92 2.51 2.51 0 0 1 1.85.63 7.64 7.64 0 0 0-.29 2c0 1 .29 1.35.79 1.35s.72-1.12 1.12-2.21a2.76 2.76 0 0 1 2.77-2.18c1.93 0 3.08 1.17 3.08 3.73a7 7 0 0 1-.72 3.31 2.64 2.64 0 0 1-1.89-.67 8 8 0 0 0 .41-2.4c0-.94-.27-1.31-.79-1.31s-.79.92-1.12 1.91c-.36 1.15-.94 2.4-2.75 2.4S36 192.68 36 190.19zm-1.58-7.59a5.55 5.55 0 0 1 .14 1.39 5 5 0 0 1-.14 1.39h-2.25A4.89 4.89 0 0 1 32 184a5.55 5.55 0 0 1 .14-1.39zm11.15 0a5.55 5.55 0 0 1 .14 1.39 5 5 0 0 1-.14 1.39h-9.26a4.89 4.89 0 0 1-.14-1.39 5.55 5.55 0 0 1 .14-1.39zm-3.34-5.42c1.24 0 1.53-.5 1.53-1.46a4.22 4.22 0 0 0-.07-.72 2.56 2.56 0 0 1 1.1-.22 2.84 2.84 0 0 1 .9.13 6.15 6.15 0 0 1 .2 1.62c0 2.43-1.08 3.42-3.58 3.42h-4.09v1.3a3.35 3.35 0 0 1-1 .13 3.19 3.19 0 0 1-1-.13V180h-1.6a5.29 5.29 0 0 1-.45-2.77h2.05v-1.94a3.28 3.28 0 0 1 1-.13 3.75 3.75 0 0 1 1 .13v1.94zm4.51-9.18c2.25.68 3.48 1.53 3.48 3.89a4.42 4.42 0 0 1-.22 1.37 3 3 0 0 1-2 0 5.72 5.72 0 0 0 .07-.79c0-.9-.16-1.37-1.75-1.87l-.58-.18a2.53 2.53 0 0 1-.14.85l-9.25 3.15a6.22 6.22 0 0 1-.14-1.46 5.12 5.12 0 0 1 .14-1.4l4.27-1.46a12.42 12.42 0 0 1 2.48-.58v-.07a16.58 16.58 0 0 1-2.48-.54l-4.27-1.28a5 5 0 0 1-.14-1.33 5.57 5.57 0 0 1 .14-1.35zm267.32 212.74a8.07 8.07 0 0 1 1.82.16l4.12 12.64a5.46 5.46 0 0 1-1.51.16 4.52 4.52 0 0 1-1.39-.16l-.85-2.63h-4.52l-.85 2.63a5.19 5.19 0 0 1-1.4.16 4.61 4.61 0 0 1-1.33-.16l4.11-12.64a8.68 8.68 0 0 1 1.8-.16zm-.13 2.7a13.52 13.52 0 0 1-.49 2.11l-1.06 3.26h3.19l-1-3.26a14.43 14.43 0 0 1-.52-2.11zm15.34.56a3.15 3.15 0 0 1 0 2l-1.28-.18a3.19 3.19 0 0 1 .31 1.48c0 2.07-1.3 3.35-3.87 3.35a5 5 0 0 1-.52 0 .9.9 0 0 0-.16.7c.29 1.33 5.55-.25 5.55 3.55 0 2-1.87 3.29-5 3.29-2.86 0-4.19-.9-4.19-2.45a2.79 2.79 0 0 1 1.58-2.34 1.62 1.62 0 0 1-.38-1.1 2.9 2.9 0 0 1 1-2 3 3 0 0 1-1.75-3c0-2 1.31-3.33 3.87-3.33a5.08 5.08 0 0 1 2.23.45zm-6.18 10.12a1.7 1.7 0 0 0-.43 1.08c0 .68.47 1.15 1.69 1.15 1.58 0 2.29-.43 2.29-1.1 0-.97-2.01-.75-3.55-1.13zm1.33-8.37c-.74 0-1.21.45-1.21 1.58s.47 1.6 1.21 1.6 1.21-.45 1.21-1.6-.46-1.59-1.2-1.59zm8.58 4.01c.18 1.48.86 1.85 1.94 1.85a4.34 4.34 0 0 0 1.91-.43 2.86 2.86 0 0 1 .85 1.89 5.62 5.62 0 0 1-3.21.81c-3 0-4.34-1.55-4.34-4.9s1.6-5 4.21-5c2.36 0 3.71 1.21 3.71 3.78a9 9 0 0 1-.2 2zm1.42-3.75c-.74 0-1.3.52-1.44 2h2.57a5.43 5.43 0 0 0 0-.56c.09-.81-.21-1.45-1.08-1.45zm11.65-2.87a14.41 14.41 0 0 0 0 12.16 1.26 1.26 0 0 1-.64.59 2.07 2.07 0 0 1-.87.21 14 14 0 0 1 0-13.76 1.76 1.76 0 0 1 .87.22 1.57 1.57 0 0 1 .64.58zm5.43 11.36c-.53 1.75-1.19 2.7-3 2.7a3.44 3.44 0 0 1-1.06-.17 2.32 2.32 0 0 1 0-1.58 4.51 4.51 0 0 0 .62.06c.7 0 1.07-.13 1.46-1.36l.14-.45a2 2 0 0 1-.66-.11l-2.45-7.2a4.88 4.88 0 0 1 1.13-.11 4 4 0 0 1 1.09.11l1.13 3.32a9.66 9.66 0 0 1 .45 1.93h.06a12.92 12.92 0 0 1 .42-1.93l1-3.32a3.9 3.9 0 0 1 1-.11 4.37 4.37 0 0 1 1.05.11zm5.09-3.87c.14 1.15.67 1.44 1.51 1.44a3.38 3.38 0 0 0 1.49-.34 2.22 2.22 0 0 1 .66 1.47 4.37 4.37 0 0 1-2.49.63c-2.3 0-3.38-1.2-3.38-3.81s1.25-3.88 3.28-3.88a2.59 2.59 0 0 1 2.89 2.94 7 7 0 0 1-.15 1.54zm1.11-2.91c-.57 0-1 .41-1.12 1.57h2a4.31 4.31 0 0 0 0-.43c.03-.65-.21-1.14-.88-1.14zm6.84-1.57c2.1 0 3 .83 3 2.59v4.85a2.87 2.87 0 0 1-.9.11 3.09 3.09 0 0 1-.9-.11l-.25-.69a2 2 0 0 1-2 .94c-1.39 0-2.17-.8-2.17-2.44s1-2.25 2.8-2.25c.42 0 .85 0 1.22.06V389c0-.63-.29-1.06-1.15-1.06a5.46 5.46 0 0 0-1.71.32 1.63 1.63 0 0 1-.46-.66 1.75 1.75 0 0 1-.14-.85 6.29 6.29 0 0 1 2.66-.6zm-.1 4.31c-.62 0-1 .27-1 1s.29 1 .81 1c.77 0 1.05-.73 1.05-1.47v-.42c-.24-.09-.54-.1-.85-.1zm8.23-4.31a2.17 2.17 0 0 1 1.23.39 2.45 2.45 0 0 1-.91 1.74 1.1 1.1 0 0 0-.73-.28 1.46 1.46 0 0 0-1.13.64v4.94a4.45 4.45 0 0 1-1.08.11 4 4 0 0 1-1.08-.11v-7.2a4.07 4.07 0 0 1 1.08-.11 2.54 2.54 0 0 1 .94.11l.06.74a1.94 1.94 0 0 1 1.62-.97zm4.57 0a4.75 4.75 0 0 1 2.27.43A2 2 0 0 1 379 388a5.93 5.93 0 0 0-1.56-.22c-.74 0-1 .22-1 .62s.87.56 1.72.87a2.15 2.15 0 0 1 1.7 2.16c0 1.5-.91 2.4-2.9 2.4a5.44 5.44 0 0 1-2.58-.56 2.05 2.05 0 0 1 .52-1.47 6.24 6.24 0 0 0 1.86.32c.73 0 1-.21 1-.62s-.71-.62-1.49-.87-1.86-.73-1.86-2.14.9-2.34 2.83-2.34zm3.08-3.01a1.57 1.57 0 0 1 .64-.58 1.76 1.76 0 0 1 .87-.22 14 14 0 0 1 0 13.76 2.07 2.07 0 0 1-.87-.21 1.26 1.26 0 0 1-.64-.59 14.28 14.28 0 0 0 0-12.16z" transform="translate(-32.03 -38.8)"/><path class="cls-2" d="M408.71 115.62a6.29 6.29 0 0 1 1.42.13l3.19 9.83a4.24 4.24 0 0 1-1.18.13 3.51 3.51 0 0 1-1.08-.13l-.66-2h-3.52l-.66 2a4 4 0 0 1-1.09.13 3.59 3.59 0 0 1-1-.13l3.19-9.83a6.76 6.76 0 0 1 1.39-.13zm-.1 2.1a10.57 10.57 0 0 1-.38 1.64l-.83 2.54h2.48l-.81-2.54a11.28 11.28 0 0 1-.41-1.64zm9.76-2.24a6.21 6.21 0 0 1 2.84.56 2.27 2.27 0 0 1-.63 1.55 6.46 6.46 0 0 0-2-.34c-1.53 0-2.58.76-2.58 3.42s1 3.36 2.52 3.36a6.64 6.64 0 0 0 .69 0v-2.47h-1.53a2.11 2.11 0 0 1-.14-.84 2.27 2.27 0 0 1 .14-.87h3.63v5.46a6.89 6.89 0 0 1-3 .56c-3 0-4.65-1.81-4.65-5.18s1.7-5.21 4.71-5.21zm10.81.14a2.67 2.67 0 0 1 .14.81 2.8 2.8 0 0 1-.14.9h-3.89v2.44h3.19a2.73 2.73 0 0 1 .14.83 2.63 2.63 0 0 1-.14.87h-3.19V124h4a2.51 2.51 0 0 1 .14.84 2.46 2.46 0 0 1-.14.87H423v-10.09zm1.3 6.79a3.09 3.09 0 0 1 0-1.54h3.18a3.06 3.06 0 0 1 0 1.54zm8.85-6.79c2.14 0 3.31 1.25 3.31 3.1a2.84 2.84 0 0 1-1.75 2.8l2.28 4.06a5.33 5.33 0 0 1-1.27.13 5 5 0 0 1-1.23-.13l-2.07-3.78h-.87v3.78a4.22 4.22 0 0 1-1.11.13 4 4 0 0 1-1.13-.13v-10zm-1.61 4.44H439a1.35 1.35 0 0 0 0-2.7h-1.29zm12.76-4.44a2.67 2.67 0 0 1 .14.81 2.8 2.8 0 0 1-.14.9h-3.89v2.44h3.19a2.73 2.73 0 0 1 .14.83 2.63 2.63 0 0 1-.14.87h-3.19V124h4a2.51 2.51 0 0 1 .14.84 2.46 2.46 0 0 1-.14.87h-6.28v-10.09zm1.67.12a4.23 4.23 0 0 1 1.11-.13 4.46 4.46 0 0 1 1.13.13v8.14h3.92a2.82 2.82 0 0 1 .14.91 3.34 3.34 0 0 1-.14.91h-6.16zm11.2-.12a6.29 6.29 0 0 1 1.42.13l3.19 9.83a4.24 4.24 0 0 1-1.18.13 3.51 3.51 0 0 1-1.08-.13l-.66-2h-3.52l-.66 2a4 4 0 0 1-1.09.13 3.59 3.59 0 0 1-1-.13l3.19-9.83a6.76 6.76 0 0 1 1.39-.13zm-.1 2.1a10.57 10.57 0 0 1-.38 1.64l-.83 2.54h2.48l-.81-2.54a11.28 11.28 0 0 1-.41-1.64zm11.47-2.1a3 3 0 0 1 .14.92 3.23 3.23 0 0 1-.14 1h-2.44v8.08a4.55 4.55 0 0 1-1.12.13 3.73 3.73 0 0 1-1.11-.13v-8.08h-2.51a2.8 2.8 0 0 1-.14-.92 3.09 3.09 0 0 1 .14-1zm7.48 0a2.64 2.64 0 0 1 .14.81 2.8 2.8 0 0 1-.14.9h-3.9v2.44h3.19a2.73 2.73 0 0 1 .14.83 2.63 2.63 0 0 1-.14.87h-3.19V124h4a2.49 2.49 0 0 1 .14.84 2.44 2.44 0 0 1-.14.87h-6.28v-10.09zm5.13 0c2.75 0 4.33 1.41 4.33 5s-1.58 5-4.33 5h-3.46v-10zm-.08 8.33c1.26 0 2-.59 2-3.29s-.79-3.29-2-3.29h-1.13V124zm12.84-8.33a2.64 2.64 0 0 1 2.91 2.82 2.29 2.29 0 0 1-1.09 2.06 2.41 2.41 0 0 1 1.39 2.3c0 1.88-1.21 2.91-3.15 2.91H496v-10.09zm-.45 4.16c.76 0 1.13-.5 1.13-1.27s-.38-1.27-1.13-1.27h-1.44v2.55zm.07 4.3a1.18 1.18 0 0 0 1.32-1.34c0-.94-.45-1.34-1.32-1.34h-1.51v2.69zm8.95-8.63c2.58 0 4.23 1.57 4.23 5.21s-1.62 5.21-4.23 5.21-4.24-1.57-4.24-5.21 1.65-5.21 4.24-5.21zm0 1.75c-1.15 0-1.86.67-1.86 3.46s.71 3.45 1.86 3.45 1.86-.67 1.86-3.45-.7-3.46-1.86-3.46zm8.48 3.26a18.58 18.58 0 0 1-.83-2.35h-.07a24.94 24.94 0 0 1 .14 2.68v4.79a3 3 0 0 1-1 .13 2.81 2.81 0 0 1-1-.13v-9.83a6.21 6.21 0 0 1 1.43-.13 5.56 5.56 0 0 1 1.39.13l2.33 5.07a20.37 20.37 0 0 1 .87 2.51h.06s-.13-1.34-.13-2.84v-4.73a3.38 3.38 0 0 1 1-.13 2.8 2.8 0 0 1 1 .13v9.83a5.63 5.63 0 0 1-1.4.13 6.61 6.61 0 0 1-1.42-.13zm13.25-4.84a2.67 2.67 0 0 1 .14.81 2.8 2.8 0 0 1-.14.9h-3.89v2.44h3.19a2.73 2.73 0 0 1 .14.83 2.63 2.63 0 0 1-.14.87h-3.19V124h4a2.51 2.51 0 0 1 .14.84 2.46 2.46 0 0 1-.14.87h-6.28v-10.09zm4.43.12a4.23 4.23 0 0 1 1.11-.13 4.46 4.46 0 0 1 1.13.13v8.14H541a2.82 2.82 0 0 1 .14.91 3.34 3.34 0 0 1-.14.91h-6.16zm11.05-.29c2.58 0 4.23 1.57 4.23 5.21s-1.62 5.21-4.23 5.21-4.24-1.57-4.24-5.21 1.65-5.21 4.24-5.21zm0 1.75c-1.15 0-1.86.67-1.86 3.46s.71 3.45 1.86 3.45 1.86-.67 1.86-3.45-.73-3.46-1.86-3.46zm9.13-1.75a8.18 8.18 0 0 1 2.94.48 2.54 2.54 0 0 1-.56 1.65 7.82 7.82 0 0 0-2-.28c-1.2 0-1.78.36-1.78 1.08s1.16 1 2.34 1.37 2.46 1.15 2.46 3c0 2-1.25 3.14-3.78 3.14a7.69 7.69 0 0 1-3.35-.69 3.12 3.12 0 0 1 .53-1.71 9.21 9.21 0 0 0 2.66.43c1.11 0 1.61-.36 1.61-1.08s-.63-.92-1.44-1.2c-1.4-.46-3.31-.88-3.31-3.1-.06-1.84 1.1-3.09 3.68-3.09zm8 0a8.18 8.18 0 0 1 2.94.48 2.54 2.54 0 0 1-.56 1.65 7.82 7.82 0 0 0-2-.28c-1.2 0-1.78.36-1.78 1.08s1.16 1 2.34 1.37 2.46 1.15 2.46 3c0 2-1.25 3.14-3.78 3.14a7.69 7.69 0 0 1-3.35-.69 3.12 3.12 0 0 1 .53-1.71 9.21 9.21 0 0 0 2.66.43c1.11 0 1.61-.36 1.61-1.08s-.63-.92-1.44-1.2c-1.4-.46-3.31-.88-3.31-3.1.01-1.84 1.18-3.09 3.68-3.09z" transform="translate(-32.03 -38.8)"/><path class="cls-4" d="M421.61 258.62a10.76 10.76 0 0 1 1.47.13v9.83a3.69 3.69 0 0 1-1.06.13 3.92 3.92 0 0 1-1.09-.13v-2.94c0-1.64.08-3.68.18-4.44H421c-.17.6-.74 2.13-1.22 3.28l-.91 2.14a2.66 2.66 0 0 1-.8.1 2.05 2.05 0 0 1-.74-.1c-.29-.69-.6-1.37-.88-2.06a31.67 31.67 0 0 1-1.26-3.36h-.08a29.67 29.67 0 0 1 .24 4.22v3.17a3.33 3.33 0 0 1-1 .13 3.44 3.44 0 0 1-1-.13v-9.83a8.64 8.64 0 0 1 1.37-.13 6.69 6.69 0 0 1 1.33.13l1.11 2.58a19.7 19.7 0 0 1 1 2.7h.07a9.21 9.21 0 0 1 .48-1.6c.49-1.21 1-2.47 1.55-3.68a6.6 6.6 0 0 1 1.35-.14zm9.52 0a2.67 2.67 0 0 1 .14.81 2.8 2.8 0 0 1-.14.9h-3.89v2.44h3.19a2.73 2.73 0 0 1 .14.83 2.63 2.63 0 0 1-.14.87h-3.19V267h4a2.51 2.51 0 0 1 .14.84 2.47 2.47 0 0 1-.14.87H425v-10.09zm4.38 4.84a18.55 18.55 0 0 1-.83-2.35h-.07a25 25 0 0 1 .14 2.68v4.79a3 3 0 0 1-1 .13 2.81 2.81 0 0 1-1-.13v-9.83a6.21 6.21 0 0 1 1.43-.13 5.56 5.56 0 0 1 1.39.13l2.33 5.07a20.35 20.35 0 0 1 .87 2.51h.06s-.13-1.34-.13-2.84v-4.74a3.38 3.38 0 0 1 1-.13 2.8 2.8 0 0 1 1 .13v9.83a5.63 5.63 0 0 1-1.4.13 6.61 6.61 0 0 1-1.42-.13zm10.97-5.01c2.58 0 4.23 1.57 4.23 5.21s-1.62 5.21-4.23 5.21-4.24-1.57-4.24-5.21 1.65-5.21 4.24-5.21zm0 1.75c-1.15 0-1.86.67-1.86 3.46s.71 3.45 1.86 3.45 1.86-.67 1.86-3.45-.69-3.46-1.86-3.46zm8.02 8.38a4.14 4.14 0 0 1-1.12.13 3.79 3.79 0 0 1-1.12-.13v-10h3.88a3.22 3.22 0 1 1 0 6.43h-1.64zm1.32-5.27c.83 0 1.3-.52 1.3-1.47s-.48-1.47-1.3-1.47h-1.32v2.94zm7.95-4.69a6.28 6.28 0 0 1 1.41.13l3.19 9.83a4.25 4.25 0 0 1-1.18.13 3.52 3.52 0 0 1-1.08-.13l-.66-2H462l-.66 2a4 4 0 0 1-1.09.13 3.59 3.59 0 0 1-1-.13l3.19-9.83a6.76 6.76 0 0 1 1.33-.13zm-.1 2.1a10.5 10.5 0 0 1-.38 1.64l-.83 2.54H465l-.81-2.54a11.13 11.13 0 0 1-.41-1.64zm13.11 4.47c0 2.35-1.53 3.68-3.84 3.68a3.47 3.47 0 0 1-3.81-3.68v-6.44a4 4 0 0 1 1.11-.13 4.15 4.15 0 0 1 1.12.13v6.61A1.46 1.46 0 0 0 473 267a1.44 1.44 0 0 0 1.6-1.62v-6.61a3.79 3.79 0 0 1 1.09-.13 4.15 4.15 0 0 1 1.12.13zm5.17-6.74a8.17 8.17 0 0 1 2.94.48 2.54 2.54 0 0 1-.56 1.65 7.82 7.82 0 0 0-2-.28c-1.2 0-1.78.36-1.78 1.08s1.16 1 2.34 1.37 2.46 1.15 2.46 3c0 2-1.25 3.14-3.78 3.14a7.69 7.69 0 0 1-3.35-.69 3.12 3.12 0 0 1 .53-1.71 9.2 9.2 0 0 0 2.66.43c1.11 0 1.61-.36 1.61-1.08s-.63-.92-1.44-1.2c-1.4-.46-3.31-.88-3.31-3.1-.02-1.84 1.14-3.09 3.68-3.09zm10.9.17a2.67 2.67 0 0 1 .14.81 2.8 2.8 0 0 1-.14.9H489v2.44h3.19a2.73 2.73 0 0 1 .14.83 2.63 2.63 0 0 1-.14.87H489V267h4a2.51 2.51 0 0 1 .14.84 2.47 2.47 0 0 1-.14.87h-6.28v-10.09zm-63.91 16.8c2.14 0 3.31 1.25 3.31 3.1a2.84 2.84 0 0 1-1.75 2.8l2.28 4.06a5.33 5.33 0 0 1-1.27.13 5 5 0 0 1-1.23-.13l-2.07-3.78h-.87v3.78a4.22 4.22 0 0 1-1.11.13 4 4 0 0 1-1.13-.13v-10zm-1.61 4.44h1.29a1.35 1.35 0 0 0 0-2.7h-1.29zm12.76-4.44a2.67 2.67 0 0 1 .14.81 2.8 2.8 0 0 1-.14.9h-3.89v2.44h3.19a2.73 2.73 0 0 1 .14.83 2.63 2.63 0 0 1-.14.87h-3.19v2.54h4a2.51 2.51 0 0 1 .14.84 2.47 2.47 0 0 1-.14.87H434v-10.1zm1.67.12a4.23 4.23 0 0 1 1.11-.13 4.46 4.46 0 0 1 1.13.13v8.14h3.92a2.83 2.83 0 0 1 .14.91 3.34 3.34 0 0 1-.14.91h-6.16zm11.24-.12a6.28 6.28 0 0 1 1.41.13l3.19 9.83a4.25 4.25 0 0 1-1.18.13 3.52 3.52 0 0 1-1.08-.13l-.66-2h-3.52l-.66 2a4 4 0 0 1-1.09.13 3.59 3.59 0 0 1-1-.13l3.19-9.83a6.76 6.76 0 0 1 1.4-.13zm-.1 2.1a10.5 10.5 0 0 1-.38 1.64l-.83 2.54h2.48l-.81-2.54a11.13 11.13 0 0 1-.41-1.64zm11.44-2.1a3 3 0 0 1 .14.92 3.23 3.23 0 0 1-.14 1h-2.44v8.08a4.55 4.55 0 0 1-1.12.13 3.73 3.73 0 0 1-1.11-.13v-8.08h-2.51a2.82 2.82 0 0 1-.14-.92 3.12 3.12 0 0 1 .14-1zm7.47 0a2.64 2.64 0 0 1 .14.81 2.8 2.8 0 0 1-.14.9h-3.89v2.44h3.19a2.73 2.73 0 0 1 .14.83 2.63 2.63 0 0 1-.14.87h-3.19v2.54h4a2.48 2.48 0 0 1 .14.84 2.45 2.45 0 0 1-.14.87h-6.28v-10.1zm5.14 0c2.75 0 4.33 1.42 4.33 5s-1.58 5-4.33 5h-3.46v-10zm-.08 8.33c1.26 0 2-.59 2-3.29s-.78-3.29-2-3.29h-1.13v6.58zm-54.71 8.47a2.64 2.64 0 0 1 2.91 2.82 2.29 2.29 0 0 1-1.09 2.06 2.41 2.41 0 0 1 1.39 2.3c0 1.88-1.2 2.91-3.15 2.91H418v-10.09zm-.45 4.16c.76 0 1.13-.5 1.13-1.27s-.38-1.28-1.13-1.28h-1.44v2.55zm.07 4.3a1.18 1.18 0 0 0 1.32-1.34c0-.94-.45-1.34-1.32-1.34h-1.51v2.69zm8.95-8.68c2.58 0 4.23 1.57 4.23 5.21s-1.62 5.21-4.23 5.21-4.24-1.57-4.24-5.21 1.65-5.21 4.24-5.21zm0 1.75c-1.15 0-1.86.67-1.86 3.46s.71 3.45 1.86 3.45 1.86-.67 1.86-3.45-.7-3.41-1.86-3.41zm8.48 3.31a18.61 18.61 0 0 1-.83-2.35h-.07a24.92 24.92 0 0 1 .14 2.68v4.79a3 3 0 0 1-1 .13 2.81 2.81 0 0 1-1-.13v-9.83a6.21 6.21 0 0 1 1.43-.13 5.56 5.56 0 0 1 1.39.13l2.33 5.07a20.34 20.34 0 0 1 .87 2.51h.06s-.13-1.34-.13-2.84v-4.73a3.38 3.38 0 0 1 1-.13 2.8 2.8 0 0 1 1 .13v9.83a5.63 5.63 0 0 1-1.4.13 6.61 6.61 0 0 1-1.42-.13zm13.25-4.84a2.66 2.66 0 0 1 .14.81 2.8 2.8 0 0 1-.14.9h-3.89v2.44h3.19a2.74 2.74 0 0 1 .14.83 2.62 2.62 0 0 1-.14.87h-3.19v2.54h4a2.52 2.52 0 0 1 .14.84 2.47 2.47 0 0 1-.14.87h-6.28v-10.1zm4.43.12a4.23 4.23 0 0 1 1.11-.13 4.46 4.46 0 0 1 1.13.13v8.14h3.92a2.82 2.82 0 0 1 .14.91 3.34 3.34 0 0 1-.14.91h-6.16zm11.05-.34c2.58 0 4.23 1.57 4.23 5.21s-1.62 5.21-4.23 5.21-4.24-1.57-4.24-5.21 1.65-5.21 4.24-5.21zm0 1.75c-1.15 0-1.86.67-1.86 3.46s.71 3.45 1.86 3.45 1.86-.67 1.86-3.45-.7-3.41-1.86-3.41zM477 292a8.18 8.18 0 0 1 2.94.48 2.54 2.54 0 0 1-.56 1.65 7.82 7.82 0 0 0-2-.28c-1.21 0-1.78.36-1.78 1.08s1.16 1 2.34 1.37 2.47 1.15 2.47 3c0 2-1.25 3.14-3.78 3.14a7.69 7.69 0 0 1-3.35-.69 3.12 3.12 0 0 1 .53-1.71 9.23 9.23 0 0 0 2.66.43c1.11 0 1.61-.36 1.61-1.08s-.63-.92-1.44-1.21c-1.4-.46-3.31-.88-3.31-3.1 0-1.78 1.16-3.08 3.67-3.08zm8.1 0a8.18 8.18 0 0 1 2.94.48 2.54 2.54 0 0 1-.56 1.65 7.82 7.82 0 0 0-2-.28c-1.21 0-1.78.36-1.78 1.08s1.16 1 2.34 1.37 2.47 1.15 2.47 3c0 2-1.25 3.14-3.78 3.14a7.69 7.69 0 0 1-3.35-.69 3.12 3.12 0 0 1 .53-1.71 9.23 9.23 0 0 0 2.66.43c1.11 0 1.61-.36 1.61-1.08s-.63-.92-1.44-1.21c-1.4-.46-3.31-.88-3.31-3.1-.03-1.78 1.14-3.08 3.67-3.08z" transform="translate(-32.03 -38.8)"/><path class="cls-3" d="M265.84 91.62a6.29 6.29 0 0 1 1.41.13l3.19 9.83a4.25 4.25 0 0 1-1.18.13 3.52 3.52 0 0 1-1.08-.13l-.66-2H264l-.66 2a4 4 0 0 1-1.09.13 3.59 3.59 0 0 1-1-.13l3.19-9.83a6.76 6.76 0 0 1 1.4-.13zm-.1 2.1a10.54 10.54 0 0 1-.38 1.64l-.83 2.54H267l-.81-2.54a11.21 11.21 0 0 1-.41-1.64zm11.47-2.1a3 3 0 0 1 .14.92 3.23 3.23 0 0 1-.14 1h-2.44v8.08a4.55 4.55 0 0 1-1.12.13 3.73 3.73 0 0 1-1.11-.13v-8.13H270a2.81 2.81 0 0 1-.14-.92 3.1 3.1 0 0 1 .14-1zm7.92 0a3 3 0 0 1 .14.92 3.23 3.23 0 0 1-.14 1h-2.44v8.08a4.55 4.55 0 0 1-1.12.13 3.73 3.73 0 0 1-1.11-.13v-8.13H278a2.81 2.81 0 0 1-.14-.92 3.1 3.1 0 0 1 .14-1zm4.21 0a6.29 6.29 0 0 1 1.41.13l3.19 9.83a4.25 4.25 0 0 1-1.18.13 3.52 3.52 0 0 1-1.08-.13l-.66-2h-3.52l-.66 2a4 4 0 0 1-1.09.13 3.59 3.59 0 0 1-1-.13l3.19-9.83a6.76 6.76 0 0 1 1.4-.13zm-.1 2.1a10.54 10.54 0 0 1-.38 1.64l-.86 2.53h2.48l-.81-2.54a11.21 11.21 0 0 1-.41-1.64zm5.76-1.98a4.22 4.22 0 0 1 1.11-.13 4.47 4.47 0 0 1 1.13.13v9.83a4.55 4.55 0 0 1-1.12.13 3.9 3.9 0 0 1-1.12-.13zm6.87 4.72a18.67 18.67 0 0 1-.83-2.35H301a24.85 24.85 0 0 1 .14 2.68v4.79a3 3 0 0 1-1 .13 2.81 2.81 0 0 1-1-.13v-9.84a6.2 6.2 0 0 1 1.43-.13 5.57 5.57 0 0 1 1.39.13l2.33 5.07a20.42 20.42 0 0 1 .87 2.51h.06s-.13-1.34-.13-2.84v-4.74a3.38 3.38 0 0 1 1-.13 2.81 2.81 0 0 1 1 .13v9.83a5.64 5.64 0 0 1-1.4.13 6.6 6.6 0 0 1-1.41-.13zm15.34-4.84a10.68 10.68 0 0 1 1.47.13v9.83a3.69 3.69 0 0 1-1.06.13 3.92 3.92 0 0 1-1.09-.13v-2.94c0-1.64.08-3.68.18-4.44h-.08c-.17.6-.74 2.13-1.22 3.28l-.91 2.14a2.66 2.66 0 0 1-.8.1 2.05 2.05 0 0 1-.74-.1c-.29-.69-.6-1.37-.88-2.06a31.6 31.6 0 0 1-1.26-3.36h-.08a29.75 29.75 0 0 1 .24 4.22v3.17a3.33 3.33 0 0 1-1 .13 3.44 3.44 0 0 1-1-.13v-9.85a8.63 8.63 0 0 1 1.37-.13 6.7 6.7 0 0 1 1.33.13l1.11 2.58a19.73 19.73 0 0 1 1 2.7h.07a9.21 9.21 0 0 1 .48-1.6c.49-1.2 1-2.47 1.55-3.68a6.57 6.57 0 0 1 1.32-.12zm9.52 0a2.65 2.65 0 0 1 .14.81 2.8 2.8 0 0 1-.14.9h-3.89v2.44H326a2.73 2.73 0 0 1 .14.83 2.63 2.63 0 0 1-.14.87h-3.19V100h4a2.5 2.5 0 0 1 .14.84 2.45 2.45 0 0 1-.14.87h-6.28V91.62zm4.38 4.84a18.67 18.67 0 0 1-.83-2.35h-.07a24.85 24.85 0 0 1 .14 2.68v4.79a3 3 0 0 1-1 .13 2.81 2.81 0 0 1-1-.13v-9.84a6.2 6.2 0 0 1 1.43-.13 5.57 5.57 0 0 1 1.39.13l2.33 5.07a20.42 20.42 0 0 1 .87 2.51h.06s-.13-1.34-.13-2.84v-4.74a3.38 3.38 0 0 1 1-.13 2.81 2.81 0 0 1 1 .13v9.83a5.64 5.64 0 0 1-1.4.13 6.6 6.6 0 0 1-1.41-.13zm13.69-4.84a3 3 0 0 1 .14.92 3.23 3.23 0 0 1-.14 1h-2.44v8.08a4.55 4.55 0 0 1-1.12.13 3.73 3.73 0 0 1-1.11-.13v-8.13h-2.51a2.81 2.81 0 0 1-.14-.92 3.1 3.1 0 0 1 .14-1zm-64.02 16.63c2.58 0 4.23 1.57 4.23 5.21s-1.62 5.21-4.23 5.21-4.24-1.57-4.24-5.21 1.65-5.21 4.24-5.21zm0 1.75c-1.15 0-1.86.67-1.86 3.46s.71 3.45 1.86 3.45 1.86-.67 1.86-3.45-.69-3.46-1.86-3.46zm8.02 8.38a4.46 4.46 0 0 1-1.13.13 4.23 4.23 0 0 1-1.11-.13v-10h6a2.85 2.85 0 0 1 .14.84 2.62 2.62 0 0 1-.14.87h-3.76v2.62h3.33a2.25 2.25 0 0 1 .14.83 2.59 2.59 0 0 1-.14.88h-3.33zm10.03 0a4.15 4.15 0 0 1-1.12.13 3.79 3.79 0 0 1-1.12-.13v-10h3.88a3.22 3.22 0 1 1 0 6.43h-1.64zm1.32-5.27c.83 0 1.3-.52 1.3-1.47s-.48-1.47-1.3-1.47h-1.32v2.94zm11.08-4.69a2.65 2.65 0 0 1 .14.81 2.8 2.8 0 0 1-.14.9h-3.89v2.44h3.19a2.73 2.73 0 0 1 .14.83 2.63 2.63 0 0 1-.14.87h-3.19v2.54h4a2.5 2.5 0 0 1 .14.84 2.45 2.45 0 0 1-.14.87h-6.24v-10.1zm5.44 0a6.29 6.29 0 0 1 1.41.13l3.19 9.83a4.25 4.25 0 0 1-1.18.13 3.52 3.52 0 0 1-1.08-.13l-.66-2h-3.52l-.66 2a4 4 0 0 1-1.09.13 3.59 3.59 0 0 1-1-.13l3.19-9.83a6.76 6.76 0 0 1 1.4-.13zm-.1 2.1a10.54 10.54 0 0 1-.38 1.64l-.83 2.54h2.48l-.81-2.54a11.21 11.21 0 0 1-.41-1.64zm10.95-1.98a4.77 4.77 0 0 1 1.12-.13 5.55 5.55 0 0 1 1.19.13l-2.8 4.52 3.24 5.31a6.14 6.14 0 0 1-1.32.13 5 5 0 0 1-1.23-.13l-2.61-4.27h-.53v4.27a3.67 3.67 0 0 1-1.12.13 4.15 4.15 0 0 1-1.12-.13v-9.83a4.2 4.2 0 0 1 1.13-.13 4 4 0 0 1 1.11.13v3.88h.53zm-57.47 16.68A2.64 2.64 0 0 1 273 128a2.29 2.29 0 0 1-1.09 2.06 2.41 2.41 0 0 1 1.39 2.3c0 1.88-1.2 2.91-3.15 2.91h-4.17v-10.05zm-.45 4.16c.76 0 1.13-.5 1.13-1.27s-.38-1.27-1.13-1.27h-1.44v2.55zm.07 4.3a1.18 1.18 0 0 0 1.32-1.34c0-.94-.45-1.34-1.32-1.34h-1.51v2.69zm8.95-8.68c2.58 0 4.23 1.57 4.23 5.21s-1.62 5.21-4.23 5.21-4.24-1.57-4.24-5.21S276 125 278.62 125zm0 1.75c-1.15 0-1.86.67-1.86 3.46s.71 3.45 1.86 3.45 1.86-.67 1.86-3.45-.7-3.41-1.86-3.41zm8.48 3.31a18.67 18.67 0 0 1-.83-2.35h-.07a24.85 24.85 0 0 1 .14 2.68v4.79a3 3 0 0 1-1 .13 2.81 2.81 0 0 1-1-.13v-9.83a6.2 6.2 0 0 1 1.43-.13 5.57 5.57 0 0 1 1.39.13l2.33 5.07a20.29 20.29 0 0 1 .87 2.51h.06s-.13-1.34-.13-2.84v-4.73a3.38 3.38 0 0 1 1-.13 2.81 2.81 0 0 1 1 .13v9.83a5.64 5.64 0 0 1-1.4.13 6.6 6.6 0 0 1-1.41-.13zm13.25-4.84a2.65 2.65 0 0 1 .14.81 2.8 2.8 0 0 1-.14.9h-3.89v2.44h3.19a2.74 2.74 0 0 1 .14.83 2.63 2.63 0 0 1-.14.87h-3.19v2.54h4a2.5 2.5 0 0 1 .14.84 2.46 2.46 0 0 1-.14.87h-6.28v-10.1zm12.65 0a10.68 10.68 0 0 1 1.47.13v9.83a3.69 3.69 0 0 1-1.06.13 3.92 3.92 0 0 1-1.09-.13v-2.94c0-1.64.08-3.68.18-4.44h-.08c-.17.6-.74 2.13-1.22 3.28l-.91 2.14a2.66 2.66 0 0 1-.8.1 2.05 2.05 0 0 1-.74-.1c-.29-.69-.6-1.37-.88-2.06a31.6 31.6 0 0 1-1.26-3.36h-.08a29.74 29.74 0 0 1 .24 4.22v3.17a3.32 3.32 0 0 1-1 .13 3.44 3.44 0 0 1-1-.13v-9.83a8.63 8.63 0 0 1 1.37-.13 6.7 6.7 0 0 1 1.33.13l1.11 2.58a19.71 19.71 0 0 1 1 2.7h.07a9.21 9.21 0 0 1 .48-1.6c.49-1.2 1-2.47 1.55-3.68a6.57 6.57 0 0 1 1.32-.14zm7.14 0a6.29 6.29 0 0 1 1.41.13l3.19 9.83a4.25 4.25 0 0 1-1.18.13 3.52 3.52 0 0 1-1.08-.13l-.66-2h-3.52l-.66 2a4 4 0 0 1-1.09.13 3.59 3.59 0 0 1-1-.13l3.19-9.83a6.76 6.76 0 0 1 1.4-.13zm-.1 2.1a10.54 10.54 0 0 1-.38 1.64l-.83 2.54h2.48l-.81-2.54a11.21 11.21 0 0 1-.41-1.64zm9.09-2.32a8.17 8.17 0 0 1 2.94.48 2.54 2.54 0 0 1-.56 1.65 7.83 7.83 0 0 0-2-.28c-1.2 0-1.78.36-1.78 1.08s1.16 1 2.34 1.37 2.47 1.15 2.47 3c0 2-1.25 3.14-3.78 3.14a7.69 7.69 0 0 1-3.35-.69 3.12 3.12 0 0 1 .53-1.71 9.21 9.21 0 0 0 2.66.43c1.11 0 1.61-.36 1.61-1.08s-.63-.92-1.44-1.2c-1.4-.46-3.31-.88-3.31-3.1-.03-1.79 1.14-3.09 3.67-3.09zm8.08 0a8.17 8.17 0 0 1 2.94.48 2.54 2.54 0 0 1-.56 1.65 7.83 7.83 0 0 0-2-.28c-1.2 0-1.78.36-1.78 1.08s1.16 1 2.34 1.37 2.47 1.15 2.47 3c0 2-1.25 3.14-3.78 3.14a7.69 7.69 0 0 1-3.35-.69 3.12 3.12 0 0 1 .53-1.71 9.21 9.21 0 0 0 2.66.43c1.11 0 1.61-.36 1.61-1.08s-.63-.92-1.44-1.2c-1.4-.46-3.31-.88-3.31-3.1-.03-1.79 1.13-3.09 3.67-3.09z" transform="translate(-32.03 -38.8)"/><path class="cls-1" d="M98.61 164.62a2.64 2.64 0 0 1 2.91 2.82 2.29 2.29 0 0 1-1.09 2.06 2.41 2.41 0 0 1 1.39 2.3c0 1.88-1.2 2.91-3.15 2.91H94.5v-10.09zm-.45 4.16c.76 0 1.13-.5 1.13-1.27s-.38-1.27-1.13-1.27h-1.44v2.55zm.07 4.3a1.18 1.18 0 0 0 1.32-1.34c0-.94-.45-1.34-1.32-1.34h-1.51v2.69zm8.95-8.63c2.58 0 4.23 1.57 4.23 5.21s-1.62 5.21-4.23 5.21-4.24-1.57-4.24-5.21 1.65-5.21 4.24-5.21zm0 1.75c-1.15 0-1.86.67-1.86 3.46s.71 3.45 1.86 3.45 1.86-.67 1.86-3.45-.7-3.46-1.86-3.46zm8.49 3.26a18.67 18.67 0 0 1-.83-2.35h-.07a24.85 24.85 0 0 1 .14 2.68v4.79a3 3 0 0 1-1 .13 2.81 2.81 0 0 1-1-.13v-9.83a6.2 6.2 0 0 1 1.43-.13 5.57 5.57 0 0 1 1.39.13l2.33 5.07a20.42 20.42 0 0 1 .87 2.51h.07s-.13-1.34-.13-2.84v-4.73a3.38 3.38 0 0 1 1-.13 2.81 2.81 0 0 1 1 .13v9.83a5.64 5.64 0 0 1-1.4.13 6.6 6.6 0 0 1-1.41-.13zm13.24-4.84a2.65 2.65 0 0 1 .14.81 2.8 2.8 0 0 1-.14.9H125v2.44h3.19a2.73 2.73 0 0 1 .14.83 2.63 2.63 0 0 1-.14.87H125V173h4a2.5 2.5 0 0 1 .14.84 2.45 2.45 0 0 1-.14.87h-6.28v-10.09zm8.55 0a2.64 2.64 0 0 1 2.91 2.82 2.29 2.29 0 0 1-1.09 2.06 2.41 2.41 0 0 1 1.39 2.3c0 1.88-1.2 2.91-3.15 2.91h-4.17v-10.09zm-.45 4.16c.76 0 1.13-.5 1.13-1.27s-.38-1.27-1.13-1.27h-1.44v2.55zm.07 4.3a1.18 1.18 0 0 0 1.32-1.34c0-.94-.45-1.34-1.32-1.34h-1.51v2.69zm12.66-1.89c0 2.35-1.53 3.68-3.84 3.68a3.47 3.47 0 0 1-3.81-3.68v-6.44a4 4 0 0 1 1.11-.13 4.15 4.15 0 0 1 1.12.13v6.61a1.46 1.46 0 0 0 1.61 1.62 1.44 1.44 0 0 0 1.6-1.62v-6.61a3.79 3.79 0 0 1 1.09-.13 4.15 4.15 0 0 1 1.12.13zm1.85-6.45a4.22 4.22 0 0 1 1.11-.13 4.47 4.47 0 0 1 1.13.13v9.83a4.55 4.55 0 0 1-1.12.13 3.9 3.9 0 0 1-1.12-.13zm4.15 0a4.23 4.23 0 0 1 1.11-.13 4.46 4.46 0 0 1 1.13.13v8.14h3.92a2.81 2.81 0 0 1 .14.91 3.34 3.34 0 0 1-.14.91h-6.16zm10.91-.12c2.75 0 4.33 1.41 4.33 5s-1.58 5-4.33 5h-3.46v-10zm-.08 8.33c1.26 0 2-.59 2-3.29s-.78-3.29-2-3.29h-1.13V173zm5.95-8.21a4.22 4.22 0 0 1 1.11-.13 4.47 4.47 0 0 1 1.13.13v9.83a4.55 4.55 0 0 1-1.12.13 3.9 3.9 0 0 1-1.12-.13zm6.86 4.72a18.67 18.67 0 0 1-.83-2.35h-.07a24.85 24.85 0 0 1 .14 2.68v4.79a3 3 0 0 1-1 .13 2.81 2.81 0 0 1-1-.13v-9.83a6.2 6.2 0 0 1 1.43-.13 5.57 5.57 0 0 1 1.39.13l2.33 5.07a20.42 20.42 0 0 1 .87 2.51h.06s-.13-1.34-.13-2.84v-4.73a3.38 3.38 0 0 1 1-.13 2.81 2.81 0 0 1 1 .13v9.83a5.64 5.64 0 0 1-1.4.13 6.6 6.6 0 0 1-1.41-.13zm11.37-4.98a6.21 6.21 0 0 1 2.84.56 2.27 2.27 0 0 1-.63 1.55 6.46 6.46 0 0 0-2-.34c-1.53 0-2.58.76-2.58 3.42s1 3.36 2.52 3.36a6.65 6.65 0 0 0 .69 0v-2.47h-1.49a2.11 2.11 0 0 1-.14-.84 2.27 2.27 0 0 1 .14-.87h3.63v5.46a6.89 6.89 0 0 1-3 .56c-3 0-4.65-1.81-4.65-5.18s1.66-5.21 4.67-5.21z" transform="translate(-32.03 -38.8)"/><path d="M46 366.89c0-4 1.5-5.67 4.27-5.67s4.29 1.65 4.29 5.67-1.54 5.67-4.29 5.67-4.27-1.65-4.27-5.67zm2.66 0c0 3 .58 3.65 1.62 3.65s1.58-.62 1.58-3.65-.53-3.65-1.58-3.65-1.59.61-1.59 3.65zm71.79-5.36a4.49 4.49 0 0 1 1.25-.14 4.84 4.84 0 0 1 1.26.14v10.66a4.46 4.46 0 0 1-1.25.14 5.18 5.18 0 0 1-1.28-.14v-7.69a5.64 5.64 0 0 1-2.23 1 2.28 2.28 0 0 1-.66-2 4.81 4.81 0 0 0 2.91-1.97zm4.47 5.36c0-4 1.5-5.67 4.27-5.67s4.29 1.65 4.29 5.67-1.54 5.67-4.29 5.67-4.27-1.65-4.27-5.67zm2.66 0c0 3 .58 3.65 1.62 3.65s1.58-.62 1.58-3.65-.53-3.65-1.58-3.65-1.63.61-1.63 3.65zm62.63-4.99a8.12 8.12 0 0 1 3.3-.67c2.26 0 3.81 1 3.81 3.14 0 1.94-1 2.75-2.9 3.87-.85.51-1.92.88-2 1.73a1.39 1.39 0 0 0 0 .26H197a2.49 2.49 0 0 1 .21 1.06 2.54 2.54 0 0 1-.21 1.06h-7a5.77 5.77 0 0 1-.13-1.18c0-2.42 1.62-3.47 3.07-4.45s1.79-1.41 1.79-2.27-.64-1.2-1.66-1.2a6.76 6.76 0 0 0-2.18.42 2 2 0 0 1-.68-1.77zm8.47 4.99c0-4 1.5-5.67 4.27-5.67s4.29 1.65 4.29 5.67-1.54 5.67-4.29 5.67-4.27-1.65-4.27-5.67zm2.66 0c0 3 .58 3.65 1.62 3.65s1.58-.62 1.58-3.65-.53-3.65-1.58-3.65-1.63.61-1.63 3.65zm63.55 5.6a6.88 6.88 0 0 1-3-.59 2.69 2.69 0 0 1 .61-1.74 9.27 9.27 0 0 0 2.27.32c1.34 0 1.92-.38 1.92-1.46s-.45-1.44-1.68-1.44h-1.46a2.94 2.94 0 0 1 0-1.89H265c1 0 1.36-.5 1.36-1.22 0-.91-.56-1.28-1.62-1.28a5.83 5.83 0 0 0-2 .32 1.94 1.94 0 0 1-.75-1.68 7.15 7.15 0 0 1 3-.61c2.39 0 3.87 1 3.87 3a2.4 2.4 0 0 1-1.38 2.38 2.69 2.69 0 0 1 1.73 2.75c-.02 1.99-1.21 3.14-4.32 3.14zm5.68-5.6c0-4 1.5-5.67 4.27-5.67s4.29 1.65 4.29 5.67-1.54 5.67-4.29 5.67-4.27-1.65-4.27-5.67zm2.66 0c0 3 .58 3.65 1.62 3.65s1.58-.62 1.58-3.65-.53-3.65-1.58-3.65-1.63.61-1.63 3.65zm65.24-5.36a4.7 4.7 0 0 1 1.26-.14 4.1 4.1 0 0 1 1.22.14v6.39h1.25a2.8 2.8 0 0 1 .14 1 2.64 2.64 0 0 1-.14 1H341v2.34a4 4 0 0 1-1.15.14 4.27 4.27 0 0 1-1.2-.14v-2.34h-4.8a2.41 2.41 0 0 1-.16-1 2.56 2.56 0 0 1 .16-1zm-2.3 6.39h2.43v-3.32zm7.26-1.03c0-4 1.5-5.67 4.27-5.67s4.29 1.65 4.29 5.67-1.54 5.67-4.29 5.67-4.27-1.65-4.27-5.67zm2.66 0c0 3 .58 3.65 1.62 3.65s1.58-.62 1.58-3.65-.53-3.65-1.58-3.65-1.62.61-1.62 3.65zm62.85-1.3a8.27 8.27 0 0 1 .88 0c2.16.14 3.36 1.18 3.36 3.38s-1.49 3.47-4.37 3.47a6.44 6.44 0 0 1-3-.58 2.55 2.55 0 0 1 .56-1.75 8.62 8.62 0 0 0 2.24.3c1.34 0 2-.45 2-1.46s-.59-1.5-2.08-1.5c-.69 0-1.36 0-2 .06v-6.19h6.12a3.44 3.44 0 0 1 0 2h-3.71zm5.55 1.3c0-4 1.5-5.67 4.27-5.67s4.29 1.65 4.29 5.67-1.54 5.67-4.29 5.67-4.27-1.65-4.27-5.67zm2.66 0c0 3 .58 3.65 1.62 3.65s1.58-.62 1.58-3.65-.53-3.65-1.58-3.65-1.63.61-1.63 3.65zm67.31-3.57c-1.92.21-3 .88-3.55 2.35a5.67 5.67 0 0 1 1.38-.18c1.9 0 3.42 1 3.42 3.55s-1.47 3.44-3.86 3.44-3.84-1.31-3.84-4.31c0-4.37 2.37-6.56 6.45-6.8a3.08 3.08 0 0 1 0 1.95zm-2.66 4a3.89 3.89 0 0 0-1.26.22v.67c0 1.84.53 2.42 1.33 2.42s1.33-.48 1.33-1.62-.58-1.65-1.4-1.65zm5.09-.43c0-4 1.5-5.67 4.27-5.67s4.29 1.65 4.29 5.67-1.54 5.67-4.29 5.67-4.27-1.65-4.27-5.67zm2.66 0c0 3 .58 3.65 1.62 3.65s1.58-.62 1.58-3.65-.53-3.65-1.58-3.65-1.63.61-1.63 3.65zm67.37-5.51a4.82 4.82 0 0 1 .11 1.26c-.11 3.68-3.83 4.71-3.83 9.59a6.14 6.14 0 0 1-1.18.1 6.32 6.32 0 0 1-1.2-.1c0-5.06 3-6.29 3.73-8.77h-4.67a3.55 3.55 0 0 1-.14-1.06 3.19 3.19 0 0 1 .14-1zm1.15 5.51c0-4 1.5-5.67 4.27-5.67s4.29 1.65 4.29 5.67-1.54 5.67-4.29 5.67-4.27-1.65-4.27-5.67zm2.66 0c0 3 .58 3.65 1.62 3.65s1.58-.62 1.58-3.65-.53-3.65-1.58-3.65-1.62.61-1.62 3.65zM622 369.6a3.2 3.2 0 0 1 1.86-2.77 3 3 0 0 1-1.55-2.71c0-1.75 1.34-2.9 3.67-2.9s3.57 1 3.57 2.72a3 3 0 0 1-1.38 2.53 3.3 3.3 0 0 1 1.86 3c0 2-1.5 3.12-4.1 3.12-2.42-.03-3.93-1.06-3.93-2.99zm5.52-.11c0-.9-1-1.31-2.1-1.81a2.25 2.25 0 0 0-1.06 1.79c0 .77.56 1.23 1.62 1.23s1.53-.46 1.53-1.22zm-2.8-5.46c0 .8.83 1.2 1.83 1.65a2 2 0 0 0 .75-1.54c0-.75-.46-1.15-1.31-1.15s-1.28.4-1.28 1.01zm6.63 2.86c0-4 1.5-5.67 4.27-5.67s4.29 1.65 4.29 5.67-1.54 5.67-4.29 5.67-4.27-1.65-4.27-5.67zm2.66 0c0 3 .58 3.65 1.62 3.65s1.58-.62 1.58-3.65-.53-3.65-1.58-3.65-1.63.61-1.63 3.65z" transform="translate(-32.03 -38.8)"/><path class="cls-5" d="M24.97 54.2v257m211.5 5v-6m-71 6v-6m216 6v-6m222 6v-6m-76 6v-6m-218 6v-6m148 6v-6m-364 6v-6"/><circle class="cls-6" cx="380.47" cy="128.7" r="7.5"/><circle class="cls-6" cx="458.97" cy="171.2" r="7.5"/><g class="cls-7"><path class="cls-8" d="M380.97 306.2v-1"/><path class="cls-9" d="M380.97 295.32V146.14"/><path class="cls-8" d="M380.97 141.2v-1"/></g><g class="cls-7"><path class="cls-8" d="M457.97 306.2v-1"/><path class="cls-10" d="M457.97 294.86V188.37"/><path class="cls-8" d="M457.97 183.2v-1"/></g><path class="cls-5" d="M603.47 310.7h-579m578.5 0h19"/><path class="cls-11" d="M619.47 313.7l3-3m-3-3.07l3 3"/></g></svg>