<?xml version="1.0" encoding="utf-8"?>
<!-- Generator: Adobe Illustrator 22.1.0, SVG Export Plug-In . SVG Version: 6.00 Build 0)  -->
<svg version="1.1" id="Layer_2_1_" xmlns="http://www.w3.org/2000/svg" xmlns:xlink="http://www.w3.org/1999/xlink" x="0px" y="0px"
	 viewBox="0 0 358 183.4" style="enable-background:new 0 0 358 183.4;" xml:space="preserve">
<style type="text/css">
	.st0{fill:#41AD49;}
	.st1{fill:#08B5E5;}
	.st2{fill:#EC8922;}
	.st3{enable-background:new    ;}
	.st4{fill:#DF6000;}
	.st5{fill:#FFFFFF;}
	.st6{fill:none;stroke:#000000;stroke-width:0.5569;stroke-miterlimit:10;}
	.st7{fill:#FFFFFF;stroke:#00C3C8;stroke-width:1.1137;stroke-miterlimit:10;}
	.st8{opacity:0.41;}
	.st9{fill:none;stroke:#FFFFFF;stroke-width:6;stroke-linecap:round;stroke-linejoin:round;}
	.st10{fill:none;stroke:#FFFFFF;stroke-width:6;stroke-linecap:round;stroke-linejoin:round;stroke-dasharray:0,10.2712;}
	.st11{fill:none;stroke:#FFFFFF;stroke-width:6;stroke-linecap:round;stroke-linejoin:round;stroke-dasharray:0,9.8646;}
</style>
<g>
	<path class="st0" d="M150.5,36.2c-14.4,3.4-21.5,7.3-27.8,12.8c-8.4,7.2-37.3,42.9-45.1,50.1s-44.5,44-44.5,44
		c0-0.2,53.3-0.2,117.5-0.2V36.2H150.5z"/>
	<path class="st1" d="M354.9,93.4c-10.5-3.7-65.9-21-83.5-30.5c-13.5-7.2-42-27.4-80.7-30.4V143c77.6,0,156.9,0.1,164.3,0.2V93.4
		H354.9z"/>
	<path class="st2" d="M150.5,142.9c13.4,0,27.3,0,41.2,0V32.4c-0.7-0.1-1.5-0.1-2.2-0.1c-15.7-0.9-28.7,1.1-39,3.9V142.9z"/>
	<g class="st3">
		<path d="M15.5,139.6h-13v-4.8c0-1.1,0.3-2,1-2.6s1.5-0.9,2.6-0.9c0.7,0,1.2,0.1,1.7,0.4c0.4,0.3,0.8,0.6,1.1,1
			c0.6-1.2,1.6-1.8,3-1.8c1.1,0,2,0.3,2.7,1c0.7,0.7,1,1.6,1,2.8V139.6z M8.2,137.7v-2.6c0-0.7-0.2-1.2-0.6-1.6
			c-0.4-0.3-0.9-0.5-1.6-0.5c-0.7,0-1.2,0.2-1.6,0.5s-0.6,0.9-0.6,1.6v2.6H8.2z M14.1,137.7V135c0-1.5-0.7-2.3-2.2-2.3
			c-0.8,0-1.3,0.2-1.7,0.6c-0.4,0.4-0.5,1-0.5,1.7v2.7H14.1z"/>
		<path d="M14.5,127.9c-0.8,0.7-2,1-3.8,1c-1.7,0-3-0.3-3.7-1c-0.8-0.7-1.2-1.7-1.2-3c0-1.3,0.4-2.3,1.2-3c0.8-0.7,2-1,3.7-1
			c1.7,0,3,0.3,3.8,1c0.8,0.7,1.2,1.7,1.2,3S15.3,127.2,14.5,127.9z M10.7,127.1c0.7,0,1.3,0,1.7-0.1c0.5-0.1,0.8-0.2,1.1-0.4
			c0.3-0.2,0.4-0.4,0.6-0.7s0.2-0.6,0.2-0.9s-0.1-0.6-0.2-0.9s-0.3-0.5-0.6-0.7c-0.3-0.2-0.6-0.3-1.1-0.4c-0.5-0.1-1-0.1-1.7-0.1
			c-0.7,0-1.3,0-1.7,0.1c-0.5,0.1-0.8,0.2-1.1,0.4s-0.4,0.4-0.6,0.7s-0.2,0.6-0.2,0.9c0,0.3,0,0.5,0.1,0.7c0.1,0.2,0.2,0.4,0.3,0.6
			s0.4,0.3,0.6,0.5c0.3,0.1,0.6,0.2,1,0.3C9.7,127.1,10.2,127.1,10.7,127.1z"/>
		<path d="M15.4,118.8H6.1c-0.1-0.2-0.1-0.5-0.1-0.9c0-0.2,0-0.3,0-0.5c0-0.1,0-0.3,0.1-0.3l0-0.1H7c-0.8-0.7-1.1-1.6-1.1-2.7
			c0-0.9,0.2-1.6,0.7-2c0.5-0.5,1.2-0.7,2-0.7h6.8c0.1,0.2,0.1,0.5,0.1,0.9c0,0.2,0,0.3,0,0.5c0,0.2,0,0.3-0.1,0.3l0,0.1H8.9
			c-1.1,0-1.6,0.6-1.6,1.7c0,0.4,0.1,0.8,0.3,1.1s0.5,0.7,0.8,0.9h6.9c0.1,0.2,0.1,0.5,0.1,0.9c0,0.2,0,0.4,0,0.5
			C15.4,118.5,15.4,118.6,15.4,118.8L15.4,118.8z"/>
		<path d="M10.7,109.3c-1.6,0-2.9-0.4-3.7-1.1c-0.8-0.7-1.2-1.7-1.2-2.9c0-1.1,0.3-2,0.9-2.6c0.6-0.6,1.5-0.9,2.7-0.9
			c0.3,0,0.7,0,1,0c0.3,0,0.5,0.1,0.7,0.1l0.2,0.1v5.5c1-0.1,1.8-0.3,2.2-0.7s0.6-1,0.6-1.8c0-0.4,0-0.7-0.1-1.1s-0.2-0.6-0.3-0.8
			l-0.1-0.2c0.3-0.4,0.8-0.6,1.3-0.6c0,0,0,0.1,0.1,0.1c0,0.1,0.1,0.2,0.2,0.4s0.2,0.4,0.2,0.6s0.1,0.5,0.2,0.8s0.1,0.7,0.1,1.1
			C15.7,107.9,14,109.3,10.7,109.3z M10,107.5v-3.9c-0.3,0-0.6-0.1-0.8-0.1c-0.6,0-1.1,0.1-1.4,0.4c-0.4,0.3-0.5,0.7-0.5,1.4
			C7.3,106.6,8.2,107.3,10,107.5z"/>
		<path d="M15.5,95.3h-13v-4c0-0.9,0.1-1.6,0.3-2.2s0.6-1.2,1.1-1.7c0.5-0.5,1.2-0.8,2-1.1S7.8,86,9,86c1.2,0,2.2,0.1,3,0.4
			c0.8,0.2,1.5,0.6,2,1.1c0.5,0.5,0.9,1,1.1,1.7s0.3,1.4,0.3,2.2V95.3z M14,93.5v-2c0-0.4,0-0.8-0.1-1.2s-0.2-0.7-0.5-0.9
			s-0.5-0.5-0.9-0.7c-0.4-0.2-0.8-0.3-1.4-0.4C10.5,88,9.8,88,9,88c-0.8,0-1.5,0.1-2.1,0.2c-0.6,0.1-1.1,0.3-1.4,0.4
			S4.8,89,4.6,89.3c-0.2,0.3-0.4,0.6-0.4,0.9S4,91,4,91.4v2H14z"/>
		<path d="M10.7,84.1c-1.6,0-2.9-0.4-3.7-1.1c-0.8-0.7-1.2-1.7-1.2-2.9c0-1.1,0.3-2,0.9-2.6c0.6-0.6,1.5-0.9,2.7-0.9
			c0.3,0,0.7,0,1,0s0.5,0.1,0.7,0.1l0.2,0.1v5.5c1-0.1,1.8-0.3,2.2-0.7s0.6-1,0.6-1.8c0-0.4,0-0.7-0.1-1.1s-0.2-0.6-0.3-0.8
			l-0.1-0.2c0.3-0.4,0.8-0.6,1.3-0.6c0,0,0,0.1,0.1,0.1c0,0.1,0.1,0.2,0.2,0.4s0.2,0.4,0.2,0.6s0.1,0.5,0.2,0.8s0.1,0.7,0.1,1.1
			C15.7,82.7,14,84.1,10.7,84.1z M10,82.2v-3.9c-0.3,0-0.6-0.1-0.8-0.1c-0.6,0-1.1,0.1-1.4,0.4c-0.4,0.3-0.5,0.7-0.5,1.4
			C7.3,81.4,8.2,82.1,10,82.2z"/>
		<path d="M15.4,74.4H6.1C6.1,74.2,6,73.9,6,73.5c0-0.2,0-0.3,0-0.5c0-0.1,0-0.3,0.1-0.3l0-0.1H7c-0.8-0.7-1.1-1.6-1.1-2.7
			c0-0.9,0.2-1.6,0.7-2.1c0.5-0.5,1.2-0.7,2-0.7h6.8c0.1,0.2,0.1,0.5,0.1,0.9c0,0.2,0,0.3,0,0.5c0,0.2,0,0.3-0.1,0.3l0,0.1H8.9
			c-1.1,0-1.6,0.6-1.6,1.7c0,0.4,0.1,0.8,0.3,1.1s0.5,0.7,0.8,0.9h6.9c0.1,0.2,0.1,0.5,0.1,0.9c0,0.2,0,0.4,0,0.5
			C15.4,74.2,15.4,74.3,15.4,74.4L15.4,74.4z"/>
		<path d="M15,65c-0.6,0-1-0.2-1.3-0.5c0-0.1,0.1-0.2,0.1-0.4s0.1-0.4,0.2-0.9s0.1-0.8,0.1-1.2c0-1.2-0.4-1.7-1.3-1.7
			c-0.2,0-0.3,0-0.5,0.1c-0.1,0.1-0.3,0.2-0.3,0.2c-0.1,0.1-0.2,0.2-0.3,0.4c-0.1,0.2-0.1,0.4-0.2,0.5c0,0.1-0.1,0.3-0.2,0.6
			c0,0.1-0.1,0.2-0.1,0.2c-0.1,0.3-0.2,0.5-0.2,0.7c-0.1,0.2-0.2,0.4-0.3,0.7s-0.3,0.4-0.5,0.6s-0.4,0.3-0.7,0.4
			c-0.3,0.1-0.6,0.2-0.9,0.2c-0.9,0-1.6-0.3-2.1-0.9c-0.5-0.6-0.8-1.4-0.8-2.5c0-0.5,0-1,0.1-1.4c0.1-0.4,0.2-0.7,0.2-0.9L6.3,59
			c0.6,0,1,0.2,1.3,0.5c-0.2,0.6-0.3,1.2-0.3,1.9c0,1.2,0.4,1.8,1.3,1.8c0.1,0,0.2,0,0.3-0.1c0.1,0,0.2-0.1,0.3-0.2
			c0.1-0.1,0.2-0.2,0.2-0.3s0.1-0.2,0.2-0.4c0.1-0.2,0.1-0.3,0.2-0.4c0-0.1,0.1-0.3,0.2-0.5c0.1-0.2,0.1-0.4,0.2-0.5
			c0.1-0.3,0.2-0.5,0.3-0.7c0.1-0.2,0.2-0.4,0.3-0.6s0.3-0.4,0.5-0.6s0.4-0.3,0.7-0.4c0.3-0.1,0.6-0.1,0.9-0.1
			c0.9,0,1.6,0.3,2.1,0.9s0.7,1.4,0.7,2.6c0,0.4,0,0.7-0.1,1c0,0.3-0.1,0.6-0.2,0.8c-0.1,0.2-0.1,0.4-0.2,0.6s-0.1,0.3-0.2,0.4
			L15,65z"/>
		<path d="M4.2,56.5H2.5c-0.1-0.2-0.1-0.5-0.1-0.9c0-0.2,0-0.4,0-0.5c0-0.2,0-0.3,0.1-0.3l0-0.1h1.7c0.1,0.2,0.1,0.5,0.1,0.9
			c0,0.2,0,0.4,0,0.5C4.3,56.2,4.2,56.3,4.2,56.5L4.2,56.5z M15.4,56.5H6.1C6.1,56.3,6,56,6,55.6c0-0.2,0-0.3,0-0.5
			c0-0.1,0-0.3,0.1-0.3l0-0.1h9.2c0.1,0.2,0.1,0.5,0.1,0.9c0,0.2,0,0.4,0,0.5C15.4,56.2,15.4,56.3,15.4,56.5L15.4,56.5z"/>
		<path d="M6.7,52.9c-0.1,0-0.3,0-0.4,0c-0.1,0-0.2,0-0.2-0.1l-0.1,0v-1.4H4.4C4.1,51,4,50.5,4,49.9c0-0.1,0-0.2,0-0.3h2v-2.3
			c0.2-0.1,0.4-0.1,0.7-0.1c0.1,0,0.2,0,0.4,0s0.2,0,0.2,0.1l0.1,0v2.3h4.7c0.8,0,1.4-0.1,1.7-0.4c0.3-0.3,0.5-0.7,0.5-1.4
			c0-0.1,0-0.2,0-0.3s0-0.2,0-0.3l0-0.1c0.2-0.1,0.4-0.1,0.7-0.1c0.1,0,0.2,0,0.3,0c0.1,0,0.2,0,0.2,0l0.1,0
			c0.1,0.4,0.2,0.8,0.2,1.3c0,1.1-0.3,1.9-0.9,2.4c-0.6,0.5-1.5,0.7-2.6,0.7H7.4v1.4C7.2,52.9,7,52.9,6.7,52.9z"/>
		<path d="M6.1,46.1C6.1,45.9,6,45.6,6,45.2c0-0.2,0-0.4,0-0.5c0-0.2,0-0.3,0.1-0.3l0-0.1l5.5-2c0.4-0.1,0.7-0.3,1.1-0.4
			c0.3-0.1,0.6-0.2,0.8-0.2l0.3-0.1v-0.1c-0.6-0.1-1.3-0.3-2.1-0.6l-5.5-1.8C6.1,39,6,38.7,6,38.3c0-0.2,0-0.3,0-0.4
			c0-0.1,0-0.2,0.1-0.3l0-0.1l10.7,3.5c0.4,0.1,0.8,0.3,1.1,0.4s0.6,0.3,0.9,0.5s0.5,0.4,0.7,0.6s0.3,0.5,0.4,0.8s0.1,0.6,0.1,1
			c0,0.2,0,0.3,0,0.5s-0.1,0.3-0.1,0.4l0,0.1l0,0c0,0-0.1,0-0.1,0s-0.1,0-0.1,0s-0.1,0-0.2,0s-0.1,0-0.2,0c-0.1,0-0.2,0-0.4,0
			s-0.2,0-0.3-0.1s-0.1,0-0.1,0c0-0.3,0.1-0.5,0.1-0.8c0-0.2,0-0.4-0.1-0.5s-0.1-0.3-0.3-0.4s-0.3-0.3-0.6-0.4
			c-0.3-0.1-0.6-0.2-1-0.4l-1.1-0.4c0,0.3-0.1,0.5-0.1,0.6L6.1,46.1z"/>
	</g>
	<g class="st3">
		<path d="M145.8,178.8l4.5-12.7c0.3-0.1,0.7-0.1,1.1-0.1c0.2,0,0.4,0,0.6,0c0.2,0,0.3,0,0.4,0.1l0.1,0l4.5,12.7
			c-0.2,0.1-0.5,0.1-1,0.1c-0.2,0-0.3,0-0.5,0c-0.1,0-0.3,0-0.3-0.1l-0.1,0l-1.1-3.2h-5.3l-1.1,3.2c-0.2,0.1-0.5,0.1-0.9,0.1
			c-0.2,0-0.3,0-0.5,0C146,178.9,145.9,178.8,145.8,178.8L145.8,178.8z M149.2,174.1h4.3l-1.6-4.6c-0.1-0.3-0.2-0.5-0.3-0.8
			s-0.1-0.5-0.2-0.6l0-0.2h-0.1c-0.1,0.5-0.3,1-0.5,1.6L149.2,174.1z"/>
		<path d="M157.6,180.9c0-0.3,0.1-0.6,0.2-0.9s0.3-0.5,0.5-0.7c0.2-0.2,0.4-0.4,0.5-0.5c0.2-0.1,0.3-0.2,0.5-0.3
			c-0.3-0.3-0.4-0.6-0.4-1c0-0.7,0.3-1.3,0.9-2c-1.1-0.5-1.6-1.5-1.6-2.9c0-1,0.3-1.8,0.9-2.4c0.6-0.6,1.5-0.9,2.6-0.9
			c0.8,0,1.5,0.1,2,0.4l2.5-0.4c0.1,0.2,0.1,0.4,0.1,0.7s0,0.5-0.1,0.7l-1.5-0.1c0.3,0.5,0.5,1.1,0.5,1.9c0,1-0.3,1.8-0.9,2.4
			c-0.6,0.6-1.5,0.9-2.6,0.9c-0.3,0-0.5,0-0.8-0.1c-0.2,0.3-0.4,0.6-0.4,0.9c0,0,0,0.1,0,0.1c0,0.2,0.1,0.4,0.3,0.5
			c0.2,0.1,0.4,0.2,0.7,0.3c0.3,0,0.6,0.1,0.9,0.1c0.3,0,0.7,0.1,1,0.2c0.3,0.1,0.7,0.1,1,0.3c0.3,0.1,0.6,0.3,0.9,0.4
			c0.3,0.2,0.5,0.4,0.6,0.7c0.2,0.3,0.2,0.7,0.2,1.1c0,0.9-0.4,1.6-1.2,2.2s-2,0.9-3.4,0.9c-1.3,0-2.2-0.2-2.9-0.7
			C157.9,182.3,157.6,181.7,157.6,180.9z M159.4,180.5c0,0.5,0.2,0.9,0.5,1.2c0.4,0.3,0.9,0.4,1.6,0.4c0.9,0,1.6-0.1,2.1-0.4
			c0.5-0.3,0.8-0.7,0.8-1.2c0-0.3-0.1-0.5-0.3-0.7c-0.2-0.2-0.4-0.3-0.7-0.3c-0.3-0.1-0.7-0.1-1-0.2c-0.3-0.1-0.7-0.1-1.1-0.2
			c-0.4-0.1-0.8-0.1-1.1-0.2c-0.2,0.2-0.4,0.4-0.6,0.7C159.4,179.9,159.4,180.2,159.4,180.5z M160.2,171c-0.3,0.3-0.5,0.8-0.5,1.5
			s0.2,1.1,0.5,1.5c0.3,0.3,0.8,0.5,1.3,0.5c0.6,0,1-0.2,1.3-0.5c0.3-0.3,0.5-0.8,0.5-1.5s-0.2-1.1-0.5-1.5
			c-0.3-0.3-0.8-0.5-1.3-0.5C161,170.6,160.6,170.7,160.2,171z"/>
		<path d="M167.4,174.1c0-1.6,0.4-2.9,1.1-3.7c0.7-0.8,1.7-1.2,2.9-1.2c1.1,0,2,0.3,2.6,0.9c0.6,0.6,0.9,1.5,0.9,2.7
			c0,0.3,0,0.7,0,1s-0.1,0.5-0.1,0.7l-0.1,0.2h-5.5c0.1,1,0.3,1.8,0.7,2.2s1,0.6,1.8,0.6c0.4,0,0.7,0,1.1-0.1s0.6-0.2,0.8-0.3
			l0.2-0.1c0.4,0.3,0.6,0.8,0.6,1.3c0,0-0.1,0-0.1,0.1c-0.1,0-0.2,0.1-0.4,0.2s-0.4,0.2-0.6,0.2s-0.5,0.1-0.8,0.2s-0.7,0.1-1.1,0.1
			C168.8,179.1,167.4,177.4,167.4,174.1z M169.3,173.5h3.9c0-0.3,0.1-0.6,0.1-0.8c0-0.6-0.1-1.1-0.4-1.4c-0.3-0.4-0.7-0.5-1.4-0.5
			C170.1,170.7,169.4,171.6,169.3,173.5z"/>
		<path d="M180.8,173.2c0-0.7,0-1.4,0.1-2.1s0.2-1.3,0.4-1.9c0.1-0.6,0.3-1.1,0.5-1.6c0.2-0.5,0.4-1,0.5-1.4s0.3-0.7,0.5-1
			s0.3-0.5,0.4-0.7l0.1-0.2c0.2,0,0.5,0.1,0.8,0.2c0.1,0.1,0.2,0.1,0.3,0.2s0.2,0.2,0.2,0.2l0,0.1c-0.1,0.1-0.1,0.2-0.2,0.4
			s-0.3,0.5-0.5,1.1s-0.4,1.1-0.6,1.7c-0.2,0.6-0.3,1.3-0.5,2.2s-0.2,1.8-0.2,2.7s0.1,1.8,0.2,2.7s0.3,1.7,0.5,2.3s0.4,1.2,0.6,1.7
			c0.2,0.5,0.4,0.9,0.5,1.1l0.2,0.4c-0.1,0.2-0.3,0.4-0.6,0.5c-0.1,0.1-0.2,0.1-0.4,0.1c-0.1,0-0.2,0.1-0.3,0.1h-0.1
			c-0.1-0.1-0.2-0.3-0.3-0.4s-0.3-0.6-0.6-1.2s-0.5-1.3-0.8-1.9c-0.2-0.7-0.4-1.5-0.6-2.4C180.9,175,180.8,174.1,180.8,173.2z"/>
		<path d="M185.5,169.6c0.2-0.1,0.5-0.1,0.9-0.1c0.2,0,0.4,0,0.5,0c0.2,0,0.3,0,0.3,0.1l0.1,0l2,5.5c0.1,0.4,0.3,0.7,0.4,1.1
			c0.1,0.3,0.2,0.6,0.2,0.8l0.1,0.3h0.1c0.1-0.6,0.3-1.3,0.6-2.1l1.8-5.5c0.2-0.1,0.5-0.1,0.9-0.1c0.2,0,0.3,0,0.4,0
			c0.1,0,0.2,0,0.3,0.1l0.1,0l-3.5,10.7c-0.1,0.4-0.3,0.8-0.4,1.1s-0.3,0.6-0.5,0.9s-0.4,0.5-0.6,0.7s-0.5,0.3-0.8,0.4
			s-0.6,0.1-1,0.1c-0.2,0-0.3,0-0.5,0s-0.3-0.1-0.4-0.1l-0.1,0l0,0c0,0,0-0.1,0-0.1s0-0.1,0-0.1s0-0.1,0-0.2s0-0.1,0-0.2
			c0-0.1,0-0.2,0-0.4s0-0.2,0.1-0.3s0-0.1,0-0.1c0.3,0,0.5,0.1,0.8,0.1c0.2,0,0.4,0,0.5-0.1s0.3-0.1,0.4-0.3s0.3-0.3,0.4-0.6
			c0.1-0.3,0.2-0.6,0.4-1l0.4-1.1c-0.3,0-0.5-0.1-0.6-0.1L185.5,169.6z"/>
		<path d="M195.3,174.1c0-1.6,0.4-2.9,1.1-3.7c0.7-0.8,1.7-1.2,2.9-1.2c1.1,0,2,0.3,2.6,0.9c0.6,0.6,0.9,1.5,0.9,2.7
			c0,0.3,0,0.7,0,1s-0.1,0.5-0.1,0.7l-0.1,0.2h-5.5c0.1,1,0.3,1.8,0.7,2.2s1,0.6,1.8,0.6c0.4,0,0.7,0,1.1-0.1
			c0.4-0.1,0.6-0.2,0.8-0.3l0.2-0.1c0.4,0.3,0.6,0.8,0.6,1.3c0,0-0.1,0-0.1,0.1c-0.1,0-0.2,0.1-0.4,0.2c-0.2,0.1-0.4,0.2-0.6,0.2
			s-0.5,0.1-0.8,0.2s-0.7,0.1-1.1,0.1C196.6,179.1,195.3,177.4,195.3,174.1z M197.1,173.5h3.9c0-0.3,0.1-0.6,0.1-0.8
			c0-0.6-0.1-1.1-0.4-1.4c-0.3-0.4-0.7-0.5-1.4-0.5C198,170.7,197.3,171.6,197.1,173.5z"/>
		<path d="M204.4,176.1c0-1,0.3-1.7,0.9-2.1s1.4-0.7,2.6-0.7c0.8,0,1.4,0,2.1,0.1v-0.7c0-0.6-0.1-1.1-0.4-1.5
			c-0.3-0.3-0.8-0.5-1.4-0.5c-0.4,0-0.8,0-1.2,0.1c-0.4,0.1-0.7,0.2-0.9,0.2l-0.3,0.1l0,0c0,0,0,0,0,0c0,0,0,0-0.1-0.1
			c0,0-0.1-0.1-0.1-0.1c0,0-0.1-0.1-0.1-0.1c0-0.1-0.1-0.1-0.1-0.2c0,0,0-0.1,0-0.1c0,0,0-0.1,0-0.1c0,0,0-0.1,0-0.1s0-0.1,0-0.1
			c0,0,0-0.1,0-0.1c0,0,0-0.1,0-0.1s0,0,0-0.1v0c0,0,0.1,0,0.2-0.1c0.1,0,0.2-0.1,0.4-0.2s0.4-0.1,0.7-0.2c0.2-0.1,0.5-0.1,0.9-0.2
			c0.3,0,0.7-0.1,1-0.1c1.3,0,2.2,0.3,2.7,0.8s0.8,1.4,0.8,2.7v6c-0.1,0.1-0.4,0.1-0.7,0.1c-0.1,0-0.3,0-0.4,0c-0.1,0-0.2,0-0.3-0.1
			l-0.1,0l-0.3-1.2c-0.5,1-1.4,1.5-2.8,1.5c-0.9,0-1.5-0.3-2-0.8C204.6,177.8,204.4,177.1,204.4,176.1z M206.2,176.1
			c0,1.1,0.5,1.6,1.6,1.6c0.5,0,0.8-0.1,1.2-0.4s0.6-0.5,0.7-0.9s0.2-0.8,0.2-1.2v-0.6c-0.8-0.1-1.4-0.1-1.8-0.1
			c-0.6,0-1.1,0.1-1.4,0.4C206.4,175.1,206.2,175.5,206.2,176.1z"/>
		<path d="M214.2,178.8v-9.2c0.2-0.1,0.5-0.1,0.9-0.1c0.2,0,0.3,0,0.5,0c0.1,0,0.3,0,0.3,0.1l0.1,0v1.2c0.6-1,1.3-1.5,2.2-1.5
			c0.6,0,1.1,0.2,1.6,0.5c-0.1,0.6-0.3,1.1-0.8,1.5c-0.3-0.3-0.7-0.4-1.1-0.4c-0.3,0-0.7,0.1-1,0.4s-0.6,0.6-0.8,1v6.6
			c-0.2,0.1-0.5,0.1-0.9,0.1c-0.2,0-0.4,0-0.5,0C214.5,178.9,214.4,178.8,214.2,178.8L214.2,178.8z"/>
		<path d="M220.9,178.5c0-0.6,0.2-1,0.5-1.3c0.1,0,0.2,0.1,0.4,0.1s0.4,0.1,0.9,0.2s0.8,0.1,1.2,0.1c1.2,0,1.7-0.4,1.7-1.3
			c0-0.2,0-0.3-0.1-0.5c-0.1-0.1-0.2-0.3-0.2-0.3c-0.1-0.1-0.2-0.2-0.4-0.3s-0.4-0.1-0.5-0.2c-0.1,0-0.3-0.1-0.6-0.2
			c-0.1,0-0.2-0.1-0.2-0.1c-0.3-0.1-0.5-0.2-0.7-0.2c-0.2-0.1-0.4-0.2-0.7-0.3s-0.4-0.3-0.6-0.5s-0.3-0.4-0.4-0.7
			c-0.1-0.3-0.2-0.6-0.2-0.9c0-0.9,0.3-1.6,0.9-2.1c0.6-0.5,1.4-0.8,2.5-0.8c0.5,0,1,0,1.4,0.1c0.4,0.1,0.7,0.2,0.9,0.2l0.2,0.1
			c0,0.6-0.2,1-0.5,1.3c-0.6-0.2-1.2-0.3-1.9-0.3c-1.2,0-1.8,0.4-1.8,1.3c0,0.1,0,0.2,0.1,0.3c0,0.1,0.1,0.2,0.2,0.3
			c0.1,0.1,0.2,0.2,0.3,0.2s0.2,0.1,0.4,0.2c0.2,0.1,0.3,0.1,0.4,0.2c0.1,0,0.3,0.1,0.5,0.2c0.2,0.1,0.4,0.1,0.5,0.2
			c0.3,0.1,0.5,0.2,0.7,0.3c0.2,0.1,0.4,0.2,0.6,0.3c0.2,0.1,0.4,0.3,0.6,0.5c0.1,0.2,0.3,0.4,0.4,0.7s0.1,0.6,0.1,0.9
			c0,0.9-0.3,1.6-0.9,2.1s-1.4,0.7-2.6,0.7c-0.4,0-0.7,0-1-0.1c-0.3,0-0.6-0.1-0.8-0.2c-0.2-0.1-0.4-0.1-0.6-0.2s-0.3-0.1-0.4-0.2
			L220.9,178.5z"/>
		<path d="M228.3,181.3c0.1-0.1,0.1-0.2,0.2-0.4c0.1-0.2,0.3-0.5,0.5-1.1s0.4-1.1,0.6-1.7c0.2-0.6,0.3-1.3,0.5-2.2
			c0.1-0.9,0.2-1.8,0.2-2.7s-0.1-1.8-0.2-2.7s-0.3-1.7-0.5-2.3s-0.4-1.2-0.6-1.7c-0.2-0.5-0.4-0.9-0.5-1.1l-0.2-0.4
			c0.1-0.2,0.3-0.4,0.6-0.5c0.1-0.1,0.2-0.1,0.4-0.1s0.2-0.1,0.3-0.1h0.1c0.1,0.1,0.2,0.3,0.3,0.4s0.3,0.6,0.6,1.2s0.5,1.3,0.8,1.9
			c0.2,0.7,0.4,1.5,0.6,2.4c0.2,1,0.3,1.9,0.3,2.8s-0.1,1.9-0.3,2.8s-0.4,1.8-0.6,2.5c-0.2,0.7-0.5,1.3-0.7,1.9
			c-0.2,0.6-0.4,1-0.6,1.3l-0.3,0.4c-0.2,0-0.5-0.1-0.8-0.2c-0.1-0.1-0.2-0.1-0.3-0.2S228.4,181.4,228.3,181.3L228.3,181.3z"/>
	</g>
	<g class="st3">
		<path class="st0" d="M54.6,42.6c-0.9-1-1.3-2.5-1.3-4.4s0.4-3.4,1.3-4.4s2.1-1.5,3.8-1.5c0.6,0,1.1,0,1.6,0.1
			c0.5,0.1,0.9,0.2,1.1,0.3l0.3,0.1c0,0.3-0.1,0.6-0.2,0.8s-0.3,0.5-0.4,0.7c-0.7-0.2-1.4-0.3-2.2-0.3c-0.4,0-0.7,0-1,0.1
			s-0.6,0.2-0.9,0.4c-0.3,0.2-0.5,0.5-0.7,0.8c-0.2,0.3-0.3,0.7-0.4,1.2s-0.2,1.1-0.2,1.7s0.1,1.2,0.2,1.7s0.2,0.9,0.4,1.2
			c0.2,0.3,0.4,0.6,0.7,0.7c0.3,0.2,0.6,0.3,0.9,0.4s0.7,0.1,1,0.1c0.2,0,0.4,0,0.5,0c0.2,0,0.3,0,0.4,0l0.1,0V39h-2
			c-0.1-0.2-0.2-0.5-0.2-0.8c0-0.2,0-0.3,0-0.4c0-0.1,0.1-0.2,0.1-0.3l0-0.1h3.9v6.2c0,0-0.1,0-0.1,0.1s-0.2,0.1-0.4,0.1
			s-0.4,0.1-0.7,0.2c-0.2,0-0.5,0.1-0.9,0.1c-0.4,0-0.7,0.1-1.1,0.1C56.8,44.1,55.5,43.6,54.6,42.6z"/>
		<path class="st0" d="M63.7,43.8v-8.2c0.2-0.1,0.5-0.1,1-0.1c0.2,0,0.4,0,0.5,0c0.2,0,0.3,0,0.4,0.1l0.1,0v0.9
			c0.6-0.8,1.2-1.2,1.8-1.2c0.5,0,1,0.1,1.4,0.4c-0.1,0.7-0.3,1.2-0.9,1.7c-0.3-0.2-0.6-0.4-0.9-0.4c-0.5,0-1,0.3-1.4,0.8v5.8
			c-0.2,0.1-0.6,0.1-1,0.1c-0.2,0-0.4,0-0.6,0c-0.2,0-0.3,0-0.3-0.1L63.7,43.8z"/>
		<path class="st0" d="M70.5,43c-0.6-0.7-0.9-1.8-0.9-3.3s0.3-2.6,1-3.3c0.6-0.7,1.5-1.1,2.7-1.1s2.1,0.3,2.7,1
			c0.6,0.7,0.9,1.8,0.9,3.3c0,1.5-0.3,2.6-0.9,3.3c-0.6,0.7-1.5,1-2.7,1S71.1,43.7,70.5,43z M71.7,38.3c-0.1,0.4-0.1,0.8-0.1,1.4
			s0,1,0.1,1.4c0.1,0.4,0.2,0.7,0.3,0.9c0.1,0.2,0.3,0.3,0.5,0.4c0.2,0.1,0.4,0.1,0.7,0.1c0.3,0,0.5,0,0.7-0.1
			c0.2-0.1,0.4-0.2,0.5-0.4c0.1-0.2,0.3-0.5,0.3-0.9c0.1-0.4,0.1-0.8,0.1-1.4s0-1-0.1-1.4c-0.1-0.4-0.2-0.7-0.3-0.9
			c-0.1-0.2-0.3-0.3-0.5-0.4c-0.2-0.1-0.4-0.1-0.7-0.1c-0.3,0-0.5,0-0.7,0.1c-0.2,0.1-0.4,0.2-0.5,0.4C71.9,37.7,71.7,38,71.7,38.3z
			"/>
		<path class="st0" d="M77.7,35.6c0.2-0.1,0.6-0.1,1-0.1c0.2,0,0.4,0,0.5,0s0.2,0.1,0.3,0.1l0.1,0l1.3,4.6c0.1,0.5,0.3,1.1,0.3,1.7
			h0.1c0.1-0.7,0.2-1.2,0.4-1.7l1.2-4.6c0.3-0.1,0.7-0.1,1.1-0.1c0.2,0,0.4,0,0.5,0c0.2,0,0.3,0,0.4,0.1l0.1,0l1.1,4.6
			c0.1,0.6,0.2,1.2,0.3,1.7h0c0.1-0.5,0.2-1,0.4-1.7l1.3-4.6c0.2-0.1,0.6-0.1,1-0.1c0.2,0,0.4-0.1,0.5-0.2c0.2-0.1,0.3-0.2,0.3-0.4
			l0.1-0.2l-2.5,9c-0.4,0.1-0.7,0.1-1.2,0.1s-0.8,0-1.2-0.1L84.2,40c-0.2-0.8-0.3-1.6-0.4-2.4h-0.1c-0.1,0.9-0.2,1.7-0.4,2.4l-1,3.8
			c-0.3,0.1-0.7,0.1-1.2,0.1c-0.5,0-0.9,0-1.2-0.1L77.7,35.6z"/>
		<path class="st0" d="M90.5,36.3c0-0.2,0-0.3,0-0.4c0-0.1,0-0.2,0.1-0.3l0-0.1h1.2v-1.3c0.5-0.3,1-0.4,1.6-0.4c0.1,0,0.3,0,0.4,0
			v1.7h1.9c0.1,0.2,0.1,0.5,0.1,0.8c0,0.1,0,0.3,0,0.4c0,0.1,0,0.2-0.1,0.3l0,0.1h-1.9v3.7c0,0.6,0.1,1.1,0.4,1.3
			c0.2,0.2,0.6,0.3,1.2,0.3l0.6-0.1c0.1,0.2,0.1,0.5,0.1,0.8c0,0.1,0,0.3,0,0.4c0,0.1,0,0.2-0.1,0.3l0,0.1c-0.3,0.1-0.7,0.1-1.2,0.1
			c-1,0-1.8-0.3-2.2-0.8s-0.7-1.3-0.7-2.4v-3.9h-1.2C90.5,36.9,90.5,36.6,90.5,36.3z"/>
		<path class="st0" d="M97.4,43.8V32.1c0.2-0.1,0.5-0.1,1-0.1c0.2,0,0.4,0,0.5,0c0.2,0,0.3,0,0.4,0.1l0.1,0v4.1
			c0.6-0.5,1.3-0.8,2.2-0.8c0.8,0,1.4,0.2,1.9,0.7c0.4,0.4,0.7,1,0.7,1.8v6c-0.2,0.1-0.6,0.1-1,0.1c-0.2,0-0.4,0-0.6,0
			c-0.2,0-0.3,0-0.3-0.1l-0.1,0v-5.7c0-0.4-0.1-0.6-0.3-0.8c-0.2-0.2-0.5-0.3-1-0.3c-0.5,0-1,0.2-1.4,0.6v6.2
			c-0.2,0.1-0.6,0.1-1,0.1c-0.2,0-0.4,0-0.6,0c-0.2,0-0.3,0-0.3-0.1L97.4,43.8z"/>
	</g>
	<g class="st3">
		<path class="st4" d="M155.8,18.8V7.4h4.3c1.1,0,1.9,0.3,2.6,1c0.7,0.7,1,1.5,1,2.6s-0.3,1.9-1,2.6c-0.7,0.7-1.5,1-2.6,1h-2.2v4.2
			c-0.2,0.1-0.6,0.1-1,0.1c-0.2,0-0.4,0-0.6,0S156,18.8,155.8,18.8L155.8,18.8z M157.9,12.9h2c0.6,0,1-0.2,1.3-0.5
			c0.3-0.3,0.4-0.8,0.4-1.4s-0.1-1.1-0.4-1.4c-0.3-0.3-0.7-0.5-1.3-0.5h-2V12.9z"/>
		<path class="st4" d="M164.7,14.7c0-1.5,0.3-2.5,1-3.3s1.5-1.1,2.7-1.1c1,0,1.8,0.3,2.4,0.8c0.6,0.5,0.9,1.4,0.9,2.5
			c0,0.3,0,0.6,0,0.9s-0.1,0.5-0.1,0.6l0,0.2h-4.7c0.1,0.8,0.3,1.3,0.6,1.6c0.3,0.3,0.8,0.4,1.4,0.4c0.3,0,0.6,0,0.9-0.1
			s0.5-0.1,0.7-0.2l0.2-0.1c0.2,0.2,0.3,0.4,0.4,0.6s0.2,0.5,0.2,0.8c0,0-0.1,0-0.1,0.1s-0.2,0.1-0.3,0.2s-0.4,0.1-0.6,0.2
			c-0.2,0.1-0.5,0.1-0.8,0.2s-0.6,0.1-1,0.1c-1.3,0-2.2-0.4-2.8-1.1C165,17.2,164.7,16.1,164.7,14.7z M166.8,13.9h2.8
			c0-0.2,0-0.4,0-0.5c0-1-0.4-1.5-1.3-1.5C167.4,11.9,166.9,12.6,166.8,13.9z"/>
		<path class="st4" d="M172.8,16.3c0-0.9,0.3-1.5,0.8-1.9s1.3-0.6,2.3-0.6c0.5,0,1.1,0,1.6,0.1v-0.4c0-1-0.5-1.5-1.4-1.5
			c-0.3,0-0.6,0-1,0.1c-0.3,0.1-0.6,0.1-0.8,0.2l-0.3,0.1c-0.2-0.1-0.3-0.3-0.4-0.6c-0.1-0.1-0.1-0.3-0.1-0.4s0-0.3,0-0.3l0-0.1
			c0,0,0.1,0,0.1-0.1s0.2-0.1,0.4-0.2c0.2-0.1,0.4-0.1,0.6-0.2s0.5-0.1,0.8-0.2c0.3,0,0.6-0.1,0.9-0.1c1.1,0,2,0.2,2.5,0.7
			c0.5,0.5,0.7,1.2,0.7,2.3v5.5c-0.2,0.1-0.4,0.1-0.8,0.1c-0.1,0-0.3,0-0.4,0c-0.1,0-0.2,0-0.3-0.1l-0.1,0l-0.3-0.9
			c-0.4,0.8-1.2,1.1-2.3,1.1c-0.8,0-1.4-0.2-1.8-0.7S172.8,17.2,172.8,16.3z M174.9,16.3c0,0.4,0.1,0.7,0.3,0.9
			c0.2,0.2,0.5,0.3,0.9,0.3c0.3,0,0.5-0.1,0.7-0.2c0.2-0.1,0.4-0.3,0.5-0.5c0.1-0.2,0.2-0.4,0.2-0.6c0.1-0.2,0.1-0.4,0.1-0.6v-0.5
			c-0.5,0-1-0.1-1.3-0.1C175.3,15.1,174.9,15.5,174.9,16.3z"/>
		<path class="st4" d="M181.6,18.8V7c0.3-0.1,0.6-0.1,1-0.1c0.2,0,0.3,0,0.5,0c0.2,0,0.3,0,0.4,0l0.1,0v6.8h0.5l2-3.2
			c0.3-0.1,0.6-0.1,1-0.1c0.2,0,0.3,0,0.5,0c0.2,0,0.3,0,0.4,0.1l0.1,0l-2.3,3.8l2.7,4.4c-0.3,0.1-0.7,0.1-1.1,0.1
			c-0.2,0-0.4,0-0.6,0c-0.2,0-0.3,0-0.4-0.1l-0.1,0l-2.2-3.5h-0.5v3.5c-0.3,0.1-0.6,0.1-1,0.1c-0.2,0-0.4,0-0.5,0
			c-0.2,0-0.3,0-0.4-0.1L181.6,18.8z"/>
	</g>
	<g class="st3">
		<path class="st1" d="M240.8,22.8l3.8-11.2c0.4-0.1,0.8-0.1,1.2-0.1c0.2,0,0.4,0,0.7,0c0.2,0,0.4,0,0.5,0.1l0.1,0l3.8,11.2
			c-0.2,0.1-0.6,0.1-1.1,0.1c-0.2,0-0.4,0-0.6,0c-0.2,0-0.3,0-0.3-0.1l-0.1,0l-0.9-2.6h-4.4l-0.9,2.6c-0.2,0.1-0.6,0.1-1,0.1
			c-0.2,0-0.4,0-0.5,0s-0.3,0-0.3-0.1L240.8,22.8z M244.1,18.6h3.2l-1.1-3.2c-0.1-0.3-0.2-0.6-0.3-0.9c-0.1-0.3-0.1-0.5-0.2-0.7
			l0-0.2h-0.1c-0.1,0.5-0.3,1.1-0.5,1.8L244.1,18.6z"/>
		<path class="st1" d="M251.3,24.7c0-0.9,0.5-1.6,1.4-2.1c-0.3-0.2-0.5-0.5-0.5-0.9c0-0.6,0.3-1.2,0.9-1.8c-1-0.5-1.5-1.3-1.5-2.6
			c0-0.9,0.3-1.6,0.8-2.2s1.4-0.8,2.4-0.8c0.7,0,1.3,0.1,1.8,0.4l2.3-0.4c0.1,0.2,0.1,0.5,0.1,0.8s0,0.6-0.1,0.8l-1.2-0.2
			c0.2,0.4,0.3,0.9,0.3,1.6c0,0.9-0.3,1.6-0.8,2.2c-0.5,0.5-1.3,0.8-2.4,0.8c-0.3,0-0.5,0-0.6,0c-0.1,0.2-0.2,0.4-0.2,0.6
			c0,0,0,0.1,0,0.1c0,0.2,0.1,0.3,0.3,0.4c0.2,0.1,0.4,0.2,0.6,0.2c0.2,0,0.5,0.1,0.8,0.1c0.3,0,0.6,0.1,0.9,0.1
			c0.3,0,0.6,0.1,0.9,0.2c0.3,0.1,0.5,0.2,0.7,0.4c0.2,0.2,0.4,0.4,0.5,0.7c0.1,0.3,0.2,0.6,0.2,1c0,0.8-0.4,1.5-1.1,2
			c-0.8,0.5-1.8,0.8-3.1,0.8c-1.2,0-2.1-0.2-2.6-0.6S251.3,25.4,251.3,24.7z M253.2,24.3c0,0.3,0.1,0.6,0.4,0.9s0.7,0.3,1.3,0.3
			c0.7,0,1.3-0.1,1.7-0.3s0.6-0.5,0.6-0.9c0-0.2-0.1-0.4-0.2-0.5s-0.3-0.2-0.6-0.2c-0.3,0-0.5-0.1-0.8-0.1s-0.6-0.1-0.9-0.1
			c-0.4-0.1-0.6-0.1-0.9-0.2C253.4,23.5,253.2,23.9,253.2,24.3z M253.6,17.3c0,0.5,0.1,0.9,0.4,1.2s0.6,0.4,1,0.4s0.7-0.1,1-0.4
			c0.2-0.2,0.4-0.6,0.4-1.2s-0.1-0.9-0.4-1.2c-0.2-0.3-0.6-0.4-1-0.4s-0.7,0.1-1,0.4S253.6,16.8,253.6,17.3z"/>
		<path class="st1" d="M260.1,18.7c0-1.5,0.3-2.5,1-3.3s1.5-1.1,2.7-1.1c1,0,1.8,0.3,2.4,0.8s0.9,1.4,0.9,2.5c0,0.3,0,0.6,0,0.9
			s-0.1,0.5-0.1,0.6l0,0.2h-4.7c0.1,0.8,0.3,1.3,0.6,1.6c0.3,0.3,0.8,0.4,1.4,0.4c0.3,0,0.6,0,0.9-0.1s0.5-0.1,0.7-0.2L266,21
			c0.2,0.2,0.3,0.4,0.4,0.6s0.2,0.5,0.2,0.8c0,0-0.1,0-0.1,0.1s-0.2,0.1-0.3,0.2s-0.4,0.1-0.6,0.2c-0.2,0.1-0.5,0.1-0.8,0.2
			c-0.3,0-0.6,0.1-1,0.1c-1.3,0-2.2-0.4-2.8-1.1C260.4,21.2,260.1,20.1,260.1,18.7z M262.2,17.9h2.8c0-0.2,0-0.4,0-0.5
			c0-1-0.4-1.5-1.3-1.5C262.8,15.9,262.3,16.6,262.2,17.9z"/>
		<path class="st1" d="M268.7,18.2c0-0.1,0-0.3,0-0.4c0-0.1,0-0.2,0.1-0.3l0-0.1h3.5c0.1,0.2,0.1,0.5,0.1,0.8c0,0.1,0,0.3,0,0.4
			c0,0.1,0,0.2-0.1,0.3l0,0.1h-3.5C268.7,18.8,268.7,18.5,268.7,18.2z"/>
		<path class="st1" d="M274.6,22.8V11.4h4.2c1.1,0,1.9,0.3,2.6,1s1,1.5,1,2.5c0,0.8-0.2,1.5-0.6,2c-0.4,0.6-0.9,1-1.6,1.2l2.8,4.7
			c-0.3,0.1-0.7,0.1-1.2,0.1c-0.2,0-0.4,0-0.6,0s-0.3,0-0.4-0.1l-0.1,0l-2.6-4.5h-1.3v4.5c-0.2,0.1-0.6,0.1-1,0.1
			c-0.2,0-0.4,0-0.6,0S274.8,22.8,274.6,22.8L274.6,22.8z M276.6,16.6h1.9c0.6,0,1-0.2,1.3-0.5c0.3-0.3,0.4-0.7,0.4-1.3
			s-0.1-1-0.4-1.3c-0.3-0.3-0.7-0.5-1.3-0.5h-1.9V16.6z"/>
		<path class="st1" d="M283.8,18.7c0-1.5,0.3-2.5,1-3.3s1.5-1.1,2.7-1.1c1,0,1.8,0.3,2.4,0.8s0.9,1.4,0.9,2.5c0,0.3,0,0.6,0,0.9
			s-0.1,0.5-0.1,0.6l0,0.2h-4.7c0.1,0.8,0.3,1.3,0.6,1.6c0.3,0.3,0.8,0.4,1.4,0.4c0.3,0,0.6,0,0.9-0.1s0.5-0.1,0.7-0.2l0.2-0.1
			c0.2,0.2,0.3,0.4,0.4,0.6s0.2,0.5,0.2,0.8c0,0-0.1,0-0.1,0.1s-0.2,0.1-0.3,0.2s-0.4,0.1-0.6,0.2c-0.2,0.1-0.5,0.1-0.8,0.2
			c-0.3,0-0.6,0.1-1,0.1c-1.3,0-2.2-0.4-2.8-1.1C284.1,21.2,283.8,20.1,283.8,18.7z M285.9,17.9h2.8c0-0.2,0-0.4,0-0.5
			c0-1-0.4-1.5-1.3-1.5C286.5,15.9,286,16.6,285.9,17.9z"/>
		<path class="st1" d="M292.4,22.8V11c0.2-0.1,0.5-0.1,1-0.1c0.2,0,0.4,0,0.5,0c0.2,0,0.3,0,0.4,0.1l0.1,0v11.8
			c-0.2,0.1-0.6,0.1-1,0.1c-0.2,0-0.4,0-0.6,0c-0.2,0-0.3,0-0.3-0.1L292.4,22.8z"/>
		<path class="st1" d="M296.1,20.3c0-0.9,0.3-1.5,0.8-1.9s1.3-0.6,2.3-0.6c0.5,0,1.1,0,1.6,0.1v-0.4c0-1-0.5-1.5-1.5-1.5
			c-0.3,0-0.6,0-1,0.1s-0.6,0.1-0.8,0.2l-0.3,0.1c-0.2-0.1-0.3-0.3-0.4-0.6c-0.1-0.1-0.1-0.3-0.1-0.4c0-0.1,0-0.3,0-0.3l0-0.1
			c0,0,0.1,0,0.1-0.1c0.1,0,0.2-0.1,0.4-0.2c0.2-0.1,0.4-0.1,0.6-0.2s0.5-0.1,0.8-0.2c0.3,0,0.6-0.1,0.9-0.1c1.1,0,2,0.2,2.5,0.7
			c0.5,0.5,0.7,1.2,0.7,2.3v5.5c-0.2,0.1-0.4,0.1-0.8,0.1c-0.1,0-0.3,0-0.4,0c-0.1,0-0.2,0-0.3-0.1l-0.1,0l-0.3-0.9
			c-0.4,0.8-1.2,1.1-2.3,1.1c-0.8,0-1.4-0.2-1.8-0.7S296.1,21.2,296.1,20.3z M298.2,20.3c0,0.4,0.1,0.7,0.3,0.9
			c0.2,0.2,0.5,0.3,0.9,0.3c0.3,0,0.5-0.1,0.7-0.2c0.2-0.1,0.4-0.3,0.5-0.5c0.1-0.2,0.2-0.4,0.2-0.6c0.1-0.2,0.1-0.4,0.1-0.6v-0.5
			c-0.5,0-1-0.1-1.3-0.1C298.6,19.1,298.2,19.5,298.2,20.3z"/>
		<path class="st1" d="M304.1,15.3c0-0.2,0-0.3,0-0.4c0-0.1,0-0.2,0.1-0.3l0-0.1h1.2v-1.3c0.5-0.3,1-0.4,1.6-0.4c0.1,0,0.3,0,0.4,0
			v1.7h1.9c0.1,0.2,0.1,0.5,0.1,0.8c0,0.1,0,0.3,0,0.4c0,0.1,0,0.2-0.1,0.3l0,0.1h-1.9v3.7c0,0.6,0.1,1.1,0.4,1.3
			c0.2,0.2,0.6,0.3,1.2,0.3l0.6-0.1c0.1,0.2,0.1,0.5,0.1,0.8c0,0.1,0,0.3,0,0.4c0,0.1,0,0.2-0.1,0.3l0,0.1c-0.3,0.1-0.7,0.1-1.2,0.1
			c-1,0-1.8-0.3-2.2-0.8s-0.7-1.3-0.7-2.4v-3.9h-1.2C304.2,15.9,304.1,15.6,304.1,15.3z"/>
		<path class="st1" d="M310.7,18.7c0-1.5,0.3-2.5,1-3.3s1.5-1.1,2.7-1.1c1,0,1.8,0.3,2.4,0.8s0.9,1.4,0.9,2.5c0,0.3,0,0.6,0,0.9
			s-0.1,0.5-0.1,0.6l0,0.2h-4.7c0.1,0.8,0.3,1.3,0.6,1.6c0.3,0.3,0.8,0.4,1.4,0.4c0.3,0,0.6,0,0.9-0.1s0.5-0.1,0.7-0.2l0.2-0.1
			c0.2,0.2,0.3,0.4,0.4,0.6s0.2,0.5,0.2,0.8c0,0-0.1,0-0.1,0.1s-0.2,0.1-0.3,0.2s-0.4,0.1-0.6,0.2c-0.2,0.1-0.5,0.1-0.8,0.2
			c-0.3,0-0.6,0.1-1,0.1c-1.3,0-2.2-0.4-2.8-1.1C311,21.2,310.7,20.1,310.7,18.7z M312.8,17.9h2.8c0-0.2,0-0.4,0-0.5
			c0-1-0.4-1.5-1.3-1.5C313.4,15.9,312.9,16.6,312.8,17.9z"/>
		<path class="st1" d="M319.2,20.8c-0.1-0.6-0.2-1.3-0.2-2s0.1-1.5,0.2-2c0.1-0.6,0.3-1,0.6-1.4c0.3-0.3,0.6-0.6,0.9-0.7
			c0.3-0.2,0.8-0.2,1.2-0.2c1,0,1.7,0.3,2.2,0.8v-4.1c0.2-0.1,0.6-0.1,1-0.1c0.2,0,0.4,0,0.5,0c0.2,0,0.3,0,0.4,0.1l0.1,0v11.7
			c-0.2,0.1-0.5,0.1-0.9,0.1c-0.2,0-0.3,0-0.5,0c-0.2,0-0.3,0-0.4-0.1l-0.1,0l-0.1-0.7c-0.5,0.7-1.2,1-2.3,1c-0.5,0-0.9-0.1-1.2-0.2
			s-0.7-0.4-0.9-0.7C319.5,21.8,319.3,21.3,319.2,20.8z M321,18.7c0,0.5,0,1,0.1,1.4s0.2,0.6,0.3,0.8c0.1,0.2,0.3,0.3,0.5,0.4
			c0.2,0.1,0.4,0.1,0.7,0.1c0.4,0,0.8-0.2,1.1-0.5c0.3-0.3,0.4-0.7,0.4-1.2v-2.1c0-0.5-0.2-0.9-0.4-1.2c-0.3-0.3-0.6-0.5-1-0.5
			c-0.2,0-0.4,0-0.6,0.1c-0.2,0-0.3,0.1-0.4,0.2s-0.3,0.3-0.3,0.5c-0.1,0.2-0.2,0.5-0.2,0.8C321.1,17.9,321,18.3,321,18.7z"/>
	</g>
	<g class="st3">
		<path class="st1" d="M265.9,42.1V30.6h4.5c0.9,0,1.7,0.3,2.3,0.9s0.9,1.4,0.9,2.3c0,0.5-0.1,0.9-0.3,1.3c-0.2,0.4-0.5,0.7-0.9,1
			c0.5,0.2,0.9,0.6,1.2,1s0.4,1,0.4,1.6c0,1-0.3,1.8-0.9,2.4c-0.6,0.6-1.5,0.9-2.5,0.9H265.9z M267.9,35.4h2c0.5,0,0.9-0.2,1.1-0.5
			s0.4-0.7,0.4-1.2c0-0.5-0.1-0.9-0.4-1.2c-0.3-0.3-0.6-0.4-1.1-0.4h-2V35.4z M267.9,40.5h2.1c0.6,0,1-0.2,1.3-0.5s0.4-0.7,0.4-1.3
			c0-0.6-0.1-1-0.4-1.3c-0.3-0.3-0.7-0.4-1.3-0.4h-2.1V40.5z"/>
		<path class="st1" d="M276.3,41.2c-0.6-0.7-0.9-1.8-0.9-3.3s0.3-2.6,0.9-3.3c0.6-0.7,1.5-1.1,2.7-1.1c1.2,0,2.1,0.3,2.7,1
			c0.6,0.7,0.9,1.8,0.9,3.3c0,1.5-0.3,2.6-0.9,3.3c-0.6,0.7-1.5,1-2.7,1S276.9,41.9,276.3,41.2z M277.5,36.5
			c-0.1,0.4-0.1,0.8-0.1,1.4s0,1,0.1,1.4c0.1,0.4,0.2,0.7,0.3,0.9c0.1,0.2,0.3,0.3,0.5,0.4c0.2,0.1,0.4,0.1,0.7,0.1
			c0.3,0,0.5,0,0.7-0.1c0.2-0.1,0.4-0.2,0.5-0.4s0.3-0.5,0.3-0.9c0.1-0.4,0.1-0.8,0.1-1.4s0-1-0.1-1.4c-0.1-0.4-0.2-0.7-0.3-0.9
			s-0.3-0.3-0.5-0.4c-0.2-0.1-0.4-0.1-0.7-0.1c-0.3,0-0.5,0-0.7,0.1c-0.2,0.1-0.4,0.2-0.5,0.4C277.7,35.9,277.6,36.2,277.5,36.5z"/>
		<path class="st1" d="M284.4,42v-8.2c0.2-0.1,0.5-0.1,1-0.1c0.2,0,0.4,0,0.5,0c0.2,0,0.3,0,0.4,0.1l0.1,0v0.5
			c0.6-0.5,1.3-0.8,2.2-0.8c0.8,0,1.4,0.2,1.9,0.7c0.4,0.4,0.7,1,0.7,1.8v6c-0.2,0.1-0.6,0.1-1,0.1c-0.2,0-0.4,0-0.6,0
			c-0.2,0-0.3,0-0.3-0.1l-0.1,0v-5.7c0-0.4-0.1-0.6-0.3-0.8c-0.2-0.2-0.5-0.3-1-0.3c-0.5,0-1,0.2-1.4,0.6V42c-0.2,0.1-0.6,0.1-1,0.1
			c-0.2,0-0.4,0-0.6,0c-0.2,0-0.3,0-0.3-0.1L284.4,42z"/>
		<path class="st1" d="M292.9,37.9c0-1.5,0.3-2.5,1-3.3s1.5-1.1,2.7-1.1c1,0,1.8,0.3,2.4,0.8s0.9,1.4,0.9,2.5c0,0.3,0,0.6,0,0.9
			s-0.1,0.5-0.1,0.6l0,0.2h-4.7c0.1,0.8,0.3,1.3,0.6,1.6c0.3,0.3,0.8,0.4,1.4,0.4c0.3,0,0.6,0,0.9-0.1s0.5-0.1,0.7-0.2l0.2-0.1
			c0.2,0.2,0.3,0.4,0.4,0.6s0.2,0.5,0.2,0.8c0,0-0.1,0-0.1,0.1s-0.2,0.1-0.3,0.2s-0.4,0.1-0.6,0.2c-0.2,0.1-0.5,0.1-0.8,0.2
			c-0.3,0-0.6,0.1-1,0.1c-1.3,0-2.2-0.4-2.8-1.1C293.2,40.4,292.9,39.3,292.9,37.9z M294.9,37.1h2.8c0-0.2,0-0.4,0-0.5
			c0-1-0.4-1.5-1.3-1.5C295.6,35.1,295,35.8,294.9,37.1z"/>
		<path class="st1" d="M305.1,42.1V30.7c0.2-0.1,0.6-0.1,1-0.1c0.2,0,0.4,0,0.6,0c0.2,0,0.3,0,0.4,0.1l0.1,0v9.6h4.6
			c0.1,0.2,0.2,0.5,0.2,0.9c0,0.3-0.1,0.6-0.2,0.9H305.1z"/>
		<path class="st1" d="M313.7,41.2c-0.6-0.7-0.9-1.8-0.9-3.3s0.3-2.6,0.9-3.3c0.6-0.7,1.5-1.1,2.7-1.1c1.2,0,2.1,0.3,2.7,1
			c0.6,0.7,0.9,1.8,0.9,3.3c0,1.5-0.3,2.6-0.9,3.3c-0.6,0.7-1.5,1-2.7,1S314.4,41.9,313.7,41.2z M315,36.5c-0.1,0.4-0.1,0.8-0.1,1.4
			s0,1,0.1,1.4c0.1,0.4,0.2,0.7,0.3,0.9c0.1,0.2,0.3,0.3,0.5,0.4c0.2,0.1,0.4,0.1,0.7,0.1c0.3,0,0.5,0,0.7-0.1
			c0.2-0.1,0.4-0.2,0.5-0.4s0.3-0.5,0.3-0.9c0.1-0.4,0.1-0.8,0.1-1.4s0-1-0.1-1.4c-0.1-0.4-0.2-0.7-0.3-0.9s-0.3-0.3-0.5-0.4
			c-0.2-0.1-0.4-0.1-0.7-0.1c-0.3,0-0.5,0-0.7,0.1c-0.2,0.1-0.4,0.2-0.5,0.4C315.1,35.9,315,36.2,315,36.5z"/>
		<path class="st1" d="M321.5,41.7c0-0.6,0.2-1.1,0.5-1.5c0.7,0.3,1.4,0.4,2.1,0.4c0.8,0,1.3-0.3,1.3-0.9c0-0.2-0.1-0.4-0.2-0.5
			s-0.3-0.2-0.5-0.3s-0.4-0.1-0.8-0.2c-0.1,0-0.1,0-0.2-0.1c-0.2-0.1-0.4-0.1-0.5-0.2c-0.1-0.1-0.3-0.1-0.5-0.2s-0.3-0.2-0.5-0.3
			s-0.2-0.3-0.4-0.4s-0.2-0.3-0.3-0.6s-0.1-0.5-0.1-0.7c0-0.8,0.3-1.4,0.8-1.9c0.5-0.5,1.3-0.7,2.3-0.7c0.5,0,1,0,1.4,0.1
			c0.4,0.1,0.7,0.2,0.8,0.2L327,34c0,0.6-0.2,1.1-0.5,1.4c-0.5-0.2-1.1-0.3-1.7-0.3c-0.9,0-1.4,0.3-1.4,0.9c0,0.1,0,0.2,0.1,0.3
			c0.1,0.1,0.1,0.2,0.2,0.2c0.1,0.1,0.2,0.1,0.3,0.2s0.3,0.1,0.4,0.1c0.1,0,0.3,0.1,0.5,0.1c0.2,0.1,0.4,0.1,0.5,0.2
			c0.3,0.1,0.5,0.2,0.7,0.3s0.4,0.3,0.6,0.4s0.3,0.4,0.5,0.7s0.2,0.6,0.2,1c0,0.8-0.3,1.5-0.8,2s-1.3,0.7-2.4,0.7
			c-0.3,0-0.6,0-0.9-0.1c-0.3,0-0.6-0.1-0.8-0.2c-0.2-0.1-0.4-0.1-0.6-0.2c-0.2-0.1-0.3-0.1-0.4-0.1L321.5,41.7z"/>
		<path class="st1" d="M328.7,41.7c0-0.6,0.2-1.1,0.5-1.5c0.7,0.3,1.4,0.4,2.1,0.4c0.8,0,1.3-0.3,1.3-0.9c0-0.2-0.1-0.4-0.2-0.5
			s-0.3-0.2-0.5-0.3s-0.4-0.1-0.8-0.2c-0.1,0-0.1,0-0.2-0.1c-0.2-0.1-0.4-0.1-0.5-0.2c-0.1-0.1-0.3-0.1-0.5-0.2s-0.3-0.2-0.5-0.3
			s-0.2-0.3-0.4-0.4s-0.2-0.3-0.3-0.6s-0.1-0.5-0.1-0.7c0-0.8,0.3-1.4,0.8-1.9c0.5-0.5,1.3-0.7,2.3-0.7c0.5,0,1,0,1.4,0.1
			c0.4,0.1,0.7,0.2,0.8,0.2l0.2,0.1c0,0.6-0.2,1.1-0.5,1.4c-0.5-0.2-1.1-0.3-1.7-0.3c-0.9,0-1.4,0.3-1.4,0.9c0,0.1,0,0.2,0.1,0.3
			c0.1,0.1,0.1,0.2,0.2,0.2c0.1,0.1,0.2,0.1,0.3,0.2s0.3,0.1,0.4,0.1c0.1,0,0.3,0.1,0.5,0.1c0.2,0.1,0.4,0.1,0.5,0.2
			c0.3,0.1,0.5,0.2,0.7,0.3s0.4,0.3,0.6,0.4s0.3,0.4,0.5,0.7s0.2,0.6,0.2,1c0,0.8-0.3,1.5-0.8,2s-1.3,0.7-2.4,0.7
			c-0.3,0-0.6,0-0.9-0.1c-0.3,0-0.6-0.1-0.8-0.2c-0.2-0.1-0.4-0.1-0.6-0.2c-0.2-0.1-0.3-0.1-0.4-0.1L328.7,41.7z"/>
	</g>
	<g class="st3">
		<path class="st5" d="M254.8,136.4l-9.1-0.1c-0.1-0.3-0.1-0.6-0.1-1c0-0.1,0-0.3,0-0.5c0-0.2,0-0.3,0.1-0.4l0-0.1l2.4-1.2
			c1.2-0.6,2.1-0.9,2.6-1.1l0-0.1c-0.5-0.2-0.9-0.3-1.3-0.5c-1-0.5-2.1-1.1-3.6-1.7c-0.1-0.4-0.1-0.7-0.1-1.1c0-0.2,0-0.4,0-0.5
			s0-0.3,0.1-0.4l0-0.1l9.1,0.1c0.1,0.2,0.1,0.5,0.1,0.8c0,0.2,0,0.3,0,0.4c0,0.1,0,0.2-0.1,0.3l0,0.1l-2.8,0c-0.2,0-0.6,0-1.1,0
			c-0.5,0-0.9,0-1.2,0s-0.6,0-1,0c-0.4,0-0.7-0.1-1-0.1l0,0.1c0.2,0.1,0.4,0.1,0.7,0.3c0.3,0.1,0.6,0.2,0.8,0.3
			c0.2,0.1,0.5,0.3,0.9,0.5c0.4,0.2,0.7,0.3,0.8,0.4l1.9,0.9c0,0.1,0.1,0.3,0.1,0.5c0,0.1,0,0.2,0,0.2c0,0.1,0,0.1,0,0.1l0,0
			c-0.1,0.1-0.4,0.2-0.8,0.4c-0.4,0.2-0.8,0.4-1,0.5c-0.6,0.3-1,0.5-1.3,0.6c-0.3,0.1-0.6,0.3-1.1,0.5c-0.4,0.2-0.8,0.3-1,0.4l0,0.1
			c0.1,0,0.3-0.1,0.5-0.1c0.2,0,0.4,0,0.6,0c0.2,0,0.4,0,0.7,0c0.3,0,0.5,0,0.7,0c0.1,0,0.2,0,0.3,0c0.1,0,0.3,0,0.5,0
			c0.4,0,0.6,0,0.7,0l3.2,0c0.1,0.2,0.1,0.4,0.1,0.8c0,0.1,0,0.3,0,0.4C254.8,136.2,254.8,136.3,254.8,136.4L254.8,136.4z"/>
		<path class="st5" d="M255,125.6l-9.4-0.1l0.1-5.4c0.2-0.1,0.4-0.1,0.6-0.1c0.3,0,0.5,0,0.7,0.1l0,3.7l2.6,0l0-3.1
			c0.2-0.1,0.5-0.1,0.6-0.1c0.2,0,0.5,0.1,0.7,0.1l0,3.1l2.7,0l0-3.8c0.2-0.1,0.5-0.1,0.6-0.1c0.2,0,0.5,0,0.7,0.1L255,125.6z"/>
		<path class="st5" d="M255,118.4l-9.1-0.1c-0.1-0.2-0.1-0.6-0.1-1c0-0.2,0-0.4,0-0.5c0-0.2,0-0.3,0.1-0.3l0-0.1l5.2-2.6
			c0.3-0.1,0.6-0.3,0.9-0.4c0.3-0.1,0.6-0.2,0.8-0.3l0.3-0.1l0-0.1c-0.7,0.1-1.5,0.1-2.4,0.1l-4.7-0.1c-0.1-0.2-0.1-0.4-0.1-0.8
			c0-0.2,0-0.3,0-0.4c0-0.1,0-0.2,0.1-0.3l0-0.1l9.1,0.1c0.1,0.2,0.1,0.5,0.1,1c0,0.2,0,0.4,0,0.5c0,0.2,0,0.3-0.1,0.4l0,0.1
			l-5.3,2.6c-0.3,0.1-0.6,0.3-0.9,0.4c-0.3,0.1-0.6,0.2-0.8,0.3l-0.3,0.1l0,0.1c0.7-0.1,1.5-0.1,2.4-0.1l4.8,0.1
			c0.1,0.2,0.1,0.4,0.1,0.8c0,0.2,0,0.3,0,0.4S255,118.3,255,118.4L255,118.4z"/>
		<path class="st5" d="M250.5,109.6c-1.6,0-2.8-0.4-3.6-1c-0.8-0.7-1.2-1.6-1.2-2.8c0-1.2,0.4-2.1,1.2-2.8c0.8-0.7,2-1,3.6-0.9
			c1.6,0,2.8,0.4,3.6,1c0.8,0.7,1.2,1.6,1.1,2.8c0,1.2-0.4,2.1-1.2,2.8S252.2,109.6,250.5,109.6z M250.6,107.8c0.5,0,1,0,1.4-0.1
			c0.4-0.1,0.7-0.1,1-0.3c0.3-0.1,0.5-0.2,0.6-0.4c0.2-0.2,0.3-0.4,0.3-0.5c0.1-0.2,0.1-0.4,0.1-0.7c0-0.3,0-0.6-0.1-0.8
			c-0.1-0.2-0.3-0.4-0.5-0.6c-0.2-0.2-0.6-0.3-1.1-0.4c-0.5-0.1-1-0.1-1.7-0.2c-0.5,0-1,0-1.4,0.1s-0.7,0.1-1,0.2
			c-0.3,0.1-0.5,0.2-0.6,0.4c-0.2,0.2-0.3,0.4-0.3,0.5c-0.1,0.2-0.1,0.4-0.1,0.7c0,0.3,0,0.6,0.1,0.8s0.3,0.4,0.5,0.6
			c0.2,0.2,0.6,0.3,1.1,0.4C249.3,107.8,249.9,107.8,250.6,107.8z"/>
		<path class="st5" d="M255.2,100.4l-9.2-0.1l0-3.5c0-0.9,0.3-1.6,0.8-2.1s1.3-0.8,2.1-0.8c0.9,0,1.6,0.3,2.1,0.8
			c0.5,0.5,0.8,1.2,0.8,2.1l0,1.8l3.4,0c0.1,0.2,0.1,0.5,0.1,0.8c0,0.2,0,0.3,0,0.5C255.3,100.2,255.3,100.3,255.2,100.4
			L255.2,100.4z M250.5,98.7l0-1.6c0-0.4-0.1-0.8-0.4-1s-0.6-0.4-1.1-0.4s-0.9,0.1-1.1,0.3c-0.3,0.2-0.4,0.6-0.4,1l0,1.6L250.5,98.7
			z"/>
		<path class="st5" d="M255.3,94.1l-9.1-3.2c-0.1-0.3-0.1-0.6-0.1-1c0-0.2,0-0.4,0-0.5c0-0.2,0-0.3,0.1-0.4l0-0.1l9.2-3
			c0.1,0.2,0.1,0.5,0.1,0.9c0,0.2,0,0.3,0,0.5c0,0.1,0,0.2-0.1,0.3l0,0.1l-2.1,0.7l0,3.5l2.1,0.7c0.1,0.2,0.1,0.5,0.1,0.8
			c0,0.1,0,0.3,0,0.4C255.4,93.8,255.3,93.9,255.3,94.1L255.3,94.1z M251.9,91.3l0-2.6l-2.7,0.9c-0.2,0.1-0.5,0.1-0.7,0.2
			s-0.4,0.1-0.5,0.1l-0.2,0l0,0.1c0.4,0.1,0.9,0.2,1.4,0.4L251.9,91.3z"/>
		<path class="st5" d="M252.2,84.8l-6-0.1c-0.1-0.2-0.1-0.5-0.1-0.8c0-0.2,0-0.3,0-0.5c0-0.1,0-0.2,0.1-0.3l0-0.1l6.2,0.1
			c0.6,0,1-0.1,1.3-0.4c0.3-0.3,0.5-0.7,0.5-1.3s-0.1-1-0.4-1.3c-0.3-0.3-0.7-0.5-1.3-0.5l-6.2-0.1c-0.1-0.2-0.1-0.4-0.1-0.8
			c0-0.2,0-0.3,0-0.5c0-0.1,0-0.2,0.1-0.3l0-0.1l6,0.1c1.1,0,1.9,0.3,2.5,0.9c0.6,0.6,0.9,1.4,0.9,2.5c0,1-0.3,1.9-0.9,2.5
			C254.1,84.5,253.3,84.8,252.2,84.8z"/>
		<path class="st5" d="M255.2,76.5C255.2,76.5,255.1,76.5,255.2,76.5c-0.5,0-0.9-0.1-1.3-0.4c0-0.1,0.1-0.2,0.1-0.4
			c0-0.2,0.1-0.5,0.2-0.9c0.1-0.4,0.1-0.8,0.1-1.2c0-0.6-0.1-1-0.3-1.3c-0.2-0.3-0.5-0.4-0.9-0.4c-0.2,0-0.3,0-0.5,0.1
			c-0.1,0.1-0.3,0.2-0.4,0.3c-0.1,0.1-0.2,0.3-0.3,0.4c-0.1,0.1-0.2,0.3-0.2,0.5c0,0.1-0.1,0.3-0.2,0.5c-0.1,0.2-0.1,0.4-0.2,0.5
			c0,0.1-0.1,0.3-0.2,0.5c-0.1,0.2-0.2,0.4-0.3,0.5c-0.1,0.1-0.2,0.3-0.3,0.4c-0.1,0.2-0.3,0.3-0.4,0.4c-0.2,0.1-0.3,0.2-0.5,0.2
			c-0.2,0.1-0.4,0.1-0.7,0.1c-0.8,0-1.5-0.3-2-0.9c-0.5-0.6-0.7-1.4-0.7-2.4c0-0.5,0-0.9,0.1-1.4c0.1-0.4,0.1-0.7,0.2-0.9l0.1-0.3
			c0.2,0,0.5,0,0.7,0.1c0.2,0.1,0.4,0.2,0.6,0.3c0,0.1,0,0.2-0.1,0.3c0,0.1-0.1,0.3-0.1,0.7c-0.1,0.3-0.1,0.7-0.1,1
			c0,1.2,0.4,1.9,1.2,1.9c0.1,0,0.2,0,0.3-0.1c0.1,0,0.2-0.1,0.3-0.2c0.1-0.1,0.1-0.2,0.2-0.3c0.1-0.1,0.1-0.2,0.2-0.4
			s0.1-0.3,0.2-0.4c0-0.1,0.1-0.3,0.2-0.5c0.1-0.2,0.1-0.4,0.2-0.5c0.1-0.2,0.2-0.4,0.2-0.6c0.1-0.2,0.2-0.3,0.3-0.5
			c0.1-0.2,0.2-0.3,0.4-0.5c0.1-0.1,0.3-0.3,0.5-0.4c0.2-0.1,0.4-0.2,0.6-0.2c0.2-0.1,0.5-0.1,0.8-0.1c0.9,0,1.6,0.3,2.1,0.9
			s0.7,1.4,0.7,2.5c0,0.5-0.1,1-0.2,1.5s-0.2,0.8-0.3,1L255.2,76.5z"/>
		<path class="st5" d="M255.7,68.6l-9.4-0.1l0.1-5.4c0.2-0.1,0.4-0.1,0.6-0.1c0.3,0,0.5,0,0.7,0.1l0,3.7l2.6,0l0-3.1
			c0.2-0.1,0.5-0.1,0.6-0.1c0.2,0,0.5,0.1,0.7,0.1l0,3.1l2.7,0l0-3.8c0.2-0.1,0.5-0.1,0.6-0.1c0.2,0,0.5,0.1,0.7,0.1L255.7,68.6z"/>
	</g>
	<g class="st3">
		<path d="M27,152.5c0-1.1,0.2-1.9,0.6-2.4s0.9-0.8,1.7-0.8c0.7,0,1.3,0.2,1.7,0.8c0.4,0.5,0.6,1.3,0.6,2.4s-0.2,1.9-0.6,2.4
			c-0.4,0.5-0.9,0.7-1.7,0.7c-0.7,0-1.3-0.2-1.7-0.7C27.2,154.4,27,153.6,27,152.5z M28.3,151.6c0,0.3,0,0.6,0,0.9
			c0,0.4,0,0.7,0,0.9s0.1,0.5,0.1,0.6c0.1,0.2,0.1,0.3,0.2,0.4c0.1,0.1,0.2,0.2,0.3,0.2c0.1,0,0.2,0.1,0.4,0.1c0.1,0,0.3,0,0.4-0.1
			c0.1,0,0.2-0.1,0.3-0.2c0.1-0.1,0.2-0.2,0.2-0.4s0.1-0.4,0.1-0.6s0-0.6,0-0.9c0-0.4,0-0.7,0-0.9c0-0.3-0.1-0.5-0.1-0.6
			c-0.1-0.2-0.1-0.3-0.2-0.4c-0.1-0.1-0.2-0.2-0.3-0.2c-0.1,0-0.2-0.1-0.4-0.1c-0.1,0-0.3,0-0.4,0.1c-0.1,0-0.2,0.1-0.3,0.2
			s-0.2,0.2-0.2,0.4C28.3,151.1,28.3,151.4,28.3,151.6z"/>
	</g>
	<g class="st3">
		<path d="M66.9,150.7c0.4-0.1,0.7-0.2,0.9-0.4c0.3-0.2,0.5-0.4,0.7-0.7c0.1-0.1,0.3-0.1,0.6-0.1c0.1,0,0.2,0,0.3,0
			c0.1,0,0.2,0,0.2,0l0.1,0v5.9c-0.1,0.1-0.3,0.1-0.6,0.1c-0.1,0-0.2,0-0.3,0s-0.2,0-0.2,0l-0.1,0v-3.4c0-0.4,0-0.8,0-1.1
			c-0.4,0.3-0.8,0.5-1.4,0.7c-0.1-0.1-0.2-0.2-0.2-0.4S66.8,150.9,66.9,150.7z"/>
		<path d="M70.9,152.5c0-1.1,0.2-1.9,0.6-2.4s0.9-0.8,1.7-0.8c0.7,0,1.3,0.2,1.7,0.8c0.4,0.5,0.6,1.3,0.6,2.4s-0.2,1.9-0.6,2.4
			c-0.4,0.5-0.9,0.7-1.7,0.7c-0.7,0-1.3-0.2-1.7-0.7C71.1,154.4,70.9,153.6,70.9,152.5z M72.1,151.6c0,0.3,0,0.6,0,0.9
			c0,0.4,0,0.7,0,0.9s0.1,0.5,0.1,0.6c0.1,0.2,0.1,0.3,0.2,0.4c0.1,0.1,0.2,0.2,0.3,0.2c0.1,0,0.2,0.1,0.4,0.1c0.1,0,0.3,0,0.4-0.1
			c0.1,0,0.2-0.1,0.3-0.2c0.1-0.1,0.2-0.2,0.2-0.4s0.1-0.4,0.1-0.6s0-0.6,0-0.9c0-0.4,0-0.7,0-0.9c0-0.3-0.1-0.5-0.1-0.6
			c-0.1-0.2-0.1-0.3-0.2-0.4c-0.1-0.1-0.2-0.2-0.3-0.2c-0.1,0-0.2-0.1-0.4-0.1c-0.1,0-0.3,0-0.4,0.1c-0.1,0-0.2,0.1-0.3,0.2
			s-0.2,0.2-0.2,0.4C72.2,151.1,72.2,151.4,72.1,151.6z"/>
	</g>
	<g class="st3">
		<path d="M107.1,155c0-0.3,0-0.6,0.1-0.9c0.1-0.3,0.2-0.5,0.4-0.7s0.4-0.4,0.5-0.5c0.1-0.1,0.3-0.2,0.6-0.4c0,0,0.1,0,0.1-0.1
			c0.3-0.2,0.5-0.4,0.6-0.5c0.1-0.1,0.2-0.2,0.3-0.4c0.1-0.1,0.1-0.3,0.1-0.5c0-0.3-0.1-0.5-0.3-0.6s-0.4-0.2-0.8-0.2
			c-0.2,0-0.4,0-0.6,0.1c-0.2,0-0.4,0.1-0.5,0.1l-0.2,0c-0.2-0.2-0.4-0.5-0.3-0.8c0.1,0,0.1-0.1,0.2-0.1s0.3-0.1,0.6-0.1
			c0.3-0.1,0.6-0.1,0.9-0.1c0.3,0,0.5,0,0.8,0.1s0.4,0.2,0.6,0.3c0.2,0.1,0.3,0.3,0.4,0.5c0.1,0.2,0.2,0.5,0.2,0.8
			c0,0.1,0,0.3,0,0.4c0,0.1,0,0.2-0.1,0.3c0,0.1-0.1,0.2-0.1,0.3c0,0.1-0.1,0.2-0.2,0.3c-0.1,0.1-0.2,0.2-0.2,0.2
			c-0.1,0.1-0.2,0.1-0.3,0.2c-0.1,0.1-0.2,0.2-0.3,0.2s-0.2,0.1-0.4,0.2c0,0-0.1,0.1-0.2,0.1s-0.2,0.1-0.3,0.2
			c-0.1,0-0.1,0.1-0.2,0.2c-0.1,0.1-0.2,0.1-0.2,0.2c0,0.1-0.1,0.1-0.1,0.2c0,0.1-0.1,0.2-0.1,0.3c0,0,0,0.1,0,0.1h2.6
			c0.1,0.1,0.1,0.3,0.1,0.5c0,0.2,0,0.3-0.1,0.5h-3.7C107.1,155.4,107.1,155.2,107.1,155z"/>
		<path d="M112,152.5c0-1.1,0.2-1.9,0.6-2.4s0.9-0.8,1.7-0.8c0.7,0,1.3,0.2,1.7,0.8c0.4,0.5,0.6,1.3,0.6,2.4s-0.2,1.9-0.6,2.4
			c-0.4,0.5-0.9,0.7-1.7,0.7c-0.7,0-1.3-0.2-1.7-0.7C112.2,154.4,112,153.6,112,152.5z M113.2,151.6c0,0.3,0,0.6,0,0.9
			c0,0.4,0,0.7,0,0.9s0.1,0.5,0.1,0.6c0.1,0.2,0.1,0.3,0.2,0.4c0.1,0.1,0.2,0.2,0.3,0.2c0.1,0,0.2,0.1,0.4,0.1c0.1,0,0.3,0,0.4-0.1
			c0.1,0,0.2-0.1,0.3-0.2c0.1-0.1,0.2-0.2,0.2-0.4s0.1-0.4,0.1-0.6s0-0.6,0-0.9c0-0.4,0-0.7,0-0.9c0-0.3-0.1-0.5-0.1-0.6
			c-0.1-0.2-0.1-0.3-0.2-0.4c-0.1-0.1-0.2-0.2-0.3-0.2c-0.1,0-0.2-0.1-0.4-0.1c-0.1,0-0.3,0-0.4,0.1c-0.1,0-0.2,0.1-0.3,0.2
			s-0.2,0.2-0.2,0.4C113.3,151.1,113.3,151.4,113.2,151.6z"/>
	</g>
	<g class="st3">
		<path d="M147.2,155.3c0-0.2,0-0.3,0.1-0.5c0.1-0.2,0.1-0.3,0.2-0.4c0.4,0.1,0.8,0.2,1.2,0.2c0.4,0,0.7-0.1,0.9-0.2
			c0.2-0.1,0.3-0.4,0.3-0.7c0-0.3-0.1-0.5-0.3-0.7c-0.2-0.1-0.4-0.2-0.8-0.2h-0.8c-0.1-0.3-0.1-0.6,0-0.9h0.8c0.6,0,0.9-0.3,0.9-0.8
			c0-0.3-0.1-0.5-0.3-0.6c-0.2-0.1-0.4-0.2-0.8-0.2c-0.2,0-0.4,0-0.6,0s-0.3,0.1-0.4,0.1l-0.1,0c-0.3-0.2-0.4-0.5-0.3-0.8
			c0,0,0.1-0.1,0.2-0.1c0.1,0,0.3-0.1,0.5-0.1c0.3-0.1,0.5-0.1,0.8-0.1c0.6,0,1.2,0.1,1.5,0.4c0.4,0.3,0.5,0.7,0.5,1.2
			c0,0.7-0.2,1.1-0.7,1.3c0.6,0.2,0.9,0.7,0.9,1.5c0,0.6-0.2,1-0.5,1.3s-0.9,0.4-1.7,0.4c-0.2,0-0.4,0-0.6,0c-0.2,0-0.3,0-0.5-0.1
			c-0.1,0-0.2-0.1-0.3-0.1C147.4,155.4,147.3,155.4,147.2,155.3L147.2,155.3z"/>
		<path d="M152,152.5c0-1.1,0.2-1.9,0.6-2.4s0.9-0.8,1.7-0.8c0.7,0,1.3,0.2,1.7,0.8c0.4,0.5,0.6,1.3,0.6,2.4s-0.2,1.9-0.6,2.4
			c-0.4,0.5-0.9,0.7-1.7,0.7c-0.7,0-1.3-0.2-1.7-0.7C152.2,154.4,152,153.6,152,152.5z M153.3,151.6c0,0.3,0,0.6,0,0.9
			c0,0.4,0,0.7,0,0.9s0.1,0.5,0.1,0.6c0.1,0.2,0.1,0.3,0.2,0.4c0.1,0.1,0.2,0.2,0.3,0.2c0.1,0,0.2,0.1,0.4,0.1c0.1,0,0.3,0,0.4-0.1
			c0.1,0,0.2-0.1,0.3-0.2c0.1-0.1,0.2-0.2,0.2-0.4s0.1-0.4,0.1-0.6s0-0.6,0-0.9c0-0.4,0-0.7,0-0.9c0-0.3-0.1-0.5-0.1-0.6
			c-0.1-0.2-0.1-0.3-0.2-0.4c-0.1-0.1-0.2-0.2-0.3-0.2c-0.1,0-0.2-0.1-0.4-0.1c-0.1,0-0.3,0-0.4,0.1c-0.1,0-0.2,0.1-0.3,0.2
			s-0.2,0.2-0.2,0.4C153.4,151.1,153.3,151.4,153.3,151.6z"/>
	</g>
	<g class="st3">
		<path d="M187.2,153.6c0-0.1,0-0.2,0-0.2c0-0.1,0-0.1,0-0.2l0,0l2.7-3.6c0.1-0.1,0.3-0.1,0.6-0.1c0.1,0,0.2,0,0.3,0
			c0.1,0,0.2,0,0.2,0l0.1,0v3.6h0.7c0.1,0.1,0.1,0.3,0.1,0.4c0,0.1,0,0.2,0,0.2c0,0.1,0,0.1,0,0.2l0,0H191v1.4
			c-0.1,0.1-0.3,0.1-0.5,0.1c-0.1,0-0.2,0-0.3,0c-0.1,0-0.2,0-0.2,0l-0.1,0v-1.4h-2.7C187.2,154,187.2,153.8,187.2,153.6z
			 M188.4,153.2h1.6V151L188.4,153.2z"/>
		<path d="M192.6,152.5c0-1.1,0.2-1.9,0.6-2.4c0.4-0.5,0.9-0.8,1.7-0.8c0.7,0,1.3,0.2,1.7,0.8c0.4,0.5,0.6,1.3,0.6,2.4
			s-0.2,1.9-0.6,2.4s-0.9,0.7-1.7,0.7c-0.7,0-1.3-0.2-1.7-0.7S192.6,153.6,192.6,152.5z M193.9,151.6c0,0.3,0,0.6,0,0.9
			c0,0.4,0,0.7,0,0.9c0,0.3,0.1,0.5,0.1,0.6c0.1,0.2,0.1,0.3,0.2,0.4c0.1,0.1,0.2,0.2,0.3,0.2c0.1,0,0.2,0.1,0.4,0.1
			c0.1,0,0.3,0,0.4-0.1s0.2-0.1,0.3-0.2c0.1-0.1,0.2-0.2,0.2-0.4s0.1-0.4,0.1-0.6s0-0.6,0-0.9c0-0.4,0-0.7,0-0.9
			c0-0.3-0.1-0.5-0.1-0.6c-0.1-0.2-0.1-0.3-0.2-0.4c-0.1-0.1-0.2-0.2-0.3-0.2c-0.1,0-0.2-0.1-0.4-0.1c-0.1,0-0.3,0-0.4,0.1
			c-0.1,0-0.2,0.1-0.3,0.2s-0.2,0.2-0.2,0.4C193.9,151.1,193.9,151.4,193.9,151.6z"/>
	</g>
	<g class="st3">
		<path d="M227.4,155.3c0-0.2,0-0.3,0.1-0.5c0-0.2,0.1-0.3,0.2-0.4c0,0,0.1,0,0.1,0.1c0.1,0,0.2,0,0.4,0.1s0.4,0.1,0.6,0.1
			c0.4,0,0.7-0.1,1-0.2c0.2-0.1,0.3-0.4,0.3-0.7c0-0.2,0-0.4-0.1-0.5c-0.1-0.1-0.1-0.2-0.3-0.3c-0.1-0.1-0.3-0.1-0.4-0.1
			s-0.4,0-0.6,0c-0.4,0-0.7,0-1,0v-3.3h3.3c0.1,0.2,0.1,0.3,0.1,0.5s0,0.3-0.1,0.5h-2.1v1.4c0.1,0,0.2,0,0.3,0
			c0.7,0,1.2,0.2,1.5,0.5s0.5,0.8,0.5,1.4c0,0.6-0.2,1.1-0.6,1.4s-1,0.5-1.7,0.5c-0.2,0-0.4,0-0.6,0c-0.2,0-0.3,0-0.4-0.1
			c-0.1,0-0.2-0.1-0.3-0.1C227.6,155.4,227.5,155.4,227.4,155.3L227.4,155.3z"/>
		<path d="M232.2,152.5c0-1.1,0.2-1.9,0.6-2.4c0.4-0.5,0.9-0.8,1.7-0.8c0.7,0,1.3,0.2,1.7,0.8c0.4,0.5,0.6,1.3,0.6,2.4
			s-0.2,1.9-0.6,2.4s-0.9,0.7-1.7,0.7c-0.7,0-1.3-0.2-1.7-0.7S232.2,153.6,232.2,152.5z M233.4,151.6c0,0.3,0,0.6,0,0.9
			c0,0.4,0,0.7,0,0.9s0.1,0.5,0.1,0.6c0.1,0.2,0.1,0.3,0.2,0.4s0.2,0.2,0.3,0.2s0.2,0.1,0.4,0.1c0.1,0,0.3,0,0.4-0.1
			s0.2-0.1,0.3-0.2c0.1-0.1,0.2-0.2,0.2-0.4c0.1-0.2,0.1-0.4,0.1-0.6c0-0.3,0-0.6,0-0.9c0-0.4,0-0.7,0-0.9c0-0.3-0.1-0.5-0.1-0.6
			c-0.1-0.2-0.1-0.3-0.2-0.4c-0.1-0.1-0.2-0.2-0.3-0.2c-0.1,0-0.2-0.1-0.4-0.1c-0.1,0-0.3,0-0.4,0.1c-0.1,0-0.2,0.1-0.3,0.2
			c-0.1,0.1-0.2,0.2-0.2,0.4S233.5,151.4,233.4,151.6z"/>
	</g>
	<g class="st3">
		<path d="M267.6,153.3c0-1.2,0.3-2.1,0.9-2.8s1.4-1,2.6-1c0.1,0.1,0.1,0.3,0.1,0.4s0,0.3-0.1,0.5c-0.6,0.1-1.1,0.2-1.4,0.5
			c-0.3,0.2-0.6,0.6-0.7,1.1c0.3-0.1,0.6-0.1,0.9-0.1c0.3,0,0.5,0,0.7,0.1s0.4,0.2,0.6,0.3c0.2,0.1,0.3,0.3,0.4,0.6
			c0.1,0.2,0.1,0.5,0.1,0.9c0,0.6-0.2,1.1-0.5,1.4c-0.4,0.3-0.9,0.5-1.5,0.5c-0.7,0-1.2-0.2-1.5-0.6
			C267.8,154.7,267.6,154.1,267.6,153.3z M268.7,153.3c0,1,0.3,1.5,0.9,1.5c0.3,0,0.5-0.1,0.7-0.3c0.2-0.2,0.2-0.4,0.2-0.8
			c0-0.7-0.3-1-0.9-1c-0.3,0-0.6,0-0.9,0.1C268.7,153,268.7,153.1,268.7,153.3z"/>
		<path d="M272.5,152.5c0-1.1,0.2-1.9,0.6-2.4c0.4-0.5,0.9-0.8,1.7-0.8c0.7,0,1.3,0.2,1.7,0.8c0.4,0.5,0.6,1.3,0.6,2.4
			s-0.2,1.9-0.6,2.4c-0.4,0.5-0.9,0.7-1.7,0.7c-0.7,0-1.3-0.2-1.7-0.7C272.7,154.4,272.5,153.6,272.5,152.5z M273.8,151.6
			c0,0.3,0,0.6,0,0.9c0,0.4,0,0.7,0,0.9c0,0.3,0.1,0.5,0.1,0.6s0.1,0.3,0.2,0.4s0.2,0.2,0.3,0.2s0.2,0.1,0.4,0.1
			c0.1,0,0.3,0,0.4-0.1c0.1,0,0.2-0.1,0.3-0.2c0.1-0.1,0.2-0.2,0.2-0.4s0.1-0.4,0.1-0.6s0-0.6,0-0.9c0-0.4,0-0.7,0-0.9
			c0-0.3-0.1-0.5-0.1-0.6c-0.1-0.2-0.1-0.3-0.2-0.4c-0.1-0.1-0.2-0.2-0.3-0.2c-0.1,0-0.2-0.1-0.4-0.1c-0.1,0-0.3,0-0.4,0.1
			c-0.1,0-0.2,0.1-0.3,0.2s-0.2,0.2-0.2,0.4S273.8,151.4,273.8,151.6z"/>
	</g>
	<g class="st3">
		<path d="M307.5,150c0-0.1,0-0.2,0-0.3c0-0.1,0-0.1,0-0.2l0-0.1h3.7c0.1,0.2,0.1,0.4,0.1,0.6c0,0.3-0.1,0.5-0.1,0.8
			c-0.1,0.3-0.2,0.5-0.3,0.7c-0.1,0.2-0.3,0.4-0.4,0.6c-0.2,0.2-0.3,0.4-0.5,0.7c-0.2,0.2-0.3,0.5-0.4,0.7c-0.1,0.2-0.2,0.5-0.3,0.9
			s-0.1,0.7-0.1,1.1c-0.2,0-0.3,0.1-0.5,0.1c-0.2,0-0.4,0-0.5-0.1c0-0.4,0-0.8,0.1-1.1c0.1-0.3,0.1-0.7,0.3-0.9s0.2-0.5,0.4-0.7
			c0.1-0.2,0.3-0.4,0.4-0.6c0.1-0.2,0.3-0.4,0.4-0.5s0.2-0.3,0.4-0.5c0.1-0.2,0.2-0.4,0.2-0.6h-2.6
			C307.6,150.4,307.5,150.2,307.5,150z"/>
		<path d="M312.2,152.5c0-1.1,0.2-1.9,0.6-2.4c0.4-0.5,0.9-0.8,1.7-0.8c0.7,0,1.3,0.2,1.7,0.8c0.4,0.5,0.6,1.3,0.6,2.4
			s-0.2,1.9-0.6,2.4c-0.4,0.5-0.9,0.7-1.7,0.7c-0.7,0-1.3-0.2-1.7-0.7C312.3,154.4,312.2,153.6,312.2,152.5z M313.4,151.6
			c0,0.3,0,0.6,0,0.9c0,0.4,0,0.7,0,0.9c0,0.3,0.1,0.5,0.1,0.6s0.1,0.3,0.2,0.4s0.2,0.2,0.3,0.2s0.2,0.1,0.4,0.1
			c0.1,0,0.3,0,0.4-0.1c0.1,0,0.2-0.1,0.3-0.2c0.1-0.1,0.2-0.2,0.2-0.4s0.1-0.4,0.1-0.6s0-0.6,0-0.9c0-0.4,0-0.7,0-0.9
			c0-0.3-0.1-0.5-0.1-0.6c-0.1-0.2-0.1-0.3-0.2-0.4c-0.1-0.1-0.2-0.2-0.3-0.2c-0.1,0-0.2-0.1-0.4-0.1c-0.1,0-0.3,0-0.4,0.1
			c-0.1,0-0.2,0.1-0.3,0.2s-0.2,0.2-0.2,0.4S313.4,151.4,313.4,151.6z"/>
	</g>
	<g class="st3">
		<path d="M347.8,154c0-0.6,0.4-1.2,1.1-1.5c-0.3-0.2-0.5-0.4-0.7-0.6s-0.2-0.5-0.2-0.9c0-0.5,0.2-0.9,0.5-1.2
			c0.3-0.3,0.8-0.4,1.4-0.4c0.6,0,1.1,0.1,1.4,0.4s0.5,0.6,0.5,1.1c0,0.6-0.3,1.1-0.8,1.4c0.3,0.2,0.6,0.4,0.8,0.6
			c0.2,0.3,0.3,0.6,0.3,1c0,0.6-0.2,1-0.6,1.3c-0.4,0.3-0.9,0.4-1.6,0.4c-0.7,0-1.2-0.1-1.5-0.4C348,154.9,347.8,154.5,347.8,154z
			 M348.8,154c0,0.3,0.1,0.5,0.3,0.6s0.5,0.2,0.8,0.2c0.3,0,0.5-0.1,0.7-0.2c0.2-0.1,0.3-0.3,0.3-0.6c0-0.1,0-0.1,0-0.2
			s0-0.1-0.1-0.2c0,0,0-0.1-0.1-0.1c0,0-0.1-0.1-0.1-0.1c0,0-0.1-0.1-0.2-0.1c-0.1,0-0.1-0.1-0.2-0.1c0,0-0.1-0.1-0.2-0.1
			s-0.2-0.1-0.2-0.1s-0.1,0-0.2-0.1c-0.1,0-0.2-0.1-0.2-0.1C349.1,153.1,348.8,153.5,348.8,154z M349.1,150.9c0,0.1,0,0.1,0,0.2
			c0,0.1,0.1,0.1,0.1,0.2c0,0.1,0.1,0.1,0.2,0.2c0.1,0.1,0.1,0.1,0.2,0.1s0.1,0.1,0.2,0.1c0.1,0.1,0.2,0.1,0.2,0.1s0.1,0.1,0.3,0.1
			c0.3-0.3,0.5-0.6,0.5-1c0-0.2-0.1-0.4-0.2-0.6c-0.1-0.1-0.4-0.2-0.6-0.2c-0.3,0-0.5,0.1-0.6,0.2S349.1,150.7,349.1,150.9z"/>
		<path d="M353,152.5c0-1.1,0.2-1.9,0.6-2.4c0.4-0.5,0.9-0.8,1.7-0.8c0.7,0,1.3,0.2,1.7,0.8c0.4,0.5,0.6,1.3,0.6,2.4
			s-0.2,1.9-0.6,2.4c-0.4,0.5-0.9,0.7-1.7,0.7c-0.7,0-1.3-0.2-1.7-0.7C353.2,154.4,353,153.6,353,152.5z M354.2,151.6
			c0,0.3,0,0.6,0,0.9c0,0.4,0,0.7,0,0.9c0,0.3,0.1,0.5,0.1,0.6s0.1,0.3,0.2,0.4s0.2,0.2,0.3,0.2s0.2,0.1,0.4,0.1
			c0.1,0,0.3,0,0.4-0.1c0.1,0,0.2-0.1,0.3-0.2c0.1-0.1,0.2-0.2,0.2-0.4s0.1-0.4,0.1-0.6s0-0.6,0-0.9c0-0.4,0-0.7,0-0.9
			c0-0.3-0.1-0.5-0.1-0.6c-0.1-0.2-0.1-0.3-0.2-0.4c-0.1-0.1-0.2-0.2-0.3-0.2c-0.1,0-0.2-0.1-0.4-0.1c-0.1,0-0.3,0-0.4,0.1
			c-0.1,0-0.2,0.1-0.3,0.2s-0.2,0.2-0.2,0.4S354.3,151.4,354.2,151.6z"/>
	</g>
	<line class="st6" x1="33" y1="0" x2="33" y2="143.1"/>
	<line class="st6" x1="150.8" y1="145.9" x2="150.8" y2="142.6"/>
	<line class="st6" x1="111.3" y1="145.9" x2="111.3" y2="142.6"/>
	<line class="st6" x1="231.6" y1="145.9" x2="231.6" y2="142.6"/>
	<line class="st6" x1="355.2" y1="145.9" x2="355.2" y2="142.6"/>
	<line class="st6" x1="312.9" y1="145.9" x2="312.9" y2="142.6"/>
	<line class="st6" x1="191.5" y1="145.9" x2="191.5" y2="142.6"/>
	<line class="st6" x1="273.9" y1="145.9" x2="273.9" y2="142.6"/>
	<line class="st6" x1="71.2" y1="145.9" x2="71.2" y2="142.6"/>
	<circle class="st7" cx="231" cy="41.5" r="4.2"/>
	<circle class="st7" cx="274.7" cy="65.2" r="4.2"/>
	<g class="st8">
		<g>
			<line class="st9" x1="231.3" y1="140.3" x2="231.3" y2="140.3"/>
			<line class="st10" x1="231.3" y1="130.1" x2="231.3" y2="53"/>
			<line class="st9" x1="231.3" y1="47.9" x2="231.3" y2="47.9"/>
		</g>
	</g>
	<g class="st8">
		<g>
			<line class="st9" x1="274.2" y1="140.3" x2="274.2" y2="140.3"/>
			<line class="st11" x1="274.2" y1="130.5" x2="274.2" y2="76.2"/>
			<line class="st9" x1="274.2" y1="71.3" x2="274.2" y2="71.3"/>
		</g>
	</g>
	<line class="st6" x1="355.2" y1="142.8" x2="32.8" y2="142.8"/>
</g>
</svg>
