<?xml version="1.0" encoding="utf-8"?>
<!-- Generator: Adobe Illustrator 22.1.0, SVG Export Plug-In . SVG Version: 6.00 Build 0)  -->
<svg version="1.1" id="Layer_2" xmlns="http://www.w3.org/2000/svg" xmlns:xlink="http://www.w3.org/1999/xlink" x="0px" y="0px"
	 viewBox="0 0 366 183.4" style="enable-background:new 0 0 366 183.4;" xml:space="preserve"><defs xmlns="http://www.w3.org/2000/svg"><style type="text/css"><![CDATA[@font-face {font-family: 'GloberBook';src: url('/assets/fonts/webfonts/316613_0_0.eot');src: url('/assets/fonts/webfonts/316613_0_0.eot?#iefix') format('embedded-opentype'),url('/assets/fonts/webfonts/316613_0_0.woff2') format('woff2'),url('/assets/fonts/webfonts/316613_0_0.woff') format('woff'),url('/assets/fonts/webfonts/316613_0_0.ttf') format('truetype');}@font-face {font-family: 'Glober';font-weight: bold;font-style: normal;src: url('/assets/fonts/webfonts/316613_1_0.eot');src: url('/assets/fonts/webfonts/316613_1_0.eot?#iefix') format('embedded-opentype'),url('/assets/fonts/webfonts/316613_1_0.woff2') format('woff2'),url('/assets/fonts/webfonts/316613_1_0.woff') format('woff'),url('/assets/fonts/webfonts/316613_1_0.ttf') format('truetype');}@font-face {font-family: 'Glober';font-weight: bold;font-style: italic;src: url('/assets/fonts/webfonts/316613_2_0.eot');src: url('/assets/fonts/webfonts/316613_2_0.eot?#iefix') format('embedded-opentype'),url('/assets/fonts/webfonts/316613_2_0.woff2') format('woff2'),url('/assets/fonts/webfonts/316613_2_0.woff') format('woff'),url('/assets/fonts/webfonts/316613_2_0.ttf') format('truetype');}@font-face {font-family: 'GloberBookItalic';src: url('/assets/fonts/webfonts/316613_3_0.eot');src: url('/assets/fonts/webfonts/316613_3_0.eot?#iefix') format('embedded-opentype'),url('/assets/fonts/webfonts/316613_3_0.woff2') format('woff2'),url('/assets/fonts/webfonts/316613_3_0.woff') format('woff'),url('/assets/fonts/webfonts/316613_3_0.ttf') format('truetype');}@font-face {font-family: 'Glober';font-weight: normal;font-style: normal;src: url('/assets/fonts/webfonts/316613_4_0.eot');src: url('/assets/fonts/webfonts/316613_4_0.eot?#iefix') format('embedded-opentype'),url('/assets/fonts/webfonts/316613_4_0.woff2') format('woff2'),url('/assets/fonts/webfonts/316613_4_0.woff') format('woff'),url('/assets/fonts/webfonts/316613_4_0.ttf') format('truetype');}@font-face {font-family: 'Glober';font-weight: normal;font-style: italic;src: url('/assets/fonts/webfonts/316613_5_0.eot');src: url('/assets/fonts/webfonts/316613_5_0.eot?#iefix') format('embedded-opentype'),url('/assets/fonts/webfonts/316613_5_0.woff2') format('woff2'),url('/assets/fonts/webfonts/316613_5_0.woff') format('woff'),url('/assets/fonts/webfonts/316613_5_0.ttf') format('truetype');}]]></style></defs>
<style type="text/css">
	.st0{fill:#41AD49;}
	.st1{fill:#08B5E5;}
	.st2{fill:#EC8922;}
	.st3{font-family:'Glober';font-weight: bold;}
	.st4{font-size:18px;}
	.st5{font-family:'Glober';font-weight: bold;}
	.st6{font-size:16px;}
	.st7{fill:#DF6000;}
	.st8{fill:#FFFFFF;}
	.st9{font-size:13px;}
	.st10{font-size:8.91px;}
	.st11{letter-spacing:12;}
	.st12{letter-spacing:18;}
	.st13{letter-spacing:8;}
	.st14{letter-spacing:7;}
	.st15{fill:none;stroke:#000000;stroke-width:0.5569;stroke-miterlimit:10;}
	.st16{fill:#FFFFFF;stroke:#00C3C8;stroke-width:1.1137;stroke-miterlimit:10;}
	.st17{opacity:0.41;}
	.st18{fill:none;stroke:#FFFFFF;stroke-width:6;stroke-linecap:round;stroke-linejoin:round;}
	.st19{fill:none;stroke:#FFFFFF;stroke-width:6;stroke-linecap:round;stroke-linejoin:round;stroke-dasharray:0,10.2712;}
	.st20{fill:none;stroke:#FFFFFF;stroke-width:6;stroke-linecap:round;stroke-linejoin:round;stroke-dasharray:0,9.8646;}
	.st21{fill:none;stroke:#000000;stroke-width:0.5569;stroke-linecap:round;stroke-linejoin:round;stroke-miterlimit:10;}
</style>
<path class="st0" d="M150.5,36.2c-14.4,3.4-21.5,7.3-27.8,12.8c-8.4,7.2-37.3,42.9-45.1,50.1c-7.8,7.2-44.5,44-44.5,44
	c0-0.2,53.3-0.2,117.5-0.2V36.2z"/>
<path class="st1" d="M354.9,93.4c-10.5-3.7-65.9-21-83.5-30.5c-13.5-7.2-42-27.4-80.7-30.4V143c77.6,0,156.9,0.1,164.3,0.2V93.4z"/>
<path class="st2" d="M150.5,142.9c13.4,0,27.3,0,41.2,0V32.4c-0.7-0.1-1.5-0.1-2.2-0.1c-15.7-0.9-28.7,1.1-39,3.9V142.9z"/>
<text transform="matrix(0 -1 1 0 15.4819 141.1666)" class="st3 st4">Bone Density</text>
<text transform="matrix(1 0 0 1 145.5068 178.9196)" class="st3 st4">Age (years)</text>
<text transform="matrix(1 0 0 1 52.5068 43.9196)" class="st0 st5 st6">Growth</text>
<text transform="matrix(1 0 0 1 154.5068 18.9196)" class="st7 st5 st6">Peak</text>
<text transform="matrix(1 0 0 1 240.5068 22.9196)"><tspan x="0" y="0" class="st1 st5 st6">Age-Related</tspan><tspan x="0" y="19.2" class="st1 st5 st6">       Bone Loss</tspan></text>
<text transform="matrix(1.220000e-02 -0.9999 0.9999 1.220000e-02 254.8725 137.4467)" class="st8 st5 st9">MENOPAUSE</text>
<text transform="matrix(1 0 0 1 26.5366 155.5533)"><tspan x="0" y="0" class="st5 st10">0</tspan><tspan x="5.5" y="0" class="st5 st10 st11">	</tspan><tspan x="20" y="0" class="st5 st10 st12">	</tspan><tspan x="40.1" y="0" class="st5 st10">10</tspan><tspan x="49.4" y="0" class="st5 st10 st13">	</tspan><tspan x="60.1" y="0" class="st5 st10 st12">	</tspan><tspan x="80.2" y="0" class="st5 st10">20</tspan><tspan x="90.5" y="0" class="st5 st10 st14">	</tspan><tspan x="100.2" y="0" class="st5 st10 st12">	</tspan><tspan x="120.3" y="0" class="st5 st10">30</tspan><tspan x="130.5" y="0" class="st5 st10 st14">	</tspan><tspan x="140.3" y="0" class="st5 st10 st12">	</tspan><tspan x="160.4" y="0" class="st5 st10">40</tspan><tspan x="171.1" y="0" class="st5 st10 st14">	</tspan><tspan x="180.4" y="0" class="st5 st10 st12">	</tspan><tspan x="200.5" y="0" class="st5 st10">50</tspan><tspan x="210.7" y="0" class="st5 st10 st14">	</tspan><tspan x="220.5" y="0" class="st5 st10 st12">	</tspan><tspan x="240.6" y="0" class="st5 st10">60</tspan><tspan x="251" y="0" class="st5 st10 st14">	</tspan><tspan x="260.6" y="0" class="st5 st10 st12">	</tspan><tspan x="280.7" y="0" class="st5 st10">70</tspan><tspan x="290.6" y="0" class="st5 st10 st13">	</tspan><tspan x="300.7" y="0" class="st5 st10 st12">	</tspan><tspan x="320.8" y="0" class="st5 st10">80</tspan></text>
<line class="st15" x1="33" y1="0" x2="33" y2="143.1"/>
<line class="st15" x1="150.8" y1="145.9" x2="150.8" y2="142.6"/>
<line class="st15" x1="111.3" y1="145.9" x2="111.3" y2="142.6"/>
<line class="st15" x1="231.6" y1="145.9" x2="231.6" y2="142.6"/>
<line class="st15" x1="355.2" y1="145.9" x2="355.2" y2="142.6"/>
<line class="st15" x1="312.9" y1="145.9" x2="312.9" y2="142.6"/>
<line class="st15" x1="191.5" y1="145.9" x2="191.5" y2="142.6"/>
<line class="st15" x1="273.9" y1="145.9" x2="273.9" y2="142.6"/>
<line class="st15" x1="71.2" y1="145.9" x2="71.2" y2="142.6"/>
<circle class="st16" cx="231" cy="41.5" r="4.2"/>
<circle class="st16" cx="274.7" cy="65.2" r="4.2"/>
<g class="st17">
	<g>
		<line class="st18" x1="231.3" y1="140.3" x2="231.3" y2="140.3"/>
		<line class="st19" x1="231.3" y1="130.1" x2="231.3" y2="53"/>
		<line class="st18" x1="231.3" y1="47.9" x2="231.3" y2="47.9"/>
	</g>
</g>
<g class="st17">
	<g>
		<line class="st18" x1="274.2" y1="140.3" x2="274.2" y2="140.3"/>
		<line class="st20" x1="274.2" y1="130.5" x2="274.2" y2="76.2"/>
		<line class="st18" x1="274.2" y1="71.3" x2="274.2" y2="71.3"/>
	</g>
</g>
<line class="st15" x1="355.2" y1="142.8" x2="32.8" y2="142.8"/>
<line class="st15" x1="354.9" y1="142.8" x2="365.5" y2="142.8"/>
<line class="st21" x1="364.1" y1="144.5" x2="365.8" y2="142.8"/>
<line class="st21" x1="364.1" y1="141.1" x2="365.8" y2="142.8"/>
</svg>
