<?xml version="1.0" encoding="utf-8"?>
<!-- Generator: Adobe Illustrator 23.0.1, SVG Export Plug-In . SVG Version: 6.00 Build 0)  -->
<svg version="1.1" id="Layer_1" xmlns="http://www.w3.org/2000/svg" xmlns:xlink="http://www.w3.org/1999/xlink" x="0px" y="0px"
	 viewBox="0 0 1922.7 1080.4" style="enable-background:new 0 0 1922.7 1080.4;" xml:space="preserve">
<style type="text/css">
	.st0{fill:#FFFFFF;}
	.st1{fill:none;stroke:#40AD4A;stroke-width:5;stroke-miterlimit:10;}
	.st2{fill:none;stroke:#999999;stroke-width:2.8281;stroke-miterlimit:10;}
	.st3{fill:#40AD4A;}
	.st4{fill:#DF6000;}
	.st5{fill:#007DA6;}
	.st6{fill:#006200;stroke:#00C300;stroke-width:1.6432;stroke-miterlimit:10;}
	.st7{fill:#006200;stroke:#00C300;stroke-width:1.3369;stroke-miterlimit:10;}
	.st8{fill:none;stroke:#00C300;stroke-width:6.1672;stroke-miterlimit:10;}
	.st9{fill:#006200;stroke:#00C300;stroke-width:0.7592;stroke-miterlimit:10;}
	.st10{fill:#006200;stroke:#00C300;stroke-width:2.0557;stroke-miterlimit:10;}
	.st11{fill:#006200;}
	.st12{fill:#00C902;}
	.st13{fill:#006000;}
	.st14{fill:none;stroke:#000000;stroke-width:11.2682;stroke-miterlimit:10;}
</style>
<g>
	<rect x="0" y="0.4" class="st0" width="1920" height="1080"/>
	<rect x="3.1" y="2.5" class="st1" width="1917.2" height="1074.1"/>
	<line class="st2" x1="1796.4" y1="870.4" x2="963.2" y2="870.4"/>
	<line class="st2" x1="1796.4" y1="599" x2="963.2" y2="599"/>
	<line class="st2" x1="1796.4" y1="692.9" x2="963.2" y2="692.9"/>
	<line class="st2" x1="1796.4" y1="498.5" x2="963.2" y2="498.5"/>
	<line class="st2" x1="1796.4" y1="401.9" x2="963.2" y2="401.9"/>
	<line class="st2" x1="1796.4" y1="311.4" x2="963.2" y2="311.4"/>
	<line class="st2" x1="1796.4" y1="219.1" x2="963.2" y2="219.1"/>
	<line class="st2" x1="1796.4" y1="122.5" x2="963.2" y2="122.5"/>
	<line class="st2" x1="1796.4" y1="781.7" x2="963.2" y2="781.7"/>
	<rect x="1435.9" y="251.6" class="st3" width="350.8" height="443.4"/>
	<rect x="970.9" y="691.3" class="st4" width="350.8" height="114.5"/>
	<path class="st0" d="M1595.3,361.1c0-3.1,0.4-5.9,1.2-8.4c0.8-2.5,2.2-4.7,4.2-6.7s3.6-3.5,4.8-4.5s3.3-2.4,6.1-4.2
		c0.3-0.2,0.6-0.4,0.7-0.5c2.8-1.9,4.8-3.4,6.1-4.6s2.3-2.4,3-3.8s1.1-2.9,1.1-4.8c0-2.6-0.9-4.5-2.7-5.7c-1.8-1.3-4.3-1.9-7.5-1.9
		c-1.8,0-3.7,0.2-5.6,0.5s-3.4,0.7-4.5,1.1l-1.5,0.5c-2.4-2-3.5-4.7-3.2-8c0.6-0.2,1.3-0.5,2.2-0.9s2.9-0.8,5.8-1.4s5.8-0.8,8.5-0.8
		c2.8,0,5.4,0.3,7.7,0.9c2.3,0.6,4.4,1.6,6.2,2.8c1.8,1.3,3.2,2.9,4.2,5.1c1,2.1,1.5,4.6,1.5,7.5c0,1.4-0.1,2.7-0.3,3.9
		c-0.2,1.2-0.5,2.3-0.9,3.4c-0.4,1-0.9,2-1.3,2.8s-1.1,1.7-2,2.5s-1.6,1.6-2.3,2.2c-0.6,0.6-1.6,1.3-2.9,2.2
		c-1.3,0.9-2.3,1.6-3.2,2.1c-0.8,0.5-2.1,1.3-3.7,2.3c-0.4,0.3-1.3,0.8-2.4,1.4c-1.2,0.7-2,1.2-2.6,1.6s-1.3,0.9-2.2,1.6
		c-0.9,0.7-1.6,1.3-2,1.9c-0.5,0.6-0.9,1.3-1.2,2.1c-0.4,0.8-0.5,1.6-0.5,2.5c0,0.3,0.1,0.8,0.2,1.3h25.5c0.7,1.3,1,2.9,1,4.8
		c0,1.8-0.4,3.4-1.1,5h-36.1C1595.5,365.1,1595.3,363.2,1595.3,361.1z"/>
	<path class="st0" d="M1553.7,341.5c0-0.8,0-1.5,0.1-2.2s0.2-1.2,0.3-1.6l0.2-0.5h12.1v-11.6c1-0.4,2.4-0.6,4-0.6
		c0.7,0,1.4,0,2.1,0.1s1.2,0.2,1.5,0.3l0.5,0.1v11.6h12.1c0.4,1.1,0.6,2.5,0.6,4.3c0,0.8,0,1.5-0.1,2.2s-0.2,1.2-0.3,1.6l-0.2,0.5
		h-12.1v11.6c-1,0.4-2.4,0.6-4,0.6c-0.7,0-1.4,0-2.1-0.1s-1.2-0.2-1.5-0.3l-0.5-0.1v-11.6h-12.1
		C1553.9,344.6,1553.7,343.2,1553.7,341.5z"/>
	<path class="st0" d="M1640.5,311.8c0-3,0.6-5.3,1.8-6.7s3-2.1,5.3-2.1s4.1,0.7,5.3,2.1c1.2,1.4,1.8,3.6,1.8,6.7s-0.6,5.3-1.8,6.7
		c-1.2,1.4-3,2.1-5.3,2.1s-4.1-0.7-5.3-2.1S1640.5,314.8,1640.5,311.8z M1645,311.8c0,2.1,0.2,3.5,0.6,4.2s1.1,1,2,1
		c0.6,0,1.1-0.1,1.4-0.4s0.6-0.8,0.8-1.5s0.3-1.9,0.3-3.3c0-2.1-0.2-3.5-0.6-4.2s-1.1-1.1-1.9-1.1c-0.9,0-1.6,0.4-2,1.1
		C1645.2,308.3,1645,309.7,1645,311.8z M1646.2,338.2l19.5-35.3c0.5-0.2,1.3-0.4,2.4-0.4c0.5,0,0.9,0,1.3,0.1s0.7,0.1,0.8,0.2
		l0.2,0.1l-19.5,35.3c-0.5,0.2-1.3,0.3-2.4,0.3c-0.5,0-0.9,0-1.3-0.1s-0.7-0.1-0.8-0.2H1646.2z M1661.6,329.7c0-3,0.6-5.2,1.8-6.7
		c1.2-1.4,3-2.1,5.3-2.1s4.1,0.7,5.3,2.1c1.2,1.4,1.8,3.6,1.8,6.7s-0.6,5.3-1.8,6.7c-1.2,1.4-3,2.1-5.3,2.1s-4.1-0.7-5.3-2.1
		S1661.6,332.8,1661.6,329.7z M1666.1,329.7c0,1.4,0.1,2.5,0.3,3.3c0.2,0.8,0.5,1.3,0.8,1.5s0.8,0.4,1.4,0.4s1.1-0.1,1.4-0.4
		c0.3-0.2,0.6-0.8,0.8-1.5c0.2-0.8,0.3-1.9,0.3-3.3s-0.1-2.5-0.3-3.3s-0.5-1.3-0.8-1.6c-0.3-0.3-0.8-0.4-1.4-0.4
		c-0.9,0-1.6,0.4-2,1.1S1666.1,327.7,1666.1,329.7z"/>
	<path class="st0" d="M1053.4,752.1c0-0.8,0-1.5,0.1-2.2s0.2-1.2,0.3-1.6l0.1-0.5h19.1c0.4,1.1,0.6,2.5,0.6,4.3c0,0.8,0,1.5-0.1,2.2
		s-0.2,1.2-0.3,1.6l-0.2,0.5h-19C1053.6,755.3,1053.4,753.9,1053.4,752.1z"/>
	<path class="st0" d="M1084,748.1c0-10.5,1.9-18.1,5.6-23.1c3.8-4.9,9.3-7.4,16.5-7.4s12.7,2.4,16.4,7.3s5.6,12.6,5.6,23.1
		s-1.9,18.2-5.6,23.1c-3.7,4.9-9.2,7.3-16.4,7.3c-7.3,0-12.8-2.4-16.5-7.3S1084,758.6,1084,748.1z M1096.2,739.2
		c-0.3,2.5-0.5,5.5-0.5,8.9c0,3.5,0.2,6.4,0.5,8.9s0.7,4.5,1.3,6.1c0.6,1.6,1.3,2.8,2.2,3.8c0.9,0.9,1.8,1.6,2.9,1.9
		c1,0.3,2.2,0.5,3.6,0.5s2.6-0.2,3.6-0.5c1-0.4,2-1,2.9-1.9s1.6-2.2,2.1-3.7c0.5-1.6,0.9-3.6,1.2-6.1c0.3-2.5,0.4-5.5,0.4-8.9
		c0-3.5-0.1-6.5-0.4-9s-0.7-4.5-1.2-6.1s-1.2-2.8-2.1-3.8s-1.8-1.5-2.9-1.9c-1-0.3-2.2-0.5-3.6-0.5s-2.6,0.2-3.6,0.5s-2,1-2.9,1.9
		s-1.6,2.2-2.2,3.8C1096.9,734.6,1096.5,736.6,1096.2,739.2z"/>
	<path class="st0" d="M1136.9,776.9v-10c1.1-0.5,2.9-0.7,5.5-0.7c1,0,2,0.1,2.9,0.2c0.9,0.1,1.6,0.2,2,0.3l0.6,0.2v10
		c-1.3,0.5-3.1,0.7-5.5,0.7c-1.1,0-2.1-0.1-3.1-0.2c-0.9-0.1-1.5-0.2-1.9-0.3L1136.9,776.9z"/>
	<path class="st0" d="M1157.5,755.2c0-11.9,2.9-20.9,8.6-26.9s14.1-9.3,25.1-10c0.6,1.3,0.8,2.7,0.8,4.3s-0.3,3.2-0.8,4.6
		c-6,0.7-10.6,2.2-14,4.6c-3.4,2.4-5.7,6-7,10.7c3.2-0.8,6.2-1.1,9-1.1c2.6,0,4.9,0.3,7,1s4,1.7,5.7,3.2c1.7,1.4,3,3.3,3.9,5.7
		s1.4,5.2,1.4,8.5c0,6.3-1.7,11-5.1,14c-3.4,3.1-8.3,4.6-14.7,4.6c-6.4,0-11.3-1.9-14.7-5.7C1159.2,769,1157.5,763.1,1157.5,755.2z
		 M1168.6,755.6c0,9.6,2.9,14.4,8.8,14.4c2.7,0,4.9-0.8,6.4-2.5s2.3-4.2,2.3-7.6c0-6.6-3-9.9-8.9-9.9c-2.7,0-5.5,0.5-8.5,1.4
		C1168.6,752.2,1168.6,753.6,1168.6,755.6z"/>
	<path class="st0" d="M1202.8,722.4c0-3,0.6-5.3,1.8-6.7s3-2.1,5.3-2.1s4.1,0.7,5.3,2.1c1.2,1.4,1.8,3.6,1.8,6.7s-0.6,5.3-1.8,6.7
		c-1.2,1.4-3,2.1-5.3,2.1s-4.1-0.7-5.3-2.1S1202.8,725.5,1202.8,722.4z M1207.3,722.4c0,2.1,0.2,3.5,0.6,4.2s1.1,1,2,1
		c0.6,0,1.1-0.1,1.4-0.4s0.6-0.8,0.8-1.5s0.3-1.9,0.3-3.3c0-2.1-0.2-3.5-0.6-4.2s-1.1-1.1-1.9-1.1c-0.9,0-1.6,0.4-2,1.1
		C1207.5,719,1207.3,720.4,1207.3,722.4z M1208.5,748.8l19.5-35.3c0.5-0.2,1.3-0.4,2.4-0.4c0.5,0,0.9,0,1.3,0.1s0.7,0.1,0.8,0.2
		l0.2,0.1l-19.5,35.3c-0.5,0.2-1.3,0.3-2.4,0.3c-0.5,0-0.9,0-1.3-0.1s-0.7-0.1-0.8-0.2L1208.5,748.8z M1224,740.4
		c0-3,0.6-5.2,1.8-6.7c1.2-1.4,3-2.1,5.3-2.1s4.1,0.7,5.3,2.1c1.2,1.4,1.8,3.6,1.8,6.7s-0.6,5.3-1.8,6.7c-1.2,1.4-3,2.1-5.3,2.1
		s-4.1-0.7-5.3-2.1S1224,743.5,1224,740.4z M1228.5,740.4c0,1.4,0.1,2.5,0.3,3.3c0.2,0.8,0.5,1.3,0.8,1.5s0.8,0.4,1.4,0.4
		s1.1-0.1,1.4-0.4c0.3-0.2,0.6-0.8,0.8-1.5c0.2-0.8,0.3-1.9,0.3-3.3c0-1.4-0.1-2.5-0.3-3.3s-0.5-1.3-0.8-1.6s-0.8-0.4-1.4-0.4
		c-0.9,0-1.6,0.4-2,1.1S1228.5,738.4,1228.5,740.4z"/>
	<path class="st3" d="M1432.9,949.5l14.3-41.9c1.3-0.4,2.9-0.6,4.7-0.6c0.9,0,1.7,0,2.4,0.1c0.8,0.1,1.3,0.2,1.7,0.3l0.5,0.1
		l14.3,41.9c-0.9,0.4-2.3,0.5-4.2,0.5c-0.8,0-1.4,0-2.1-0.1c-0.6-0.1-1-0.2-1.3-0.3l-0.3-0.1l-3.2-9.6h-16.3l-3.2,9.6
		c-0.9,0.4-2.1,0.5-3.7,0.5c-0.7,0-1.3,0-1.9-0.1s-1-0.2-1.3-0.3L1432.9,949.5z M1445.5,933.7h12.1l-4.1-12.1
		c-0.4-1.1-0.7-2.2-1-3.3s-0.5-1.9-0.6-2.5l-0.2-0.8h-0.2c-0.4,2-1,4.2-1.8,6.6L1445.5,933.7z"/>
	<path class="st3" d="M1475.8,949.5v-43.9c0.8-0.3,2-0.5,3.8-0.5c0.7,0,1.4,0,2,0.1s1.1,0.2,1.4,0.2l0.4,0.1v43.9
		c-0.9,0.3-2.1,0.5-3.8,0.5c-0.8,0-1.5,0-2.1-0.1s-1-0.2-1.3-0.2L1475.8,949.5z"/>
	<path class="st3" d="M1488.7,956.8c0-3.2,1.7-5.9,5.2-7.9c-1.1-0.9-1.7-2.1-1.7-3.5c0-2.3,1.1-4.5,3.4-6.7c-3.7-1.7-5.5-5-5.5-9.7
		c0-3.5,1-6.2,3.1-8.1s5.1-2.9,9-2.9c2.7,0,5,0.5,6.8,1.4l8.5-1.4c0.3,0.7,0.4,1.7,0.4,2.8c0,1.2-0.1,2.1-0.4,2.9l-4.6-0.6
		c0.9,1.6,1.3,3.5,1.3,5.9c0,3.5-1,6.2-3.1,8.1c-2,1.9-5,2.9-9,2.9c-1,0-1.7,0-2.2-0.1c-0.5,0.7-0.7,1.4-0.7,2.1
		c0,0.2,0,0.4,0.1,0.5c0.1,0.6,0.5,1.1,1.1,1.5s1.3,0.6,2.2,0.7c0.9,0.1,1.8,0.3,2.9,0.4s2.2,0.3,3.3,0.5s2.2,0.4,3.2,0.9
		c1,0.4,1.9,0.9,2.7,1.5c0.8,0.6,1.4,1.4,1.9,2.5s0.7,2.4,0.7,3.9c0,3.1-1.4,5.7-4.2,7.6s-6.6,2.9-11.4,2.9c-4.4,0-7.7-0.7-9.8-2.2
		C1489.7,961.3,1488.7,959.3,1488.7,956.8z M1495.7,955.2c0,1.3,0.5,2.4,1.5,3.2s2.6,1.2,4.7,1.2c2.8,0,4.8-0.4,6.2-1.2
		c1.4-0.8,2.1-1.9,2.1-3.2c0-0.7-0.2-1.3-0.7-1.8s-1.2-0.8-2.2-0.9c-1-0.2-2-0.3-2.9-0.5c-1-0.2-2.1-0.3-3.5-0.6
		c-1.3-0.2-2.4-0.4-3.3-0.7C1496.4,952.1,1495.7,953.6,1495.7,955.2z M1497.1,929c0,1.9,0.4,3.4,1.3,4.3c0.9,0.9,2.1,1.4,3.7,1.4
		s2.8-0.5,3.7-1.4c0.9-0.9,1.3-2.4,1.3-4.3c0-2-0.4-3.4-1.3-4.4s-2.1-1.4-3.7-1.4s-2.8,0.5-3.7,1.4
		C1497.5,925.5,1497.1,927,1497.1,929z"/>
	<path class="st3" d="M1521.1,940.2c0-3.3,1-5.7,2.9-7.2c2-1.5,4.8-2.3,8.6-2.3c2,0,4,0.1,5.9,0.3v-1.3c0-3.6-1.8-5.5-5.4-5.5
		c-1.2,0-2.4,0.1-3.6,0.4s-2.2,0.5-2.9,0.7l-1,0.4c-0.6-0.4-1.2-1.1-1.6-2.2c-0.2-0.5-0.4-1-0.4-1.5c-0.1-0.5-0.1-0.9-0.1-1.2
		l0.1-0.4c0.1-0.1,0.3-0.1,0.5-0.2c0.2-0.1,0.7-0.3,1.4-0.6c0.7-0.3,1.5-0.5,2.3-0.7s1.7-0.4,2.9-0.6s2.4-0.3,3.5-0.3
		c4.3,0,7.3,0.9,9.2,2.7s2.8,4.6,2.8,8.4v20.4c-0.6,0.3-1.5,0.5-2.9,0.5c-0.5,0-1.1,0-1.6-0.1s-0.9-0.2-1.1-0.2l-0.3-0.1l-1.1-3.2
		c-1.4,2.9-4.3,4.3-8.7,4.3c-2.9,0-5.1-0.9-6.7-2.6C1521.9,946.2,1521.1,943.7,1521.1,940.2z M1528.7,940.2c0,1.6,0.4,2.8,1.1,3.5
		s1.8,1.1,3.2,1.1c1,0,1.9-0.2,2.6-0.6c0.8-0.4,1.3-1,1.7-1.7c0.4-0.7,0.7-1.4,0.9-2.2c0.2-0.8,0.3-1.6,0.3-2.4V936
		c-2-0.2-3.6-0.2-5-0.2C1530.3,935.8,1528.7,937.2,1528.7,940.2z"/>
	<path class="st3" d="M1552.5,934.1c0-5.5,1.2-9.5,3.6-12.2c2.4-2.6,5.7-4,10-4c3.9,0,6.9,1,9,3.1c2.2,2.1,3.3,5.1,3.3,9.3
		c0,1.1-0.1,2.2-0.2,3.3c-0.1,1-0.2,1.8-0.3,2.3l-0.2,0.7h-17.6c0.3,2.9,1,4.9,2.2,6s3,1.7,5.2,1.7c1.2,0,2.4-0.1,3.5-0.4
		c1.1-0.2,2-0.5,2.5-0.7l0.8-0.4c0.6,0.6,1.2,1.4,1.6,2.4s0.7,1.9,0.7,3c-0.1,0.1-0.2,0.1-0.4,0.3c-0.2,0.1-0.6,0.3-1.3,0.6
		c-0.7,0.3-1.3,0.5-2.1,0.7c-0.7,0.2-1.7,0.4-2.8,0.6c-1.2,0.2-2.4,0.3-3.6,0.3c-4.8,0-8.3-1.4-10.6-4.1
		C1553.6,943.7,1552.5,939.6,1552.5,934.1z M1560.2,931.4h10.6c0.1-0.9,0.1-1.6,0.1-2c0-3.7-1.6-5.6-4.8-5.6
		C1562.6,923.8,1560.6,926.4,1560.2,931.4z"/>
	<path class="st3" d="M1588.4,945c-3.1-3.7-4.6-9.2-4.6-16.5c0-7.2,1.5-12.7,4.6-16.5c3.1-3.7,7.6-5.6,13.5-5.6c2,0,3.8,0.2,5.5,0.5
		s3,0.7,3.7,1l1.1,0.5c0,0.2,0,0.3,0,0.5c0,1.8-0.8,3.5-2.3,5.2c-2.3-0.8-4.7-1.3-7.2-1.3c-1.7,0-3.1,0.2-4.4,0.7s-2.4,1.3-3.4,2.4
		c-1,1.1-1.8,2.8-2.3,4.9c-0.5,2.1-0.8,4.7-0.8,7.7c0,2.4,0.2,4.5,0.5,6.4c0.4,1.8,0.9,3.3,1.5,4.4c0.6,1.1,1.4,2.1,2.3,2.8
		s1.9,1.2,3,1.5s2.2,0.4,3.6,0.4c1.3,0,2.5-0.1,3.8-0.3s2.3-0.4,3-0.6l1-0.3c1.5,1.4,2.3,3.3,2.3,5.8c-0.1,0.1-0.3,0.1-0.5,0.2
		c-0.2,0.1-0.7,0.2-1.4,0.5s-1.5,0.5-2.2,0.6c-0.8,0.2-1.8,0.3-3,0.5c-1.2,0.1-2.5,0.2-3.8,0.2C1596,950.6,1591.5,948.7,1588.4,945z
		"/>
	<path class="st3" d="M1616.5,940.2c0-3.3,1-5.7,2.9-7.2c2-1.5,4.8-2.3,8.6-2.3c2,0,4,0.1,5.9,0.3v-1.3c0-3.6-1.8-5.5-5.4-5.5
		c-1.2,0-2.4,0.1-3.6,0.4s-2.2,0.5-2.9,0.7l-1,0.4c-0.6-0.4-1.2-1.1-1.6-2.2c-0.2-0.5-0.4-1-0.4-1.5c-0.1-0.5-0.1-0.9-0.1-1.2
		l0.1-0.4c0.1-0.1,0.3-0.1,0.5-0.2c0.2-0.1,0.7-0.3,1.4-0.6c0.7-0.3,1.5-0.5,2.3-0.7s1.7-0.4,2.9-0.6s2.4-0.3,3.5-0.3
		c4.3,0,7.3,0.9,9.2,2.7s2.8,4.6,2.8,8.4v20.4c-0.6,0.3-1.5,0.5-2.9,0.5c-0.5,0-1.1,0-1.6-0.1s-0.9-0.2-1.1-0.2l-0.3-0.1l-1.1-3.2
		c-1.4,2.9-4.3,4.3-8.7,4.3c-2.9,0-5.1-0.9-6.7-2.6C1617.3,946.2,1616.5,943.7,1616.5,940.2z M1624.1,940.2c0,1.6,0.4,2.8,1.1,3.5
		s1.8,1.1,3.2,1.1c1,0,1.9-0.2,2.6-0.6c0.8-0.4,1.3-1,1.7-1.7c0.4-0.7,0.7-1.4,0.9-2.2c0.2-0.8,0.3-1.6,0.3-2.4V936
		c-2-0.2-3.6-0.2-5-0.2C1625.7,935.8,1624.1,937.2,1624.1,940.2z"/>
	<path class="st3" d="M1649.3,949.5v-43.9c0.8-0.3,2-0.5,3.8-0.5c0.7,0,1.4,0,2,0.1s1.1,0.2,1.4,0.2l0.4,0.1v43.9
		c-0.9,0.3-2.1,0.5-3.8,0.5c-0.8,0-1.5,0-2.1-0.1s-1-0.2-1.3-0.2L1649.3,949.5z"/>
	<path class="st3" d="M1678.6,950v-43h16.8c3.5,0,6.4,1.1,8.5,3.3s3.2,5.1,3.2,8.7c0,1.9-0.4,3.5-1.1,5c-0.8,1.5-1.8,2.7-3.2,3.6
		c1.9,0.9,3.3,2.2,4.4,3.9c1,1.7,1.5,3.7,1.5,6c0,3.8-1.2,6.8-3.5,9.1s-5.4,3.4-9.3,3.4H1678.6z M1686.2,925.1h7.5
		c1.9,0,3.3-0.6,4.2-1.7c1-1.1,1.4-2.6,1.4-4.4c0-1.9-0.5-3.4-1.4-4.5c-1-1.1-2.4-1.6-4.3-1.6h-7.5v12.2H1686.2z M1686.2,944.1h7.8
		c2.2,0,3.8-0.6,4.9-1.7s1.6-2.8,1.6-4.9c0-2.2-0.5-3.9-1.6-5s-2.7-1.6-4.9-1.6h-7.8V944.1z"/>
	<path class="st3" d="M1716.1,949.5v-41.9c1.3-0.4,2.8-0.6,4.6-0.6c0.7,0,1.4,0,2.2,0.1c0.8,0.1,1.3,0.2,1.8,0.3l0.6,0.1l5.4,10.9
		c2.7,5.6,4.4,9.5,5.1,11.7h0.3c0.7-2.2,1.5-4.3,2.4-6.2c2.2-4.4,4.8-9.9,7.7-16.4c1.7-0.4,3.3-0.6,4.9-0.6c0.9,0,1.7,0,2.5,0.1
		s1.4,0.2,1.9,0.3l0.6,0.1v41.9c-0.9,0.4-2.1,0.5-3.8,0.5c-0.7,0-1.4,0-2.1-0.1s-1.1-0.2-1.4-0.3l-0.4-0.1v-13.1c0-0.9,0-2.5,0-5
		s0-4.3,0-5.7c0-1.3,0-2.9,0.1-4.7s0.2-3.3,0.3-4.4h-0.3c-0.2,0.9-0.6,2-1.2,3.4s-1.1,2.5-1.5,3.5s-1.1,2.4-2.1,4.4
		c-0.9,2-1.5,3.2-1.8,3.9l-4.2,8.8c-0.6,0.2-1.3,0.3-2.2,0.3c-0.4,0-0.7,0-1.1-0.1s-0.5-0.1-0.7-0.2l-0.2-0.1
		c-0.3-0.6-1-1.9-1.9-3.9c-1-2-1.7-3.5-2.2-4.6c-1.3-2.6-2.2-4.5-2.8-5.7c-0.6-1.2-1.3-2.9-2.2-4.9c-0.9-2-1.5-3.6-1.7-4.8h-0.4
		c0.1,0.7,0.3,1.5,0.4,2.4c0.1,1,0.2,1.9,0.2,2.7s0.1,1.9,0.1,3.3c0,1.4,0,2.4,0,3.2c0,0.4,0,0.9,0,1.5s0,1.3,0,2.1
		c0,1.6,0,2.7,0,3.2v14.6c-0.8,0.4-2,0.5-3.6,0.5c-0.6,0-1.2,0-1.8-0.1c-0.6-0.1-1-0.2-1.2-0.3L1716.1,949.5z"/>
	<path class="st3" d="M1765.8,950v-43h14c11.7,0,17.6,7.2,17.6,21.5s-5.9,21.5-17.6,21.5H1765.8z M1773.5,943.7h5.9
		c1.2,0,2.3-0.1,3.3-0.4c0.9-0.2,1.9-0.7,2.7-1.4c0.9-0.7,1.6-1.5,2.2-2.7c0.6-1.1,1-2.6,1.3-4.4c0.3-1.8,0.5-4,0.5-6.4
		c0-2.5-0.2-4.6-0.5-6.4c-0.3-1.8-0.8-3.3-1.3-4.4c-0.6-1.1-1.3-2-2.2-2.7c-0.9-0.7-1.8-1.1-2.7-1.3c-0.9-0.2-2-0.4-3.3-0.4h-5.9
		V943.7z"/>
	<path class="st4" d="M969.6,948.7v-43h24.7c0.4,1,0.6,2,0.6,2.9c0,1.2-0.2,2.3-0.6,3.3h-17V924h14c0.4,1.1,0.6,2.1,0.6,3
		c0,1.1-0.2,2.1-0.6,3.2h-14v12.5h17.6c0.4,1.1,0.6,2.1,0.6,3c0,1.1-0.2,2.2-0.6,3.2h-25.3V948.7z"/>
	<path class="st4" d="M998.4,948.2l10.3-15.6l-9.5-14.9c1-0.3,2.3-0.5,4.1-0.5c0.8,0,1.6,0,2.3,0.1s1.2,0.2,1.5,0.2l0.4,0.1l5.9,9.3
		l6-9.3c0.9-0.3,2.1-0.5,3.6-0.5c0.7,0,1.4,0,2.1,0.1s1.1,0.2,1.4,0.2l0.4,0.1l-9.5,14.4l10.3,16.1c-1,0.3-2.3,0.5-4.1,0.5
		c-0.8,0-1.6,0-2.3-0.1s-1.2-0.2-1.4-0.2l-0.4-0.1l-6.7-10.5l-6.9,10.5c-0.9,0.3-2.1,0.5-3.6,0.5c-0.7,0-1.4,0-2.1-0.1
		c-0.7-0.1-1.1-0.2-1.4-0.2L998.4,948.2z"/>
	<path class="st4" d="M1032.2,961.6v-43.8c0.8-0.3,2-0.5,3.7-0.5c0.7,0,1.4,0,2.1,0.1s1.1,0.2,1.4,0.2l0.4,0.1v2.1
		c1.7-2.1,4.4-3.1,8.1-3.1c1.7,0,3.2,0.3,4.5,0.8c1.3,0.6,2.4,1.5,3.4,2.7s1.7,2.9,2.2,5.1c0.5,2.1,0.8,4.7,0.8,7.6
		c0,3-0.3,5.5-0.8,7.7c-0.5,2.1-1.3,3.8-2.2,5.1c-1,1.2-2.1,2.2-3.4,2.7c-1.3,0.6-2.8,0.8-4.5,0.8c-3.7,0-6.4-1-8.1-3.1v15.4
		c-0.9,0.3-2.1,0.5-3.8,0.5c-0.7,0-1.4,0-2-0.1s-1-0.2-1.3-0.2L1032.2,961.6z M1039.7,936.7c0,1.9,0.5,3.4,1.5,4.6
		c1,1.2,2.3,1.8,3.9,1.8c1,0,1.9-0.1,2.5-0.4s1.3-0.8,1.8-1.5s0.9-1.8,1.2-3.1c0.3-1.4,0.4-3.1,0.4-5.1s-0.1-3.7-0.4-5.1
		c-0.3-1.4-0.7-2.4-1.2-3.1c-0.5-0.7-1.2-1.2-1.8-1.5c-0.7-0.3-1.5-0.4-2.5-0.4c-1.7,0-3,0.6-3.9,1.8c-1,1.2-1.5,2.7-1.5,4.6V936.7z
		"/>
	<path class="st4" d="M1064.2,932.8c0-5.5,1.2-9.5,3.6-12.2c2.4-2.6,5.7-4,10-4c3.9,0,6.9,1,9,3.1c2.2,2.1,3.3,5.1,3.3,9.3
		c0,1.1-0.1,2.2-0.2,3.3c-0.1,1-0.2,1.8-0.3,2.3l-0.2,0.7h-17.6c0.3,2.9,1,4.9,2.2,6s3,1.7,5.2,1.7c1.2,0,2.4-0.1,3.5-0.4
		c1.1-0.2,2-0.5,2.5-0.7l0.8-0.4c0.6,0.6,1.2,1.4,1.6,2.4s0.7,1.9,0.7,3c-0.1,0.1-0.2,0.1-0.4,0.3c-0.2,0.1-0.6,0.3-1.3,0.6
		c-0.7,0.3-1.3,0.5-2.1,0.7c-0.7,0.2-1.7,0.4-2.8,0.6c-1.2,0.2-2.4,0.3-3.6,0.3c-4.8,0-8.3-1.4-10.6-4.1
		C1065.3,942.4,1064.2,938.3,1064.2,932.8z M1071.9,930.1h10.6c0.1-0.9,0.1-1.6,0.1-2c0-3.7-1.6-5.6-4.8-5.6
		C1074.3,922.5,1072.3,925,1071.9,930.1z"/>
	<path class="st4" d="M1095,933c0-10.9,4.5-16.3,13.4-16.3c1.8,0,3.4,0.1,4.8,0.4c1.4,0.2,2.3,0.5,2.8,0.7l0.7,0.4c0,1-0.2,2-0.6,3
		s-0.9,1.8-1.5,2.4c-1.4-0.5-3-0.8-5-0.8c-2.5,0-4.3,0.8-5.4,2.4s-1.6,4.2-1.6,7.8c0,3.5,0.6,6.1,1.7,7.6c1.1,1.6,3,2.3,5.5,2.3
		c0.9,0,1.8-0.1,2.7-0.2s1.6-0.3,2-0.4l0.7-0.2c0.6,0.6,1.1,1.3,1.5,2.3s0.6,2,0.6,3c-0.2,0.1-0.5,0.3-0.9,0.5s-1.4,0.5-2.9,0.8
		s-3.3,0.5-5.1,0.5C1099.4,949.3,1095,943.8,1095,933z"/>
	<path class="st4" d="M1120.1,920.2c0-0.6,0-1.1,0.1-1.6s0.1-0.8,0.2-1l0.1-0.3h4.5v-4.9c1.7-1,3.8-1.5,6.1-1.5c0.5,0,0.9,0,1.4,0.1
		v6.3h7.1c0.3,0.7,0.4,1.7,0.4,2.9c0,0.5,0,1-0.1,1.5s-0.1,0.9-0.2,1.1l-0.1,0.4h-7.1V937c0,2.4,0.4,4,1.3,4.8s2.3,1.3,4.4,1.3
		l2.1-0.2c0.4,0.9,0.6,1.9,0.6,3.1c0,0.5,0,0.9-0.1,1.4s-0.2,0.8-0.2,1l-0.1,0.3c-1.2,0.4-2.7,0.5-4.4,0.5c-3.8,0-6.5-1-8.3-2.9
		s-2.7-4.9-2.7-8.8v-14.4h-4.5C1120.3,922.4,1120.1,921.4,1120.1,920.2z"/>
	<path class="st4" d="M1144.8,932.8c0-5.5,1.2-9.5,3.6-12.2c2.4-2.6,5.7-4,10-4c3.9,0,6.9,1,9,3.1c2.2,2.1,3.3,5.1,3.3,9.3
		c0,1.1-0.1,2.2-0.2,3.3c-0.1,1-0.2,1.8-0.3,2.3l-0.2,0.7h-17.6c0.3,2.9,1,4.9,2.2,6s3,1.7,5.2,1.7c1.2,0,2.4-0.1,3.5-0.4
		c1.1-0.2,2-0.5,2.5-0.7l0.8-0.4c0.6,0.6,1.2,1.4,1.6,2.4s0.7,1.9,0.7,3c-0.1,0.1-0.2,0.1-0.4,0.3c-0.2,0.1-0.6,0.3-1.3,0.6
		c-0.7,0.3-1.3,0.5-2.1,0.7c-0.7,0.2-1.7,0.4-2.8,0.6c-1.2,0.2-2.4,0.3-3.6,0.3c-4.8,0-8.3-1.4-10.6-4.1
		C1145.9,942.4,1144.8,938.3,1144.8,932.8z M1152.5,930.1h10.6c0.1-0.9,0.1-1.6,0.1-2c0-3.7-1.6-5.6-4.8-5.6
		C1154.9,922.5,1153,925,1152.5,930.1z"/>
	<path class="st4" d="M1176.5,940.6c-0.5-2.1-0.8-4.7-0.8-7.7s0.3-5.5,0.8-7.6s1.3-3.8,2.2-5.1c1-1.2,2.1-2.2,3.4-2.7
		c1.3-0.6,2.8-0.8,4.5-0.8c3.6,0,6.3,1.1,8.1,3.2v-15.4c0.9-0.3,2.1-0.5,3.8-0.5c0.7,0,1.4,0,2,0.1s1.1,0.2,1.3,0.2l0.3,0.1v43.8
		c-0.9,0.3-2,0.5-3.2,0.5c-0.6,0-1.1,0-1.7-0.1s-1-0.2-1.3-0.2l-0.4-0.1l-0.5-2.6c-1.7,2.4-4.6,3.7-8.5,3.7c-1.7,0-3.2-0.3-4.5-0.8
		c-1.3-0.6-2.4-1.5-3.4-2.7C1177.7,944.4,1177,942.7,1176.5,940.6z M1183.3,932.9c0,2,0.1,3.8,0.4,5.1c0.3,1.4,0.7,2.4,1.2,3.1
		s1.2,1.2,1.8,1.5c0.7,0.3,1.5,0.4,2.5,0.4c1.7,0,3-0.6,3.9-1.8c1-1.2,1.5-2.7,1.5-4.6V929c-0.1-1.8-0.6-3.3-1.5-4.5
		c-1-1.1-2.3-1.7-3.9-1.7c-0.8,0-1.5,0.1-2.1,0.2s-1.1,0.5-1.7,0.9c-0.5,0.4-0.9,1-1.3,1.8c-0.3,0.8-0.6,1.7-0.7,2.9
		C1183.4,929.9,1183.3,931.3,1183.3,932.9z"/>
	<path class="st4" d="M1224,948.7v-43h16.8c3.5,0,6.4,1.1,8.5,3.3s3.2,5.1,3.2,8.7c0,1.9-0.4,3.5-1.1,5c-0.8,1.5-1.8,2.7-3.2,3.6
		c1.9,0.9,3.3,2.2,4.4,3.9c1,1.7,1.5,3.7,1.5,6c0,3.8-1.2,6.8-3.5,9.1s-5.4,3.4-9.3,3.4H1224z M1231.6,923.8h7.5
		c1.9,0,3.3-0.6,4.2-1.7c1-1.1,1.4-2.6,1.4-4.4c0-1.9-0.5-3.4-1.4-4.5c-1-1.1-2.4-1.6-4.3-1.6h-7.5v12.2H1231.6z M1231.6,942.8h7.8
		c2.2,0,3.8-0.6,4.9-1.7s1.6-2.8,1.6-4.9c0-2.2-0.5-3.9-1.6-5s-2.7-1.6-4.9-1.6h-7.8V942.8z"/>
	<path class="st4" d="M1261.5,948.2v-41.9c1.3-0.4,2.8-0.6,4.6-0.6c0.7,0,1.4,0,2.2,0.1c0.8,0.1,1.3,0.2,1.8,0.3l0.6,0.1l5.4,10.9
		c2.7,5.6,4.4,9.5,5.1,11.7h0.3c0.7-2.2,1.5-4.3,2.4-6.2c2.2-4.4,4.8-9.9,7.7-16.4c1.7-0.4,3.3-0.6,4.9-0.6c0.9,0,1.7,0,2.5,0.1
		s1.4,0.2,1.9,0.3l0.6,0.1V948c-0.9,0.4-2.1,0.5-3.8,0.5c-0.7,0-1.4,0-2.1-0.1s-1.1-0.2-1.4-0.3l-0.4-0.1v-13.1c0-0.9,0-2.5,0-5
		s0-4.3,0-5.7c0-1.3,0-2.9,0.1-4.7s0.2-3.3,0.3-4.4h-0.3c-0.2,0.9-0.6,2-1.2,3.4s-1.1,2.5-1.5,3.5s-1.1,2.4-2.1,4.4
		c-0.9,2-1.5,3.2-1.8,3.9l-4.2,8.8c-0.6,0.2-1.3,0.3-2.2,0.3c-0.4,0-0.7,0-1.1-0.1s-0.5-0.1-0.7-0.2l-0.2-0.1
		c-0.3-0.6-1-1.9-1.9-3.9c-1-2-1.7-3.5-2.2-4.6c-1.3-2.6-2.2-4.5-2.8-5.7c-0.6-1.2-1.3-2.9-2.2-4.9c-0.9-2-1.5-3.6-1.7-4.8h-0.4
		c0.1,0.7,0.3,1.5,0.4,2.4c0.1,1,0.2,1.9,0.2,2.7s0.1,1.9,0.1,3.3c0,1.4,0,2.4,0,3.2c0,0.4,0,0.9,0,1.5s0,1.3,0,2.1
		c0,1.6,0,2.7,0,3.2v14.6c-0.8,0.4-2,0.5-3.6,0.5c-0.6,0-1.2,0-1.8-0.1c-0.6-0.1-1-0.2-1.2-0.3L1261.5,948.2z"/>
	<path class="st4" d="M1311.2,948.7v-43h14c11.7,0,17.6,7.2,17.6,21.5s-5.9,21.5-17.6,21.5H1311.2z M1318.9,942.3h5.9
		c1.2,0,2.3-0.1,3.3-0.4c0.9-0.2,1.9-0.7,2.7-1.4c0.9-0.7,1.6-1.5,2.2-2.7c0.6-1.1,1-2.6,1.3-4.4c0.3-1.8,0.5-4,0.5-6.4
		c0-2.5-0.2-4.6-0.5-6.4c-0.3-1.8-0.8-3.3-1.3-4.4c-0.6-1.1-1.3-2-2.2-2.7c-0.9-0.7-1.8-1.1-2.7-1.3c-0.9-0.2-2-0.4-3.3-0.4h-5.9
		V942.3z"/>
	<path d="M444.7,958.4v-38.9h14.7c3.7,0,6.6,1.1,8.8,3.4c2.2,2.3,3.3,5.2,3.3,8.9s-1.1,6.6-3.3,8.9c-2.2,2.3-5.2,3.4-8.9,3.4h-7.7
		v14.3c-0.8,0.3-1.9,0.5-3.4,0.5c-0.8,0-1.4,0-2-0.1s-1-0.2-1.2-0.3L444.7,958.4z M451.7,938.3h6.7c1.9,0,3.3-0.6,4.3-1.7
		c1-1.1,1.5-2.7,1.5-4.8s-0.5-3.7-1.5-4.8s-2.4-1.7-4.3-1.7h-6.7V938.3z"/>
	<path d="M474.6,950c0-3,0.9-5.2,2.7-6.6c1.8-1.4,4.4-2.1,7.9-2.1c1.9,0,3.7,0.1,5.4,0.3v-1.2c0-3.3-1.7-5-4.9-5
		c-1.1,0-2.2,0.1-3.3,0.3c-1.2,0.2-2.1,0.4-2.7,0.7l-0.9,0.3c-0.6-0.4-1.1-1-1.5-2c-0.2-0.4-0.3-0.9-0.4-1.4s-0.1-0.9-0.1-1.1
		l0.1-0.4c0.1-0.1,0.3-0.1,0.5-0.2c0.2-0.1,0.6-0.3,1.3-0.5c0.7-0.3,1.4-0.5,2.1-0.7s1.6-0.4,2.7-0.5c1.1-0.2,2.2-0.2,3.2-0.2
		c3.9,0,6.7,0.8,8.4,2.5c1.7,1.6,2.5,4.2,2.5,7.7v18.7c-0.5,0.3-1.4,0.4-2.7,0.4c-0.5,0-1,0-1.4-0.1s-0.8-0.1-1-0.2l-0.3-0.1l-1-3
		c-1.3,2.6-4,3.9-8,3.9c-2.6,0-4.7-0.8-6.2-2.4C475.3,955.4,474.6,953.1,474.6,950z M481.6,949.9c0,1.5,0.3,2.5,1,3.2s1.6,1,2.9,1
		c0.9,0,1.7-0.2,2.4-0.6c0.7-0.4,1.2-0.9,1.6-1.5s0.6-1.3,0.8-2c0.2-0.7,0.3-1.4,0.3-2.2v-1.6c-1.8-0.1-3.3-0.2-4.5-0.2
		C483.1,945.9,481.6,947.2,481.6,949.9z"/>
	<path d="M504.4,958.4v-27.9c0.7-0.3,1.8-0.4,3.4-0.4c0.7,0,1.3,0,1.9,0.1s1,0.1,1.2,0.2l0.3,0.1v3.1c2-2.7,4-4,6.1-4
		c1.7,0,3.4,0.5,4.8,1.4c-0.2,2.3-1.2,4.2-3,5.8c-1-0.8-2-1.2-3.2-1.2c-1.8,0-3.4,0.9-4.7,2.8v20c-0.8,0.3-1.9,0.4-3.4,0.4
		c-0.7,0-1.4,0-1.9-0.1c-0.6-0.1-1-0.1-1.2-0.2L504.4,958.4z"/>
	<path d="M523.6,932.8c0-0.5,0-1,0.1-1.5s0.1-0.8,0.2-1l0.1-0.3h4.2v-4.5c1.6-0.9,3.4-1.4,5.6-1.4c0.4,0,0.9,0,1.3,0.1v5.8h6.5
		c0.2,0.7,0.4,1.5,0.4,2.7c0,0.5,0,0.9-0.1,1.4s-0.1,0.8-0.2,1l-0.1,0.3H535v12.7c0,2.2,0.4,3.6,1.2,4.4c0.8,0.8,2.1,1.1,4,1.1
		l1.9-0.2c0.3,0.8,0.5,1.8,0.5,2.8c0,0.4,0,0.9-0.1,1.3c-0.1,0.4-0.1,0.7-0.2,0.9l-0.1,0.3c-1.1,0.3-2.5,0.5-4,0.5
		c-3.5,0-6-0.9-7.6-2.7s-2.4-4.5-2.4-8.1v-13.2H524C523.7,934.8,523.6,933.9,523.6,932.8z"/>
	<path d="M547.4,925.3V919c0.7-0.3,1.8-0.4,3.4-0.4c0.7,0,1.3,0,1.9,0.1c0.6,0.1,1,0.1,1.2,0.2l0.3,0.1v6.3
		c-0.8,0.3-1.9,0.4-3.4,0.4c-0.7,0-1.4,0-1.9-0.1c-0.6-0.1-1-0.1-1.2-0.2L547.4,925.3z M547.4,958.4v-27.9c0.7-0.3,1.8-0.4,3.4-0.4
		c0.7,0,1.3,0,1.9,0.1c0.6,0.1,1,0.1,1.2,0.2l0.3,0.1v27.9c-0.8,0.3-1.9,0.4-3.4,0.4c-0.7,0-1.4,0-1.9-0.1c-0.6-0.1-1-0.1-1.2-0.2
		L547.4,958.4z"/>
	<path d="M560.4,944.5c0-9.9,4.1-14.9,12.2-14.9c1.7,0,3.1,0.1,4.4,0.3c1.3,0.2,2.1,0.4,2.6,0.7l0.7,0.4c0,0.9-0.2,1.9-0.5,2.8
		c-0.3,0.9-0.8,1.6-1.4,2.2c-1.2-0.5-2.8-0.7-4.6-0.7c-2.3,0-4,0.7-4.9,2.2c-1,1.5-1.5,3.8-1.5,7.1c0,3.2,0.5,5.5,1.6,7
		c1,1.4,2.7,2.1,5.1,2.1c0.8,0,1.6-0.1,2.5-0.2c0.8-0.1,1.4-0.2,1.8-0.4l0.6-0.2c0.6,0.5,1,1.2,1.4,2.1c0.3,0.9,0.5,1.8,0.6,2.7
		c-0.2,0.1-0.4,0.3-0.8,0.5c-0.4,0.2-1.3,0.4-2.7,0.7s-3,0.5-4.7,0.5C564.4,959.4,560.4,954.4,560.4,944.5z"/>
	<path d="M586,925.3V919c0.7-0.3,1.8-0.4,3.4-0.4c0.7,0,1.3,0,1.9,0.1c0.6,0.1,1,0.1,1.2,0.2l0.3,0.1v6.3c-0.8,0.3-1.9,0.4-3.4,0.4
		c-0.7,0-1.4,0-1.9-0.1c-0.6-0.1-1-0.1-1.2-0.2L586,925.3z M586,958.4v-27.9c0.7-0.3,1.8-0.4,3.4-0.4c0.7,0,1.3,0,1.9,0.1
		c0.6,0.1,1,0.1,1.2,0.2l0.3,0.1v27.9c-0.8,0.3-1.9,0.4-3.4,0.4c-0.7,0-1.4,0-1.9-0.1c-0.6-0.1-1-0.1-1.2-0.2L586,958.4z"/>
	<path d="M600.2,970.7v-40.1c0.7-0.3,1.9-0.4,3.4-0.4c0.7,0,1.3,0,1.9,0.1c0.6,0.1,1,0.1,1.3,0.2l0.3,0.1v1.9c1.5-1.9,4-2.9,7.4-2.9
		c1.6,0,2.9,0.3,4.1,0.8s2.2,1.3,3.1,2.5c0.9,1.1,1.6,2.7,2,4.6c0.5,2,0.7,4.3,0.7,7s-0.2,5-0.7,7s-1.1,3.5-2,4.7
		c-0.9,1.1-1.9,2-3.1,2.5s-2.6,0.8-4.1,0.8c-3.4,0-5.9-1-7.4-2.9v14.1c-0.8,0.3-2,0.5-3.5,0.5c-0.7,0-1.3,0-1.9-0.1
		c-0.6-0.1-1-0.2-1.2-0.2L600.2,970.7z M607,947.9c0,1.7,0.4,3.1,1.3,4.2s2.1,1.6,3.6,1.6c0.9,0,1.7-0.1,2.3-0.4
		c0.6-0.3,1.2-0.7,1.7-1.4s0.9-1.6,1.1-2.9c0.2-1.2,0.3-2.8,0.3-4.7s-0.1-3.4-0.3-4.7c-0.2-1.2-0.6-2.2-1.1-2.8
		c-0.5-0.7-1.1-1.1-1.7-1.4c-0.6-0.3-1.4-0.4-2.3-0.4c-1.5,0-2.7,0.5-3.6,1.6s-1.3,2.5-1.3,4.2V947.9z"/>
	<path d="M628.9,950c0-3,0.9-5.2,2.7-6.6c1.8-1.4,4.4-2.1,7.9-2.1c1.9,0,3.7,0.1,5.4,0.3v-1.2c0-3.3-1.7-5-4.9-5
		c-1.1,0-2.2,0.1-3.3,0.3c-1.2,0.2-2.1,0.4-2.7,0.7l-0.9,0.3c-0.6-0.4-1.1-1-1.5-2c-0.2-0.4-0.3-0.9-0.4-1.4
		c-0.1-0.5-0.1-0.9-0.1-1.1l0.1-0.4c0.1-0.1,0.3-0.1,0.5-0.2c0.2-0.1,0.6-0.3,1.3-0.5c0.7-0.3,1.4-0.5,2.1-0.7
		c0.7-0.2,1.6-0.4,2.7-0.5c1.1-0.2,2.2-0.2,3.2-0.2c3.9,0,6.7,0.8,8.4,2.5c1.7,1.6,2.5,4.2,2.5,7.7v18.7c-0.5,0.3-1.4,0.4-2.7,0.4
		c-0.5,0-1,0-1.4-0.1s-0.8-0.1-1-0.2l-0.3-0.1l-1-3c-1.3,2.6-4,3.9-8,3.9c-2.6,0-4.7-0.8-6.2-2.4C629.7,955.4,628.9,953.1,628.9,950
		z M635.9,949.9c0,1.5,0.3,2.5,1,3.2s1.6,1,2.9,1c0.9,0,1.7-0.2,2.4-0.6c0.7-0.4,1.2-0.9,1.6-1.5s0.6-1.3,0.8-2s0.3-1.4,0.3-2.2
		v-1.6c-1.8-0.1-3.3-0.2-4.5-0.2C637.4,945.9,635.9,947.2,635.9,949.9z"/>
	<path d="M658.8,958.4v-27.9c0.7-0.3,1.8-0.4,3.4-0.4c0.7,0,1.3,0,1.9,0.1c0.6,0.1,1,0.1,1.2,0.2l0.3,0.1v1.7
		c1.9-1.8,4.4-2.7,7.5-2.7c2.7,0,4.9,0.8,6.3,2.3c1.5,1.5,2.2,3.5,2.2,6.1v20.5c-0.8,0.3-1.9,0.4-3.4,0.4c-0.7,0-1.4,0-1.9-0.1
		c-0.6-0.1-1-0.1-1.2-0.2l-0.3-0.1v-19.3c0-1.2-0.4-2.2-1.1-2.9s-1.8-1.1-3.3-1.1c-1.8,0-3.4,0.7-4.8,2v21.2
		c-0.8,0.3-1.9,0.4-3.4,0.4c-0.7,0-1.4,0-1.9-0.1c-0.6-0.1-1-0.1-1.2-0.2H658.8z"/>
	<path d="M686.1,932.8c0-0.5,0-1,0.1-1.5s0.1-0.8,0.2-1l0.1-0.3h4.2v-4.5c1.6-0.9,3.4-1.4,5.6-1.4c0.4,0,0.9,0,1.3,0.1v5.8h6.5
		c0.2,0.7,0.4,1.5,0.4,2.7c0,0.5,0,0.9-0.1,1.4s-0.1,0.8-0.2,1l-0.1,0.3h-6.5v12.7c0,2.2,0.4,3.6,1.2,4.4c0.8,0.8,2.1,1.1,4,1.1
		l1.9-0.2c0.3,0.8,0.5,1.8,0.5,2.8c0,0.4,0,0.9-0.1,1.3s-0.1,0.7-0.2,0.9l-0.1,0.3c-1.1,0.3-2.5,0.5-4,0.5c-3.5,0-6-0.9-7.6-2.7
		s-2.4-4.5-2.4-8.1v-13.2h-4.2C686.3,934.8,686.1,933.9,686.1,932.8z"/>
	<path d="M708.6,957.4c0-2.2,0.6-3.9,1.8-5.1c2.3,0.9,4.7,1.3,7.2,1.3c2.9,0,4.3-1,4.3-3c0-0.7-0.3-1.3-0.8-1.8
		c-0.6-0.5-1.1-0.8-1.6-1s-1.4-0.5-2.7-0.8c-0.3-0.1-0.5-0.2-0.6-0.2c-0.7-0.2-1.3-0.4-1.8-0.6c-0.5-0.2-1.1-0.4-1.7-0.8
		c-0.6-0.3-1.2-0.7-1.6-1.1c-0.4-0.4-0.8-0.9-1.2-1.4s-0.7-1.2-0.9-1.9s-0.3-1.6-0.3-2.5c0-2.8,0.9-4.9,2.6-6.5
		c1.8-1.6,4.4-2.4,7.8-2.4c1.7,0,3.3,0.1,4.7,0.4c1.4,0.3,2.3,0.5,2.8,0.8l0.7,0.4c0,2.2-0.6,3.8-1.8,4.9c-1.7-0.6-3.6-0.9-5.6-0.9
		c-3.1,0-4.7,1-4.7,3.1c0,0.4,0.1,0.7,0.3,1s0.4,0.6,0.7,0.8s0.7,0.4,1.2,0.6c0.5,0.2,1,0.4,1.4,0.5s1,0.3,1.7,0.5s1.2,0.4,1.7,0.5
		c0.9,0.3,1.8,0.7,2.5,1.1c0.7,0.4,1.4,0.9,2.1,1.5c0.7,0.6,1.2,1.4,1.5,2.4c0.4,1,0.5,2,0.5,3.3c0,2.9-0.9,5.1-2.7,6.7
		c-1.8,1.5-4.5,2.3-8.1,2.3c-1.1,0-2.2-0.1-3.2-0.2c-1-0.1-1.9-0.3-2.6-0.5s-1.3-0.4-1.9-0.6c-0.5-0.2-1-0.4-1.2-0.5L708.6,957.4z"
		/>
	<path d="M474.6,885.2c0-5.3,0.7-10,2.1-14.2s3.8-8,7.1-11.4c3.3-3.5,6.1-6,8.2-7.7s5.6-4,10.3-7.2c0.5-0.4,1-0.7,1.2-0.9
		c4.7-3.2,8.2-5.8,10.4-7.8c2.2-2,4-4.1,5.2-6.4c1.2-2.3,1.8-5,1.8-8.1c0-4.4-1.5-7.6-4.6-9.7c-3.1-2.1-7.3-3.2-12.7-3.2
		c-3.1,0-6.2,0.3-9.5,0.9c-3.3,0.6-5.8,1.2-7.6,1.8l-2.6,0.8c-4.1-3.4-5.9-7.9-5.4-13.5c0.9-0.4,2.2-0.8,3.8-1.5s4.9-1.4,9.8-2.3
		c4.9-0.9,9.8-1.4,14.5-1.4s9.1,0.5,13,1.6c3.9,1,7.4,2.6,10.5,4.8c3.1,2.1,5.5,5,7.2,8.6s2.6,7.9,2.6,12.7c0,2.3-0.1,4.5-0.4,6.5
		c-0.3,2-0.8,3.9-1.5,5.7s-1.5,3.3-2.2,4.7s-1.8,2.8-3.3,4.3s-2.8,2.8-3.8,3.8s-2.7,2.2-4.9,3.7s-4,2.6-5.4,3.5s-3.5,2.2-6.3,3.8
		c-0.8,0.5-2.1,1.3-4.1,2.4c-2,1.2-3.4,2-4.4,2.7c-1,0.6-2.2,1.5-3.8,2.7c-1.5,1.2-2.7,2.3-3.4,3.2c-0.8,1-1.5,2.1-2.1,3.5
		s-0.9,2.8-0.9,4.3c0,0.5,0.1,1.3,0.3,2.2h43.2c1.2,2.2,1.8,4.9,1.8,8.2c0,3-0.6,5.8-1.8,8.4h-61.1
		C474.9,891.9,474.6,888.6,474.6,885.2z"/>
	<path d="M551,814.7c6.1-1.6,11.3-3.9,15.5-6.8c4.3-2.9,8.2-6.8,11.7-11.6c1.9-0.9,4.9-1.4,9.1-1.4c1.8,0,3.5,0.1,5.1,0.3
		s2.6,0.4,3.3,0.7l0.9,0.4v97.5c-2,0.9-5.1,1.3-9.3,1.3c-1.7,0-3.4-0.1-5-0.3s-2.8-0.4-3.5-0.7l-1.1-0.3v-56.4
		c0-6.7,0.2-12.8,0.7-18.4c-6.2,5-13.9,8.6-23.1,10.8c-1.8-1.8-3.1-4.1-4-6.8C550.7,820.3,550.5,817.5,551,814.7z"/>
	<path d="M617.1,857.1c0-20.2,4.8-35.4,14.5-45.5c9.7-10.2,23.8-15.8,42.5-17c0.9,2.2,1.4,4.6,1.4,7.4c0,2.8-0.5,5.4-1.4,7.8
		c-10.1,1.1-18,3.7-23.7,7.8s-9.7,10.1-11.9,18.2c5.5-1.3,10.6-1.9,15.3-1.9c4.4,0,8.3,0.6,11.9,1.8c3.6,1.2,6.8,3,9.7,5.4
		s5.1,5.7,6.7,9.7c1.6,4.1,2.4,8.9,2.4,14.3c0,10.7-2.9,18.6-8.7,23.8s-14.1,7.8-24.9,7.8c-10.8,0-19.1-3.2-25-9.7
		C620,880.4,617.1,870.5,617.1,857.1z M635.9,857.7c0,16.2,5,24.3,14.9,24.3c4.7,0,8.3-1.4,10.8-4.2c2.6-2.8,3.9-7.1,3.9-12.9
		c0-11.1-5-16.7-15.1-16.7c-4.6,0-9.4,0.8-14.4,2.3C636,852.1,635.9,854.4,635.9,857.7z"/>
	<path class="st5" d="M175,838.2c0,3.2-1.4,6.1-3.6,8.2c0.1,0.1,0.2,0.1,0.4,0.2l8.2,4.5c1.4,0.8,2.4,1.5,2.6,2.8
		c0,0.2,0.1,0.4,0,1.3c0.3,0,0.7,0,1,0c0.4,0,0.8,0,1.2,0.1c-0.1-1.3,0.1-2.2,0.7-2.9c0.2-0.2,0.4-0.5,1.8-1.2l8.2-4.5
		c0.1-0.1,0.2-0.1,0.4-0.2c-2.2-2.1-3.6-5-3.6-8.2c0-3.7,1.8-7,4.6-9.1l-6.6-3.6c-0.3-0.1-0.5-0.3-0.7-0.4c-1.8,1-3.8,1.6-6,1.6
		s-4.2-0.6-6-1.6c-0.2,0.1-0.4,0.2-0.7,0.4l-6.5,3.5C173.1,831.2,175,834.5,175,838.2z"/>
	<ellipse class="st5" cx="183.5" cy="814.9" rx="8.5" ry="8.5"/>
	<path class="st5" d="M214.7,838.2c0,3.2-1.4,6.1-3.6,8.2c0.1,0.1,0.2,0.1,0.4,0.2l8.2,4.5c1.4,0.8,2.4,1.5,2.6,2.8
		c0,0.2,0.1,0.4,0,1.3c0.3,0,0.6,0,0.9,0c0.5,0,0.9,0,1.4,0.1c-0.1-1.3,0-2.2,0.7-3c0.2-0.2,0.4-0.5,1.8-1.2l8.2-4.5
		c0.1-0.1,0.2-0.1,0.4-0.2c-2.2-2.1-3.6-5-3.6-8.2c0-3.7,1.8-6.9,4.5-9l-6.7-3.7c-0.3-0.1-0.5-0.3-0.7-0.4c-1.8,1-3.8,1.6-6,1.6
		s-4.2-0.6-6-1.6c-0.2,0.1-0.4,0.2-0.7,0.4l-6.4,3.5C212.8,831.1,214.7,834.5,214.7,838.2z"/>
	<ellipse class="st5" cx="223.1" cy="814.9" rx="8.5" ry="8.5"/>
	<path class="st5" d="M150.1,879.3c0.1,0.6,0.2,1.2,0.2,1.3c0.1,0.1,0.8,0.2,1.4,0.2h2.7c0.6,0,1.1,0.5,1.1,1.1V906
		c0,0.6,0.5,1.1,1.1,1.1H167l-2.3-23.1c-0.2-1.7-0.1-2.7,0.7-3.6c0.2-0.2,0.4-0.5,1.8-1.2l8.2-4.5c0.1-0.1,0.2-0.1,0.4-0.2
		c-2.2-2.1-3.6-5-3.6-8.2c0-4.8,3.1-9,7.4-10.6v-0.2c0.1-0.6,0.1-1.2,0.1-1.3s-0.6-0.5-1.2-0.8l-8.2-4.5c-0.3-0.1-0.5-0.3-0.7-0.4
		c-1.8,1-3.8,1.6-6,1.6s-4.2-0.6-6-1.6c-0.2,0.1-0.4,0.2-0.7,0.4l-8.1,4.5c-0.5,0.3-1,0.6-1.1,0.7c-0.1,0.1,0,0.8,0,1.4L150.1,879.3
		z"/>
	<ellipse class="st5" cx="163.7" cy="838.2" rx="8.5" ry="8.5"/>
	<path class="st5" d="M243.3,850.3c-2.2,0-4.2-0.6-6-1.6c-0.2,0.1-0.4,0.2-0.7,0.4l-8.1,4.5c-0.5,0.3-1,0.6-1.1,0.7
		c-0.1,0.1,0,0.8,0,1.4v0.4c4.1,1.7,7,5.7,7,10.4c0,3.2-1.4,6.1-3.6,8.2c0.1,0.1,0.2,0.1,0.4,0.2l8.2,4.5c1.4,0.8,2.4,1.5,2.6,2.8
		c0,0.2,0.1,0.5-0.1,2l-2.3,23.1h10.8c0.6,0,1.1-0.5,1.1-1.1v-24.1c0-0.6,0.5-1.1,1.1-1.1h2.7c0.6,0,1.2,0,1.3-0.1
		c0.1,0,0.3-0.8,0.4-1.4l2.4-23.7c0.1-0.6,0.1-1.2,0.1-1.3s-0.6-0.5-1.2-0.8L250,849c-0.3-0.1-0.5-0.3-0.7-0.4
		C247.5,849.7,245.4,850.3,243.3,850.3z"/>
	<ellipse class="st5" cx="243.3" cy="838.2" rx="8.5" ry="8.5"/>
	<path class="st5" d="M205.1,880.5c0.2-0.2,0.4-0.5,1.8-1.2l8.2-4.5c0.1-0.1,0.2-0.1,0.4-0.2c-2.2-2.1-3.6-5-3.6-8.2
		c0-4.9,3.1-9.1,7.5-10.6v-0.2c0.1-0.6,0.1-1.2,0.1-1.3s-0.6-0.5-1.2-0.8l-8.2-4.5c-0.3-0.1-0.5-0.3-0.7-0.4c-1.8,1-3.8,1.6-6,1.6
		s-4.2-0.6-6-1.6c-0.2,0.1-0.4,0.2-0.7,0.4l-8.1,4.5c-0.5,0.3-1,0.6-1.1,0.7c-0.1,0.1,0,0.8,0,1.4v0.3c4.2,1.6,7.2,5.7,7.2,10.5
		c0,3.2-1.4,6.1-3.6,8.2c0.1,0.1,0.2,0.1,0.4,0.2l8.2,4.5c1.4,0.8,2.4,1.5,2.6,2.8c0,0.2,0.1,0.5-0.1,2l-2.3,23.1h6.9l-2.3-23.1
		C204.2,882.3,204.3,881.3,205.1,880.5z"/>
	<ellipse class="st5" cx="203.4" cy="838.2" rx="8.5" ry="8.5"/>
	<path class="st5" d="M197.1,907.4l2.4-23.7c0.1-0.6,0.1-1.2,0.1-1.3s-0.6-0.5-1.2-0.8l-8.2-4.5c-0.3-0.1-0.5-0.3-0.7-0.4
		c-1.8,1-3.8,1.6-6,1.6s-4.2-0.6-6-1.6c-0.2,0.1-0.4,0.2-0.7,0.4l-8.1,4.5c-0.5,0.3-1,0.6-1.1,0.7c-0.1,0.1,0,0.8,0,1.4l2.4,23.7
		c0.1,0.6,0.2,1.2,0.2,1.3c0.1,0.1,0.8,0.2,1.4,0.2h2.7c0.6,0,1.1,0.5,1.1,1.1v24.1c0,0.6,0.5,1.1,1.1,1.1h14c0.6,0,1.1-0.5,1.1-1.1
		V910c0-0.6,0.5-1.1,1.1-1.1h2.7c0.6,0,1.2,0,1.3-0.1C196.9,908.8,197,908,197.1,907.4z"/>
	<ellipse class="st5" cx="183.5" cy="866.4" rx="8.5" ry="8.5"/>
	<path class="st5" d="M236.7,907.4l2.4-23.7c0.1-0.6,0.1-1.2,0.1-1.3s-0.6-0.5-1.2-0.8l-8.2-4.5c-0.3-0.1-0.5-0.3-0.7-0.4
		c-1.8,1-3.8,1.6-6,1.6s-4.2-0.6-6-1.6c-0.2,0.1-0.4,0.2-0.7,0.4l-8.1,4.5c-0.5,0.3-1,0.6-1.1,0.7c-0.1,0.1,0,0.8,0,1.4l2.4,23.7
		c0.1,0.6,0.2,1.2,0.2,1.3c0.1,0.1,0.8,0.2,1.4,0.2h2.7c0.6,0,1.1,0.5,1.1,1.1v24.1c0,0.6,0.5,1.1,1.1,1.1h14c0.6,0,1.1-0.5,1.1-1.1
		V910c0-0.6,0.5-1.1,1.1-1.1h2.7c0.6,0,1.2,0,1.3-0.1C236.4,908.8,236.6,908,236.7,907.4z"/>
	<ellipse class="st5" cx="223.1" cy="866.4" rx="8.5" ry="8.5"/>
	<path class="st5" d="M317,838.2c0,3.2-1.4,6.1-3.6,8.2c0.1,0.1,0.2,0.1,0.4,0.2l8.2,4.5c1.4,0.8,2.4,1.5,2.6,2.8
		c0,0.2,0.1,0.4,0,1.3c0.3,0,0.7,0,1,0c0.4,0,0.8,0,1.2,0.1c-0.1-1.3,0.1-2.2,0.7-2.9c0.2-0.2,0.4-0.5,1.8-1.2l8.2-4.5
		c0.1-0.1,0.2-0.1,0.4-0.2c-2.2-2.1-3.6-5-3.6-8.2c0-3.7,1.8-7,4.6-9.1l-6.6-3.6c-0.3-0.1-0.5-0.3-0.7-0.4c-1.8,1-3.8,1.6-6,1.6
		s-4.2-0.6-6-1.6c-0.2,0.1-0.4,0.2-0.7,0.4l-6.5,3.5C315.1,831.2,317,834.5,317,838.2z"/>
	<ellipse class="st5" cx="325.5" cy="814.9" rx="8.5" ry="8.5"/>
	<path class="st5" d="M356.7,838.2c0,3.2-1.4,6.1-3.6,8.2c0.1,0.1,0.2,0.1,0.4,0.2l8.2,4.5c1.4,0.8,2.4,1.5,2.6,2.8
		c0,0.2,0.1,0.4,0,1.3c0.3,0,0.6,0,0.9,0c0.5,0,0.9,0,1.4,0.1c-0.1-1.3,0-2.2,0.7-3c0.2-0.2,0.4-0.5,1.8-1.2l8.2-4.5
		c0.1-0.1,0.2-0.1,0.4-0.2c-2.2-2.1-3.6-5-3.6-8.2c0-3.7,1.8-6.9,4.5-9l-6.7-3.7c-0.3-0.1-0.5-0.3-0.7-0.4c-1.8,1-3.8,1.6-6,1.6
		s-4.2-0.6-6-1.6c-0.2,0.1-0.4,0.2-0.7,0.4l-6.4,3.5C354.8,831.1,356.7,834.5,356.7,838.2z"/>
	<ellipse class="st5" cx="365.1" cy="814.9" rx="8.5" ry="8.5"/>
	<path class="st5" d="M292.2,879.3c0.1,0.6,0.2,1.2,0.2,1.3c0.1,0.1,0.8,0.2,1.4,0.2h2.7c0.6,0,1.1,0.5,1.1,1.1V906
		c0,0.6,0.5,1.1,1.1,1.1h10.4l-2.3-23.1c-0.2-1.7-0.1-2.7,0.7-3.6c0.2-0.2,0.4-0.5,1.8-1.2l8.2-4.5c0.1-0.1,0.2-0.1,0.4-0.2
		c-2.2-2.1-3.6-5-3.6-8.2c0-4.8,3.1-9,7.4-10.6v-0.2c0.1-0.6,0.1-1.2,0.1-1.3s-0.6-0.5-1.2-0.8l-8.2-4.5c-0.3-0.1-0.5-0.3-0.7-0.4
		c-1.8,1-3.8,1.6-6,1.6s-4.2-0.6-6-1.6c-0.2,0.1-0.4,0.2-0.7,0.4l-8.1,4.5c-0.5,0.3-1,0.6-1.1,0.7c-0.1,0.1,0,0.8,0,1.4L292.2,879.3
		z"/>
	<ellipse class="st5" cx="305.7" cy="838.2" rx="8.5" ry="8.5"/>
	<path class="st5" d="M385.3,850.3c-2.2,0-4.2-0.6-6-1.6c-0.2,0.1-0.4,0.2-0.7,0.4l-8.1,4.5c-0.5,0.3-1,0.6-1.1,0.7
		c-0.1,0.1,0,0.8,0,1.4v0.4c4.1,1.7,7,5.7,7,10.4c0,3.2-1.4,6.1-3.6,8.2c0.1,0.1,0.2,0.1,0.4,0.2l8.2,4.5c1.4,0.8,2.4,1.5,2.6,2.8
		c0,0.2,0.1,0.5-0.1,2l-2.3,23.1h10.8c0.6,0,1.1-0.5,1.1-1.1v-24.1c0-0.6,0.5-1.1,1.1-1.1h2.7c0.6,0,1.2,0,1.3-0.1
		c0.1,0,0.3-0.8,0.4-1.4l2.4-23.7c0.1-0.6,0.1-1.2,0.1-1.3s-0.6-0.5-1.2-0.8L392,849c-0.3-0.1-0.5-0.3-0.7-0.4
		C389.5,849.7,387.5,850.3,385.3,850.3z"/>
	<ellipse class="st5" cx="385.3" cy="838.2" rx="8.5" ry="8.5"/>
	<path class="st5" d="M347.1,880.5c0.2-0.2,0.4-0.5,1.8-1.2l8.2-4.5c0.1-0.1,0.2-0.1,0.4-0.2c-2.2-2.1-3.6-5-3.6-8.2
		c0-4.9,3.1-9.1,7.5-10.6v-0.2c0.1-0.6,0.1-1.2,0.1-1.3s-0.6-0.5-1.2-0.8l-8.2-4.5c-0.3-0.1-0.5-0.3-0.7-0.4c-1.8,1-3.8,1.6-6,1.6
		s-4.2-0.6-6-1.6c-0.2,0.1-0.4,0.2-0.7,0.4l-8.1,4.5c-0.5,0.3-1,0.6-1.1,0.7c-0.1,0.1,0,0.8,0,1.4v0.3c4.2,1.6,7.2,5.7,7.2,10.5
		c0,3.2-1.4,6.1-3.6,8.2c0.1,0.1,0.2,0.1,0.4,0.2l8.2,4.5c1.4,0.8,2.4,1.5,2.6,2.8c0,0.2,0.1,0.5-0.1,2l-2.3,23.1h6.9l-2.3-23.1
		C346.3,882.3,346.3,881.3,347.1,880.5z"/>
	<ellipse class="st5" cx="345.5" cy="838.1" rx="8.5" ry="8.5"/>
	<path class="st5" d="M339.1,907.4l2.4-23.7c0.1-0.6,0.1-1.2,0.1-1.3s-0.6-0.5-1.2-0.8l-8.2-4.5c-0.3-0.1-0.5-0.3-0.7-0.4
		c-1.8,1-3.8,1.6-6,1.6s-4.2-0.6-6-1.6c-0.2,0.1-0.4,0.2-0.7,0.4l-8.1,4.5c-0.5,0.3-1,0.6-1.1,0.7c-0.1,0.1,0,0.8,0,1.4l2.4,23.7
		c0.1,0.6,0.2,1.2,0.2,1.3c0.1,0.1,0.8,0.2,1.4,0.2h2.7c0.6,0,1.1,0.5,1.1,1.1v24.1c0,0.6,0.5,1.1,1.1,1.1h14c0.6,0,1.1-0.5,1.1-1.1
		V910c0-0.6,0.5-1.1,1.1-1.1h2.7c0.6,0,1.2,0,1.3-0.1C338.9,908.8,339,908,339.1,907.4z"/>
	<ellipse class="st5" cx="325.5" cy="866.4" rx="8.5" ry="8.5"/>
	<path class="st5" d="M378.7,907.4l2.4-23.7c0.1-0.6,0.1-1.2,0.1-1.3s-0.6-0.5-1.2-0.8l-8.2-4.5c-0.3-0.1-0.5-0.3-0.7-0.4
		c-1.8,1-3.8,1.6-6,1.6s-4.2-0.6-6-1.6c-0.2,0.1-0.4,0.2-0.7,0.4l-8.1,4.5c-0.5,0.3-1,0.6-1.1,0.7c-0.1,0.1,0,0.8,0,1.4l2.4,23.7
		c0.1,0.6,0.2,1.2,0.2,1.3c0.1,0.1,0.8,0.2,1.4,0.2h2.7c0.6,0,1.1,0.5,1.1,1.1v24.1c0,0.6,0.5,1.1,1.1,1.1h14c0.6,0,1.1-0.5,1.1-1.1
		V910c0-0.6,0.5-1.1,1.1-1.1h2.7c0.6,0,1.2,0,1.3-0.1C378.5,908.8,378.6,908,378.7,907.4z"/>
	<ellipse class="st5" cx="365.1" cy="866.4" rx="8.5" ry="8.5"/>
	<path d="M411.3,605.8c0-21.8,5.2-38.3,15.7-49.3s25.8-17.1,46-18.4c1,2.3,1.5,5,1.5,8s-0.5,5.8-1.5,8.4c-10.9,1.2-19.5,4-25.7,8.4
		s-10.5,10.9-12.9,19.7c5.9-1.4,11.4-2.1,16.5-2.1c4.7,0,9,0.6,12.9,1.9c3.9,1.3,7.4,3.2,10.5,5.8s5.5,6.1,7.2,10.5
		s2.6,9.6,2.6,15.5c0,11.5-3.1,20.1-9.4,25.7c-6.3,5.6-15.2,8.4-26.9,8.4c-11.7,0-20.7-3.5-27-10.4
		C414.4,631,411.3,620.2,411.3,605.8z M431.6,606.4c0,17.6,5.4,26.3,16.1,26.3c5,0,9-1.5,11.7-4.5s4.2-7.7,4.2-13.9
		c0-12.1-5.4-18.1-16.3-18.1c-4.9,0-10.1,0.8-15.6,2.5C431.7,600.3,431.6,602.9,431.6,606.4z"/>
	<path d="M512.9,580.3v-39c1.2-0.3,2.6-0.5,4.3-0.5c0.6,0,1.3,0,2,0.1s1.2,0.2,1.6,0.3l0.6,0.1l5.1,10.2c2.5,5.2,4.1,8.8,4.8,10.9
		h0.3c0.6-2,1.4-4,2.2-5.8c2-4.1,4.4-9.2,7.2-15.3c1.6-0.3,3.1-0.5,4.5-0.5c0.8,0,1.6,0,2.3,0.1c0.8,0.1,1.3,0.2,1.7,0.3l0.5,0.1v39
		c-0.8,0.3-2,0.5-3.5,0.5c-0.7,0-1.3,0-1.9-0.1c-0.6-0.1-1-0.2-1.3-0.3l-0.4-0.1v-12.2c0-0.8,0-2.4,0-4.6c0-2.3,0-4,0-5.3
		c0-1.2,0-2.7,0.1-4.3c0.1-1.7,0.2-3,0.3-4.1H543c-0.2,0.8-0.6,1.9-1.1,3.1c-0.5,1.3-1,2.4-1.4,3.3c-0.4,0.9-1,2.2-1.9,4.1
		c-0.9,1.8-1.4,3-1.7,3.6l-3.9,8.2c-0.5,0.2-1.2,0.3-2,0.3c-0.4,0-0.7,0-1-0.1c-0.3,0-0.5-0.1-0.6-0.1l-0.2-0.1
		c-0.3-0.6-0.9-1.8-1.8-3.6s-1.6-3.2-2.1-4.3c-1.2-2.4-2.1-4.2-2.6-5.3c-0.6-1.2-1.2-2.7-2-4.6c-0.8-1.9-1.4-3.4-1.6-4.4h-0.3
		c0.1,0.6,0.2,1.4,0.3,2.3c0.1,0.9,0.2,1.7,0.2,2.5s0.1,1.8,0.1,3.1s0,2.3,0,2.9c0,0.3,0,0.8,0,1.4c0,0.5,0,1.2,0,1.9
		c0,1.5,0,2.5,0,3v13.5c-0.8,0.3-1.9,0.5-3.4,0.5c-0.6,0-1.1,0-1.7-0.1c-0.5-0.1-0.9-0.2-1.2-0.3L512.9,580.3z"/>
	<path d="M559.9,577.7c-2.2-2.4-3.3-6.3-3.3-11.5s1.1-9.1,3.3-11.5s5.3-3.6,9.4-3.6c4.1,0,7.2,1.2,9.4,3.6s3.3,6.2,3.3,11.5
		s-1.1,9.1-3.3,11.6s-5.3,3.6-9.4,3.6S562.1,580.1,559.9,577.7z M564.1,561.4c-0.3,1.3-0.4,2.9-0.4,4.8c0,1.9,0.1,3.5,0.4,4.8
		c0.3,1.3,0.7,2.3,1.2,3s1.1,1.2,1.7,1.5c0.6,0.3,1.4,0.4,2.3,0.4c0.9,0,1.7-0.1,2.3-0.4c0.6-0.3,1.2-0.8,1.7-1.5s0.9-1.7,1.1-3
		c0.3-1.3,0.4-2.9,0.4-4.8s-0.1-3.5-0.4-4.8c-0.3-1.3-0.6-2.3-1.1-3s-1.1-1.2-1.7-1.5c-0.6-0.3-1.4-0.4-2.3-0.4
		c-0.9,0-1.7,0.1-2.3,0.4c-0.6,0.3-1.2,0.8-1.7,1.5C564.8,559.1,564.4,560.1,564.1,561.4z"/>
	<path d="M588.2,580.4v-28.3c0.7-0.3,1.9-0.4,3.5-0.4c0.7,0,1.3,0,1.9,0.1c0.6,0.1,1,0.1,1.3,0.2l0.4,0.1v1.7c2-1.8,4.5-2.7,7.6-2.7
		c2.8,0,4.9,0.8,6.4,2.3s2.3,3.6,2.3,6.2v20.9c-0.8,0.3-2,0.4-3.5,0.4c-0.7,0-1.4,0-2-0.1s-1-0.1-1.2-0.2l-0.4-0.1v-19.6
		c0-1.2-0.4-2.2-1.1-2.9c-0.7-0.7-1.8-1.1-3.4-1.1c-1.8,0-3.5,0.7-4.9,2.1v21.5c-0.8,0.3-2,0.4-3.5,0.4c-0.7,0-1.4,0-2-0.1
		s-1-0.1-1.2-0.2L588.2,580.4z"/>
	<path d="M616,554.4c0-0.5,0-1,0.1-1.5s0.1-0.8,0.2-1l0.1-0.3h4.2v-4.5c1.6-0.9,3.5-1.4,5.7-1.4c0.4,0,0.9,0,1.3,0.1v5.9h6.6
		c0.3,0.7,0.4,1.6,0.4,2.7c0,0.5,0,0.9-0.1,1.4s-0.1,0.8-0.2,1l-0.1,0.3h-6.6V570c0,2.2,0.4,3.7,1.2,4.5s2.2,1.2,4.1,1.2l1.9-0.2
		c0.3,0.8,0.5,1.8,0.5,2.9c0,0.4,0,0.9-0.1,1.3s-0.1,0.7-0.2,0.9l-0.1,0.3c-1.1,0.3-2.5,0.5-4.1,0.5c-3.5,0-6.1-0.9-7.7-2.7
		c-1.7-1.8-2.5-4.5-2.5-8.2v-13.4h-4.2C616.1,556.4,616,555.5,616,554.4z"/>
	<path d="M640.1,580.4v-40.7c0.7-0.3,1.9-0.4,3.5-0.4c0.7,0,1.3,0,1.9,0.1s1,0.1,1.3,0.2l0.4,0.1v14.1c2-1.8,4.5-2.7,7.6-2.7
		c2.8,0,4.9,0.8,6.4,2.3s2.3,3.6,2.3,6.2v20.9c-0.8,0.3-2,0.4-3.5,0.4c-0.7,0-1.4,0-2-0.1s-1-0.1-1.2-0.2l-0.4-0.1v-19.6
		c0-1.2-0.4-2.2-1.1-2.9c-0.7-0.7-1.8-1.1-3.4-1.1c-1.8,0-3.5,0.7-4.9,2.1v21.5c-0.8,0.3-2,0.4-3.5,0.4c-0.7,0-1.4,0-2-0.1
		s-1-0.1-1.2-0.2L640.1,580.4z"/>
	<path d="M511.2,645.6c0-0.1,0-0.2,0-0.3c0-1.9,0.6-3.7,1.7-5.3c0.4,0.1,0.9,0.3,1.6,0.5c0.7,0.2,1.9,0.4,3.8,0.8
		c1.8,0.3,3.5,0.5,5,0.5c2.5,0,4.4-0.4,5.6-1.3c1.2-0.9,1.8-2.3,1.8-4.1c0-0.7-0.1-1.4-0.4-2c-0.3-0.6-0.7-1.1-1.3-1.5
		s-1.2-0.8-1.8-1.1s-1.4-0.6-2.3-1c-0.5-0.2-1.2-0.4-2.2-0.8c-1-0.3-1.8-0.6-2.4-0.8c-0.6-0.2-1.3-0.5-2.2-0.9s-1.6-0.8-2.2-1.1
		c-0.6-0.4-1.2-0.8-1.8-1.4s-1.2-1.2-1.5-1.8c-0.4-0.7-0.7-1.4-0.9-2.3c-0.3-0.9-0.4-1.9-0.4-2.9c0-3.6,1.2-6.5,3.5-8.6
		c2.4-2.1,5.8-3.1,10.4-3.1c2,0,4,0.1,5.8,0.4c1.8,0.3,3.2,0.6,4,0.8l1.2,0.4c0,1-0.2,2-0.5,3.1s-0.8,1.8-1.4,2.5
		c-0.3-0.1-0.6-0.2-1.1-0.3s-1.4-0.3-2.9-0.5c-1.4-0.2-2.8-0.3-4.2-0.3c-5.3,0-8,1.8-8,5.4c0,0.5,0.1,0.9,0.3,1.3
		c0.2,0.4,0.5,0.8,0.8,1.1c0.4,0.3,0.8,0.6,1.2,0.9c0.4,0.3,0.9,0.5,1.6,0.8c0.7,0.3,1.3,0.5,1.8,0.7s1.2,0.4,2,0.7
		c0.9,0.3,1.5,0.5,2,0.7c0.9,0.3,1.7,0.7,2.5,1c0.7,0.3,1.5,0.7,2.3,1.2s1.5,1,2.1,1.6s1.1,1.3,1.6,2s0.8,1.6,1.1,2.6
		c0.2,1,0.4,2,0.4,3.2c0,3.9-1.2,6.8-3.6,8.8c-2.4,2-5.9,3-10.6,3c-2.3,0-4.4-0.2-6.5-0.6s-3.5-0.8-4.5-1.2L511.2,645.6z"/>
	<path d="M540.5,621c0-0.5,0-1,0.1-1.5s0.1-0.8,0.2-1l0.1-0.3h4.2v-4.5c1.6-0.9,3.5-1.4,5.7-1.4c0.4,0,0.9,0,1.3,0.1v5.9h6.6
		c0.3,0.7,0.4,1.6,0.4,2.7c0,0.5,0,0.9-0.1,1.4s-0.1,0.8-0.2,1l-0.1,0.3h-6.6v12.9c0,2.2,0.4,3.7,1.2,4.5s2.2,1.2,4.1,1.2l1.9-0.2
		c0.3,0.8,0.5,1.8,0.5,2.9c0,0.4,0,0.9-0.1,1.3c-0.1,0.4-0.1,0.7-0.2,0.9l-0.1,0.3c-1.1,0.3-2.5,0.5-4.1,0.5c-3.5,0-6.1-0.9-7.7-2.7
		c-1.7-1.8-2.5-4.5-2.5-8.2v-13.4h-4.2C540.6,623,540.5,622.1,540.5,621z"/>
	<path d="M564.4,639.5v-20.9c0.8-0.3,2-0.4,3.5-0.4c0.7,0,1.4,0,2,0.1s1,0.1,1.2,0.2l0.4,0.1v19.6c0,1.2,0.4,2.2,1.1,2.9
		c0.7,0.7,1.8,1.1,3.4,1.1c1.9,0,3.5-0.7,4.9-2.1v-21.5c0.8-0.3,2-0.4,3.5-0.4c0.7,0,1.4,0,2,0.1s1,0.1,1.2,0.2l0.4,0.1V647
		c-0.7,0.3-1.9,0.4-3.5,0.4c-0.7,0-1.3,0-1.9-0.1c-0.6-0.1-1-0.1-1.3-0.2l-0.4-0.1v-1.7c-1.9,1.8-4.5,2.7-7.6,2.7
		c-2.8,0-5-0.8-6.5-2.3C565.1,644.2,564.4,642.1,564.4,639.5z"/>
	<path d="M594.6,639.9c-0.5-2-0.7-4.4-0.7-7.1s0.2-5.1,0.7-7.1s1.2-3.6,2.1-4.7c0.9-1.2,2-2,3.2-2.5s2.6-0.8,4.2-0.8
		c3.4,0,5.9,1,7.5,2.9v-14.3c0.8-0.3,2-0.4,3.5-0.4c0.7,0,1.3,0,1.9,0.1c0.6,0.1,1,0.1,1.2,0.2l0.3,0.1V647c-0.8,0.3-1.8,0.4-3,0.4
		c-0.5,0-1.1,0-1.6-0.1s-0.9-0.1-1.2-0.2l-0.4-0.1l-0.4-2.4c-1.6,2.3-4.2,3.4-7.9,3.4c-1.6,0-3-0.3-4.2-0.8s-2.3-1.4-3.2-2.5
		C595.7,643.5,595,641.9,594.6,639.9z M600.9,632.8c0,1.9,0.1,3.5,0.4,4.7c0.2,1.3,0.6,2.2,1.1,2.9s1.1,1.1,1.7,1.4
		c0.6,0.3,1.4,0.4,2.4,0.4c1.5,0,2.8-0.6,3.7-1.7c0.9-1.1,1.4-2.5,1.4-4.3V629c-0.1-1.7-0.5-3.1-1.4-4.1c-0.9-1.1-2.1-1.6-3.6-1.6
		c-0.7,0-1.4,0.1-1.9,0.2s-1.1,0.4-1.5,0.8c-0.5,0.4-0.9,1-1.2,1.7s-0.5,1.6-0.7,2.7C601,630,600.9,631.3,600.9,632.8z"/>
	<path d="M623.1,618.7c0.9-0.3,2.1-0.4,3.6-0.4c0.7,0,1.4,0,2,0.1s1,0.1,1.3,0.2l0.4,0.1l5.2,14.9c0.4,1.2,0.8,2.4,1.1,3.6
		c0.3,1.2,0.5,2,0.6,2.6l0.2,0.8h0.2c0.3-1.8,0.9-4.2,1.8-7l4.5-14.9c0.7-0.3,1.8-0.4,3.3-0.4c0.6,0,1.1-0.1,1.7-0.2
		s0.9-0.2,1.2-0.4l0.4-0.2l-10.1,33c-0.4,1.3-0.7,2.4-1,3.2c-0.3,0.9-0.7,1.8-1.1,2.6c-0.4,0.9-0.9,1.6-1.4,2.2
		c-0.5,0.6-1.1,1.1-1.8,1.5s-1.5,0.8-2.4,1s-1.9,0.3-3.1,0.3c-0.6,0-1.1-0.1-1.7-0.2c-0.5-0.1-0.9-0.2-1.2-0.3l-0.4-0.1
		c-0.3-0.8-0.5-1.6-0.5-2.6c0-0.4,0-0.9,0.1-1.4s0.2-0.8,0.3-1l0.1-0.4c0.9,0.1,1.8,0.2,2.5,0.2c0.6,0,1.1,0,1.5-0.1
		s0.7-0.2,1.2-0.4c0.4-0.2,0.8-0.5,1.1-1c0.3-0.4,0.6-1,0.9-1.8s0.7-1.7,1-2.8l0.7-2.2c-0.8,0-1.5-0.1-2.2-0.4L623.1,618.7z"/>
	<g>
		<path class="st5" d="M228.7,511.9h2.5c0.7,0,1.2,0.5,1.2,1.2v19.5c0,0.7-0.5,1.2-1.2,1.2h-2.5c-0.7,0-1.2-0.5-1.2-1.2v-19.5
			C227.5,512.4,228,511.9,228.7,511.9z"/>
	</g>
	<g>
		<path class="st5" d="M247.6,511.9h2.5c0.7,0,1.2,0.5,1.2,1.2v19.5c0,0.7-0.5,1.2-1.2,1.2h-2.5c-0.7,0-1.2-0.5-1.2-1.2v-19.5
			C246.4,512.4,246.9,511.9,247.6,511.9z"/>
	</g>
	<g>
		<path class="st5" d="M267.3,511.9h2.5c0.7,0,1.2,0.5,1.2,1.2v19.5c0,0.7-0.5,1.2-1.2,1.2h-2.5c-0.7,0-1.2-0.5-1.2-1.2v-19.5
			C266.1,512.4,266.6,511.9,267.3,511.9z"/>
	</g>
	<g>
		<path class="st5" d="M286.2,511.9h2.5c0.7,0,1.2,0.5,1.2,1.2v19.5c0,0.7-0.5,1.2-1.2,1.2h-2.5c-0.7,0-1.2-0.5-1.2-1.2v-19.5
			C285,512.4,285.5,511.9,286.2,511.9z"/>
	</g>
	<g>
		<path class="st5" d="M305.1,511.9h2.5c0.7,0,1.2,0.5,1.2,1.2v19.5c0,0.7-0.5,1.2-1.2,1.2h-2.5c-0.7,0-1.2-0.5-1.2-1.2v-19.5
			C303.9,512.4,304.4,511.9,305.1,511.9z"/>
	</g>
	<g>
		<path class="st5" d="M324.8,511.9h2.5c0.7,0,1.2,0.5,1.2,1.2v19.5c0,0.7-0.5,1.2-1.2,1.2h-2.5c-0.7,0-1.2-0.5-1.2-1.2v-19.5
			C323.6,512.4,324.1,511.9,324.8,511.9z"/>
	</g>
	<g>
		<path class="st5" d="M363.9,525.2c-0.1-1.1-1.9-2.8-3.1-3c-3.4-0.4-6.8-0.2-11-0.2c0,0,0,0,0,0.1v4.6c0.1,0.7,0.2,1.5,0.1,2.1
			c0,0.2-0.1,0.4-0.1,0.6v4.9c0,1.5-1.2,2.7-2.7,2.7H341c-1.5,0-2.7-1.2-2.7-2.7v-12.1c-2.2-0.1-4.4,0-6.6,0.4v11.7
			c0,1.5-1.2,2.7-2.7,2.7h-6c-1.5,0-2.7-1.2-2.7-2.7v-11.8c-0.1-0.1-0.2-0.2-0.3-0.2c-2.6-0.2-5.3-0.4-7.6,0.4
			c-0.2,0-0.2,0.3-0.3,0.6v11.1c0,1.5-1.2,2.7-2.7,2.7h-6.1c-1.5,0-2.7-1.2-2.7-2.7v-12.2c-0.9-0.2-2.3-0.2-4.4-0.2
			c-1.4,0-2.3,0.2-3,0.5v11.9c0,1.5-1.2,2.7-2.7,2.7h-6.1c-1.5,0-2.7-1.2-2.7-2.7v-11.8c-2.5-0.3-5-0.4-7.4-0.1v11.8
			c0,1.5-1.2,2.7-2.7,2.7h-6.1c-1.5,0-2.7-1.2-2.7-2.7v-12l-0.1-0.1c-2.5-0.1-5.2-0.3-7.6,0.4c-0.5,0.2-0.1,3.7-0.1,5.7
			c0,0.3,0.2,0.6,0.1,0.8c-0.2,0.5-0.3,1-0.5,1.5v3.6c0,1.5-1.2,2.7-2.7,2.7h-6.1c-1.5,0-2.7-1.2-2.7-2.7v-12
			c-2.3-0.1-4.7-0.2-6.9,0.4c-0.5,0.1,0,3.8-0.3,5.7c0,0.2-0.1,0.4-0.1,0.6v5.4c0,1.5-1.2,2.7-2.7,2.7H227c-1.5,0-2.7-1.2-2.7-2.7
			V522c0,0,0,0,0-0.1c-3.2,0-6,0-8.9,0c-2.8-0.1-3.9,1.4-3.9,4.1c0,3.4,0,6.7,0,10.1c0,6.3,0.2,6.5,6.5,6.5c46.5,0,93,0,139.5,0
			c1.1,0,2.4,0.4,3.2-0.1c1.3-0.8,3.2-2,3.3-3.2C364.3,534.7,364.3,529.9,363.9,525.2z"/>
	</g>
	<g>
		<path class="st5" d="M342.9,511.9h2.5c0.7,0,1.2,0.5,1.2,1.2v19.5c0,0.7-0.5,1.2-1.2,1.2h-2.5c-0.7,0-1.2-0.5-1.2-1.2v-19.5
			C341.7,512.4,342.2,511.9,342.9,511.9z"/>
	</g>
	<g>
		<path class="st5" d="M293.7,546.3c25.7,0,40.8,0,64.5,0c5.1,0,5.7,0.6,5.7,6.9c0,34.4,0,68.8,0,103.3c0,6.1-0.5,6.7-5.4,6.7
			c-47.4,0-90.4,0-141.8,0c-5.3,0-6-0.8-6-6.7c0-34.6,0-69.2,0-103.8c0-5.9,0.6-6.5,6.1-6.5C242.4,546.3,268.1,546.3,293.7,546.3z
			 M253.1,656c0-4.4-0.1-8.4,0-12.4c0.1-4.4-3.2-3.9-5.4-3.5c-3.6,0.8-9.3-3.3-10.4,3.3c-1.9,12.4-0.6,13.6,11.6,13
			C250.1,656.5,251.2,656.2,253.1,656z M231.9,648.4c0-8.4,0-8.4-7.5-8.5c-8.4,0-8.4,0-8.3,7.7c0.1,9.4-1.4,8.8,8.1,8.9
			C233.3,656.5,231.7,656.7,231.9,648.4z M300.4,648c0.2,8.9-1.3,8.4,8,8.5c7.7,0,7.7,0,7.7-8.2c0-8.3,0-8.3-7.7-8.3
			C300.4,640,300.4,640,300.4,648z M295.1,656.4c0-4.9,0.2-9.1-0.1-13.2c-0.1-1.1-1.7-2.9-2.8-3c-3.3-0.4-6.8-0.3-10.2-0.1
			c-3.5,0.2-3.1,3.2-2.7,5.3c0.7,3.7-2.8,9.1,2.4,10.8C285.7,657.4,290.3,656.4,295.1,656.4z M265.7,656.5c9.4-0.1,8.1,0.4,8.2-7.7
			c0.1-8.8,0-8.8-7.2-8.8c-8.4,0-8.5,0-8.4,8.1C258.4,657.4,257.4,656.4,265.7,656.5z M258.3,582.6c0.1,9.8-0.7,8.5,8.6,8.6
			c7,0.1,7.1,0,7-8.5c-0.1-9.3,0.9-7.3-10.4-8C256.2,574.3,258.8,579.4,258.3,582.6z M329.5,618.4c-8.2,0-8.2,0-8.2,7.7
			c0,8.7,0,8.7,7.3,8.7c8.7,0,8.7,0,8.7-7.7C337.2,617.4,338,618.5,329.5,618.4z M295.1,626.9c0-8.6,0-8.6-6.9-8.6
			c-9.4,0.1-9-1.2-8.9,7.5c0,9.4-1.1,8.9,8.1,8.9C295.1,634.8,295.1,634.7,295.1,626.9z M245.2,618.4c-8.1,0-8.1,0-8.1,7.8
			c0,8.6,0,8.6,7.9,8.6c8,0,8.1,0,8-7.9C253,617.5,254,618.4,245.2,618.4z M231.9,626.3c0-7.9,0-7.9-7.1-7.9
			c-9.6,0.1-8.8-1.1-8.8,8.1c0,8.2,0,8.3,7.9,8.2C233,634.7,231.7,635.2,231.9,626.3z M350.4,612.8c9-0.1,7.9,0.8,8-9
			c0.1-7.3,0-7.3-7.7-7.3c-8.1,0-8.2,0-8.1,7.8C342.6,613.7,341.5,612.7,350.4,612.8z M329.1,612.8c8.1,0,8.1,0,8.1-7.9
			c-0.1-8.8,1.1-8.4-8.1-8.4c-7.8,0-7.8,0-7.8,8.2C321.2,612.8,321.2,612.8,329.1,612.8z M286.9,612.8c8.2,0,8.2,0,8.2-7.8
			c0-8.6,0-8.6-8-8.6c-7.9,0-8,0-7.9,7.6C279.3,613.7,278.4,612.7,286.9,612.8z M244.9,612.8c8.8-0.1,8.1,1,8.2-7.8
			c0-8.5,0-8.5-7.5-8.6c-8.5,0-8.5,0-8.5,7.6C237.2,613.7,236.3,612.7,244.9,612.8z M231.9,605.1c0-8.6,0-8.6-7.4-8.6
			c-8.5,0-8.5,0-8.5,8.1c0,9.3-0.6,8.2,8.2,8.2C231.9,612.9,231.9,612.8,231.9,605.1z M358.4,583.1c0-8.3,0-8.3-7.2-8.3
			c-9.6,0.1-8.6-1-8.6,7.8c0,8.9-1.3,8.6,7.9,8.6C358.4,591.2,358.4,591.2,358.4,583.1z M329.3,574.8c-8,0-8.1,0-8,7.3
			c0.1,9.7-1.2,9,7.9,9.1c8.1,0,8.1,0,8.1-8.4C337.2,574.8,337.2,574.8,329.3,574.8z M295.1,582.8c-0.1-8.9,0.9-8-8.5-8
			c-8.5,0-7.3-0.6-7.4,9.1c-0.1,7.3,0,7.3,8.2,7.3C295.1,591.2,295.1,591.2,295.1,582.8z M253.1,583c0-8.2,0-8.2-7.2-8.1
			c-9.6,0.1-8.7-1-8.7,7.6c-0.1,8.7,0,8.8,7.7,8.7C254.2,591.2,253,591.7,253.1,583z M224.3,574.8c-8.3,0-8.3,0-8.4,7.7
			c0,8.7,0,8.7,7.4,8.7c8.5,0,8.6,0,8.5-7.5C231.8,574,233,574.9,224.3,574.8z M316.1,582.5c0-7.7,0-7.7-6.6-7.7
			c-10,0.1-9-1.2-9,8.3c-0.1,8.1,0,8.1,7.9,8.1C316.1,591.2,316.1,591.2,316.1,582.5z M350.4,569.3c8.4-0.1,7.9,1.2,7.9-7.9
			c0-8.5,0-8.6-8-8.5c-8.9,0-7.8-0.6-7.8,8.6C342.5,570.5,341.7,569.2,350.4,569.3z M329.4,569.3c8.3-0.1,7.8,1.2,7.8-8.1
			c0-9.4,0.6-8.3-8.6-8.4c-7.3-0.1-7.3,0-7.3,8.7C321.3,570.6,320.7,569.2,329.4,569.3z M315.2,569.3c3.3-14.2,1-17.4-11.1-16.4
			c-0.2,0-0.4-0.1-0.5,0c-1.1,1.3-3.2,2.7-3.1,3.8c0.5,4.2-2.3,8.9,1.8,12.5c0.1,0.1,0.3,0.1,0.5,0.1
			C307.1,569.3,311.2,569.3,315.2,569.3z M287.1,569.3c8.6-0.1,8,1.2,8-7.9c0-9.4,0.9-8.6-8.4-8.6c-7.5,0-7.5,0-7.5,8.5
			C279.3,570.5,278.6,569.2,287.1,569.3z M350.7,618.4c-8.8,0.1-8.2-0.9-8.1,7.2c0,9.5-1.3,9.1,7.3,9.2c8.5,0,8.5,0,8.5-8
			C358.4,618.4,358.4,618.4,350.7,618.4z M258.8,612.8c4.5,0,8.3,0.1,12.2-0.1c1-0.1,2.6-1.2,2.7-2c0.3-4,0.3-8,0-12
			c-0.1-0.8-1.7-1.9-2.7-2c-11.4-2-12.9-0.6-12.6,11.1C258.4,609.2,258.6,610.7,258.8,612.8z M308.3,612.8c8.2-0.1,7.8,1.3,7.8-8.1
			c0-8.2,0-8.2-7.4-8.2c-8.3,0-8.3,0-8.3,8.2C300.5,613.6,299.6,612.7,308.3,612.8z M259.2,618.4c-3.4,14-0.9,17.5,11.1,16.3
			c0.3,0,0.9,0.1,0.9-0.1c0.9-1.8,2.7-3.7,2.5-5.4c-0.5-3.6,2.5-8.1-2.1-10.7c-0.1-0.1-0.3,0-0.5,0
			C267.1,618.4,263.1,618.4,259.2,618.4z M300.4,626.1c0,8.6,0,8.6,7.5,8.6c8.2,0,8.2,0,8.2-7.8c0-8.5,0-8.6-7-8.5
			C299.8,618.4,300.5,617.2,300.4,626.1z"/>
	</g>
	<g>
		<path class="st6" d="M223.4,297.2c2.8-11.2-4.9-14.8-16.4-14.8c-10.3,0-31,1.3-36.5,1.6c-0.7,0-1.1,0.1-1.3,0.1
			c-1.6,0,25.5,23.8,39.4,23C218.6,306.5,221.8,303.8,223.4,297.2z"/>
		<path class="st6" d="M170,284.9c0,0,37.8,11.5,52.6,13.1"/>
	</g>
	<g>
		<path class="st7" d="M223,267.3c4.2-8.4-1.4-12.6-10.5-14.6c-8.2-1.8-24.8-4.3-29.3-5.1c-0.5-0.1-0.9-0.2-1-0.2
			c-1.3-0.3,16.1,23.4,27.4,25.1C217.5,273.8,220.5,272.2,223,267.3z"/>
		<path class="st7" d="M182.6,248.2c0,0,28.1,15.7,39.5,19.6"/>
	</g>
	<path class="st8" d="M258.5,368.7c0,0-27-32.8-29-47.2c-2.1-14.4-6.2-61.7,4.1-80.2"/>
	<g>
		<path class="st9" d="M230.8,243.8c3.8-3.7,1.6-7-2.9-9.8c-4-2.5-12.5-7-14.7-8.2c-0.3-0.1-0.5-0.3-0.5-0.3
			c-0.6-0.4,4.2,15.5,9.9,18.6C226.7,246.3,228.6,246,230.8,243.8z"/>
		<path class="st9" d="M212.8,226c0,0,12.1,13.7,17.5,17.9"/>
	</g>
	<g>
		<path class="st10" d="M231.5,340c3.5-14-6.2-18.5-20.6-18.5c-12.8,0-38.7,1.6-45.7,2c-0.8,0-1.4,0.1-1.6,0.1
			c-2.1,0,31.9,29.8,49.3,28.8C225.5,351.6,229.4,348.2,231.5,340z"/>
		<path class="st10" d="M164.7,324.5c0,0,47.3,14.4,65.8,16.4"/>
	</g>
	<path class="st11" d="M241.8,342c-6.7-11.1,0-26.7,10.3-26.7c10.3,0,49.3,0,51.4-2.1s-20.6,26.7-32.9,30.8
		C258.2,348.2,247.9,352.3,241.8,342z"/>
	<path class="st12" d="M242.3,331.2c-4.6,0.3,3.4-10.5,9.4-13c6-2.5,35-0.4,35-0.4s-12.1,4.5-14.1,5.1c-2.1,0.6-14.1,5.1-14.1,5.1
		S252.5,330.5,242.3,331.2z"/>
	<path class="st11" d="M230,301.8c-4.1-9.1,2.4-20.3,10.2-19.4s37.5,4.4,39.2,3c1.7-1.4-18,18.5-27.7,20.5
		C241.9,307.9,233.8,310.1,230,301.8z"/>
	<path class="st12" d="M231.4,293.7c-3.5-0.2,3.5-7.7,8.3-9.1s26.6,2.8,26.6,2.8s-9.6,2.4-11.1,2.6c-1.6,0.3-11.1,2.6-11.1,2.6
		S239.2,294,231.4,293.7z"/>
	<path class="st11" d="M229.8,271.9c-3.4-7.6,2-17,8.5-16.2s31.3,3.7,32.8,2.5c1.5-1.2-15,15.5-23.2,17.1S233,278.9,229.8,271.9z"/>
	<path class="st12" d="M230.9,265.1c-2.9-0.1,2.9-6.5,6.9-7.6s22.3,2.3,22.3,2.3s-8,2-9.3,2.2c-1.4,0.3-9.3,2.2-9.3,2.2
		S237.5,265.4,230.9,265.1z"/>
	<path class="st10" d="M237.6,245.1c-2.1-4.6,1.2-10.4,5.2-9.9s19.2,2.2,20.1,1.5s-9.2,9.5-14.2,10.5S239.5,249.4,237.6,245.1z"/>
	<path class="st12" d="M238.3,240.9c-1.8-0.1,1.8-4,4.2-4.7c2.5-0.7,13.7,1.4,13.7,1.4s-4.9,1.2-5.7,1.4s-5.7,1.4-5.7,1.4
		S242.3,241.1,238.3,240.9z"/>
	<path class="st13" d="M334.3,354.3v32.9c0,2.3-1.8,4.1-4.1,4.1l-106.5,0.1C223.7,391.4,260.3,348.2,334.3,354.3z"/>
	<path class="st12" d="M147.2,354.3v32.8c0,2.3,1.9,4.2,4.2,4.2h147.9C299.3,391.3,266.4,358.5,147.2,354.3z"/>
	<g>
		<path class="st13" d="M373.2,253.1H373v36.2h-6.8v-45.5h7.8l29.2,36.2h0.1v-36.2h6.8v45.5h-7.8L373.2,253.1z"/>
		<path class="st13" d="M420.2,243.8h6.8v29.1c0,8.2,5.5,11.7,13.8,11.7s13.8-3.4,13.8-11.7v-29.1h6.8v28.3
			c0,12.2-6.8,18.3-20.6,18.3s-20.6-6.2-20.6-18.3L420.2,243.8L420.2,243.8z"/>
		<path class="st13" d="M483.3,249.6h-17.2v-5.9h41.1v5.9H490v39.6h-6.8v-39.6H483.3z"/>
		<path class="st13" d="M512.5,243.8h28.2c9.1,0,12.4,6.3,12.4,12.1c0,5.5-2.7,9.6-7.6,11.2v0.1c4,0.6,6.4,4.3,6.6,9.7
			c0.4,8.5,0.6,10.6,2.2,12.4h-7.1c-1.1-1.3-1.1-3.2-1.4-8.7c-0.4-8.2-3.2-10.6-8.8-10.6h-17.6v19.3h-6.8v-45.5H512.5z M538.1,264.1
			c6.6,0,8.2-4,8.2-7.2c0-4.3-2.6-7.3-8-7.3h-19v14.5L538.1,264.1L538.1,264.1z"/>
		<path class="st13" d="M561.2,243.8h6.8v45.5h-6.8V243.8z"/>
		<path class="st13" d="M590.7,249.6h-17.2v-5.9h41.1v5.9h-17.2v39.6h-6.8v-39.6H590.7z"/>
		<path class="st13" d="M620.1,243.8h6.8v45.5h-6.8V243.8z"/>
		<path class="st13" d="M660.1,242.6c18.3,0,25.3,12.2,25.3,23.9c0,11.7-7,23.9-25.3,23.9s-25.3-12.2-25.3-23.9
			C634.8,254.9,641.8,242.6,660.1,242.6z M660.1,248.5c-10.4,0-18.5,6-18.5,18s8.2,18,18.5,18c10.4,0,18.5-6,18.5-18
			S670.5,248.5,660.1,248.5z"/>
		<path class="st13" d="M699.8,253.1L699.8,253.1l-0.1,36.2h-6.8v-45.5h7.8l29.2,36.2h0.1v-36.2h6.8v45.5H729L699.8,253.1z"/>
		<path class="st13" d="M369,337.1v2.2c0,6.1,3.3,9.1,9,9.1c5.5,0,8.4-3.2,8.4-9v-32.2h6.8V338c0,11.8-6.4,15.8-15,15.8
			c-15.2,0-15.5-10.7-15.5-16.6L369,337.1L369,337.1z"/>
		<path class="st13" d="M425.4,305.9c18.3,0,25.3,12.2,25.3,23.9c0,11.7-7,23.9-25.3,23.9s-25.3-12.2-25.3-23.9
			C400.1,318.2,407.1,305.9,425.4,305.9z M425.4,311.8c-10.4,0-18.5,6-18.5,18s8.2,18,18.5,18c10.4,0,18.5-6,18.5-18
			S435.8,311.8,425.4,311.8z"/>
		<path class="st13" d="M457.9,307.1h6.8v29.1c0,8.2,5.5,11.7,13.8,11.7s13.8-3.4,13.8-11.7v-29.1h6.8v28.3
			c0,12.2-6.8,18.3-20.6,18.3s-20.6-6.2-20.6-18.3L457.9,307.1L457.9,307.1z"/>
		<path class="st13" d="M508.9,307.1h28.2c9.1,0,12.4,6.3,12.4,12.1c0,5.5-2.7,9.6-7.6,11.2v0.1c4,0.6,6.4,4.3,6.6,9.7
			c0.4,8.5,0.6,10.6,2.2,12.4h-7.1c-1.1-1.3-1.1-3.2-1.4-8.7c-0.4-8.2-3.2-10.6-8.8-10.6h-17.6v19.3H509v-45.5H508.9z M534.5,327.4
			c6.6,0,8.2-4,8.2-7.2c0-4.3-2.6-7.3-8-7.3h-19v14.5H534.5z"/>
		<path class="st13" d="M564.2,316.4H564v36.2h-6.8v-45.5h7.8l29.2,36.2h0.1v-36.2h6.8v45.5h-7.8L564.2,316.4z"/>
		<path class="st13" d="M641.5,339.3h-22.3l-5.8,13.2h-7.3l20.6-45.5h7.7l20.6,45.5h-7.7L641.5,339.3z M630.3,313.3l-8.5,20.1H639
			L630.3,313.3z"/>
		<path class="st13" d="M659.9,307.1h6.8v39.6h27.6v5.9h-34.4L659.9,307.1L659.9,307.1z"/>
	</g>
	<g>
		<path d="M378.3,133.3c0-3.1,0.4-5.8,1.2-8.2c0.8-2.4,2.2-4.6,4.1-6.7c1.9-2,3.5-3.5,4.8-4.5s3.2-2.4,6-4.2
			c0.3-0.2,0.6-0.4,0.7-0.5c2.7-1.9,4.7-3.4,6.1-4.5c1.3-1.1,2.3-2.4,3-3.7s1-2.9,1-4.7c0-2.5-0.9-4.4-2.7-5.7
			c-1.8-1.2-4.3-1.9-7.4-1.9c-1.8,0-3.6,0.2-5.6,0.5c-1.9,0.3-3.4,0.7-4.4,1.1l-1.5,0.5c-2.4-2-3.4-4.6-3.1-7.9
			c0.5-0.2,1.3-0.5,2.2-0.8c0.9-0.4,2.8-0.8,5.7-1.3s5.7-0.8,8.4-0.8c2.8,0,5.3,0.3,7.6,0.9c2.3,0.6,4.3,1.5,6.1,2.8
			c1.8,1.2,3.2,2.9,4.2,5s1.5,4.6,1.5,7.4c0,1.4-0.1,2.6-0.3,3.8c-0.2,1.2-0.5,2.3-0.9,3.3s-0.9,1.9-1.3,2.7
			c-0.4,0.8-1.1,1.6-1.9,2.5c-0.9,0.9-1.6,1.6-2.2,2.2s-1.6,1.3-2.8,2.2c-1.3,0.9-2.3,1.5-3.1,2.1c-0.8,0.5-2,1.3-3.7,2.2
			c-0.4,0.3-1.2,0.8-2.4,1.4s-2,1.2-2.6,1.5c-0.6,0.4-1.3,0.9-2.2,1.6c-0.9,0.7-1.6,1.3-2,1.9s-0.8,1.2-1.2,2
			c-0.4,0.8-0.5,1.6-0.5,2.5c0,0.3,0.1,0.7,0.2,1.3h25.1c0.7,1.3,1,2.9,1,4.8c0,1.7-0.3,3.4-1,4.9h-35.6
			C378.5,137.2,378.3,135.3,378.3,133.3z"/>
		<path d="M425.1,109.9c0-10.3,1.9-17.9,5.6-22.8c3.7-4.8,9.1-7.3,16.3-7.3c7.1,0,12.5,2.4,16.2,7.2c3.7,4.8,5.5,12.4,5.5,22.8
			s-1.8,18-5.5,22.8s-9.1,7.2-16.2,7.2c-7.2,0-12.6-2.4-16.3-7.2C427,127.9,425.1,120.3,425.1,109.9z M437.1,101.1
			c-0.3,2.5-0.5,5.4-0.5,8.8s0.2,6.3,0.5,8.8s0.7,4.5,1.3,6c0.6,1.5,1.3,2.8,2.2,3.7c0.9,0.9,1.8,1.5,2.8,1.9c1,0.3,2.2,0.5,3.6,0.5
			s2.6-0.2,3.6-0.5s1.9-1,2.8-1.9c0.9-0.9,1.6-2.1,2.1-3.7s0.9-3.6,1.2-6c0.3-2.5,0.4-5.4,0.4-8.8s-0.1-6.4-0.4-8.8
			c-0.3-2.5-0.7-4.5-1.2-6c-0.5-1.6-1.2-2.8-2.1-3.7c-0.9-0.9-1.8-1.5-2.8-1.9S448.4,89,447,89s-2.5,0.2-3.6,0.5c-1,0.3-2,1-2.8,1.9
			c-0.9,0.9-1.6,2.2-2.2,3.7C437.9,96.6,437.4,98.6,437.1,101.1z"/>
		<path d="M475.7,92.3c3.5-1,6.6-2.3,9-4s4.8-3.9,6.8-6.7c1.1-0.5,2.9-0.8,5.3-0.8c1.1,0,2,0.1,3,0.2c0.9,0.1,1.5,0.3,1.9,0.4
			l0.5,0.2v56.8c-1.1,0.5-2.9,0.8-5.4,0.8c-1,0-2-0.1-2.9-0.2c-0.9-0.1-1.6-0.3-2-0.4l-0.6-0.2v-32.8c0-3.9,0.1-7.4,0.4-10.7
			c-3.6,2.9-8.1,5-13.4,6.3c-1.1-1.1-1.8-2.4-2.3-4C475.5,95.5,475.4,93.9,475.7,92.3z"/>
		<path d="M512.1,92.3c3.5-1,6.6-2.3,9-4s4.8-3.9,6.8-6.7c1.1-0.5,2.9-0.8,5.3-0.8c1.1,0,2,0.1,3,0.2c0.9,0.1,1.5,0.3,1.9,0.4
			l0.5,0.2v56.8c-1.1,0.5-2.9,0.8-5.4,0.8c-1,0-2-0.1-2.9-0.2c-0.9-0.1-1.6-0.3-2-0.4l-0.6-0.2v-32.8c0-3.9,0.1-7.4,0.4-10.7
			c-3.6,2.9-8.1,5-13.4,6.3c-1.1-1.1-1.8-2.4-2.3-4C511.9,95.5,511.8,93.9,512.1,92.3z"/>
	</g>
	<line class="st14" x1="962.7" y1="694" x2="1795.8" y2="694"/>
</g>
</svg>
