<?xml version="1.0" encoding="utf-8"?>
<!-- Generator: Adobe Illustrator 23.0.3, SVG Export Plug-In . SVG Version: 6.00 Build 0)  -->
<svg version="1.1" id="Layer_1" xmlns="http://www.w3.org/2000/svg" xmlns:xlink="http://www.w3.org/1999/xlink" x="0px" y="0px"
	 viewBox="0 0 108.7 25.9" style="enable-background:new 0 0 108.7 25.9;" xml:space="preserve">
<style type="text/css">
	.st0{fill:#9B9B9B;}
</style>
<g id="pVAuCB_2_">
	<g>
		<path class="st0" d="M0.1,0c3,0,6,0,8.9,0c1.2,0,2.3,0,3.5,0c0,8.5,0,16.9,0,25.4c-4.2,0-8.3,0-12.5,0C0.1,16.9,0.1,8.5,0.1,0z"/>
		<path class="st0" d="M62.1,25.8c-0.3-0.1-0.5-0.1-0.8-0.2c-1.4-0.4-2.3-1.3-2.8-2.6c-0.6-1.7-0.7-3.5-0.1-5.2
			c0.7-2.1,2.6-3.3,4.8-3.1c1.5,0.1,2.7,0.6,3.5,1.9c0.3,0.5,0.4,1,0.7,1.6c-0.5,0-0.9,0-1.3,0c-0.1,0-0.2-0.1-0.2-0.2
			c-0.4-1.6-1.8-2-3.1-2c-1.3,0-2.5,0.9-3,2.2c-0.5,1.5-0.5,3,0.1,4.4c0.5,1.3,1.6,2,3.1,2c1.3,0,2.3-0.7,2.8-2
			c0.1-0.3,0.2-0.6,0.3-0.9c0.5,0,0.9,0,1.3,0c-0.1,2.1-1.6,3.8-3.7,4.1c-0.1,0-0.2,0.1-0.3,0.1C62.9,25.8,62.5,25.8,62.1,25.8z"/>
		<path class="st0" d="M37.8,25.4c0-8.5,0-16.9,0-25.3c4.1,0,8.2,0,12.4,0c0,8.4,0,16.9,0,25.3C46.1,25.4,42,25.4,37.8,25.4z"/>
		<path class="st0" d="M19.7,19.1c0.2-0.5,0.3-1,0.5-1.4s0.1-0.7-0.3-1c-1.3-1.1-2.6-2.3-3.9-3.4c-0.1-0.1-0.2-0.2-0.4-0.4
			c0.2-0.1,0.4-0.2,0.6-0.3c0.4-0.2,0.5-0.5,0.4-0.9c-0.3-0.9-0.5-1.8-0.8-2.7c0.8,0.2,1.5,0.3,2.2,0.4c0.4,0.1,0.6-0.1,0.7-0.4
			c0.2-0.4,0.3-0.8,0.5-1.2c0.6,0.7,1.1,1.3,1.7,1.9c0.2,0.2,0.4,0.5,0.6,0.6s0.5,0.2,0.6,0.1s0.2-0.4,0.2-0.6c-0.3-1.7-0.7-3.3-1-5
			c0-0.1,0-0.2,0-0.3c0.5,0.3,0.9,0.6,1.4,0.8c0.6,0.4,0.8,0.3,1.1-0.3c0.5-0.9,0.9-1.8,1.4-2.8c0-0.1,0.1-0.2,0.2-0.3
			c0.3,0.7,0.6,1.3,1,1.9c0.2,0.5,0.5,0.9,0.7,1.4c0.2,0.4,0.4,0.5,0.8,0.2c0.5-0.3,1-0.6,1.6-0.9c-0.3,1.3-0.5,2.6-0.8,3.9
			c-0.1,0.4-0.2,0.9-0.3,1.3c-0.1,0.3-0.1,0.6,0.2,0.8c0.3,0.2,0.5-0.1,0.7-0.3c0.6-0.6,1.2-1.3,1.7-1.9c0.1-0.1,0.3-0.3,0.4-0.5
			c0.2,0.5,0.4,0.9,0.5,1.3c0.1,0.3,0.3,0.5,0.7,0.4c0.7-0.2,1.4-0.3,2.1-0.4c-0.2,0.8-0.4,1.5-0.6,2.3c0,0.1-0.1,0.3-0.1,0.4
			c-0.1,0.4,0,0.7,0.4,0.9c0.2,0.1,0.3,0.2,0.6,0.3c-0.9,0.8-1.7,1.5-2.5,2.2c-0.6,0.5-1.2,1.1-1.9,1.6c-0.3,0.3-0.4,0.5-0.3,0.9
			c0.2,0.5,0.3,0.9,0.5,1.5c-0.6-0.1-1.2-0.2-1.8-0.4c-0.8-0.2-1.7-0.3-2.5-0.5c-0.6-0.1-0.8,0.1-0.8,0.7c0,1.5,0.1,2.9,0.2,4.5
			c-0.3,0-0.6,0-1,0c0-0.4,0-0.8,0-1.2c0-1.1,0.1-2.2,0.1-3.3c0-0.6-0.3-0.8-0.8-0.7c-1.3,0.3-2.5,0.5-3.8,0.8
			C20.1,19.1,19.9,19.1,19.7,19.1z"/>
		<path class="st0" d="M66.9,0.1c0,3.5,0,7,0,10.6c-0.5,0-0.9,0-1.4,0c0-1.6,0-3.2,0-4.9c-1.9,0-3.7,0-5.5,0c0,1.6,0,3.2,0,4.9
			c-0.5,0-0.9,0-1.4,0c0-3.5,0-7,0-10.6c0.5,0,0.9,0,1.4,0c0,1.4,0,2.9,0,4.3c1.8,0,3.7,0,5.5,0c0-1.4,0-2.9,0-4.3
			C65.9,0.1,66.4,0.1,66.9,0.1z"/>
		<path class="st0" d="M100,14.9c0,3.5,0,7,0,10.6c-0.4,0-0.8,0-1.2,0c0-0.3,0-0.6,0-0.9c-0.1,0-0.1,0-0.1,0
			c-0.9,1.6-3.8,1.5-4.8-0.4c-0.8-1.5-1-3.1-0.3-4.8c0.8-2.2,3.8-2.6,5.2-0.6c0-0.7,0-1.4,0-2s0-1.3,0-1.9
			C99.1,14.9,99.5,14.9,100,14.9z M94.4,21.4c0.1,0.6,0.2,1.2,0.3,1.7c0.3,0.9,1,1.4,1.8,1.4c0.9,0,1.7-0.5,1.9-1.4
			c0.3-1.2,0.3-2.3-0.2-3.4c-0.3-0.7-1-1-1.8-1S95,19,94.7,19.8C94.6,20.3,94.5,20.9,94.4,21.4z"/>
		<path class="st0" d="M108.6,24.5C108.6,24.6,108.6,24.6,108.6,24.5c0,0.4,0.3,0.8-0.3,1c-0.7,0.2-1.5,0-1.7-0.6
			c-0.1-0.1-0.1-0.3-0.1-0.5c-0.1,0.1-0.2,0.2-0.3,0.3c-0.8,0.8-1.8,1-2.9,0.9c-1.2-0.2-1.9-1-1.9-2.2c0-1.3,0.7-2.2,2-2.4
			c0.7-0.1,1.5-0.2,2.2-0.3s0.9-0.2,1-0.7c0.1-0.6-0.2-1.1-0.8-1.3c-0.6-0.1-1.2-0.1-1.7-0.1c-0.5,0.1-0.8,0.5-1,0.9
			c0,0.1-0.1,0.3-0.1,0.4c-0.4,0-0.8,0-1.1,0c-0.2-0.7,0.2-1.6,0.9-2c1.1-0.7,3.2-0.7,4.3,0c0.6,0.4,0.8,0.9,0.8,1.6
			c0,1.3,0,2.6,0,3.9C107.8,24.5,107.8,24.5,108.6,24.5z M106.5,21.6c-0.7,0.1-1.3,0.2-1.9,0.3c-0.3,0.1-0.7,0.1-1,0.2
			c-0.6,0.2-0.9,0.6-0.9,1.2c0.1,0.7,0.4,1,1.1,1.1s1.4-0.1,2-0.5c0.4-0.3,0.7-0.7,0.7-1.2C106.5,22.4,106.5,22,106.5,21.6z"/>
		<path class="st0" d="M84,9.8L84,9.8c0,0.4,0.3,0.9-0.3,1c-0.8,0.2-1.5,0-1.7-0.6c-0.1-0.1-0.1-0.3-0.1-0.5
			c-0.1,0.1-0.3,0.2-0.4,0.3c-0.9,0.8-2,1-3.2,0.7c-1-0.2-1.5-1-1.6-1.9c-0.1-1.1,0.4-2,1.3-2.3c0.7-0.2,1.4-0.3,2.1-0.4
			C80.4,6,80.7,6,80.9,6c0.4,0,0.7-0.1,0.9-0.5c0.1-0.5,0.1-0.9-0.3-1.3c-1-0.9-2.8-0.4-3.2,0.9c0,0.1,0,0.1-0.1,0.2
			c-0.4,0-0.8,0-1.1,0c-0.1-0.9,0.3-1.7,1.1-2.1c1.2-0.6,2.5-0.6,3.8,0c0.8,0.3,1.1,1,1.1,1.8c0,1.4,0,2.7,0,4.1
			C83.2,9.8,83.2,9.8,84,9.8z M81.9,6.9c-0.6,0.1-1.1,0.2-1.6,0.3c-0.4,0.1-0.9,0.1-1.3,0.3c-0.6,0.2-0.9,0.6-0.8,1.2s0.4,1,1,1.1
			c0.8,0.1,1.6-0.1,2.2-0.7c0.2-0.3,0.4-0.6,0.5-1C81.9,7.7,81.9,7.3,81.9,6.9z"/>
		<path class="st0" d="M92.2,24.5C92.2,24.6,92.2,24.6,92.2,24.5c0,0.4,0.3,0.9-0.2,1c-0.7,0.2-1.4,0-1.6-0.5
			c-0.1-0.1-0.1-0.3-0.2-0.5c-0.1,0.1-0.2,0.2-0.3,0.2c-0.9,0.8-2,1.1-3.2,0.8c-1-0.2-1.6-1-1.7-1.9c-0.1-1.2,0.4-2.1,1.4-2.5
			c0.8-0.2,1.7-0.3,2.6-0.5c0.1,0,0.2,0,0.3,0c0.4,0,0.8-0.1,0.9-0.6s-0.1-1-0.5-1.3c-0.7-0.4-1.5-0.4-2.3-0.1
			c-0.5,0.2-0.7,0.7-0.8,1.3c-0.4,0-0.8,0-1.2,0c-0.1-1,0.4-1.9,1.4-2.3c1.1-0.4,2.3-0.4,3.4,0c0.9,0.4,1.2,1.1,1.2,2
			c0,1.3,0,2.6,0,3.9C91.4,24.5,91.4,24.5,92.2,24.5z M90,21.7c-0.7,0.1-1.5,0.2-2.2,0.4c-0.3,0.1-0.6,0.1-0.9,0.3
			c-0.5,0.2-0.7,0.6-0.6,1.2c0.1,0.6,0.4,0.9,0.9,1.1C89,24.9,90.4,23.6,90,21.7z"/>
		<path class="st0" d="M75.8,24.5c0.1,1,0,1.1-1,1.1c-0.6-0.1-1-0.4-1.1-1.1c-0.2,0.1-0.3,0.2-0.4,0.3c-0.9,0.8-2,1-3.2,0.7
			c-0.9-0.2-1.5-0.9-1.6-1.8c-0.1-1.1,0.3-2,1.2-2.4c0.6-0.3,1.4-0.3,2.1-0.5c0.3-0.1,0.7-0.1,1-0.1s0.7-0.1,0.8-0.5
			c0.1-0.5,0.1-0.9-0.2-1.2c-0.9-0.9-2.8-0.5-3.2,0.8c0,0.1-0.2,0.2-0.3,0.2c-0.3,0-0.6,0-0.9,0c-0.1-0.9,0.4-1.9,1.3-2.2
			c1.2-0.5,2.4-0.5,3.6,0c0.7,0.3,1.1,0.9,1.1,1.8c0,1.3,0,2.7,0,4C75,24.5,75,24.5,75.8,24.5z M73.6,21.6c-0.3,0.1-0.6,0.1-0.9,0.2
			c-0.3,0.1-0.6,0.1-0.9,0.1C71.4,22,71,22,70.6,22.2c-0.6,0.2-0.8,0.6-0.8,1.2c0,0.6,0.4,1,1,1.1C72.7,24.9,74,23.5,73.6,21.6z"/>
		<path class="st0" d="M75.5,8.2c-0.1,1.1-1,2.3-2.1,2.5c-0.7,0.2-1.4,0.2-2.1,0.1c-1-0.1-1.8-0.7-2.2-1.7c-0.8-1.8-0.7-3.6,0.5-5.2
			c1.5-2,4.8-1.5,5.7,0.9c0.3,0.7,0.3,1.6,0.5,2.4c-2,0-3.8,0-5.7,0c-0.2,1,0.4,2.1,1.3,2.4c1.1,0.4,2.3,0,2.7-1
			c0.2-0.4,0.3-0.5,0.7-0.4C75,8.3,75.2,8.2,75.5,8.2z M74.2,6.2c0-1.4-0.8-2.3-2.1-2.2c-1.2,0-2.2,1.1-2.1,2.2
			C71.4,6.2,72.8,6.2,74.2,6.2z"/>
		<path class="st0" d="M99,10.7c-0.4,0-0.8,0-1.3,0c0-0.2,0-0.3,0-0.5c0-1.5,0-3,0-4.5c0-0.3,0-0.6-0.1-0.9
			c-0.1-0.5-0.4-0.7-0.9-0.8c-1.4-0.3-2.6,0.6-2.6,2.1c-0.1,1.3,0,2.7,0,4c0,0.2,0,0.3,0,0.6c-0.4,0-0.8,0-1.3,0c0-3.5,0-7,0-10.6
			c0.4,0,0.8,0,1.3,0c0,1.2,0,2.5,0,3.7l0.1,0.1c0.1-0.1,0.1-0.2,0.2-0.3c0.9-1,2.4-1.1,3.5-0.5c0.6,0.4,1,1,1,1.7
			C99,6.8,99,8.7,99,10.7z"/>
		<path class="st0" d="M78.5,25.4c-0.4,0-0.8,0-1.3,0c0-2.6,0-5.1,0-7.7c0.4,0,0.8,0,1.2,0c0,0.3,0,0.6,0,1c0.2-0.2,0.3-0.3,0.3-0.4
			c1.1-1.3,3.2-1,3.9-0.3c0.5,0.4,0.7,1,0.8,1.6c0,1.9,0,3.8,0,5.7c-0.4,0-0.8,0-1.3,0c0-0.2,0-0.3,0-0.5c0-1.4,0-2.8,0-4.2
			c0-0.1,0-0.3,0-0.4c0-0.9-0.3-1.4-1-1.6c-0.8-0.2-1.7,0-2.1,0.7c-0.3,0.4-0.5,1-0.5,1.5c-0.1,1.3,0,2.6,0,3.9
			C78.5,25,78.5,25.2,78.5,25.4z"/>
		<path class="st0" d="M91.5,3c0,0.4,0,0.7,0,1.1c-0.4,0-0.8,0-1.2,0c0,0.7,0,1.3,0,1.9c0,1,0,1.9,0,2.9c0,0.7,0.1,0.8,0.8,0.8
			c0.1,0,0.2,0,0.4,0c0,0.3,0,0.6,0,1c-0.4,0-0.8,0.1-1.3,0.1c-0.8,0-1.3-0.6-1.3-1.5c0-1.6,0-3.2,0-4.7c0-0.2,0-0.3,0-0.5
			c-0.4,0-0.7,0-1,0c0-0.4,0-0.7,0-1.1c0.3,0,0.7,0,1,0c0-0.7,0-1.4,0-2.1c0.4,0,0.9,0,1.3,0c0,0.7,0,1.4,0,2.1
			C90.7,3,91.1,3,91.5,3z"/>
		<path class="st0" d="M86.7,10.7c-0.4,0-0.8,0-1.3,0c0-3.5,0-7,0-10.6c0.4,0,0.8,0,1.3,0C86.7,3.6,86.7,7.1,86.7,10.7z"/>
	</g>
</g>
</svg>
