<?xml version="1.0" encoding="utf-8"?>
<!-- Generator: Adobe Illustrator 23.0.3, SVG Export Plug-In . SVG Version: 6.00 Build 0)  -->
<svg version="1.1" id="Layer_1" xmlns="http://www.w3.org/2000/svg" xmlns:xlink="http://www.w3.org/1999/xlink" x="0px" y="0px"
	 viewBox="0 0 56 45.4" style="enable-background:new 0 0 56 45.4;" xml:space="preserve">
<style type="text/css">
	.st0{fill:#9B9B9B;}
</style>
<g id="QQxwRe_2_">
	<g>
		<path class="st0" d="M0,44.9c0.1-0.1,0.1-0.2,0.1-0.3c0-0.2,0.1-0.4,0.1-0.6c0-0.1,0-0.3,0.1-0.4v-0.1c0-0.1,0-0.3,0.1-0.4
			c0.1-0.2,0.1-0.5,0.2-0.7c0.1-0.2,0.1-0.5,0.1-0.8c0-0.1,0-0.2,0.1-0.4s0.1-0.5,0.2-0.7c0-0.2,0-0.3,0.1-0.5
			c0-0.2,0.1-0.4,0.2-0.7c0-0.1,0-0.3,0.1-0.4c0.1-0.2,0.1-0.4,0.1-0.6c0-0.1,0-0.1,0-0.2c0-0.1,0.1-0.2,0.1-0.3s0-0.2,0.1-0.3
			c0-0.1,0-0.2,0.1-0.2c0-0.1,0-0.2,0-0.3C1.9,36.7,2,36.5,2,36.2s0.1-0.7,0.2-1c0-0.1,0.1-0.1,0.1-0.2c0-0.3,0.2-0.6,0.2-1
			c0-0.1,0-0.1,0-0.2c0-0.2,0.1-0.4,0.1-0.6c0-0.1,0-0.2,0.1-0.2c0-0.3,0.1-0.6,0.1-0.9c0,0,0,0,0-0.1s0.1-0.2,0.1-0.3
			s0-0.2,0.1-0.2c0-0.1,0.1-0.2,0.1-0.3c0-0.3,0.1-0.6,0.1-0.9v-0.1c0-0.1,0-0.2,0.1-0.3c0-0.3,0.1-0.5,0.1-0.8l0,0
			c0-0.1,0.1-0.3,0.1-0.4s0-0.1,0-0.2s0.1-0.1,0.1-0.2c0-0.3,0-0.5,0.2-0.8s0.1-0.6,0.2-1c0-0.2,0.1-0.3,0.1-0.5
			c0-0.1,0-0.2,0.1-0.3c0-0.1,0-0.3,0.1-0.4c0-0.1,0-0.2,0.1-0.3c0-0.2,0.1-0.5,0.2-0.7c0.1-0.2,0.1-0.3,0.1-0.5v-0.1
			c0.1-0.2,0.1-0.4,0.2-0.6C4.9,23,5,22.9,5,22.8c0-0.3,0.2-0.5,0.1-0.8l0,0c0.1-0.1,0.1-0.2,0.1-0.4c0-0.1,0-0.2,0-0.2
			c0.1-0.2,0.2-0.4,0.1-0.6v-0.1c0-0.1,0.1-0.2,0.1-0.3c0-0.1,0-0.2,0-0.3c0-0.2,0.1-0.4,0.1-0.6s0.1-0.5,0.1-0.7
			c0-0.1,0-0.2,0.1-0.4c0-0.1,0-0.1,0-0.2S5.8,18,5.8,18c0-0.2,0-0.4,0.1-0.6v-0.1c0-0.2,0.1-0.5,0.1-0.7c0.1-0.2,0.1-0.4,0.1-0.6
			v-0.1c0.1-0.1,0.1-0.3,0.1-0.5v-0.1c0.1-0.3,0.2-0.7,0.3-1c0-0.1,0.1-0.2,0.1-0.3c0-0.2,0-0.3,0.1-0.5c0.1-0.1,0.1-0.3,0.1-0.4
			c0-0.2,0.1-0.3,0.1-0.5c0-0.1,0-0.1,0-0.2c0-0.2,0.1-0.3,0.1-0.5s0.1-0.5,0.1-0.7s0.1-0.3,0.1-0.5s0.2-0.4,0.2-0.7
			c0-0.1,0-0.3,0.1-0.4V9.5c0-0.2,0-0.3,0.1-0.5V8.9c0-0.1,0-0.3,0.1-0.4c0-0.1,0-0.2,0.1-0.4c0-0.2,0.1-0.5,0.1-0.7c0,0,0,0,0-0.1
			S8,7.1,8,7.1c0.1-0.3,0.1-0.6,0.2-0.9c0-0.2,0.1-0.5,0.1-0.7S8.4,5,8.4,4.8l0,0c0.1-0.3,0.1-0.6,0.2-0.9c0.1-0.3,0.1-0.5,0.1-0.8
			c0-0.2,0.1-0.3,0.1-0.5V2.5c0.1-0.1,0.1-0.3,0.1-0.4c0-0.1,0-0.1,0-0.2c0.1-0.3,0.3-0.6,0.2-1V0.8c0-0.2,0.1-0.4,0.1-0.6
			c2.2,0,4.3,0,6.5,0c0,0.1,0,0.1-0.1,0.2c-0.1,0.2-0.2,0.5-0.3,0.7c-0.1,0.1-0.1,0.3-0.2,0.4C15,1.7,15,1.8,14.9,2
			c-0.1,0.3-0.1,0.6-0.3,0.9c-0.2,0.4-0.2,0.8-0.4,1.2c-0.1,0.3-0.2,0.6-0.3,0.8c-0.1,0.2-0.2,0.3-0.1,0.5v0.1
			c-0.1,0.2-0.1,0.4-0.2,0.6v0.1c0,0.1,0,0.1-0.1,0.2c0,0.1,0,0.1-0.1,0.2c-0.1,0.2-0.1,0.3-0.2,0.5c0,0.1,0,0.1-0.1,0.2
			S13,7.6,12.9,7.7c-0.1,0.2-0.1,0.4-0.1,0.5l0,0c-0.1,0.1-0.1,0.3-0.2,0.4c-0.1,0.3-0.2,0.6-0.3,0.9c-0.1,0.3-0.2,0.5-0.3,0.8
			c0,0.1-0.1,0.2-0.1,0.3c-0.1,0.2-0.1,0.3-0.1,0.5c-0.1,0.2-0.2,0.4-0.2,0.7c0,0,0,0,0,0.1c-0.1,0.2-0.1,0.3-0.2,0.5
			c-0.1,0.2-0.1,0.4-0.2,0.6c-0.1,0.2-0.2,0.4-0.2,0.6c0,0.1-0.1,0.3-0.1,0.4c-0.1,0.3-0.2,0.6-0.3,0.9c0,0,0,0,0,0.1s0,0.1-0.1,0.2
			v0.1c-0.1,0.2-0.1,0.3-0.2,0.5c-0.1,0.2-0.1,0.3-0.2,0.5c-0.1,0.2-0.1,0.4-0.2,0.5c-0.1,0.3-0.2,0.6-0.3,0.8
			c-0.1,0.2-0.2,0.5-0.3,0.7S9.1,18.8,9.1,19c0,0.1-0.1,0.2-0.1,0.3c-0.1,0.2-0.1,0.4-0.1,0.6c0,0,0,0,0,0.1
			c-0.1,0.3-0.2,0.5-0.3,0.8c-0.1,0.1-0.1,0.3-0.1,0.4c-0.1,0.4-0.3,0.8-0.4,1.3c-0.1,0.4-0.3,0.7-0.4,1.1c-0.1,0.2-0.1,0.5-0.2,0.7
			c0,0,0,0,0,0.1c-0.2,0.2-0.2,0.5-0.3,0.8C7,25.6,6.9,26,6.8,26.4c-0.1,0.2-0.2,0.4-0.3,0.7c-0.1,0.2-0.1,0.4-0.1,0.6
			c-0.1,0.3-0.3,0.7-0.4,1c-0.1,0.2-0.1,0.5-0.2,0.7c-0.1,0.2-0.1,0.3-0.2,0.5c-0.1,0.1-0.2,0.3-0.2,0.4s0,0.3-0.1,0.4
			c-0.2,0.3-0.2,0.7-0.4,1.1c0,0,0,0,0,0.1c0,0.2,0,0.3-0.1,0.4c-0.2,0.3-0.3,0.7-0.4,1c-0.1,0.2-0.1,0.4-0.1,0.5v0.1
			c-0.1,0.1-0.1,0.3-0.2,0.4c-0.1,0.3-0.2,0.5-0.3,0.8v0.1c-0.1,0.2-0.1,0.4-0.2,0.7c-0.1,0.3-0.2,0.5-0.3,0.8S3.1,37.3,3,37.6
			c-0.1,0.2-0.2,0.5-0.2,0.7c0,0,0,0,0,0.1c-0.1,0.2-0.1,0.3-0.2,0.5c-0.1,0.2-0.1,0.4-0.2,0.7c-0.1,0.1-0.1,0.3-0.2,0.4
			c-0.1,0.2-0.1,0.4-0.2,0.7c-0.1,0.2-0.1,0.4-0.2,0.6c0,0.2-0.1,0.3-0.1,0.5c-0.1,0.3-0.2,0.5-0.3,0.8c-0.1,0.2-0.1,0.4-0.1,0.5
			v0.1c-0.1,0.1-0.1,0.3-0.2,0.4c-0.1,0.3-0.2,0.6-0.3,0.8c0,0.1,0,0.2-0.1,0.3c-0.1,0.2-0.1,0.3-0.1,0.5c0,0,0.1,0.1,0.2,0.1
			l0.1-0.1C0.9,45.1,1,45.1,1,45c0-0.1,0.1-0.2,0.1-0.2c0.1-0.2,0.2-0.4,0.3-0.7c0.1-0.2,0.2-0.5,0.3-0.7c0.1-0.1,0.1-0.3,0.2-0.4
			c0.1-0.2,0.2-0.4,0.3-0.6c0.2-0.3,0.3-0.7,0.5-1C2.8,41.2,2.9,41,3,40.7c0.1-0.1,0.2-0.3,0.2-0.4c0.1-0.2,0.2-0.4,0.3-0.6
			c0,0,0-0.1,0.1-0.2c0.1-0.3,0.3-0.7,0.4-1c0.1-0.2,0.2-0.4,0.3-0.6c0.1-0.2,0.2-0.5,0.3-0.7s0.2-0.4,0.3-0.6
			c0.2-0.4,0.4-0.8,0.5-1.1c0-0.1,0.1-0.2,0.1-0.3c0.1-0.3,0.3-0.6,0.4-0.9c0.1-0.2,0.2-0.5,0.4-0.7c0.2-0.5,0.5-1,0.7-1.5
			c0.1-0.3,0.3-0.5,0.4-0.8c0.1-0.3,0.3-0.6,0.4-0.8c0.1-0.3,0.3-0.6,0.4-0.9c0-0.1,0.1-0.1,0.1-0.2c0.2-0.5,0.5-1,0.7-1.5
			c0-0.1,0.1-0.2,0.1-0.3c0.1-0.2,0.2-0.5,0.3-0.7c0.1-0.1,0.1-0.3,0.2-0.4c0.1-0.3,0.3-0.6,0.4-0.9c0.2-0.3,0.3-0.7,0.5-1
			c0.2-0.4,0.4-0.8,0.6-1.2c0.2-0.4,0.4-0.7,0.5-1.1c0.1-0.3,0.3-0.6,0.4-0.8c0.1-0.2,0.2-0.4,0.2-0.5s0.1-0.1,0.1-0.2
			c0.1-0.2,0.1-0.4,0.3-0.6c0.1-0.2,0.1-0.4,0.3-0.5c0.1-0.1,0.1-0.2,0.2-0.4c0.1-0.2,0.2-0.5,0.3-0.7c0.1-0.1,0.1-0.3,0.2-0.4
			c0.1-0.2,0.2-0.4,0.3-0.6c0.2-0.3,0.3-0.7,0.5-1.1c0.1-0.1,0.1-0.2,0.1-0.3c0.1-0.2,0.2-0.4,0.3-0.7c0.1-0.2,0.2-0.5,0.3-0.7
			s0.2-0.4,0.3-0.6c0-0.1,0.1-0.1,0.1-0.2c0.1-0.1,0.1-0.3,0.2-0.4c0.1-0.1,0.2-0.2,0.2-0.4c0.1-0.2,0.2-0.4,0.3-0.7
			c0.1-0.2,0.2-0.4,0.3-0.7s0.3-0.6,0.4-0.9c0.1-0.2,0.2-0.4,0.3-0.6c0-0.1,0.1-0.2,0.2-0.2c0,0,0-0.1,0.1-0.1
			c0.1-0.2,0.2-0.5,0.3-0.7s0.2-0.5,0.3-0.7c0-0.1,0.1-0.1,0.1-0.2c0.1-0.3,0.2-0.6,0.4-0.8c0,0,0.1-0.1,0.1-0.2
			c0-0.2,0.2-0.4,0.2-0.6s0.2-0.3,0.2-0.5c0.1-0.3,0.2-0.5,0.4-0.8s0.3-0.6,0.5-1c0.1-0.2,0.2-0.5,0.3-0.8c0.1-0.1,0.1-0.3,0.2-0.4
			c0.1-0.3,0.3-0.6,0.4-0.9C21,2.2,21.1,2,21.2,1.8c0.1-0.3,0.3-0.6,0.4-0.8c0-0.1,0.1-0.1,0.1-0.2s0.1-0.2,0.1-0.3
			C21.9,0.3,22,0.2,22,0c2.5,0,4.9,0,7.4,0c0,0.1-0.1,0.1-0.1,0.2c0,0,0,0.1-0.1,0.1c-0.2,0.3-0.5,0.6-0.6,1
			c-0.2,0.3-0.4,0.6-0.6,0.9c-0.2,0.4-0.5,0.7-0.7,1.1c-0.3,0.4-0.5,0.9-0.8,1.3c-0.1,0.2-0.3,0.5-0.5,0.7c-0.1,0.1-0.1,0.2-0.2,0.4
			c0,0,0,0,0,0.1c-0.2,0.3-0.4,0.6-0.6,0.9c-0.1,0.1-0.1,0.2-0.2,0.4c-0.2,0.3-0.4,0.6-0.6,0.9c-0.2,0.3-0.3,0.5-0.5,0.8
			c-0.2,0.4-0.4,0.7-0.7,1.1c-0.2,0.3-0.3,0.5-0.5,0.8s-0.3,0.6-0.5,0.8c-0.2,0.3-0.4,0.6-0.6,0.9c-0.1,0.1-0.1,0.1-0.3,0.1
			c-0.7,0-1.3,0-2,0c-0.3,0-0.4,0-0.4,0.4c0,1.1,0,2.3,0,3.4c0,0.3-0.1,0.5-0.3,0.7c-0.1,0.2-0.2,0.3-0.3,0.5c0,0.1-0.1,0.2-0.1,0.2
			c-0.2,0.3-0.4,0.5-0.5,0.8c-0.2,0.3-0.5,0.7-0.7,1c-0.1,0.1-0.1,0.2-0.2,0.4V20c-0.2,0.3-0.5,0.7-0.7,1c-0.1,0.2-0.2,0.3-0.4,0.5
			c0,0.1,0,0.1-0.1,0.2s-0.2,0.2-0.2,0.4c-0.1,0.2-0.2,0.4-0.3,0.5s-0.2,0.3-0.3,0.4c-0.2,0.2-0.3,0.5-0.5,0.7
			c-0.1,0.2-0.2,0.3-0.3,0.5s-0.2,0.4-0.3,0.5c-0.2,0.3-0.4,0.7-0.6,1c-0.2,0.3-0.4,0.7-0.7,1c-0.2,0.3-0.4,0.7-0.6,1
			c-0.2,0.4-0.5,0.7-0.7,1.1c-0.1,0.2-0.2,0.4-0.4,0.6v0.1c-0.1,0.2-0.2,0.3-0.4,0.3c-0.6,0-1.2,0-1.9,0c-0.2,0-0.2,0-0.2,0.2
			c0,1,0,2,0,3.1c0,0.3-0.1,0.5-0.2,0.7c-0.2,0.2-0.3,0.5-0.5,0.7c-0.1,0.2-0.3,0.4-0.4,0.6c-0.1,0.1-0.2,0.3-0.2,0.4
			c-0.1,0.2-0.2,0.3-0.3,0.5s-0.3,0.5-0.4,0.7C6.1,36.8,6,37,5.9,37.1c-0.2,0.2-0.3,0.5-0.5,0.7c-0.1,0.1-0.1,0.2-0.2,0.3
			C5,38.4,4.8,38.7,4.6,39c-0.2,0.3-0.4,0.7-0.6,1.1c-0.1,0.2-0.2,0.3-0.4,0.5c-0.1,0.2-0.2,0.3-0.3,0.5c-0.1,0.1-0.2,0.3-0.3,0.4
			c-0.1,0.1-0.2,0.3-0.3,0.4c-0.3,0.4-0.5,0.8-0.8,1.2c-0.1,0.2-0.3,0.4-0.4,0.6c-0.1,0.2-0.2,0.3-0.3,0.5c-0.3,0.4-0.5,0.8-0.8,1.2
			"/>
		<path class="st0" d="M36.6,28.3c-0.3,0-0.5,0-0.8,0s-0.6,0-0.8-0.1c-0.4-0.1-0.8-0.1-1.1-0.4c-0.1,0-0.2,0-0.2,0
			c-0.2-0.1-0.4-0.2-0.5-0.3c-0.1-0.1-0.3-0.1-0.4-0.2c-0.2-0.1-0.3-0.2-0.4-0.3c-0.7-0.5-1.2-1.1-1.7-1.6c-0.2-0.2-0.4-0.5-0.6-0.8
			c-0.2-0.4-0.5-0.9-0.6-1.3s-0.3-0.7-0.3-1.1c-0.1-0.8,0-1.6,0-2.3c0-0.2,0.1-0.5,0.2-0.7c0.1-0.3,0.2-0.7,0.3-1
			c0.1-0.2,0.2-0.4,0.3-0.5c0,0,0,0,0.1-0.1c0-0.3,0.3-0.5,0.4-0.8c0.4-0.6,1-1.1,1.5-1.6c0.2-0.2,0.4-0.3,0.6-0.4
			c0.2-0.1,0.3-0.2,0.5-0.4c0.2-0.1,0.5-0.2,0.7-0.3s0.3-0.1,0.5-0.2l0,0c0.2,0,0.4-0.1,0.6-0.1c0.1,0,0.2,0,0.3-0.1
			c0.1,0,0.2,0,0.2-0.1c0.1,0,0.3,0,0.4-0.1h0.1c0.6,0,1.1,0,1.7,0c0.1,0,0.2,0,0.2,0.1c0.2,0,0.3,0,0.5,0.1s0.4,0.1,0.7,0.2
			c0.2,0.1,0.3,0.1,0.5,0.1c0.1,0,0.2,0.1,0.3,0.1c0.2,0.1,0.4,0.2,0.6,0.3c0.3,0.2,0.6,0.3,0.9,0.5c0.5,0.4,0.9,0.9,1.4,1.4
			c0.1,0.1,0.2,0.3,0.4,0.5c0.1,0.2,0.2,0.4,0.3,0.5c0.1,0.2,0.2,0.4,0.3,0.6c0.1,0.1,0.1,0.2,0.1,0.3c0.1,0.2,0.1,0.4,0.2,0.6
			c0.1,0.2,0.1,0.3,0.2,0.5c0,0.2,0.1,0.3,0.1,0.5c0,0.6,0.1,1.2,0.1,1.8c0,0.3-0.1,0.6-0.1,0.9c0,0.2-0.1,0.4-0.2,0.6
			c-0.1,0.2-0.1,0.4-0.2,0.5c-0.1,0.2-0.2,0.3-0.2,0.5c-0.1,0.2-0.2,0.4-0.3,0.6c-0.2,0.3-0.4,0.6-0.6,0.9c-0.3,0.3-0.5,0.6-0.8,0.9
			s-0.7,0.5-1,0.8c-0.2,0.1-0.4,0.2-0.6,0.3c-0.2,0.1-0.5,0.2-0.7,0.3c-0.2,0.1-0.4,0.2-0.6,0.2c-0.2,0.1-0.5,0.1-0.7,0.2
			c-0.2,0-0.5,0.1-0.7,0.1C37.1,28.3,36.9,28.3,36.6,28.3z M35.2,20.8c0,1,0,2.1,0,3.1c0,0.5,0.2,0.9,0.6,1.1
			c0.4,0.2,0.8,0.2,1.2,0.2c0.1,0,0.2-0.1,0.3-0.1c0.4-0.3,0.7-0.7,0.7-1.2c0-2,0-4.1,0-6.1c0-0.3-0.1-0.6-0.3-0.9
			c-0.2-0.4-0.6-0.6-1.1-0.6c-0.4,0-0.7,0.1-1,0.4s-0.4,0.6-0.4,1C35.2,18.7,35.2,19.7,35.2,20.8z"/>
		<path class="st0" d="M32.4,30.8c0.5,0,1,0,1.4,0c0.2,0,0.3,0.1,0.3,0.3v0.1c0,0.2,0.1,0.3,0.1,0.5c0,0.1,0,0.1,0,0.2
			c0.1,0.1,0.1,0.3,0.1,0.4v0.1c0.1,0.1,0.1,0.3,0.1,0.4c0,0.1,0.1,0.2,0.1,0.3s0,0.1,0,0.2c0,0.2,0,0.3,0.1,0.5l0,0
			c0,0.3,0.1,0.6,0.1,0.8c0,0.1,0,0.2,0.1,0.3c0.1,0.2,0.1,0.4,0.2,0.6v0.1c0,0.2,0,0.3,0.1,0.5c0,0.2,0.1,0.4,0.2,0.6
			c0,0.1,0,0.1,0,0.2c0,0.2,0.1,0.4,0.1,0.6c0,0.1,0,0.1,0,0.2c0,0.1,0.1,0.2,0.1,0.3s0,0.1,0,0.2c0,0.1,0.1,0.2,0.2,0.2
			c0,0,0.1-0.1,0.1-0.2c0.1-0.3,0.1-0.6,0.2-0.9c0.1-0.3,0.1-0.6,0.1-0.9v-0.1c0.1-0.1,0.1-0.3,0.1-0.5c0-0.1,0.1-0.2,0.1-0.3l0,0
			c0-0.2,0.1-0.5,0.1-0.7s0.1-0.3,0.1-0.5v-0.1c0-0.2,0-0.4,0.1-0.6c0.1-0.1,0.1-0.3,0.1-0.5c0-0.3,0.1-0.5,0.1-0.8l0,0
			c0.1-0.2,0.1-0.4,0.1-0.6c0-0.2,0.1-0.4,0.1-0.5c0-0.3,0.1-0.4,0.4-0.4c0.8,0,1.6,0,2.3,0c0.2,0,0.3,0.1,0.3,0.3
			c0,0.2,0,0.3,0.1,0.4v0.1c0,0.2,0,0.3,0.1,0.5v0.1c0,0.1,0.1,0.3,0.1,0.4c0,0.1,0,0.2,0,0.3s0,0.2,0.1,0.3v0.1
			c0,0.2,0,0.3,0.1,0.5c0.1,0.1,0.1,0.3,0.1,0.4c0.1,0.4,0.1,0.7,0.2,1.1v0.1c0,0.1,0.1,0.2,0.1,0.3c0.1,0.2,0.1,0.4,0.1,0.7
			c0.1,0.3,0.1,0.5,0.2,0.8c0,0.1,0,0.1,0.1,0.2c0,0.2,0.1,0.4,0.1,0.6c0,0.1,0.1,0.2,0.2,0.2c0.1,0,0.1-0.1,0.1-0.2
			c0-0.2,0-0.5,0.1-0.7c0,0,0-0.1,0.1-0.1c0-0.1,0-0.1,0.1-0.2c0-0.2,0.1-0.3,0.1-0.5c0-0.1,0-0.1,0-0.2c0-0.1,0.1-0.2,0.1-0.3
			s0-0.2,0-0.2c0-0.1,0.1-0.2,0.1-0.3s0-0.1,0-0.2c0-0.2,0.1-0.3,0.1-0.5c0-0.1,0-0.1,0-0.2c0-0.1,0-0.2,0.1-0.3v-0.1
			c0-0.2,0.1-0.3,0.1-0.5c0-0.1,0-0.3,0.1-0.4c0.1-0.2,0.1-0.3,0.1-0.5v-0.1c0.1-0.1,0.1-0.3,0.1-0.5v-0.1c0-0.1,0.1-0.3,0.1-0.4
			c0.1-0.3,0.1-0.6,0.2-0.9c0-0.1,0.2-0.2,0.3-0.2c0.7,0,1.5,0,2.2,0c0.1,0,0.2,0,0.2,0.1s0,0.2,0,0.3c0,0.1-0.1,0.2-0.1,0.3
			c0,0.1,0,0.2-0.1,0.3c-0.1,0.4-0.2,0.8-0.3,1.2c0,0.2-0.1,0.3-0.1,0.5c0,0.1-0.1,0.3-0.1,0.4c0,0.1-0.1,0.3-0.1,0.4v0.1
			c0,0.1-0.1,0.3-0.1,0.4c-0.1,0.3-0.1,0.5-0.1,0.8c0,0.1-0.1,0.2-0.1,0.3l0,0c0,0.3-0.1,0.5-0.1,0.7c0,0.1,0,0.2-0.1,0.3
			c0,0.1,0,0.1,0,0.2c0,0.1-0.1,0.3-0.1,0.4v0.1c0,0.2-0.1,0.4-0.1,0.6c0,0.1-0.1,0.3-0.1,0.4c0,0.2-0.1,0.4-0.1,0.6
			c-0.1,0.2-0.1,0.5-0.2,0.7c-0.1,0.3-0.2,0.6-0.2,1c-0.1,0.2-0.1,0.5-0.1,0.7v0.1c0,0.1-0.1,0.2-0.1,0.4l0,0
			c-0.1,0.2-0.1,0.4-0.2,0.6c0,0.1-0.1,0.3-0.1,0.4l0,0c-0.1,0.2-0.1,0.4-0.1,0.6c0,0.1-0.1,0.3-0.1,0.4c0,0.1,0,0.2-0.1,0.3
			c0,0.1-0.2,0.1-0.2,0.1c-0.9,0-1.8,0-2.7,0c-0.1,0-0.1,0-0.2-0.1c0-0.2-0.1-0.4-0.2-0.6c0-0.1,0-0.1,0-0.2v-0.1
			c-0.1-0.1-0.1-0.3-0.1-0.4c0-0.1-0.1-0.2-0.1-0.3s0-0.1,0-0.2c0-0.2,0-0.4-0.1-0.5v-0.1c0-0.1,0-0.2-0.1-0.3c0-0.1,0-0.2-0.1-0.2
			c0-0.2-0.1-0.4-0.1-0.6c0-0.2-0.1-0.5-0.1-0.7v-0.1c-0.1-0.2-0.1-0.3-0.1-0.5c0-0.1-0.1-0.2-0.1-0.3l0,0c0-0.3-0.1-0.5-0.1-0.8
			c0-0.1-0.1-0.2-0.1-0.3v-0.1c0-0.2,0-0.4-0.1-0.6c0-0.1,0-0.1-0.1-0.2c0,0-0.1,0-0.2,0l-0.1,0.1c0,0.3,0,0.7-0.1,0.9
			s0,0.5-0.2,0.7v0.1c0,0.3-0.1,0.5-0.1,0.7c0,0,0,0,0,0.1c0,0.2-0.1,0.4-0.1,0.6c0,0.1,0,0.3-0.1,0.4l0,0c0,0.3-0.1,0.6-0.1,0.9
			c0,0.1-0.1,0.2-0.1,0.3l0,0c0,0.2-0.1,0.5-0.1,0.7c0,0.1,0,0.2-0.1,0.3c-0.1,0.4-0.2,0.9-0.3,1.3c0,0.1-0.1,0.2-0.3,0.2
			c-0.4,0-0.9,0-1.3,0c-0.5,0-0.9,0-1.4,0c-0.2,0-0.3-0.1-0.3-0.3s-0.1-0.4-0.2-0.6v-0.1c0-0.1-0.1-0.2-0.1-0.3c0,0,0,0,0-0.1
			c0-0.3-0.1-0.5-0.1-0.7v-0.1c-0.2-0.1-0.1-0.3-0.1-0.5v-0.1c-0.1-0.2-0.1-0.4-0.2-0.6v-0.1c0-0.3-0.1-0.5-0.1-0.8
			c-0.1-0.2-0.1-0.5-0.2-0.7c-0.1-0.3-0.1-0.6-0.2-0.9v-0.1c-0.1-0.2-0.2-0.3-0.1-0.5v-0.1c0-0.1-0.1-0.1-0.1-0.2
			c0-0.2-0.1-0.4-0.1-0.7c0-0.1-0.1-0.3-0.1-0.4c0-0.1,0-0.1,0-0.2c0-0.1-0.1-0.2-0.1-0.3l0,0c0-0.2-0.1-0.5-0.1-0.7
			c0-0.1-0.1-0.2-0.1-0.3c0-0.2-0.1-0.3-0.1-0.5s-0.1-0.4-0.2-0.6c0-0.1,0-0.3-0.1-0.4c-0.1-0.3-0.1-0.7-0.2-1
			c-0.1-0.2-0.1-0.4-0.1-0.7c0-0.2-0.1-0.4-0.1-0.6c0,0,0,0,0-0.1c0-0.4,0-0.4,0.3-0.4C31.4,30.8,31.9,30.8,32.4,30.8z"/>
		<path class="st0" d="M20.1,37.6c0,2.1,0,4.3,0,6.4c0,0.3,0,0.3-0.3,0.3c-0.9,0-1.7,0-2.6,0c-0.3,0-0.4-0.1-0.5-0.4
			c-0.1-0.2-0.2-0.4-0.3-0.5c-0.1-0.2-0.3-0.5-0.4-0.7c-0.1-0.1-0.2-0.3-0.3-0.4c-0.1-0.2-0.2-0.4-0.3-0.6c0,0,0-0.1-0.1-0.1
			c-0.2-0.1-0.2-0.3-0.3-0.5c0-0.1-0.1-0.1-0.1-0.2c-0.2-0.3-0.3-0.5-0.5-0.8c-0.2-0.4-0.5-0.7-0.7-1.1c-0.2-0.3-0.3-0.6-0.5-0.9
			c-0.1-0.2-0.2-0.4-0.4-0.6c-0.2-0.3-0.3-0.5-0.5-0.8c0-0.1-0.1-0.1-0.2-0.1c-0.1,0-0.1,0.1-0.1,0.2c0,0.1,0,0.1,0,0.2
			c0,2.3,0,4.6,0,6.9c0,0.1,0,0.1,0,0.2c0,0.1,0,0.2-0.2,0.2c-0.3,0-0.6,0-0.9,0c-0.7,0-1.5,0-2.2,0c-0.2,0-0.2,0-0.2-0.2
			c0-2.6,0-5.3,0-7.9c0-1.7,0-3.5,0-5.2c0-0.1,0.1-0.2,0.2-0.2c1.2,0,2.3,0,3.5,0c0.2,0,0.3,0.1,0.4,0.2c0.1,0.2,0.2,0.4,0.4,0.6
			c0.2,0.3,0.3,0.5,0.5,0.8c0.1,0.2,0.2,0.4,0.3,0.5c0.2,0.3,0.4,0.6,0.6,0.9c0.1,0.2,0.2,0.4,0.3,0.6c0.1,0.2,0.3,0.5,0.4,0.7
			c0.1,0.2,0.2,0.3,0.3,0.5s0.3,0.4,0.4,0.7c0.1,0.2,0.3,0.4,0.4,0.6c0,0.1,0.1,0.2,0.1,0.2c0.1,0,0.1,0.1,0.2,0.1
			c0,0,0.1-0.1,0.1-0.2c0-0.8,0-1.6,0-2.4c0-1.2,0-2.4,0-3.6c0-0.3,0.1-0.4,0.3-0.4c0.9,0,1.8,0,2.8,0c0.2,0,0.2,0,0.2,0.2
			C20.1,33.2,20.1,35.4,20.1,37.6z"/>
		<path class="st0" d="M42.3,13.4c0.1,0,0.1,0,0.2,0c1.4,0,2.8,0,4.2,0c0.2,0,0.3,0.1,0.4,0.3c0,0.1,0.1,0.2,0.2,0.3
			c0.2,0.3,0.4,0.6,0.5,0.9c0.2,0.3,0.4,0.7,0.6,1c0.1,0.1,0.1,0.2,0.1,0.3c0,0.1,0.2,0.2,0.3,0.1s0.1-0.2,0.2-0.3
			c0,0,0.1-0.1,0.1-0.2c0.2-0.3,0.4-0.7,0.6-1c0.2-0.3,0.3-0.6,0.5-0.8c0.1-0.2,0.2-0.3,0.3-0.5c0.1-0.1,0.2-0.2,0.3-0.2
			c1.4,0,2.8,0,4.3,0c0.2,0,0.2,0,0.1,0.2c-0.1,0.3-0.3,0.5-0.5,0.7c-0.2,0.3-0.4,0.6-0.5,0.9c-0.1,0.2-0.3,0.5-0.4,0.7
			c-0.2,0.3-0.4,0.6-0.6,0.9c-0.1,0.1-0.1,0.2-0.2,0.4c-0.2,0.3-0.3,0.5-0.5,0.8c-0.1,0.2-0.3,0.5-0.4,0.7c-0.1,0.1-0.1,0.2-0.2,0.3
			c-0.1,0.1-0.2,0.3-0.2,0.4c-0.2,0.3-0.3,0.5-0.5,0.8c-0.1,0.1-0.1,0.4,0,0.5c0.1,0.2,0.3,0.4,0.4,0.7c0.1,0.2,0.2,0.4,0.3,0.6
			s0.3,0.4,0.4,0.6c0.1,0.2,0.3,0.5,0.4,0.7c0.1,0.2,0.2,0.3,0.3,0.5c0.2,0.4,0.4,0.7,0.6,1.1c0.1,0.2,0.3,0.5,0.4,0.7
			c0.2,0.3,0.4,0.7,0.5,1c0.1,0.1,0.2,0.3,0.3,0.4c0.2,0.3,0.3,0.6,0.5,0.9c0.1,0.1,0.1,0.2,0.2,0.3c-0.1,0-0.1,0-0.2,0
			c-1.4,0-2.8,0-4.3,0c-0.1,0-0.2,0-0.3-0.1s-0.2-0.3-0.3-0.4s-0.2-0.3-0.2-0.4c-0.2-0.3-0.3-0.6-0.5-0.8c-0.1-0.2-0.3-0.4-0.4-0.6
			c-0.1-0.2-0.2-0.3-0.3-0.5s-0.2-0.3-0.3-0.5c-0.1-0.1-0.2-0.1-0.3,0c-0.1,0.2-0.2,0.3-0.3,0.5c0,0.1-0.1,0.2-0.1,0.2
			c-0.2,0.4-0.5,0.9-0.7,1.3c-0.2,0.3-0.3,0.6-0.5,0.8c-0.1,0.1-0.2,0.3-0.3,0.4c0,0.1-0.2,0.1-0.2,0.1c-1.4,0-2.8,0-4.2,0
			c-0.1,0-0.1,0-0.2,0c0.1-0.2,0.3-0.4,0.4-0.6c0.1-0.1,0.2-0.3,0.2-0.4c0.1-0.2,0.2-0.3,0.3-0.5s0.2-0.4,0.3-0.5
			c0.1-0.2,0.3-0.4,0.4-0.6c0.1-0.1,0.1-0.3,0.2-0.4c0.1-0.1,0.2-0.3,0.3-0.4c0.1-0.2,0.2-0.4,0.3-0.6s0.2-0.4,0.4-0.7
			c0.2-0.3,0.4-0.5,0.5-0.8s0.3-0.4,0.4-0.7c0-0.1,0.1-0.2,0.1-0.3c0.1-0.2,0.2-0.4,0.4-0.6c0.1-0.2,0.2-0.3,0.2-0.6
			c0-0.1-0.1-0.2-0.1-0.3c-0.2-0.4-0.5-0.8-0.7-1.2c-0.2-0.3-0.3-0.5-0.4-0.8c-0.2-0.3-0.4-0.6-0.5-0.9c-0.1-0.2-0.2-0.3-0.3-0.5
			c-0.1-0.1-0.2-0.3-0.3-0.4c-0.1-0.2-0.2-0.4-0.3-0.6c-0.1-0.1-0.2-0.3-0.3-0.4c-0.1-0.1-0.2-0.3-0.3-0.4c-0.2-0.3-0.3-0.5-0.5-0.8
			C42.6,14,42.5,13.7,42.3,13.4z"/>
		<path class="st0" d="M19.5,20.8c0-2.4,0-4.7,0-7.1c0-0.3,0.1-0.4,0.4-0.4c2.9,0,5.8,0,8.7,0c0.2,0,0.2,0,0.2,0.2
			c0,0.1,0,0.2,0,0.3c0,0.3,0.1,0.6,0.1,0.9c0,0.1,0,0.1,0,0.2c0,0.3,0,0.6,0,0.9c0,0.4,0,0.7,0.1,1.1c0,0.1,0,0.2,0.1,0.2
			c0,0.1,0,0.2-0.1,0.2s-0.1,0-0.2,0c-1.5,0-3.1,0-4.6,0c-0.3,0-0.3,0-0.3,0.2c0,0.5,0,1,0,1.5c0,0.2,0,0.2,0.3,0.2
			c1.2,0,2.4,0,3.6,0c0.3,0,0.4,0.1,0.4,0.3c0,1.2,0,2.3,0,3.5c0,0.2,0,0.2-0.2,0.2c-1.3,0-2.6,0-3.8,0c-0.3,0-0.3,0-0.3,0.3
			c0,1.4,0,2.8,0,4.3c0,0.3-0.1,0.4-0.3,0.4c-1.2,0-2.4,0-3.6,0c-0.3,0-0.3-0.1-0.3-0.3C19.5,25.5,19.5,23.2,19.5,20.8z"/>
		<path class="st0" d="M51.4,30.3c0.2,0,0.4,0,0.6,0c0.1,0,0.2,0,0.3,0.1l0,0c0.2,0,0.4,0.1,0.6,0.1c0.1,0,0.3,0.1,0.4,0.1
			c0.4,0.2,0.7,0.4,1,0.7c0.2,0.2,0.5,0.4,0.7,0.7c0.2,0.2,0.3,0.4,0.4,0.6c0.1,0.2,0.2,0.4,0.3,0.6c0,0.1,0.1,0.2,0.1,0.3
			s-0.1,0.1-0.1,0.2c-0.2,0.1-0.4,0.1-0.7,0.2c-0.2,0.1-0.4,0.1-0.6,0.2c0,0,0,0-0.1,0c-0.2,0.2-0.5,0.2-0.8,0.3
			c-0.2,0.1-0.4,0.2-0.6,0.2c-0.1,0-0.2-0.1-0.2-0.1c-0.1-0.1-0.1-0.2-0.2-0.3c-0.1-0.3-0.3-0.5-0.6-0.6c-0.2-0.1-0.4-0.1-0.6-0.2
			c-0.4,0-0.7,0-1.1,0c-0.1,0-0.2,0-0.2,0.1c-0.1,0.1-0.3,0.3-0.4,0.4V34c0,0.1,0,0.2,0,0.3c0,0.3,0.2,0.6,0.5,0.7
			c0.2,0.1,0.5,0.2,0.7,0.2c0.3,0.1,0.7,0.2,1,0.3s0.5,0.2,0.8,0.2c0.1,0,0.2,0,0.2,0.1c0,0,0,0,0.1,0c0.3,0.1,0.5,0.2,0.8,0.3
			c0.2,0.1,0.5,0.3,0.7,0.4c0.1,0,0.1,0.1,0.2,0.2c0.3,0.3,0.7,0.6,0.9,1c0.1,0.3,0.3,0.6,0.4,0.8c0.2,0.6,0.1,1.2,0.1,1.8
			c0,0.2,0,0.3-0.1,0.5c0,0.2-0.1,0.3-0.2,0.5c-0.1,0.1-0.1,0.3-0.2,0.4c-0.1,0.2-0.2,0.4-0.4,0.6c-0.2,0.2-0.4,0.5-0.6,0.7
			c-0.3,0.3-0.5,0.5-0.9,0.7c-0.2,0.1-0.4,0.2-0.7,0.3c-0.2,0.1-0.4,0.2-0.6,0.2h-0.1c-0.1,0.1-0.3,0.1-0.4,0.1
			c-0.5,0.1-1.1,0.1-1.6,0c-0.3,0-0.7,0-1-0.2C49.1,44,48.9,44,48.7,44c-0.2-0.1-0.4-0.2-0.6-0.2c-0.5-0.1-0.8-0.5-1.2-0.8
			c-0.1-0.1-0.2-0.1-0.2-0.2c-0.3-0.2-0.5-0.6-0.7-0.9c-0.2-0.2-0.3-0.5-0.4-0.8c-0.1-0.2-0.1-0.3-0.1-0.5v-0.1
			c-0.1-0.2,0-0.3,0.2-0.4c0.3,0,0.6-0.1,0.9-0.2c0.2-0.1,0.5-0.1,0.8-0.2c0.1,0,0.2-0.1,0.3-0.1l0,0c0.2,0,0.5-0.1,0.7-0.1
			c0.1,0,0.2,0.1,0.3,0.2c0.1,0.2,0.1,0.4,0.2,0.6c0.1,0.2,0.3,0.3,0.4,0.5c0.1,0.1,0.2,0.1,0.2,0.1c0.2,0.1,0.4,0.2,0.6,0.2
			c0.3,0,0.7,0,1,0c0.2,0,0.4,0,0.6-0.1c0.1-0.1,0.3-0.2,0.4-0.3c0.2-0.3,0.2-0.6,0.1-0.9c-0.1-0.2-0.2-0.4-0.5-0.5
			c-0.2,0-0.4-0.1-0.6-0.2H51c-0.1,0-0.2,0-0.3-0.1c0,0,0,0-0.1,0s-0.3,0-0.4-0.1c-0.1-0.1-0.3-0.1-0.5-0.1c-0.3,0-0.5-0.1-0.7-0.2
			c-0.2-0.1-0.4-0.1-0.5-0.2c0,0-0.1,0-0.1-0.1c-0.2-0.1-0.4-0.2-0.6-0.3c-0.2-0.1-0.3-0.2-0.5-0.3c-0.2-0.2-0.5-0.4-0.7-0.7
			c-0.1-0.2-0.2-0.4-0.4-0.6c0-0.1-0.1-0.2-0.1-0.2c-0.1-0.2-0.2-0.5-0.2-0.7c0,0,0-0.1,0-0.2c0-0.3,0-0.5,0-0.8S46,34,46,33.7
			c0-0.2,0.1-0.4,0.1-0.5c0.1-0.2,0.2-0.4,0.3-0.6c0.1-0.4,0.4-0.6,0.6-0.9c0.1-0.1,0.2-0.2,0.3-0.3c0.2-0.1,0.3-0.3,0.5-0.4
			s0.5-0.3,0.7-0.4c0.1,0,0.2-0.1,0.3-0.1c0.1-0.1,0.2-0.1,0.4-0.1h0.1c0.1-0.1,0.3-0.1,0.4-0.1c0.1,0,0.2-0.1,0.3-0.1s0.1,0,0.2,0
			C50.9,30.3,51.1,30.3,51.4,30.3z"/>
		<path class="st0" d="M21.1,37.6c0-2.2,0-4.4,0-6.5c0-0.2,0-0.2,0.3-0.2c2.7,0,5.5,0,8.2,0c0.3,0,0.3,0,0.3,0.3c0,0.9,0,1.8,0,2.7
			c0,0.2,0,0.2-0.2,0.2c-1.6,0-3.2,0-4.8,0c-0.3,0-0.4,0.1-0.4,0.4c0,0.5,0,1,0,1.4c0,0.2,0,0.2,0.2,0.2c1.3,0,2.6,0,3.9,0
			c0.3,0,0.4,0.1,0.4,0.4c0,0.7,0,1.5,0,2.2c0,0.3-0.1,0.4-0.4,0.4c-1.3,0-2.6,0-3.9,0c-0.2,0-0.2,0-0.2,0.2c0,0.6,0,1.3,0,1.9
			c0,0.3,0,0.3,0.3,0.3c1.7,0,3.3,0,5,0c0.3,0,0.3,0,0.3,0.3c0,0.9,0,1.7,0,2.6c0,0.2,0,0.3-0.3,0.3c-2.8,0-5.5,0-8.3,0
			c-0.2,0-0.2,0-0.2-0.2C21.1,41.9,21.1,39.7,21.1,37.6z"/>
	</g>
</g>
</svg>
