<?xml version="1.0" encoding="utf-8"?>
<!-- Generator: Adobe Illustrator 23.0.3, SVG Export Plug-In . SVG Version: 6.00 Build 0)  -->
<svg version="1.1" id="Layer_1" xmlns="http://www.w3.org/2000/svg" xmlns:xlink="http://www.w3.org/1999/xlink" x="0px" y="0px"
	 viewBox="0 0 60.8 36.6" style="enable-background:new 0 0 60.8 36.6;" xml:space="preserve">
<style type="text/css">
	.st0{fill:#9B9B9B;}
</style>
<g id="GA3Fnt_2_">
	<g>
		<path class="st0" d="M19.3,31.3c-2.6,0-4.9-0.5-7-1.6c-1-0.5-1.9-1.2-2.7-1.9c-1.5-1.4-2.6-3.1-3.3-5C6,22,5.8,21.1,5.7,20.3
			s-0.2-1.7-0.1-2.5C5.7,15.3,6.4,13,7.8,11s3.2-3.5,5.4-4.5c1.1-0.5,2.2-0.8,3.4-1c0.9-0.1,1.8-0.2,2.7-0.2c3,0.1,5.8,0.9,8.2,2.8
			c1.8,1.4,3.2,3.2,4,5.4c0.4,1,0.6,2,0.8,3c0.1,0.9,0.1,1.8,0.1,2.6c-0.1,1.9-0.6,3.7-1.5,5.4c-0.8,1.4-1.8,2.6-3,3.7
			c-1.7,1.4-3.7,2.4-5.8,2.9C21.1,31.2,20,31.3,19.3,31.3z M19,10.3c-0.3,0-0.7,0-1,0.1c-0.2,0-0.3,0-0.5,0.1
			c-2.3,0.5-4,1.7-5.1,3.8c-0.9,1.7-1.2,3.6-0.8,5.6c0.3,1.8,1.2,3.3,2.5,4.5c1.3,1.1,2.8,1.7,4.5,1.8c0.8,0.1,1.6,0,2.4-0.2
			c1.7-0.4,3-1.3,4-2.6c1.1-1.5,1.6-3.1,1.6-4.9c0-1-0.1-2-0.5-2.9c-0.5-1.4-1.3-2.6-2.5-3.5C22.3,10.8,20.7,10.3,19,10.3z"/>
		<path class="st0" d="M40.8,26c0.1,0,0.2,0,0.3,0c4.5,0,8.9,0,13.4,0c0.1,0,0.2,0,0.2,0.2c0,1.5,0,3,0,4.5c0,0.1,0,0.1,0,0.2
			c-7,0-14,0-21.1,0c0-0.1,0-0.1,0-0.2c0-1.3,0-2.6,0-3.9c0-0.1,0-0.2,0.1-0.3c0.5-0.6,1.1-1.3,1.7-1.9c0.6-0.7,1.2-1.4,1.8-2.2
			c0.6-0.7,1.3-1.5,1.9-2.2c0.5-0.6,1.1-1.3,1.6-1.9c0.5-0.5,0.9-1.1,1.4-1.6c0.6-0.6,1.1-1.3,1.7-1.9c0.6-0.7,1.3-1.5,1.9-2.2
			c0.6-0.7,1.2-1.3,1.8-2.1c-0.1,0-0.2,0-0.3,0c-4.3,0-8.6,0-12.9,0h-0.1c-0.1,0-0.2,0-0.2-0.2c0-1.5,0-3.1,0-4.6V5.6
			c0.1,0,0.1,0,0.2,0c6.7,0,13.4,0,20.2,0c0.2,0,0.2,0,0.2,0.2c0,1.3,0,2.5,0,3.8c0,0.1-0.1,0.2-0.1,0.3c-0.7,0.8-1.4,1.7-2.1,2.5
			c-0.7,0.8-1.4,1.6-2.1,2.5c-0.8,0.9-1.5,1.8-2.3,2.7c-0.8,0.9-1.6,1.8-2.3,2.7c-0.8,0.9-1.5,1.8-2.3,2.7c-0.6,0.7-1.3,1.5-1.9,2.2
			C41.3,25.4,41.1,25.7,40.8,26z"/>
		<path class="st0" d="M36,33.2c0,0.1,0,0.1,0,0.2c0,1,0,1.9,0,2.9c0,0.1,0,0.2-0.2,0.2c-0.1,0-0.2,0-0.3,0c-11.8,0-23.5,0-35.3,0
			c-0.1,0-0.1,0-0.2,0C0,24.4,0,12.2,0,0.1c2.8,0,5.6,0,8.4,0c0,1,0,2.1,0,3.1c-1.8,0-3.5,0-5.3,0c0,10,0,20,0,30
			C14.2,33.2,25.1,33.2,36,33.2z"/>
		<path class="st0" d="M57.6,3.2c-9.5,0-19,0-28.4,0c0-1.1,0-2.1,0-3.2c10.5,0,21.1,0,31.6,0c0,12.1,0,24.3,0,36.4c-2.7,0-5.3,0-8,0
			c0-0.1,0-0.2,0-0.2c0-0.9,0-1.9,0-2.8c0-0.2,0-0.2,0.2-0.2c1.5,0,2.9,0,4.4,0c0.1,0,0.1,0,0.2,0C57.6,23.2,57.6,13.2,57.6,3.2z"/>
		<path class="st0" d="M46.9,33.3c0.2,0,0.5,0,0.7,0l0.1,0.1c0.2,0.6,0.4,1.3,0.6,2c0-0.1,0.1-0.2,0.1-0.3c0.2-0.6,0.4-1.1,0.5-1.7
			c0-0.1,0.1-0.1,0.2-0.1c0.2,0,0.3,0,0.5,0c0.2,0.7,0.5,1.4,0.7,2.1c0.1-0.2,0.1-0.4,0.2-0.6c0.1-0.5,0.3-0.9,0.4-1.4
			c0-0.1,0.1-0.1,0.2-0.1c0.2,0,0.4,0,0.6,0c0,0.1-0.1,0.3-0.1,0.4c-0.3,0.9-0.6,1.8-0.9,2.7c0,0.1-0.1,0.2-0.2,0.2
			c-0.5,0-0.5,0-0.6-0.4c-0.2-0.5-0.4-1-0.6-1.6c-0.2,0.5-0.3,1-0.5,1.4c-0.1,0.2-0.1,0.3-0.2,0.5c0,0.1-0.1,0.1-0.2,0.1
			c-0.5,0-0.5,0-0.6-0.4c-0.3-0.9-0.6-1.7-0.9-2.6C46.9,33.4,46.9,33.3,46.9,33.3z"/>
		<path class="st0" d="M45.1,36.5c-0.9,0.1-1.7-0.7-1.7-1.6c0-0.8,0.7-1.7,1.8-1.6c0.9,0,1.6,0.7,1.6,1.6
			C46.8,35.8,46,36.6,45.1,36.5z M46.1,34.9c0-0.6-0.4-1-0.9-1s-0.9,0.4-0.9,0.9c0,0.6,0.4,1,0.9,1C45.6,35.8,46.1,35.4,46.1,34.9z"
			/>
		<path class="st0" d="M24.1,0c0.6,0,1.2,0,1.8,0c0.5,0,0.8,0.5,0.9,0.9c0,0.5-0.2,0.9-0.7,1.1c0.3,0.4,0.5,0.7,0.8,1.1
			c-0.3,0-0.5,0-0.8,0L26,3c-0.2-0.2-0.3-0.5-0.5-0.7c-0.1-0.1-0.2-0.2-0.3-0.2s-0.2,0-0.3,0c0,0.3,0,0.5,0,0.8c0,0.2,0,0.2-0.2,0.2
			c-0.5,0-0.5,0-0.5-0.5C24.2,1.7,24.2,0.9,24.1,0C24.1,0.1,24.1,0.1,24.1,0z M24.8,1.6c0.3,0,0.6,0,0.9,0c0.2,0,0.3-0.2,0.3-0.4
			s-0.1-0.4-0.3-0.4c-0.3,0-0.6,0-0.9,0C24.8,1,24.8,1.3,24.8,1.6z"/>
		<path class="st0" d="M20.7,0c0.5,0,0.9,0,1.4,0c0.2,0,0.5,0.1,0.7,0.2c0.6,0.3,0.9,0.9,0.8,1.6C23.5,2.4,23,3,22.4,3.1
			c-0.5,0.1-1.1,0-1.6,0.1c0,0-0.1-0.1-0.1-0.2c0-0.9,0-1.9,0-2.8C20.7,0.2,20.7,0.1,20.7,0z M21.4,2.6c0.2,0,0.4,0,0.6,0
			c0.4,0,0.8-0.4,0.9-0.8c0.1-0.5-0.2-0.9-0.6-1c-0.2-0.1-0.5,0-0.7-0.1l-0.1,0.1C21.4,1.4,21.4,2,21.4,2.6z"/>
		<path class="st0" d="M13.7,3.2c-0.3,0-0.5,0-0.7,0c0-1.1,0-2.1,0-3.2c0.2,0,0.5,0,0.7,0c0,0.4,0,0.8,0,1.2c0.4,0,0.8,0,1.3,0
			c0-0.4,0-0.8,0-1.2c0.3,0,0.5,0,0.7,0c0,1,0,2.1,0,3.2c-0.2,0-0.4,0-0.6,0c0,0-0.1-0.1-0.1-0.2c0-0.3,0-0.6,0-0.9
			C15,2,15,2,15,1.9c-0.4,0-0.8,0-1.2,0c0,0-0.1,0.1-0.1,0.2C13.7,2.5,13.7,2.8,13.7,3.2z"/>
		<path class="st0" d="M18.8,3.2c-0.2,0-0.4,0-0.6,0c-0.6,0-1.1,0-1.7,0c-0.1,0-0.2,0-0.2-0.1c0-1,0-2,0-3c0,0,0,0,0-0.1
			c0.8,0,1.6,0,2.4,0c0,0.2,0,0.4,0,0.6c-0.6,0-1.1,0-1.7,0c0,0.2,0,0.4,0,0.6c0.1,0,0.2,0,0.3,0c0.3,0,0.7,0,1,0
			c0.1,0,0.2,0,0.2,0.2c0,0.5,0,0.5-0.5,0.5c-0.3,0-0.6,0-1,0l0,0c0,0.2,0,0.4,0,0.6c0.6,0,1.1,0,1.7,0C18.8,2.8,18.8,3,18.8,3.2z"
			/>
		<path class="st0" d="M42.2,33.3c0.2,0,0.5,0,0.7,0c0,1.1,0,2.1,0,3.2c-0.2,0-0.4,0-0.6,0c0,0-0.1-0.1-0.1-0.2c0-0.3,0-0.6,0-0.9
			c0-0.1,0-0.1,0-0.2c-0.4,0-0.8,0-1.3,0c0,0.3,0,0.6,0,0.9c0,0.4,0,0.4-0.4,0.4s-0.3,0-0.3-0.3c0-0.9,0-1.9,0-2.8
			c0.2,0,0.5,0,0.7,0c0,0.4,0,0.8,0,1.2c0.4,0,0.8,0,1.3,0C42.2,34.1,42.2,33.7,42.2,33.3z"/>
		<path class="st0" d="M39.6,33.6c-0.1,0.2-0.3,0.4-0.4,0.5c-0.3-0.1-0.5-0.2-0.8-0.3c-0.1,0-0.2,0-0.3,0c-0.2,0.1-0.2,0.3,0,0.4
			c0.2,0.1,0.4,0.1,0.5,0.2c0.2,0.1,0.3,0.1,0.5,0.2c0.3,0.1,0.5,0.4,0.5,0.8c0,0.4-0.2,0.7-0.5,0.9c-0.2,0.1-0.5,0.1-0.7,0.1
			c-0.5,0-0.9-0.1-1.3-0.4c0,0,0,0,0-0.1c0.1-0.2,0.3-0.3,0.4-0.5c0.3,0.1,0.5,0.2,0.8,0.3c0.1,0,0.3,0,0.5,0c0.1,0,0.2-0.1,0.2-0.2
			c0-0.1-0.1-0.2-0.1-0.2c-0.2-0.1-0.3-0.1-0.5-0.2C38.2,35,38,35,37.9,34.9c-0.4-0.2-0.5-0.5-0.5-0.9s0.2-0.6,0.5-0.8
			C38.5,33.1,39.1,33.2,39.6,33.6z"/>
		<path class="st0" d="M10.8,0.7c-0.3,0-0.6,0-1,0c0-0.2,0-0.4,0-0.6c0.9,0,1.7,0,2.6,0c0,0.2,0,0.4,0,0.6c-0.3,0-0.6,0-1,0
			c0,0.1,0,0.2,0,0.2c0,0.7,0,1.4,0,2.2c0,0.1,0,0.2-0.2,0.2c-0.1,0-0.3,0-0.4,0c-0.1,0-0.2,0-0.2-0.2c0-0.7,0-1.4,0-2.1
			C10.8,0.9,10.8,0.8,10.8,0.7z"/>
		<path class="st0" d="M27.9,3.2c-0.3,0-0.5,0-0.7,0c0-0.2,0-0.5,0-0.7c0.2,0,0.4,0,0.7,0L28,2.6C27.9,2.8,27.9,3,27.9,3.2z"/>
	</g>
</g>
</svg>
