<?xml version="1.0" encoding="utf-8"?>
<!-- Generator: Adobe Illustrator 23.0.1, SVG Export Plug-In . SVG Version: 6.00 Build 0)  -->
<svg version="1.1" id="Layer_1" xmlns="http://www.w3.org/2000/svg" xmlns:xlink="http://www.w3.org/1999/xlink" x="0px" y="0px"
	 viewBox="0 0 1128 51" style="enable-background:new 0 0 1128 51;" xml:space="preserve">
<style type="text/css">
	.st0{fill:#9B9B9B;}
	.st1{fill:#9B9B9B;stroke:#999999;stroke-width:2;stroke-miterlimit:10;}
</style>
<g id="pVAuCB_2_">
	<g>
		<path class="st0" d="M1019.4,16.8c3,0,6,0,8.9,0c1.2,0,2.3,0,3.5,0c0,8.5,0,16.9,0,25.4c-4.2,0-8.3,0-12.5,0
			C1019.4,33.7,1019.4,25.3,1019.4,16.8z"/>
		<path class="st0" d="M1081.4,42.6c-0.3-0.1-0.5-0.1-0.8-0.2c-1.4-0.4-2.3-1.3-2.8-2.6c-0.6-1.7-0.7-3.5-0.1-5.2
			c0.7-2.1,2.6-3.3,4.8-3.1c1.5,0.1,2.7,0.6,3.5,1.9c0.3,0.5,0.4,1,0.7,1.6c-0.5,0-0.9,0-1.3,0c-0.1,0-0.2-0.1-0.2-0.2
			c-0.4-1.6-1.8-2-3.1-2c-1.3,0-2.5,0.9-3,2.2c-0.5,1.5-0.5,3,0.1,4.4c0.5,1.3,1.6,2,3.1,2c1.3,0,2.3-0.7,2.8-2
			c0.1-0.3,0.2-0.6,0.3-0.9c0.5,0,0.9,0,1.3,0c-0.1,2.1-1.6,3.8-3.7,4.1c-0.1,0-0.2,0.1-0.3,0.1
			C1082.2,42.6,1081.8,42.6,1081.4,42.6z"/>
		<path class="st0" d="M1057.1,42.2c0-8.5,0-16.9,0-25.3c4.1,0,8.2,0,12.4,0c0,8.4,0,16.9,0,25.3
			C1065.4,42.2,1061.3,42.2,1057.1,42.2z"/>
		<path class="st0" d="M1039,35.9c0.2-0.5,0.3-1,0.5-1.4s0.1-0.7-0.3-1c-1.3-1.1-2.6-2.3-3.9-3.4c-0.1-0.1-0.2-0.2-0.4-0.4
			c0.2-0.1,0.4-0.2,0.6-0.3c0.4-0.2,0.5-0.5,0.4-0.9c-0.3-0.9-0.5-1.8-0.8-2.7c0.8,0.2,1.5,0.3,2.2,0.4c0.4,0.1,0.6-0.1,0.7-0.4
			c0.2-0.4,0.3-0.8,0.5-1.2c0.6,0.7,1.1,1.3,1.7,1.9c0.2,0.2,0.4,0.5,0.6,0.6s0.5,0.2,0.6,0.1s0.2-0.4,0.2-0.6c-0.3-1.7-0.7-3.3-1-5
			c0-0.1,0-0.2,0-0.3c0.5,0.3,0.9,0.6,1.4,0.8c0.6,0.4,0.8,0.3,1.1-0.3c0.5-0.9,0.9-1.8,1.4-2.8c0-0.1,0.1-0.2,0.2-0.3
			c0.3,0.7,0.6,1.3,1,1.9c0.2,0.5,0.5,0.9,0.7,1.4c0.2,0.4,0.4,0.5,0.8,0.2c0.5-0.3,1-0.6,1.6-0.9c-0.3,1.3-0.5,2.6-0.8,3.9
			c-0.1,0.4-0.2,0.9-0.3,1.3c-0.1,0.3-0.1,0.6,0.2,0.8c0.3,0.2,0.5-0.1,0.7-0.3c0.6-0.6,1.2-1.3,1.7-1.9c0.1-0.1,0.3-0.3,0.4-0.5
			c0.2,0.5,0.4,0.9,0.5,1.3c0.1,0.3,0.3,0.5,0.7,0.4c0.7-0.2,1.4-0.3,2.1-0.4c-0.2,0.8-0.4,1.5-0.6,2.3c0,0.1-0.1,0.3-0.1,0.4
			c-0.1,0.4,0,0.7,0.4,0.9c0.2,0.1,0.3,0.2,0.6,0.3c-0.9,0.8-1.7,1.5-2.5,2.2c-0.6,0.5-1.2,1.1-1.9,1.6c-0.3,0.3-0.4,0.5-0.3,0.9
			c0.2,0.5,0.3,0.9,0.5,1.5c-0.6-0.1-1.2-0.2-1.8-0.4c-0.8-0.2-1.7-0.3-2.5-0.5c-0.6-0.1-0.8,0.1-0.8,0.7c0,1.5,0.1,2.9,0.2,4.5
			c-0.3,0-0.6,0-1,0c0-0.4,0-0.8,0-1.2c0-1.1,0.1-2.2,0.1-3.3c0-0.6-0.3-0.8-0.8-0.7c-1.3,0.3-2.5,0.5-3.8,0.8
			C1039.4,35.9,1039.2,35.9,1039,35.9z"/>
		<path class="st0" d="M1086.2,16.9c0,3.5,0,7,0,10.6c-0.5,0-0.9,0-1.4,0c0-1.6,0-3.2,0-4.9c-1.9,0-3.7,0-5.5,0c0,1.6,0,3.2,0,4.9
			c-0.5,0-0.9,0-1.4,0c0-3.5,0-7,0-10.6c0.5,0,0.9,0,1.4,0c0,1.4,0,2.9,0,4.3c1.8,0,3.7,0,5.5,0c0-1.4,0-2.9,0-4.3
			C1085.2,16.9,1085.7,16.9,1086.2,16.9z"/>
		<path class="st0" d="M1119.3,31.7c0,3.5,0,7,0,10.6c-0.4,0-0.8,0-1.2,0c0-0.3,0-0.6,0-0.9c-0.1,0-0.1,0-0.1,0
			c-0.9,1.6-3.8,1.5-4.8-0.4c-0.8-1.5-1-3.1-0.3-4.8c0.8-2.2,3.8-2.6,5.2-0.6c0-0.7,0-1.4,0-2s0-1.3,0-1.9
			C1118.4,31.7,1118.8,31.7,1119.3,31.7z M1113.7,38.2c0.1,0.6,0.2,1.2,0.3,1.7c0.3,0.9,1,1.4,1.8,1.4c0.9,0,1.7-0.5,1.9-1.4
			c0.3-1.2,0.3-2.3-0.2-3.4c-0.3-0.7-1-1-1.8-1s-1.4,0.3-1.7,1.1C1113.9,37.1,1113.8,37.7,1113.7,38.2z"/>
		<path class="st0" d="M1127.9,41.3C1127.9,41.4,1127.9,41.4,1127.9,41.3c0,0.4,0.3,0.8-0.3,1c-0.7,0.2-1.5,0-1.7-0.6
			c-0.1-0.1-0.1-0.3-0.1-0.5c-0.1,0.1-0.2,0.2-0.3,0.3c-0.8,0.8-1.8,1-2.9,0.9c-1.2-0.2-1.9-1-1.9-2.2c0-1.3,0.7-2.2,2-2.4
			c0.7-0.1,1.5-0.2,2.2-0.3s0.9-0.2,1-0.7c0.1-0.6-0.2-1.1-0.8-1.3c-0.6-0.1-1.2-0.1-1.7-0.1c-0.5,0.1-0.8,0.5-1,0.9
			c0,0.1-0.1,0.3-0.1,0.4c-0.4,0-0.8,0-1.1,0c-0.2-0.7,0.2-1.6,0.9-2c1.1-0.7,3.2-0.7,4.3,0c0.6,0.4,0.8,0.9,0.8,1.6
			c0,1.3,0,2.6,0,3.9C1127.1,41.3,1127.1,41.3,1127.9,41.3z M1125.8,38.4c-0.7,0.1-1.3,0.2-1.9,0.3c-0.3,0.1-0.7,0.1-1,0.2
			c-0.6,0.2-0.9,0.6-0.9,1.2c0.1,0.7,0.4,1,1.1,1.1s1.4-0.1,2-0.5c0.4-0.3,0.7-0.7,0.7-1.2C1125.8,39.2,1125.8,38.8,1125.8,38.4z"/>
		<path class="st0" d="M1103.3,26.6L1103.3,26.6c0,0.4,0.3,0.9-0.3,1c-0.8,0.2-1.5,0-1.7-0.6c-0.1-0.1-0.1-0.3-0.1-0.5
			c-0.1,0.1-0.3,0.2-0.4,0.3c-0.9,0.8-2,1-3.2,0.7c-1-0.2-1.5-1-1.6-1.9c-0.1-1.1,0.4-2,1.3-2.3c0.7-0.2,1.4-0.3,2.1-0.4
			c0.3-0.1,0.6-0.1,0.8-0.1c0.4,0,0.7-0.1,0.9-0.5c0.1-0.5,0.1-0.9-0.3-1.3c-1-0.9-2.8-0.4-3.2,0.9c0,0.1,0,0.1-0.1,0.2
			c-0.4,0-0.8,0-1.1,0c-0.1-0.9,0.3-1.7,1.1-2.1c1.2-0.6,2.5-0.6,3.8,0c0.8,0.3,1.1,1,1.1,1.8c0,1.4,0,2.7,0,4.1
			C1102.5,26.6,1102.5,26.6,1103.3,26.6z M1101.2,23.7c-0.6,0.1-1.1,0.2-1.6,0.3c-0.4,0.1-0.9,0.1-1.3,0.3c-0.6,0.2-0.9,0.6-0.8,1.2
			s0.4,1,1,1.1c0.8,0.1,1.6-0.1,2.2-0.7c0.2-0.3,0.4-0.6,0.5-1C1101.2,24.5,1101.2,24.1,1101.2,23.7z"/>
		<path class="st0" d="M1111.5,41.3C1111.5,41.4,1111.5,41.4,1111.5,41.3c0,0.4,0.3,0.9-0.2,1c-0.7,0.2-1.4,0-1.6-0.5
			c-0.1-0.1-0.1-0.3-0.2-0.5c-0.1,0.1-0.2,0.2-0.3,0.2c-0.9,0.8-2,1.1-3.2,0.8c-1-0.2-1.6-1-1.7-1.9c-0.1-1.2,0.4-2.1,1.4-2.5
			c0.8-0.2,1.7-0.3,2.6-0.5c0.1,0,0.2,0,0.3,0c0.4,0,0.8-0.1,0.9-0.6s-0.1-1-0.5-1.3c-0.7-0.4-1.5-0.4-2.3-0.1
			c-0.5,0.2-0.7,0.7-0.8,1.3c-0.4,0-0.8,0-1.2,0c-0.1-1,0.4-1.9,1.4-2.3c1.1-0.4,2.3-0.4,3.4,0c0.9,0.4,1.2,1.1,1.2,2
			c0,1.3,0,2.6,0,3.9C1110.7,41.3,1110.7,41.3,1111.5,41.3z M1109.3,38.5c-0.7,0.1-1.5,0.2-2.2,0.4c-0.3,0.1-0.6,0.1-0.9,0.3
			c-0.5,0.2-0.7,0.6-0.6,1.2c0.1,0.6,0.4,0.9,0.9,1.1C1108.3,41.7,1109.7,40.4,1109.3,38.5z"/>
		<path class="st0" d="M1095.1,41.3c0.1,1,0,1.1-1,1.1c-0.6-0.1-1-0.4-1.1-1.1c-0.2,0.1-0.3,0.2-0.4,0.3c-0.9,0.8-2,1-3.2,0.7
			c-0.9-0.2-1.5-0.9-1.6-1.8c-0.1-1.1,0.3-2,1.2-2.4c0.6-0.3,1.4-0.3,2.1-0.5c0.3-0.1,0.7-0.1,1-0.1s0.7-0.1,0.8-0.5
			c0.1-0.5,0.1-0.9-0.2-1.2c-0.9-0.9-2.8-0.5-3.2,0.8c0,0.1-0.2,0.2-0.3,0.2c-0.3,0-0.6,0-0.9,0c-0.1-0.9,0.4-1.9,1.3-2.2
			c1.2-0.5,2.4-0.5,3.6,0c0.7,0.3,1.1,0.9,1.1,1.8c0,1.3,0,2.7,0,4C1094.3,41.3,1094.3,41.3,1095.1,41.3z M1092.9,38.4
			c-0.3,0.1-0.6,0.1-0.9,0.2c-0.3,0.1-0.6,0.1-0.9,0.1c-0.4,0.1-0.8,0.1-1.2,0.3c-0.6,0.2-0.8,0.6-0.8,1.2c0,0.6,0.4,1,1,1.1
			C1092,41.7,1093.3,40.3,1092.9,38.4z"/>
		<path class="st0" d="M1094.8,25c-0.1,1.1-1,2.3-2.1,2.5c-0.7,0.2-1.4,0.2-2.1,0.1c-1-0.1-1.8-0.7-2.2-1.7
			c-0.8-1.8-0.7-3.6,0.5-5.2c1.5-2,4.8-1.5,5.7,0.9c0.3,0.7,0.3,1.6,0.5,2.4c-2,0-3.8,0-5.7,0c-0.2,1,0.4,2.1,1.3,2.4
			c1.1,0.4,2.3,0,2.7-1c0.2-0.4,0.3-0.5,0.7-0.4C1094.3,25.1,1094.5,25,1094.8,25z M1093.5,23c0-1.4-0.8-2.3-2.1-2.2
			c-1.2,0-2.2,1.1-2.1,2.2C1090.7,23,1092.1,23,1093.5,23z"/>
		<path class="st0" d="M1118.3,27.5c-0.4,0-0.8,0-1.3,0c0-0.2,0-0.3,0-0.5c0-1.5,0-3,0-4.5c0-0.3,0-0.6-0.1-0.9
			c-0.1-0.5-0.4-0.7-0.9-0.8c-1.4-0.3-2.6,0.6-2.6,2.1c-0.1,1.3,0,2.7,0,4c0,0.2,0,0.3,0,0.6c-0.4,0-0.8,0-1.3,0c0-3.5,0-7,0-10.6
			c0.4,0,0.8,0,1.3,0c0,1.2,0,2.5,0,3.7l0.1,0.1c0.1-0.1,0.1-0.2,0.2-0.3c0.9-1,2.4-1.1,3.5-0.5c0.6,0.4,1,1,1,1.7
			C1118.3,23.6,1118.3,25.5,1118.3,27.5z"/>
		<path class="st0" d="M1097.8,42.2c-0.4,0-0.8,0-1.3,0c0-2.6,0-5.1,0-7.7c0.4,0,0.8,0,1.2,0c0,0.3,0,0.6,0,1
			c0.2-0.2,0.3-0.3,0.3-0.4c1.1-1.3,3.2-1,3.9-0.3c0.5,0.4,0.7,1,0.8,1.6c0,1.9,0,3.8,0,5.7c-0.4,0-0.8,0-1.3,0c0-0.2,0-0.3,0-0.5
			c0-1.4,0-2.8,0-4.2c0-0.1,0-0.3,0-0.4c0-0.9-0.3-1.4-1-1.6c-0.8-0.2-1.7,0-2.1,0.7c-0.3,0.4-0.5,1-0.5,1.5c-0.1,1.3,0,2.6,0,3.9
			C1097.8,41.8,1097.8,42,1097.8,42.2z"/>
		<path class="st0" d="M1110.8,19.8c0,0.4,0,0.7,0,1.1c-0.4,0-0.8,0-1.2,0c0,0.7,0,1.3,0,1.9c0,1,0,1.9,0,2.9c0,0.7,0.1,0.8,0.8,0.8
			c0.1,0,0.2,0,0.4,0c0,0.3,0,0.6,0,1c-0.4,0-0.8,0.1-1.3,0.1c-0.8,0-1.3-0.6-1.3-1.5c0-1.6,0-3.2,0-4.7c0-0.2,0-0.3,0-0.5
			c-0.4,0-0.7,0-1,0c0-0.4,0-0.7,0-1.1c0.3,0,0.7,0,1,0c0-0.7,0-1.4,0-2.1c0.4,0,0.9,0,1.3,0c0,0.7,0,1.4,0,2.1
			C1110,19.8,1110.4,19.8,1110.8,19.8z"/>
		<path class="st0" d="M1106,27.5c-0.4,0-0.8,0-1.3,0c0-3.5,0-7,0-10.6c0.4,0,0.8,0,1.3,0C1106,20.4,1106,23.9,1106,27.5z"/>
	</g>
</g>
<g>
	<path class="st0" d="M905.8,14.7c-0.1,1-0.1,1.9-0.1,2.7c0,1,0,1.9,0.1,2.8H905v-0.4c0-1.5-0.6-2-2.4-2h-0.8c0,1.8,0,3.5,0,4
		c0,0.6,0.2,1,0.9,1h1.6v0.9c0,0-2,0-3.2,0c-1.1,0-3.2,0-3.2,0v-0.9h1.3c0.8,0,1-0.4,1-1c0-1.1,0-7.8,0-8.7c0-0.6-0.2-0.8-0.9-0.8
		H898v-0.8c0.3,0,2.7,0,3,0s2,0,4.5,0c0.8,0,2.5,0,3.4-0.1c-0.1,1.1-0.1,3.1-0.1,4.2H908c0-2.7-0.6-3.3-2.7-3.3h-2.6
		c-0.5,0-0.7,0.3-0.7,0.8c0,0.4,0,2.2,0,4h0.9c1.6,0,2.3-0.5,2.3-2v-0.4C905.2,14.7,905.8,14.7,905.8,14.7z"/>
	<path class="st0" d="M910.4,17.5c0-4.2,2.5-6.4,5.9-6.4c3.9,0,5.9,2.4,5.9,6.4c0,4.2-2.5,6.4-5.9,6.4
		C912.5,23.9,910.4,21.5,910.4,17.5z M920.4,17.5c0-3.9-1.4-5.6-4-5.6c-2.5,0-4,1.8-4,5.6c0,4.1,1.4,5.6,4,5.6
		S920.4,21.3,920.4,17.5z"/>
	<path class="st0" d="M934.7,23c0.8,0,1.1-1.1,0.7-3.1l0.7-0.1c0.5,2.1,0.2,4.1-1.8,4.1s-2.5-1-2.6-3.3c-0.1-2.2-0.8-2.6-2.4-2.6
		h-1.5c0,1.8,0,3.5,0,3.8c0.1,0.7,0.3,1,1,1h0.9v0.8c0,0-2.6,0-2.9,0c-1,0-2.9,0-2.9,0v-0.9h1c0.8,0,1.1-0.2,1.1-0.9
		c0-0.8,0-7.8,0-8.7c0-0.7-0.2-0.9-0.9-0.9H924v-0.8c0.3,0,2.6,0,2.9,0c0.8,0,2.2,0,2.9,0c3.1,0,4.6,1.1,4.6,3.2
		c0,1.7-1.3,2.9-2.9,3.1c1.4,0.3,1.8,1.2,2,2.5C933.7,22.6,934.1,23,934.7,23z M927.7,17.3h1.7c2.1,0,3.1-0.7,3.1-2.6
		c0-1.7-0.7-2.5-2.9-2.5h-1.3c-0.5,0-0.6,0.3-0.6,0.7C927.7,13.3,927.7,15.3,927.7,17.3z"/>
	<path class="st0" d="M944.8,14.6h0.8c0,1-0.1,1.4-0.1,2.7c0,1.3,0,1.9,0.1,2.8h-0.8v-0.2c0-1.6-0.5-2.2-2.3-2.2h-1.2
		c0,1.9,0,3.7,0,4.1c0,0.6,0.3,0.9,0.8,0.9h3.2c2,0,2.6-0.9,2.7-3.5h0.9c-0.1,1.2-0.2,3.1-0.1,4.4c-0.8-0.1-2.7-0.1-3.4-0.1h-4.9
		c-0.9,0-3,0-3,0v-0.9h1.3c0.8,0,1-0.3,1-0.9c0-0.9,0-7.9,0-8.7c0-0.6-0.2-0.8-0.9-0.8h-1.4v-0.8c0.3,0,2.6,0,3,0s2.5,0,5,0
		c0.8,0,2.5,0,3.3-0.1c-0.1,1.1-0.1,3.1,0,4.2H948c0-2.6-0.5-3.3-2.6-3.3h-3.2c-0.5,0-0.7,0.3-0.7,0.8c0,0.4,0,2.2,0,4h1.4
		c1.5,0,2.1-0.5,2.1-2.1v-0.3H944.8z"/>
	<path class="st0" d="M956.8,22.1c1-2.5,2.4-6.4,3-8.4c0.3-0.9,0.2-1.5-0.9-1.5h-0.6v-0.8c0,0,1.7,0.1,2.5,0.1s2.1-0.1,2.3-0.1v0.8
		h-0.5c-1,0-1.3,0.4-1.8,1.5c-1,2.4-3,7.5-3.8,9.9h-1.3c-0.8-2.4-2.6-7.8-3.5-10.2c-0.3-0.9-0.6-1.3-1.6-1.3h-0.4v-0.8
		c0,0,1.7,0.1,2.7,0.1s2.6-0.1,2.8-0.1v0.8h-0.8c-0.8,0-1.1,0.4-0.8,1.4C954.6,15.6,955.9,19.7,956.8,22.1z"/>
	<path class="st0" d="M971.8,14.6h0.8c0,1-0.1,1.4-0.1,2.7c0,1.3,0,1.9,0.1,2.8h-0.8v-0.2c0-1.6-0.5-2.2-2.3-2.2h-1.2
		c0,1.9,0,3.7,0,4.1c0,0.6,0.3,0.9,0.8,0.9h3.2c2,0,2.6-0.9,2.7-3.5h0.9c-0.1,1.2-0.2,3.1-0.1,4.4c-0.8-0.1-2.7-0.1-3.4-0.1h-4.9
		c-0.9,0-3,0-3,0v-0.9h1.3c0.8,0,1-0.3,1-0.9c0-0.9,0-7.9,0-8.7c0-0.6-0.2-0.8-0.9-0.8h-1.4v-0.8c0.3,0,2.6,0,3,0s2.5,0,5,0
		c0.8,0,2.5,0,3.3-0.1c-0.1,1.1-0.1,3.1,0,4.2H975c0-2.6-0.5-3.3-2.6-3.3h-3.2c-0.5,0-0.7,0.3-0.7,0.8c0,0.4,0,2.2,0,4h1.4
		c1.5,0,2.1-0.5,2.1-2.1v-0.3H971.8z"/>
	<path class="st0" d="M988.6,23c0.8,0,1.1-1.1,0.7-3.1l0.7-0.1c0.5,2.1,0.2,4.1-1.8,4.1s-2.5-1-2.6-3.3c-0.1-2.2-0.8-2.6-2.4-2.6
		h-1.5c0,1.8,0,3.5,0,3.8c0.1,0.7,0.3,1,1,1h0.9v0.8c0,0-2.6,0-2.9,0c-1,0-2.9,0-2.9,0v-0.9h1c0.8,0,1.1-0.2,1.1-0.9
		c0-0.8,0-7.8,0-8.7c0-0.7-0.2-0.9-0.9-0.9h-1.2v-0.8c0.3,0,2.6,0,2.9,0c0.8,0,2.2,0,2.9,0c3.1,0,4.6,1.1,4.6,3.2
		c0,1.7-1.3,2.9-2.9,3.1c1.4,0.3,1.8,1.2,2,2.5C987.6,22.6,988,23,988.6,23z M981.6,17.3h1.7c2.1,0,3.1-0.7,3.1-2.6
		c0-1.7-0.7-2.5-2.9-2.5h-1.3c-0.5,0-0.6,0.3-0.6,0.7C981.6,13.3,981.6,15.3,981.6,17.3z"/>
	<path class="st0" d="M907.8,38.8v3.4c0,0.9,0.2,1.2,1.4,1.2h1.7v1.2c0,0-2.7,0-4.3,0s-4.3,0-4.3,0v-1.2h1.7c1.2,0,1.4-0.3,1.4-1.2
		v-3.3c-1.2-2.3-3.2-6.2-4.3-8.1c-0.6-1.1-1.3-1.6-2.8-1.6h-0.6v-1.1c0,0,2.7,0.1,4.2,0.1s4.2-0.1,4.2-0.1v1.1h-1.2
		c-1.5,0-1.7,0.7-1.2,1.6c0.7,1.6,2.5,5,3.6,6.7c1-1.9,2.7-5,3.4-6.7c0.4-0.9,0.5-1.6-1.1-1.6h-1.1v-1.1c0,0,2.4,0.1,3.7,0.1
		s3.7-0.1,3.7-0.1v1.1h-0.8c-1.8,0-2.4,0.4-3.2,1.7C911,32.8,909,36.5,907.8,38.8z"/>
	<path class="st0" d="M916.2,36.3c0-5.6,3.3-8.7,8-8.7c5.3,0,8.1,3.3,8.1,8.7c0,5.7-3.4,8.7-8.1,8.7C919,45,916.2,41.9,916.2,36.3z
		 M929.7,36.3c0-5.3-1.8-7.6-5.5-7.6c-3.4,0-5.5,2.4-5.5,7.7c0,5.5,1.9,7.6,5.5,7.6C927.8,44,929.7,41.6,929.7,36.3z"/>
	<path class="st0" d="M936.8,30.6c0-1-0.3-1.3-1.2-1.3h-1.3v-1.1c0,0,2.4,0.1,3.8,0.1s3.4-0.1,3.8-0.1v1.1h-1.3
		c-1,0-1.4,0.3-1.4,1.3V38c0,4.2,1.7,5.7,4.7,5.7s4.7-1.3,4.7-5.7c0-1.4,0-5.2,0-7.4c0-1-0.5-1.4-1.4-1.4H946v-1.1
		c0,0,2.2,0.1,3.4,0.1s3-0.1,3.4-0.1v1.1h-1.2c-0.9,0-1.3,0.4-1.3,1.4c0,2.2,0,6,0,7.2c0,4.7-2,7.2-6.5,7.2c-4.6,0-6.9-2.1-6.9-7.3
		C936.8,37.8,936.8,31.8,936.8,30.6z"/>
	<path class="st0" d="M968.3,40.8c0-2.7,0-9.1,0-10.3c0-1-0.5-1.3-1.3-1.3h-1.6v-1.1c0.4,0,2.3,0.1,3.6,0.1s3.5-0.1,3.6-0.1v1.1H971
		c-0.9,0-1.3,0.3-1.3,1.3c0,1.3,0,12.2,0,14.1c-0.3,0-1.3,0-1.6,0c-2.1-3.2-6.5-9.6-9.4-13.8c0,3.6,0,10.3,0,11.5
		c0,0.8,0.3,1.1,1.4,1.1h1.5v1.2c0,0-2.3,0-3.6,0s-3.6,0-3.6,0v-1.2h1.5c1.1,0,1.4-0.3,1.4-1.1c0-1.5,0.1-10.7,0-11.9
		c0-0.9-0.4-1.2-1.3-1.2h-1.7v-1.1c1.2,0,3.9,0,5.1,0C961.5,31.1,965.8,37.4,968.3,40.8z"/>
	<path class="st0" d="M986.1,28.7c1.1,0.6,1.4,0.5,1.6-0.8h1.1c-0.2,1.4-0.4,4-0.3,5.9c-0.3,0-0.9,0-1.2,0c-0.3-2.8-1.5-5.1-5.3-5.1
		c-3.6,0-5.5,2.2-5.5,7.6c0,5.9,2.2,7.7,5.3,7.7c2.8,0,4.9-1.6,4.9-4.6c0-1.5-0.2-2.1-1.5-2.1H984v-1.1c0,0,2.3,0.1,3.6,0.1
		s3.6-0.1,3.6-0.1v1.1h-1c-0.7,0-1,0.3-1,1.4c0,1.1,0,4.4,0.1,6.2c-0.3,0-1,0-1.3,0c-0.1-0.4-0.3-1.8-0.6-3
		c-0.9,1.7-2.9,3.1-5.5,3.1c-4.8,0-8-2.5-8-8.7s3.5-8.7,8-8.7C983.7,27.6,984.9,28,986.1,28.7z"/>
</g>
<g id="GA3Fnt_2_">
	<g>
		<path class="st0" d="M151.7,43.2c-2.6,0-4.9-0.5-7-1.6c-1-0.5-1.9-1.2-2.7-1.9c-1.5-1.4-2.6-3.1-3.3-5c-0.3-0.8-0.5-1.7-0.6-2.5
			s-0.2-1.7-0.1-2.5c0.1-2.5,0.8-4.8,2.2-6.8s3.2-3.5,5.4-4.5c1.1-0.5,2.2-0.8,3.4-1c0.9-0.1,1.8-0.2,2.7-0.2c3,0.1,5.8,0.9,8.2,2.8
			c1.8,1.4,3.2,3.2,4,5.4c0.4,1,0.6,2,0.8,3c0.1,0.9,0.1,1.8,0.1,2.6c-0.1,1.9-0.6,3.7-1.5,5.4c-0.8,1.4-1.8,2.6-3,3.7
			c-1.7,1.4-3.7,2.4-5.8,2.9C153.5,43.1,152.4,43.2,151.7,43.2z M151.4,22.2c-0.3,0-0.7,0-1,0.1c-0.2,0-0.3,0-0.5,0.1
			c-2.3,0.5-4,1.7-5.1,3.8c-0.9,1.7-1.2,3.6-0.8,5.6c0.3,1.8,1.2,3.3,2.5,4.5c1.3,1.1,2.8,1.7,4.5,1.8c0.8,0.1,1.6,0,2.4-0.2
			c1.7-0.4,3-1.3,4-2.6c1.1-1.5,1.6-3.1,1.6-4.9c0-1-0.1-2-0.5-2.9c-0.5-1.4-1.3-2.6-2.5-3.5C154.7,22.7,153.1,22.2,151.4,22.2z"/>
		<path class="st0" d="M173.2,37.9c0.1,0,0.2,0,0.3,0c4.5,0,8.9,0,13.4,0c0.1,0,0.2,0,0.2,0.2c0,1.5,0,3,0,4.5c0,0.1,0,0.1,0,0.2
			c-7,0-14,0-21.1,0c0-0.1,0-0.1,0-0.2c0-1.3,0-2.6,0-3.9c0-0.1,0-0.2,0.1-0.3c0.5-0.6,1.1-1.3,1.7-1.9c0.6-0.7,1.2-1.4,1.8-2.2
			c0.6-0.7,1.3-1.5,1.9-2.2c0.5-0.6,1.1-1.3,1.6-1.9c0.5-0.5,0.9-1.1,1.4-1.6c0.6-0.6,1.1-1.3,1.7-1.9c0.6-0.7,1.3-1.5,1.9-2.2
			c0.6-0.7,1.2-1.3,1.8-2.1c-0.1,0-0.2,0-0.3,0c-4.3,0-8.6,0-12.9,0h-0.1c-0.1,0-0.2,0-0.2-0.2c0-1.5,0-3.1,0-4.6v-0.1
			c0.1,0,0.1,0,0.2,0c6.7,0,13.4,0,20.2,0c0.2,0,0.2,0,0.2,0.2c0,1.3,0,2.5,0,3.8c0,0.1-0.1,0.2-0.1,0.3c-0.7,0.8-1.4,1.7-2.1,2.5
			c-0.7,0.8-1.4,1.6-2.1,2.5c-0.8,0.9-1.5,1.8-2.3,2.7c-0.8,0.9-1.6,1.8-2.3,2.7c-0.8,0.9-1.5,1.8-2.3,2.7c-0.6,0.7-1.3,1.5-1.9,2.2
			C173.7,37.3,173.5,37.6,173.2,37.9z"/>
		<path class="st0" d="M168.4,45.1c0,0.1,0,0.1,0,0.2c0,1,0,1.9,0,2.9c0,0.1,0,0.2-0.2,0.2c-0.1,0-0.2,0-0.3,0
			c-11.8,0-23.5,0-35.3,0c-0.1,0-0.1,0-0.2,0c0-12.1,0-24.3,0-36.4c2.8,0,5.6,0,8.4,0c0,1,0,2.1,0,3.1c-1.8,0-3.5,0-5.3,0
			c0,10,0,20,0,30C146.6,45.1,157.5,45.1,168.4,45.1z"/>
		<path class="st0" d="M190,15.1c-9.5,0-19,0-28.4,0c0-1.1,0-2.1,0-3.2c10.5,0,21.1,0,31.6,0c0,12.1,0,24.3,0,36.4c-2.7,0-5.3,0-8,0
			c0-0.1,0-0.2,0-0.2c0-0.9,0-1.9,0-2.8c0-0.2,0-0.2,0.2-0.2c1.5,0,2.9,0,4.4,0c0.1,0,0.1,0,0.2,0C190,35.1,190,25.1,190,15.1z"/>
		<path class="st0" d="M179.3,45.2c0.2,0,0.5,0,0.7,0l0.1,0.1c0.2,0.6,0.4,1.3,0.6,2c0-0.1,0.1-0.2,0.1-0.3c0.2-0.6,0.4-1.1,0.5-1.7
			c0-0.1,0.1-0.1,0.2-0.1c0.2,0,0.3,0,0.5,0c0.2,0.7,0.5,1.4,0.7,2.1c0.1-0.2,0.1-0.4,0.2-0.6c0.1-0.5,0.3-0.9,0.4-1.4
			c0-0.1,0.1-0.1,0.2-0.1c0.2,0,0.4,0,0.6,0c0,0.1-0.1,0.3-0.1,0.4c-0.3,0.9-0.6,1.8-0.9,2.7c0,0.1-0.1,0.2-0.2,0.2
			c-0.5,0-0.5,0-0.6-0.4c-0.2-0.5-0.4-1-0.6-1.6c-0.2,0.5-0.3,1-0.5,1.4c-0.1,0.2-0.1,0.3-0.2,0.5c0,0.1-0.1,0.1-0.2,0.1
			c-0.5,0-0.5,0-0.6-0.4c-0.3-0.9-0.6-1.7-0.9-2.6C179.3,45.3,179.3,45.2,179.3,45.2z"/>
		<path class="st0" d="M177.5,48.4c-0.9,0.1-1.7-0.7-1.7-1.6c0-0.8,0.7-1.7,1.8-1.6c0.9,0,1.6,0.7,1.6,1.6
			C179.2,47.7,178.4,48.5,177.5,48.4z M178.5,46.8c0-0.6-0.4-1-0.9-1s-0.9,0.4-0.9,0.9c0,0.6,0.4,1,0.9,1
			C178,47.7,178.5,47.3,178.5,46.8z"/>
		<path class="st0" d="M156.5,11.9c0.6,0,1.2,0,1.8,0c0.5,0,0.8,0.5,0.9,0.9c0,0.5-0.2,0.9-0.7,1.1c0.3,0.4,0.5,0.7,0.8,1.1
			c-0.3,0-0.5,0-0.8,0l-0.1-0.1c-0.2-0.2-0.3-0.5-0.5-0.7c-0.1-0.1-0.2-0.2-0.3-0.2s-0.2,0-0.3,0c0,0.3,0,0.5,0,0.8
			c0,0.2,0,0.2-0.2,0.2c-0.5,0-0.5,0-0.5-0.5C156.6,13.6,156.6,12.8,156.5,11.9C156.5,12,156.5,12,156.5,11.9z M157.2,13.5
			c0.3,0,0.6,0,0.9,0c0.2,0,0.3-0.2,0.3-0.4s-0.1-0.4-0.3-0.4c-0.3,0-0.6,0-0.9,0C157.2,12.9,157.2,13.2,157.2,13.5z"/>
		<path class="st0" d="M153.1,11.9c0.5,0,0.9,0,1.4,0c0.2,0,0.5,0.1,0.7,0.2c0.6,0.3,0.9,0.9,0.8,1.6c-0.1,0.6-0.6,1.2-1.2,1.3
			c-0.5,0.1-1.1,0-1.6,0.1c0,0-0.1-0.1-0.1-0.2c0-0.9,0-1.9,0-2.8C153.1,12.1,153.1,12,153.1,11.9z M153.8,14.5c0.2,0,0.4,0,0.6,0
			c0.4,0,0.8-0.4,0.9-0.8c0.1-0.5-0.2-0.9-0.6-1c-0.2-0.1-0.5,0-0.7-0.1l-0.1,0.1C153.8,13.3,153.8,13.9,153.8,14.5z"/>
		<path class="st0" d="M146.1,15.1c-0.3,0-0.5,0-0.7,0c0-1.1,0-2.1,0-3.2c0.2,0,0.5,0,0.7,0c0,0.4,0,0.8,0,1.2c0.4,0,0.8,0,1.3,0
			c0-0.4,0-0.8,0-1.2c0.3,0,0.5,0,0.7,0c0,1,0,2.1,0,3.2c-0.2,0-0.4,0-0.6,0c0,0-0.1-0.1-0.1-0.2c0-0.3,0-0.6,0-0.9
			c0-0.1,0-0.1,0-0.2c-0.4,0-0.8,0-1.2,0c0,0-0.1,0.1-0.1,0.2C146.1,14.4,146.1,14.7,146.1,15.1z"/>
		<path class="st0" d="M151.2,15.1c-0.2,0-0.4,0-0.6,0c-0.6,0-1.1,0-1.7,0c-0.1,0-0.2,0-0.2-0.1c0-1,0-2,0-3c0,0,0,0,0-0.1
			c0.8,0,1.6,0,2.4,0c0,0.2,0,0.4,0,0.6c-0.6,0-1.1,0-1.7,0c0,0.2,0,0.4,0,0.6c0.1,0,0.2,0,0.3,0c0.3,0,0.7,0,1,0
			c0.1,0,0.2,0,0.2,0.2c0,0.5,0,0.5-0.5,0.5c-0.3,0-0.6,0-1,0l0,0c0,0.2,0,0.4,0,0.6c0.6,0,1.1,0,1.7,0
			C151.2,14.7,151.2,14.9,151.2,15.1z"/>
		<path class="st0" d="M174.6,45.2c0.2,0,0.5,0,0.7,0c0,1.1,0,2.1,0,3.2c-0.2,0-0.4,0-0.6,0c0,0-0.1-0.1-0.1-0.2c0-0.3,0-0.6,0-0.9
			c0-0.1,0-0.1,0-0.2c-0.4,0-0.8,0-1.3,0c0,0.3,0,0.6,0,0.9c0,0.4,0,0.4-0.4,0.4s-0.3,0-0.3-0.3c0-0.9,0-1.9,0-2.8
			c0.2,0,0.5,0,0.7,0c0,0.4,0,0.8,0,1.2c0.4,0,0.8,0,1.3,0C174.6,46,174.6,45.6,174.6,45.2z"/>
		<path class="st0" d="M172,45.5c-0.1,0.2-0.3,0.4-0.4,0.5c-0.3-0.1-0.5-0.2-0.8-0.3c-0.1,0-0.2,0-0.3,0c-0.2,0.1-0.2,0.3,0,0.4
			c0.2,0.1,0.4,0.1,0.5,0.2c0.2,0.1,0.3,0.1,0.5,0.2c0.3,0.1,0.5,0.4,0.5,0.8c0,0.4-0.2,0.7-0.5,0.9c-0.2,0.1-0.5,0.1-0.7,0.1
			c-0.5,0-0.9-0.1-1.3-0.4c0,0,0,0,0-0.1c0.1-0.2,0.3-0.3,0.4-0.5c0.3,0.1,0.5,0.2,0.8,0.3c0.1,0,0.3,0,0.5,0c0.1,0,0.2-0.1,0.2-0.2
			c0-0.1-0.1-0.2-0.1-0.2c-0.2-0.1-0.3-0.1-0.5-0.2c-0.2-0.1-0.4-0.1-0.5-0.2c-0.4-0.2-0.5-0.5-0.5-0.9s0.2-0.6,0.5-0.8
			C170.9,45,171.5,45.1,172,45.5z"/>
		<path class="st0" d="M143.2,12.6c-0.3,0-0.6,0-1,0c0-0.2,0-0.4,0-0.6c0.9,0,1.7,0,2.6,0c0,0.2,0,0.4,0,0.6c-0.3,0-0.6,0-1,0
			c0,0.1,0,0.2,0,0.2c0,0.7,0,1.4,0,2.2c0,0.1,0,0.2-0.2,0.2c-0.1,0-0.3,0-0.4,0c-0.1,0-0.2,0-0.2-0.2c0-0.7,0-1.4,0-2.1
			C143.2,12.8,143.2,12.7,143.2,12.6z"/>
		<path class="st0" d="M160.3,15.1c-0.3,0-0.5,0-0.7,0c0-0.2,0-0.5,0-0.7c0.2,0,0.4,0,0.7,0l0.1,0.1
			C160.3,14.7,160.3,14.9,160.3,15.1z"/>
	</g>
</g>
<g id="_x33_58LRG_2_">
	<g>
		<path class="st0" d="M20.5,9.3c11.3,0,20.5,9.2,20.4,20.5c0,11.3-9.2,20.5-20.5,20.4C9.1,50.2,0,41,0,29.7S9.2,9.2,20.5,9.3z
			 M27.7,29.9c0-0.1-0.1-0.2-0.1-0.3c-1.6-3.6-3.2-7.2-4.8-10.9c-0.1-0.2-0.2-0.2-0.4-0.2c-1.9,0-3.8,0-5.7,0
			c-0.9,0-1.8,0.1-2.6,0.3c-2.3,0.6-4.2,1.8-5.4,3.9c-1.1,1.9-1.4,3.9-1.1,6c0.5,3.3,2.8,5.8,6.1,6.4c0.2,0,0.3,0.1,0.3,0.3
			c0,1.8,0,3.6,0,5.4c0,0.1,0,0.2,0,0.3c2.7,0,5.4,0,8.1,0c0-1,0-1.9,0-2.9s0-1.9,0-2.9c0.4,0,0.7,0,1,0c1.1,0,2.4-0.7,2.4-2.4
			c0-1,0-1.9,0-2.9c0-0.1,0-0.2,0-0.3C26.2,29.9,26.9,29.9,27.7,29.9z M34.4,29.9c0-0.1-0.1-0.2-0.1-0.2c-1.6-3.6-3.2-7.3-4.8-10.9
			c-0.1-0.2-0.2-0.2-0.3-0.2c-0.9,0-1.9,0-2.8,0c-0.1,0-0.1,0-0.2,0c1.7,3.8,3.3,7.5,5,11.3c-0.8,0-1.5,0-2.3,0c0,0.1,0,0.2,0,0.3
			c0,1,0,2,0,3c0,1.3-0.6,2-1.9,2.2c-0.4,0.1-0.9,0.1-1.3,0.1c0,1.9,0,3.8,0,5.8c1.1,0,2.1,0,3.2,0c0-1.9,0-3.8,0-5.8
			c0.4,0,0.7,0,1.1,0c1.1,0,2.1-0.9,2.2-2c0-1.1,0-2.1,0-3.2c0-0.1,0-0.2,0-0.3C33,29.9,33.7,29.9,34.4,29.9z"/>
		<path class="st0" d="M66.8,41.2c0-1.2,0-2.4,0-3.6c1,0,1.9,0,2.9,0c0-5.2,0-10.4,0-15.5c-0.9,0-1.7,0-2.6,0c0-1.2,0-2.4,0-3.6
			c0.1,0,0.2,0,0.3,0c2.9,0,5.7,0,8.6,0c1.4,0,2.8,0.2,4.2,0.7c2.2,0.9,3.5,3,3.4,5.2c-0.1,1.9-0.9,3.4-2.6,4.3h-0.1
			c0.5,0.3,1,0.6,1.4,1c1.6,1.4,2.2,3.2,2,5.3c-0.2,1.6-0.8,3-2,4.1c-1.1,0.9-2.3,1.5-3.7,1.7C78.1,40.9,77.5,41,77,41
			c-3.3,0-6.6,0-10,0C67,41.2,66.9,41.2,66.8,41.2z M73.9,37.6c0.4,0,0.7,0,1.1,0c0.8,0,1.7,0,2.5-0.1c1.5-0.2,2.5-1.2,2.7-2.6
			c0.2-1.3-0.4-2.6-1.5-3.2c-0.6-0.3-1.3-0.5-2-0.5c-0.9,0-1.7,0-2.6,0c-0.1,0-0.2,0-0.2,0C73.9,33.4,73.9,35.5,73.9,37.6z
			 M73.9,22.1c0,1.9,0,3.7,0,5.5l0,0c1.1,0,2.2,0,3.2-0.1c1.3-0.1,2.3-1.2,2.3-2.5c0.1-1.4-0.7-2.5-2.1-2.8
			C76.3,22,75.1,22.2,73.9,22.1z"/>
		<path class="st0" d="M48,41.2c0-1.2,0-2.3,0-3.5c1,0,1.9,0,2.9,0c0-5.2,0-10.4,0-15.5c-0.9,0-1.9,0-2.8,0c0-1.2,0-2.4,0-3.5
			c0.1,0,0.1,0,0.2,0c3.2,0,6.4,0,9.6,0c1.6,0,3.1,0.3,4.5,1c2.1,1.2,3.2,3,3.3,5.4c0.1,1.5-0.2,2.9-1.1,4.2s-2.2,2.1-3.7,2.6
			c-1.4,0.4-2.8,0.5-4.2,0.4c-0.5,0-1.1,0-1.6,0c0,1.8,0,3.6,0,5.4c1.1,0,2.2,0,3.3,0c0,1.2,0,2.4,0,3.6C55,41.2,51.5,41.2,48,41.2z
			 M55.1,28.7c1.2,0,2.5,0,3.7-0.1c1-0.1,1.7-0.6,2.2-1.5c1-1.7,0.5-4.6-2.5-4.9c-1.1-0.1-2.2,0-3.4-0.1c0,0,0,0-0.1,0
			C55.1,24.3,55.1,26.5,55.1,28.7z"/>
		<path class="st0" d="M91.1,39.9c0,0.4,0,0.8,0,1.3c-1.1,0-2.2,0-3.3,0c0-2.3,0-4.6,0-7c1.2,0,2.4,0,3.5,0c0.1,0.3,0.1,0.6,0.2,0.9
			c0.5,1.8,2.1,2.9,4,2.8c0.7,0,1.4-0.2,2-0.6c1.6-1.2,1.7-3.6,0-4.9c-0.7-0.5-1.5-0.8-2.3-1.1c-1.2-0.4-2.4-0.7-3.5-1.1
			c-1.7-0.7-3-1.8-3.6-3.6c-0.7-2.3-0.5-4.5,1.1-6.4c1-1.1,2.2-1.7,3.7-2s3-0.2,4.4,0.4c0.5,0.2,0.9,0.5,1.3,0.8c0-0.3,0-0.6,0-1
			c1.1,0,2.1,0,3.2,0c0,2.1,0,4.2,0,6.4c-1.1,0-2.2,0-3.3,0c-0.2-0.5-0.3-0.9-0.5-1.3c-0.7-1.4-2-1.9-3.5-1.8
			c-0.4,0-0.8,0.1-1.2,0.3c-1.7,0.7-2,2.8-0.6,4c0.6,0.5,1.3,0.8,2,1c1.4,0.4,2.8,0.8,4.2,1.3c1.9,0.7,3.2,2,3.8,4
			c1.2,3.8-1,8.4-5.8,9.1c-1.5,0.2-3,0.1-4.4-0.6C92.1,40.7,91.6,40.3,91.1,39.9z"/>
		<path class="st0" d="M23.1,26.3c0,1.2-0.9,2.1-2.1,2.1s-2.1-0.9-2.1-2.1s1-2.1,2.1-2.1C22.2,24.2,23.1,25.1,23.1,26.3z"/>
	</g>
</g>
<g>
	<g>
		<g>
			<path class="st1" d="M236.9,41.3c-3.1,0-5.4-2.5-5.4-5.5l0,0c0-3,2.3-5.5,5.5-5.5c3.1,0,5.4,2.5,5.4,5.5l0,0
				C242.3,38.8,240,41.3,236.9,41.3z M241.2,35.8c0-2.6-1.9-4.6-4.4-4.6s-4.3,2.1-4.3,4.5l0,0c0,2.6,1.9,4.6,4.4,4.6
				C239.4,40.4,241.2,38.3,241.2,35.8L241.2,35.8z"/>
		</g>
		<g>
			<path class="st1" d="M254.1,41.1v-2c-0.7,1.2-1.9,2.2-3.8,2.2c-2.7,0-4.2-1.8-4.2-4.4v-6.5h1v6.3c0,2.2,1.2,3.6,3.4,3.6
				c2.1,0,3.7-1.6,3.7-3.8v-6.1h1V41h-1.1V41.1z"/>
		</g>
		<g>
			<path class="st1" d="M265.5,31.5c-2.4,0-4.6,1.8-4.6,5.3v4.3h-1V30.5h1v3c0.8-1.9,2.6-3.3,4.7-3.2v1.1h-0.1V31.5z"/>
		</g>
		<g>
			<path class="st1" d="M301.1,41.3c-3.1,0-5.4-2.5-5.4-5.5l0,0c0-3,2.3-5.5,5.5-5.5c3.1,0,5.4,2.5,5.4,5.5l0,0
				C306.6,38.8,304.3,41.3,301.1,41.3z M305.5,35.8c0-2.6-1.9-4.6-4.4-4.6s-4.3,2.1-4.3,4.5l0,0c0,2.6,1.9,4.6,4.4,4.6
				C303.7,40.4,305.5,38.3,305.5,35.8L305.5,35.8z"/>
		</g>
		<g>
			<path class="st1" d="M317.9,41.1v-6.3c0-2.2-1.2-3.6-3.4-3.6c-2.1,0-3.7,1.6-3.7,3.8v6.1h-1V30.5h1v2c0.7-1.2,1.9-2.2,3.8-2.2
				c2.7,0,4.2,1.8,4.2,4.4v6.5h-0.9V41.1z"/>
		</g>
		<g>
			<path class="st1" d="M328.9,40.4c1.6,0,2.8-0.7,3.6-1.7l0.7,0.6c-1.1,1.2-2.3,2-4.4,2c-2.8,0-5.2-2.2-5.2-5.5l0,0
				c0-3.1,2.2-5.5,5-5.5c3,0,4.9,2.4,4.9,5.5l0,0c0,0.1,0,0.2,0,0.4h-8.8C324.9,38.9,326.8,40.4,328.9,40.4z M332.4,35.3
				c-0.1-2.1-1.4-4.1-3.8-4.1c-2.1,0-3.7,1.8-3.9,4.1H332.4z"/>
		</g>
		<g>
			<path class="st1" d="M340.8,41.3c-1.5,0-3.2-0.6-4.3-1.5l0.6-0.8c1.2,0.9,2.4,1.4,3.8,1.4s2.6-0.8,2.6-2l0,0
				c0-1.2-1.3-1.7-2.8-2.1c-1.7-0.5-3.6-1-3.6-2.9l0,0c0-1.7,1.4-2.9,3.5-2.9c1.3,0,2.7,0.5,3.8,1.2l-0.5,0.9
				c-1-0.6-2.1-1.1-3.3-1.1c-1.5,0-2.4,0.8-2.4,1.8l0,0c0,1.2,1.4,1.6,2.9,2.1c1.7,0.5,3.5,1.1,3.5,3l0,0
				C344.5,40.1,342.8,41.3,340.8,41.3z"/>
		</g>
	</g>
	<g>
		<path class="st1" d="M225,31.4l-8.3-14.1h0.7l7.9,13.4l7.8-13.4h0.7l-8.2,14.1v10.1H225V31.4z"/>
		<path class="st1" d="M225.8,41.8h-1.1V31.5l-8.4-14.4h1.3l7.8,13.2l7.7-13.2h1.3L226,31.5v10.3H225.8z M225.2,41.3h0.2v-10v-0.1
			l8-13.7h-0.2l-7.9,13.6l-8-13.6h-0.2l8.1,13.8L225.2,41.3L225.2,41.3z"/>
	</g>
	<g>
		<g>
			<path class="st1" d="M285.7,41.6h-9.6V17.9h8c1.5,0,2.9,0.4,4,1.3c1.4,1.1,2.2,2.5,2.2,4.3c0,1.3-0.3,2.5-0.8,3.6
				c-0.8,1.7-2.6,2.8-4.5,2.8h-7.8v10.6h8.5L285.7,41.6L285.7,41.6z M277.2,28.7h7.8c1.5,0,2.8-0.8,3.4-2.1c0.5-1,0.7-2,0.7-3.2
				c0-1.4-0.6-2.5-1.7-3.4c-0.9-0.7-2.1-1-3.4-1h-6.8V28.7z"/>
		</g>
		<g>
			<path class="st1" d="M285.4,41.6v-1.1c1.9,0,5.1-0.7,5.1-5.2c0-4.9-4.7-5.4-4.9-5.4l0.1-1.1c0.1,0,5.9,0.6,5.9,6.5
				C291.6,41.1,286.9,41.6,285.4,41.6z"/>
		</g>
	</g>
</g>
<g id="QQxwRe_2_">
	<g>
		<path class="st0" d="M812.2,45.4c0.1-0.1,0.1-0.2,0.1-0.3c0-0.2,0.1-0.4,0.1-0.6c0-0.1,0-0.3,0.1-0.4V44c0-0.1,0-0.3,0.1-0.4
			c0.1-0.2,0.1-0.5,0.2-0.7c0.1-0.2,0.1-0.5,0.1-0.8c0-0.1,0-0.2,0.1-0.4s0.1-0.5,0.2-0.7c0-0.2,0-0.3,0.1-0.5
			c0-0.2,0.1-0.4,0.2-0.7c0-0.1,0-0.3,0.1-0.4c0.1-0.2,0.1-0.4,0.1-0.6c0-0.1,0-0.1,0-0.2c0-0.1,0.1-0.2,0.1-0.3s0-0.2,0.1-0.3
			c0-0.1,0-0.2,0.1-0.2c0-0.1,0-0.2,0-0.3c0.1-0.3,0.2-0.5,0.2-0.8s0.1-0.7,0.2-1c0-0.1,0.1-0.1,0.1-0.2c0-0.3,0.2-0.6,0.2-1
			c0-0.1,0-0.1,0-0.2c0-0.2,0.1-0.4,0.1-0.6c0-0.1,0-0.2,0.1-0.2c0-0.3,0.1-0.6,0.1-0.9c0,0,0,0,0-0.1s0.1-0.2,0.1-0.3
			s0-0.2,0.1-0.2c0-0.1,0.1-0.2,0.1-0.3c0-0.3,0.1-0.6,0.1-0.9v-0.1c0-0.1,0-0.2,0.1-0.3c0-0.3,0.1-0.5,0.1-0.8l0,0
			c0-0.1,0.1-0.3,0.1-0.4s0-0.1,0-0.2s0.1-0.1,0.1-0.2c0-0.3,0-0.5,0.2-0.8s0.1-0.6,0.2-1c0-0.2,0.1-0.3,0.1-0.5
			c0-0.1,0-0.2,0.1-0.3c0-0.1,0-0.3,0.1-0.4c0-0.1,0-0.2,0.1-0.3c0-0.2,0.1-0.5,0.2-0.7c0.1-0.2,0.1-0.3,0.1-0.5v-0.1
			c0.1-0.2,0.1-0.4,0.2-0.6c0-0.1,0.1-0.2,0.1-0.3c0-0.3,0.2-0.5,0.1-0.8l0,0c0.1-0.1,0.1-0.2,0.1-0.4c0-0.1,0-0.2,0-0.2
			c0.1-0.2,0.2-0.4,0.1-0.6v-0.1c0-0.1,0.1-0.2,0.1-0.3c0-0.1,0-0.2,0-0.3c0-0.2,0.1-0.4,0.1-0.6s0.1-0.5,0.1-0.7
			c0-0.1,0-0.2,0.1-0.4c0-0.1,0-0.1,0-0.2s0.1-0.2,0.1-0.2c0-0.2,0-0.4,0.1-0.6v-0.1c0-0.2,0.1-0.5,0.1-0.7c0.1-0.2,0.1-0.4,0.1-0.6
			v-0.1c0.1-0.1,0.1-0.3,0.1-0.5v-0.1c0.1-0.3,0.2-0.7,0.3-1c0-0.1,0.1-0.2,0.1-0.3c0-0.2,0-0.3,0.1-0.5c0.1-0.1,0.1-0.3,0.1-0.4
			c0-0.2,0.1-0.3,0.1-0.5c0-0.1,0-0.1,0-0.2c0-0.2,0.1-0.3,0.1-0.5s0.1-0.5,0.1-0.7s0.1-0.3,0.1-0.5s0.2-0.4,0.2-0.7
			c0-0.1,0-0.3,0.1-0.4V10c0-0.2,0-0.3,0.1-0.5V9.4c0-0.1,0-0.3,0.1-0.4c0-0.1,0-0.2,0.1-0.4c0-0.2,0.1-0.5,0.1-0.7c0,0,0,0,0-0.1
			s0.1-0.2,0.1-0.2c0.1-0.3,0.1-0.6,0.2-0.9c0-0.2,0.1-0.5,0.1-0.7s0.1-0.5,0.1-0.7l0,0c0.1-0.3,0.1-0.6,0.2-0.9
			c0.1-0.3,0.1-0.5,0.1-0.8c0-0.2,0.1-0.3,0.1-0.5V3c0.1-0.1,0.1-0.3,0.1-0.4c0-0.1,0-0.1,0-0.2c0.1-0.3,0.3-0.6,0.2-1V1.3
			c0-0.2,0.1-0.4,0.1-0.6c2.2,0,4.3,0,6.5,0c0,0.1,0,0.1-0.1,0.2c-0.1,0.2-0.2,0.5-0.3,0.7c-0.1,0.1-0.1,0.3-0.2,0.4
			c-0.1,0.2-0.1,0.3-0.2,0.5c-0.1,0.3-0.1,0.6-0.3,0.9c-0.2,0.4-0.2,0.8-0.4,1.2c-0.1,0.3-0.2,0.6-0.3,0.8c-0.1,0.2-0.2,0.3-0.1,0.5
			V6c-0.1,0.2-0.1,0.4-0.2,0.6v0.1c0,0.1,0,0.1-0.1,0.2c0,0.1,0,0.1-0.1,0.2c-0.1,0.2-0.1,0.3-0.2,0.5c0,0.1,0,0.1-0.1,0.2
			s-0.1,0.3-0.2,0.4C825,8.4,825,8.6,825,8.7l0,0c-0.1,0.1-0.1,0.3-0.2,0.4c-0.1,0.3-0.2,0.6-0.3,0.9c-0.1,0.3-0.2,0.5-0.3,0.8
			c0,0.1-0.1,0.2-0.1,0.3c-0.1,0.2-0.1,0.3-0.1,0.5c-0.1,0.2-0.2,0.4-0.2,0.7c0,0,0,0,0,0.1c-0.1,0.2-0.1,0.3-0.2,0.5
			c-0.1,0.2-0.1,0.4-0.2,0.6c-0.1,0.2-0.2,0.4-0.2,0.6c0,0.1-0.1,0.3-0.1,0.4c-0.1,0.3-0.2,0.6-0.3,0.9c0,0,0,0,0,0.1s0,0.1-0.1,0.2
			v0.1c-0.1,0.2-0.1,0.3-0.2,0.5c-0.1,0.2-0.1,0.3-0.2,0.5c-0.1,0.2-0.1,0.4-0.2,0.5c-0.1,0.3-0.2,0.6-0.3,0.8
			c-0.1,0.2-0.2,0.5-0.3,0.7s-0.2,0.5-0.2,0.7c0,0.1-0.1,0.2-0.1,0.3c-0.1,0.2-0.1,0.4-0.1,0.6c0,0,0,0,0,0.1
			c-0.1,0.3-0.2,0.5-0.3,0.8c-0.1,0.1-0.1,0.3-0.1,0.4c-0.1,0.4-0.3,0.8-0.4,1.3c-0.1,0.4-0.3,0.7-0.4,1.1c-0.1,0.2-0.1,0.5-0.2,0.7
			c0,0,0,0,0,0.1c-0.2,0.2-0.2,0.5-0.3,0.8c-0.2,0.4-0.3,0.8-0.4,1.2c-0.1,0.2-0.2,0.4-0.3,0.7c-0.1,0.2-0.1,0.4-0.1,0.6
			c-0.1,0.3-0.3,0.7-0.4,1c-0.1,0.2-0.1,0.5-0.2,0.7c-0.1,0.2-0.1,0.3-0.2,0.5c-0.1,0.1-0.2,0.3-0.2,0.4s0,0.3-0.1,0.4
			c-0.2,0.3-0.2,0.7-0.4,1.1c0,0,0,0,0,0.1c0,0.2,0,0.3-0.1,0.4c-0.2,0.3-0.3,0.7-0.4,1c-0.1,0.2-0.1,0.4-0.1,0.5v0.1
			c-0.1,0.1-0.1,0.3-0.2,0.4c-0.1,0.3-0.2,0.5-0.3,0.8v0.1c-0.1,0.2-0.1,0.4-0.2,0.7c-0.1,0.3-0.2,0.5-0.3,0.8s-0.2,0.6-0.3,0.9
			c-0.1,0.2-0.2,0.5-0.2,0.7c0,0,0,0,0,0.1c-0.1,0.2-0.1,0.3-0.2,0.5c-0.1,0.2-0.1,0.4-0.2,0.7c-0.1,0.1-0.1,0.3-0.2,0.4
			c-0.1,0.2-0.1,0.4-0.2,0.7c-0.1,0.2-0.1,0.4-0.2,0.6c0,0.2-0.1,0.3-0.1,0.5c-0.1,0.3-0.2,0.5-0.3,0.8c-0.1,0.2-0.1,0.4-0.1,0.5
			v0.1c-0.1,0.1-0.1,0.3-0.2,0.4c-0.1,0.3-0.2,0.6-0.3,0.8c0,0.1,0,0.2-0.1,0.3c-0.1,0.2-0.1,0.3-0.1,0.5c0,0,0.1,0.1,0.2,0.1
			l0.1-0.1c0-0.1,0.1-0.1,0.1-0.2c0-0.1,0.1-0.2,0.1-0.2c0.1-0.2,0.2-0.4,0.3-0.7c0.1-0.2,0.2-0.5,0.3-0.7c0.1-0.1,0.1-0.3,0.2-0.4
			c0.1-0.2,0.2-0.4,0.3-0.6c0.2-0.3,0.3-0.7,0.5-1c0.1-0.2,0.2-0.4,0.3-0.7c0.1-0.1,0.2-0.3,0.2-0.4c0.1-0.2,0.2-0.4,0.3-0.6
			c0,0,0-0.1,0.1-0.2c0.1-0.3,0.3-0.7,0.4-1c0.1-0.2,0.2-0.4,0.3-0.6c0.1-0.2,0.2-0.5,0.3-0.7s0.2-0.4,0.3-0.6
			c0.2-0.4,0.4-0.8,0.5-1.1c0-0.1,0.1-0.2,0.1-0.3c0.1-0.3,0.3-0.6,0.4-0.9c0.1-0.2,0.2-0.5,0.4-0.7c0.2-0.5,0.5-1,0.7-1.5
			c0.1-0.3,0.3-0.5,0.4-0.8c0.1-0.3,0.3-0.6,0.4-0.8c0.1-0.3,0.3-0.6,0.4-0.9c0-0.1,0.1-0.1,0.1-0.2c0.2-0.5,0.5-1,0.7-1.5
			c0-0.1,0.1-0.2,0.1-0.3c0.1-0.2,0.2-0.5,0.3-0.7c0.1-0.1,0.1-0.3,0.2-0.4c0.1-0.3,0.3-0.6,0.4-0.9c0.2-0.3,0.3-0.7,0.5-1
			c0.2-0.4,0.4-0.8,0.6-1.2c0.2-0.4,0.4-0.7,0.5-1.1c0.1-0.3,0.3-0.6,0.4-0.8c0.1-0.2,0.2-0.4,0.2-0.5s0.1-0.1,0.1-0.2
			c0.1-0.2,0.1-0.4,0.3-0.6c0.1-0.2,0.1-0.4,0.3-0.5c0.1-0.1,0.1-0.2,0.2-0.4c0.1-0.2,0.2-0.5,0.3-0.7c0.1-0.1,0.1-0.3,0.2-0.4
			c0.1-0.2,0.2-0.4,0.3-0.6c0.2-0.3,0.3-0.7,0.5-1.1c0.1-0.1,0.1-0.2,0.1-0.3c0.1-0.2,0.2-0.4,0.3-0.7c0.1-0.2,0.2-0.5,0.3-0.7
			s0.2-0.4,0.3-0.6c0-0.1,0.1-0.1,0.1-0.2c0.1-0.1,0.1-0.3,0.2-0.4c0.1-0.1,0.2-0.2,0.2-0.4c0.1-0.2,0.2-0.4,0.3-0.7
			c0.1-0.2,0.2-0.4,0.3-0.7s0.3-0.6,0.4-0.9c0.1-0.2,0.2-0.4,0.3-0.6c0-0.1,0.1-0.2,0.2-0.2c0,0,0-0.1,0.1-0.1
			c0.1-0.2,0.2-0.5,0.3-0.7s0.2-0.5,0.3-0.7c0-0.1,0.1-0.1,0.1-0.2c0.1-0.3,0.2-0.6,0.4-0.8c0,0,0.1-0.1,0.1-0.2
			c0-0.2,0.2-0.4,0.2-0.6s0.2-0.3,0.2-0.5c0.1-0.3,0.2-0.5,0.4-0.8s0.3-0.6,0.5-1c0.1-0.2,0.2-0.5,0.3-0.8c0.1-0.1,0.1-0.3,0.2-0.4
			c0.1-0.3,0.3-0.6,0.4-0.9c0.1-0.2,0.2-0.4,0.3-0.6c0.1-0.3,0.3-0.6,0.4-0.8c0-0.1,0.1-0.1,0.1-0.2S834,1.1,834,1
			c0.1-0.2,0.2-0.3,0.2-0.5c2.5,0,4.9,0,7.4,0c0,0.1-0.1,0.1-0.1,0.2c0,0,0,0.1-0.1,0.1c-0.2,0.3-0.5,0.6-0.6,1
			c-0.2,0.3-0.4,0.6-0.6,0.9c-0.2,0.4-0.5,0.7-0.7,1.1c-0.3,0.4-0.5,0.9-0.8,1.3c-0.1,0.2-0.3,0.5-0.5,0.7c-0.1,0.1-0.1,0.2-0.2,0.4
			c0,0,0,0,0,0.1c-0.2,0.3-0.4,0.6-0.6,0.9c-0.1,0.1-0.1,0.2-0.2,0.4c-0.2,0.3-0.4,0.6-0.6,0.9c-0.2,0.3-0.3,0.5-0.5,0.8
			c-0.2,0.4-0.4,0.7-0.7,1.1c-0.2,0.3-0.3,0.5-0.5,0.8s-0.3,0.6-0.5,0.8c-0.2,0.3-0.4,0.6-0.6,0.9c-0.1,0.1-0.1,0.1-0.3,0.1
			c-0.7,0-1.3,0-2,0c-0.3,0-0.4,0-0.4,0.4c0,1.1,0,2.3,0,3.4c0,0.3-0.1,0.5-0.3,0.7c-0.1,0.2-0.2,0.3-0.3,0.5c0,0.1-0.1,0.2-0.1,0.2
			c-0.2,0.3-0.4,0.5-0.5,0.8c-0.2,0.3-0.5,0.7-0.7,1c-0.1,0.1-0.1,0.2-0.2,0.4v0.1c-0.2,0.3-0.5,0.7-0.7,1c-0.1,0.2-0.2,0.3-0.4,0.5
			c0,0.1,0,0.1-0.1,0.2s-0.2,0.2-0.2,0.4c-0.1,0.2-0.2,0.4-0.3,0.5s-0.2,0.3-0.3,0.4c-0.2,0.2-0.3,0.5-0.5,0.7
			c-0.1,0.2-0.2,0.3-0.3,0.5s-0.2,0.4-0.3,0.5c-0.2,0.3-0.4,0.7-0.6,1c-0.2,0.3-0.4,0.7-0.7,1c-0.2,0.3-0.4,0.7-0.6,1
			c-0.2,0.4-0.5,0.7-0.7,1.1c-0.1,0.2-0.2,0.4-0.4,0.6V30c-0.1,0.2-0.2,0.3-0.4,0.3c-0.6,0-1.2,0-1.9,0c-0.2,0-0.2,0-0.2,0.2
			c0,1,0,2,0,3.1c0,0.3-0.1,0.5-0.2,0.7c-0.2,0.2-0.3,0.5-0.5,0.7c-0.1,0.2-0.3,0.4-0.4,0.6c-0.1,0.1-0.2,0.3-0.2,0.4
			c-0.1,0.2-0.2,0.3-0.3,0.5s-0.3,0.5-0.4,0.7c-0.1,0.1-0.2,0.3-0.3,0.4c-0.2,0.2-0.3,0.5-0.5,0.7c-0.1,0.1-0.1,0.2-0.2,0.3
			c-0.2,0.3-0.4,0.6-0.6,0.9c-0.2,0.3-0.4,0.7-0.6,1.1c-0.1,0.2-0.2,0.3-0.4,0.5c-0.1,0.2-0.2,0.3-0.3,0.5c-0.1,0.1-0.2,0.3-0.3,0.4
			c-0.1,0.1-0.2,0.3-0.3,0.4c-0.3,0.4-0.5,0.8-0.8,1.2c-0.1,0.2-0.3,0.4-0.4,0.6c-0.1,0.2-0.2,0.3-0.3,0.5c-0.3,0.4-0.5,0.8-0.8,1.2
			"/>
		<path class="st0" d="M848.8,28.8c-0.3,0-0.5,0-0.8,0s-0.6,0-0.8-0.1c-0.4-0.1-0.8-0.1-1.1-0.4c-0.1,0-0.2,0-0.2,0
			c-0.2-0.1-0.4-0.2-0.5-0.3c-0.1-0.1-0.3-0.1-0.4-0.2c-0.2-0.1-0.3-0.2-0.4-0.3c-0.7-0.5-1.2-1.1-1.7-1.6c-0.2-0.2-0.4-0.5-0.6-0.8
			c-0.2-0.4-0.5-0.9-0.6-1.3s-0.3-0.7-0.3-1.1c-0.1-0.8,0-1.6,0-2.3c0-0.2,0.1-0.5,0.2-0.7c0.1-0.3,0.2-0.7,0.3-1
			c0.1-0.2,0.2-0.4,0.3-0.5c0,0,0,0,0.1-0.1c0-0.3,0.3-0.5,0.4-0.8c0.4-0.6,1-1.1,1.5-1.6c0.2-0.2,0.4-0.3,0.6-0.4
			c0.2-0.1,0.3-0.2,0.5-0.4c0.2-0.1,0.5-0.2,0.7-0.3s0.3-0.1,0.5-0.2l0,0c0.2,0,0.4-0.1,0.6-0.1c0.1,0,0.2,0,0.3-0.1
			c0.1,0,0.2,0,0.2-0.1c0.1,0,0.3,0,0.4-0.1h0.1c0.6,0,1.1,0,1.7,0c0.1,0,0.2,0,0.2,0.1c0.2,0,0.3,0,0.5,0.1s0.4,0.1,0.7,0.2
			c0.2,0.1,0.3,0.1,0.5,0.1c0.1,0,0.2,0.1,0.3,0.1c0.2,0.1,0.4,0.2,0.6,0.3c0.3,0.2,0.6,0.3,0.9,0.5c0.5,0.4,0.9,0.9,1.4,1.4
			c0.1,0.1,0.2,0.3,0.4,0.5c0.1,0.2,0.2,0.4,0.3,0.5c0.1,0.2,0.2,0.4,0.3,0.6c0.1,0.1,0.1,0.2,0.1,0.3c0.1,0.2,0.1,0.4,0.2,0.6
			c0.1,0.2,0.1,0.3,0.2,0.5c0,0.2,0.1,0.3,0.1,0.5c0,0.6,0.1,1.2,0.1,1.8c0,0.3-0.1,0.6-0.1,0.9c0,0.2-0.1,0.4-0.2,0.6
			c-0.1,0.2-0.1,0.4-0.2,0.5c-0.1,0.2-0.2,0.3-0.2,0.5c-0.1,0.2-0.2,0.4-0.3,0.6c-0.2,0.3-0.4,0.6-0.6,0.9c-0.3,0.3-0.5,0.6-0.8,0.9
			s-0.7,0.5-1,0.8c-0.2,0.1-0.4,0.2-0.6,0.3c-0.2,0.1-0.5,0.2-0.7,0.3c-0.2,0.1-0.4,0.2-0.6,0.2c-0.2,0.1-0.5,0.1-0.7,0.2
			c-0.2,0-0.5,0.1-0.7,0.1C849.3,28.8,849.1,28.8,848.8,28.8z M847.4,21.3c0,1,0,2.1,0,3.1c0,0.5,0.2,0.9,0.6,1.1
			c0.4,0.2,0.8,0.2,1.2,0.2c0.1,0,0.2-0.1,0.3-0.1c0.4-0.3,0.7-0.7,0.7-1.2c0-2,0-4.1,0-6.1c0-0.3-0.1-0.6-0.3-0.9
			c-0.2-0.4-0.6-0.6-1.1-0.6c-0.4,0-0.7,0.1-1,0.4s-0.4,0.6-0.4,1C847.4,19.2,847.4,20.2,847.4,21.3z"/>
		<path class="st0" d="M844.6,31.3c0.5,0,1,0,1.4,0c0.2,0,0.3,0.1,0.3,0.3v0.1c0,0.2,0.1,0.3,0.1,0.5c0,0.1,0,0.1,0,0.2
			c0.1,0.1,0.1,0.3,0.1,0.4v0.1c0.1,0.1,0.1,0.3,0.1,0.4c0,0.1,0.1,0.2,0.1,0.3s0,0.1,0,0.2c0,0.2,0,0.3,0.1,0.5l0,0
			c0,0.3,0.1,0.6,0.1,0.8c0,0.1,0,0.2,0.1,0.3c0.1,0.2,0.1,0.4,0.2,0.6v0.1c0,0.2,0,0.3,0.1,0.5c0,0.2,0.1,0.4,0.2,0.6
			c0,0.1,0,0.1,0,0.2c0,0.2,0.1,0.4,0.1,0.6c0,0.1,0,0.1,0,0.2c0,0.1,0.1,0.2,0.1,0.3s0,0.1,0,0.2c0,0.1,0.1,0.2,0.2,0.2
			c0,0,0.1-0.1,0.1-0.2c0.1-0.3,0.1-0.6,0.2-0.9c0.1-0.3,0.1-0.6,0.1-0.9v-0.1c0.1-0.1,0.1-0.3,0.1-0.5c0-0.1,0.1-0.2,0.1-0.3l0,0
			c0-0.2,0.1-0.5,0.1-0.7s0.1-0.3,0.1-0.5v-0.1c0-0.2,0-0.4,0.1-0.6c0.1-0.1,0.1-0.3,0.1-0.5c0-0.3,0.1-0.5,0.1-0.8l0,0
			c0.1-0.2,0.1-0.4,0.1-0.6c0-0.2,0.1-0.4,0.1-0.5c0-0.3,0.1-0.4,0.4-0.4c0.8,0,1.6,0,2.3,0c0.2,0,0.3,0.1,0.3,0.3
			c0,0.2,0,0.3,0.1,0.4v0.1c0,0.2,0,0.3,0.1,0.5v0.1c0,0.1,0.1,0.3,0.1,0.4c0,0.1,0,0.2,0,0.3s0,0.2,0.1,0.3v0.1
			c0,0.2,0,0.3,0.1,0.5c0.1,0.1,0.1,0.3,0.1,0.4c0.1,0.4,0.1,0.7,0.2,1.1v0.1c0,0.1,0.1,0.2,0.1,0.3c0.1,0.2,0.1,0.4,0.1,0.7
			c0.1,0.3,0.1,0.5,0.2,0.8c0,0.1,0,0.1,0.1,0.2c0,0.2,0.1,0.4,0.1,0.6c0,0.1,0.1,0.2,0.2,0.2c0.1,0,0.1-0.1,0.1-0.2
			c0-0.2,0-0.5,0.1-0.7c0,0,0-0.1,0.1-0.1c0-0.1,0-0.1,0.1-0.2c0-0.2,0.1-0.3,0.1-0.5c0-0.1,0-0.1,0-0.2c0-0.1,0.1-0.2,0.1-0.3
			s0-0.2,0-0.2c0-0.1,0.1-0.2,0.1-0.3s0-0.1,0-0.2c0-0.2,0.1-0.3,0.1-0.5c0-0.1,0-0.1,0-0.2c0-0.1,0-0.2,0.1-0.3v-0.1
			c0-0.2,0.1-0.3,0.1-0.5c0-0.1,0-0.3,0.1-0.4c0.1-0.2,0.1-0.3,0.1-0.5v-0.1c0.1-0.1,0.1-0.3,0.1-0.5v-0.1c0-0.1,0.1-0.3,0.1-0.4
			c0.1-0.3,0.1-0.6,0.2-0.9c0-0.1,0.2-0.2,0.3-0.2c0.7,0,1.5,0,2.2,0c0.1,0,0.2,0,0.2,0.1s0,0.2,0,0.3c0,0.1-0.1,0.2-0.1,0.3
			c0,0.1,0,0.2-0.1,0.3c-0.1,0.4-0.2,0.8-0.3,1.2c0,0.2-0.1,0.3-0.1,0.5c0,0.1-0.1,0.3-0.1,0.4c0,0.1-0.1,0.3-0.1,0.4v0.1
			c0,0.1-0.1,0.3-0.1,0.4c-0.1,0.3-0.1,0.5-0.1,0.8c0,0.1-0.1,0.2-0.1,0.3l0,0c0,0.3-0.1,0.5-0.1,0.7c0,0.1,0,0.2-0.1,0.3
			c0,0.1,0,0.1,0,0.2c0,0.1-0.1,0.3-0.1,0.4v0.1c0,0.2-0.1,0.4-0.1,0.6c0,0.1-0.1,0.3-0.1,0.4c0,0.2-0.1,0.4-0.1,0.6
			c-0.1,0.2-0.1,0.5-0.2,0.7c-0.1,0.3-0.2,0.6-0.2,1c-0.1,0.2-0.1,0.5-0.1,0.7V42c0,0.1-0.1,0.2-0.1,0.4l0,0
			c-0.1,0.2-0.1,0.4-0.2,0.6c0,0.1-0.1,0.3-0.1,0.4l0,0c-0.1,0.2-0.1,0.4-0.1,0.6c0,0.1-0.1,0.3-0.1,0.4c0,0.1,0,0.2-0.1,0.3
			c0,0.1-0.2,0.1-0.2,0.1c-0.9,0-1.8,0-2.7,0c-0.1,0-0.1,0-0.2-0.1c0-0.2-0.1-0.4-0.2-0.6c0-0.1,0-0.1,0-0.2v-0.1
			c-0.1-0.1-0.1-0.3-0.1-0.4c0-0.1-0.1-0.2-0.1-0.3s0-0.1,0-0.2c0-0.2,0-0.4-0.1-0.5v-0.1c0-0.1,0-0.2-0.1-0.3c0-0.1,0-0.2-0.1-0.2
			c0-0.2-0.1-0.4-0.1-0.6c0-0.2-0.1-0.5-0.1-0.7v-0.1c-0.1-0.2-0.1-0.3-0.1-0.5c0-0.1-0.1-0.2-0.1-0.3l0,0c0-0.3-0.1-0.5-0.1-0.8
			c0-0.1-0.1-0.2-0.1-0.3v-0.1c0-0.2,0-0.4-0.1-0.6c0-0.1,0-0.1-0.1-0.2c0,0-0.1,0-0.2,0l-0.1,0.1c0,0.3,0,0.7-0.1,0.9
			s0,0.5-0.2,0.7v0.1c0,0.3-0.1,0.5-0.1,0.7c0,0,0,0,0,0.1c0,0.2-0.1,0.4-0.1,0.6c0,0.1,0,0.3-0.1,0.4l0,0c0,0.3-0.1,0.6-0.1,0.9
			c0,0.1-0.1,0.2-0.1,0.3l0,0c0,0.2-0.1,0.5-0.1,0.7c0,0.1,0,0.2-0.1,0.3c-0.1,0.4-0.2,0.9-0.3,1.3c0,0.1-0.1,0.2-0.3,0.2
			c-0.4,0-0.9,0-1.3,0c-0.5,0-0.9,0-1.4,0c-0.2,0-0.3-0.1-0.3-0.3s-0.1-0.4-0.2-0.6v-0.1c0-0.1-0.1-0.2-0.1-0.3c0,0,0,0,0-0.1
			c0-0.3-0.1-0.5-0.1-0.7v-0.1c-0.2-0.1-0.1-0.3-0.1-0.5v-0.1c-0.1-0.2-0.1-0.4-0.2-0.6v-0.1c0-0.3-0.1-0.5-0.1-0.8
			c-0.1-0.2-0.1-0.5-0.2-0.7c-0.1-0.3-0.1-0.6-0.2-0.9v-0.1c-0.1-0.2-0.2-0.3-0.1-0.5v-0.1c0-0.1-0.1-0.1-0.1-0.2
			c0-0.2-0.1-0.4-0.1-0.7c0-0.1-0.1-0.3-0.1-0.4c0-0.1,0-0.1,0-0.2c0-0.1-0.1-0.2-0.1-0.3l0,0c0-0.2-0.1-0.5-0.1-0.7
			c0-0.1-0.1-0.2-0.1-0.3c0-0.2-0.1-0.3-0.1-0.5s-0.1-0.4-0.2-0.6c0-0.1,0-0.3-0.1-0.4c-0.1-0.3-0.1-0.7-0.2-1
			c-0.1-0.2-0.1-0.4-0.1-0.7c0-0.2-0.1-0.4-0.1-0.6c0,0,0,0,0-0.1c0-0.4,0-0.4,0.3-0.4C843.6,31.3,844.1,31.3,844.6,31.3z"/>
		<path class="st0" d="M832.3,38.1c0,2.1,0,4.3,0,6.4c0,0.3,0,0.3-0.3,0.3c-0.9,0-1.7,0-2.6,0c-0.3,0-0.4-0.1-0.5-0.4
			c-0.1-0.2-0.2-0.4-0.3-0.5c-0.1-0.2-0.3-0.5-0.4-0.7c-0.1-0.1-0.2-0.3-0.3-0.4c-0.1-0.2-0.2-0.4-0.3-0.6c0,0,0-0.1-0.1-0.1
			c-0.2-0.1-0.2-0.3-0.3-0.5c0-0.1-0.1-0.1-0.1-0.2c-0.2-0.3-0.3-0.5-0.5-0.8c-0.2-0.4-0.5-0.7-0.7-1.1c-0.2-0.3-0.3-0.6-0.5-0.9
			c-0.1-0.2-0.2-0.4-0.4-0.6c-0.2-0.3-0.3-0.5-0.5-0.8c0-0.1-0.1-0.1-0.2-0.1c-0.1,0-0.1,0.1-0.1,0.2c0,0.1,0,0.1,0,0.2
			c0,2.3,0,4.6,0,6.9c0,0.1,0,0.1,0,0.2c0,0.1,0,0.2-0.2,0.2c-0.3,0-0.6,0-0.9,0c-0.7,0-1.5,0-2.2,0c-0.2,0-0.2,0-0.2-0.2
			c0-2.6,0-5.3,0-7.9c0-1.7,0-3.5,0-5.2c0-0.1,0.1-0.2,0.2-0.2c1.2,0,2.3,0,3.5,0c0.2,0,0.3,0.1,0.4,0.2c0.1,0.2,0.2,0.4,0.4,0.6
			c0.2,0.3,0.3,0.5,0.5,0.8c0.1,0.2,0.2,0.4,0.3,0.5c0.2,0.3,0.4,0.6,0.6,0.9c0.1,0.2,0.2,0.4,0.3,0.6c0.1,0.2,0.3,0.5,0.4,0.7
			c0.1,0.2,0.2,0.3,0.3,0.5s0.3,0.4,0.4,0.7c0.1,0.2,0.3,0.4,0.4,0.6c0,0.1,0.1,0.2,0.1,0.2c0.1,0,0.1,0.1,0.2,0.1
			c0,0,0.1-0.1,0.1-0.2c0-0.8,0-1.6,0-2.4c0-1.2,0-2.4,0-3.6c0-0.3,0.1-0.4,0.3-0.4c0.9,0,1.8,0,2.8,0c0.2,0,0.2,0,0.2,0.2
			C832.3,33.7,832.3,35.9,832.3,38.1z"/>
		<path class="st0" d="M854.5,13.9c0.1,0,0.1,0,0.2,0c1.4,0,2.8,0,4.2,0c0.2,0,0.3,0.1,0.4,0.3c0,0.1,0.1,0.2,0.2,0.3
			c0.2,0.3,0.4,0.6,0.5,0.9c0.2,0.3,0.4,0.7,0.6,1c0.1,0.1,0.1,0.2,0.1,0.3c0,0.1,0.2,0.2,0.3,0.1s0.1-0.2,0.2-0.3
			c0,0,0.1-0.1,0.1-0.2c0.2-0.3,0.4-0.7,0.6-1c0.2-0.3,0.3-0.6,0.5-0.8c0.1-0.2,0.2-0.3,0.3-0.5c0.1-0.1,0.2-0.2,0.3-0.2
			c1.4,0,2.8,0,4.3,0c0.2,0,0.2,0,0.1,0.2c-0.1,0.3-0.3,0.5-0.5,0.7c-0.2,0.3-0.4,0.6-0.5,0.9c-0.1,0.2-0.3,0.5-0.4,0.7
			c-0.2,0.3-0.4,0.6-0.6,0.9c-0.1,0.1-0.1,0.2-0.2,0.4c-0.2,0.3-0.3,0.5-0.5,0.8c-0.1,0.2-0.3,0.5-0.4,0.7c-0.1,0.1-0.1,0.2-0.2,0.3
			c-0.1,0.1-0.2,0.3-0.2,0.4c-0.2,0.3-0.3,0.5-0.5,0.8c-0.1,0.1-0.1,0.4,0,0.5c0.1,0.2,0.3,0.4,0.4,0.7c0.1,0.2,0.2,0.4,0.3,0.6
			s0.3,0.4,0.4,0.6c0.1,0.2,0.3,0.5,0.4,0.7c0.1,0.2,0.2,0.3,0.3,0.5c0.2,0.4,0.4,0.7,0.6,1.1c0.1,0.2,0.3,0.5,0.4,0.7
			c0.2,0.3,0.4,0.7,0.5,1c0.1,0.1,0.2,0.3,0.3,0.4c0.2,0.3,0.3,0.6,0.5,0.9c0.1,0.1,0.1,0.2,0.2,0.3c-0.1,0-0.1,0-0.2,0
			c-1.4,0-2.8,0-4.3,0c-0.1,0-0.2,0-0.3-0.1s-0.2-0.3-0.3-0.4s-0.2-0.3-0.2-0.4c-0.2-0.3-0.3-0.6-0.5-0.8c-0.1-0.2-0.3-0.4-0.4-0.6
			c-0.1-0.2-0.2-0.3-0.3-0.5s-0.2-0.3-0.3-0.5c-0.1-0.1-0.2-0.1-0.3,0c-0.1,0.2-0.2,0.3-0.3,0.5c0,0.1-0.1,0.2-0.1,0.2
			c-0.2,0.4-0.5,0.9-0.7,1.3c-0.2,0.3-0.3,0.6-0.5,0.8c-0.1,0.1-0.2,0.3-0.3,0.4c0,0.1-0.2,0.1-0.2,0.1c-1.4,0-2.8,0-4.2,0
			c-0.1,0-0.1,0-0.2,0c0.1-0.2,0.3-0.4,0.4-0.6c0.1-0.1,0.2-0.3,0.2-0.4c0.1-0.2,0.2-0.3,0.3-0.5s0.2-0.4,0.3-0.5
			c0.1-0.2,0.3-0.4,0.4-0.6c0.1-0.1,0.1-0.3,0.2-0.4c0.1-0.1,0.2-0.3,0.3-0.4c0.1-0.2,0.2-0.4,0.3-0.6s0.2-0.4,0.4-0.7
			c0.2-0.3,0.4-0.5,0.5-0.8s0.3-0.4,0.4-0.7c0-0.1,0.1-0.2,0.1-0.3c0.1-0.2,0.2-0.4,0.4-0.6c0.1-0.2,0.2-0.3,0.2-0.6
			c0-0.1-0.1-0.2-0.1-0.3c-0.2-0.4-0.5-0.8-0.7-1.2c-0.2-0.3-0.3-0.5-0.4-0.8c-0.2-0.3-0.4-0.6-0.5-0.9c-0.1-0.2-0.2-0.3-0.3-0.5
			c-0.1-0.1-0.2-0.3-0.3-0.4c-0.1-0.2-0.2-0.4-0.3-0.6c-0.1-0.1-0.2-0.3-0.3-0.4c-0.1-0.1-0.2-0.3-0.3-0.4c-0.2-0.3-0.3-0.5-0.5-0.8
			C854.8,14.5,854.7,14.2,854.5,13.9z"/>
		<path class="st0" d="M831.7,21.3c0-2.4,0-4.7,0-7.1c0-0.3,0.1-0.4,0.4-0.4c2.9,0,5.8,0,8.7,0c0.2,0,0.2,0,0.2,0.2
			c0,0.1,0,0.2,0,0.3c0,0.3,0.1,0.6,0.1,0.9c0,0.1,0,0.1,0,0.2c0,0.3,0,0.6,0,0.9c0,0.4,0,0.7,0.1,1.1c0,0.1,0,0.2,0.1,0.2
			c0,0.1,0,0.2-0.1,0.2s-0.1,0-0.2,0c-1.5,0-3.1,0-4.6,0c-0.3,0-0.3,0-0.3,0.2c0,0.5,0,1,0,1.5c0,0.2,0,0.2,0.3,0.2
			c1.2,0,2.4,0,3.6,0c0.3,0,0.4,0.1,0.4,0.3c0,1.2,0,2.3,0,3.5c0,0.2,0,0.2-0.2,0.2c-1.3,0-2.6,0-3.8,0c-0.3,0-0.3,0-0.3,0.3
			c0,1.4,0,2.8,0,4.3c0,0.3-0.1,0.4-0.3,0.4c-1.2,0-2.4,0-3.6,0c-0.3,0-0.3-0.1-0.3-0.3C831.7,26,831.7,23.7,831.7,21.3z"/>
		<path class="st0" d="M863.6,30.8c0.2,0,0.4,0,0.6,0c0.1,0,0.2,0,0.3,0.1l0,0c0.2,0,0.4,0.1,0.6,0.1c0.1,0,0.3,0.1,0.4,0.1
			c0.4,0.2,0.7,0.4,1,0.7c0.2,0.2,0.5,0.4,0.7,0.7c0.2,0.2,0.3,0.4,0.4,0.6c0.1,0.2,0.2,0.4,0.3,0.6c0,0.1,0.1,0.2,0.1,0.3
			s-0.1,0.1-0.1,0.2c-0.2,0.1-0.4,0.1-0.7,0.2c-0.2,0.1-0.4,0.1-0.6,0.2c0,0,0,0-0.1,0c-0.2,0.2-0.5,0.2-0.8,0.3
			c-0.2,0.1-0.4,0.2-0.6,0.2c-0.1,0-0.2-0.1-0.2-0.1c-0.1-0.1-0.1-0.2-0.2-0.3c-0.1-0.3-0.3-0.5-0.6-0.6c-0.2-0.1-0.4-0.1-0.6-0.2
			c-0.4,0-0.7,0-1.1,0c-0.1,0-0.2,0-0.2,0.1c-0.1,0.1-0.3,0.3-0.4,0.4v0.1c0,0.1,0,0.2,0,0.3c0,0.3,0.2,0.6,0.5,0.7
			c0.2,0.1,0.5,0.2,0.7,0.2c0.3,0.1,0.7,0.2,1,0.3s0.5,0.2,0.8,0.2c0.1,0,0.2,0,0.2,0.1c0,0,0,0,0.1,0c0.3,0.1,0.5,0.2,0.8,0.3
			c0.2,0.1,0.5,0.3,0.7,0.4c0.1,0,0.1,0.1,0.2,0.2c0.3,0.3,0.7,0.6,0.9,1c0.1,0.3,0.3,0.6,0.4,0.8c0.2,0.6,0.1,1.2,0.1,1.8
			c0,0.2,0,0.3-0.1,0.5c0,0.2-0.1,0.3-0.2,0.5c-0.1,0.1-0.1,0.3-0.2,0.4c-0.1,0.2-0.2,0.4-0.4,0.6c-0.2,0.2-0.4,0.5-0.6,0.7
			c-0.3,0.3-0.5,0.5-0.9,0.7c-0.2,0.1-0.4,0.2-0.7,0.3c-0.2,0.1-0.4,0.2-0.6,0.2h-0.1c-0.1,0.1-0.3,0.1-0.4,0.1
			c-0.5,0.1-1.1,0.1-1.6,0c-0.3,0-0.7,0-1-0.2c-0.1-0.1-0.3-0.1-0.5-0.1c-0.2-0.1-0.4-0.2-0.6-0.2c-0.5-0.1-0.8-0.5-1.2-0.8
			c-0.1-0.1-0.2-0.1-0.2-0.2c-0.3-0.2-0.5-0.6-0.7-0.9c-0.2-0.2-0.3-0.5-0.4-0.8c-0.1-0.2-0.1-0.3-0.1-0.5V41
			c-0.1-0.2,0-0.3,0.2-0.4c0.3,0,0.6-0.1,0.9-0.2c0.2-0.1,0.5-0.1,0.8-0.2c0.1,0,0.2-0.1,0.3-0.1l0,0c0.2,0,0.5-0.1,0.7-0.1
			c0.1,0,0.2,0.1,0.3,0.2c0.1,0.2,0.1,0.4,0.2,0.6c0.1,0.2,0.3,0.3,0.4,0.5c0.1,0.1,0.2,0.1,0.2,0.1c0.2,0.1,0.4,0.2,0.6,0.2
			c0.3,0,0.7,0,1,0c0.2,0,0.4,0,0.6-0.1c0.1-0.1,0.3-0.2,0.4-0.3c0.2-0.3,0.2-0.6,0.1-0.9c-0.1-0.2-0.2-0.4-0.5-0.5
			c-0.2,0-0.4-0.1-0.6-0.2h-0.1c-0.1,0-0.2,0-0.3-0.1c0,0,0,0-0.1,0s-0.3,0-0.4-0.1c-0.1-0.1-0.3-0.1-0.5-0.1
			c-0.3,0-0.5-0.1-0.7-0.2c-0.2-0.1-0.4-0.1-0.5-0.2c0,0-0.1,0-0.1-0.1c-0.2-0.1-0.4-0.2-0.6-0.3c-0.2-0.1-0.3-0.2-0.5-0.3
			c-0.2-0.2-0.5-0.4-0.7-0.7c-0.1-0.2-0.2-0.4-0.4-0.6c0-0.1-0.1-0.2-0.1-0.2c-0.1-0.2-0.2-0.5-0.2-0.7c0,0,0-0.1,0-0.2
			c0-0.3,0-0.5,0-0.8s0.1-0.5,0.1-0.8c0-0.2,0.1-0.4,0.1-0.5c0.1-0.2,0.2-0.4,0.3-0.6c0.1-0.4,0.4-0.6,0.6-0.9
			c0.1-0.1,0.2-0.2,0.3-0.3c0.2-0.1,0.3-0.3,0.5-0.4s0.5-0.3,0.7-0.4c0.1,0,0.2-0.1,0.3-0.1c0.1-0.1,0.2-0.1,0.4-0.1h0.1
			c0.1-0.1,0.3-0.1,0.4-0.1c0.1,0,0.2-0.1,0.3-0.1s0.1,0,0.2,0C863.1,30.8,863.3,30.8,863.6,30.8z"/>
		<path class="st0" d="M833.3,38.1c0-2.2,0-4.4,0-6.5c0-0.2,0-0.2,0.3-0.2c2.7,0,5.5,0,8.2,0c0.3,0,0.3,0,0.3,0.3c0,0.9,0,1.8,0,2.7
			c0,0.2,0,0.2-0.2,0.2c-1.6,0-3.2,0-4.8,0c-0.3,0-0.4,0.1-0.4,0.4c0,0.5,0,1,0,1.4c0,0.2,0,0.2,0.2,0.2c1.3,0,2.6,0,3.9,0
			c0.3,0,0.4,0.1,0.4,0.4c0,0.7,0,1.5,0,2.2c0,0.3-0.1,0.4-0.4,0.4c-1.3,0-2.6,0-3.9,0c-0.2,0-0.2,0-0.2,0.2c0,0.6,0,1.3,0,1.9
			c0,0.3,0,0.3,0.3,0.3c1.7,0,3.3,0,5,0c0.3,0,0.3,0,0.3,0.3c0,0.9,0,1.7,0,2.6c0,0.2,0,0.3-0.3,0.3c-2.8,0-5.5,0-8.3,0
			c-0.2,0-0.2,0-0.2-0.2C833.3,42.4,833.3,40.2,833.3,38.1z"/>
	</g>
</g>
<g id="nFVVEr_2_">
	<g>
		<path class="st0" d="M746.4,38.6c-0.6-0.2-1.3-0.3-1.9-0.5c-2-0.8-3.2-2.2-3.6-4.3c-0.5-2.4-0.2-4.8,0.9-7
			c1.2-2.4,3.2-3.8,5.8-4.2c1.6-0.3,3.2-0.3,4.8,0.3c2.1,0.7,3.5,2.2,3.9,4.4c0.5,2.5,0.2,4.8-0.9,7.1c-1.1,2.3-3.1,3.6-5.6,4.1
			c-0.2,0-0.4,0.1-0.6,0.1C748.4,38.6,747.4,38.6,746.4,38.6z M751.4,28.9c-0.1-0.3-0.1-0.8-0.3-1.3c-0.3-0.7-0.8-1-1.6-1.1
			c-1.2-0.1-2,0.4-2.5,1.4c-0.7,1.5-1,3.1-0.9,4.8c0.1,1.1,0.9,1.8,2,1.8s1.8-0.5,2.2-1.5C751,31.9,751.3,30.5,751.4,28.9z"/>
		<path class="st0" d="M687,38.6c-0.7-0.2-1.4-0.3-2-0.5c-2-0.8-2.9-2.3-3-4.4c-0.1-1.2,0.2-2.4,0.4-3.6c0.4-2.3,0.8-4.6,1.2-6.9
			c0.1-0.3,0.2-0.4,0.5-0.4c1.4,0,2.8,0,4.3,0c0.4,0,0.4,0,0.4,0.4c-0.5,2.8-1,5.6-1.5,8.5c-0.1,0.4-0.1,0.8-0.1,1.2
			c0,1.4,0.8,2,2.2,1.8c0.9-0.1,1.4-0.6,1.6-1.4c0.3-1,0.5-2,0.7-3c0.4-2.4,0.9-4.8,1.3-7.2c0.1-0.3,0.2-0.4,0.5-0.4
			c1.4,0,2.8,0,4.3,0c0.4,0,0.4,0,0.4,0.4c-0.4,2.6-0.9,5.1-1.4,7.7c-0.2,1.1-0.4,2.2-0.7,3.3c-0.7,2.5-2.5,3.9-5.1,4.3
			c-0.2,0-0.5,0.1-0.7,0.1C689.1,38.6,688,38.6,687,38.6z"/>
		<path class="st0" d="M761.5,38.6c-0.8-0.2-1.5-0.3-2.3-0.6c-1.2-0.5-2-1.3-2.4-2.6c-0.1-0.3,0-0.4,0.3-0.5c1.3-0.3,2.5-0.7,3.8-1
			c0.2-0.1,0.3,0,0.4,0.2c0.5,0.8,1.4,1.2,2.3,0.9c0.5-0.1,0.7-0.4,0.8-0.9c0.1-0.4-0.2-0.8-0.6-1c-0.3-0.1-0.6-0.2-0.8-0.3
			c-0.6-0.2-1.3-0.4-1.8-0.7c-1.6-0.8-2.5-2.1-2.7-3.9c-0.1-2,0.7-4.1,2.9-5c0.6-0.3,1.3-0.5,2-0.6c1.6-0.2,3.2-0.2,4.7,0.3
			c1.3,0.4,2.2,1.3,2.6,2.6c0.1,0.3,0,0.4-0.3,0.5c-1.3,0.3-2.6,0.7-3.8,1c-0.2,0.1-0.3,0-0.5-0.2c-0.4-0.6-1.2-0.9-1.9-0.7
			c-0.4,0.1-0.7,0.4-0.7,0.8c-0.1,0.4,0.1,0.8,0.5,1c0.6,0.2,1.2,0.4,1.8,0.7c0.6,0.2,1.2,0.5,1.8,0.8c1.7,1,2.3,2.6,2.1,4.5
			c-0.3,2.8-2.1,4.1-4.4,4.6c-0.4,0.1-0.7,0.1-1.1,0.2C763.4,38.6,762.5,38.6,761.5,38.6z"/>
		<path class="st0" d="M671.4,22.8c-0.3,1.9-0.7,3.7-1,5.5c0.4,0,0.8,0,1.2,0c0.9,0,1.8,0,2.7,0c0.3,0,0.4-0.1,0.5-0.4
			c0.3-1.6,0.6-3.2,0.9-4.9c0-0.2,0.1-0.3,0.3-0.3c1.5,0,3.1,0,4.6,0c0.1,0,0.1,0,0.2,0c-0.1,0.6-0.2,1.2-0.3,1.8
			c-0.7,3.8-1.3,7.5-2,11.3c-0.1,0.7-0.2,1.4-0.4,2.1c0,0.2-0.1,0.3-0.3,0.3c-1.6,0-3.1,0-4.7,0c0,0-0.1,0-0.2,0
			c0.3-1.9,0.7-3.8,1-5.7c-0.2,0-0.3,0-0.4,0c-1.2,0-2.3,0-3.5,0c-0.4,0-0.5,0.1-0.5,0.5c-0.3,1.7-0.6,3.3-0.9,5
			c0,0.3-0.2,0.4-0.4,0.4c-1.5,0-2.9,0-4.4,0c-0.3,0-0.4,0-0.3-0.4c0.5-2.6,0.9-5.2,1.4-7.8c0.4-2.3,0.8-4.6,1.2-6.9
			c0.1-0.3,0.2-0.5,0.5-0.5c1.4,0,2.8,0,4.2,0C671.1,22.8,671.2,22.8,671.4,22.8z"/>
		<path class="st0" d="M731,22.8c1.3,0,2.5,0,3.8,0c1,0,1.9,0.2,2.7,0.7c1.4,0.7,2.1,1.9,2.3,3.4c0.1,1,0,2.1-0.2,3
			c-0.7,2.4-2.3,3.8-4.7,4.2c-1.2,0.2-2.5,0.1-3.7,0.2c-0.5,0-0.5,0-0.6,0.5c-0.2,1.1-0.4,2.1-0.6,3.2c0,0.2-0.1,0.3-0.4,0.3
			c-1.5,0-3,0-4.4,0c-0.3,0-0.4-0.1-0.3-0.4c0.9-4.9,1.7-9.9,2.6-14.8c0-0.3,0.2-0.4,0.4-0.4C728.9,22.8,729.9,22.8,731,22.8
			L731,22.8z M731.2,30.4c0.6,0,1.2,0,1.7,0c1.3-0.1,2-0.9,1.9-2.2c0-0.8-0.5-1.3-1.3-1.3c-0.5,0-0.9,0-1.4,0
			c-0.2,0-0.3,0.1-0.3,0.3c0,0.3-0.1,0.6-0.2,0.9C731.5,28.8,731.4,29.6,731.2,30.4z"/>
		<path class="st0" d="M704.9,29.8c1.4,0,2.8,0,4.2,0c-0.1,0.4-0.1,0.7-0.2,1c-0.1,0.8-0.3,1.7-0.4,2.5c0,0.3-0.2,0.4-0.5,0.4
			c-1.1,0-2.3,0-3.4,0c-0.4,0-0.5,0.1-0.5,0.5c-0.2,1.3-0.4,2.5-0.7,3.8c0,0.2-0.1,0.3-0.3,0.3c-1.5,0-3.1,0-4.6,0
			c-0.1,0-0.1,0-0.2,0c0.1-0.6,0.2-1.2,0.3-1.7c0.7-3.8,1.3-7.6,2-11.4c0.1-0.7,0.2-1.4,0.4-2c0-0.3,0.2-0.4,0.5-0.4
			c3.4,0,6.8,0,10.3,0c0.4,0,0.4,0,0.3,0.4c-0.2,1.1-0.4,2.3-0.6,3.4c0,0.3-0.2,0.4-0.5,0.4c-1.7,0-3.5,0-5.2,0
			c-0.2,0-0.4,0-0.4,0.3c-0.1,0.8-0.3,1.5-0.4,2.3C704.9,29.6,704.9,29.7,704.9,29.8z"/>
		<path class="st0" d="M718.1,29.8c0.2,0,0.4,0,0.5,0c1.1,0,2.2,0,3.3,0c0.4,0,0.4,0,0.3,0.4c-0.2,1.1-0.4,2.2-0.6,3.2
			c0,0.3-0.2,0.3-0.4,0.3c-1.2,0-2.3,0-3.5,0c-0.4,0-0.5,0.1-0.5,0.5c-0.2,1.3-0.4,2.5-0.6,3.7c0,0.3-0.1,0.4-0.4,0.4
			c-1.5,0-2.9,0-4.4,0c-0.3,0-0.4-0.1-0.3-0.4c0.9-4.8,1.7-9.7,2.5-14.5c0.1-0.7,0.1-0.7,0.8-0.7c3.3,0,6.6,0,9.9,0
			c0.5,0,0.5,0,0.4,0.5c-0.2,1.1-0.4,2.2-0.6,3.3c-0.1,0.3-0.2,0.4-0.5,0.4c-1.7,0-3.4,0-5.1,0c-0.3,0-0.5,0.1-0.5,0.4
			C718.4,28.2,718.2,29,718.1,29.8z"/>
		<path class="st0" d="M776.1,27c-1.4,0-2.7,0-4,0c0.1-0.6,0.2-1.1,0.3-1.6c0.1-0.7,0.3-1.5,0.4-2.2c0-0.3,0.2-0.4,0.5-0.4
			c4.1,0,8.1,0,12.2,0c0.1,0,0.2,0,0.4,0c0,0.1,0,0.3,0,0.4c-0.2,1.1-0.4,2.3-0.6,3.4c-0.1,0.3-0.2,0.4-0.5,0.4c-1,0-2,0-3,0
			c-0.3,0-0.4,0.1-0.5,0.4c-0.6,3.6-1.2,7.1-1.9,10.6c0,0.2-0.1,0.3-0.3,0.3c-1.5,0-3.1,0-4.6,0c0,0-0.1,0-0.2,0
			C774.8,34.6,775.4,30.8,776.1,27z"/>
	</g>
</g>
<g id="TB3qIq_2_">
	<g>
		<path class="st0" d="M394.8,23.2c-0.7-0.2-1.3-0.3-1.9-0.5c-1.7-0.4-3.5-0.5-5.3-0.4c-1.4,0.1-2.7,0.3-4,0.8
			c-2,0.8-3.2,2.4-3.5,4.5c-0.2,1.4,0.3,3,1.9,3.8c0.6,0.3,1.3,0.6,2,0.9c0.9,0.4,1.7,0.9,2.4,1.6c1.3,1.3,1.1,3.5-0.5,4.5
			c-1.1,0.7-2.3,1-3.6,0.8c-1.5-0.2-3-0.5-4.4-1.1c-1.1-0.6-2.2-1.2-3.3-1.9c-0.1-0.1-0.2-0.2-0.2-0.4c-0.1-1.1-0.2-2.2-0.3-3.3
			c-0.1-1.3-0.2-2.6-0.3-3.9c-0.1-1.1-0.2-2.2-0.3-3.3c-0.1-1.3-0.2-2.5-0.3-3.8c0-0.7-0.1-1.4,0-2c0.3-1.6,1.6-2.6,3.2-2.7
			c1.3-0.1,2.7-0.2,4-0.3c1.1-0.1,2.2-0.2,3.3-0.3c1.3-0.1,2.6-0.2,3.8-0.3c1.3-0.1,2.6-0.2,3.9-0.3c1.2-0.1,2.9,0.9,3.2,2.8
			c0.2,1.2,0.2,2.4,0.3,3.5C394.7,22.4,394.7,22.7,394.8,23.2z M378.1,23.1C378.1,23.2,378.1,23.2,378.1,23.1
			c-0.1,0.2-0.1,0.3-0.2,0.5c-0.6,1.3-0.8,2.6-0.7,4c0,0.7,0,0.7,0.8,0.7c0.2,0,0.2-0.1,0.2-0.2c0.1-0.8,0.2-1.6,0.4-2.4
			c0.4-1.8,1.5-3.1,3.2-3.8c0.5-0.2,0.9-0.4,1.4-0.6c-0.1-0.2-0.1-0.4-0.2-0.6c0-0.2-0.1-0.2-0.3-0.2c-1.2,0.3-2.4,0.7-3.4,1.5
			c0,0-0.1,0-0.1,0.1V22l0.1-0.1c0.7-1.1,1-2.3,1-3.6c0-0.1-0.1-0.2-0.1-0.2c-0.2,0-0.5,0-0.7,0c0,0.1,0,0.1,0,0.1
			c-0.1,1.1-0.4,2.1-1.1,3c-0.9,1.2-2.2,1.5-3.5,0.8c-0.1,0-0.2-0.1-0.3-0.1c-0.2,0.3-0.3,0.5-0.4,0.7c0.4,0.3,0.7,0.5,1.1,0.7
			C376.2,23.5,377.2,23.5,378.1,23.1z M378.1,20c0-0.3-0.1-0.5-0.3-0.8c-0.4-0.4-0.9-0.3-1.2,0.2c-0.3,0.4-0.2,1.1,0.1,1.4
			c0.2,0.2,0.6,0.3,0.9,0.2C377.8,20.9,378.1,20.5,378.1,20z"/>
		<path class="st0" d="M374.5,39.4c0.4,0.2,0.8,0.3,1.1,0.5c1.9,0.8,3.7,1.4,5.7,1.8c2.2,0.4,4.5,0.5,6.7,0c0.8-0.2,1.5-0.5,2.2-1
			c0.9-0.7,1.4-1.8,1.6-2.9c0.5-2.3-0.8-4.4-2.6-5.3c-0.6-0.3-1.3-0.6-2-0.9s-1.4-0.7-2-1.2c-1.2-1-1.2-2.4-0.7-3.6
			c0.5-1.1,1.5-1.6,2.5-1.9c2.7-0.8,5.2-0.3,7.7,0.9c0.1,0.1,0.2,0.2,0.2,0.3c0.2,2.1,0.4,4.2,0.5,6.3c0.2,2.2,0.4,4.4,0.6,6.6
			c0.1,0.6,0.1,1.2-0.1,1.7c-0.4,1.3-1.6,2.3-3,2.4c-1.3,0.1-2.6,0.2-3.9,0.3c-1.1,0.1-2.2,0.2-3.3,0.3c-1.1,0.1-2.1,0.2-3.2,0.3
			s-2.2,0.2-3.3,0.3c-0.5,0-0.9,0.1-1.4,0.1c-1.7,0-3.1-1.2-3.3-2.9C374.6,40.8,374.6,40.1,374.5,39.4z"/>
		<path class="st0" d="M403.8,31.8c0.6,0.2,1.2,0.4,1.8,0.6c0.9,0.2,1.7,0.3,2.6,0.1c0.8-0.2,1.3-0.7,1.3-1.4c0-0.5-0.3-0.9-0.8-1.1
			c-0.5-0.3-1-0.5-1.5-0.7c-0.9-0.4-1.8-0.8-2.6-1.4c-1.9-1.6-1.6-4.6,0.4-5.9c0.9-0.6,1.8-0.9,2.8-0.9c1.3-0.1,2.6,0,3.9,0.5
			c0.4,0.1,0.4,0.1,0.3,0.5c-0.2,0.6-0.3,1.2-0.5,1.8c0,0.1-0.1,0.2-0.1,0.3c-0.1,0-0.2-0.1-0.3-0.1c-0.9-0.4-1.9-0.6-2.8-0.5
			c-0.4,0-0.8,0.1-1.1,0.3c-0.8,0.4-0.9,1.4-0.2,1.9c0.4,0.3,0.8,0.5,1.3,0.7c0.7,0.3,1.5,0.6,2.3,1c0.9,0.5,1.6,1.2,1.9,2.3
			c0.5,1.9-0.1,3.9-2.2,4.9c-0.8,0.4-1.6,0.5-2.4,0.6c-1.5,0.1-3-0.1-4.3-0.7c-0.3-0.1-0.3-0.2-0.3-0.5
			C403.5,33.3,403.7,32.6,403.8,31.8z"/>
		<path class="st0" d="M447.9,35.3c-1.6,0-3-0.5-4-1.6c-0.7-0.7-1.1-1.6-1.2-2.6c-0.2-1.1-0.1-2.3,0.4-3.4c0.5-1.2,1.4-2.1,2.6-2.5
			c1.5-0.6,3-0.6,4.5,0c1.7,0.7,2.6,2.1,2.9,3.9c0.1,1,0.1,1.9-0.2,2.8c-0.7,2-2.1,3-4.1,3.3C448.4,35.2,448.1,35.2,447.9,35.3z
			 M449.8,30c0-0.7-0.1-1.5-0.5-2.1c-0.3-0.4-0.6-0.7-1.1-0.8c-0.8-0.2-1.5,0.2-1.9,0.9c-0.3,0.6-0.4,1.3-0.4,2
			c0,0.8,0.1,1.5,0.6,2.2c0.7,1.1,2.2,1,2.9-0.1C449.7,31.5,449.7,30.7,449.8,30z"/>
		<path class="st0" d="M428.4,26.4c0.1-0.1,0.2-0.2,0.2-0.3c1.3-1.5,3.7-1.8,5.2-0.6c0.7,0.6,1,1.4,1.2,2.3c0.1,0.4,0.1,0.9,0.1,1.3
			c0,1.8,0,3.7,0,5.5c0,0.4,0,0.4-0.4,0.4c-0.8,0-1.7,0-2.5,0c-0.2,0-0.3-0.1-0.3-0.3c0-1.7,0-3.5,0-5.2c0-0.4,0-0.8-0.1-1.1
			c-0.3-1.1-1.6-1.4-2.4-0.7c-0.4,0.4-0.6,0.9-0.6,1.5c0,1.8,0,3.6,0,5.5c0,0.3,0,0.3-0.3,0.3c-0.8,0-1.7,0-2.5,0
			c-0.3,0-0.3-0.1-0.3-0.3c0-2.7,0-5.3,0-8c0-0.5,0-1-0.1-1.5c0-0.2,0.1-0.2,0.2-0.2c0.7,0,1.5,0,2.2,0c0.2,0,0.2,0,0.3,0.2
			C428.3,25.6,428.4,25.9,428.4,26.4z"/>
		<path class="st0" d="M417.3,31c0,0.5,0.2,0.9,0.6,1.2c0.6,0.5,1.2,0.7,2,0.7c0.9,0,1.9-0.1,2.8-0.3c0.1,0,0.1,0,0.3-0.1
			c0,0.2,0.1,0.4,0.1,0.6c0.1,0.4,0.2,0.9,0.3,1.3c0,0.2,0,0.3-0.2,0.3c-0.7,0.2-1.4,0.4-2.1,0.5c-1.1,0.2-2.1,0.1-3.2-0.2
			c-1.8-0.5-2.9-1.7-3.3-3.5c-0.4-1.7-0.1-3.3,0.9-4.8c0.9-1.3,2.2-1.9,3.7-1.9c0.9,0,1.7,0.1,2.5,0.5c1.2,0.6,1.8,1.7,2.1,2.9
			c0.2,0.9,0.2,1.8,0.1,2.6c0,0.2-0.1,0.2-0.3,0.2c-0.3,0-0.5,0-0.8,0c-1.7,0-3.4,0-5,0C417.5,31,417.4,31,417.3,31z M417.3,28.8
			c0.2,0,0.3,0,0.5,0c0.9,0,1.9,0,2.8,0c0.1,0,0.2,0,0.2-0.1c0.1-0.7-0.5-1.6-1.2-1.8C418.5,26.6,417.3,27.5,417.3,28.8z"/>
		<path class="st0" d="M457.7,26.8c0.4-0.9,0.9-1.5,1.8-1.9c0.5-0.2,0.9-0.2,1.4-0.1c0.1,0,0.2,0.1,0.2,0.2c0,0.9,0,1.9,0,2.8
			c-0.2,0-0.4-0.1-0.5,0c-0.4,0-0.8,0-1.2,0.1c-0.8,0.2-1.3,1-1.3,1.9c0,1.6,0,3.2,0,4.9c0,0.4,0,0.4-0.4,0.4c-0.8,0-1.7,0-2.5,0
			c-0.3,0-0.3-0.1-0.3-0.3c0-2.9,0-5.7,0-8.6c0-0.3,0-0.6,0-0.9c0-0.2,0.1-0.2,0.2-0.2c0.8,0,1.5,0,2.3,0c0.2,0,0.2,0.1,0.2,0.2
			c0,0.4,0.1,0.9,0.1,1.3C457.7,26.6,457.7,26.7,457.7,26.8z"/>
		<path class="st0" d="M437.6,30c0-1.5,0-3.1,0-4.6c0-0.4,0-0.4,0.4-0.4c0.8,0,1.7,0,2.5,0c0.2,0,0.3,0,0.3,0.3c0,3.2,0,6.3,0,9.5
			c0,0.2-0.1,0.3-0.3,0.3c-0.9,0-1.7,0-2.6,0c-0.2,0-0.3-0.1-0.3-0.3C437.6,33.2,437.6,31.6,437.6,30z"/>
		<path class="st0" d="M479.6,30.9c0.7-0.9,2.1-1,2.7,0.1c0-0.1,0.1-0.1,0.1-0.1c0.5-0.5,1.1-0.7,1.8-0.5c0.7,0.2,1,0.8,1,1.4
			c0.1,0.9,0,1.7,0.1,2.6c0,0.7,0,0.7-0.7,0.7c-0.2,0-0.3,0-0.5,0s-0.3-0.1-0.3-0.3c0-0.8,0-1.6,0-2.5c0-0.1,0-0.2-0.1-0.3
			c-0.1-0.3-0.3-0.5-0.6-0.5c-0.3,0-0.6,0.3-0.6,0.6c0,0.4,0,0.8,0,1.3s0,1,0,1.5c0,0.2-0.1,0.3-0.2,0.2c-0.3,0-0.6,0-0.9,0
			c-0.2,0-0.3-0.1-0.3-0.3c0-0.7,0-1.5,0-2.2c0-0.2,0-0.4-0.1-0.6c-0.2-0.5-0.7-0.6-1-0.2c-0.1,0.2-0.2,0.4-0.2,0.7
			c0,0.8,0,1.6,0,2.4c0,0.2-0.1,0.3-0.3,0.3c-0.3,0-0.6,0-0.9,0c-0.2,0-0.3-0.1-0.3-0.3c0-1.1,0-2.1,0-3.2c0-0.3,0-0.6,0-0.9
			c0-0.2,0-0.3,0.2-0.3s0.5,0,0.7,0s0.4,0.1,0.4,0.3C479.6,30.8,479.6,30.8,479.6,30.9z"/>
		<path class="st0" d="M474.6,30.3c1.4,0,2.4,1,2.4,2.4c0,1.5-1,2.5-2.5,2.5c-1.4,0-2.4-1-2.4-2.4C472.1,31.3,473.1,30.3,474.6,30.3
			z M475.5,32.7c-0.1-0.3-0.2-0.7-0.3-1c-0.3-0.5-0.9-0.5-1.2,0c-0.3,0.5-0.4,1.5,0,2c0.4,0.6,1.1,0.5,1.4,0
			C475.4,33.3,475.4,33,475.5,32.7z"/>
		<path class="st0" d="M463,31.4c1.1,0,1.8,0.8,1.8,1.9s-0.8,1.8-1.8,1.8c-1.1,0-1.8-0.8-1.8-1.9C461.2,32.1,461.9,31.4,463,31.4z"
			/>
		<path class="st0" d="M471,33.8c0.1,0.3,0.1,0.6,0.1,0.9c0,0.1,0,0.2-0.1,0.2c-0.8,0.3-2.1,0.3-2.9-0.4c-0.7-0.7-0.9-1.6-0.6-2.5
			c0.2-0.9,0.8-1.5,1.7-1.7c0.6-0.1,1.1-0.1,1.7,0c0.2,0,0.3,0.1,0.2,0.3c-0.1,0.2-0.1,0.4-0.1,0.6s-0.1,0.2-0.3,0.2
			c-0.3-0.1-0.6-0.1-0.9,0c-0.7,0.1-1.1,0.7-0.9,1.5c0.1,0.6,0.7,1.1,1.4,1C470.6,33.9,470.8,33.9,471,33.8z"/>
		<path class="st0" d="M439.1,23.7c-1,0-1.8-0.7-1.8-1.7s0.8-1.7,1.8-1.7s1.8,0.7,1.8,1.7S440.2,23.7,439.1,23.7z"/>
	</g>
</g>
<g id="tRXHi7_1_">
	<g>
		<path class="st0" d="M512.1,18.9c2.6-0.3,5.1-0.7,7.6-0.3c3.8,0.5,6.2,3,6.4,6.8c0.1,1.4,0,2.8-0.4,4.1c-0.8,2.9-3,4.3-5.8,4.9
			c-1.2,0.2-2.4,0.3-3.6,0.5c0,2.1,0,4.2,0,6.4c-1.4,0-2.7,0-4.1,0C512.1,33.9,512.1,26.5,512.1,18.9z M516.3,31.2
			c2.1,0.3,4.3-0.5,5.1-2c1-1.9,1-3.9-0.2-5.7c-1.2-1.7-3-1.8-4.9-1.5C516.3,25.1,516.3,28.1,516.3,31.2z"/>
		<path class="st0" d="M548.7,34.9c-3.6,0-7.1,0-10.5,0c0.1,2,1.8,3.5,3.9,3.5c0.8,0,1.7-0.1,2.5-0.2c0.8-0.2,1.5-0.5,2.3-0.8
			c0.3,0.9,0.7,1.8,1,2.9c-0.6,0.3-1.1,0.6-1.7,0.8c-2,0.6-4,0.7-6,0.3c-3.5-0.7-5.7-3.5-5.8-7.2c-0.1-2.7,0.4-5.2,2.6-7
			c2.8-2.4,8.2-2,10.3,0.9c1,1.4,1.3,3,1.5,4.6C548.7,33.4,548.7,34.1,548.7,34.9z M545.2,32.1c0.1-1.9-1.4-3.3-3.3-3.3
			c-1.9,0-3.7,1.6-3.6,3.3C540.6,32.1,542.9,32.1,545.2,32.1z"/>
		<path class="st0" d="M575.7,34.9c-3.6,0-7.1,0-10.6,0c-0.1,1.5,1.1,3,2.8,3.4s3.3,0.2,4.9-0.4c0.3-0.1,0.6-0.3,0.9-0.4
			c0.3,0.9,0.7,1.8,0.9,2.7c0,0.1-0.1,0.4-0.3,0.5c-0.8,0.3-1.6,0.8-2.5,0.9c-1.6,0.2-3.2,0.3-4.7,0.1c-2.9-0.5-4.8-2.3-5.6-5.2
			c-0.6-2.1-0.5-4.3,0.3-6.4c1.2-3,4.1-4.6,7.6-4.1c3.6,0.5,5.6,2.4,6,6.1C575.6,32.8,575.7,33.8,575.7,34.9z M572.1,32.1
			c0.1-1.7-1.2-3.1-3-3.2c-2-0.2-3.7,1.2-3.9,3.2C567.5,32.1,569.8,32.1,572.1,32.1z"/>
		<path class="st0" d="M619.8,33.7c0,3.8-2.1,6.8-5.4,7.7c-4.7,1.3-10.1-1.4-9.8-8.1c0.1-2.3,0.8-4.4,2.7-5.9c2.5-1.9,5.3-2.2,8.1-1
			s4.1,3.6,4.4,6.6C619.8,33.2,619.8,33.4,619.8,33.7z M608.1,33.6c0.3,1,0.4,1.9,0.7,2.8c0.6,1.4,1.8,2.1,3.3,2.1s2.7-0.7,3.3-2.1
			c0.8-1.9,0.8-3.8-0.1-5.6c-0.6-1.3-1.8-1.9-3.2-1.9s-2.6,0.6-3.2,1.9C608.5,31.6,608.4,32.7,608.1,33.6z"/>
		<path class="st0" d="M624,41.4c-1.2,0-2.3,0-3.5,0c0-5.1,0-10.1,0-15.2c1.2,0,2.3,0,3.5,0c0,0.7,0,1.3,0,2c0,0,0.1,0,0.1,0.1
			c0.1-0.2,0.3-0.3,0.4-0.5c1.5-2,4.1-2.6,6.4-1.6c1.7,0.8,2.4,2.2,2.5,4c0.1,3.7,0,7.5,0,11.3c-1.2,0-2.4,0-3.6,0
			c0-0.3,0-0.5,0-0.8c0-2.8,0-5.6,0-8.4c0-1.7-0.6-2.6-1.9-2.8c-1.7-0.3-3.1,0.5-3.6,2c-0.2,0.6-0.3,1.2-0.3,1.7c0,2.5,0,4.9,0,7.4
			C624,40.8,624,41,624,41.4z"/>
		<path class="st0" d="M579.9,41.4c-1.2,0-2.3,0-3.4,0c0-5.1,0-10.1,0-15.2c1.1,0,2.3,0,3.5,0c0,0.6,0,1.3,0,2.1
			c0.2-0.3,0.4-0.4,0.5-0.5c1.5-2,4-2.7,6.4-1.8c2,0.8,2.6,2.5,2.7,4.5c0,3.5,0,7,0,10.5c0,0.1,0,0.2,0,0.3c-1.2,0-2.4,0-3.6,0
			c0-0.2,0-0.5,0-0.7c0-2.8,0-5.7,0-8.5c0-1.5-0.5-2.3-1.6-2.6c-1.4-0.4-2.9,0.1-3.5,1.3c-0.4,0.7-0.6,1.6-0.6,2.3
			c-0.1,2.7,0,5.4,0,8.1C579.9,41.2,579.9,41.2,579.9,41.4z"/>
		<path class="st0" d="M547.8,26.2c1.3,0,2.5,0,3.8,0c0.2,0,0.4,0.3,0.5,0.5c1,3,2,6,3,9c0.1,0.2,0.1,0.4,0.3,0.7
			c0.6-1.9,1.2-3.6,1.8-5.4c0.5-1.4,0.9-2.9,1.4-4.3c0.1-0.4,0.3-0.6,0.7-0.6c1,0,2.1,0,3.2,0c-0.1,0.5-0.3,0.9-0.4,1.2
			c-1.6,4.5-3.1,9-4.7,13.4c-0.1,0.4-0.3,0.6-0.7,0.6c-1,0-2.1,0-3.1,0c-0.2,0-0.6-0.2-0.6-0.4c-1.7-4.8-3.4-9.7-5.1-14.5
			C547.7,26.4,547.8,26.4,547.8,26.2z"/>
		<path class="st0" d="M591.9,29.2c-0.7,0-1.2,0-1.9,0c0-1,0-2,0-3c0.6,0,1.2,0,1.9,0c0-1,0.1-1.9,0-2.9c-0.1-0.7,0.2-1.1,0.9-1.3
			c0.9-0.3,1.9-0.8,2.9-1.2c0,1.8,0,3.5,0,5.4c1.3,0,2.6,0,3.9,0c0,1,0,2,0,3c-1.2,0-2.5,0-3.7,0c-0.1,0.2-0.1,0.2-0.1,0.3
			c0,2.3,0,4.6,0,6.9c0,1.8,0.9,2.3,2.6,1.7c0.2-0.1,0.3-0.1,0.5-0.2c0.2,0.5,0.3,0.9,0.5,1.4c0.2,0.4,0.3,0.9,0.5,1.4
			c-0.3,0.2-0.7,0.4-1,0.6c-1.4,0.5-2.9,0.6-4.3,0.2c-1.8-0.6-2.5-2.1-2.6-3.8c-0.1-2.4-0.1-4.8-0.1-7.3
			C591.9,30,591.9,29.6,591.9,29.2z"/>
		<path class="st0" d="M530.3,41.4c-1.2,0-2.4,0-3.5,0c0-5,0-10.1,0-15.2c1.1,0,2.3,0,3.5,0c0,0.6,0,1.3,0,2
			c0.6-0.9,1.1-1.8,2.1-2.2c1-0.5,2-0.3,3.1,0c-0.3,1.2-0.5,2.4-0.8,3.6c-0.4-0.1-0.8-0.1-1.2-0.1c-1.8,0-2.9,0.9-3.1,2.7
			c-0.1,1.3-0.1,2.6-0.1,3.9C530.3,37.8,530.3,39.5,530.3,41.4z"/>
		<path class="st0" d="M600.4,26.2c1.2,0,2.4,0,3.6,0c0,5.1,0,10.1,0,15.1c-1.2,0-2.4,0-3.6,0C600.4,36.3,600.4,31.3,600.4,26.2z"/>
		<path class="st0" d="M600,22.8c0-1.3,1-2.2,2.2-2.2s2.2,1,2.2,2.2s-1,2.2-2.2,2.2C600.9,25,600,24.1,600,22.8z"/>
		<path class="st0" d="M545.2,32.1c-2.3,0-4.6,0-6.9,0"/>
	</g>
</g>
</svg>
