<?xml version="1.0" encoding="utf-8"?>
<!-- Generator: Adobe Illustrator 23.0.3, SVG Export Plug-In . SVG Version: 6.00 Build 0)  -->
<svg version="1.1" id="Layer_1" xmlns="http://www.w3.org/2000/svg" xmlns:xlink="http://www.w3.org/1999/xlink" x="0px" y="0px"
	 viewBox="0 0 122.4 16.3" style="enable-background:new 0 0 122.4 16.3;" xml:space="preserve">
<style type="text/css">
	.st0{fill:#9B9B9B;}
</style>
<g id="nFVVEr_2_">
	<g>
		<path class="st0" d="M82.9,16.2c-0.6-0.2-1.3-0.3-1.9-0.5c-2-0.8-3.2-2.2-3.6-4.3c-0.5-2.4-0.2-4.8,0.9-7c1.2-2.4,3.2-3.8,5.8-4.2
			c1.6-0.3,3.2-0.3,4.8,0.3c2.1,0.7,3.5,2.2,3.9,4.4c0.5,2.5,0.2,4.8-0.9,7.1c-1.1,2.3-3.1,3.6-5.6,4.1c-0.2,0-0.4,0.1-0.6,0.1
			C84.9,16.2,83.9,16.2,82.9,16.2z M87.9,6.5c-0.1-0.3-0.1-0.8-0.3-1.3c-0.3-0.7-0.8-1-1.6-1.1c-1.2-0.1-2,0.4-2.5,1.4
			c-0.7,1.5-1,3.1-0.9,4.8c0.1,1.1,0.9,1.8,2,1.8s1.8-0.5,2.2-1.5C87.5,9.5,87.8,8.1,87.9,6.5z"/>
		<path class="st0" d="M23.5,16.2c-0.7-0.2-1.4-0.3-2-0.5c-2-0.8-2.9-2.3-3-4.4c-0.1-1.2,0.2-2.4,0.4-3.6c0.4-2.3,0.8-4.6,1.2-6.9
			c0.1-0.3,0.2-0.4,0.5-0.4c1.4,0,2.8,0,4.3,0c0.4,0,0.4,0,0.4,0.4c-0.5,2.8-1,5.6-1.5,8.5c-0.1,0.4-0.1,0.8-0.1,1.2
			c0,1.4,0.8,2,2.2,1.8c0.9-0.1,1.4-0.6,1.6-1.4c0.3-1,0.5-2,0.7-3c0.4-2.4,0.9-4.8,1.3-7.2c0.1-0.3,0.2-0.4,0.5-0.4
			c1.4,0,2.8,0,4.3,0c0.4,0,0.4,0,0.4,0.4c-0.4,2.6-0.9,5.1-1.4,7.7c-0.2,1.1-0.4,2.2-0.7,3.3c-0.7,2.5-2.5,3.9-5.1,4.3
			c-0.2,0-0.5,0.1-0.7,0.1C25.6,16.2,24.5,16.2,23.5,16.2z"/>
		<path class="st0" d="M98,16.2c-0.8-0.2-1.5-0.3-2.3-0.6c-1.2-0.5-2-1.3-2.4-2.6c-0.1-0.3,0-0.4,0.3-0.5c1.3-0.3,2.5-0.7,3.8-1
			c0.2-0.1,0.3,0,0.4,0.2c0.5,0.8,1.4,1.2,2.3,0.9c0.5-0.1,0.7-0.4,0.8-0.9c0.1-0.4-0.2-0.8-0.6-1c-0.3-0.1-0.6-0.2-0.8-0.3
			c-0.6-0.2-1.3-0.4-1.8-0.7c-1.6-0.8-2.5-2.1-2.7-3.9c-0.1-2,0.7-4.1,2.9-5c0.6-0.3,1.3-0.5,2-0.6c1.6-0.2,3.2-0.2,4.7,0.3
			c1.3,0.4,2.2,1.3,2.6,2.6c0.1,0.3,0,0.4-0.3,0.5c-1.3,0.3-2.6,0.7-3.8,1c-0.2,0.1-0.3,0-0.5-0.2c-0.4-0.6-1.2-0.9-1.9-0.7
			c-0.4,0.1-0.7,0.4-0.7,0.8c-0.1,0.4,0.1,0.8,0.5,1c0.6,0.2,1.2,0.4,1.8,0.7c0.6,0.2,1.2,0.5,1.8,0.8c1.7,1,2.3,2.6,2.1,4.5
			c-0.3,2.8-2.1,4.1-4.4,4.6c-0.4,0.1-0.7,0.1-1.1,0.2C99.9,16.2,99,16.2,98,16.2z"/>
		<path class="st0" d="M7.9,0.4c-0.3,1.9-0.7,3.7-1,5.5c0.4,0,0.8,0,1.2,0c0.9,0,1.8,0,2.7,0c0.3,0,0.4-0.1,0.5-0.4
			c0.3-1.6,0.6-3.2,0.9-4.9c0-0.2,0.1-0.3,0.3-0.3c1.5,0,3.1,0,4.6,0c0.1,0,0.1,0,0.2,0c-0.1,0.6-0.2,1.2-0.3,1.8
			c-0.7,3.8-1.3,7.5-2,11.3c-0.1,0.7-0.2,1.4-0.4,2.1c0,0.2-0.1,0.3-0.3,0.3c-1.6,0-3.1,0-4.7,0c0,0-0.1,0-0.2,0
			c0.3-1.9,0.7-3.8,1-5.7c-0.2,0-0.3,0-0.4,0c-1.2,0-2.3,0-3.5,0c-0.4,0-0.5,0.1-0.5,0.5c-0.3,1.7-0.6,3.3-0.9,5
			c0,0.3-0.2,0.4-0.4,0.4c-1.5,0-2.9,0-4.4,0C0,16-0.1,16,0,15.6c0.5-2.6,0.9-5.2,1.4-7.8c0.4-2.3,0.8-4.6,1.2-6.9
			c0.1-0.3,0.2-0.5,0.5-0.5c1.4,0,2.8,0,4.2,0C7.6,0.4,7.7,0.4,7.9,0.4z"/>
		<path class="st0" d="M67.5,0.4c1.3,0,2.5,0,3.8,0c1,0,1.9,0.2,2.7,0.7c1.4,0.7,2.1,1.9,2.3,3.4c0.1,1,0,2.1-0.2,3
			c-0.7,2.4-2.3,3.8-4.7,4.2c-1.2,0.2-2.5,0.1-3.7,0.2c-0.5,0-0.5,0-0.6,0.5c-0.2,1.1-0.4,2.1-0.6,3.2c0,0.2-0.1,0.3-0.4,0.3
			c-1.5,0-3,0-4.4,0c-0.3,0-0.4-0.1-0.3-0.4c0.9-4.9,1.7-9.9,2.6-14.8c0-0.3,0.2-0.4,0.4-0.4C65.4,0.4,66.4,0.4,67.5,0.4L67.5,0.4z
			 M67.7,8c0.6,0,1.2,0,1.7,0c1.3-0.1,2-0.9,1.9-2.2c0-0.8-0.5-1.3-1.3-1.3c-0.5,0-0.9,0-1.4,0c-0.2,0-0.3,0.1-0.3,0.3
			c0,0.3-0.1,0.6-0.2,0.9C68,6.4,67.9,7.2,67.7,8z"/>
		<path class="st0" d="M41.4,7.4c1.4,0,2.8,0,4.2,0c-0.1,0.4-0.1,0.7-0.2,1c-0.1,0.8-0.3,1.7-0.4,2.5c0,0.3-0.2,0.4-0.5,0.4
			c-1.1,0-2.3,0-3.4,0c-0.4,0-0.5,0.1-0.5,0.5c-0.2,1.3-0.4,2.5-0.7,3.8c0,0.2-0.1,0.3-0.3,0.3c-1.5,0-3.1,0-4.6,0
			c-0.1,0-0.1,0-0.2,0c0.1-0.6,0.2-1.2,0.3-1.7c0.7-3.8,1.3-7.6,2-11.4c0.1-0.7,0.2-1.4,0.4-2c0-0.3,0.2-0.4,0.5-0.4
			c3.4,0,6.8,0,10.3,0c0.4,0,0.4,0,0.3,0.4c-0.2,1.1-0.4,2.3-0.6,3.4c0,0.3-0.2,0.4-0.5,0.4c-1.7,0-3.5,0-5.2,0
			c-0.2,0-0.4,0-0.4,0.3c-0.1,0.8-0.3,1.5-0.4,2.3C41.4,7.2,41.4,7.3,41.4,7.4z"/>
		<path class="st0" d="M54.6,7.4c0.2,0,0.4,0,0.5,0c1.1,0,2.2,0,3.3,0c0.4,0,0.4,0,0.3,0.4c-0.2,1.1-0.4,2.2-0.6,3.2
			c0,0.3-0.2,0.3-0.4,0.3c-1.2,0-2.3,0-3.5,0c-0.4,0-0.5,0.1-0.5,0.5c-0.2,1.3-0.4,2.5-0.6,3.7c0,0.3-0.1,0.4-0.4,0.4
			c-1.5,0-2.9,0-4.4,0c-0.3,0-0.4-0.1-0.3-0.4c0.9-4.8,1.7-9.7,2.5-14.5c0.1-0.7,0.1-0.7,0.8-0.7c3.3,0,6.6,0,9.9,0
			c0.5,0,0.5,0,0.4,0.5C61.4,1.9,61.2,3,61,4.1c-0.1,0.3-0.2,0.4-0.5,0.4c-1.7,0-3.4,0-5.1,0c-0.3,0-0.5,0.1-0.5,0.4
			C54.9,5.8,54.7,6.6,54.6,7.4z"/>
		<path class="st0" d="M112.6,4.6c-1.4,0-2.7,0-4,0c0.1-0.6,0.2-1.1,0.3-1.6c0.1-0.7,0.3-1.5,0.4-2.2c0-0.3,0.2-0.4,0.5-0.4
			c4.1,0,8.1,0,12.2,0c0.1,0,0.2,0,0.4,0c0,0.1,0,0.3,0,0.4c-0.2,1.1-0.4,2.3-0.6,3.4c-0.1,0.3-0.2,0.4-0.5,0.4c-1,0-2,0-3,0
			c-0.3,0-0.4,0.1-0.5,0.4c-0.6,3.6-1.2,7.1-1.9,10.6c0,0.2-0.1,0.3-0.3,0.3c-1.5,0-3.1,0-4.6,0c0,0-0.1,0-0.2,0
			C111.3,12.2,111.9,8.4,112.6,4.6z"/>
	</g>
</g>
</svg>
