<?xml version="1.0" encoding="utf-8"?>
<!-- Generator: Adobe Illustrator 23.0.3, SVG Export Plug-In . SVG Version: 6.00 Build 0)  -->
<svg version="1.1" id="Layer_1" xmlns="http://www.w3.org/2000/svg" xmlns:xlink="http://www.w3.org/1999/xlink" x="0px" y="0px"
	 viewBox="0 0 93.5 33.9" style="enable-background:new 0 0 93.5 33.9;" xml:space="preserve">
<style type="text/css">
	.st0{fill:#9B9B9B;}
</style>
<g>
	<path class="st0" d="M8.1,3.6C8,4.6,8,5.5,8,6.3c0,1,0,1.9,0.1,2.8H7.3V8.7c0-1.5-0.6-2-2.4-2H4.1c0,1.8,0,3.5,0,4
		c0,0.6,0.2,1,0.9,1h1.6v0.9c0,0-2,0-3.2,0c-1.1,0-3.2,0-3.2,0v-0.9h1.3c0.8,0,1-0.4,1-1c0-1.1,0-7.8,0-8.7c0-0.6-0.2-0.8-0.9-0.8
		H0.3V0.4c0.3,0,2.7,0,3,0s2,0,4.5,0c0.8,0,2.5,0,3.4-0.1c-0.1,1.1-0.1,3.1-0.1,4.2h-0.8c0-2.7-0.6-3.3-2.7-3.3H5
		C4.5,1.2,4.3,1.5,4.3,2c0,0.4,0,2.2,0,4h0.9c1.6,0,2.3-0.5,2.3-2V3.6C7.5,3.6,8.1,3.6,8.1,3.6z"/>
	<path class="st0" d="M12.7,6.4c0-4.2,2.5-6.4,5.9-6.4c3.9,0,5.9,2.4,5.9,6.4c0,4.2-2.5,6.4-5.9,6.4C14.8,12.8,12.7,10.4,12.7,6.4z
		 M22.7,6.4c0-3.9-1.4-5.6-4-5.6c-2.5,0-4,1.8-4,5.6c0,4.1,1.4,5.6,4,5.6S22.7,10.2,22.7,6.4z"/>
	<path class="st0" d="M37,11.9c0.8,0,1.1-1.1,0.7-3.1l0.7-0.1c0.5,2.1,0.2,4.1-1.8,4.1s-2.5-1-2.6-3.3c-0.1-2.2-0.8-2.6-2.4-2.6
		h-1.5c0,1.8,0,3.5,0,3.8c0.1,0.7,0.3,1,1,1H32v0.8c0,0-2.6,0-2.9,0c-1,0-2.9,0-2.9,0v-0.9h1c0.8,0,1.1-0.2,1.1-0.9
		c0-0.8,0-7.8,0-8.7c0-0.7-0.2-0.9-0.9-0.9h-1.1V0.3c0.3,0,2.6,0,2.9,0c0.8,0,2.2,0,2.9,0c3.1,0,4.6,1.1,4.6,3.2
		c0,1.7-1.3,2.9-2.9,3.1c1.4,0.3,1.8,1.2,2,2.5C36,11.5,36.4,11.9,37,11.9z M30,6.2h1.7c2.1,0,3.1-0.7,3.1-2.6
		c0-1.7-0.7-2.5-2.9-2.5h-1.3c-0.5,0-0.6,0.3-0.6,0.7C30,2.2,30,4.2,30,6.2z"/>
	<path class="st0" d="M47.1,3.5h0.8c0,1-0.1,1.4-0.1,2.7c0,1.3,0,1.9,0.1,2.8h-0.8V8.8c0-1.6-0.5-2.2-2.3-2.2h-1.2
		c0,1.9,0,3.7,0,4.1c0,0.6,0.3,0.9,0.8,0.9h3.2c2,0,2.6-0.9,2.7-3.5h0.9c-0.1,1.2-0.2,3.1-0.1,4.4c-0.8-0.1-2.7-0.1-3.4-0.1h-4.9
		c-0.9,0-3,0-3,0v-0.9h1.3c0.8,0,1-0.3,1-0.9c0-0.9,0-7.9,0-8.7c0-0.6-0.2-0.8-0.9-0.8h-1.4V0.3c0.3,0,2.6,0,3,0s2.5,0,5,0
		c0.8,0,2.5,0,3.3-0.1c-0.1,1.1-0.1,3.1,0,4.2h-0.8c0-2.6-0.5-3.3-2.6-3.3h-3.2c-0.5,0-0.7,0.3-0.7,0.8c0,0.4,0,2.2,0,4h1.4
		c1.5,0,2.1-0.5,2.1-2.1V3.5C47.3,3.5,47.1,3.5,47.1,3.5z"/>
	<path class="st0" d="M59.1,11c1-2.5,2.4-6.4,3-8.4c0.3-0.9,0.2-1.5-0.9-1.5h-0.6V0.3c0,0,1.7,0.1,2.5,0.1s2.1-0.1,2.3-0.1v0.8h-0.5
		c-1,0-1.3,0.4-1.8,1.5c-1,2.4-3,7.5-3.8,9.9H58c-0.8-2.4-2.6-7.8-3.5-10.2C54.2,1.4,53.9,1,52.9,1h-0.4V0.2c0,0,1.7,0.1,2.7,0.1
		s2.6-0.1,2.8-0.1V1h-0.8c-0.8,0-1.1,0.4-0.8,1.4C56.9,4.5,58.2,8.6,59.1,11z"/>
	<path class="st0" d="M74.1,3.5h0.8c0,1-0.1,1.4-0.1,2.7c0,1.3,0,1.9,0.1,2.8h-0.8V8.8c0-1.6-0.5-2.2-2.3-2.2h-1.2
		c0,1.9,0,3.7,0,4.1c0,0.6,0.3,0.9,0.8,0.9h3.2c2,0,2.6-0.9,2.7-3.5h0.9c-0.1,1.2-0.2,3.1-0.1,4.4c-0.8-0.1-2.7-0.1-3.4-0.1h-4.9
		c-0.9,0-3,0-3,0v-0.9h1.3c0.8,0,1-0.3,1-0.9c0-0.9,0-7.9,0-8.7c0-0.6-0.2-0.8-0.9-0.8h-1.4V0.3c0.3,0,2.6,0,3,0s2.5,0,5,0
		c0.8,0,2.5,0,3.3-0.1c-0.1,1.1-0.1,3.1,0,4.2h-0.8c0-2.6-0.5-3.3-2.6-3.3h-3.2c-0.5,0-0.7,0.3-0.7,0.8c0,0.4,0,2.2,0,4h1.4
		c1.5,0,2.1-0.5,2.1-2.1V3.5C74.3,3.5,74.1,3.5,74.1,3.5z"/>
	<path class="st0" d="M90.9,11.9c0.8,0,1.1-1.1,0.7-3.1l0.7-0.1c0.5,2.1,0.2,4.1-1.8,4.1s-2.5-1-2.6-3.3c-0.1-2.2-0.8-2.6-2.4-2.6
		H84c0,1.8,0,3.5,0,3.8c0.1,0.7,0.3,1,1,1h0.9v0.8c0,0-2.6,0-2.9,0c-1,0-2.9,0-2.9,0v-0.9h1c0.8,0,1.1-0.2,1.1-0.9
		c0-0.8,0-7.8,0-8.7c0-0.7-0.2-0.9-0.9-0.9h-1.2V0.3c0.3,0,2.6,0,2.9,0c0.8,0,2.2,0,2.9,0c3.1,0,4.6,1.1,4.6,3.2
		c0,1.7-1.3,2.9-2.9,3.1c1.4,0.3,1.8,1.2,2,2.5C89.9,11.5,90.3,11.9,90.9,11.9z M83.9,6.2h1.7c2.1,0,3.1-0.7,3.1-2.6
		c0-1.7-0.7-2.5-2.9-2.5h-1.3c-0.5,0-0.6,0.3-0.6,0.7C83.9,2.2,83.9,4.2,83.9,6.2z"/>
	<path class="st0" d="M10.1,27.7v3.4c0,0.9,0.2,1.2,1.4,1.2h1.7v1.2c0,0-2.7,0-4.3,0s-4.3,0-4.3,0v-1.2h1.7c1.2,0,1.4-0.3,1.4-1.2
		v-3.3c-1.2-2.3-3.2-6.2-4.3-8.1c-0.6-1.1-1.3-1.6-2.8-1.6H0V17c0,0,2.7,0.1,4.2,0.1S8.4,17,8.4,17v1.1H7.2c-1.5,0-1.7,0.7-1.2,1.6
		c0.7,1.6,2.5,5,3.6,6.7c1-1.9,2.7-5,3.4-6.7c0.4-0.9,0.5-1.6-1.1-1.6h-1.1V17c0,0,2.4,0.1,3.7,0.1s3.7-0.1,3.7-0.1v1.1h-0.8
		c-1.8,0-2.4,0.4-3.2,1.7C13.3,21.7,11.3,25.4,10.1,27.7z"/>
	<path class="st0" d="M18.5,25.2c0-5.6,3.3-8.7,8-8.7c5.3,0,8.1,3.3,8.1,8.7c0,5.7-3.4,8.7-8.1,8.7C21.3,33.9,18.5,30.8,18.5,25.2z
		 M32,25.2c0-5.3-1.8-7.6-5.5-7.6c-3.4,0-5.5,2.4-5.5,7.7c0,5.5,1.9,7.6,5.5,7.6C30.1,32.9,32,30.5,32,25.2z"/>
	<path class="st0" d="M39.1,19.5c0-1-0.3-1.3-1.2-1.3h-1.3v-1.1c0,0,2.4,0.1,3.8,0.1s3.4-0.1,3.8-0.1v1.1h-1.3c-1,0-1.4,0.3-1.4,1.3
		v7.4c0,4.2,1.7,5.7,4.7,5.7s4.7-1.3,4.7-5.7c0-1.4,0-5.2,0-7.4c0-1-0.5-1.4-1.4-1.4h-1.2V17c0,0,2.2,0.1,3.4,0.1s3-0.1,3.4-0.1v1.1
		h-1.2c-0.9,0-1.3,0.4-1.3,1.4c0,2.2,0,6,0,7.2c0,4.7-2,7.2-6.5,7.2c-4.6,0-6.9-2.1-6.9-7.3C39.1,26.7,39.1,20.7,39.1,19.5z"/>
	<path class="st0" d="M70.6,29.7c0-2.7,0-9.1,0-10.3c0-1-0.5-1.3-1.3-1.3h-1.6V17c0.4,0,2.3,0.1,3.6,0.1s3.5-0.1,3.6-0.1v1.1h-1.6
		c-0.9,0-1.3,0.3-1.3,1.3c0,1.3,0,12.2,0,14.1c-0.3,0-1.3,0-1.6,0c-2.1-3.2-6.5-9.6-9.4-13.8c0,3.6,0,10.3,0,11.5
		c0,0.8,0.3,1.1,1.4,1.1h1.5v1.2c0,0-2.3,0-3.6,0s-3.6,0-3.6,0v-1.2h1.5c1.1,0,1.4-0.3,1.4-1.1c0-1.5,0.1-10.7,0-11.9
		c0-0.9-0.4-1.2-1.3-1.2h-1.7V17c1.2,0,3.9,0,5.1,0C63.8,20,68.1,26.3,70.6,29.7z"/>
	<path class="st0" d="M88.4,17.6c1.1,0.6,1.4,0.5,1.6-0.8h1.1c-0.2,1.4-0.4,4-0.3,5.9c-0.3,0-0.9,0-1.2,0c-0.3-2.8-1.5-5.1-5.3-5.1
		c-3.6,0-5.5,2.2-5.5,7.6c0,5.9,2.2,7.7,5.3,7.7c2.8,0,4.9-1.6,4.9-4.6c0-1.5-0.2-2.1-1.5-2.1h-1.2v-1.1c0,0,2.3,0.1,3.6,0.1
		s3.6-0.1,3.6-0.1v1.1h-1c-0.7,0-1,0.3-1,1.4c0,1.1,0,4.4,0.1,6.2c-0.3,0-1,0-1.3,0c-0.1-0.4-0.3-1.8-0.6-3
		c-0.9,1.7-2.9,3.1-5.5,3.1c-4.8,0-8-2.5-8-8.7s3.5-8.7,8-8.7C86,16.5,87.2,16.9,88.4,17.6z"/>
</g>
</svg>
