<?xml version="1.0" encoding="utf-8"?>
<!-- Generator: Adobe Illustrator 22.1.0, SVG Export Plug-In . SVG Version: 6.00 Build 0)  -->
<svg version="1.1" id="Layer_1" xmlns="http://www.w3.org/2000/svg" xmlns:xlink="http://www.w3.org/1999/xlink" x="0px" y="0px"
	 viewBox="0 0 356 66" style="enable-background:new 0 0 356 66;" xml:space="preserve">
<style type="text/css">
	.st0{opacity:0.4;}
	.st1{stroke:#000000;stroke-width:1.3611;stroke-miterlimit:10;}
	.st2{fill:#FFFFFF;}
</style>
<g id="pVAuCB_2_" class="st0">
	<g>
		<path d="M282.1,47c1.9,0,3.7,0,5.6,0c0.7,0,1.5,0,2.2,0c0,5.3,0,10.6,0,15.9c-2.6,0-5.2,0-7.8,0C282.1,57.6,282.1,52.3,282.1,47z"
			/>
		<path d="M321.1,63.1c-0.2,0-0.3-0.1-0.5-0.1c-0.9-0.3-1.5-0.8-1.8-1.7c-0.4-1.1-0.4-2.2-0.1-3.3c0.5-1.3,1.7-2.1,3-2
			c0.9,0.1,1.7,0.4,2.2,1.2c0.2,0.3,0.3,0.6,0.4,1c-0.3,0-0.6,0-0.8,0c-0.1,0-0.1-0.1-0.1-0.1c-0.2-1-1.2-1.3-1.9-1.3
			c-0.8,0-1.6,0.5-1.9,1.4c-0.3,0.9-0.3,1.9,0,2.8c0.3,0.8,1,1.2,1.9,1.2c0.8,0,1.4-0.5,1.7-1.3c0.1-0.2,0.1-0.4,0.2-0.5
			c0.3,0,0.6,0,0.8,0c0,1.3-1,2.4-2.3,2.6c-0.1,0-0.1,0-0.2,0.1C321.6,63.1,321.3,63.1,321.1,63.1z"/>
		<path d="M305.8,62.9c0-5.3,0-10.6,0-15.9c2.6,0,5.2,0,7.8,0c0,5.3,0,10.6,0,15.9C311,62.9,308.4,62.9,305.8,62.9z"/>
		<path d="M294.4,59c0.1-0.3,0.2-0.6,0.3-0.9c0.1-0.3,0-0.4-0.2-0.6c-0.8-0.7-1.6-1.4-2.4-2.1c-0.1-0.1-0.1-0.1-0.3-0.2
			c0.1-0.1,0.2-0.1,0.4-0.2c0.2-0.1,0.3-0.3,0.2-0.5c-0.2-0.6-0.3-1.1-0.5-1.7c0.5,0.1,0.9,0.2,1.4,0.3c0.2,0.1,0.4,0,0.5-0.3
			c0.1-0.2,0.2-0.5,0.3-0.8c0.4,0.4,0.7,0.8,1.1,1.2c0.1,0.1,0.2,0.3,0.4,0.4c0.1,0.1,0.3,0.1,0.4,0.1c0.1-0.1,0.2-0.3,0.1-0.4
			c-0.2-1.1-0.4-2.1-0.7-3.1c0-0.1,0-0.1,0-0.2c0.3,0.2,0.6,0.4,0.9,0.5c0.4,0.2,0.5,0.2,0.7-0.2c0.3-0.6,0.6-1.2,0.9-1.7
			c0-0.1,0.1-0.1,0.1-0.2c0.2,0.4,0.4,0.8,0.6,1.2c0.1,0.3,0.3,0.6,0.4,0.9c0.1,0.3,0.2,0.3,0.5,0.1c0.3-0.2,0.6-0.4,1-0.6
			c-0.2,0.8-0.3,1.6-0.5,2.4c-0.1,0.3-0.1,0.6-0.2,0.8c0,0.2-0.1,0.4,0.1,0.5c0.2,0.1,0.3,0,0.4-0.2c0.4-0.4,0.7-0.8,1.1-1.2
			c0.1-0.1,0.2-0.2,0.3-0.3c0.1,0.3,0.2,0.5,0.3,0.8c0.1,0.2,0.2,0.3,0.4,0.2c0.4-0.1,0.9-0.2,1.3-0.3c-0.1,0.5-0.3,1-0.4,1.4
			c0,0.1,0,0.2-0.1,0.2c-0.1,0.3,0,0.5,0.3,0.6c0.1,0,0.2,0.1,0.3,0.2c-0.5,0.5-1.1,0.9-1.6,1.4c-0.4,0.3-0.8,0.7-1.2,1
			c-0.2,0.2-0.2,0.3-0.2,0.6c0.1,0.3,0.2,0.6,0.3,0.9c-0.4-0.1-0.8-0.2-1.1-0.2c-0.5-0.1-1-0.2-1.6-0.3c-0.4-0.1-0.5,0.1-0.5,0.4
			c0,0.9,0.1,1.8,0.1,2.8c-0.2,0-0.4,0-0.6,0c0-0.3,0-0.5,0-0.7c0-0.7,0.1-1.4,0.1-2.1c0-0.4-0.2-0.5-0.5-0.4
			c-0.8,0.2-1.6,0.3-2.4,0.5C294.7,58.9,294.6,59,294.4,59z"/>
		<path d="M324.1,47c0,2.2,0,4.4,0,6.6c-0.3,0-0.6,0-0.9,0c0-1,0-2,0-3.1c-1.2,0-2.3,0-3.5,0c0,1,0,2,0,3.1c-0.3,0-0.6,0-0.9,0
			c0-2.2,0-4.4,0-6.6c0.3,0,0.6,0,0.9,0c0,0.9,0,1.8,0,2.7c1.2,0,2.3,0,3.5,0c0-0.9,0-1.8,0-2.7C323.5,47,323.8,47,324.1,47z"/>
		<path d="M344.8,56.3c0,2.2,0,4.4,0,6.6c-0.3,0-0.5,0-0.8,0c0-0.2,0-0.4,0-0.5c0,0-0.1,0-0.1,0c-0.6,1-2.4,0.9-3-0.2
			c-0.5-1-0.6-2-0.2-3c0.5-1.4,2.4-1.7,3.3-0.4c0-0.5,0-0.9,0-1.3c0-0.4,0-0.8,0-1.2C344.3,56.3,344.6,56.3,344.8,56.3z M341.4,60.4
			c0.1,0.4,0.1,0.7,0.2,1.1c0.2,0.6,0.6,0.9,1.1,0.9c0.6,0,1-0.3,1.2-0.9c0.2-0.7,0.2-1.4-0.1-2.1c-0.2-0.5-0.6-0.7-1.1-0.6
			c-0.5,0-0.9,0.2-1.1,0.7C341.5,59.7,341.4,60.1,341.4,60.4z"/>
		<path d="M350.3,62.4C350.3,62.4,350.3,62.4,350.3,62.4c0,0.2,0.2,0.5-0.2,0.6c-0.5,0.1-0.9,0-1.1-0.4c0-0.1-0.1-0.2-0.1-0.3
			c-0.1,0.1-0.1,0.1-0.2,0.2c-0.5,0.5-1.2,0.6-1.9,0.5c-0.7-0.1-1.2-0.6-1.2-1.4c0-0.8,0.4-1.4,1.3-1.5c0.5-0.1,0.9-0.1,1.4-0.2
			c0.5-0.1,0.6-0.1,0.6-0.5c0-0.4-0.1-0.7-0.5-0.8c-0.4-0.1-0.7-0.1-1.1,0c-0.3,0-0.5,0.3-0.6,0.6c0,0.1,0,0.2-0.1,0.3
			c-0.2,0-0.5,0-0.7,0c-0.1-0.4,0.1-1,0.5-1.3c0.7-0.5,2-0.5,2.7,0c0.4,0.2,0.5,0.6,0.5,1c0,0.8,0,1.6,0,2.5
			C349.8,62.3,349.8,62.3,350.3,62.4z M348.9,60.6c-0.4,0.1-0.8,0.1-1.2,0.2c-0.2,0-0.4,0.1-0.6,0.1c-0.4,0.1-0.6,0.4-0.5,0.8
			c0,0.4,0.2,0.7,0.7,0.7c0.5,0.1,0.9-0.1,1.2-0.3c0.3-0.2,0.4-0.4,0.5-0.8C348.9,61.1,348.9,60.8,348.9,60.6z"/>
		<path d="M334.8,53.1C334.8,53.1,334.8,53.1,334.8,53.1c0,0.2,0.2,0.5-0.2,0.6c-0.5,0.1-0.9,0-1.1-0.4c0-0.1-0.1-0.2-0.1-0.3
			c-0.1,0.1-0.2,0.1-0.3,0.2c-0.6,0.5-1.3,0.6-2,0.4c-0.6-0.1-1-0.6-1-1.2c-0.1-0.7,0.2-1.3,0.8-1.5c0.4-0.2,0.9-0.2,1.3-0.3
			c0.2,0,0.3,0,0.5-0.1c0.2,0,0.5,0,0.5-0.3c0.1-0.3,0.1-0.6-0.2-0.8c-0.6-0.6-1.8-0.3-2,0.5c0,0,0,0.1,0,0.1c-0.2,0-0.5,0-0.7,0
			c-0.1-0.6,0.2-1.1,0.7-1.3c0.8-0.4,1.6-0.4,2.4,0c0.5,0.2,0.7,0.6,0.7,1.1c0,0.9,0,1.7,0,2.6C334.3,53.1,334.3,53.1,334.8,53.1z
			 M333.5,51.3c-0.4,0.1-0.7,0.1-1,0.2c-0.3,0.1-0.5,0.1-0.8,0.2c-0.4,0.1-0.6,0.4-0.5,0.8c0,0.4,0.3,0.7,0.7,0.7
			c0.5,0.1,1-0.1,1.4-0.4c0.2-0.2,0.3-0.4,0.3-0.6C333.5,51.8,333.5,51.5,333.5,51.3z"/>
		<path d="M339.9,62.4C340,62.4,340,62.4,339.9,62.4c0,0.2,0.2,0.5-0.1,0.6c-0.4,0.1-0.9,0-1-0.3c0-0.1-0.1-0.2-0.1-0.3
			c-0.1,0.1-0.1,0.1-0.2,0.2c-0.6,0.5-1.2,0.7-2,0.5c-0.6-0.1-1-0.6-1.1-1.2c-0.1-0.8,0.2-1.3,0.9-1.5c0.5-0.2,1.1-0.2,1.6-0.3
			c0.1,0,0.1,0,0.2,0c0.3,0,0.5-0.1,0.5-0.4c0.1-0.3,0-0.7-0.3-0.8c-0.5-0.2-0.9-0.3-1.4,0c-0.3,0.1-0.4,0.5-0.5,0.8
			c-0.2,0-0.5,0-0.7,0c-0.1-0.6,0.3-1.2,0.9-1.4c0.7-0.3,1.4-0.3,2.1,0c0.6,0.2,0.8,0.7,0.8,1.3c0,0.8,0,1.6,0,2.5
			C339.5,62.4,339.5,62.4,339.9,62.4z M338.6,60.6c-0.5,0.1-0.9,0.2-1.4,0.2c-0.2,0-0.4,0.1-0.6,0.2c-0.3,0.1-0.4,0.4-0.4,0.7
			c0,0.4,0.2,0.6,0.6,0.7C338,62.6,338.8,61.8,338.6,60.6z"/>
		<path d="M329.7,62.4c0.1,0.6,0,0.7-0.6,0.7c-0.4,0-0.6-0.2-0.7-0.7c-0.1,0.1-0.2,0.1-0.2,0.2c-0.6,0.5-1.3,0.6-2,0.5
			c-0.6-0.1-0.9-0.6-1-1.2c-0.1-0.7,0.2-1.3,0.8-1.5c0.4-0.2,0.9-0.2,1.3-0.3c0.2,0,0.4,0,0.6-0.1c0.2,0,0.4,0,0.5-0.3
			c0.1-0.3,0.1-0.6-0.2-0.8c-0.6-0.6-1.8-0.3-2,0.5c0,0.1-0.1,0.1-0.2,0.2c-0.2,0-0.4,0-0.6,0c-0.1-0.6,0.2-1.2,0.8-1.4
			c0.8-0.3,1.5-0.3,2.3,0c0.5,0.2,0.7,0.6,0.7,1.1c0,0.8,0,1.7,0,2.5C329.1,62.4,329.1,62.4,329.7,62.4z M328.3,60.5
			c-0.2,0-0.4,0.1-0.5,0.1c-0.2,0-0.4,0.1-0.6,0.1c-0.2,0-0.5,0.1-0.7,0.2c-0.4,0.1-0.5,0.4-0.5,0.8c0,0.4,0.2,0.6,0.6,0.7
			C327.7,62.6,328.5,61.7,328.3,60.5z"/>
		<path d="M329.5,52.1c0,0.7-0.6,1.4-1.3,1.6c-0.4,0.1-0.9,0.1-1.3,0.1c-0.6-0.1-1.1-0.5-1.4-1.1c-0.5-1.1-0.5-2.3,0.3-3.3
			c1-1.3,3-0.9,3.6,0.6c0.2,0.5,0.2,1,0.3,1.5c-1.2,0-2.4,0-3.6,0c-0.1,0.6,0.2,1.3,0.8,1.5c0.7,0.2,1.5,0,1.7-0.6
			c0.1-0.2,0.2-0.3,0.4-0.3C329.1,52.2,329.3,52.1,329.5,52.1z M328.7,50.8c0-0.9-0.5-1.4-1.3-1.4c-0.7,0-1.4,0.7-1.3,1.4
			C326.9,50.8,327.8,50.8,328.7,50.8z"/>
		<path d="M344.2,53.7c-0.3,0-0.5,0-0.8,0c0-0.1,0-0.2,0-0.3c0-0.9,0-1.9,0-2.8c0-0.2,0-0.4-0.1-0.6c-0.1-0.3-0.3-0.4-0.6-0.5
			c-0.9-0.2-1.6,0.4-1.6,1.3c0,0.8,0,1.7,0,2.5c0,0.1,0,0.2,0,0.3c-0.3,0-0.5,0-0.8,0c0-2.2,0-4.4,0-6.6c0.3,0,0.5,0,0.8,0
			c0,0.8,0,1.6,0,2.3c0,0,0.1,0,0.1,0.1c0-0.1,0.1-0.2,0.2-0.2c0.6-0.6,1.5-0.7,2.2-0.3c0.4,0.2,0.6,0.6,0.7,1.1
			C344.3,51.2,344.2,52.4,344.2,53.7z"/>
		<path d="M331.3,62.9c-0.3,0-0.5,0-0.8,0c0-1.6,0-3.2,0-4.8c0.2,0,0.5,0,0.7,0c0,0.2,0,0.4,0,0.6c0.1-0.1,0.2-0.2,0.2-0.2
			c0.7-0.8,2-0.6,2.5-0.2c0.3,0.3,0.5,0.6,0.5,1c0,1.2,0,2.4,0,3.6c-0.3,0-0.5,0-0.8,0c0-0.1,0-0.2,0-0.3c0-0.9,0-1.7,0-2.6
			c0-0.1,0-0.2,0-0.3c0-0.6-0.2-0.9-0.6-1c-0.5-0.2-1.1,0-1.3,0.4c-0.2,0.3-0.3,0.6-0.3,0.9c0,0.8,0,1.6,0,2.5
			C331.3,62.7,331.3,62.8,331.3,62.9z"/>
		<path d="M339.5,48.8c0,0.2,0,0.5,0,0.7c-0.3,0-0.5,0-0.8,0c0,0.4,0,0.8,0,1.2c0,0.6,0,1.2,0,1.8c0,0.4,0.1,0.5,0.5,0.5
			c0.1,0,0.1,0,0.2,0c0,0.2,0,0.4,0,0.6c-0.3,0-0.5,0.1-0.8,0c-0.5,0-0.8-0.4-0.8-0.9c0-1,0-2,0-3c0-0.1,0-0.2,0-0.3
			c-0.2,0-0.4,0-0.6,0c0-0.2,0-0.5,0-0.7c0.2,0,0.4,0,0.6,0c0-0.5,0-0.9,0-1.3c0.3,0,0.5,0,0.8,0c0,0.4,0,0.9,0,1.3
			C339,48.8,339.2,48.8,339.5,48.8z"/>
		<path d="M336.5,53.7c-0.3,0-0.5,0-0.8,0c0-2.2,0-4.4,0-6.6c0.3,0,0.5,0,0.8,0C336.5,49.2,336.5,51.4,336.5,53.7z"/>
	</g>
</g>
<g class="st0">
	<path d="M5.4,45.4c0,0.6,0,1.2,0,1.7c0,0.6,0,1.2,0,1.8H5v-0.2c0-0.9-0.4-1.3-1.5-1.3H2.9c0,1.1,0,2.2,0,2.5c0,0.4,0.1,0.6,0.6,0.6
		h1V51c0,0-1.3,0-2,0c-0.7,0-2,0-2,0v-0.6h0.8c0.5,0,0.6-0.2,0.6-0.6c0-0.7,0-4.9,0-5.5c0-0.4-0.1-0.5-0.5-0.5H0.5v-0.5
		c0.2,0,1.7,0,1.9,0c0.2,0,1.2,0,2.8,0c0.5,0,1.6,0,2.1-0.1c-0.1,0.7,0,2,0,2.7H6.8c0-1.7-0.4-2.1-1.7-2.1H3.4
		c-0.3,0-0.5,0.2-0.5,0.5c0,0.3,0,1.4,0,2.5h0.6c1,0,1.4-0.3,1.5-1.2v-0.2H5.4z"/>
	<path d="M8.3,47.1c0-2.6,1.5-4,3.7-4c2.5,0,3.7,1.5,3.7,4c0,2.6-1.6,4-3.7,4C9.6,51.2,8.3,49.7,8.3,47.1z M14.6,47.1
		c0-2.4-0.9-3.5-2.5-3.5c-1.6,0-2.5,1.1-2.5,3.5c0,2.6,0.9,3.5,2.5,3.5C13.7,50.7,14.6,49.6,14.6,47.1z"/>
	<path d="M23.5,50.6c0.5,0,0.7-0.7,0.4-1.9l0.4,0c0.3,1.3,0.1,2.5-1.1,2.5c-1.2,0-1.6-0.7-1.6-2.1c-0.1-1.4-0.5-1.7-1.5-1.7h-0.9
		c0,1.1,0,2.2,0,2.4c0,0.4,0.2,0.6,0.6,0.6h0.6V51c0,0-1.6,0-1.8,0c-0.7,0-1.8,0-1.8,0v-0.6h0.6c0.5,0,0.7-0.2,0.7-0.6
		c0-0.5,0-4.9,0-5.4c0-0.4-0.1-0.6-0.6-0.6h-0.7v-0.5c0.2,0,1.6,0,1.8,0c0.5,0,1.4,0,1.8,0c1.9,0,2.9,0.7,2.9,2c0,1.1-0.8,1.8-1.8,2
		c0.9,0.2,1.1,0.8,1.2,1.6C22.9,50.4,23.2,50.6,23.5,50.6z M19.2,47h1.1c1.3,0,2-0.4,2-1.7c0-1.1-0.4-1.6-1.8-1.6h-0.8
		c-0.3,0-0.4,0.2-0.4,0.4C19.2,44.5,19.2,45.8,19.2,47z"/>
	<path d="M29.9,45.4h0.5c0,0.6,0,0.9,0,1.7c0,0.8,0,1.2,0,1.8h-0.5v-0.2c0-1-0.3-1.4-1.4-1.4h-0.8c0,1.2,0,2.3,0,2.6
		c0,0.4,0.2,0.5,0.5,0.5h2c1.3,0,1.7-0.6,1.7-2.2h0.5c-0.1,0.7-0.1,2-0.1,2.8c-0.5,0-1.7,0-2.2,0h-3.1c-0.6,0-1.9,0-1.9,0v-0.6h0.8
		c0.5,0,0.6-0.2,0.6-0.6c0-0.5,0-4.9,0-5.5c0-0.4-0.1-0.5-0.5-0.5h-0.9v-0.5c0.2,0,1.7,0,1.9,0c0.3,0,1.6,0,3.1,0
		c0.5,0,1.5,0,2.1-0.1c0,0.7,0,1.9,0,2.7h-0.5c0-1.6-0.3-2-1.6-2h-2c-0.3,0-0.4,0.2-0.5,0.5c0,0.3,0,1.4,0,2.5h0.9
		c0.9,0,1.3-0.3,1.3-1.3V45.4z"/>
	<path d="M37.4,50c0.6-1.5,1.5-4,1.9-5.3c0.2-0.6,0.1-0.9-0.5-0.9h-0.4v-0.5c0,0,1.1,0,1.6,0c0.5,0,1.3,0,1.4,0v0.5h-0.3
		c-0.6,0-0.8,0.3-1.1,0.9c-0.6,1.5-1.9,4.7-2.4,6.2h-0.8c-0.5-1.5-1.6-4.9-2.2-6.4c-0.2-0.6-0.4-0.8-1-0.8h-0.3v-0.5
		c0,0,1.1,0,1.7,0c0.6,0,1.6,0,1.7,0v0.5h-0.5c-0.5,0-0.7,0.2-0.5,0.9C36,46,36.9,48.6,37.4,50z"/>
	<path d="M46.8,45.4h0.5c0,0.6,0,0.9,0,1.7c0,0.8,0,1.2,0,1.8h-0.5v-0.2c0-1-0.3-1.4-1.4-1.4h-0.8c0,1.2,0,2.3,0,2.6
		c0,0.4,0.2,0.5,0.5,0.5h2c1.3,0,1.7-0.6,1.7-2.2h0.5c-0.1,0.7-0.1,2-0.1,2.8c-0.5,0-1.7,0-2.2,0h-3.1c-0.6,0-1.9,0-1.9,0v-0.6H43
		c0.5,0,0.6-0.2,0.6-0.6c0-0.5,0-4.9,0-5.5c0-0.4-0.1-0.5-0.5-0.5h-0.9v-0.5c0.2,0,1.7,0,1.9,0c0.3,0,1.6,0,3.1,0
		c0.5,0,1.5,0,2.1-0.1c0,0.7,0,1.9,0,2.7h-0.5c0-1.6-0.3-2-1.6-2h-2c-0.3,0-0.4,0.2-0.5,0.5c0,0.3,0,1.4,0,2.5h0.9
		c0.9,0,1.3-0.3,1.3-1.3V45.4z"/>
	<path d="M57.4,50.6c0.5,0,0.7-0.7,0.4-1.9l0.4,0c0.3,1.3,0.1,2.5-1.1,2.5c-1.2,0-1.6-0.7-1.6-2.1c-0.1-1.4-0.5-1.7-1.5-1.7H53
		c0,1.1,0,2.2,0,2.4c0,0.4,0.2,0.6,0.6,0.6h0.6V51c0,0-1.6,0-1.8,0c-0.7,0-1.8,0-1.8,0v-0.6h0.6c0.5,0,0.7-0.2,0.7-0.6
		c0-0.5,0-4.9,0-5.4c0-0.4-0.1-0.6-0.6-0.6h-0.7v-0.5c0.2,0,1.6,0,1.8,0c0.5,0,1.4,0,1.8,0c1.9,0,2.9,0.7,2.9,2c0,1.1-0.8,1.8-1.8,2
		c0.9,0.2,1.1,0.8,1.2,1.6C56.8,50.4,57,50.6,57.4,50.6z M53,47h1.1c1.3,0,2-0.4,2-1.7c0-1.1-0.4-1.6-1.8-1.6h-0.8
		c-0.3,0-0.4,0.2-0.4,0.4C53,44.5,53,45.8,53,47z"/>
	<path d="M6.7,60.5v2.1c0,0.6,0.1,0.8,0.9,0.8h1.1v0.7c0,0-1.7,0-2.7,0s-2.7,0-2.7,0v-0.7h1.1c0.8,0,0.9-0.2,0.9-0.8v-2.1
		c-0.7-1.5-2-3.9-2.7-5.1c-0.4-0.7-0.8-1-1.8-1H0.5v-0.7c0,0,1.7,0,2.6,0s2.6,0,2.6,0v0.7H4.9c-0.9,0-1.1,0.5-0.8,1
		c0.5,1,1.6,3.1,2.2,4.2c0.6-1.2,1.7-3.2,2.2-4.2c0.3-0.6,0.3-1-0.7-1H7.2v-0.7c0,0,1.5,0,2.3,0c0.8,0,2.3,0,2.3,0v0.7h-0.5
		c-1.1,0-1.5,0.2-2,1.1C8.7,56.7,7.4,59.1,6.7,60.5z"/>
	<path d="M11.9,59c0-3.5,2.1-5.5,5.1-5.5c3.4,0,5.1,2.1,5.1,5.5c0,3.6-2.2,5.5-5.1,5.5C13.7,64.4,11.9,62.4,11.9,59z M20.4,59
		c0-3.3-1.2-4.8-3.4-4.8c-2.1,0-3.4,1.5-3.4,4.8c0,3.5,1.2,4.8,3.4,4.8C19.2,63.8,20.4,62.3,20.4,59z"/>
	<path d="M24.9,55.3c0-0.6-0.2-0.8-0.8-0.8h-0.8v-0.7c0,0,1.5,0,2.4,0c0.9,0,2.1,0,2.4,0v0.7h-0.8c-0.6,0-0.9,0.2-0.9,0.8V60
		c0,2.7,1.1,3.6,3,3.6c1.9,0,3-0.8,3-3.6c0-0.9,0-3.3,0-4.7c0-0.6-0.3-0.9-0.9-0.9h-0.8v-0.7c0,0,1.4,0,2.1,0s1.9,0,2.1,0v0.7h-0.8
		c-0.6,0-0.8,0.3-0.8,0.9c0,1.4,0,3.7,0,4.5c0,3-1.2,4.5-4.1,4.5c-2.9,0-4.3-1.3-4.3-4.6C24.9,59.9,24.9,56.2,24.9,55.3z"/>
	<path d="M44.6,61.8c0-1.7,0-5.7,0-6.5c0-0.6-0.3-0.8-0.8-0.8h-1v-0.7c0.2,0,1.5,0,2.3,0c0.8,0,2.2,0,2.3,0v0.7h-1
		c-0.6,0-0.8,0.2-0.8,0.8c0,0.8,0,7.6,0,8.9c-0.2,0-0.8,0-1,0c-1.3-2-4.1-6-5.9-8.7c0,2.3,0,6.5,0,7.2c0,0.5,0.2,0.7,0.9,0.7h0.9
		v0.8c0,0-1.5,0-2.3,0c-0.8,0-2.3,0-2.3,0v-0.8h0.9c0.7,0,0.9-0.2,0.9-0.7c0-0.9,0-6.7,0-7.5c0-0.6-0.3-0.8-0.8-0.8h-1v-0.7
		c0.8,0,2.5,0,3.2,0C40.4,55.7,43.1,59.6,44.6,61.8z"/>
	<path d="M55.8,54.2c0.7,0.4,0.9,0.3,1-0.5h0.7c-0.1,0.9-0.3,2.5-0.2,3.7c-0.2,0-0.6,0-0.8,0c-0.2-1.7-0.9-3.2-3.3-3.2
		c-2.3,0-3.4,1.4-3.4,4.8c0,3.7,1.4,4.8,3.3,4.8c1.7,0,3.1-1,3.1-2.9c0-1-0.2-1.3-0.9-1.3h-0.8v-0.7c0,0,1.4,0,2.2,0
		c0.8,0,2.2,0,2.2,0v0.7h-0.6c-0.5,0-0.6,0.2-0.6,0.9s0,2.8,0.1,3.9c-0.2,0-0.6,0-0.8,0c-0.1-0.3-0.2-1.1-0.4-1.9
		c-0.5,1.1-1.8,2-3.5,2c-3,0-5-1.6-5-5.5c0-3.9,2.2-5.5,5.1-5.5C54.3,53.5,55.1,53.7,55.8,54.2z"/>
</g>
<g id="GA3Fnt_2_" class="st0">
	<g>
		<path d="M88.7,61.5c-1.7,0-3.1-0.3-4.4-1c-0.6-0.3-1.2-0.7-1.7-1.2c-0.9-0.9-1.6-1.9-2.1-3.1c-0.2-0.5-0.3-1-0.4-1.6
			c-0.1-0.5-0.1-1.1-0.1-1.6c0.1-1.6,0.5-3,1.4-4.3c0.9-1.3,2-2.2,3.4-2.8c0.7-0.3,1.4-0.5,2.2-0.7c0.6-0.1,1.1-0.1,1.7-0.1
			c1.9,0,3.6,0.6,5.1,1.8c1.2,0.9,2,2,2.5,3.4c0.2,0.6,0.4,1.3,0.5,1.9c0.1,0.5,0.1,1.1,0.1,1.7c-0.1,1.2-0.4,2.3-1,3.4
			c-0.5,0.9-1.1,1.7-1.9,2.3c-1.1,0.9-2.3,1.5-3.7,1.8C89.8,61.4,89.2,61.5,88.7,61.5z M88.5,48.3c-0.2,0-0.4,0-0.6,0
			c-0.1,0-0.2,0-0.3,0c-1.4,0.3-2.5,1.1-3.2,2.4c-0.6,1.1-0.7,2.3-0.5,3.5c0.2,1.1,0.7,2.1,1.6,2.9c0.8,0.7,1.7,1.1,2.8,1.1
			c0.5,0,1,0,1.5-0.1c1-0.3,1.9-0.8,2.5-1.7c0.7-0.9,1-2,1-3.1c0-0.6-0.1-1.2-0.3-1.8c-0.3-0.9-0.8-1.6-1.6-2.2
			C90.6,48.6,89.6,48.3,88.5,48.3z"/>
		<path d="M102.2,58.1c0.1,0,0.1,0,0.2,0c2.8,0,5.6,0,8.4,0c0.1,0,0.1,0,0.1,0.1c0,0.9,0,1.9,0,2.8c0,0,0,0.1,0,0.1
			c-4.4,0-8.8,0-13.2,0c0,0,0-0.1,0-0.1c0-0.8,0-1.6,0-2.4c0-0.1,0-0.1,0.1-0.2c0.3-0.4,0.7-0.8,1-1.2c0.4-0.5,0.8-0.9,1.2-1.4
			c0.4-0.5,0.8-0.9,1.2-1.4c0.3-0.4,0.7-0.8,1-1.2c0.3-0.3,0.6-0.7,0.9-1c0.3-0.4,0.7-0.8,1-1.2c0.4-0.5,0.8-0.9,1.2-1.4
			c0.4-0.4,0.7-0.8,1.1-1.3c-0.1,0-0.1,0-0.2,0c-2.7,0-5.4,0-8.1,0c0,0-0.1,0-0.1,0c-0.1,0-0.1,0-0.1-0.1c0-1,0-1.9,0-2.9
			c0,0,0-0.1,0-0.1c0,0,0.1,0,0.1,0c4.2,0,8.4,0,12.7,0c0.2,0,0.2,0,0.2,0.2c0,0.8,0,1.6,0,2.4c0,0.1,0,0.1-0.1,0.2
			c-0.4,0.5-0.9,1-1.3,1.6c-0.4,0.5-0.9,1-1.3,1.5c-0.5,0.6-1,1.1-1.4,1.7c-0.5,0.6-1,1.1-1.5,1.7c-0.5,0.6-1,1.1-1.4,1.7
			c-0.4,0.5-0.8,0.9-1.2,1.4C102.5,57.8,102.4,57.9,102.2,58.1z"/>
		<path d="M99.2,62.7c0,0.1,0,0.1,0,0.1c0,0.6,0,1.2,0,1.8c0,0.1,0,0.1-0.1,0.1c-0.1,0-0.1,0-0.2,0c-7.4,0-14.8,0-22.2,0
			c0,0-0.1,0-0.1,0c0-7.6,0-15.2,0-22.9c1.8,0,3.5,0,5.3,0c0,0.7,0,1.3,0,2c-1.1,0-2.2,0-3.3,0c0,6.3,0,12.6,0,18.9
			C85.5,62.7,92.3,62.7,99.2,62.7z"/>
		<path d="M112.8,43.8c-6,0-11.9,0-17.9,0c0-0.7,0-1.3,0-2c6.6,0,13.2,0,19.9,0c0,7.6,0,15.2,0,22.9c-1.7,0-3.4,0-5,0
			c0,0,0-0.1,0-0.1c0-0.6,0-1.2,0-1.7c0-0.1,0-0.1,0.1-0.1c0.9,0,1.8,0,2.8,0c0,0,0.1,0,0.1,0C112.8,56.4,112.8,50.1,112.8,43.8z"/>
		<path d="M106,62.7c0.2,0,0.3,0,0.4,0c0,0,0.1,0.1,0.1,0.1c0.1,0.4,0.2,0.8,0.4,1.2c0-0.1,0.1-0.1,0.1-0.2c0.1-0.3,0.2-0.7,0.3-1
			c0-0.1,0-0.1,0.1-0.1c0.1,0,0.2,0,0.3,0c0.1,0.4,0.3,0.9,0.4,1.3c0-0.1,0.1-0.3,0.1-0.4c0.1-0.3,0.2-0.6,0.3-0.9
			c0-0.1,0-0.1,0.1-0.1c0.1,0,0.2,0,0.4,0c0,0.1-0.1,0.2-0.1,0.2c-0.2,0.6-0.4,1.1-0.6,1.7c0,0.1-0.1,0.1-0.1,0.1
			c-0.3,0-0.3,0-0.4-0.3c-0.1-0.3-0.2-0.7-0.4-1c-0.1,0.3-0.2,0.6-0.3,0.9c0,0.1-0.1,0.2-0.1,0.3c0,0.1-0.1,0.1-0.1,0.1
			c-0.3,0-0.3,0-0.4-0.3c-0.2-0.5-0.4-1.1-0.6-1.6C106.1,62.8,106,62.8,106,62.7z"/>
		<path d="M104.9,64.7c-0.6,0-1.1-0.5-1.1-1c0-0.5,0.4-1.1,1.1-1c0.6,0,1,0.5,1,1C106,64.3,105.5,64.8,104.9,64.7z M105.5,63.7
			c0-0.4-0.2-0.6-0.6-0.6c-0.3,0-0.6,0.3-0.6,0.6c0,0.4,0.3,0.6,0.6,0.6C105.2,64.3,105.5,64.1,105.5,63.7z"/>
		<path d="M91.7,41.9c0.4,0,0.8,0,1.1,0c0.3,0,0.5,0.3,0.5,0.6c0,0.3-0.1,0.5-0.4,0.7c0.2,0.2,0.3,0.5,0.5,0.7c-0.2,0-0.3,0-0.5,0
			c0,0-0.1,0-0.1-0.1c-0.1-0.1-0.2-0.3-0.3-0.5c-0.1-0.1-0.1-0.1-0.2-0.1c-0.1,0-0.1,0-0.2,0c0,0.2,0,0.3,0,0.5c0,0.1,0,0.1-0.1,0.1
			c-0.3,0-0.3,0-0.3-0.3C91.7,43,91.7,42.5,91.7,41.9C91.7,41.9,91.7,41.9,91.7,41.9z M92.2,42.8c0.2,0,0.4,0,0.5,0
			c0.1,0,0.2-0.1,0.2-0.2c0-0.1-0.1-0.2-0.2-0.3c-0.2,0-0.4,0-0.5,0C92.2,42.4,92.2,42.6,92.2,42.8z"/>
		<path d="M89.6,41.8c0.3,0,0.6,0,0.9,0c0.1,0,0.3,0,0.4,0.1c0.4,0.2,0.6,0.6,0.5,1c0,0.4-0.4,0.8-0.8,0.8c-0.3,0-0.7,0-1,0
			c0,0-0.1-0.1-0.1-0.1c0-0.6,0-1.2,0-1.8C89.6,41.9,89.6,41.9,89.6,41.8z M90,43.4c0.1,0,0.3,0,0.4,0c0.3,0,0.5-0.2,0.5-0.5
			c0-0.3-0.1-0.6-0.4-0.7c-0.1,0-0.3,0-0.5,0c0,0-0.1,0-0.1,0.1C90,42.7,90,43,90,43.4z"/>
		<path d="M85.2,43.8c-0.2,0-0.3,0-0.4,0c0-0.7,0-1.3,0-2c0.1,0,0.3,0,0.4,0c0,0.2,0,0.5,0,0.8c0.3,0,0.5,0,0.8,0c0-0.2,0-0.5,0-0.8
			c0.2,0,0.3,0,0.5,0c0,0.7,0,1.3,0,2c-0.1,0-0.3,0-0.4,0c0,0,0-0.1,0-0.1c0-0.2,0-0.4,0-0.6c0,0,0-0.1,0-0.1c-0.3,0-0.5,0-0.7,0
			c0,0-0.1,0.1-0.1,0.1C85.2,43.4,85.2,43.6,85.2,43.8z"/>
		<path d="M88.4,43.9c-0.1,0-0.2,0-0.3,0c-0.4,0-0.7,0-1.1,0c-0.1,0-0.1,0-0.1-0.1c0-0.6,0-1.2,0-1.9c0,0,0,0,0,0c0.5,0,1,0,1.5,0
			c0,0.1,0,0.2,0,0.4c-0.3,0-0.7,0-1.1,0c0,0.1,0,0.3,0,0.4c0.1,0,0.1,0,0.2,0c0.2,0,0.4,0,0.6,0c0.1,0,0.1,0,0.1,0.1
			c0,0.3,0,0.3-0.3,0.3c-0.2,0-0.4,0-0.6,0c0,0,0,0,0,0c0,0.1,0,0.2,0,0.4c0.4,0,0.7,0,1.1,0C88.4,43.6,88.4,43.7,88.4,43.9z"/>
		<path d="M103.1,62.7c0.2,0,0.3,0,0.4,0c0,0.7,0,1.3,0,2c-0.1,0-0.3,0-0.4,0c0,0-0.1-0.1-0.1-0.1c0-0.2,0-0.4,0-0.6
			c0,0,0-0.1,0-0.1c-0.3,0-0.5,0-0.8,0c0,0.2,0,0.4,0,0.5c0,0.3,0,0.3-0.3,0.3c-0.2,0-0.2,0-0.2-0.2c0-0.6,0-1.2,0-1.8
			c0.1,0,0.3,0,0.5,0c0,0.3,0,0.5,0,0.8c0.3,0,0.5,0,0.8,0C103.1,63.2,103.1,63,103.1,62.7z"/>
		<path d="M101.5,62.9c-0.1,0.1-0.2,0.2-0.2,0.3c-0.2-0.1-0.3-0.1-0.5-0.2c-0.1,0-0.1,0-0.2,0c-0.1,0.1-0.1,0.2,0,0.3
			c0.1,0.1,0.2,0.1,0.3,0.1c0.1,0,0.2,0.1,0.3,0.1c0.2,0.1,0.3,0.3,0.3,0.5c0,0.2-0.1,0.4-0.3,0.5c-0.1,0.1-0.3,0.1-0.4,0.1
			c-0.3,0-0.6-0.1-0.8-0.3c0,0,0,0,0,0c0.1-0.1,0.2-0.2,0.2-0.3c0.2,0.1,0.3,0.2,0.5,0.2c0.1,0,0.2,0,0.3,0c0,0,0.1-0.1,0.1-0.1
			c0,0,0-0.1-0.1-0.1c-0.1-0.1-0.2-0.1-0.3-0.1c-0.1,0-0.2-0.1-0.3-0.1c-0.2-0.1-0.3-0.3-0.3-0.5c0-0.2,0.1-0.4,0.3-0.5
			C100.8,62.6,101.1,62.7,101.5,62.9z"/>
		<path d="M83.3,42.3c-0.2,0-0.4,0-0.6,0c0-0.1,0-0.3,0-0.4c0.6,0,1.1,0,1.7,0c0,0.1,0,0.3,0,0.4c-0.2,0-0.4,0-0.6,0
			c0,0.1,0,0.1,0,0.1c0,0.5,0,0.9,0,1.4c0,0.1,0,0.1-0.1,0.1c-0.1,0-0.2,0-0.2,0c-0.1,0-0.1,0-0.1-0.1c0-0.4,0-0.9,0-1.3
			C83.3,42.4,83.3,42.3,83.3,42.3z"/>
		<path d="M94.1,43.8c-0.2,0-0.3,0-0.5,0c0-0.1,0-0.3,0-0.4c0.1,0,0.3,0,0.4,0c0,0,0,0,0,0C94.1,43.6,94.1,43.7,94.1,43.8z"/>
	</g>
</g>
<g id="_x33_58LRG_2_" class="st0">
	<g>
		<path d="M13.7,0.4c7.5,0,13.7,6.1,13.7,13.7c0,7.6-6.1,13.7-13.7,13.7C6.1,27.8,0,21.6,0,14.1C0,6.6,6.1,0.4,13.7,0.4z M18.5,14.2
			c0-0.1-0.1-0.1-0.1-0.2c-1.1-2.4-2.1-4.8-3.2-7.2c-0.1-0.1-0.1-0.2-0.2-0.2c-1.3,0-2.5,0-3.8,0c-0.6,0-1.2,0-1.8,0.2
			C7.9,7.2,6.6,8.1,5.8,9.4c-0.8,1.2-0.9,2.6-0.7,4c0.3,2.2,1.9,3.9,4.1,4.3c0.2,0,0.2,0.1,0.2,0.2c0,1.2,0,2.4,0,3.6
			c0,0.1,0,0.1,0,0.2c1.8,0,3.6,0,5.4,0c0-0.7,0-1.3,0-1.9c0-0.6,0-1.3,0-1.9c0.2,0,0.5,0,0.7,0c0.7,0,1.6-0.5,1.6-1.6
			c0-0.6,0-1.3,0-1.9c0-0.1,0-0.1,0-0.2C17.5,14.2,18,14.2,18.5,14.2z M23,14.2c0-0.1,0-0.1-0.1-0.2c-1.1-2.4-2.1-4.9-3.2-7.3
			c0-0.1-0.1-0.1-0.2-0.1c-0.6,0-1.2,0-1.9,0c0,0-0.1,0-0.2,0c1.1,2.5,2.2,5,3.3,7.6c-0.5,0-1,0-1.5,0c0,0.1,0,0.2,0,0.2
			c0,0.7,0,1.3,0,2c0,0.9-0.4,1.3-1.2,1.5c-0.3,0-0.6,0.1-0.9,0.1c0,1.3,0,2.6,0,3.8c0.7,0,1.4,0,2.2,0c0-1.3,0-2.6,0-3.9
			c0.3,0,0.5,0,0.7,0c0.8,0,1.4-0.6,1.5-1.4c0-0.7,0-1.4,0-2.1c0-0.1,0-0.1,0-0.2C22,14.2,22.5,14.2,23,14.2z"/>
		<path d="M44.6,21.8c0-0.8,0-1.6,0-2.4c0.6,0,1.3,0,1.9,0c0-3.5,0-6.9,0-10.4c-0.6,0-1.1,0-1.7,0c0-0.8,0-1.6,0-2.4
			c0.1,0,0.1,0,0.2,0c1.9,0,3.8,0,5.7,0c1,0,1.9,0.1,2.8,0.5c1.4,0.6,2.4,2,2.3,3.5c0,1.3-0.6,2.3-1.7,2.9c0,0,0,0,0,0
			c0.3,0.2,0.7,0.4,1,0.7c1.1,1,1.5,2.2,1.3,3.6c-0.1,1.1-0.5,2-1.4,2.7c-0.7,0.6-1.6,1-2.5,1.1c-0.4,0.1-0.7,0.1-1.1,0.1
			c-2.2,0-4.4,0-6.6,0C44.7,21.8,44.7,21.8,44.6,21.8z M49.3,19.4c0.2,0,0.5,0,0.7,0c0.6,0,1.1,0,1.7-0.1c1-0.1,1.6-0.8,1.8-1.7
			c0.1-0.9-0.2-1.7-1-2.2c-0.4-0.2-0.9-0.3-1.3-0.3c-0.6,0-1.2,0-1.7,0c-0.1,0-0.1,0-0.2,0C49.3,16.5,49.3,18,49.3,19.4z M49.3,9
			c0,1.2,0,2.5,0,3.7c0,0,0,0,0,0c0.7,0,1.5,0,2.2-0.1c0.9-0.1,1.5-0.8,1.5-1.6c0-1-0.5-1.7-1.4-1.9C50.9,8.9,50.1,9.1,49.3,9z"/>
		<path d="M32.1,21.8c0-0.8,0-1.6,0-2.4c0.6,0,1.3,0,1.9,0c0-3.5,0-6.9,0-10.4c-0.6,0-1.3,0-1.9,0c0-0.8,0-1.6,0-2.4
			c0,0,0.1,0,0.1,0c2.1,0,4.3,0,6.4,0c1,0,2.1,0.2,3,0.7c1.4,0.8,2.1,2,2.2,3.6c0,1-0.1,1.9-0.7,2.8c-0.6,0.9-1.5,1.4-2.5,1.7
			c-0.9,0.3-1.9,0.3-2.8,0.3c-0.4,0-0.7,0-1.1,0c0,1.2,0,2.4,0,3.6c0.7,0,1.5,0,2.2,0c0,0.8,0,1.6,0,2.4
			C36.7,21.8,34.4,21.8,32.1,21.8z M36.8,13.4c0.8,0,1.7,0,2.5-0.1c0.6-0.1,1.2-0.4,1.5-1c0.7-1.1,0.3-3.1-1.7-3.3
			c-0.7-0.1-1.5,0-2.2,0c0,0,0,0,0,0C36.8,10.5,36.8,11.9,36.8,13.4z"/>
		<path d="M60.8,20.9c0,0.3,0,0.6,0,0.9c-0.7,0-1.5,0-2.2,0c0-1.5,0-3.1,0-4.6c0.8,0,1.6,0,2.4,0c0,0.2,0.1,0.4,0.1,0.6
			c0.3,1.2,1.4,1.9,2.6,1.9c0.5,0,0.9-0.1,1.3-0.4c1.1-0.8,1.1-2.4,0-3.3c-0.5-0.4-1-0.5-1.5-0.7c-0.8-0.2-1.6-0.5-2.3-0.8
			c-1.1-0.5-2-1.2-2.4-2.4c-0.5-1.5-0.3-3,0.8-4.3c0.6-0.7,1.5-1.2,2.4-1.3c1-0.2,2-0.1,2.9,0.3c0.3,0.1,0.6,0.4,0.9,0.5
			c0-0.2,0-0.4,0-0.6c0.7,0,1.4,0,2.2,0c0,1.4,0,2.8,0,4.3c-0.7,0-1.5,0-2.2,0c-0.1-0.3-0.2-0.6-0.3-0.9c-0.5-0.9-1.3-1.2-2.3-1.2
			c-0.3,0-0.6,0.1-0.8,0.2c-1.1,0.5-1.4,1.9-0.4,2.7c0.4,0.3,0.9,0.5,1.4,0.7c0.9,0.3,1.9,0.5,2.8,0.9c1.3,0.5,2.2,1.4,2.6,2.7
			c0.8,2.6-0.6,5.6-3.9,6.1c-1,0.1-2,0.1-2.9-0.4C61.5,21.4,61.2,21.2,60.8,20.9z"/>
		<path d="M15.5,11.8c0,0.8-0.6,1.4-1.4,1.4c-0.8,0-1.4-0.6-1.4-1.4c0-0.8,0.6-1.4,1.4-1.4C14.8,10.4,15.5,11,15.5,11.8z"/>
	</g>
</g>
<g class="st0">
	<g>
		<g>
			<path class="st1" d="M196.1,60.3c-2,0-3.4-1.6-3.4-3.5v0c0-1.9,1.4-3.5,3.4-3.5c2,0,3.4,1.6,3.4,3.5v0
				C199.6,58.7,198.1,60.3,196.1,60.3z M198.9,56.9c0-1.6-1.2-2.9-2.7-2.9c-1.6,0-2.7,1.3-2.7,2.9v0c0,1.6,1.2,2.9,2.7,2.9
				C197.7,59.7,198.9,58.4,198.9,56.9L198.9,56.9z"/>
		</g>
		<g>
			<path class="st1" d="M207,60.2v-1.2c-0.4,0.8-1.2,1.4-2.4,1.4c-1.7,0-2.7-1.1-2.7-2.7v-4.1h0.6v3.9c0,1.4,0.8,2.3,2.1,2.3
				c1.3,0,2.3-1,2.3-2.4v-3.8h0.6v6.6H207z"/>
		</g>
		<g>
			<path class="st1" d="M214.1,54.1c-1.5,0-2.9,1.2-2.9,3.3v2.7h-0.6v-6.6h0.6v1.9c0.5-1.2,1.6-2,2.9-2L214.1,54.1L214.1,54.1z"/>
		</g>
		<g>
			<path class="st1" d="M236.5,60.3c-2,0-3.4-1.6-3.4-3.5v0c0-1.9,1.4-3.5,3.4-3.5c2,0,3.4,1.6,3.4,3.5v0
				C239.9,58.7,238.5,60.3,236.5,60.3z M239.2,56.9c0-1.6-1.2-2.9-2.7-2.9c-1.6,0-2.7,1.3-2.7,2.9v0c0,1.6,1.2,2.9,2.7,2.9
				C238.1,59.7,239.2,58.4,239.2,56.9L239.2,56.9z"/>
		</g>
		<g>
			<path class="st1" d="M247,60.2v-3.9c0-1.4-0.8-2.3-2.1-2.3c-1.3,0-2.3,1-2.3,2.4v3.8h-0.6v-6.6h0.6v1.2c0.4-0.8,1.2-1.4,2.4-1.4
				c1.7,0,2.7,1.1,2.7,2.7v4.1H247z"/>
		</g>
		<g>
			<path class="st1" d="M253.9,59.7c1,0,1.7-0.5,2.3-1l0.4,0.4c-0.7,0.7-1.5,1.3-2.7,1.3c-1.7,0-3.3-1.4-3.3-3.5v0
				c0-1.9,1.4-3.5,3.2-3.5c1.9,0,3,1.5,3,3.5v0c0,0.1,0,0.1,0,0.2h-5.5C251.4,58.8,252.6,59.7,253.9,59.7z M256.1,56.5
				c-0.1-1.3-0.9-2.6-2.4-2.6c-1.3,0-2.3,1.1-2.4,2.6H256.1z"/>
		</g>
		<g>
			<path class="st1" d="M261.4,60.3c-1,0-2-0.4-2.7-1l0.4-0.5c0.7,0.6,1.5,0.9,2.4,0.9c0.9,0,1.6-0.5,1.6-1.3v0
				c0-0.8-0.8-1.1-1.8-1.3c-1.1-0.3-2.3-0.6-2.3-1.8v0c0-1.1,0.9-1.8,2.2-1.8c0.8,0,1.7,0.3,2.4,0.7l-0.3,0.5
				c-0.6-0.4-1.3-0.7-2-0.7c-0.9,0-1.5,0.5-1.5,1.2v0c0,0.7,0.9,1,1.9,1.3c1.1,0.3,2.2,0.7,2.2,1.9v0
				C263.7,59.6,262.7,60.3,261.4,60.3z"/>
		</g>
	</g>
	<g>
		<path class="st1" d="M188.6,54.1l-5.2-8.8h0.5l5,8.4l4.9-8.4h0.5l-5.2,8.8v6.4h-0.4V54.1z"/>
		<path class="st1" d="M189.2,60.6h-0.7v-6.5l-5.3-9h0.8l4.9,8.3l4.8-8.3h0.8l-5.3,9V60.6z M188.8,60.3h0.1v-6.3l0,0l5.1-8.6h-0.1
			l-5,8.6l-5-8.6h-0.1l5.1,8.7V60.3z"/>
	</g>
	<g>
		<g>
			<path class="st1" d="M226.8,60.5h-6V45.6h5c0.9,0,1.8,0.3,2.5,0.8c0.9,0.7,1.4,1.6,1.4,2.7c0,0.8-0.2,1.6-0.5,2.3
				c-0.5,1.1-1.6,1.7-2.8,1.7h-4.9v6.7h5.3V60.5z M221.5,52.4h4.9c0.9,0,1.8-0.5,2.2-1.3c0.3-0.6,0.4-1.3,0.4-2
				c0-0.9-0.4-1.6-1.1-2.1c-0.6-0.4-1.3-0.7-2.1-0.7h-4.3V52.4z"/>
		</g>
		<g>
			<path class="st1" d="M226.6,60.5v-0.7c1.2,0,3.2-0.4,3.2-3.3c0-3.1-2.9-3.4-3.1-3.4l0.1-0.7c0,0,3.7,0.4,3.7,4.1
				C230.5,60.2,227.5,60.5,226.6,60.5z"/>
		</g>
	</g>
</g>
<g id="QQxwRe_2_" class="st0">
	<g>
		<path d="M131.9,64.9c0-0.1,0.1-0.1,0.1-0.2c0-0.1,0-0.2,0-0.4c0-0.1,0-0.2,0.1-0.3c0,0,0,0,0-0.1c0-0.1,0-0.2,0-0.3
			c0-0.1,0.1-0.3,0.1-0.4c0-0.2,0.1-0.3,0.1-0.5c0-0.1,0-0.2,0-0.2c0-0.1,0.1-0.3,0.1-0.4c0-0.1,0-0.2,0-0.3c0-0.1,0.1-0.3,0.1-0.4
			c0-0.1,0-0.2,0.1-0.3c0.1-0.1,0.1-0.3,0.1-0.4c0,0,0-0.1,0-0.1c0-0.1,0-0.1,0.1-0.2c0-0.1,0-0.1,0-0.2c0-0.1,0-0.1,0-0.2
			c0-0.1,0-0.1,0-0.2c0-0.2,0.1-0.3,0.1-0.5c0-0.2,0.1-0.4,0.1-0.6c0,0,0-0.1,0-0.1c0-0.2,0.2-0.4,0.1-0.6c0,0,0-0.1,0-0.1
			c0-0.1,0.1-0.2,0.1-0.3c0-0.1,0-0.1,0-0.2c0-0.2,0.1-0.4,0.1-0.6c0,0,0,0,0,0c0-0.1,0-0.1,0.1-0.2c0,0,0-0.1,0-0.1
			c0-0.1,0-0.1,0-0.2c0-0.2,0.1-0.4,0.1-0.5c0,0,0,0,0-0.1c0-0.1,0-0.1,0-0.2c0-0.2,0.1-0.3,0.1-0.5c0,0,0,0,0,0
			c0-0.1,0-0.2,0.1-0.3c0,0,0-0.1,0-0.1c0,0,0-0.1,0-0.1c0-0.2,0-0.3,0.1-0.5c0.1-0.2,0.1-0.4,0.1-0.6c0-0.1,0-0.2,0.1-0.3
			c0-0.1,0-0.1,0-0.2c0-0.1,0-0.2,0-0.3c0-0.1,0-0.1,0-0.2c0-0.2,0-0.3,0.1-0.4c0-0.1,0.1-0.2,0.1-0.3c0,0,0-0.1,0-0.1
			c0-0.1,0.1-0.3,0.1-0.4c0-0.1,0-0.1,0-0.2c0-0.2,0.1-0.3,0.1-0.5c0,0,0,0,0,0c0.1-0.1,0.1-0.1,0.1-0.2c0,0,0-0.1,0-0.1
			c0.1-0.1,0.1-0.3,0.1-0.4c0,0,0,0,0-0.1c0-0.1,0-0.1,0.1-0.2c0-0.1,0-0.1,0-0.2c0-0.1,0.1-0.2,0.1-0.4c0-0.2,0.1-0.3,0.1-0.5
			c0-0.1,0-0.1,0-0.2c0,0,0-0.1,0-0.1c0,0,0-0.1,0-0.1c0-0.1,0-0.2,0.1-0.4c0,0,0,0,0-0.1c0-0.2,0-0.3,0.1-0.5
			c0-0.1,0.1-0.2,0.1-0.4c0,0,0-0.1,0-0.1c0.1-0.1,0.1-0.2,0.1-0.3c0,0,0-0.1,0-0.1c0.1-0.2,0.1-0.4,0.2-0.6c0-0.1,0-0.1,0-0.2
			c0-0.1,0-0.2,0.1-0.3c0-0.1,0-0.2,0.1-0.3c0-0.1,0-0.2,0.1-0.3c0,0,0-0.1,0-0.1c0-0.1,0-0.2,0.1-0.3c0-0.1,0.1-0.3,0.1-0.4
			c0-0.1,0-0.2,0.1-0.3c0-0.1,0.1-0.3,0.1-0.4c0-0.1,0-0.2,0.1-0.3c0,0,0,0,0-0.1c0-0.1,0-0.2,0.1-0.3c0,0,0-0.1,0-0.1
			c0-0.1,0-0.2,0-0.3c0-0.1,0-0.1,0-0.2c0-0.1,0.1-0.3,0.1-0.4c0,0,0,0,0,0c0,0,0-0.1,0-0.1c0-0.2,0.1-0.4,0.1-0.5
			c0-0.1,0.1-0.3,0.1-0.4c0-0.2,0.1-0.3,0.1-0.5c0,0,0,0,0,0c0-0.2,0.1-0.4,0.1-0.6c0-0.2,0.1-0.3,0.1-0.5c0-0.1,0-0.2,0.1-0.3
			c0,0,0-0.1,0-0.1c0.1-0.1,0.1-0.2,0.1-0.3c0,0,0-0.1,0-0.1c0.1-0.2,0.2-0.4,0.1-0.6c0,0,0-0.1,0-0.1c0-0.1,0.1-0.3,0.1-0.4
			c1.4,0,2.7,0,4.1,0c0,0,0,0.1,0,0.1c-0.1,0.2-0.1,0.3-0.2,0.5c0,0.1-0.1,0.2-0.1,0.3c0,0.1-0.1,0.2-0.1,0.3
			c-0.1,0.2-0.1,0.4-0.2,0.6c-0.1,0.2-0.1,0.5-0.3,0.8c-0.1,0.2-0.1,0.4-0.2,0.5c0,0.1-0.1,0.2-0.1,0.3c0,0,0,0,0,0.1
			c0,0.1-0.1,0.3-0.1,0.4c0,0,0,0,0,0.1c0,0,0,0.1,0,0.1c0,0,0,0.1,0,0.1c0,0.1-0.1,0.2-0.1,0.3c0,0,0,0.1,0,0.1
			c0,0.1-0.1,0.2-0.1,0.3c0,0.1-0.1,0.2-0.1,0.3c0,0,0,0,0,0c0,0.1-0.1,0.2-0.1,0.3c-0.1,0.2-0.1,0.4-0.2,0.5
			c-0.1,0.2-0.1,0.3-0.2,0.5c0,0.1-0.1,0.1-0.1,0.2c0,0.1-0.1,0.2-0.1,0.3c-0.1,0.1-0.1,0.3-0.1,0.4c0,0,0,0,0,0
			c0,0.1-0.1,0.2-0.1,0.3c0,0.1-0.1,0.3-0.1,0.4c0,0.1-0.1,0.2-0.1,0.4c0,0.1-0.1,0.2-0.1,0.2c-0.1,0.2-0.1,0.4-0.2,0.5c0,0,0,0,0,0
			c0,0,0,0.1,0,0.1c0,0,0,0.1,0,0.1c0,0.1-0.1,0.2-0.1,0.3c0,0.1-0.1,0.2-0.1,0.3c0,0.1-0.1,0.2-0.1,0.3c-0.1,0.2-0.1,0.4-0.2,0.5
			c-0.1,0.1-0.1,0.3-0.2,0.4c-0.1,0.2-0.1,0.3-0.1,0.5c0,0.1-0.1,0.1-0.1,0.2c0,0.1-0.1,0.2-0.1,0.4c0,0,0,0,0,0
			c-0.1,0.2-0.1,0.3-0.2,0.5c0,0.1-0.1,0.2-0.1,0.3c-0.1,0.3-0.2,0.5-0.3,0.8c-0.1,0.2-0.2,0.5-0.2,0.7c-0.1,0.1-0.1,0.3-0.1,0.5
			c0,0,0,0,0,0c-0.1,0.1-0.1,0.3-0.2,0.5c-0.1,0.2-0.2,0.5-0.3,0.8c-0.1,0.1-0.1,0.3-0.2,0.4c0,0.1-0.1,0.2-0.1,0.4
			c-0.1,0.2-0.2,0.4-0.2,0.6c-0.1,0.1-0.1,0.3-0.1,0.5c0,0.1-0.1,0.2-0.1,0.3c0,0.1-0.1,0.2-0.1,0.3c0,0.1,0,0.2-0.1,0.2
			c-0.1,0.2-0.1,0.5-0.3,0.7c0,0,0,0,0,0c0,0.1,0,0.2-0.1,0.3c-0.1,0.2-0.2,0.4-0.2,0.7c0,0.1-0.1,0.2-0.1,0.3c0,0,0,0,0,0.1
			c0,0.1-0.1,0.2-0.1,0.3c-0.1,0.2-0.1,0.3-0.2,0.5c0,0,0,0,0,0.1c0,0.1-0.1,0.3-0.1,0.4c-0.1,0.2-0.1,0.3-0.2,0.5
			c-0.1,0.2-0.1,0.4-0.2,0.6c0,0.1-0.1,0.3-0.1,0.4c0,0,0,0,0,0c0,0.1-0.1,0.2-0.1,0.3c-0.1,0.1-0.1,0.3-0.1,0.4
			c0,0.1-0.1,0.2-0.1,0.3c0,0.1-0.1,0.3-0.1,0.4c0,0.1-0.1,0.2-0.1,0.3c0,0.1-0.1,0.2-0.1,0.3c-0.1,0.2-0.1,0.3-0.2,0.5
			c0,0.1-0.1,0.2-0.1,0.3c0,0,0,0,0,0.1c0,0.1-0.1,0.2-0.1,0.3c-0.1,0.2-0.1,0.4-0.2,0.5c0,0.1,0,0.1-0.1,0.2c-0.1,0.1,0,0.2,0,0.3
			c0,0,0.1,0,0.1,0.1c0,0,0-0.1,0.1-0.1c0,0,0-0.1,0.1-0.1c0-0.1,0.1-0.1,0.1-0.2c0.1-0.1,0.1-0.3,0.2-0.4c0.1-0.2,0.1-0.3,0.2-0.4
			c0-0.1,0.1-0.2,0.1-0.2c0.1-0.1,0.1-0.2,0.2-0.4c0.1-0.2,0.2-0.4,0.3-0.6c0.1-0.1,0.1-0.3,0.2-0.4c0-0.1,0.1-0.2,0.2-0.3
			c0-0.1,0.1-0.3,0.2-0.4c0,0,0-0.1,0-0.1c0.1-0.2,0.2-0.4,0.3-0.6c0.1-0.1,0.2-0.3,0.2-0.4c0.1-0.1,0.1-0.3,0.2-0.4
			c0.1-0.1,0.1-0.2,0.2-0.4c0.1-0.2,0.2-0.5,0.3-0.7c0-0.1,0.1-0.1,0.1-0.2c0.1-0.2,0.2-0.4,0.2-0.6c0.1-0.2,0.2-0.3,0.2-0.5
			c0.2-0.3,0.3-0.6,0.5-1c0.1-0.2,0.2-0.3,0.2-0.5c0.1-0.2,0.2-0.3,0.2-0.5c0.1-0.2,0.2-0.4,0.3-0.6c0,0,0.1-0.1,0.1-0.1
			c0.1-0.3,0.3-0.6,0.4-0.9c0-0.1,0.1-0.1,0.1-0.2c0.1-0.2,0.1-0.3,0.2-0.5c0-0.1,0.1-0.2,0.1-0.3c0.1-0.2,0.2-0.4,0.3-0.6
			c0.1-0.2,0.2-0.4,0.3-0.6c0.1-0.2,0.2-0.5,0.4-0.7c0.1-0.2,0.2-0.5,0.3-0.7c0.1-0.2,0.2-0.4,0.2-0.5c0.1-0.1,0.1-0.2,0.1-0.3
			c0,0,0.1-0.1,0.1-0.1c0-0.1,0.1-0.3,0.2-0.4c0.1-0.1,0.1-0.2,0.2-0.3c0.1-0.1,0.1-0.2,0.1-0.2c0.1-0.1,0.1-0.3,0.2-0.4
			c0-0.1,0.1-0.2,0.1-0.2c0.1-0.1,0.1-0.3,0.2-0.4c0.1-0.2,0.2-0.5,0.3-0.7c0-0.1,0.1-0.1,0.1-0.2c0.1-0.1,0.1-0.3,0.2-0.4
			c0.1-0.1,0.1-0.3,0.2-0.4c0.1-0.1,0.1-0.2,0.2-0.4c0,0,0-0.1,0.1-0.1c0-0.1,0.1-0.2,0.1-0.3c0-0.1,0.1-0.2,0.1-0.2
			c0.1-0.1,0.1-0.3,0.2-0.4c0.1-0.1,0.1-0.3,0.2-0.4c0.1-0.2,0.2-0.4,0.3-0.6c0.1-0.1,0.1-0.3,0.2-0.4c0-0.1,0.1-0.1,0.1-0.1
			c0,0,0,0,0-0.1c0.1-0.1,0.1-0.3,0.2-0.4c0.1-0.1,0.1-0.3,0.2-0.4c0,0,0.1-0.1,0.1-0.1c0.1-0.2,0.1-0.4,0.3-0.5
			c0,0,0.1-0.1,0.1-0.1c0-0.1,0.1-0.2,0.1-0.4c0-0.1,0.1-0.2,0.2-0.3c0.1-0.2,0.1-0.3,0.2-0.5c0.1-0.2,0.2-0.4,0.3-0.6
			c0.1-0.1,0.1-0.3,0.2-0.5c0-0.1,0.1-0.2,0.1-0.3c0.1-0.2,0.2-0.4,0.3-0.5c0.1-0.1,0.1-0.2,0.2-0.4c0.1-0.2,0.2-0.3,0.2-0.5
			c0,0,0-0.1,0.1-0.1c0-0.1,0-0.1,0.1-0.2c0.1-0.1,0.1-0.2,0.1-0.3c1.5,0,3.1,0,4.6,0c0,0-0.1,0.1-0.1,0.1c0,0,0,0.1,0,0.1
			c-0.1,0.2-0.3,0.4-0.4,0.6c-0.1,0.2-0.3,0.4-0.4,0.6c-0.1,0.2-0.3,0.4-0.4,0.7c-0.2,0.3-0.3,0.5-0.5,0.8c-0.1,0.1-0.2,0.3-0.3,0.4
			c0,0.1-0.1,0.2-0.1,0.2c0,0,0,0,0,0c-0.1,0.2-0.3,0.4-0.4,0.6c0,0.1-0.1,0.1-0.1,0.2c-0.1,0.2-0.3,0.4-0.4,0.6
			c-0.1,0.2-0.2,0.3-0.3,0.5c-0.1,0.2-0.3,0.4-0.4,0.7c-0.1,0.2-0.2,0.3-0.3,0.5c-0.1,0.2-0.2,0.4-0.3,0.5c-0.1,0.2-0.2,0.4-0.4,0.6
			c0,0.1-0.1,0.1-0.2,0.1c-0.4,0-0.8,0-1.3,0c-0.2,0-0.2,0-0.2,0.2c0,0.7,0,1.4,0,2.2c0,0.2-0.1,0.3-0.2,0.4
			c-0.1,0.1-0.2,0.2-0.2,0.3c0,0.1-0.1,0.1-0.1,0.1c-0.1,0.2-0.2,0.3-0.3,0.5c-0.1,0.2-0.3,0.4-0.4,0.7c0,0.1-0.1,0.1-0.1,0.2
			c0,0,0,0,0,0c-0.1,0.2-0.3,0.4-0.4,0.6c-0.1,0.1-0.2,0.2-0.2,0.3c0,0,0,0.1-0.1,0.1c0,0.1-0.1,0.2-0.2,0.2
			c-0.1,0.1-0.1,0.2-0.2,0.3c-0.1,0.1-0.1,0.2-0.2,0.3c-0.1,0.2-0.2,0.3-0.3,0.5c-0.1,0.1-0.1,0.2-0.2,0.3c-0.1,0.1-0.1,0.2-0.2,0.3
			c-0.1,0.2-0.3,0.4-0.4,0.6c-0.1,0.2-0.3,0.4-0.4,0.6c-0.1,0.2-0.3,0.4-0.4,0.6c-0.1,0.2-0.3,0.4-0.4,0.7c-0.1,0.1-0.2,0.2-0.2,0.4
			c0,0,0,0,0,0.1c0,0.1-0.1,0.2-0.2,0.2c-0.4,0-0.8,0-1.2,0c-0.2,0-0.2,0-0.2,0.2c0,0.6,0,1.3,0,1.9c0,0.2,0,0.3-0.1,0.4
			c-0.1,0.1-0.2,0.3-0.3,0.5c-0.1,0.1-0.2,0.3-0.3,0.4c-0.1,0.1-0.1,0.2-0.2,0.2c-0.1,0.1-0.1,0.2-0.2,0.3c-0.1,0.2-0.2,0.3-0.3,0.5
			c-0.1,0.1-0.1,0.2-0.2,0.3c-0.1,0.2-0.2,0.3-0.3,0.5c0,0.1-0.1,0.1-0.1,0.2c-0.1,0.2-0.2,0.4-0.4,0.6c-0.1,0.2-0.3,0.5-0.4,0.7
			c-0.1,0.1-0.2,0.2-0.2,0.3c-0.1,0.1-0.1,0.2-0.2,0.3c-0.1,0.1-0.1,0.2-0.2,0.3c-0.1,0.1-0.1,0.2-0.2,0.2c-0.2,0.3-0.3,0.5-0.5,0.8
			c-0.1,0.1-0.2,0.2-0.2,0.4c-0.1,0.1-0.1,0.2-0.2,0.3c-0.2,0.2-0.3,0.5-0.5,0.7"/>
		<path d="M154.9,54.5c-0.2,0-0.3,0-0.5,0c-0.2,0-0.4,0-0.5,0c-0.2-0.1-0.5-0.1-0.7-0.2c0,0-0.1,0-0.2,0c-0.1-0.1-0.2-0.1-0.3-0.2
			c-0.1,0-0.2-0.1-0.3-0.1c-0.1-0.1-0.2-0.1-0.3-0.2c-0.4-0.3-0.7-0.7-1.1-1c-0.1-0.1-0.2-0.3-0.3-0.5c-0.1-0.3-0.3-0.6-0.4-0.8
			c-0.1-0.2-0.2-0.4-0.2-0.7c-0.1-0.5,0-1,0-1.5c0-0.2,0.1-0.3,0.1-0.5c0.1-0.2,0.1-0.4,0.2-0.6c0-0.1,0.1-0.2,0.2-0.3c0,0,0,0,0,0
			c0-0.2,0.2-0.3,0.3-0.5c0.3-0.4,0.6-0.7,0.9-1c0.1-0.1,0.2-0.2,0.4-0.3c0.1-0.1,0.2-0.2,0.3-0.2c0.1-0.1,0.3-0.1,0.4-0.2
			c0.1,0,0.2-0.1,0.3-0.1c0,0,0,0,0,0c0.1,0,0.3-0.1,0.4-0.1c0.1,0,0.1,0,0.2,0c0,0,0.1,0,0.1,0c0.1,0,0.2,0,0.2-0.1
			c0,0,0.1,0,0.1,0c0.3,0,0.7,0,1,0c0.1,0,0.1,0,0.2,0c0.1,0,0.2,0,0.3,0c0.1,0,0.3,0.1,0.4,0.1c0.1,0,0.2,0.1,0.3,0.1
			c0.1,0,0.1,0.1,0.2,0.1c0.1,0.1,0.3,0.1,0.4,0.2c0.2,0.1,0.4,0.2,0.5,0.3c0.3,0.3,0.6,0.6,0.9,0.9c0.1,0.1,0.2,0.2,0.2,0.3
			c0.1,0.1,0.1,0.2,0.2,0.3c0.1,0.1,0.1,0.2,0.2,0.4c0,0.1,0.1,0.1,0.1,0.2c0,0.1,0.1,0.2,0.1,0.4c0,0.1,0.1,0.2,0.1,0.3
			c0,0.1,0.1,0.2,0.1,0.3c0,0.4,0,0.7,0,1.1c0,0.2,0,0.4-0.1,0.5c0,0.1-0.1,0.3-0.1,0.4c0,0.1-0.1,0.2-0.1,0.3
			c0,0.1-0.1,0.2-0.1,0.3c-0.1,0.1-0.1,0.3-0.2,0.4c-0.1,0.2-0.3,0.4-0.4,0.6c-0.2,0.2-0.3,0.4-0.5,0.6c-0.2,0.2-0.4,0.3-0.7,0.5
			c-0.1,0.1-0.2,0.2-0.4,0.2c-0.1,0.1-0.3,0.1-0.4,0.2c-0.1,0.1-0.3,0.1-0.4,0.1c-0.1,0-0.3,0.1-0.4,0.1c-0.1,0-0.3,0-0.4,0
			C155.2,54.5,155.1,54.5,154.9,54.5z M154,49.7c0,0.7,0,1.3,0,2c0,0.3,0.1,0.5,0.4,0.7c0.2,0.1,0.5,0.2,0.7,0.1
			c0.1,0,0.1,0,0.2-0.1c0.3-0.2,0.4-0.4,0.4-0.8c0-1.3,0-2.6,0-3.8c0-0.2-0.1-0.4-0.2-0.6c-0.2-0.2-0.4-0.4-0.7-0.4
			c-0.3,0-0.5,0.1-0.6,0.3c-0.2,0.2-0.3,0.4-0.3,0.6C154,48.4,154,49.1,154,49.7z"/>
		<path d="M152.3,56c0.3,0,0.6,0,0.9,0c0.1,0,0.2,0,0.2,0.2c0,0,0,0.1,0,0.1c0,0.1,0,0.2,0.1,0.3c0,0,0,0.1,0,0.1
			c0.1,0.1,0.1,0.2,0.1,0.3c0,0,0,0.1,0,0.1c0.1,0.1,0.1,0.2,0.1,0.3c0,0.1,0,0.1,0,0.2c0,0,0,0.1,0,0.1c0,0.1,0,0.2,0.1,0.3
			c0,0,0,0,0,0c0,0.2,0.1,0.4,0.1,0.5c0,0.1,0,0.1,0,0.2c0,0.1,0.1,0.3,0.1,0.4c0,0,0,0,0,0.1c0,0.1,0,0.2,0,0.3
			c0,0.1,0.1,0.2,0.1,0.4c0,0,0,0.1,0,0.1c0,0.1,0,0.2,0.1,0.4c0,0,0,0.1,0,0.1c0,0.1,0,0.1,0.1,0.2c0,0,0,0.1,0,0.1
			c0,0.1,0.1,0.1,0.1,0.1c0,0,0.1-0.1,0.1-0.1c0-0.2,0-0.4,0.1-0.6c0.1-0.2,0.1-0.4,0.1-0.6c0,0,0-0.1,0-0.1
			c0.1-0.1,0.1-0.2,0.1-0.3c0-0.1,0-0.1,0.1-0.2c0,0,0,0,0,0c0-0.1,0.1-0.3,0.1-0.4c0-0.1,0-0.2,0.1-0.3c0,0,0,0,0-0.1
			c0-0.1,0-0.2,0.1-0.3c0-0.1,0-0.2,0-0.3c0-0.2,0.1-0.3,0.1-0.5c0,0,0,0,0,0c0.1-0.1,0.1-0.2,0.1-0.4c0-0.1,0.1-0.2,0.1-0.3
			c0-0.2,0.1-0.3,0.3-0.3c0.5,0,1,0,1.5,0c0.1,0,0.2,0.1,0.2,0.2c0,0.1,0,0.2,0.1,0.3c0,0,0,0.1,0,0.1c0,0.1,0,0.2,0.1,0.3
			c0,0,0,0.1,0,0.1c0,0.1,0,0.2,0.1,0.3c0,0.1,0,0.1,0,0.2c0,0.1,0,0.1,0,0.2c0,0,0,0.1,0,0.1c0,0.1,0,0.2,0.1,0.3
			c0,0.1,0,0.2,0.1,0.3c0,0.2,0.1,0.5,0.1,0.7c0,0,0,0.1,0,0.1c0,0.1,0,0.1,0,0.2c0,0.1,0.1,0.3,0.1,0.4c0,0.2,0.1,0.3,0.1,0.5
			c0,0,0,0.1,0,0.1c0,0.1,0.1,0.3,0.1,0.4c0,0.1,0.1,0.1,0.1,0.1c0.1,0,0.1-0.1,0.1-0.1c0-0.2,0-0.3,0-0.5c0,0,0-0.1,0-0.1
			c0,0,0-0.1,0-0.1c0-0.1,0-0.2,0.1-0.3c0,0,0-0.1,0-0.1c0-0.1,0-0.1,0.1-0.2c0,0,0-0.1,0-0.1c0-0.1,0-0.1,0.1-0.2c0,0,0-0.1,0-0.1
			c0-0.1,0-0.2,0.1-0.3c0,0,0-0.1,0-0.1c0-0.1,0-0.1,0.1-0.2c0,0,0-0.1,0-0.1c0-0.1,0-0.2,0.1-0.3c0-0.1,0-0.2,0.1-0.3
			c0-0.1,0.1-0.2,0.1-0.3c0,0,0-0.1,0-0.1c0.1-0.1,0.1-0.2,0.1-0.3c0,0,0,0,0-0.1c0-0.1,0-0.2,0.1-0.2c0-0.2,0.1-0.4,0.1-0.5
			c0-0.1,0.1-0.1,0.2-0.1c0.5,0,0.9,0,1.4,0c0,0,0.1,0,0.1,0c0,0.1,0,0.1,0,0.2c0,0.1,0,0.1,0,0.2c0,0.1,0,0.1,0,0.2
			c-0.1,0.2-0.1,0.5-0.2,0.7c0,0.1-0.1,0.2-0.1,0.3c0,0.1,0,0.2-0.1,0.2c0,0.1,0,0.2-0.1,0.2c0,0,0,0,0,0.1c0,0.1,0,0.2-0.1,0.3
			c0,0.2-0.1,0.3-0.1,0.5c0,0.1,0,0.1,0,0.2c0,0,0,0,0,0c0,0.2-0.1,0.3-0.1,0.4c0,0.1,0,0.1,0,0.2c0,0,0,0.1,0,0.1
			c0,0.1,0,0.2-0.1,0.2c0,0,0,0,0,0.1c0,0.1-0.1,0.3-0.1,0.4c0,0.1,0,0.2-0.1,0.3c0,0.1-0.1,0.3-0.1,0.4c0,0.1-0.1,0.3-0.1,0.4
			c0,0.2-0.1,0.4-0.1,0.6c0,0.2-0.1,0.3-0.1,0.5c0,0,0,0.1,0,0.1c0,0.1,0,0.2-0.1,0.2c0,0,0,0,0,0c-0.1,0.1-0.1,0.3-0.1,0.4
			c0,0.1,0,0.2-0.1,0.2c0,0,0,0,0,0c-0.1,0.1-0.1,0.2-0.1,0.4c0,0.1,0,0.2-0.1,0.3c0,0.1,0,0.1-0.1,0.2c0,0-0.1,0.1-0.1,0.1
			c-0.6,0-1.1,0-1.7,0c-0.1,0-0.1,0-0.1-0.1c0-0.1-0.1-0.3-0.1-0.4c0,0,0-0.1,0-0.1c0,0,0-0.1,0-0.1c-0.1-0.1-0.1-0.2-0.1-0.3
			c0-0.1,0-0.1-0.1-0.2c0,0,0-0.1,0-0.1c0-0.1,0-0.2-0.1-0.3c0,0,0,0,0-0.1c0-0.1,0-0.1,0-0.2c0-0.1,0-0.1,0-0.2
			c0-0.1,0-0.2-0.1-0.4c0-0.2-0.1-0.3-0.1-0.5c0,0,0-0.1,0-0.1c-0.1-0.1-0.1-0.2-0.1-0.3c0-0.1,0-0.1-0.1-0.2c0,0,0,0,0,0
			c0-0.2-0.1-0.3-0.1-0.5c0-0.1,0-0.1-0.1-0.2c0,0,0,0,0-0.1c0-0.1,0-0.3,0-0.4c0,0,0-0.1,0-0.1c0,0-0.1,0-0.1,0c0,0,0,0,0,0.1
			c0,0.2,0,0.4-0.1,0.6c-0.1,0.2,0,0.3-0.1,0.5c0,0,0,0.1,0,0.1c0,0.2,0,0.3-0.1,0.5c0,0,0,0,0,0c0,0.1,0,0.2,0,0.4
			c0,0.1,0,0.2-0.1,0.3c0,0,0,0,0,0c0,0.2-0.1,0.4-0.1,0.6c0,0.1,0,0.1-0.1,0.2c0,0,0,0,0,0c0,0.2-0.1,0.3-0.1,0.5
			c0,0.1,0,0.1,0,0.2c-0.1,0.3-0.1,0.5-0.2,0.8c0,0.1-0.1,0.1-0.2,0.1c-0.3,0-0.5,0-0.8,0c-0.3,0-0.6,0-0.9,0c-0.1,0-0.2,0-0.2-0.2
			c0-0.1-0.1-0.3-0.1-0.4c0,0,0-0.1,0-0.1c0-0.1,0-0.1,0-0.2c0,0,0,0,0,0c0-0.2-0.1-0.3-0.1-0.5c0,0,0,0,0,0
			c-0.1-0.1-0.1-0.2-0.1-0.3c0,0,0,0,0,0c0-0.1-0.1-0.3-0.1-0.4c0,0,0,0,0-0.1c0-0.2-0.1-0.3-0.1-0.5c0-0.2-0.1-0.3-0.1-0.4
			c0-0.2-0.1-0.4-0.1-0.6c0,0,0-0.1,0-0.1c0-0.1-0.1-0.2-0.1-0.3c0,0,0,0,0-0.1c0,0,0-0.1,0-0.1c0-0.1-0.1-0.3-0.1-0.4
			c0-0.1,0-0.2-0.1-0.3c0,0,0-0.1,0-0.1c0-0.1,0-0.1-0.1-0.2c0,0,0,0,0,0c0-0.2,0-0.3-0.1-0.4c0-0.1,0-0.1-0.1-0.2
			c0-0.1,0-0.2-0.1-0.3c0-0.1-0.1-0.2-0.1-0.4c0-0.1,0-0.2-0.1-0.3c0-0.2,0-0.4-0.1-0.6c-0.1-0.1-0.1-0.3-0.1-0.4
			c0-0.1-0.1-0.2-0.1-0.4c0,0,0,0,0,0c0-0.2,0-0.3,0.2-0.3C151.7,56,152,56,152.3,56z"/>
		<path d="M144.6,60.3c0,1.3,0,2.7,0,4c0,0.2,0,0.2-0.2,0.2c-0.5,0-1.1,0-1.6,0c-0.2,0-0.3-0.1-0.3-0.2c0-0.1-0.1-0.2-0.2-0.3
			c-0.1-0.1-0.2-0.3-0.3-0.4c-0.1-0.1-0.1-0.2-0.2-0.3c-0.1-0.1-0.1-0.2-0.2-0.4c0,0,0,0,0-0.1c-0.1-0.1-0.1-0.2-0.2-0.3
			c0,0,0-0.1-0.1-0.1c-0.1-0.2-0.2-0.3-0.3-0.5c-0.1-0.2-0.3-0.5-0.4-0.7c-0.1-0.2-0.2-0.4-0.3-0.5c-0.1-0.1-0.1-0.2-0.2-0.4
			c-0.1-0.2-0.2-0.3-0.3-0.5c0,0-0.1-0.1-0.1-0.1c0,0-0.1,0.1-0.1,0.1c0,0,0,0.1,0,0.1c0,1.4,0,2.9,0,4.3c0,0,0,0.1,0,0.1
			c0,0.1,0,0.1-0.1,0.1c-0.2,0-0.4,0-0.6,0c-0.5,0-0.9,0-1.4,0c-0.1,0-0.1,0-0.1-0.1c0-1.7,0-3.3,0-5c0-1.1,0-2.2,0-3.3
			c0-0.1,0-0.1,0.1-0.1c0.7,0,1.5,0,2.2,0c0.1,0,0.2,0.1,0.2,0.1c0.1,0.1,0.2,0.3,0.2,0.4c0.1,0.2,0.2,0.3,0.3,0.5
			c0.1,0.1,0.1,0.2,0.2,0.3c0.1,0.2,0.3,0.4,0.4,0.6c0.1,0.1,0.1,0.2,0.2,0.4c0.1,0.1,0.2,0.3,0.3,0.4c0.1,0.1,0.1,0.2,0.2,0.3
			c0.1,0.1,0.2,0.3,0.2,0.4c0.1,0.1,0.2,0.3,0.2,0.4c0,0,0,0.1,0.1,0.1c0,0,0.1,0.1,0.1,0.1c0,0,0-0.1,0-0.1c0-0.5,0-1,0-1.5
			c0-0.8,0-1.5,0-2.3c0-0.2,0-0.2,0.2-0.2c0.6,0,1.2,0,1.7,0c0.1,0,0.1,0,0.1,0.1C144.6,57.6,144.6,58.9,144.6,60.3z"/>
		<path d="M158.5,45.1c0.1,0,0.1,0,0.1,0c0.9,0,1.8,0,2.7,0c0.1,0,0.2,0.1,0.3,0.2c0,0.1,0.1,0.1,0.1,0.2c0.1,0.2,0.2,0.4,0.3,0.5
			c0.1,0.2,0.3,0.4,0.4,0.7c0,0.1,0.1,0.1,0.1,0.2c0,0.1,0.1,0.1,0.2,0.1c0.1,0,0.1-0.1,0.1-0.2c0,0,0-0.1,0.1-0.1
			c0.1-0.2,0.3-0.4,0.4-0.7c0.1-0.2,0.2-0.3,0.3-0.5c0.1-0.1,0.1-0.2,0.2-0.3c0-0.1,0.1-0.1,0.2-0.1c0.9,0,1.8,0,2.7,0
			c0.1,0,0.1,0,0.1,0.1c-0.1,0.2-0.2,0.3-0.3,0.5c-0.1,0.2-0.2,0.4-0.3,0.6c-0.1,0.2-0.2,0.3-0.3,0.5c-0.1,0.2-0.3,0.4-0.4,0.6
			c0,0.1-0.1,0.2-0.1,0.2c-0.1,0.2-0.2,0.3-0.3,0.5c-0.1,0.1-0.2,0.3-0.2,0.4c0,0.1-0.1,0.1-0.1,0.2c-0.1,0.1-0.1,0.2-0.2,0.2
			c-0.1,0.2-0.2,0.3-0.3,0.5c0,0.1,0,0.3,0,0.3c0.1,0.1,0.2,0.3,0.3,0.4c0.1,0.1,0.1,0.2,0.2,0.4c0.1,0.1,0.2,0.2,0.3,0.4
			c0.1,0.1,0.2,0.3,0.3,0.5c0.1,0.1,0.1,0.2,0.2,0.3c0.1,0.2,0.3,0.4,0.4,0.7c0.1,0.2,0.2,0.3,0.3,0.5c0.1,0.2,0.2,0.4,0.3,0.6
			c0.1,0.1,0.1,0.2,0.2,0.3c0.1,0.2,0.2,0.4,0.3,0.5c0,0.1,0.1,0.1,0.1,0.2c0,0-0.1,0-0.1,0c-0.9,0-1.8,0-2.7,0
			c-0.1,0-0.1,0-0.2-0.1c-0.1-0.1-0.1-0.2-0.2-0.3c-0.1-0.1-0.1-0.2-0.1-0.2c-0.1-0.2-0.2-0.3-0.3-0.5c-0.1-0.1-0.2-0.3-0.2-0.4
			c-0.1-0.1-0.1-0.2-0.2-0.3c-0.1-0.1-0.1-0.2-0.2-0.3c0-0.1-0.2-0.1-0.2,0c-0.1,0.1-0.1,0.2-0.2,0.3c0,0-0.1,0.1-0.1,0.1
			c-0.2,0.3-0.3,0.5-0.5,0.8c-0.1,0.2-0.2,0.3-0.3,0.5c-0.1,0.1-0.1,0.2-0.2,0.3c0,0-0.1,0.1-0.1,0.1c-0.9,0-1.8,0-2.6,0
			c0,0-0.1,0-0.1,0c0.1-0.1,0.2-0.2,0.2-0.4c0.1-0.1,0.1-0.2,0.2-0.3c0.1-0.1,0.1-0.2,0.2-0.3c0.1-0.1,0.1-0.2,0.2-0.3
			c0.1-0.1,0.2-0.3,0.2-0.4c0-0.1,0.1-0.2,0.1-0.3c0.1-0.1,0.1-0.2,0.2-0.3c0.1-0.1,0.1-0.2,0.2-0.4c0.1-0.1,0.2-0.3,0.2-0.4
			c0.1-0.2,0.2-0.3,0.3-0.5c0.1-0.2,0.2-0.3,0.2-0.4c0-0.1,0.1-0.1,0.1-0.2c0.1-0.1,0.2-0.2,0.2-0.4c0.1-0.1,0.1-0.2,0.1-0.4
			c0-0.1,0-0.1-0.1-0.2c-0.2-0.3-0.3-0.5-0.5-0.8c-0.1-0.2-0.2-0.3-0.3-0.5c-0.1-0.2-0.2-0.4-0.3-0.5c-0.1-0.1-0.1-0.2-0.2-0.3
			c-0.1-0.1-0.1-0.2-0.2-0.3c-0.1-0.1-0.1-0.3-0.2-0.4c0-0.1-0.1-0.2-0.2-0.2c-0.1-0.1-0.1-0.2-0.2-0.3c-0.1-0.2-0.2-0.3-0.3-0.5
			C158.7,45.5,158.6,45.3,158.5,45.1z"/>
		<path d="M144.2,49.8c0-1.5,0-3,0-4.4c0-0.2,0-0.2,0.2-0.2c1.8,0,3.7,0,5.5,0c0.2,0,0.2,0,0.2,0.2c0,0.1,0,0.1,0,0.2
			c0,0.2,0,0.4,0.1,0.6c0,0,0,0.1,0,0.1c0,0.2,0,0.4,0,0.6c0,0.2,0,0.4,0,0.7c0,0,0,0.1,0,0.1c0,0.1,0,0.1-0.1,0.1c0,0-0.1,0-0.1,0
			c-1,0-1.9,0-2.9,0c-0.2,0-0.2,0-0.2,0.2c0,0.3,0,0.6,0,0.9c0,0.2,0,0.2,0.2,0.2c0.8,0,1.5,0,2.3,0c0.2,0,0.2,0,0.2,0.2
			c0,0.7,0,1.5,0,2.2c0,0.1,0,0.1-0.1,0.1c-0.8,0-1.6,0-2.4,0c-0.2,0-0.2,0-0.2,0.2c0,0.9,0,1.8,0,2.7c0,0.2,0,0.2-0.2,0.2
			c-0.8,0-1.5,0-2.3,0c-0.2,0-0.2,0-0.2-0.2C144.2,52.7,144.2,51.3,144.2,49.8z"/>
		<path d="M164.2,55.8c0.1,0,0.3,0,0.4,0c0.1,0,0.2,0,0.2,0.1c0,0,0,0,0,0c0.1,0,0.3,0.1,0.4,0.1c0.1,0,0.2,0,0.2,0.1
			c0.2,0.1,0.5,0.2,0.6,0.4c0.1,0.1,0.3,0.3,0.4,0.4c0.1,0.1,0.2,0.3,0.2,0.4c0.1,0.1,0.1,0.3,0.2,0.4c0,0.1,0.1,0.1,0.1,0.2
			c0,0.1,0,0.1-0.1,0.1c-0.1,0-0.3,0.1-0.4,0.1c-0.1,0-0.2,0.1-0.4,0.1c0,0,0,0,0,0c-0.1,0.1-0.3,0.1-0.5,0.2
			c-0.1,0.1-0.2,0.1-0.4,0.1c0,0-0.1,0-0.1-0.1c0-0.1-0.1-0.1-0.1-0.2c-0.1-0.2-0.2-0.3-0.4-0.4c-0.1-0.1-0.2-0.1-0.3-0.1
			c-0.2,0-0.5,0-0.7,0c-0.1,0-0.1,0-0.2,0.1c-0.1,0.1-0.2,0.2-0.2,0.3c0,0,0,0.1,0,0.1c0,0.1,0,0.1,0,0.2c0,0.2,0.1,0.4,0.3,0.4
			c0.1,0,0.3,0.1,0.4,0.1c0.2,0.1,0.4,0.1,0.7,0.2c0.2,0,0.3,0.1,0.5,0.2c0,0,0.1,0,0.1,0c0,0,0,0,0,0c0.2,0.1,0.3,0.1,0.5,0.2
			c0.2,0.1,0.3,0.2,0.4,0.2c0,0,0.1,0.1,0.1,0.1c0.2,0.2,0.4,0.4,0.6,0.6c0.1,0.2,0.2,0.3,0.2,0.5c0.1,0.4,0.1,0.7,0.1,1.1
			c0,0.1,0,0.2,0,0.3c0,0.1-0.1,0.2-0.1,0.3c0,0.1-0.1,0.2-0.1,0.2c-0.1,0.1-0.1,0.3-0.2,0.4c-0.1,0.2-0.3,0.3-0.4,0.4
			c-0.2,0.2-0.3,0.3-0.6,0.4c-0.1,0.1-0.3,0.2-0.4,0.2c-0.1,0-0.2,0.1-0.4,0.1c0,0,0,0-0.1,0c-0.1,0.1-0.2,0-0.3,0.1
			c-0.3,0.1-0.7,0-1,0c-0.2,0-0.4,0-0.6-0.1c-0.1,0-0.2-0.1-0.3-0.1c-0.1,0-0.2-0.1-0.4-0.1c-0.3-0.1-0.5-0.3-0.7-0.5
			c0,0-0.1-0.1-0.2-0.1c-0.2-0.2-0.3-0.4-0.4-0.5c-0.1-0.1-0.2-0.3-0.3-0.5c0-0.1-0.1-0.2-0.1-0.3c0,0,0,0,0-0.1
			c-0.1-0.1,0-0.2,0.2-0.2c0.2,0,0.4-0.1,0.6-0.1c0.2-0.1,0.3-0.1,0.5-0.1c0.1,0,0.1,0,0.2-0.1c0,0,0,0,0,0c0.1,0,0.3-0.1,0.4-0.1
			c0.1,0,0.1,0,0.2,0.1c0,0.1,0.1,0.3,0.1,0.4c0.1,0.1,0.2,0.2,0.3,0.3c0,0,0.1,0.1,0.1,0.1c0.1,0.1,0.2,0.1,0.4,0.1
			c0.2,0,0.4,0,0.6,0c0.1,0,0.3,0,0.4,0c0.1,0,0.2-0.1,0.2-0.2c0.1-0.2,0.1-0.4,0.1-0.6c0-0.1-0.1-0.3-0.3-0.3
			c-0.1,0-0.2-0.1-0.4-0.1c0,0-0.1,0-0.1,0c-0.1,0-0.1,0-0.2-0.1c0,0,0,0,0,0c-0.1,0-0.2,0-0.2-0.1c-0.1,0-0.2-0.1-0.3-0.1
			c-0.2,0-0.3-0.1-0.4-0.2c-0.1,0-0.2-0.1-0.3-0.1c0,0-0.1,0-0.1,0c-0.1-0.1-0.3-0.1-0.4-0.2c-0.1-0.1-0.2-0.1-0.3-0.2
			c-0.2-0.1-0.3-0.3-0.4-0.4c-0.1-0.1-0.1-0.2-0.2-0.3c0,0-0.1-0.1-0.1-0.2c-0.1-0.1-0.1-0.3-0.1-0.4c0,0,0-0.1,0-0.1
			c0-0.2,0-0.3,0-0.5c0-0.2,0-0.3,0.1-0.5c0-0.1,0-0.2,0.1-0.3c0.1-0.1,0.1-0.3,0.2-0.4c0.1-0.2,0.3-0.3,0.4-0.5
			c0-0.1,0.1-0.1,0.2-0.2c0.1-0.1,0.2-0.2,0.3-0.2c0.1-0.1,0.3-0.2,0.5-0.3c0.1,0,0.1,0,0.2-0.1c0.1-0.1,0.2-0.1,0.2-0.1
			c0,0,0.1,0,0.1,0c0.1-0.1,0.2-0.1,0.3-0.1c0.1,0,0.1,0,0.2,0c0,0,0.1,0,0.1,0C163.9,55.7,164,55.8,164.2,55.8z"/>
		<path d="M145.2,60.3c0-1.4,0-2.7,0-4.1c0-0.2,0-0.2,0.2-0.2c1.7,0,3.4,0,5.2,0c0.2,0,0.2,0,0.2,0.2c0,0.6,0,1.1,0,1.7
			c0,0.1,0,0.1-0.1,0.1c-1,0-2,0-3,0c-0.2,0-0.2,0-0.2,0.2c0,0.3,0,0.6,0,0.9c0,0.1,0,0.1,0.1,0.1c0.8,0,1.6,0,2.5,0
			c0.2,0,0.2,0,0.2,0.2c0,0.5,0,0.9,0,1.4c0,0.2,0,0.2-0.2,0.2c-0.8,0-1.6,0-2.4,0c-0.2,0-0.2,0-0.2,0.2c0,0.4,0,0.8,0,1.2
			c0,0.2,0,0.2,0.2,0.2c1,0,2.1,0,3.1,0c0.2,0,0.2,0,0.2,0.2c0,0.5,0,1.1,0,1.6c0,0.2,0,0.2-0.2,0.2c-1.7,0-3.5,0-5.2,0
			c-0.1,0-0.1,0-0.1-0.2C145.2,63,145.2,61.7,145.2,60.3z"/>
	</g>
</g>
<g id="nFVVEr_2_" class="st0">
	<g>
		<path d="M329.7,19.8c-0.4-0.1-0.8-0.2-1.2-0.3c-1.3-0.5-2.1-1.5-2.4-2.9c-0.3-1.6-0.1-3.2,0.6-4.7c0.8-1.6,2.1-2.5,3.9-2.8
			c1.1-0.2,2.2-0.2,3.2,0.2c1.4,0.5,2.3,1.5,2.6,3c0.3,1.6,0.1,3.2-0.6,4.7c-0.8,1.5-2,2.4-3.7,2.7c-0.1,0-0.3,0.1-0.4,0.1
			C331,19.8,330.4,19.8,329.7,19.8z M333,13.3c0-0.2-0.1-0.5-0.2-0.9c-0.2-0.5-0.5-0.7-1-0.7c-0.8-0.1-1.3,0.3-1.7,1
			c-0.5,1-0.7,2.1-0.6,3.2c0.1,0.8,0.6,1.2,1.4,1.2c0.7,0,1.2-0.4,1.5-1C332.8,15.3,333,14.4,333,13.3z"/>
		<path d="M290,19.8c-0.5-0.1-0.9-0.2-1.4-0.4c-1.3-0.5-2-1.5-2-2.9c0-0.8,0.1-1.6,0.3-2.4c0.3-1.5,0.5-3.1,0.8-4.6
			c0-0.2,0.1-0.3,0.3-0.3c0.9,0,1.9,0,2.8,0c0.3,0,0.3,0,0.2,0.3c-0.3,1.9-0.7,3.8-1,5.7c0,0.3-0.1,0.6-0.1,0.8
			c0,0.9,0.5,1.3,1.5,1.2c0.6-0.1,0.9-0.4,1.1-0.9c0.2-0.6,0.3-1.3,0.5-2c0.3-1.6,0.6-3.2,0.9-4.8c0-0.2,0.1-0.3,0.3-0.3
			c0.9,0,1.9,0,2.8,0c0.3,0,0.3,0,0.2,0.3c-0.3,1.7-0.6,3.4-0.9,5.2c-0.1,0.7-0.3,1.5-0.5,2.2c-0.5,1.7-1.7,2.6-3.4,2.8
			c-0.2,0-0.3,0.1-0.5,0.1C291.4,19.8,290.7,19.8,290,19.8z"/>
		<path d="M339.8,19.8c-0.5-0.1-1-0.2-1.5-0.4c-0.8-0.3-1.3-0.9-1.6-1.7c-0.1-0.2,0-0.3,0.2-0.3c0.8-0.2,1.7-0.4,2.5-0.7
			c0.2,0,0.2,0,0.3,0.1c0.3,0.5,0.9,0.8,1.5,0.6c0.3-0.1,0.5-0.3,0.5-0.6c0-0.3-0.1-0.5-0.4-0.7c-0.2-0.1-0.4-0.1-0.6-0.2
			c-0.4-0.2-0.8-0.3-1.2-0.5c-1.1-0.5-1.7-1.4-1.8-2.6c-0.1-1.3,0.5-2.7,1.9-3.4c0.4-0.2,0.9-0.3,1.4-0.4c1.1-0.2,2.1-0.1,3.1,0.2
			c0.8,0.3,1.5,0.8,1.7,1.7c0.1,0.2,0,0.3-0.2,0.3c-0.9,0.2-1.7,0.5-2.6,0.7c-0.2,0-0.2,0-0.3-0.1c-0.3-0.4-0.8-0.6-1.3-0.4
			c-0.3,0.1-0.4,0.3-0.5,0.6c0,0.3,0.1,0.5,0.3,0.6c0.4,0.2,0.8,0.3,1.2,0.4c0.4,0.2,0.8,0.3,1.2,0.5c1.1,0.7,1.5,1.7,1.4,3
			c-0.2,1.9-1.4,2.7-3,3c-0.2,0.1-0.5,0.1-0.7,0.1C341,19.8,340.4,19.8,339.8,19.8z"/>
		<path d="M279.6,9.2c-0.2,1.3-0.4,2.5-0.7,3.7c0.3,0,0.5,0,0.8,0c0.6,0,1.2,0,1.8,0c0.2,0,0.3-0.1,0.3-0.2c0.2-1.1,0.4-2.2,0.6-3.2
			c0-0.1,0.1-0.2,0.2-0.2c1,0,2,0,3.1,0c0,0,0.1,0,0.2,0c-0.1,0.4-0.1,0.8-0.2,1.2c-0.4,2.5-0.9,5-1.3,7.5c-0.1,0.5-0.2,0.9-0.2,1.4
			c0,0.1,0,0.2-0.2,0.2c-1,0-2.1,0-3.1,0c0,0-0.1,0-0.1,0c0.2-1.3,0.4-2.5,0.7-3.8c-0.1,0-0.2,0-0.3,0c-0.8,0-1.5,0-2.3,0
			c-0.2,0-0.3,0.1-0.3,0.3c-0.2,1.1-0.4,2.2-0.6,3.3c0,0.2-0.1,0.2-0.3,0.2c-1,0-1.9,0-2.9,0c-0.2,0-0.3,0-0.2-0.3
			c0.3-1.7,0.6-3.5,0.9-5.2c0.3-1.5,0.5-3.1,0.8-4.6c0-0.2,0.1-0.3,0.4-0.3c0.9,0,1.9,0,2.8,0C279.4,9.2,279.5,9.2,279.6,9.2z"/>
		<path d="M319.4,9.2c0.8,0,1.7,0,2.5,0c0.6,0,1.3,0.2,1.8,0.5c0.9,0.5,1.4,1.2,1.5,2.3c0.1,0.7,0,1.4-0.2,2
			c-0.4,1.6-1.5,2.6-3.2,2.8c-0.8,0.1-1.7,0.1-2.5,0.1c-0.3,0-0.3,0-0.4,0.3c-0.1,0.7-0.3,1.4-0.4,2.1c0,0.2-0.1,0.2-0.3,0.2
			c-1,0-2,0-3,0c-0.2,0-0.2-0.1-0.2-0.3c0.6-3.3,1.2-6.6,1.7-9.9c0-0.2,0.1-0.2,0.3-0.2C318,9.2,318.7,9.2,319.4,9.2
			C319.4,9.2,319.4,9.2,319.4,9.2z M319.6,14.3c0.4,0,0.8,0,1.2,0c0.9-0.1,1.3-0.6,1.3-1.5c0-0.5-0.4-0.8-0.9-0.9
			c-0.3,0-0.6,0-0.9,0c-0.1,0-0.2,0-0.2,0.2c0,0.2-0.1,0.4-0.1,0.6C319.8,13.3,319.7,13.8,319.6,14.3z"/>
		<path d="M302,13.9c0.9,0,1.8,0,2.8,0c0,0.3-0.1,0.5-0.1,0.7c-0.1,0.6-0.2,1.1-0.3,1.7c0,0.2-0.1,0.3-0.3,0.3c-0.8,0-1.5,0-2.3,0
			c-0.2,0-0.3,0.1-0.3,0.3c-0.1,0.8-0.3,1.7-0.4,2.5c0,0.1-0.1,0.2-0.2,0.2c-1,0-2,0-3.1,0c0,0-0.1,0-0.2,0c0.1-0.4,0.1-0.8,0.2-1.2
			c0.4-2.5,0.9-5.1,1.3-7.6c0.1-0.5,0.2-0.9,0.2-1.4c0-0.2,0.1-0.3,0.3-0.3c2.3,0,4.6,0,6.9,0c0.3,0,0.3,0,0.2,0.3
			c-0.1,0.8-0.3,1.5-0.4,2.3c0,0.2-0.1,0.3-0.3,0.3c-1.2,0-2.3,0-3.5,0c-0.1,0-0.2,0-0.3,0.2c-0.1,0.5-0.2,1-0.3,1.5
			C302,13.8,302,13.8,302,13.9z"/>
		<path d="M310.8,13.9c0.1,0,0.3,0,0.4,0c0.7,0,1.5,0,2.2,0c0.3,0,0.3,0,0.2,0.3c-0.1,0.7-0.3,1.4-0.4,2.2c0,0.2-0.1,0.2-0.3,0.2
			c-0.8,0-1.5,0-2.3,0c-0.2,0-0.3,0.1-0.4,0.3c-0.1,0.8-0.3,1.7-0.4,2.5c0,0.2-0.1,0.3-0.3,0.2c-1,0-2,0-2.9,0
			c-0.2,0-0.3-0.1-0.2-0.3c0.6-3.2,1.1-6.5,1.7-9.7c0.1-0.4,0.1-0.4,0.5-0.4c2.2,0,4.4,0,6.6,0c0.3,0,0.3,0,0.3,0.3
			c-0.1,0.7-0.3,1.5-0.4,2.2c0,0.2-0.1,0.3-0.3,0.3c-1.1,0-2.3,0-3.4,0c-0.2,0-0.3,0-0.3,0.3C311,12.8,310.9,13.4,310.8,13.9z"/>
		<path d="M349.5,12c-0.9,0-1.8,0-2.7,0c0.1-0.4,0.1-0.7,0.2-1c0.1-0.5,0.2-1,0.3-1.5c0-0.2,0.1-0.3,0.3-0.3c2.7,0,5.4,0,8.1,0
			c0.1,0,0.2,0,0.3,0c0,0.1,0,0.2,0,0.2c-0.1,0.8-0.3,1.5-0.4,2.3c0,0.2-0.1,0.3-0.3,0.3c-0.7,0-1.3,0-2,0c-0.2,0-0.3,0-0.3,0.2
			c-0.4,2.4-0.8,4.7-1.2,7.1c0,0.1-0.1,0.2-0.2,0.2c-1,0-2.1,0-3.1,0c0,0-0.1,0-0.1,0C348.7,17.1,349.1,14.6,349.5,12z"/>
	</g>
</g>
<g id="TB3qIq_2_" class="st0">
	<g>
		<path d="M198,9.5c-0.5-0.1-0.9-0.2-1.3-0.3c-1.2-0.2-2.3-0.3-3.5-0.3c-0.9,0-1.8,0.2-2.7,0.5c-1.4,0.6-2.2,1.6-2.3,3
			c-0.1,0.9,0.2,2,1.3,2.5c0.4,0.2,0.9,0.4,1.3,0.6c0.6,0.3,1.1,0.6,1.6,1.1c0.9,0.9,0.7,2.3-0.3,3c-0.7,0.5-1.5,0.7-2.4,0.5
			c-1-0.1-2-0.3-2.9-0.8c-0.8-0.4-1.5-0.8-2.2-1.2c-0.1,0-0.1-0.2-0.1-0.2c-0.1-0.7-0.1-1.5-0.2-2.2c-0.1-0.9-0.2-1.7-0.2-2.6
			c-0.1-0.7-0.1-1.5-0.2-2.2c-0.1-0.9-0.2-1.7-0.2-2.6c0-0.4-0.1-0.9,0-1.3c0.2-1.1,1-1.8,2.1-1.8c0.9-0.1,1.8-0.2,2.7-0.2
			c0.7-0.1,1.5-0.1,2.2-0.2c0.9-0.1,1.7-0.2,2.6-0.2c0.9-0.1,1.7-0.1,2.6-0.2c0.8-0.1,1.9,0.6,2.1,1.8c0.1,0.8,0.1,1.6,0.2,2.4
			C198,9,198,9.2,198,9.5z M186.9,9.4C186.9,9.5,186.9,9.5,186.9,9.4c0,0.1-0.1,0.2-0.1,0.3c-0.4,0.8-0.5,1.7-0.5,2.6
			c0,0.5,0,0.5,0.5,0.5c0.1,0,0.1,0,0.2-0.1c0.1-0.5,0.1-1.1,0.3-1.6c0.3-1.2,1-2,2.1-2.6c0.3-0.1,0.6-0.3,0.9-0.4
			c0-0.1-0.1-0.3-0.1-0.4c0-0.1-0.1-0.1-0.2-0.1c-0.8,0.2-1.6,0.4-2.3,1c0,0,0,0-0.1,0c0,0,0,0,0-0.1c0,0,0-0.1,0.1-0.1
			c0.4-0.7,0.7-1.5,0.7-2.4c0,0-0.1-0.1-0.1-0.1c-0.2,0-0.3,0-0.5,0c0,0,0,0.1,0,0.1c-0.1,0.7-0.3,1.4-0.7,2c-0.6,0.8-1.5,1-2.3,0.5
			c-0.1,0-0.1-0.1-0.2-0.1c-0.1,0.2-0.2,0.3-0.3,0.5c0.2,0.2,0.5,0.4,0.8,0.4C185.7,9.7,186.3,9.7,186.9,9.4z M186.9,7.4
			c0-0.2-0.1-0.4-0.2-0.5c-0.3-0.2-0.6-0.2-0.8,0.1c-0.2,0.3-0.1,0.7,0.1,1c0.2,0.2,0.4,0.2,0.6,0.2C186.7,8,186.9,7.7,186.9,7.4z"
			/>
		<path d="M184.5,20.4c0.3,0.1,0.5,0.2,0.8,0.3c1.2,0.5,2.5,0.9,3.8,1.2c1.5,0.3,3,0.3,4.5,0c0.5-0.1,1-0.3,1.5-0.7
			c0.6-0.5,1-1.2,1.1-1.9c0.3-1.6-0.5-2.9-1.7-3.6c-0.4-0.2-0.9-0.4-1.3-0.6c-0.5-0.2-0.9-0.5-1.4-0.8c-0.8-0.7-0.8-1.6-0.5-2.4
			c0.3-0.7,1-1.1,1.7-1.3c1.8-0.5,3.5-0.2,5.1,0.6c0.1,0,0.1,0.1,0.1,0.2c0.1,1.4,0.2,2.8,0.4,4.2c0.1,1.5,0.3,2.9,0.4,4.4
			c0,0.4,0.1,0.8,0,1.2c-0.2,0.9-1.1,1.5-2,1.6c-0.9,0.1-1.7,0.2-2.6,0.2c-0.7,0.1-1.5,0.1-2.2,0.2c-0.7,0.1-1.4,0.1-2.2,0.2
			c-0.7,0.1-1.5,0.1-2.2,0.2c-0.3,0-0.6,0.1-0.9,0.1c-1.1,0-2.1-0.8-2.2-1.9C184.6,21.3,184.6,20.8,184.5,20.4z"/>
		<path d="M204.1,15.3c0.4,0.1,0.8,0.3,1.2,0.4c0.6,0.2,1.2,0.2,1.7,0.1c0.5-0.1,0.9-0.5,0.8-1c0-0.4-0.2-0.6-0.5-0.8
			c-0.3-0.2-0.7-0.3-1-0.5c-0.6-0.2-1.2-0.5-1.7-0.9c-1.3-1.1-1.1-3.1,0.3-4c0.6-0.4,1.2-0.6,1.9-0.6c0.9-0.1,1.8,0,2.6,0.3
			c0.3,0.1,0.3,0.1,0.2,0.4c-0.1,0.4-0.2,0.8-0.3,1.2c0,0.1,0,0.1-0.1,0.2c-0.1,0-0.1,0-0.2-0.1c-0.6-0.3-1.2-0.4-1.9-0.4
			c-0.2,0-0.5,0.1-0.7,0.2c-0.5,0.3-0.6,0.9-0.1,1.3c0.3,0.2,0.6,0.3,0.8,0.5c0.5,0.2,1,0.4,1.5,0.7c0.6,0.3,1.1,0.8,1.3,1.5
			c0.3,1.2-0.1,2.6-1.5,3.2c-0.5,0.2-1.1,0.4-1.6,0.4c-1,0.1-2-0.1-2.9-0.4c-0.2-0.1-0.2-0.1-0.2-0.3
			C203.9,16.3,204,15.8,204.1,15.3z"/>
		<path d="M233.5,17.6c-1.1,0-2-0.3-2.7-1.1c-0.4-0.5-0.7-1.1-0.8-1.7c-0.1-0.8-0.1-1.5,0.2-2.2c0.3-0.8,0.9-1.4,1.7-1.7
			c1-0.4,2-0.4,3,0c1.1,0.5,1.7,1.4,1.9,2.6c0.1,0.6,0.1,1.3-0.2,1.9c-0.4,1.3-1.4,2-2.7,2.2C233.8,17.6,233.6,17.6,233.5,17.6z
			 M234.8,14.1c0-0.5-0.1-1-0.3-1.4c-0.2-0.3-0.4-0.5-0.7-0.5c-0.5-0.1-1,0.1-1.3,0.6c-0.2,0.4-0.3,0.9-0.3,1.3c0,0.5,0.1,1,0.4,1.5
			c0.5,0.7,1.5,0.7,1.9-0.1C234.7,15,234.8,14.5,234.8,14.1z"/>
		<path d="M220.5,11.6c0.1-0.1,0.1-0.1,0.1-0.2c0.8-1,2.5-1.2,3.5-0.4c0.5,0.4,0.7,0.9,0.8,1.5c0,0.3,0.1,0.6,0.1,0.9
			c0,1.2,0,2.5,0,3.7c0,0.2,0,0.2-0.2,0.2c-0.6,0-1.1,0-1.7,0c-0.2,0-0.2,0-0.2-0.2c0-1.2,0-2.3,0-3.5c0-0.2,0-0.5-0.1-0.7
			c-0.2-0.7-1.1-1-1.6-0.4c-0.3,0.3-0.4,0.6-0.4,1c0,1.2,0,2.4,0,3.6c0,0.2,0,0.2-0.2,0.2c-0.6,0-1.1,0-1.7,0
			c-0.2,0-0.2-0.1-0.2-0.2c0-1.8,0-3.6,0-5.3c0-0.3,0-0.7,0-1c0-0.1,0-0.2,0.2-0.2c0.5,0,1,0,1.5,0c0.1,0,0.2,0,0.2,0.2
			C220.4,11.1,220.5,11.3,220.5,11.6z"/>
		<path d="M213.1,14.7c0,0.3,0.2,0.6,0.4,0.8c0.4,0.3,0.8,0.4,1.3,0.5c0.6,0,1.2,0,1.8-0.2c0,0,0.1,0,0.2,0c0,0.1,0.1,0.3,0.1,0.4
			c0.1,0.3,0.1,0.6,0.2,0.9c0,0.1,0,0.2-0.1,0.2c-0.5,0.1-0.9,0.3-1.4,0.3c-0.7,0.1-1.4,0.1-2.1-0.1c-1.2-0.3-2-1.1-2.2-2.4
			c-0.2-1.1-0.1-2.2,0.6-3.2c0.6-0.8,1.4-1.2,2.5-1.3c0.6,0,1.1,0,1.7,0.3c0.8,0.4,1.2,1.1,1.4,1.9c0.1,0.6,0.1,1.2,0.1,1.8
			c0,0.1-0.1,0.2-0.2,0.2c-0.2,0-0.3,0-0.5,0c-1.1,0-2.2,0-3.4,0C213.2,14.7,213.2,14.7,213.1,14.7z M213.1,13.3c0.1,0,0.2,0,0.3,0
			c0.6,0,1.3,0,1.9,0c0.1,0,0.2,0,0.2-0.1c0.1-0.5-0.3-1-0.8-1.2C213.9,11.8,213.1,12.4,213.1,13.3z"/>
		<path d="M240.1,11.9c0.3-0.6,0.6-1,1.2-1.2c0.3-0.1,0.6-0.2,0.9-0.1c0,0,0.1,0.1,0.1,0.1c0,0.6,0,1.2,0,1.9c-0.1,0-0.2,0-0.3,0
			c-0.3,0-0.6,0-0.8,0.1c-0.6,0.2-0.9,0.6-0.9,1.3c0,1.1,0,2.2,0,3.2c0,0.2,0,0.2-0.2,0.2c-0.6,0-1.1,0-1.7,0
			c-0.2,0-0.2-0.1-0.2-0.2c0-1.9,0-3.8,0-5.8c0-0.2,0-0.4,0-0.6c0-0.1,0-0.1,0.1-0.1c0.5,0,1,0,1.5,0c0.1,0,0.1,0,0.1,0.1
			c0,0.3,0,0.6,0.1,0.9C240,11.8,240,11.9,240.1,11.9z"/>
		<path d="M226.6,14c0-1,0-2.1,0-3.1c0-0.2,0-0.2,0.2-0.2c0.6,0,1.1,0,1.7,0c0.2,0,0.2,0,0.2,0.2c0,2.1,0,4.2,0,6.3
			c0,0.2-0.1,0.2-0.2,0.2c-0.6,0-1.1,0-1.7,0c-0.2,0-0.2-0.1-0.2-0.2C226.6,16.2,226.6,15.1,226.6,14z"/>
		<path d="M254.7,14.7c0.5-0.6,1.4-0.7,1.8,0c0,0,0.1-0.1,0.1-0.1c0.3-0.4,0.8-0.5,1.2-0.3c0.5,0.1,0.7,0.5,0.7,0.9
			c0,0.6,0,1.1,0,1.7c0,0.5,0,0.5-0.5,0.5c-0.1,0-0.2,0-0.3,0c-0.2,0-0.2-0.1-0.2-0.2c0-0.5,0-1.1,0-1.6c0-0.1,0-0.2,0-0.2
			c-0.1-0.2-0.2-0.3-0.4-0.3c-0.2,0-0.4,0.2-0.4,0.4c0,0.3,0,0.6,0,0.8c0,0.3,0,0.7,0,1c0,0.1,0,0.2-0.2,0.2c-0.2,0-0.4,0-0.6,0
			c-0.1,0-0.2-0.1-0.2-0.2c0-0.5,0-1,0-1.5c0-0.1,0-0.3-0.1-0.4c-0.1-0.3-0.5-0.4-0.7-0.1c-0.1,0.1-0.1,0.3-0.1,0.4
			c0,0.5,0,1.1,0,1.6c0,0.1,0,0.2-0.2,0.2c-0.2,0-0.4,0-0.6,0c-0.1,0-0.2,0-0.2-0.2c0-0.7,0-1.4,0-2.1c0-0.2,0-0.4,0-0.6
			c0-0.1,0-0.2,0.2-0.2c0.2,0,0.3,0,0.5,0c0.2,0,0.2,0,0.2,0.2C254.7,14.6,254.7,14.6,254.7,14.7z"/>
		<path d="M251.3,14.2c0.9,0,1.6,0.7,1.6,1.6c0,1-0.7,1.7-1.6,1.6c-1,0-1.6-0.7-1.6-1.6C249.7,14.9,250.4,14.2,251.3,14.2z
			 M252,15.8c-0.1-0.2-0.1-0.5-0.2-0.6c-0.2-0.3-0.6-0.3-0.8,0c-0.2,0.3-0.2,1,0,1.3c0.2,0.4,0.7,0.4,0.9,0
			C251.9,16.3,251.9,16.1,252,15.8z"/>
		<path d="M243.6,15c0.7,0,1.2,0.5,1.2,1.3c0,0.7-0.5,1.2-1.2,1.2c-0.7,0-1.2-0.5-1.2-1.2C242.4,15.5,242.9,15,243.6,15z"/>
		<path d="M249,16.6c0,0.2,0.1,0.4,0.1,0.6c0,0,0,0.1-0.1,0.1c-0.5,0.2-1.4,0.2-1.9-0.3c-0.5-0.5-0.6-1-0.4-1.7
			c0.1-0.6,0.6-1,1.2-1.1c0.4-0.1,0.7-0.1,1.1,0c0.1,0,0.2,0.1,0.1,0.2c0,0.1-0.1,0.3-0.1,0.4c0,0.1-0.1,0.1-0.2,0.1
			c-0.2,0-0.4-0.1-0.6,0c-0.5,0.1-0.7,0.5-0.6,1c0.1,0.4,0.5,0.7,0.9,0.6C248.7,16.7,248.8,16.6,249,16.6z"/>
		<path d="M227.7,9.9c-0.7,0-1.2-0.5-1.2-1.1c0-0.6,0.5-1.1,1.2-1.1c0.7,0,1.2,0.5,1.2,1.1C228.9,9.4,228.4,9.9,227.7,9.9z"/>
	</g>
</g>
<g id="tRXHi7_1_" class="st0">
	<g>
		<path d="M87,6.9c1.6-0.2,3.2-0.4,4.8-0.2c2.4,0.3,3.9,1.9,4,4.3c0,0.9,0,1.8-0.2,2.6c-0.5,1.8-1.9,2.7-3.7,3.1
			c-0.7,0.2-1.5,0.2-2.3,0.3c0,1.3,0,2.7,0,4.1c-0.9,0-1.7,0-2.6,0C87,16.3,87,11.6,87,6.9z M89.6,14.6c1.4,0.2,2.7-0.3,3.2-1.3
			c0.6-1.2,0.6-2.5-0.1-3.6c-0.7-1.1-1.9-1.1-3.1-0.9C89.6,10.8,89.6,12.7,89.6,14.6z"/>
		<path d="M110.1,16.9c-2.3,0-4.5,0-6.7,0c0.1,1.2,1.1,2.2,2.5,2.2c0.5,0,1,0,1.5-0.1c0.5-0.1,1-0.3,1.5-0.5
			c0.2,0.6,0.4,1.1,0.7,1.8c-0.4,0.2-0.7,0.4-1.1,0.5c-1.2,0.4-2.5,0.5-3.8,0.2c-2.2-0.5-3.6-2.2-3.7-4.5c-0.1-1.7,0.3-3.3,1.6-4.4
			c1.8-1.5,5.2-1.2,6.5,0.5c0.6,0.9,0.8,1.9,0.9,2.9C110.1,16,110.1,16.4,110.1,16.9z M107.8,15.2c0-1.2-0.9-2.1-2.1-2.1
			c-1.2,0-2.3,1-2.2,2.1C104.9,15.2,106.4,15.2,107.8,15.2z"/>
		<path d="M127.1,16.9c-2.3,0-4.5,0-6.7,0c0,0.9,0.7,1.9,1.7,2.1c1.1,0.3,2.1,0.1,3.1-0.3c0.2-0.1,0.3-0.2,0.6-0.3
			c0.2,0.6,0.4,1.1,0.6,1.7c0,0.1-0.1,0.3-0.2,0.3c-0.5,0.2-1,0.5-1.6,0.6c-1,0.1-2,0.2-3,0c-1.8-0.3-3.1-1.5-3.6-3.3
			c-0.4-1.4-0.3-2.7,0.2-4c0.8-1.9,2.6-2.9,4.8-2.6c2.3,0.3,3.5,1.5,3.8,3.9C127.1,15.6,127.1,16.2,127.1,16.9z M124.8,15.2
			c0.1-1.1-0.7-1.9-1.9-2c-1.3-0.1-2.3,0.8-2.5,2C121.9,15.2,123.4,15.2,124.8,15.2z"/>
		<path d="M154.9,16.2c0,2.4-1.3,4.3-3.4,4.9c-2.9,0.8-6.4-0.9-6.2-5.1c0.1-1.5,0.5-2.8,1.7-3.7c1.6-1.2,3.3-1.4,5.1-0.6
			c1.8,0.8,2.6,2.3,2.7,4.2C154.9,15.9,154.9,16,154.9,16.2z M147.6,16.1c0.2,0.6,0.3,1.2,0.5,1.8c0.4,0.9,1.1,1.3,2.1,1.3
			c1,0,1.7-0.4,2.1-1.3c0.5-1.2,0.5-2.4-0.1-3.6c-0.4-0.8-1.1-1.2-2-1.2c-0.9,0-1.6,0.4-2,1.2C147.8,14.9,147.7,15.5,147.6,16.1z"/>
		<path d="M157.6,21c-0.8,0-1.5,0-2.2,0c0-3.2,0-6.4,0-9.6c0.7,0,1.4,0,2.2,0c0,0.4,0,0.8,0,1.2c0,0,0.1,0,0.1,0
			c0.1-0.1,0.2-0.2,0.3-0.3c1-1.3,2.6-1.7,4-1c1.1,0.5,1.5,1.4,1.6,2.5c0.1,2.4,0,4.7,0,7.1c-0.8,0-1.5,0-2.3,0c0-0.2,0-0.3,0-0.5
			c0-1.8,0-3.5,0-5.3c0-1.1-0.4-1.6-1.2-1.8c-1.1-0.2-1.9,0.3-2.3,1.3c-0.1,0.3-0.2,0.7-0.2,1.1c0,1.6,0,3.1,0,4.7
			C157.6,20.7,157.6,20.8,157.6,21z"/>
		<path d="M129.7,21c-0.7,0-1.4,0-2.2,0c0-3.2,0-6.4,0-9.6c0.7,0,1.4,0,2.2,0c0,0.4,0,0.8,0,1.4c0.2-0.2,0.2-0.2,0.3-0.3
			c1-1.3,2.5-1.7,4-1.1c1.3,0.5,1.7,1.6,1.7,2.8c0,2.2,0,4.4,0,6.6c0,0.1,0,0.1,0,0.2c-0.7,0-1.5,0-2.3,0c0-0.2,0-0.3,0-0.5
			c0-1.8,0-3.6,0-5.4c0-0.9-0.3-1.5-1-1.7c-0.9-0.2-1.8,0.1-2.2,0.8c-0.2,0.4-0.4,1-0.4,1.5c0,1.7,0,3.4,0,5.1
			C129.8,20.9,129.8,20.9,129.7,21z"/>
		<path d="M109.5,11.4c0.8,0,1.6,0,2.4,0c0.1,0,0.3,0.2,0.3,0.3c0.6,1.9,1.3,3.8,1.9,5.7c0,0.1,0.1,0.2,0.2,0.5
			c0.4-1.2,0.7-2.3,1.1-3.4c0.3-0.9,0.6-1.8,0.9-2.7c0.1-0.3,0.2-0.4,0.5-0.4c0.6,0,1.3,0,2,0c-0.1,0.3-0.2,0.5-0.2,0.8
			c-1,2.8-2,5.7-2.9,8.5c-0.1,0.2-0.2,0.4-0.5,0.4c-0.7,0-1.3,0-2,0c-0.1,0-0.4-0.1-0.4-0.3c-1.1-3-2.1-6.1-3.2-9.2
			C109.4,11.6,109.5,11.5,109.5,11.4z"/>
		<path d="M137.3,13.3c-0.4,0-0.8,0-1.2,0c0-0.6,0-1.2,0-1.9c0.4,0,0.7,0,1.2,0c0-0.6,0-1.2,0-1.8c0-0.5,0.1-0.7,0.6-0.8
			c0.6-0.2,1.2-0.5,1.8-0.8c0,1.1,0,2.2,0,3.4c0.8,0,1.6,0,2.4,0c0,0.7,0,1.2,0,1.9c-0.8,0-1.6,0-2.3,0c0,0.1-0.1,0.2-0.1,0.2
			c0,1.5,0,2.9,0,4.4c0,1.1,0.6,1.5,1.7,1.1c0.1,0,0.2-0.1,0.3-0.2c0.1,0.3,0.2,0.6,0.3,0.9c0.1,0.3,0.2,0.6,0.3,0.9
			c-0.2,0.1-0.4,0.3-0.6,0.4c-0.9,0.3-1.8,0.4-2.7,0.1c-1.2-0.4-1.6-1.3-1.6-2.4c-0.1-1.5,0-3.1-0.1-4.6
			C137.3,13.8,137.3,13.6,137.3,13.3z"/>
		<path d="M98.4,21c-0.8,0-1.5,0-2.2,0c0-3.2,0-6.4,0-9.6c0.7,0,1.4,0,2.2,0c0,0.4,0,0.8,0,1.2c0.4-0.6,0.7-1.1,1.3-1.4
			c0.6-0.3,1.3-0.2,1.9,0c-0.2,0.8-0.3,1.5-0.5,2.2c-0.3,0-0.5-0.1-0.8-0.1c-1.1,0-1.9,0.6-2,1.7c-0.1,0.8-0.1,1.7-0.1,2.5
			C98.4,18.7,98.4,19.9,98.4,21z"/>
		<path d="M142.7,11.5c0.8,0,1.5,0,2.3,0c0,3.2,0,6.4,0,9.5c-0.8,0-1.5,0-2.3,0C142.7,17.8,142.7,14.7,142.7,11.5z"/>
		<path d="M142.4,9.3c0-0.8,0.6-1.4,1.4-1.4c0.8,0,1.4,0.6,1.4,1.4c0,0.8-0.6,1.4-1.4,1.4C143,10.7,142.4,10.1,142.4,9.3z"/>
		<path class="st2" d="M89.6,14.6c0-1.9,0-3.8,0-5.8c1.2-0.2,2.4-0.2,3.1,0.9c0.8,1.1,0.8,2.4,0.1,3.6
			C92.3,14.3,90.9,14.8,89.6,14.6z"/>
		<path class="st2" d="M107.8,15.2c-1.4,0-2.9,0-4.3,0c-0.1-1,1-2,2.2-2.1C107,13.1,107.9,14,107.8,15.2z"/>
		<path class="st2" d="M124.8,15.2c-1.5,0-2.9,0-4.4,0c0.1-1.3,1.2-2.2,2.5-2C124.1,13.2,124.9,14.1,124.8,15.2z"/>
		<path class="st2" d="M147.6,16.1c0.2-0.6,0.3-1.2,0.5-1.8c0.4-0.8,1.1-1.2,2-1.2c0.9,0,1.6,0.4,2,1.2c0.6,1.2,0.6,2.4,0.1,3.6
			c-0.4,0.9-1.1,1.3-2.1,1.3c-1,0-1.7-0.4-2.1-1.3C147.8,17.3,147.7,16.7,147.6,16.1z"/>
	</g>
</g>
</svg>
