<?xml version="1.0" encoding="utf-8"?>
<!-- Generator: Adobe Illustrator 23.0.3, SVG Export Plug-In . SVG Version: 6.00 Build 0)  -->
<svg version="1.1" id="Layer_1" xmlns="http://www.w3.org/2000/svg" xmlns:xlink="http://www.w3.org/1999/xlink" x="0px" y="0px"
	 viewBox="0 0 112.1 28.8" style="enable-background:new 0 0 112.1 28.8;" xml:space="preserve">
<style type="text/css">
	.st0{fill:#9B9B9B;}
</style>
<g id="TB3qIq_2_">
	<g>
		<path class="st0" d="M21.6,7.6c-0.7-0.2-1.3-0.3-1.9-0.5c-1.7-0.4-3.5-0.5-5.3-0.4c-1.4,0.1-2.7,0.3-4,0.8c-2,0.8-3.2,2.4-3.5,4.5
			c-0.2,1.4,0.3,3,1.9,3.8c0.6,0.3,1.3,0.6,2,0.9c0.9,0.4,1.7,0.9,2.4,1.6c1.3,1.3,1.1,3.5-0.5,4.5c-1.1,0.7-2.3,1-3.6,0.8
			c-1.5-0.2-3-0.5-4.4-1.1c-1.1-0.6-2.2-1.2-3.3-1.9c-0.1-0.1-0.2-0.2-0.2-0.4C1.1,19.1,1,18,0.9,16.9c-0.1-1.3-0.2-2.6-0.3-3.9
			c-0.1-1.1-0.2-2.2-0.3-3.3C0.2,8.4,0.1,7.2,0,5.9c0-0.7-0.1-1.4,0-2c0.3-1.6,1.6-2.6,3.2-2.7c1.3-0.1,2.7-0.2,4-0.3
			c1.1-0.1,2.2-0.2,3.3-0.3c1.3-0.1,2.6-0.2,3.8-0.3c1.3-0.1,2.6-0.2,3.9-0.3c1.2-0.1,2.9,0.9,3.2,2.8c0.2,1.2,0.2,2.4,0.3,3.5
			C21.5,6.8,21.5,7.1,21.6,7.6z M4.9,7.5C4.9,7.6,4.9,7.6,4.9,7.5C4.8,7.7,4.8,7.8,4.7,8C4.1,9.3,3.9,10.6,4,12c0,0.7,0,0.7,0.8,0.7
			C5,12.7,5,12.6,5,12.5c0.1-0.8,0.2-1.6,0.4-2.4C5.8,8.3,6.9,7,8.6,6.3C9.1,6.1,9.5,5.9,10,5.7C9.9,5.5,9.9,5.3,9.8,5.1
			c0-0.2-0.1-0.2-0.3-0.2C8.3,5.2,7.1,5.6,6.1,6.4c0,0-0.1,0-0.1,0.1V6.4l0.1-0.1c0.7-1.1,1-2.3,1-3.6C7.1,2.6,7,2.5,7,2.5
			c-0.2,0-0.5,0-0.7,0c0,0.1,0,0.1,0,0.1c-0.1,1.1-0.4,2.1-1.1,3C4.3,6.8,3,7.1,1.7,6.4c-0.1,0-0.2-0.1-0.3-0.1C1.2,6.6,1.1,6.8,1,7
			c0.4,0.3,0.7,0.5,1.1,0.7C3,7.9,4,7.9,4.9,7.5z M4.9,4.4c0-0.3-0.1-0.5-0.3-0.8C4.2,3.2,3.7,3.3,3.4,3.8C3.1,4.2,3.2,4.9,3.5,5.2
			c0.2,0.2,0.6,0.3,0.9,0.2C4.6,5.3,4.9,4.9,4.9,4.4z"/>
		<path class="st0" d="M1.3,23.8c0.4,0.2,0.8,0.3,1.1,0.5c1.9,0.8,3.7,1.4,5.7,1.8c2.2,0.4,4.5,0.5,6.7,0c0.8-0.2,1.5-0.5,2.2-1
			c0.9-0.7,1.4-1.8,1.6-2.9c0.5-2.3-0.8-4.4-2.6-5.3c-0.6-0.3-1.3-0.6-2-0.9c-0.7-0.3-1.4-0.7-2-1.2c-1.2-1-1.2-2.4-0.7-3.6
			c0.5-1.1,1.5-1.6,2.5-1.9c2.7-0.8,5.2-0.3,7.7,0.9c0.1,0.1,0.2,0.2,0.2,0.3c0.2,2.1,0.4,4.2,0.5,6.3c0.2,2.2,0.4,4.4,0.6,6.6
			c0.1,0.6,0.1,1.2-0.1,1.7c-0.4,1.3-1.6,2.3-3,2.4c-1.3,0.1-2.6,0.2-3.9,0.3c-1.1,0.1-2.2,0.2-3.3,0.3c-1.1,0.1-2.1,0.2-3.2,0.3
			S7.1,28.6,6,28.7c-0.5,0-0.9,0.1-1.4,0.1c-1.7,0-3.1-1.2-3.3-2.9C1.4,25.2,1.4,24.5,1.3,23.8z"/>
		<path class="st0" d="M30.6,16.2c0.6,0.2,1.2,0.4,1.8,0.6c0.9,0.2,1.7,0.3,2.6,0.1c0.8-0.2,1.3-0.7,1.3-1.4c0-0.5-0.3-0.9-0.8-1.1
			c-0.5-0.3-1-0.5-1.5-0.7c-0.9-0.4-1.8-0.8-2.6-1.4c-1.9-1.6-1.6-4.6,0.4-5.9c0.9-0.6,1.8-0.9,2.8-0.9c1.3-0.1,2.6,0,3.9,0.5
			c0.4,0.1,0.4,0.1,0.3,0.5c-0.2,0.6-0.3,1.2-0.5,1.8c0,0.1-0.1,0.2-0.1,0.3c-0.1,0-0.2-0.1-0.3-0.1C37,8.1,36,7.9,35.1,8
			c-0.4,0-0.8,0.1-1.1,0.3c-0.8,0.4-0.9,1.4-0.2,1.9c0.4,0.3,0.8,0.5,1.3,0.7c0.7,0.3,1.5,0.6,2.3,1c0.9,0.5,1.6,1.2,1.9,2.3
			c0.5,1.9-0.1,3.9-2.2,4.9c-0.8,0.4-1.6,0.5-2.4,0.6c-1.5,0.1-3-0.1-4.3-0.7c-0.3-0.1-0.3-0.2-0.3-0.5C30.3,17.7,30.5,17,30.6,16.2
			z"/>
		<path class="st0" d="M74.7,19.7c-1.6,0-3-0.5-4-1.6c-0.7-0.7-1.1-1.6-1.2-2.6c-0.2-1.1-0.1-2.3,0.4-3.4c0.5-1.2,1.4-2.1,2.6-2.5
			C74,9,75.5,9,77,9.6c1.7,0.7,2.6,2.1,2.9,3.9c0.1,1,0.1,1.9-0.2,2.8c-0.7,2-2.1,3-4.1,3.3C75.2,19.6,74.9,19.6,74.7,19.7z
			 M76.6,14.4c0-0.7-0.1-1.5-0.5-2.1c-0.3-0.4-0.6-0.7-1.1-0.8c-0.8-0.2-1.5,0.2-1.9,0.9c-0.3,0.6-0.4,1.3-0.4,2
			c0,0.8,0.1,1.5,0.6,2.2c0.7,1.1,2.2,1,2.9-0.1C76.5,15.9,76.5,15.1,76.6,14.4z"/>
		<path class="st0" d="M55.2,10.8c0.1-0.1,0.2-0.2,0.2-0.3c1.3-1.5,3.7-1.8,5.2-0.6c0.7,0.6,1,1.4,1.2,2.3c0.1,0.4,0.1,0.9,0.1,1.3
			c0,1.8,0,3.7,0,5.5c0,0.4,0,0.4-0.4,0.4c-0.8,0-1.7,0-2.5,0c-0.2,0-0.3-0.1-0.3-0.3c0-1.7,0-3.5,0-5.2c0-0.4,0-0.8-0.1-1.1
			c-0.3-1.1-1.6-1.4-2.4-0.7c-0.4,0.4-0.6,0.9-0.6,1.5c0,1.8,0,3.6,0,5.5c0,0.3,0,0.3-0.3,0.3c-0.8,0-1.7,0-2.5,0
			c-0.3,0-0.3-0.1-0.3-0.3c0-2.7,0-5.3,0-8c0-0.5,0-1-0.1-1.5c0-0.2,0.1-0.2,0.2-0.2c0.7,0,1.5,0,2.2,0c0.2,0,0.2,0,0.3,0.2
			C55.1,10,55.2,10.3,55.2,10.8z"/>
		<path class="st0" d="M44.1,15.4c0,0.5,0.2,0.9,0.6,1.2c0.6,0.5,1.2,0.7,2,0.7c0.9,0,1.9-0.1,2.8-0.3c0.1,0,0.1,0,0.3-0.1
			c0,0.2,0.1,0.4,0.1,0.6c0.1,0.4,0.2,0.9,0.3,1.3c0,0.2,0,0.3-0.2,0.3c-0.7,0.2-1.4,0.4-2.1,0.5c-1.1,0.2-2.1,0.1-3.2-0.2
			c-1.8-0.5-2.9-1.7-3.3-3.5c-0.4-1.7-0.1-3.3,0.9-4.8c0.9-1.3,2.2-1.9,3.7-1.9c0.9,0,1.7,0.1,2.5,0.5c1.2,0.6,1.8,1.7,2.1,2.9
			c0.2,0.9,0.2,1.8,0.1,2.6c0,0.2-0.1,0.2-0.3,0.2c-0.3,0-0.5,0-0.8,0c-1.7,0-3.4,0-5,0C44.3,15.4,44.2,15.4,44.1,15.4z M44.1,13.2
			c0.2,0,0.3,0,0.5,0c0.9,0,1.9,0,2.8,0c0.1,0,0.2,0,0.2-0.1c0.1-0.7-0.5-1.6-1.2-1.8C45.3,11,44.1,11.9,44.1,13.2z"/>
		<path class="st0" d="M84.5,11.2c0.4-0.9,0.9-1.5,1.8-1.9c0.5-0.2,0.9-0.2,1.4-0.1c0.1,0,0.2,0.1,0.2,0.2c0,0.9,0,1.9,0,2.8
			c-0.2,0-0.4-0.1-0.5,0c-0.4,0-0.8,0-1.2,0.1c-0.8,0.2-1.3,1-1.3,1.9c0,1.6,0,3.2,0,4.9c0,0.4,0,0.4-0.4,0.4c-0.8,0-1.7,0-2.5,0
			c-0.3,0-0.3-0.1-0.3-0.3c0-2.9,0-5.7,0-8.6c0-0.3,0-0.6,0-0.9c0-0.2,0.1-0.2,0.2-0.2c0.8,0,1.5,0,2.3,0c0.2,0,0.2,0.1,0.2,0.2
			c0,0.4,0.1,0.9,0.1,1.3C84.5,11,84.5,11.1,84.5,11.2z"/>
		<path class="st0" d="M64.4,14.4c0-1.5,0-3.1,0-4.6c0-0.4,0-0.4,0.4-0.4c0.8,0,1.7,0,2.5,0c0.2,0,0.3,0,0.3,0.3c0,3.2,0,6.3,0,9.5
			c0,0.2-0.1,0.3-0.3,0.3c-0.9,0-1.7,0-2.6,0c-0.2,0-0.3-0.1-0.3-0.3C64.4,17.6,64.4,16,64.4,14.4z"/>
		<path class="st0" d="M106.4,15.3c0.7-0.9,2.1-1,2.7,0.1c0-0.1,0.1-0.1,0.1-0.1c0.5-0.5,1.1-0.7,1.8-0.5c0.7,0.2,1,0.8,1,1.4
			c0.1,0.9,0,1.7,0.1,2.6c0,0.7,0,0.7-0.7,0.7c-0.2,0-0.3,0-0.5,0s-0.3-0.1-0.3-0.3c0-0.8,0-1.6,0-2.5c0-0.1,0-0.2-0.1-0.3
			c-0.1-0.3-0.3-0.5-0.6-0.5c-0.3,0-0.6,0.3-0.6,0.6c0,0.4,0,0.8,0,1.3s0,1,0,1.5c0,0.2-0.1,0.3-0.2,0.2c-0.3,0-0.6,0-0.9,0
			c-0.2,0-0.3-0.1-0.3-0.3c0-0.7,0-1.5,0-2.2c0-0.2,0-0.4-0.1-0.6c-0.2-0.5-0.7-0.6-1-0.2c-0.1,0.2-0.2,0.4-0.2,0.7
			c0,0.8,0,1.6,0,2.4c0,0.2-0.1,0.3-0.3,0.3c-0.3,0-0.6,0-0.9,0c-0.2,0-0.3-0.1-0.3-0.3c0-1.1,0-2.1,0-3.2c0-0.3,0-0.6,0-0.9
			c0-0.2,0-0.3,0.2-0.3s0.5,0,0.7,0s0.4,0.1,0.4,0.3C106.4,15.2,106.4,15.2,106.4,15.3z"/>
		<path class="st0" d="M101.4,14.7c1.4,0,2.4,1,2.4,2.4c0,1.5-1,2.5-2.5,2.5c-1.4,0-2.4-1-2.4-2.4C98.9,15.7,99.9,14.7,101.4,14.7z
			 M102.3,17.1c-0.1-0.3-0.2-0.7-0.3-1c-0.3-0.5-0.9-0.5-1.2,0c-0.3,0.5-0.4,1.5,0,2c0.4,0.6,1.1,0.5,1.4,0
			C102.2,17.7,102.2,17.4,102.3,17.1z"/>
		<path class="st0" d="M89.8,15.8c1.1,0,1.8,0.8,1.8,1.9s-0.8,1.8-1.8,1.8c-1.1,0-1.8-0.8-1.8-1.9C88,16.5,88.7,15.8,89.8,15.8z"/>
		<path class="st0" d="M97.8,18.2c0.1,0.3,0.1,0.6,0.1,0.9c0,0.1,0,0.2-0.1,0.2c-0.8,0.3-2.1,0.3-2.9-0.4c-0.7-0.7-0.9-1.6-0.6-2.5
			c0.2-0.9,0.8-1.5,1.7-1.7c0.6-0.1,1.1-0.1,1.7,0c0.2,0,0.3,0.1,0.2,0.3c-0.1,0.2-0.1,0.4-0.1,0.6s-0.1,0.2-0.3,0.2
			c-0.3-0.1-0.6-0.1-0.9,0c-0.7,0.1-1.1,0.7-0.9,1.5c0.1,0.6,0.7,1.1,1.4,1C97.4,18.3,97.6,18.3,97.8,18.2z"/>
		<path class="st0" d="M65.9,8.1c-1,0-1.8-0.7-1.8-1.7s0.8-1.7,1.8-1.7s1.8,0.7,1.8,1.7S67,8.1,65.9,8.1z"/>
	</g>
</g>
</svg>
