<?xml version="1.0" encoding="utf-8"?>
<!-- Generator: Adobe Illustrator 23.0.3, SVG Export Plug-In . SVG Version: 6.00 Build 0)  -->
<svg version="1.1" id="Layer_1" xmlns="http://www.w3.org/2000/svg" xmlns:xlink="http://www.w3.org/1999/xlink" x="0px" y="0px"
	 viewBox="0 0 131.2 26.7" style="enable-background:new 0 0 131.2 26.7;" xml:space="preserve">
<style type="text/css">
	.st0{fill:#9B9B9B;stroke:#989898;stroke-width:2;stroke-miterlimit:10;}
</style>
<g>
	<g>
		<g>
			<path class="st0" d="M22.3,25.2c-3.1,0-5.4-2.5-5.4-5.5l0,0c0-3,2.3-5.5,5.5-5.5c3.1,0,5.4,2.5,5.4,5.5l0,0
				C27.7,22.7,25.4,25.2,22.3,25.2z M26.6,19.7c0-2.6-1.9-4.6-4.4-4.6s-4.3,2.1-4.3,4.5l0,0c0,2.6,1.9,4.6,4.4,4.6
				C24.8,24.3,26.6,22.2,26.6,19.7L26.6,19.7z"/>
		</g>
		<g>
			<path class="st0" d="M39.5,25v-2c-0.7,1.2-1.9,2.2-3.8,2.2c-2.7,0-4.2-1.8-4.2-4.4v-6.5h1v6.3c0,2.2,1.2,3.6,3.4,3.6
				c2.1,0,3.7-1.6,3.7-3.8v-6.1h1v10.6L39.5,25L39.5,25L39.5,25z"/>
		</g>
		<g>
			<path class="st0" d="M50.9,15.4c-2.4,0-4.6,1.8-4.6,5.3V25h-1V14.4h1v3c0.8-1.9,2.6-3.3,4.7-3.2v1.1h-0.1V15.4z"/>
		</g>
		<g>
			<path class="st0" d="M86.5,25.2c-3.1,0-5.4-2.5-5.4-5.5l0,0c0-3,2.3-5.5,5.5-5.5c3.1,0,5.4,2.5,5.4,5.5l0,0
				C92,22.7,89.7,25.2,86.5,25.2z M90.9,19.7c0-2.6-1.9-4.6-4.4-4.6s-4.3,2.1-4.3,4.5l0,0c0,2.6,1.9,4.6,4.4,4.6
				C89.1,24.3,90.9,22.2,90.9,19.7L90.9,19.7z"/>
		</g>
		<g>
			<path class="st0" d="M103.3,25v-6.3c0-2.2-1.2-3.6-3.4-3.6c-2.1,0-3.7,1.6-3.7,3.8V25h-1V14.4h1v2c0.7-1.2,1.9-2.2,3.8-2.2
				c2.7,0,4.2,1.8,4.2,4.4v6.5h-0.9V25z"/>
		</g>
		<g>
			<path class="st0" d="M114.3,24.3c1.6,0,2.8-0.7,3.6-1.7l0.7,0.6c-1.1,1.2-2.3,2-4.4,2c-2.8,0-5.2-2.2-5.2-5.5l0,0
				c0-3.1,2.2-5.5,5-5.5c3,0,4.9,2.4,4.9,5.5l0,0c0,0.1,0,0.2,0,0.4h-8.8C110.3,22.8,112.2,24.3,114.3,24.3z M117.8,19.2
				c-0.1-2.1-1.4-4.1-3.8-4.1c-2.1,0-3.7,1.8-3.9,4.1H117.8z"/>
		</g>
		<g>
			<path class="st0" d="M126.2,25.2c-1.5,0-3.2-0.6-4.3-1.5l0.6-0.8c1.2,0.9,2.4,1.4,3.8,1.4s2.6-0.8,2.6-2l0,0
				c0-1.2-1.3-1.7-2.8-2.1c-1.7-0.5-3.6-1-3.6-2.9l0,0c0-1.7,1.4-2.9,3.5-2.9c1.3,0,2.7,0.5,3.8,1.2l-0.5,0.9
				c-1-0.6-2.1-1.1-3.3-1.1c-1.5,0-2.4,0.8-2.4,1.8l0,0c0,1.2,1.4,1.6,2.9,2.1c1.7,0.5,3.5,1.1,3.5,3l0,0
				C129.9,24,128.2,25.2,126.2,25.2z"/>
		</g>
	</g>
	<g>
		<path class="st0" d="M10.4,15.3L2.1,1.2h0.7l7.9,13.4l7.8-13.4h0.7L11,15.3v10.1h-0.6V15.3z"/>
		<path class="st0" d="M11.2,25.7h-1.1V15.4L1.7,1H3l7.8,13.2L18.5,1h1.3l-8.4,14.4v10.3H11.2z M10.6,25.2h0.2v-10v-0.1l8-13.7h-0.2
			L10.7,15l-8-13.6H2.5l8.1,13.8L10.6,25.2L10.6,25.2z"/>
	</g>
	<g>
		<g>
			<path class="st0" d="M71.1,25.5h-9.6V1.8h8c1.5,0,2.9,0.4,4,1.3c1.4,1.1,2.2,2.5,2.2,4.3c0,1.3-0.3,2.5-0.8,3.6
				c-0.8,1.7-2.6,2.8-4.5,2.8h-7.8v10.6h8.5L71.1,25.5L71.1,25.5z M62.6,12.6h7.8c1.5,0,2.8-0.8,3.4-2.1c0.5-1,0.7-2,0.7-3.2
				c0-1.4-0.6-2.5-1.7-3.4c-0.9-0.7-2.1-1-3.4-1h-6.8V12.6z"/>
		</g>
		<g>
			<path class="st0" d="M70.8,25.5v-1.1c1.9,0,5.1-0.7,5.1-5.2c0-4.9-4.7-5.4-4.9-5.4l0.1-1.1c0.1,0,5.9,0.6,5.9,6.5
				C77,25,72.3,25.5,70.8,25.5z"/>
		</g>
	</g>
</g>
</svg>
