<?xml version="1.0" encoding="utf-8"?>
<!-- Generator: Adobe Illustrator 22.1.0, SVG Export Plug-In . SVG Version: 6.00 Build 0)  -->
<svg version="1.1" id="Layer_1" xmlns="http://www.w3.org/2000/svg" xmlns:xlink="http://www.w3.org/1999/xlink" x="0px" y="0px"
	 viewBox="0 0 484.3 436.7" style="enable-background:new 0 0 484.3 436.7;" xml:space="preserve"><defs xmlns="http://www.w3.org/2000/svg"><style type="text/css"><![CDATA[@font-face {font-family: 'GloberBook';src: url('/assets/fonts/webfonts/316613_0_0.eot');src: url('/assets/fonts/webfonts/316613_0_0.eot?#iefix') format('embedded-opentype'),url('/assets/fonts/webfonts/316613_0_0.woff2') format('woff2'),url('/assets/fonts/webfonts/316613_0_0.woff') format('woff'),url('/assets/fonts/webfonts/316613_0_0.ttf') format('truetype');}@font-face {font-family: 'Glober';font-weight: bold;font-style: normal;src: url('/assets/fonts/webfonts/316613_1_0.eot');src: url('/assets/fonts/webfonts/316613_1_0.eot?#iefix') format('embedded-opentype'),url('/assets/fonts/webfonts/316613_1_0.woff2') format('woff2'),url('/assets/fonts/webfonts/316613_1_0.woff') format('woff'),url('/assets/fonts/webfonts/316613_1_0.ttf') format('truetype');}@font-face {font-family: 'Glober';font-weight: bold;font-style: italic;src: url('/assets/fonts/webfonts/316613_2_0.eot');src: url('/assets/fonts/webfonts/316613_2_0.eot?#iefix') format('embedded-opentype'),url('/assets/fonts/webfonts/316613_2_0.woff2') format('woff2'),url('/assets/fonts/webfonts/316613_2_0.woff') format('woff'),url('/assets/fonts/webfonts/316613_2_0.ttf') format('truetype');}@font-face {font-family: 'GloberBookItalic';src: url('/assets/fonts/webfonts/316613_3_0.eot');src: url('/assets/fonts/webfonts/316613_3_0.eot?#iefix') format('embedded-opentype'),url('/assets/fonts/webfonts/316613_3_0.woff2') format('woff2'),url('/assets/fonts/webfonts/316613_3_0.woff') format('woff'),url('/assets/fonts/webfonts/316613_3_0.ttf') format('truetype');}@font-face {font-family: 'Glober';font-weight: normal;font-style: normal;src: url('/assets/fonts/webfonts/316613_4_0.eot');src: url('/assets/fonts/webfonts/316613_4_0.eot?#iefix') format('embedded-opentype'),url('/assets/fonts/webfonts/316613_4_0.woff2') format('woff2'),url('/assets/fonts/webfonts/316613_4_0.woff') format('woff'),url('/assets/fonts/webfonts/316613_4_0.ttf') format('truetype');}@font-face {font-family: 'Glober';font-weight: normal;font-style: italic;src: url('/assets/fonts/webfonts/316613_5_0.eot');src: url('/assets/fonts/webfonts/316613_5_0.eot?#iefix') format('embedded-opentype'),url('/assets/fonts/webfonts/316613_5_0.woff2') format('woff2'),url('/assets/fonts/webfonts/316613_5_0.woff') format('woff'),url('/assets/fonts/webfonts/316613_5_0.ttf') format('truetype');}]]></style></defs>
<style type="text/css">
	.st0{fill:#007DA6;}
	.st1{fill:#08B5E5;}
	.st2{fill:#EFEFEF;}
	.st3{fill:#FFFFFF;}
	.st4{fill:#E8E8E8;}
	.st5{fill:#EAE8E1;}
	.st6{fill:#D1C1AE;}
	.st7{fill:#E5D8C6;}
	.st8{fill:#DDCEB9;}
	.st9{font-family:'Glober';font-weight: bold;}
	.st10{font-size:24px;}
	.st11{fill:none;stroke:#FF8C00;stroke-width:4;stroke-linecap:round;stroke-linejoin:round;}
	.st12{fill:none;stroke:#FF8C00;stroke-width:4;stroke-linecap:round;stroke-linejoin:round;stroke-dasharray:0,10.0306;}

		.st13{fill:none;stroke:#FF8C00;stroke-width:4;stroke-linecap:round;stroke-linejoin:round;stroke-miterlimit:10;stroke-dasharray:0,10;}
	.st14{fill:#DF6000;}
	.st15{font-family:'Glober';font-weight: bold;}
	.st16{font-size:30px;}
</style>
<ellipse class="st0" cx="256.1" cy="98.7" rx="18" ry="10"/>
<path class="st0" d="M256.1,73.7c0,0-2.8-0.6-1.9-4.4c0.9-3.8,3.8-5.8,6.4-5.8c2.6,0.1,8.8,3.2,10.7,5.2c1.9,2,0.4,7.5-2.5,9.5
	C265.5,80.6,257.1,74.8,256.1,73.7z"/>
<path class="st0" d="M272.9,102.2c0.9-1.4,4.7-10.6,2.7-17.5C272.3,74,264.8,70,256.1,71.1c-11.6-1.5-22.2,5.5-20.8,23.3
	c0.4,4.6,4,7.8,4,7.8c0.4-4.2,1.8-5.4,1.9-5.5c5.1-3,16.8-0.1,24.5-8.6C270.6,90.4,271.9,100.7,272.9,102.2z"/>
<g>
	<path class="st1" d="M313,263.5c-0.2-2.9-2.3-5.2-2.3-5.2c-2.3-3.5-5.6-5.5-5.6-5.5c-0.9-0.5-1.4-1.9-1.6-2.8l-0.3-1.9
		c-1.1-3.9-2.5-23.3-2.5-23.3c-0.3-18.8-2.8-23.7-2.8-23.7c-1.4-2.6-1.4-6.9-1.4-6.9l0.2-21.9c1.1-11.5,0.1-20.2,0.1-20.2
		c-1.1-14.6-16-14.1-16-14.1c-7.8-0.4-13.4-3-14.8-6.1c-1.2-2.6-1.1-5.6-0.8-7.7l3-2.9c0,0,1.8-2.1,1.9-5.2l0.6-4.5
		c1.4-0.4,1.9-2.7,2.5-5.1c0.7-3,0.7-5.2-1.1-5.6l0,0l-0.2-4.1c0,0,2.4-15.6-15.8-17.3c0,0-15.7,0.9-16.4,15.7l0.9,5.7
		c-0.2,0-0.3,0-0.5,0c-1.7,0.4-1.8,2.8-1.1,5.8c0.6,2.6,1.4,4.8,3,5l0.2,1.5c0,0,0.5,6.6,2.5,8.3l3.2,2.9c0,2.7,0.8,7-1.6,9.2
		c-2.2,2-9.5,3-14.2,3.1c0,0-14.8-0.9-16.3,13.7c0,0-1.1,8.7-0.3,20.2l-0.2,21.9c0,0,0,4.3-1.5,6.9c0,0-2.6,4.9-3.3,23.7
		c0,0-1.8,19.4-3,23.3l-0.2,1.3l0,0c0,0-0.5,2.8-1.8,3.5c0,0-3.4,2-5.6,5.5c0,0-2.1,2.3-2.3,5.2c0,0-2.3,7.4-1.2,8.5
		c0,0,2.5,2.2,3.6-3.3c0,0,1.6-4.7,2.7-5.2c0,0-2,11-1.9,12.3c0,0-1,8.3,0.4,9c0,0,1.8,2.4,2.9-5.1l1.3-6.4c0,0-0.9,10.7-0.7,12.6
		c0,0-0.1,1.6,1.3,1.7c0,0,1.6,0.4,2.1-4.7l1.2-8.5l0.2,9.2c0,0,0,2.8,1.4,2.7c0,0,1.6,0.4,1.5-3.8l1.2-11l0.8,7.8
		c0,0-0.1,3,1.1,3.1c0,0,1.3,0.5,1.3-3.6l-0.2-17.4c0,0,0-5.9-1.5-8.7c0.1-2.1,0.4-5.2,1.7-8.3l8.9-33.2c0,0,1.4-4.5,0.7-9.1
		l1.7-13.2l0,0c0.9,6.2,3.5,12.7,3.4,19c0,2.8-1.1,6.4-1.8,9.2c-0.7,2.9-1.5,5.7-2.4,8.5c-1.7,5.3-3.2,11.3-3.8,17
		c-0.3,3.2-1.3,5.5-2.1,8.6c-0.7,2.9-1.1,6.1-1.6,9c-0.6,3.5-0.9,6.3-1,10.5c-0.1,3.2,0.4,6,0.5,9.1c0.1,2.9,0.7,5.8,0.6,8.7
		c-0.1,2.6-0.1,5.5,0.1,8c0.5,5.1,0.2,9.4,1.2,14.3c0.3,1.5,0.5,3.2,0.3,4.8c-0.2,1.4-0.3,2.9-0.6,4.4c-0.7,3.5-0.7,7.1-1.4,10.6
		c-0.9,4.5-2.3,8.9-3.4,13.4c-0.8,3.4-1.9,7.4-2.1,10.9c-0.1,2-0.2,4-0.3,6c-0.2,4.4-0.6,8.8-0.2,13.2c0.2,2.5,0.2,16.7,0.2,19.3
		c0,2.5,0.4,5.5-0.2,7.9c-0.5,2.1-1.8,4.2-2.3,6.4c-0.5,2.2-0.5,3.9-1.7,5.9c-1,1.8-2,3.5-3.3,5c-1.4,1.6-2.5,3.2-3.6,5
		c-1.1,1.7-3.4,3-2.9,5.4c1,0.6,1,1.5,1.9,2.2c0.7,0.5,1.8,1,2.6,1.4c1,0.5,2.5,0.6,3.7,0.6c0.5,0,0.8-0.2,1.3-0.1
		c0.6,0,1.2,0.4,1.8,0.3c5.3-0.5,6.2-7,7.3-10.8c0.7-2.3,1.5-4.2,2.4-6.4c0.4-1,0.8-2.2,1.1-3.2c0.4-1.3,0-2.6,0.3-3.9
		c0.5-2.5,1.5-3.9,1.1-6.7c-0.4-2.4,0.4-4.3,1-6.6c2.3-7.6,4.8-26.8,7.9-34.1c1-2.4,1.7-4.5,2.3-7c1.3-5,1.5-10.2,2.4-15.2
		c0.7-3.8,2.2-6.9,3.4-10.4c0.6-1.8,1.7-3.3,2.2-5c2.1-6.3,2.5-13.7,3.4-20.3c0.7-5,1.8-9.8,2.7-14.7c0.9-4.6,2.6-8.9,3.1-13.7
		c0.2-2.5,0-3.8,0.2-6.4c0.1-1.1-0.1-2.6,1.2-2.6c0.9,0,1.7,0.4,2.8,0.4c0.7,0.1,1.4,0.1,2-0.3c0.1,1.5-0.8,2.3-1,3.8
		c-0.2,1.6-0.2,3.3-0.2,5c0,2.9,0.2,5.7,0.6,8.6c0.4,2.7,0,5.3,0,8c0,2.6,0.3,5.2,0.3,7.7c0,2.4-0.6,4.8-0.6,7.4s0.3,5.1,0.3,7.7
		c0,4.6,1.4,9.1,2.1,13.6c0.3,2.3,0.1,4.7,0,7.1s-0.6,4.6-1.2,6.9s-0.5,4.6-0.7,6.9c-0.3,2.6-0.5,5.1-0.2,7.7
		c0.5,5.1-0.2,10-0.2,15.2c0,2.6-0.1,16.8-0.2,19.4s0.2,5.3-1.2,7.5c-2.8,4.4-1.2,9.4-2.4,14.2c-1.1,4.8-1.8,9.7-2.7,14.6
		c-0.5,2.7,2.1,4.1,4.5,3.4c1.2-0.4,1.8-0.8,3.3-0.8s2.2-0.2,3.4-0.8c1.7-0.7,4.3-1.1,4.8-3.1c2.9,0.2,2.1-4.4,1.5-5.9
		c-1.1-2.3-2.2-4.1-2.5-6.7c-0.3-2.5-1.4-4.9-1.3-7.4c0.1-1.3,0.6-2.2,0.8-3.4c0.2-1.3-0.1-2.7,0-4c0.3-3.4,1.1-6.6,2.3-9.8
		c0.9-2.3,4.6-14.9,5.2-17.2c1.3-5.2,2.7-8.4,3.4-13.4c0.7-5,1.7-10.8,1.8-15.8c0.1-3.1-0.1-5.3-0.5-7.7c-0.4-2.6-0.4-4.9,0-7.6
		c0.3-2.3,0.6-4.6,0.6-7.1c0-2.4-0.1-4.8,0-7.2c0.2-2.4,1.1-4.6,1.8-6.9c0.6-2.4,1.5-4.3,1.9-6.8c0.9-4.7,2.1-9.5,3.2-14.2
		c1.2-4.7,2.7-9,3.4-13.8c0.3-2.4,1.1-4.7,1.3-7.1c0.1-2.7,0-5.4,0-8c0-4.6-0.6-8.8-0.9-13.3c-0.1-2.7-1-5-1.1-7.5
		c-0.1-2.7-1.7-4.9-2.2-7.4c-0.4-2.2-1.9-4.7-2.7-6.8c-1.7-4.2-3.9-6.9-4.3-11.4c-0.2-2.5,0.2-6.5,0.5-8.9c0.4-2.5,1.3-5,1.8-7.4
		s0.8-6.6,1.7-8.8c0.9,2,1.5,3.2,1.5,3.2l1.6,14.9c-0.9,4.5,0.5,9.1,0.5,9.1L294,244c1.2,3.2,1.5,6.3,1.5,8.4
		c-1.5,2.8-1.5,8.7-1.5,8.7l-0.2,17.4c0,4.1,1.3,3.6,1.3,3.6c1.3,0,1.1-3.1,1.1-3.1l0.8-7.8l1.2,11c0,4.3,1.5,3.8,1.5,3.8
		c1.4,0.1,1.4-2.7,1.4-2.7l0.2-9.2l1.2,8.5c0.4,5.1,2.1,4.7,2.1,4.7c1.3-0.1,1.3-1.7,1.3-1.7c0.1-2-0.7-12.6-0.7-12.6l1.3,6.4
		c1,7.5,2.9,5.1,2.9,5.1c1.3-0.7,0.4-9,0.4-9c0.1-1.3-1.9-12.3-1.9-12.3c1.1,0.5,2.7,5.2,2.7,5.2c1.1,5.5,3.6,3.3,3.6,3.3
		C315.2,270.9,313,263.5,313,263.5z"/>
	<g>
		<g>
			<path class="st0" d="M240.7,142.6c-1.4,2.3-4.8,3.7-7.1,3.3c-0.1-2.5-1.3-2.8-3.3-2.8c-1.9,0-1.6-0.1-3.3-1.3
				c-1.5-1-3.2-1.6-4.8,0.6c-1.2,1.6-3.7,5.4-2.8,6.9c0.9,1.7,5.6,3.2,6.4,4.8c0.9,1.6,1.8,2.5,2.5,4.3c1.2,3,3.3,4.7,4.7,7.8
				c1.2,2.9,2.2,5.8,4.4,8.2c3.8,4.1,4.3-3.1,5.4-5.9c1.6-4,1.9-6.5,1.1-10.9c-0.6-3.8,0.4-8.4-0.9-11.9c-0.5-1.2-1.1-2.3-1.8-3.3
				c-0.4,0-0.3,0.3-0.4,0.5L240.7,142.6L240.7,142.6z"/>
			<path class="st0" d="M271.3,142.8c1.4,2.3,4.8,3.7,7.1,3.3c0.1-2.5,1.3-2.8,3.3-2.8c1.9,0,1.6-0.1,3.3-1.3c1.5-1,3.2-1.6,4.8,0.6
				c1.2,1.6,3.7,5.4,2.8,6.9c-0.9,1.7-5.6,3.2-6.4,4.8c-0.9,1.6-1.8,2.5-2.5,4.3c-1.2,3-3.3,4.7-4.7,7.8c-1.2,2.9-2.2,5.8-4.4,8.2
				c-3.8,4.1-4.3-3.1-5.4-5.9c-1.6-4-1.9-6.5-1.1-10.9c0.6-3.8-0.4-8.4,0.9-11.9c0.5-1.2,1.1-2.3,1.8-3.3c0.4,0,0.2,0.3,0.4,0.5
				v-0.3L271.3,142.8L271.3,142.8z"/>
			<path class="st0" d="M218.8,147.8c1.5-0.6,2.9-1.5,4.6-0.6c1.4,0.7,2.9,1.8,3.1,3.4c0.2,1.5-0.2,3.6-2.2,3.5
				c-1.8-0.1-3.1-2.3-3.9-3.6c-0.4-0.7-0.7-1.6-1.4-2L218.8,147.8z"/>
			<g>
				<path class="st0" d="M208.5,249.9c-0.7-0.5-0.5,1.2,0.2,1.6c0.6,0.3,1.3-0.2,1.9-0.1c0.3,0,0.5,0.4,0.8,0.2
					c0.4-0.2,0.3-0.7,0.5-0.9c0.7-0.7,0.9,0,1.6,0.4c1.6,1,1.4-2.5-0.2-2.5c-0.7,0-1.3,0.4-2,0.5c-0.6,0.1-1.3-0.2-1.9,0.1
					C209,249.3,208.8,249.9,208.5,249.9L208.5,249.9z"/>
				<path class="st0" d="M216.4,203.1c-0.8-0.8-0.9-2.8,0.4-2.6c0.4,0.1,0.7,0.5,1.1,0.6c0.4,0.2,1.1-0.2,1.5-0.1
					c1.1,0.4,0.5,2.1-0.4,2.5c-1.1,0.5-1.9-0.2-2.9-0.5L216.4,203.1z"/>
				<path class="st2" d="M218.6,207.9c-0.1-2.3-0.3-6.8,1.6-7.4c0.8-0.3,2.2,0.4,2.8,1.2c1.1,1.6,0.2,1.9-0.5,3.2
					c-2.9,5.2-3.5,10.1-4,16.2c-0.5,6.1-1.8,11.5-2.5,17.5c-0.4,2.9-0.7,6.3-1,9.3c-0.2,2-0.1,2.2-1.5,1.5c-1.3-0.6-1.5-0.7-1.1-2.7
					c0.6-3,1.6-6.1,2.1-9.2c0.5-3.1,0.8-6.1,1.2-9.1c0.5-3.2,0.1-6.4,0.4-9.6c0.3-2.9,0.6-5.9,1.2-8.7c0.3-1.1,0.7-2.3,0.6-3.6
					L218.6,207.9z"/>
				<path class="st0" d="M216.4,197.4c-0.2,0-1.1,1.2-1,1.7c0.1,0.9,1.2,1.3,2,1.2c0.3,0,0.6-0.3,1-0.2c0.3,0,0.6,0.3,1,0.4
					c1.1,0.1,1.1-0.3,2.1,0.6c2,1.8,2.1,0,1.6-1.7c-0.6-2-1.6-2.7-3.7-2.6c-0.8,0-1.9,0.2-2.4,0.7L216.4,197.4z"/>
				<path class="st3" d="M218.7,153.6c0.1-1.7-1.8-3.3-0.9-5c0.7-1.2,3.3-1.6,4.4-1.1c1,0.4,2.5,1.9,3.1,2.8
					c0.5,0.7,0.6,1.5,0.4,2.4c-0.2,1-0.8,1-1.2,2c-1.4,3-1,6.9-0.9,10.2c0,3.7-0.1,7.3,0,11.1c0.1,1.9-0.4,3.8-0.4,5.7
					c0.1,2-0.2,3.7-0.3,5.7c-0.2,1.8,0,3.8,0.6,5.5s1.8,2.9,2.1,4.6c0.3,1.4-0.6,4.4-2.3,2.8c-0.6-0.5-0.5-1.4-1.3-1.9
					c-0.6-0.4-1.5-0.4-2.2-0.5c-0.9-0.1-1.7-0.1-2.6,0.1c-1,0.2-1.6,0.6-1.9-0.7c-0.3-1.7,1.2-3.3,1.8-4.8
					c2.4-6.7,2.7-14.1,2.4-21.3c-0.1-3,0.3-6,0.3-8.9c0-1.5-0.2-3.1-0.4-4.6s-0.8-3-0.7-4.5L218.7,153.6z"/>
				<path class="st3" d="M219.1,202.6c-0.1,1.5,0,3,0.1,4.6c-0.8,3.7-2.3,7.2-3.3,11.1c-0.5,2-1.1,4.2-1.4,6.2
					c-0.2,2.2-0.2,4.3-0.6,6.4c-0.3,2-0.7,4.1-0.7,6.2c0,2.2,0.2,4.5,0.1,6.6c-0.1,1-0.1,2,0,3c0.1,0.8,0.4,2.4,0.3,3.1
					c-0.4,1.6-3,0.7-4,0.8c-2.1,0.1-2.4-1.3-1.5-3.7c0.7-1.9,1.3-3.3,1.5-5.6c0.4-4.1,1-8.1,1.7-12.2c0.3-2,0.9-3.9,1.2-5.9
					s0.4-4.1,1.1-5.9c1.3-3.4,1.5-7.6,2.1-11.3c0.2-1-0.1-3.3,0.5-4c0.5-0.6,2.5,0.4,2.9,1L219.1,202.6z"/>
				<g>
					<path class="st0" d="M199.5,259.3c-0.2,0.4-0.9,0.6-0.3,1.1c0.2,0.2,0.9,0.7,1.3,0.8c0.7,0.3,1-0.3,0.8-0.9s-1-0.5-1.4-0.8
						L199.5,259.3z"/>
					<path class="st0" d="M197.8,265.3c-0.4,0-0.9,0.3-0.6,0.7c0.1,0.2,1,0.3,1.2,0.3c1-0.3-0.3-1.7-0.8-1H197.8z"/>
					<path class="st0" d="M203.1,266.5c-0.7,0.9,0.9,2.7,1.8,2c0.3-0.2,0.5-1.6,0.3-1.9c-0.5-0.7-1.4,0-1.9-0.1H203.1z"/>
					<path class="st0" d="M201.8,273.8c-1.1,0.3-0.2,1.8,0.8,1.5c0.4-0.1,0.6-0.8,0.5-1.1c-0.2-0.5-0.8-0.4-1.2-0.5L201.8,273.8z"/>
					<path class="st0" d="M201.2,279c-0.2,0.5,0.5,1.1,1,1.1c0.2-0.3,0.4-1,0.3-1.4c-0.3-0.1-0.9-0.3-1.1,0.1L201.2,279z"/>
					<path class="st0" d="M207.5,266.8c-0.5,0-1.1,0.6-1,1.1c0.1,0.6,0.9,0.6,1.4,0.8c0.7,0.3,0.8,0.1,0.9-0.6
						c0.1-0.5,0-1.5-0.7-1.4L207.5,266.8z"/>
					<path class="st0" d="M206.2,274.5c-0.5,0.8-0.6,2.1,0.8,2c0.5,0,0.7-0.7,0.6-1.2c0-0.7-0.7-0.8-1.2-1.1L206.2,274.5z"/>
					<path class="st0" d="M205.8,281c-1.1,0.1-0.2,1.6,0.7,1c0.2-0.2,0.8-0.8,0.5-1.2c-0.2-0.4-0.9-0.2-1.2,0V281z"/>
					<path class="st0" d="M210.8,265.8c-0.5,0.2-0.6,1.2-0.3,1.6c0.2,0.4,1.3,0.5,1.7,0.3c0.5-0.2,0.5-1,0.4-1.5
						c-0.2-0.7-0.7-0.8-1.4-0.6L210.8,265.8z"/>
					<path class="st0" d="M210.5,273.2c-0.1,0.5-0.6,0.7-0.4,1.3c0.1,0.5,0.7,0.6,1.2,0.6c1.2-0.1,0.5-2-0.6-2L210.5,273.2z"/>
					<path class="st0" d="M210.2,279.5c-0.5,0.6,0.3,1.6,0.9,1.2c0.2-0.2,0.5-0.7,0.4-1c-0.1-0.4-0.6-0.3-0.9-0.3L210.2,279.5z"/>
					<path class="st0" d="M214.1,265c-0.7,1,0.1,2.2,1.4,1.6c0.4-0.2,0.5-0.9,0.3-1.3c-0.2-0.6-0.7-0.5-1.3-0.5L214.1,265z"/>
					<path class="st0" d="M214.9,272.2c-0.2,0.2-0.2,0.7,0,0.9c0.2,0.2,0.8,0.1,1.1,0.1c0.3-0.6-0.3-1.4-1-1H214.9z"/>
					<path class="st0" d="M214.7,276.6c-0.1,0.6,0.7,1.3,1.1,0.7c0.4-0.6-0.5-1.6-0.9-0.9L214.7,276.6z"/>
					<path class="st0" d="M205.9,252.9c-0.3,0-0.8,0.2-1.1,0.3s-0.8,0.3-0.5,0.8c0.2,0.3,0.6,0.3,0.8,0.4c0.3,0.2,0.5,0.5,0.6,0.8
						c0.1,0.2,0.3,0.7,0.5,0.9c0.3,0.2,0.8,0.1,1.2,0.1c0.8,0,1.7,0.1,2.5,0.2c0.9,0.1,1.2,0.8,2.1,0.6c0.4-0.1,0.8-0.2,1.2-0.4
						c0.4-0.1,0.8-0.2,1.2-0.3c0.5-0.2,0.3-0.3-0.1-0.6c-0.3-0.3-0.4-0.5-0.9-0.6c-1.1-0.4-2.4-0.2-3.6-0.5
						c-0.8-0.2-1.6-0.6-2.4-0.8c-0.6-0.1-1.1-0.5-1.7-0.6L205.9,252.9z"/>
					<path class="st3" d="M208,251.8c-0.5-0.2-1.7,0.1-2.2,0.4c-0.9,0.5-0.8,0.8-0.2,1.4c0.2,0.2,0.6,0.3,0.8,0.6
						c0.3,0.4,0.1,0.8,0.4,1.1c0.6,0.5,1.7,0,2.4,0.1c1.6,0.3,3.2,0.9,4.8,0.2c0.8-0.4,1.2-1.2,0.8-2c-0.2-0.3-0.6-0.4-0.7-0.6
						c-0.2-0.3-0.1-0.9-0.4-1.1c-0.5-0.5-2.1-0.4-2.8-0.4C210,251.5,208.6,251.5,208,251.8L208,251.8z"/>
					<path class="st3" d="M201.8,260.5c0.4-0.3,0.1-1.6,0.5-2.2c0.4-0.5,1.2-1,1.7-1.4c1.3-1,2.7-2,0.6-2.9c-1-0.4-0.9-0.4-1.4,0.5
						c-0.3,0.6-0.6,1-1.1,1.5c-0.7,0.7-2.6,2.3-2.8,3.3c-0.2,0.8,1.3,1.2,1.9,1.4L201.8,260.5z"/>
					<path class="st3" d="M198.9,265.8c0-1.5,0.5-2,1.4-3.1c0.4-0.5,0.8-0.8,0.4-1.4c-0.1-0.1-1.4-0.8-1.6-0.8
						c-1.5-0.1-0.3,2.6-0.7,3.6c-0.1,0.3-1.1,1-1,1.3c0.2,0.7,1.3-0.5,1.5,0.6L198.9,265.8z"/>
					<path class="st3" d="M197.1,268.1c-0.4,0.1-1,2.5,0.2,1.8c0.5-0.3,0.5-1.9,0.8-2.5s1-1.8-0.4-1.7
						C196.4,265.8,197.1,267.4,197.1,268.1L197.1,268.1z"/>
					<path class="st3" d="M203.2,266.1c0.7-1.3,1.1-2.5,1.3-3.9c0.2-1.6,0.8-2.9,1.1-4.4c0.2-0.8,0.1-1.5,1-1.7
						c0.7-0.2,1.8-0.1,1.9,0.7c0.1,0.6-0.9,1.5-1.1,2c-0.3,0.7-0.4,1.4-0.7,2.1s-0.8,1.3-1,2.1c-0.3,0.9-0.1,1.6-0.1,2.5
						c0,1-0.1,1.5-1.1,1.8C203.8,267.3,202.4,266.9,203.2,266.1L203.2,266.1z"/>
					<path class="st3" d="M207.1,266.5c0.5-1.4,0.7-2.7,0.7-4.1c-0.1-1.6,0.3-3,0.4-4.5c0.1-0.8-0.2-1.4,0.7-1.8
						c0.6-0.3,1.8-0.4,2,0.3c0.2,0.6-0.6,1.6-0.8,2.1c-0.2,0.7-0.2,1.4-0.4,2.2c-0.2,0.7-0.1,1.7-0.2,2.5c-0.1,0.9,0,1.6-0.1,2.2
						c-0.2,1,0.2,1.5-0.8,2C208,267.6,206.4,267.4,207.1,266.5L207.1,266.5z"/>
					<path class="st3" d="M210.7,265.5c0.3-1.2,0.4-2.3,0.3-3.5c-0.2-1.3,0-2.5,0-3.8c0-0.7-0.3-1.2,0.5-1.6
						c0.5-0.3,1.5-0.5,1.7,0.1c0.2,0.5-0.4,1.4-0.5,1.9c-0.1,0.6,0,1.2-0.1,1.8c-0.1,0.6,0,1.4,0,2.1c0,0.8,0.1,1.3,0.1,1.9
						c-0.1,0.8,0.3,1.3-0.5,1.7C211.5,266.3,210.2,266.3,210.7,265.5L210.7,265.5z"/>
					<path class="st3" d="M213.9,264.8c0.2-1.2,0.2-2.2-0.1-3.3c-0.3-1.2-0.3-2.4-0.5-3.6c-0.1-0.7-0.4-1.1,0.3-1.6
						c0.5-0.3,1.4-0.6,1.7-0.1c0.2,0.4-0.2,1.3-0.3,1.8c0,0.6,0.1,1.1,0.1,1.7s0.2,1.3,0.2,2c0.1,0.7,0.3,1.2,0.3,1.7
						c0,0.8,0.4,1.1-0.3,1.7C214.8,265.5,213.5,265.6,213.9,264.8L213.9,264.8z"/>
					<path class="st3" d="M203.3,274.2c0-1.6,0.5-2.5,1.3-3.9c0.3-0.5,1-1.2,0.5-1.8c-0.1-0.1-1.9-0.6-2.1-0.5
						c-0.8,0.3-0.6,1.4-0.6,2c0,0.8-0.2,1.1-0.4,1.8c-0.1,0.4-0.6,1.4-0.4,1.9c0.2,0.6,1,0.6,1.6,0.8c0.1-0.1,0.1-0.3,0.1-0.4
						L203.3,274.2z"/>
					<path class="st3" d="M207.7,274.9c-0.3-1.7,0.1-2.8,0.7-4.4c0.2-0.6,0.8-1.4,0.3-2c-0.1-0.1-2-0.4-2.1-0.3
						c-0.7,0.4-0.3,1.6-0.3,2.3c0.1,0.8,0,1.3-0.2,2c-0.1,0.5-0.3,1.6-0.1,2.1c0.3,0.6,1.1,0.6,1.7,0.6c0.1-0.2,0.1-0.3,0.1-0.5
						L207.7,274.9z"/>
					<path class="st3" d="M211.9,273.6c-0.3-1.6-0.1-2.6,0.4-4.1c0.2-0.5,0.7-1.4,0.2-1.8c-0.1-0.1-1.8-0.3-2-0.2
						c-0.6,0.4-0.3,1.4-0.1,2.1c0.1,0.8,0,1.2-0.1,1.9c-0.1,0.5-0.3,1.5,0,1.9c0.3,0.6,1,0.5,1.6,0.5c0.1-0.1,0-0.3,0-0.4
						L211.9,273.6z"/>
					<path class="st3" d="M216.1,272c-0.6-1.4-0.4-2.4-0.2-3.9c0.1-0.5,0.4-1.4-0.1-1.7c-0.1-0.1-1.8,0.1-2,0.2
						c-0.6,0.5,0,1.4,0.2,2c0.2,0.7,0.2,1.1,0.2,1.7c0,0.4,0,1.4,0.3,1.8c0.4,0.5,1.1,0.2,1.6,0.2
						C216.2,272.2,216.1,272.1,216.1,272L216.1,272z"/>
					<path class="st3" d="M201.2,275.6c0-0.1,0-0.2,0-0.3c0,1,0,1.9-0.1,2.8c-0.2,1.6,0.2,0.8,1.5,0.9c0.1-0.6-0.3-1-0.3-1.5
						s0.2-0.9,0.4-1.3c0.5-1.4,0-1.4-1.4-1.3c0,0.1,0,0.3,0,0.4L201.2,275.6z"/>
					<path class="st3" d="M205.7,277c0-0.1,0-0.2,0-0.3c0,1.2-0.1,2.2-0.3,3.3c-0.3,1.9,0.2,1,1.7,1.1c0.1-0.7-0.3-1.2-0.3-1.7
						c0-0.6,0.3-1,0.5-1.6c0.7-1.6,0.1-1.7-1.6-1.6c0,0.2,0,0.3,0,0.5L205.7,277z"/>
					<path class="st3" d="M210,275.7c0-0.1,0-0.2,0-0.3c0.1,1.2,0,2.2-0.1,3.3c-0.2,1.9,0.2,1,1.8,1c0.1-0.7-0.4-1.1-0.4-1.7
						c-0.1-0.6,0.2-1,0.4-1.6c0.6-1.7,0-1.7-1.7-1.5c0,0.2,0,0.3,0,0.5V275.7z"/>
					<path class="st3" d="M214.8,273.5c0-0.1,0-0.2,0-0.3c0,0.9,0,1.7-0.1,2.6c-0.1,1.5,0.2,0.7,1.4,0.8c0.1-0.6-0.3-0.9-0.3-1.3
						c0-0.5,0.2-0.8,0.3-1.2c0.4-1.3,0-1.3-1.3-1.2c0,0.1,0,0.2,0,0.4L214.8,273.5z"/>
					<path class="st3" d="M201.3,280.4c-0.2-0.7,0.3-1.3,0.9-0.6c0.3,0.4,0,1.2-0.1,1.6c-0.6,2.1-0.9-0.4-0.8-1.4L201.3,280.4z"/>
					<path class="st3" d="M205.2,282.6c-0.2-0.9,0.4-1.6,1.1-0.8c0.4,0.5,0,1.5-0.2,2c-0.7,2.6-1.1-0.5-0.9-1.8L205.2,282.6z"/>
					<path class="st3" d="M210,281.4c-0.2-0.9,0.4-1.6,1.1-0.8c0.4,0.5,0,1.5-0.2,2c-0.7,2.6-1.1-0.5-0.9-1.8L210,281.4z"/>
					<path class="st3" d="M214.9,278.2c-0.2-0.7,0.4-1.3,0.9-0.6c0.3,0.4,0,1.2-0.1,1.7c-0.6,2.1-0.9-0.4-0.8-1.5L214.9,278.2z"/>
				</g>
			</g>
			<g>
				<path class="st0" d="M302.2,250.8c0.7-0.5,0.5,1.2-0.2,1.6c-0.6,0.2-1.3-0.2-1.9-0.1c-0.3,0-0.5,0.4-0.8,0.2
					c-0.4-0.2-0.3-0.7-0.5-0.9c-0.7-0.7-0.9,0-1.6,0.4c-1.6,0.9-1.4-2.5,0.2-2.5c0.7,0,1.3,0.4,2,0.5c0.6,0.1,1.3-0.2,1.9,0.1
					C301.7,250.3,301.9,250.9,302.2,250.8L302.2,250.8z"/>
				<path class="st0" d="M294.8,204c0.8-0.8,0.9-2.7-0.4-2.6c-0.4,0.1-0.7,0.4-1.1,0.6c-0.4,0.1-1.1-0.2-1.5-0.1
					c-1.1,0.4-0.6,2.1,0.3,2.5c1.1,0.5,1.9-0.2,2.9-0.4H294.8z"/>
				<path class="st2" d="M292.6,208.8c0.2-2.3,0.4-6.8-1.6-7.4c-0.8-0.3-2.2,0.4-2.8,1.2c-1.1,1.6-0.2,1.9,0.5,3.2
					c2.8,5.2,3.4,10.1,3.8,16.2c0.4,6.1,1.6,11.6,2.3,17.5c0.3,3,0.6,6.3,0.9,9.3c0.2,2,0.1,2.2,1.5,1.5c1.3-0.6,1.5-0.7,1.1-2.7
					c-0.5-3-1.6-6.1-2-9.2c-0.5-3.1-0.7-6.1-1.1-9.1c-0.5-3.2,0-6.4-0.3-9.6c-0.2-2.9-0.5-5.9-1.1-8.7c-0.3-1.1-0.6-2.3-0.5-3.6
					L292.6,208.8z"/>
				<path class="st0" d="M294.8,198.3c0.2,0,1.1,1.2,1,1.7c-0.1,0.9-1.2,1.2-2,1.2c-0.3,0-0.6-0.3-1-0.2c-0.3,0-0.6,0.3-1,0.4
					c-1.1,0.1-1.1-0.3-2.1,0.6c-2,1.7-2.1,0-1.6-1.7c0.6-2,1.6-2.7,3.8-2.6c0.8,0,1.9,0.2,2.4,0.7L294.8,198.3z"/>
				<path class="st3" d="M293,154.5c0-1.7,1.9-3.3,0.9-5c-0.7-1.2-3.3-1.7-4.4-1.2c-1,0.4-2.5,1.8-3.1,2.7c-0.5,0.7-0.6,1.5-0.5,2.4
					c0.2,1,0.8,1,1.2,2c1.3,3,0.9,6.9,0.8,10.2c-0.1,3.7,0.1,7.3-0.2,11.1c-0.1,1.9,0.4,3.8,0.3,5.7c-0.1,2,0.1,3.7,0.3,5.7
					c0.2,1.8-0.1,3.8-0.7,5.5c-0.6,1.6-1.8,2.9-2.2,4.6c-0.3,1.4,0.5,4.4,2.3,2.8c0.6-0.5,0.6-1.4,1.3-1.9c0.7-0.4,1.5-0.4,2.2-0.5
					c0.9,0,1.7-0.1,2.6,0.1c1,0.2,1.6,0.6,1.9-0.7c0.4-1.6-1.2-3.3-1.7-4.8c-2.3-6.7-2.5-14.1-2.2-21.3c0.1-3-0.2-6-0.2-8.9
					c0-1.5,0.2-3.1,0.4-4.6c0.2-1.5,0.8-3,0.8-4.5L293,154.5z"/>
				<path class="st3" d="M292.1,203.4c0.1,1.5,0,3-0.1,4.6c0.8,3.7,2.3,7.3,3.1,11.2c0.5,2,1.1,4.2,1.3,6.2c0.2,2.2,0.2,4.3,0.5,6.4
					c0.3,2,0.6,4.1,0.7,6.2c0,2.2-0.3,4.5-0.2,6.6c0,1,0.1,2,0,3c-0.1,0.8-0.5,2.4-0.3,3.1c0.4,1.6,3,0.8,4,0.9
					c2.1,0.2,2.4-1.3,1.5-3.7c-0.7-1.9-1.3-3.4-1.5-5.6c-0.3-4.1-1-8.1-1.5-12.2c-0.3-2-0.9-3.9-1.1-5.9s-0.4-4.1-1-6
					c-1.2-3.4-1.4-7.6-2-11.3c-0.1-1,0.2-3.3-0.4-4c-0.5-0.6-2.5,0.4-2.9,1L292.1,203.4z"/>
				<g>
					<path class="st0" d="M311.1,260.4c0.2,0.4,0.9,0.6,0.3,1.1c-0.2,0.2-0.9,0.6-1.3,0.8c-0.7,0.3-1-0.3-0.7-1
						c0.2-0.6,1-0.5,1.4-0.8L311.1,260.4z"/>
					<path class="st0" d="M312.7,266.4c0.4,0,0.9,0.3,0.6,0.8c-0.1,0.2-1,0.3-1.2,0.3c-1-0.3,0.3-1.7,0.8-1L312.7,266.4z"/>
					<path class="st0" d="M307.4,267.6c0.7,0.9-1,2.7-1.8,2c-0.3-0.2-0.5-1.6-0.3-1.9c0.5-0.7,1.4,0,1.9-0.1H307.4z"/>
					<path class="st0" d="M308.6,274.8c1.1,0.3,0.2,1.8-0.8,1.5c-0.4-0.1-0.6-0.8-0.5-1.1c0.2-0.5,0.8-0.4,1.2-0.5L308.6,274.8z"/>
					<path class="st0" d="M309.2,280.1c0.2,0.5-0.5,1.1-1,1.1c-0.2-0.3-0.3-1.1-0.3-1.4c0.3-0.1,0.9-0.3,1.1,0.1L309.2,280.1z"/>
					<path class="st0" d="M303,267.8c0.5,0,1.1,0.6,0.9,1.1c-0.1,0.6-0.9,0.6-1.4,0.8c-0.7,0.3-0.8,0.1-0.9-0.6
						c-0.1-0.5,0-1.5,0.7-1.4L303,267.8z"/>
					<path class="st0" d="M304.3,275.5c0.5,0.8,0.6,2.2-0.8,2c-0.5-0.1-0.6-0.7-0.6-1.2c0-0.7,0.7-0.8,1.2-1L304.3,275.5z"/>
					<path class="st0" d="M304.6,282c1.1,0.1,0.2,1.7-0.7,1c-0.2-0.2-0.7-0.8-0.5-1.2c0.2-0.4,0.9-0.2,1.2,0V282z"/>
					<path class="st0" d="M299.7,266.8c0.5,0.2,0.6,1.2,0.3,1.6c-0.3,0.4-1.3,0.5-1.7,0.3c-0.5-0.2-0.5-1-0.4-1.5
						c0.2-0.7,0.7-0.8,1.4-0.6L299.7,266.8z"/>
					<path class="st0" d="M300,274.2c0.1,0.5,0.6,0.7,0.4,1.3c-0.2,0.5-0.7,0.6-1.2,0.6c-1.2-0.1-0.5-2,0.6-2L300,274.2z"/>
					<path class="st0" d="M300.2,280.4c0.5,0.6-0.3,1.6-0.9,1.2c-0.2-0.2-0.5-0.7-0.4-1c0.1-0.4,0.6-0.3,1-0.3L300.2,280.4z"/>
					<path class="st0" d="M296.4,265.9c0.7,1-0.1,2.2-1.4,1.6c-0.4-0.2-0.5-0.9-0.3-1.3c0.2-0.6,0.7-0.5,1.3-0.5L296.4,265.9z"/>
					<path class="st0" d="M295.6,273.1c0.2,0.2,0.2,0.7,0,0.9c-0.2,0.2-0.8,0.1-1.1,0.1c-0.3-0.7,0.3-1.4,1-1H295.6z"/>
					<path class="st0" d="M295.7,277.5c0.1,0.6-0.7,1.3-1.1,0.6c-0.3-0.6,0.5-1.6,0.9-0.9L295.7,277.5z"/>
					<path class="st0" d="M304.8,253.9c0.3,0,0.8,0.2,1.1,0.3c0.3,0.1,0.7,0.3,0.5,0.8c-0.2,0.3-0.6,0.3-0.9,0.4
						c-0.3,0.2-0.5,0.5-0.6,0.8c-0.1,0.2-0.3,0.7-0.5,0.9c-0.3,0.2-0.8,0.1-1.2,0.1c-0.8,0-1.7,0-2.5,0.2c-0.9,0.1-1.2,0.8-2.1,0.6
						c-0.4-0.1-0.8-0.2-1.2-0.4c-0.4-0.1-0.8-0.2-1.2-0.4c-0.5-0.2-0.3-0.3,0.1-0.6c0.3-0.3,0.5-0.5,0.9-0.6
						c1.1-0.4,2.4-0.1,3.6-0.5c0.8-0.2,1.6-0.5,2.4-0.7c0.6-0.1,1.2-0.5,1.7-0.6L304.8,253.9z"/>
					<path class="st3" d="M302.7,252.8c0.5-0.2,1.7,0.1,2.2,0.4c0.9,0.5,0.8,0.8,0.2,1.4c-0.2,0.2-0.6,0.3-0.8,0.6
						c-0.3,0.4-0.1,0.8-0.4,1.1c-0.6,0.5-1.7,0-2.4,0.1c-1.6,0.3-3.2,0.9-4.8,0.1c-0.8-0.4-1.2-1.2-0.7-2c0.2-0.3,0.6-0.4,0.7-0.6
						c0.2-0.3,0.1-0.9,0.4-1.1c0.5-0.5,2.1-0.4,2.8-0.3c0.9,0,2.3,0,3,0.4L302.7,252.8z"/>
					<path class="st3" d="M308.8,261.5c-0.4-0.3-0.1-1.6-0.5-2.2c-0.4-0.5-1.1-1-1.7-1.4c-1.3-1-2.7-2-0.6-2.9
						c1-0.4,0.9-0.4,1.4,0.5c0.3,0.6,0.6,1,1.1,1.5c0.7,0.8,2.6,2.3,2.8,3.3c0.2,0.8-1.3,1.2-1.9,1.4L308.8,261.5z"/>
					<path class="st3" d="M311.6,266.8c0.1-1.5-0.4-2-1.3-3.2c-0.4-0.5-0.8-0.8-0.4-1.4c0.1-0.1,1.4-0.8,1.6-0.8
						c1.5,0,0.3,2.6,0.7,3.6c0.1,0.3,1.1,1,1,1.3c-0.2,0.7-1.3-0.5-1.5,0.6L311.6,266.8z"/>
					<path class="st3" d="M313.4,269.2c0.3,0.1,1,2.5-0.3,1.8c-0.5-0.3-0.5-2-0.8-2.5c-0.3-0.6-1-1.8,0.4-1.7
						C314,266.9,313.3,268.6,313.4,269.2L313.4,269.2z"/>
					<path class="st3" d="M307.3,267.1c-0.7-1.3-1.1-2.5-1.3-4c-0.2-1.6-0.7-2.9-1.1-4.4c-0.2-0.8,0-1.5-1-1.7
						c-0.7-0.2-1.8-0.1-1.9,0.7c-0.1,0.6,0.9,1.5,1.1,2c0.3,0.7,0.4,1.4,0.7,2.1c0.3,0.7,0.8,1.3,1,2.1c0.2,0.9,0.1,1.6,0.1,2.5
						c0,1,0.1,1.5,1.1,1.8C306.7,268.3,308.2,267.9,307.3,267.1L307.3,267.1z"/>
					<path class="st3" d="M303.4,267.5c-0.5-1.4-0.7-2.7-0.6-4.1c0.1-1.6-0.2-3-0.3-4.5c0-0.8,0.2-1.4-0.7-1.8
						c-0.6-0.3-1.8-0.4-2,0.3c-0.2,0.6,0.6,1.6,0.7,2.2c0.2,0.7,0.2,1.4,0.3,2.2c0.2,0.7,0.1,1.7,0.2,2.5c0.1,0.9,0,1.6,0.1,2.2
						c0.2,1-0.2,1.5,0.8,2C302.5,268.5,304.1,268.4,303.4,267.5L303.4,267.5z"/>
					<path class="st3" d="M299.8,266.4c-0.3-1.2-0.4-2.3-0.2-3.5c0.2-1.3,0-2.5,0.1-3.8c0-0.7,0.3-1.2-0.4-1.6
						c-0.5-0.3-1.5-0.5-1.7,0.1c-0.2,0.5,0.4,1.4,0.5,1.9c0.1,0.6,0,1.2,0.1,1.8c0.1,0.6,0,1.4,0,2.1c0,0.8-0.1,1.3-0.1,1.9
						c0.1,0.8-0.3,1.3,0.5,1.7C299,267.3,300.3,267.2,299.8,266.4L299.8,266.4z"/>
					<path class="st3" d="M296.6,265.7c-0.2-1.2-0.1-2.2,0.2-3.3c0.3-1.2,0.3-2.4,0.5-3.6c0.1-0.7,0.4-1.1-0.3-1.6
						c-0.5-0.4-1.4-0.7-1.7-0.2c-0.2,0.4,0.2,1.3,0.3,1.8c0,0.6-0.1,1.1-0.1,1.7s-0.2,1.3-0.2,2c-0.1,0.7-0.3,1.2-0.3,1.7
						c0,0.8-0.4,1.1,0.3,1.7C295.7,266.4,297,266.5,296.6,265.7L296.6,265.7z"/>
					<path class="st3" d="M307.2,275.2c0.1-1.6-0.4-2.5-1.2-3.9c-0.3-0.5-1-1.2-0.5-1.8c0.1-0.1,1.9-0.5,2.1-0.5
						c0.8,0.3,0.5,1.4,0.6,2c0,0.8,0.2,1.1,0.4,1.8c0.1,0.4,0.6,1.4,0.4,1.9c-0.2,0.6-1,0.6-1.6,0.8c-0.1-0.1-0.1-0.3-0.1-0.4
						L307.2,275.2z"/>
					<path class="st3" d="M302.7,275.9c0.3-1.7,0-2.8-0.6-4.4c-0.2-0.6-0.8-1.4-0.2-2c0.1-0.1,2-0.3,2.1-0.2
						c0.7,0.4,0.3,1.6,0.2,2.3c-0.1,0.8,0,1.3,0.1,2c0.1,0.5,0.3,1.6,0.1,2.1c-0.3,0.6-1.1,0.6-1.7,0.6c-0.1-0.2-0.1-0.3,0-0.5
						V275.9z"/>
					<path class="st3" d="M298.6,274.6c0.4-1.6,0.1-2.6-0.4-4.1c-0.2-0.5-0.7-1.4-0.1-1.8c0.1-0.1,1.8-0.2,2-0.1
						c0.6,0.4,0.2,1.5,0.1,2.1c-0.1,0.8,0,1.2,0.1,1.9c0,0.5,0.2,1.5,0,1.9c-0.3,0.6-1,0.5-1.6,0.5c-0.1-0.2,0-0.3,0-0.4H298.6z"/>
					<path class="st3" d="M294.3,272.9c0.6-1.4,0.5-2.4,0.2-3.8c-0.1-0.5-0.4-1.4,0.1-1.7c0.1-0.1,1.8,0.1,2,0.3
						c0.6,0.5,0,1.4-0.2,2c-0.2,0.7-0.2,1.1-0.2,1.7c0,0.4,0,1.4-0.3,1.8c-0.4,0.5-1.1,0.2-1.6,0.2
						C294.3,273.1,294.3,273,294.3,272.9L294.3,272.9z"/>
					<path class="st3" d="M309.2,276.6c0-0.1,0-0.2,0-0.3c0,1,0,1.9,0.1,2.8c0.2,1.6-0.2,0.8-1.5,0.9c-0.1-0.6,0.3-1,0.3-1.5
						s-0.2-0.9-0.3-1.3c-0.5-1.4,0-1.4,1.4-1.3c0,0.1,0,0.3,0,0.4V276.6z"/>
					<path class="st3" d="M304.7,278c0-0.1,0-0.2,0-0.3c0,1.2,0.1,2.2,0.3,3.3c0.3,1.9-0.2,1-1.7,1.1c-0.1-0.7,0.3-1.2,0.3-1.7
						c0-0.6-0.3-1-0.5-1.6c-0.7-1.6-0.1-1.7,1.6-1.6c0,0.2,0,0.3,0,0.5L304.7,278z"/>
					<path class="st3" d="M300.4,276.6c0-0.1,0-0.2,0-0.3c-0.1,1.2,0,2.2,0.1,3.3c0.2,1.9-0.2,1-1.8,1c-0.1-0.7,0.4-1.1,0.4-1.7
						c0.1-0.6-0.2-1-0.4-1.6c-0.5-1.7,0-1.7,1.7-1.5c0,0.2,0,0.3,0,0.5L300.4,276.6z"/>
					<path class="st3" d="M295.7,274.4c0-0.1,0-0.2,0-0.3c-0.1,0.9,0,1.7,0,2.6c0.1,1.5-0.2,0.7-1.4,0.8c-0.1-0.6,0.3-0.9,0.3-1.3
						c0-0.5-0.2-0.8-0.3-1.2c-0.4-1.3,0-1.3,1.3-1.2c0,0.1,0,0.2,0,0.4L295.7,274.4z"/>
					<path class="st3" d="M309.1,281.4c0.2-0.7-0.3-1.3-0.9-0.6c-0.3,0.4,0,1.2,0.1,1.6c0.6,2.1,0.9-0.4,0.8-1.4V281.4z"/>
					<path class="st3" d="M305.2,283.6c0.2-0.9-0.4-1.6-1.1-0.8c-0.4,0.5,0,1.5,0.1,2c0.7,2.6,1.1-0.5,1-1.8V283.6z"/>
					<path class="st3" d="M300.4,282.4c0.2-0.9-0.4-1.6-1.1-0.8c-0.4,0.5,0,1.5,0.1,2c0.7,2.6,1.1-0.5,1-1.8V282.4z"/>
					<path class="st3" d="M295.5,279.1c0.2-0.7-0.3-1.4-0.9-0.6c-0.3,0.4,0,1.2,0.1,1.7c0.6,2.1,0.9-0.4,0.8-1.4V279.1z"/>
				</g>
			</g>
			<g>
				<g>
					<path class="st3" d="M262.8,192.6c0,0.6-2.9,1.1-6.5,1.1s-6.5-0.5-6.5-1.1s2.9-1.1,6.5-1.1S262.8,192,262.8,192.6z"/>
					<path class="st3" d="M263.3,196.4c0,0.6-3.2,1.1-7.1,1.1s-7.1-0.5-7.1-1.1s3.2-1.1,7.1-1.1
						C260.1,195.3,263.3,195.8,263.3,196.4z"/>
					<path class="st3" d="M263.6,201.6c0,0.6-3.2,1.1-7.1,1.1s-7.1-0.5-7.1-1.1s3.2-1.1,7.1-1.1C260.4,200.5,263.6,201,263.6,201.6z
						"/>
					<path class="st3" d="M263.1,207.3c0,0.6-3.2,1.1-7.1,1.1s-7.1-0.5-7.1-1.1s3.2-1.1,7.1-1.1
						C259.9,206.2,263.1,206.7,263.1,207.3z"/>
					<path class="st3" d="M264.2,212.6c0,0.9-3.6,1.6-8.1,1.6s-8.1-0.7-8.1-1.6c0-0.9,3.6-1.6,8.1-1.6
						C260.5,211,264.2,211.7,264.2,212.6z"/>
					<path class="st3" d="M264.2,217.1c0,0.9-3.6,1.6-8.1,1.6s-8.1-0.7-8.1-1.6c0-0.9,3.6-1.6,8.1-1.6
						C260.6,215.6,264.2,216.3,264.2,217.1z"/>
					<path class="st3" d="M264.2,222.1c0,0.9-3.6,1.6-8.1,1.6s-8.1-0.7-8.1-1.6c0-0.9,3.6-1.6,8.1-1.6
						C260.5,220.6,264.2,221.3,264.2,222.1z"/>
					<path class="st0" d="M259.4,227.4c0,0.6-1.7,1.1-3.9,1.1c-2.1,0-3.9-0.5-3.9-1.1s1.7-1.1,3.9-1.1
						C257.7,226.2,259.4,226.7,259.4,227.4z"/>
					<polygon class="st0" points="259.9,225.5 252.2,225.8 253,178 259.2,178 					"/>
					<path class="st4" d="M252.6,178.9c0.8,1.1,5.5,0.3,7,0.3c1-5.2-6.6-3.2-7.1-0.1L252.6,178.9z"/>
					<path class="st4" d="M252.9,181.2c0.1,0.7-0.5,2.1-0.2,2.5c0.4,0.5,2,0.3,2.7,0.3c1.2-0.1,5.1,0.4,4.7-1
						c-1.6-0.4-0.1-1.6-0.3-2.3c-0.3-1.1-1.6-0.9-2.6-0.9C256.4,179.6,251.4,179.2,252.9,181.2L252.9,181.2z"/>
					<path class="st4" d="M252.6,186.4c0.1,0.7-0.6,2-0.2,2.5c0.4,0.5,2.2,0.3,2.9,0.3c1.3-0.1,5.6,0.4,5.2-1
						c-1.7-0.4-0.1-1.6-0.3-2.3c-0.3-1.1-1.7-0.9-2.8-0.9C256.4,184.8,251,184.3,252.6,186.4L252.6,186.4z"/>
					<path class="st4" d="M252.4,192.1c0.1,0.7-0.6,2.1-0.2,2.5c0.4,0.5,2.2,0.3,2.9,0.3c1.3-0.1,5.6,0.4,5.2-1
						c-1.7-0.4-0.1-1.6-0.3-2.3c-0.3-1.1-1.7-0.9-2.8-0.9C256.1,190.5,250.7,190,252.4,192.1L252.4,192.1z"/>
					<path class="st4" d="M252.5,197.8c0.1,0.8-0.6,2.2-0.2,2.7c0.4,0.6,2.2,0.3,2.9,0.3c1.3-0.1,5.6,0.5,5.2-1.1
						c-1.7-0.4-0.1-1.7-0.3-2.5c-0.3-1.2-1.7-0.9-2.8-1C256.3,196.1,250.8,195.6,252.5,197.8L252.5,197.8z"/>
					<path class="st4" d="M252.1,203.9c0.1,0.9-0.6,2.5-0.2,3.1c0.5,0.7,2.4,0.4,3.2,0.3c1.4-0.1,6.1,0.5,5.6-1.3
						c-1.9-0.4-0.1-2-0.3-2.9c-0.4-1.4-1.9-1.1-3.1-1.2C256.2,201.9,250.3,201.3,252.1,203.9L252.1,203.9z"/>
					<path class="st4" d="M251.9,209.9c0.1,0.9-0.7,2.5-0.2,3.1c0.5,0.7,2.5,0.4,3.2,0.3c1.4-0.1,6.2,0.5,5.7-1.3
						c-1-0.4-0.1-2-0.3-2.9c-0.4-1.4-1.9-1.1-3.2-1.2C256.1,208,250,207.4,251.9,209.9L251.9,209.9z"/>
					<path class="st4" d="M252,216c0.1,0.9-0.6,2.5-0.2,3.1c0.5,0.7,2.5,0.4,3.2,0.3c1.4-0.1,6.2,0.5,5.7-1.3c-1-0.4-0.1-2-0.3-2.9
						c-0.4-1.4-1.9-1.1-3.2-1.2C256.2,214.1,250.1,213.5,252,216L252,216z"/>
					<path class="st4" d="M251.8,221.3c0.1,0.6-0.7,1.9-0.2,2.3c0.5,0.5,2.5,0.3,3.2,0.2c1.4-0.1,6.2,0.4,5.7-1
						c-1-0.3-0.1-1.4-0.3-2.1c-0.4-1-1.9-0.8-3.2-0.8C256,219.9,249.9,219.4,251.8,221.3L251.8,221.3z"/>
					<path class="st4" d="M251.6,225.2c0.1,0.5-0.7,1.6-0.2,1.9c0.5,0.4,2.5,0.2,3.2,0.2c1.4,0,6.2,0.3,5.7-0.8
						c-0.8-0.4-0.1-1.2-0.3-1.8c-0.4-0.9-1.9-0.7-3.2-0.7C255.8,224,249.8,223.7,251.6,225.2L251.6,225.2z"/>
				</g>
				<path class="st4" d="M259.4,185.9c0,0,6.1,0.7,9.7,4.4l0.4,2c0,0-4.7-3.9-9.8-3.5L259.4,185.9z"/>
				<path class="st4" d="M259.5,180.4c0,0,17.6,1,19.5,16l-0.9,0.7c0,0-1.7-13.1-18.6-13.6V180.4z"/>
				<path class="st4" d="M259,174.8c0,0,13.1,1.5,21.2,9.3l-3.3,0.9c0,0-11-7.3-19.5-8.4L259,174.8z"/>
				<path class="st4" d="M258.8,150.6c0.3,0,13.5-2.6,19.6,5.3l-1.2,1.1c0,0-4.6-6.7-18.8-4.5L258.8,150.6z"/>
				<path class="st4" d="M258.8,155c0.4,0,15.5-3.2,22.5,6.5l-1.1,1.1c0,0-5.5-8-21.8-5.3L258.8,155z"/>
				<path class="st4" d="M257.2,159.8c0.4,0,16.5-3.5,24.5,8.5l-0.5,2.6c0,0-8.3-12.6-24.5-8.7L257.2,159.8z"/>
				<path class="st4" d="M256,165.7c0.4,0,18-3.4,26.7,8.7l-0.6,2.6c0,0-9-12.7-26.6-9L256,165.7z"/>
				<path class="st4" d="M255.3,170.7c0.4,0,18-3.4,26.7,8.7l-0.6,2.6c0,0-9-12.7-26.6-9L255.3,170.7z"/>
				<path class="st4" d="M276.7,149.2c0,0-5.4-5.1-16.6-3.7l0.5,1.7c0,0,7.1-2.3,16.4,4.1L276.7,149.2z"/>
				<path class="st4" d="M259.3,139.7c0,0,8.7-2.5,14.9,4l-3.2,0.4c0,0-3-5.6-12.2-2.1l-0.8-1.7L259.3,139.7z"/>
				<path class="st3" d="M258.8,175.6c0,0,13.5,14.2,19.5,7c0,0,4.4-3.6,3.9-9.1l0.7-2c0,0,3.4,12.5-6.3,16c0,0-11,1.3-19.5-10.5
					L258.8,175.6z"/>
				<path class="st3" d="M259.6,172.8c0,0,13.4,9.2,20.3,0.1c0,0,2.4-4.1,1.1-7.8l1.1-1.7c0,0,3.8,9.7-3.2,14.8c0,0-3.1,3-8,1.6
					c0,0-10.4-2.3-12.3-5.2L259.6,172.8z"/>
				<path class="st3" d="M259.8,167.3c0,0,10.2,6.2,17.1-0.4c0,0,5.4-4.7,1.2-9.5l1.4-1.2c0,0,4.5,5.7,1.7,10.4
					c0,0-4.9,7.1-12.1,6.7c0,0-7.9-1-9.5-3.6L259.8,167.3z"/>
				<path class="st3" d="M277,151.6c0,0,4.6,4.8-8.3,11.2c0,0-4.3,0.9-9.7,0.3l0.3,2.3c0,0,7.7,1.5,11.1,0c0,0,14.7-6.5,7.5-15.1
					L277,151.6z"/>
				<path class="st3" d="M259,157.8c0,0,4.5,0.8,9-2.2c0,0,11.5-5.8,6.2-9.4l0.3-1.2c0,0,5.5,3.3,2.8,6.9c0,0-4.3,4.7-11.1,7.4
					c0,0-5.3,1.5-7.3,0.6l-0.6-1.4L259,157.8z"/>
				<path class="st3" d="M258.4,152.5c0,0,11-2,12.7-8.9l3.1-0.1c0,0,1.2,2.3-0.7,3.8c0,0-6.4,6.3-14.8,8.2l-1.6-1.9L258.4,152.5z"
					/>
				<path class="st3" d="M259.4,137.3c0,0,8.2-2.3,9.4,5.4c0,0,0.9,3.2-7.3,6.4l-0.6-1.2c0,0,7.2-2,6.7-5.6c0,0-1.2-5.9-8.2-2.6
					l-0.7-2L259.4,137.3z"/>
				<path class="st3" d="M283.1,178.5c0,0,0.7,7-5.8,12.9c0,0-3.4,3.7-9.6-2.2c0,0-3.1-2.1-5.1-7.7l3,1.6c0,0,9.2,18,16.9-3.1
					L283.1,178.5z"/>
				<path class="st3" d="M270.4,190.9c0,0,6.8,11,11.8-7.3l0.7-2.8c0,0,1.1,7.5-4.7,13.9c0,0-6.3,6.1-13.1-8.6L270.4,190.9z"/>
				<path class="st3" d="M282.1,188.1c0,0-4.1,15-10.6,6l-1.7-1.1c0,0,4.6,11.1,9.7,3.6C279.5,196.7,282.4,193.3,282.1,188.1z"/>
				<path class="st4" d="M253.3,185.7c0,0-6.1,0.7-9.7,4.4l-0.4,2c0,0,4.7-3.9,9.8-3.5L253.3,185.7z"/>
				<path class="st4" d="M253.2,180.2c0,0-17.6,1-19.5,16l0.9,0.7c0,0,1.7-13.1,18.6-13.6V180.2z"/>
				<path class="st4" d="M253.7,174.6c0,0-13.1,1.5-21.2,9.3l3.3,0.9c0,0,11-7.3,19.5-8.4L253.7,174.6z"/>
				<path class="st4" d="M253.8,150.4c-0.3,0-13.5-2.6-19.6,5.3l1.2,1.1c0,0,4.6-6.7,18.8-4.5L253.8,150.4z"/>
				<path class="st4" d="M253.9,154.8c-0.4,0-15.5-3.2-22.5,6.5l1.1,1.1c0,0,5.5-8,21.8-5.3L253.9,154.8z"/>
				<path class="st4" d="M255.4,159.6c-0.4,0-16.5-3.5-24.5,8.5l0.5,2.6c0,0,8.3-12.6,24.5-8.7L255.4,159.6z"/>
				<path class="st4" d="M256.6,165.6c-0.4,0-18-3.4-26.7,8.7l0.6,2.6c0,0,9-12.7,26.6-9L256.6,165.6z"/>
				<path class="st4" d="M257.4,170.6c-0.4,0-18-3.4-26.7,8.7l0.6,2.6c0,0,9-12.7,26.6-9L257.4,170.6z"/>
				<path class="st4" d="M235.9,149c0,0,5.4-5.1,16.6-3.7L252,147c0,0-7.1-2.3-16.4,4.1L235.9,149z"/>
				<path class="st4" d="M253.3,139.5c0,0-8.7-2.5-14.9,4l3.2,0.4c0,0,3-5.6,12.2-2.1l0.8-1.7L253.3,139.5z"/>
				<rect x="253.7" y="132.5" class="st0" width="5.2" height="8.7"/>
				<path class="st3" d="M253.8,175.4c0,0-13.5,14.2-19.5,7c0,0-4.4-3.6-3.9-9.1l-0.7-2c0,0-3.4,12.5,6.3,16c0,0,11,1.3,19.5-10.5
					L253.8,175.4z"/>
				<path class="st3" d="M253,172.6c0,0-13.4,9.2-20.3,0.1c0,0-2.4-4.1-1.1-7.8l-1.1-1.7c0,0-3.8,9.7,3.2,14.8c0,0,3.1,3,8,1.6
					c0,0,10.4-2.3,12.3-5.2L253,172.6z"/>
				<path class="st3" d="M252.9,167.1c0,0-10.2,6.2-17.1-0.4c0,0-5.4-4.7-1.2-9.5l-1.4-1.2c0,0-4.5,5.7-1.7,10.4
					c0,0,4.9,7.1,12.1,6.7c0,0,7.9-1,9.5-3.6L252.9,167.1z"/>
				<path class="st3" d="M235.6,151.4c0,0-4.6,4.8,8.3,11.2c0,0,4.3,0.9,9.7,0.3l-0.3,2.3c0,0-7.7,1.5-11.2,0c0,0-14.7-6.5-7.5-15.1
					L235.6,151.4z"/>
				<path class="st3" d="M253.6,157.6c0,0-4.5,0.8-9-2.2c0,0-11.5-5.8-6.2-9.4l-0.3-1.2c0,0-5.5,3.3-2.8,6.9c0,0,4.3,4.7,11.1,7.4
					c0,0,5.3,1.5,7.3,0.6l0.6-1.4L253.6,157.6z"/>
				<path class="st3" d="M254.2,152.3c0,0-11-2-12.7-8.9l-3.1-0.1c0,0-1.2,2.3,0.7,3.8c0,0,6.4,6.3,14.8,8.2l1.6-1.9L254.2,152.3z"
					/>
				<path class="st3" d="M253.3,137.2c0,0-8.2-2.3-9.4,5.4c0,0-0.9,3.2,7.3,6.4l0.6-1.2c0,0-7.2-2-6.7-5.6c0,0,1.2-5.9,8.2-2.6
					l0.7-2L253.3,137.2z"/>
				<path class="st3" d="M255.1,175.9c-0.3,1.2-0.3,7.2,1.8,5.5c0.8-0.6,0.8-3,0.8-3.9c-0.1-1.5-0.4-2.2-2-1.9L255.1,175.9z"/>
				<path class="st4" d="M251.6,125.1c0,0.5-0.5,0.4-0.7,0.8c-0.3,0.5,0.1,0.6,0.3,1s0.3,0.8-0.1,1.1c-0.3,0.2-0.9,0-0.8,0.7
					c0.1,0.4,0.5,0.5,0.5,1c0.1,0.6-0.2,0.6-0.6,0.9c-0.3,0.2-0.8,0.6-0.4,1c0.3,0.3,0.9,0.1,1.1,0.5c0.8,0.9-0.8,1.1-1.3,1.5
					c-1.1,0.8,0.1,1.2,0.8,1.4c0.4,0.1,0.7,0.4,1,0.6c0.4,0.2,0.8,0.1,1.3,0.1c0.9,0.1,1.9,0.1,2.8,0.1c1.9,0,3.6-0.4,5.5-0.5
					c0.8,0,2.1-0.4,1.5-1.4c-0.3-0.4-1.9-1-1.6-1.6c0.1-0.3,0.7-0.3,0.9-0.6c0.2-0.3,0.3-0.8-0.1-1.2c-0.2-0.3-0.9-0.3-1-0.7
					c-0.1-0.5,0.7-0.3,1-0.6c0.9-0.9-1.4-0.9-0.7-2c0.3-0.4,0.6-0.5,0.2-1c-0.3-0.4-0.5-0.4-0.7-0.8c-0.1-0.4,0.1-0.4-0.3-0.6
					s-1.1-0.1-1.5,0c-1,0.1-1.9,0.2-2.9,0.2c-1.5,0-2.9,0-4.3,0.3L251.6,125.1z"/>
				<rect x="253.7" y="127.8" class="st0" width="5.2" height="7"/>
				<path class="st3" d="M258.7,129.7c0.1,0.7-1.6,0.8-2.2,0.8c-0.7,0-2,0.2-2.5-0.2c-0.3-0.3-0.3-0.8-0.9-0.6
					c-0.3,0.1-0.5,0.6-0.8,0.7c-0.6,0.4-1.6,0.7-0.7,1.6c0.3,0.3,0.6,0.4,1,0.4c0.6,0.1,0.8,0.1,1.3,0.3c0.8,0.4,1.7,0.3,2.6,0.2
					c0.5,0,1,0,1.4-0.1s0.8-0.3,1.2-0.5c0.6-0.2,1.9-0.2,1.6-1.4c-0.1-0.5-0.7-0.5-1-0.8s-0.4-0.9-0.9-0.8
					C258.8,129.5,258.8,129.6,258.7,129.7L258.7,129.7z"/>
				<path class="st3" d="M258.8,133.1c0.1,0.7-1.6,0.8-2.2,0.8c-0.7,0-2,0.2-2.5-0.2c-0.3-0.3-0.3-0.8-0.9-0.6
					c-0.3,0.1-0.5,0.6-0.8,0.7c-0.6,0.4-1.6,0.7-0.7,1.6c0.3,0.3,0.6,0.4,1,0.4c0.6,0.1,0.8,0.1,1.3,0.3c0.8,0.4,1.7,0.3,2.6,0.2
					c0.5,0,1,0,1.4-0.1s0.8-0.3,1.2-0.5c0.6-0.2,1.9-0.2,1.6-1.4c-0.1-0.5-0.7-0.5-1-0.8s-0.4-0.9-0.9-0.8
					C258.9,133,258.9,133,258.8,133.1L258.8,133.1z"/>
				<path class="st3" d="M259.5,138.8c-0.7,0.2-0.6-0.3-0.6-0.8c0-0.6-0.1-0.7-0.7-0.7c-0.9-0.1-1.8,0.2-2.8,0.1
					c-0.9-0.1-1.9-0.8-1.9,0.6c0,0.5-0.1,0.7-0.3,1.1c-0.2,0.4-0.2,0.6,0.3,0.9c0.8,0.4,6.3,0.4,6-0.9c-0.1,0-0.1,0-0.2-0.1
					L259.5,138.8z"/>
				<path class="st3" d="M259.3,140.6c-1.8,0.3-3.6,0.3-5.5,0c-1.5-0.2-0.1,1,0,1.6c0.2,1,0,1.8,1.3,1.9c0.7,0.1,1.3-0.1,1.9-0.2
					c0.5-0.1,1.4,0,1.8-0.4c0.6-0.6-0.1-1,0.1-1.6C259,141.7,260.2,140.8,259.3,140.6L259.3,140.6z"/>
				<g>
					<path class="st0" d="M225.5,140.7c-1.1,0.1-0.5,1.3,0.1,1.6c0.3,0.1,1,0.1,1.3,0c0.3-0.2,0.5-0.7,0-0.8L225.5,140.7z"/>
					<path class="st0" d="M252.9,141.4c0.4-0.1,0.8,0.6,1,1.1c0.3,0.8,0.1,1.2-0.4,1.8c-1.8,1.8-1-1.4-1.1-2.3L252.9,141.4z"/>
					<path class="st3" d="M252.5,144.4c0.2-0.4,0.4-1.1,0.6-1.6c0.3-0.6,0.3-1.2-0.4-1.6c-1.2-0.6-3.2,0.5-4.4,0.5
						c-2.9,0.2-5.8,0.4-8.6-0.3c-2.5-0.6-4.7-1.3-7.3-1.5c-2.4-0.2-4.8,0.2-7.2,0.6c-0.6,2.4,6.1,1.7,7.2,1.8
						c1.5,0.1,2.8,0.7,4.3,0.9c1.4,0.1,2.9,0.2,4.4,0.2c1.1,0,2.1,0.2,3.3,0.3c1.1,0.1,2.4,0,3.5,0.2c0.9,0.2,1.7,0.6,2.5,0.9
						c0.4,0.1,2.8,0.6,2.3-0.4L252.5,144.4L252.5,144.4z"/>
				</g>
				<g>
					<path class="st0" d="M287.2,140.6c1.1,0.1,0.5,1.3-0.1,1.6c-0.3,0.1-1,0.1-1.3,0c-0.3-0.2-0.5-0.7,0-0.8L287.2,140.6z"/>
					<path class="st0" d="M259.7,141.3c-0.4-0.1-0.8,0.6-1,1.1c-0.3,0.8-0.1,1.2,0.4,1.8c1.8,1.8,1-1.4,1.1-2.3L259.7,141.3z"/>
					<path class="st3" d="M260.1,144.4c-0.2-0.4-0.4-1.1-0.6-1.6c-0.3-0.6-0.3-1.2,0.4-1.6c1.2-0.6,3.2,0.5,4.4,0.5
						c2.9,0.2,5.8,0.4,8.6-0.3c2.5-0.6,4.7-1.3,7.3-1.5c2.4-0.2,4.8,0.2,7.2,0.6c0.6,2.4-6.1,1.7-7.2,1.8c-1.5,0.1-2.8,0.7-4.3,0.9
						c-1.4,0.1-2.9,0.2-4.4,0.2c-1.1,0-2.1,0.2-3.3,0.3c-1.1,0.1-2.4,0-3.5,0.2c-0.9,0.2-1.7,0.6-2.5,0.9c-0.4,0.1-2.8,0.6-2.3-0.4
						L260.1,144.4L260.1,144.4z"/>
				</g>
				<path class="st3" d="M256.9,143.4c-1.1,0.3-2.8,0.1-3.1,1.5c-1.2,0.3-2.5-0.1-3.1,1.2c-0.5,1.2,0.1,2.7,0.8,3.5
					c0.9,0.9,1.9,1.2,2.4,2.5c0.6,1.6,0,2.1-0.5,3.5c-0.4,1.4,0.3,2.3,0.1,3.7c-0.1,0.5-0.6,1-0.6,1.6c-0.1,0.8,0.2,1.2,0.3,1.9
					c0.4,2.6-0.9,4.7-0.9,7.5c0,2.4,0.3,5.4,2.5,6.9c2.7,1.8,4-1.9,4.9-3.8c1.3-2.6,0.1-4.4,0-7.2s-0.8-4.7-0.7-7.5
					c0.1-1.8-0.8-3.6-0.5-5.3s1.8-2.5,2.6-3.9C263.2,145.7,259.8,144,256.9,143.4L256.9,143.4z"/>
				<path class="st3" d="M229.5,178.3c0,0-0.7,7,5.8,12.9c0,0,3.4,3.7,9.6-2.2c0,0,3.1-2.1,5.1-7.7l-3,1.6c0,0-9.2,18-16.9-3.1
					L229.5,178.3z"/>
				<path class="st3" d="M242.3,190.7c0,0-6.8,11-11.8-7.3l-0.7-2.8c0,0-1.1,7.5,4.7,13.9c0,0,6.3,6.1,13.1-8.6L242.3,190.7z"/>
				<path class="st3" d="M230.6,188c0,0,4.1,15,10.6,6l1.7-1.1c0,0-4.6,11.2-9.7,3.6C233.2,196.5,230.2,193.1,230.6,188z"/>
			</g>
			<g>
				<path class="st0" d="M257,256c0,0.8-0.6,1.4-1.4,1.4h-1.2c-0.8,0-1.4-0.6-1.4-1.4v-1.2c0-0.8,0.6-1.4,1.4-1.4h1.2
					c0.8,0,1.4,0.6,1.4,1.4V256z"/>
				<path class="st4" d="M245.8,253c-0.5,1.3,0.5,3.5,1.4,4.4c1.3,1.1,3.1,1.4,3.2-0.8c0.1-1-0.6-1.4,0.6-1.9c0.6-0.3,2-0.2,2.5,0.3
					c1.1,1.2,0.3,3.5-0.8,4.5c-0.9,0.8-2.4,2.3-3.6,2.4c-1.5,0.1-3.1-0.7-4.3-1.4c-2.9-1.8-3.3-6.9-3.2-10.1
					C243.2,249.8,244.7,251.9,245.8,253L245.8,253z"/>
				<path class="st4" d="M264.4,253c0.5,1.3-0.5,3.5-1.4,4.4c-1.3,1.1-3.1,1.4-3.2-0.8c-0.1-1,0.6-1.4-0.6-1.9
					c-0.6-0.3-2-0.2-2.5,0.3c-1.1,1.2-0.3,3.5,0.8,4.5c0.9,0.8,2.4,2.3,3.6,2.4c1.5,0.1,3.1-0.7,4.3-1.4c2.9-1.8,3.3-6.9,3.2-10.1
					c-1.6-0.6-3.1,1.5-4.3,2.6H264.4z"/>
				<path class="st4" d="M250.2,227.4c-1.9,0.7-2.6-0.6-3.9-1.5c-1.4-1-2.8-0.6-3.3,1.2c-0.5,1.5,1,3.2,1.2,4.7
					c0.1,0.9,0.1,1.7-0.1,2.5c-0.2,0.8-0.6,1.5-0.2,2.3c1.2,0.1,1.4,0.1,2.1,1c0.5,0.6,1.1,0.9,1.5,1.4c1,1.2,1.2,3.1,1.9,4.3
					c0.3,0.5,1,1.4,1.5,1.7c0.7,0.5,1.4,0.4,1.8,1.3c0.2,0.4,0.1,0.8,0.2,1.2c0.1,0.1,0.6,0.6,0.7,0.9c0.3,0.6,0.6,1.5,0.9,2.1
					c0.3,0.5,0.6,1.9,1.6,1.3c0.4-0.3,0.2-0.8,0.3-1.2c0.1-0.4,0.4-0.7,0.6-1.2c0.1-0.3,0.1-0.8,0.3-1.2c0.2-0.4,0.7-0.6,0.8-1.1
					c0.2-0.4,0-0.9,0.1-1.2c0.2-0.8,0.2-0.4,0.7-0.8c1.4-1.1,1.7-2,2.3-3.7c0.6-1.6,1.7-2.8,2.5-4.3c0.8-1.6,2.6-2.1,3.1-4
					c0.5-1.8,0.4-3.4-0.5-5c-0.4-0.8-1.8-3.2-3-3c-0.6,0.1-1.3,1.2-1.9,1.5c-0.8,0.5-1.8,0.7-2.7,0.7c-1.6,0.1-3,0.4-4.6,0.4
					c-1.1,0-3.3-0.7-4.2,0L250.2,227.4z"/>
				<path class="st3" d="M245.6,224.8c-1.7-0.1-3.2-3.3-5.3-3.7c-2.8-0.6-5.5-0.7-7.6,1.2c-2.1,1.8-3.7,3.3-4.2,6
					c-0.5,2.6-0.1,6,0.9,8.4c1,2.3,3.5,2.5,5.3,4.1c0.8,0.7,1.7,2,1.5,3.1c-0.3,1.5-1.7,1.5-0.2,2.8c1.8,1.5,4,1.8,5.4,4.1
					c1.8,2.9,2.7,3,6,3.6c2,0.3,4.2,1.5,6.4,1.2c0.2-4.5-2.6-1.9-5.4-3.6c-2.1-1.2-3.6-3.3-4.5-5.4c-1-2.5-1.6-5.3-0.8-8
					c0.8-2.9,1.9-4.6,1.3-7.6c-0.2-1-1.1-2.7-0.6-3.9C244.1,226,246.4,226.2,245.6,224.8L245.6,224.8z"/>
				<path class="st3" d="M264.1,224.8c1.7-0.1,3.2-3.3,5.3-3.7c2.8-0.6,5.5-0.7,7.6,1.2c2.1,1.8,3.7,3.3,4.2,6
					c0.5,2.6,0.1,6-0.9,8.4c-1,2.3-3.5,2.5-5.3,4.1c-0.8,0.7-1.7,2-1.5,3.1c0.3,1.5,1.7,1.5,0.2,2.8c-1.8,1.5-4,1.8-5.4,4.1
					c-1.8,2.9-2.7,3-6,3.6c-2,0.3-4.2,1.5-6.4,1.2c-0.2-4.5,2.6-1.9,5.4-3.6c2.1-1.2,3.6-3.3,4.5-5.4c1-2.5,1.6-5.3,0.8-8
					c-0.8-2.9-1.9-4.6-1.3-7.6c0.2-1,1.1-2.7,0.6-3.9C265.6,226,263.3,226.2,264.1,224.8L264.1,224.8z"/>
			</g>
			<path class="st0" d="M214.2,405.8c0,0,0.8,1.2,2.7,1c0,0,2.3-1.3,3.2,1.5c0,0,1.1,1.3,1.3-3.7l-3.1-2l-3-0.2L214.2,405.8z"/>
			<path class="st2" d="M224.2,337.3c-0.7,5.8-3.1,11-3.4,16.9c-0.3,5.8-0.5,11.6-1,17.4c-0.5,6-0.8,11.9-1.8,17.8
				c-0.5,3-0.5,6.1-1.1,9.2c-0.4,2-0.8,6.2-2.3,7.4c-0.4,0.3-0.9,0.4-1.3,0.1c-0.4-2.5,1.1-6.1,1.6-8.5c0.6-2.9,1-6.1,1.1-9
				s0.3-5.9,0.5-8.9c0.3-3,1.2-5.7,1.5-8.7c0.5-5.9,1.3-12.3,1.5-18.2c0.1-2.9,0.6-5.7,1.1-8.6c0.2-1.4,0.6-3.1,0.6-4.6
				c0-1.4-0.5-2.6-0.5-4c-0.1-1.7,0.8-3.6,2.4-2.9c1.3,0.6,1.4,3.3,1.1,4.8L224.2,337.3z"/>
			<path class="st0" d="M222.7,326.2c0,0,0.1,2.9,4.1,2.8c0,0,2.1,1.3,3.7,0.2c0,0,4.2,1.5,4.6-1.1L222.7,326.2z"/>
			<path class="st0" d="M234.3,252.1c0,0-0.6-3.3,2.4-3.6c0,0,4.6,1.8,5.1,6.1c0,0-0.6,1.4-2.1,0.3c-1.5-1.1-0.2-0.1-0.2-0.1
				L234.3,252.1z"/>
			<path class="st3" d="M240.3,255.4c-7.7-1.9-7.5,11.7-7.6,16.7c-0.1,7.3-1.2,14.5-0.9,21.6c0.1,3.3-0.1,6.9,0,10.3
				c0,1.7-0.3,3.5-0.1,5.2c0.2,1.4,0.9,2.7,1.3,4.1c0.8,3.1,2.4,5.6,3.4,8.5c1.1,3.2,0.4,7.8-3.7,6.7c-2.7-0.7-6.2-0.2-8.9-1.4
				c-3.5-1.6-0.8-5.8,0.3-8.1c3.2-6.8,1.6-13.3,1.9-20.9c0.1-3.7,0.2-7.5,0-11.1c-0.1-3.6-0.4-7.2,0.1-11c0.6-3.9,0.7-7.3,0.6-11.1
				c-0.1-1.6,0-3.3-0.4-4.8c-0.3-1.4-1.3-2.5-1.3-4.1c0-1.5,1-4,2.1-4.8c1.7-1.1,2.9,0.5,4.6,0.7c2,0.3,2.9-0.6,4.9,0.3
				C238.3,253,239.5,253.8,240.3,255.4L240.3,255.4z"/>
			<path class="st0" d="M232.3,324.5c-0.3,1.8-1.9,3-3.6,2.7c-1.7-0.3-3-1.9-2.7-3.7c0.3-1.8,1.9-3,3.6-2.7
				C231.3,321.1,232.5,322.7,232.3,324.5z"/>
			<path class="st3" d="M227.7,345.7c0.1-2.8,1.2-5.5,2.4-7.8c1.1-2.1,4.3-3.8,3-7s-3.9-0.3-5.8-0.7c-1.7-0.3-5.1-3.2-5.2,1
				c-0.1,2.5,1.5,4.8,1.6,7.3c0.1,2.9-0.2,6.1-0.2,8.9c-0.1,6-1.3,12-2.2,17.9c-0.5,3-0.6,5.9-1,9s-1,5.8-0.8,8.8
				c0.2,2.9-0.7,5.5-1.3,8.4c-0.6,2.8-1.3,5.4-2.2,8c-1.1,3.5-0.8,4.5,1.8,4.4c1.2-0.1,1.1-0.3,2.1,0.3c1.2,0.7,1.9,1.1,2.4-0.9
				c0.6-2.5-0.3-2.2-0.4-4.6c-0.1-2.7,0.4-7.6,0.5-10.4c0.6-12.2,1.9-24,3.9-36.1c0.5-2.9,0.8-5.6,1.7-8.3L227.7,345.7z"/>
			<path class="st0" d="M263.5,402.8c0,0-1.6,0.6-3.4-0.7c0,0-1.6-2.6-4.1-0.5c0,0-2.2,1.1,0.6-3.8l4.6-0.5l3.2,1.6L263.5,402.8z"/>
			<path class="st2" d="M270,339.4c-0.6,5.2,0.6,10.3-0.5,15.4s-2.1,10.1-2.9,15.3c-0.9,5.3-1.9,10.5-2.3,15.8
				c-0.2,2.7-0.9,5.4-1,8.2c-0.1,1.8-2.2,4.8-0.9,6.1c0.3,0.3,1.3,0.8,1.8,0.7c1-2.1,0.3-4.9,0.4-7.1c0.1-2.6,1.5-5.6,2-8.2
				s1.1-5.2,1.5-7.8c0.4-2.7,0-5.2,0.5-7.9c0.8-5.2,1.5-11,2.6-16.1c0.6-2.6,0.7-5.1,0.9-7.7c0.1-1.3,0.2-2.8,0.5-4.1
				c0.3-1.2,1-2.1,1.4-3.3c0.5-1.5,0-3.3-1.7-3c-1.4,0.3-2.2,2.6-2.2,3.9L270,339.4z"/>
			<path class="st0" d="M275.2,328.7c0,0-0.5,2.9-4.5,2.3c0,0-2.3,1-3.9-0.3c0,0-4.5,1-4.5-1.7L275.2,328.7z"/>
			<path class="st0" d="M273.6,252.4c0,0,1-3.2-2-3.9c0,0-4.9,1.2-6.1,5.5c0,0,0.5,1.5,2.1,0.6c1.7-0.9,0.2-0.1,0.2-0.1L273.6,252.4
				z"/>
			<path class="st3" d="M267,254.9c8.2-0.8,6.1,12.8,5.5,17.9c-0.9,7.4-0.8,14.8-2.1,21.9c-0.6,3.4-0.8,7-1.4,10.4
				c-0.3,1.7-0.2,3.6-0.6,5.2c-0.4,1.4-1.3,2.6-1.9,4c-1.2,3-3.3,5.3-4.7,8.1c-1.5,3.1-1.5,7.8,2.9,7.3c2.9-0.3,6.3,0.7,9.3-0.2
				c3.8-1.1,1.6-5.7,0.8-8.2c-2.3-7.3,0.2-13.6,0.9-21.3c0.4-3.8,0.9-7.6,1.5-11.2s1.4-7.2,1.4-11.1c-0.1-4,0.3-7.5,1-11.3
				c0.3-1.6,0.4-3.3,1-4.8c0.6-1.4,1.6-2.4,1.9-3.9s-0.4-4.2-1.5-5.1c-1.6-1.3-3,0.1-4.8,0.1c-2.1,0-2.9-1-5-0.4
				C269.4,252.8,268,253.4,267,254.9L267,254.9z"/>
			<path class="st0" d="M265.6,325.7c0,1.8,1.5,3.3,3.3,3.2c1.8,0,3.3-1.5,3.3-3.3s-1.5-3.3-3.3-3.2
				C267.1,322.4,265.6,323.9,265.6,325.7z"/>
			<path class="st3" d="M264.6,346c0.5-2.4,0.1-5.1-0.6-7.3c-0.7-2.1-3.4-4.3-1.4-6.7c2-2.5,4,0.6,6,0.7c1.8,0.1,5.9-1.6,5,2.1
				c-0.5,2.2-2.6,3.8-3.3,5.9c-0.8,2.5-1.2,5.3-1.8,7.7c-1.3,5.2-1.5,10.7-1.9,16c-0.2,2.7-0.8,5.3-1.1,8c-0.3,2.7-0.3,5.3-1.2,7.8
				c-0.8,2.4-0.5,5-0.6,7.6s0.1,5,0.4,7.4c0.3,3.3-1.1,4.2-3.7,3.4c-1.2-0.3-1.3-0.1-2.5,0.2c-1.4,0.3-1.7,0.2-1.8-1.6
				c0-2.3,2.7-2.5,2.7-5.4c0-2.4,0.8-5.4,1.3-7.8c2.2-10.7,3.6-21.2,4.3-32.2c0.2-2.7,0.5-5,0.1-7.6L264.6,346z"/>
			<g>
				<path class="st0" d="M254.1,101.8c0,3-2.4,5.4-5.5,5.4c-3,0-5.5-2.4-5.5-5.4s2.4-5.4,5.5-5.4C251.6,96.4,254.1,98.8,254.1,101.8
					z"/>
				<path class="st0" d="M268.4,102.3c0,3-2.4,5.4-5.5,5.4c-3,0-5.5-2.4-5.5-5.4s2.4-5.4,5.5-5.4C265.9,97,268.4,99.4,268.4,102.3z"
					/>
				<path class="st0" d="M262,105.7c0,3-2.4,5.4-5.5,5.4c-3,0-5.5-2.4-5.5-5.4s2.4-5.4,5.5-5.4C259.5,100.3,262,102.8,262,105.7z"/>
				<g>
					<path class="st5" d="M257,118.6c0,0.2-0.2,0.4-0.5,0.4l0,0c-0.3,0-0.6-0.2-0.6-0.4v-2c0-0.2,0.2-0.4,0.6-0.4l0,0
						c0.3,0,0.5,0.2,0.5,0.4V118.6z"/>
					<path class="st5" d="M258.1,118.6c0,0.2-0.2,0.4-0.6,0.4l0,0c-0.3,0-0.5-0.2-0.5-0.4v-2c0-0.2,0.2-0.4,0.5-0.4l0,0
						c0.3,0,0.6,0.2,0.6,0.4V118.6z"/>
					<path class="st5" d="M259.1,118.5c0,0.2-0.2,0.4-0.5,0.4l0,0c-0.3,0-0.6-0.2-0.6-0.4v-2c0-0.2,0.2-0.4,0.6-0.4l0,0
						c0.3,0,0.5,0.2,0.5,0.4V118.5z"/>
					<path class="st5" d="M260.2,118.4c0,0.2-0.2,0.4-0.5,0.4l0,0c-0.3,0-0.6-0.2-0.6-0.4v-2c0-0.2,0.2-0.4,0.6-0.4l0,0
						c0.3,0,0.5,0.2,0.5,0.4V118.4z"/>
					<path class="st5" d="M261.1,118.3c0,0.2-0.2,0.4-0.5,0.4l0,0c-0.3,0-0.6-0.2-0.6-0.4v-2c0-0.2,0.2-0.4,0.6-0.4l0,0
						c0.3,0,0.5,0.2,0.5,0.4V118.3z"/>
					<path class="st5" d="M261.7,118.1c0,0.2-0.2,0.4-0.6,0.4l0,0c-0.3,0-0.5-0.2-0.5-0.4v-2c0-0.2,0.2-0.4,0.5-0.4l0,0
						c0.3,0,0.6,0.2,0.6,0.4V118.1z"/>
					<path class="st5" d="M254.9,118.5c0,0.2,0.2,0.4,0.5,0.4l0,0c0.3,0,0.5-0.2,0.5-0.4v-2c0-0.2-0.2-0.4-0.5-0.4l0,0
						c-0.3,0-0.5,0.2-0.5,0.4V118.5z"/>
					<path class="st5" d="M253.8,118.5c0,0.2,0.2,0.4,0.5,0.4l0,0c0.3,0,0.6-0.2,0.6-0.4v-2c0-0.2-0.2-0.4-0.6-0.4l0,0
						c-0.3,0-0.5,0.2-0.5,0.4V118.5z"/>
					<path class="st5" d="M252.8,118.4c0,0.2,0.2,0.4,0.5,0.4l0,0c0.3,0,0.5-0.2,0.5-0.4v-2c0-0.2-0.2-0.4-0.5-0.4l0,0
						c-0.3,0-0.5,0.2-0.5,0.4V118.4z"/>
					<path class="st5" d="M251.8,118.3c0,0.2,0.2,0.4,0.5,0.4l0,0c0.3,0,0.5-0.2,0.5-0.4v-2c0-0.2-0.2-0.4-0.5-0.4l0,0
						c-0.3,0-0.5,0.2-0.5,0.4V118.3z"/>
					<path class="st5" d="M250.8,118.2c0,0.2,0.2,0.4,0.5,0.4l0,0c0.3,0,0.5-0.2,0.5-0.4v-2c0-0.2-0.2-0.4-0.5-0.4l0,0
						c-0.3,0-0.5,0.2-0.5,0.4V118.2z"/>
					<path class="st5" d="M250.2,118c0,0.2,0.2,0.4,0.6,0.4l0,0c0.3,0,0.5-0.2,0.5-0.4v-2c0-0.2-0.2-0.4-0.5-0.4l0,0
						c-0.3,0-0.6,0.2-0.6,0.4V118z"/>
					<path class="st6" d="M256.1,117.8c0,0.6,0,1.1-0.1,1.1c0,0-0.1-0.5-0.1-1.1s0-1.1,0.1-1.1C256,116.7,256.1,117.2,256.1,117.8z"
						/>
					<path class="st6" d="M254.7,117.9c0,0.6,0,1.1-0.1,1.1c0,0-0.1-0.5-0.1-1.1s0-1.1,0.1-1.1S254.7,117.3,254.7,117.9z"/>
					<path class="st6" d="M253.6,117.9c0,0.6,0,1.1-0.1,1.1c0,0-0.1-0.5-0.1-1.1s0-1.1,0.1-1.1C253.6,116.7,253.6,117.2,253.6,117.9
						z"/>
					<path class="st6" d="M252.6,117.7c0,0.6,0,1.1-0.1,1.1c0,0-0.1-0.5-0.1-1.1s0-1.1,0.1-1.1C252.5,116.6,252.6,117.1,252.6,117.7
						z"/>
					<path class="st6" d="M251.5,117.6c0,0.6,0,1.1-0.1,1.1c0,0-0.1-0.5-0.1-1.1s0-1.1,0.1-1.1S251.5,117,251.5,117.6z"/>
					<path class="st6" d="M257.1,117.8c0,0.6,0,1.1-0.1,1.1c0,0-0.1-0.5-0.1-1.1s0-1.1,0.1-1.1C257.1,116.7,257.1,117.2,257.1,117.8
						z"/>
					<path class="st6" d="M258.1,117.8c0,0.6,0,1.1-0.1,1.1c0,0-0.1-0.5-0.1-1.1s0-1.1,0.1-1.1C258.1,116.7,258.1,117.2,258.1,117.8
						z"/>
					<path class="st6" d="M259,117.8c0,0.6,0,1.1-0.1,1.1c0,0-0.1-0.5-0.1-1.1s0-1.1,0.1-1.1C259,116.7,259,117.2,259,117.8z"/>
					<path class="st6" d="M260,117.8c0,0.6,0,1.1-0.1,1.1c0,0-0.1-0.5-0.1-1.1s0-1.1,0.1-1.1C260,116.7,260,117.2,260,117.8z"/>
					<path class="st6" d="M261.1,117.7c0,0.6,0,1.1-0.1,1.1c0,0-0.1-0.5-0.1-1.1s0-1.1,0.1-1.1C261,116.6,261.1,117.1,261.1,117.7z"
						/>
					<g>
						<path class="st0" d="M243.8,108.7c-0.1,0.6,0.2,0.9,0.4,1.4s0.1,0.9,0.4,1.4c0.5,1,1.5,1.1,2.5,1.3c0.5,0.1,1,0.1,1.6,0.3
							c0.3,0.1,1.1,0.5,1.4,0.4c0.9-0.3,0-2.3-0.3-2.8c-0.5-0.9-1.8-1.1-2.7-1.3S244.6,108.5,243.8,108.7L243.8,108.7z"/>
						<g>
							<path class="st0" d="M268,108.7c0.1,0.6-0.2,0.9-0.4,1.4c-0.2,0.5-0.1,0.9-0.4,1.4c-0.5,1-1.5,1.1-2.5,1.3
								c-0.5,0.1-1,0.1-1.5,0.3c-0.3,0.1-1.1,0.5-1.4,0.4c-0.9-0.3,0-2.3,0.3-2.8c0.5-0.9,1.8-1.1,2.7-1.3
								C265.5,109.2,267.2,108.5,268,108.7L268,108.7z"/>
							<path class="st3" d="M264.4,109.6c0,2.4-1.6,6.2-3.2,8c-1,1.1-2.9,0.8-4.3,0.8c-0.1,0-0.3,0-0.4,0c-1.8,0-5.2,0.1-6.1-0.8
								c-1.6-1.8-3.2-5.5-3.2-8l-2.9-0.9c0.2,1.7,1.4,3.1,1.6,4.9c0.2,1.7,0,3.3,0.2,5c0.1,1.3,2.2,2.5,3.1,3.4
								c0.8,0.9,2.2,2.2,3.3,2.7c0.9,0.4,2.3,0.5,3.3,0.1c1,0.4,2.4,0.3,3.3-0.1c1.1-0.5,2.5-1.8,3.3-2.7c0.9-0.9,2.9-2.1,3.1-3.4
								c0.2-1.7,0-3.3,0.2-5c0.3-1.7,1.4-3.1,1.6-4.9L264.4,109.6z"/>
							<path class="st0" d="M264.9,111.5c-0.4,1.9-1,3.9-2,5.6c-0.2,0.4-1.7,2.4-1.6,1.1c0.1-0.7,1.2-1.6,1.5-2.3
								c0.4-0.7,0.9-1.3,1.2-2c0.3-0.6,0.4-1.4,0.7-2.1L264.9,111.5z"/>
						</g>
					</g>
					<g>
						<path class="st0" d="M246.9,111.5c0.4,1.9,1,3.9,2,5.6c0.2,0.4,1.7,2.4,1.6,1.1c-0.1-0.7-1.2-1.6-1.5-2.3
							c-0.4-0.7-0.9-1.3-1.2-2c-0.3-0.6-0.4-1.4-0.7-2.1L246.9,111.5z"/>
					</g>
					<path class="st3" d="M269.2,104.5c-0.1-0.8,0.1-1.7,0.3-2.5c0.7-3.4,1-6,0-9.4c-1.6-5.3-8.2-9.1-13.5-8.8
						c-5.3-0.3-11.9,3.5-13.5,8.8c-1,3.4-0.7,6,0,9.4c0.2,0.8,0.4,1.6,0.3,2.5c-0.1,0.8-0.4,1.3-0.5,2.1c-0.3,2,1.2,2.5,2.7,2.8
						s3.9,0.9,4.6,2.7c0.3,1-0.5,2,0.7,2.3c0.9,0.2,1.8-0.8,2.6,0.1c0.4-0.3,0.8-0.4,1.2,0c0.6-0.6,1.3-0.3,1.9,0.1c0,0,0,0,0,0.1
						c0.6-0.3,1.4-0.7,2-0.1c0.3-0.4,0.8-0.4,1.2,0c0.7-0.9,1.7,0.1,2.6-0.1c1.2-0.2,0.4-1.3,0.7-2.3c0.6-1.8,3-2.4,4.6-2.7
						c1.5-0.3,3-0.8,2.7-2.8C269.6,105.9,269.2,105.3,269.2,104.5z M252.3,103.6c-0.5,0.4-1.1,0.6-1.7,0.8c-1.1,0.4-2.3,1.1-3.4,1.4
						c-2,0.4-2.3-1.8-2.4-3.3c-0.1-0.7-0.2-1.8,0.1-2.4s1.1-0.9,1.7-1.1c0.7-0.2,1.4-0.3,2.1-0.5c0.7-0.2,1.6-0.4,2.4-0.2
						c0.7,0.2,1.3,0.8,1.7,1.4c0.5,0.7-0.1,1.7,0.2,2.4l0,0C253.1,102.5,252.7,103.3,252.3,103.6z M258.1,109.2
						c-1.2,0.8-1.3-1.2-2.2-0.7c-0.3,0.2-0.3,0.7-0.7,0.8c-0.4,0.2-0.8,0-1.1-0.3c-0.7-0.6-0.7-1.6-0.5-2.4c0.2-0.9,1.1-3.9,2.1-4.1
						c0.2,0.1,0.2,0.2,0.3,0.3l0,0c-0.1,0.7,0.5-0.2,0.7-0.1c0.5,0,0.7,0.6,0.9,1c0.5,1,0.8,1.8,1,2.8
						C258.8,107.3,258.9,108.7,258.1,109.2z M267.3,102.5c-0.1,1.5-0.4,3.7-2.4,3.3c-1.2-0.2-2.3-1-3.4-1.4
						c-0.5-0.2-1.2-0.4-1.7-0.8c-0.4-0.3-0.8-1.1-0.6-1.5l0,0c0.3-0.7-0.3-1.7,0.2-2.4c0.4-0.6,1-1.2,1.7-1.4c0.8-0.2,1.7,0,2.4,0.2
						c0.7,0.2,1.4,0.2,2.1,0.5c0.6,0.2,1.4,0.5,1.7,1.1C267.5,100.7,267.3,101.8,267.3,102.5z"/>
					<path class="st3" d="M256,116.2c0,0.3-0.2,0.5-0.4,0.5h-1c-0.2,0-0.4-0.2-0.4-0.5v-1.7c0-0.3,0.2-0.5,0.4-0.5h1
						c0.2,0,0.4,0.2,0.4,0.5V116.2z"/>
					<path class="st3" d="M254.7,116.1c0,0.3-0.2,0.5-0.4,0.5h-1c-0.2,0-0.4-0.2-0.4-0.5v-1.7c0-0.3,0.2-0.5,0.4-0.5h1
						c0.2,0,0.4,0.2,0.4,0.5V116.1z"/>
					<path class="st3" d="M253.1,115.9c0,0.2-0.2,0.4-0.4,0.4h-1c-0.2,0-0.4-0.2-0.4-0.4v-1.6c0-0.2,0.2-0.4,0.4-0.4h1
						c0.2,0,0.4,0.2,0.4,0.4V115.9z"/>
					<path class="st3" d="M252.4,115.9c0,0.2-0.2,0.4-0.4,0.4h-1c-0.2,0-0.4-0.2-0.4-0.4v-1.6c0-0.2,0.2-0.4,0.4-0.4h1
						c0.2,0,0.4,0.2,0.4,0.4V115.9z"/>
					<path class="st3" d="M251.8,115.8c0,0.2-0.2,0.4-0.4,0.4h-1c-0.2,0-0.4-0.2-0.4-0.4v-1.6c0-0.2,0.2-0.4,0.4-0.4h1
						c0.2,0,0.4,0.2,0.4,0.4V115.8z"/>
					<path class="st7" d="M242.8,104.8c1.1-0.8,0.3-3.5,0.7-4.8c0.2-0.7,0.8-1.2,1.1-1.8c0.4-0.9-0.2-1.3-0.6-2
						c-0.2-0.4-0.3-0.7-0.3-1.2c0-0.3,0-0.9-0.4-1c-0.6-0.3-1,1.2-1.1,1.6c-0.2,0.8,0,1.7,0,2.5c0,0.9,0,1.7,0.1,2.6
						C242.4,102,243.2,103.5,242.8,104.8L242.8,104.8z"/>
					<path class="st7" d="M246.1,109.5c1.5,0,2.8-0.1,4.1,0.4c0.6,0.2,1.1,0.6,1.3,1.2c0.3,0.7,0.1,1.2,0.1,2c0.3,0.2,0.4,0,0.6,0
						c0.1,0,0.2-0.1,0.3-0.1s0.3,0.2,0.3,0.2c0.3,0,0.3-0.2,0.6-0.2c0.4-0.1,0.3,0.1,0.6,0.2c0.5,0.1,0.9-0.4,1.3,0
						c0.3,0.2,0.5,1,0.6,1.4c-0.6-0.3-1-0.6-1.7-0.4c-0.4,0.2-0.2,0.2-0.7,0.1c-0.3-0.1-0.6-0.1-0.8,0.1c-0.6-0.7-1.2-0.2-1.8,0
						c-0.8,0.3-1.5-0.1-1.4-0.9c0.1-0.9,0.2-1.3-0.3-2c-0.4-0.6-0.9-0.9-1.6-1.3C247.2,109.9,246.5,109.8,246.1,109.5L246.1,109.5z"
						/>
					<path class="st3" d="M256,116.2c0,0.3,0.2,0.5,0.4,0.5h1c0.2,0,0.4-0.2,0.4-0.5v-1.7c0-0.3-0.2-0.5-0.4-0.5h-1
						c-0.2,0-0.4,0.2-0.4,0.5V116.2z"/>
					<path class="st3" d="M257.3,116.1c0,0.3,0.2,0.5,0.4,0.5h1c0.2,0,0.4-0.2,0.4-0.5v-1.7c0-0.3-0.2-0.5-0.4-0.5h-1
						c-0.2,0-0.4,0.2-0.4,0.5V116.1z"/>
					<path class="st3" d="M258.9,115.9c0,0.2,0.2,0.4,0.4,0.4h1c0.2,0,0.4-0.2,0.4-0.4v-1.6c0-0.2-0.2-0.4-0.4-0.4h-1
						c-0.2,0-0.4,0.2-0.4,0.4V115.9z"/>
					<path class="st3" d="M259.6,115.9c0,0.2,0.2,0.4,0.4,0.4h1c0.2,0,0.4-0.2,0.4-0.4v-1.6c0-0.2-0.2-0.4-0.4-0.4h-1
						c-0.2,0-0.4,0.2-0.4,0.4V115.9z"/>
					<path class="st3" d="M260.2,115.8c0,0.2,0.2,0.4,0.4,0.4h1c0.2,0,0.4-0.2,0.4-0.4v-1.6c0-0.2-0.2-0.4-0.4-0.4h-1
						c-0.2,0-0.4,0.2-0.4,0.4V115.8z"/>
					<path class="st7" d="M269.2,104.8c-1.1-0.8-0.3-3.5-0.7-4.8c-0.2-0.7-0.8-1.2-1.1-1.8c-0.4-0.9,0.2-1.3,0.6-2
						c0.2-0.4,0.3-0.7,0.3-1.2c0-0.3,0-0.9,0.4-1c0.6-0.3,1,1.2,1.1,1.6c0.2,0.8,0,1.7,0,2.5c0,0.9,0,1.7-0.1,2.6
						C269.6,102,268.8,103.5,269.2,104.8L269.2,104.8z"/>
					<path class="st7" d="M265.9,109.5c-1.5,0-2.8-0.1-4.1,0.4c-0.6,0.2-1.1,0.6-1.3,1.2c-0.3,0.7-0.1,1.2-0.1,2
						c-0.3,0.2-0.4,0-0.6,0c-0.1,0-0.2-0.1-0.3-0.1c-0.1,0-0.3,0.2-0.3,0.2c-0.3,0-0.3-0.2-0.6-0.2c-0.4-0.1-0.3,0.1-0.6,0.2
						c-0.5,0.1-0.9-0.4-1.3,0c-0.3,0.2-0.9,1.1-0.6,1.4c0.6-0.3,1.1-0.6,1.7-0.4c0.4,0.2,0.2,0.2,0.7,0.1c0.3-0.1,0.6-0.1,0.8,0.1
						c0.6-0.7,1.2-0.2,1.8,0c0.8,0.3,1.5-0.1,1.4-0.9c-0.1-0.9-0.2-1.3,0.3-2c0.4-0.6,0.9-0.9,1.6-1.3
						C264.8,109.9,265.5,109.8,265.9,109.5L265.9,109.5z"/>
				</g>
				<path class="st8" d="M256,115.3c0,0.5,0,0.9,0,0.9C255.9,116.2,255.9,115.8,256,115.3c-0.1-0.5-0.1-0.9,0-0.9
					C256,114.5,256,114.8,256,115.3z"/>
				<path class="st8" d="M258.1,115c0,0.5,0,0.9,0,0.9C258,115.9,258,115.5,258.1,115c-0.1-0.5-0.1-0.9,0-0.9
					C258.1,114.2,258.1,114.5,258.1,115z"/>
				<path class="st8" d="M259.2,115c0,0.5,0,0.9,0,0.9S259.1,115.5,259.2,115c-0.1-0.5-0.1-0.9,0-0.9
					C259.2,114.1,259.2,114.5,259.2,115z"/>
				<path class="st8" d="M260.4,114.8c0,0.5,0,0.9,0,0.9C260.3,115.7,260.3,115.3,260.4,114.8c-0.1-0.5-0.1-0.9,0-0.9
					C260.4,113.9,260.4,114.3,260.4,114.8z"/>
				<path class="st8" d="M261.2,114.9c0,0.5,0,0.9,0,0.9S261.2,115.4,261.2,114.9c-0.1-0.5-0.1-0.9,0-0.9
					C261.2,114,261.2,114.4,261.2,114.9z"/>
				<path class="st8" d="M254,115c0,0.5,0,0.9,0,0.9S254,115.5,254,115c-0.1-0.5-0.1-0.9,0-0.9C254,114.1,254,114.5,254,115z"/>
				<path class="st8" d="M252.9,114.9c0,0.5,0,0.9,0,0.9C252.8,115.8,252.8,115.4,252.9,114.9c-0.1-0.5-0.1-0.9,0-0.9
					C252.9,114.1,252.9,114.4,252.9,114.9z"/>
				<path class="st8" d="M251.5,114.7c0,0.5,0,0.9,0,0.9C251.4,115.6,251.4,115.2,251.5,114.7c-0.1-0.5-0.1-0.9,0-0.9
					C251.5,113.9,251.5,114.3,251.5,114.7z"/>
				<path class="st8" d="M250.5,114.8c0,0.5,0,0.9,0,0.9C250.4,115.7,250.4,115.3,250.5,114.8c-0.1-0.5-0.1-0.9,0-0.9
					C250.4,114,250.5,114.3,250.5,114.8z"/>
			</g>
		</g>
		<g>
			<path class="st0" d="M216.2,424.1c-0.3,0.8-1.2,1.3-2.1,1c-0.9-0.3-1.4-1.2-1.1-2.1c0.3-0.8,1.2-1.3,2.1-1
				S216.5,423.2,216.2,424.1z"/>
			<path class="st0" d="M212,422.9c-0.2,0.5-0.6,0.7-1.1,0.6c-0.4-0.1-0.7-0.6-0.5-1.1s0.6-0.7,1.1-0.6
				C211.9,421.9,212.1,422.4,212,422.9z"/>
			<path class="st0" d="M210.2,427.5c-0.1,0.4-0.5,0.6-0.8,0.5s-0.5-0.5-0.4-0.9s0.5-0.6,0.8-0.5
				C210.2,426.7,210.3,427.1,210.2,427.5z"/>
			<path class="st0" d="M207.4,426.1c-0.1,0.4-0.5,0.6-0.8,0.5s-0.5-0.5-0.4-0.9s0.5-0.6,0.8-0.5
				C207.4,425.4,207.5,425.7,207.4,426.1z"/>
			<path class="st0" d="M205.5,424.8c-0.1,0.3-0.4,0.5-0.7,0.4s-0.4-0.4-0.3-0.7c0.1-0.3,0.4-0.5,0.7-0.4
				C205.5,424.2,205.6,424.5,205.5,424.8z"/>
			<path class="st0" d="M204,423c-0.1,0.3-0.4,0.5-0.7,0.4s-0.4-0.4-0.3-0.7c0.1-0.3,0.4-0.5,0.7-0.4S204.1,422.7,204,423z"/>
			<path class="st0" d="M209.6,422c-0.2,0.5-0.6,0.7-1.1,0.6c-0.4-0.1-0.7-0.6-0.5-1.1s0.6-0.7,1.1-0.6S209.8,421.5,209.6,422z"/>
			<path class="st0" d="M207.7,421.2c-0.2,0.5-0.6,0.7-1.1,0.6c-0.4-0.1-0.7-0.6-0.5-1.1s0.6-0.7,1.1-0.6S207.9,420.7,207.7,421.2z"
				/>
			<path class="st0" d="M206.3,419.5c-0.2,0.5-0.6,0.7-1.1,0.6c-0.4-0.1-0.7-0.6-0.5-1.1s0.6-0.7,1.1-0.6
				C206.2,418.6,206.4,419.1,206.3,419.5z"/>
			<path class="st0" d="M211.4,408.6c0,0-0.4,0.5-0.1,0.8l-1.6,2.2c0,0-0.8,0.6-0.7,1.2l0.9,1l3.3,0.4l1.7,1.5l3.3,0.2
				c0,0,0.6-0.2,0.2-1l0.3-1c0,0,0.9-0.3,0.8-1l0.2-1.3c0,0,0.5-0.3,0.3-1l-2-2l-4.5-1L211.4,408.6z"/>
			<path class="st3" d="M213.4,405.8c-0.4,0.5-0.4,1.1-0.9,1.5c-0.5,0.5-1.1,0.4-1.3,1.2c0.7,0,2.4-0.9,2.5,0.6
				c0.5,0.2,0.9-0.2,1.4-0.3c0.7-0.1,1.4,0.2,2,0.4c0.6,0.2,1.4,0.4,1.8,0.7c0.5,0.4,0.4,0.9,1.1,1.1c0.6-1.2,0.3-1.2-0.5-2.1
				c-0.6-0.7-0.5-1.5-1.3-1.9s-1.7-0.4-2.6-0.9c-0.6-0.3-1.8-1.4-2.1-0.1L213.4,405.8z"/>
			<path class="st3" d="M214,409.9c2.5,0.8,0.7-0.3,2.9,1.6c0.5,0.5,1.9,1.6,2.5,1.8c2.3-2.3-4.2-5.6-5.2-3.6c-0.2,0-0.2,0-0.4,0.1
				L214,409.9z"/>
			<path class="st3" d="M211,412.1c-1.2-0.4-1.8-0.5-1-1.7c0.5-0.8,1-1.4,1.9-1.6c1.2-0.3,1.6,0.1,0.9,1
				C212.2,410.5,211.6,411.7,211,412.1L211,412.1z"/>
			<path class="st3" d="M213.2,409.7c-0.5,1.1-1.7,1.6-2,3c0.3,0.1,1.4,0.4,1.7,0.2c0.6-0.3,0.3-1,0.6-1.5c0.2-0.3,1.1-0.8,1.1-1.1
				c0.1-0.8-1.3-0.3-1.2-0.7L213.2,409.7z"/>
			<path class="st3" d="M215.5,411c-0.8-0.7-1.6-0.1-1.9,1c0.6,0.1,0.8,0.6,1.6,0.8c0.7,0.1,0.7-0.3,1.3-0.3
				C217.1,411.7,216,411.1,215.5,411L215.5,411z"/>
			<path class="st3" d="M217.1,412c-1.1-0.2-1,1.5-1.5,2.1c0.3,0.6,1,0.4,1.6,0.5c0.8,0.2,1,0.6,1.4-0.2
				C219.1,413.4,218.3,412.2,217.1,412L217.1,412z"/>
			<path class="st3" d="M216.8,418.4c-0.1-0.8,1.3-2,1.5-2.9c-0.6-0.5-1.8-0.7-2.6-0.8c-1,0-1.5,1-1.7,2c-0.2,0.9,0.2,1.8,0,2.7
				c-0.2,0.9-1,1.7-1.1,2.5c0.7,0.2,1.4,0,2.2,0.3c0.9,0.3,1,0.7,1.3-0.5c0.2-1.2,0-3.5,0.9-4.4L216.8,418.4z"/>
			<path class="st3" d="M214.2,429.3c0.4-1.1,0.7-2.2,1.3-3.1c0.7-1,0.9-1.7-0.5-2.2c-1.2-0.5-2.2-0.4-2.4,0.9
				c-0.2,0.9-0.5,1.7-1.1,2.9c1,0.3,2.3,0.1,2.6,1.4L214.2,429.3z"/>
			<path class="st3" d="M211.1,428.2c-0.1,0.9-0.8,2,0.2,2.5c0.6,0.3,1.9,0.1,2.4-0.4c1.6-1.5-2.3-3.5-2.7-1.9L211.1,428.2z"/>
			<path class="st3" d="M212.9,414.2c0,1.1-0.2,2.7-0.6,3.9c-0.4,1.3-1.6,2.3-1.8,3.6c0.7,0.2,1.1,0.7,1.6,0.1
				c0.3-0.4,0.4-1.5,0.6-2c0.5-1.4,1-2.6,1.7-3.8c0.5-0.9,2.1-2.6,0.8-3.3c-1.4-0.8-2.6,0.4-2.2,1.6L212.9,414.2z"/>
			<path class="st3" d="M209.4,426.7c0.1-0.1,0.6,0.1,0.9,0.4c0.6-0.6,0.3-1.5,0.7-2.2c0.3-0.6,1.3-1.3,0.3-1.9
				c-1.1-0.6-1,0.4-1.2,1c-0.2,0.9-0.8,1.7-1,2.6C209.2,426.8,209.2,426.7,209.4,426.7L209.4,426.7z"/>
			<path class="st3" d="M206.7,425.5c0.1-0.1,0.6,0.1,0.8,0.4c0.6-0.6,0.4-1.4,0.7-2.2c0.3-0.6,1.3-1.2,0.3-1.8
				c-1.1-0.6-1,0.3-1.2,1c-0.3,0.9-0.9,1.7-1,2.6C206.5,425.6,206.5,425.4,206.7,425.5L206.7,425.5z"/>
			<path class="st3" d="M204.9,424.3c0.1-0.1,0.5,0.2,0.8,0.4c0.6-0.5,0.4-1.3,0.8-1.9c0.3-0.5,1.3-1.1,0.4-1.7
				c-1-0.7-1,0.5-1.2,1.1s-0.8,1-1.1,2C204.6,424.4,204.7,424.3,204.9,424.3L204.9,424.3z"/>
			<path class="st3" d="M203.4,422.5c0.1-0.1,0.5,0.2,0.7,0.4c0.5-0.4,0.4-1.2,0.7-1.8c0.3-0.5,1.2-1,0.4-1.5
				c-0.9-0.6-0.9,0.4-1.1,1c-0.2,0.5-0.8,0.9-1,1.9C203.2,422.6,203.2,422.5,203.4,422.5L203.4,422.5z"/>
			<path class="st3" d="M209.7,428.8c0.2-0.4,0.2-1.7-0.6-1.4c-0.4,0.1-0.7,1.2-0.7,1.6C207.9,431.2,209.5,430,209.7,428.8
				L209.7,428.8z"/>
			<path class="st3" d="M206.9,427.1c0.2-0.4,0.2-1.7-0.6-1.4c-0.4,0.1-0.7,1.5-0.7,1.8C205.1,429.7,206.7,428.2,206.9,427.1
				L206.9,427.1z"/>
			<path class="st3" d="M205.1,425.9c0.3-0.3,0.4-1.4-0.4-1.2c-0.3,0-0.7,1.2-0.8,1.4C203.3,427.6,204.8,426.6,205.1,425.9
				L205.1,425.9z"/>
			<path class="st3" d="M203.5,423.9c0.2-0.3,0.3-1.2-0.3-1.1c-0.5,0.1-0.4,0.3-0.7,1.3C201.9,425.7,203.2,424.8,203.5,423.9
				L203.5,423.9z"/>
			<path class="st3" d="M209.9,421.4c0.9-1.5,0.8-3.1,1.6-4.6c0.5-0.9,2.2-3.4,0.6-4c-1.8-0.7-1.5,2.4-1.8,3.4
				c-0.3,0.8-0.6,1.7-0.9,2.4c-0.3,0.7-0.9,1.3-1.1,2C208.9,420.8,209.6,421.2,209.9,421.4L209.9,421.4z"/>
			<path class="st3" d="M207.8,420.5c0.8-1.4,0.8-3,1.6-4.4c0.5-0.9,2.1-3.2,0.5-3.9c-1.7-0.7-1.4,2.3-1.7,3.2
				c-0.3,0.8-0.5,1.6-0.8,2.3c-0.3,0.7-0.8,1.2-1.1,1.9C206.9,419.9,207.5,420.2,207.8,420.5L207.8,420.5z"/>
			<path class="st3" d="M206.3,419c0.8-1.1,1-2.4,1.8-3.4c0.5-0.7,2.1-2.4,0.9-3.1c-1.3-0.7-1.4,1.7-1.8,2.5
				c-0.3,0.6-0.6,1.3-0.9,1.8c-0.3,0.5-0.8,0.9-1.1,1.5C205.7,418.3,206.2,418.7,206.3,419L206.3,419z"/>
		</g>
		<g>
			<path class="st0" d="M253.1,418.5c-0.1,0.9,0.6,1.7,1.6,1.8c0.9,0.1,1.8-0.5,1.9-1.4s-0.6-1.7-1.6-1.8
				C254,417,253.2,417.6,253.1,418.5z"/>
			<path class="st0" d="M257.5,419.2c0,0.5,0.3,0.9,0.7,1c0.5,0,0.9-0.3,0.9-0.8s-0.3-0.9-0.7-1
				C257.9,418.3,257.5,418.7,257.5,419.2z"/>
			<path class="st0" d="M257.2,424.1c0,0.4,0.2,0.7,0.6,0.8c0.4,0,0.7-0.2,0.7-0.6s-0.2-0.7-0.6-0.8
				C257.5,423.4,257.2,423.7,257.2,424.1z"/>
			<path class="st0" d="M260.3,424c0,0.4,0.2,0.7,0.6,0.8c0.4,0,0.7-0.3,0.7-0.6c0-0.4-0.2-0.7-0.6-0.8
				C260.7,423.3,260.4,423.6,260.3,424z"/>
			<path class="st0" d="M262.5,423.6c0,0.3,0.2,0.6,0.5,0.6s0.6-0.2,0.6-0.5s-0.2-0.6-0.5-0.6C262.8,423,262.6,423.3,262.5,423.6z"
				/>
			<path class="st0" d="M264.7,422.6c0,0.3,0.2,0.6,0.5,0.6s0.6-0.2,0.6-0.5s-0.2-0.6-0.5-0.6C265,422,264.7,422.2,264.7,422.6z"/>
			<path class="st0" d="M260,419.3c0,0.5,0.3,0.9,0.7,1c0.5,0,0.9-0.3,0.9-0.8c0.1-0.5-0.3-0.9-0.7-1
				C260.4,418.5,260,418.8,260,419.3z"/>
			<path class="st0" d="M262,419.4c0,0.5,0.3,0.9,0.7,1c0.5,0,0.9-0.3,0.9-0.8s-0.3-0.9-0.7-1C262.5,418.5,262.1,418.9,262,419.4z"
				/>
			<path class="st0" d="M264,418.4c0,0.5,0.3,0.9,0.7,1c0.5,0,0.9-0.3,0.9-0.8c0.1-0.5-0.3-0.9-0.7-1
				C264.5,417.6,264.1,417.9,264,418.4z"/>
			<path class="st0" d="M263.8,406.4c0,0,0.2,0.6-0.3,0.7l0.5,2.7c0,0,0.5,0.9,0.2,1.4l-1.2,0.5l-3.1-1l-2.1,0.7l-3.1-1.1
				c0,0-0.5-0.5,0.3-1l0.1-1c0,0-0.7-0.6-0.3-1.2l0.3-1.2c0,0-0.3-0.5,0.1-1l2.7-1l4.5,1L263.8,406.4z"/>
			<path class="st3" d="M263,403.2c0.2,0.6,0,1.1,0.2,1.7c0.3,0.6,0.9,0.8,0.7,1.6c-0.7-0.3-1.9-1.8-2.5-0.5c-0.5,0-0.7-0.6-1.2-0.9
				c-0.6-0.4-1.3-0.4-2-0.5c-0.6-0.1-1.4-0.2-2-0.1c-0.6,0.2-0.7,0.7-1.4,0.6c-0.1-1.4,0.3-1.2,1.3-1.7c0.8-0.4,1.1-1.2,2-1.2
				s1.8,0.3,2.7,0.3c0.7,0,2.2-0.5,1.9,0.7H263z"/>
			<path class="st3" d="M260.9,406.5c-1.3-0.1-2.1-0.1-3.3,0.3c-0.7,0.2-2.3,0.7-3,0.6c-1.2-3.1,6.1-3.4,6.2-1.2
				c0.2,0.1,0.2,0.1,0.3,0.3L260.9,406.5z"/>
			<path class="st3" d="M262.6,410c1.2,0.1,1.8,0.3,1.6-1.1c-0.2-1-0.3-1.6-1-2.2c-1-0.8-1.5-0.6-1.2,0.6
				C262.2,408,262.3,409.3,262.6,410L262.6,410z"/>
			<path class="st3" d="M261.6,406.9c0.1,1.2,0.9,2.2,0.6,3.5c-0.3,0-1.4-0.2-1.6-0.5c-0.4-0.5,0.1-1.1,0-1.7c0-0.4-0.7-1.1-0.6-1.4
				c0.3-0.8,1.3,0.2,1.4-0.2L261.6,406.9z"/>
			<path class="st3" d="M259,406.9c1-0.3,1.5,0.6,1.3,1.7c-0.6-0.1-1.1,0.2-1.8,0.1c-0.7-0.2-0.5-0.5-1.1-0.8
				C257.3,406.9,258.5,406.8,259,406.9L259,406.9z"/>
			<path class="st3" d="M257,407.4c1.1,0.3,0.3,1.8,0.6,2.6c-0.5,0.4-1.1-0.1-1.7-0.2c-0.8-0.2-1.2,0.1-1.2-0.7
				C254.6,407.8,255.9,407.2,257,407.4L257,407.4z"/>
			<path class="st3" d="M254.7,413.4c0.4-0.7-0.4-2.3-0.2-3.3c0.8-0.2,2,0.1,2.7,0.4c0.9,0.4,1,1.5,0.7,2.5
				c-0.2,0.9-0.9,1.6-1.1,2.5s0.2,1.9-0.1,2.7c-0.8-0.1-1.3-0.5-2.1-0.6c-0.9-0.1-1.2,0.3-1-1c0.3-1.2,1.4-3.2,1-4.4L254.7,413.4z"
				/>
			<path class="st3" d="M252.8,423.8c0.1-1.2,0.3-2.3,0-3.4c-0.2-1.2-0.2-1.9,1.3-1.9c1.3,0.1,2.1,0.5,1.8,1.8
				c-0.3,1.1-0.2,2-0.2,3.1c-1.1-0.1-2.1-0.8-3,0.3L252.8,423.8z"/>
			<path class="st3" d="M256,424.6c0,0.1-0.3,2.1-1.2,2.2c-0.6,0-1.8-0.7-2.1-1.4c-0.8-2,3.5-2.3,3.2-0.6L256,424.6z"/>
			<path class="st3" d="M260,411.1c-0.4,1-0.9,2.5-1.1,3.8s0.6,2.8,0.2,4c-0.8-0.1-1.3,0.3-1.5-0.5c-0.2-0.5,0.3-1.5,0.3-2.1
				c0.1-1.5,0.2-2.7,0-4.1c-0.1-1-0.9-3.2,0.6-3.3c1.6-0.1,2.2,1.4,1.4,2.4L260,411.1z"/>
			<path class="st3" d="M258.2,423.5c-0.1-0.2-0.6-0.1-0.9,0c-0.3-0.8,0.3-1.5,0.3-2.3c0-0.7-0.7-1.7,0.5-1.8c1.3-0.1,0.7,1,0.6,1.7
				c-0.1,0.9,0.2,1.6,0,2.5c-0.2,0.1-0.2-0.1-0.3-0.1L258.2,423.5z"/>
			<path class="st3" d="M261.2,423.4c-0.1-0.2-0.6-0.1-0.9,0c-0.3-0.8,0.2-1.5,0.2-2.3c0-0.7-0.7-1.7,0.5-1.8c1.3-0.1,0.7,1,0.6,1.7
				c-0.1,0.9,0.2,1.6,0,2.5c-0.2,0.1-0.2-0.1-0.3-0.1L261.2,423.4z"/>
			<path class="st3" d="M263.3,423.4c-0.1-0.2-0.5-0.1-0.9,0.1c-0.3-0.7,0.1-1.4,0-2.1c-0.1-0.6-0.8-1.5,0.3-1.7
				c1.2-0.2,0.7,0.9,0.7,1.5s0.4,1.2,0.2,2.3C263.5,423.6,263.5,423.4,263.3,423.4L263.3,423.4z"/>
			<path class="st3" d="M265.5,422.1c-0.1-0.1-0.5,0-0.8,0.1c-0.3-0.6,0.1-1.3,0-1.9s-0.7-1.4,0.3-1.6c1.1-0.2,0.7,0.8,0.6,1.4
				c0,0.8,0.3,1.4,0.2,2.1C265.6,422.2,265.6,422.1,265.5,422.1L265.5,422.1z"/>
			<path class="st3" d="M257.1,425.2c0-0.5,0.5-1.3,1.1-0.8c0.3,0.2,0,1.6-0.1,2c-0.5,2.2-1.3,0.2-1.1-1.1L257.1,425.2z"/>
			<path class="st3" d="M260.3,425.3c0-0.5,0.5-1.6,1.1-1c0.2,0.1,0.1,1-0.1,2c-0.5,2.2-1.3,0.2-1.1-1.1L260.3,425.3z"/>
			<path class="st3" d="M262.6,424.4c-0.1-0.4,0.2-1.1,0.8-0.7c0.3,0.2,0.2,1.4,0.2,1.7c-0.1,1.9-1.1,0.3-1-0.8V424.4z"/>
			<path class="st3" d="M264.8,423.3c-0.1-0.4,0.2-1.3,0.7-0.9c0.2,0.2,0.2,1.2,0.2,1.5C265.5,425.6,264.7,424.2,264.8,423.3
				L264.8,423.3z"/>
			<path class="st3" d="M259.9,419c-0.2-1.7,0.5-3.2,0.4-4.8c-0.1-1.1-0.6-4,1.1-3.9c1.9,0.1,0.4,2.8,0.3,3.8
				c-0.1,0.8-0.2,1.7-0.2,2.5s0.3,1.5,0.2,2.3C261,418.7,260.2,418.8,259.9,419L259.9,419z"/>
			<path class="st3" d="M262.1,419c-0.2-1.6,0.4-3,0.3-4.6c-0.1-1-0.6-3.8,1.1-3.7c1.8,0.1,0.4,2.6,0.3,3.7
				c-0.1,0.8-0.2,1.7-0.2,2.4c0,0.8,0.3,1.5,0.2,2.2C263.2,418.7,262.5,418.8,262.1,419L262.1,419z"/>
			<path class="st3" d="M264.1,418.1c-0.3-1.3,0-2.6-0.2-3.8c-0.2-0.8-0.9-3.1,0.5-3.2c1.5-0.1,0.6,2.2,0.6,3c0,0.7,0,1.4,0.1,2
				s0.4,1.2,0.4,1.8C264.9,417.8,264.4,418,264.1,418.1L264.1,418.1z"/>
		</g>
	</g>
</g>
<text transform="matrix(1 0 0 1 14.4319 85.6514)" class="st9 st10">Boron</text>
<text transform="matrix(1 0 0 1 14.4319 145.4846)" class="st9 st10">Calcium</text>
<text transform="matrix(1 0 0 1 371.9818 87.6514)" class="st9 st10">Vanadium</text>
<text transform="matrix(1 0 0 1 370.5419 156.2513)" class="st9 st10">Strontium</text>
<text transform="matrix(1 0 0 1 421.6615 224.8512)" class="st9 st10">Silica</text>
<text transform="matrix(1 0 0 1 379.8544 293.451)" class="st9 st10">Selenium</text>
<text transform="matrix(1 0 0 1 413.0453 362.0512)" class="st9 st10">Nickel</text>
<text transform="matrix(1 0 0 1 357.414 430.6514)" class="st9 st10">Manganese</text>
<text transform="matrix(1 0 0 1 14.4324 201.318)" class="st9 st10">Zinc</text>
<text transform="matrix(1 0 0 1 14.4323 312.9848)" class="st9 st10">Magnesium</text>
<text transform="matrix(1 0 0 1 14.4322 257.1512)" class="st9 st10">Copper</text>
<text transform="matrix(1 0 0 1 14.4323 368.8178)" class="st9 st10">Potassium</text>
<text transform="matrix(1 0 0 1 14.432 424.6514)" class="st9 st10">Phosphorous</text>
<g>
	<g>
		<line class="st11" x1="84.1" y1="81.7" x2="84.1" y2="81.7"/>
		<line class="st12" x1="94" y1="83.5" x2="217.2" y2="106.7"/>
		<line class="st11" x1="222.1" y1="107.7" x2="222.1" y2="107.7"/>
	</g>
</g>
<line class="st13" x1="159.1" y1="415.7" x2="202.1" y2="399.7"/>
<line class="st13" x1="129.1" y1="360.7" x2="204.1" y2="344.7"/>
<line class="st13" x1="143.1" y1="305.7" x2="208.1" y2="295.7"/>
<line class="st13" x1="99.1" y1="250.7" x2="188.1" y2="247.7"/>
<line class="st13" x1="69.1" y1="196.7" x2="201.1" y2="202.7"/>
<line class="st13" x1="103.1" y1="140.7" x2="203.1" y2="155.7"/>
<line class="st13" x1="285.1" y1="112.7" x2="367.1" y2="82.7"/>
<line class="st13" x1="363.1" y1="148.7" x2="300.1" y2="164.7"/>
<line class="st13" x1="415.1" y1="217.7" x2="310.1" y2="217.7"/>
<line class="st13" x1="374.1" y1="284.7" x2="322.1" y2="277.7"/>
<line class="st13" x1="405.1" y1="352.7" x2="292.1" y2="320.7"/>
<line class="st13" x1="351.1" y1="422.7" x2="285.1" y2="395.7"/>
<text transform="matrix(1 0 0 1 9.5914 27.5233)" class="st14 st15 st16">13 Essential Bone-Building Minerals</text>
</svg>
