<?xml version="1.0" encoding="utf-8"?>
<!-- Generator: Adobe Illustrator 22.1.0, SVG Export Plug-In . SVG Version: 6.00 Build 0)  -->
<svg version="1.1" id="Layer_1" xmlns="http://www.w3.org/2000/svg" xmlns:xlink="http://www.w3.org/1999/xlink" x="0px" y="0px"
	 viewBox="0 0 484.3 455.7" style="enable-background:new 0 0 484.3 455.7;" xml:space="preserve"><defs xmlns="http://www.w3.org/2000/svg"><style type="text/css"><![CDATA[@font-face {font-family: 'GloberBook';src: url('/assets/fonts/webfonts/316613_0_0.eot');src: url('/assets/fonts/webfonts/316613_0_0.eot?#iefix') format('embedded-opentype'),url('/assets/fonts/webfonts/316613_0_0.woff2') format('woff2'),url('/assets/fonts/webfonts/316613_0_0.woff') format('woff'),url('/assets/fonts/webfonts/316613_0_0.ttf') format('truetype');}@font-face {font-family: 'Glober';font-weight: bold;font-style: normal;src: url('/assets/fonts/webfonts/316613_1_0.eot');src: url('/assets/fonts/webfonts/316613_1_0.eot?#iefix') format('embedded-opentype'),url('/assets/fonts/webfonts/316613_1_0.woff2') format('woff2'),url('/assets/fonts/webfonts/316613_1_0.woff') format('woff'),url('/assets/fonts/webfonts/316613_1_0.ttf') format('truetype');}@font-face {font-family: 'Glober';font-weight: bold;font-style: italic;src: url('/assets/fonts/webfonts/316613_2_0.eot');src: url('/assets/fonts/webfonts/316613_2_0.eot?#iefix') format('embedded-opentype'),url('/assets/fonts/webfonts/316613_2_0.woff2') format('woff2'),url('/assets/fonts/webfonts/316613_2_0.woff') format('woff'),url('/assets/fonts/webfonts/316613_2_0.ttf') format('truetype');}@font-face {font-family: 'GloberBookItalic';src: url('/assets/fonts/webfonts/316613_3_0.eot');src: url('/assets/fonts/webfonts/316613_3_0.eot?#iefix') format('embedded-opentype'),url('/assets/fonts/webfonts/316613_3_0.woff2') format('woff2'),url('/assets/fonts/webfonts/316613_3_0.woff') format('woff'),url('/assets/fonts/webfonts/316613_3_0.ttf') format('truetype');}@font-face {font-family: 'Glober';font-weight: normal;font-style: normal;src: url('/assets/fonts/webfonts/316613_4_0.eot');src: url('/assets/fonts/webfonts/316613_4_0.eot?#iefix') format('embedded-opentype'),url('/assets/fonts/webfonts/316613_4_0.woff2') format('woff2'),url('/assets/fonts/webfonts/316613_4_0.woff') format('woff'),url('/assets/fonts/webfonts/316613_4_0.ttf') format('truetype');}@font-face {font-family: 'Glober';font-weight: normal;font-style: italic;src: url('/assets/fonts/webfonts/316613_5_0.eot');src: url('/assets/fonts/webfonts/316613_5_0.eot?#iefix') format('embedded-opentype'),url('/assets/fonts/webfonts/316613_5_0.woff2') format('woff2'),url('/assets/fonts/webfonts/316613_5_0.woff') format('woff'),url('/assets/fonts/webfonts/316613_5_0.ttf') format('truetype');}]]></style></defs>
<style type="text/css">
	.st0{fill:#007DA6;}
	.st1{fill:#08B5E5;}
	.st2{fill:#EFEFEF;}
	.st3{fill:#FFFFFF;}
	.st4{fill:#E8E8E8;}
	.st5{fill:#EAE8E1;}
	.st6{fill:#D1C1AE;}
	.st7{fill:#E5D8C6;}
	.st8{fill:#DDCEB9;}
	.st9{font-family:'Glober';font-weight: bold;}
	.st10{font-size:24px;}
	.st11{fill:none;stroke:#FF8C00;stroke-width:4;stroke-linecap:round;stroke-linejoin:round;}
	.st12{fill:none;stroke:#FF8C00;stroke-width:4;stroke-linecap:round;stroke-linejoin:round;stroke-dasharray:0,10.0306;}

		.st13{fill:none;stroke:#FF8C00;stroke-width:4;stroke-linecap:round;stroke-linejoin:round;stroke-miterlimit:10;stroke-dasharray:0,10;}
	.st14{enable-background:new    ;}
	.st15{fill:#DF6000;}
	.st16{font-family:'Glober';font-weight: bold;}
	.st17{font-size:30px;}
</style>
<ellipse class="st0" cx="256.1" cy="117.7" rx="18" ry="10"/>
<path class="st0" d="M256.1,92.7c0,0-2.8-0.6-1.9-4.4c0.9-3.8,3.8-5.8,6.4-5.8c2.6,0.1,8.8,3.2,10.7,5.2c1.9,2,0.4,7.5-2.5,9.5
	C265.5,99.6,257.1,93.8,256.1,92.7z"/>
<path class="st0" d="M272.9,121.2c0.9-1.4,4.7-10.6,2.7-17.5C272.3,93,264.8,89,256.1,90.1c-11.6-1.5-22.2,5.5-20.8,23.3
	c0.4,4.6,4,7.8,4,7.8c0.4-4.2,1.8-5.4,1.9-5.5c5.1-3,16.8-0.1,24.5-8.6C270.6,109.4,271.9,119.7,272.9,121.2z"/>
<g>
	<path class="st1" d="M313,282.5c-0.2-2.9-2.3-5.2-2.3-5.2c-2.3-3.5-5.6-5.5-5.6-5.5c-0.9-0.5-1.4-1.9-1.6-2.8l-0.3-1.9
		c-1.1-3.9-2.5-23.3-2.5-23.3c-0.3-18.8-2.8-23.7-2.8-23.7c-1.4-2.6-1.4-6.9-1.4-6.9l0.2-21.9c1.1-11.5,0.1-20.2,0.1-20.2
		c-1.1-14.6-16-14.1-16-14.1c-7.8-0.4-13.4-3-14.8-6.1c-1.2-2.6-1.1-5.6-0.8-7.7l3-2.9c0,0,1.8-2.1,1.9-5.2l0.6-4.5
		c1.4-0.4,1.9-2.7,2.5-5.1c0.7-3,0.7-5.2-1.1-5.6l0,0l-0.2-4.1c0,0,2.4-15.6-15.8-17.3c0,0-15.7,0.9-16.4,15.7l0.9,5.7
		c-0.2,0-0.3,0-0.5,0c-1.7,0.4-1.8,2.8-1.1,5.8c0.6,2.6,1.4,4.8,3,5l0.2,1.5c0,0,0.5,6.6,2.5,8.3l3.2,2.9c0,2.7,0.8,7-1.6,9.2
		c-2.2,2-9.5,3-14.2,3.1c0,0-14.8-0.9-16.3,13.7c0,0-1.1,8.7-0.3,20.2l-0.2,21.9c0,0,0,4.3-1.5,6.9c0,0-2.6,4.9-3.3,23.7
		c0,0-1.8,19.4-3,23.3l-0.2,1.3l0,0c0,0-0.5,2.8-1.8,3.5c0,0-3.4,2-5.6,5.5c0,0-2.1,2.3-2.3,5.2c0,0-2.3,7.4-1.2,8.5
		c0,0,2.5,2.2,3.6-3.3c0,0,1.6-4.7,2.7-5.2c0,0-2,11-1.9,12.3c0,0-1,8.3,0.4,9c0,0,1.8,2.4,2.9-5.1l1.3-6.4c0,0-0.9,10.7-0.7,12.6
		c0,0-0.1,1.6,1.3,1.7c0,0,1.6,0.4,2.1-4.7l1.2-8.5l0.2,9.2c0,0,0,2.8,1.4,2.7c0,0,1.6,0.4,1.5-3.8l1.2-11l0.8,7.8
		c0,0-0.1,3,1.1,3.1c0,0,1.3,0.5,1.3-3.6l-0.2-17.4c0,0,0-5.9-1.5-8.7c0.1-2.1,0.4-5.2,1.7-8.3l8.9-33.2c0,0,1.4-4.5,0.7-9.1
		l1.7-13.2l0,0c0.9,6.2,3.5,12.7,3.4,19c0,2.8-1.1,6.4-1.8,9.2c-0.7,2.9-1.5,5.7-2.4,8.5c-1.7,5.3-3.2,11.3-3.8,17
		c-0.3,3.2-1.3,5.5-2.1,8.6c-0.7,2.9-1.1,6.1-1.6,9c-0.6,3.5-0.9,6.3-1,10.5c-0.1,3.2,0.4,6,0.5,9.1c0.1,2.9,0.7,5.8,0.6,8.7
		c-0.1,2.6-0.1,5.5,0.1,8c0.5,5.1,0.2,9.4,1.2,14.3c0.3,1.5,0.5,3.2,0.3,4.8c-0.2,1.4-0.3,2.9-0.6,4.4c-0.7,3.5-0.7,7.1-1.4,10.6
		c-0.9,4.5-2.3,8.9-3.4,13.4c-0.8,3.4-1.9,7.4-2.1,10.9c-0.1,2-0.2,4-0.3,6c-0.2,4.4-0.6,8.8-0.2,13.2c0.2,2.5,0.2,16.7,0.2,19.3
		c0,2.5,0.4,5.5-0.2,7.9c-0.5,2.1-1.8,4.2-2.3,6.4c-0.5,2.2-0.5,3.9-1.7,5.9c-1,1.8-2,3.5-3.3,5c-1.4,1.6-2.5,3.2-3.6,5
		c-1.1,1.7-3.4,3-2.9,5.4c1,0.6,1,1.5,1.9,2.2c0.7,0.5,1.8,1,2.6,1.4c1,0.5,2.5,0.6,3.7,0.6c0.5,0,0.8-0.2,1.3-0.1
		c0.6,0,1.2,0.4,1.8,0.3c5.3-0.5,6.2-7,7.3-10.8c0.7-2.3,1.5-4.2,2.4-6.4c0.4-1,0.8-2.2,1.1-3.2c0.4-1.3,0-2.6,0.3-3.9
		c0.5-2.5,1.5-3.9,1.1-6.7c-0.4-2.4,0.4-4.3,1-6.6c2.3-7.6,4.8-26.8,7.9-34.1c1-2.4,1.7-4.5,2.3-7c1.3-5,1.5-10.2,2.4-15.2
		c0.7-3.8,2.2-6.9,3.4-10.4c0.6-1.8,1.7-3.3,2.2-5c2.1-6.3,2.5-13.7,3.4-20.3c0.7-5,1.8-9.8,2.7-14.7c0.9-4.6,2.6-8.9,3.1-13.7
		c0.2-2.5,0-3.8,0.2-6.4c0.1-1.1-0.1-2.6,1.2-2.6c0.9,0,1.7,0.4,2.8,0.4c0.7,0.1,1.4,0.1,2-0.3c0.1,1.5-0.8,2.3-1,3.8
		c-0.2,1.6-0.2,3.3-0.2,5c0,2.9,0.2,5.7,0.6,8.6c0.4,2.7,0,5.3,0,8c0,2.6,0.3,5.2,0.3,7.7c0,2.4-0.6,4.8-0.6,7.4s0.3,5.1,0.3,7.7
		c0,4.6,1.4,9.1,2.1,13.6c0.3,2.3,0.1,4.7,0,7.1s-0.6,4.6-1.2,6.9s-0.5,4.6-0.7,6.9c-0.3,2.6-0.5,5.1-0.2,7.7
		c0.5,5.1-0.2,10-0.2,15.2c0,2.6-0.1,16.8-0.2,19.4s0.2,5.3-1.2,7.5c-2.8,4.4-1.2,9.4-2.4,14.2c-1.1,4.8-1.8,9.7-2.7,14.6
		c-0.5,2.7,2.1,4.1,4.5,3.4c1.2-0.4,1.8-0.8,3.3-0.8s2.2-0.2,3.4-0.8c1.7-0.7,4.3-1.1,4.8-3.1c2.9,0.2,2.1-4.4,1.5-5.9
		c-1.1-2.3-2.2-4.1-2.5-6.7c-0.3-2.5-1.4-4.9-1.3-7.4c0.1-1.3,0.6-2.2,0.8-3.4c0.2-1.3-0.1-2.7,0-4c0.3-3.4,1.1-6.6,2.3-9.8
		c0.9-2.3,4.6-14.9,5.2-17.2c1.3-5.2,2.7-8.4,3.4-13.4c0.7-5,1.7-10.8,1.8-15.8c0.1-3.1-0.1-5.3-0.5-7.7c-0.4-2.6-0.4-4.9,0-7.6
		c0.3-2.3,0.6-4.6,0.6-7.1c0-2.4-0.1-4.8,0-7.2c0.2-2.4,1.1-4.6,1.8-6.9c0.6-2.4,1.5-4.3,1.9-6.8c0.9-4.7,2.1-9.5,3.2-14.2
		c1.2-4.7,2.7-9,3.4-13.8c0.3-2.4,1.1-4.7,1.3-7.1c0.1-2.7,0-5.4,0-8c0-4.6-0.6-8.8-0.9-13.3c-0.1-2.7-1-5-1.1-7.5
		c-0.1-2.7-1.7-4.9-2.2-7.4c-0.4-2.2-1.9-4.7-2.7-6.8c-1.7-4.2-3.9-6.9-4.3-11.4c-0.2-2.5,0.2-6.5,0.5-8.9c0.4-2.5,1.3-5,1.8-7.4
		s0.8-6.6,1.7-8.8c0.9,2,1.5,3.2,1.5,3.2l1.6,14.9c-0.9,4.5,0.5,9.1,0.5,9.1L294,263c1.2,3.2,1.5,6.3,1.5,8.4
		c-1.5,2.8-1.5,8.7-1.5,8.7l-0.2,17.4c0,4.1,1.3,3.6,1.3,3.6c1.3,0,1.1-3.1,1.1-3.1l0.8-7.8l1.2,11c0,4.3,1.5,3.8,1.5,3.8
		c1.4,0.1,1.4-2.7,1.4-2.7l0.2-9.2l1.2,8.5c0.4,5.1,2.1,4.7,2.1,4.7c1.3-0.1,1.3-1.7,1.3-1.7c0.1-2-0.7-12.6-0.7-12.6l1.3,6.4
		c1,7.5,2.9,5.1,2.9,5.1c1.3-0.7,0.4-9,0.4-9c0.1-1.3-1.9-12.3-1.9-12.3c1.1,0.5,2.7,5.2,2.7,5.2c1.1,5.5,3.6,3.3,3.6,3.3
		C315.2,289.9,313,282.5,313,282.5z"/>
	<g>
		<g>
			<path class="st0" d="M240.7,161.6c-1.4,2.3-4.8,3.7-7.1,3.3c-0.1-2.5-1.3-2.8-3.3-2.8c-1.9,0-1.6-0.1-3.3-1.3
				c-1.5-1-3.2-1.6-4.8,0.6c-1.2,1.6-3.7,5.4-2.8,6.9c0.9,1.7,5.6,3.2,6.4,4.8c0.9,1.6,1.8,2.5,2.5,4.3c1.2,3,3.3,4.7,4.7,7.8
				c1.2,2.9,2.2,5.8,4.4,8.2c3.8,4.1,4.3-3.1,5.4-5.9c1.6-4,1.9-6.5,1.1-10.9c-0.6-3.8,0.4-8.4-0.9-11.9c-0.5-1.2-1.1-2.3-1.8-3.3
				c-0.4,0-0.3,0.3-0.4,0.5L240.7,161.6L240.7,161.6z"/>
			<path class="st0" d="M271.3,161.8c1.4,2.3,4.8,3.7,7.1,3.3c0.1-2.5,1.3-2.8,3.3-2.8c1.9,0,1.6-0.1,3.3-1.3c1.5-1,3.2-1.6,4.8,0.6
				c1.2,1.6,3.7,5.4,2.8,6.9c-0.9,1.7-5.6,3.2-6.4,4.8c-0.9,1.6-1.8,2.5-2.5,4.3c-1.2,3-3.3,4.7-4.7,7.8c-1.2,2.9-2.2,5.8-4.4,8.2
				c-3.8,4.1-4.3-3.1-5.4-5.9c-1.6-4-1.9-6.5-1.1-10.9c0.6-3.8-0.4-8.4,0.9-11.9c0.5-1.2,1.1-2.3,1.8-3.3c0.4,0,0.2,0.3,0.4,0.5
				v-0.3H271.3z"/>
			<path class="st0" d="M218.8,166.8c1.5-0.6,2.9-1.5,4.6-0.6c1.4,0.7,2.9,1.8,3.1,3.4c0.2,1.5-0.2,3.6-2.2,3.5
				c-1.8-0.1-3.1-2.3-3.9-3.6c-0.4-0.7-0.7-1.6-1.4-2L218.8,166.8z"/>
			<g>
				<path class="st0" d="M208.5,268.9c-0.7-0.5-0.5,1.2,0.2,1.6c0.6,0.3,1.3-0.2,1.9-0.1c0.3,0,0.5,0.4,0.8,0.2
					c0.4-0.2,0.3-0.7,0.5-0.9c0.7-0.7,0.9,0,1.6,0.4c1.6,1,1.4-2.5-0.2-2.5c-0.7,0-1.3,0.4-2,0.5c-0.6,0.1-1.3-0.2-1.9,0.1
					C209,268.3,208.8,268.9,208.5,268.9L208.5,268.9z"/>
				<path class="st0" d="M216.4,222.1c-0.8-0.8-0.9-2.8,0.4-2.6c0.4,0.1,0.7,0.5,1.1,0.6c0.4,0.2,1.1-0.2,1.5-0.1
					c1.1,0.4,0.5,2.1-0.4,2.5c-1.1,0.5-1.9-0.2-2.9-0.5L216.4,222.1z"/>
				<path class="st2" d="M218.6,226.9c-0.1-2.3-0.3-6.8,1.6-7.4c0.8-0.3,2.2,0.4,2.8,1.2c1.1,1.6,0.2,1.9-0.5,3.2
					c-2.9,5.2-3.5,10.1-4,16.2c-0.5,6.1-1.8,11.5-2.5,17.5c-0.4,2.9-0.7,6.3-1,9.3c-0.2,2-0.1,2.2-1.5,1.5c-1.3-0.6-1.5-0.7-1.1-2.7
					c0.6-3,1.6-6.1,2.1-9.2c0.5-3.1,0.8-6.1,1.2-9.1c0.5-3.2,0.1-6.4,0.4-9.6c0.3-2.9,0.6-5.9,1.2-8.7c0.3-1.1,0.7-2.3,0.6-3.6
					L218.6,226.9z"/>
				<path class="st0" d="M216.4,216.4c-0.2,0-1.1,1.2-1,1.7c0.1,0.9,1.2,1.3,2,1.2c0.3,0,0.6-0.3,1-0.2c0.3,0,0.6,0.3,1,0.4
					c1.1,0.1,1.1-0.3,2.1,0.6c2,1.8,2.1,0,1.6-1.7c-0.6-2-1.6-2.7-3.7-2.6c-0.8,0-1.9,0.2-2.4,0.7L216.4,216.4z"/>
				<path class="st3" d="M218.7,172.6c0.1-1.7-1.8-3.3-0.9-5c0.7-1.2,3.3-1.6,4.4-1.1c1,0.4,2.5,1.9,3.1,2.8
					c0.5,0.7,0.6,1.5,0.4,2.4c-0.2,1-0.8,1-1.2,2c-1.4,3-1,6.9-0.9,10.2c0,3.7-0.1,7.3,0,11.1c0.1,1.9-0.4,3.8-0.4,5.7
					c0.1,2-0.2,3.7-0.3,5.7c-0.2,1.8,0,3.8,0.6,5.5s1.8,2.9,2.1,4.6c0.3,1.4-0.6,4.4-2.3,2.8c-0.6-0.5-0.5-1.4-1.3-1.9
					c-0.6-0.4-1.5-0.4-2.2-0.5c-0.9-0.1-1.7-0.1-2.6,0.1c-1,0.2-1.6,0.6-1.9-0.7c-0.3-1.7,1.2-3.3,1.8-4.8
					c2.4-6.7,2.7-14.1,2.4-21.3c-0.1-3,0.3-6,0.3-8.9c0-1.5-0.2-3.1-0.4-4.6s-0.8-3-0.7-4.5L218.7,172.6z"/>
				<path class="st3" d="M219.1,221.6c-0.1,1.5,0,3,0.1,4.6c-0.8,3.7-2.3,7.2-3.3,11.1c-0.5,2-1.1,4.2-1.4,6.2
					c-0.2,2.2-0.2,4.3-0.6,6.4c-0.3,2-0.7,4.1-0.7,6.2c0,2.2,0.2,4.5,0.1,6.6c-0.1,1-0.1,2,0,3c0.1,0.8,0.4,2.4,0.3,3.1
					c-0.4,1.6-3,0.7-4,0.8c-2.1,0.1-2.4-1.3-1.5-3.7c0.7-1.9,1.3-3.3,1.5-5.6c0.4-4.1,1-8.1,1.7-12.2c0.3-2,0.9-3.9,1.2-5.9
					s0.4-4.1,1.1-5.9c1.3-3.4,1.5-7.6,2.1-11.3c0.2-1-0.1-3.3,0.5-4c0.5-0.6,2.5,0.4,2.9,1L219.1,221.6z"/>
				<g>
					<path class="st0" d="M199.5,278.3c-0.2,0.4-0.9,0.6-0.3,1.1c0.2,0.2,0.9,0.7,1.3,0.8c0.7,0.3,1-0.3,0.8-0.9s-1-0.5-1.4-0.8
						L199.5,278.3z"/>
					<path class="st0" d="M197.8,284.3c-0.4,0-0.9,0.3-0.6,0.7c0.1,0.2,1,0.3,1.2,0.3c1-0.3-0.3-1.7-0.8-1H197.8z"/>
					<path class="st0" d="M203.1,285.5c-0.7,0.9,0.9,2.7,1.8,2c0.3-0.2,0.5-1.6,0.3-1.9c-0.5-0.7-1.4,0-1.9-0.1H203.1z"/>
					<path class="st0" d="M201.8,292.8c-1.1,0.3-0.2,1.8,0.8,1.5c0.4-0.1,0.6-0.8,0.5-1.1c-0.2-0.5-0.8-0.4-1.2-0.5L201.8,292.8z"/>
					<path class="st0" d="M201.2,298c-0.2,0.5,0.5,1.1,1,1.1c0.2-0.3,0.4-1,0.3-1.4c-0.3-0.1-0.9-0.3-1.1,0.1L201.2,298z"/>
					<path class="st0" d="M207.5,285.8c-0.5,0-1.1,0.6-1,1.1c0.1,0.6,0.9,0.6,1.4,0.8c0.7,0.3,0.8,0.1,0.9-0.6
						c0.1-0.5,0-1.5-0.7-1.4L207.5,285.8z"/>
					<path class="st0" d="M206.2,293.5c-0.5,0.8-0.6,2.1,0.8,2c0.5,0,0.7-0.7,0.6-1.2c0-0.7-0.7-0.8-1.2-1.1L206.2,293.5z"/>
					<path class="st0" d="M205.8,300c-1.1,0.1-0.2,1.6,0.7,1c0.2-0.2,0.8-0.8,0.5-1.2c-0.2-0.4-0.9-0.2-1.2,0V300z"/>
					<path class="st0" d="M210.8,284.8c-0.5,0.2-0.6,1.2-0.3,1.6c0.2,0.4,1.3,0.5,1.7,0.3c0.5-0.2,0.5-1,0.4-1.5
						c-0.2-0.7-0.7-0.8-1.4-0.6L210.8,284.8z"/>
					<path class="st0" d="M210.5,292.2c-0.1,0.5-0.6,0.7-0.4,1.3c0.1,0.5,0.7,0.6,1.2,0.6c1.2-0.1,0.5-2-0.6-2L210.5,292.2z"/>
					<path class="st0" d="M210.2,298.5c-0.5,0.6,0.3,1.6,0.9,1.2c0.2-0.2,0.5-0.7,0.4-1c-0.1-0.4-0.6-0.3-0.9-0.3L210.2,298.5z"/>
					<path class="st0" d="M214.1,284c-0.7,1,0.1,2.2,1.4,1.6c0.4-0.2,0.5-0.9,0.3-1.3c-0.2-0.6-0.7-0.5-1.3-0.5L214.1,284z"/>
					<path class="st0" d="M214.9,291.2c-0.2,0.2-0.2,0.7,0,0.9c0.2,0.2,0.8,0.1,1.1,0.1c0.3-0.6-0.3-1.4-1-1H214.9z"/>
					<path class="st0" d="M214.7,295.6c-0.1,0.6,0.7,1.3,1.1,0.7c0.4-0.6-0.5-1.6-0.9-0.9L214.7,295.6z"/>
					<path class="st0" d="M205.9,271.9c-0.3,0-0.8,0.2-1.1,0.3c-0.3,0.1-0.8,0.3-0.5,0.8c0.2,0.3,0.6,0.3,0.8,0.4
						c0.3,0.2,0.5,0.5,0.6,0.8c0.1,0.2,0.3,0.7,0.5,0.9c0.3,0.2,0.8,0.1,1.2,0.1c0.8,0,1.7,0.1,2.5,0.2c0.9,0.1,1.2,0.8,2.1,0.6
						c0.4-0.1,0.8-0.2,1.2-0.4c0.4-0.1,0.8-0.2,1.2-0.3c0.5-0.2,0.3-0.3-0.1-0.6c-0.3-0.3-0.4-0.5-0.9-0.6c-1.1-0.4-2.4-0.2-3.6-0.5
						c-0.8-0.2-1.6-0.6-2.4-0.8c-0.6-0.1-1.1-0.5-1.7-0.6L205.9,271.9z"/>
					<path class="st3" d="M208,270.8c-0.5-0.2-1.7,0.1-2.2,0.4c-0.9,0.5-0.8,0.8-0.2,1.4c0.2,0.2,0.6,0.3,0.8,0.6
						c0.3,0.4,0.1,0.8,0.4,1.1c0.6,0.5,1.7,0,2.4,0.1c1.6,0.3,3.2,0.9,4.8,0.2c0.8-0.4,1.2-1.2,0.8-2c-0.2-0.3-0.6-0.4-0.7-0.6
						c-0.2-0.3-0.1-0.9-0.4-1.1c-0.5-0.5-2.1-0.4-2.8-0.4c-0.9,0-2.3,0-3,0.4L208,270.8z"/>
					<path class="st3" d="M201.8,279.5c0.4-0.3,0.1-1.6,0.5-2.2c0.4-0.5,1.2-1,1.7-1.4c1.3-1,2.7-2,0.6-2.9c-1-0.4-0.9-0.4-1.4,0.5
						c-0.3,0.6-0.6,1-1.1,1.5c-0.7,0.7-2.6,2.3-2.8,3.3c-0.2,0.8,1.3,1.2,1.9,1.4L201.8,279.5z"/>
					<path class="st3" d="M198.9,284.8c0-1.5,0.5-2,1.4-3.1c0.4-0.5,0.8-0.8,0.4-1.4c-0.1-0.1-1.4-0.8-1.6-0.8
						c-1.5-0.1-0.3,2.6-0.7,3.6c-0.1,0.3-1.1,1-1,1.3c0.2,0.7,1.3-0.5,1.5,0.6L198.9,284.8z"/>
					<path class="st3" d="M197.1,287.1c-0.4,0.1-1,2.5,0.2,1.8c0.5-0.3,0.5-1.9,0.8-2.5s1-1.8-0.4-1.7
						C196.4,284.8,197.1,286.4,197.1,287.1L197.1,287.1z"/>
					<path class="st3" d="M203.2,285.1c0.7-1.3,1.1-2.5,1.3-3.9c0.2-1.6,0.8-2.9,1.1-4.4c0.2-0.8,0.1-1.5,1-1.7
						c0.7-0.2,1.8-0.1,1.9,0.7c0.1,0.6-0.9,1.5-1.1,2c-0.3,0.7-0.4,1.4-0.7,2.1s-0.8,1.3-1,2.1c-0.3,0.9-0.1,1.6-0.1,2.5
						c0,1-0.1,1.5-1.1,1.8C203.8,286.3,202.4,285.9,203.2,285.1L203.2,285.1z"/>
					<path class="st3" d="M207.1,285.5c0.5-1.4,0.7-2.7,0.7-4.1c-0.1-1.6,0.3-3,0.4-4.5c0.1-0.8-0.2-1.4,0.7-1.8
						c0.6-0.3,1.8-0.4,2,0.3c0.2,0.6-0.6,1.6-0.8,2.1c-0.2,0.7-0.2,1.4-0.4,2.2c-0.2,0.7-0.1,1.7-0.2,2.5c-0.1,0.9,0,1.6-0.1,2.2
						c-0.2,1,0.2,1.5-0.8,2C208,286.6,206.4,286.4,207.1,285.5L207.1,285.5z"/>
					<path class="st3" d="M210.7,284.5c0.3-1.2,0.4-2.3,0.3-3.5c-0.2-1.3,0-2.5,0-3.8c0-0.7-0.3-1.2,0.5-1.6
						c0.5-0.3,1.5-0.5,1.7,0.1c0.2,0.5-0.4,1.4-0.5,1.9c-0.1,0.6,0,1.2-0.1,1.8c-0.1,0.6,0,1.4,0,2.1c0,0.8,0.1,1.3,0.1,1.9
						c-0.1,0.8,0.3,1.3-0.5,1.7C211.5,285.3,210.2,285.3,210.7,284.5L210.7,284.5z"/>
					<path class="st3" d="M213.9,283.8c0.2-1.2,0.2-2.2-0.1-3.3c-0.3-1.2-0.3-2.4-0.5-3.6c-0.1-0.7-0.4-1.1,0.3-1.6
						c0.5-0.3,1.4-0.6,1.7-0.1c0.2,0.4-0.2,1.3-0.3,1.8c0,0.6,0.1,1.1,0.1,1.7s0.2,1.3,0.2,2c0.1,0.7,0.3,1.2,0.3,1.7
						c0,0.8,0.4,1.1-0.3,1.7C214.8,284.5,213.5,284.6,213.9,283.8L213.9,283.8z"/>
					<path class="st3" d="M203.3,293.2c0-1.6,0.5-2.5,1.3-3.9c0.3-0.5,1-1.2,0.5-1.8c-0.1-0.1-1.9-0.6-2.1-0.5
						c-0.8,0.3-0.6,1.4-0.6,2c0,0.8-0.2,1.1-0.4,1.8c-0.1,0.4-0.6,1.4-0.4,1.9c0.2,0.6,1,0.6,1.6,0.8c0.1-0.1,0.1-0.3,0.1-0.4
						L203.3,293.2z"/>
					<path class="st3" d="M207.7,293.9c-0.3-1.7,0.1-2.8,0.7-4.4c0.2-0.6,0.8-1.4,0.3-2c-0.1-0.1-2-0.4-2.1-0.3
						c-0.7,0.4-0.3,1.6-0.3,2.3c0.1,0.8,0,1.3-0.2,2c-0.1,0.5-0.3,1.6-0.1,2.1c0.3,0.6,1.1,0.6,1.7,0.6c0.1-0.2,0.1-0.3,0.1-0.5
						L207.7,293.9z"/>
					<path class="st3" d="M211.9,292.6c-0.3-1.6-0.1-2.6,0.4-4.1c0.2-0.5,0.7-1.4,0.2-1.8c-0.1-0.1-1.8-0.3-2-0.2
						c-0.6,0.4-0.3,1.4-0.1,2.1c0.1,0.8,0,1.2-0.1,1.9c-0.1,0.5-0.3,1.5,0,1.9c0.3,0.6,1,0.5,1.6,0.5c0.1-0.1,0-0.3,0-0.4
						L211.9,292.6z"/>
					<path class="st3" d="M216.1,291c-0.6-1.4-0.4-2.4-0.2-3.9c0.1-0.5,0.4-1.4-0.1-1.7c-0.1-0.1-1.8,0.1-2,0.2
						c-0.6,0.5,0,1.4,0.2,2c0.2,0.7,0.2,1.1,0.2,1.7c0,0.4,0,1.4,0.3,1.8c0.4,0.5,1.1,0.2,1.6,0.2
						C216.2,291.2,216.1,291.1,216.1,291L216.1,291z"/>
					<path class="st3" d="M201.2,294.6c0-0.1,0-0.2,0-0.3c0,1,0,1.9-0.1,2.8c-0.2,1.6,0.2,0.8,1.5,0.9c0.1-0.6-0.3-1-0.3-1.5
						s0.2-0.9,0.4-1.3c0.5-1.4,0-1.4-1.4-1.3c0,0.1,0,0.3,0,0.4L201.2,294.6z"/>
					<path class="st3" d="M205.7,296c0-0.1,0-0.2,0-0.3c0,1.2-0.1,2.2-0.3,3.3c-0.3,1.9,0.2,1,1.7,1.1c0.1-0.7-0.3-1.2-0.3-1.7
						c0-0.6,0.3-1,0.5-1.6c0.7-1.6,0.1-1.7-1.6-1.6c0,0.2,0,0.3,0,0.5L205.7,296z"/>
					<path class="st3" d="M210,294.7c0-0.1,0-0.2,0-0.3c0.1,1.2,0,2.2-0.1,3.3c-0.2,1.9,0.2,1,1.8,1c0.1-0.7-0.4-1.1-0.4-1.7
						c-0.1-0.6,0.2-1,0.4-1.6c0.6-1.7,0-1.7-1.7-1.5c0,0.2,0,0.3,0,0.5V294.7z"/>
					<path class="st3" d="M214.8,292.5c0-0.1,0-0.2,0-0.3c0,0.9,0,1.7-0.1,2.6c-0.1,1.5,0.2,0.7,1.4,0.8c0.1-0.6-0.3-0.9-0.3-1.3
						c0-0.5,0.2-0.8,0.3-1.2c0.4-1.3,0-1.3-1.3-1.2c0,0.1,0,0.2,0,0.4L214.8,292.5z"/>
					<path class="st3" d="M201.3,299.4c-0.2-0.7,0.3-1.3,0.9-0.6c0.3,0.4,0,1.2-0.1,1.6c-0.6,2.1-0.9-0.4-0.8-1.4L201.3,299.4z"/>
					<path class="st3" d="M205.2,301.6c-0.2-0.9,0.4-1.6,1.1-0.8c0.4,0.5,0,1.5-0.2,2c-0.7,2.6-1.1-0.5-0.9-1.8L205.2,301.6z"/>
					<path class="st3" d="M210,300.4c-0.2-0.9,0.4-1.6,1.1-0.8c0.4,0.5,0,1.5-0.2,2c-0.7,2.6-1.1-0.5-0.9-1.8L210,300.4z"/>
					<path class="st3" d="M214.9,297.2c-0.2-0.7,0.4-1.3,0.9-0.6c0.3,0.4,0,1.2-0.1,1.7c-0.6,2.1-0.9-0.4-0.8-1.5L214.9,297.2z"/>
				</g>
			</g>
			<g>
				<path class="st0" d="M302.2,269.8c0.7-0.5,0.5,1.2-0.2,1.6c-0.6,0.2-1.3-0.2-1.9-0.1c-0.3,0-0.5,0.4-0.8,0.2
					c-0.4-0.2-0.3-0.7-0.5-0.9c-0.7-0.7-0.9,0-1.6,0.4c-1.6,0.9-1.4-2.5,0.2-2.5c0.7,0,1.3,0.4,2,0.5c0.6,0.1,1.3-0.2,1.9,0.1
					C301.7,269.3,301.9,269.9,302.2,269.8L302.2,269.8z"/>
				<path class="st0" d="M294.8,223c0.8-0.8,0.9-2.7-0.4-2.6c-0.4,0.1-0.7,0.4-1.1,0.6c-0.4,0.1-1.1-0.2-1.5-0.1
					c-1.1,0.4-0.6,2.1,0.3,2.5c1.1,0.5,1.9-0.2,2.9-0.4H294.8z"/>
				<path class="st2" d="M292.6,227.8c0.2-2.3,0.4-6.8-1.6-7.4c-0.8-0.3-2.2,0.4-2.8,1.2c-1.1,1.6-0.2,1.9,0.5,3.2
					c2.8,5.2,3.4,10.1,3.8,16.2c0.4,6.1,1.6,11.6,2.3,17.5c0.3,3,0.6,6.3,0.9,9.3c0.2,2,0.1,2.2,1.5,1.5c1.3-0.6,1.5-0.7,1.1-2.7
					c-0.5-3-1.6-6.1-2-9.2c-0.5-3.1-0.7-6.1-1.1-9.1c-0.5-3.2,0-6.4-0.3-9.6c-0.2-2.9-0.5-5.9-1.1-8.7c-0.3-1.1-0.6-2.3-0.5-3.6
					L292.6,227.8z"/>
				<path class="st0" d="M294.8,217.3c0.2,0,1.1,1.2,1,1.7c-0.1,0.9-1.2,1.2-2,1.2c-0.3,0-0.6-0.3-1-0.2c-0.3,0-0.6,0.3-1,0.4
					c-1.1,0.1-1.1-0.3-2.1,0.6c-2,1.7-2.1,0-1.6-1.7c0.6-2,1.6-2.7,3.8-2.6c0.8,0,1.9,0.2,2.4,0.7L294.8,217.3z"/>
				<path class="st3" d="M293,173.5c0-1.7,1.9-3.3,0.9-5c-0.7-1.2-3.3-1.7-4.4-1.2c-1,0.4-2.5,1.8-3.1,2.7c-0.5,0.7-0.6,1.5-0.5,2.4
					c0.2,1,0.8,1,1.2,2c1.3,3,0.9,6.9,0.8,10.2c-0.1,3.7,0.1,7.3-0.2,11.1c-0.1,1.9,0.4,3.8,0.3,5.7c-0.1,2,0.1,3.7,0.3,5.7
					c0.2,1.8-0.1,3.8-0.7,5.5c-0.6,1.6-1.8,2.9-2.2,4.6c-0.3,1.4,0.5,4.4,2.3,2.8c0.6-0.5,0.6-1.4,1.3-1.9c0.7-0.4,1.5-0.4,2.2-0.5
					c0.9,0,1.7-0.1,2.6,0.1c1,0.2,1.6,0.6,1.9-0.7c0.4-1.6-1.2-3.3-1.7-4.8c-2.3-6.7-2.5-14.1-2.2-21.3c0.1-3-0.2-6-0.2-8.9
					c0-1.5,0.2-3.1,0.4-4.6c0.2-1.5,0.8-3,0.8-4.5L293,173.5z"/>
				<path class="st3" d="M292.1,222.4c0.1,1.5,0,3-0.1,4.6c0.8,3.7,2.3,7.3,3.1,11.2c0.5,2,1.1,4.2,1.3,6.2c0.2,2.2,0.2,4.3,0.5,6.4
					c0.3,2,0.6,4.1,0.7,6.2c0,2.2-0.3,4.5-0.2,6.6c0,1,0.1,2,0,3c-0.1,0.8-0.5,2.4-0.3,3.1c0.4,1.6,3,0.8,4,0.9
					c2.1,0.2,2.4-1.3,1.5-3.7c-0.7-1.9-1.3-3.4-1.5-5.6c-0.3-4.1-1-8.1-1.5-12.2c-0.3-2-0.9-3.9-1.1-5.9s-0.4-4.1-1-6
					c-1.2-3.4-1.4-7.6-2-11.3c-0.1-1,0.2-3.3-0.4-4c-0.5-0.6-2.5,0.4-2.9,1L292.1,222.4z"/>
				<g>
					<path class="st0" d="M311.1,279.4c0.2,0.4,0.9,0.6,0.3,1.1c-0.2,0.2-0.9,0.6-1.3,0.8c-0.7,0.3-1-0.3-0.7-1
						c0.2-0.6,1-0.5,1.4-0.8L311.1,279.4z"/>
					<path class="st0" d="M312.7,285.4c0.4,0,0.9,0.3,0.6,0.8c-0.1,0.2-1,0.3-1.2,0.3c-1-0.3,0.3-1.7,0.8-1L312.7,285.4z"/>
					<path class="st0" d="M307.4,286.6c0.7,0.9-1,2.7-1.8,2c-0.3-0.2-0.5-1.6-0.3-1.9c0.5-0.7,1.4,0,1.9-0.1H307.4z"/>
					<path class="st0" d="M308.6,293.8c1.1,0.3,0.2,1.8-0.8,1.5c-0.4-0.1-0.6-0.8-0.5-1.1c0.2-0.5,0.8-0.4,1.2-0.5L308.6,293.8z"/>
					<path class="st0" d="M309.2,299.1c0.2,0.5-0.5,1.1-1,1.1c-0.2-0.3-0.3-1.1-0.3-1.4c0.3-0.1,0.9-0.3,1.1,0.1L309.2,299.1z"/>
					<path class="st0" d="M303,286.8c0.5,0,1.1,0.6,0.9,1.1c-0.1,0.6-0.9,0.6-1.4,0.8c-0.7,0.3-0.8,0.1-0.9-0.6
						c-0.1-0.5,0-1.5,0.7-1.4L303,286.8z"/>
					<path class="st0" d="M304.3,294.5c0.5,0.8,0.6,2.2-0.8,2c-0.5-0.1-0.6-0.7-0.6-1.2c0-0.7,0.7-0.8,1.2-1L304.3,294.5z"/>
					<path class="st0" d="M304.6,301c1.1,0.1,0.2,1.7-0.7,1c-0.2-0.2-0.7-0.8-0.5-1.2c0.2-0.4,0.9-0.2,1.2,0V301z"/>
					<path class="st0" d="M299.7,285.8c0.5,0.2,0.6,1.2,0.3,1.6c-0.3,0.4-1.3,0.5-1.7,0.3c-0.5-0.2-0.5-1-0.4-1.5
						c0.2-0.7,0.7-0.8,1.4-0.6L299.7,285.8z"/>
					<path class="st0" d="M300,293.2c0.1,0.5,0.6,0.7,0.4,1.3c-0.2,0.5-0.7,0.6-1.2,0.6c-1.2-0.1-0.5-2,0.6-2L300,293.2z"/>
					<path class="st0" d="M300.2,299.4c0.5,0.6-0.3,1.6-0.9,1.2c-0.2-0.2-0.5-0.7-0.4-1c0.1-0.4,0.6-0.3,1-0.3L300.2,299.4z"/>
					<path class="st0" d="M296.4,284.9c0.7,1-0.1,2.2-1.4,1.6c-0.4-0.2-0.5-0.9-0.3-1.3c0.2-0.6,0.7-0.5,1.3-0.5L296.4,284.9z"/>
					<path class="st0" d="M295.6,292.1c0.2,0.2,0.2,0.7,0,0.9c-0.2,0.2-0.8,0.1-1.1,0.1c-0.3-0.7,0.3-1.4,1-1H295.6z"/>
					<path class="st0" d="M295.7,296.5c0.1,0.6-0.7,1.3-1.1,0.6c-0.3-0.6,0.5-1.6,0.9-0.9L295.7,296.5z"/>
					<path class="st0" d="M304.8,272.9c0.3,0,0.8,0.2,1.1,0.3c0.3,0.1,0.7,0.3,0.5,0.8c-0.2,0.3-0.6,0.3-0.9,0.4
						c-0.3,0.2-0.5,0.5-0.6,0.8c-0.1,0.2-0.3,0.7-0.5,0.9c-0.3,0.2-0.8,0.1-1.2,0.1c-0.8,0-1.7,0-2.5,0.2c-0.9,0.1-1.2,0.8-2.1,0.6
						c-0.4-0.1-0.8-0.2-1.2-0.4c-0.4-0.1-0.8-0.2-1.2-0.4c-0.5-0.2-0.3-0.3,0.1-0.6c0.3-0.3,0.5-0.5,0.9-0.6
						c1.1-0.4,2.4-0.1,3.6-0.5c0.8-0.2,1.6-0.5,2.4-0.7c0.6-0.1,1.2-0.5,1.7-0.6L304.8,272.9z"/>
					<path class="st3" d="M302.7,271.8c0.5-0.2,1.7,0.1,2.2,0.4c0.9,0.5,0.8,0.8,0.2,1.4c-0.2,0.2-0.6,0.3-0.8,0.6
						c-0.3,0.4-0.1,0.8-0.4,1.1c-0.6,0.5-1.7,0-2.4,0.1c-1.6,0.3-3.2,0.9-4.8,0.1c-0.8-0.4-1.2-1.2-0.7-2c0.2-0.3,0.6-0.4,0.7-0.6
						c0.2-0.3,0.1-0.9,0.4-1.1c0.5-0.5,2.1-0.4,2.8-0.3c0.9,0,2.3,0,3,0.4L302.7,271.8z"/>
					<path class="st3" d="M308.8,280.5c-0.4-0.3-0.1-1.6-0.5-2.2c-0.4-0.5-1.1-1-1.7-1.4c-1.3-1-2.7-2-0.6-2.9
						c1-0.4,0.9-0.4,1.4,0.5c0.3,0.6,0.6,1,1.1,1.5c0.7,0.8,2.6,2.3,2.8,3.3c0.2,0.8-1.3,1.2-1.9,1.4L308.8,280.5z"/>
					<path class="st3" d="M311.6,285.8c0.1-1.5-0.4-2-1.3-3.2c-0.4-0.5-0.8-0.8-0.4-1.4c0.1-0.1,1.4-0.8,1.6-0.8
						c1.5,0,0.3,2.6,0.7,3.6c0.1,0.3,1.1,1,1,1.3c-0.2,0.7-1.3-0.5-1.5,0.6L311.6,285.8z"/>
					<path class="st3" d="M313.4,288.2c0.3,0.1,1,2.5-0.3,1.8c-0.5-0.3-0.5-2-0.8-2.5c-0.3-0.6-1-1.8,0.4-1.7
						C314,285.9,313.3,287.6,313.4,288.2L313.4,288.2z"/>
					<path class="st3" d="M307.3,286.1c-0.7-1.3-1.1-2.5-1.3-4c-0.2-1.6-0.7-2.9-1.1-4.4c-0.2-0.8,0-1.5-1-1.7
						c-0.7-0.2-1.8-0.1-1.9,0.7c-0.1,0.6,0.9,1.5,1.1,2c0.3,0.7,0.4,1.4,0.7,2.1c0.3,0.7,0.8,1.3,1,2.1c0.2,0.9,0.1,1.6,0.1,2.5
						c0,1,0.1,1.5,1.1,1.8C306.7,287.3,308.2,286.9,307.3,286.1L307.3,286.1z"/>
					<path class="st3" d="M303.4,286.5c-0.5-1.4-0.7-2.7-0.6-4.1c0.1-1.6-0.2-3-0.3-4.5c0-0.8,0.2-1.4-0.7-1.8
						c-0.6-0.3-1.8-0.4-2,0.3c-0.2,0.6,0.6,1.6,0.7,2.2c0.2,0.7,0.2,1.4,0.3,2.2c0.2,0.7,0.1,1.7,0.2,2.5c0.1,0.9,0,1.6,0.1,2.2
						c0.2,1-0.2,1.5,0.8,2C302.5,287.5,304.1,287.4,303.4,286.5L303.4,286.5z"/>
					<path class="st3" d="M299.8,285.4c-0.3-1.2-0.4-2.3-0.2-3.5c0.2-1.3,0-2.5,0.1-3.8c0-0.7,0.3-1.2-0.4-1.6
						c-0.5-0.3-1.5-0.5-1.7,0.1c-0.2,0.5,0.4,1.4,0.5,1.9c0.1,0.6,0,1.2,0.1,1.8c0.1,0.6,0,1.4,0,2.1c0,0.8-0.1,1.3-0.1,1.9
						c0.1,0.8-0.3,1.3,0.5,1.7C299,286.3,300.3,286.2,299.8,285.4L299.8,285.4z"/>
					<path class="st3" d="M296.6,284.7c-0.2-1.2-0.1-2.2,0.2-3.3c0.3-1.2,0.3-2.4,0.5-3.6c0.1-0.7,0.4-1.1-0.3-1.6
						c-0.5-0.4-1.4-0.7-1.7-0.2c-0.2,0.4,0.2,1.3,0.3,1.8c0,0.6-0.1,1.1-0.1,1.7s-0.2,1.3-0.2,2c-0.1,0.7-0.3,1.2-0.3,1.7
						c0,0.8-0.4,1.1,0.3,1.7C295.7,285.4,297,285.5,296.6,284.7L296.6,284.7z"/>
					<path class="st3" d="M307.2,294.2c0.1-1.6-0.4-2.5-1.2-3.9c-0.3-0.5-1-1.2-0.5-1.8c0.1-0.1,1.9-0.5,2.1-0.5
						c0.8,0.3,0.5,1.4,0.6,2c0,0.8,0.2,1.1,0.4,1.8c0.1,0.4,0.6,1.4,0.4,1.9c-0.2,0.6-1,0.6-1.6,0.8c-0.1-0.1-0.1-0.3-0.1-0.4
						L307.2,294.2z"/>
					<path class="st3" d="M302.7,294.9c0.3-1.7,0-2.8-0.6-4.4c-0.2-0.6-0.8-1.4-0.2-2c0.1-0.1,2-0.3,2.1-0.2
						c0.7,0.4,0.3,1.6,0.2,2.3c-0.1,0.8,0,1.3,0.1,2c0.1,0.5,0.3,1.6,0.1,2.1c-0.3,0.6-1.1,0.6-1.7,0.6c-0.1-0.2-0.1-0.3,0-0.5
						V294.9z"/>
					<path class="st3" d="M298.6,293.6c0.4-1.6,0.1-2.6-0.4-4.1c-0.2-0.5-0.7-1.4-0.1-1.8c0.1-0.1,1.8-0.2,2-0.1
						c0.6,0.4,0.2,1.5,0.1,2.1c-0.1,0.8,0,1.2,0.1,1.9c0,0.5,0.2,1.5,0,1.9c-0.3,0.6-1,0.5-1.6,0.5c-0.1-0.2,0-0.3,0-0.4H298.6z"/>
					<path class="st3" d="M294.3,291.9c0.6-1.4,0.5-2.4,0.2-3.8c-0.1-0.5-0.4-1.4,0.1-1.7c0.1-0.1,1.8,0.1,2,0.3
						c0.6,0.5,0,1.4-0.2,2c-0.2,0.7-0.2,1.1-0.2,1.7c0,0.4,0,1.4-0.3,1.8c-0.4,0.5-1.1,0.2-1.6,0.2
						C294.3,292.1,294.3,292,294.3,291.9L294.3,291.9z"/>
					<path class="st3" d="M309.2,295.6c0-0.1,0-0.2,0-0.3c0,1,0,1.9,0.1,2.8c0.2,1.6-0.2,0.8-1.5,0.9c-0.1-0.6,0.3-1,0.3-1.5
						s-0.2-0.9-0.3-1.3c-0.5-1.4,0-1.4,1.4-1.3c0,0.1,0,0.3,0,0.4V295.6z"/>
					<path class="st3" d="M304.7,297c0-0.1,0-0.2,0-0.3c0,1.2,0.1,2.2,0.3,3.3c0.3,1.9-0.2,1-1.7,1.1c-0.1-0.7,0.3-1.2,0.3-1.7
						c0-0.6-0.3-1-0.5-1.6c-0.7-1.6-0.1-1.7,1.6-1.6c0,0.2,0,0.3,0,0.5L304.7,297z"/>
					<path class="st3" d="M300.4,295.6c0-0.1,0-0.2,0-0.3c-0.1,1.2,0,2.2,0.1,3.3c0.2,1.9-0.2,1-1.8,1c-0.1-0.7,0.4-1.1,0.4-1.7
						c0.1-0.6-0.2-1-0.4-1.6c-0.5-1.7,0-1.7,1.7-1.5c0,0.2,0,0.3,0,0.5L300.4,295.6z"/>
					<path class="st3" d="M295.7,293.4c0-0.1,0-0.2,0-0.3c-0.1,0.9,0,1.7,0,2.6c0.1,1.5-0.2,0.7-1.4,0.8c-0.1-0.6,0.3-0.9,0.3-1.3
						c0-0.5-0.2-0.8-0.3-1.2c-0.4-1.3,0-1.3,1.3-1.2c0,0.1,0,0.2,0,0.4L295.7,293.4z"/>
					<path class="st3" d="M309.1,300.4c0.2-0.7-0.3-1.3-0.9-0.6c-0.3,0.4,0,1.2,0.1,1.6c0.6,2.1,0.9-0.4,0.8-1.4V300.4z"/>
					<path class="st3" d="M305.2,302.6c0.2-0.9-0.4-1.6-1.1-0.8c-0.4,0.5,0,1.5,0.1,2c0.7,2.6,1.1-0.5,1-1.8V302.6z"/>
					<path class="st3" d="M300.4,301.4c0.2-0.9-0.4-1.6-1.1-0.8c-0.4,0.5,0,1.5,0.1,2c0.7,2.6,1.1-0.5,1-1.8V301.4z"/>
					<path class="st3" d="M295.5,298.1c0.2-0.7-0.3-1.4-0.9-0.6c-0.3,0.4,0,1.2,0.1,1.7c0.6,2.1,0.9-0.4,0.8-1.4V298.1z"/>
				</g>
			</g>
			<g>
				<g>
					<path class="st3" d="M262.8,211.6c0,0.6-2.9,1.1-6.5,1.1s-6.5-0.5-6.5-1.1s2.9-1.1,6.5-1.1S262.8,211,262.8,211.6z"/>
					<path class="st3" d="M263.3,215.4c0,0.6-3.2,1.1-7.1,1.1s-7.1-0.5-7.1-1.1s3.2-1.1,7.1-1.1
						C260.1,214.3,263.3,214.8,263.3,215.4z"/>
					<path class="st3" d="M263.6,220.6c0,0.6-3.2,1.1-7.1,1.1s-7.1-0.5-7.1-1.1s3.2-1.1,7.1-1.1C260.4,219.5,263.6,220,263.6,220.6z
						"/>
					<path class="st3" d="M263.1,226.3c0,0.6-3.2,1.1-7.1,1.1s-7.1-0.5-7.1-1.1s3.2-1.1,7.1-1.1
						C259.9,225.2,263.1,225.7,263.1,226.3z"/>
					<path class="st3" d="M264.2,231.6c0,0.9-3.6,1.6-8.1,1.6s-8.1-0.7-8.1-1.6c0-0.9,3.6-1.6,8.1-1.6
						C260.5,230,264.2,230.7,264.2,231.6z"/>
					<path class="st3" d="M264.2,236.1c0,0.9-3.6,1.6-8.1,1.6s-8.1-0.7-8.1-1.6c0-0.9,3.6-1.6,8.1-1.6
						C260.6,234.6,264.2,235.3,264.2,236.1z"/>
					<path class="st3" d="M264.2,241.1c0,0.9-3.6,1.6-8.1,1.6s-8.1-0.7-8.1-1.6c0-0.9,3.6-1.6,8.1-1.6
						C260.5,239.6,264.2,240.3,264.2,241.1z"/>
					<path class="st0" d="M259.4,246.4c0,0.6-1.7,1.1-3.9,1.1c-2.1,0-3.9-0.5-3.9-1.1s1.7-1.1,3.9-1.1
						C257.7,245.2,259.4,245.7,259.4,246.4z"/>
					<polygon class="st0" points="259.9,244.5 252.2,244.8 253,197 259.2,197 					"/>
					<path class="st4" d="M252.6,197.9c0.8,1.1,5.5,0.3,7,0.3c1-5.2-6.6-3.2-7.1-0.1L252.6,197.9z"/>
					<path class="st4" d="M252.9,200.2c0.1,0.7-0.5,2.1-0.2,2.5c0.4,0.5,2,0.3,2.7,0.3c1.2-0.1,5.1,0.4,4.7-1
						c-1.6-0.4-0.1-1.6-0.3-2.3c-0.3-1.1-1.6-0.9-2.6-0.9C256.4,198.6,251.4,198.2,252.9,200.2L252.9,200.2z"/>
					<path class="st4" d="M252.6,205.4c0.1,0.7-0.6,2-0.2,2.5c0.4,0.5,2.2,0.3,2.9,0.3c1.3-0.1,5.6,0.4,5.2-1
						c-1.7-0.4-0.1-1.6-0.3-2.3c-0.3-1.1-1.7-0.9-2.8-0.9C256.4,203.8,251,203.3,252.6,205.4L252.6,205.4z"/>
					<path class="st4" d="M252.4,211.1c0.1,0.7-0.6,2.1-0.2,2.5c0.4,0.5,2.2,0.3,2.9,0.3c1.3-0.1,5.6,0.4,5.2-1
						c-1.7-0.4-0.1-1.6-0.3-2.3c-0.3-1.1-1.7-0.9-2.8-0.9C256.1,209.5,250.7,209,252.4,211.1L252.4,211.1z"/>
					<path class="st4" d="M252.5,216.8c0.1,0.8-0.6,2.2-0.2,2.7c0.4,0.6,2.2,0.3,2.9,0.3c1.3-0.1,5.6,0.5,5.2-1.1
						c-1.7-0.4-0.1-1.7-0.3-2.5c-0.3-1.2-1.7-0.9-2.8-1C256.3,215.1,250.8,214.6,252.5,216.8L252.5,216.8z"/>
					<path class="st4" d="M252.1,222.9c0.1,0.9-0.6,2.5-0.2,3.1c0.5,0.7,2.4,0.4,3.2,0.3c1.4-0.1,6.1,0.5,5.6-1.3
						c-1.9-0.4-0.1-2-0.3-2.9c-0.4-1.4-1.9-1.1-3.1-1.2C256.2,220.9,250.3,220.3,252.1,222.9L252.1,222.9z"/>
					<path class="st4" d="M251.9,228.9c0.1,0.9-0.7,2.5-0.2,3.1c0.5,0.7,2.5,0.4,3.2,0.3c1.4-0.1,6.2,0.5,5.7-1.3
						c-1-0.4-0.1-2-0.3-2.9c-0.4-1.4-1.9-1.1-3.2-1.2C256.1,227,250,226.4,251.9,228.9L251.9,228.9z"/>
					<path class="st4" d="M252,235c0.1,0.9-0.6,2.5-0.2,3.1c0.5,0.7,2.5,0.4,3.2,0.3c1.4-0.1,6.2,0.5,5.7-1.3c-1-0.4-0.1-2-0.3-2.9
						c-0.4-1.4-1.9-1.1-3.2-1.2C256.2,233.1,250.1,232.5,252,235L252,235z"/>
					<path class="st4" d="M251.8,240.3c0.1,0.6-0.7,1.9-0.2,2.3c0.5,0.5,2.5,0.3,3.2,0.2c1.4-0.1,6.2,0.4,5.7-1
						c-1-0.3-0.1-1.4-0.3-2.1c-0.4-1-1.9-0.8-3.2-0.8C256,238.9,249.9,238.4,251.8,240.3L251.8,240.3z"/>
					<path class="st4" d="M251.6,244.2c0.1,0.5-0.7,1.6-0.2,1.9c0.5,0.4,2.5,0.2,3.2,0.2c1.4,0,6.2,0.3,5.7-0.8
						c-0.8-0.4-0.1-1.2-0.3-1.8c-0.4-0.9-1.9-0.7-3.2-0.7C255.8,243,249.8,242.7,251.6,244.2L251.6,244.2z"/>
				</g>
				<path class="st4" d="M259.4,204.9c0,0,6.1,0.7,9.7,4.4l0.4,2c0,0-4.7-3.9-9.8-3.5L259.4,204.9z"/>
				<path class="st4" d="M259.5,199.4c0,0,17.6,1,19.5,16l-0.9,0.7c0,0-1.7-13.1-18.6-13.6V199.4z"/>
				<path class="st4" d="M259,193.8c0,0,13.1,1.5,21.2,9.3l-3.3,0.9c0,0-11-7.3-19.5-8.4L259,193.8z"/>
				<path class="st4" d="M258.8,169.6c0.3,0,13.5-2.6,19.6,5.3l-1.2,1.1c0,0-4.6-6.7-18.8-4.5L258.8,169.6z"/>
				<path class="st4" d="M258.8,174c0.4,0,15.5-3.2,22.5,6.5l-1.1,1.1c0,0-5.5-8-21.8-5.3L258.8,174z"/>
				<path class="st4" d="M257.2,178.8c0.4,0,16.5-3.5,24.5,8.5l-0.5,2.6c0,0-8.3-12.6-24.5-8.7L257.2,178.8z"/>
				<path class="st4" d="M256,184.7c0.4,0,18-3.4,26.7,8.7l-0.6,2.6c0,0-9-12.7-26.6-9L256,184.7z"/>
				<path class="st4" d="M255.3,189.7c0.4,0,18-3.4,26.7,8.7l-0.6,2.6c0,0-9-12.7-26.6-9L255.3,189.7z"/>
				<path class="st4" d="M276.7,168.2c0,0-5.4-5.1-16.6-3.7l0.5,1.7c0,0,7.1-2.3,16.4,4.1L276.7,168.2z"/>
				<path class="st4" d="M259.3,158.7c0,0,8.7-2.5,14.9,4l-3.2,0.4c0,0-3-5.6-12.2-2.1l-0.8-1.7L259.3,158.7z"/>
				<path class="st3" d="M258.8,194.6c0,0,13.5,14.2,19.5,7c0,0,4.4-3.6,3.9-9.1l0.7-2c0,0,3.4,12.5-6.3,16c0,0-11,1.3-19.5-10.5
					L258.8,194.6z"/>
				<path class="st3" d="M259.6,191.8c0,0,13.4,9.2,20.3,0.1c0,0,2.4-4.1,1.1-7.8l1.1-1.7c0,0,3.8,9.7-3.2,14.8c0,0-3.1,3-8,1.6
					c0,0-10.4-2.3-12.3-5.2L259.6,191.8z"/>
				<path class="st3" d="M259.8,186.3c0,0,10.2,6.2,17.1-0.4c0,0,5.4-4.7,1.2-9.5l1.4-1.2c0,0,4.5,5.7,1.7,10.4
					c0,0-4.9,7.1-12.1,6.7c0,0-7.9-1-9.5-3.6L259.8,186.3z"/>
				<path class="st3" d="M277,170.6c0,0,4.6,4.8-8.3,11.2c0,0-4.3,0.9-9.7,0.3l0.3,2.3c0,0,7.7,1.5,11.1,0c0,0,14.7-6.5,7.5-15.1
					L277,170.6z"/>
				<path class="st3" d="M259,176.8c0,0,4.5,0.8,9-2.2c0,0,11.5-5.8,6.2-9.4l0.3-1.2c0,0,5.5,3.3,2.8,6.9c0,0-4.3,4.7-11.1,7.4
					c0,0-5.3,1.5-7.3,0.6l-0.6-1.4L259,176.8z"/>
				<path class="st3" d="M258.4,171.5c0,0,11-2,12.7-8.9l3.1-0.1c0,0,1.2,2.3-0.7,3.8c0,0-6.4,6.3-14.8,8.2l-1.6-1.9L258.4,171.5z"
					/>
				<path class="st3" d="M259.4,156.3c0,0,8.2-2.3,9.4,5.4c0,0,0.9,3.2-7.3,6.4l-0.6-1.2c0,0,7.2-2,6.7-5.6c0,0-1.2-5.9-8.2-2.6
					l-0.7-2L259.4,156.3z"/>
				<path class="st3" d="M283.1,197.5c0,0,0.7,7-5.8,12.9c0,0-3.4,3.7-9.6-2.2c0,0-3.1-2.1-5.1-7.7l3,1.6c0,0,9.2,18,16.9-3.1
					L283.1,197.5z"/>
				<path class="st3" d="M270.4,209.9c0,0,6.8,11,11.8-7.3l0.7-2.8c0,0,1.1,7.5-4.7,13.9c0,0-6.3,6.1-13.1-8.6L270.4,209.9z"/>
				<path class="st3" d="M282.1,207.1c0,0-4.1,15-10.6,6l-1.7-1.1c0,0,4.6,11.1,9.7,3.6C279.5,215.7,282.4,212.3,282.1,207.1z"/>
				<path class="st4" d="M253.3,204.7c0,0-6.1,0.7-9.7,4.4l-0.4,2c0,0,4.7-3.9,9.8-3.5L253.3,204.7z"/>
				<path class="st4" d="M253.2,199.2c0,0-17.6,1-19.5,16l0.9,0.7c0,0,1.7-13.1,18.6-13.6V199.2z"/>
				<path class="st4" d="M253.7,193.6c0,0-13.1,1.5-21.2,9.3l3.3,0.9c0,0,11-7.3,19.5-8.4L253.7,193.6z"/>
				<path class="st4" d="M253.8,169.4c-0.3,0-13.5-2.6-19.6,5.3l1.2,1.1c0,0,4.6-6.7,18.8-4.5L253.8,169.4z"/>
				<path class="st4" d="M253.9,173.8c-0.4,0-15.5-3.2-22.5,6.5l1.1,1.1c0,0,5.5-8,21.8-5.3L253.9,173.8z"/>
				<path class="st4" d="M255.4,178.6c-0.4,0-16.5-3.5-24.5,8.5l0.5,2.6c0,0,8.3-12.6,24.5-8.7L255.4,178.6z"/>
				<path class="st4" d="M256.6,184.6c-0.4,0-18-3.4-26.7,8.7l0.6,2.6c0,0,9-12.7,26.6-9L256.6,184.6z"/>
				<path class="st4" d="M257.4,189.6c-0.4,0-18-3.4-26.7,8.7l0.6,2.6c0,0,9-12.7,26.6-9L257.4,189.6z"/>
				<path class="st4" d="M235.9,168c0,0,5.4-5.1,16.6-3.7L252,166c0,0-7.1-2.3-16.4,4.1L235.9,168z"/>
				<path class="st4" d="M253.3,158.5c0,0-8.7-2.5-14.9,4l3.2,0.4c0,0,3-5.6,12.2-2.1l0.8-1.7L253.3,158.5z"/>
				<rect x="253.7" y="151.5" class="st0" width="5.2" height="8.7"/>
				<path class="st3" d="M253.8,194.4c0,0-13.5,14.2-19.5,7c0,0-4.4-3.6-3.9-9.1l-0.7-2c0,0-3.4,12.5,6.3,16c0,0,11,1.3,19.5-10.5
					L253.8,194.4z"/>
				<path class="st3" d="M253,191.6c0,0-13.4,9.2-20.3,0.1c0,0-2.4-4.1-1.1-7.8l-1.1-1.7c0,0-3.8,9.7,3.2,14.8c0,0,3.1,3,8,1.6
					c0,0,10.4-2.3,12.3-5.2L253,191.6z"/>
				<path class="st3" d="M252.9,186.1c0,0-10.2,6.2-17.1-0.4c0,0-5.4-4.7-1.2-9.5l-1.4-1.2c0,0-4.5,5.7-1.7,10.4
					c0,0,4.9,7.1,12.1,6.7c0,0,7.9-1,9.5-3.6L252.9,186.1z"/>
				<path class="st3" d="M235.6,170.4c0,0-4.6,4.8,8.3,11.2c0,0,4.3,0.9,9.7,0.3l-0.3,2.3c0,0-7.7,1.5-11.2,0c0,0-14.7-6.5-7.5-15.1
					L235.6,170.4z"/>
				<path class="st3" d="M253.6,176.6c0,0-4.5,0.8-9-2.2c0,0-11.5-5.8-6.2-9.4l-0.3-1.2c0,0-5.5,3.3-2.8,6.9c0,0,4.3,4.7,11.1,7.4
					c0,0,5.3,1.5,7.3,0.6l0.6-1.4L253.6,176.6z"/>
				<path class="st3" d="M254.2,171.3c0,0-11-2-12.7-8.9l-3.1-0.1c0,0-1.2,2.3,0.7,3.8c0,0,6.4,6.3,14.8,8.2l1.6-1.9L254.2,171.3z"
					/>
				<path class="st3" d="M253.3,156.2c0,0-8.2-2.3-9.4,5.4c0,0-0.9,3.2,7.3,6.4l0.6-1.2c0,0-7.2-2-6.7-5.6c0,0,1.2-5.9,8.2-2.6
					l0.7-2L253.3,156.2z"/>
				<path class="st3" d="M255.1,194.9c-0.3,1.2-0.3,7.2,1.8,5.5c0.8-0.6,0.8-3,0.8-3.9c-0.1-1.5-0.4-2.2-2-1.9L255.1,194.9z"/>
				<path class="st4" d="M251.6,144.1c0,0.5-0.5,0.4-0.7,0.8c-0.3,0.5,0.1,0.6,0.3,1c0.2,0.4,0.3,0.8-0.1,1.1
					c-0.3,0.2-0.9,0-0.8,0.7c0.1,0.4,0.5,0.5,0.5,1c0.1,0.6-0.2,0.6-0.6,0.9c-0.3,0.2-0.8,0.6-0.4,1c0.3,0.3,0.9,0.1,1.1,0.5
					c0.8,0.9-0.8,1.1-1.3,1.5c-1.1,0.8,0.1,1.2,0.8,1.4c0.4,0.1,0.7,0.4,1,0.6c0.4,0.2,0.8,0.1,1.3,0.1c0.9,0.1,1.9,0.1,2.8,0.1
					c1.9,0,3.6-0.4,5.5-0.5c0.8,0,2.1-0.4,1.5-1.4c-0.3-0.4-1.9-1-1.6-1.6c0.1-0.3,0.7-0.3,0.9-0.6c0.2-0.3,0.3-0.8-0.1-1.2
					c-0.2-0.3-0.9-0.3-1-0.7c-0.1-0.5,0.7-0.3,1-0.6c0.9-0.9-1.4-0.9-0.7-2c0.3-0.4,0.6-0.5,0.2-1c-0.3-0.4-0.5-0.4-0.7-0.8
					c-0.1-0.4,0.1-0.4-0.3-0.6c-0.4-0.2-1.1-0.1-1.5,0c-1,0.1-1.9,0.2-2.9,0.2c-1.5,0-2.9,0-4.3,0.3L251.6,144.1z"/>
				<rect x="253.7" y="146.8" class="st0" width="5.2" height="7"/>
				<path class="st3" d="M258.7,148.7c0.1,0.7-1.6,0.8-2.2,0.8c-0.7,0-2,0.2-2.5-0.2c-0.3-0.3-0.3-0.8-0.9-0.6
					c-0.3,0.1-0.5,0.6-0.8,0.7c-0.6,0.4-1.6,0.7-0.7,1.6c0.3,0.3,0.6,0.4,1,0.4c0.6,0.1,0.8,0.1,1.3,0.3c0.8,0.4,1.7,0.3,2.6,0.2
					c0.5,0,1,0,1.4-0.1s0.8-0.3,1.2-0.5c0.6-0.2,1.9-0.2,1.6-1.4c-0.1-0.5-0.7-0.5-1-0.8s-0.4-0.9-0.9-0.8
					C258.8,148.5,258.8,148.6,258.7,148.7L258.7,148.7z"/>
				<path class="st3" d="M258.8,152.1c0.1,0.7-1.6,0.8-2.2,0.8c-0.7,0-2,0.2-2.5-0.2c-0.3-0.3-0.3-0.8-0.9-0.6
					c-0.3,0.1-0.5,0.6-0.8,0.7c-0.6,0.4-1.6,0.7-0.7,1.6c0.3,0.3,0.6,0.4,1,0.4c0.6,0.1,0.8,0.1,1.3,0.3c0.8,0.4,1.7,0.3,2.6,0.2
					c0.5,0,1,0,1.4-0.1s0.8-0.3,1.2-0.5c0.6-0.2,1.9-0.2,1.6-1.4c-0.1-0.5-0.7-0.5-1-0.8s-0.4-0.9-0.9-0.8
					C258.9,152,258.9,152,258.8,152.1L258.8,152.1z"/>
				<path class="st3" d="M259.5,157.8c-0.7,0.2-0.6-0.3-0.6-0.8c0-0.6-0.1-0.7-0.7-0.7c-0.9-0.1-1.8,0.2-2.8,0.1
					c-0.9-0.1-1.9-0.8-1.9,0.6c0,0.5-0.1,0.7-0.3,1.1c-0.2,0.4-0.2,0.6,0.3,0.9c0.8,0.4,6.3,0.4,6-0.9c-0.1,0-0.1,0-0.2-0.1
					L259.5,157.8z"/>
				<path class="st3" d="M259.3,159.6c-1.8,0.3-3.6,0.3-5.5,0c-1.5-0.2-0.1,1,0,1.6c0.2,1,0,1.8,1.3,1.9c0.7,0.1,1.3-0.1,1.9-0.2
					c0.5-0.1,1.4,0,1.8-0.4c0.6-0.6-0.1-1,0.1-1.6C259,160.7,260.2,159.8,259.3,159.6L259.3,159.6z"/>
				<g>
					<path class="st0" d="M225.5,159.7c-1.1,0.1-0.5,1.3,0.1,1.6c0.3,0.1,1,0.1,1.3,0c0.3-0.2,0.5-0.7,0-0.8L225.5,159.7z"/>
					<path class="st0" d="M252.9,160.4c0.4-0.1,0.8,0.6,1,1.1c0.3,0.8,0.1,1.2-0.4,1.8c-1.8,1.8-1-1.4-1.1-2.3L252.9,160.4z"/>
					<path class="st3" d="M252.5,163.4c0.2-0.4,0.4-1.1,0.6-1.6c0.3-0.6,0.3-1.2-0.4-1.6c-1.2-0.6-3.2,0.5-4.4,0.5
						c-2.9,0.2-5.8,0.4-8.6-0.3c-2.5-0.6-4.7-1.3-7.3-1.5c-2.4-0.2-4.8,0.2-7.2,0.6c-0.6,2.4,6.1,1.7,7.2,1.8
						c1.5,0.1,2.8,0.7,4.3,0.9c1.4,0.1,2.9,0.2,4.4,0.2c1.1,0,2.1,0.2,3.3,0.3c1.1,0.1,2.4,0,3.5,0.2c0.9,0.2,1.7,0.6,2.5,0.9
						c0.4,0.1,2.8,0.6,2.3-0.4L252.5,163.4L252.5,163.4z"/>
				</g>
				<g>
					<path class="st0" d="M287.2,159.6c1.1,0.1,0.5,1.3-0.1,1.6c-0.3,0.1-1,0.1-1.3,0c-0.3-0.2-0.5-0.7,0-0.8L287.2,159.6z"/>
					<path class="st0" d="M259.7,160.3c-0.4-0.1-0.8,0.6-1,1.1c-0.3,0.8-0.1,1.2,0.4,1.8c1.8,1.8,1-1.4,1.1-2.3L259.7,160.3z"/>
					<path class="st3" d="M260.1,163.4c-0.2-0.4-0.4-1.1-0.6-1.6c-0.3-0.6-0.3-1.2,0.4-1.6c1.2-0.6,3.2,0.5,4.4,0.5
						c2.9,0.2,5.8,0.4,8.6-0.3c2.5-0.6,4.7-1.3,7.3-1.5c2.4-0.2,4.8,0.2,7.2,0.6c0.6,2.4-6.1,1.7-7.2,1.8c-1.5,0.1-2.8,0.7-4.3,0.9
						c-1.4,0.1-2.9,0.2-4.4,0.2c-1.1,0-2.1,0.2-3.3,0.3c-1.1,0.1-2.4,0-3.5,0.2c-0.9,0.2-1.7,0.6-2.5,0.9c-0.4,0.1-2.8,0.6-2.3-0.4
						L260.1,163.4L260.1,163.4z"/>
				</g>
				<path class="st3" d="M256.9,162.4c-1.1,0.3-2.8,0.1-3.1,1.5c-1.2,0.3-2.5-0.1-3.1,1.2c-0.5,1.2,0.1,2.7,0.8,3.5
					c0.9,0.9,1.9,1.2,2.4,2.5c0.6,1.6,0,2.1-0.5,3.5c-0.4,1.4,0.3,2.3,0.1,3.7c-0.1,0.5-0.6,1-0.6,1.6c-0.1,0.8,0.2,1.2,0.3,1.9
					c0.4,2.6-0.9,4.7-0.9,7.5c0,2.4,0.3,5.4,2.5,6.9c2.7,1.8,4-1.9,4.9-3.8c1.3-2.6,0.1-4.4,0-7.2s-0.8-4.7-0.7-7.5
					c0.1-1.8-0.8-3.6-0.5-5.3s1.8-2.5,2.6-3.9C263.2,164.7,259.8,163,256.9,162.4L256.9,162.4z"/>
				<path class="st3" d="M229.5,197.3c0,0-0.7,7,5.8,12.9c0,0,3.4,3.7,9.6-2.2c0,0,3.1-2.1,5.1-7.7l-3,1.6c0,0-9.2,18-16.9-3.1
					L229.5,197.3z"/>
				<path class="st3" d="M242.3,209.7c0,0-6.8,11-11.8-7.3l-0.7-2.8c0,0-1.1,7.5,4.7,13.9c0,0,6.3,6.1,13.1-8.6L242.3,209.7z"/>
				<path class="st3" d="M230.6,207c0,0,4.1,15,10.6,6l1.7-1.1c0,0-4.6,11.2-9.7,3.6C233.2,215.5,230.2,212.1,230.6,207z"/>
			</g>
			<g>
				<path class="st0" d="M257,275c0,0.8-0.6,1.4-1.4,1.4h-1.2c-0.8,0-1.4-0.6-1.4-1.4v-1.2c0-0.8,0.6-1.4,1.4-1.4h1.2
					c0.8,0,1.4,0.6,1.4,1.4V275z"/>
				<path class="st4" d="M245.8,272c-0.5,1.3,0.5,3.5,1.4,4.4c1.3,1.1,3.1,1.4,3.2-0.8c0.1-1-0.6-1.4,0.6-1.9c0.6-0.3,2-0.2,2.5,0.3
					c1.1,1.2,0.3,3.5-0.8,4.5c-0.9,0.8-2.4,2.3-3.6,2.4c-1.5,0.1-3.1-0.7-4.3-1.4c-2.9-1.8-3.3-6.9-3.2-10.1
					C243.2,268.8,244.7,270.9,245.8,272L245.8,272z"/>
				<path class="st4" d="M264.4,272c0.5,1.3-0.5,3.5-1.4,4.4c-1.3,1.1-3.1,1.4-3.2-0.8c-0.1-1,0.6-1.4-0.6-1.9
					c-0.6-0.3-2-0.2-2.5,0.3c-1.1,1.2-0.3,3.5,0.8,4.5c0.9,0.8,2.4,2.3,3.6,2.4c1.5,0.1,3.1-0.7,4.3-1.4c2.9-1.8,3.3-6.9,3.2-10.1
					c-1.6-0.6-3.1,1.5-4.3,2.6H264.4z"/>
				<path class="st4" d="M250.2,246.4c-1.9,0.7-2.6-0.6-3.9-1.5c-1.4-1-2.8-0.6-3.3,1.2c-0.5,1.5,1,3.2,1.2,4.7
					c0.1,0.9,0.1,1.7-0.1,2.5c-0.2,0.8-0.6,1.5-0.2,2.3c1.2,0.1,1.4,0.1,2.1,1c0.5,0.6,1.1,0.9,1.5,1.4c1,1.2,1.2,3.1,1.9,4.3
					c0.3,0.5,1,1.4,1.5,1.7c0.7,0.5,1.4,0.4,1.8,1.3c0.2,0.4,0.1,0.8,0.2,1.2c0.1,0.1,0.6,0.6,0.7,0.9c0.3,0.6,0.6,1.5,0.9,2.1
					c0.3,0.5,0.6,1.9,1.6,1.3c0.4-0.3,0.2-0.8,0.3-1.2c0.1-0.4,0.4-0.7,0.6-1.2c0.1-0.3,0.1-0.8,0.3-1.2c0.2-0.4,0.7-0.6,0.8-1.1
					c0.2-0.4,0-0.9,0.1-1.2c0.2-0.8,0.2-0.4,0.7-0.8c1.4-1.1,1.7-2,2.3-3.7c0.6-1.6,1.7-2.8,2.5-4.3c0.8-1.6,2.6-2.1,3.1-4
					c0.5-1.8,0.4-3.4-0.5-5c-0.4-0.8-1.8-3.2-3-3c-0.6,0.1-1.3,1.2-1.9,1.5c-0.8,0.5-1.8,0.7-2.7,0.7c-1.6,0.1-3,0.4-4.6,0.4
					c-1.1,0-3.3-0.7-4.2,0L250.2,246.4z"/>
				<path class="st3" d="M245.6,243.8c-1.7-0.1-3.2-3.3-5.3-3.7c-2.8-0.6-5.5-0.7-7.6,1.2c-2.1,1.8-3.7,3.3-4.2,6
					c-0.5,2.6-0.1,6,0.9,8.4c1,2.3,3.5,2.5,5.3,4.1c0.8,0.7,1.7,2,1.5,3.1c-0.3,1.5-1.7,1.5-0.2,2.8c1.8,1.5,4,1.8,5.4,4.1
					c1.8,2.9,2.7,3,6,3.6c2,0.3,4.2,1.5,6.4,1.2c0.2-4.5-2.6-1.9-5.4-3.6c-2.1-1.2-3.6-3.3-4.5-5.4c-1-2.5-1.6-5.3-0.8-8
					c0.8-2.9,1.9-4.6,1.3-7.6c-0.2-1-1.1-2.7-0.6-3.9C244.1,245,246.4,245.2,245.6,243.8L245.6,243.8z"/>
				<path class="st3" d="M264.1,243.8c1.7-0.1,3.2-3.3,5.3-3.7c2.8-0.6,5.5-0.7,7.6,1.2c2.1,1.8,3.7,3.3,4.2,6
					c0.5,2.6,0.1,6-0.9,8.4c-1,2.3-3.5,2.5-5.3,4.1c-0.8,0.7-1.7,2-1.5,3.1c0.3,1.5,1.7,1.5,0.2,2.8c-1.8,1.5-4,1.8-5.4,4.1
					c-1.8,2.9-2.7,3-6,3.6c-2,0.3-4.2,1.5-6.4,1.2c-0.2-4.5,2.6-1.9,5.4-3.6c2.1-1.2,3.6-3.3,4.5-5.4c1-2.5,1.6-5.3,0.8-8
					c-0.8-2.9-1.9-4.6-1.3-7.6c0.2-1,1.1-2.7,0.6-3.9C265.6,245,263.3,245.2,264.1,243.8L264.1,243.8z"/>
			</g>
			<path class="st0" d="M214.2,424.8c0,0,0.8,1.2,2.7,1c0,0,2.3-1.3,3.2,1.5c0,0,1.1,1.3,1.3-3.7l-3.1-2l-3-0.2L214.2,424.8z"/>
			<path class="st2" d="M224.2,356.3c-0.7,5.8-3.1,11-3.4,16.9c-0.3,5.8-0.5,11.6-1,17.4c-0.5,6-0.8,11.9-1.8,17.8
				c-0.5,3-0.5,6.1-1.1,9.2c-0.4,2-0.8,6.2-2.3,7.4c-0.4,0.3-0.9,0.4-1.3,0.1c-0.4-2.5,1.1-6.1,1.6-8.5c0.6-2.9,1-6.1,1.1-9
				s0.3-5.9,0.5-8.9c0.3-3,1.2-5.7,1.5-8.7c0.5-5.9,1.3-12.3,1.5-18.2c0.1-2.9,0.6-5.7,1.1-8.6c0.2-1.4,0.6-3.1,0.6-4.6
				c0-1.4-0.5-2.6-0.5-4c-0.1-1.7,0.8-3.6,2.4-2.9c1.3,0.6,1.4,3.3,1.1,4.8L224.2,356.3z"/>
			<path class="st0" d="M222.7,345.2c0,0,0.1,2.9,4.1,2.8c0,0,2.1,1.3,3.7,0.2c0,0,4.2,1.5,4.6-1.1L222.7,345.2z"/>
			<path class="st0" d="M234.3,271.1c0,0-0.6-3.3,2.4-3.6c0,0,4.6,1.8,5.1,6.1c0,0-0.6,1.4-2.1,0.3c-1.5-1.1-0.2-0.1-0.2-0.1
				L234.3,271.1z"/>
			<path class="st3" d="M240.3,274.4c-7.7-1.9-7.5,11.7-7.6,16.7c-0.1,7.3-1.2,14.5-0.9,21.6c0.1,3.3-0.1,6.9,0,10.3
				c0,1.7-0.3,3.5-0.1,5.2c0.2,1.4,0.9,2.7,1.3,4.1c0.8,3.1,2.4,5.6,3.4,8.5c1.1,3.2,0.4,7.8-3.7,6.7c-2.7-0.7-6.2-0.2-8.9-1.4
				c-3.5-1.6-0.8-5.8,0.3-8.1c3.2-6.8,1.6-13.3,1.9-20.9c0.1-3.7,0.2-7.5,0-11.1c-0.1-3.6-0.4-7.2,0.1-11c0.6-3.9,0.7-7.3,0.6-11.1
				c-0.1-1.6,0-3.3-0.4-4.8c-0.3-1.4-1.3-2.5-1.3-4.1c0-1.5,1-4,2.1-4.8c1.7-1.1,2.9,0.5,4.6,0.7c2,0.3,2.9-0.6,4.9,0.3
				C238.3,272,239.5,272.8,240.3,274.4L240.3,274.4z"/>
			<path class="st0" d="M232.3,343.5c-0.3,1.8-1.9,3-3.6,2.7c-1.7-0.3-3-1.9-2.7-3.7c0.3-1.8,1.9-3,3.6-2.7
				C231.3,340.1,232.5,341.7,232.3,343.5z"/>
			<path class="st3" d="M227.7,364.7c0.1-2.8,1.2-5.5,2.4-7.8c1.1-2.1,4.3-3.8,3-7s-3.9-0.3-5.8-0.7c-1.7-0.3-5.1-3.2-5.2,1
				c-0.1,2.5,1.5,4.8,1.6,7.3c0.1,2.9-0.2,6.1-0.2,8.9c-0.1,6-1.3,12-2.2,17.9c-0.5,3-0.6,5.9-1,9s-1,5.8-0.8,8.8
				c0.2,2.9-0.7,5.5-1.3,8.4c-0.6,2.8-1.3,5.4-2.2,8c-1.1,3.5-0.8,4.5,1.8,4.4c1.2-0.1,1.1-0.3,2.1,0.3c1.2,0.7,1.9,1.1,2.4-0.9
				c0.6-2.5-0.3-2.2-0.4-4.6c-0.1-2.7,0.4-7.6,0.5-10.4c0.6-12.2,1.9-24,3.9-36.1c0.5-2.9,0.8-5.6,1.7-8.3L227.7,364.7z"/>
			<path class="st0" d="M263.5,421.8c0,0-1.6,0.6-3.4-0.7c0,0-1.6-2.6-4.1-0.5c0,0-2.2,1.1,0.6-3.8l4.6-0.5l3.2,1.6L263.5,421.8z"/>
			<path class="st2" d="M270,358.4c-0.6,5.2,0.6,10.3-0.5,15.4s-2.1,10.1-2.9,15.3c-0.9,5.3-1.9,10.5-2.3,15.8
				c-0.2,2.7-0.9,5.4-1,8.2c-0.1,1.8-2.2,4.8-0.9,6.1c0.3,0.3,1.3,0.8,1.8,0.7c1-2.1,0.3-4.9,0.4-7.1c0.1-2.6,1.5-5.6,2-8.2
				s1.1-5.2,1.5-7.8c0.4-2.7,0-5.2,0.5-7.9c0.8-5.2,1.5-11,2.6-16.1c0.6-2.6,0.7-5.1,0.9-7.7c0.1-1.3,0.2-2.8,0.5-4.1
				c0.3-1.2,1-2.1,1.4-3.3c0.5-1.5,0-3.3-1.7-3c-1.4,0.3-2.2,2.6-2.2,3.9L270,358.4z"/>
			<path class="st0" d="M275.2,347.7c0,0-0.5,2.9-4.5,2.3c0,0-2.3,1-3.9-0.3c0,0-4.5,1-4.5-1.7L275.2,347.7z"/>
			<path class="st0" d="M273.6,271.4c0,0,1-3.2-2-3.9c0,0-4.9,1.2-6.1,5.5c0,0,0.5,1.5,2.1,0.6c1.7-0.9,0.2-0.1,0.2-0.1L273.6,271.4
				z"/>
			<path class="st3" d="M267,273.9c8.2-0.8,6.1,12.8,5.5,17.9c-0.9,7.4-0.8,14.8-2.1,21.9c-0.6,3.4-0.8,7-1.4,10.4
				c-0.3,1.7-0.2,3.6-0.6,5.2c-0.4,1.4-1.3,2.6-1.9,4c-1.2,3-3.3,5.3-4.7,8.1c-1.5,3.1-1.5,7.8,2.9,7.3c2.9-0.3,6.3,0.7,9.3-0.2
				c3.8-1.1,1.6-5.7,0.8-8.2c-2.3-7.3,0.2-13.6,0.9-21.3c0.4-3.8,0.9-7.6,1.5-11.2s1.4-7.2,1.4-11.1c-0.1-4,0.3-7.5,1-11.3
				c0.3-1.6,0.4-3.3,1-4.8c0.6-1.4,1.6-2.4,1.9-3.9s-0.4-4.2-1.5-5.1c-1.6-1.3-3,0.1-4.8,0.1c-2.1,0-2.9-1-5-0.4
				C269.4,271.8,268,272.4,267,273.9L267,273.9z"/>
			<path class="st0" d="M265.6,344.7c0,1.8,1.5,3.3,3.3,3.2c1.8,0,3.3-1.5,3.3-3.3s-1.5-3.3-3.3-3.2
				C267.1,341.4,265.6,342.9,265.6,344.7z"/>
			<path class="st3" d="M264.6,365c0.5-2.4,0.1-5.1-0.6-7.3c-0.7-2.1-3.4-4.3-1.4-6.7c2-2.5,4,0.6,6,0.7c1.8,0.1,5.9-1.6,5,2.1
				c-0.5,2.2-2.6,3.8-3.3,5.9c-0.8,2.5-1.2,5.3-1.8,7.7c-1.3,5.2-1.5,10.7-1.9,16c-0.2,2.7-0.8,5.3-1.1,8c-0.3,2.7-0.3,5.3-1.2,7.8
				c-0.8,2.4-0.5,5-0.6,7.6s0.1,5,0.4,7.4c0.3,3.3-1.1,4.2-3.7,3.4c-1.2-0.3-1.3-0.1-2.5,0.2c-1.4,0.3-1.7,0.2-1.8-1.6
				c0-2.3,2.7-2.5,2.7-5.4c0-2.4,0.8-5.4,1.3-7.8c2.2-10.7,3.6-21.2,4.3-32.2c0.2-2.7,0.5-5,0.1-7.6L264.6,365z"/>
			<g>
				<path class="st0" d="M254.1,120.8c0,3-2.4,5.4-5.5,5.4c-3,0-5.5-2.4-5.5-5.4s2.4-5.4,5.5-5.4
					C251.6,115.4,254.1,117.8,254.1,120.8z"/>
				<path class="st0" d="M268.4,121.3c0,3-2.4,5.4-5.5,5.4c-3,0-5.5-2.4-5.5-5.4s2.4-5.4,5.5-5.4C265.9,116,268.4,118.4,268.4,121.3
					z"/>
				<path class="st0" d="M262,124.7c0,3-2.4,5.4-5.5,5.4c-3,0-5.5-2.4-5.5-5.4s2.4-5.4,5.5-5.4C259.5,119.3,262,121.8,262,124.7z"/>
				<g>
					<path class="st5" d="M257,137.6c0,0.2-0.2,0.4-0.5,0.4l0,0c-0.3,0-0.6-0.2-0.6-0.4v-2c0-0.2,0.2-0.4,0.6-0.4l0,0
						c0.3,0,0.5,0.2,0.5,0.4V137.6z"/>
					<path class="st5" d="M258.1,137.6c0,0.2-0.2,0.4-0.6,0.4l0,0c-0.3,0-0.5-0.2-0.5-0.4v-2c0-0.2,0.2-0.4,0.5-0.4l0,0
						c0.3,0,0.6,0.2,0.6,0.4V137.6z"/>
					<path class="st5" d="M259.1,137.5c0,0.2-0.2,0.4-0.5,0.4l0,0c-0.3,0-0.6-0.2-0.6-0.4v-2c0-0.2,0.2-0.4,0.6-0.4l0,0
						c0.3,0,0.5,0.2,0.5,0.4V137.5z"/>
					<path class="st5" d="M260.2,137.4c0,0.2-0.2,0.4-0.5,0.4l0,0c-0.3,0-0.6-0.2-0.6-0.4v-2c0-0.2,0.2-0.4,0.6-0.4l0,0
						c0.3,0,0.5,0.2,0.5,0.4V137.4z"/>
					<path class="st5" d="M261.1,137.3c0,0.2-0.2,0.4-0.5,0.4l0,0c-0.3,0-0.6-0.2-0.6-0.4v-2c0-0.2,0.2-0.4,0.6-0.4l0,0
						c0.3,0,0.5,0.2,0.5,0.4V137.3z"/>
					<path class="st5" d="M261.7,137.1c0,0.2-0.2,0.4-0.6,0.4l0,0c-0.3,0-0.5-0.2-0.5-0.4v-2c0-0.2,0.2-0.4,0.5-0.4l0,0
						c0.3,0,0.6,0.2,0.6,0.4V137.1z"/>
					<path class="st5" d="M254.9,137.5c0,0.2,0.2,0.4,0.5,0.4l0,0c0.3,0,0.5-0.2,0.5-0.4v-2c0-0.2-0.2-0.4-0.5-0.4l0,0
						c-0.3,0-0.5,0.2-0.5,0.4V137.5z"/>
					<path class="st5" d="M253.8,137.5c0,0.2,0.2,0.4,0.5,0.4l0,0c0.3,0,0.6-0.2,0.6-0.4v-2c0-0.2-0.2-0.4-0.6-0.4l0,0
						c-0.3,0-0.5,0.2-0.5,0.4V137.5z"/>
					<path class="st5" d="M252.8,137.4c0,0.2,0.2,0.4,0.5,0.4l0,0c0.3,0,0.5-0.2,0.5-0.4v-2c0-0.2-0.2-0.4-0.5-0.4l0,0
						c-0.3,0-0.5,0.2-0.5,0.4V137.4z"/>
					<path class="st5" d="M251.8,137.3c0,0.2,0.2,0.4,0.5,0.4l0,0c0.3,0,0.5-0.2,0.5-0.4v-2c0-0.2-0.2-0.4-0.5-0.4l0,0
						c-0.3,0-0.5,0.2-0.5,0.4V137.3z"/>
					<path class="st5" d="M250.8,137.2c0,0.2,0.2,0.4,0.5,0.4l0,0c0.3,0,0.5-0.2,0.5-0.4v-2c0-0.2-0.2-0.4-0.5-0.4l0,0
						c-0.3,0-0.5,0.2-0.5,0.4V137.2z"/>
					<path class="st5" d="M250.2,137c0,0.2,0.2,0.4,0.6,0.4l0,0c0.3,0,0.5-0.2,0.5-0.4v-2c0-0.2-0.2-0.4-0.5-0.4l0,0
						c-0.3,0-0.6,0.2-0.6,0.4V137z"/>
					<path class="st6" d="M256.1,136.8c0,0.6,0,1.1-0.1,1.1c0,0-0.1-0.5-0.1-1.1s0-1.1,0.1-1.1C256,135.7,256.1,136.2,256.1,136.8z"
						/>
					<path class="st6" d="M254.7,136.9c0,0.6,0,1.1-0.1,1.1c0,0-0.1-0.5-0.1-1.1c0-0.6,0-1.1,0.1-1.1S254.7,136.3,254.7,136.9z"/>
					<path class="st6" d="M253.6,136.9c0,0.6,0,1.1-0.1,1.1c0,0-0.1-0.5-0.1-1.1c0-0.6,0-1.1,0.1-1.1
						C253.6,135.7,253.6,136.2,253.6,136.9z"/>
					<path class="st6" d="M252.6,136.7c0,0.6,0,1.1-0.1,1.1c0,0-0.1-0.5-0.1-1.1s0-1.1,0.1-1.1C252.5,135.6,252.6,136.1,252.6,136.7
						z"/>
					<path class="st6" d="M251.5,136.6c0,0.6,0,1.1-0.1,1.1c0,0-0.1-0.5-0.1-1.1c0-0.6,0-1.1,0.1-1.1S251.5,136,251.5,136.6z"/>
					<path class="st6" d="M257.1,136.8c0,0.6,0,1.1-0.1,1.1c0,0-0.1-0.5-0.1-1.1s0-1.1,0.1-1.1C257.1,135.7,257.1,136.2,257.1,136.8
						z"/>
					<path class="st6" d="M258.1,136.8c0,0.6,0,1.1-0.1,1.1c0,0-0.1-0.5-0.1-1.1s0-1.1,0.1-1.1C258.1,135.7,258.1,136.2,258.1,136.8
						z"/>
					<path class="st6" d="M259,136.8c0,0.6,0,1.1-0.1,1.1c0,0-0.1-0.5-0.1-1.1s0-1.1,0.1-1.1C259,135.7,259,136.2,259,136.8z"/>
					<path class="st6" d="M260,136.8c0,0.6,0,1.1-0.1,1.1c0,0-0.1-0.5-0.1-1.1s0-1.1,0.1-1.1C260,135.7,260,136.2,260,136.8z"/>
					<path class="st6" d="M261.1,136.7c0,0.6,0,1.1-0.1,1.1c0,0-0.1-0.5-0.1-1.1s0-1.1,0.1-1.1C261,135.6,261.1,136.1,261.1,136.7z"
						/>
					<g>
						<path class="st0" d="M243.8,127.7c-0.1,0.6,0.2,0.9,0.4,1.4s0.1,0.9,0.4,1.4c0.5,1,1.5,1.1,2.5,1.3c0.5,0.1,1,0.1,1.6,0.3
							c0.3,0.1,1.1,0.5,1.4,0.4c0.9-0.3,0-2.3-0.3-2.8c-0.5-0.9-1.8-1.1-2.7-1.3C246.2,128.2,244.6,127.5,243.8,127.7L243.8,127.7z"
							/>
						<g>
							<path class="st0" d="M268,127.7c0.1,0.6-0.2,0.9-0.4,1.4c-0.2,0.5-0.1,0.9-0.4,1.4c-0.5,1-1.5,1.1-2.5,1.3
								c-0.5,0.1-1,0.1-1.5,0.3c-0.3,0.1-1.1,0.5-1.4,0.4c-0.9-0.3,0-2.3,0.3-2.8c0.5-0.9,1.8-1.1,2.7-1.3
								C265.5,128.2,267.2,127.5,268,127.7L268,127.7z"/>
							<path class="st3" d="M264.4,128.6c0,2.4-1.6,6.2-3.2,8c-1,1.1-2.9,0.8-4.3,0.8c-0.1,0-0.3,0-0.4,0c-1.8,0-5.2,0.1-6.1-0.8
								c-1.6-1.8-3.2-5.5-3.2-8l-2.9-0.9c0.2,1.7,1.4,3.1,1.6,4.9c0.2,1.7,0,3.3,0.2,5c0.1,1.3,2.2,2.5,3.1,3.4
								c0.8,0.9,2.2,2.2,3.3,2.7c0.9,0.4,2.3,0.5,3.3,0.1c1,0.4,2.4,0.3,3.3-0.1c1.1-0.5,2.5-1.8,3.3-2.7c0.9-0.9,2.9-2.1,3.1-3.4
								c0.2-1.7,0-3.3,0.2-5c0.3-1.7,1.4-3.1,1.6-4.9L264.4,128.6z"/>
							<path class="st0" d="M264.9,130.5c-0.4,1.9-1,3.9-2,5.6c-0.2,0.4-1.7,2.4-1.6,1.1c0.1-0.7,1.2-1.6,1.5-2.3
								c0.4-0.7,0.9-1.3,1.2-2c0.3-0.6,0.4-1.4,0.7-2.1L264.9,130.5z"/>
						</g>
					</g>
					<g>
						<path class="st0" d="M246.9,130.5c0.4,1.9,1,3.9,2,5.6c0.2,0.4,1.7,2.4,1.6,1.1c-0.1-0.7-1.2-1.6-1.5-2.3
							c-0.4-0.7-0.9-1.3-1.2-2c-0.3-0.6-0.4-1.4-0.7-2.1L246.9,130.5z"/>
					</g>
					<path class="st3" d="M269.2,123.5c-0.1-0.8,0.1-1.7,0.3-2.5c0.7-3.4,1-6,0-9.4c-1.6-5.3-8.2-9.1-13.5-8.8
						c-5.3-0.3-11.9,3.5-13.5,8.8c-1,3.4-0.7,6,0,9.4c0.2,0.8,0.4,1.6,0.3,2.5c-0.1,0.8-0.4,1.3-0.5,2.1c-0.3,2,1.2,2.5,2.7,2.8
						c1.5,0.3,3.9,0.9,4.6,2.7c0.3,1-0.5,2,0.7,2.3c0.9,0.2,1.8-0.8,2.6,0.1c0.4-0.3,0.8-0.4,1.2,0c0.6-0.6,1.3-0.3,1.9,0.1
						c0,0,0,0,0,0.1c0.6-0.3,1.4-0.7,2-0.1c0.3-0.4,0.8-0.4,1.2,0c0.7-0.9,1.7,0.1,2.6-0.1c1.2-0.2,0.4-1.3,0.7-2.3
						c0.6-1.8,3-2.4,4.6-2.7c1.5-0.3,3-0.8,2.7-2.8C269.6,124.9,269.2,124.3,269.2,123.5z M252.3,122.6c-0.5,0.4-1.1,0.6-1.7,0.8
						c-1.1,0.4-2.3,1.1-3.4,1.4c-2,0.4-2.3-1.8-2.4-3.3c-0.1-0.7-0.2-1.8,0.1-2.4s1.1-0.9,1.7-1.1c0.7-0.2,1.4-0.3,2.1-0.5
						c0.7-0.2,1.6-0.4,2.4-0.2c0.7,0.2,1.3,0.8,1.7,1.4c0.5,0.7-0.1,1.7,0.2,2.4l0,0C253.1,121.5,252.7,122.3,252.3,122.6z
						 M258.1,128.2c-1.2,0.8-1.3-1.2-2.2-0.7c-0.3,0.2-0.3,0.7-0.7,0.8c-0.4,0.2-0.8,0-1.1-0.3c-0.7-0.6-0.7-1.6-0.5-2.4
						c0.2-0.9,1.1-3.9,2.1-4.1c0.2,0.1,0.2,0.2,0.3,0.3l0,0c-0.1,0.7,0.5-0.2,0.7-0.1c0.5,0,0.7,0.6,0.9,1c0.5,1,0.8,1.8,1,2.8
						C258.8,126.3,258.9,127.7,258.1,128.2z M267.3,121.5c-0.1,1.5-0.4,3.7-2.4,3.3c-1.2-0.2-2.3-1-3.4-1.4
						c-0.5-0.2-1.2-0.4-1.7-0.8c-0.4-0.3-0.8-1.1-0.6-1.5l0,0c0.3-0.7-0.3-1.7,0.2-2.4c0.4-0.6,1-1.2,1.7-1.4c0.8-0.2,1.7,0,2.4,0.2
						c0.7,0.2,1.4,0.2,2.1,0.5c0.6,0.2,1.4,0.5,1.7,1.1C267.5,119.7,267.3,120.8,267.3,121.5z"/>
					<path class="st3" d="M256,135.2c0,0.3-0.2,0.5-0.4,0.5h-1c-0.2,0-0.4-0.2-0.4-0.5v-1.7c0-0.3,0.2-0.5,0.4-0.5h1
						c0.2,0,0.4,0.2,0.4,0.5V135.2z"/>
					<path class="st3" d="M254.7,135.1c0,0.3-0.2,0.5-0.4,0.5h-1c-0.2,0-0.4-0.2-0.4-0.5v-1.7c0-0.3,0.2-0.5,0.4-0.5h1
						c0.2,0,0.4,0.2,0.4,0.5V135.1z"/>
					<path class="st3" d="M253.1,134.9c0,0.2-0.2,0.4-0.4,0.4h-1c-0.2,0-0.4-0.2-0.4-0.4v-1.6c0-0.2,0.2-0.4,0.4-0.4h1
						c0.2,0,0.4,0.2,0.4,0.4V134.9z"/>
					<path class="st3" d="M252.4,134.9c0,0.2-0.2,0.4-0.4,0.4h-1c-0.2,0-0.4-0.2-0.4-0.4v-1.6c0-0.2,0.2-0.4,0.4-0.4h1
						c0.2,0,0.4,0.2,0.4,0.4V134.9z"/>
					<path class="st3" d="M251.8,134.8c0,0.2-0.2,0.4-0.4,0.4h-1c-0.2,0-0.4-0.2-0.4-0.4v-1.6c0-0.2,0.2-0.4,0.4-0.4h1
						c0.2,0,0.4,0.2,0.4,0.4V134.8z"/>
					<path class="st7" d="M242.8,123.8c1.1-0.8,0.3-3.5,0.7-4.8c0.2-0.7,0.8-1.2,1.1-1.8c0.4-0.9-0.2-1.3-0.6-2
						c-0.2-0.4-0.3-0.7-0.3-1.2c0-0.3,0-0.9-0.4-1c-0.6-0.3-1,1.2-1.1,1.6c-0.2,0.8,0,1.7,0,2.5c0,0.9,0,1.7,0.1,2.6
						C242.4,121,243.2,122.5,242.8,123.8L242.8,123.8z"/>
					<path class="st7" d="M246.1,128.5c1.5,0,2.8-0.1,4.1,0.4c0.6,0.2,1.1,0.6,1.3,1.2c0.3,0.7,0.1,1.2,0.1,2c0.3,0.2,0.4,0,0.6,0
						c0.1,0,0.2-0.1,0.3-0.1s0.3,0.2,0.3,0.2c0.3,0,0.3-0.2,0.6-0.2c0.4-0.1,0.3,0.1,0.6,0.2c0.5,0.1,0.9-0.4,1.3,0
						c0.3,0.2,0.5,1,0.6,1.4c-0.6-0.3-1-0.6-1.7-0.4c-0.4,0.2-0.2,0.2-0.7,0.1c-0.3-0.1-0.6-0.1-0.8,0.1c-0.6-0.7-1.2-0.2-1.8,0
						c-0.8,0.3-1.5-0.1-1.4-0.9c0.1-0.9,0.2-1.3-0.3-2c-0.4-0.6-0.9-0.9-1.6-1.3C247.2,128.9,246.5,128.8,246.1,128.5L246.1,128.5z"
						/>
					<path class="st3" d="M256,135.2c0,0.3,0.2,0.5,0.4,0.5h1c0.2,0,0.4-0.2,0.4-0.5v-1.7c0-0.3-0.2-0.5-0.4-0.5h-1
						c-0.2,0-0.4,0.2-0.4,0.5V135.2z"/>
					<path class="st3" d="M257.3,135.1c0,0.3,0.2,0.5,0.4,0.5h1c0.2,0,0.4-0.2,0.4-0.5v-1.7c0-0.3-0.2-0.5-0.4-0.5h-1
						c-0.2,0-0.4,0.2-0.4,0.5V135.1z"/>
					<path class="st3" d="M258.9,134.9c0,0.2,0.2,0.4,0.4,0.4h1c0.2,0,0.4-0.2,0.4-0.4v-1.6c0-0.2-0.2-0.4-0.4-0.4h-1
						c-0.2,0-0.4,0.2-0.4,0.4V134.9z"/>
					<path class="st3" d="M259.6,134.9c0,0.2,0.2,0.4,0.4,0.4h1c0.2,0,0.4-0.2,0.4-0.4v-1.6c0-0.2-0.2-0.4-0.4-0.4h-1
						c-0.2,0-0.4,0.2-0.4,0.4V134.9z"/>
					<path class="st3" d="M260.2,134.8c0,0.2,0.2,0.4,0.4,0.4h1c0.2,0,0.4-0.2,0.4-0.4v-1.6c0-0.2-0.2-0.4-0.4-0.4h-1
						c-0.2,0-0.4,0.2-0.4,0.4V134.8z"/>
					<path class="st7" d="M269.2,123.8c-1.1-0.8-0.3-3.5-0.7-4.8c-0.2-0.7-0.8-1.2-1.1-1.8c-0.4-0.9,0.2-1.3,0.6-2
						c0.2-0.4,0.3-0.7,0.3-1.2c0-0.3,0-0.9,0.4-1c0.6-0.3,1,1.2,1.1,1.6c0.2,0.8,0,1.7,0,2.5c0,0.9,0,1.7-0.1,2.6
						C269.6,121,268.8,122.5,269.2,123.8L269.2,123.8z"/>
					<path class="st7" d="M265.9,128.5c-1.5,0-2.8-0.1-4.1,0.4c-0.6,0.2-1.1,0.6-1.3,1.2c-0.3,0.7-0.1,1.2-0.1,2
						c-0.3,0.2-0.4,0-0.6,0c-0.1,0-0.2-0.1-0.3-0.1c-0.1,0-0.3,0.2-0.3,0.2c-0.3,0-0.3-0.2-0.6-0.2c-0.4-0.1-0.3,0.1-0.6,0.2
						c-0.5,0.1-0.9-0.4-1.3,0c-0.3,0.2-0.9,1.1-0.6,1.4c0.6-0.3,1.1-0.6,1.7-0.4c0.4,0.2,0.2,0.2,0.7,0.1c0.3-0.1,0.6-0.1,0.8,0.1
						c0.6-0.7,1.2-0.2,1.8,0c0.8,0.3,1.5-0.1,1.4-0.9c-0.1-0.9-0.2-1.3,0.3-2c0.4-0.6,0.9-0.9,1.6-1.3
						C264.8,128.9,265.5,128.8,265.9,128.5L265.9,128.5z"/>
				</g>
				<path class="st8" d="M256,134.3c0,0.5,0,0.9,0,0.9C255.9,135.2,255.9,134.8,256,134.3c-0.1-0.5-0.1-0.9,0-0.9
					C256,133.5,256,133.8,256,134.3z"/>
				<path class="st8" d="M258.1,134c0,0.5,0,0.9,0,0.9C258,134.9,258,134.5,258.1,134c-0.1-0.5-0.1-0.9,0-0.9
					C258.1,133.2,258.1,133.5,258.1,134z"/>
				<path class="st8" d="M259.2,134c0,0.5,0,0.9,0,0.9S259.1,134.5,259.2,134c-0.1-0.5-0.1-0.9,0-0.9
					C259.2,133.1,259.2,133.5,259.2,134z"/>
				<path class="st8" d="M260.4,133.8c0,0.5,0,0.9,0,0.9C260.3,134.7,260.3,134.3,260.4,133.8c-0.1-0.5-0.1-0.9,0-0.9
					C260.4,132.9,260.4,133.3,260.4,133.8z"/>
				<path class="st8" d="M261.2,133.9c0,0.5,0,0.9,0,0.9S261.2,134.4,261.2,133.9c-0.1-0.5-0.1-0.9,0-0.9
					C261.2,133,261.2,133.4,261.2,133.9z"/>
				<path class="st8" d="M254,134c0,0.5,0,0.9,0,0.9S254,134.5,254,134c-0.1-0.5-0.1-0.9,0-0.9C254,133.1,254,133.5,254,134z"/>
				<path class="st8" d="M252.9,133.9c0,0.5,0,0.9,0,0.9C252.8,134.8,252.8,134.4,252.9,133.9c-0.1-0.5-0.1-0.9,0-0.9
					C252.9,133.1,252.9,133.4,252.9,133.9z"/>
				<path class="st8" d="M251.5,133.7c0,0.5,0,0.9,0,0.9C251.4,134.6,251.4,134.2,251.5,133.7c-0.1-0.5-0.1-0.9,0-0.9
					C251.5,132.9,251.5,133.3,251.5,133.7z"/>
				<path class="st8" d="M250.5,133.8c0,0.5,0,0.9,0,0.9C250.4,134.7,250.4,134.3,250.5,133.8c-0.1-0.5-0.1-0.9,0-0.9
					C250.4,133,250.5,133.3,250.5,133.8z"/>
			</g>
		</g>
		<g>
			<path class="st0" d="M216.2,443.1c-0.3,0.8-1.2,1.3-2.1,1c-0.9-0.3-1.4-1.2-1.1-2.1c0.3-0.8,1.2-1.3,2.1-1
				S216.5,442.2,216.2,443.1z"/>
			<path class="st0" d="M212,441.9c-0.2,0.5-0.6,0.7-1.1,0.6c-0.4-0.1-0.7-0.6-0.5-1.1s0.6-0.7,1.1-0.6
				C211.9,440.9,212.1,441.4,212,441.9z"/>
			<path class="st0" d="M210.2,446.5c-0.1,0.4-0.5,0.6-0.8,0.5s-0.5-0.5-0.4-0.9s0.5-0.6,0.8-0.5
				C210.2,445.7,210.3,446.1,210.2,446.5z"/>
			<path class="st0" d="M207.4,445.1c-0.1,0.4-0.5,0.6-0.8,0.5s-0.5-0.5-0.4-0.9s0.5-0.6,0.8-0.5
				C207.4,444.4,207.5,444.7,207.4,445.1z"/>
			<path class="st0" d="M205.5,443.8c-0.1,0.3-0.4,0.5-0.7,0.4s-0.4-0.4-0.3-0.7c0.1-0.3,0.4-0.5,0.7-0.4
				C205.5,443.2,205.6,443.5,205.5,443.8z"/>
			<path class="st0" d="M204,442c-0.1,0.3-0.4,0.5-0.7,0.4s-0.4-0.4-0.3-0.7c0.1-0.3,0.4-0.5,0.7-0.4S204.1,441.7,204,442z"/>
			<path class="st0" d="M209.6,441c-0.2,0.5-0.6,0.7-1.1,0.6c-0.4-0.1-0.7-0.6-0.5-1.1s0.6-0.7,1.1-0.6S209.8,440.5,209.6,441z"/>
			<path class="st0" d="M207.7,440.2c-0.2,0.5-0.6,0.7-1.1,0.6c-0.4-0.1-0.7-0.6-0.5-1.1s0.6-0.7,1.1-0.6S207.9,439.7,207.7,440.2z"
				/>
			<path class="st0" d="M206.3,438.5c-0.2,0.5-0.6,0.7-1.1,0.6c-0.4-0.1-0.7-0.6-0.5-1.1s0.6-0.7,1.1-0.6
				C206.2,437.6,206.4,438.1,206.3,438.5z"/>
			<path class="st0" d="M211.4,427.6c0,0-0.4,0.5-0.1,0.8l-1.6,2.2c0,0-0.8,0.6-0.7,1.2l0.9,1l3.3,0.4l1.7,1.5l3.3,0.2
				c0,0,0.6-0.2,0.2-1l0.3-1c0,0,0.9-0.3,0.8-1l0.2-1.3c0,0,0.5-0.3,0.3-1l-2-2l-4.5-1L211.4,427.6z"/>
			<path class="st3" d="M213.4,424.8c-0.4,0.5-0.4,1.1-0.9,1.5c-0.5,0.5-1.1,0.4-1.3,1.2c0.7,0,2.4-0.9,2.5,0.6
				c0.5,0.2,0.9-0.2,1.4-0.3c0.7-0.1,1.4,0.2,2,0.4c0.6,0.2,1.4,0.4,1.8,0.7c0.5,0.4,0.4,0.9,1.1,1.1c0.6-1.2,0.3-1.2-0.5-2.1
				c-0.6-0.7-0.5-1.5-1.3-1.9s-1.7-0.4-2.6-0.9c-0.6-0.3-1.8-1.4-2.1-0.1L213.4,424.8z"/>
			<path class="st3" d="M214,428.9c2.5,0.8,0.7-0.3,2.9,1.6c0.5,0.5,1.9,1.6,2.5,1.8c2.3-2.3-4.2-5.6-5.2-3.6c-0.2,0-0.2,0-0.4,0.1
				L214,428.9z"/>
			<path class="st3" d="M211,431.1c-1.2-0.4-1.8-0.5-1-1.7c0.5-0.8,1-1.4,1.9-1.6c1.2-0.3,1.6,0.1,0.9,1
				C212.2,429.5,211.6,430.7,211,431.1L211,431.1z"/>
			<path class="st3" d="M213.2,428.7c-0.5,1.1-1.7,1.6-2,3c0.3,0.1,1.4,0.4,1.7,0.2c0.6-0.3,0.3-1,0.6-1.5c0.2-0.3,1.1-0.8,1.1-1.1
				c0.1-0.8-1.3-0.3-1.2-0.7L213.2,428.7z"/>
			<path class="st3" d="M215.5,430c-0.8-0.7-1.6-0.1-1.9,1c0.6,0.1,0.8,0.6,1.6,0.8c0.7,0.1,0.7-0.3,1.3-0.3
				C217.1,430.7,216,430.1,215.5,430L215.5,430z"/>
			<path class="st3" d="M217.1,431c-1.1-0.2-1,1.5-1.5,2.1c0.3,0.6,1,0.4,1.6,0.5c0.8,0.2,1,0.6,1.4-0.2
				C219.1,432.4,218.3,431.2,217.1,431L217.1,431z"/>
			<path class="st3" d="M216.8,437.4c-0.1-0.8,1.3-2,1.5-2.9c-0.6-0.5-1.8-0.7-2.6-0.8c-1,0-1.5,1-1.7,2c-0.2,0.9,0.2,1.8,0,2.7
				c-0.2,0.9-1,1.7-1.1,2.5c0.7,0.2,1.4,0,2.2,0.3c0.9,0.3,1,0.7,1.3-0.5c0.2-1.2,0-3.5,0.9-4.4L216.8,437.4z"/>
			<path class="st3" d="M214.2,448.3c0.4-1.1,0.7-2.2,1.3-3.1c0.7-1,0.9-1.7-0.5-2.2c-1.2-0.5-2.2-0.4-2.4,0.9
				c-0.2,0.9-0.5,1.7-1.1,2.9c1,0.3,2.3,0.1,2.6,1.4L214.2,448.3z"/>
			<path class="st3" d="M211.1,447.2c-0.1,0.9-0.8,2,0.2,2.5c0.6,0.3,1.9,0.1,2.4-0.4c1.6-1.5-2.3-3.5-2.7-1.9L211.1,447.2z"/>
			<path class="st3" d="M212.9,433.2c0,1.1-0.2,2.7-0.6,3.9c-0.4,1.3-1.6,2.3-1.8,3.6c0.7,0.2,1.1,0.7,1.6,0.1
				c0.3-0.4,0.4-1.5,0.6-2c0.5-1.4,1-2.6,1.7-3.8c0.5-0.9,2.1-2.6,0.8-3.3c-1.4-0.8-2.6,0.4-2.2,1.6L212.9,433.2z"/>
			<path class="st3" d="M209.4,445.7c0.1-0.1,0.6,0.1,0.9,0.4c0.6-0.6,0.3-1.5,0.7-2.2c0.3-0.6,1.3-1.3,0.3-1.9
				c-1.1-0.6-1,0.4-1.2,1c-0.2,0.9-0.8,1.7-1,2.6C209.2,445.8,209.2,445.7,209.4,445.7L209.4,445.7z"/>
			<path class="st3" d="M206.7,444.5c0.1-0.1,0.6,0.1,0.8,0.4c0.6-0.6,0.4-1.4,0.7-2.2c0.3-0.6,1.3-1.2,0.3-1.8
				c-1.1-0.6-1,0.3-1.2,1c-0.3,0.9-0.9,1.7-1,2.6C206.5,444.6,206.5,444.4,206.7,444.5L206.7,444.5z"/>
			<path class="st3" d="M204.9,443.3c0.1-0.1,0.5,0.2,0.8,0.4c0.6-0.5,0.4-1.3,0.8-1.9c0.3-0.5,1.3-1.1,0.4-1.7
				c-1-0.7-1,0.5-1.2,1.1s-0.8,1-1.1,2C204.6,443.4,204.7,443.3,204.9,443.3L204.9,443.3z"/>
			<path class="st3" d="M203.4,441.5c0.1-0.1,0.5,0.2,0.7,0.4c0.5-0.4,0.4-1.2,0.7-1.8c0.3-0.5,1.2-1,0.4-1.5
				c-0.9-0.6-0.9,0.4-1.1,1c-0.2,0.5-0.8,0.9-1,1.9C203.2,441.6,203.2,441.5,203.4,441.5L203.4,441.5z"/>
			<path class="st3" d="M209.7,447.8c0.2-0.4,0.2-1.7-0.6-1.4c-0.4,0.1-0.7,1.2-0.7,1.6C207.9,450.2,209.5,449,209.7,447.8
				L209.7,447.8z"/>
			<path class="st3" d="M206.9,446.1c0.2-0.4,0.2-1.7-0.6-1.4c-0.4,0.1-0.7,1.5-0.7,1.8C205.1,448.7,206.7,447.2,206.9,446.1
				L206.9,446.1z"/>
			<path class="st3" d="M205.1,444.9c0.3-0.3,0.4-1.4-0.4-1.2c-0.3,0-0.7,1.2-0.8,1.4C203.3,446.6,204.8,445.6,205.1,444.9
				L205.1,444.9z"/>
			<path class="st3" d="M203.5,442.9c0.2-0.3,0.3-1.2-0.3-1.1c-0.5,0.1-0.4,0.3-0.7,1.3C201.9,444.7,203.2,443.8,203.5,442.9
				L203.5,442.9z"/>
			<path class="st3" d="M209.9,440.4c0.9-1.5,0.8-3.1,1.6-4.6c0.5-0.9,2.2-3.4,0.6-4c-1.8-0.7-1.5,2.4-1.8,3.4
				c-0.3,0.8-0.6,1.7-0.9,2.4c-0.3,0.7-0.9,1.3-1.1,2C208.9,439.8,209.6,440.2,209.9,440.4L209.9,440.4z"/>
			<path class="st3" d="M207.8,439.5c0.8-1.4,0.8-3,1.6-4.4c0.5-0.9,2.1-3.2,0.5-3.9c-1.7-0.7-1.4,2.3-1.7,3.2
				c-0.3,0.8-0.5,1.6-0.8,2.3c-0.3,0.7-0.8,1.2-1.1,1.9C206.9,438.9,207.5,439.2,207.8,439.5L207.8,439.5z"/>
			<path class="st3" d="M206.3,438c0.8-1.1,1-2.4,1.8-3.4c0.5-0.7,2.1-2.4,0.9-3.1c-1.3-0.7-1.4,1.7-1.8,2.5
				c-0.3,0.6-0.6,1.3-0.9,1.8c-0.3,0.5-0.8,0.9-1.1,1.5C205.7,437.3,206.2,437.7,206.3,438L206.3,438z"/>
		</g>
		<g>
			<path class="st0" d="M253.1,437.5c-0.1,0.9,0.6,1.7,1.6,1.8c0.9,0.1,1.8-0.5,1.9-1.4s-0.6-1.7-1.6-1.8
				C254,436,253.2,436.6,253.1,437.5z"/>
			<path class="st0" d="M257.5,438.2c0,0.5,0.3,0.9,0.7,1c0.5,0,0.9-0.3,0.9-0.8s-0.3-0.9-0.7-1
				C257.9,437.3,257.5,437.7,257.5,438.2z"/>
			<path class="st0" d="M257.2,443.1c0,0.4,0.2,0.7,0.6,0.8c0.4,0,0.7-0.2,0.7-0.6s-0.2-0.7-0.6-0.8
				C257.5,442.4,257.2,442.7,257.2,443.1z"/>
			<path class="st0" d="M260.3,443c0,0.4,0.2,0.7,0.6,0.8c0.4,0,0.7-0.3,0.7-0.6c0-0.4-0.2-0.7-0.6-0.8
				C260.7,442.3,260.4,442.6,260.3,443z"/>
			<path class="st0" d="M262.5,442.6c0,0.3,0.2,0.6,0.5,0.6s0.6-0.2,0.6-0.5s-0.2-0.6-0.5-0.6C262.8,442,262.6,442.3,262.5,442.6z"
				/>
			<path class="st0" d="M264.7,441.6c0,0.3,0.2,0.6,0.5,0.6s0.6-0.2,0.6-0.5s-0.2-0.6-0.5-0.6C265,441,264.7,441.2,264.7,441.6z"/>
			<path class="st0" d="M260,438.3c0,0.5,0.3,0.9,0.7,1c0.5,0,0.9-0.3,0.9-0.8c0.1-0.5-0.3-0.9-0.7-1
				C260.4,437.5,260,437.8,260,438.3z"/>
			<path class="st0" d="M262,438.4c0,0.5,0.3,0.9,0.7,1c0.5,0,0.9-0.3,0.9-0.8s-0.3-0.9-0.7-1C262.5,437.5,262.1,437.9,262,438.4z"
				/>
			<path class="st0" d="M264,437.4c0,0.5,0.3,0.9,0.7,1c0.5,0,0.9-0.3,0.9-0.8c0.1-0.5-0.3-0.9-0.7-1
				C264.5,436.6,264.1,436.9,264,437.4z"/>
			<path class="st0" d="M263.8,425.4c0,0,0.2,0.6-0.3,0.7l0.5,2.7c0,0,0.5,0.9,0.2,1.4l-1.2,0.5l-3.1-1l-2.1,0.7l-3.1-1.1
				c0,0-0.5-0.5,0.3-1l0.1-1c0,0-0.7-0.6-0.3-1.2l0.3-1.2c0,0-0.3-0.5,0.1-1l2.7-1l4.5,1L263.8,425.4z"/>
			<path class="st3" d="M263,422.2c0.2,0.6,0,1.1,0.2,1.7c0.3,0.6,0.9,0.8,0.7,1.6c-0.7-0.3-1.9-1.8-2.5-0.5c-0.5,0-0.7-0.6-1.2-0.9
				c-0.6-0.4-1.3-0.4-2-0.5c-0.6-0.1-1.4-0.2-2-0.1c-0.6,0.2-0.7,0.7-1.4,0.6c-0.1-1.4,0.3-1.2,1.3-1.7c0.8-0.4,1.1-1.2,2-1.2
				s1.8,0.3,2.7,0.3c0.7,0,2.2-0.5,1.9,0.7H263z"/>
			<path class="st3" d="M260.9,425.5c-1.3-0.1-2.1-0.1-3.3,0.3c-0.7,0.2-2.3,0.7-3,0.6c-1.2-3.1,6.1-3.4,6.2-1.2
				c0.2,0.1,0.2,0.1,0.3,0.3L260.9,425.5z"/>
			<path class="st3" d="M262.6,429c1.2,0.1,1.8,0.3,1.6-1.1c-0.2-1-0.3-1.6-1-2.2c-1-0.8-1.5-0.6-1.2,0.6
				C262.2,427,262.3,428.3,262.6,429L262.6,429z"/>
			<path class="st3" d="M261.6,425.9c0.1,1.2,0.9,2.2,0.6,3.5c-0.3,0-1.4-0.2-1.6-0.5c-0.4-0.5,0.1-1.1,0-1.7c0-0.4-0.7-1.1-0.6-1.4
				c0.3-0.8,1.3,0.2,1.4-0.2L261.6,425.9z"/>
			<path class="st3" d="M259,425.9c1-0.3,1.5,0.6,1.3,1.7c-0.6-0.1-1.1,0.2-1.8,0.1c-0.7-0.2-0.5-0.5-1.1-0.8
				C257.3,425.9,258.5,425.8,259,425.9L259,425.9z"/>
			<path class="st3" d="M257,426.4c1.1,0.3,0.3,1.8,0.6,2.6c-0.5,0.4-1.1-0.1-1.7-0.2c-0.8-0.2-1.2,0.1-1.2-0.7
				C254.6,426.8,255.9,426.2,257,426.4L257,426.4z"/>
			<path class="st3" d="M254.7,432.4c0.4-0.7-0.4-2.3-0.2-3.3c0.8-0.2,2,0.1,2.7,0.4c0.9,0.4,1,1.5,0.7,2.5
				c-0.2,0.9-0.9,1.6-1.1,2.5s0.2,1.9-0.1,2.7c-0.8-0.1-1.3-0.5-2.1-0.6c-0.9-0.1-1.2,0.3-1-1c0.3-1.2,1.4-3.2,1-4.4L254.7,432.4z"
				/>
			<path class="st3" d="M252.8,442.8c0.1-1.2,0.3-2.3,0-3.4c-0.2-1.2-0.2-1.9,1.3-1.9c1.3,0.1,2.1,0.5,1.8,1.8
				c-0.3,1.1-0.2,2-0.2,3.1c-1.1-0.1-2.1-0.8-3,0.3L252.8,442.8z"/>
			<path class="st3" d="M256,443.6c0,0.1-0.3,2.1-1.2,2.2c-0.6,0-1.8-0.7-2.1-1.4c-0.8-2,3.5-2.3,3.2-0.6L256,443.6z"/>
			<path class="st3" d="M260,430.1c-0.4,1-0.9,2.5-1.1,3.8s0.6,2.8,0.2,4c-0.8-0.1-1.3,0.3-1.5-0.5c-0.2-0.5,0.3-1.5,0.3-2.1
				c0.1-1.5,0.2-2.7,0-4.1c-0.1-1-0.9-3.2,0.6-3.3c1.6-0.1,2.2,1.4,1.4,2.4L260,430.1z"/>
			<path class="st3" d="M258.2,442.5c-0.1-0.2-0.6-0.1-0.9,0c-0.3-0.8,0.3-1.5,0.3-2.3c0-0.7-0.7-1.7,0.5-1.8c1.3-0.1,0.7,1,0.6,1.7
				c-0.1,0.9,0.2,1.6,0,2.5c-0.2,0.1-0.2-0.1-0.3-0.1L258.2,442.5z"/>
			<path class="st3" d="M261.2,442.4c-0.1-0.2-0.6-0.1-0.9,0c-0.3-0.8,0.2-1.5,0.2-2.3c0-0.7-0.7-1.7,0.5-1.8c1.3-0.1,0.7,1,0.6,1.7
				c-0.1,0.9,0.2,1.6,0,2.5c-0.2,0.1-0.2-0.1-0.3-0.1L261.2,442.4z"/>
			<path class="st3" d="M263.3,442.4c-0.1-0.2-0.5-0.1-0.9,0.1c-0.3-0.7,0.1-1.4,0-2.1c-0.1-0.6-0.8-1.5,0.3-1.7
				c1.2-0.2,0.7,0.9,0.7,1.5s0.4,1.2,0.2,2.3C263.5,442.6,263.5,442.4,263.3,442.4L263.3,442.4z"/>
			<path class="st3" d="M265.5,441.1c-0.1-0.1-0.5,0-0.8,0.1c-0.3-0.6,0.1-1.3,0-1.9s-0.7-1.4,0.3-1.6c1.1-0.2,0.7,0.8,0.6,1.4
				c0,0.8,0.3,1.4,0.2,2.1C265.6,441.2,265.6,441.1,265.5,441.1L265.5,441.1z"/>
			<path class="st3" d="M257.1,444.2c0-0.5,0.5-1.3,1.1-0.8c0.3,0.2,0,1.6-0.1,2c-0.5,2.2-1.3,0.2-1.1-1.1L257.1,444.2z"/>
			<path class="st3" d="M260.3,444.3c0-0.5,0.5-1.6,1.1-1c0.2,0.1,0.1,1-0.1,2c-0.5,2.2-1.3,0.2-1.1-1.1L260.3,444.3z"/>
			<path class="st3" d="M262.6,443.4c-0.1-0.4,0.2-1.1,0.8-0.7c0.3,0.2,0.2,1.4,0.2,1.7c-0.1,1.9-1.1,0.3-1-0.8V443.4z"/>
			<path class="st3" d="M264.8,442.3c-0.1-0.4,0.2-1.3,0.7-0.9c0.2,0.2,0.2,1.2,0.2,1.5C265.5,444.6,264.7,443.2,264.8,442.3
				L264.8,442.3z"/>
			<path class="st3" d="M259.9,438c-0.2-1.7,0.5-3.2,0.4-4.8c-0.1-1.1-0.6-4,1.1-3.9c1.9,0.1,0.4,2.8,0.3,3.8
				c-0.1,0.8-0.2,1.7-0.2,2.5s0.3,1.5,0.2,2.3C261,437.7,260.2,437.8,259.9,438L259.9,438z"/>
			<path class="st3" d="M262.1,438c-0.2-1.6,0.4-3,0.3-4.6c-0.1-1-0.6-3.8,1.1-3.7c1.8,0.1,0.4,2.6,0.3,3.7
				c-0.1,0.8-0.2,1.7-0.2,2.4c0,0.8,0.3,1.5,0.2,2.2C263.2,437.7,262.5,437.8,262.1,438L262.1,438z"/>
			<path class="st3" d="M264.1,437.1c-0.3-1.3,0-2.6-0.2-3.8c-0.2-0.8-0.9-3.1,0.5-3.2c1.5-0.1,0.6,2.2,0.6,3c0,0.7,0,1.4,0.1,2
				s0.4,1.2,0.4,1.8C264.9,436.8,264.4,437,264.1,437.1L264.1,437.1z"/>
		</g>
	</g>
</g>
<text transform="matrix(1 0 0 1 14.4319 104.6514)" class="st9 st10">Boron</text>
<text transform="matrix(1 0 0 1 14.4319 164.4846)" class="st9 st10">Calcium</text>
<text transform="matrix(1 0 0 1 371.9818 106.6514)" class="st9 st10">Vanadium</text>
<text transform="matrix(1 0 0 1 370.5419 175.2513)" class="st9 st10">Strontium</text>
<text transform="matrix(1 0 0 1 421.6615 243.8512)" class="st9 st10">Silica</text>
<text transform="matrix(1 0 0 1 379.8544 312.451)" class="st9 st10">Selenium</text>
<text transform="matrix(1 0 0 1 413.0453 381.0512)" class="st9 st10">Nickel</text>
<text transform="matrix(1 0 0 1 357.414 449.6514)" class="st9 st10">Manganese</text>
<text transform="matrix(1 0 0 1 14.4324 220.318)" class="st9 st10">Zinc</text>
<text transform="matrix(1 0 0 1 14.4323 331.9848)" class="st9 st10">Magnesium</text>
<text transform="matrix(1 0 0 1 14.4322 276.1512)" class="st9 st10">Copper</text>
<text transform="matrix(1 0 0 1 14.4323 387.8178)" class="st9 st10">Potassium</text>
<text transform="matrix(1 0 0 1 14.432 443.6514)" class="st9 st10">Phosphorous</text>
<g>
	<g>
		<line class="st11" x1="84.1" y1="100.7" x2="84.1" y2="100.7"/>
		<line class="st12" x1="94" y1="102.5" x2="217.2" y2="125.7"/>
		<line class="st11" x1="222.1" y1="126.7" x2="222.1" y2="126.7"/>
	</g>
</g>
<line class="st13" x1="159.1" y1="434.7" x2="202.1" y2="418.7"/>
<line class="st13" x1="129.1" y1="379.7" x2="204.1" y2="363.7"/>
<line class="st13" x1="143.1" y1="324.7" x2="208.1" y2="314.7"/>
<line class="st13" x1="99.1" y1="269.7" x2="188.1" y2="266.7"/>
<line class="st13" x1="69.1" y1="215.7" x2="201.1" y2="221.7"/>
<line class="st13" x1="103.1" y1="159.7" x2="203.1" y2="174.7"/>
<line class="st13" x1="285.1" y1="131.7" x2="367.1" y2="101.7"/>
<line class="st13" x1="363.1" y1="167.7" x2="300.1" y2="183.7"/>
<line class="st13" x1="415.1" y1="236.7" x2="310.1" y2="236.7"/>
<line class="st13" x1="374.1" y1="303.7" x2="322.1" y2="296.7"/>
<line class="st13" x1="405.1" y1="371.7" x2="292.1" y2="339.7"/>
<line class="st13" x1="351.1" y1="441.7" x2="285.1" y2="414.7"/>
<text transform="matrix(1 0 0 1 165.6046 26.5231)" class="st14"><tspan x="0" y="0" class="st15 st16 st17">13 Essential</tspan><tspan x="-76.2" y="36" class="st15 st16 st17">Bone-Building Minerals</tspan></text>
</svg>
