<?xml version="1.0" encoding="utf-8"?>
<!-- Generator: Adobe Illustrator 22.1.0, SVG Export Plug-In . SVG Version: 6.00 Build 0)  -->
<svg version="1.1" id="Layer_1" xmlns="http://www.w3.org/2000/svg" xmlns:xlink="http://www.w3.org/1999/xlink" x="0px" y="0px"
	 viewBox="0 0 1000 500" style="enable-background:new 0 0 1000 500;" xml:space="preserve">
<style type="text/css">
	.st0{fill:#FF0000;}
	.st1{fill:#D52B1E;}
	.st2{fill:#FFFFFF;}
</style>
<rect class="st0" width="1000" height="500"/>
<path class="st1" d="M0,0h1000v500H0V0z"/>
<rect x="250" class="st2" width="500" height="500"/>
<path class="st1" d="M500,46.9l-34.1,63.6c-3.9,6.9-10.8,6.3-17.7,2.4l-24.7-12.8l18.4,97.7c3.9,17.9-8.5,17.9-14.7,10.1l-43.1-48.3
	l-7,24.5c-0.8,3.2-4.4,6.6-9.7,5.8l-54.5-11.5l14.3,52c3.1,11.6,5.5,16.4-3.1,19.4l-19.4,9.1l93.8,76.2c3.7,2.9,5.6,8.1,4.3,12.8
	l-8.2,26.9c32.3-3.7,61.2-9.3,93.6-12.8c2.9-0.3,7.6,4.4,7.6,7.7l-4.3,98.7h15.7l-2.5-98.5c0-3.3,4.3-8.2,7.2-7.9
	c32.3,3.5,61.3,9.1,93.6,12.8l-8.2-26.9c-1.3-4.7,0.6-9.9,4.3-12.8l93.8-76.2l-19.4-9.1c-8.5-3.1-6.2-7.8-3.1-19.4l14.3-52
	L632.6,190c-5.3,0.8-8.9-2.6-9.7-5.8l-7-24.5L572.8,208c-6.1,7.7-18.5,7.7-14.7-10.1l18.4-97.7l-24.7,12.8
	c-6.9,3.9-13.9,4.5-17.7-2.4"/>
</svg>
