<?xml version="1.0" encoding="utf-8"?>
<!-- Generator: Adobe Illustrator 22.1.0, SVG Export Plug-In . SVG Version: 6.00 Build 0)  -->
<svg version="1.1" id="Layer_1" xmlns="http://www.w3.org/2000/svg" xmlns:xlink="http://www.w3.org/1999/xlink" x="0px" y="0px"
	 viewBox="0 0 83 83" style="enable-background:new 0 0 83 83;" xml:space="preserve">
<style type="text/css">
	.st0{fill:#40AD4A;}
	.st1{fill:#FFFFFF;stroke:#40AD4A;stroke-width:0.4631;stroke-miterlimit:10;}
	.st2{fill:#FFFFFF;}
</style>
<g>
	<circle class="st0" cx="41.5" cy="41.5" r="41.5"/>
	<path class="st1" d="M56.4,61.1c1,0.7,2.4,0.6,3.1,0c-1.8,0-2.7-0.6-2.9-2.5c-0.2-1.8-0.2-3.7-0.2-5.6c1.3,0.1,2.3,0.8,3.1,2.1
		c0.2-1.5-0.1-2.7-1-3.7c-1.1-1.3-2.5-1.9-4.1-2.3c-2.9-0.7-6.4,1.9-9.3,1.2c-2-0.5-3.4-4.4-5-5.7c-1.2-1-1.7-2.2-1.4-3.7
		c0.2-1.5,1.2-2.5,2.3-3.3c1.9-1.5,3.8-2.9,5.7-4.4c2.3-1.9,4.2-4.1,4.7-7.2c0.2-1.1,0.4-2.1,0.8-3.1c0.3-0.8,0.8-1.6,1.3-2.4
		c0.1,0,0.2,0.1,0.3,0.1l3-2.9c-0.1-0.6-0.1-1.2,0.3-1.8c0.2-0.3,0.4-0.8,0.6-1.2c0.2-0.7,0-1-0.8-1c0.3,1,0.2,1.5-0.7,2
		c-0.5-0.8-1-1.6-1.5-2.4c-0.1-0.2-0.3-0.4-0.4-0.4c-0.4-0.2-0.8-0.3-1.2-0.5c-1.1-0.6-2.2-1.4-3.4-1.8c-3-1.2-6.1-1.1-9.3-0.5
		c-2.5,0.4-4.9,1.1-6.8,2.8c-1.5,1.4-2.8,3.1-4.1,4.8c-1.5,2-3.2,3.8-5.3,5.2c-2.5,1.7-3.7,4.1-3.6,7.1c0,1,0.5,2,0.8,3
		c0.4,1.5,0.9,2.9,0.5,4.4c-0.3,1.1-0.8,2.1-2,2.4c-1.2,0.3-2.4,0.2-3.2-0.9c-0.1-0.1-0.2-0.2-0.4-0.3c-0.1,0-0.1,0.1-0.2,0.1
		c0.1,0.4,0.2,0.9,0.4,1.3c0.5,1.2,1.7,1.4,3,1.8c-0.7,0.8-1.2,1.4-1.8,2c-0.6,0.6-1,1.2-1,2c0,1,0.2,2.1,0.3,3.1
		c0.1,0.7,0.3,1.6,0.1,2.2c-0.7,2-2.7,3-4.3,2.3c0,0-0.1,0-0.3,0.1c0.3,0.3,0.6,0.5,0.8,0.7c1.3,0.8,2.6,0.7,4,0.4
		c1-0.2,1-0.2,1.1,0.8c0.2,2.6,1.1,4.8,3.1,6.6c1.5,1.3,3.2,2.1,5,2.9c1.5,1.9,1.3,3.8,5.1,5c0.2,0.1,0.4,0.1,0.5,0.1
		c0.4,0.2,0.8,0.3,1.3,0.2c2,0.1,3.4-0.7,5-1.3c1.6-0.3,3.2-0.3,4.8-0.2c1.3,0.1,2.6,0.5,3.8,0.9c1.3,0.5,1.7,1.3,1.4,2.7
		c0,0.1,0,0.2,0,0.4c0.8-0.3,1.2-0.9,1.4-1.6c0.6-1.7-0.4-3.4-2.4-4.2c-0.7-0.3-1.3-0.6-1.9-1c-0.5-0.4-0.7-1-0.5-1.8
		c0.5,1.6,1.6,2.2,3,2.5c1.2,0.2,2.3,0.4,3.5,0.8c1.3,0.4,1.9,1.6,1.4,2.8c-0.1,0.3-0.3,0.6-0.5,1c0.1,0.1,0.1,0.1,0.2,0.2
		c0.7-0.6,1.4-1.1,2.1-1.8c1.1-1.2,1.5-2.6,0.6-4.2c1.3,0.1,1.5,1.1,2.2,1.8c0-1.8,0-3.3-1.6-4.4c-0.4-0.2-0.7-0.6-1-0.9
		c-0.7-0.9-1.2-1.9-1-3C54.8,59.6,55.5,60.4,56.4,61.1z"/>
	<path class="st2" d="M56.3,17c0.4,2,0.8,4,1.1,6c0.1,0.6,0.1,1.1,0.9,0.8c-0.3,0.4-0.6,0.8-0.6,1.1c0,0.4,0.3,0.7,0.6,1
		c0.7,0.8,1.4,1.6,2.1,2.4c0.7,0.8,0.7,1-0.1,1.7c-1,0.9-1.1,0.9-0.6,2.3c0,0.1,0.1,0.1,0.1,0.1c-0.3,0.8,0.1,1.8-0.7,2.4
		c-0.5,0.4-0.6,0.9-0.5,1.5c0.3,1.7-0.1,2.4-1.8,2.7c-1,0.2-2,0-3,0c-0.4,0-0.9-0.1-1.3-0.2c-1.4-0.2-2.5,0.4-3,1.6
		c-0.7,1.6-1.4,3.2-2,4.8c-0.4,1-1.2,4-2.2,3.6c-1-0.4-1.2-3.7-2.2-4.3c-2.4-1.3-3.1-3.6-1.6-5.9c0.8-1.1,1.8-2.1,2.8-3.1
		c1.2-1.1,2.5-2.1,3.8-3.2c1.8-1.7,2.9-3.7,3.3-6.1c0.4-2.2,0.5-4.5,1.8-6.5"/>
	<g>
		<path class="st2" d="M45.9,50.6c-1.1,0-2-0.9-3.2-2c-1-0.9-2.2-2-3.7-2.9c-0.8-0.5-1.3-1.4-1.7-2.1l-0.2-0.4
			c-0.4-0.8-0.8-1.7-1.2-2.6c-0.2-0.5-0.4-1-0.7-1.5c-0.4-0.9-1.1-1.6-2.1-2.4c-0.3-0.2-0.4-0.6-0.3-0.9c0.1-0.4,0.3-0.7,0.7-0.8
			c0.1,0,0.2,0,0.2,0c0.1,0,0.2,0,0.3,0l0.2,0.1c0.7,0.3,1.5,0.6,2,1.1c0.6,0.6,1.1,1.2,1.6,1.9c0.3,0.3,0.5,0.7,0.8,1
			c0,0,0.1,0.1,0.1,0.1c0,0,0,0,0-0.1c-0.2-1.7-0.5-3.4-0.8-5.1c-0.3-1.5-0.5-2.9-0.7-4.4c0-0.3-0.1-0.6-0.1-0.9l0-0.3
			c0-1,0.1-1.6,0.4-1.9c0.1-0.1,0.3-0.2,0.5-0.2c0.1,0,0.2,0,0.2,0c0.3,0,0.8,0.2,1,1c0.1,0.4,0.2,0.7,0.3,1.1
			c-0.1-0.6-0.2-1.2-0.3-1.9c-0.1-0.5,0.2-1.3,0.8-1.5c0.1,0,0.2-0.1,0.3-0.1c0.5,0,1,0.4,1.1,1.2c0.2,0.9,0.4,1.8,0.5,2.6
			c-0.1-0.6-0.2-1.3-0.3-1.9c0-0.2-0.1-0.7,0.2-1c0.2-0.3,0.5-0.5,0.8-0.5c0.4,0,0.8,0.3,1,0.8c0.2,0.6,0.5,1.4,0.6,2.1
			c0.1,0.5,0.2,0.9,0.3,1.4l0.1-0.1c0.2-0.4,0.5-0.6,0.9-0.6c0.4,0,0.7,0.2,0.8,0.5c0,0,0.1,0.2,0.1,0.2c0.3,1.4,0.6,2.9,0.9,4.2
			c0.4,2,0.8,4.1,1.1,6.1c0.3,1.8,0.1,3.3-0.9,4.5c-0.2,0.3-0.1,1.2,0,2c0.1,1.3,0.3,2.7-0.4,3.4c-0.3,0.3-0.7,0.5-1.1,0.5
			C46.2,50.6,46,50.6,45.9,50.6z"/>
		<path class="st0" d="M40.4,25.7c0.4,0,0.6,0.4,0.7,0.8c0.3,1.3,0.5,2.6,0.8,4c0.3,1.6,0.6,3.2,0.9,4.8c0.1,0.3,0.2,0.6,0.3,0.9
			c0.1,0,0.1,0,0.2,0c0-0.2,0.1-0.4,0-0.6c-0.4-2.8-0.8-5.7-1.2-8.5c0-0.2,0-0.5,0.1-0.7c0.1-0.2,0.3-0.3,0.4-0.3
			c0.2,0,0.5,0.2,0.6,0.5c0.2,0.7,0.5,1.4,0.6,2.1c0.4,2.2,0.8,4.4,1.2,6.6c0,0.3,0.2,0.5,0.3,0.7c0.1,0,0.1,0,0.2-0.1
			c-0.1-1-0.1-2-0.2-2.9c-0.1-0.9-0.3-1.7-0.4-2.5c0-0.1-0.1-0.3,0-0.4c0,0,0-0.1,0.1-0.1c0.1-0.2,0.3-0.3,0.5-0.3
			c0.2,0,0.3,0.1,0.4,0.3c0,0,0,0.1,0,0.1c0.3,1.4,0.6,2.8,0.9,4.2c0.4,2,0.8,4.1,1.1,6.1c0.3,1.5,0.2,2.9-0.8,4.2
			c-0.8,1.1,1.2,5.7-1.1,5.7c0,0,0,0-0.1,0c-0.1,0-0.2,0-0.3,0c-1.7,0-3.3-2.9-6.7-4.8c-0.8-0.5-1.2-1.5-1.7-2.3
			c-0.7-1.3-1.2-2.7-1.8-4c-0.5-1.1-1.3-1.9-2.3-2.6c0,0,0,0,0,0c-0.3-0.3-0.2-0.8,0.2-0.9c0,0,0.1,0,0.1,0c0,0,0.1,0,0.1,0
			c0.7,0.3,1.5,0.6,2.1,1.1c0.9,0.8,1.6,1.9,2.4,2.8c0.2,0.2,0.5,0.4,0.7,0.5c0.1-0.3,0.2-0.6,0.2-0.8c-0.4-3.1-1.1-6.3-1.5-9.4
			c-0.1-0.4,0-0.7-0.1-1.1c0-1.4,0.2-1.6,0.4-1.6c0.1,0,0.1,0,0.1,0c0.4,0,0.6,0.4,0.7,0.7c0.4,1.5,0.7,2.9,1,4.4
			c0.3,1.2,0.5,2.5,0.7,3.7c0.1,0.3,0.2,0.5,0.3,0.8c0.1,0,0.2,0,0.3-0.1c0-0.2,0-0.5,0-0.7c-0.4-3-0.9-6.1-1.3-9.1
			c0-0.3,0.2-0.9,0.5-1C40.3,25.7,40.4,25.7,40.4,25.7 M40.4,24.8C40.4,24.8,40.4,24.8,40.4,24.8c-0.2,0-0.3,0-0.5,0.1
			c-0.6,0.2-0.9,0.8-1,1.4c-0.2-0.1-0.4-0.1-0.5-0.2c-0.1,0-0.2,0-0.3,0c-0.3,0-0.6,0.1-0.8,0.3c-0.4,0.4-0.5,1-0.5,2.2l0,0.3
			c0,0.3,0,0.5,0.1,0.9c0.2,1.4,0.5,2.9,0.7,4.4c0.2,1.2,0.4,2.4,0.6,3.6c-0.5-0.6-1-1.3-1.7-1.9c-0.6-0.6-1.4-0.9-2.1-1.2l-0.2-0.1
			c-0.1-0.1-0.3-0.1-0.4-0.1c-0.1,0-0.2,0-0.3,0c-0.5,0.1-0.9,0.6-1,1.1c-0.1,0.5,0.1,1.1,0.5,1.4c0,0,0,0,0,0c1,0.7,1.6,1.4,2,2.2
			c0.2,0.5,0.4,1,0.7,1.5c0.4,0.9,0.7,1.7,1.2,2.6c0.1,0.1,0.1,0.2,0.2,0.4c0.4,0.8,0.9,1.8,1.8,2.3c1.5,0.8,2.6,1.9,3.6,2.8
			c1.3,1.2,2.3,2.1,3.5,2.1c0.1,0,0.2,0,0.4,0c0.7,0,1.2-0.3,1.4-0.6c0.8-0.9,0.6-2.3,0.5-3.7c-0.1-0.6-0.2-1.5-0.1-1.7
			c1-1.3,1.3-2.9,0.9-4.8c-0.4-2-0.7-4.1-1.1-6.1c-0.3-1.4-0.5-2.8-0.9-4.3c0-0.1-0.1-0.2-0.1-0.3c-0.2-0.5-0.7-0.7-1.2-0.7
			c-0.3,0-0.5,0.1-0.7,0.2c0-0.2-0.1-0.3-0.1-0.5c-0.2-0.8-0.4-1.5-0.6-2.2c-0.2-0.6-0.8-1.1-1.4-1.1c-0.4,0-0.8,0.2-1.1,0.5
			C41.5,25.1,41,24.8,40.4,24.8L40.4,24.8L40.4,24.8z"/>
	</g>
</g>
</svg>
