<?xml version="1.0" encoding="utf-8"?>
<!-- Generator: Adobe Illustrator 22.1.0, SVG Export Plug-In . SVG Version: 6.00 Build 0)  -->
<svg version="1.1" id="Layer_1" xmlns="http://www.w3.org/2000/svg" xmlns:xlink="http://www.w3.org/1999/xlink" x="0px" y="0px"
	 viewBox="0 0 145.8 173.5" style="enable-background:new 0 0 145.8 173.5;" xml:space="preserve">
<style type="text/css">
	.st0{fill:#DD6226;}
	.st1{fill:#EA8823;}
	.st2{fill:#F78C1E;}
	.st3{fill:#FFFFFF;}
	.st4{enable-background:new    ;}
</style>
<g id="gluten_free">
	<g>
		<path class="st0" d="M41.3,25.5c16.8-16.8,44.1-16.8,60.9,0s16.8,44.1,0,60.9s-44.1,16.8-60.9,0S24.5,42.4,41.3,25.5"/>
	</g>
	<g>
		<path class="st1" d="M71.8,99.7c-11.2,0-22.4-4.3-30.9-12.8c-17-17-17-44.8,0-61.8l0,0c17-17,44.8-17,61.8,0s17,44.8,0,61.8
			C94.2,95.3,83,99.7,71.8,99.7z M41.7,26c-16.6,16.6-16.6,43.5,0,60c16.6,16.6,43.5,16.6,60,0c16.6-16.6,16.6-43.5,0-60
			C85.2,9.4,58.3,9.4,41.7,26L41.7,26z"/>
	</g>
	<g>
		<path class="st2" d="M71.8,12.7c-11.1,0-22.2,4.2-30.6,12.7c-16.9,16.9-16.9,44.4,0,61.3c8.5,8.5,19.5,12.7,30.6,12.7
			s22.2-4.2,30.6-12.7c16.9-16.9,16.9-44.4,0-61.3C93.9,16.9,82.9,12.7,71.8,12.7 M71.8,20.5c9.5,0,18.4,3.7,25.1,10.4
			s10.4,15.6,10.4,25.1s-3.7,18.3-10.4,25S81.3,91.4,71.8,91.4S53.4,87.8,46.7,81c-13.8-13.8-13.8-36.3,0-50.2
			C53.4,24.2,62.3,20.5,71.8,20.5L71.8,20.5z"/>
	</g>
	<g>
		<path class="st3" d="M92.7,55.4l1.5,7.2c0.8,3.7-0.2,7.8-2.7,11l-4.4,5.9c-0.5,0.6-1.4,0.5-1.6-0.2l-1.7-6.1
			c-1.1-3.9-0.1-8.4,2.6-11.9l4.7-6.1C91.6,54.5,92.6,54.6,92.7,55.4"/>
	</g>
	<g>
		<path class="st3" d="M58.7,68.3l6.7-2c3.4-1,7.3-0.2,10.4,2.2l5.7,4.4c0.6,0.5,0.6,1.5-0.1,1.7l-5.7,2.2
			c-3.6,1.4-7.8,0.6-11.3-2.1l-6-4.7C57.9,69.6,58,68.6,58.7,68.3"/>
	</g>
	<g>
		<path class="st3" d="M56,56l5.2-1.5c2.6-0.8,5.6-0.1,8.1,1.7l4.4,3.4c0.5,0.4,0.4,1.1,0,1.3l-4.4,1.7c-2.8,1.1-6.1,0.5-8.7-1.6
			L56,57.4C55.4,56.9,55.5,56.2,56,56"/>
	</g>
	<g>
		<path class="st3" d="M52.9,45.5l4.1-1.1c2.1-0.6,4.5,0,6.4,1.6l3.5,2.8c0.4,0.3,0.3,0.9-0.1,1L63.3,51c-2.3,0.8-4.8,0.2-6.9-1.6
			l-3.6-3C52.4,46.2,52.5,45.6,52.9,45.5"/>
	</g>
	<g>
		<path class="st3" d="M57.4,27.3l4.1,2.5c2.1,1.3,3.7,3.9,4.3,7.2l1,5.9c0.1,0.6-0.3,1.2-0.7,1l-3.7-1.8c-2.4-1.2-4.1-4-4.7-7.6
			l-1-6.2C56.6,27.7,57,27.1,57.4,27.3"/>
	</g>
	<g>
		<path class="st3" d="M84.7,42.2l1.5,7.2c0.8,3.7-0.2,7.8-2.7,11l-4.4,5.9c-0.5,0.6-1.4,0.5-1.6-0.2l-1.7-6.2
			c-1.1-3.9-0.1-8.4,2.6-11.9l4.7-6.1C83.6,41.2,84.6,41.4,84.7,42.2"/>
	</g>
	<g>
		<path class="st3" d="M76.7,34.7l0.3,4.4c0.1,2.3-0.9,4.7-2.9,6.7l-3.5,3.5c-0.4,0.4-1,0.3-1-0.1L69,45.5c-0.3-2.4,0.8-5.1,2.9-7.2
			l3.7-3.6C76,34.2,76.6,34.2,76.7,34.7"/>
	</g>
	<g>
		
			<rect x="34.9" y="49.8" transform="matrix(0.7071 -0.7071 0.7071 0.7071 -18.3523 68.0662)" class="st2" width="76.2" height="12.7"/>
	</g>
	<g class="st4">
		<path class="st0" d="M36.3,123.3c-1.4-1.6-2.1-4-2.1-7.1s0.7-5.5,2.1-7.1s3.5-2.4,6.1-2.4c0.9,0,1.8,0.1,2.6,0.2
			c0.8,0.2,1.4,0.3,1.7,0.5l0.5,0.2c0,0.5-0.1,0.9-0.3,1.3s-0.4,0.8-0.7,1.1c-1.1-0.4-2.3-0.5-3.5-0.5c-0.6,0-1.2,0.1-1.7,0.2
			c-0.5,0.1-1,0.3-1.4,0.7s-0.8,0.7-1.1,1.2c-0.3,0.5-0.5,1.2-0.7,1.9s-0.3,1.7-0.3,2.7s0.1,2,0.3,2.7c0.2,0.8,0.4,1.4,0.7,1.9
			c0.3,0.5,0.7,0.9,1.1,1.2s0.9,0.5,1.4,0.6c0.5,0.1,1.1,0.2,1.7,0.2c0.3,0,0.6,0,0.8,0c0.3,0,0.5,0,0.6,0l0.2,0v-5.2h-3.3
			c-0.2-0.3-0.3-0.8-0.3-1.3c0-0.3,0-0.5,0.1-0.7s0.1-0.4,0.1-0.5l0.1-0.2h6.3v9.9c0,0-0.1,0.1-0.2,0.1s-0.3,0.1-0.6,0.2
			s-0.7,0.2-1,0.3c-0.4,0.1-0.8,0.2-1.4,0.2c-0.6,0.1-1.2,0.1-1.8,0.1C39.8,125.8,37.7,124.9,36.3,123.3z"/>
		<path class="st0" d="M50.9,125.3v-18.9c0.3-0.1,0.9-0.2,1.6-0.2c0.3,0,0.6,0,0.9,0.1c0.3,0,0.5,0.1,0.6,0.1l0.2,0v18.9
			c-0.4,0.1-0.9,0.2-1.6,0.2c-0.3,0-0.6,0-0.9,0c-0.3,0-0.5-0.1-0.6-0.1L50.9,125.3z"/>
		<path class="st0" d="M57.5,121.8v-9.7c0.4-0.1,0.9-0.2,1.6-0.2c0.3,0,0.6,0,0.9,0.1s0.5,0.1,0.6,0.1l0.2,0.1v9.1
			c0,0.6,0.2,1,0.5,1.4c0.3,0.3,0.9,0.5,1.6,0.5c0.9,0,1.6-0.3,2.3-1v-10c0.4-0.1,0.9-0.2,1.6-0.2c0.3,0,0.6,0,0.9,0.1
			c0.3,0,0.5,0.1,0.6,0.1l0.2,0v13.1c-0.3,0.1-0.9,0.2-1.6,0.2c-0.3,0-0.6,0-0.9-0.1c-0.3,0-0.5-0.1-0.6-0.1l-0.2-0.1v-0.8
			c-0.9,0.8-2.1,1.2-3.5,1.2c-1.3,0-2.3-0.4-3-1.1S57.5,123,57.5,121.8z"/>
		<path class="st0" d="M70.5,113.2c0-0.2,0-0.5,0-0.7s0.1-0.4,0.1-0.5l0-0.1h2v-2.1c0.7-0.4,1.6-0.6,2.6-0.6c0.2,0,0.4,0,0.6,0v2.7
			h3c0.1,0.3,0.2,0.7,0.2,1.2c0,0.2,0,0.4,0,0.6s-0.1,0.4-0.1,0.5l0,0.2h-3v6c0,1,0.2,1.7,0.6,2.1c0.4,0.4,1,0.5,1.9,0.5l0.9-0.1
			c0.2,0.4,0.2,0.8,0.2,1.3c0,0.2,0,0.4,0,0.6c0,0.2-0.1,0.3-0.1,0.4l0,0.1c-0.5,0.2-1.2,0.2-1.9,0.2c-1.6,0-2.8-0.4-3.6-1.3
			c-0.8-0.8-1.1-2.1-1.1-3.8v-6.2h-2C70.6,114.2,70.5,113.7,70.5,113.2z"/>
		<path class="st0" d="M81.1,118.7c0-2.4,0.5-4.1,1.5-5.2c1-1.1,2.5-1.7,4.3-1.7c1.7,0,3,0.4,3.9,1.3c0.9,0.9,1.4,2.2,1.4,4
			c0,0.5,0,1-0.1,1.4c0,0.5-0.1,0.8-0.1,1l-0.1,0.3h-7.6c0.1,1.2,0.4,2.1,1,2.6c0.5,0.5,1.3,0.7,2.2,0.7c0.5,0,1-0.1,1.5-0.2
			c0.5-0.1,0.9-0.2,1.1-0.3l0.4-0.2c0.3,0.3,0.5,0.6,0.7,1c0.2,0.4,0.3,0.8,0.3,1.3c0,0-0.1,0.1-0.2,0.1c-0.1,0-0.3,0.1-0.5,0.3
			c-0.3,0.1-0.6,0.2-0.9,0.3c-0.3,0.1-0.7,0.2-1.2,0.3c-0.5,0.1-1,0.1-1.6,0.1c-2.1,0-3.6-0.6-4.6-1.8S81.1,121,81.1,118.7z
			 M84.4,117.5H89c0-0.4,0.1-0.7,0.1-0.9c0-1.6-0.7-2.4-2.1-2.4C85.5,114.2,84.6,115.3,84.4,117.5z"/>
		<path class="st0" d="M94.9,125.3v-13.1c0.3-0.1,0.9-0.2,1.6-0.2c0.3,0,0.6,0,0.9,0.1c0.3,0,0.5,0.1,0.6,0.1l0.2,0.1v0.8
			c0.9-0.8,2.1-1.3,3.5-1.3c1.3,0,2.3,0.4,3,1.1c0.7,0.7,1,1.7,1,2.9v9.7c-0.4,0.1-0.9,0.2-1.6,0.2c-0.3,0-0.6,0-0.9,0
			s-0.5-0.1-0.6-0.1l-0.2-0.1v-9.1c0-0.6-0.2-1-0.5-1.4c-0.3-0.3-0.9-0.5-1.6-0.5c-0.8,0-1.6,0.3-2.3,1v10c-0.4,0.1-0.9,0.2-1.6,0.2
			c-0.3,0-0.6,0-0.9,0s-0.5-0.1-0.6-0.1L94.9,125.3z"/>
	</g>
	<g class="st4">
		<path class="st0" d="M47,152.1v-18.3h10.4c0.2,0.5,0.3,0.9,0.3,1.3c0,0.5-0.1,0.9-0.3,1.3h-7.1v5.6h6.3c0.2,0.3,0.3,0.8,0.3,1.3
			c0,0.5-0.1,1-0.3,1.4h-6.3v7.4c-0.4,0.2-0.9,0.2-1.7,0.2c-0.3,0-0.6,0-0.9-0.1c-0.3,0-0.5-0.1-0.6-0.1L47,152.1z"/>
		<path class="st0" d="M59.7,152.1V139c0.3-0.1,0.9-0.2,1.6-0.2c0.3,0,0.6,0,0.9,0c0.3,0,0.5,0.1,0.6,0.1l0.2,0v1.5
			c0.9-1.3,1.9-1.9,2.9-1.9c0.8,0,1.6,0.2,2.3,0.7c-0.1,1.1-0.6,2-1.4,2.7c-0.5-0.4-1-0.6-1.5-0.6c-0.9,0-1.6,0.4-2.2,1.3v9.4
			c-0.4,0.1-0.9,0.2-1.6,0.2c-0.3,0-0.6,0-0.9-0.1c-0.3,0-0.5-0.1-0.6-0.1L59.7,152.1z"/>
		<path class="st0" d="M69.1,145.5c0-2.4,0.5-4.1,1.5-5.2c1-1.1,2.5-1.7,4.3-1.7c1.7,0,3,0.4,3.9,1.3c0.9,0.9,1.4,2.2,1.4,4
			c0,0.5,0,1-0.1,1.4c0,0.5-0.1,0.8-0.1,1l-0.1,0.3h-7.6c0.1,1.2,0.4,2.1,1,2.6c0.5,0.5,1.3,0.7,2.3,0.7c0.5,0,1-0.1,1.5-0.2
			c0.5-0.1,0.9-0.2,1.1-0.3l0.4-0.2c0.3,0.3,0.5,0.6,0.7,1c0.2,0.4,0.3,0.8,0.3,1.3c0,0-0.1,0.1-0.2,0.1c-0.1,0-0.3,0.1-0.5,0.3
			c-0.3,0.1-0.6,0.2-0.9,0.3c-0.3,0.1-0.7,0.2-1.2,0.3c-0.5,0.1-1,0.1-1.6,0.1c-2.1,0-3.6-0.6-4.6-1.8S69.1,147.8,69.1,145.5z
			 M72.4,144.3h4.6c0-0.4,0-0.7,0-0.9c0-1.6-0.7-2.4-2.1-2.4C73.4,141,72.6,142.1,72.4,144.3z"/>
		<path class="st0" d="M82.3,145.5c0-2.4,0.5-4.1,1.5-5.2s2.5-1.7,4.3-1.7c1.7,0,3,0.4,3.9,1.3c0.9,0.9,1.4,2.2,1.4,4
			c0,0.5,0,1-0.1,1.4c0,0.5-0.1,0.8-0.1,1l-0.1,0.3h-7.6c0.1,1.2,0.4,2.1,1,2.6c0.5,0.5,1.3,0.7,2.2,0.7c0.5,0,1-0.1,1.5-0.2
			c0.5-0.1,0.9-0.2,1.1-0.3l0.4-0.2c0.3,0.3,0.5,0.6,0.7,1c0.2,0.4,0.3,0.8,0.3,1.3c0,0-0.1,0.1-0.2,0.1c-0.1,0-0.3,0.1-0.5,0.3
			c-0.3,0.1-0.6,0.2-0.9,0.3c-0.3,0.1-0.7,0.2-1.2,0.3c-0.5,0.1-1,0.1-1.6,0.1c-2.1,0-3.6-0.6-4.6-1.8S82.3,147.8,82.3,145.5z
			 M85.7,144.3h4.6c0-0.4,0-0.7,0-0.9c0-1.6-0.7-2.4-2.1-2.4C86.7,141,85.9,142.1,85.7,144.3z"/>
	</g>
</g>
</svg>
