<?xml version="1.0" encoding="utf-8"?>
<!-- Generator: Adobe Illustrator 23.0.1, SVG Export Plug-In . SVG Version: 6.00 Build 0)  -->
<svg version="1.1" id="Layer_1" xmlns="http://www.w3.org/2000/svg" xmlns:xlink="http://www.w3.org/1999/xlink" x="0px" y="0px"
	 viewBox="0 0 54 54" style="enable-background:new 0 0 54 54;" xml:space="preserve">
<style type="text/css">
	.st0{fill:#FFFFFF;}
	.st1{fill:#B3B3B3;}
	.st2{stroke:#000000;stroke-miterlimit:10;}
</style>
<g>
	<g>
		<circle class="st0" cx="27" cy="27" r="26"/>
		<path class="st1" d="M27,2c13.8,0,25,11.2,25,25S40.8,52,27,52S2,40.8,2,27S13.2,2,27,2 M27,0C12.1,0,0,12.1,0,27s12.1,27,27,27
			s27-12.1,27-27S41.9,0,27,0L27,0z"/>
	</g>
	<g>
		<path class="st2" d="M30.9,36.5c-0.1,0.5-0.2,0.9-0.3,1.3c0,0,0,0.1-0.1,0.1c-1,0.4-1.9,0.8-2.9,1c-1.1,0.3-2.2,0.3-3.3,0
			c-1.1-0.3-1.9-1.1-2.2-2.2c-0.1-0.5-0.1-1-0.1-1.5c0.1-1,0.4-2,0.7-3c0.4-1.4,0.8-2.8,1.1-4.2c0.1-0.5,0.2-1,0.2-1.6
			c0-0.2,0-0.4-0.1-0.5c-0.1-0.5-0.5-0.7-1-0.7c-0.8-0.1-1.6,0.1-2.4,0.3c-0.1,0-0.1,0-0.2,0.1c0-0.2,0.1-0.4,0.1-0.5
			c0.1-0.3,0.1-0.5,0.2-0.8c0,0,0.1-0.1,0.1-0.1c1-0.4,2-0.8,3.1-1.1c1.1-0.3,2.3-0.3,3.4,0.2c1.2,0.5,1.9,1.6,1.9,2.8
			c0,1.1-0.2,2.2-0.5,3.2c-0.4,1.4-0.8,2.9-1.2,4.3c-0.2,0.7-0.3,1.3-0.3,2c0,0.2,0,0.3,0.1,0.5c0.1,0.5,0.5,0.8,0.9,0.9
			c0.7,0.1,1.5,0.1,2.2-0.2C30.6,36.6,30.7,36.6,30.9,36.5z"/>
		<path class="st2" d="M28.3,14.4c0.9,0,1.8,0.4,2.5,1.3c0.8,1,0.7,2.5-0.2,3.4c-1.4,1.5-3.9,1.4-5-0.3c-0.7-1-0.6-2.5,0.3-3.4
			C26.5,14.8,27.2,14.5,28.3,14.4z"/>
	</g>
</g>
</svg>
