<?xml version="1.0" encoding="utf-8"?>
<!-- Generator: Adobe Illustrator 22.1.0, SVG Export Plug-In . SVG Version: 6.00 Build 0)  -->
<svg version="1.1" id="Layer_1" xmlns="http://www.w3.org/2000/svg" xmlns:xlink="http://www.w3.org/1999/xlink" x="0px" y="0px"
	 viewBox="0 0 82.5 82.5" style="enable-background:new 0 0 82.5 82.5;" xml:space="preserve">
<style type="text/css">
	.st0{fill:#40AD4A;}
	.st1{fill:#FFFFFF;}
	.st2{fill:#FFFFFF;stroke:#40AD4A;stroke-width:2;stroke-miterlimit:10;}
</style>
<g>
	<path class="st0" d="M63.7,75.9c-19.1,12.4-44.7,7-57.1-12.1s-7-44.7,12.1-57.1s44.7-7,57.1,12.1S82.8,63.4,63.7,75.9"/>
	<g>
		<polygon class="st1" points="43.6,60.1 40.1,66.1 38.2,59.4 33.1,64.3 33.1,57.3 27,60.7 28.7,53.9 21.9,55.6 25.3,49.5 
			18.3,49.4 23.2,44.4 16.5,42.5 22.5,38.9 16.5,35.4 23.2,33.5 18.3,28.5 25.3,28.4 21.9,22.3 28.7,24 27,17.2 33.1,20.6 
			33.1,13.6 38.2,18.5 40.1,11.8 43.6,17.8 47.2,11.8 49.1,18.5 54.1,13.6 54.2,20.6 60.3,17.2 58.6,24 65.4,22.3 61.9,28.4 
			69,28.5 64.1,33.5 70.8,35.4 64.8,38.9 70.8,42.5 64.1,44.4 69,49.4 61.9,49.5 65.4,55.6 58.6,53.9 60.3,60.7 54.2,57.3 
			54.1,64.3 49.1,59.4 47.2,66.1 		"/>
	</g>
	<g>
		<g id="zZ4dni.tif_3_">
			<g>
				<path class="st2" d="M44.6,37.7c-1.1-1-2.6-1.4-3.6-1.9c-0.3-1.3-0.4-2.6-0.7-3.8c-0.6-2.2-2.9-3.8-5.1-3.9
					c-2.4,0-4.5,1.4-5.3,3.9c-1.6,4.5-2,7.2-5.7,10c-5.6,3.1-6.3,3.8-13.3,3c-2.2-0.3-4,1.1-4.9,3.2c-0.9,2-0.7,4.1,0.8,5.7
					c1,1.1,2.5,1.6,3.4,2.2c0.1,1.3,0.2,2.6,0.4,3.9c0.5,2.3,2.5,4.1,4.8,4.3c2.4,0.2,4.6-1,5.6-3.4c1.6-3.5,2.3-5.9,4.6-8
					c0.6-0.4,1.4-0.9,2.4-1.6c5.6-3.8,6.1-4.6,13.3-4.4c2.2,0.1,3.9-1.4,4.6-3.6C46.6,41.2,46.2,39.2,44.6,37.7z"/>
			</g>
		</g>
		<g id="zZ4dni.tif_1_">
			<g>
				<path class="st2" d="M70.6,58.1c0.6-1.4,0.5-3,0.6-4c1.2-0.7,2.3-1.2,3.4-2c1.9-1.3,2.7-4,2-6.1c-0.8-2.3-2.8-3.8-5.4-3.8
					c-4.8,0-7.5,0.4-11.3-2.1c-4.8-4.3-5.7-4.7-7.2-11.6c-0.5-2.2-2.3-3.4-4.6-3.6c-2.2-0.2-4.1,0.7-5.1,2.6c-0.7,1.3-0.7,2.9-1,3.9
					c-1.2,0.6-2.4,1-3.5,1.7c-2,1.2-3,3.7-2.5,5.9c0.6,2.3,2.5,4,5.1,4.2c3.8,0.3,6.4,0.3,9,1.7c0.6,0.5,1.3,1,2.3,1.7
					c5.4,4.1,6.3,4.3,8.5,11.2c0.7,2.1,2.6,3.2,4.9,3.2C68,61.1,69.8,60.1,70.6,58.1z"/>
			</g>
		</g>
	</g>
</g>
</svg>
