<?xml version="1.0" encoding="utf-8"?>
<!-- Generator: Adobe Illustrator 22.1.0, SVG Export Plug-In . SVG Version: 6.00 Build 0)  -->
<svg version="1.1" id="Isolation_Mode" xmlns="http://www.w3.org/2000/svg" xmlns:xlink="http://www.w3.org/1999/xlink" x="0px"
	 y="0px" viewBox="0 0 132.7 132.7" style="enable-background:new 0 0 132.7 132.7;" xml:space="preserve">
<style type="text/css">
	.st0{fill:#40AD4A;}
	.st1{fill:#308017;}
	.st2{fill:#FFFFFF;}
</style>
<g>
	<path class="st0" d="M19.4,113.2c-25.9-25.9-25.9-67.9,0-93.8s67.9-25.9,93.8,0s25.9,67.9,0,93.8S45.3,139.1,19.4,113.2"/>
	<path class="st1" d="M22.1,58.6l38.3-38.3c2.2-2.2,5.6-2.2,7.8,0l49.1,49.1c2.2,2.2,2.2,5.6,0,7.8L79,115.5c-2.2,2.2-5.6,2.2-7.8,0
		L22.1,66.4C20,64.2,20,60.7,22.1,58.6"/>
	<path class="st2" d="M110.3,76l-32.9,32.9c-1.1,1.1-3,1.1-4.1,0L28.7,64.4c-1.1-1.1-1.1-3,0-4.1l32.9-32.9c1.1-1.1,3-1.1,4.1,0
		l44.6,44.6C111.4,73.1,111.4,74.9,110.3,76"/>
	<path class="st1" d="M39.2,35.3c-0.5,0-0.9,0.2-1.3,0.5c-0.7,0.7-0.6,1.8,0.1,2.5c0.3,0.3,0.8,0.5,1.3,0.5c0.5,0,0.9-0.2,1.3-0.5
		c0.7-0.7,0.6-1.8-0.1-2.5C40.2,35.5,39.7,35.3,39.2,35.3 M33.5,61.1c-0.1-0.1-2.7-1.6-2.5-5.9c0.1-2.3,1.1-3.6,2-4.7
		c0.7-0.9,1.3-1.6,1.3-2.8c0-0.8-0.4-2.1-0.9-3.5c-1.2-3.5-2.8-8.4,0.6-11.8c0.1-0.1,0.3-0.3,0.3-0.3s0.2-0.2,0.2-0.3
		c1.3-1.3,3.1-2,5.2-2c2.3,0,4.5,0.7,6.6,1.4c1.4,0.4,2.7,0.9,3.5,0.9c1.2,0,1.9-0.6,2.8-1.3c1.1-0.9,2.4-1.9,4.7-2
		c0.1,0,0.2,0,0.4,0c4.1,0,5.5,2.4,5.6,2.5l-0.2,1.1L48.9,46.7L34.7,60.9L33.5,61.1z"/>
	<path class="st2" d="M38.6,36.5c0.2-0.1,0.4-0.2,0.6-0.2c0.1,0,0.4,0,0.6,0.3c0.3,0.3,0.3,0.9,0.1,1.2c-0.2,0.1-0.4,0.2-0.6,0.2
		c-0.1,0-0.4,0-0.6-0.3C38.3,37.3,38.3,36.8,38.6,36.5 M57.7,27.9c-0.1,0-0.3,0-0.4,0c-2.6,0.1-4.1,1.3-5.3,2.2
		c-0.9,0.7-1.4,1.1-2.2,1.1c-0.6,0-1.9-0.4-3.2-0.8c-2-0.6-4.4-1.5-6.9-1.5h0c-2.4,0-4.3,0.8-5.9,2.3c-0.1,0.1-0.2,0.2-0.2,0.2l0,0
		l0,0c-0.1,0.1-0.2,0.1-0.2,0.2c-3.8,3.8-2,9.2-0.9,12.7c0.4,1.2,0.8,2.5,0.8,3.2c0,0.8-0.4,1.3-1.1,2.2c-0.9,1.1-2.1,2.6-2.2,5.3
		c-0.2,4.9,2.7,6.6,3,6.8l2.3-0.3l14.2-14.2l14.2-14.2l0.3-2.3C63.9,30.6,62.3,27.9,57.7,27.9 M39.3,39.8c0.7,0,1.4-0.3,1.9-0.8
		c1-1.1,1-2.8-0.1-3.9c-0.5-0.5-1.3-0.8-2-0.8c-0.7,0-1.4,0.3-1.9,0.8c-1,1.1-1,2.8,0.1,3.9C37.9,39.6,38.6,39.8,39.3,39.8
		 M57.7,29.8c3.6,0,4.7,2,4.7,2L48.2,46.1l0,0l0,0L34,60.3c0,0-2.1-1.2-2-5.1c0.1-3.8,3.3-4.4,3.3-7.5c0-3.2-4.8-10.3-0.5-14.5
		c0.1-0.1,0.2-0.2,0.3-0.3c0.1-0.1,0.2-0.2,0.3-0.3c1.3-1.3,2.9-1.8,4.5-1.8c3.7,0,7.8,2.3,10,2.3c3.2,0,3.7-3.2,7.5-3.3
		C57.5,29.8,57.6,29.8,57.7,29.8"/>
	<polygon class="st0" points="43.4,68.8 50.5,68.8 50.5,56.8 46.8,56.8 46.8,64.9 43.4,64.9 	"/>
	<polygon class="st0" points="57.2,82 64.4,82 64.4,70 60.7,70 60.7,78.1 57.2,78.1 	"/>
	<polygon class="st0" points="71.5,96.3 78.7,96.3 78.7,84.3 75,84.3 75,92.4 71.5,92.4 	"/>
	<path class="st0" d="M97.7,73.9L86.9,84.7c-0.6,0.6-1.5,0.6-2,0c-0.6-0.6-0.6-1.5,0-2l10.8-10.8c0.6-0.6,1.5-0.6,2,0
		C98.2,72.4,98.2,73.3,97.7,73.9"/>
	<path class="st0" d="M101.5,77.7L90.7,88.5c-0.6,0.6-1.5,0.6-2,0c-0.6-0.6-0.6-1.5,0-2l10.8-10.8c0.6-0.6,1.5-0.6,2,0
		C102.1,76.2,102.1,77.1,101.5,77.7"/>
	<path class="st0" d="M93.8,70L83,80.8c-0.6,0.6-1.5,0.6-2,0c-0.6-0.6-0.6-1.5,0-2l10.8-10.8c0.6-0.6,1.5-0.6,2,0
		C94.3,68.5,94.3,69.4,93.8,70"/>
	<path class="st0" d="M82.8,59L72,69.8c-0.6,0.6-1.5,0.6-2,0c-0.6-0.6-0.6-1.5,0-2l10.8-10.8c0.6-0.6,1.5-0.6,2,0
		C83.4,57.5,83.4,58.4,82.8,59"/>
	<path class="st0" d="M86.6,62.8L75.8,73.6c-0.6,0.6-1.5,0.6-2,0c-0.6-0.6-0.6-1.5,0-2l10.8-10.8c0.6-0.6,1.5-0.6,2,0
		C87.2,61.3,87.2,62.2,86.6,62.8"/>
	<path class="st0" d="M78.9,55.1L68.1,65.9c-0.6,0.6-1.5,0.6-2,0c-0.6-0.6-0.6-1.5,0-2L76.9,53c0.6-0.6,1.5-0.6,2,0
		C79.5,53.6,79.5,54.5,78.9,55.1"/>
	<path class="st0" d="M68.4,44.6L57.6,55.4c-0.6,0.6-1.5,0.6-2,0c-0.6-0.6-0.6-1.5,0-2l10.8-10.8c0.6-0.6,1.5-0.6,2,0
		C69,43.1,69,44.1,68.4,44.6"/>
	<path class="st0" d="M72.3,48.4L61.4,59.2c-0.6,0.6-1.5,0.6-2,0c-0.6-0.6-0.6-1.5,0-2l10.8-10.8c0.6-0.6,1.5-0.6,2,0
		C72.8,47,72.8,47.9,72.3,48.4"/>
	<path class="st0" d="M64.6,40.7L53.7,51.5c-0.6,0.6-1.5,0.6-2,0c-0.6-0.6-0.6-1.5,0-2l10.8-10.8c0.6-0.6,1.5-0.6,2,0
		C65.1,39.2,65.1,40.2,64.6,40.7"/>
</g>
</svg>
