<?xml version="1.0" encoding="utf-8"?>
<!-- Generator: Adobe Illustrator 22.1.0, SVG Export Plug-In . SVG Version: 6.00 Build 0)  -->
<svg version="1.1" id="Layer_1" xmlns="http://www.w3.org/2000/svg" xmlns:xlink="http://www.w3.org/1999/xlink" x="0px" y="0px"
	 viewBox="0 0 129.7 129.7" style="enable-background:new 0 0 129.7 129.7;" xml:space="preserve">
<style type="text/css">
	.st0{fill:#08B5E5;}
	.st1{fill:#007DA6;}
	.st2{fill:#FFFFFF;}
	.st3{fill:#FFFFFF;stroke:#007DA6;stroke-width:1.7766;stroke-miterlimit:10;}
</style>
<circle class="st0" cx="64.8" cy="64.8" r="64.8"/>
<g>
	<path class="st1" d="M128.8,80.6L128.8,80.6c-3.5-0.2-7-1.8-10.3-4.7c-6.1-5.4-13.7-8-21.4-5.6c-7.8,2.5-12.1,2-20.1-1
		c-4.7-1.8-9.2-0.4-13-0.1c-2,0.2-3.9,1.1-5.7,1.7c1.6-5.3,3.7-10.1,4.5-15.1c1.6-10.1,8.3-15.9,14.2-19.9c8.1,3,14.4,5.9,21,7.7
		c4.8,1.3,12-3.9,12.4-7.9c0.6-5.6-4.7-14.4-9.4-14.9c-14-1.4-27.9-2.4-40.5,6.3c-5,3.5-10.5,6.4-15.9,9.2
		c-13.5,6.9-21.8,18.5-28.4,31.5c-5.5,10.9-4.8,15.7,3.9,24.1c7.5,7.4,16.7,4.6,23.7,10.6c11,9.3,23.1,14.8,36.7,12.4
		c11.1-1.9,13.6-7.7,22.5,2.4c0.3-0.1,0.5-0.2,0.7-0.3"/>
</g>
<path class="st2" d="M31.4,73.4c2.9-1.5,13.1,9.7,22.5,10.7c9.4,0.9,34.1,0.4,36.7,0s16.7-3.3,20.7-0.6c4.1,2.7,5,9.6,4.1,11.3
	c-0.8,1.6-6.1,6-9.5,5.3c-3.4-0.7-8.2-6.3-11.3-7.1s-29.9,0.9-33.2,0.6c-3.3-0.3-25.5-1.5-28.6-2.7C29.9,89.7,19.7,79.5,31.4,73.4z"
	/>
<g>
	<path class="st2" d="M25.2,86.4c-2.1,0-4.1-1-5.3-2.6c-1-1.4-1.9-3.9-0.6-7.9c0.1-0.4,0.3-0.8,0.4-1.3c2.4-7.8,8.2-26,50-48.1
		l0.1-0.1l0.1,0c0.1,0,0.7-0.2,1.5-0.2c1.4,0,2.1,0.7,2.3,1.1c0.6,1,0.6,2.3-0.2,4c-1,2.3-4.9,5-11.8,9.7C56,45,48.8,49.9,43.7,54.9
		c-6.2,6.2-7.8,13.2-9.1,18.9c-1.3,5.7-2.4,10.6-7.5,12.2C26.5,86.3,25.8,86.4,25.2,86.4z"/>
	<path class="st1" d="M71.5,27.7c0.9,0,1.9,0.5,0.8,3.1c-1.8,4.1-19.5,13-29.6,23.1c-12.4,12.4-7.1,27.8-16,30.8
		c-0.5,0.2-1,0.2-1.5,0.2c-3,0-6.4-2.5-4.4-8.5c2.4-7.1,5.9-25.5,49.7-48.6C70.5,27.8,70.9,27.7,71.5,27.7 M71.5,24.7L71.5,24.7
		c-0.9,0-1.7,0.2-1.9,0.3l-0.2,0.1l-0.2,0.1c-42.4,22.3-48.3,41-50.8,49c-0.1,0.5-0.3,0.9-0.4,1.3c-1.5,4.6-0.4,7.5,0.8,9.2
		c1.5,2,3.9,3.2,6.5,3.2c0.8,0,1.7-0.1,2.4-0.4c5.8-1.9,7.1-7.5,8.5-13.3c1.3-5.8,2.8-12.3,8.7-18.2c5-5,12.2-9.8,17.9-13.7
		C70,37.3,73.8,34.7,75,32c0.4-0.8,1.4-3.4,0.1-5.4C74.3,25.4,73,24.7,71.5,24.7L71.5,24.7z"/>
</g>
<path class="st3" d="M39,68.7c0,0,10.1-16.6,13.8-20.6s4.2-5.2,5.5-4.2c1.3,1,2.7,3.3-5.3,16.7c-4.1,6.8-8.8,12.3-12.4,12.1
	S38.7,71.7,39,68.7z"/>
<path class="st2" d="M78.6,26.7c0,0,6.6-4.9,16.1-1.2c0,0,2.9,2.9,2.5,4.9s-1.6,4.5-3.7,4.5s-14.8-4.1-15.3-6.2S76.9,27.1,78.6,26.7
	z"/>
<g>
	<line class="st1" x1="70.5" y1="58.8" x2="72.2" y2="63.2"/>
	<polygon class="st1" points="72.2,58.1 72.2,63.2 68.9,59.4 67.6,58 72.2,56.2 	"/>
</g>
<g>
	<line class="st1" x1="78.5" y1="56.2" x2="77.1" y2="60.7"/>
	<polygon class="st1" points="80.2,56.7 77.1,60.7 76.8,55.6 76.7,53.7 81.4,55.2 	"/>
</g>
<g>
	<line class="st1" x1="84.1" y1="62.2" x2="79.9" y2="64.5"/>
	<polygon class="st1" points="85,63.8 79.9,64.5 83.3,60.7 84.5,59.2 86.8,63.5 	"/>
</g>
<path class="st1" d="M103,117.3c0,0,14.8-5.3,25.5-36.7"/>
</svg>
