<?xml version="1.0" encoding="utf-8"?>
<!-- Generator: Adobe Illustrator 22.1.0, SVG Export Plug-In . SVG Version: 6.00 Build 0)  -->
<svg version="1.1" id="Layer_1" xmlns="http://www.w3.org/2000/svg" xmlns:xlink="http://www.w3.org/1999/xlink" x="0px" y="0px"
	 viewBox="0 0 145.8 173.5" style="enable-background:new 0 0 145.8 173.5;" xml:space="preserve">
<style type="text/css">
	.st0{display:none;}
	.st1{display:inline;}
	.st2{fill:#DD6226;}
	.st3{fill:#EA8823;}
	.st4{fill:#F78C1E;}
	.st5{fill:#FFFFFF;}
	.st6{display:inline;fill:#DD6226;}
	.st7{font-family:'GloberBold';}
	.st8{font-size:25.7447px;}
	.st9{fill:#33813E;}
	.st10{fill:#43AD4A;}
	.st11{display:inline;fill:#33813E;}
	.st12{fill:#067DA6;}
	.st13{fill:#09B4E4;}
	.st14{display:inline;fill:#067DA6;}
	.st15{fill:#2E9E7E;}
	.st16{fill:#733A18;}
	.st17{fill:#008358;}
</style>
<g id="gluten_free" class="st0">
	<g class="st1">
		<path class="st2" d="M41.3,25.5c16.8-16.8,44.1-16.8,60.9,0s16.8,44.1,0,60.9s-44.1,16.8-60.9,0S24.5,42.4,41.3,25.5"/>
	</g>
	<g class="st1">
		<path class="st3" d="M71.8,99.7c-11.2,0-22.4-4.3-30.9-12.8c-17-17-17-44.8,0-61.8l0,0c17-17,44.8-17,61.8,0s17,44.8,0,61.8
			C94.2,95.3,83,99.7,71.8,99.7z M41.7,26c-16.6,16.6-16.6,43.5,0,60c16.6,16.6,43.5,16.6,60,0c16.6-16.6,16.6-43.5,0-60
			C85.2,9.4,58.3,9.4,41.7,26L41.7,26z"/>
	</g>
	<g class="st1">
		<path class="st4" d="M71.8,12.7c-11.1,0-22.2,4.2-30.6,12.7c-16.9,16.9-16.9,44.4,0,61.3c8.5,8.5,19.5,12.7,30.6,12.7
			s22.2-4.2,30.6-12.7c16.9-16.9,16.9-44.4,0-61.3C93.9,16.9,82.9,12.7,71.8,12.7 M71.8,20.5c9.5,0,18.4,3.7,25.1,10.4
			s10.4,15.6,10.4,25.1S103.6,74.3,96.9,81c-6.7,6.7-15.6,10.4-25.1,10.4S53.4,87.8,46.7,81c-13.8-13.8-13.8-36.3,0-50.2
			C53.4,24.2,62.3,20.5,71.8,20.5L71.8,20.5z"/>
	</g>
	<g class="st1">
		<path class="st5" d="M92.7,55.4l1.5,7.2c0.8,3.7-0.2,7.8-2.7,11l-4.4,5.9c-0.5,0.6-1.4,0.5-1.6-0.2l-1.7-6.1
			c-1.1-3.9-0.1-8.4,2.6-11.9l4.7-6.1C91.6,54.5,92.6,54.6,92.7,55.4"/>
	</g>
	<g class="st1">
		<path class="st5" d="M58.7,68.3l6.7-2c3.4-1,7.3-0.2,10.4,2.2l5.7,4.4c0.6,0.5,0.6,1.5-0.1,1.7l-5.7,2.2
			c-3.6,1.4-7.8,0.6-11.3-2.1l-6-4.7C57.9,69.6,58,68.6,58.7,68.3"/>
	</g>
	<g class="st1">
		<path class="st5" d="M56,56l5.2-1.5c2.6-0.8,5.6-0.1,8.1,1.7l4.4,3.4c0.5,0.4,0.4,1.1,0,1.3l-4.4,1.7c-2.8,1.1-6.1,0.5-8.7-1.6
			L56,57.4C55.4,56.9,55.5,56.2,56,56"/>
	</g>
	<g class="st1">
		<path class="st5" d="M52.9,45.5l4.1-1.1c2.1-0.6,4.5,0,6.4,1.6l3.5,2.8c0.4,0.3,0.3,0.9-0.1,1L63.3,51c-2.3,0.8-4.8,0.2-6.9-1.6
			l-3.6-3C52.4,46.2,52.5,45.6,52.9,45.5"/>
	</g>
	<g class="st1">
		<path class="st5" d="M57.4,27.3l4.1,2.5c2.1,1.3,3.7,3.9,4.3,7.2l1,5.9c0.1,0.6-0.3,1.2-0.7,1l-3.7-1.8c-2.4-1.2-4.1-4-4.7-7.6
			l-1-6.2C56.6,27.7,57,27.1,57.4,27.3"/>
	</g>
	<g class="st1">
		<path class="st5" d="M84.7,42.2l1.5,7.2c0.8,3.7-0.2,7.8-2.7,11l-4.4,5.9c-0.5,0.6-1.4,0.5-1.6-0.2l-1.7-6.2
			c-1.1-3.9-0.1-8.4,2.6-11.9l4.7-6.1C83.6,41.2,84.6,41.4,84.7,42.2"/>
	</g>
	<g class="st1">
		<path class="st5" d="M76.7,34.7l0.3,4.4c0.1,2.3-0.9,4.7-2.9,6.7l-3.5,3.5c-0.4,0.4-1,0.3-1-0.1L69,45.5c-0.3-2.4,0.8-5.1,2.9-7.2
			l3.7-3.6C76,34.2,76.6,34.2,76.7,34.7"/>
	</g>
	<g class="st1">
		
			<rect x="34.9" y="49.8" transform="matrix(0.7071 -0.7071 0.7071 0.7071 -18.335 68.1009)" class="st4" width="76.2" height="12.7"/>
	</g>
	<text transform="matrix(1 0 0 1 32.8731 125.5016)" class="st6 st7 st8">Gluten </text>
	<text transform="matrix(1 0 0 1 44.8731 152.3016)" class="st6 st7 st8">Free</text>
</g>
<g id="soy_free" class="st0">
	<g class="st1">
		<path class="st9" d="M73.8,95c-10.5,0-20.4-4.1-27.9-11.5c-15.4-15.4-15.4-40.4,0-55.7c7.4-7.4,17.3-11.5,27.9-11.5
			s20.4,4.1,27.9,11.5s11.5,17.3,11.5,27.9c0,10.5-4.1,20.4-11.5,27.9S84.3,95,73.8,95"/>
	</g>
	<g class="st1">
		<path class="st10" d="M73.8,12.3c-11.1,0-22.2,4.2-30.6,12.7c-16.9,16.9-16.9,44.4,0,61.3C51.7,94.8,62.7,99,73.8,99
			s22.2-4.2,30.6-12.7c16.9-16.9,16.9-44.4,0-61.3C96,16.5,84.9,12.3,73.8,12.3 M73.8,12.3v7.9c9.5,0,18.4,3.7,25.1,10.4
			s10.4,15.6,10.4,25.1s-3.7,18.4-10.4,25.1c-6.7,6.7-15.6,10.4-25.1,10.4s-18.4-3.7-25.1-10.4C42,74,38.3,65.1,38.3,55.6
			S42,37.2,48.7,30.5s15.6-10.4,25.1-10.4L73.8,12.3z"/>
	</g>
	<g class="st1">
		<path class="st5" d="M90.2,79.5c-9,6-23.4,0.4-32.1-12.6s-8.4-28.4,0.6-34.5"/>
	</g>
	<g class="st1">
		<path class="st5" d="M67.3,29.8c-3,0-5.9,0.8-8.3,2.4c-9,6-9.3,21.5-0.6,34.5c6.3,9.4,15.7,15,23.7,15c3,0,5.9-0.8,8.3-2.4
			c9-6,9.3-21.5,0.6-34.5C84.7,35.4,75.4,29.8,67.3,29.8 M67.3,29.8v3.1c7.3,0,15.6,5.3,21.1,13.6c3.9,5.8,5.9,12.2,5.8,18
			c-0.1,5.4-2.1,9.7-5.5,12.1c-1.9,1.3-4.1,1.9-6.6,1.9c-7.3,0-15.6-5.3-21.1-13.6c-3.9-5.8-5.9-12.2-5.8-18
			c0.1-5.4,2.1-9.7,5.5-12.1c1.9-1.3,4.1-1.9,6.6-1.9L67.3,29.8z"/>
	</g>
	<g class="st1">
		<path class="st5" d="M66.1,37.9c3.1-2.1,7.1-1.6,8.9,1.1c1.8,2.7,0.7,6.6-2.4,8.7"/>
	</g>
	<g class="st1">
		<path class="st5" d="M73.9,49.6c3.1-2.1,7.1-1.6,8.9,1.1c1.8,2.7,0.7,6.6-2.4,8.7"/>
	</g>
	<g class="st1">
		<path class="st5" d="M81.9,61.5c3.1-2.1,7.1-1.6,8.9,1.1s0.7,6.6-2.4,8.7"/>
	</g>
	<g class="st1">
		
			<rect x="37.7" y="49.5" transform="matrix(0.7071 -0.7071 0.7071 0.7071 -17.2804 69.9711)" class="st10" width="76.2" height="12.7"/>
	</g>
	<text transform="matrix(1 0 0 1 51.7051 125.5693)" class="st11 st7 st8">Soy </text>
	<text transform="matrix(1 0 0 1 47.7051 152.3693)" class="st11 st7 st8">Free</text>
</g>
<g id="non_gmo">
	<g>
		<g>
			<path class="st9" d="M72.8,95c-19.4,0-36.2-14.5-38.9-33.8c-3.1-21.5,11.9-41.5,33.4-44.6c1.9-0.3,3.8-0.4,5.7-0.4
				c19.4,0,36.2,14.5,38.9,33.8c1.5,10.4-1.1,20.8-7.4,29.2S89,93.1,78.6,94.6C76.6,94.9,74.6,95,72.8,95"/>
		</g>
		<g>
			<path class="st10" d="M72.9,12.3c-2.1,0-4.1,0.1-6.2,0.4C43,16.1,26.5,38.1,29.9,61.8C33,83.4,51.6,98.9,72.8,98.9
				c2.1,0,4.1-0.1,6.2-0.4c23.7-3.4,40.1-25.4,36.7-49.1C112.6,27.8,94.1,12.3,72.9,12.3 M72.9,12.3v7.9c8.4,0,16.6,3,23.1,8.6
				s10.8,13.3,12,21.8c1.4,9.4-1,18.7-6.7,26.3c-5.7,7.6-14,12.5-23.3,13.9c-1.7,0.2-3.4,0.4-5.1,0.4c-8.4,0-16.6-3-23.1-8.6
				S39,69.3,37.8,60.8c-1.4-9.4,1-18.7,6.7-26.3s14-12.5,23.3-13.9c1.7-0.2,3.4-0.4,5.1-0.4V12.3z"/>
		</g>
		<g>
			<path class="st5" d="M99,62.1L80.2,50.6c-2.4-1.5-4.3-3.5-5.7-6l-7.9-14.5l0.5-0.3c0.7-0.4,1-1.3,0.6-2l-0.1-0.1
				c-0.4-0.7-1.3-1-2-0.6l-13.2,7.2c-0.7,0.4-1,1.3-0.6,2l0.1,0.1c0.4,0.7,1.3,1,2,0.6l0.5-0.3l7.9,14.5c1.3,2.4,2,5.2,1.9,8
				l-0.6,22.1c-0.1,3.2,3.3,5.2,6.1,3.7l29.2-15.9C101.6,67.7,101.7,63.8,99,62.1"/>
		</g>
		<g>
			<path class="st9" d="M86,69.3c-2.2-0.6-3.5-3-2.8-5.2c0.6-2.2,3-3.5,5.2-2.8c2.2,0.6,3.5,3,2.8,5.2C90.5,68.7,88.2,70,86,69.3"/>
		</g>
		<g>
			<path class="st5" d="M87.2,70.2c-0.5,0-0.9-0.1-1.4-0.2l0,0c-2.5-0.7-4-3.4-3.2-5.9c0.4-1.2,1.2-2.2,2.3-2.8
				c1.1-0.6,2.4-0.7,3.6-0.4c2.5,0.7,4,3.4,3.2,5.9c-0.4,1.2-1.2,2.2-2.3,2.8C88.8,70,88,70.2,87.2,70.2z M86.2,68.7
				c0.9,0.3,1.9,0.2,2.7-0.3c0.8-0.4,1.4-1.2,1.7-2.1c0.5-1.9-0.5-3.8-2.4-4.4c-0.9-0.3-1.9-0.2-2.7,0.3c-0.8,0.4-1.4,1.2-1.7,2.1
				C83.3,66.2,84.4,68.2,86.2,68.7L86.2,68.7z"/>
		</g>
		<g>
			<path class="st9" d="M84.4,69.4c-1.2,0.7-2.8,0.2-3.4-1c-0.7-1.2-0.2-2.8,1-3.4c1.2-0.7,2.8-0.2,3.4,1
				C86.1,67.2,85.6,68.7,84.4,69.4"/>
		</g>
		<g>
			<path class="st5" d="M83.2,70.3c-1.1,0-2.2-0.6-2.8-1.6c-0.8-1.5-0.3-3.4,1.3-4.3c1.5-0.8,3.4-0.3,4.3,1.3
				c0.8,1.5,0.3,3.4-1.3,4.3l0,0C84.2,70.2,83.7,70.3,83.2,70.3z M83.2,65.3c-0.3,0-0.6,0.1-0.9,0.2c-0.9,0.5-1.3,1.6-0.8,2.6
				c0.5,0.9,1.6,1.2,2.6,0.8c0.9-0.5,1.3-1.6,0.8-2.6C84.5,65.7,83.9,65.3,83.2,65.3z"/>
		</g>
		<g>
			<path class="st9" d="M80.7,64.1c-0.5-0.8-0.1-1.9,0.7-2.3c0.8-0.5,1.9-0.1,2.3,0.7c0.5,0.8,0.1,1.9-0.7,2.3
				C82.2,65.2,81.2,64.9,80.7,64.1"/>
		</g>
		<g>
			<path class="st5" d="M82.2,65.6c-0.2,0-0.4,0-0.7-0.1c-0.6-0.2-1.1-0.6-1.4-1.1l0,0c-0.3-0.6-0.4-1.2-0.2-1.8
				c0.2-0.6,0.6-1.1,1.1-1.4c0.6-0.3,1.2-0.4,1.8-0.2c0.6,0.2,1.1,0.6,1.4,1.1c0.3,0.6,0.4,1.2,0.2,1.8c-0.2,0.6-0.6,1.1-1.1,1.4
				C83,65.5,82.6,65.6,82.2,65.6z M82.2,62.1c-0.2,0-0.4,0-0.5,0.1c-0.3,0.1-0.4,0.4-0.5,0.6c-0.1,0.3-0.1,0.6,0.1,0.8l0,0
				c0.1,0.3,0.4,0.4,0.6,0.5c0.3,0.1,0.6,0.1,0.8-0.1c0.3-0.1,0.4-0.4,0.5-0.7s0.1-0.6-0.1-0.8s-0.4-0.4-0.6-0.5
				C82.4,62.2,82.3,62.1,82.2,62.1z"/>
		</g>
		<g>
			
				<rect x="36.8" y="52.1" transform="matrix(0.7071 -0.7071 0.7071 0.7071 -19.3748 70.0438)" class="st10" width="76.2" height="12.7"/>
		</g>
	</g>
	<text transform="matrix(1 0 0 1 43.6544 126.9444)" class="st9 st7 st8">Non-</text>
	<text transform="matrix(1 0 0 1 43.7544 153.7444)" class="st9 st7 st8">GMO</text>
</g>
<g id="dairy_free" class="st0">
	<g class="st1">
		<path class="st12" d="M73.6,95c-10.5,0-20.4-4.1-27.9-11.5c-15.4-15.4-15.4-40.4,0-55.7c7.4-7.4,17.3-11.5,27.9-11.5
			s20.4,4.1,27.9,11.5S113,45.1,113,55.6s-4.1,20.4-11.5,27.9S84.1,95,73.6,95"/>
	</g>
	<g class="st1">
		<path class="st13" d="M73.6,12.3C62.5,12.3,51.4,16.5,43,25c-16.9,16.9-16.9,44.4,0,61.3C51.5,94.8,62.5,99,73.6,99
			s22.2-4.2,30.6-12.7c16.9-16.9,16.9-44.4,0-61.3C95.8,16.5,84.7,12.3,73.6,12.3 M73.6,20.2c9.5,0,18.4,3.7,25.1,10.4
			s10.4,15.6,10.4,25.1s-3.7,18.4-10.4,25.1S83.1,91.1,73.6,91.1s-18.4-3.7-25.1-10.4c-13.8-13.8-13.8-36.3,0-50.2
			C55.2,23.9,64.1,20.2,73.6,20.2"/>
	</g>
	<g class="st1">
		<path class="st5" d="M82.3,46.6c-0.1-0.2-0.4-0.5-0.5-0.6c-0.9-1.1-8.7-4.6-9.5-5.3s-1.6-2.6-1.6-2.6s0-0.3,0-0.5
			c0.1-0.6,0.9-3.2,1-3.5c0-0.1,0-0.3-0.1-0.3l0,0l-2.8-4.5c-0.6-0.9-1.7-1.2-2.6-0.6l-5.9,3.7l-2.7,1.7l-5.9,3.7
			c-0.9,0.6-1.2,1.7-0.6,2.6l2.8,4.5l0,0c0.1,0.1,0.2,0.2,0.3,0.2c0.3,0.1,2.9,0.5,3.5,0.6c0.2,0,0.5,0.2,0.5,0.2s1.4,1.5,1.6,2.6
			c0.2,1.1,0,9.6,0.5,10.9c0,0.1,0.2,0.5,0.3,0.7c1.5,2.8,11.3,18.2,13.2,21.2c0.1,0.2,0.7,0.7,1,1c0.2,0.1,0.4,0.3,0.6,0.3
			c1.1,0.4,4.5,1.2,11.1-2.1l0.1,0.1c0.4-0.3,0.9-0.6,1.3-0.9l0.1-0.1c0.4-0.2,0.9-0.5,1.3-0.8l-0.1-0.1c5.9-4.4,6.7-7.9,6.7-9.1
			c0-0.2,0-0.4-0.1-0.7c-0.1-0.4-0.3-1-0.4-1.3C93.6,64.8,84.1,49.2,82.3,46.6"/>
	</g>
	<g class="st1">
		<path class="st12" d="M83.3,57.2c0.8-0.7,2.1-0.5,2.7,0.4l5.8,9c0,0,1.7,2.9,0.5,5S89,75.4,86,77.1c-2.9,1.8-7.2,3.4-10.1,2.1
			c-2.2-1-5.8-7.7-7.5-10.9c-0.5-0.9,0-2.1,0.9-2.5c1.9-0.8,5.1-2.1,7.4-3.6C79.4,60.6,81.8,58.5,83.3,57.2"/>
	</g>
	<g class="st1">
		<g>
			
				<rect x="35.7" y="48.3" transform="matrix(0.7071 -0.7071 0.7071 0.7071 -17.0624 68.2043)" class="st13" width="76.2" height="12.7"/>
		</g>
	</g>
	<text transform="matrix(1 0 0 1 41.2098 125.9773)" class="st14 st7 st8">Dairy </text>
	<text transform="matrix(1 0 0 1 46.5098 152.7773)" class="st14 st7 st8">Free</text>
</g>
<g id="usda_organic" class="st0">
	<g class="st1">
		<circle class="st5" cx="73" cy="55.2" r="38.8"/>
		<g>
			<g>
				<path class="st15" d="M110.2,55.3c0,20.5-16.6,37.2-37.2,37.2c-20.5,0-37.2-16.6-37.2-37.2H110.2z"/>
			</g>
			<g>
				<path class="st16" d="M73,98.3c-23.7,0-43-19.3-43-43s19.3-43,43-43s43,19.3,43,43S96.7,98.3,73,98.3z M73,17.8
					c-20.7,0-37.5,16.8-37.5,37.5S52.3,92.8,73,92.8s37.5-16.8,37.5-37.5S93.7,17.8,73,17.8z"/>
			</g>
			<g>
				<path class="st17" d="M50.9,34.7h3.8v12.1c0,0.8,0.2,1.4,1.3,1.4c1,0,1.3-0.9,1.3-1.5v-12H61v11.6c0,2.7-1.2,4.8-5.1,4.8
					c-3.2,0-5.1-1.5-5.1-4.8L50.9,34.7L50.9,34.7z"/>
			</g>
			<g>
				<path class="st17" d="M65.7,45.4v1.1c0,0.9,0.3,1.7,1.5,1.7c0.9,0,1.3-0.8,1.3-1.6c0-1.3-1.1-1.9-2.1-2.5
					c-1.2-0.7-2.1-1.3-2.8-2.1c-0.7-0.8-1.1-1.8-1.1-3.2c0-3,1.8-4.6,4.7-4.6c3.3,0,4.9,2.2,4.8,5.2h-3.5c0-0.9,0-2.2-1.2-2.3
					c-0.8-0.1-1.2,0.4-1.3,1.1c-0.1,1,0.4,1.5,1.1,2c1.4,0.9,2.6,1.5,3.5,2.3s1.4,1.9,1.4,3.8c0,3.1-1.7,4.8-4.8,4.8
					c-3.4,0-4.9-1.9-4.9-4v-1.7C62.3,45.4,65.7,45.4,65.7,45.4z"/>
			</g>
			<g>
				<path class="st17" d="M78.6,50.7c1.2,0,2.4-0.1,3.3-0.8c1.1-0.7,1.6-1.9,1.6-3.5v-7.1c0-1.5-0.2-3.1-1.7-4
					c-1.2-0.7-2.9-0.7-4.2-0.7h-4.1v16.1H78.6z M77.3,37.6c1.8,0,2.5,0.2,2.5,2v5.2c0.1,2.1,0,3.2-2.5,3V37.6z"/>
			</g>
		</g>
		<g>
			<path class="st17" d="M88.5,50.7l0.4-3.1h3l0.5,3.1h3.8l-3.5-16.1h-4.5l-3.5,16.1H88.5z M91.5,44.8h-2.2l1.1-7.2l0,0L91.5,44.8z"
				/>
		</g>
		<g>
			<path class="st5" d="M52.5,63.4c0-2.3-1.3-3.6-3.8-3.6s-3.9,1.3-3.9,3.6v4.9c0,2.7,1,4.1,3.9,4.1s3.8-1.4,3.8-4.1V63.4z
				 M49.6,68.5c0,0.7-0.1,1.7-1,1.7s-1-1-1-1.7v-4.9c0-0.7,0.1-1.6,1-1.6s1,0.9,1,1.6V68.5z"/>
		</g>
		<g>
			<path class="st5" d="M56.6,67.4h0.9c0.7,0,0.9,0.5,1,1.3c0.1,0.7,0,1.7,0.1,2.8c0,0.2,0.1,0.5,0.2,0.7h3.1V72
				c-0.1-0.1-0.2-0.3-0.3-0.4c-0.2-0.8-0.2-2.8-0.3-3.8c0-0.8-0.6-1.4-1.4-1.6l0,0c1.2-0.5,1.5-1.5,1.5-2.7c0-2.4-1.2-3.3-3.5-3.3
				h-4.1v12h2.8V67.4z M56.6,62.3c1.4,0,2,0,2,1.5c0,0.7-0.2,1.5-1,1.5h-1V62.3z"/>
		</g>
		<g>
			<path class="st5" d="M68.3,72.1L68.2,71l0,0c-0.6,1-1.2,1.3-2.4,1.3c-2.4,0-3.2-1.7-3.2-3.8v-4.9c0-2.6,1.2-3.8,3.8-3.8
				c2.4,0,3.8,1,3.8,3.5v0.9h-2.8v-0.7c0-1-0.1-1.5-0.9-1.6c-0.9,0-1.1,0.5-1.1,1.3v6c0,0.7,0.3,1.1,1,1.1c1,0,1-0.8,1-1.5v-0.9h-1
				v-2.2h3.8v6.5h-1.9V72.1z"/>
		</g>
		<g>
			<path class="st5" d="M73.9,72.1l0.3-2.3h2.2l0.4,2.3h2.9l-2.6-12h-3.4l-2.6,12H73.9z M76.2,67.7h-1.6l0.8-5.4l0,0L76.2,67.7z"/>
		</g>
		<g>
			<polygon class="st5" points="83,65.4 83,65.4 83.2,72.1 80.6,72.1 80.6,60.1 83.5,60.1 85.6,66.8 85.7,66.8 85.4,60.1 88.1,60.1 
				88.1,72.1 85.2,72.1 			"/>
		</g>
		<g>
			<rect x="89.6" y="60.1" class="st5" width="2.8" height="12"/>
		</g>
		<g>
			<path class="st5" d="M98.7,64.3v-0.8c0-1-0.4-1.6-0.9-1.6c-0.9,0-1.1,0.5-1.1,1.3v6c0,0.7,0.3,1.1,1,1.1c1,0,1-1,1-1.7v-1.1h2.8
				V69c0,2.1-1.2,3.5-4.1,3.5c-2.6,0-3.6-1.4-3.6-3.8v-4.9c0-2.6,1.2-3.8,3.8-3.8c2.4,0,3.9,1,3.9,3.5v1h-2.8V64.3z"/>
		</g>
	</g>
</g>
</svg>
