<?xml version="1.0" encoding="utf-8"?>
<!-- Generator: Adobe Illustrator 22.1.0, SVG Export Plug-In . SVG Version: 6.00 Build 0)  -->
<svg version="1.1" id="Layer_1" xmlns="http://www.w3.org/2000/svg" xmlns:xlink="http://www.w3.org/1999/xlink" x="0px" y="0px"
	 viewBox="0 0 105.4 66.7" style="enable-background:new 0 0 105.4 66.7;" xml:space="preserve">
<style type="text/css">
	.st0{fill:#38B14A;}
</style>
<g>
	<g>
		<path class="st0" d="M105.4,52.2c-1.6,1.6-3.5,1.2-5.4,1c-0.4,0-0.9-0.7-1-1.1c-3.1-9.4-14.9-12.5-22.2-6.1
			c-0.2,0.2-0.5,0.2-1.1,0.5c-0.1-0.9-0.2-1.6-0.2-2.3c0-8.6,0-17.2,0-25.9c0-2.7,0.1-2.7,2.7-2.7c4.8,0,9.7,0,14.5,0
			c2.3,0,4,0.9,5.3,2.8c3.1,4.4,5.8,9,7.4,14.1V52.2z M99.2,28.5l0.4-0.6c-1.7-2.6-3.4-5.3-5.2-7.8c-0.3-0.4-1.2-0.7-1.8-0.7
			c-3.1-0.1-6.2,0-9.3,0c-1.4,0-1.9,0.6-1.9,1.9c0,1.7,0.1,3.3,0,5c-0.1,1.8,0.7,2.4,2.4,2.3c4.5-0.1,9.1,0,13.6,0
			C98,28.7,98.6,28.6,99.2,28.5"/>
	</g>
	<g>
		<path class="st0" d="M83.3,66.7c-4-1.4-6.9-3.9-8-8.1c-1.3-5.4,1.9-10.9,7.3-12.6c5.4-1.7,11.2,1.3,13.2,6.6
			c1.9,5.3-0.6,11.1-5.8,13.4c-0.6,0.3-1.3,0.5-1.9,0.8H83.3z M90.3,56.2c0-2.6-2-4.6-4.6-4.6c-2.6,0-4.6,2-4.6,4.6
			c0,2.7,1.9,4.5,4.6,4.5C88.5,60.7,90.3,58.9,90.3,56.2"/>
	</g>
	<g>
		<path class="st0" d="M20.5,66.4c-1.5-0.8-3.2-1-4.6-2.1c-3.7-3-4.8-8-2.9-12.3c1.8-4.2,6.5-7,10.8-6.4c5.3,0.7,8.8,4.2,9.6,9.4
			c0.7,4.3-1.9,8.8-6,10.8c-0.8,0.4-1.6,0.3-2.4,0.6H20.5z M22.7,60.7c2.7,0.1,4.8-1.8,4.8-4.4c0.1-2.7-2-4.8-4.6-4.8
			c-2.5,0-4.5,1.9-4.5,4.4C18.2,58.8,20,60.7,22.7,60.7"/>
	</g>
	<g>
		<path class="st0" d="M71.8,28.6c0-7.3,0-14.5,0-21.8c0-3.1-1.1-5.6-4.2-6.8H4.1c0,11.4,0,22.7-0.1,34.1c0,2.5-0.1,5,0,7.5
			c0.1,1.7-0.1,3.1-2,3.9c-0.8,0.3-1.2,1.5-1.9,2.2c-0.1,0.5,0,1.1-0.2,1.6c1.1,3.1,5.8,5,8.8,3.6c0.6-0.3,1.1-1.3,1.4-2
			c4.3-9.3,16.4-11.2,23-3.4c1,1.2,1.8,2.7,2.5,4.1c0.5,1,1.1,1.5,2.2,1.5c10.6,0,21.3,0,31.9,0c1.7,0,1.9-0.9,1.9-2.3
			C71.8,43.4,71.8,36,71.8,28.6 M37.1,41.1L21.4,25.5l6.4-6.4l9.2,9.2L58.7,6.6l6.4,6.4L37.1,41.1z"/>
	</g>
</g>
</svg>
