<?xml version="1.0" encoding="utf-8"?>
<!-- Generator: Adobe Illustrator 23.0.1, SVG Export Plug-In . SVG Version: 6.00 Build 0)  -->
<svg version="1.1" id="Layer_1" xmlns="http://www.w3.org/2000/svg" xmlns:xlink="http://www.w3.org/1999/xlink" x="0px" y="0px"
	 viewBox="0 0 74.9 78.5" style="enable-background:new 0 0 74.9 78.5;" xml:space="preserve">
<style type="text/css">
	.st0{fill:#40AD4A;stroke:#40AD4A;stroke-width:0.9875;stroke-miterlimit:10;}
	.st1{fill:#40AD4A;stroke:#40AD4A;stroke-miterlimit:10;}
	.st2{fill:#40AD4A;}
	.st3{fill:#FFFFFF;}
</style>
<g>
	<path class="st0" d="M15.3,7.6l25-3.4c11.2-1.5,21.6,6.3,23.1,17.6l4.9,36.3c0.4,2.9-1.6,5.5-4.5,5.9l-40.2,5.5
		c-2.9,0.4-5.5-1.6-5.9-4.5l-7-51.5C10.4,10.6,12.4,8,15.3,7.6z"/>
	<path class="st1" d="M28.7,0.5h24.9c11.5,0,20.8,9.3,20.8,20.8v37.9c0,2.9-2.4,5.3-5.3,5.3H28.7c-2.9,0-5.3-2.4-5.3-5.3V5.8
		C23.4,2.9,25.7,0.5,28.7,0.5z"/>
	<path class="st0" d="M4.5,17.3l24.5-6c11-2.7,22.1,4.1,24.8,15.1L62.5,62c0.7,2.8-1,5.6-3.8,6.3l-39.4,9.6c-2.8,0.7-5.6-1-6.3-3.8
		L0.6,23.6C0,20.8,1.7,17.9,4.5,17.3z"/>
	<polygon class="st2" points="19.4,76.5 49.4,69.5 47.7,64.6 56.4,60.9 67.4,61.5 71.4,19.5 63.8,9.9 55.4,2.5 29.4,2.5 28.4,8.5 
		17.4,12.5 13.2,17.7 2.4,24.5 	"/>
	<g>
		<path class="st3" d="M24.7,32.5c0-8.4,0-16.7,0-25.1c0-3.6,1-4.7,4.7-4.7c8.8,0,17.6,0,26.4,0c1.7,0,2.3,0.5,2.2,2.2
			c-0.1,2.7,0,5.5,0,8.2c0,3.3,1.1,4.4,4.5,4.4c2.3,0,4.5,0.1,6.8,0c1.4,0,1.9,0.3,1.9,1.8c0,13,0,25.9,0,38.9
			c0,2.5-1.2,3.7-3.9,3.7c-12.8,0-25.7,0-38.5,0c-2.8,0-3.9-1.2-3.9-4.1C24.7,49.3,24.7,40.9,24.7,32.5
			C24.7,32.5,24.7,32.5,24.7,32.5z M28.2,6.3c0,1.1,0,1.9,0,2.7c0,10,0,19.9,0,29.9c0,5.9,0,11.8,0,17.7c0,1.3,0.3,2,1.8,2
			c11.9,0,23.9,0,35.8,0c1.2,0,1.7-0.4,1.7-1.7c0-11.5,0-22.9,0-34.4c0-1.3-0.6-1.7-1.7-1.7c-1.4,0-2.9,0-4.3,0
			c-4.3-0.1-7-2.7-7.2-7.1c-0.1-1.7-0.1-3.4,0-5.1c0.1-1.9-0.5-2.5-2.4-2.5c-7.2,0.1-14.4,0-21.6,0C29.7,6.2,29.1,6.2,28.2,6.3z"/>
		<path class="st3" d="M53.7,64.2c-10.1,1.2-20.2,2.5-30.4,3.7c-2.6,0.3-4-0.7-4.3-3.5c-0.6-4.9-1.2-9.8-1.8-14.7
			c-1.4-12-2.9-23.9-4.3-35.9c-0.4-3.1,0.4-4.2,3.5-4.7C17,9,17.5,8.9,18.1,8.9c1.1-0.1,2.3-0.2,3.4-0.3c1.1,2.7,0.8,3.2-1.9,3.6
			c-0.6,0.1-1.2,0.3-1.8,0.3c-1.4,0-1.5,0.8-1.4,1.9c1.1,9.4,2.3,18.8,3.4,28.2c0.8,6.4,1.6,12.8,2.3,19.2c0.3,2.9,0.4,3,3.3,2.6
			c0.5-0.1,1-0.2,1.4-0.2c9,0,18,0,26.9,0C53.7,64.1,53.7,64.2,53.7,64.2z"/>
		<path class="st3" d="M49.1,69.2c-9.9,2.5-19.8,5.1-29.6,7.6c-2.5,0.6-4-0.2-4.7-2.9c-1.3-4.8-2.4-9.6-3.7-14.3
			c-3-11.7-5.9-23.4-9-35c-0.8-3-0.2-4.2,2.9-5.1c0.5-0.2,1-0.3,1.6-0.5c1.1-0.3,2.2-0.5,3.3-0.8c1.5,2.5,1.2,3.1-1.4,3.8
			c-0.6,0.2-1.2,0.4-1.8,0.5c-1.4,0.2-1.4,1-1.1,2.1C8,33.7,10.3,42.8,12.6,52c1.6,6.2,3.2,12.5,4.8,18.7c0.7,2.9,0.8,2.9,3.6,2.1
			c0.5-0.1,0.9-0.3,1.4-0.3c8.9-1.2,17.8-2.3,26.7-3.5C49.1,69,49.1,69.1,49.1,69.2z"/>
		<path class="st3" d="M69.4,15.4c-2.3-0.2-4.7-0.1-7-0.6c-0.9-0.2-2.1-1.7-2.3-2.7c-0.3-2.7-0.1-5.4,0.3-8.4
			c3.1,3.7,6.1,7.4,9.2,11.1C69.6,15,69.5,15.2,69.4,15.4z"/>
		<path class="st3" d="M22.5,19.2c-0.5,0.6-0.8,1-1.1,1.4c-0.3-0.5-0.8-1.1-0.8-1.6c0-0.4,0.5-0.9,0.8-1.4
			C21.7,18.1,22.1,18.6,22.5,19.2z"/>
		<path class="st3" d="M22.3,27.6c-1.2-1.4-1.5-2.3,0-3.2C22.3,25.3,22.3,26.2,22.3,27.6z"/>
		<path class="st3" d="M47.7,28.5c-4.5,0-8.9,0-13.4,0c-1.1,0-2.2,0-2.2-1.6c0-1.7,1.2-1.6,2.3-1.6c8.8,0,17.7,0,26.5,0
			c1.1,0,2.3-0.1,2.3,1.6c0,1.6-1.1,1.6-2.3,1.6C56.5,28.5,52.1,28.5,47.7,28.5z"/>
		<path class="st3" d="M47.5,35.1c-4.5,0-8.9,0-13.4,0c-1.1,0-2.1,0-2.1-1.5c0-1.5,0.9-1.6,2-1.6c9,0,18,0,26.9,0
			c1.1,0,2.1,0.1,2.1,1.6c0,1.6-1.1,1.6-2.2,1.6C56.4,35.1,52,35.1,47.5,35.1z"/>
		<path class="st3" d="M47.7,41.8c-4.5,0-8.9,0-13.4,0c-1.1,0-2.3,0-2.2-1.7c0.1-1.5,1.1-1.5,2.2-1.5c8.9,0,17.8,0,26.8,0
			c1.1,0,2.1,0.2,2.1,1.6c0.1,1.5-1,1.6-2.1,1.6C56.6,41.8,52.1,41.8,47.7,41.8z"/>
		<path class="st3" d="M41.4,14.9c-2.5,0-4.9,0-7.4,0c-1.1,0-1.9-0.2-1.8-1.6c0-1.3,0.7-1.6,1.8-1.6c5,0,10,0,15,0
			c1.1,0,1.8,0.3,1.8,1.6c0,1.3-0.7,1.6-1.9,1.6C46.5,14.9,43.9,14.9,41.4,14.9z"/>
		<path class="st3" d="M41.7,48.6c-2.5,0-5.1,0-7.6,0c-1.1,0-1.9-0.3-1.9-1.6c0-1.3,0.7-1.6,1.8-1.6c5.1,0,10.1,0,15.2,0
			c1.2,0,1.8,0.3,1.8,1.6c0,1.3-0.8,1.6-1.9,1.6C46.6,48.6,44.2,48.6,41.7,48.6z"/>
		<path class="st3" d="M41.7,21.6c-2.5,0-5.1,0-7.6,0c-1,0-1.9-0.1-2-1.5c0-1.4,0.9-1.7,2-1.7c4.9,0,9.8,0,14.8,0c1.1,0,2,0.2,2,1.7
			c0,1.6-1,1.5-2.1,1.5C46.5,21.6,44.1,21.6,41.7,21.6z"/>
	</g>
</g>
</svg>
