<?xml version="1.0" encoding="utf-8"?>
<!-- Generator: Adobe Illustrator 22.1.0, SVG Export Plug-In . SVG Version: 6.00 Build 0)  -->
<svg version="1.1" id="Layer_1" xmlns="http://www.w3.org/2000/svg" xmlns:xlink="http://www.w3.org/1999/xlink" x="0px" y="0px"
	 viewBox="0 0 130.1 129.9" style="enable-background:new 0 0 130.1 129.9;" xml:space="preserve">
<style type="text/css">
	.st0{fill:#08B5E5;}
	.st1{fill:#007DA6;}
	.st2{fill:#FFFFFF;}
</style>
<circle class="st0" cx="64.8" cy="65" r="64.8"/>
<g>
	<path class="st1" d="M65.2,0c-2.3,0-4.5,0.1-6.7,0.3c-8.9,15-24.5,21.6-24,54.7c0.6,37.1,22.2,61.4,21.6,74.2
		c2.9,0.4,1.7,0.7,9.2,0.7c35.8,0,64.9-29.3,64.9-65.1S101.1,0,65.2,0z"/>
</g>
<path class="st1" d="M75.1,36.9c-6.8,4.6-12.5,9.7-14.6,10.9C58.4,49,56.8,51.3,56,49s-1.3-20.5,4.4-24.2s24.2-10.8,25-8.5
	s0.2,6.6,0.2,6.6S77.1,35.5,75.1,36.9z"/>
<g>
	<path class="st2" d="M82.8,113.1c0.9,3.1,0.8,7.7-1.9,8.4c-3.8,1.1-6.6,0.7-8.4-6.3c-1.8-7-1.1-9.7-2.9-14.5s-3.5-7.5-4.8-9
		c-1.3-1.5-7.4-3.6-5.8-10c0.9-3.7,4.4-5.4,7-4.9c2.6,0.5,4.5,0.5,5.3-0.5c0.7-1,0.9-1,1.5-3.1c0.6-2.1-1-1.2,0.8-4.7
		c1.8-3.6,6.3-5.2,9.6-2.5c2,1.6,5.8,5.3,2.9,9.5s-4,1.9-6.3,3.7c-2.3,1.8-3,3.9-2.4,7.7c0.6,3.9-1.8,4,0.2,12.9
		C79.7,108.7,81,106.6,82.8,113.1z"/>
</g>
<path class="st2" d="M117,67.2c-5.9-6.5-12.7-4.1-16.8-10.8C98.1,53,97.5,46.3,97.4,40c0.3-2.2,1.1-8.9,1.6-10c0.6-1.2,0.1-4.6-1-6
	c-1.1-1.4-8.4-8.3-11.4-9.2c-1.7-0.5-4.3-0.6-6.9-0.2c-5.5,0.1-13.4,1.8-19.6,6.8c-5.1,4.1-6.7,9.7-7,15.2c-0.2,0.4-0.4,1.1-0.6,2
	c-0.9,4.4,0.2,8.9,1.6,12.4c0.4,1.8,1.5,3.8,2.9,5.8c0.3,0.5,0.5,0.8,0.5,0.8c0,0,0,0,0.1,0c4.5,5.8,12,11.1,15.4,8.4
	c4.9-4,8.4-4.3,12.2-1.1c3.8,3.2,4.1,6.7,2.7,10.3c-1.4,3.6-1.4,3.6-1.4,3.6c-0.9,8.9,10.4,17.4,17.3,16
	C119.2,91.6,122.9,73.7,117,67.2z M82.9,21.1C81.4,23,63.8,22.8,57.3,48c0,0-1.6-17.4,8.4-23.6c10-6.2,17.1-5.1,17.1-5.1
	S84.5,19.2,82.9,21.1z M111.4,82.6c-1.3,3.2-5.9,6.7-9.1,7S91.9,82.9,90,80c-0.4-4.6,1.5-1.7,4.6-3.5
	C97.7,74.7,112.7,79.4,111.4,82.6z"/>
</svg>
