<?xml version="1.0" encoding="utf-8"?>
<!-- Generator: Adobe Illustrator 22.1.0, SVG Export Plug-In . SVG Version: 6.00 Build 0)  -->
<svg version="1.1" id="Layer_1" xmlns="http://www.w3.org/2000/svg" xmlns:xlink="http://www.w3.org/1999/xlink" x="0px" y="0px"
	 viewBox="0 0 86 86" style="enable-background:new 0 0 86 86;" xml:space="preserve">
<style type="text/css">
	.st0{display:none;}
	.st1{display:inline;}
	.st2{fill:#DD6226;}
	.st3{fill:#EA8823;}
	.st4{fill:#F78C1E;}
	.st5{fill:#FFFFFF;}
	.st6{enable-background:new    ;}
	.st7{fill:#33813E;}
	.st8{fill:#43AD4A;}
	.st9{fill:#067DA6;}
	.st10{fill:#09B4E4;}
	.st11{fill:#2E9E7E;}
	.st12{fill:#733A18;}
	.st13{fill:#008358;}
</style>
<g id="gluten_free" class="st0">
	<g class="st1">
		<path class="st2" d="M11.3,13.2c16.8-16.8,44.1-16.8,60.9,0s16.8,44.1,0,60.9s-44.1,16.8-60.9,0S-5.5,30.1,11.3,13.2"/>
	</g>
	<g class="st1">
		<path class="st3" d="M41.8,87.4c-11.2,0-22.4-4.3-30.9-12.8c-17-17-17-44.8,0-61.8l0,0c17-17,44.8-17,61.8,0s17,44.8,0,61.8
			C64.2,83,53,87.4,41.8,87.4z M11.7,13.7c-16.6,16.6-16.6,43.5,0,60c16.6,16.6,43.5,16.6,60,0c16.6-16.6,16.6-43.5,0-60
			C55.2-2.9,28.3-2.9,11.7,13.7L11.7,13.7z"/>
	</g>
	<g class="st1">
		<path class="st4" d="M41.8,0.4c-11.1,0-22.2,4.2-30.6,12.7C-5.7,30-5.7,57.5,11.2,74.4c8.5,8.5,19.5,12.7,30.6,12.7
			S64,82.9,72.4,74.4c16.9-16.9,16.9-44.4,0-61.3C63.9,4.6,52.9,0.4,41.8,0.4 M41.8,8.2c9.5,0,18.4,3.7,25.1,10.4
			s10.4,15.6,10.4,25.1s-3.7,18.3-10.4,25S51.3,79.1,41.8,79.1s-18.4-3.6-25.1-10.4c-13.8-13.8-13.8-36.3,0-50.2
			C23.4,11.9,32.3,8.2,41.8,8.2L41.8,8.2z"/>
	</g>
	<g class="st1">
		<path class="st5" d="M62.7,43.1l1.5,7.2c0.8,3.7-0.2,7.8-2.7,11l-4.4,5.9c-0.5,0.6-1.4,0.5-1.6-0.2l-1.7-6.1
			c-1.1-3.9-0.1-8.4,2.6-11.9l4.7-6.1C61.6,42.2,62.6,42.3,62.7,43.1"/>
	</g>
	<g class="st1">
		<path class="st5" d="M28.7,56l6.7-2c3.4-1,7.3-0.2,10.4,2.2l5.7,4.4c0.6,0.5,0.6,1.5-0.1,1.7l-5.7,2.2c-3.6,1.4-7.8,0.6-11.3-2.1
			l-6-4.7C27.9,57.3,28,56.3,28.7,56"/>
	</g>
	<g class="st1">
		<path class="st5" d="M26,43.7l5.2-1.5c2.6-0.8,5.6-0.1,8.1,1.7l4.4,3.4c0.5,0.4,0.4,1.1,0,1.3l-4.4,1.7c-2.8,1.1-6.1,0.5-8.7-1.6
			L26,45.1C25.4,44.6,25.5,43.9,26,43.7"/>
	</g>
	<g class="st1">
		<path class="st5" d="M22.9,33.2l4.1-1.1c2.1-0.6,4.5,0,6.4,1.6l3.5,2.8c0.4,0.3,0.3,0.9-0.1,1l-3.5,1.2c-2.3,0.8-4.8,0.2-6.9-1.6
			l-3.6-3C22.4,33.9,22.5,33.3,22.9,33.2"/>
	</g>
	<g class="st1">
		<path class="st5" d="M27.4,15l4.1,2.5c2.1,1.3,3.7,3.9,4.3,7.2l1,5.9c0.1,0.6-0.3,1.2-0.7,1l-3.7-1.8c-2.4-1.2-4.1-4-4.7-7.6
			l-1-6.2C26.6,15.4,27,14.8,27.4,15"/>
	</g>
	<g class="st1">
		<path class="st5" d="M54.7,29.9l1.5,7.2c0.8,3.7-0.2,7.8-2.7,11L49.1,54c-0.5,0.6-1.4,0.5-1.6-0.2l-1.7-6.2
			c-1.1-3.9-0.1-8.4,2.6-11.9l4.7-6.1C53.6,28.9,54.6,29.1,54.7,29.9"/>
	</g>
	<g class="st1">
		<path class="st5" d="M46.7,22.4l0.3,4.4c0.1,2.3-0.9,4.7-2.9,6.7L40.6,37c-0.4,0.4-1,0.3-1-0.1L39,33.2c-0.3-2.4,0.8-5.1,2.9-7.2
			l3.7-3.6C46,21.9,46.6,21.9,46.7,22.4"/>
	</g>
	<g class="st1">
		
			<rect x="4.9" y="37.5" transform="matrix(0.7071 -0.7071 0.7071 0.7071 -18.4417 43.2504)" class="st4" width="76.2" height="12.7"/>
	</g>
</g>
<g id="soy_free" class="st0">
	<g class="st1">
		<path class="st7" d="M43.8,82.7c-10.5,0-20.4-4.1-27.9-11.5c-15.4-15.4-15.4-40.4,0-55.7C23.3,8.1,33.2,4,43.8,4
			s20.4,4.1,27.9,11.5s11.5,17.3,11.5,27.9c0,10.5-4.1,20.4-11.5,27.9S54.3,82.7,43.8,82.7"/>
	</g>
	<g class="st1">
		<path class="st8" d="M43.8,0C32.7,0,21.6,4.2,13.2,12.7C-3.7,29.6-3.7,57.1,13.2,74c8.5,8.5,19.5,12.7,30.6,12.7S66,82.5,74.4,74
			c16.9-16.9,16.9-44.4,0-61.3C66,4.2,54.9,0,43.8,0 M43.8,0v7.9c9.5,0,18.4,3.7,25.1,10.4s10.4,15.6,10.4,25.1s-3.7,18.4-10.4,25.1
			c-6.7,6.7-15.6,10.4-25.1,10.4s-18.4-3.7-25.1-10.4C12,61.7,8.3,52.8,8.3,43.3S12,24.9,18.7,18.2S34.3,7.8,43.8,7.8V0z"/>
	</g>
	<g class="st1">
		<path class="st5" d="M60.2,67.2c-9,6-23.4,0.4-32.1-12.6s-8.4-28.4,0.6-34.5"/>
	</g>
	<g class="st1">
		<path class="st5" d="M37.3,17.5c-3,0-5.9,0.8-8.3,2.4c-9,6-9.3,21.5-0.6,34.5c6.3,9.4,15.7,15,23.7,15c3,0,5.9-0.8,8.3-2.4
			c9-6,9.3-21.5,0.6-34.5C54.7,23.1,45.4,17.5,37.3,17.5 M37.3,17.5v3.1c7.3,0,15.6,5.3,21.1,13.6c3.9,5.8,5.9,12.2,5.8,18
			c-0.1,5.4-2.1,9.7-5.5,12.1c-1.9,1.3-4.1,1.9-6.6,1.9c-7.3,0-15.6-5.3-21.1-13.6c-3.9-5.8-5.9-12.2-5.8-18
			c0.1-5.4,2.1-9.7,5.5-12.1c1.9-1.3,4.1-1.9,6.6-1.9L37.3,17.5z"/>
	</g>
	<g class="st1">
		<path class="st5" d="M36.1,25.6c3.1-2.1,7.1-1.6,8.9,1.1c1.8,2.7,0.7,6.6-2.4,8.7"/>
	</g>
	<g class="st1">
		<path class="st5" d="M43.9,37.3c3.1-2.1,7.1-1.6,8.9,1.1c1.8,2.7,0.7,6.6-2.4,8.7"/>
	</g>
	<g class="st1">
		<path class="st5" d="M51.9,49.2c3.1-2.1,7.1-1.6,8.9,1.1s0.7,6.6-2.4,8.7"/>
	</g>
	<g class="st1">
		
			<rect x="7.7" y="37.2" transform="matrix(0.7071 -0.7071 0.7071 0.7071 -17.3875 45.1518)" class="st8" width="76.2" height="12.7"/>
	</g>
</g>
<g id="non_gmo" class="st0">
	<g class="st1">
		<g>
			<path class="st7" d="M42.8,82.7c-19.4,0-36.2-14.5-38.9-33.8C0.8,27.4,15.8,7.4,37.3,4.3C39.2,4,41.1,3.9,43,3.9
				c19.4,0,36.2,14.5,38.9,33.8c1.5,10.4-1.1,20.8-7.4,29.2S59,80.8,48.6,82.3C46.6,82.6,44.6,82.7,42.8,82.7"/>
		</g>
		<g>
			<path class="st8" d="M42.9,0c-2.1,0-4.1,0.1-6.2,0.4C13,3.8-3.5,25.8-0.1,49.5C3,71.1,21.6,86.6,42.8,86.6c2.1,0,4.1-0.1,6.2-0.4
				c23.7-3.4,40.1-25.4,36.7-49.1C82.6,15.5,64.1,0,42.9,0 M42.9,0v7.9c8.4,0,16.6,3,23.1,8.6s10.8,13.3,12,21.8
				c1.4,9.4-1,18.7-6.7,26.3c-5.7,7.6-14,12.5-23.3,13.9c-1.7,0.2-3.4,0.4-5.1,0.4c-8.4,0-16.6-3-23.1-8.6S9,57,7.8,48.5
				c-1.4-9.4,1-18.7,6.7-26.3s14-12.5,23.3-13.9c1.7-0.2,3.4-0.4,5.1-0.4V0z"/>
		</g>
		<g>
			<path class="st5" d="M69,49.8L50.2,38.3c-2.4-1.5-4.3-3.5-5.7-6l-7.9-14.5l0.5-0.3c0.7-0.4,1-1.3,0.6-2l-0.1-0.1
				c-0.4-0.7-1.3-1-2-0.6L22.4,22c-0.7,0.4-1,1.3-0.6,2l0.1,0.1c0.4,0.7,1.3,1,2,0.6l0.5-0.3l7.9,14.5c1.3,2.4,2,5.2,1.9,8L33.6,69
				c-0.1,3.2,3.3,5.2,6.1,3.7l29.2-15.9C71.6,55.4,71.7,51.5,69,49.8"/>
		</g>
		<g>
			<path class="st7" d="M56,57c-2.2-0.6-3.5-3-2.8-5.2c0.6-2.2,3-3.5,5.2-2.8c2.2,0.6,3.5,3,2.8,5.2C60.5,56.4,58.2,57.7,56,57"/>
		</g>
		<g>
			<path class="st5" d="M57.2,57.9c-0.5,0-0.9-0.1-1.4-0.2l0,0c-2.5-0.7-4-3.4-3.2-5.9c0.4-1.2,1.2-2.2,2.3-2.8
				c1.1-0.6,2.4-0.7,3.6-0.4c2.5,0.7,4,3.4,3.2,5.9c-0.4,1.2-1.2,2.2-2.3,2.8C58.8,57.7,58,57.9,57.2,57.9z M56.2,56.4
				c0.9,0.3,1.9,0.2,2.7-0.3c0.8-0.4,1.4-1.2,1.7-2.1c0.5-1.9-0.5-3.8-2.4-4.4c-0.9-0.3-1.9-0.2-2.7,0.3c-0.8,0.4-1.4,1.2-1.7,2.1
				C53.3,53.9,54.4,55.9,56.2,56.4L56.2,56.4z"/>
		</g>
		<g>
			<path class="st7" d="M54.4,57.1c-1.2,0.7-2.8,0.2-3.4-1c-0.7-1.2-0.2-2.8,1-3.4c1.2-0.7,2.8-0.2,3.4,1
				C56.1,54.9,55.6,56.4,54.4,57.1"/>
		</g>
		<g>
			<path class="st5" d="M53.2,58c-1.1,0-2.2-0.6-2.8-1.6c-0.8-1.5-0.3-3.4,1.3-4.3c1.5-0.8,3.4-0.3,4.3,1.3c0.8,1.5,0.3,3.4-1.3,4.3
				l0,0C54.2,57.9,53.7,58,53.2,58z M53.2,53c-0.3,0-0.6,0.1-0.9,0.2c-0.9,0.5-1.3,1.6-0.8,2.6c0.5,0.9,1.6,1.2,2.6,0.8
				c0.9-0.5,1.3-1.6,0.8-2.6C54.5,53.4,53.9,53,53.2,53z"/>
		</g>
		<g>
			<path class="st7" d="M50.7,51.8c-0.5-0.8-0.1-1.9,0.7-2.3c0.8-0.5,1.9-0.1,2.3,0.7c0.5,0.8,0.1,1.9-0.7,2.3
				C52.2,52.9,51.2,52.6,50.7,51.8"/>
		</g>
		<g>
			<path class="st5" d="M52.2,53.3c-0.2,0-0.4,0-0.7-0.1c-0.6-0.2-1.1-0.6-1.4-1.1l0,0c-0.3-0.6-0.4-1.2-0.2-1.8
				c0.2-0.6,0.6-1.1,1.1-1.4c0.6-0.3,1.2-0.4,1.8-0.2c0.6,0.2,1.1,0.6,1.4,1.1c0.3,0.6,0.4,1.2,0.2,1.8c-0.2,0.6-0.6,1.1-1.1,1.4
				C53,53.2,52.6,53.3,52.2,53.3z M52.2,49.8c-0.2,0-0.4,0-0.5,0.1c-0.3,0.1-0.4,0.4-0.5,0.6c-0.1,0.3-0.1,0.6,0.1,0.8l0,0
				c0.1,0.3,0.4,0.4,0.6,0.5c0.3,0.1,0.6,0.1,0.8-0.1c0.3-0.1,0.4-0.4,0.5-0.7s0.1-0.6-0.1-0.8s-0.4-0.4-0.6-0.5
				C52.4,49.9,52.3,49.8,52.2,49.8z"/>
		</g>
		<g>
			
				<rect x="6.8" y="39.8" transform="matrix(0.7071 -0.7071 0.7071 0.7071 -19.4502 45.267)" class="st8" width="76.2" height="12.7"/>
		</g>
	</g>
</g>
<g id="dairy_free" class="st0">
	<g class="st1">
		<path class="st9" d="M43.6,82.7c-10.5,0-20.4-4.1-27.9-11.5c-15.4-15.4-15.4-40.4,0-55.7C23.1,8.1,33,4,43.6,4S64,8.1,71.5,15.5
			S83,32.8,83,43.3s-4.1,20.4-11.5,27.9S54.1,82.7,43.6,82.7"/>
	</g>
	<g class="st1">
		<path class="st10" d="M43.6,0C32.5,0,21.4,4.2,13,12.7C-3.9,29.6-3.9,57.1,13,74c8.5,8.5,19.5,12.7,30.6,12.7S65.8,82.5,74.2,74
			c16.9-16.9,16.9-44.4,0-61.3C65.8,4.2,54.7,0,43.6,0 M43.6,7.9c9.5,0,18.4,3.7,25.1,10.4s10.4,15.6,10.4,25.1s-3.7,18.4-10.4,25.1
			S53.1,78.8,43.6,78.8s-18.4-3.7-25.1-10.4c-13.8-13.8-13.8-36.3,0-50.2C25.2,11.6,34.1,7.9,43.6,7.9"/>
	</g>
	<g class="st1">
		<path class="st5" d="M52.3,34.3c-0.1-0.2-0.4-0.5-0.5-0.6c-0.9-1.1-8.7-4.6-9.5-5.3s-1.6-2.6-1.6-2.6s0-0.3,0-0.5
			c0.1-0.6,0.9-3.2,1-3.5c0-0.1,0-0.3-0.1-0.3l0,0L38.8,17c-0.6-0.9-1.7-1.2-2.6-0.6l-5.9,3.7l-2.7,1.7l-5.9,3.7
			c-0.9,0.6-1.2,1.7-0.6,2.6l2.8,4.5l0,0c0.1,0.1,0.2,0.2,0.3,0.2c0.3,0.1,2.9,0.5,3.5,0.6c0.2,0,0.5,0.2,0.5,0.2s1.4,1.5,1.6,2.6
			c0.2,1.1,0,9.6,0.5,10.9c0,0.1,0.2,0.5,0.3,0.7C32.1,50.6,41.9,66,43.8,69c0.1,0.2,0.7,0.7,1,1c0.2,0.1,0.4,0.3,0.6,0.3
			c1.1,0.4,4.5,1.2,11.1-2.1l0.1,0.1c0.4-0.3,0.9-0.6,1.3-0.9l0.1-0.1c0.4-0.2,0.9-0.5,1.3-0.8l-0.1-0.1c5.9-4.4,6.7-7.9,6.7-9.1
			c0-0.2,0-0.4-0.1-0.7c-0.1-0.4-0.3-1-0.4-1.3C63.6,52.5,54.1,36.9,52.3,34.3"/>
	</g>
	<g class="st1">
		<path class="st9" d="M53.3,44.9c0.8-0.7,2.1-0.5,2.7,0.4l5.8,9c0,0,1.7,2.9,0.5,5S59,63.1,56,64.8c-2.9,1.8-7.2,3.4-10.1,2.1
			c-2.2-1-5.8-7.7-7.5-10.9c-0.5-0.9,0-2.1,0.9-2.5c1.9-0.8,5.1-2.1,7.4-3.6C49.4,48.3,51.8,46.2,53.3,44.9"/>
	</g>
	<g class="st1">
		<g>
			
				<rect x="5.7" y="36" transform="matrix(0.7071 -0.7071 0.7071 0.7071 -17.137 43.3542)" class="st10" width="76.2" height="12.7"/>
		</g>
	</g>
</g>
<g id="usda_organic">
	<g>
		<circle class="st5" cx="43" cy="42.9" r="38.8"/>
		<g>
			<g>
				<path class="st11" d="M80.2,43c0,20.5-16.6,37.2-37.2,37.2C22.5,80.2,5.8,63.6,5.8,43H80.2z"/>
			</g>
			<g>
				<path class="st12" d="M43,86C19.3,86,0,66.7,0,43S19.3,0,43,0s43,19.3,43,43S66.7,86,43,86z M43,5.5C22.3,5.5,5.5,22.3,5.5,43
					S22.3,80.5,43,80.5S80.5,63.7,80.5,43S63.7,5.5,43,5.5z"/>
			</g>
			<g>
				<path class="st13" d="M20.9,22.4h3.8v12.1c0,0.8,0.2,1.4,1.3,1.4c1,0,1.3-0.9,1.3-1.5v-12H31V34c0,2.7-1.2,4.8-5.1,4.8
					c-3.2,0-5.1-1.5-5.1-4.8L20.9,22.4L20.9,22.4z"/>
			</g>
			<g>
				<path class="st13" d="M35.7,33.1v1.1c0,0.9,0.3,1.7,1.5,1.7c0.9,0,1.3-0.8,1.3-1.6c0-1.3-1.1-1.9-2.1-2.5
					c-1.2-0.7-2.1-1.3-2.8-2.1s-1.1-1.8-1.1-3.2c0-3,1.8-4.6,4.7-4.6c3.3,0,4.9,2.2,4.8,5.2h-3.5c0-0.9,0-2.2-1.2-2.3
					c-0.8-0.1-1.2,0.4-1.3,1.1c-0.1,1,0.4,1.5,1.1,2c1.4,0.9,2.6,1.5,3.5,2.3S42,32.1,42,34c0,3.1-1.7,4.8-4.8,4.8
					c-3.4,0-4.9-1.9-4.9-4v-1.7C32.3,33.1,35.7,33.1,35.7,33.1z"/>
			</g>
			<g>
				<path class="st13" d="M48.6,38.4c1.2,0,2.4-0.1,3.3-0.8c1.1-0.7,1.6-1.9,1.6-3.5V27c0-1.5-0.2-3.1-1.7-4
					c-1.2-0.7-2.9-0.7-4.2-0.7h-4.1v16.1C43.5,38.4,48.6,38.4,48.6,38.4z M47.3,25.3c1.8,0,2.5,0.2,2.5,2v5.2c0.1,2.1,0,3.2-2.5,3
					V25.3z"/>
			</g>
		</g>
		<g>
			<path class="st13" d="M58.5,38.4l0.4-3.1h3l0.5,3.1h3.8l-3.5-16.1h-4.5l-3.5,16.1C54.7,38.4,58.5,38.4,58.5,38.4z M61.5,32.5
				h-2.2l1.1-7.2l0,0L61.5,32.5z"/>
		</g>
		<g>
			<path class="st5" d="M22.5,51.1c0-2.3-1.3-3.6-3.8-3.6s-3.9,1.3-3.9,3.6V56c0,2.7,1,4.1,3.9,4.1s3.8-1.4,3.8-4.1V51.1z
				 M19.6,56.2c0,0.7-0.1,1.7-1,1.7s-1-1-1-1.7v-4.9c0-0.7,0.1-1.6,1-1.6s1,0.9,1,1.6V56.2z"/>
		</g>
		<g>
			<path class="st5" d="M26.6,55.1h0.9c0.7,0,0.9,0.5,1,1.3c0.1,0.7,0,1.7,0.1,2.8c0,0.2,0.1,0.5,0.2,0.7h3.1v-0.2
				c-0.1-0.1-0.2-0.3-0.3-0.4c-0.2-0.8-0.2-2.8-0.3-3.8c0-0.8-0.6-1.4-1.4-1.6l0,0c1.2-0.5,1.5-1.5,1.5-2.7c0-2.4-1.2-3.3-3.5-3.3
				h-4.1v12h2.8V55.1z M26.6,50c1.4,0,2,0,2,1.5c0,0.7-0.2,1.5-1,1.5h-1V50z"/>
		</g>
		<g>
			<path class="st5" d="M38.3,59.8l-0.1-1.1l0,0c-0.6,1-1.2,1.3-2.4,1.3c-2.4,0-3.2-1.7-3.2-3.8v-4.9c0-2.6,1.2-3.8,3.8-3.8
				c2.4,0,3.8,1,3.8,3.5v0.9h-2.8v-0.7c0-1-0.1-1.5-0.9-1.6c-0.9,0-1.1,0.5-1.1,1.3v6c0,0.7,0.3,1.1,1,1.1c1,0,1-0.8,1-1.5v-0.9h-1
				v-2.2h3.8v6.5L38.3,59.8C38.3,59.9,38.3,59.8,38.3,59.8z"/>
		</g>
		<g>
			<path class="st5" d="M43.9,59.8l0.3-2.3h2.2l0.4,2.3h2.9l-2.6-12h-3.4l-2.6,12H43.9z M46.2,55.4h-1.6l0.8-5.4l0,0L46.2,55.4z"/>
		</g>
		<g>
			<polygon class="st5" points="53,53.1 53,53.1 53.2,59.8 50.6,59.8 50.6,47.8 53.5,47.8 55.6,54.5 55.7,54.5 55.4,47.8 58.1,47.8 
				58.1,59.8 55.2,59.8 			"/>
		</g>
		<g>
			<rect x="59.6" y="47.8" class="st5" width="2.8" height="12"/>
		</g>
		<g>
			<path class="st5" d="M68.7,52v-0.8c0-1-0.4-1.6-0.9-1.6c-0.9,0-1.1,0.5-1.1,1.3v6c0,0.7,0.3,1.1,1,1.1c1,0,1-1,1-1.7v-1.1h2.8
				v1.5c0,2.1-1.2,3.5-4.1,3.5c-2.6,0-3.6-1.4-3.6-3.8v-4.9c0-2.6,1.2-3.8,3.8-3.8c2.4,0,3.9,1,3.9,3.5v1h-2.8
				C68.7,52.2,68.7,52,68.7,52z"/>
		</g>
	</g>
</g>
</svg>
