<?xml version="1.0" encoding="utf-8"?>
<!-- Generator: Adobe Illustrator 22.1.0, SVG Export Plug-In . SVG Version: 6.00 Build 0)  -->
<svg version="1.1" id="Layer_1" xmlns="http://www.w3.org/2000/svg" xmlns:xlink="http://www.w3.org/1999/xlink" x="0px" y="0px"
	 viewBox="0 0 145.8 173.5" style="enable-background:new 0 0 145.8 173.5;" xml:space="preserve">
<style type="text/css">
	.st0{fill:#33813E;}
	.st1{fill:#43AD4A;}
	.st2{fill:#FFFFFF;}
	.st3{enable-background:new    ;}
</style>
<g id="soy_free">
	<g>
		<path class="st0" d="M73.8,95c-10.5,0-20.4-4.1-27.9-11.5c-15.4-15.4-15.4-40.4,0-55.7c7.4-7.4,17.3-11.5,27.9-11.5
			s20.4,4.1,27.9,11.5s11.5,17.3,11.5,27.9c0,10.5-4.1,20.4-11.5,27.9S84.3,95,73.8,95"/>
	</g>
	<g>
		<path class="st1" d="M73.8,12.3c-11.1,0-22.2,4.2-30.6,12.7c-16.9,16.9-16.9,44.4,0,61.3C51.7,94.8,62.7,99,73.8,99
			s22.2-4.2,30.6-12.7c16.9-16.9,16.9-44.4,0-61.3C96,16.5,84.9,12.3,73.8,12.3 M73.8,12.3v7.9c9.5,0,18.4,3.7,25.1,10.4
			s10.4,15.6,10.4,25.1s-3.7,18.4-10.4,25.1c-6.7,6.7-15.6,10.4-25.1,10.4s-18.4-3.7-25.1-10.4C42,74,38.3,65.1,38.3,55.6
			S42,37.2,48.7,30.5s15.6-10.4,25.1-10.4V12.3z"/>
	</g>
	<g>
		<path class="st2" d="M90.2,79.5c-9,6-23.4,0.4-32.1-12.6s-8.4-28.4,0.6-34.5"/>
	</g>
	<g>
		<path class="st2" d="M67.3,29.8c-3,0-5.9,0.8-8.3,2.4c-9,6-9.3,21.5-0.6,34.5c6.3,9.4,15.7,15,23.7,15c3,0,5.9-0.8,8.3-2.4
			c9-6,9.3-21.5,0.6-34.5C84.7,35.4,75.4,29.8,67.3,29.8 M67.3,29.8v3.1c7.3,0,15.6,5.3,21.1,13.6c3.9,5.8,5.9,12.2,5.8,18
			c-0.1,5.4-2.1,9.7-5.5,12.1c-1.9,1.3-4.1,1.9-6.6,1.9c-7.3,0-15.6-5.3-21.1-13.6c-3.9-5.8-5.9-12.2-5.8-18
			c0.1-5.4,2.1-9.7,5.5-12.1c1.9-1.3,4.1-1.9,6.6-1.9L67.3,29.8z"/>
	</g>
	<g>
		<path class="st2" d="M66.1,37.9c3.1-2.1,7.1-1.6,8.9,1.1c1.8,2.7,0.7,6.6-2.4,8.7"/>
	</g>
	<g>
		<path class="st2" d="M73.9,49.6c3.1-2.1,7.1-1.6,8.9,1.1c1.8,2.7,0.7,6.6-2.4,8.7"/>
	</g>
	<g>
		<path class="st2" d="M81.9,61.5c3.1-2.1,7.1-1.6,8.9,1.1s0.7,6.6-2.4,8.7"/>
	</g>
	<g>
		
			<rect x="37.7" y="49.5" transform="matrix(0.7071 -0.7071 0.7071 0.7071 -17.2981 69.9676)" class="st1" width="76.2" height="12.7"/>
	</g>
	<g class="st3">
		<path class="st0" d="M53,124.7c0,0,0-0.1,0-0.1c0-0.9,0.3-1.7,0.8-2.5c0.2,0.1,0.4,0.1,0.8,0.2c0.3,0.1,0.9,0.2,1.7,0.4
			c0.8,0.2,1.6,0.2,2.3,0.2c1.2,0,2-0.2,2.6-0.6c0.5-0.4,0.8-1,0.8-1.9c0-0.3-0.1-0.6-0.2-0.9c-0.1-0.3-0.3-0.5-0.6-0.7
			c-0.3-0.2-0.5-0.4-0.8-0.5c-0.3-0.1-0.7-0.3-1.1-0.4c-0.2-0.1-0.6-0.2-1-0.4c-0.5-0.2-0.8-0.3-1.1-0.4c-0.3-0.1-0.6-0.2-1-0.4
			c-0.4-0.2-0.8-0.4-1-0.5c-0.3-0.2-0.5-0.4-0.8-0.7c-0.3-0.3-0.5-0.6-0.7-0.9c-0.2-0.3-0.3-0.7-0.4-1.1s-0.2-0.9-0.2-1.4
			c0-1.7,0.5-3,1.6-4s2.7-1.5,4.8-1.5c0.9,0,1.8,0.1,2.7,0.2c0.9,0.1,1.5,0.3,1.9,0.4l0.6,0.2c0,0.5-0.1,1-0.2,1.4
			c-0.1,0.5-0.4,0.9-0.6,1.2c-0.1,0-0.3-0.1-0.5-0.2c-0.2-0.1-0.7-0.1-1.3-0.3c-0.7-0.1-1.3-0.2-1.9-0.2c-2.5,0-3.7,0.8-3.7,2.5
			c0,0.2,0,0.4,0.1,0.6c0.1,0.2,0.2,0.4,0.4,0.5c0.2,0.2,0.4,0.3,0.5,0.4c0.2,0.1,0.4,0.2,0.7,0.4s0.6,0.2,0.8,0.3
			c0.2,0.1,0.5,0.2,0.9,0.3c0.4,0.1,0.7,0.2,0.9,0.3c0.4,0.2,0.8,0.3,1.1,0.5c0.3,0.2,0.7,0.3,1.1,0.6s0.7,0.5,1,0.7
			c0.3,0.3,0.5,0.6,0.7,0.9c0.2,0.3,0.4,0.7,0.5,1.2c0.1,0.5,0.2,1,0.2,1.5c0,1.8-0.6,3.2-1.7,4.1c-1.1,0.9-2.7,1.4-4.9,1.4
			c-1,0-2-0.1-3-0.3s-1.6-0.4-2.1-0.6L53,124.7z"/>
		<path class="st0" d="M69.1,124.1c-1-1.1-1.5-2.9-1.5-5.3c0-2.4,0.5-4.2,1.5-5.3c1-1.1,2.5-1.7,4.4-1.7c1.9,0,3.4,0.6,4.4,1.7
			s1.5,2.9,1.5,5.4c0,2.5-0.5,4.2-1.5,5.4c-1,1.1-2.5,1.7-4.4,1.7C71.6,125.8,70.1,125.3,69.1,124.1z M71,116.6
			c-0.1,0.6-0.2,1.3-0.2,2.2c0,0.9,0.1,1.6,0.2,2.2c0.1,0.6,0.3,1.1,0.5,1.4c0.2,0.3,0.5,0.6,0.8,0.7c0.3,0.1,0.7,0.2,1.1,0.2
			s0.8-0.1,1.1-0.2c0.3-0.1,0.6-0.4,0.8-0.7c0.2-0.3,0.4-0.8,0.5-1.4c0.1-0.6,0.2-1.3,0.2-2.2c0-0.9-0.1-1.6-0.2-2.2
			s-0.3-1.1-0.5-1.4c-0.2-0.3-0.5-0.6-0.8-0.7s-0.7-0.2-1.1-0.2s-0.8,0.1-1.1,0.2c-0.3,0.1-0.6,0.4-0.8,0.7
			C71.3,115.5,71.2,116,71,116.6z"/>
		<path class="st0" d="M80.6,112.2c0.4-0.1,1-0.2,1.7-0.2c0.3,0,0.6,0,0.9,0.1c0.3,0,0.5,0.1,0.6,0.1l0.2,0.1l2.4,6.9
			c0.2,0.6,0.4,1.1,0.5,1.7c0.1,0.5,0.2,0.9,0.3,1.2l0.1,0.4h0.1c0.2-0.9,0.4-1.9,0.8-3.2l2.1-6.9c0.3-0.1,0.9-0.2,1.5-0.2
			c0.3,0,0.5,0,0.8-0.1c0.2-0.1,0.4-0.1,0.5-0.2l0.2-0.1L88.6,127c-0.2,0.6-0.3,1.1-0.5,1.5s-0.3,0.8-0.5,1.2s-0.4,0.7-0.6,1
			c-0.2,0.3-0.5,0.5-0.8,0.7c-0.3,0.2-0.7,0.4-1.1,0.5c-0.4,0.1-0.9,0.1-1.4,0.1c-0.3,0-0.5,0-0.8-0.1s-0.4-0.1-0.5-0.1l-0.2-0.1
			c-0.2-0.4-0.2-0.8-0.2-1.2c0-0.2,0-0.4,0.1-0.6c0-0.2,0.1-0.4,0.1-0.5l0.1-0.2c0.4,0.1,0.8,0.1,1.2,0.1c0.3,0,0.5,0,0.7,0
			c0.2,0,0.3-0.1,0.5-0.2c0.2-0.1,0.4-0.2,0.5-0.4c0.1-0.2,0.3-0.5,0.4-0.8s0.3-0.8,0.5-1.3l0.3-1c-0.4,0-0.7-0.1-1-0.2L80.6,112.2z
			"/>
	</g>
	<g class="st3">
		<path class="st0" d="M49.8,152.1v-18.3h10.4c0.2,0.5,0.3,0.9,0.3,1.3c0,0.5-0.1,0.9-0.3,1.3h-7.1v5.6h6.3c0.2,0.3,0.3,0.8,0.3,1.3
			c0,0.5-0.1,1-0.3,1.4h-6.3v7.4c-0.4,0.2-0.9,0.2-1.7,0.2c-0.3,0-0.6,0-0.9-0.1c-0.3,0-0.5-0.1-0.6-0.1L49.8,152.1z"/>
		<path class="st0" d="M62.5,152.2V139c0.3-0.1,0.9-0.2,1.6-0.2c0.3,0,0.6,0,0.9,0c0.3,0,0.5,0.1,0.6,0.1l0.2,0v1.5
			c0.9-1.3,1.9-1.9,2.9-1.9c0.8,0,1.6,0.2,2.3,0.7c-0.1,1.1-0.6,2-1.4,2.7c-0.5-0.4-1-0.6-1.5-0.6c-0.9,0-1.6,0.4-2.2,1.3v9.4
			c-0.4,0.1-0.9,0.2-1.6,0.2c-0.3,0-0.6,0-0.9-0.1c-0.3,0-0.5-0.1-0.6-0.1L62.5,152.2z"/>
		<path class="st0" d="M71.9,145.5c0-2.4,0.5-4.1,1.5-5.2c1-1.1,2.5-1.7,4.3-1.7c1.7,0,3,0.4,3.9,1.3c0.9,0.9,1.4,2.2,1.4,4
			c0,0.5,0,1-0.1,1.4c0,0.5-0.1,0.8-0.1,1l-0.1,0.3h-7.6c0.1,1.2,0.4,2.1,1,2.6c0.5,0.5,1.3,0.7,2.2,0.7c0.5,0,1-0.1,1.5-0.2
			c0.5-0.1,0.9-0.2,1.1-0.3l0.4-0.2c0.3,0.3,0.5,0.6,0.7,1c0.2,0.4,0.3,0.8,0.3,1.3c0,0-0.1,0.1-0.2,0.1c-0.1,0-0.3,0.1-0.5,0.3
			c-0.3,0.1-0.6,0.2-0.9,0.3c-0.3,0.1-0.7,0.2-1.2,0.3c-0.5,0.1-1,0.1-1.6,0.1c-2.1,0-3.6-0.6-4.6-1.8S71.9,147.9,71.9,145.5z
			 M75.2,144.4h4.5c0-0.4,0.1-0.7,0.1-0.9c0-1.6-0.7-2.4-2.1-2.4C76.3,141.1,75.4,142.2,75.2,144.4z"/>
		<path class="st0" d="M85.2,145.5c0-2.4,0.5-4.1,1.5-5.2s2.5-1.7,4.3-1.7c1.7,0,3,0.4,3.9,1.3c0.9,0.9,1.4,2.2,1.4,4
			c0,0.5,0,1-0.1,1.4c0,0.5-0.1,0.8-0.1,1l-0.1,0.3h-7.6c0.1,1.2,0.4,2.1,1,2.6c0.5,0.5,1.3,0.7,2.2,0.7c0.5,0,1-0.1,1.5-0.2
			c0.5-0.1,0.9-0.2,1.1-0.3l0.4-0.2c0.3,0.3,0.5,0.6,0.7,1c0.2,0.4,0.3,0.8,0.3,1.3c0,0-0.1,0.1-0.2,0.1c-0.1,0-0.3,0.1-0.5,0.3
			c-0.3,0.1-0.6,0.2-0.9,0.3c-0.3,0.1-0.7,0.2-1.2,0.3c-0.5,0.1-1,0.1-1.6,0.1c-2.1,0-3.6-0.6-4.6-1.8S85.2,147.9,85.2,145.5z
			 M88.5,144.4H93c0-0.4,0-0.7,0-0.9c0-1.6-0.7-2.4-2.1-2.4C89.5,141.1,88.7,142.2,88.5,144.4z"/>
	</g>
</g>
</svg>
