<?xml version="1.0" encoding="utf-8"?>
<!-- Generator: Adobe Illustrator 22.1.0, SVG Export Plug-In . SVG Version: 6.00 Build 0)  -->
<svg version="1.1" id="Layer_1" xmlns="http://www.w3.org/2000/svg" xmlns:xlink="http://www.w3.org/1999/xlink" x="0px" y="0px"
	 viewBox="0 0 145.8 173.5" style="enable-background:new 0 0 145.8 173.5;" xml:space="preserve">
<style type="text/css">
	.st0{fill:#067DA6;}
	.st1{fill:#09B4E4;}
	.st2{fill:#FFFFFF;}
	.st3{enable-background:new    ;}
</style>
<g id="dairy_free">
	<g>
		<path class="st0" d="M73.6,95c-10.5,0-20.4-4.1-27.9-11.5c-15.4-15.4-15.4-40.4,0-55.7c7.4-7.4,17.3-11.5,27.9-11.5
			s20.4,4.1,27.9,11.5S113,45.1,113,55.6s-4.1,20.4-11.5,27.9S84.1,95,73.6,95"/>
	</g>
	<g>
		<path class="st1" d="M73.6,12.3C62.5,12.3,51.4,16.5,43,25c-16.9,16.9-16.9,44.4,0,61.3C51.5,94.8,62.5,99,73.6,99
			s22.2-4.2,30.6-12.7c16.9-16.9,16.9-44.4,0-61.3C95.8,16.5,84.7,12.3,73.6,12.3 M73.6,20.2c9.5,0,18.4,3.7,25.1,10.4
			s10.4,15.6,10.4,25.1s-3.7,18.4-10.4,25.1S83.1,91.1,73.6,91.1s-18.4-3.7-25.1-10.4c-13.8-13.8-13.8-36.3,0-50.2
			C55.2,23.9,64.1,20.2,73.6,20.2"/>
	</g>
	<g>
		<path class="st2" d="M82.3,46.6c-0.1-0.2-0.4-0.5-0.5-0.6c-0.9-1.1-8.7-4.6-9.5-5.3s-1.6-2.6-1.6-2.6s0-0.3,0-0.5
			c0.1-0.6,0.9-3.2,1-3.5c0-0.1,0-0.3-0.1-0.3l0,0l-2.8-4.5c-0.6-0.9-1.7-1.2-2.6-0.6l-5.9,3.7l-2.7,1.7l-5.9,3.7
			c-0.9,0.6-1.2,1.7-0.6,2.6l2.8,4.5l0,0c0.1,0.1,0.2,0.2,0.3,0.2c0.3,0.1,2.9,0.5,3.5,0.6c0.2,0,0.5,0.2,0.5,0.2s1.4,1.5,1.6,2.6
			c0.2,1.1,0,9.6,0.5,10.9c0,0.1,0.2,0.5,0.3,0.7c1.5,2.8,11.3,18.2,13.2,21.2c0.1,0.2,0.7,0.7,1,1c0.2,0.1,0.4,0.3,0.6,0.3
			c1.1,0.4,4.5,1.2,11.1-2.1l0.1,0.1c0.4-0.3,0.9-0.6,1.3-0.9l0.1-0.1c0.4-0.2,0.9-0.5,1.3-0.8l-0.1-0.1c5.9-4.4,6.7-7.9,6.7-9.1
			c0-0.2,0-0.4-0.1-0.7c-0.1-0.4-0.3-1-0.4-1.3C93.6,64.8,84.1,49.2,82.3,46.6"/>
	</g>
	<g>
		<path class="st0" d="M83.3,57.2c0.8-0.7,2.1-0.5,2.7,0.4l5.8,9c0,0,1.7,2.9,0.5,5S89,75.4,86,77.1c-2.9,1.8-7.2,3.4-10.1,2.1
			c-2.2-1-5.8-7.7-7.5-10.9c-0.5-0.9,0-2.1,0.9-2.5c1.9-0.8,5.1-2.1,7.4-3.6C79.4,60.6,81.8,58.5,83.3,57.2"/>
	</g>
	<g>
		<g>
			
				<rect x="35.7" y="48.3" transform="matrix(0.7071 -0.7071 0.7071 0.7071 -17.0477 68.17)" class="st1" width="76.2" height="12.7"/>
		</g>
	</g>
	<g class="st3">
		<path class="st0" d="M43.3,126v-18.5h6c5.1,0,7.6,3.1,7.6,9.3s-2.5,9.3-7.6,9.3H43.3z M46.6,123.2h2.5c0.5,0,1-0.1,1.4-0.2
			c0.4-0.1,0.8-0.3,1.2-0.6s0.7-0.7,0.9-1.1s0.4-1.1,0.6-1.9s0.2-1.7,0.2-2.8s-0.1-2-0.2-2.8s-0.3-1.4-0.6-1.9
			c-0.2-0.5-0.6-0.9-0.9-1.1s-0.8-0.5-1.2-0.6s-0.9-0.2-1.4-0.2h-2.5V123.2z"/>
		<path class="st0" d="M59.1,121.8c0-1.4,0.4-2.5,1.3-3.1c0.8-0.7,2.1-1,3.7-1c0.9,0,1.7,0,2.6,0.1v-0.6c0-1.6-0.8-2.4-2.3-2.4
			c-0.5,0-1,0.1-1.6,0.2c-0.5,0.1-1,0.2-1.3,0.3l-0.4,0.2c-0.3-0.2-0.5-0.5-0.7-1c-0.1-0.2-0.2-0.4-0.2-0.6c0-0.2,0-0.4,0-0.5l0-0.2
			c0,0,0.1-0.1,0.2-0.1c0.1,0,0.3-0.1,0.6-0.3s0.6-0.2,1-0.3c0.3-0.1,0.8-0.2,1.3-0.2s1-0.1,1.5-0.1c1.8,0,3.2,0.4,4,1.2
			c0.8,0.8,1.2,2,1.2,3.6v8.8c-0.2,0.1-0.7,0.2-1.3,0.2c-0.2,0-0.5,0-0.7,0c-0.2,0-0.4-0.1-0.5-0.1l-0.2-0.1l-0.5-1.4
			c-0.6,1.2-1.9,1.8-3.8,1.8c-1.2,0-2.2-0.4-2.9-1.1S59.1,123.3,59.1,121.8z M62.4,121.7c0,0.7,0.2,1.2,0.5,1.5
			c0.3,0.3,0.8,0.5,1.4,0.5c0.4,0,0.8-0.1,1.1-0.3c0.3-0.2,0.6-0.4,0.7-0.7c0.2-0.3,0.3-0.6,0.4-1c0.1-0.3,0.1-0.7,0.1-1V120
			c-0.9-0.1-1.6-0.1-2.1-0.1C63.1,119.9,62.4,120.5,62.4,121.7z"/>
		<path class="st0" d="M73.2,110.2v-3c0.3-0.1,0.9-0.2,1.6-0.2c0.3,0,0.6,0,0.9,0c0.3,0,0.5,0.1,0.6,0.1l0.2,0.1v3
			c-0.4,0.1-0.9,0.2-1.6,0.2c-0.3,0-0.6,0-0.9,0c-0.3,0-0.5-0.1-0.6-0.1L73.2,110.2z M73.2,125.8v-13.1c0.3-0.1,0.9-0.2,1.6-0.2
			c0.3,0,0.6,0,0.9,0.1s0.5,0.1,0.6,0.1l0.2,0v13.1c-0.4,0.1-0.9,0.2-1.6,0.2c-0.3,0-0.6,0-0.9,0c-0.3,0-0.5-0.1-0.6-0.1L73.2,125.8
			z"/>
		<path class="st0" d="M79.9,125.8v-13.1c0.3-0.1,0.9-0.2,1.6-0.2c0.3,0,0.6,0,0.9,0c0.3,0,0.5,0.1,0.6,0.1l0.2,0v1.5
			c0.9-1.3,1.9-1.9,2.9-1.9c0.8,0,1.6,0.2,2.3,0.7c-0.1,1.1-0.6,2-1.4,2.7c-0.5-0.4-1-0.6-1.5-0.6c-0.9,0-1.6,0.4-2.2,1.3v9.4
			c-0.4,0.1-0.9,0.2-1.6,0.2c-0.3,0-0.6,0-0.9-0.1c-0.3,0-0.5-0.1-0.6-0.1L79.9,125.8z"/>
		<path class="st0" d="M88.8,112.6c0.4-0.1,1-0.2,1.7-0.2c0.3,0,0.6,0,0.9,0.1c0.3,0,0.5,0.1,0.6,0.1l0.2,0.1l2.4,6.9
			c0.2,0.6,0.4,1.1,0.5,1.7c0.1,0.5,0.2,0.9,0.3,1.2l0.1,0.4h0.1c0.2-0.9,0.4-1.9,0.8-3.2l2.1-6.9c0.3-0.1,0.9-0.2,1.5-0.2
			c0.3,0,0.5,0,0.8-0.1c0.2-0.1,0.4-0.1,0.5-0.2l0.2-0.1l-4.7,15.3c-0.2,0.6-0.3,1.1-0.5,1.5c-0.1,0.4-0.3,0.8-0.5,1.2
			s-0.4,0.7-0.6,1c-0.2,0.3-0.5,0.5-0.8,0.7c-0.3,0.2-0.7,0.4-1.1,0.5c-0.4,0.1-0.9,0.1-1.4,0.1c-0.3,0-0.5,0-0.8-0.1
			s-0.4-0.1-0.5-0.1l-0.2-0.1c-0.2-0.4-0.2-0.8-0.2-1.2c0-0.2,0-0.4,0.1-0.6c0-0.2,0.1-0.4,0.1-0.5l0.1-0.2c0.4,0.1,0.8,0.1,1.2,0.1
			c0.3,0,0.5,0,0.7,0c0.2,0,0.3-0.1,0.5-0.2c0.2-0.1,0.4-0.2,0.5-0.4c0.1-0.2,0.3-0.5,0.4-0.8c0.2-0.3,0.3-0.8,0.5-1.3l0.3-1
			c-0.4,0-0.7-0.1-1-0.2L88.8,112.6z"/>
	</g>
	<g class="st3">
		<path class="st0" d="M48.6,152.6v-18.3H59c0.2,0.5,0.3,0.9,0.3,1.3c0,0.5-0.1,0.9-0.3,1.3h-7.1v5.6h6.3c0.2,0.3,0.3,0.8,0.3,1.3
			c0,0.5-0.1,1-0.3,1.4h-6.3v7.4c-0.4,0.2-0.9,0.2-1.7,0.2c-0.3,0-0.6,0-0.9-0.1c-0.3,0-0.5-0.1-0.6-0.1L48.6,152.6z"/>
		<path class="st0" d="M61.3,152.6v-13.1c0.3-0.1,0.9-0.2,1.6-0.2c0.3,0,0.6,0,0.9,0c0.3,0,0.5,0.1,0.6,0.1l0.2,0v1.5
			c0.9-1.3,1.9-1.9,2.9-1.9c0.8,0,1.6,0.2,2.3,0.7c-0.1,1.1-0.6,2-1.4,2.7c-0.5-0.4-1-0.6-1.5-0.6c-0.9,0-1.6,0.4-2.2,1.3v9.4
			c-0.4,0.1-0.9,0.2-1.6,0.2c-0.3,0-0.6,0-0.9-0.1c-0.3,0-0.5-0.1-0.6-0.1L61.3,152.6z"/>
		<path class="st0" d="M70.7,145.9c0-2.4,0.5-4.1,1.5-5.2c1-1.1,2.5-1.7,4.3-1.7c1.7,0,3,0.4,3.9,1.3c0.9,0.9,1.4,2.2,1.4,4
			c0,0.5,0,1-0.1,1.4c0,0.5-0.1,0.8-0.1,1l-0.1,0.3H74c0.1,1.2,0.4,2.1,1,2.6c0.5,0.5,1.3,0.7,2.2,0.7c0.5,0,1-0.1,1.5-0.2
			c0.5-0.1,0.9-0.2,1.1-0.3l0.4-0.2c0.3,0.3,0.5,0.6,0.7,1c0.2,0.4,0.3,0.8,0.3,1.3c0,0-0.1,0.1-0.2,0.1c-0.1,0-0.3,0.1-0.5,0.3
			c-0.3,0.1-0.6,0.2-0.9,0.3c-0.3,0.1-0.7,0.2-1.2,0.3c-0.5,0.1-1,0.1-1.6,0.1c-2.1,0-3.6-0.6-4.6-1.8S70.7,148.3,70.7,145.9z
			 M74,144.8h4.6c0-0.4,0-0.7,0-0.9c0-1.6-0.7-2.4-2.1-2.4C75.1,141.5,74.2,142.6,74,144.8z"/>
		<path class="st0" d="M84,145.9c0-2.4,0.5-4.1,1.5-5.2s2.5-1.7,4.3-1.7c1.7,0,3,0.4,3.9,1.3c0.9,0.9,1.4,2.2,1.4,4
			c0,0.5,0,1-0.1,1.4c0,0.5-0.1,0.8-0.1,1l-0.1,0.3h-7.6c0.1,1.2,0.4,2.1,1,2.6c0.5,0.5,1.3,0.7,2.2,0.7c0.5,0,1-0.1,1.5-0.2
			c0.5-0.1,0.9-0.2,1.1-0.3l0.4-0.2c0.3,0.3,0.5,0.6,0.7,1c0.2,0.4,0.3,0.8,0.3,1.3c0,0-0.1,0.1-0.2,0.1c-0.1,0-0.3,0.1-0.5,0.3
			c-0.3,0.1-0.6,0.2-0.9,0.3c-0.3,0.1-0.7,0.2-1.2,0.3c-0.5,0.1-1,0.1-1.6,0.1c-2.1,0-3.6-0.6-4.6-1.8S84,148.3,84,145.9z
			 M87.3,144.8h4.6c0-0.4,0-0.7,0-0.9c0-1.6-0.7-2.4-2.1-2.4C88.3,141.5,87.5,142.6,87.3,144.8z"/>
	</g>
</g>
</svg>
