<?xml version="1.0" encoding="utf-8"?>
<!-- Generator: Adobe Illustrator 23.0.1, SVG Export Plug-In . SVG Version: 6.00 Build 0)  -->
<svg version="1.1" id="Layer_1" xmlns="http://www.w3.org/2000/svg" xmlns:xlink="http://www.w3.org/1999/xlink" x="0px" y="0px"
	 viewBox="0 0 685.1 657.9" style="enable-background:new 0 0 685.1 657.9;" xml:space="preserve">
<style type="text/css">
	.st0{fill:#E9EFF4;}
	.st1{fill:#67676E;}
	.st2{fill:#D3D9DD;}
	.st3{fill:#08B5E5;}
	.st4{fill:#3E4347;}
	.st5{fill:#DF6000;}
	.st6{fill:#FFFFFF;}
</style>
<g>
	<g id="XMLID_836_">
		<rect id="XMLID_857_" x="175.6" y="141" class="st0" width="333.8" height="477.7"/>
		<g>
			<g id="XMLID_856_">
				<rect x="144.4" y="106.6" class="st1" width="396.2" height="34.4"/>
			</g>
		</g>
		<rect id="XMLID_855_" x="509.4" y="273.8" class="st2" width="127.5" height="344.8"/>
		<rect id="XMLID_854_" x="48.1" y="273.8" class="st2" width="127.5" height="344.8"/>
		<g id="XMLID_851_">
			
				<rect id="XMLID_853_" x="-28.2" y="423.7" transform="matrix(-1.836970e-16 1 -1 -1.836970e-16 558.1244 343.2735)" class="st3" width="271.2" height="53.9"/>
			
				<rect id="XMLID_852_" x="433.1" y="423.7" transform="matrix(-1.836970e-16 1 -1 -1.836970e-16 1019.4138 -118.0159)" class="st3" width="271.2" height="53.9"/>
		</g>
		<rect id="XMLID_850_" x="293.7" y="498" class="st4" width="97.7" height="122.3"/>
		<g id="XMLID_837_">
			<rect id="XMLID_849_" x="212.4" y="179.3" class="st3" width="49.8" height="59.6"/>
			<rect id="XMLID_848_" x="317.6" y="179.3" class="st3" width="49.8" height="59.6"/>
			<rect id="XMLID_847_" x="422.8" y="179.3" class="st3" width="49.8" height="59.6"/>
			<rect id="XMLID_846_" x="212.4" y="292.6" class="st3" width="49.8" height="59.6"/>
			<rect id="XMLID_845_" x="317.6" y="294.1" class="st3" width="49.8" height="59.6"/>
			<rect id="XMLID_844_" x="422.8" y="294.1" class="st3" width="49.8" height="59.6"/>
			<rect id="XMLID_843_" x="212.4" y="408.9" class="st3" width="49.8" height="59.6"/>
			<rect id="XMLID_842_" x="317.6" y="408.9" class="st3" width="49.8" height="59.6"/>
			<rect id="XMLID_840_" x="422.8" y="408.9" class="st3" width="49.8" height="59.6"/>
			<rect id="XMLID_839_" x="212.4" y="523.7" class="st3" width="49.8" height="59.6"/>
			<rect id="XMLID_838_" x="422.8" y="523.7" class="st3" width="49.8" height="59.6"/>
		</g>
	</g>
	<g>
		<g>
			<rect y="618.3" class="st1" width="685.1" height="39.6"/>
		</g>
	</g>
	<g>
		<circle class="st5" cx="342.5" cy="76.7" r="76.7"/>
	</g>
	<g>
		<polygon id="XMLID_835_" class="st6" points="381.1,65.2 354.2,65.2 354.2,35.6 354,35.6 331.1,35.6 330.8,35.6 330.8,65.2 
			303.9,65.2 303.9,88.3 330.8,88.3 330.8,117.9 331.1,117.9 354,117.9 354.2,117.9 354.2,88.3 381.1,88.3 		"/>
	</g>
	<g>
		<rect x="29.6" y="238.8" class="st5" width="146.1" height="34.5"/>
	</g>
	<g>
		<rect x="509.4" y="238.8" class="st5" width="146.1" height="34.5"/>
	</g>
</g>
</svg>
