<?xml version="1.0" encoding="utf-8"?>
<!-- Generator: Adobe Illustrator 22.1.0, SVG Export Plug-In . SVG Version: 6.00 Build 0)  -->
<svg version="1.1" id="Layer_1" xmlns="http://www.w3.org/2000/svg" xmlns:xlink="http://www.w3.org/1999/xlink" x="0px" y="0px"
	 viewBox="0 0 81.9 81.9" style="enable-background:new 0 0 81.9 81.9;" xml:space="preserve">
<style type="text/css">
	.st0{fill:#DF6000;}
	.st1{fill:#FFFFFF;}
</style>
<g>
	<path class="st0" d="M40.9,0c22.6,0,40.9,18.3,40.9,40.9S63.5,81.9,40.9,81.9"/>
	<path class="st0" d="M40.9,81.9C18.3,81.9,0,63.5,0,40.9S18.3,0,40.9,0"/>
	<g id="C9uii1_1_">
		<g>
			<g>
				<path class="st1" d="M27.6,19.9c4.9-0.3,9.3,3.3,10.7,6.8c1.5,3.7,0.4,6.8-1.9,9.7c-0.1,0.2-0.3,0.4-0.5,0.5
					c-3.4,2.7-4.4,5.7-2.6,10c1.6,3.8,0,7.9-3,10c-3.1,2.2-7.8,2.1-11,0c-3.4-2.4-5.2-5.8-6.3-9.6c-1.3-4.5-1.3-9.2-0.6-13.7
					C13.6,25.9,18.3,20.1,27.6,19.9z"/>
			</g>
			<g>
				<path class="st1" d="M73.6,38.9c-0.2,5.3-1,10.4-4.1,14.9c-3.9,5.7-11.7,6.5-16,1.5c-2.4-2.8-2.3-6-1.1-9.2
					c1.3-3.3,0.8-5.7-1.8-8.1c-4.3-4-5.2-8.2-2.9-12.3c2.5-4.5,7.7-6.6,13-5.6c7.7,1.5,11.8,7.5,12.4,14.9
					C73.3,36.3,73.4,37.6,73.6,38.9z"/>
			</g>
			<g>
				<path class="st1" d="M46.1,57.3c0,1.5,0,3,0,4.4c0,1.2-0.4,1.8-1.7,1.7c-1.1-0.1-2.3-0.1-3.4,0c-1.3,0.1-1.9-0.4-1.8-1.8
					c0.1-2.1,0.1-4.2,0-6.3c-0.1-2.5-0.4-5-0.7-7.5c-0.3-2.1-1.8-3.4-3.6-4.5c-1.6-1-1.7-1.5-0.5-2.9c0.9-1.1,1.8-2.1,2.8-3
					c0.3-0.3,1.2-0.3,1.6-0.1c1.4,0.7,2.7,2.3,4,2.3c1.3,0,2.5-1.6,3.8-2.3c0.4-0.2,1.2-0.3,1.4,0c1.1,1,2.1,2.1,3,3.2
					c0.8,1,0.9,1.9-0.6,2.7c-2.3,1.2-3.7,3-3.9,5.8c-0.2,2.7-0.5,5.4-0.8,8.1C46,57.3,46.1,57.3,46.1,57.3z"/>
			</g>
		</g>
	</g>
</g>
</svg>
