<?xml version="1.0" encoding="utf-8"?>
<!-- Generator: Adobe Illustrator 23.0.1, SVG Export Plug-In . SVG Version: 6.00 Build 0)  -->
<svg version="1.1" id="bones" xmlns="http://www.w3.org/2000/svg" xmlns:xlink="http://www.w3.org/1999/xlink" x="0px" y="0px"
	 viewBox="0 0 96.7 114.6" style="enable-background:new 0 0 96.7 114.6;" xml:space="preserve">
<style type="text/css">
	.st0{fill-rule:evenodd;clip-rule:evenodd;fill:#B48B71;}
	.st1{fill-rule:evenodd;clip-rule:evenodd;fill:#A27F6E;}
	.st2{fill-rule:evenodd;clip-rule:evenodd;fill:#E4B274;}
	.st3{fill-rule:evenodd;clip-rule:evenodd;fill:#F4C68A;}
	.st4{fill:#2B2B2B;}
	.st5{fill:#898989;}
	.st6{fill:#B5B5B5;}
	.st7{fill:#3A3A3A;}
	.st8{fill:#004254;}
	.st9{fill:#003744;}
	.st10{fill:#EFCF94;}
	.st11{fill:#EEBA68;}
	.st12{fill:#08B5E5;}
	.st13{fill:#308017;}
	.st14{fill:#007DA6;}
	.st15{fill:#4B1400;}
</style>
<g>
	<g>
		<path class="st0" d="M67.5,10.5c0.3,4.3-0.2,12.5-2.6,16.6c-6.7,0-11.8,0-18.4,0c-2.3-3.8-2.9-12.4-2.6-16.6
			C44.3,6,46.8,2.8,50.2,2c1.3-1.4,3.4-2,5.5-2C61.5-0.1,67,3.4,67.5,10.5z"/>
	</g>
	<g>
		<path class="st1" d="M67.5,10.5c0.3,4.3-0.2,12.5-2.6,16.6h-9.4V0l0.1,0C61.5-0.1,67,3.4,67.5,10.5z"/>
	</g>
	<path class="st2" d="M48.9,13.7c-0.1-0.1-0.2-0.3-0.3-0.5c-0.3-0.7-0.8-0.6-0.8,0.2c0,1.7,0.2,4,0.7,5.5c0,0.1,0.1,0.2,0.2,0.3
		c0.3,0.2,0.5,0.3,0.6,0.7c0.5,2.6,2.1,4.1,4.3,5.5c1.8,1.1,2.5,1.1,4.3,0c2.7-1.6,4.1-3.5,4.7-6.3c1.4-6.8-5.9-3.1-10.5-8.4
		c-0.7-0.5-1.2-0.7-1.7,0.6c-0.3,0.7-0.5,1.5-0.7,2.4C49.4,13.9,49.1,14.1,48.9,13.7z"/>
	<path class="st3" d="M48.9,13.7c-0.1-0.1-0.2-0.3-0.3-0.5c-0.3-0.7-0.8-0.6-0.8,0.2c0,1.7,0.2,4,0.7,5.5c0,0.1,0.1,0.2,0.2,0.3
		c0.3,0.2,0.5,0.3,0.6,0.7c0.5,2.6,2.1,4.1,4.3,5.5c0.8,0.5,1.4,0.8,2,0.8V13c-1.3-0.5-2.5-1.3-3.6-2.5c-0.7-0.5-1.2-0.7-1.7,0.6
		c-0.2,0.7-0.5,1.5-0.7,2.4C49.4,13.9,49.1,14.1,48.9,13.7z"/>
	<ellipse class="st4" cx="23.5" cy="102.7" rx="1.4" ry="2.7"/>
	<g>
		<path class="st5" d="M55,68.8c-0.4,0-0.8,0-1.2,0.1c6.7,0.9,12,9.7,12,20.5c0,10.7-5.3,19.5-12,20.5c0.4,0.1,0.8,0.1,1.2,0.1
			c7.3,0,13.2-9.2,13.2-20.6C68.2,78,62.3,68.8,55,68.8z"/>
		<path class="st6" d="M53.6,68c-8.4,0-15.1,9.6-15.1,21.3s6.8,21.3,15.1,21.3s15.1-9.6,15.1-21.3S62,68,53.6,68z M54.1,109.3
			c-7.8,0-14.2-8.9-14.2-19.9s6.3-19.9,14.2-19.9c7.8,0,14.2,8.9,14.2,19.9S61.9,109.3,54.1,109.3z"/>
		<path class="st7" d="M52.2,64c-9.9,0-18,11.3-18,25.3c0,14,8,25.3,18,25.3s18-11.3,18-25.3C70.1,75.4,62.1,64,52.2,64z
			 M53.6,110.6c-8.4,0-15.1-9.5-15.1-21.3S45.2,68,53.6,68s15.1,9.5,15.1,21.3S61.9,110.6,53.6,110.6z"/>
		<path class="st4" d="M53.2,66.5c-8.8,0-16,10.1-16,22.5c0,12.4,7.2,22.5,16,22.5s16-10.1,16-22.5C69.2,76.6,62,66.5,53.2,66.5z
			 M53.7,110.1c-8.2,0-14.9-9.4-14.9-21c0-11.6,6.7-21,14.9-21c8.2,0,14.9,9.4,14.9,21C68.7,100.7,62,110.1,53.7,110.1z"/>
	</g>
	<polygon class="st4" points="79.8,88.6 55.1,88.6 55.1,89.3 79.8,89.8 	"/>
	<path class="st4" d="M59.6,37.6c0,0-1.9-2.2-2.6,8.4c-0.7,10.6-1.9,42.6-1.9,42.6h-0.7l0.7-44.9c0,0-0.1-4.8,1.5-6.9
		c1.5-2.1,3.1-1.9,3.1-1.9V37.6z"/>
	<polygon class="st8" points="79.8,72 53.2,71.4 23.2,72 23.2,75.4 79.8,75.4 	"/>
	<path class="st9" d="M80,75.4v-3.3l-29.6-0.6c0,0,0.4,0.7,0.2,1.9c-0.2,1.2-0.4,1.9-0.4,1.9H80z"/>
	<polyline class="st8" points="96.4,34 85,34.1 85,37.9 96.7,37.2 	"/>
	<polygon class="st8" points="59.1,34.1 59.1,37.9 70.7,37.2 70.5,34 	"/>
	<ellipse class="st4" cx="54.9" cy="89" rx="1.4" ry="2.7"/>
	<polygon class="st8" points="82.6,43.7 53.9,43.7 53.5,59.7 81.4,61.1 	"/>
	<path class="st9" d="M82.6,43.7l-1.2,17.4l-27.5-1.5v-5.2c0,0,8.9,1.5,16.9-1C78.9,50.9,82.6,43.7,82.6,43.7z"/>
	<polygon class="st7" points="80,75.4 23.5,75.4 23.5,76.5 79.8,77.1 	"/>
	<polygon class="st4" points="51.1,75.4 51.1,76.7 80,77.1 80,75.4 	"/>
	<path class="st4" d="M85,37.6c0,0-1.9-2.2-2.6,8.4c-0.7,10.6-1.9,42.6-1.9,42.6h-0.7l0.7-44.9c0,0-0.1-4.8,1.5-6.9
		c1.5-2.1,3.1-1.9,3.1-1.9V37.6z"/>
	<ellipse class="st4" cx="80" cy="89" rx="1.4" ry="2.7"/>
	<path class="st4" d="M54.6,55.4l-28.1-0.7c-1.4,0-2.6,0.9-2.6,2.2l0.3,46.9l-1-0.3l-1.1-47.1c0-2.1,2-3.8,4.4-3.7l28.8,1.1
		L54.6,55.4z"/>
	<g>
		<path class="st5" d="M48.4,90.8c4.7,0,8.5,5.3,8.5,11.9c0,6.6-3.8,11.9-8.5,11.9s-8.5-5.3-8.5-11.9C39.9,96.1,43.7,90.8,48.4,90.8
			z M46.6,109.9c2.8,0,5.1-3.2,5.1-7.2c0-4-2.3-7.2-5.1-7.2c-2.8,0-5.1,3.2-5.1,7.2C41.5,106.7,43.8,109.9,46.6,109.9z"/>
		<path class="st7" d="M48.4,90.8c-4.7,0-8.5,5.3-8.5,11.9c0,6.6,3.8,11.9,8.5,11.9c4.7,0,8.5-5.3,8.5-11.9
			C57,96.1,53.1,90.8,48.4,90.8z M50.3,109.9c-2.8,0-5.1-3.2-5.1-7.2c0-4,2.3-7.2,5.1-7.2c2.8,0,5.1,3.2,5.1,7.2
			C55.4,106.7,53.1,109.9,50.3,109.9z"/>
		<path class="st4" d="M49.3,93.1c-3.8,0-6.9,4.3-6.9,9.6s3.1,9.6,6.9,9.6s6.9-4.3,6.9-9.6S53.1,93.1,49.3,93.1z M50.4,109.9
			c-2.8,0-5.1-3.2-5.1-7.2c0-4,2.3-7.2,5.1-7.2c2.8,0,5.1,3.2,5.1,7.2C55.6,106.7,53.3,109.9,50.4,109.9z"/>
		<path class="st6" d="M50.3,95.5c-2.8,0-5.1,3.2-5.1,7.2c0,4,2.3,7.2,5.1,7.2c2.8,0,5.1-3.2,5.1-7.2C55.4,98.8,53.1,95.5,50.3,95.5
			z M51.1,108.1c-2.1,0-3.8-2.4-3.8-5.4s1.7-5.4,3.8-5.4c2.1,0,3.8,2.4,3.8,5.4S53.3,108.1,51.1,108.1z"/>
	</g>
	<g>
		<path class="st5" d="M23.2,90.8c4.7,0,8.5,5.3,8.5,11.9c0,6.6-3.8,11.9-8.5,11.9c-4.7,0-8.5-5.3-8.5-11.9
			C14.7,96.1,18.5,90.8,23.2,90.8z M21.4,109.9c2.8,0,5.1-3.2,5.1-7.2c0-4-2.3-7.2-5.1-7.2s-5.1,3.2-5.1,7.2
			C16.2,106.7,18.5,109.9,21.4,109.9z"/>
		<path class="st7" d="M23.2,90.8c-4.7,0-8.5,5.3-8.5,11.9c0,6.6,3.8,11.9,8.5,11.9s8.5-5.3,8.5-11.9C31.7,96.1,27.9,90.8,23.2,90.8
			z M25.1,109.9c-2.8,0-5.1-3.2-5.1-7.2c0-4,2.3-7.2,5.1-7.2c2.8,0,5.1,3.2,5.1,7.2C30.2,106.7,27.9,109.9,25.1,109.9z"/>
		<path class="st4" d="M24,93.1c-3.8,0-6.9,4.3-6.9,9.6s3.1,9.6,6.9,9.6s6.9-4.3,6.9-9.6S27.8,93.1,24,93.1z M25.2,109.9
			c-2.8,0-5.1-3.2-5.1-7.2c0-4,2.3-7.2,5.1-7.2c2.8,0,5.1,3.2,5.1,7.2C30.3,106.7,28,109.9,25.2,109.9z"/>
		<path class="st6" d="M25.1,95.5c-2.8,0-5.1,3.2-5.1,7.2c0,4,2.3,7.2,5.1,7.2s5.1-3.2,5.1-7.2C30.2,98.8,27.9,95.5,25.1,95.5z
			 M25.9,108.1c-2.1,0-3.8-2.4-3.8-5.4s1.7-5.4,3.8-5.4c2.1,0,3.8,2.4,3.8,5.4S28,108.1,25.9,108.1z"/>
	</g>
	<path class="st4" d="M52.2,102.7c0,1.5-0.6,2.7-1.4,2.7c-0.8,0-1.4-1.2-1.4-2.7c0-1.5,0.6-2.7,1.4-2.7
		C51.5,100,52.2,101.2,52.2,102.7z"/>
	<path class="st4" d="M27.3,102.7c0,1.5-0.6,2.7-1.4,2.7c-0.8,0-1.4-1.2-1.4-2.7c0-1.5,0.6-2.7,1.4-2.7
		C26.7,100,27.3,101.2,27.3,102.7z"/>
	<path class="st4" d="M50.1,102.7c0,1.5-0.6,2.7-1.4,2.7c-0.8,0-1.4-1.2-1.4-2.7c0-1.5,0.6-2.7,1.4-2.7
		C49.5,100,50.1,101.2,50.1,102.7z"/>
	<path class="st4" d="M49.8,78.7h-4.7c-1.6,0-3,1.1-3.3,2.6l-6.3,26.7v1.8l8.5-27.4c0.3-0.9,1-1.5,1.9-1.6l4-0.6L49.8,78.7z"/>
	<path class="st4" d="M9,109.9l8.5-27.4c0.3-0.9,1-1.5,1.9-1.6l4-0.6l0-1.5h-4.7c-1.6,0-3,1.1-3.3,2.6L9,108.1"/>
	<path class="st10" d="M24.8,68.2L15.1,102l1.2,0.7c0,0,14.1-23.4,14.7-25.8c0.3-1.1-1.6-10-1.6-10L24.8,68.2z"/>
	<path class="st11" d="M15.3,102.3l0.8,0.4c0,0,14.1-23.4,14.7-25.8c0.3-1.1-1.6-10-1.6-10l-2.5,0.7l-2.1,0.5c0,0,4.7,2,1.9,10.5
		C23.6,87.1,15.3,102.3,15.3,102.3z"/>
	<path class="st10" d="M35.2,68.9l-9.7,33.9l1.2,0.7c0,0,14.2-23,14.9-25.4c0.3-1.1-0.7-9.2-0.7-9.2L35.2,68.9z"/>
	<path class="st11" d="M26,103l0.7,0.4c0,0,14.2-23,14.9-25.4c0.3-1.1-0.7-9.2-0.7-9.2l-2.6,0l-3.1,0c0,0,4.9,2.3,1.7,11.4
		C33.2,90.9,26,103,26,103z"/>
	<path class="st12" d="M73.3,63.3c0,0-4.4-6-11.2-7c-6.8-1-10.4-0.7-10.4-0.7s-23.4,4.9-24.6,6.1c-0.6,0.5-5.7,9-5.7,9
		s6,2.7,12.1,5.4c6.1,2.7,10.7,0.8,10.7,0.8s-0.9-7.2,0-7.5c1.7-0.5,18.3,2.9,22.4,2.3S73.3,63.3,73.3,63.3z"/>
	<path class="st13" d="M54.7,26.8c0,0-3-0.4-5.2,1.1c-2.2,1.4-3.2,20.9-3.9,21.7c-0.6,0.8-13,10.3-13,10.3l1.2,0.6c0,0,8-3,11-3.9
		c3-0.9,8.8-4.2,8.8-4.2l-0.3,3.5c0,0,12.5,2.8,14.9,4.1c3.9,2.2,6.8,4.5,6.8,4.5s0.2-18.8-5.7-31.1c-3.1-6.5-6-9.7-9.1-8.6
		C57.3,26,54.7,26.8,54.7,26.8z"/>
	<path class="st14" d="M62.1,56.3c0,0,0.6,0.6,1.3,1.5c-0.8-0.3-1.6-0.5-2.6-0.7c-4.2-0.9-7.4-1.3-7.4-1.3s-12.1,2.3-19.5,3.9
		s-6.7,2.8-2.8,4.7c4,2,6.2-2.3,14-2.3c7.8,0,20.3-2.2,20.3-2.2c1.4,2.1,1.8,4.5,0.2,5.6c-3,2.2-19.3,0.4-23.3,0.1
		c-4-0.3,2.1,8.2-2.5,9.7c-2.9,0.9-6.2,0.6-6.2,0.6c6.1,2.7,10.7,0.8,10.7,0.8s-0.9-7.2,0-7.5c1.7-0.5,18.3,2.9,22.4,2.3
		s6.6-8.3,6.6-8.3S68.9,57.3,62.1,56.3z"/>
	<path class="st13" d="M58.1,43.4c-2.6,2.1-8.8,1-10-0.5c-1.3-1.6,2.6-9.5,2.6-9.5s-1.6,2.7-2.7,5.1c-0.9,1.9-2.3,4.2,1.6,8.3
		c3,3.1,4,5.3,4,7.1c-0.5,0.8-2.1,0.7-1.1,1.7c0,0,10.7,2.4,11.7,1.5c1-0.9-2.1-19.8-2.1-19.8S61.3,40.9,58.1,43.4z"/>
	<path class="st13" d="M67.9,30.4c0,0-0.5,13.8-1.4,19.6c-0.9,5.8-6.4,7.3-6.4,7.3s6,1.2,9.4,3.2c3.4,2,5.6,3.9,5.6,3.9
		S75,57.8,74,50.1C72.6,38.7,67.9,30.4,67.9,30.4z"/>
	<path class="st13" d="M65.1,28.3c-5.8-0.7-4.2,24.7-5.3,25.2c-1.1,0.5-17.2,5.7-17.2,5.7l0.2,0.9c0,0,9.1,0.9,15.1-0.4
		c5.9-1.3,7.3-1.5,7.8-2c0.5-0.5,2.2-16.2,2.3-21C68.1,31.8,67.7,28.6,65.1,28.3z"/>
	<path class="st10" d="M42.6,59.2c0,0-1.3-1-3.5-0.8c-2.2,0.2-5,1.3-4.3,1.9c0.7,0.6,3.4,1,5.5,0.6c2.1-0.4,2.6-0.9,2.6-0.9
		L42.6,59.2z"/>
	<path class="st10" d="M32.6,59.8c0,0-1.6,0.4-2.4,1.1c-0.9,0.8-0.4,4.2,0.9,4.3s1.7-0.3,1.7-0.3s-0.4-1.4,0-2.5
		c0.3-1,0.5-0.5,0.5-0.8c0,0-0.5,1.4-0.3,2.3c0.2,0.9,0.8,0.7,0.8,0.7s-0.2-0.3,0.2-1.8c0.4-1.5-0.2-2.3-0.2-2.3L32.6,59.8z"/>
	<path class="st15" d="M10.5,103.6c1.3,0.8,1.5,1,3.3,1.5c1.8,0.5,2-0.8,2.3-1.6c0.3-0.9,0.3-0.9,0.3-0.9l-1.2-0.7
		c0,0-0.3,0.2-2.4,0.1c-1.8-0.2-2.6-1-3.6-0.9"/>
	<path class="st15" d="M25.6,102.6c0,0-1.6-0.2-3-0.5c-2.5-0.6-2.7-1.2-4-1c-1,0.2,0.5,2.4,2.7,3.3c2,0.8,3.8,2.2,4.6,1.6
		c0.8-0.6,0.9-2.7,0.9-2.7L25.6,102.6z"/>
	<path class="st13" d="M65.7,27.2c0,0-2.7,2.6-8.9,2.9s-7.6-1.9-7.6-1.9s0.7-1.5,3.3-1.7c2.6-0.2,3.5,0.7,5.4-0.5
		c1.9-1.1,2.2-1.8,4.4-1.5C64.3,25,65.7,27.2,65.7,27.2z"/>
	<g>
		<path class="st5" d="M79,68.8c-0.4,0-0.8,0-1.2,0.1c6.7,0.9,12,9.7,12,20.5c0,10.7-5.3,19.5-12,20.5c0.4,0.1,0.8,0.1,1.2,0.1
			c7.3,0,13.2-9.2,13.2-20.6C92.2,78,86.3,68.8,79,68.8z"/>
		<path class="st6" d="M77.6,68c-8.4,0-15.1,9.6-15.1,21.3s6.8,21.3,15.1,21.3s15.1-9.6,15.1-21.3S86,68,77.6,68z M78.1,109.3
			c-7.8,0-14.2-8.9-14.2-19.9s6.3-19.9,14.2-19.9c7.8,0,14.2,8.9,14.2,19.9S85.9,109.3,78.1,109.3z"/>
		<path class="st7" d="M76.2,64c-9.9,0-18,11.3-18,25.3c0,14,8,25.3,18,25.3c9.9,0,18-11.3,18-25.3C94.2,75.4,86.1,64,76.2,64z
			 M77.6,110.6c-8.4,0-15.1-9.5-15.1-21.3S69.3,68,77.6,68c8.4,0,15.1,9.5,15.1,21.3S86,110.6,77.6,110.6z"/>
		<path class="st4" d="M77.3,66.5c-8.8,0-16,10.1-16,22.5c0,12.4,7.2,22.5,16,22.5s16-10.1,16-22.5C93.2,76.6,86.1,66.5,77.3,66.5z
			 M77.8,110.1c-8.2,0-14.9-9.4-14.9-21c0-11.6,6.7-21,14.9-21s14.9,9.4,14.9,21C92.7,100.7,86,110.1,77.8,110.1z"/>
	</g>
	<path class="st4" d="M80.3,55.4l-26.8-0.7c-1.3,0-2.4,0.9-2.4,2.2l0.1,46.9l-0.8-0.2l-1-47.3c0-2.1,1.9-3.8,4.2-3.7l27.4,1.1
		L80.3,55.4z"/>
	<polyline class="st7" points="0,105.5 28.8,105.5 35.4,109.9 9,109.9 	"/>
	<polygon class="st4" points="35.4,109.9 36,108.1 29.1,103.8 28.8,105.5 	"/>
	<polyline class="st5" points="0,105.5 28.8,105.5 29.1,103.8 0,105.1 	"/>
</g>
</svg>
