<?xml version="1.0" encoding="utf-8"?>
<!-- Generator: Adobe Illustrator 22.1.0, SVG Export Plug-In . SVG Version: 6.00 Build 0)  -->
<svg version="1.1" id="Layer_1" xmlns="http://www.w3.org/2000/svg" xmlns:xlink="http://www.w3.org/1999/xlink" x="0px" y="0px"
	 viewBox="0 0 145.8 173.5" style="enable-background:new 0 0 145.8 173.5;" xml:space="preserve">
<style type="text/css">
	.st0{fill:#33813E;}
	.st1{fill:#43AD4A;}
	.st2{fill:#FFFFFF;}
	.st3{enable-background:new    ;}
</style>
<g id="non_gmo">
	<g>
		<g>
			<path class="st0" d="M72.8,95c-19.4,0-36.2-14.5-38.9-33.8c-3.1-21.5,11.9-41.5,33.4-44.6c1.9-0.3,3.8-0.4,5.7-0.4
				c19.4,0,36.2,14.5,38.9,33.8c1.5,10.4-1.1,20.8-7.4,29.2S89,93.1,78.6,94.6C76.6,94.9,74.6,95,72.8,95"/>
		</g>
		<g>
			<path class="st1" d="M72.9,12.3c-2.1,0-4.1,0.1-6.2,0.4C43,16.1,26.5,38.1,29.9,61.8C33,83.4,51.6,98.9,72.8,98.9
				c2.1,0,4.1-0.1,6.2-0.4c23.7-3.4,40.1-25.4,36.7-49.1C112.6,27.8,94.1,12.3,72.9,12.3 M72.9,12.3v7.9c8.4,0,16.6,3,23.1,8.6
				s10.8,13.3,12,21.8c1.4,9.4-1,18.7-6.7,26.3c-5.7,7.6-14,12.5-23.3,13.9c-1.7,0.2-3.4,0.4-5.1,0.4c-8.4,0-16.6-3-23.1-8.6
				S39,69.3,37.8,60.8c-1.4-9.4,1-18.7,6.7-26.3s14-12.5,23.3-13.9c1.7-0.2,3.4-0.4,5.1-0.4V12.3z"/>
		</g>
		<g>
			<path class="st2" d="M99,62.1L80.2,50.6c-2.4-1.5-4.3-3.5-5.7-6l-7.9-14.5l0.5-0.3c0.7-0.4,1-1.3,0.6-2l-0.1-0.1
				c-0.4-0.7-1.3-1-2-0.6l-13.2,7.2c-0.7,0.4-1,1.3-0.6,2l0.1,0.1c0.4,0.7,1.3,1,2,0.6l0.5-0.3l7.9,14.5c1.3,2.4,2,5.2,1.9,8
				l-0.6,22.1c-0.1,3.2,3.3,5.2,6.1,3.7l29.2-15.9C101.6,67.7,101.7,63.8,99,62.1"/>
		</g>
		<g>
			<path class="st0" d="M86,69.3c-2.2-0.6-3.5-3-2.8-5.2c0.6-2.2,3-3.5,5.2-2.8c2.2,0.6,3.5,3,2.8,5.2C90.5,68.7,88.2,70,86,69.3"/>
		</g>
		<g>
			<path class="st2" d="M87.2,70.2c-0.5,0-0.9-0.1-1.4-0.2l0,0c-2.5-0.7-4-3.4-3.2-5.9c0.4-1.2,1.2-2.2,2.3-2.8
				c1.1-0.6,2.4-0.7,3.6-0.4c2.5,0.7,4,3.4,3.2,5.9c-0.4,1.2-1.2,2.2-2.3,2.8C88.8,70,88,70.2,87.2,70.2z M86.2,68.7
				c0.9,0.3,1.9,0.2,2.7-0.3c0.8-0.4,1.4-1.2,1.7-2.1c0.5-1.9-0.5-3.8-2.4-4.4c-0.9-0.3-1.9-0.2-2.7,0.3c-0.8,0.4-1.4,1.2-1.7,2.1
				C83.3,66.2,84.4,68.2,86.2,68.7L86.2,68.7z"/>
		</g>
		<g>
			<path class="st0" d="M84.4,69.4c-1.2,0.7-2.8,0.2-3.4-1c-0.7-1.2-0.2-2.8,1-3.4c1.2-0.7,2.8-0.2,3.4,1
				C86.1,67.2,85.6,68.7,84.4,69.4"/>
		</g>
		<g>
			<path class="st2" d="M83.2,70.3c-1.1,0-2.2-0.6-2.8-1.6c-0.8-1.5-0.3-3.4,1.3-4.3c1.5-0.8,3.4-0.3,4.3,1.3
				c0.8,1.5,0.3,3.4-1.3,4.3l0,0C84.2,70.2,83.7,70.3,83.2,70.3z M83.2,65.3c-0.3,0-0.6,0.1-0.9,0.2c-0.9,0.5-1.3,1.6-0.8,2.6
				c0.5,0.9,1.6,1.2,2.6,0.8c0.9-0.5,1.3-1.6,0.8-2.6C84.5,65.7,83.9,65.3,83.2,65.3z"/>
		</g>
		<g>
			<path class="st0" d="M80.7,64.1c-0.5-0.8-0.1-1.9,0.7-2.3c0.8-0.5,1.9-0.1,2.3,0.7c0.5,0.8,0.1,1.9-0.7,2.3
				C82.2,65.2,81.2,64.9,80.7,64.1"/>
		</g>
		<g>
			<path class="st2" d="M82.2,65.6c-0.2,0-0.4,0-0.7-0.1c-0.6-0.2-1.1-0.6-1.4-1.1l0,0c-0.3-0.6-0.4-1.2-0.2-1.8
				c0.2-0.6,0.6-1.1,1.1-1.4c0.6-0.3,1.2-0.4,1.8-0.2c0.6,0.2,1.1,0.6,1.4,1.1c0.3,0.6,0.4,1.2,0.2,1.8c-0.2,0.6-0.6,1.1-1.1,1.4
				C83,65.5,82.6,65.6,82.2,65.6z M82.2,62.1c-0.2,0-0.4,0-0.5,0.1c-0.3,0.1-0.4,0.4-0.5,0.6c-0.1,0.3-0.1,0.6,0.1,0.8l0,0
				c0.1,0.3,0.4,0.4,0.6,0.5c0.3,0.1,0.6,0.1,0.8-0.1c0.3-0.1,0.4-0.4,0.5-0.7s0.1-0.6-0.1-0.8s-0.4-0.4-0.6-0.5
				C82.4,62.2,82.3,62.1,82.2,62.1z"/>
		</g>
		<g>
			
				<rect x="36.8" y="52.1" transform="matrix(0.7071 -0.7071 0.7071 0.7071 -19.3608 70.0828)" class="st1" width="76.2" height="12.7"/>
		</g>
	</g>
	<g class="st3">
		<path class="st0" d="M45.7,126.7v-18.1c0.5-0.2,1.1-0.2,2-0.2c0.4,0,0.7,0,1.1,0.1c0.3,0,0.6,0.1,0.7,0.1l0.2,0.1l5.3,10.3
			c0.3,0.5,0.6,1.1,0.9,1.8c0.3,0.6,0.5,1.2,0.6,1.5l0.2,0.6h0.1c-0.1-1.4-0.2-3-0.2-4.8v-9.4c0.3-0.2,0.8-0.2,1.5-0.2
			c0.3,0,0.6,0,0.9,0.1c0.3,0,0.4,0.1,0.5,0.1l0.1,0.1v18.1c-0.4,0.2-1.1,0.2-1.9,0.2c-0.4,0-0.7,0-1.1-0.1c-0.3,0-0.6-0.1-0.7-0.1
			l-0.2-0.1l-5.4-10.4c-0.3-0.5-0.6-1.1-0.9-1.7c-0.3-0.6-0.5-1.1-0.6-1.5l-0.2-0.5h-0.1c0.1,1.4,0.2,2.9,0.2,4.7v9.4
			c-0.3,0.2-0.8,0.2-1.5,0.2c-0.3,0-0.6,0-0.8-0.1s-0.4-0.1-0.5-0.1L45.7,126.7z"/>
		<path class="st0" d="M64.2,125.5c-1-1.1-1.5-2.9-1.5-5.3c0-2.4,0.5-4.2,1.5-5.3c1-1.1,2.5-1.7,4.4-1.7s3.4,0.6,4.4,1.7
			s1.5,2.9,1.5,5.4c0,2.5-0.5,4.2-1.5,5.4s-2.5,1.7-4.4,1.7C66.6,127.2,65.2,126.6,64.2,125.5z M66.1,117.9
			c-0.1,0.6-0.2,1.3-0.2,2.2c0,0.9,0.1,1.6,0.2,2.2c0.1,0.6,0.3,1.1,0.5,1.4c0.2,0.3,0.5,0.6,0.8,0.7c0.3,0.1,0.7,0.2,1.1,0.2
			s0.8-0.1,1.1-0.2c0.3-0.1,0.6-0.4,0.8-0.7c0.2-0.3,0.4-0.8,0.5-1.4c0.1-0.6,0.2-1.3,0.2-2.2c0-0.9-0.1-1.6-0.2-2.2
			c-0.1-0.6-0.3-1.1-0.5-1.4c-0.2-0.3-0.5-0.6-0.8-0.7c-0.3-0.1-0.7-0.2-1.1-0.2s-0.8,0.1-1.1,0.2c-0.3,0.1-0.6,0.4-0.8,0.7
			C66.4,116.9,66.2,117.3,66.1,117.9z"/>
		<path class="st0" d="M77.3,126.7v-13.1c0.3-0.1,0.9-0.2,1.6-0.2c0.3,0,0.6,0,0.9,0.1c0.3,0,0.5,0.1,0.6,0.1l0.2,0.1v0.8
			c0.9-0.8,2.1-1.3,3.5-1.3c1.3,0,2.3,0.4,3,1.1c0.7,0.7,1,1.7,1,2.9v9.7c-0.4,0.1-0.9,0.2-1.6,0.2c-0.3,0-0.6,0-0.9,0
			c-0.3,0-0.5-0.1-0.6-0.1l-0.2-0.1v-9.1c0-0.6-0.2-1-0.5-1.4c-0.3-0.3-0.9-0.5-1.6-0.5c-0.8,0-1.6,0.3-2.3,1v10
			c-0.4,0.1-0.9,0.2-1.6,0.2c-0.3,0-0.6,0-0.9,0c-0.3,0-0.5-0.1-0.6-0.1L77.3,126.7z"/>
		<path class="st0" d="M91.3,119.4c0-0.2,0-0.4,0-0.7c0-0.2,0.1-0.4,0.1-0.5l0-0.1h5.7c0.1,0.3,0.2,0.8,0.2,1.3c0,0.2,0,0.4,0,0.7
			c0,0.2-0.1,0.4-0.1,0.5l0,0.1h-5.7C91.4,120.3,91.3,119.9,91.3,119.4z"/>
	</g>
	<g class="st3">
		<path class="st0" d="M47.2,151.6c-1.4-1.6-2.1-4-2.1-7.1s0.7-5.5,2.1-7.1s3.5-2.4,6.1-2.4c0.9,0,1.8,0.1,2.6,0.2
			c0.8,0.2,1.4,0.3,1.7,0.5l0.5,0.2c0,0.5-0.1,0.9-0.3,1.3s-0.4,0.8-0.7,1.1c-1.1-0.4-2.3-0.5-3.5-0.5c-0.6,0-1.2,0.1-1.7,0.2
			c-0.5,0.1-1,0.3-1.4,0.7s-0.8,0.7-1.1,1.2c-0.3,0.5-0.5,1.2-0.7,1.9s-0.3,1.7-0.3,2.7s0.1,2,0.3,2.7c0.2,0.8,0.4,1.4,0.7,1.9
			c0.3,0.5,0.7,0.9,1.1,1.2s0.9,0.5,1.4,0.6c0.5,0.1,1.1,0.2,1.7,0.2c0.3,0,0.6,0,0.8,0c0.3,0,0.5,0,0.6,0l0.2,0v-5.2h-3.3
			c-0.2-0.3-0.3-0.8-0.3-1.3c0-0.3,0-0.5,0.1-0.7s0.1-0.4,0.1-0.5l0.1-0.2h6.3v9.9c0,0-0.1,0.1-0.2,0.1s-0.3,0.1-0.6,0.2
			s-0.7,0.2-1,0.3c-0.4,0.1-0.8,0.2-1.4,0.2c-0.6,0.1-1.2,0.1-1.8,0.1C50.7,154,48.6,153.2,47.2,151.6z"/>
		<path class="st0" d="M62.2,153.5v-18.1c0.5-0.2,1.2-0.2,2-0.2c0.3,0,0.6,0,0.9,0.1c0.3,0,0.6,0.1,0.8,0.1l0.3,0.1l2.3,4.7
			c1.2,2.4,1.9,4.1,2.2,5h0.1c0.3-0.9,0.6-1.8,1-2.7c0.9-1.9,2.1-4.3,3.3-7.1c0.7-0.2,1.4-0.2,2.1-0.2c0.4,0,0.7,0,1.1,0.1
			c0.4,0,0.6,0.1,0.8,0.1l0.3,0.1v18.1c-0.4,0.2-0.9,0.2-1.6,0.2c-0.3,0-0.6,0-0.9-0.1c-0.3,0-0.5-0.1-0.6-0.1l-0.2-0.1v-5.6
			c0-0.4,0-1.1,0-2.2c0-1.1,0-1.9,0-2.4s0-1.2,0-2c0-0.8,0.1-1.4,0.2-1.9h-0.2c-0.1,0.4-0.3,0.9-0.5,1.5c-0.2,0.6-0.5,1.1-0.6,1.5
			c-0.2,0.4-0.5,1-0.9,1.9c-0.4,0.8-0.7,1.4-0.8,1.7l-1.8,3.8c-0.3,0.1-0.6,0.1-0.9,0.1c-0.2,0-0.3,0-0.5,0c-0.1,0-0.2,0-0.3-0.1
			l-0.1,0c-0.1-0.3-0.4-0.8-0.8-1.7c-0.4-0.8-0.7-1.5-1-2c-0.6-1.1-1-1.9-1.2-2.5c-0.3-0.5-0.6-1.2-0.9-2.1
			c-0.4-0.9-0.6-1.6-0.8-2.1h-0.2c0.1,0.3,0.1,0.6,0.2,1s0.1,0.8,0.1,1.2c0,0.4,0,0.8,0,1.4c0,0.6,0,1,0,1.4c0,0.2,0,0.4,0,0.6
			c0,0.3,0,0.5,0,0.9c0,0.7,0,1.2,0,1.4v6.3c-0.4,0.2-0.9,0.2-1.6,0.2c-0.3,0-0.5,0-0.8-0.1c-0.2,0-0.4-0.1-0.5-0.1L62.2,153.5z"/>
		<path class="st0" d="M82.8,144.5c0-3.2,0.7-5.6,2-7.2s3.1-2.4,5.5-2.4c2.3,0,4.2,0.8,5.5,2.3c1.3,1.6,2,4,2,7.2
			c0,3.2-0.6,5.6-1.9,7.2c-1.3,1.6-3.1,2.3-5.5,2.3s-4.2-0.8-5.5-2.3C83.5,150.1,82.8,147.7,82.8,144.5z M86.3,144.5
			c0,1.1,0.1,2,0.2,2.8s0.3,1.4,0.5,1.9s0.5,0.9,0.8,1.2c0.3,0.3,0.7,0.5,1.1,0.6c0.4,0.1,0.8,0.2,1.3,0.2c0.6,0,1.2-0.1,1.7-0.3
			s0.9-0.5,1.2-1s0.6-1.2,0.8-2.1c0.2-0.9,0.3-2,0.3-3.3c0-1.1-0.1-2-0.2-2.8c-0.1-0.8-0.3-1.4-0.5-2s-0.5-0.9-0.8-1.2
			c-0.3-0.3-0.7-0.5-1.1-0.6c-0.4-0.1-0.8-0.2-1.4-0.2c-0.6,0-1.2,0.1-1.6,0.3s-0.9,0.5-1.2,1c-0.4,0.5-0.6,1.2-0.8,2.1
			C86.4,142,86.3,143.1,86.3,144.5z"/>
	</g>
</g>
</svg>
