<?xml version="1.0" encoding="utf-8"?>
<!-- Generator: Adobe Illustrator 23.0.1, SVG Export Plug-In . SVG Version: 6.00 Build 0)  -->
<svg version="1.1" id="Layer_1" xmlns="http://www.w3.org/2000/svg" xmlns:xlink="http://www.w3.org/1999/xlink" x="0px" y="0px"
	 viewBox="0 0 103.9 93.8" style="enable-background:new 0 0 103.9 93.8;" xml:space="preserve">
<style type="text/css">
	.st0{fill:#007DA6;}
	.st1{fill:#E27833;}
	.st2{fill:#08B5E5;}
</style>
<g>
	<polyline class="st0" points="3.5,81 3.2,80.3 2,81.3 27.4,1.8 83.9,23.6 101.3,76 58.8,91.9 	"/>
	<path class="st1" d="M26.8,0.3L28,11.5l4.2,37.7l0.1,0.8l0.4,0.7l24.5,40.4l1.6,2.6l2.9-1.1l36.5-14.2l5.7-2.2l-4.6-4L68.2,45.4
		L34.4,8.6L26.8,0.3z M31.7,11.1L65.6,48l31.3,27.1L60.4,89.3L35.9,48.8L31.7,11.1z"/>
	<path class="st2" d="M102.9,75.4l0.1,0L85.7,23c-0.2-0.5-0.6-0.9-1.1-1.1L28.1,0.1c-0.5-0.2-1-0.2-1.5,0.1c-0.5,0.2-0.8,0.6-1,1.1
		L0.1,80.9C-0.1,81.4,0,82,0.3,82.4s0.7,0.8,1.3,0.9l57.1,10.2l0.2,0.3l0.5-0.2l0,0c0.1,0,0.2,0,0.3,0c0.6,0,1.1-0.3,1.5-0.7
		l0.5-0.2l36.5-14.2l5.7-2.2L102.9,75.4z M97.7,70.9L68.2,45.4L34.4,8.6l-3-3.3l51,19.6L97.7,70.9z M27.6,7.4l0.5,4.2l4.2,37.7
		l0.1,0.8l0,0.1l-27,26.5L27.6,7.4z M6.6,80.5l27.6-27L56,89.3L6.6,80.5z M60.4,89.3L35.9,48.8l-4.2-37.7L65.6,48l31.3,27.1
		L60.4,89.3z"/>
</g>
</svg>
