<?xml version="1.0" encoding="utf-8"?>
<!-- Generator: Adobe Illustrator 23.0.1, SVG Export Plug-In . SVG Version: 6.00 Build 0)  -->
<svg version="1.1" id="Layer_1" xmlns="http://www.w3.org/2000/svg" xmlns:xlink="http://www.w3.org/1999/xlink" x="0px" y="0px"
	 viewBox="0 0 170.9 170.9" style="enable-background:new 0 0 170.9 170.9;" xml:space="preserve">
<style type="text/css">
	.st0{fill:#40AD4A;}
	.st1{fill:#308017;}
	.st2{fill:#FFFFFF;stroke:#40AD4A;stroke-width:3.2568;stroke-miterlimit:10;}
</style>
<g>
	
		<ellipse transform="matrix(0.1494 -0.9888 0.9888 0.1494 -11.804 157.1935)" class="st0" cx="85.5" cy="85.5" rx="85.4" ry="85.4"/>
	<g>
		<polygon class="st1" points="87.2,122.9 80.6,133.9 77.2,121.6 68,130.6 67.8,117.7 56.7,124 59.8,111.6 47.4,114.8 53.7,103.6 
			40.9,103.4 49.8,94.3 37.5,90.8 48.5,84.3 37.5,77.7 49.8,74.3 40.9,65.1 53.7,64.9 47.4,53.8 59.8,56.9 56.7,44.5 67.8,50.8 
			68,38 77.2,46.9 80.6,34.6 87.2,45.6 93.7,34.6 97.2,46.9 106.3,38 106.5,50.8 117.7,44.5 114.5,56.9 126.9,53.8 120.6,64.9 
			133.5,65.1 124.5,74.3 136.8,77.7 125.8,84.3 136.8,90.8 124.5,94.3 133.5,103.4 120.6,103.6 126.9,114.8 114.5,111.6 117.7,124 
			106.5,117.7 106.3,130.6 97.2,121.6 93.7,133.9 		"/>
	</g>
	<g>
		<g id="zZ4dni.tif_5_">
			<g>
				<path class="st2" d="M88.9,82c-2-1.8-4.8-2.6-6.5-3.5c-0.5-2.4-0.7-4.8-1.4-7c-1.2-4.1-5.3-7-9.4-7.1c-4.4-0.1-8.2,2.6-9.7,7.1
					c-2.9,8.3-3.7,13.2-10.4,18.3c-10.2,5.7-11.5,7-24.3,5.5c-4.1-0.5-7.3,2-9,5.9c-1.6,3.7-1.2,7.5,1.5,10.4c1.9,1.9,4.6,3,6.2,4
					c0.3,2.5,0.3,4.8,0.8,7.1c0.8,4.2,4.7,7.5,8.8,7.8c4.3,0.4,8.4-1.9,10.3-6.2c2.9-6.4,4.2-10.8,8.3-14.6c1.1-0.7,2.5-1.7,4.4-2.9
					c10.3-6.9,11.2-8.3,24.4-8c4.1,0.1,7.1-2.6,8.5-6.6C92.6,88.3,91.9,84.6,88.9,82z"/>
			</g>
		</g>
		<g id="zZ4dni.tif_4_">
			<g>
				<path class="st2" d="M136.5,119.2c1-2.5,0.9-5.4,1.2-7.3c2.1-1.2,4.3-2.2,6.2-3.6c3.5-2.4,4.9-7.3,3.6-11.2
					c-1.4-4.1-5.1-6.9-9.9-6.9c-8.8,0-13.7,0.8-20.7-3.9c-8.8-7.8-10.4-8.6-13.1-21.2c-0.9-4-4.2-6.3-8.5-6.6
					c-4-0.3-7.5,1.3-9.3,4.8c-1.2,2.4-1.3,5.3-1.8,7.1c-2.2,1-4.4,1.9-6.4,3c-3.7,2.1-5.5,6.8-4.6,10.8c1,4.2,4.5,7.3,9.2,7.7
					c7,0.6,11.6,0.5,16.5,3.1c1,0.8,2.4,1.9,4.2,3.2c9.9,7.5,11.5,7.9,15.5,20.5c1.2,3.9,4.8,5.9,9,5.9
					C131.7,124.8,135,122.9,136.5,119.2z"/>
			</g>
		</g>
	</g>
</g>
</svg>
