<?xml version="1.0" encoding="utf-8"?>
<!-- Generator: Adobe Illustrator 23.0.3, SVG Export Plug-In . SVG Version: 6.00 Build 0)  -->
<svg version="1.1" id="Layer_1" xmlns="http://www.w3.org/2000/svg" xmlns:xlink="http://www.w3.org/1999/xlink" x="0px" y="0px"
	 viewBox="0 0 162.8 162.8" style="enable-background:new 0 0 162.8 162.8;" xml:space="preserve">
<style type="text/css">
	.st0{fill:#DF6000;}
	.st1{fill:#FFFFFF;}
</style>
<circle class="st0" cx="81.4" cy="81.4" r="80.9"/>
<g>
	<path class="st1" d="M133.6,121.7c0,19-24.2,34.3-53.9,34.3s-53.9-15.4-53.9-34.3"/>
	<path class="st0" d="M101.2,86.6c-0.4,0-0.9,0-1.3,0c-4.1,0-7.5,0.5-8.5,2.1l3.2-6.6c-4.3,4.2-9.5,6.6-15.1,6.6
		c-5.7,0-11-2.6-15.4-6.9l4.6,10.2c-1.1-1.7-5.2-2.6-10-3.1c1.9,3.5,6.5,6.3,12.6,7.6l8.3,13.5l8.3-13.5
		C95.2,94.8,100.5,91.1,101.2,86.6z"/>
	<polygon class="st1" points="104.7,113 99.3,113 99.3,117.9 94.4,117.9 94.4,123.3 99.3,123.3 99.3,128.2 104.7,128.2 104.7,123.3 
		109.6,123.3 109.6,117.9 104.7,117.9 	"/>
	<path class="st0" d="M79.5,84.5c8,0,15-5.7,19.4-14.4c2.4-4.8,4-10.5,4.4-16.7c0.2-1.1,0.2-2.3,0.3-3.5l-1.5-0.3H102l-8.1-1
		c4.4-2.6,2.1-8.2,1-10.1c-0.3-0.6-0.6-0.9-0.6-0.9c-0.1,0-0.1,0.1-0.2,0.1c-12.7,9.1-23,12.6-23,12.6c-5.7,2.3-15.3,3.8-15.3,3.8
		C57.4,71.3,67.4,84.5,79.5,84.5z"/>
	<path class="st1" d="M61.8,104.2c-2.4-4.9-5.4-8.3-8.9-9.8c-0.4-1-1.1-1.9-2-2.4c0.8-4.1,5.5-9.7,11.3-9.7v-3.8
		c-3.9,0-7.7,1.8-10.8,5.1C49,86,47.5,89,47.1,91.8c-1.1,0.5-1.9,1.5-2.3,2.6c-1.3,0.6-2.5,1.5-3.7,2.6c-2,1.9-3.8,4.5-5.2,7.6
		c-0.3,0.6-0.3,1.4-0.1,2c-1.4,3.6-2.2,7.5-2.2,10.8c0,3.6,0.2,5.8,1.1,7.3c1,1.6,2.6,2.1,3.9,2.3c0.4,0.4,1,0.6,1.5,0.6h3.4
		c1.3,0,2.3-1,2.3-2.3v-0.1l0,0c-0.1-1.2-1.1-2.2-2.3-2.2h-3.4c-0.4,0-0.7,0.1-1,0.2c-0.9-0.2-1.1-0.4-1.2-0.6
		c-0.5-0.8-0.6-3.2-0.6-5.3c0-2.8,0.7-6,1.9-9.1c0.7-0.2,1.3-0.8,1.6-1.4c2.2-4.9,5.4-8,8.1-8c2.6,0,5.7,2.9,7.9,7.6
		c0.3,0.6,0.8,1,1.3,1.3c1.3,3.2,2.1,6.7,2.1,9.7c0,2.7-0.1,4.5-0.5,5.3c-0.1,0.1-0.2,0.4-1,0.5c-0.3-0.1-0.6-0.2-1-0.2h-3.4
		c-1.2,0-2.3,1-2.3,2.2l0,0v0c0,1.3,1,2.3,2.3,2.3h3.4c0.6,0,1.2-0.2,1.6-0.7c4.5-0.9,4.7-4.2,4.7-9.5c0-3.4-0.8-7.4-2.3-11
		C62.1,105.7,62.1,104.9,61.8,104.2z"/>
	<path class="st0" d="M110,93.1c-0.5-0.3-1.1-0.5-1.7-0.7c-0.2-1.7-0.7-3.4-1.5-5.1c-1.9-4.1-5-7-8.7-8.2l-0.7-0.2l-0.2,0.7
		l-0.8,2.3l-0.2,0.7l0.7,0.2c4.2,1.4,6.8,5.7,7.5,9.6c-2.3,0.5-4.4,1.9-5.7,4.2c-2.2,4-0.6,9.1,3.4,11.2c4,2.2,9.1,0.6,11.2-3.4
		C115.6,100.3,114.1,95.3,110,93.1z M106.1,104.6c-2.3,0-4.1-1.9-4.1-4.1s1.9-4.1,4.1-4.1c2.3,0,4.1,1.9,4.1,4.1
		S108.4,104.6,106.1,104.6z"/>
	<path class="st1" d="M121.7,94.5c-3.7-3.3-8.1-5.8-12.9-7.4c6.1,0.7,11.5,1.7,11.5,1.7c-12.3-6.7-12-31-12-31
		c1.9-42.4-23.2-44.5-28-44.5c-0.5,0-0.8,0-0.8,0l0,0.1l0-0.1c0,0-0.3,0-0.8,0c-4.8,0-30,2-28,44.5c0,0,0.3,24.2-12,31
		c0,0,3.3-0.2,7.7-0.3c-3.4,1.5-6.4,3.5-9.1,5.9c-7.4,6.6-12.1,16.1-12.1,26.8c0,4.2,0.7,7.3,2,9.6c3.3,5.9,10.3,6.9,19.3,6.9
		c4.4,0,9.3-0.2,14.5-0.2H98c5.2,0,10.1,0.2,14.5,0.2c9,0,16-1,19.3-6.9c1.3-2.4,2-5.5,2-9.6C133.8,110.6,129.1,101,121.7,94.5z
		 M71.1,50.4c0,0,10.4-3.5,23-12.6c0.1,0,0.1-0.1,0.2-0.1c0,0,0.2,0.3,0.6,0.9c1.1,1.9,3.4,7.5-1,10.1l8.1,1h0.2l1.5,0.3
		c0,1.2-0.1,2.3-0.3,3.5c-0.5,6.2-2,11.9-4.4,16.7c-4.4,8.7-11.4,14.4-19.4,14.4c-12.1,0-22.2-13.2-23.7-30.3
		C55.8,54.2,65.4,52.6,71.1,50.4z M79.5,110l-8.3-13.5c-6-1.4-10.7-4.2-12.6-7.6c4.9,0.4,9,1.3,10,3.1l-4.6-10.2
		c4.4,4.4,9.7,6.9,15.4,6.9c5.6,0,10.7-2.4,15.1-6.6l-3.2,6.6c1-1.6,4.4-2.1,8.5-2.1c0.4,0,0.9,0,1.3,0c-0.7,4.5-6.1,8.3-13.4,10
		L79.5,110z M113.4,104.3c-2.2,4-7.2,5.6-11.2,3.4c-4-2.2-5.6-7.2-3.4-11.2c1.2-2.3,3.3-3.7,5.7-4.2c-0.7-3.8-3.3-8.2-7.5-9.6
		l-0.7-0.2l0.2-0.7l0.8-2.3l0.2-0.7l0.7,0.2c3.7,1.2,6.8,4.1,8.7,8.2c0.8,1.7,1.3,3.4,1.5,5.1c0.6,0.2,1.1,0.4,1.7,0.7
		C114.1,95.3,115.6,100.3,113.4,104.3z"/>
	<circle class="st1" cx="106.1" cy="100.4" r="4.1"/>
</g>
<path class="st0" d="M58.3,107.8c-0.6-0.3-1.1-0.7-1.3-1.3c-2.2-4.7-5.3-7.6-7.9-7.6c-2.7,0-5.9,3.2-8.1,8c-0.3,0.7-0.9,1.2-1.6,1.4
	c-1.2,3.1-1.9,6.4-1.9,9.1c0,2.1,0,4.5,0.6,5.3c0.1,0.1,0.2,0.4,1.2,0.6c0.3-0.2,0.7-0.2,1-0.2h3.4c1.2,0,2.2,1,2.3,2.2l0,0v0.1
	c0,1.3-1,2.3-2.3,2.3h-3.4c-0.6,0-1.1-0.2-1.5-0.6c-1.2-0.2-2.9-0.7-3.9-2.3c-1-1.5-1.1-3.7-1.1-7.3c0-3.3,0.8-7.1,2.2-10.8
	c-0.2-0.7-0.2-1.4,0.1-2c1.4-3.1,3.2-5.7,5.2-7.6c1.1-1.1,2.4-2,3.7-2.6c0.4-1.2,1.3-2.1,2.3-2.6c0.4-2.8,2-5.9,4.3-8.4
	c3.1-3.3,6.9-5.1,10.8-5.1v3.8c-5.8,0-10.5,5.7-11.3,9.7c0.9,0.5,1.6,1.3,2,2.4c3.4,1.5,6.5,4.9,8.9,9.8c0.3,0.7,0.3,1.6,0,2.3
	c1.5,3.7,2.3,7.7,2.3,11c0,5.3-0.2,8.7-4.7,9.5c-0.4,0.4-1,0.7-1.6,0.7h-3.4c-1.3,0-2.3-1-2.3-2.3v0l0,0c0-1.2,1-2.2,2.3-2.2h3.4
	c0.3,0,0.7,0.1,1,0.2c0.8-0.2,0.9-0.4,1-0.5"/>
<polygon class="st0" points="109.6,123.3 104.7,123.3 104.7,128.2 99.3,128.2 99.3,123.3 94.4,123.3 94.4,117.9 99.3,117.9 
	99.3,113 104.7,113 104.7,117.9 109.6,117.9 "/>
</svg>
