<?xml version="1.0" encoding="utf-8"?>
<!-- Generator: Adobe Illustrator 22.1.0, SVG Export Plug-In . SVG Version: 6.00 Build 0)  -->
<svg version="1.1" id="Layer_1" xmlns="http://www.w3.org/2000/svg" xmlns:xlink="http://www.w3.org/1999/xlink" x="0px" y="0px"
	 viewBox="0 0 155.9 155.9" style="enable-background:new 0 0 155.9 155.9;" xml:space="preserve">
<style type="text/css">
	.st0{fill-rule:evenodd;clip-rule:evenodd;fill:#08B5E5;}
	.st1{fill-rule:evenodd;clip-rule:evenodd;fill:#007DA6;}
	.st2{fill:#FFFFFF;}
</style>
<path class="st0" d="M82.5,1.5L82.5,1.5c3.4-2.4,8.1-1.8,10.7,1.4l0,0c2.2,2.6,5.7,3.5,8.9,2.4l0,0c3.9-1.4,8.3,0.4,10,4.1l0,0
	c1.4,3.1,4.6,4.9,8,4.6l0,0c4.1-0.4,7.9,2.5,8.6,6.6v0c0.6,3.3,3.2,5.9,6.5,6.5v0c4.1,0.7,7,4.5,6.6,8.6v0c-0.3,3.4,1.5,6.5,4.6,8
	l0,0c3.8,1.8,5.6,6.1,4.1,10l0,0c-1.2,3.2-0.2,6.7,2.4,8.9l0,0c3.2,2.7,3.8,7.3,1.4,10.7v0c-1.9,2.8-1.9,6.4,0,9.2v0
	c2.4,3.4,1.8,8.1-1.4,10.7l0,0c-2.6,2.2-3.5,5.7-2.4,8.9l0,0c1.4,3.9-0.4,8.3-4.1,10l0,0c-3.1,1.4-4.9,4.6-4.6,8v0
	c0.4,4.1-2.5,7.9-6.6,8.6l0,0c-3.3,0.6-5.9,3.2-6.5,6.5l0,0c-0.7,4.1-4.5,7-8.6,6.6h0c-3.4-0.3-6.5,1.5-8,4.6l0,0
	c-1.8,3.8-6.1,5.6-10,4.1l0,0c-3.2-1.2-6.7-0.2-8.9,2.4l0,0c-2.7,3.2-7.3,3.8-10.7,1.4h0c-2.8-1.9-6.4-1.9-9.2,0h0
	c-3.4,2.4-8.1,1.8-10.7-1.4l0,0c-2.2-2.6-5.7-3.5-8.9-2.4l0,0c-3.9,1.4-8.3-0.4-10-4.1l0,0c-1.4-3.1-4.6-4.9-8-4.6h0
	c-4.1,0.4-7.9-2.5-8.6-6.6h0c-0.6-3.3-3.2-5.9-6.5-6.5h0c-4.1-0.7-7-4.5-6.6-8.6l0,0c0.3-3.4-1.5-6.5-4.6-8l0,0
	c-3.8-1.8-5.6-6.1-4.1-10l0,0c1.2-3.2,0.2-6.7-2.4-8.9l0,0c-3.2-2.7-3.8-7.3-1.4-10.7l0,0c1.9-2.8,1.9-6.4,0-9.2l0,0
	c-2.4-3.4-1.8-8.1,1.4-10.7l0,0c2.6-2.2,3.5-5.7,2.4-8.9l0,0c-1.4-3.9,0.4-8.3,4.1-10l0,0c3.1-1.4,4.9-4.6,4.6-8l0,0
	c-0.4-4.1,2.5-7.9,6.6-8.6l0,0c3.3-0.6,5.9-3.2,6.5-6.5l0,0c0.7-4.1,4.5-7,8.6-6.6l0,0c3.4,0.3,6.5-1.5,8-4.6l0,0
	c1.8-3.8,6.1-5.6,10-4.1l0,0c3.2,1.2,6.7,0.2,8.9-2.4l0,0c2.7-3.2,7.3-3.8,10.7-1.4l0,0C76.1,3.4,79.8,3.4,82.5,1.5z"/>
<circle class="st1" cx="77.9" cy="77.9" r="63.5"/>
<g>
	<g>
		<polyline class="st2" points="78.8,103.1 125.8,56.1 111.5,41.8 64.5,88.8 44.4,68.7 30.1,83 50.1,103.1 64.4,117.4 		"/>
	</g>
</g>
</svg>
