<?xml version="1.0" encoding="utf-8"?>
<!-- Generator: Adobe Illustrator 22.1.0, SVG Export Plug-In . SVG Version: 6.00 Build 0)  -->
<svg version="1.1" id="bones" xmlns="http://www.w3.org/2000/svg" xmlns:xlink="http://www.w3.org/1999/xlink" x="0px" y="0px"
	 viewBox="0 0 226.4 153.2" style="enable-background:new 0 0 226.4 153.2;" xml:space="preserve">
<style type="text/css">
	.st0{fill:#08B5E5;}
	.st1{fill:#697F7C;}
	.st2{opacity:0.37;}
	.st3{fill:#10404A;}
	.st4{fill:#C7BBAD;}
	.st5{opacity:0.37;fill:#10404A;}
	.st6{opacity:0.67;fill:#697F7C;}
	.st7{fill:#847B77;}
	.st8{opacity:0.19;fill:#10404A;}
</style>
<circle class="st0" cx="113.1" cy="64.8" r="64.8"/>
<g>
	<g>
		<polygon class="st1" points="49.9,92.6 0,101 26.9,117.1 34,153.2 58,102.9 		"/>
		<g class="st2">
			<g>
				<line class="st3" x1="47.1" y1="95.2" x2="5.5" y2="102.2"/>
				<path class="st3" d="M47.1,95.2c0,0-2.6,0.2-6.6,0.6c-2,0.2-4.3,0.5-6.7,0.8c-2.5,0.3-5.1,0.8-7.7,1.2c-2.6,0.5-5.2,0.9-7.6,1.4
					c-2.4,0.5-4.7,1-6.6,1.4c-3.9,0.9-6.4,1.6-6.4,1.6s2.7-0.2,6.6-0.6c2-0.2,4.3-0.5,6.7-0.8c2.5-0.3,5.1-0.8,7.7-1.2
					c2.6-0.5,5.2-0.9,7.6-1.4c2.4-0.5,4.7-1,6.6-1.4C44.6,95.9,47.1,95.2,47.1,95.2z"/>
			</g>
		</g>
		<g class="st2">
			<g>
				<line class="st3" x1="51.3" y1="98.3" x2="9.6" y2="105.2"/>
				<path class="st3" d="M51.3,98.3c0,0-2.6,0.2-6.6,0.6c-2,0.2-4.3,0.5-6.7,0.8c-2.5,0.3-5.1,0.8-7.7,1.2c-2.6,0.5-5.2,0.9-7.6,1.4
					c-2.4,0.5-4.7,1-6.6,1.4c-3.9,0.9-6.4,1.6-6.4,1.6s2.7-0.2,6.6-0.6c2-0.2,4.3-0.5,6.7-0.8c2.5-0.3,5.1-0.8,7.7-1.2
					c2.6-0.5,5.2-0.9,7.6-1.4c2.4-0.5,4.7-1,6.6-1.4C48.7,99,51.3,98.3,51.3,98.3z"/>
			</g>
		</g>
		<g class="st2">
			<g>
				<line class="st3" x1="62.3" y1="98" x2="28.3" y2="123"/>
				<path class="st3" d="M62.3,98c0,0-2.3,1.3-5.6,3.5c-1.6,1.1-3.6,2.4-5.6,3.8c-2,1.4-4.2,3-6.3,4.5c-2.1,1.6-4.2,3.2-6.2,4.7
					c-2,1.5-3.7,3-5.3,4.2c-3.1,2.5-5,4.3-5,4.3s2.3-1.3,5.6-3.5c1.6-1.1,3.6-2.4,5.6-3.8c2-1.4,4.2-3,6.3-4.5
					c2.1-1.6,4.2-3.2,6.2-4.7c2-1.5,3.7-3,5.3-4.2C60.3,99.8,62.3,98,62.3,98z"/>
			</g>
		</g>
		<g class="st2">
			<g>
				<line class="st3" x1="64.7" y1="97.2" x2="26.1" y2="114.2"/>
				<path class="st3" d="M64.7,97.2c0,0-2.5,0.8-6.2,2.2c-1.8,0.7-4,1.5-6.3,2.5c-2.3,0.9-4.7,2-7.1,3c-2.4,1.1-4.8,2.1-7.1,3.2
					c-2.2,1-4.3,2.1-6.1,3c-3.5,1.8-5.8,3.1-5.8,3.1s2.5-0.8,6.2-2.2c1.8-0.7,4-1.5,6.3-2.5c2.3-0.9,4.7-2,7.1-3
					c2.4-1.1,4.8-2.2,7.1-3.2c2.2-1,4.3-2.1,6.1-3C62.4,98.5,64.7,97.2,64.7,97.2z"/>
			</g>
		</g>
		<g class="st2">
			<g>
				<line class="st3" x1="60.1" y1="97.6" x2="19.9" y2="110.8"/>
				<path class="st3" d="M60.1,97.6c0,0-2.6,0.6-6.4,1.6c-1.9,0.5-4.1,1.1-6.5,1.9c-2.4,0.7-4.9,1.5-7.4,2.3c-2.5,0.8-5,1.7-7.3,2.5
					c-2.3,0.8-4.5,1.7-6.3,2.4c-3.7,1.4-6.1,2.5-6.1,2.5s2.6-0.6,6.4-1.6c1.9-0.5,4.1-1.1,6.5-1.9c2.4-0.7,4.9-1.5,7.4-2.3
					c2.5-0.8,5-1.7,7.3-2.5c2.3-0.8,4.5-1.7,6.3-2.4C57.6,98.7,60.1,97.6,60.1,97.6z"/>
			</g>
		</g>
		<g class="st2">
			<g>
				<line class="st3" x1="54.8" y1="106.3" x2="36" y2="144.1"/>
				<path class="st3" d="M54.8,106.3c0,0-1.4,2.2-3.4,5.7c-0.9,1.7-2.1,3.7-3.3,5.9c-1.2,2.2-2.4,4.5-3.5,6.9
					c-1.2,2.4-2.3,4.7-3.4,7c-1.1,2.2-1.9,4.4-2.8,6.2c-1.6,3.6-2.5,6.1-2.5,6.1s1.4-2.2,3.4-5.7c0.9-1.7,2.1-3.7,3.3-5.9
					c1.2-2.2,2.4-4.5,3.5-6.9c1.2-2.4,2.3-4.7,3.4-7c1.1-2.2,1.9-4.4,2.8-6.2C53.8,108.8,54.8,106.3,54.8,106.3z"/>
			</g>
		</g>
		<g class="st2">
			<g>
				<line class="st3" x1="56.6" y1="102.2" x2="31.1" y2="133.3"/>
				<path class="st3" d="M56.6,102.2c0,0-1.8,1.8-4.3,4.6c-1.3,1.4-2.8,3-4.3,4.8c-1.5,1.8-3.2,3.7-4.8,5.6c-1.6,2-3.2,3.9-4.6,5.8
					c-1.5,1.9-2.8,3.6-3.9,5.1c-2.2,3-3.6,5.1-3.6,5.1s1.8-1.8,4.3-4.6c1.3-1.4,2.8-3,4.3-4.8c1.5-1.8,3.2-3.7,4.8-5.6
					c1.6-2,3.2-3.9,4.6-5.8c1.5-1.9,2.8-3.6,3.9-5.1C55.2,104.3,56.6,102.2,56.6,102.2z"/>
			</g>
		</g>
	</g>
	<polygon class="st1" points="136.9,73.1 145.3,86.6 127.4,81.2 	"/>
	<polygon class="st1" points="68.2,73.5 49.3,76.5 63.1,88.2 	"/>
	<polygon class="st1" points="132.4,26.4 97.4,18.4 100.5,46.1 	"/>
	<path class="st4" d="M222.6,29.2l-7.1,8.5l10.8-2.5c-20.9,28.1-172.2,72-172.2,72l-6.8-11.2C119.4-5.8,200.9,19.8,222.6,29.2z"/>
	<path class="st4" d="M218.5,27.5c1.6,0.6,2.9,1.2,4.1,1.7l-1.8,2.1L214,33L218.5,27.5z"/>
	<path class="st5" d="M52.6,102.5c0,0,128.9-37.4,165.2-65.3l8.6-2c-20.9,28.1-172.2,72-172.2,72l-6.8-11.2c0.2-0.3,0.5-0.6,0.7-1
		L52.6,102.5z"/>
	<path class="st6" d="M52.6,102.5l-4.5-7.4C116,0,192,17.4,218.5,27.5L214,33l6.9-1.6l-5.3,6.4l2.2-0.5
		C181.5,65.1,52.6,102.5,52.6,102.5z"/>
	<polygon class="st1" points="104.3,91.5 96.3,107.8 77.1,100.3 	"/>
	<path class="st1" d="M182.9,48.6c0,0-23.7,11.9-30,7.9c0,0,4.7-10.5,27.9-14.1L182.9,48.6z"/>
	<path class="st7" d="M189.4,20.3c15.1,1.9,26.8,6.1,33.3,8.9l-7.1,8.5l10.8-2.5c-5,6.7-17.4,14.3-33.4,22
		C174.4,43.2,183.2,27.7,189.4,20.3z"/>
	<path class="st6" d="M222.6,29.2c0,0-84.3,0.3-172.1,68.4c-0.5,0.4-1,0.8-1.5,1.2l-1.7-2.8C119.4-5.8,200.9,19.8,222.6,29.2z"/>
	<path d="M201,34.4c0.4,1.2,1.7,1.8,2.8,1.4c1.2-0.4,1.8-1.7,1.4-2.8c-0.4-1.2-1.7-1.8-2.8-1.4C201.2,32,200.6,33.3,201,34.4z"/>
	<path class="st5" d="M176.6,25.2c0.4,1.1,1.3,1.8,2.1,1.5c0.8-0.3,1.1-1.4,0.7-2.5c-0.4-1.1-1.3-1.8-2.1-1.5
		C176.5,23,176.2,24.1,176.6,25.2z"/>
	<path class="st5" d="M167.5,26c0.4,1.1,1.3,1.8,2.1,1.5c0.8-0.3,1.1-1.4,0.7-2.5c-0.4-1.1-1.3-1.8-2.1-1.5
		C167.5,23.8,167.2,24.9,167.5,26z"/>
	<path class="st5" d="M159.8,26.5c0.4,1.1,1.3,1.8,2.1,1.5c0.8-0.3,1.1-1.4,0.7-2.5c-0.4-1.1-1.3-1.8-2.1-1.5
		C159.7,24.3,159.4,25.4,159.8,26.5z"/>
	<path class="st5" d="M150.7,27.3c0.4,1.1,1.3,1.8,2.1,1.5c0.8-0.3,1.1-1.4,0.7-2.5c-0.4-1.1-1.3-1.8-2.1-1.5
		C150.6,25.1,150.3,26.2,150.7,27.3z"/>
	<path class="st5" d="M139.2,28.9c0.4,1.1,1.3,1.8,2.1,1.5c0.8-0.3,1.1-1.4,0.7-2.5c-0.4-1.1-1.3-1.8-2.1-1.5
		C139.2,26.6,138.9,27.7,139.2,28.9z"/>
	<path class="st5" d="M134.3,37c0.4,1.1,1.3,1.8,2.1,1.5c0.8-0.3,1.1-1.4,0.7-2.5c-0.4-1.1-1.3-1.8-2.1-1.5
		C134.3,34.8,134,35.9,134.3,37z"/>
	<path class="st5" d="M126.1,33.2c0.4,1.1,1.3,1.8,2.1,1.5c0.8-0.3,1.1-1.4,0.7-2.5c-0.4-1.1-1.3-1.8-2.1-1.5
		C126.1,31,125.7,32.1,126.1,33.2z"/>
	<path class="st5" d="M125,41.7c0.4,1.1,1.3,1.8,2.1,1.5c0.8-0.3,1.1-1.4,0.7-2.5c-0.4-1.1-1.3-1.8-2.1-1.5
		C125,39.5,124.6,40.6,125,41.7z"/>
	<path class="st5" d="M115.7,38.9c0.4,1.1,1.3,1.8,2.1,1.5c0.8-0.3,1.1-1.4,0.7-2.5c-0.4-1.1-1.3-1.8-2.1-1.5
		C115.7,36.6,115.4,37.7,115.7,38.9z"/>
	<path class="st5" d="M104.3,48.5c0.4,1.1,1.3,1.8,2.1,1.5c0.8-0.3,1.1-1.4,0.7-2.5c-0.4-1.1-1.3-1.8-2.1-1.5
		C104.3,46.3,103.9,47.4,104.3,48.5z"/>
	<path class="st5" d="M100.1,54.4c0.4,1.1,1.3,1.8,2.1,1.5c0.8-0.3,1.1-1.4,0.7-2.5c-0.4-1.1-1.3-1.8-2.1-1.5
		C100.1,52.1,99.8,53.2,100.1,54.4z"/>
	<path class="st5" d="M90.9,55.8c0.4,1.1,1.3,1.8,2.1,1.5c0.8-0.3,1.1-1.4,0.7-2.5c-0.4-1.1-1.3-1.8-2.1-1.5
		C90.9,53.6,90.6,54.7,90.9,55.8z"/>
	<path class="st5" d="M87.1,61.5c0.4,1.1,1.3,1.8,2.1,1.5c0.8-0.3,1.1-1.4,0.7-2.5c-0.4-1.1-1.3-1.8-2.1-1.5
		C87,59.3,86.7,60.4,87.1,61.5z"/>
	<path class="st5" d="M79.2,65.7c0.4,1.1,1.3,1.8,2.1,1.5c0.8-0.3,1.1-1.4,0.7-2.5c-0.4-1.1-1.3-1.8-2.1-1.5
		C79.1,63.5,78.8,64.6,79.2,65.7z"/>
	<path class="st5" d="M72.7,71.4c0.4,1.1,1.3,1.8,2.1,1.5c0.8-0.3,1.1-1.4,0.7-2.5c-0.4-1.1-1.3-1.8-2.1-1.5
		C72.7,69.2,72.4,70.3,72.7,71.4z"/>
	<path class="st5" d="M68,77.4c0.4,1.1,1.3,1.8,2.1,1.5c0.8-0.3,1.1-1.4,0.7-2.5c-0.4-1.1-1.3-1.8-2.1-1.5
		C67.9,75.2,67.6,76.3,68,77.4z"/>
	<path class="st5" d="M62,82.7c0.4,1.1,1.3,1.8,2.1,1.5c0.8-0.3,1.1-1.4,0.7-2.5c-0.4-1.1-1.3-1.8-2.1-1.5
		C62,80.5,61.7,81.6,62,82.7z"/>
	<path class="st5" d="M113.2,47.8c0.4,1.1,1.3,1.8,2.1,1.5c0.8-0.3,1.1-1.4,0.7-2.5c-0.4-1.1-1.3-1.8-2.1-1.5
		C113.2,45.6,112.8,46.7,113.2,47.8z"/>
	<path class="st5" d="M146.2,33.2c0.4,1.1,1.3,1.8,2.1,1.5c0.8-0.3,1.1-1.4,0.7-2.5c-0.4-1.1-1.3-1.8-2.1-1.5
		C146.1,31,145.8,32.1,146.2,33.2z"/>
	<polyline class="st8" points="128.7,27.8 99.5,20.7 102.5,41 103.2,24.7 121.2,30.1 105.5,27.7 104.9,38.6 108,30.6 114.8,32.2 
		108.6,32.3 107.8,36.4 	"/>
</g>
</svg>
