<?xml version="1.0" encoding="utf-8"?>
<!-- Generator: Adobe Illustrator 22.1.0, SVG Export Plug-In . SVG Version: 6.00 Build 0)  -->
<svg version="1.1" id="Layer_1" xmlns="http://www.w3.org/2000/svg" xmlns:xlink="http://www.w3.org/1999/xlink" x="0px" y="0px"
	 viewBox="0 0 194.2 194.2" style="enable-background:new 0 0 194.2 194.2;" xml:space="preserve">
<style type="text/css">
	.st0{fill:#308017;}
	.st1{fill:#FFFFFF;}
	.st2{fill:#40AD4A;}
</style>
<circle class="st0" cx="97.1" cy="97.1" r="97.1"/>
<g id="uyWtlS_1_">
	<g>
		<path class="st1" d="M50.1,73c6.6,0,13.2,0,19.8,0c3.5,0,3.5,0,3.5-3.6c0-13.2,0-26.4,0-39.7c0-3.4,0-3.4,3.4-3.4
			c12.2,0,24.4,0,36.6,0c3.1,0,3.2,0.1,3.2,3.2c0,11.8,0,23.6,0,35.4c0,1.9-0.5,2.9-2.6,3c-11.4,0.7-21,5.5-29.3,13.1
			c-9.3,8.6-16,19-21.1,30.4c-1.6,3.5-3.4,4.9-7.3,4.8c-8.9-0.3-17.8-0.2-26.7-0.1c-2.2,0-2.9-0.7-2.9-2.9c0.1-12.5,0.1-25,0-37.5
			c0-2.1,0.7-2.9,2.9-2.9C36.4,73,43.3,73,50.1,73z"/>
		<g>
			<path class="st2" d="M81.7,136.1c-1.5,0-3,0-4.6-0.1c-2.9-0.1-5.8-0.7-8.5-1.3c-1.4-0.3-2.8-0.5-4.1-0.8c-0.8-0.1-2-0.4-2.6-1.4
				c-0.4-0.8-0.4-1.7,0-3c5-13.2,11.6-28.4,23.4-41.1c9.8-10.6,21.7-16,35.3-16c3.2,0,6.6,0.3,10,0.9l1,0.2c2.2,0.4,4.6,0.8,6.8,1.6
				c1.1,0.4,2.2,0.6,3.4,0.6c2,0,4.1-0.6,5.8-1.2c3.7-1.3,7.5-2.3,11.2-3.3c1.3-0.4,2.7-0.7,4-1.1c0.5-0.1,0.9-0.2,1.3-0.2
				c0.9,0,1.5,0.4,1.8,0.7c0.5,0.5,0.7,1.2,0.6,2.1c0,0.3,0,0.6,0.1,1c0.1,0.9,0.3,2.1-0.5,3c-0.5,0.6-1.3,0.9-2.4,0.9h-0.1
				c-13.7,0-25.8,6-37,12.1c-2.7,1.5-5.3,3-7.9,4.6c0.2-0.1,0.3-0.2,0.5-0.2c7.4-3.3,15.2-6.1,22.6-8.9l1.3-0.5
				c1.1-0.4,1.8-0.6,2.4-0.6c0.6,0,1.1,0.2,1.5,0.6c0.7,0.7,0.8,1.7,0.8,3.5c-0.1,8.7-3.6,16.7-10.9,24.5
				C122.1,128.2,103.6,136.1,81.7,136.1C81.7,136.1,81.7,136.1,81.7,136.1z"/>
			<path class="st1" d="M163.9,70.8c0.9,0,1.5,0.4,1.4,1.7c-0.1,1.5,1.1,3.9-1.8,3.9c0,0,0,0,0,0c0,0-0.1,0-0.1,0
				c-13.8,0-25.8,5.8-37.4,12.2c-7.9,4.3-15.4,9.4-23.1,14.2c0.1,0.2,0.2,0.5,0.4,0.7c5.4-2.9,10.6-6.2,16.2-8.7
				c7.8-3.5,15.9-6.4,23.9-9.3c0.9-0.3,1.5-0.5,2-0.5c1.1,0,1.2,0.9,1.2,3c-0.1,9.5-4.4,17.2-10.6,23.8
				c-14.8,15.9-33.1,23.3-54.3,23.3c-1.5,0-3,0-4.5-0.1c-4.2-0.2-8.4-1.3-12.6-2c-1.9-0.3-2.5-1.1-1.8-3.1
				c5.6-14.8,12.3-29,23.2-40.8c9.7-10.5,21.3-15.6,34.5-15.6c3.2,0,6.4,0.3,9.8,0.9c2.6,0.4,5.2,0.8,7.6,1.7
				c1.3,0.4,2.5,0.6,3.7,0.6c2,0,4-0.5,6.1-1.3c4.9-1.8,10.1-3,15.2-4.4C163.2,70.9,163.5,70.8,163.9,70.8 M163.9,68.8
				c-0.5,0-1,0.1-1.5,0.2c-1.3,0.4-2.7,0.7-4,1.1c-3.7,1-7.6,2-11.3,3.4c-1.6,0.6-3.5,1.2-5.4,1.2c-1,0-2-0.2-3-0.5
				c-2.3-0.8-4.6-1.2-6.9-1.6l-1-0.2c-3.5-0.6-6.9-0.9-10.1-0.9c-13.9,0-26,5.5-36,16.3c-11.9,12.8-18.6,28.1-23.6,41.4
				c-0.2,0.6-0.9,2.3,0,3.8c0.9,1.5,2.7,1.8,3.3,1.9c1.4,0.2,2.7,0.5,4.1,0.8c2.8,0.6,5.7,1.1,8.7,1.3c1.6,0.1,3.1,0.1,4.6,0.1
				c22.2,0,40.9-8.1,55.7-24c7.4-8,11.1-16.2,11.1-25.2c0-1.7-0.1-3.2-1.1-4.2c-0.4-0.4-1.1-0.9-2.2-0.9c-0.7,0-1.5,0.2-2.7,0.6
				l-1.4,0.5c-2.8,1-5.6,2.1-8.5,3.2c9.4-4.8,19.5-8.8,30.6-8.8l0.1,0c1.4,0,2.4-0.4,3.1-1.2c1.1-1.2,0.9-2.8,0.7-3.8
				c0-0.3-0.1-0.6-0.1-0.8c0.1-1.5-0.4-2.3-0.9-2.8C166,69.4,165.2,68.8,163.9,68.8L163.9,68.8z"/>
		</g>
		<path class="st1" d="M118.4,132.5c0.1,1.1,0.2,1.9,0.2,2.7c0,9.6-0.1,19.2,0,28.8c0,2.3-0.8,3-3,3c-12.4-0.1-24.9-0.1-37.3,0
			c-2.3,0-3-0.7-3-3c0.1-6.8,0.1-13.5,0-20.3c0-2,0.6-2.9,2.7-2.7c13.4,1,26.1-1.8,38.2-7.6C116.8,133,117.4,132.9,118.4,132.5z"/>
		<path class="st1" d="M139.6,118.2c2.2-2.5,4-4.4,5.6-6.5c4.9-6.2,8.5-13.1,9.2-21.1c0.2-2,0-4.1-0.1-6.1c-0.1-1.3,0.1-2.3,1.5-2.5
			c3.7-0.6,7.4-1.1,11.2-1.6c1.7-0.2,2.4,0.8,2.4,2.4c0,11,0,22,0,33.1c0,1.1,0,2.3-1.6,2.3C158.6,118.2,149.4,118.2,139.6,118.2z"
			/>
	</g>
</g>
</svg>
