<?xml version="1.0" encoding="utf-8"?>
<!-- Generator: Adobe Illustrator 22.1.0, SVG Export Plug-In . SVG Version: 6.00 Build 0)  -->
<svg version="1.1" id="Layer_1" xmlns="http://www.w3.org/2000/svg" xmlns:xlink="http://www.w3.org/1999/xlink" x="0px" y="0px"
	 viewBox="0 0 298.7 179.7" style="enable-background:new 0 0 298.7 179.7;" xml:space="preserve">
<style type="text/css">
	.st0{fill:#1E417E;}
</style>
<g id="GA3Fnt_2_">
	<g>
		<path class="st0" d="M94.6,154.4c-13.1,0-24.1-2.5-34.4-8c-4.8-2.6-9.2-5.7-13.2-9.4c-7.4-6.9-12.8-15.1-16.2-24.6
			c-1.5-4.1-2.5-8.2-3.1-12.5c-0.6-4.2-0.8-8.4-0.7-12.6c0.5-12.3,4.1-23.6,11-33.8c6.8-9.9,15.7-17.3,26.6-22.3
			c5.4-2.5,11.1-4.2,17-5.1c4.4-0.7,8.9-1.1,13.4-1c14.9,0.4,28.6,4.6,40.5,13.8c9.1,7,15.7,16,20,26.7c1.9,4.9,3.2,9.9,3.9,15.1
			c0.6,4.3,0.7,8.7,0.4,13c-0.6,9.4-3,18.3-7.5,26.7c-3.7,7-8.7,13.1-14.7,18.2c-8.4,7.1-18.1,11.8-28.9,14.1
			C103.6,153.9,98.4,154.5,94.6,154.4z M93.2,50.5c-1.7,0.1-3.3,0.2-5,0.3c-0.8,0.1-1.6,0.2-2.4,0.4C74.5,53.6,66,59.8,60.6,69.9
			c-4.6,8.6-5.8,17.9-4.1,27.5c1.6,8.9,5.7,16.5,12.5,22.5c6.3,5.6,13.7,8.5,22.1,9c4,0.3,8-0.1,11.9-1c8.2-2.1,14.8-6.4,20-13.1
			c5.5-7.2,7.9-15.4,8.1-24.4c0.1-4.9-0.7-9.7-2.3-14.4c-2.4-7-6.5-12.9-12.2-17.4C109.7,53.2,101.9,50.6,93.2,50.5z"/>
		<path class="st0" d="M201.3,128.1c0.6,0,1,0,1.4,0c22.1,0,44.1,0,66.2,0c0.7,0,1.1,0.1,1.1,0.9c0,7.5,0,14.9,0,22.4
			c0,0.3,0,0.5,0,0.8c-34.7,0-69.3,0-104.1,0c0-0.3,0-0.6,0-1c0-6.4,0-12.7,0-19.1c0-0.5,0.2-1.1,0.5-1.5c2.7-3.2,5.4-6.3,8.2-9.5
			c3.1-3.6,6.1-7.1,9.1-10.7c3.1-3.6,6.2-7.2,9.4-10.8c2.7-3.1,5.4-6.3,8.1-9.5c2.3-2.7,4.6-5.4,7-8.1c2.7-3.2,5.5-6.4,8.2-9.6
			c3.1-3.6,6.2-7.2,9.3-10.8c2.9-3.3,5.7-6.7,8.7-10.2c-0.6,0-0.9-0.1-1.3-0.1c-21.2,0-42.4,0-63.6,0c-0.2,0-0.5,0-0.7,0
			c-0.6,0.1-0.8-0.2-0.8-0.8c0-7.6,0-15.1,0-22.7c0-0.2,0-0.4,0.1-0.7c0.4,0,0.7,0,1.1,0c33.2,0,66.4,0,99.7,0c1.2,0,1.2,0,1.2,1.2
			c0,6.3,0,12.6,0,18.9c0,0.5-0.2,1.2-0.6,1.6c-3.5,4.1-7,8.2-10.5,12.2c-3.5,4-7,8.1-10.4,12.1c-3.8,4.4-7.6,8.8-11.3,13.2
			c-3.8,4.5-7.7,8.9-11.6,13.4c-3.8,4.4-7.6,8.8-11.3,13.2c-3.1,3.6-6.2,7.2-9.3,10.8C203.7,125.2,202.6,126.5,201.3,128.1z"/>
		<path class="st0" d="M177.6,164c0,0.4,0.1,0.7,0.1,0.9c0,4.7,0,9.4,0,14.2c0,0.7-0.1,1-0.9,0.9c-0.5-0.1-0.9,0-1.4,0
			c-58.1,0-116.2,0-174.3,0c-0.3,0-0.6,0-1.1,0c0-60,0-120,0-180c13.8,0,27.7,0,41.7,0c0,5.1,0,10.3,0,15.5c-8.7,0-17.3,0-26,0
			c0,49.5,0,98.9,0,148.5C69.6,164,123.5,164,177.6,164z"/>
		<path class="st0" d="M284.3,15.7c-46.9,0-93.7,0-140.5,0c0-5.3,0-10.4,0-15.7C195.8,0,247.9,0,300,0c0,60,0,119.9,0,180
			c-13.2,0-26.4,0-39.6,0c0-0.4-0.1-0.7-0.1-1.1c0-4.6,0-9.1,0-13.7c0-0.9,0.2-1.1,1.1-1.1c7.3,0,14.5,0,21.8,0c0.4,0,0.7,0,1.1,0
			C284.3,114.6,284.3,65.2,284.3,15.7z"/>
		<path class="st0" d="M231.3,164c1.2,0,2.3,0,3.3,0c0.2,0,0.5,0.4,0.6,0.7c1,3.1,2,6.3,3,9.7c0.2-0.6,0.4-1.1,0.6-1.5
			c0.9-2.7,1.8-5.5,2.7-8.3c0.1-0.5,0.3-0.7,0.9-0.6c0.8,0,1.5,0,2.4,0c1.1,3.4,2.3,6.8,3.5,10.5c0.4-1.2,0.7-2.1,0.9-3
			c0.7-2.3,1.4-4.5,2.1-6.8c0.2-0.5,0.4-0.7,0.9-0.7c0.9,0,1.9,0,3,0c-0.2,0.7-0.4,1.3-0.6,1.9c-1.5,4.4-3,8.8-4.5,13.3
			c-0.2,0.6-0.5,0.8-1.1,0.8c-2.3,0-2.3,0-3-2.2c-0.9-2.6-1.8-5.2-2.8-8c-0.9,2.5-1.7,4.8-2.4,7c-0.3,0.8-0.6,1.6-0.8,2.4
			c-0.2,0.6-0.5,0.7-1,0.7c-2.3,0-2.3,0-3-2.2c-1.4-4.3-2.9-8.5-4.4-12.8C231.4,164.8,231.4,164.5,231.3,164z"/>
		<path class="st0" d="M222.3,180c-4.5,0.4-8.3-3.6-8.3-8.1c0-4.2,3.5-8.4,8.9-8.2c4.4,0.2,8,3.6,8,8.1
			C230.8,176.7,226.8,180.4,222.3,180z M227.1,172.1c0-2.8-1.9-4.9-4.6-5c-2.5-0.1-4.6,2.1-4.7,4.7c0,2.9,2,5.1,4.7,5.1
			C225,176.9,227,174.8,227.1,172.1z"/>
		<path class="st0" d="M118.5,0c3,0,6-0.1,9,0c2.3,0.1,4.1,2.3,4.2,4.6c0.1,2.5-0.9,4.3-3.3,5.4c1.3,1.9,2.5,3.6,3.8,5.6
			c-1.4,0-2.7,0-4,0c-0.2,0-0.5-0.4-0.6-0.6c-0.8-1.2-1.6-2.3-2.4-3.5c-0.4-0.7-0.9-1-1.7-0.9c-0.4,0.1-0.9,0-1.5,0
			c0,1.3,0,2.6,0,3.9c0,1.2,0,1.2-1.2,1.2c-2.4,0-2.4,0-2.4-2.4c0-4.2,0-8.5,0-12.7C118.5,0.4,118.5,0.2,118.5,0z M122.1,7.5
			c1.5-0.1,2.9-0.1,4.2-0.2c1.1-0.2,1.6-0.9,1.7-2c0-1.1-0.5-1.9-1.6-2.1c-1.4-0.1-2.8,0-4.3,0C122.1,4.6,122.1,5.9,122.1,7.5z"/>
		<path class="st0" d="M101.7-0.1c2.3,0,4.7-0.1,7,0c1.1,0.1,2.4,0.3,3.4,0.8c3.1,1.5,4.6,4.5,4.2,8.1c-0.3,3-2.9,6-6,6.4
			c-2.6,0.4-5.4,0.2-8.1,0.3c-0.2,0-0.5-0.5-0.5-0.8c0-4.7,0-9.4,0-14.1C101.6,0.5,101.7,0.3,101.7-0.1z M105.2,12.4
			c1.1,0,2.1,0,3.1,0c2.2-0.1,4-1.8,4.2-3.9c0.3-2.5-1-4.7-3.2-5.2c-1.2-0.3-2.4-0.2-3.6-0.3c-0.2,0-0.5,0.4-0.5,0.6
			C105.2,6.5,105.2,9.4,105.2,12.4z"/>
		<path class="st0" d="M67.2,15.6c-1.2,0-2.3,0-3.5,0c0-5.2,0-10.4,0-15.6c1.1,0,2.2,0,3.5,0c0,2,0,3.9,0,5.9c2.1,0,4.2,0,6.3,0
			c0-2,0-3.9,0-5.9c1.3,0,2.4,0,3.6,0c0,5.2,0,10.4,0,15.7c-1.1,0-2.1,0-3.2,0c-0.1,0-0.4-0.5-0.4-0.7c0-1.5,0-3,0-4.5
			c0-0.3,0-0.6,0-1c-2,0-3.9,0-5.9,0c-0.2,0-0.4,0.5-0.4,0.8C67.2,11.9,67.2,13.7,67.2,15.6z"/>
		<path class="st0" d="M92.3,15.7c-0.9,0-1.8,0-2.7,0c-2.8,0-5.6,0-8.5,0c-0.5,0-0.8-0.1-0.8-0.7c0-4.9,0-9.7,0-14.6
			c0-0.1,0-0.2,0.1-0.4c3.9,0,7.8,0,11.8,0c0,0.9,0,1.9,0,2.9c-2.7,0-5.5,0-8.3,0c0,1.1,0,2,0,3.1c0.5,0,1,0,1.6,0c1.7,0,3.3,0,5,0
			c0.6,0,0.8,0.1,0.9,0.8c0,2.5,0.1,2.5-2.5,2.5c-1.6,0-3.1,0-4.7,0c-0.1,0-0.1,0-0.2,0.1c0,0.9,0,1.9,0,3c2.8,0,5.6,0,8.4,0
			C92.3,13.5,92.3,14.5,92.3,15.7z"/>
		<path class="st0" d="M208,164.2c1.2,0,2.3,0,3.4,0c0,5.2,0,10.4,0,15.7c-1,0-2,0-3,0c-0.2,0-0.4-0.5-0.4-0.8c0-1.5,0-3,0-4.5
			c0-0.3,0-0.6,0-1c-2.1,0-4.1,0-6.2,0c0,1.4,0,2.8,0,4.3c0,2.1,0,2.1-2,2.1c-1.8,0-1.6,0.2-1.6-1.6c0-4.7,0-9.3,0-14.1
			c1.2,0,2.3,0,3.6,0c0,2,0,4,0,6c2.1,0,4.1,0,6.2,0C208,168.3,208,166.3,208,164.2z"/>
		<path class="st0" d="M195.4,165.9c-0.7,1-1.2,1.8-1.7,2.5c-1.3-0.5-2.5-1-3.8-1.3c-0.5-0.1-1.1,0-1.6,0.2c-1,0.4-1.1,1.6-0.1,2.1
			c0.8,0.4,1.8,0.6,2.7,0.9c0.8,0.3,1.6,0.5,2.4,0.8c1.7,0.7,2.6,2,2.6,3.9c0,1.9-0.8,3.4-2.6,4.3c-1.1,0.6-2.3,0.4-3.5,0.5
			c-2.4,0.1-4.4-0.7-6.2-2.2c-0.1-0.1-0.1-0.1-0.2-0.3c0.7-0.8,1.3-1.6,1.9-2.3c1.4,0.6,2.7,1.2,4,1.6c0.7,0.2,1.5,0,2.2-0.2
			c0.4-0.1,0.8-0.7,0.8-1.1c0-0.4-0.3-0.9-0.7-1.1c-0.7-0.4-1.6-0.6-2.4-0.9c-0.9-0.3-1.8-0.5-2.7-0.9c-1.9-0.8-2.7-2.3-2.5-4.3
			c0.1-1.8,1-3.2,2.7-3.9C189.7,163.2,192.6,164,195.4,165.9z"/>
		<path class="st0" d="M52.6,3.1c-1.7,0-3.2,0-4.7,0c0-1.1,0-2,0-3.1c4.3,0,8.6,0,13,0c0,1,0,2,0,3.1c-1.5,0-3.1,0-4.7,0
			c0,0.4,0,0.7,0,1.1c0,3.6,0,7.1,0,10.7c0,0.6-0.1,0.9-0.8,0.9c-0.6-0.1-1.3,0-2,0c-0.6,0-0.8-0.2-0.8-0.8c0-3.5,0-7.1,0-10.6
			C52.6,3.9,52.6,3.6,52.6,3.1z"/>
		<path class="st0" d="M137.5,15.5c-1.2,0-2.4,0-3.6,0c0-1.1,0-2.3,0-3.5c1.1,0,2.2,0,3.2,0c0.1,0,0.3,0.3,0.4,0.4
			C137.6,13.4,137.5,14.5,137.5,15.5z"/>
	</g>
</g>
</svg>
