<?xml version="1.0" encoding="utf-8"?>
<!-- Generator: Adobe Illustrator 22.1.0, SVG Export Plug-In . SVG Version: 6.00 Build 0)  -->
<svg version="1.1" id="Layer_1" xmlns="http://www.w3.org/2000/svg" xmlns:xlink="http://www.w3.org/1999/xlink" x="0px" y="0px"
	 viewBox="0 0 31 34.9" style="enable-background:new 0 0 31 34.9;" xml:space="preserve">
<style type="text/css">
	.st0{fill:#FFFFFF;}
	.st1{fill:#E76B24;}
	.st2{fill:#E76C24;}
	.st3{fill:#96979B;}
	.st4{fill:#E66D25;}
	.st5{fill:#E66A24;}
	.st6{fill:#95959A;}
	.st7{fill:#979698;}
	.st8{fill:#979699;}
	.st9{fill:#C5B1D6;}
</style>
<g>
	<rect x="14.4" y="13.4" class="st0" width="6.4" height="3.5"/>
	<g id="jNBiUU_1_">
		<g>
			<path class="st0" d="M14.3,13c0-0.3,0.3-0.5,0.5-0.7c0.6-0.6,1.2-1.2,2-1.6c0.3,0.4,0.4,0.4,0.7,0c0.2-0.4,0.4-0.5,0.8-0.3
				c0.8,0.4,1.6,0.5,2.4,0.3c1-0.3,1.6-1,2.1-1.8c1.6-0.1,3.1,0.2,4.5,0.8c1.5,0.6,2.7,1.6,3.3,3.1c0.8,1.9,0.3,3.6-0.9,5.2
				c-1.2,1.6-2.8,2.6-4.6,3.2c-0.4,0.1-0.4,0.3-0.3,0.7c0.4,0.9,0.9,1.7,1.7,2.3c-0.7,0.2-1.5-0.1-2.4-0.6c-0.6-0.4-1.1-0.9-1.7-1.3
				c-0.1-0.1-0.2-0.2-0.3-0.2c0-0.1,0-0.1,0-0.2c0.6-0.6,0.6-1.4,0.5-2.1c1,0,2,0,2.9,0c0.2,0,0.3,0,0.3-0.2c0-0.2,0-0.3-0.3-0.4
				c-0.1,0-0.2-0.1-0.3-0.1c-0.5,0-0.7-0.3-0.7-0.8c0-1.1,0-2.2,0-3.2c0-0.7,0.4-1.2,1-1.5c0.3-0.1,0.5-0.2,0.4,0.3
				c-0.1,0.4,0.2,0.7,0.6,0.8c0.4,0.1,0.8-0.1,0.9-0.5c0.2-0.8,0-1.5-1.1-1.5c-0.4,0-0.7,0.2-1,0.4c-0.3,0.2-0.5,0.4-0.8,0.6
				c0-0.2,0-0.4,0-0.5c0.1-0.4-0.1-0.5-0.5-0.5c-0.5,0.1-1.1,0.1-1.6,0.1c-0.2,0-0.3,0.1-0.4,0.3c0,0.2,0.1,0.3,0.3,0.3
				c0.6,0.2,0.8,0.4,0.8,1.1c0,1.3,0,2.5,0,3.8c0,0.6-0.2,0.8-0.9,0.8c-0.1-0.6-0.5-1.1-1-1.6c-0.5-0.6-1.1-0.9-1.7-1.4
				c0.3,0,0.6,0,1,0c0.2,0,0.3-0.1,0.3-0.3c0-1-0.1-2-1.1-2.6c-1-0.6-2.1-0.6-3.1-0.1c-0.8,0.4-1.2,1.1-1.5,1.8
				c-0.7,0-1.4,0.1-2.1,0.1c0.3-0.7,0.5-1.3,1.3-1.6c0.1,0,0.2-0.2,0.2-0.3C14.7,13,14.5,13.1,14.3,13z"/>
			<path class="st0" d="M22.2,22.1c0,0.1,0,0.1,0,0.2c-0.6,0.9-1.4,1.5-2.4,1.9c-0.8,0.3-1.7,0.5-2.6,0.5c0-0.3,0-0.6,0-0.9
				c0-0.9,0-0.9-0.9-0.9c-0.3,0-0.4,0.1-0.4,0.4c0,0.4,0,0.8,0,1.2c0,0.4-0.2,0.6-0.6,0.6c-0.2,0-0.5-0.1-0.7,0.1
				c-0.1,0-0.2,0-0.2,0c-0.3-0.2-0.6,0-0.9-0.1c0.3-0.7,0.3-0.7-0.4-0.9c-0.1-0.1-0.3-0.1-0.4-0.2c0-0.3,0-0.5,0-0.8
				c0-0.4,0.1-0.8,0.3-1.1c0.3-0.4,0.5-0.4,0.7,0c0.1,0.2,0.3,0.4,0.4,0.6c0.2,0.2,0.5,0.2,0.8,0.1c0.3-0.1,0.3-0.4,0.4-0.6
				c0-0.5-0.3-0.8-0.8-0.9c-0.7-0.1-1.4,0-2,0.4c-0.6,0.4-0.9,1-1.2,1.7c-1.4-0.6-3.1-2.8-2.5-4.8c0.1-0.4,0.3-0.8,0.6-1
				c0.1,0,0.2,0.1,0.2,0.2c0.3,0.7,0.6,1.4,0.9,2.1c0.1,0.2,0.2,0.3,0.5,0.3c0.3,0,0.3-0.2,0.4-0.4c0.1-0.4,0.2-0.7,0.4-1.1
				c0.4-1,0.8-2,1.3-2.9c0,0.9,0,1.8,0.4,2.6c1,2.1,3,3,5.1,3.5C19.8,22.1,21,22,22.2,22.1z"/>
			<path class="st1" d="M22.9,8.9c-0.5,0.8-1.1,1.6-2.1,1.8c-0.8,0.2-1.7,0.1-2.4-0.3c-0.4-0.3-0.6-0.1-0.8,0.3
				c-0.2,0.4-0.4,0.4-0.7,0c0-0.5,0.1-1.1,0.1-1.6c0-2.4,0-4.9,0-7.3c0-0.9-0.1-1.1-1-1.3c-0.2,0-0.3-0.1-0.3-0.3
				C15.6,0,15.7,0,15.9,0c0.6-0.1,1.3-0.1,1.9-0.2c0.3,0,0.4,0.1,0.4,0.4c0,1.2,0,2.4,0,3.6c0,0.2,0,0.3,0,0.4c0.1,0.1,0.2,0,0.2,0
				C20,3,22,3.5,22.8,5.4C23.3,6.6,23.3,7.8,22.9,8.9z M18.6,9.7c0.9,0.9,2.3,0.6,2.7-0.6c0.6-1.3,0.6-2.6,0-3.9
				c-0.5-1-1.7-1.3-2.7-0.6c-0.3,0.2-0.4,0.4-0.4,0.7c0,1.1,0,2.2,0,3.3C18.2,9.1,18.3,9.5,18.6,9.7z"/>
			<path class="st2" d="M14.1,7.5c0,0.6,0,1.2,0,1.8c0,0.5,0.2,0.7,0.8,0.8c0.1,0,0.4-0.1,0.4,0.2c0,0.3-0.1,0.3-0.3,0.4
				c-1,0.3-1.5,0.2-2.1-0.6c-0.2-0.2-0.2,0-0.3,0.1c-0.6,0.5-1.2,0.7-1.9,0.7c-0.9,0-1.6-0.5-1.8-1.2C8.6,8.7,9,7.8,9.8,7.4
				C10.5,7,11.3,6.8,12,6.6c0.8-0.3,1.1-0.8,0.7-1.7c-0.3-0.7-1.1-1-1.9-0.6c-0.2,0.1-0.3,0.2-0.2,0.4c0,0.2,0.1,0.4,0.1,0.6
				C10.7,5.7,10.4,6,10,6c-0.4,0-0.7-0.1-0.8-0.6c-0.1-0.4,0-0.7,0.3-1c0.8-0.9,2.8-1.2,3.9-0.5c0.6,0.4,0.8,1,0.8,1.7
				C14.2,6.3,14.2,6.9,14.1,7.5C14.2,7.5,14.1,7.5,14.1,7.5z M12.8,8C12.8,8,12.8,8,12.8,8c0-1.4,0-1.4-1.2-0.8
				c-0.5,0.2-0.9,0.5-1.2,1C10,9,10.3,10,11.1,10.1c0.9,0.1,1.7-0.5,1.7-1.4C12.8,8.4,12.8,8.2,12.8,8z"/>
			<path class="st3" d="M3.4,12.9c2,0,3.3,1.4,3.3,3.5c0,2.2-1.4,3.7-3.4,3.7c-1.9,0-3.3-1.5-3.3-3.6C0,14.3,1.3,12.9,3.4,12.9z
				 M1.5,16.6c0,0.6,0.1,1.2,0.4,1.8c0.3,0.7,0.8,1.1,1.6,1.1c0.8,0,1.2-0.5,1.5-1.2c0.5-1.3,0.5-2.6,0-3.8
				c-0.2-0.6-0.7-1.1-1.4-1.1c-0.8-0.1-1.3,0.3-1.6,1C1.5,15.1,1.5,15.9,1.5,16.6z"/>
			<path class="st4" d="M23.6,30c0.6-1.3,1.1-2.6,1.6-3.9c0.1-0.2,0-0.4-0.2-0.4c-0.2-0.1-0.3-0.2-0.5-0.2c-0.2-0.1-0.2-0.2-0.2-0.4
				c0-0.2,0.2-0.2,0.3-0.2c0.6,0,1.3,0,1.9,0c0.1,0,0.3-0.1,0.3,0.2c0,0.2,0,0.3-0.2,0.4c-0.6,0.2-0.8,0.7-1,1.2
				c-0.9,2-1.6,4.1-2.6,6.1c-0.3,0.6-0.6,1.2-1.1,1.6c-0.5,0.4-1,0.6-1.6,0.4c-0.4-0.1-0.6-0.4-0.6-0.8c0-0.3,0.1-0.6,0.4-0.7
				c0.4-0.1,0.7,0,1,0.4c0.4,0.5,0.4,0.5,0.8,0c0,0,0-0.1,0.1-0.1c0.8-1,1.1-1.9,0.4-3.1c-0.7-1.2-1.1-2.6-1.7-3.9
				c-0.2-0.4-0.4-0.7-0.9-0.9c-0.2-0.1-0.3-0.2-0.3-0.4c0-0.3,0.2-0.2,0.4-0.2c0.8,0,1.6,0,2.4,0c0.2,0,0.4,0,0.4,0.2
				c0,0.2-0.1,0.4-0.3,0.4c-0.4,0-0.5,0.2-0.3,0.6C22.6,27.4,23.1,28.7,23.6,30z"/>
			<path class="st2" d="M6.3,7.1c0,0.7,0,1.4,0,2.1C6.3,9.7,6.5,10,7,10c0.1,0,0.3,0.1,0.4,0.1c0.2,0,0.2,0.1,0.2,0.3
				c0,0.2-0.1,0.3-0.3,0.3c-1.1,0-2.1,0-3.2,0c-0.2,0-0.2-0.1-0.2-0.2c0-0.1,0-0.3,0.2-0.3C5,9.9,5,9.9,5,9c0-1.3,0-2.7,0-4
				c0-0.3-0.1-0.5-0.4-0.4c-0.2,0-0.4,0-0.5,0c-0.3,0-0.4,0-0.4-0.4c0-0.3,0.1-0.4,0.4-0.4c0.9,0,0.9,0,1-1c0.1-0.9,0.4-1.7,1.1-2.4
				c0.6-0.6,1.4-0.7,2.2-0.6c0.3,0,0.6,0.2,0.7,0.5c0.1,0.4,0.1,0.7-0.2,1c-0.3,0.2-0.7,0.2-1-0.1C7.7,1.1,7.5,0.8,7.4,0.6
				C7.3,0.3,7.1,0.4,6.9,0.5C6.6,0.8,6.5,1.1,6.5,1.4C6.3,2.1,6.3,2.8,6.3,3.5c0,0.2,0.1,0.3,0.3,0.3c0.4,0,0.8,0,1.2,0
				c0.3,0,0.3,0.2,0.3,0.4c0,0.2,0,0.4-0.3,0.4c-0.4,0-0.7,0-1.1,0c-0.3,0-0.4,0.1-0.4,0.4C6.3,5.7,6.3,6.4,6.3,7.1z"/>
			<path class="st5" d="M13.4,24.9c0.3,0.1,0.6-0.1,0.9,0.1c0,0.7,0,0.7-0.7,0.7c-0.2,0-0.3,0-0.5,0c-0.6,0-0.7,0.1-0.6,0.7
				c0,1.4,0,2.7,0,4.1c0,0.4,0.2,0.6,0.6,0.7c0.2,0,0.4,0.1,0.6,0.1c0.2,0,0.2,0.2,0.2,0.3c0,0.2-0.1,0.2-0.2,0.2
				c-1.1,0-2.1,0-3.2,0c-0.1,0-0.2,0-0.2-0.2c0-0.2,0-0.3,0.2-0.3c0.8-0.2,0.8-0.2,0.8-1c0-1.4,0-2.7,0-4.1c0-0.4-0.1-0.5-0.5-0.5
				c-0.2,0-0.3,0-0.5,0c-0.3,0-0.4,0-0.4-0.4C9.8,25,10,25,10.3,25c0.9,0,0.9,0,1-0.9c0-0.3,0.1-0.6,0.1-0.9
				c0.3-0.6,0.6-1.2,1.2-1.7c0.6-0.4,1.3-0.5,2-0.4c0.5,0.1,0.8,0.5,0.8,0.9c0,0.3-0.1,0.5-0.4,0.6c-0.3,0.1-0.6,0.1-0.8-0.1
				c-0.2-0.2-0.3-0.4-0.4-0.6c-0.3-0.4-0.5-0.4-0.7,0c-0.2,0.3-0.3,0.7-0.3,1.1c0,0.3,0,0.5,0,0.8c0,0.1,0,0.2,0,0.3
				C12.5,25,12.5,25,13.4,24.9z"/>
			<path class="st1" d="M3.3,28.3c0,0.6,0,1.3,0,1.9c0,0.8,0.1,0.9,0.9,1c0.1,0,0.2,0,0.2,0c0.2,0,0.2,0.1,0.2,0.3
				c0,0.2-0.1,0.2-0.3,0.2c-1,0-2.1,0-3.1,0c-0.1,0-0.3,0-0.3-0.2c0-0.2,0-0.3,0.2-0.3C1.9,31.1,2,31,2,30.2c0-1.4,0-2.7,0-4.1
				c0-0.4-0.1-0.5-0.5-0.5c-0.2,0-0.3,0-0.5,0c-0.3,0-0.4,0-0.4-0.4C0.6,25,0.8,25,1,25c0.9,0,0.9,0,1-0.9c0.1-1.5,1-2.7,2.2-3
				c0.4-0.1,0.9-0.1,1.3,0.1c0.4,0.1,0.6,0.4,0.6,0.8c0,0.3-0.1,0.6-0.4,0.7c-0.4,0.1-0.7,0-0.9-0.3c-0.1-0.1-0.2-0.3-0.3-0.4
				c-0.2-0.3-0.4-0.4-0.6-0.1c-0.2,0.3-0.3,0.6-0.4,0.9c-0.1,0.6-0.1,1.3-0.1,1.9c0,0.3,0.1,0.3,0.3,0.3c0.4,0,0.7,0,1.1,0
				c0.3,0,0.4,0.1,0.3,0.4c0,0.2,0,0.4-0.3,0.4c-0.4,0-0.7,0-1.1,0c-0.3,0-0.4,0.1-0.4,0.4C3.3,26.8,3.3,27.5,3.3,28.3z"/>
			<path class="st2" d="M14.6,25c0.2-0.2,0.4-0.1,0.7-0.1c0.4,0,0.6-0.2,0.6-0.6c0-0.4,0-0.8,0-1.2c0-0.3,0.1-0.4,0.4-0.4
				c0.9,0,0.9,0,0.9,0.9c0,0.3,0,0.6,0,0.9c-0.1,0.2,0,0.3,0.3,0.3c0.4,0,0.9,0,1.3,0c0.3,0,0.3,0.2,0.3,0.4c0,0.2,0,0.4-0.3,0.4
				c-0.4,0-0.9,0-1.3,0c-0.2,0-0.3,0.1-0.3,0.3c0,1.3,0,2.6,0,4c0,1,0.3,1.2,1.3,1.2c0.2,0,0.4,0,0.5,0c0.1,0,0.3-0.1,0.3,0.1
				c0,0.2,0,0.3-0.2,0.4c-0.7,0.3-1.5,0.5-2.3,0.3c-0.6-0.1-1-0.7-1-1.5c0-1.4,0-2.8,0-4.2c0-0.4-0.1-0.6-0.5-0.5
				c-0.2,0-0.5,0-0.7,0C14.6,25.5,14.6,25.2,14.6,25z"/>
			<path class="st6" d="M13.1,15.7c-0.6,0.9-0.9,1.9-1.3,2.9c-0.2,0.4-0.3,0.7-0.4,1.1C11.3,19.9,11.2,20,11,20
				c-0.3,0-0.4-0.1-0.5-0.3c-0.3-0.7-0.6-1.4-0.9-2.1c0-0.1-0.1-0.2-0.2-0.2c0-0.2,0-0.3-0.1-0.5c-0.3-0.8-0.7-1.6-1-2.3
				c-0.2-0.4-0.4-0.7-0.8-0.8c-0.2-0.1-0.4-0.2-0.3-0.4c0.1-0.3,0.3-0.2,0.5-0.2c0.8,0,1.6,0,2.4,0c0.2,0,0.4,0,0.4,0.2
				c0,0.3-0.1,0.3-0.3,0.4c-0.4,0-0.5,0.2-0.3,0.6c0.3,0.6,0.5,1.3,0.8,1.9c0.2,0.6,0.4,1.2,0.8,1.9c0.4-1,0.8-1.9,1.2-2.8
				c0.1-0.2,0.2-0.5,0.3-0.7c0.2-0.6,0.1-0.7-0.4-0.9c-0.2-0.1-0.4-0.1-0.4-0.4c0-0.3,0.3-0.2,0.5-0.2c0.6,0,1.2,0,1.8,0
				c0.1,0.1,0.3,0,0.4,0.2c0,0.1,0,0.3-0.2,0.3c-0.8,0.2-1,0.9-1.3,1.6c0,0.1-0.1,0.2-0.1,0.3C13.1,15.5,13.1,15.6,13.1,15.7
				L13.1,15.7z"/>
			<path class="st2" d="M8.2,27.8c0,0.8,0,1.7,0,2.5c0,0.5,0.2,0.8,0.7,0.9c0.2,0,0.4,0.1,0.3,0.4c0,0.3-0.3,0.2-0.4,0.2
				c-0.9,0-1.7,0-2.6,0c-0.2,0-0.4,0.1-0.4-0.2c0-0.2,0.1-0.3,0.3-0.3c0.6-0.1,0.7-0.2,0.7-0.9c0-1.2,0-2.5,0-3.7
				c0-0.7-0.2-0.9-0.9-1.1c-0.2,0-0.4,0-0.4-0.3c0-0.3,0.2-0.3,0.4-0.3c0.6-0.1,1.2-0.1,1.7-0.2c0.3,0,0.5,0.1,0.5,0.4
				C8.2,26,8.2,26.9,8.2,27.8z"/>
			<path class="st2" d="M7.4,23c-0.5,0-0.9-0.4-0.9-0.9c0-0.5,0.4-0.9,0.9-0.9c0.5,0,0.9,0.4,0.9,0.8C8.3,22.6,7.9,23,7.4,23z"/>
			<path class="st0" d="M12.5,15.3c-0.4,0.9-0.7,1.8-1.2,2.8c-0.4-0.7-0.6-1.3-0.8-1.9C11.2,15.8,11.8,15.5,12.5,15.3z"/>
			<path class="st0" d="M14.6,25c0,0.2,0,0.4,0,0.6c-0.6,0.3-1.2,0.8-2,0.7c-0.1-0.6,0-0.7,0.6-0.7c0.2,0,0.3,0,0.5,0
				c0.6,0,0.6,0,0.7-0.7C14.4,25,14.5,25,14.6,25z"/>
			<path class="st0" d="M13.2,15.4c0-0.1,0.1-0.2,0.1-0.3c0.7,0,1.4-0.1,2.1-0.1c0,0.1,0,0.2-0.1,0.2c-0.3,1.5-0.3,2.9,1,4.1
				c1.2,1.2,3.7,1.2,4.9-0.8c0.1-0.2,0.1-0.3-0.1-0.4c-0.1-0.1-0.3-0.2-0.4,0c-0.1,0.1-0.1,0.2-0.2,0.3c-0.8,1.1-2.4,1.3-3.2,0.2
				c-0.4-0.6-0.6-1.3-0.6-2c0-0.3,0.1-0.4,0.4-0.4c0.9,0,1.9,0,2.8,0c0.5,0.5,1.2,0.8,1.7,1.4c0.4,0.5,0.8,1,1,1.6
				c-0.3,0.4-0.3,0.5,0.2,0.6c0.1,0.8,0.1,1.5-0.5,2.1c-1.2,0-2.3,0.1-3.5-0.2c-2.2-0.5-4.1-1.4-5.1-3.5c-0.4-0.8-0.5-1.7-0.4-2.6
				l0,0C13.2,15.6,13.2,15.5,13.2,15.4z"/>
			<path class="st7" d="M19.8,16.3c-0.9,0-1.9,0-2.8,0c-0.3,0-0.4,0.1-0.4,0.4c0,0.7,0.2,1.4,0.6,2c0.8,1.1,2.4,0.9,3.2-0.2
				c0.1-0.1,0.1-0.2,0.2-0.3c0.1-0.2,0.3-0.1,0.4,0c0.2,0.1,0.2,0.2,0.1,0.4c-1.2,2.1-3.7,2-4.9,0.8c-1.2-1.2-1.2-2.6-1-4.1
				c0-0.1,0-0.2,0.1-0.2c0.3-0.8,0.7-1.5,1.5-1.8c1.1-0.5,2.1-0.5,3.1,0.1c0.9,0.6,1.1,1.6,1.1,2.6c0,0.2-0.1,0.3-0.3,0.3
				C20.5,16.2,20.2,16.3,19.8,16.3z M18.9,15.7c0.9,0,0.9,0,0.8-0.8c0-0.2,0-0.3-0.1-0.5c-0.1-0.4-0.3-0.8-0.8-0.9
				c-1.1-0.4-2,0.5-2.1,1.5c0,0.1,0.1,0.6,0.2,0.6C17.6,15.7,18.2,15.8,18.9,15.7z"/>
			<path class="st8" d="M22.6,19.9c-0.5-0.1-0.5-0.2-0.2-0.6c0.6,0,0.9-0.2,0.9-0.8c0-1.3,0-2.5,0-3.8c0-0.6-0.2-0.9-0.8-1.1
				c-0.2-0.1-0.3-0.1-0.3-0.3c0-0.2,0.2-0.3,0.4-0.3c0.5,0,1.1-0.1,1.6-0.1c0.4,0,0.5,0.1,0.5,0.5c0,0.1,0,0.3,0,0.5
				c0.3-0.2,0.5-0.4,0.8-0.6c0.3-0.2,0.6-0.3,1-0.4c1-0.1,1.2,0.7,1.1,1.5c-0.1,0.4-0.4,0.6-0.9,0.5c-0.4-0.1-0.7-0.4-0.6-0.8
				c0.1-0.5-0.1-0.4-0.4-0.3c-0.7,0.3-1,0.8-1,1.5c0,1.1,0,2.2,0,3.2c0,0.5,0.2,0.8,0.7,0.8c0.1,0,0.2,0.1,0.3,0.1
				c0.2,0,0.3,0.2,0.3,0.4c0,0.2-0.2,0.2-0.3,0.2C24.6,19.9,23.6,19.9,22.6,19.9z"/>
			<path class="st0" d="M18.6,9.7c0.6-0.2,1.2-0.3,1.9-0.5c0.3-0.1,0.5-0.1,0.8-0.1C20.9,10.4,19.6,10.7,18.6,9.7z"/>
			<path class="st9" d="M13.2,15.4c0,0.1,0,0.2-0.1,0.3C13.1,15.6,13.1,15.5,13.2,15.4z"/>
			<path class="st0" d="M18.9,15.7c-0.7,0.1-1.3-0.4-2-0.4c-0.1,0-0.2-0.1-0.2-0.2c0.2-1,1.1-2,2.1-1.5c0.4,0.2,0.6,0.5,0.8,0.9
				c0,0.2,0.1,0.3,0.1,0.5C19.8,15.7,19.8,15.7,18.9,15.7z"/>
		</g>
	</g>
</g>
</svg>
