<?xml version="1.0" encoding="utf-8"?>
<!-- Generator: Adobe Illustrator 22.1.0, SVG Export Plug-In . SVG Version: 6.00 Build 0)  -->
<svg version="1.1" id="Layer_1" xmlns="http://www.w3.org/2000/svg" xmlns:xlink="http://www.w3.org/1999/xlink" x="0px" y="0px"
	 viewBox="0 0 192.9 70.8" style="enable-background:new 0 0 192.9 70.8;" xml:space="preserve">
<style type="text/css">
	.st0{fill:#E70000;}
</style>
<g>
	<path class="st0" d="M16.4,7.7c-0.1,2.1-0.1,3.9-0.1,5.6c0,2,0,4,0.1,5.8h-1.6v-0.8c0-3.1-1.3-4.2-5-4.2H8.1c0,3.7,0,7.2,0.1,8.2
		c0,1.2,0.5,2,1.9,2h3.2v1.8c0,0-4.2-0.1-6.6-0.1c-2.4,0-6.6,0.1-6.6,0.1v-1.8h2.6c1.6,0,2-0.7,2-2c0.1-2.2,0.1-16.2,0-18
		c0-1.3-0.5-1.6-1.8-1.6H0.1V0.9C0.7,0.9,5.7,1,6.4,1s4.1,0,9.2,0c1.6,0,5.2,0,7-0.2c-0.2,2.4-0.1,6.4-0.1,8.8h-1.6
		c0-5.5-1.3-6.8-5.6-6.8H9.7c-1.1,0-1.5,0.5-1.5,1.6c0,0.9-0.1,4.5-0.1,8.2H10c3.3,0,4.8-0.9,4.8-4.1V7.7H16.4z"/>
	<path class="st0" d="M25.8,13.5c0-8.6,5.1-13.2,12.2-13.2c8.1,0,12.3,5.1,12.3,13.2c0,8.6-5.2,13.3-12.3,13.3
		C30.2,26.7,25.8,21.9,25.8,13.5z M46.4,13.5c0-8-2.8-11.6-8.3-11.6c-5.1,0-8.3,3.6-8.3,11.6c0,8.4,2.9,11.6,8.3,11.6
		C43.5,25.1,46.4,21.5,46.4,13.5z"/>
	<path class="st0" d="M75.9,24.8c1.6,0,2.2-2.2,1.4-6.3l1.4-0.1c1,4.4,0.4,8.4-3.7,8.4c-4,0-5.1-2.1-5.4-6.8c-0.3-4.5-1.7-5.5-5-5.5
		h-3c0,3.7,0,7.2,0.1,7.9c0.1,1.4,0.6,2,2.1,2h1.9v1.7c0,0-5.3-0.1-5.9-0.1c-2.1,0-6,0.1-6,0.1v-1.8h2c1.7,0,2.3-0.5,2.4-1.9
		c0.1-1.7,0.1-16,0-17.9c0-1.3-0.5-1.8-1.9-1.8h-2.4V0.9c0.6,0,5.4,0.1,6.1,0.1c1.7,0,4.5,0,6,0c6.3,0,9.5,2.2,9.5,6.6
		c0,3.6-2.8,6.1-6,6.5c2.8,0.7,3.8,2.5,4.1,5.2C73.9,24.1,74.7,24.8,75.9,24.8z M61.6,13.1h3.5c4.3,0,6.4-1.4,6.4-5.5
		c0-3.6-1.5-5.1-6-5.1H63c-1.1,0-1.3,0.6-1.3,1.4C61.6,4.9,61.6,9,61.6,13.1z"/>
	<path class="st0" d="M96.9,7.6h1.6c0,2.1-0.1,2.9-0.1,5.6c0,2.7,0,4,0.1,5.8h-1.6v-0.5c-0.1-3.2-1.1-4.5-4.7-4.5h-2.5
		c0,3.9,0,7.6,0.1,8.5c0.1,1.3,0.7,1.8,1.7,1.8h6.6c4.2,0,5.5-1.9,5.5-7.3h1.8c-0.2,2.4-0.3,6.4-0.3,9.2c-1.7-0.1-5.5-0.1-7.1-0.1
		H88c-1.9,0-6.2,0.1-6.2,0.1v-1.8h2.6c1.6,0,2-0.7,2-1.9c0.1-1.8,0.1-16.3,0-18c-0.1-1.3-0.5-1.6-1.8-1.6h-2.8V0.9
		c0.6,0,5.5,0.1,6.3,0.1c0.9,0,5.2,0,10.3,0c1.6,0,5.1,0,6.8-0.2c-0.1,2.4-0.1,6.4-0.1,8.7h-1.6c0-5.3-1-6.7-5.3-6.7h-6.7
		c-1.1,0-1.5,0.5-1.5,1.6c0,0.8-0.1,4.5-0.1,8.2h2.8c3.1,0,4.3-1.1,4.3-4.4V7.6z"/>
	<path class="st0" d="M121.6,23.1c2-5.1,5-13.3,6.2-17.4c0.5-1.9,0.3-3-1.8-3h-1.3V0.9c0,0,3.5,0.1,5.2,0.1c1.7,0,4.4-0.1,4.8-0.1
		v1.7h-1c-2,0-2.8,0.8-3.7,3.1c-2.1,4.9-6.2,15.6-7.9,20.5h-2.8c-1.6-5-5.3-16-7.2-21c-0.7-1.9-1.2-2.6-3.3-2.6h-0.8V0.9
		c0,0,3.5,0.1,5.5,0.1c2,0,5.4-0.1,5.7-0.1v1.7h-1.6c-1.6,0-2.3,0.8-1.7,2.8C117,9.7,119.8,18.2,121.6,23.1z"/>
	<path class="st0" d="M152.5,7.6h1.6c0,2.1-0.1,2.9-0.1,5.6c0,2.7,0,4,0.1,5.8h-1.6v-0.5c-0.1-3.2-1.1-4.5-4.7-4.5h-2.5
		c0,3.9,0,7.6,0.1,8.5c0.1,1.3,0.7,1.8,1.7,1.8h6.6c4.2,0,5.5-1.9,5.5-7.3h1.8c-0.2,2.4-0.3,6.4-0.3,9.2c-1.7-0.1-5.5-0.1-7.1-0.1
		h-10.1c-1.9,0-6.2,0.1-6.2,0.1v-1.8h2.6c1.6,0,2-0.7,2-1.9c0.1-1.8,0.1-16.3,0-18c-0.1-1.3-0.5-1.6-1.8-1.6h-2.8V0.9
		c0.6,0,5.5,0.1,6.3,0.1c0.9,0,5.2,0,10.3,0c1.6,0,5.1,0,6.8-0.2c-0.1,2.4-0.1,6.4-0.1,8.7H159c0-5.3-1-6.7-5.3-6.7H147
		c-1.1,0-1.5,0.5-1.5,1.6c0,0.8-0.1,4.5-0.1,8.2h2.8c3.1,0,4.3-1.1,4.3-4.4V7.6z"/>
	<path class="st0" d="M187.2,24.8c1.6,0,2.2-2.2,1.4-6.3l1.4-0.1c1,4.4,0.4,8.4-3.7,8.4c-4,0-5.1-2.1-5.4-6.8
		c-0.3-4.5-1.7-5.5-5-5.5h-3c0,3.7,0,7.2,0.1,7.9c0.1,1.4,0.6,2,2.1,2h1.9v1.7c0,0-5.3-0.1-5.9-0.1c-2.1,0-6,0.1-6,0.1v-1.8h2
		c1.7,0,2.3-0.5,2.4-1.9c0.1-1.7,0.1-16,0-17.9c0-1.3-0.5-1.8-1.9-1.8H165V0.9c0.6,0,5.4,0.1,6.1,0.1c1.7,0,4.5,0,6,0
		c6.3,0,9.5,2.2,9.5,6.6c0,3.6-2.8,6.1-6,6.5c2.8,0.7,3.8,2.5,4.1,5.2C185.2,24.1,185.9,24.8,187.2,24.8z M172.8,13.1h3.5
		c4.3,0,6.4-1.4,6.4-5.5c0-3.6-1.5-5.1-6-5.1h-2.6c-1.1,0-1.3,0.6-1.3,1.4C172.9,4.9,172.8,9,172.8,13.1z"/>
	<path class="st0" d="M20.5,57.6v7c0,1.9,0.3,2.5,2.9,2.5H27v2.4c0,0-5.6-0.1-8.8-0.1s-8.8,0.1-8.8,0.1v-2.4h3.5c2.6,0,3-0.6,3-2.5
		v-6.9C13.4,52.9,9.2,45,7,41c-1.3-2.3-2.7-3.3-5.8-3.3H0v-2.4c0,0,5.5,0.1,8.7,0.1s8.6-0.1,8.6-0.1v2.4h-2.5
		c-3.1,0-3.5,1.5-2.6,3.4c1.5,3.3,5.2,10.2,7.4,13.9c2.1-3.9,5.5-10.4,7.1-13.9c0.8-1.9,1-3.4-2.2-3.4h-2.3v-2.4
		c0,0,4.9,0.1,7.7,0.1c2.8,0,7.7-0.1,7.7-0.1v2.4h-1.6c-3.7,0-5,0.8-6.5,3.5C27.1,45.1,22.9,52.9,20.5,57.6z"/>
	<path class="st0" d="M37.7,52.4c0-11.7,6.9-18,16.6-18c11,0,16.7,6.9,16.7,17.9c0,11.7-7.1,18-16.7,18
		C43.6,70.4,37.7,63.8,37.7,52.4z M65.6,52.4c0-10.9-3.8-15.8-11.3-15.8c-7,0-11.3,4.9-11.3,15.8c0,11.4,3.9,15.8,11.3,15.8
		C61.7,68.2,65.6,63.2,65.6,52.4z"/>
	<path class="st0" d="M80.3,40.5c0-2.1-0.7-2.8-2.5-2.8H75v-2.4c0,0,5,0.1,7.9,0.1c2.8,0,7-0.1,7.8-0.1v2.4h-2.6
		c-2.1,0-2.9,0.6-2.9,2.8v15.4c0,8.7,3.5,11.8,9.7,11.8c6.2,0,9.8-2.6,9.8-11.8c0-2.9,0-10.8,0-15.3c0-2-0.9-2.9-2.9-2.9h-2.6v-2.4
		c0,0,4.5,0.1,7,0.1c2.5,0,6.1-0.1,6.9-0.1v2.4h-2.5c-1.9,0-2.7,0.9-2.7,2.9c-0.1,4.4,0,12.3,0,14.9c0,9.7-4.1,14.9-13.4,14.9
		c-9.4,0-14.2-4.3-14.2-15C80.3,55.5,80.4,43.2,80.3,40.5z"/>
	<path class="st0" d="M145.3,61.7c0.1-5.5,0.1-18.8,0-21.3c0-2-0.9-2.7-2.8-2.7h-3.3v-2.4c0.8,0,4.8,0.1,7.5,0.1
		c2.7,0,7.2-0.1,7.5-0.1v2.4h-3.3c-1.9,0-2.7,0.6-2.8,2.7c-0.1,2.7-0.1,25.1,0,29.1c-0.6,0-2.7,0-3.3,0
		c-4.4-6.6-13.4-19.9-19.4-28.5c0,7.5,0,21.3,0,23.7c0,1.7,0.7,2.3,3,2.3h3.1v2.5c0,0-4.8-0.1-7.5-0.1c-2.7,0-7.5,0.1-7.5,0.1v-2.5
		h3.1c2.3,0,2.9-0.6,3-2.3c0.1-3,0.1-22,0-24.6c-0.1-1.9-0.8-2.5-2.6-2.5h-3.4v-2.4c2.6,0.1,8.1,0.1,10.6,0
		C131.4,41.6,140.3,54.5,145.3,61.7z"/>
	<path class="st0" d="M182.1,36.7c2.2,1.3,2.9,0.9,3.3-1.7h2.3c-0.4,3-0.8,8.2-0.5,12.1c-0.6-0.1-1.9-0.1-2.6,0
		c-0.6-5.7-3-10.4-10.9-10.4c-7.5,0-11.3,4.6-11.3,15.7c0,12.2,4.5,15.8,10.9,15.8c5.7,0,10.1-3.3,10.1-9.5c0-3.2-0.5-4.3-3.1-4.3
		h-2.6v-2.3c0,0,4.7,0.1,7.4,0.1c2.7,0,7.4-0.1,7.4-0.1v2.3h-2.1c-1.5,0-2.1,0.7-2.1,3s0,9.1,0.2,12.7c-0.5-0.1-2.1-0.1-2.6,0
		c-0.2-0.9-0.6-3.8-1.2-6.1c-1.8,3.6-5.9,6.5-11.4,6.5c-10,0-16.5-5.2-16.5-18c0-12.7,7.3-17.9,16.6-17.9
		C177.1,34.4,179.5,35.3,182.1,36.7z"/>
</g>
</svg>
