<?xml version="1.0" encoding="utf-8"?>
<!-- Generator: Adobe Illustrator 22.1.0, SVG Export Plug-In . SVG Version: 6.00 Build 0)  -->
<svg version="1.1" id="Layer_1" xmlns="http://www.w3.org/2000/svg" xmlns:xlink="http://www.w3.org/1999/xlink" x="0px" y="0px"
	 viewBox="0 0 299.9 59.2" style="enable-background:new 0 0 299.9 59.2;" xml:space="preserve">
<style type="text/css">
	.st0{fill:#8C3087;}
</style>
<g id="tRXHi7_1_">
	<g>
		<path class="st0" d="M-0.1,3c6.4-0.8,12.5-1.6,18.8-0.8C27.9,3.4,34,9.7,34.3,19.1c0.1,3.4,0,6.9-0.9,10.2
			c-2,7.2-7.5,10.6-14.4,12c-2.9,0.6-5.9,0.8-9,1.2c0,5.2,0,10.5,0,15.9c-3.5,0-6.7,0-10.1,0C-0.1,40-0.1,21.6-0.1,3z M10.1,33.3
			c5.3,0.8,10.7-1.2,12.7-4.9c2.4-4.7,2.5-9.7-0.5-14.1c-2.9-4.3-7.4-4.3-12.2-3.6C10.1,18.3,10.1,25.8,10.1,33.3z"/>
		<path class="st0" d="M90.3,42.4c-8.9,0-17.5,0-26.1,0c0.2,4.8,4.4,8.6,9.7,8.7c2,0,4.1-0.1,6.1-0.5c1.9-0.4,3.7-1.2,5.7-1.9
			c0.8,2.2,1.6,4.5,2.6,7.1c-1.4,0.7-2.8,1.5-4.3,2c-4.9,1.6-9.9,1.8-14.8,0.8c-8.6-1.8-14.1-8.6-14.4-17.7
			c-0.2-6.6,1-12.8,6.3-17.4c7-6,20.4-4.9,25.6,2.1c2.5,3.4,3.3,7.4,3.6,11.5C90.4,38.8,90.3,40.5,90.3,42.4z M81.5,35.6
			c0.2-4.6-3.4-8.1-8.2-8c-4.8,0.1-9,4-8.8,8C70.2,35.6,75.9,35.6,81.5,35.6z"/>
		<path class="st0" d="M157.1,42.3c-9,0-17.6,0-26.1,0c-0.2,3.6,2.8,7.4,6.8,8.3c4.1,1,8.2,0.5,12.1-1.1c0.7-0.3,1.4-0.6,2.3-1.1
			c0.8,2.2,1.6,4.4,2.3,6.7c0.1,0.3-0.4,1-0.7,1.1c-2,0.8-4.1,2-6.2,2.2c-3.8,0.4-7.8,0.8-11.6,0.1c-7.2-1.2-12-5.7-13.9-12.8
			c-1.5-5.3-1.2-10.6,0.9-15.8c3-7.5,10.2-11.4,18.8-10.2c9,1.2,13.8,6.1,14.8,15.1C156.9,37.3,156.9,39.7,157.1,42.3z M148.2,35.6
			c0.3-4.3-2.9-7.6-7.5-8c-4.9-0.4-9.2,3.1-9.7,8C136.7,35.6,142.4,35.6,148.2,35.6z"/>
		<path class="st0" d="M265.9,39.4c0.1,9.4-5.1,16.8-13.3,19c-11.5,3.1-24.9-3.4-24.2-20.1c0.2-5.7,2-10.9,6.7-14.6
			c6.1-4.8,13-5.4,20.1-2.4c7,3,10.1,8.9,10.8,16.3C266,38.2,265.9,38.8,265.9,39.4z M237.2,39.3c0.6,2.4,1,4.8,1.8,6.9
			c1.4,3.5,4.4,5.2,8.1,5.2c3.7,0,6.7-1.7,8.2-5.2c2.1-4.6,2-9.4-0.2-14c-1.6-3.2-4.4-4.7-7.9-4.7c-3.6,0-6.4,1.4-8,4.6
			C238.2,34.4,237.8,36.9,237.2,39.3z"/>
		<path class="st0" d="M276.5,58.5c-3,0-5.8,0-8.7,0c0-12.5,0-25,0-37.6c2.8,0,5.6,0,8.6,0c0,1.6,0,3.2,0,4.8
			c0.1,0.1,0.2,0.1,0.4,0.2c0.3-0.4,0.7-0.8,1-1.2c3.8-4.9,10.2-6.5,15.8-3.9c4.2,1.9,6.1,5.5,6.1,9.8c0.2,9.2,0.1,18.5,0.1,27.9
			c-2.9,0-5.9,0-9,0c0-0.6,0-1.2,0-1.9c0-6.9,0-13.9,0-20.8c0-4.3-1.5-6.4-4.8-7c-4.2-0.7-7.6,1.2-8.8,5c-0.4,1.4-0.6,2.8-0.7,4.3
			c-0.1,6.1,0,12.2,0,18.3C276.5,57,276.5,57.6,276.5,58.5z"/>
		<path class="st0" d="M167.4,58.4c-2.9,0-5.6,0-8.5,0c0-12.5,0-25,0-37.5c2.8,0,5.6,0,8.5,0c0,1.6,0,3.2,0,5.3
			c0.6-0.7,0.9-0.9,1.1-1.3c3.8-5,10-6.8,15.7-4.4c4.9,2.1,6.5,6.2,6.6,11.1c0.1,8.6,0,17.2,0,25.9c0,0.2,0,0.5-0.1,0.8
			c-2.9,0-5.9,0-9,0c0-0.6,0-1.2,0-1.8c0-7,0-14.1,0-21.1c0-3.7-1.3-5.8-4-6.5c-3.4-1-7.2,0.2-8.7,3.1c-0.9,1.7-1.4,3.8-1.5,5.8
			c-0.2,6.7-0.1,13.4-0.1,20.1C167.5,58,167.5,58.1,167.4,58.4z"/>
		<path class="st0" d="M87.9,20.9c3.2,0,6.3-0.1,9.3,0.1c0.4,0,1.1,0.8,1.2,1.3c2.5,7.4,5,14.8,7.4,22.1c0.2,0.5,0.3,1,0.6,1.8
			c1.5-4.7,2.9-9,4.3-13.3c1.1-3.5,2.3-7.1,3.4-10.6c0.3-1,0.7-1.4,1.8-1.4c2.5,0.1,5.1,0,7.9,0c-0.4,1.2-0.6,2.1-0.9,3
			c-3.8,11.1-7.7,22.1-11.5,33.2c-0.3,0.9-0.7,1.4-1.8,1.4c-2.6-0.1-5.1,0-7.7-0.1c-0.6,0-1.4-0.6-1.6-1.1
			c-4.2-11.9-8.4-23.9-12.5-35.8C87.9,21.5,87.9,21.3,87.9,20.9z"/>
		<path class="st0" d="M197,28.4c-1.6,0-3,0-4.6,0c0-2.5,0-4.9,0-7.4c1.4,0,2.8,0,4.6,0c0-2.5,0.1-4.8,0-7.1
			c-0.2-1.8,0.5-2.7,2.2-3.3c2.3-0.8,4.6-1.9,7.1-3c0,4.5,0,8.7,0,13.3c3.3,0,6.4,0,9.6,0c0,2.6,0,4.9,0,7.4c-3.1,0-6.1,0-9.2,0
			c-0.1,0.4-0.2,0.6-0.2,0.8c0,5.7-0.1,11.4,0,17.1c0.1,4.4,2.3,5.8,6.5,4.2c0.4-0.1,0.7-0.3,1.3-0.6c0.4,1.1,0.9,2.2,1.3,3.4
			c0.4,1.1,0.8,2.2,1.2,3.5c-0.8,0.5-1.6,1.1-2.5,1.4c-3.5,1.3-7.1,1.6-10.6,0.5c-4.6-1.4-6.2-5.1-6.4-9.4c-0.3-6-0.2-12-0.2-18
			C197,30.3,197,29.4,197,28.4z"/>
		<path class="st0" d="M44.7,58.4c-3,0-5.8,0-8.7,0C36,46,36,33.5,36,21c2.8,0,5.6,0,8.6,0c0,1.6,0,3.2,0,4.9
			c1.6-2.2,2.8-4.4,5.3-5.5c2.5-1.1,4.9-0.8,7.6,0c-0.6,3-1.3,5.9-1.9,8.8c-1.1-0.1-2.1-0.3-3-0.3c-4.4-0.1-7.3,2.3-7.7,6.7
			c-0.3,3.2-0.2,6.5-0.2,9.8C44.7,49.6,44.7,53.9,44.7,58.4z"/>
		<path class="st0" d="M218.1,21c3.1,0,5.9,0,8.8,0c0,12.5,0,24.9,0,37.4c-3,0-5.8,0-8.8,0C218.1,45.9,218.1,33.5,218.1,21z"/>
		<path class="st0" d="M217,12.5c0-3.1,2.4-5.5,5.5-5.5c3.1,0,5.5,2.4,5.5,5.5c0,3.1-2.4,5.5-5.5,5.5C219.3,17.9,217,15.7,217,12.5z
			"/>
	</g>
</g>
</svg>
