<?xml version="1.0" encoding="utf-8"?>
<!-- Generator: Adobe Illustrator 22.1.0, SVG Export Plug-In . SVG Version: 6.00 Build 0)  -->
<svg version="1.1" id="Layer_1" xmlns="http://www.w3.org/2000/svg" xmlns:xlink="http://www.w3.org/1999/xlink" x="0px" y="0px"
	 viewBox="0 0 301.6 80.6" style="enable-background:new 0 0 301.6 80.6;" xml:space="preserve">
<style type="text/css">
	.st0{fill:#203E77;}
	.st1{fill:#D0C42A;}
</style>
<g id="TB3qIq_2_">
	<g>
		<path class="st0" d="M60,22c-1.8-0.4-3.5-0.9-5.1-1.3c-4.7-1-9.4-1.2-14.1-1c-3.7,0.2-7.2,0.8-10.7,2.2c-5.4,2.2-8.7,6.3-9.3,12.1
			c-0.4,3.8,0.9,8,5,10.2c1.7,0.9,3.5,1.7,5.2,2.5c2.3,1.1,4.5,2.4,6.3,4.2c3.5,3.6,2.9,9.2-1.3,12c-2.9,1.9-6.1,2.6-9.6,2.1
			c-4-0.5-8.1-1.3-11.7-3.1c-3-1.5-5.9-3.3-8.9-4.9c-0.3-0.2-0.5-0.6-0.6-0.9c-0.3-2.9-0.5-5.8-0.8-8.7C4.1,43.9,3.8,40.5,3.5,37
			c-0.3-2.9-0.5-5.9-0.8-8.8C2.5,24.8,2.1,21.4,1.9,18c-0.1-1.8-0.4-3.6-0.1-5.3c0.7-4.2,4.1-7,8.6-7.3c3.6-0.2,7.1-0.6,10.7-0.9
			C24,4.2,26.9,4,29.8,3.7c3.4-0.3,6.8-0.6,10.3-0.9c3.4-0.3,6.9-0.5,10.3-0.8c3.1-0.2,7.7,2.3,8.4,7.4c0.4,3.1,0.6,6.3,0.9,9.4
			C59.8,19.9,59.9,20.9,60,22z M15.6,21.9c0,0.1,0,0.2,0,0.2c-0.2,0.4-0.4,0.7-0.5,1.1c-1.6,3.4-2.1,6.9-2,10.6c0.1,1.9,0,1.9,2,1.9
			c0.5,0,0.6-0.2,0.6-0.6c0.3-2.1,0.6-4.2,1.1-6.3c1.2-4.8,4.1-8.2,8.5-10.2c1.2-0.6,2.4-1.1,3.7-1.6c-0.2-0.5-0.3-1-0.4-1.5
			c-0.1-0.5-0.4-0.6-0.8-0.5c-3.3,0.8-6.5,1.8-9.1,4c-0.1,0.1-0.2,0.1-0.3,0.2c0-0.1,0-0.2,0-0.2c0.1-0.1,0.1-0.2,0.2-0.4
			c1.8-3,2.6-6.2,2.7-9.6c0-0.2-0.2-0.5-0.4-0.6c-0.6-0.1-1.2-0.1-1.9-0.1c0,0.2,0,0.3,0,0.4c-0.2,2.9-1.2,5.6-2.9,7.9
			c-2.3,3.3-5.9,4.1-9.4,2.2c-0.2-0.1-0.4-0.2-0.7-0.4c-0.4,0.7-0.8,1.3-1.2,1.9c0.9,0.8,1.9,1.4,3,1.7
			C10.6,22.9,13.1,22.9,15.6,21.9z M15.5,13.6c0-0.7-0.3-1.4-0.9-2.1c-1-1-2.5-0.8-3.3,0.4c-0.7,1.2-0.5,2.8,0.4,3.8
			c0.6,0.7,1.5,0.9,2.3,0.6C14.8,16,15.5,14.9,15.5,13.6z"/>
		<path class="st1" d="M6.1,65.5c1.1,0.4,2.1,0.8,3,1.2c4.9,2,10,3.7,15.3,4.8c6,1.2,11.9,1.3,17.8-0.1c2.1-0.5,4.1-1.3,5.9-2.6
			c2.5-2,3.8-4.7,4.4-7.8c1.2-6.2-2.1-11.7-6.9-14.2c-1.7-0.9-3.5-1.6-5.3-2.4c-1.9-0.8-3.8-1.9-5.4-3.2c-3.2-2.7-3.3-6.5-1.9-9.6
			c1.3-3,3.9-4.3,6.8-5.2c7.2-2.1,13.9-0.7,20.4,2.5c0.3,0.1,0.6,0.6,0.6,0.9c0.5,5.6,1,11.1,1.5,16.7c0.5,5.8,1,11.7,1.5,17.5
			c0.1,1.6,0.3,3.1-0.1,4.6c-1,3.6-4.2,6.2-7.9,6.4c-3.5,0.2-7,0.6-10.5,0.9c-2.9,0.3-5.8,0.5-8.7,0.7c-2.9,0.2-5.7,0.5-8.6,0.8
			c-2.9,0.3-5.9,0.5-8.8,0.8c-1.2,0.1-2.5,0.3-3.7,0.3c-4.5,0-8.2-3.3-8.7-7.8C6.3,69,6.2,67.3,6.1,65.5z"/>
		<path class="st0" d="M84.2,45.2c1.6,0.5,3.1,1.1,4.7,1.6c2.3,0.6,4.6,0.9,7,0.3c2.2-0.5,3.4-1.9,3.4-3.8c0-1.4-0.8-2.4-2-3.1
			c-1.3-0.7-2.6-1.3-4-1.8c-2.5-0.9-4.8-2-6.9-3.8c-5.1-4.4-4.3-12.2,1.1-15.8c2.3-1.5,4.8-2.3,7.5-2.5c3.5-0.3,7,0.1,10.3,1.4
			c1,0.4,1,0.4,0.7,1.5c-0.5,1.6-0.9,3.3-1.4,4.9c-0.1,0.2-0.1,0.5-0.2,0.8c-0.3-0.1-0.5-0.2-0.7-0.3c-2.4-1.1-5-1.6-7.6-1.4
			c-1,0.1-2,0.3-2.9,0.8c-2.2,1.1-2.4,3.7-0.4,5.1c1,0.7,2.2,1.3,3.4,1.8c2,0.9,4.1,1.7,6,2.7c2.5,1.3,4.4,3.3,5.1,6
			c1.4,5-0.4,10.4-5.9,12.9c-2,1-4.2,1.4-6.5,1.6c-4,0.3-7.9-0.2-11.6-1.8C82.5,52,82.5,52,82.8,51C83.3,49.1,83.7,47.1,84.2,45.2z"
			/>
		<path class="st0" d="M201.6,54.3c-4.3-0.1-7.9-1.2-10.7-4.2c-1.8-1.9-2.8-4.2-3.2-6.8c-0.5-3.1-0.2-6.1,1-9
			c1.3-3.2,3.7-5.5,6.9-6.8c4-1.5,8.1-1.7,12.1,0c4.5,1.9,6.9,5.5,7.6,10.3c0.4,2.5,0.2,5.1-0.6,7.5c-1.8,5.2-5.6,8-10.9,8.8
			C203,54.2,202.2,54.2,201.6,54.3z M206.8,40.3c-0.1-2-0.3-3.9-1.4-5.6c-0.7-1.1-1.6-1.9-2.9-2.2c-2.2-0.4-4,0.5-5.1,2.5
			c-0.9,1.6-1.2,3.4-1.2,5.2c0,2.1,0.3,4.1,1.5,5.9c2,2.9,5.9,2.8,7.8-0.2C206.5,44.2,206.7,42.2,206.8,40.3z"/>
		<path class="st0" d="M149.7,30.6c0.3-0.3,0.4-0.5,0.6-0.7c3.4-4.1,9.9-4.8,13.8-1.5c1.9,1.6,2.8,3.7,3.2,6.1
			c0.2,1.1,0.3,2.3,0.3,3.5c0,4.9,0,9.9,0,14.8c0,0.9,0,0.9-1,0.9c-2.2,0-4.4,0-6.6,0c-0.6,0-0.8-0.2-0.8-0.8c0-4.6,0-9.3,0-13.9
			c0-1-0.1-2-0.4-2.9c-0.9-2.9-4.3-3.8-6.5-1.8c-1.2,1.1-1.7,2.4-1.7,4c0,4.9,0,9.7,0,14.6c0,0.9,0,0.9-0.9,0.9c-2.2,0-4.4,0-6.6,0
			c-0.7,0-0.9-0.2-0.9-0.9c0-7.1,0-14.2,0-21.3c0-1.3-0.1-2.6-0.1-4c0-0.5,0.2-0.7,0.6-0.6c2,0,4,0,6,0c0.5,0,0.7,0.1,0.7,0.6
			C149.5,28.5,149.6,29.4,149.7,30.6z"/>
		<path class="st0" d="M120.1,43c0,1.4,0.6,2.3,1.5,3.1c1.5,1.3,3.3,1.7,5.2,1.8c2.5,0.1,5-0.2,7.4-0.9c0.2-0.1,0.4-0.1,0.7-0.2
			c0.1,0.6,0.2,1.1,0.3,1.6c0.2,1.2,0.4,2.3,0.7,3.5c0.1,0.5,0,0.7-0.5,0.9c-1.9,0.4-3.8,1-5.7,1.3c-2.8,0.4-5.7,0.3-8.5-0.5
			c-4.8-1.4-7.8-4.5-8.8-9.4c-0.9-4.6-0.2-8.8,2.5-12.7c2.4-3.4,5.8-5,9.9-5.2c2.3-0.1,4.5,0.2,6.6,1.3c3.1,1.7,4.8,4.4,5.6,7.8
			c0.6,2.3,0.6,4.7,0.3,7.1c0,0.4-0.2,0.6-0.7,0.6c-0.7,0-1.4-0.1-2.1-0.1c-4.5,0-9,0-13.5,0C120.7,43,120.4,43,120.1,43z M120,37.2
			c0.5,0,0.9,0,1.4,0c2.5,0,5,0,7.5,0c0.3,0,0.6,0.1,0.7-0.4c0.2-1.8-1.3-4.2-3.1-4.7C123.3,31.2,120.1,33.6,120,37.2z"/>
		<path class="st0" d="M227.8,31.8c1-2.3,2.5-4,4.8-5c1.2-0.5,2.5-0.6,3.8-0.4c0.2,0,0.5,0.3,0.5,0.4c0,2.5,0,5,0,7.5
			c-0.5,0-0.9-0.1-1.4-0.1c-1.1,0.1-2.2,0-3.2,0.3c-2.2,0.6-3.5,2.6-3.5,5.2c0,4.3,0,8.6,0,13c0,1,0,1-0.9,1c-2.2,0-4.4,0-6.6,0
			c-0.7,0-0.9-0.2-0.9-0.9c0-7.7,0-15.3,0-23c0-0.8-0.1-1.6-0.1-2.4c0-0.4,0.1-0.6,0.6-0.6c2,0,4,0,6.1,0c0.4,0,0.6,0.2,0.6,0.6
			c0.1,1.1,0.1,2.3,0.2,3.4C227.8,31.2,227.8,31.5,227.8,31.8z"/>
		<path class="st0" d="M174.2,40.2c0-4.1,0-8.2,0-12.3c0-1,0-1,0.9-1c2.2,0,4.4,0,6.6,0c0.6,0,0.9,0.1,0.9,0.8c0,8.4,0,16.8,0,25.2
			c0,0.6-0.2,0.8-0.8,0.8c-2.3,0-4.6,0-6.8,0c-0.6,0-0.8-0.2-0.8-0.8C174.2,48.7,174.2,44.4,174.2,40.2z"/>
		<path class="st0" d="M286.4,42.8c1.8-2.3,5.5-2.6,7.1,0.2c0.1-0.1,0.3-0.3,0.4-0.4c1.4-1.4,3-1.9,4.9-1.4c1.8,0.6,2.6,2,2.7,3.8
			c0.2,2.3,0.1,4.6,0.1,6.9c0,1.8,0,1.8-1.8,1.8c-0.4,0-0.8,0-1.3,0c-0.6,0.1-0.8-0.2-0.8-0.8c0-2.2,0-4.4,0-6.5
			c0-0.3-0.1-0.6-0.2-0.9c-0.3-0.9-0.9-1.3-1.7-1.2c-0.8,0.1-1.5,0.7-1.6,1.6c-0.1,1.1-0.1,2.2-0.1,3.3c0,1.3,0,2.6,0,3.9
			c0,0.5-0.2,0.7-0.7,0.7c-0.8,0-1.7,0-2.5,0c-0.6,0-0.7-0.2-0.7-0.7c0-2,0-4,0-6c0-0.6,0-1.1-0.2-1.6c-0.4-1.3-2-1.6-2.7-0.5
			c-0.4,0.5-0.6,1.2-0.6,1.8c-0.1,2.1,0,4.2,0,6.3c0,0.5-0.2,0.7-0.7,0.7c-0.8,0-1.6,0-2.4,0c-0.6,0-0.8-0.2-0.7-0.8
			c0-2.8,0-5.7,0-8.5c0-0.8-0.1-1.7-0.1-2.5c0-0.5,0.1-0.7,0.6-0.7c0.6,0,1.3,0.1,1.9,0c0.7-0.1,0.9,0.2,1,0.8
			C286.3,42.3,286.3,42.5,286.4,42.8z"/>
		<path class="st0" d="M272.9,41c3.8,0,6.4,2.6,6.4,6.4c0,3.9-2.7,6.6-6.6,6.6c-3.8,0-6.4-2.6-6.4-6.4C266.3,43.6,269,41,272.9,41z
			 M275.4,47.4c-0.3-0.8-0.4-1.8-0.9-2.6c-0.7-1.3-2.5-1.2-3.3,0c-0.9,1.3-1,3.9-0.1,5.2c0.9,1.5,2.9,1.5,3.7-0.1
			C275,49.2,275.1,48.3,275.4,47.4z"/>
		<path class="st1" d="M242.1,44c2.9,0,4.8,2,4.8,5c0,2.8-2,4.9-4.8,4.9c-2.8,0-4.8-2-4.8-5C237.3,46,239.2,44,242.1,44z"/>
		<path class="st0" d="M263.5,50.5c0.1,0.9,0.3,1.7,0.4,2.5c0,0.1-0.1,0.4-0.3,0.5c-2,0.7-5.7,0.9-7.8-1.1c-1.9-1.8-2.3-4.1-1.7-6.6
			c0.6-2.4,2.2-3.9,4.6-4.5c1.5-0.4,3-0.3,4.5,0c0.5,0.1,0.8,0.3,0.6,0.9c-0.2,0.5-0.3,1.1-0.4,1.6c-0.1,0.5-0.2,0.6-0.7,0.5
			c-0.7-0.1-1.5-0.2-2.3-0.1c-1.9,0.3-2.8,2-2.5,4.1c0.3,1.7,1.9,2.8,3.7,2.6C262.3,50.8,262.8,50.6,263.5,50.5z"/>
		<path class="st0" d="M178.3,23.6c-2.8,0-4.7-1.9-4.7-4.5c0-2.6,2-4.4,4.7-4.4c2.7,0,4.7,1.9,4.7,4.5
			C183.1,21.7,181.1,23.6,178.3,23.6z"/>
	</g>
</g>
</svg>
