<?xml version="1.0" encoding="utf-8"?>
<!-- Generator: Adobe Illustrator 22.1.0, SVG Export Plug-In . SVG Version: 6.00 Build 0)  -->
<svg version="1.1" id="Layer_1" xmlns="http://www.w3.org/2000/svg" xmlns:xlink="http://www.w3.org/1999/xlink" x="0px" y="0px"
	 viewBox="0 0 301.5 119" style="enable-background:new 0 0 301.5 119;" xml:space="preserve">
<style type="text/css">
	.st0{fill:#2FA6DF;}
</style>
<g id="_x33_58LRG_2_">
	<g>
		<path class="st0" d="M61.2,0c32.8,0,59.4,26.7,59.4,59.5C120.6,92.5,94,119,61,119c-32.7,0-59.3-26.7-59.3-59.5
			C1.7,26.6,28.3,0,61.2,0z M82.1,59.9c-0.1-0.4-0.2-0.6-0.3-0.8c-4.7-10.5-9.3-21-14-31.5c-0.2-0.5-0.5-0.7-1-0.7
			c-5.5,0-11,0-16.5,0c-2.6,0-5.1,0.2-7.6,0.9c-6.7,1.7-12.1,5.3-15.8,11.3c-3.3,5.4-4.1,11.3-3.2,17.5c1.4,9.7,8.2,16.9,17.8,18.7
			c0.7,0.1,0.8,0.3,0.8,1c0,5.3,0,10.5,0,15.8c0,0.3,0,0.6,0,0.9c7.9,0,15.7,0,23.6,0c0-2.9,0-5.6,0-8.4c0-2.8,0-5.6,0-8.4
			c1,0,2,0,2.9,0c3.1,0,6.9-2.1,6.9-6.8c-0.1-2.8,0-5.6,0-8.5c0-0.3,0-0.5,0-0.9C77.8,59.9,79.9,59.9,82.1,59.9z M101.7,60
			c-0.1-0.3-0.2-0.5-0.3-0.7c-4.6-10.6-9.3-21.1-13.9-31.7c-0.2-0.5-0.4-0.7-1-0.6c-2.7,0-5.4,0-8.1,0c-0.2,0-0.4,0-0.7,0.1
			c4.8,11,9.6,21.9,14.5,32.9c-2.3,0-4.4,0-6.6,0c0,0.4,0,0.7,0,0.9c0,2.9,0,5.7,0,8.6c-0.1,3.7-1.8,5.7-5.4,6.3
			c-1.3,0.2-2.6,0.3-3.9,0.4c0,5.6,0,11.1,0,16.7c3.1,0,6.2,0,9.4,0c0-5.6,0-11.2,0-16.8c1.1,0,2.2,0,3.2,0c3.3,0,6.2-2.7,6.3-5.9
			c0.1-3.1,0.1-6.2,0.1-9.3c0-0.3,0-0.6,0-0.9C97.4,60,99.5,60,101.7,60z"/>
		<path class="st0" d="M195.9,92.9c0-3.5,0-6.9,0-10.4c2.8,0,5.6,0,8.4,0c0-15.1,0-30.1,0-45.2c-2.5,0-5,0-7.5,0c0-3.5,0-6.8,0-10.3
			c0.3,0,0.6,0,0.9,0c8.3,0,16.7,0,25,0c4.2,0,8.2,0.5,12.1,2.2c6.3,2.7,10.3,8.7,10,15.2c-0.2,5.5-2.6,9.8-7.5,12.6
			c-0.1,0-0.2,0.1-0.2,0.1c1.4,1,2.9,1.8,4.2,3c4.6,4.1,6.4,9.4,5.7,15.5c-0.5,4.7-2.4,8.7-6,11.9c-3.1,2.7-6.8,4.3-10.8,4.9
			c-1.6,0.3-3.2,0.4-4.7,0.5c-9.6,0-19.3,0-28.9,0C196.4,92.9,196.2,92.9,195.9,92.9z M216.4,82.5c1.1,0,2.1,0,3.1,0
			c2.4-0.1,4.9,0,7.3-0.3c4.4-0.6,7.1-3.4,7.8-7.6c0.6-3.8-1.1-7.6-4.3-9.4c-1.8-1-3.7-1.4-5.8-1.4c-2.5,0-5,0-7.5,0
			c-0.2,0-0.4,0-0.7,0.1C216.4,70.1,216.4,76.2,216.4,82.5z M216.4,37.3c0,5.4,0,10.7,0,16c0.1,0,0.1,0.1,0.1,0.1
			c3.1-0.1,6.3,0.1,9.4-0.2c3.9-0.4,6.6-3.5,6.7-7.1c0.2-4.1-2-7.2-6-8.2C223.3,36.9,219.9,37.5,216.4,37.3z"/>
		<path class="st0" d="M141.3,92.9c0-3.4,0-6.8,0-10.3c2.8,0,5.6,0,8.4,0c0-15.1,0-30.1,0-45.2c-2.7,0-5.5,0-8.2,0
			c0-3.5,0-6.8,0-10.3c0.2,0,0.3,0,0.4,0c9.3,0,18.7,0,28,0c4.5,0,8.9,0.8,13,3c6.2,3.4,9.2,8.7,9.6,15.7c0.2,4.4-0.6,8.5-3.1,12.2
			c-2.6,3.9-6.3,6.2-10.7,7.6c-4,1.3-8.1,1.3-12.2,1.3c-1.5,0-3.1,0-4.7,0c0,5.3,0,10.4,0,15.7c3.2,0,6.4,0,9.7,0
			c0,3.5,0,6.9,0,10.4C161.5,92.9,151.4,92.9,141.3,92.9z M161.8,56.6c3.6-0.1,7.2-0.1,10.8-0.4c2.8-0.3,5.1-1.8,6.5-4.3
			c2.9-4.8,1.4-13.3-7.3-14.3c-3.2-0.4-6.5-0.1-9.8-0.2c-0.1,0-0.1,0.1-0.2,0.1C161.8,43.8,161.8,50.1,161.8,56.6z"/>
		<path class="st0" d="M266.4,89.1c0,1.2,0,2.5,0,3.7c-3.2,0-6.4,0-9.7,0c0-6.7,0-13.5,0-20.2c3.5,0,6.9,0,10.3,0
			c0.2,0.9,0.3,1.8,0.6,2.7c1.5,5.1,6.2,8.4,11.5,8.1c2.1-0.1,4.1-0.6,5.9-1.8c4.8-3.5,4.8-10.4,0.1-14.2c-2-1.6-4.3-2.3-6.7-3.1
			c-3.4-1-6.9-2-10.1-3.3c-4.9-2-8.7-5.3-10.3-10.5c-2.1-6.7-1.4-13.1,3.3-18.6c2.8-3.3,6.5-5.1,10.7-5.8c4.4-0.8,8.7-0.6,12.8,1.3
			c1.4,0.6,2.6,1.5,3.9,2.4c0-0.8,0-1.8,0-2.8c3.2,0,6.2,0,9.4,0c0,6.2,0,12.3,0,18.5c-3.2,0-6.5,0-9.6,0c-0.5-1.3-0.8-2.7-1.4-3.9
			c-2.1-4-5.7-5.4-10-5.2c-1.2,0.1-2.4,0.4-3.5,0.8c-5,2.1-5.9,8.1-1.8,11.7c1.7,1.5,3.8,2.3,5.9,3c4.1,1.3,8.2,2.4,12.1,3.9
			c5.4,2.1,9.4,5.9,11.2,11.6c3.4,11.1-2.8,24.4-16.9,26.3c-4.4,0.6-8.7,0.3-12.7-1.8C269.4,91.3,268,90.1,266.4,89.1z"/>
		<path class="st0" d="M68.9,49.5c0,3.4-2.7,6-6.1,6c-3.4,0-6.1-2.7-6-6.1c0-3.3,2.8-6.1,6.1-6C66.2,43.4,68.9,46.1,68.9,49.5z"/>
	</g>
</g>
</svg>
