<?xml version="1.0" encoding="utf-8"?>
<!-- Generator: Adobe Illustrator 22.1.0, SVG Export Plug-In . SVG Version: 6.00 Build 0)  -->
<svg version="1.1" id="Layer_1" xmlns="http://www.w3.org/2000/svg" xmlns:xlink="http://www.w3.org/1999/xlink" x="0px" y="0px"
	 viewBox="0 0 299.4 34.5" style="enable-background:new 0 0 299.4 34.5;" xml:space="preserve">
<style type="text/css">
	.st0{fill:#29B995;}
</style>
<g id="QLuCxo_2_">
	<g>
		<path d="M197.6,34.4c-1-0.3-2.1-0.5-3.1-0.8c-5.4-1.9-8.2-5.9-8.8-11.6c-0.4-4.1,0.1-8.2,1.7-12c2.4-5.8,6.9-9.2,13.1-10.3
			c3.6-0.6,7.1-0.6,10.6,0.6c4.4,1.5,7.3,4.5,8.3,9c1.3,6,0.5,11.7-2.6,17c-2.5,4.4-6.5,6.8-11.4,7.7c-0.4,0.1-0.8,0.2-1.2,0.3
			C202,34.4,199.8,34.4,197.6,34.4z M208.5,13.5c-0.1-0.6-0.2-1.4-0.4-2.2c-0.5-1.6-1.5-2.7-3.1-3c-2.4-0.4-4.5,0.5-5.7,2.6
			c-1.9,3.4-2.5,7-2.1,10.9c0.2,2.4,1.9,3.8,4.1,3.9c2.5,0.1,4.1-1.1,5.2-3.2C207.8,19.7,208.3,16.8,208.5,13.5z"/>
		<path d="M69,34.4c-1.5-0.4-3.1-0.6-4.5-1.2c-4.2-1.7-6.2-5-6.4-9.4c-0.2-3,0.6-5.9,1.1-8.8c0.8-4.7,1.7-9.3,2.5-14
			C61.7,0.2,61.9,0,62.6,0c3.1,0,6.2,0,9.4,0c0.7,0,0.9,0.2,0.7,0.9c-1.1,5.8-2.2,11.6-3.2,17.5c-0.2,1.4-0.3,2.8-0.3,4.2
			c0.2,2.9,2.2,3.6,4.6,3.3c1.7-0.2,3-1.1,3.5-2.8c0.7-2.2,1.2-4.4,1.6-6.7c1-5.1,1.8-10.2,2.7-15.3C81.9,0,81.9,0,83.1,0
			c3,0,6,0,9,0c1,0,1,0,0.8,1c-1.1,6.4-2.2,12.8-3.4,19.2c-0.3,1.8-0.7,3.5-1.3,5.2c-1.6,4.9-5.1,7.7-10.1,8.6
			c-0.8,0.1-1.6,0.3-2.4,0.4C73.5,34.4,71.2,34.4,69,34.4z"/>
		<path d="M230.4,34.4c-1.5-0.4-3.1-0.7-4.6-1.3c-2.6-1-4.4-2.9-5.3-5.6c-0.3-0.9-0.2-1,0.7-1.3c2.7-0.7,5.3-1.4,8-2.2
			c0.5-0.2,0.8-0.1,1.1,0.5c1,1.7,3.1,2.5,4.9,1.9c1-0.3,1.6-0.9,1.7-1.9c0.1-1-0.4-1.7-1.2-2.1c-0.9-0.4-1.9-0.6-2.8-1
			c-1.3-0.5-2.5-0.9-3.7-1.6c-3.2-1.7-4.8-4.4-5-8c-0.3-4.3,1.4-8.5,5.7-10.8c1.9-1,4-1.6,6.2-1.7c3.3-0.2,6.7-0.2,9.8,1.1
			c2.4,1,4,2.7,4.8,5.2c0.2,0.6,0.1,0.9-0.6,1.1c-2.7,0.7-5.4,1.4-8.1,2.2c-0.6,0.2-0.9,0.1-1.3-0.4c-0.8-1.3-2.5-1.8-4-1.3
			c-0.9,0.3-1.4,0.8-1.6,1.7c-0.1,1.1,0.1,1.7,1.1,2.1c1.3,0.6,2.6,1,3.9,1.5c1.9,0.6,3.7,1.4,5.2,2.7c2.7,2.3,3.5,5.4,3.2,8.9
			c-0.5,5.3-3.8,8.3-8.5,9.5c-1.1,0.3-2.2,0.5-3.3,0.7C234.6,34.4,232.5,34.4,230.4,34.4z"/>
		<path class="st0" d="M0,0.2c5.8,0,11.6,0,17.5,0c0.6,0,0.7,0.3,0.6,0.8c-1,5.5-2,11.1-2.9,16.6c-0.9,5-1.8,10.1-2.7,15.1
			c-0.2,1.1-0.2,1.1-1.4,1.1c-3.7,0-7.4,0-11.1,0C0,22.6,0,11.4,0,0.2z"/>
		<path class="st0" d="M300,33.8c-5.8,0-11.6,0-17.4,0c-0.9,0-0.7-0.5-0.6-1c0.7-4,1.4-8.1,2.1-12.1c1.1-6.5,2.3-13,3.4-19.6
			c0.1-0.7,0.3-1,1.1-1c3.8,0.1,7.5,0,11.3,0C300,11.4,300,22.6,300,33.8z"/>
		<path d="M35.2,0.2c-0.2,1.1-0.4,2.1-0.5,3c-0.5,2.7-1,5.4-1.5,8c-0.1,0.7,0,0.9,0.7,0.9c2.6,0,5.1,0,7.7,0c0.6,0,0.8-0.2,0.9-0.8
			c0.6-3.4,1.2-6.8,1.8-10.2c0.2-1.1,0.2-1.1,1.3-1.1c3,0,5.9,0,8.9,0c1.1,0,1.1,0,0.9,1.1c-1.1,6.1-2.1,12.2-3.2,18.3
			c-0.8,4.5-1.6,8.9-2.3,13.4c-0.1,0.7-0.3,0.9-1.1,0.9c-3.1,0-6.2,0-9.4,0c-0.2,0-0.4,0-0.9,0c0.7-4.2,1.4-8.3,2.2-12.5
			c-0.3,0-0.6-0.1-0.9-0.1c-2.5,0-5,0-7.6,0c-0.7,0-0.9,0.3-1.1,0.9c-0.6,3.5-1.2,7-1.8,10.6c-0.2,1.1-0.2,1.1-1.4,1.1c-3,0-6,0-9,0
			c-0.9,0-1,0-0.8-0.9c1-5.9,2.1-11.8,3.1-17.6c0.8-4.7,1.7-9.4,2.5-14.2c0.1-0.7,0.4-1,1.2-1c3.1,0,6.1,0,9.2,0
			C34.6,0.1,34.8,0.1,35.2,0.2z"/>
		<path d="M150.8,33.8c0.2-1.2,0.4-2.3,0.5-3.3c1.7-9.9,3.5-19.7,5.2-29.6c0.1-0.7,0.4-0.9,1-0.9c4.4,0,8.9,0,13.3,0
			c3,0,5.9,0.5,8.4,2.2c2.7,1.8,4,4.4,4.1,7.5c0.2,3.8-0.5,7.4-2.8,10.5c-2,2.6-4.7,4.1-7.9,4.5c-2.7,0.4-5.4,0.3-8.1,0.5
			c-1.1,0-1.1,0-1.3,1.1c-0.4,2.3-0.8,4.5-1.2,6.8c-0.1,0.3-0.4,0.7-0.6,0.7C157.9,33.8,154.5,33.8,150.8,33.8z M164.9,16.6
			c1.3,0,2.6,0.1,3.8,0c2.9-0.2,4.5-2.2,4.1-5.1c-0.2-1.2-0.8-2-2-2.3C169.9,9,169,9,168.1,9c-2.2,0-1.7-0.3-2.1,1.8
			C165.6,12.7,165.3,14.7,164.9,16.6z"/>
		<path d="M115.1,9.2c-1.9,0-3.8,0-5.6,0c-0.7,0-0.9,0.2-1,0.8c-0.2,1.5-0.5,2.9-0.7,4.4c-0.1,0.6,0,0.9,0.7,0.9c2.5,0,4.9,0,7.4,0
			c0.8,0,0.9,0.1,0.8,0.9c-0.4,2.3-0.8,4.5-1.2,6.8c-0.1,0.7-0.4,0.9-1.1,0.9c-2.4,0-4.9,0-7.3,0c-0.8,0-1,0.2-1.2,1
			c-0.4,2.7-1,5.5-1.4,8.2c-0.1,0.6-0.4,0.8-0.9,0.8c-3.1,0-6.3,0-9.4,0c-0.7,0-0.9-0.2-0.7-0.9c1-5.9,2.1-11.8,3.1-17.6
			c0.8-4.7,1.7-9.5,2.5-14.2c0.2-1,0.2-1.1,1.2-1.1c7.3,0,14.6,0,21.9,0c1,0,1.1,0.1,0.9,1.1c-0.4,2.4-0.9,4.9-1.3,7.3
			c-0.1,0.6-0.3,0.9-1,0.8C118.8,9.2,117,9.2,115.1,9.2z"/>
		<path d="M136.4,15.2c0.4,0,0.7,0,1,0c2.3,0,4.7,0,7,0c1.1,0,1.1,0,0.9,1.1c-0.4,2.2-0.8,4.3-1.1,6.5c-0.1,0.8-0.4,1.1-1.3,1.1
			c-2.4-0.1-4.9,0-7.3,0c-0.7,0-0.9,0.2-1,0.9c-0.4,2.8-1,5.5-1.4,8.3c-0.1,0.6-0.3,0.8-0.9,0.8c-3.2,0-6.3,0-9.5,0
			c-0.7,0-0.8-0.2-0.7-0.9c1.8-10.3,3.6-20.7,5.4-31c0.3-2,0.4-2,2.3-2c6.9,0,13.9,0,20.8,0c1.1,0,1.2,0,1,1.1
			c-0.4,2.4-0.8,4.8-1.2,7.2c-0.1,0.7-0.4,0.9-1.1,0.9c-3.7,0-7.3,0-11,0c-0.7,0-1,0.2-1.1,0.9C137,11.8,136.7,13.4,136.4,15.2z"/>
		<path d="M262,9.2c-2.9,0-5.7,0-8.6,0c0.1-0.6,0.1-1.2,0.2-1.7c0.4-2.2,0.8-4.4,1.2-6.6c0.1-0.6,0.4-0.8,1-0.8c8.8,0,17.7,0,26.5,0
			c0.2,0,0.4,0,0.8,0.1c-0.1,0.7-0.2,1.3-0.3,1.9c-0.4,2.1-0.7,4.2-1.1,6.3c-0.1,0.6-0.3,0.9-1,0.8c-2.2,0-4.4,0-6.6,0
			c-0.7,0-0.9,0.2-1,0.9c-1.3,7.6-2.7,15.2-4,22.8c-0.1,0.7-0.4,1-1.1,0.9c-3.1,0-6.2,0-9.3,0c-0.8,0-0.9-0.1-0.7-0.9
			c1.3-7.6,2.6-15.3,4-22.9C262,9.8,262,9.6,262,9.2z"/>
	</g>
</g>
</svg>
