<svg xmlns="http://www.w3.org/2000/svg" style="display: none;">

    <symbol id="algaecal" viewBox="0 0 326 112">

        <path fill="#40AD4A" d="M198.784,10.856c1.814-2.704,1.389-5.052-1.214-6.707c-2.585-1.639-6.117-1.137-7.688,1.099
            c-1.543,2.194-0.609,5.783,1.938,7.444C194.322,14.325,196.917,13.642,198.784,10.856 M200.081,1.979
            c3.317,2.271,3.671,8.168,0.746,12.385c-1.835,2.643-7.882,3.521-11.128,1.342c-2.692-1.807-4.09-8.95-2.652-11.568
            C189.407-0.159,195.005-1.495,200.081,1.979"/>
        <path fill="#67676E" d="M27.471,10.214c4.246,0,6.759,0.78,6.759,0.78l20.712,60.834c0,0-1.993,0.78-6.066,0.78
            c-3.726,0-5.373-0.78-5.373-0.78l-4.68-13.865H15.165l-4.68,13.865c0,0-1.907,0.78-5.373,0.78c-3.293,0-5.113-0.78-5.113-0.78
            l20.711-60.834C20.711,10.994,23.571,10.214,27.471,10.214z M26.864,21.826c0,0-0.867,4.42-2.6,9.619l-6.066,17.592H35.79
            l-5.893-17.592c-1.82-5.373-2.686-9.619-2.686-9.619H26.864z"/>
        <path fill="#67676E" d="M73.139,71.915c0,0-1.906,0.693-5.459,0.693c-3.813,0-5.459-0.693-5.459-0.693V8.307
            c0,0,1.646-0.693,5.459-0.693c3.553,0,5.459,0.693,5.459,0.693V71.915z"/>
        <path fill="#67676E" d="M122.881,26.159c0.866,2.167,0.866,6.066,0,8.32l-6.673-0.867c1.3,2.34,1.907,5.2,1.907,8.493
            c0,9.879-5.893,15.945-17.592,15.945c-1.126,0-2.167,0-3.12-0.087c-0.78,1.213-1.213,2.514-0.953,3.813
            c1.387,7.106,26.344-0.866,26.344,17.245c0,9.013-8.839,15.252-22.878,15.252c-13.432,0-19.151-4.853-19.151-11.785
            c0-6.412,5.373-10.14,7.799-11.525c-1.127-1.214-1.82-2.86-1.82-5.026c0-3.813,2.08-7.279,4.247-9.706
            c-5.373-2.513-8.06-7.453-8.06-14.125c0-9.879,5.979-15.946,17.592-15.946c3.986,0,7.28,0.693,9.879,1.993L122.881,26.159z
             M94.11,73.821c-1.213,1.213-2.86,3.467-2.86,6.413c0,3.466,2.6,6.413,9.013,6.413c8.319,0,12.219-2.601,12.219-6.413
            C112.482,74.774,101.736,75.901,94.11,73.821z M100.523,33.698c-4.333,0-7.279,2.513-7.279,8.406c0,5.893,2.946,8.319,7.279,8.319
            c4.333,0,7.193-2.426,7.193-8.319C107.716,36.211,104.855,33.698,100.523,33.698z"/>
        <path fill="#67676E" d="M147.145,26.159c12.652,0,17.332,5.2,17.332,16.119v29.638c0,0-1.213,0.693-4.246,0.693
            c-2.687,0-4.42-0.693-4.42-0.693l-1.646-4.68c-1.993,4.072-6.413,6.239-12.652,6.239c-8.233,0-13.433-4.853-13.433-14.991
            c0-9.793,6.153-13.779,16.899-13.779c3.033,0,6.066,0.173,8.579,0.433V43.23c0-4.333-1.56-7.886-7.799-7.886
            c-5.72,0-11.092,2.08-11.092,2.08s-1.387-0.867-2.427-3.207s-0.693-4.592-0.693-4.592S137.959,26.159,147.145,26.159z
             M146.365,51.983c-4.42,0-7.02,1.819-7.02,6.5c0,4.938,2.34,6.672,6.239,6.672c6.066,0,7.973-5.633,7.973-10.226v-2.6
            C151.391,52.157,148.878,51.983,146.365,51.983z"/>
        <path fill="#67676E" d="M184.843,53.196c0.779,8.84,4.679,11.092,10.745,11.092c5.806,0,9.879-2.079,9.879-2.079
            c1.82,1.733,3.206,4.68,3.293,7.713c0,0-5.112,3.553-14.732,3.553c-14.125,0-20.364-8.232-20.364-23.917
            c0-16.379,7.799-23.398,19.759-23.398c10.745,0,17.765,5.546,17.765,17.938c0,5.546-0.953,9.099-0.953,9.099H184.843z
             M193.422,34.651c-4.421,0-7.713,2.946-8.493,11.006h15.252c0.087-0.953,0.173-1.907,0.173-2.86
            C200.354,38.291,198.88,34.651,193.422,34.651z"/>
        <path fill="#67676E" d="M245.33,9.347c9.619,0,14.991,3.034,14.991,3.034c0.261,3.553-1.299,6.066-3.292,8.232
            c0,0-4.94-1.82-10.486-1.82c-9.186,0-15.858,4.767-15.858,22.705c0,17.938,6.673,22.358,15.858,22.358
            c6.239,0,11.353-1.819,11.353-1.819c2.167,1.993,3.293,5.199,3.293,8.405c0,0-5.806,3.033-15.858,3.033
            c-17.159,0-26.258-11.18-26.258-32.064C219.072,20.526,228.171,9.347,245.33,9.347z"/>
        <path fill="#67676E" d="M285.625,26.159c12.653,0,17.331,5.2,17.331,16.119v29.638c0,0-1.213,0.693-4.245,0.693
            c-2.687,0-4.42-0.693-4.42-0.693l-1.646-4.68c-1.993,4.072-6.412,6.239-12.652,6.239c-8.232,0-13.433-4.853-13.433-14.991
            c0-9.793,6.153-13.779,16.899-13.779c3.032,0,6.065,0.173,8.579,0.433V43.23c0-4.333-1.56-7.886-7.799-7.886
            c-5.72,0-11.094,2.08-11.094,2.08s-1.386-0.867-2.426-3.207s-0.693-4.592-0.693-4.592S276.439,26.159,285.625,26.159z
             M284.845,51.983c-4.419,0-7.02,1.819-7.02,6.5c0,4.938,2.34,6.672,6.24,6.672c6.066,0,7.973-5.633,7.973-10.226v-2.6
            C289.871,52.157,287.358,51.983,284.845,51.983z"/>
        <path fill="#67676E" d="M325.142,71.915c0,0-1.906,0.693-5.459,0.693c-3.813,0-5.46-0.693-5.46-0.693V8.307
            c0,0,1.646-0.693,5.46-0.693c3.553,0,5.459,0.693,5.459,0.693V71.915z"/>
        <path fill="#3FA852" d="M187.468,88.734c3.705,0,6.051,0.864,6.051,0.864c0,0.896-0.278,1.852-0.864,2.47
            c0,0-2.099-0.679-4.755-0.679c-3.272,0-4.847,1.266-4.847,3.519c0,2.378,2.655,2.934,5.526,3.859
            c2.871,0.988,5.773,2.316,5.773,6.361c0,4.136-2.687,6.452-7.749,6.452c-4.075,0-6.669-1.297-6.669-1.297
            c-0.031-0.834,0.277-1.791,0.74-2.501c0,0,2.902,0.957,5.774,0.957c3.18,0,4.692-1.203,4.692-3.52c0-2.192-1.76-2.964-3.89-3.643
            c-3.211-1.081-7.317-1.854-7.317-6.515C179.935,91.266,182.436,88.734,187.468,88.734z"/>
        <path fill="#3FA852" d="M201.237,91.914c0,0-0.556,0.216-1.605,0.216c-1.111,0-1.605-0.216-1.605-0.216v-2.903
            c0,0,0.494-0.215,1.605-0.215c1.05,0,1.605,0.215,1.605,0.215V91.914z M201.175,111.056c0,0-0.524,0.217-1.543,0.217
            c-1.08,0-1.544-0.217-1.544-0.217V95.249c0,0,0.464-0.217,1.544-0.217c1.019,0,1.543,0.217,1.543,0.217V111.056z"/>
        <path fill="#3FA852" d="M218.28,111.056c0,0-0.525,0.217-1.544,0.217c-1.05,0-1.544-0.217-1.544-0.217V99.941
            c0-1.729-0.896-2.718-2.872-2.718c-1.357,0-2.686,0.741-3.488,1.977v11.855c0,0-0.556,0.217-1.544,0.217
            c-1.08,0-1.544-0.217-1.544-0.217V95.249c0,0,0.464-0.217,1.544-0.217c0.988,0,1.544,0.217,1.544,0.217v1.42
            c1.111-1.266,2.717-1.946,4.662-1.946c3.088,0,4.786,1.884,4.786,4.663V111.056z"/>
        <path fill="#3FA852" d="M225.164,103.152c0,4.045,1.298,5.805,4.262,5.805c1.698,0,2.901-0.525,2.901-0.525
            c0.525,0.464,0.864,1.358,0.896,2.224c0,0-1.358,0.926-4.445,0.926c-4.509,0-6.793-2.934-6.793-8.429s2.284-8.43,6.793-8.43
            c2.964,0,4.138,0.772,4.138,0.772c0,0.833-0.341,1.698-0.896,2.224c0,0-1.081-0.464-2.718-0.464
            C226.338,97.255,225.164,99.139,225.164,103.152z"/>
        <path fill="#3FA852" d="M238.595,104.109c0.247,3.674,1.729,4.848,4.292,4.848c2.191,0,3.643-0.896,3.643-0.896
            c0.557,0.493,0.957,1.327,0.988,2.223c0,0-1.76,1.297-5.126,1.297c-4.754,0-6.977-2.934-6.977-8.521
            c0-5.836,2.748-8.337,6.854-8.337c3.797,0,6.112,2.101,6.112,6.207c0,1.944-0.339,3.18-0.339,3.18H238.595z M242.27,97.162
            c-2.008,0-3.428,1.328-3.675,4.756h6.607c0.03-0.247,0.093-0.742,0.093-1.391C245.295,98.707,244.554,97.162,242.27,97.162z"/>
        <path fill="#3FA852" d="M258.971,91.08c0,0,2.408-1.111,5.712-1.111c3.736,0,6.731,1.574,6.731,5.649
            c0,3.86-2.223,5.219-5.897,7.441c-1.822,1.143-4.354,2.223-4.354,4.755c0,0.309,0.03,0.556,0.062,0.679h9.634
            c0.216,0.34,0.309,0.834,0.309,1.39c0,0.525-0.124,1.019-0.309,1.39h-12.505c0,0-0.186-0.988-0.186-2.068
            c0-4.817,3.118-6.546,5.96-8.398c2.777-1.853,4.105-2.779,4.105-5.095c0-1.883-1.235-3.18-4.044-3.18
            c-2.254,0-4.354,0.771-4.354,0.771C259.188,92.778,258.848,92.007,258.971,91.08z"/>
        <path fill="#3FA852" d="M274.964,100.775c0-7.596,2.747-10.807,7.656-10.807s7.72,3.118,7.72,10.807
            c0,7.687-2.811,10.806-7.72,10.806S274.964,108.462,274.964,100.775z M278.236,100.775c0,6.391,1.544,8.182,4.384,8.182
            c2.903,0,4.385-1.791,4.385-8.182c0-6.422-1.481-8.183-4.385-8.183C279.78,92.593,278.236,94.354,278.236,100.775z"/>
        <path fill="#3FA852" d="M294.045,100.775c0-7.596,2.747-10.807,7.656-10.807s7.72,3.118,7.72,10.807
            c0,7.687-2.811,10.806-7.72,10.806S294.045,108.462,294.045,100.775z M297.317,100.775c0,6.391,1.544,8.182,4.384,8.182
            c2.903,0,4.385-1.791,4.385-8.182c0-6.422-1.481-8.183-4.385-8.183C298.861,92.593,297.317,94.354,297.317,100.775z"/>
        <path fill="#3FA852" d="M313.557,91.08c0,0,2.408-1.111,5.712-1.111c3.736,0,6.731,1.574,6.731,5.649
            c0,3.86-2.223,5.219-5.897,7.441c-1.822,1.143-4.354,2.223-4.354,4.755c0,0.309,0.03,0.556,0.062,0.679h9.634
            c0.216,0.34,0.309,0.834,0.309,1.39c0,0.525-0.124,1.019-0.309,1.39h-12.505c0,0-0.186-0.988-0.186-2.068
            c0-4.817,3.118-6.546,5.959-8.398c2.778-1.853,4.106-2.779,4.106-5.095c0-1.883-1.235-3.18-4.044-3.18
            c-2.254,0-4.354,0.771-4.354,0.771C313.773,92.778,313.434,92.007,313.557,91.08z"/>
    </symbol>

</svg>