<?xml version="1.0" encoding="utf-8"?>
<!-- Generator: Adobe Illustrator 22.1.0, SVG Export Plug-In . SVG Version: 6.00 Build 0)  -->
<svg version="1.1" id="Layer_1" xmlns="http://www.w3.org/2000/svg" xmlns:xlink="http://www.w3.org/1999/xlink" x="0px" y="0px"
	 viewBox="0 0 66.1 13.5" style="enable-background:new 0 0 66.1 13.5;" xml:space="preserve">
<style type="text/css">
	.st0{fill:#771649;stroke:#771649;stroke-width:0.8054;stroke-miterlimit:10;}
</style>
<g>
	<g>
		<g>
			<path class="st0" d="M11.5,12.8c-1.6,0-2.7-1.3-2.7-2.8v0c0-1.5,1.2-2.8,2.7-2.8c1.6,0,2.7,1.3,2.7,2.8v0
				C14.3,11.5,13.1,12.8,11.5,12.8z M13.7,10c0-1.3-1-2.3-2.2-2.3c-1.3,0-2.2,1-2.2,2.3v0c0,1.3,1,2.3,2.2,2.3
				C12.8,12.3,13.7,11.3,13.7,10L13.7,10z"/>
		</g>
		<g>
			<path class="st0" d="M20.2,12.7v-1c-0.4,0.6-0.9,1.1-1.9,1.1c-1.3,0-2.1-0.9-2.1-2.2V7.4h0.5v3.2c0,1.1,0.6,1.8,1.7,1.8
				c1,0,1.8-0.8,1.8-1.9V7.4h0.5v5.3H20.2z"/>
		</g>
		<g>
			<path class="st0" d="M25.9,7.8c-1.2,0-2.3,0.9-2.3,2.7v2.2h-0.5V7.4h0.5v1.5c0.4-0.9,1.3-1.6,2.4-1.6L25.9,7.8L25.9,7.8z"/>
		</g>
		<g>
			<path class="st0" d="M43.8,12.8c-1.6,0-2.7-1.3-2.7-2.8v0c0-1.5,1.2-2.8,2.7-2.8c1.6,0,2.7,1.3,2.7,2.8v0
				C46.5,11.5,45.3,12.8,43.8,12.8z M46,10c0-1.3-1-2.3-2.2-2.3c-1.3,0-2.2,1-2.2,2.3v0c0,1.3,1,2.3,2.2,2.3C45,12.3,46,11.3,46,10
				L46,10z"/>
		</g>
		<g>
			<path class="st0" d="M52.2,12.7V9.5c0-1.1-0.6-1.8-1.7-1.8c-1,0-1.8,0.8-1.8,1.9v3.1h-0.5V7.4h0.5v1c0.4-0.6,0.9-1.1,1.9-1.1
				c1.3,0,2.1,0.9,2.1,2.2v3.2H52.2z"/>
		</g>
		<g>
			<path class="st0" d="M57.7,12.3c0.8,0,1.4-0.4,1.8-0.8l0.4,0.3c-0.5,0.6-1.2,1-2.2,1c-1.4,0-2.6-1.1-2.6-2.8v0
				c0-1.5,1.1-2.8,2.5-2.8c1.5,0,2.4,1.2,2.4,2.8v0c0,0.1,0,0.1,0,0.2h-4.4C55.7,11.5,56.6,12.3,57.7,12.3z M59.5,9.8
				c-0.1-1.1-0.7-2.1-1.9-2.1c-1.1,0-1.9,0.9-2,2.1H59.5z"/>
		</g>
		<g>
			<path class="st0" d="M63.7,12.8c-0.8,0-1.6-0.3-2.2-0.8l0.3-0.4c0.6,0.4,1.2,0.7,1.9,0.7c0.7,0,1.3-0.4,1.3-1v0
				c0-0.6-0.7-0.9-1.4-1.1c-0.9-0.2-1.8-0.5-1.8-1.5v0c0-0.9,0.7-1.5,1.7-1.5c0.6,0,1.4,0.2,1.9,0.6l-0.3,0.4
				c-0.5-0.3-1.1-0.5-1.6-0.5c-0.7,0-1.2,0.4-1.2,0.9v0c0,0.6,0.7,0.8,1.5,1c0.9,0.2,1.7,0.6,1.7,1.5v0
				C65.5,12.2,64.7,12.8,63.7,12.8z"/>
		</g>
	</g>
	<g>
		<path class="st0" d="M5.5,7.8L1.4,0.7h0.4l4,6.7l3.9-6.7H10L5.9,7.8v5.1H5.5V7.8z"/>
		<path class="st0" d="M6,13H5.4V7.8L1.2,0.6h0.6l3.9,6.6l3.8-6.6h0.6L6,7.8V13z M5.7,12.8L5.7,12.8l0.1-5l0,0l4-6.9H9.7l-4,6.8
			l-4-6.8H1.6l4.1,6.9V12.8z"/>
	</g>
	<g>
		<g>
			<path class="st0" d="M36,12.9h-4.8V1h4c0.8,0,1.5,0.2,2,0.6c0.7,0.5,1.1,1.3,1.1,2.1c0,0.7-0.1,1.3-0.4,1.8
				C37.5,6.5,36.6,7,35.7,7h-3.9v5.3H36V12.9z M31.8,6.5h3.9c0.7,0,1.4-0.4,1.7-1.1c0.2-0.5,0.3-1,0.3-1.6c0-0.7-0.3-1.3-0.9-1.7
				c-0.5-0.3-1.1-0.5-1.7-0.5h-3.4V6.5z"/>
		</g>
		<g>
			<path class="st0" d="M35.9,12.9v-0.6c1,0,2.5-0.3,2.5-2.6C38.4,7.3,36.1,7,36,7l0-0.6c0,0,3,0.3,3,3.3
				C39,12.7,36.6,12.9,35.9,12.9z"/>
		</g>
	</g>
</g>
</svg>
