<?xml version="1.0" encoding="utf-8"?>
<!-- Generator: Adobe Illustrator 22.1.0, SVG Export Plug-In . SVG Version: 6.00 Build 0)  -->
<svg version="1.1" id="Layer_1" xmlns="http://www.w3.org/2000/svg" xmlns:xlink="http://www.w3.org/1999/xlink" x="0px" y="0px"
	 viewBox="0 0 299.1 284.8" style="enable-background:new 0 0 299.1 284.8;" xml:space="preserve">
<style type="text/css">
	.st0{fill:#1D3666;}
	.st1{fill:#FFFFFF;}
	.st2{fill:#C32026;}
</style>
<g id="Fe34sy_1_">
	<g>
		<path class="st0" d="M300,168.7c0,23.8,0,47.7,0,71.5c-0.5,0-1,0-1.6,0c-18.2,0-36.3,0-54.5,0c-80,0-159.9,0-239.9,0
			c-0.5,0-1.1,0-1.8,0c0.5-0.9,0.9-1.5,1.3-2.1c13.1-20.7,26.2-41.4,39.2-62c0.6-1,0.9-1.9,0.9-3c0-5.4,0-10.8,0-16.2
			c0-0.4,0-0.9,0-1.4c0.6,0,1,0,1.4,0c3,0,6-0.1,9,0c1.4,0.1,2.1-0.4,2.8-1.5c14-22.3,28.1-44.5,42.2-66.8c0.4-0.6,0.6-1.4,0.6-2.1
			c0-6.2,0-12.4,0-18.7c0-0.5,0-0.9,0.1-1.4c4.2,0,8.2,0,12.1,0c0.9,0,1.4-0.3,1.9-1.1c7.4-11.8,14.8-23.5,22.2-35.2
			c0.5-0.8,0.9-1.1,1.9-0.8c15.2,4,29.8,9.3,43.9,16.2c12.1,5.9,23.6,12.7,34.5,20.5c1.2,0.9,2.4,0.6,3.6,0.4
			c-12.3-9.2-25.3-16.9-39.1-23.5c-13.8-6.6-28.1-11.7-43-15.6c0.3-0.5,0.4-0.7,0.6-1c3.6-5.8,7.3-11.5,10.9-17.3
			c1.5-2.4,3-4.9,4.5-7.3c48.7,0,97.4,0,146.1,0c0,54.6,0,109.2,0,163.8c-2.4-4.9-4.8-9.9-7.2-14.8c-0.7-1.4-1.2-1.5-2.7-0.9
			c0.1,0.1,0.1,0.3,0.2,0.4c3.1,6.5,6.2,13,9.3,19.5C299.7,168.3,299.9,168.5,300,168.7z M190.7,67.7c-21.9,0-39.6,17.5-39.6,39
			c0,21.5,17.8,39,39.7,39c21.8,0,39.5-17.5,39.5-39C230.4,85.2,212.5,67.6,190.7,67.7z M218.5,198c-0.1,0-0.2,0-0.3,0
			c0-0.2-0.1-0.4-0.1-0.6c-2.7-12.8-5.4-25.5-8.1-38.3c-0.2-1-0.5-1.3-1.6-1.3c-4.2,0.1-8.5,0.1-12.7,0c-1,0-1.3,0.3-1.5,1.3
			c-2.1,10.9-4.3,21.8-6.5,32.7c-0.4,2.2-0.9,4.5-1.3,6.7c-0.3-0.4-0.4-0.7-0.5-1.1c-2.6-12.7-5.3-25.4-7.9-38.1
			c-0.2-1.1-0.6-1.5-1.8-1.5c-5.1,0.1-10.2,0-15.3,0c-0.4,0-0.9,0-1.4,0.1c0.1,0.4,0.1,0.8,0.2,1.1c1,4.2,2,8.5,3,12.7
			c4.3,18.5,8.6,37,12.9,55.5c0.2,0.9,0.5,1.3,1.5,1.3c4.7-0.1,9.5-0.1,14.2,0c1,0,1.3-0.4,1.5-1.3c2.5-12.5,5-25,7.5-37.5
			c0.1-0.3,0.2-0.5,0.4-1.1c0.1,0.5,0.2,0.8,0.2,1c2.6,12.5,5.2,25.1,7.8,37.6c0.2,1,0.6,1.3,1.6,1.3c4.4-0.1,8.9-0.1,13.3,0
			c1.2,0,1.7-0.3,1.9-1.5c5.1-22.1,10.3-44.2,15.5-66.3c0.2-0.9,0.4-1.9,0.6-2.9c-0.5,0-0.8-0.1-1.1-0.1c-4.1,0-8.2,0-12.4,0
			c-0.9,0-1.2,0.3-1.4,1.2c-1.9,9.2-3.9,18.3-5.9,27.5C220.1,190.3,219.3,194.2,218.5,198z M88.2,192.9c-0.1,0-0.2,0.1-0.3,0.1
			c-0.2-0.3-0.4-0.6-0.6-1c-6.6-11-13.2-22-19.7-32.9c-0.4-0.7-0.8-1.1-1.7-1.1c-6.1,0-12.1,0-18.2,0c-0.9,0-1.3,0.2-1.3,1.2
			c0,22.7-0.1,45.3-0.2,68c0,1,0.3,1.2,1.2,1.2c5.1-0.1,10.3-0.1,15.4,0c1.2,0,1.5-0.3,1.5-1.6c0-12.5,0-25,0-37.6
			c0-0.4,0-0.8,0-1.1c0.4,0.3,0.6,0.6,0.8,0.9c7.6,12.8,15.2,25.5,22.8,38.3c0.5,0.8,1,1.1,1.9,1.1c4.9,0,9.8,0,14.7,0
			c0.9,0,1.3-0.2,1.3-1.2c0-22.7,0-45.3,0-68c0-0.9-0.2-1.2-1.2-1.2c-5,0-10,0.1-15,0c-1.2,0-1.5,0.4-1.5,1.5c0,10.7,0,21.3,0,32
			C88.2,192,88.2,192.4,88.2,192.9z M254.5,125.8c0.3,0.5,0.5,0.8,0.7,1.1c3.4,5.6,6.7,11.2,10,16.9c0.4,0.8,0.9,1.1,1.8,1
			c7.5,0,14.9,0,22.4,0c0.4,0,0.7-0.1,1.3-0.1c-0.3-0.6-0.5-1-0.8-1.3c-7.5-12.5-14.9-25-22.5-37.5c-0.5-0.9-0.6-1.5,0-2.4
			c6.6-11.3,13.2-22.6,19.8-33.9c0.3-0.6,0.7-1.2,1-1.8c-0.3-0.1-0.5-0.1-0.6-0.1c-7.8,0-15.5,0-23.3,0c-0.4,0-1,0.4-1.3,0.8
			c-1.2,2-2.4,4-3.5,6.1c-1.7,3-3.5,6-5.3,9.1c-0.3-0.4-0.5-0.7-0.7-1c-2.8-4.6-5.6-9.3-8.3-13.9c-0.5-0.8-1-1.1-1.9-1.1
			c-7.4,0-14.8,0-22.2,0c-0.4,0-0.8,0-1.4,0.1c0.5,0.8,0.8,1.4,1.2,2c6.8,11.4,13.6,22.8,20.4,34.2c0.5,0.8,0.5,1.3,0,2.1
			c-7.3,12.6-14.6,25.2-21.9,37.8c-0.1,0.3-0.3,0.5-0.4,0.9c0.4,0,0.7,0.1,0.9,0.1c7.5,0,14.9,0,22.4-0.1c0.5,0,1.1-0.4,1.4-0.9
			c1.9-3.1,3.6-6.2,5.5-9.3C251.1,131.7,252.8,128.8,254.5,125.8z M150.8,67.7c-16.1,0-32.2,0-48.3,0c0,0.5,0,0.8,0,1.2
			c0,24.9,0,49.8,0,74.7c0,1.1,0.3,1.3,1.4,1.3c6.6,0,13.2,0,19.9,0c1.1,0,1.4-0.3,1.4-1.4c0-7.4,0-14.8,0-22.2c0-0.5,0-0.9,0-1.5
			c0.6,0,1.1,0,1.5,0c6.5,0,12.9,0,19.4,0c1.1,0,1.4-0.3,1.4-1.3c-0.1-6.2,0-12.4,0-18.5c0-0.4,0-0.8-0.1-1.3c-7.4,0-14.6,0-21.8,0
			c0-3.4,0-6.7,0-10.1c9,0,17.8,0,26.9,0C151.8,81.6,151.3,74.7,150.8,67.7z M291.4,173.3c-2.2-6.3-5.6-11.4-11.3-14.6
			c-5.4-3-11.2-3.5-17.3-2.8c-5.5,0.7-10.6,2.6-14.7,6.5c-5,4.6-7,10.5-6.9,17.2c0.1,7.7,3.6,13.4,10.5,16.8
			c3.7,1.8,7.8,3.1,11.7,4.5c2.5,0.9,5.1,1.4,7.5,2.3c2.2,0.8,3.1,2.3,3.1,4.6c0,2-1.1,3.8-3.3,4.3c-1.8,0.4-3.7,0.6-5.6,0.5
			c-4.5-0.2-7.7-2.7-9.2-7c-0.2-0.5-0.4-1-0.6-1.6c-5.7,1.3-11.3,2.5-17,3.8c2,8.7,6.5,15.2,14.6,18.8c6,2.7,12.3,3.2,18.7,2.3
			c10.3-1.4,19.8-8.8,21.2-20.3c1.2-9.8-2.2-18.5-12.4-22.5c-4.1-1.6-8.4-2.6-12.6-3.9c-2-0.6-3.9-1.2-5.8-2c-1.7-0.7-2.3-2.2-2.1-4
			c0.2-2.1,1.5-3.4,3.4-4.2c4-1.6,9,0.1,11.2,3.8c0.5,0.9,0.9,1.8,1.4,2.8C281.1,176.7,286.2,175,291.4,173.3z M110.4,228.5
			c0.4,0,0.8,0.1,1.1,0.1c14.6,0,29.2,0,43.9,0c1,0,1.2-0.3,1.2-1.2c0-4.6-0.1-9.3,0-13.9c0-1.2-0.4-1.4-1.4-1.4c-8.5,0-17,0-25.6,0
			c-0.4,0-0.9,0-1.3,0c0-4.1,0-8,0-12c0.5,0,1,0,1.5,0c6.7,0,13.4,0,20.1,0c1.1,0,1.4-0.3,1.4-1.4c-0.1-4.2,0-8.5,0-12.7
			c0-0.3-0.1-0.7-0.1-1.2c-7.6,0-15.2,0-22.8,0c0-3.5,0-6.9,0-10.4c9.3,0,18.5,0,27.9,0c0-0.6,0-1,0-1.4c0-4.5,0-9,0-13.6
			c0-1.2-0.3-1.6-1.5-1.6c-14.3,0-28.5,0-42.8,0c-1.2,0-1.6,0.3-1.6,1.5c0,22.5,0,45.1,0,67.6C110.3,227.5,110.4,227.9,110.4,228.5z
			"/>
		<path class="st1" d="M153.9,0c-1.5,2.4-3,4.9-4.5,7.3c-3.6,5.8-7.3,11.5-10.9,17.3c-0.2,0.3-0.3,0.5-0.6,1
			c14.9,3.9,29.2,9,43,15.6c13.8,6.5,26.8,14.3,39.1,23.5c-1.2,0.2-2.4,0.5-3.6-0.4c-10.9-7.8-22.5-14.6-34.5-20.5
			C167.7,37,153,31.6,137.9,27.6c-1-0.3-1.4,0.1-1.9,0.8c-7.4,11.8-14.8,23.5-22.2,35.2c-0.5,0.8-1,1.1-1.9,1.1c-4-0.1-8,0-12.1,0
			c0,0.5-0.1,1-0.1,1.4c0,6.2,0,12.4,0,18.7c0,0.7-0.2,1.5-0.6,2.1c-14,22.3-28.1,44.5-42.2,66.8c-0.7,1.1-1.4,1.6-2.8,1.5
			c-3-0.1-6,0-9,0c-0.4,0-0.9,0-1.4,0c0,0.6,0,1,0,1.4c0,5.4,0,10.8,0,16.2c0,1.1-0.3,2.1-0.9,3c-13.1,20.7-26.2,41.3-39.2,62
			c-0.4,0.6-0.8,1.2-1.3,2.1c0.8,0,1.3,0,1.8,0c80,0,159.9,0,239.9,0c18.2,0,36.3,0,54.5,0c0.5,0,1,0,1.6,0c0,2,0,4,0,6.1
			c-0.1,0-0.2,0-0.4,0c-99.4,0-198.8,0-298.2,0c-0.4,0-0.8,0-1.1,0c0,12.5,0,24.7,0,37.1c0.6,0,1.2,0,1.7,0c98.7,0,197.5,0,296.2,0
			c0.6,0,1.1,0,1.7,0c0,0.1-0.1,0.2-0.1,0.2c-0.3,0-0.6,0-1,0c-99.6,0-199.2,0-298.9,0c0-0.6,0-1.3,0-1.9c0-93.5,0-187,0-280.6
			C0,0.7,0.2,0.4,0.2,0c0,10.2,0,20.5,0,30.8c0.6-0.2,1-0.3,1.4-0.4c2.5-0.8,5-1.6,7.5-2.4c11.6-3.5,23.4-6,35.4-7.7
			c0.8-0.1,1.1-0.4,1.2-1.2c0.7-3.7,1.5-7.3,2.3-11c0.6-2.7,1-5.5,1.6-8.2c11.4,0,22.8,0,34.2,0c-2.1,6-4.1,11.9-6.2,18
			c0.3,0,0.5,0.1,0.6,0.1c9,0,18.1,0.5,27.1,1.6c0.8,0.1,1.1-0.3,1.4-0.9c1.6-3.4,3.3-6.8,4.9-10.3c1.3-2.8,2.6-5.6,3.9-8.4
			C128.4,0,141.1,0,153.9,0z M0.3,235c0.1,0,0.1,0,0.2,0C15.3,164.2,30.2,93.4,45.1,22.4c-1.4,0.2-2.7,0.4-3.9,0.6
			C27.8,25,14.6,28.3,1.7,32.7c-1.1,0.4-1.4,0.9-1.4,2c0,66.3,0,132.6,0,198.9C0.3,234.1,0.3,234.6,0.3,235z M0.7,239.9
			c0.1,0,0.2,0,0.3,0C35.7,167.2,70.5,94.5,105.4,21.6c-9.4-1.1-18.6-1.6-27.8-1.5c-0.3,0-0.7,0.4-0.9,0.7c-0.6,1.5-1.1,3-1.6,4.5
			c-10.9,31.5-21.8,63-32.8,94.5c-13.8,39.7-27.5,79.3-41.3,119C0.9,239.2,0.8,239.5,0.7,239.9z"/>
		<path class="st2" d="M300,283.3c-0.6,0-1.1,0-1.7,0c-98.7,0-197.5,0-296.2,0c-0.6,0-1.1,0-1.7,0c0-12.4,0-24.6,0-37.1
			c0.4,0,0.8,0,1.1,0c99.4,0,198.8,0,298.2,0c0.1,0,0.2,0,0.4,0C300,258.6,300,270.9,300,283.3z M72.1,278.1c3.1,0,6,0,9,0
			c0-4.5,0.1-8.9,0-13.3c-0.1-2.1-1.2-3.7-3.1-4.4c-4.6-1.7-9.1-1.7-13.3,1.1c-0.2,0.1-0.4,0.2-0.8,0.5c0-3,0-5.8,0-8.6
			c-3,0-5.9,0-8.8,0c0,8.3,0,16.5,0,24.8c2.6,0,5.1,0,7.6,0c1,0,1.3-0.3,1.3-1.3c0-3.1,0-6.1,0-9.2c0-1.5,0.5-2.8,2-3.3
			c1.7-0.7,3.6-0.9,5.1,0.2c0.7,0.5,1,1.7,1.1,2.6c0.2,2.2,0.1,4.5,0.1,6.8C72.1,275.3,72.1,276.6,72.1,278.1z M173.2,278.1
			c0-4.4,0.1-8.7,0-13c-0.1-3.1-2-4.9-5.1-5.4c-4.3-0.7-8.5-0.8-12.2,2.4c-0.1-0.9-0.1-1.5-0.2-2.3c-2.9,0-5.8,0-8.7,0
			c0,5.9,0,11.8,0,17.6c0,0.2,0.6,0.6,0.9,0.6c1.9,0.1,3.7,0,5.6,0c0.8,0,1.6,0,2.5,0c0-0.7,0-1.2,0-1.6c0-2.9-0.1-5.8,0.1-8.7
			c0.1-2.7,1.4-3.8,4.1-3.9c0.2,0,0.5,0,0.7,0c2.4,0,3.4,0.9,3.4,3.3c0.1,3.2,0.1,6.4,0.1,9.6c0,0.4,0,0.9,0,1.4
			C167.3,278.1,170.2,278.1,173.2,278.1z M248,270.4c0.5,0,1,0,1.5,0c5.3,0,10.7,0,16,0c0.9,0,1.2-0.3,1.2-1.2
			c-0.1-3.2-1.4-5.8-4.1-7.5c-2-1.3-4.2-2-6.6-2.3c-4.2-0.5-8.2-0.3-12.1,1.6c-3.2,1.7-5.1,4.3-5.1,8c0,3.7,1.9,6.4,5.3,7.9
			c2,0.9,4.3,1.4,6.5,1.6c4.2,0.4,8.3,0,12.1-2.2c1.5-0.9,2.7-2.1,3.5-3.9c-0.6,0-1,0-1.4,0c-2.3,0-4.5,0-6.8,0
			c-0.2,0-0.4,0.2-0.6,0.3c-1.8,1.7-5.1,2.2-7.3,1.1C248.6,273.2,247.9,272.1,248,270.4z M193.1,278.2c2.8,0,5.3,0,7.9,0
			c0.9,0,1.1-0.3,1.1-1.1c0-3,0-6.1,0-9.1c0-2.8,1.4-4.1,4.5-4.1c2.8,0,3.7,0.9,3.7,3.9c0,3.1,0,6.1,0.1,9.2c0,0.4,0.4,1,0.6,1
			c2.8,0.1,5.5,0,8.4,0c0-4.3,0.1-8.4,0-12.6c-0.1-3.4-1.8-5.3-5.2-5.8c-4.3-0.7-8.5-0.7-12.3,2.5c0-0.9,0-1.6,0-2.5
			c-2.6,0-5,0-7.5,0c-1,0-1.3,0.2-1.3,1.3c0.1,4.2,0,8.3,0,12.5C193.1,275,193.1,276.5,193.1,278.2z M126.8,278.1
			c-0.1-0.3,0-0.5-0.1-0.6c-1.1-0.8-1.2-2-1.2-3.3c0-2.6,0-5.2,0-7.8c-0.1-3.6-1.5-5.4-5-6.3c-4.2-1.1-8.4-1.1-12.6-0.3
			c-1.6,0.3-3.2,1-4.6,1.7c-1.4,0.8-2.2,2.1-2.6,3.9c2.1,0,4.1,0,6.1,0c1.1,0,2.2,0.1,2.9-1.1c0.2-0.4,1-0.7,1.5-0.7
			c1.4-0.1,2.7-0.2,4.1-0.1c0.9,0.1,1.7,0.5,1.7,1.7c0,1.1-1,1.2-1.7,1.3c-2.3,0.3-4.7,0.5-7,1c-2,0.4-4,0.9-5.9,1.7
			c-1.8,0.8-2.6,2.4-2.5,4.3c0.1,1.9,1.1,3.2,2.7,3.8c1.5,0.6,3.1,1,4.6,1.2c3.5,0.4,6.8-0.4,10-2.4c-0.1,2.2,1.2,2.1,2.5,2
			c1.8-0.1,3.6,0,5.5,0C125.7,278.2,126.2,278.1,126.8,278.1z M35.2,271.3c-2.6,0-5.1,0-7.5,0c-0.8,0-1.3,0.1-1.7,0.9
			c-0.3,0.6-1.1,1.1-1.7,1.4c-3.8,1.4-6.7-0.6-6.7-4.6c0-0.9,0.1-2,0.5-2.8c1.1-2.8,6-3.5,7.6-1.1c0.7,1.1,1.4,1.2,2.5,1.2
			c1.9,0,3.9,0,5.8,0c0.4,0,0.8,0,1.4,0c-0.3-2.1-1.4-3.5-2.9-4.6c-2-1.4-4.3-2-6.7-2.3c-4.2-0.5-8.4-0.4-12.3,1.6
			c-3.3,1.7-5.2,4.3-5.2,8.1c0,3.7,2,6.2,5.2,7.8c2.6,1.4,5.4,1.8,8.3,1.8c3.5,0,7-0.4,10.1-2.4C33.5,275.2,34.7,273.6,35.2,271.3z
			 M283.8,253.4c0,0.3-0.1,0.4-0.1,0.6c0,7.7,0,15.5,0,23.2c0,0.8,0.3,1,1,0.9c2.2,0,4.4-0.1,6.7,0c1,0,1.4-0.2,1.4-1.3
			c-0.1-7.4,0-14.8,0-22.3c0-0.4,0-0.8-0.1-1.2C289.6,253.4,286.7,253.4,283.8,253.4z"/>
		<path class="st0" d="M49.7,0c-0.5,2.7-1,5.5-1.6,8.2c-0.7,3.7-1.6,7.3-2.3,11c-0.1,0.8-0.4,1.1-1.2,1.2c-12,1.7-23.8,4.2-35.4,7.7
			c-2.5,0.8-5,1.6-7.5,2.4c-0.4,0.1-0.8,0.2-1.4,0.4c0-10.4,0-20.6,0-30.8C16.7,0,33.2,0,49.7,0z"/>
		<path class="st0" d="M115.6,0c-1.3,2.8-2.6,5.6-3.9,8.4c-1.6,3.4-3.3,6.8-4.9,10.3c-0.3,0.6-0.6,1-1.4,0.9c-9-1.1-18-1.6-27.1-1.6
			c-0.2,0-0.3,0-0.6-0.1c2.1-6,4.1-12,6.2-18C94.4,0,105,0,115.6,0z"/>
		<path class="st1" d="M300,163.8c0,1.6,0,3.2,0,4.8c-0.1-0.2-0.3-0.3-0.4-0.5c-3.1-6.5-6.2-13-9.3-19.5c-0.1-0.1-0.1-0.3-0.2-0.4
			c1.5-0.6,2-0.4,2.7,0.9"/>
		<path class="st1" d="M190.7,67.7c21.8,0,39.7,17.5,39.6,39c0,21.5-17.8,38.9-39.5,39c-21.9,0-39.7-17.4-39.7-39
			C151.2,85.1,168.9,67.7,190.7,67.7z M197.6,106c0,0,0.1,0,0.1,0c0-2.7,0-5.4,0-8.1c0-2.7,0-5.5,0-8.2c-0.1-4.9-5.2-8.4-9.6-6.5
			c-3,1.2-4.3,3.7-4.3,6.8c0,10.8,0,21.5,0,32.3c0,2.1,0.7,3.9,2.3,5.2c2.3,1.9,4.8,2.2,7.5,1c2.7-1.2,4-3.4,4-6.3
			C197.6,116.8,197.6,111.4,197.6,106z"/>
		<path class="st1" d="M218.5,198c0.8-3.8,1.7-7.7,2.5-11.5c2-9.2,4-18.3,5.9-27.5c0.2-0.9,0.5-1.2,1.4-1.2c4.1,0,8.2,0,12.4,0
			c0.3,0,0.6,0,1.1,0.1c-0.2,1-0.4,1.9-0.6,2.9c-5.2,22.1-10.4,44.2-15.5,66.3c-0.3,1.2-0.8,1.5-1.9,1.5c-4.4-0.1-8.9-0.1-13.3,0
			c-1,0-1.4-0.3-1.6-1.3c-2.6-12.5-5.2-25.1-7.8-37.6c0-0.2-0.1-0.5-0.2-1c-0.2,0.6-0.3,0.8-0.4,1.1c-2.5,12.5-5,25-7.5,37.5
			c-0.2,0.9-0.5,1.3-1.5,1.3c-4.7-0.1-9.5-0.1-14.2,0c-1,0-1.3-0.4-1.5-1.3c-4.3-18.5-8.6-37-12.9-55.5c-1-4.2-2-8.5-3-12.7
			c-0.1-0.3-0.1-0.6-0.2-1.1c0.5,0,0.9-0.1,1.4-0.1c5.1,0,10.2,0,15.3,0c1.2,0,1.6,0.4,1.8,1.5c2.6,12.7,5.2,25.4,7.9,38.1
			c0.1,0.3,0.2,0.7,0.5,1.1c0.4-2.2,0.9-4.5,1.3-6.7c2.2-10.9,4.3-21.8,6.5-32.7c0.2-0.9,0.5-1.3,1.5-1.3c4.2,0.1,8.5,0.1,12.7,0
			c1,0,1.4,0.4,1.6,1.3c2.7,12.8,5.4,25.5,8.1,38.3c0,0.2,0.1,0.4,0.1,0.6C218.3,198,218.4,198,218.5,198z"/>
		<path class="st1" d="M88.2,192.9c0-0.5,0-1,0-1.4c0-10.7,0-21.3,0-32c0-1.1,0.2-1.5,1.5-1.5c5,0.1,10,0.1,15,0
			c1,0,1.2,0.3,1.2,1.2c0,22.7,0,45.3,0,68c0,1-0.3,1.2-1.3,1.2c-4.9,0-9.8,0-14.7,0c-0.9,0-1.4-0.3-1.9-1.1
			c-7.6-12.8-15.2-25.5-22.8-38.3c-0.2-0.3-0.4-0.6-0.8-0.9c0,0.4,0,0.8,0,1.1c0,12.5,0,25,0,37.6c0,1.2-0.3,1.6-1.5,1.6
			c-5.1-0.1-10.3,0-15.4,0c-0.9,0-1.2-0.3-1.2-1.2c0.1-22.7,0.1-45.3,0.2-68c0-1,0.3-1.2,1.3-1.2c6.1,0,12.1,0,18.2,0
			c0.9,0,1.3,0.4,1.7,1.1c6.6,11,13.1,22,19.7,32.9c0.2,0.3,0.4,0.7,0.6,1C88.1,193,88.1,192.9,88.2,192.9z"/>
		<path class="st1" d="M254.5,125.8c-1.8,3-3.5,5.9-5.1,8.8c-1.8,3.1-3.6,6.2-5.5,9.3c-0.3,0.4-0.9,0.9-1.4,0.9
			c-7.5,0.1-14.9,0.1-22.4,0.1c-0.3,0-0.5,0-0.9-0.1c0.2-0.4,0.3-0.7,0.4-0.9c7.3-12.6,14.6-25.2,21.9-37.8c0.4-0.8,0.5-1.3,0-2.1
			c-6.8-11.4-13.6-22.8-20.4-34.2c-0.3-0.6-0.7-1.2-1.2-2c0.6,0,1-0.1,1.4-0.1c7.4,0,14.8,0,22.2,0c0.9,0,1.4,0.3,1.9,1.1
			c2.7,4.7,5.5,9.3,8.3,13.9c0.2,0.3,0.4,0.6,0.7,1c1.8-3.1,3.5-6.1,5.3-9.1c1.2-2,2.3-4.1,3.5-6.1c0.2-0.4,0.8-0.8,1.3-0.8
			c7.8,0,15.5,0,23.3,0c0.1,0,0.3,0.1,0.6,0.1c-0.4,0.7-0.7,1.3-1,1.8c-6.6,11.3-13.2,22.6-19.8,33.9c-0.5,0.9-0.5,1.5,0,2.4
			c7.5,12.5,15,25,22.5,37.5c0.2,0.4,0.4,0.8,0.8,1.3c-0.5,0-0.9,0.1-1.3,0.1c-7.5,0-14.9,0-22.4,0c-0.9,0-1.4-0.3-1.8-1
			c-3.3-5.6-6.7-11.2-10-16.9C255,126.6,254.8,126.3,254.5,125.8z"/>
		<path class="st1" d="M150.8,67.7c0.5,7,1,13.9,1.5,21c-9,0-17.9,0-26.9,0c0,3.4,0,6.7,0,10.1c7.2,0,14.4,0,21.8,0
			c0,0.5,0.1,0.9,0.1,1.3c0,6.2,0,12.4,0,18.5c0,1.1-0.3,1.4-1.4,1.3c-6.5,0-12.9,0-19.4,0c-0.4,0-0.9,0-1.5,0c0,0.6,0,1,0,1.5
			c0,7.4,0,14.8,0,22.2c0,1.1-0.3,1.4-1.4,1.4c-6.6,0-13.2,0-19.9,0c-1,0-1.4-0.2-1.4-1.3c0-24.9,0-49.8,0-74.7c0-0.4,0-0.7,0-1.2
			C118.6,67.7,134.6,67.7,150.8,67.7z"/>
		<path class="st1" d="M291.4,173.3c-5.3,1.8-10.3,3.5-15.4,5.2c-0.5-1-0.9-1.9-1.4-2.8c-2.2-3.7-7.2-5.4-11.2-3.8
			c-1.9,0.7-3.2,2.1-3.4,4.2c-0.2,1.8,0.4,3.3,2.1,4c1.9,0.8,3.9,1.4,5.8,2c4.2,1.3,8.5,2.3,12.6,3.9c10.3,4.1,13.7,12.7,12.4,22.5
			c-1.4,11.5-10.9,18.9-21.2,20.3c-6.4,0.9-12.8,0.4-18.7-2.3c-8.1-3.6-12.6-10.2-14.6-18.8c5.7-1.3,11.3-2.5,17-3.8
			c0.2,0.6,0.4,1.1,0.6,1.6c1.5,4.3,4.6,6.9,9.2,7c1.9,0.1,3.8-0.1,5.6-0.5c2.1-0.5,3.2-2.2,3.3-4.3c0-2.3-0.9-3.8-3.1-4.6
			c-2.5-0.9-5.1-1.4-7.5-2.3c-3.9-1.4-8-2.7-11.7-4.5c-6.9-3.4-10.4-9.1-10.5-16.8c-0.1-6.7,2-12.6,6.9-17.2
			c4.1-3.9,9.2-5.8,14.7-6.5c6-0.7,11.9-0.2,17.3,2.8C285.9,161.9,289.3,167,291.4,173.3z"/>
		<path class="st1" d="M110.4,228.5c0-0.5-0.1-1-0.1-1.5c0-22.5,0-45.1,0-67.6c0-1.2,0.3-1.5,1.6-1.5c14.3,0,28.5,0,42.8,0
			c1.3,0,1.6,0.3,1.5,1.6c-0.1,4.5,0,9,0,13.6c0,0.4,0,0.8,0,1.4c-9.3,0-18.6,0-27.9,0c0,3.5,0,6.9,0,10.4c7.6,0,15.2,0,22.8,0
			c0,0.5,0.1,0.8,0.1,1.2c0,4.2,0,8.5,0,12.7c0,1.1-0.3,1.4-1.4,1.4c-6.7,0-13.4,0-20.1,0c-0.5,0-1,0-1.5,0c0,4,0,7.9,0,12
			c0.4,0,0.9,0,1.3,0c8.5,0,17,0,25.6,0c1.1,0,1.5,0.2,1.4,1.4c-0.1,4.6-0.1,9.3,0,13.9c0,0.9-0.2,1.2-1.2,1.2
			c-14.6,0-29.2,0-43.9,0C111.2,228.5,110.8,228.5,110.4,228.5z"/>
		<path class="st0" d="M0.3,235c0-0.5,0-1,0-1.5c0-66.3,0-132.6,0-198.9c0-1.1,0.3-1.6,1.4-2c12.9-4.3,26.1-7.6,39.6-9.7
			c1.2-0.2,2.4-0.4,3.9-0.6c-14.9,71-29.8,141.8-44.7,212.7C0.4,235.1,0.3,235,0.3,235z"/>
		<path class="st0" d="M0.7,239.9c0.1-0.4,0.2-0.8,0.3-1.1c13.8-39.7,27.5-79.3,41.3-119c10.9-31.5,21.8-63,32.8-94.5
			c0.5-1.5,1-3,1.6-4.5c0.1-0.3,0.6-0.7,0.9-0.7c9.2-0.1,18.5,0.4,27.8,1.5C70.5,94.5,35.7,167.2,0.9,240
			C0.8,239.9,0.8,239.9,0.7,239.9z"/>
		<path class="st1" d="M72.1,278.1c0-1.4,0-2.8,0-4.1c0-2.3,0.1-4.5-0.1-6.8c-0.1-0.9-0.4-2.2-1.1-2.6c-1.5-1.1-3.4-0.9-5.1-0.2
			c-1.5,0.6-2,1.9-2,3.3c-0.1,3.1-0.1,6.1,0,9.2c0,1-0.3,1.3-1.3,1.3c-2.5-0.1-5,0-7.6,0c0-8.3,0-16.5,0-24.8c2.9,0,5.8,0,8.8,0
			c0,2.8,0,5.6,0,8.6c0.4-0.2,0.6-0.3,0.8-0.5c4.2-2.8,8.7-2.8,13.3-1.1c1.9,0.7,3.1,2.3,3.1,4.4c0.1,4.4,0,8.8,0,13.3
			C78.1,278.1,75.2,278.1,72.1,278.1z"/>
		<path class="st1" d="M173.2,278.1c-3,0-5.9,0-8.9,0c0-0.5,0-0.9,0-1.4c0-3.2,0-6.4-0.1-9.6c-0.1-2.4-1-3.2-3.4-3.3
			c-0.2,0-0.5,0-0.7,0c-2.7,0.1-4,1.2-4.1,3.9c-0.1,2.9,0,5.8-0.1,8.7c0,0.5,0,1,0,1.6c-0.9,0-1.7,0-2.5,0c-1.9,0-3.7,0-5.6,0
			c-0.3,0-0.9-0.4-0.9-0.6c0-5.8,0-11.7,0-17.6c2.9,0,5.8,0,8.7,0c0.1,0.7,0.1,1.4,0.2,2.3c3.7-3.2,7.9-3.1,12.2-2.4
			c3.1,0.5,4.9,2.3,5.1,5.4C173.3,269.4,173.2,273.7,173.2,278.1z"/>
		<path class="st1" d="M248,270.4c0,1.7,0.6,2.8,2,3.4c2.2,1.1,5.5,0.6,7.3-1.1c0.2-0.2,0.4-0.3,0.6-0.3c2.3,0,4.5,0,6.8,0
			c0.4,0,0.8,0,1.4,0c-0.8,1.9-2,3.1-3.5,3.9c-3.8,2.2-7.9,2.6-12.1,2.2c-2.2-0.2-4.5-0.8-6.5-1.6c-3.4-1.4-5.3-4.1-5.3-7.9
			c0-3.7,1.9-6.4,5.1-8c3.8-2,7.9-2.1,12.1-1.6c2.4,0.3,4.6,0.9,6.6,2.3c2.7,1.8,4,4.3,4.1,7.5c0,0.9-0.2,1.2-1.2,1.2
			c-5.3,0-10.7,0-16,0C248.9,270.4,248.5,270.4,248,270.4z M247.7,266.9c3.4,0,6.7,0,10,0c0.1-2.1-1.4-3.4-4.1-3.7
			C250.4,263,248.2,264.3,247.7,266.9z"/>
		<path class="st1" d="M193.1,278.2c0-1.7,0-3.2,0-4.7c0-4.2,0-8.3,0-12.5c0-1,0.3-1.3,1.3-1.3c2.4,0.1,4.9,0,7.5,0
			c0,0.8,0,1.5,0,2.5c3.8-3.3,8-3.2,12.3-2.5c3.3,0.6,5.1,2.5,5.2,5.8c0.1,4.1,0,8.3,0,12.6c-2.8,0-5.6,0-8.4,0
			c-0.2,0-0.6-0.7-0.6-1c-0.1-3.1,0-6.1-0.1-9.2c0-3-0.9-3.9-3.7-3.9c-3.1,0-4.5,1.2-4.5,4.1c0,3,0,6.1,0,9.1c0,0.8-0.2,1.1-1.1,1.1
			C198.4,278.1,195.9,278.2,193.1,278.2z"/>
		<path class="st1" d="M126.8,278.1c-0.6,0-1.1,0.1-1.6,0.1c-1.8,0-3.6,0-5.5,0c-1.4,0-2.7,0.2-2.5-2c-3.2,2.1-6.5,2.8-10,2.4
			c-1.6-0.2-3.2-0.6-4.6-1.2c-1.6-0.7-2.6-2-2.7-3.8c-0.1-2,0.7-3.6,2.5-4.3c1.9-0.8,3.9-1.3,5.9-1.7c2.3-0.5,4.6-0.6,7-1
			c0.8-0.1,1.7-0.2,1.7-1.3c0-1.1-0.8-1.6-1.7-1.7c-1.4-0.1-2.7,0-4.1,0.1c-0.5,0-1.2,0.3-1.5,0.7c-0.7,1.2-1.8,1.1-2.9,1.1
			c-2,0-3.9,0-6.1,0c0.4-1.8,1.2-3.1,2.6-3.9c1.4-0.8,3-1.5,4.6-1.7c4.2-0.8,8.4-0.9,12.6,0.3c3.5,1,4.9,2.7,5,6.3
			c0.1,2.6,0,5.2,0,7.8c0,1.2,0.1,2.4,1.2,3.3C126.7,277.6,126.7,277.8,126.8,278.1z M116.8,269.6c-1.5,0.3-3,0.5-4.5,0.8
			c-0.8,0.2-1.7,0.3-2.5,0.5c-0.8,0.2-1.5,0.7-1.5,1.7c0,1,0.6,1.6,1.5,1.8c1,0.2,2,0.3,3,0.2C116,274.5,117.2,272.9,116.8,269.6z"
			/>
		<path class="st1" d="M35.2,271.3c-0.5,2.3-1.7,3.8-3.4,4.9c-3.1,2-6.5,2.4-10.1,2.4c-2.9,0-5.7-0.4-8.3-1.8
			c-3.2-1.6-5.2-4.1-5.2-7.8c0-3.8,1.9-6.4,5.2-8.1c3.9-2,8.1-2.1,12.3-1.6c2.4,0.3,4.7,0.9,6.7,2.3c1.5,1.1,2.5,2.5,2.9,4.6
			c-0.6,0-1,0-1.4,0c-1.9,0-3.9,0-5.8,0c-1,0-1.8-0.1-2.5-1.2c-1.6-2.5-6.4-1.7-7.6,1.1c-0.4,0.9-0.5,1.9-0.5,2.8c0,4,2.9,6,6.7,4.6
			c0.7-0.3,1.4-0.8,1.7-1.4c0.4-0.8,1-0.9,1.7-0.9C30.1,271.4,32.5,271.3,35.2,271.3z"/>
		<path class="st1" d="M283.8,253.4c2.9,0,5.8,0,8.8,0c0,0.4,0.1,0.8,0.1,1.2c0,7.4,0,14.8,0,22.3c0,1.1-0.3,1.4-1.4,1.3
			c-2.2-0.1-4.4,0-6.7,0c-0.7,0-1-0.2-1-0.9c0-7.7,0-15.5,0-23.2C283.7,253.8,283.8,253.6,283.8,253.4z"/>
		<path class="st0" d="M197.6,106c0,5.4,0,10.8,0,16.2c0,3-1.3,5.2-4,6.3c-2.7,1.2-5.2,0.8-7.5-1c-1.6-1.3-2.3-3.2-2.3-5.2
			c0-10.8,0-21.5,0-32.3c0-3.1,1.4-5.6,4.3-6.8c4.5-1.9,9.6,1.6,9.6,6.5c0,2.7,0,5.5,0,8.2c0,2.7,0,5.4,0,8.1
			C197.7,106,197.6,106,197.6,106z"/>
		<path class="st2" d="M247.7,266.9c0.5-2.7,2.6-4,5.9-3.7c2.7,0.3,4.2,1.6,4.1,3.7C254.5,266.9,251.1,266.9,247.7,266.9z"/>
		<path class="st2" d="M116.8,269.6c0.5,3.2-0.8,4.8-3.9,5.1c-1,0.1-2,0-3-0.2c-0.9-0.2-1.5-0.8-1.5-1.8c0-1,0.7-1.4,1.5-1.7
			c0.8-0.3,1.6-0.4,2.5-0.5C113.8,270.2,115.2,269.9,116.8,269.6z"/>
	</g>
</g>
</svg>
