<?xml version="1.0" encoding="utf-8"?>
<!-- Generator: Adobe Illustrator 23.0.3, SVG Export Plug-In . SVG Version: 6.00 Build 0)  -->
<svg version="1.1" id="Layer_1" xmlns="http://www.w3.org/2000/svg" xmlns:xlink="http://www.w3.org/1999/xlink" x="0px" y="0px"
	 viewBox="0 0 23.9 49.8" style="enable-background:new 0 0 23.9 49.8;" xml:space="preserve">
<style type="text/css">
	.st0{fill:#43AD4A;}
	.st1{fill:#FFFFFF;}
</style>
<path class="st0" d="M23.7,9.2c-0.5-2.8-1.9-5-3.8-6.4l0,0c-3.7-2.5-7.8-3.4-11.5-2.5C5.2,1.1,2.6,3.1,0.9,6.1
	C-1.2,9.9,0.7,20.2,4.8,23c1.8,1.2,4.3,1.8,6.8,1.8c3.9,0,7.8-1.4,9.5-3.8C23.5,17.5,24.4,13.1,23.7,9.2z M17.4,15.4
	c-2.5,3.7-5.8,4.6-9.1,2.4c-1.7-1.1-3-3-3.4-5.1c-0.3-1.7,0-3.4,0.8-4.6C7,6.4,9.1,5.5,11.4,5.5c1.5,0,3.1,0.4,4.4,1.3
	c1.6,1,2.6,2.3,2.9,3.7C19.1,11.9,18.6,13.6,17.4,15.4z"/>
<path class="st1" d="M23.7,34.2c-0.5-2.8-1.9-5-3.8-6.4l0,0c-3.7-2.5-7.8-3.4-11.5-2.5c-3.2,0.8-5.8,2.8-7.5,5.8
	C-1.2,34.9,0.7,45.2,4.8,48c1.8,1.2,4.3,1.8,6.8,1.8c3.9,0,7.8-1.4,9.5-3.8C23.5,42.5,24.4,38.1,23.7,34.2z M17.4,40.4
	c-2.5,3.7-5.8,4.6-9.1,2.4c-1.7-1.1-3-3-3.4-5.1c-0.3-1.7,0-3.4,0.8-4.6c1.3-1.7,3.4-2.6,5.7-2.6c1.5,0,3.1,0.4,4.4,1.3
	c1.6,1,2.6,2.3,2.9,3.7C19.1,36.9,18.6,38.6,17.4,40.4z"/>
</svg>
