<?xml version="1.0" encoding="utf-8"?>
<!-- Generator: Adobe Illustrator 23.0.3, SVG Export Plug-In . SVG Version: 6.00 Build 0)  -->
<svg version="1.1" id="Layer_1" xmlns="http://www.w3.org/2000/svg" xmlns:xlink="http://www.w3.org/1999/xlink" x="0px" y="0px"
	 viewBox="0 0 21.6 21.6" style="enable-background:new 0 0 21.6 21.6;" xml:space="preserve">
<style type="text/css">
	.st0{fill:#43AD4A;}
</style>
<path class="st0" d="M21.6,7.8c0-0.4-0.4-0.8-0.8-0.8h-6.5V0.8c0-0.4-0.4-0.8-0.8-0.8H8.1C7.7,0,7.3,0.4,7.3,0.8l0,6.2H0.8
	C0.4,7,0,7.4,0,7.8v5.4C0,13.6,0.4,14,0.8,14l6.5,0v6.8c0,0.4,0.4,0.8,0.8,0.8l5.4,0c0.4,0,0.8-0.4,0.8-0.8l0-6.8l6.5,0
	c0.4,0,0.8-0.4,0.8-0.8V7.8z"/>
</svg>
