<?xml version="1.0" encoding="utf-8"?>
<!-- Generator: Adobe Illustrator 23.0.3, SVG Export Plug-In . SVG Version: 6.00 Build 0)  -->
<svg version="1.1" id="Layer_1" xmlns="http://www.w3.org/2000/svg" xmlns:xlink="http://www.w3.org/1999/xlink" x="0px" y="0px"
	 viewBox="0 0 27.4 40.3" style="enable-background:new 0 0 27.4 40.3;" xml:space="preserve">
<style type="text/css">
	.st0{fill:#FFFFFF;}
	.st1{fill:#45AD49;}
</style>
<path class="st0" d="M27.3,32.1c-1-0.9-2.1-1.9-3.1-2.8c-1.7-1.5-3.4-3-5-4.5c-1.8-1.6-3.5-3.1-5.3-4.7c0,0-0.1-0.1-0.2-0.1
	c-0.1-0.1-0.1,0-0.1,0c-1.2,1.1-2.4,2.1-3.6,3.2c-0.8,0.7-1.7,1.5-2.5,2.2c0-0.9,0-1.7,0-1.8c0-0.6,0-1.2,0-1.8c0,0,0-0.1,0-0.1
	c-1.1,0-2.3,0-3.4,0c0,0.7,0,3.5,0,6.7c-1.3,1.2-2.7,2.4-4,3.5c0,0-0.1,0.1-0.1,0.1c0.5,0.5,1,1.1,1.4,1.6c0.9-0.8,1.8-1.6,2.6-2.3
	c0,0,0,0,0,0c0,1.1,0,1.9,0,1.9c0,4,0,2.2,0,6.2c0,0,0,0.1,0,0.1c0,0.2,0.1,0.3,0.2,0.4c0.1,0.1,0.2,0.1,0.4,0.1c1.9,0,3.9,0,5.8,0
	c0,0,0.1,0,0.1,0c0-0.1,0-0.1,0-0.2c0-1.7,0-5.4,0-7.1c0-0.1,0-0.1,0-0.2c0-0.2,0.2-0.4,0.4-0.4c0.1,0,0.1,0,0.2,0
	c1.6,0,3.2,0,4.8,0c0,0,0.1,0,0.1,0c0.2,0,0.4,0.2,0.5,0.4c0,0.1,0,0.2,0,0.2c0,1.7,0,5.4,0,7.1c0,0,0,0.1,0,0.1c0.1,0,0.1,0,0.2,0
	c1.9,0,3.9,0,5.8,0c0,0,0.1,0,0.1,0c0.2,0,0.5-0.2,0.5-0.4c0-0.1,0-0.2,0-0.3c0-4.6,0-6.6,0-8.1c0.9,0.8,1.8,1.6,2.6,2.3
	c0,0,0.1-0.1,0.1-0.1c0.3-0.3,0.5-0.6,0.8-0.9C27,32.6,27.2,32.4,27.3,32.1C27.4,32.2,27.4,32.2,27.3,32.1
	C27.4,32.2,27.4,32.2,27.3,32.1z M4.1,27.1c0-0.1,0-0.2,0-0.2C4.1,27,4.1,27.1,4.1,27.1z"/>
<path class="st1" d="M27.3,12.1c-1-0.9-2.1-1.9-3.1-2.8c-1.7-1.5-3.4-3-5-4.5c-1.8-1.6-3.5-3.1-5.3-4.7c0,0-0.1-0.1-0.2-0.1
	c-0.1-0.1-0.1,0-0.1,0c-1.2,1.1-2.4,2.1-3.6,3.2C9.2,4,8.3,4.8,7.5,5.5c0-0.9,0-1.7,0-1.8c0-0.6,0-1.2,0-1.8V1.8c-1.1,0-2.3,0-3.4,0
	c0,0.7,0,3.5,0,6.7c-1.3,1.2-2.7,2.4-4,3.5c0,0.1-0.1,0.1-0.1,0.2c0.5,0.5,1,1.1,1.4,1.6C2.3,13,3.2,12.2,4,11.5l0,0
	c0,1.1,0,1.9,0,1.9c0,4,0,2.2,0,6.2v0.1c0,0.2,0.1,0.3,0.2,0.4s0.2,0.1,0.4,0.1c1.9,0,3.9,0,5.8,0h0.1c0-0.1,0-0.1,0-0.2
	c0-1.7,0-5.4,0-7.1c0-0.1,0-0.1,0-0.2c0-0.2,0.2-0.4,0.4-0.4c0.1,0,0.1,0,0.2,0c1.6,0,3.2,0,4.8,0H16c0.2,0,0.4,0.2,0.5,0.4
	c0,0.1,0,0.2,0,0.2c0,1.7,0,5.4,0,7.1v0.1c0.1,0,0.1,0,0.2,0c1.9,0,3.9,0,5.8,0h0.1c0.2,0,0.5-0.2,0.5-0.4c0-0.1,0-0.2,0-0.3
	c0-4.6,0-6.6,0-8.1c0.9,0.8,1.8,1.6,2.6,2.3l0.1-0.1c0.3-0.3,0.5-0.6,0.8-0.9C27,12.6,27.2,12.4,27.3,12.1
	C27.4,12.2,27.4,12.2,27.3,12.1C27.4,12.1,27.4,12.1,27.3,12.1z M4.1,7.1c0-0.1,0-0.2,0-0.2C4.1,7,4.1,7,4.1,7.1z"/>
</svg>
