<?xml version="1.0" encoding="utf-8"?>
<!-- Generator: Adobe Illustrator 23.0.3, SVG Export Plug-In . SVG Version: 6.00 Build 0)  -->
<svg version="1.1" id="Layer_1" xmlns="http://www.w3.org/2000/svg" xmlns:xlink="http://www.w3.org/1999/xlink" x="0px" y="0px"
	 viewBox="0 0 11.6 26" style="enable-background:new 0 0 11.6 26;" xml:space="preserve">
<style type="text/css">
	.st0{fill:#FFFFFF;}
</style>
<g>
	<g>
		<path class="st0" d="M3.4,18.4l-0.1-1c-0.2-2,0.4-4.2,2.3-6.5c1.7-2,2.6-3.4,2.6-5.1C8.2,4,7,2.7,4.7,2.7c-1.3,0-2.8,0.4-3.8,1.2
			L0,1.5C1.2,0.6,3.4,0,5.3,0c4.3,0,6.2,2.6,6.2,5.5c0,2.5-1.4,4.4-3.2,6.5c-1.6,1.9-2.2,3.6-2.1,5.5l0,1H3.4z M2.5,23.6
			c0-1.4,0.9-2.3,2.2-2.3c1.3,0,2.2,1,2.2,2.3C7,24.9,6.1,26,4.7,26C3.4,26,2.5,24.9,2.5,23.6z"/>
	</g>
</g>
</svg>
