<?xml version="1.0" encoding="utf-8"?>
<!-- Generator: Adobe Illustrator 23.0.3, SVG Export Plug-In . SVG Version: 6.00 Build 0)  -->
<svg version="1.1" id="Layer_1" xmlns="http://www.w3.org/2000/svg" xmlns:xlink="http://www.w3.org/1999/xlink" x="0px" y="0px"
	 viewBox="0 0 22.1 44.3" style="enable-background:new 0 0 22.1 44.3;" xml:space="preserve">
<style type="text/css">
	.st0{fill:#43AD4A;}
	.st1{fill:#FFFFFF;}
</style>
<path class="st0" d="M21,16.9c-1.2-1.3-2.5-2.5-3.7-3.7c-0.1-0.1-0.2-0.2-0.3-0.3c2.1-4.6,0.1-9.2-3-11.3c-3.6-2.5-8.5-2-11.5,1.1
	s-3.4,8.1-0.9,11.6c1.3,1.7,2.9,2.9,5,3.4c2.1,0.6,4.2,0.4,6.1-0.6l0,0c1.3,1.3,2.7,2.7,4,4c0.7,0.7,1.5,1,2.3,1s1.5-0.3,2.1-0.9
	C22.4,20.1,22.4,18.2,21,16.9z M8.9,13.2c-2.3,0-4.2-1.9-4.2-4.2c0-1.1,0.4-2.2,1.2-3s1.9-1.2,3-1.2l0,0c1.1,0,2.2,0.5,3,1.3
	s1.2,1.9,1.2,3s-0.5,2.2-1.3,3C11,12.8,10,13.2,8.9,13.2z"/>
<path class="st1" d="M21,39.1c-1.2-1.3-2.5-2.5-3.7-3.7c-0.1-0.1-0.2-0.2-0.3-0.3c2.1-4.6,0.1-9.2-3-11.3c-3.6-2.5-8.5-2-11.5,1.1
	S-0.9,33,1.6,36.5c1.3,1.7,2.9,2.9,5,3.4c2.1,0.6,4.2,0.4,6.1-0.6l0,0c1.3,1.3,2.7,2.7,4,4c0.7,0.7,1.5,1,2.3,1s1.5-0.3,2.1-0.9
	C22.4,42.3,22.4,40.4,21,39.1z M8.9,35.4c-2.3,0-4.2-1.9-4.2-4.2c0-1.1,0.4-2.2,1.2-3c0.8-0.8,1.9-1.2,3-1.2l0,0
	c1.1,0,2.2,0.5,3,1.3c0.8,0.8,1.2,1.9,1.2,3c0,1.1-0.5,2.2-1.3,3C11,35,10,35.4,8.9,35.4z"/>
</svg>
