<?xml version="1.0" encoding="utf-8"?>
<!-- Generator: Adobe Illustrator 23.0.3, SVG Export Plug-In . SVG Version: 6.00 Build 0)  -->
<svg version="1.1" id="Layer_1" xmlns="http://www.w3.org/2000/svg" xmlns:xlink="http://www.w3.org/1999/xlink" x="0px" y="0px"
	 viewBox="0 0 27.4 20.1" style="enable-background:new 0 0 27.4 20.1;" xml:space="preserve">
<style type="text/css">
	.st0{fill:#FFFFFF;}
</style>
<path class="st0" d="M27.3,12c-1-0.9-2.1-1.9-3.1-2.8c-1.7-1.5-3.4-3-5-4.5c-1.8-1.6-3.5-3.1-5.3-4.7c0,0-0.1-0.1-0.2-0.1
	c-0.1-0.1-0.1,0-0.1,0c-1.2,1.1-2.4,2.1-3.6,3.2C9.2,3.9,8.3,4.7,7.5,5.4c0-0.9,0-1.7,0-1.8c0-0.6,0-1.2,0-1.8c0,0,0-0.1,0-0.1
	c-1.1,0-2.3,0-3.4,0c0,0.7,0,3.5,0,6.7c-1.3,1.2-2.7,2.4-4,3.5C0.1,12,0,12,0,12.1c0.5,0.5,1,1.1,1.4,1.6c0.9-0.8,1.8-1.6,2.6-2.3
	c0,0,0,0,0,0c0,1.1,0,1.9,0,1.9c0,4,0,2.2,0,6.2c0,0,0,0.1,0,0.1c0,0.2,0.1,0.3,0.2,0.4c0.1,0.1,0.2,0.1,0.4,0.1c1.9,0,3.9,0,5.8,0
	c0,0,0.1,0,0.1,0c0-0.1,0-0.1,0-0.2c0-1.7,0-5.4,0-7.1c0-0.1,0-0.1,0-0.2c0-0.2,0.2-0.4,0.4-0.4c0.1,0,0.1,0,0.2,0
	c1.6,0,3.2,0,4.8,0c0,0,0.1,0,0.1,0c0.2,0,0.4,0.2,0.5,0.4c0,0.1,0,0.2,0,0.2c0,1.7,0,5.4,0,7.1c0,0,0,0.1,0,0.1c0.1,0,0.1,0,0.2,0
	c1.9,0,3.9,0,5.8,0c0,0,0.1,0,0.1,0c0.2,0,0.5-0.2,0.5-0.4c0-0.1,0-0.2,0-0.3c0-4.6,0-6.6,0-8.1c0.9,0.8,1.8,1.6,2.6,2.3
	c0,0,0.1-0.1,0.1-0.1c0.3-0.3,0.5-0.6,0.8-0.9C27,12.5,27.2,12.3,27.3,12C27.4,12.1,27.4,12.1,27.3,12C27.4,12,27.4,12,27.3,12z
	 M4.1,7c0-0.1,0-0.2,0-0.2C4.1,6.9,4.1,6.9,4.1,7z"/>
</svg>
