<?xml version="1.0" encoding="utf-8"?>
<!-- Generator: Adobe Illustrator 23.0.3, SVG Export Plug-In . SVG Version: 6.00 Build 0)  -->
<svg version="1.1" id="Layer_1" xmlns="http://www.w3.org/2000/svg" xmlns:xlink="http://www.w3.org/1999/xlink" x="0px" y="0px"
	 viewBox="0 0 23.9 24.7" style="enable-background:new 0 0 23.9 24.7;" xml:space="preserve">
<style type="text/css">
	.st0{fill:#43AD4A;}
</style>
<path class="st0" d="M23.6,9.2c-0.5-2.8-1.9-5-3.8-6.4v0c-3.7-2.5-7.8-3.4-11.5-2.5C5.1,1.1,2.5,3.1,0.8,6.1
	c-2.1,3.8-0.2,14.1,3.9,16.9c1.8,1.2,4.3,1.8,6.8,1.8c3.9,0,7.8-1.4,9.5-3.8C23.4,17.5,24.3,13.1,23.6,9.2z M17.3,15.4
	c-2.5,3.7-5.8,4.6-9.1,2.4c-1.7-1.1-3-3-3.4-5.1c-0.3-1.7,0-3.4,0.8-4.6C6.9,6.4,9,5.5,11.3,5.5c1.5,0,3.1,0.4,4.4,1.3
	c1.6,1,2.6,2.3,2.9,3.7C19,11.9,18.5,13.6,17.3,15.4z"/>
</svg>
