<?xml version="1.0" encoding="utf-8"?>
<!-- Generator: Adobe Illustrator 23.0.3, SVG Export Plug-In . SVG Version: 6.00 Build 0)  -->
<svg version="1.1" id="Layer_1" xmlns="http://www.w3.org/2000/svg" xmlns:xlink="http://www.w3.org/1999/xlink" x="0px" y="0px"
	 viewBox="0 0 23.5 22" style="enable-background:new 0 0 23.5 22;" xml:space="preserve">
<style type="text/css">
	.st0{fill:#FFFFFF;}
</style>
<g id="pVsdG2_2_">
	<g>
		<g>
			<path class="st0" d="M23.1,2.8c-0.3-0.2-0.6-0.3-1-0.3c-5.5,0-11,0-16.5,0c-0.2,0-0.2-0.1-0.3-0.2C5.3,1.8,5.3,1.5,5.2,1.1
				C5.1,0.4,4.6,0,4,0C3,0,2.1,0,1.1,0c-0.5,0-0.8,0.3-1,0.7C-0.1,1.2,0,1.6,0.3,1.9c0.3,0.4,0.6,0.5,1.1,0.5c0.5,0,1.1,0,1.6,0
				c0,0.1,0,0.1,0,0.2c0.3,1.6,0.5,3.2,0.8,4.8c0.5,2.8,0.9,5.7,1.4,8.5c0.1,0.8,0.6,1.2,1.4,1.2c4.4,0,8.7,0,13.1,0
				c0.1,0,0.2,0,0.3,0c0.8-0.1,1.3-1,0.9-1.8c-0.3-0.5-0.7-0.7-1.2-0.7c-4,0-8,0-12,0c-0.1,0-0.2,0-0.3,0c-0.1-0.4-0.1-0.8-0.2-1.2
				c0.1,0,0.2,0,0.3,0c4.4,0,8.9,0,13.3,0c0.1,0,0.2,0,0.2,0c0.6,0,1.1-0.4,1.2-1.1c0-0.3,0.1-0.5,0.1-0.8c0.4-2.6,0.7-5.1,1.1-7.7
				C23.5,3.4,23.4,3.1,23.1,2.8z M10.1,11c-0.4,0-0.7,0-1.1,0c-0.7,0-1.3,0-2,0c-0.1,0-0.2,0-0.2-0.1c-0.1-0.8-0.2-1.5-0.4-2.3
				c1.2,0,2.4,0,3.6,0C10.1,9.4,10.1,10.2,10.1,11z M10.1,7.3c-1.3,0-2.5,0-3.8,0C6.1,6.5,6,5.7,5.8,4.9c1.4,0,2.8,0,4.2,0
				C10.1,5.7,10.1,6.5,10.1,7.3z M14.9,11c-1.2,0-2.4,0-3.6,0c0-0.8,0-1.6,0-2.4c1.2,0,2.4,0,3.6,0C14.9,9.4,14.9,10.2,14.9,11z
				 M14.9,7.3c-1.2,0-2.4,0-3.6,0c0-0.8,0-1.6,0-2.4c1.2,0,2.4,0,3.6,0C14.9,5.7,14.9,6.5,14.9,7.3z M20,11c-1.3,0-2.5,0-3.8,0
				c0-0.8,0-1.6,0-2.4c1.4,0,2.8,0,4.2,0C20.2,9.4,20.1,10.2,20,11z M20.6,6.6c0,0.2-0.1,0.4-0.1,0.6c0,0.1-0.1,0.1-0.1,0.1
				c-1.4,0-2.8,0-4.2,0c0,0,0,0-0.1,0c0-0.8,0-1.6,0-2.4c1.6,0,3.1,0,4.7,0C20.8,5.5,20.7,6,20.6,6.6z"/>
			<path class="st0" d="M19.2,22c-1,0-1.8-0.9-1.8-1.8c0-1,0.9-1.8,1.8-1.8c1,0,1.8,0.9,1.8,1.8C21,21.2,20.2,22,19.2,22z"/>
			<path class="st0" d="M10.1,20.2c0,1-0.9,1.8-1.9,1.8c-1,0-1.8-0.9-1.8-1.8c0-1,0.8-1.8,1.8-1.8C9.3,18.3,10.1,19.2,10.1,20.2z"/>
		</g>
	</g>
</g>
</svg>
