<?xml version="1.0" encoding="utf-8"?>
<!-- Generator: Adobe Illustrator 23.0.3, SVG Export Plug-In . SVG Version: 6.00 Build 0)  -->
<svg version="1.1" id="Layer_1" xmlns="http://www.w3.org/2000/svg" xmlns:xlink="http://www.w3.org/1999/xlink" x="0px" y="0px"
	 viewBox="0 0 21.6 43.2" style="enable-background:new 0 0 21.6 43.2;" xml:space="preserve">
<style type="text/css">
	.st0{fill:#43AD4A;}
	.st1{fill:#FFFFFF;}
</style>
<path class="st0" d="M21.6,7.8c0-0.4-0.4-0.8-0.8-0.8h-6.5V0.8c0-0.4-0.4-0.8-0.8-0.8H8.1C7.7,0,7.3,0.4,7.3,0.8V7H0.8
	C0.4,7,0,7.4,0,7.8v5.4C0,13.6,0.4,14,0.8,14h6.5v6.8c0,0.4,0.4,0.8,0.8,0.8h5.4c0.4,0,0.8-0.4,0.8-0.8V14h6.5
	c0.4,0,0.8-0.4,0.8-0.8C21.6,13.2,21.6,7.8,21.6,7.8z"/>
<path class="st1" d="M21.6,29.4c0-0.4-0.4-0.8-0.8-0.8h-6.5v-6.2c0-0.4-0.4-0.8-0.8-0.8H8.1c-0.4,0-0.8,0.4-0.8,0.8v6.2H0.8
	C0.4,28.6,0,29,0,29.4v5.4c0,0.4,0.4,0.8,0.8,0.8h6.5v6.8c0,0.4,0.4,0.8,0.8,0.8h5.4c0.4,0,0.8-0.4,0.8-0.8v-6.8h6.5
	c0.4,0,0.8-0.4,0.8-0.8C21.6,34.8,21.6,29.4,21.6,29.4z"/>
</svg>
