<svg xmlns="http://www.w3.org/2000/svg" style="display: none;">

    <symbol id="algaecal" viewBox="0 0 326 112">

        <path fill="#40AD4A" d="M198.784,10.856c1.814-2.704,1.389-5.052-1.214-6.707c-2.585-1.639-6.117-1.137-7.688,1.099
            c-1.543,2.194-0.609,5.783,1.938,7.444C194.322,14.325,196.917,13.642,198.784,10.856 M200.081,1.979
            c3.317,2.271,3.671,8.168,0.746,12.385c-1.835,2.643-7.882,3.521-11.128,1.342c-2.692-1.807-4.09-8.95-2.652-11.568
            C189.407-0.159,195.005-1.495,200.081,1.979"/>
        <path fill="#67676E" d="M27.471,10.214c4.246,0,6.759,0.78,6.759,0.78l20.712,60.834c0,0-1.993,0.78-6.066,0.78
            c-3.726,0-5.373-0.78-5.373-0.78l-4.68-13.865H15.165l-4.68,13.865c0,0-1.907,0.78-5.373,0.78c-3.293,0-5.113-0.78-5.113-0.78
            l20.711-60.834C20.711,10.994,23.571,10.214,27.471,10.214z M26.864,21.826c0,0-0.867,4.42-2.6,9.619l-6.066,17.592H35.79
            l-5.893-17.592c-1.82-5.373-2.686-9.619-2.686-9.619H26.864z"/>
        <path fill="#67676E" d="M73.139,71.915c0,0-1.906,0.693-5.459,0.693c-3.813,0-5.459-0.693-5.459-0.693V8.307
            c0,0,1.646-0.693,5.459-0.693c3.553,0,5.459,0.693,5.459,0.693V71.915z"/>
        <path fill="#67676E" d="M122.881,26.159c0.866,2.167,0.866,6.066,0,8.32l-6.673-0.867c1.3,2.34,1.907,5.2,1.907,8.493
            c0,9.879-5.893,15.945-17.592,15.945c-1.126,0-2.167,0-3.12-0.087c-0.78,1.213-1.213,2.514-0.953,3.813
            c1.387,7.106,26.344-0.866,26.344,17.245c0,9.013-8.839,15.252-22.878,15.252c-13.432,0-19.151-4.853-19.151-11.785
            c0-6.412,5.373-10.14,7.799-11.525c-1.127-1.214-1.82-2.86-1.82-5.026c0-3.813,2.08-7.279,4.247-9.706
            c-5.373-2.513-8.06-7.453-8.06-14.125c0-9.879,5.979-15.946,17.592-15.946c3.986,0,7.28,0.693,9.879,1.993L122.881,26.159z
             M94.11,73.821c-1.213,1.213-2.86,3.467-2.86,6.413c0,3.466,2.6,6.413,9.013,6.413c8.319,0,12.219-2.601,12.219-6.413
            C112.482,74.774,101.736,75.901,94.11,73.821z M100.523,33.698c-4.333,0-7.279,2.513-7.279,8.406c0,5.893,2.946,8.319,7.279,8.319
            c4.333,0,7.193-2.426,7.193-8.319C107.716,36.211,104.855,33.698,100.523,33.698z"/>
        <path fill="#67676E" d="M147.145,26.159c12.652,0,17.332,5.2,17.332,16.119v29.638c0,0-1.213,0.693-4.246,0.693
            c-2.687,0-4.42-0.693-4.42-0.693l-1.646-4.68c-1.993,4.072-6.413,6.239-12.652,6.239c-8.233,0-13.433-4.853-13.433-14.991
            c0-9.793,6.153-13.779,16.899-13.779c3.033,0,6.066,0.173,8.579,0.433V43.23c0-4.333-1.56-7.886-7.799-7.886
            c-5.72,0-11.092,2.08-11.092,2.08s-1.387-0.867-2.427-3.207s-0.693-4.592-0.693-4.592S137.959,26.159,147.145,26.159z
             M146.365,51.983c-4.42,0-7.02,1.819-7.02,6.5c0,4.938,2.34,6.672,6.239,6.672c6.066,0,7.973-5.633,7.973-10.226v-2.6
            C151.391,52.157,148.878,51.983,146.365,51.983z"/>
        <path fill="#67676E" d="M184.843,53.196c0.779,8.84,4.679,11.092,10.745,11.092c5.806,0,9.879-2.079,9.879-2.079
            c1.82,1.733,3.206,4.68,3.293,7.713c0,0-5.112,3.553-14.732,3.553c-14.125,0-20.364-8.232-20.364-23.917
            c0-16.379,7.799-23.398,19.759-23.398c10.745,0,17.765,5.546,17.765,17.938c0,5.546-0.953,9.099-0.953,9.099H184.843z
             M193.422,34.651c-4.421,0-7.713,2.946-8.493,11.006h15.252c0.087-0.953,0.173-1.907,0.173-2.86
            C200.354,38.291,198.88,34.651,193.422,34.651z"/>
        <path fill="#67676E" d="M245.33,9.347c9.619,0,14.991,3.034,14.991,3.034c0.261,3.553-1.299,6.066-3.292,8.232
            c0,0-4.94-1.82-10.486-1.82c-9.186,0-15.858,4.767-15.858,22.705c0,17.938,6.673,22.358,15.858,22.358
            c6.239,0,11.353-1.819,11.353-1.819c2.167,1.993,3.293,5.199,3.293,8.405c0,0-5.806,3.033-15.858,3.033
            c-17.159,0-26.258-11.18-26.258-32.064C219.072,20.526,228.171,9.347,245.33,9.347z"/>
        <path fill="#67676E" d="M285.625,26.159c12.653,0,17.331,5.2,17.331,16.119v29.638c0,0-1.213,0.693-4.245,0.693
            c-2.687,0-4.42-0.693-4.42-0.693l-1.646-4.68c-1.993,4.072-6.412,6.239-12.652,6.239c-8.232,0-13.433-4.853-13.433-14.991
            c0-9.793,6.153-13.779,16.899-13.779c3.032,0,6.065,0.173,8.579,0.433V43.23c0-4.333-1.56-7.886-7.799-7.886
            c-5.72,0-11.094,2.08-11.094,2.08s-1.386-0.867-2.426-3.207s-0.693-4.592-0.693-4.592S276.439,26.159,285.625,26.159z
             M284.845,51.983c-4.419,0-7.02,1.819-7.02,6.5c0,4.938,2.34,6.672,6.24,6.672c6.066,0,7.973-5.633,7.973-10.226v-2.6
            C289.871,52.157,287.358,51.983,284.845,51.983z"/>
        <path fill="#67676E" d="M325.142,71.915c0,0-1.906,0.693-5.459,0.693c-3.813,0-5.46-0.693-5.46-0.693V8.307
            c0,0,1.646-0.693,5.46-0.693c3.553,0,5.459,0.693,5.459,0.693V71.915z"/>
        <path fill="#3FA852" d="M187.468,88.734c3.705,0,6.051,0.864,6.051,0.864c0,0.896-0.278,1.852-0.864,2.47
            c0,0-2.099-0.679-4.755-0.679c-3.272,0-4.847,1.266-4.847,3.519c0,2.378,2.655,2.934,5.526,3.859
            c2.871,0.988,5.773,2.316,5.773,6.361c0,4.136-2.687,6.452-7.749,6.452c-4.075,0-6.669-1.297-6.669-1.297
            c-0.031-0.834,0.277-1.791,0.74-2.501c0,0,2.902,0.957,5.774,0.957c3.18,0,4.692-1.203,4.692-3.52c0-2.192-1.76-2.964-3.89-3.643
            c-3.211-1.081-7.317-1.854-7.317-6.515C179.935,91.266,182.436,88.734,187.468,88.734z"/>
        <path fill="#3FA852" d="M201.237,91.914c0,0-0.556,0.216-1.605,0.216c-1.111,0-1.605-0.216-1.605-0.216v-2.903
            c0,0,0.494-0.215,1.605-0.215c1.05,0,1.605,0.215,1.605,0.215V91.914z M201.175,111.056c0,0-0.524,0.217-1.543,0.217
            c-1.08,0-1.544-0.217-1.544-0.217V95.249c0,0,0.464-0.217,1.544-0.217c1.019,0,1.543,0.217,1.543,0.217V111.056z"/>
        <path fill="#3FA852" d="M218.28,111.056c0,0-0.525,0.217-1.544,0.217c-1.05,0-1.544-0.217-1.544-0.217V99.941
            c0-1.729-0.896-2.718-2.872-2.718c-1.357,0-2.686,0.741-3.488,1.977v11.855c0,0-0.556,0.217-1.544,0.217
            c-1.08,0-1.544-0.217-1.544-0.217V95.249c0,0,0.464-0.217,1.544-0.217c0.988,0,1.544,0.217,1.544,0.217v1.42
            c1.111-1.266,2.717-1.946,4.662-1.946c3.088,0,4.786,1.884,4.786,4.663V111.056z"/>
        <path fill="#3FA852" d="M225.164,103.152c0,4.045,1.298,5.805,4.262,5.805c1.698,0,2.901-0.525,2.901-0.525
            c0.525,0.464,0.864,1.358,0.896,2.224c0,0-1.358,0.926-4.445,0.926c-4.509,0-6.793-2.934-6.793-8.429s2.284-8.43,6.793-8.43
            c2.964,0,4.138,0.772,4.138,0.772c0,0.833-0.341,1.698-0.896,2.224c0,0-1.081-0.464-2.718-0.464
            C226.338,97.255,225.164,99.139,225.164,103.152z"/>
        <path fill="#3FA852" d="M238.595,104.109c0.247,3.674,1.729,4.848,4.292,4.848c2.191,0,3.643-0.896,3.643-0.896
            c0.557,0.493,0.957,1.327,0.988,2.223c0,0-1.76,1.297-5.126,1.297c-4.754,0-6.977-2.934-6.977-8.521
            c0-5.836,2.748-8.337,6.854-8.337c3.797,0,6.112,2.101,6.112,6.207c0,1.944-0.339,3.18-0.339,3.18H238.595z M242.27,97.162
            c-2.008,0-3.428,1.328-3.675,4.756h6.607c0.03-0.247,0.093-0.742,0.093-1.391C245.295,98.707,244.554,97.162,242.27,97.162z"/>
        <path fill="#3FA852" d="M258.971,91.08c0,0,2.408-1.111,5.712-1.111c3.736,0,6.731,1.574,6.731,5.649
            c0,3.86-2.223,5.219-5.897,7.441c-1.822,1.143-4.354,2.223-4.354,4.755c0,0.309,0.03,0.556,0.062,0.679h9.634
            c0.216,0.34,0.309,0.834,0.309,1.39c0,0.525-0.124,1.019-0.309,1.39h-12.505c0,0-0.186-0.988-0.186-2.068
            c0-4.817,3.118-6.546,5.96-8.398c2.777-1.853,4.105-2.779,4.105-5.095c0-1.883-1.235-3.18-4.044-3.18
            c-2.254,0-4.354,0.771-4.354,0.771C259.188,92.778,258.848,92.007,258.971,91.08z"/>
        <path fill="#3FA852" d="M274.964,100.775c0-7.596,2.747-10.807,7.656-10.807s7.72,3.118,7.72,10.807
            c0,7.687-2.811,10.806-7.72,10.806S274.964,108.462,274.964,100.775z M278.236,100.775c0,6.391,1.544,8.182,4.384,8.182
            c2.903,0,4.385-1.791,4.385-8.182c0-6.422-1.481-8.183-4.385-8.183C279.78,92.593,278.236,94.354,278.236,100.775z"/>
        <path fill="#3FA852" d="M294.045,100.775c0-7.596,2.747-10.807,7.656-10.807s7.72,3.118,7.72,10.807
            c0,7.687-2.811,10.806-7.72,10.806S294.045,108.462,294.045,100.775z M297.317,100.775c0,6.391,1.544,8.182,4.384,8.182
            c2.903,0,4.385-1.791,4.385-8.182c0-6.422-1.481-8.183-4.385-8.183C298.861,92.593,297.317,94.354,297.317,100.775z"/>
        <path fill="#3FA852" d="M313.557,91.08c0,0,2.408-1.111,5.712-1.111c3.736,0,6.731,1.574,6.731,5.649
            c0,3.86-2.223,5.219-5.897,7.441c-1.822,1.143-4.354,2.223-4.354,4.755c0,0.309,0.03,0.556,0.062,0.679h9.634
            c0.216,0.34,0.309,0.834,0.309,1.39c0,0.525-0.124,1.019-0.309,1.39h-12.505c0,0-0.186-0.988-0.186-2.068
            c0-4.817,3.118-6.546,5.959-8.398c2.778-1.853,4.106-2.779,4.106-5.095c0-1.883-1.235-3.18-4.044-3.18
            c-2.254,0-4.354,0.771-4.354,0.771C313.773,92.778,313.434,92.007,313.557,91.08z"/>
    </symbol>


    <symbol id="home-cta-a" viewBox="0 0 75 75">

        <g id="home-cta-a-pattern">
            <path d="M56.7,20.4c0.7-1.2,1.6-2.4,2.5-3.5c0.5-0.6,0.9-1.1,1.4-1.7l0.7-0.8l0.4-0.4c0.1-0.2,0.2-0.3,0.4-0.4
                c0.3-0.3,0.5-0.7,0.7-1.1c0.2-0.4,0.4-0.9,0.4-1.4c0-0.5-0.1-1-0.3-1.4c-0.2-0.4-0.5-0.8-0.8-1.1l-0.2-0.2l-0.2-0.2l-0.4-0.4
                l-0.8-0.8c-0.5-0.5-1-1.1-1.5-1.6L59,5.2l-0.1-0.1l-2-1.1l-2.1-1l-3.5-1.7l2.5,3l1.6,2l1.6,2l0,0.1l0,0c0,0,0,0,0,0l0,0l0.1,0.1
                l0.2,0.3c0.1,0.1,0.1,0.2,0.2,0.2l0.1,0.2c0.1,0.2,0.2,0.3,0.3,0.5c0.1,0.2,0.2,0.3,0.2,0.5c0.1,0.3,0.2,0.7,0.2,1
                c0,0.3,0,0.6-0.2,0.9c-0.2,0.6-0.7,1.2-1.3,1.8c-0.1,0.1-0.3,0.3-0.4,0.4l-0.5,0.4L55,15.6c-0.3,0.3-0.6,0.6-0.9,0.9l-0.9,0.9
                l-0.9,0.9l-0.2,0.3c0,0-0.1,0.1-0.1,0.1l-0.1,0.2c-0.2,0.2-0.3,0.4-0.4,0.7c-0.2,0.5-0.4,1-0.4,1.6c0,0.6,0.2,1.1,0.4,1.6
                c0.1,0.1,0.1,0.2,0.2,0.3c0.1,0.1,0.1,0.2,0.2,0.3c0.1,0.1,0.1,0.2,0.2,0.3l0.2,0.3l0.7,1l1.5,2.1l0.7,1l0.7,1.1l1.4,2.1l0.7,1.1
                l0.1,0.1l0,0.1l0,0.1c0,0.1,0,0.1,0.1,0.1l0.1,0.1c0.1,0.2,0.1,0.3,0.2,0.5c0,0.2,0.1,0.3,0.1,0.5c0,0,0,0.1,0,0.1c0,0,0,0,0,0
                c0,0,0,0,0,0c0,0,0,0,0,0c0,0,0,0,0,0L58.3,34l-0.7,1.1l-0.7,1.1l-0.7,1.1l-0.7,1.1l-0.7,1l-0.7,1c-0.2,0.3-0.5,0.7-0.8,1l-0.8,1
                c-0.1,0.2-0.3,0.3-0.4,0.5c-0.1,0.2-0.3,0.4-0.4,0.6c-0.1,0.2-0.3,0.4-0.3,0.7c-0.1,0.3-0.1,0.6,0,0.8c0.1,0.6,0.4,0.9,0.7,1.3
                l0.8,1l0.4,0.5l0.2,0.3l0.2,0.3c0.5,0.7,1,1.4,1.4,2.1l0.7,1.1l0.7,1.1l0.3,0.5c0.1,0.2,0.2,0.4,0.3,0.5c0.2,0.4,0.4,0.7,0.5,1.1
                c0.1,0.4,0.2,0.8,0.3,1.2c0,0.4,0,0.8,0,1.2c-0.1,0.8-0.4,1.6-0.9,2.3l-2.8,4.3c-0.2,0.4-0.5,0.7-0.7,1.1l-0.8,1
                c-0.2,0.3-0.5,0.7-0.7,1.1c-0.2,0.4-0.3,0.8-0.2,1.3c0.1,0.4,0.3,0.8,0.6,1.1l0.8,1l1.6,2l0,0l0,0l1.7-0.8l0,0l0,0l-0.5-0.6
                c-0.1-0.1-0.2-0.2-0.2-0.3c-0.1-0.1-0.2-0.2-0.2-0.3c-0.1-0.2-0.3-0.4-0.4-0.7c0-0.1-0.1-0.2-0.1-0.4c0-0.1-0.1-0.2-0.1-0.4
                c0-0.1-0.1-0.3-0.1-0.4c0-0.1,0-0.3,0-0.4c0-0.1,0-0.3,0-0.4c0-0.1,0-0.3,0.1-0.4c0-0.1,0.1-0.3,0.1-0.4c0-0.1,0.1-0.2,0.1-0.4
                c0-0.1,0.1-0.2,0.2-0.4c0.1-0.1,0.1-0.2,0.2-0.3c-0.1,0.1-0.1,0.2-0.2,0.3c0.1-0.1,0.1-0.2,0.2-0.3l1.2-1.9l1.2-1.9
                c0.4-0.6,0.8-1.2,1.2-1.8c0.4-0.6,0.9-1.2,1.3-1.8c0.2-0.3,0.5-0.6,0.6-0.9c0.2-0.3,0.3-0.7,0.4-1c0.1-0.4,0.1-0.8-0.1-1.1
                c-0.1-0.4-0.3-0.7-0.5-1c-0.2-0.3-0.4-0.6-0.6-0.9l-0.7-0.9c-0.4-0.6-0.8-1.2-1.3-1.8c-0.4-0.6-0.8-1.2-1.2-1.9
                c-0.4-0.6-0.8-1.3-1.1-1.9c-0.2-0.3-0.3-0.7-0.3-1c-0.1-0.3-0.1-0.7,0-1c0-0.2,0.1-0.3,0.2-0.5l0.3-0.5l0.6-0.9
                c0.4-0.6,0.8-1.2,1.2-1.8c0.1-0.2,0.2-0.3,0.3-0.5l0.3-0.4l0.7-0.9c0.1-0.1,0.2-0.3,0.3-0.4l0.4-0.4l0.7-0.8l0.4-0.4
                c0.1-0.1,0.2-0.3,0.4-0.4c0.2-0.3,0.5-0.6,0.7-1c0.4-0.7,0.6-1.5,0.5-2.3c0-0.4-0.2-0.8-0.4-1.2c-0.1-0.2-0.2-0.4-0.3-0.5
                c-0.1-0.2-0.2-0.3-0.3-0.5c-0.9-1.2-1.8-2.3-2.7-3.5c-0.9-1.2-1.7-2.4-2.2-3.7c-0.3-0.6-0.5-1.3-0.5-2l0-0.2l0-0.2
                c0-0.1,0-0.1,0-0.2c0,0,0,0,0-0.1c0,0,0,0,0,0l0-0.1L56.7,20.4z M54.9,66.7C54.9,66.7,54.9,66.7,54.9,66.7
                C54.9,66.7,54.9,66.7,54.9,66.7z M55,66.4C55,66.3,55,66.3,55,66.4C55,66.3,55,66.3,55,66.4z"/>
            <path d="M22.9,20.2l1-1.7l2.1-3.4l0.5-0.8c0.2-0.3,0.4-0.6,0.5-0.9c0.1-0.2,0.2-0.3,0.2-0.5c0.1-0.2,0.1-0.3,0.2-0.5
                c0.1-0.4,0.2-0.8,0.2-1.3c0-0.5-0.2-0.9-0.4-1.2c-0.2-0.3-0.4-0.7-0.6-0.9c-0.4-0.6-0.8-1.1-1.3-1.6c-0.4-0.5-0.9-1-1.3-1.5
                c-0.2-0.3-0.4-0.5-0.6-0.7L23,4.3l-0.4-0.6L22,4.1L20.3,5l-0.8,0.4L20,6.1L21.3,8l0.6,0.9c0.1,0.2,0.2,0.3,0.3,0.5
                c0.1,0.1,0.2,0.3,0.2,0.4c0.6,1.2,0.8,2.4,0.4,3.6c-0.2,0.6-0.6,1.2-1,1.7L21.2,16l-0.3,0.4l-0.3,0.5c-0.2,0.3-0.4,0.6-0.7,0.9
                l-0.6,1c-0.2,0.3-0.4,0.7-0.6,1l-0.3,0.5l-0.1,0.1l0,0.1l0,0c0,0,0,0,0,0.1l0,0l-0.1,0.3c-0.1,0.2-0.2,0.5-0.2,0.7l-0.1,0.3
                c0,0.1,0,0.2,0,0.3c0,0.4,0,0.9,0.1,1.3l0.1,0.3c0,0.1,0.1,0.2,0.1,0.4l0,0.1l0,0c0,0,0,0.1,0,0l0,0l0.1,0.1l0.1,0.2l0.5,1l0.3,0.5
                l0.3,0.5l0.6,1l1.1,1.9l0.3,0.5l0.3,0.5l0.5,1l0.1,0.2l0.1,0.1l0,0c0,0,0,0,0,0l0,0.1c0.1,0.2,0.2,0.3,0.2,0.5l0.1,0.2l0.1,0.2
                c0.1,0.2,0.1,0.3,0.1,0.5c0,0.2,0,0.3,0.1,0.5c0,0.2,0,0.3,0,0.5c0,0.1,0,0.3-0.1,0.4c0,0.1,0,0.1-0.1,0.2l-0.1,0.3
                c-0.1,0.4-0.3,0.7-0.5,1c-0.2,0.3-0.3,0.6-0.5,0.9c-0.7,1.2-1.6,2.4-2.5,3.7c-0.4,0.7-0.8,1.4-1.1,2.1c-0.3,0.8-0.4,1.6-0.3,2.5
                c0.1,0.8,0.4,1.6,0.8,2.3c0.4,0.7,0.9,1.3,1.3,1.9l0.7,0.9l0.6,0.9l1.2,1.9c0.1,0.1,0.2,0.3,0.3,0.5c0.1,0.2,0.2,0.3,0.2,0.5
                c0.2,0.3,0.3,0.6,0.3,1c0.2,0.7,0.1,1.4-0.1,2c-0.1,0.3-0.3,0.6-0.4,1c-0.1,0.1-0.2,0.3-0.3,0.4l-0.3,0.4l-1.4,1.8l-1.3,1.8
                c-0.4,0.6-0.9,1.2-1.2,1.9c-0.2,0.3-0.3,0.7-0.4,1.1c-0.1,0.4-0.1,0.8-0.1,1.1c0,0.8,0.3,1.5,0.6,2.2l0,0l0,0l2.1,1.3l2.2,1.1
                l0.2,0.1l-0.1-0.2l-0.5-0.6c-0.1-0.2-0.3-0.4-0.4-0.6c-0.1-0.2-0.3-0.4-0.4-0.7l-0.2-0.3L21.2,69l-0.1-0.2L21,68.4L20.9,68
                c0-0.1,0-0.1,0-0.2l0-0.2c0-0.1,0-0.3,0-0.4c0-0.3,0-0.5,0.1-0.8l0.1-0.4l0.1-0.4c0.1-0.2,0.2-0.5,0.3-0.7c0.1-0.2,0.2-0.5,0.3-0.7
                c0.1-0.2,0.2-0.5,0.3-0.7c0.1-0.2,0.2-0.5,0.4-0.7c0.5-0.9,1-1.8,1.5-2.7c0.3-0.6,0.7-1.1,1-1.7c0.3-0.6,0.7-1.2,0.9-1.8
                c0.3-0.6,0.5-1.3,0.4-1.9c-0.1-0.7-0.4-1.3-0.8-1.8c-0.8-1.1-1.7-2-2.6-3c-0.9-1-1.6-2.1-1.8-3.4c-0.1-0.6-0.1-1.3,0-1.9
                c0.1-0.6,0.4-1.3,0.7-1.8c0.1-0.3,0.3-0.6,0.5-0.9l0.5-0.9c0.3-0.6,0.7-1.1,1-1.7l1.1-1.6l0.5-0.8l0.3-0.4c0.1-0.1,0.2-0.3,0.3-0.4
                c0.3-0.6,0.6-1.2,0.7-2c0-0.4,0-0.7,0-1.1c-0.1-0.4-0.2-0.7-0.3-1c-0.3-0.6-0.6-1.2-1-1.8l-1.2-1.6l-1.2-1.6L23,27l0,0l0-0.1
                l-0.1-0.2l-0.1-0.2l-0.1-0.2l-0.1-0.2l-0.1-0.2c-0.1-0.1-0.1-0.3-0.2-0.4c-0.4-1.2-0.4-2.4-0.1-3.6C22.3,21.3,22.5,20.8,22.9,20.2z
                "/>
            <path d="M49.5,30.8L48,28.9c-0.2-0.3-0.5-0.6-0.7-0.9l-0.7-1c-0.2-0.3-0.5-0.6-0.7-1c-0.2-0.3-0.4-0.7-0.6-1
                c-0.1-0.2-0.2-0.4-0.3-0.5c-0.1-0.2-0.2-0.3-0.2-0.5c-0.1-0.2-0.1-0.3-0.2-0.5c0-0.2-0.1-0.3-0.1-0.5c0-0.3,0-0.7,0.1-1
                c0.1-0.3,0.2-0.7,0.4-1c0.2-0.3,0.4-0.6,0.6-0.9l0.8-0.9l1.5-1.8c0.5-0.6,1-1.3,1.5-1.9l0.7-0.9l0-0.1l0.1-0.1l0.1-0.1l0.1-0.1
                l0.1-0.1c0.1-0.1,0.1-0.2,0.2-0.3c0.1-0.1,0.1-0.2,0.2-0.3c0.2-0.4,0.3-0.9,0.3-1.4c0-0.5-0.1-1-0.3-1.4c-0.2-0.4-0.4-0.8-0.7-1.2
                l-0.7-1l-0.7-1l-0.7-1c-0.5-0.6-0.9-1.3-1.3-2c-0.4-0.7-0.8-1.3-1.3-2L45.1,2c-0.1-0.2-0.2-0.3-0.3-0.5l-0.2-0.3l-0.2-0.3
                c-0.1-0.1-0.2-0.2-0.3-0.3C44.1,0.5,44,0.5,44,0.4c-0.1,0-0.1-0.1-0.2-0.1c-0.3-0.2-0.7-0.3-1-0.3c-0.3,0-0.6,0.1-0.8,0.1
                c-0.5,0.1-0.8,0.3-1.2,0.5l-1,0.4l0.7,0.9l2.9,3.8c0.5,0.6,1,1.3,1.4,1.9l0.7,0.9L45.7,9L46,9.5c0.3,0.6,0.5,1.3,0.5,2
                c0,0.7-0.1,1.3-0.4,2c-0.3,0.6-0.7,1.3-1.1,1.8l-1.5,1.8c-0.5,0.6-1,1.2-1.6,1.8l-0.8,0.9L40.9,20l-0.2,0.2
                c-0.2,0.2-0.3,0.4-0.4,0.6c-0.3,0.4-0.5,0.9-0.5,1.5c0,0.3,0,0.6,0,0.9c0.1,0.3,0.2,0.5,0.3,0.8c0.2,0.5,0.6,0.9,0.9,1.1l0.8,0.9
                c0.5,0.6,1.1,1.2,1.6,1.8l0.8,0.9c0.3,0.3,0.5,0.6,0.7,0.9c0.5,0.6,0.9,1.2,1.3,1.9c0.2,0.3,0.3,0.7,0.4,1c0,0.1,0,0.1,0.1,0.2
                c0,0.1,0,0.1,0,0.2c0,0.1,0,0.1,0,0.1c0,0,0,0-0.1,0.1l-1,2.2l-1.1,2.1c-0.4,0.7-0.8,1.4-1.2,2c-0.2,0.3-0.4,0.7-0.7,1l-0.7,1
                l-0.3,0.5c-0.1,0.2-0.2,0.3-0.4,0.5c-0.2,0.4-0.5,0.7-0.7,1.1c-0.2,0.4-0.4,0.8-0.5,1.3c-0.1,0.5,0,1,0.1,1.4
                c0.2,0.5,0.4,0.8,0.7,1.2c0.1,0.2,0.3,0.3,0.4,0.5c0.1,0.2,0.3,0.3,0.5,0.4c0.3,0.3,0.6,0.5,0.9,0.8l0.4,0.4l0.2,0.2l0.2,0.2
                c0.1,0.2,0.2,0.3,0.4,0.5l0.3,0.5c0.1,0.2,0.2,0.3,0.3,0.5c0.1,0.2,0.2,0.3,0.3,0.5c0.3,0.7,0.6,1.4,0.7,2.2
                c0.1,0.8,0.1,1.5,0.1,2.3c-0.1,0.4-0.1,0.8-0.2,1.1c-0.1,0.2-0.1,0.4-0.2,0.6l-0.2,0.6c-0.1,0.2-0.1,0.4-0.2,0.5
                c-0.1,0.2-0.2,0.4-0.2,0.5l-0.3,0.5c0,0.1-0.1,0.2-0.1,0.3l-0.2,0.3l-1.3,2l-0.7,1l-0.7,1l-1.4,2l-0.1,0.1l0.1,0.1
                c1,1.3,1.9,2.7,2.8,4l2.8,4.1l0,0l0,0l2-0.4l0.1,0l0-0.1l-1-1.3L46,72.5c-0.2-0.2-0.3-0.4-0.5-0.7l-1-1.3c-0.2-0.2-0.3-0.5-0.5-0.7
                c-0.1-0.2-0.3-0.5-0.4-0.7c-0.1-0.1-0.1-0.2-0.2-0.4l-0.2-0.4L43.1,68c0-0.1-0.1-0.3-0.1-0.4c-0.1-0.3-0.1-0.5-0.1-0.8
                c0-0.3,0-0.6,0.1-0.8c0-0.1,0.1-0.3,0.1-0.4c0-0.1,0.1-0.3,0.1-0.4c0.1-0.3,0.2-0.5,0.4-0.8c0.1-0.2,0.3-0.5,0.4-0.7
                c0.1-0.2,0.3-0.5,0.5-0.7c0,0,0,0,0,0c0,0,0,0,0,0c0,0,0,0,0,0l0,0l1.4-1.9l0.7-1l0.7-0.9l1.5-1.9c0.3-0.3,0.5-0.6,0.6-1
                c0.1-0.2,0.1-0.4,0.1-0.6c0-0.2,0-0.4-0.1-0.6c-0.2-0.8-0.8-1.4-1.3-2c-0.5-0.6-1-1.2-1.5-1.9c-0.5-0.6-0.9-1.3-1.2-2
                c-0.2-0.4-0.3-0.7-0.5-1.1c-0.2-0.4-0.3-0.7-0.5-1.1c-0.2-0.4-0.4-0.7-0.5-1.1c-0.2-0.4-0.3-0.7-0.4-1.1c0-0.2,0-0.4,0-0.6
                c0-0.2,0.1-0.4,0.1-0.5c0.1-0.4,0.3-0.7,0.6-1c0.5-0.6,1-1.2,1.6-1.8c0.3-0.3,0.5-0.6,0.8-0.9l0.4-0.4l0.4-0.4
                c0.3-0.3,0.6-0.5,0.9-0.8L49,38l0.4-0.4c0.3-0.3,0.6-0.6,0.8-1c0.2-0.3,0.4-0.7,0.6-1.1c0.1-0.4,0.2-0.8,0.2-1.3
                c0-0.4-0.1-0.9-0.2-1.3C50.5,32.1,50,31.4,49.5,30.8z M43.3,64.9C43.3,64.9,43.3,64.9,43.3,64.9C43.3,64.9,43.3,64.9,43.3,64.9z
                 M44.1,63.5c0-0.1,0.1-0.1,0.1-0.2C44.2,63.4,44.1,63.5,44.1,63.5z M47.4,59.1L47,59.6c0.4-0.6,0.9-1.2,1.4-1.7L47.4,59.1z"/>
            <path d="M40.2,57.1c0.1-0.1,0.2-0.2,0.3-0.3c0.2-0.2,0.3-0.6,0.4-1c0-0.2,0-0.4,0-0.6c0-0.1-0.1-0.2-0.1-0.3c0-0.1-0.1-0.2-0.1-0.2
                c-0.2-0.3-0.4-0.5-0.6-0.7c-0.1-0.1-0.2-0.2-0.3-0.3l-0.3-0.2l-1-0.9c-0.7-0.6-1.3-1.2-1.9-1.8c-0.3-0.3-0.6-0.6-0.9-1l-0.4-0.5
                L34.9,49l-0.1-0.1l-0.1-0.1l-0.2-0.3l-0.2-0.2c-0.1-0.2-0.2-0.3-0.3-0.5c-0.2-0.4-0.4-0.7-0.5-1.1c-0.1-0.2-0.1-0.4-0.2-0.6
                c0-0.2-0.1-0.4-0.1-0.6c0-0.4,0-0.8,0-1.2c0-0.4,0.2-0.8,0.3-1.2c0.2-0.4,0.3-0.8,0.5-1.1c0.5-0.8,0.9-1.6,1.4-2.3
                c0.2-0.4,0.5-0.8,0.7-1.1l0.8-1.1c0.3-0.4,0.5-0.7,0.8-1.1l0.8-1.1c0.1-0.1,0.1-0.2,0.2-0.3c0.1-0.1,0.1-0.2,0.2-0.3
                c0.1-0.2,0.2-0.5,0.3-0.7c0.1-0.3,0.1-0.5,0.1-0.8c0-0.3-0.1-0.6-0.2-0.8c-0.1-0.2-0.3-0.5-0.4-0.6c-0.1-0.1-0.2-0.2-0.2-0.3
                l-0.2-0.3l-0.9-1c-0.3-0.3-0.6-0.7-0.9-1c-0.3-0.3-0.6-0.7-0.9-1l-0.9-1.1L34,25.6l-0.2-0.3l-0.1-0.1c0,0,0,0,0-0.1l-0.1-0.1
                l-0.2-0.3l-0.2-0.3c-0.1-0.2-0.2-0.4-0.3-0.6c-0.1-0.2-0.2-0.4-0.2-0.6c-0.1-0.4-0.2-0.8-0.2-1.3c0-0.4,0.1-0.9,0.2-1.3
                c0.3-0.8,0.8-1.6,1.3-2.3c0.6-0.7,1.2-1.3,1.9-2c0.6-0.7,1.3-1.3,1.9-1.9l1-1c0.3-0.3,0.7-0.7,0.9-1.1c0.1-0.2,0.2-0.5,0.2-0.7
                c0-0.2,0-0.5-0.1-0.7c-0.2-0.4-0.4-0.8-0.7-1.2c-1.2-1.4-2.4-2.7-3.5-4.2c-0.6-0.7-1.1-1.5-1.6-2.2l-0.7-1.2
                c-0.2-0.4-0.5-0.8-0.9-1l0,0l0,0l-0.6,0.1c-0.5,0.1-1.1,0.2-1.6,0.4l-0.4,0.1l0,0l0,0c0.2,0.2,0.5,0.4,0.7,0.6
                c0.1,0.1,0.2,0.2,0.3,0.3C30.9,3,31,3.1,31.1,3.3C31,3.1,30.9,3,30.8,2.9C30.9,3,31,3.1,31.1,3.3c1.1,1.4,2.3,2.7,3.3,4.2
                c0.3,0.4,0.5,0.7,0.7,1.1c0.1,0.2,0.2,0.4,0.4,0.6l0.1,0.3c0,0.1,0.1,0.2,0.1,0.3c0.1,0.4,0.1,0.9,0.1,1.3c0,0.2-0.1,0.4-0.1,0.7
                c-0.1,0.2-0.1,0.4-0.2,0.6l-0.1,0.1l-0.1,0.1l-0.2,0.3l-0.4,0.6c-0.2,0.4-0.5,0.7-0.7,1.1l-0.8,1.1c-0.3,0.4-0.5,0.7-0.8,1.1
                l-0.8,1c-0.1,0.2-0.3,0.4-0.4,0.5l-0.4,0.5l-0.9,1c-0.3,0.3-0.6,0.6-0.9,1c-0.3,0.4-0.5,0.8-0.5,1.3c0,0.5,0.1,1,0.4,1.3
                c0.2,0.4,0.6,0.7,0.8,1.1l0.9,1c0.6,0.7,1.2,1.3,1.8,2l1.7,2.1c0.3,0.3,0.6,0.7,0.8,1c0.3,0.3,0.4,0.7,0.6,1.1
                c0.3,0.8,0.2,1.6-0.2,2.4c-0.2,0.4-0.4,0.7-0.6,1.1l-0.8,1.1l-1.5,2.2l-1.5,2.2L30,41.7l-0.4,0.5c-0.1,0.2-0.3,0.4-0.4,0.6
                c-0.2,0.4-0.5,0.8-0.6,1.3c0,0.1-0.1,0.3-0.1,0.4c0,0.1,0,0.3,0,0.4l0,0.2c0,0.1,0,0.1,0,0.2l0,0.2l0.1,0.2
                c0.2,0.5,0.5,0.9,0.8,1.3c0.3,0.4,0.6,0.7,0.9,1l0.2,0.2l0.2,0.2l0.4,0.5c0.3,0.3,0.5,0.7,0.8,1c0.5,0.7,1,1.5,1.4,2.2l0.7,1.1
                c0.1,0.2,0.2,0.4,0.4,0.6l0.4,0.5c0.4,0.7,0.6,1.3,0.5,2c-0.1,0.3-0.2,0.6-0.4,0.9c0,0.1-0.1,0.2-0.2,0.2L34.5,58l-0.4,0.5l-1.8,2
                l-3.6,4c-0.3,0.3-0.6,0.7-0.9,1.1c-0.1,0.2-0.3,0.4-0.4,0.7c-0.1,0.1-0.1,0.3-0.2,0.4c0,0.1-0.1,0.2-0.1,0.3c0,0.1,0,0.2,0,0.3
                c0,0.1,0,0.2,0,0.4l0,0.1c0,0,0,0,0,0.1l0,0l0,0.1l0.1,0.3c0.1,0.2,0.1,0.4,0.2,0.7l0.3,0.7l0.4,0.6c0.5,0.8,1.1,1.6,1.9,2.2
                c0.4,0.3,0.8,0.6,1.2,0.9c0.1,0.1,0.2,0.1,0.3,0.2l0.3,0.2l0.6,0.3l1.8,1l-0.6-2c-0.1-0.4-0.2-0.8-0.4-1.3
                c-0.1-0.4-0.2-0.9-0.4-1.4c0-0.1-0.1-0.2-0.1-0.4l-0.2-0.4c-0.1-0.1-0.1-0.3-0.2-0.4c0-0.1-0.1-0.2-0.2-0.3c0,0-0.1-0.1-0.1-0.1
                l-0.1-0.1c0-0.1-0.1-0.2-0.1-0.2c0-0.1-0.1-0.2-0.1-0.3C32,68,32,68,32,67.9c-0.2-0.7-0.1-1.3,0.4-1.9l0.2-0.2l0.2-0.2l0.4-0.5
                l0.9-1l3.7-4.1l1.8-2l0.5-0.5C40,57.3,40.1,57.2,40.2,57.1z M30,2.2C30.1,2.3,30.1,2.3,30,2.2C30.1,2.3,30.1,2.3,30,2.2z"/>
            <path d="M16.1,10.3C16.1,10.1,16,9.9,16,9.8l-0.2-0.5l-0.5-0.9l-0.8,0.7c-0.4,0.4-0.8,0.7-1.2,1.1L12,11.4l-0.2,0.2l0,0.3
                c-0.2,1-0.8,1.9-1.5,2.8L9.2,16c-0.4,0.5-0.8,1-1.1,1.5C7.7,18,7.3,18.5,7,19c-0.4,0.5-0.7,1-1,1.5l-0.3,0.4l-0.1,0.2l-0.1,0.1l0,0
                c0,0,0-0.1-0.1,0.1l0,0l0,0.1l-0.1,0.1c0,0,0,0,0,0.1l0,0.1c0,0.1,0,0.1-0.1,0.2c0,0.1,0,0.1,0,0.2l0,0.3c0,0.1,0,0.2,0,0.3
                c0,0.4,0,0.8,0.2,1.2c0.1,0.1,0.1,0.2,0.2,0.4l0.1,0.2l0.3,0.4c0.7,1,1.4,2,2.1,3c0.7,1,1.4,2,2.1,3l0.5,0.7l0.3,0.4
                c0.1,0.1,0.2,0.3,0.2,0.4c0.3,0.4,0.6,0.9,0.7,1.4c0.1,0.5,0.1,0.9,0,1.4c-0.1,0.5-0.4,1-0.7,1.4c-0.1,0.1-0.2,0.2-0.3,0.3
                l-0.3,0.4L10,38l-1.1,1.4l-2.3,2.8l-0.3,0.3c-0.1,0.1-0.2,0.3-0.3,0.4c-0.2,0.3-0.4,0.5-0.5,0.8c-0.1,0.3-0.3,0.7-0.3,1.1
                c0,0.4,0.1,0.7,0.3,1.1c0.3,0.6,0.7,1.1,1.1,1.6l1.2,1.4l2.4,2.8l1.2,1.4l0.3,0.3c0.1,0.1,0.2,0.2,0.3,0.3c0.2,0.2,0.3,0.5,0.5,0.7
                c0.1,0.3,0.2,0.5,0.2,0.8c0,0.3,0,0.6,0,0.9c-0.1,0.6-0.4,1.1-0.7,1.6l-2.1,3l0,0l0,0l1.1,1.3l0,0l0,0c0.5-0.6,1-1.3,1.5-1.9
                c0.2-0.3,0.5-0.6,0.8-1c0.3-0.3,0.5-0.6,0.8-0.9l0.8-0.9c0.1-0.2,0.3-0.3,0.4-0.5c0.1-0.2,0.2-0.3,0.3-0.5c0.1-0.2,0.1-0.4,0.1-0.6
                c0-0.2,0-0.4-0.1-0.6c0,0,0-0.1-0.1-0.1c0,0,0,0,0-0.1c0,0,0-0.1-0.1-0.1c0,0,0-0.1-0.1-0.1c0,0,0,0,0-0.1c0,0,0,0,0,0
                c0-0.1-0.1-0.1-0.1-0.2c0,0,0,0,0-0.1c-0.1-0.1-0.1-0.1-0.2-0.2c0,0,0,0,0,0c0,0,0,0,0,0c0,0,0,0,0,0c-0.6-0.6-1.1-1.3-1.7-1.9
                l1.7,1.9l-2.2-2.5c-0.7-0.9-1.4-1.7-2.1-2.6c-0.2-0.2-0.3-0.4-0.5-0.7c-0.2-0.2-0.3-0.5-0.4-0.7c-0.3-0.5-0.5-1-0.7-1.5
                c-0.2-0.5-0.2-1.1-0.2-1.6c0-0.5,0.2-1.1,0.4-1.6c0.5-1,1.1-1.9,1.9-2.7l2.3-2.4l1.1-1.2l0.3-0.3l0.3-0.3c0.1-0.1,0.2-0.2,0.3-0.3
                c0.1-0.1,0.2-0.2,0.2-0.4c0.3-0.5,0.6-1,0.6-1.7c0.1-0.6,0-1.2-0.3-1.8c-0.2-0.6-0.6-1-1-1.5c-0.2-0.2-0.4-0.4-0.6-0.6L14,29.5
                L14,29.4l0,0l0,0c0,0,0,0,0,0l0,0l-0.2-0.1L13.5,29c-0.1-0.1-0.2-0.2-0.3-0.2c0,0-0.1-0.1-0.1-0.1l-0.1-0.1
                c-0.2-0.2-0.4-0.4-0.6-0.6c-0.4-0.4-0.7-0.8-1.1-1.2C10.6,25.9,10,25,9.6,24c-0.3-1-0.4-2,0-2.9c0.3-0.9,0.9-1.8,1.6-2.6
                c0.2-0.2,0.3-0.4,0.5-0.6l0.1-0.1l0.1-0.1l0.1-0.1l0.3-0.3l0.5-0.6l0.5-0.7c0.4-0.5,0.7-0.9,1-1.4c0.2-0.2,0.3-0.4,0.5-0.6l0.3-0.3
                l0.3-0.4l0.1-0.2l0.1-0.1l0.1-0.1c0.1-0.2,0.2-0.3,0.3-0.5c0.1-0.2,0.1-0.3,0.2-0.5c0-0.2,0.1-0.4,0.1-0.6c0-0.2,0-0.4,0-0.6
                C16.2,10.6,16.2,10.4,16.1,10.3z"/>
            <path d="M73.6,33.3c-0.3-0.7-0.7-1.3-1.1-1.9l-1.2-1.8c-0.4-0.6-0.8-1.2-1.2-1.8l-1.2-1.8L68.3,25c-0.1-0.1-0.2-0.3-0.3-0.5
                c-0.1-0.2-0.2-0.3-0.2-0.5c-0.2-0.3-0.3-0.6-0.4-1c-0.1-0.3-0.2-0.6-0.2-1c0-0.6,0.2-1.2,0.5-1.8c0.3-0.6,0.8-1.1,1.3-1.7l1.4-1.7
                l0.3-0.4l-0.3-0.4l-1-1.4L69,14.1l-0.6,0.7l-2,2.8l-2,2.7L63.9,21l-0.3,0.4c-0.1,0.2-0.2,0.3-0.3,0.5c-0.2,0.3-0.3,0.7-0.3,1.1
                c0,0.4,0.1,0.8,0.2,1.2c0.1,0.4,0.3,0.7,0.5,0.9l0.5,0.7l1,1.4l2,2.8l2,2.8c0.1,0.1,0.2,0.2,0.2,0.3c0.1,0.1,0.1,0.2,0.2,0.3
                c0.1,0.1,0.1,0.2,0.2,0.3c0.1,0.1,0.1,0.2,0.1,0.3c0.1,0.2,0.1,0.4,0.1,0.6c0,0.2,0,0.4-0.1,0.6c-0.1,0.4-0.4,0.8-0.7,1.2
                c-0.2,0.2-0.4,0.4-0.5,0.6l-0.6,0.6c-0.4,0.4-0.8,0.8-1.1,1.3l-0.6,0.7c-0.2,0.2-0.4,0.4-0.6,0.7l-0.5,0.7L65,41.1l-0.3,0.3
                l-0.5,0.7L64,42.5l-0.1,0.2l0,0l0,0l0,0.1l-0.1,0.1c-0.2,0.4-0.3,0.7-0.4,1c-0.1,0.3-0.1,0.7-0.1,1c0,0.3,0,0.7,0.1,1
                c0.1,0.2,0.1,0.4,0.2,0.5l0,0l0,0l0,0l0.1,0.1l0.1,0.2c0.7,0.9,1.3,1.9,2,2.8l1,1.4l1.1,1.3l2.1,2.7l0.3,0.3
                c0.1,0.1,0.2,0.2,0.2,0.3c0.1,0.2,0.2,0.4,0.3,0.7c0.1,0.5,0.1,1-0.2,1.4c-0.1,0.2-0.3,0.4-0.5,0.6l-0.1,0.1L70,58.7
                c-0.1,0.1-0.2,0.2-0.3,0.4c-0.3,0.5-0.6,1-0.9,1.5L68.5,61l0.5-0.1l0.3-0.1l0.1,0l0-0.1l0.9-1.3l0.5-0.8c0.2-0.2,0.3-0.3,0.4-0.5
                c0.1-0.2,0.2-0.4,0.3-0.7l0.4-0.7l0.7-1.4l0,0l0,0l-0.3-0.6l-0.1-0.1l-0.1-0.1L72,54c-0.3-0.4-0.5-0.7-0.8-1.1
                c-0.3-0.4-0.5-0.7-0.8-1.1l-0.8-1.1l-0.4-0.6c-0.1-0.2-0.2-0.4-0.4-0.6l-0.7-1.1c-0.2-0.4-0.5-0.8-0.7-1.2l-0.7-1.2l0.7,1.2
                c0,0,0,0.1,0.1,0.1c-0.3-0.4-0.5-0.9-0.7-1.3c-0.2-0.3-0.2-0.7-0.2-1.1c0,0.4,0,0.7,0.2,1.1c-0.2-0.3-0.2-0.7-0.2-1.1
                c0-0.4,0.1-0.7,0.2-1.1c0.1-0.4,0.3-0.6,0.5-0.9l0.6-0.9c0.4-0.6,0.9-1.2,1.3-1.8c0.2-0.3,0.4-0.6,0.7-0.9c0.2-0.3,0.5-0.6,0.7-0.8
                c0.2-0.3,0.5-0.5,0.7-0.8l0.4-0.4c0.1-0.1,0.3-0.3,0.4-0.4c0.3-0.3,0.5-0.5,0.8-0.8c0.3-0.3,0.5-0.6,0.7-0.9
                c0.2-0.3,0.3-0.7,0.3-1.1C73.8,34,73.7,33.6,73.6,33.3z M66.9,43.6C66.9,43.6,66.9,43.7,66.9,43.6C66.9,43.7,66.9,43.6,66.9,43.6z
                 M66.7,44C66.7,44,66.7,44,66.7,44C66.7,44,66.7,44,66.7,44z M68.5,49.2c0,0-0.1-0.1-0.1-0.1L68.5,49.2z M66.5,45
                c0,0.1,0,0.1,0,0.2C66.5,45.1,66.5,45,66.5,45z M66.7,44.1c0,0.1-0.1,0.3-0.1,0.4C66.6,44.4,66.6,44.3,66.7,44.1z M66.6,44.6
                C66.6,44.7,66.6,44.7,66.6,44.6C66.6,44.7,66.6,44.7,66.6,44.6z"/>
            <path d="M3.7,33.3c0-0.1,0-0.2-0.1-0.4c0-0.1,0-0.2-0.1-0.3c0-0.1-0.1-0.2-0.1-0.3l-0.1-0.2L3.3,32c0,0,0,0,0,0c0,0,0,0,0,0
                c-0.2-0.3-0.4-0.5-0.6-0.8L2.6,31l0,0.1c-0.1,0.5-0.3,1-0.5,1.4l-0.3,0.7c-0.1,0.2-0.2,0.5-0.3,0.7c-0.1,0.2-0.1,0.5-0.2,0.7
                c0,0.1-0.1,0.2-0.1,0.4c0,0.1-0.1,0.3-0.1,0.4c-0.1,0.5-0.1,1-0.1,1.5l0.1,3l1.5-2.5c0.1-0.1,0.1-0.2,0.2-0.3
                C3,37.2,3,37.1,3.1,36.9l0.2-0.3l0.1-0.3c0.1-0.2,0.2-0.5,0.2-0.7l0,0l0,0l0,0l0,0l0,0l0,0l0,0l0-0.1l0-0.2c0-0.1,0-0.3,0.1-0.4
                c0-0.3,0-0.5,0-0.8C3.8,33.8,3.8,33.5,3.7,33.3z"/>
            <path d="M66.7,62.7l-0.8-0.6l-0.5,0.7c-0.1,0.2-0.2,0.4-0.4,0.6c-0.1,0.2-0.2,0.4-0.3,0.7c-0.1,0.2-0.2,0.5-0.2,0.7
                c-0.1,0.3-0.1,0.5-0.1,0.8v0v0v0c0.3,0,0.6-0.1,0.8-0.2c0.2-0.1,0.5-0.2,0.7-0.3c0.2-0.1,0.4-0.3,0.6-0.4c0.2-0.2,0.4-0.3,0.6-0.5
                l0.7-0.6L67.1,63C66.9,62.9,66.8,62.8,66.7,62.7z"/>
        </g>
    </symbol>


    <symbol id="home-cta-b" viewBox="0 0 75 75">
        <g>
            <path fill="#FFFFFF" d="M53.7,65.1c1.6-2.6,3.2-5.3,5-7.7c1.3-1.7,1.1-2.9-0.2-4.4c-1.6-2.1-3.1-4.4-4.5-6.7
                c-0.4-0.7-0.6-2-0.2-2.6c1.5-2.5,3.1-5.1,5.1-7.3c1.4-1.6,2-3.3,0.8-5.1c-1.5-2-3.3-3.9-4.6-6c-0.8-1.4-1.8-3.6-1.2-4.8
                c1.4-2.8,3.6-5.3,5.6-7.8c1.4-1.6,1.7-2.8,0.1-4.5c-0.9-1-2-1.9-2.9-3c-1.3-0.8-2.6-1.5-4-2.1c1.2,1.4,2.3,2.7,3.3,4
                c2.2,2.9,1.9,4.9-0.9,7.3c-1.4,1.2-2.7,2.5-4,3.8c-1.4,1.4-1.4,2.8-0.1,4.5c2.1,2.8,4,5.8,5.9,8.7c0.4,0.6,0.7,1.6,0.4,2
                c-2,3-4,5.9-6.3,8.7c-1,1.2-1.4,1.8-0.2,3.2c1.7,2.1,3.2,4.5,4.6,6.9c1.3,2.2,1.4,4.5-0.1,6.7c-1.5,2.1-2.9,4.4-4.5,6.4
                c-0.9,1.2-1,2,0,3.2c0.8,0.9,1.6,1.9,2.3,2.9c0.6-0.3,1.1-0.5,1.7-0.8c-0.2-0.2-0.4-0.5-0.6-0.7C52.9,68.5,52.7,66.8,53.7,65.1z"
                />
            <path fill="#FFFFFF" d="M53.7,65.1l2.3-3.8l2.5-3.7l0.6-0.9l0.2-0.5c0.1-0.2,0.1-0.3,0.1-0.5c0.1-0.7-0.2-1.4-0.6-2l-2.7-3.5
                c-0.9-1.2-1.7-2.4-2.6-3.7c-0.1-0.2-0.2-0.3-0.3-0.6c-0.1-0.2-0.1-0.4-0.2-0.6c-0.1-0.4-0.1-0.8-0.1-1.3c0-0.2,0.2-0.6,0.3-0.7
                l0.3-0.5l0.5-1c0.7-1.3,1.5-2.6,2.3-3.9c0.4-0.6,0.9-1.2,1.3-1.9l0.6-0.9c0.1-0.2,0.2-0.3,0.2-0.4c0.1-0.1,0.1-0.2,0.2-0.4
                c0.2-0.5,0.2-1,0.1-1.3c0-0.1,0-0.2-0.1-0.3c-0.1-0.1-0.1-0.2-0.1-0.3c-0.1-0.1-0.1-0.2-0.2-0.3l-0.3-0.4c-0.5-0.6-1-1.1-1.5-1.6
                l-0.7-0.8l-0.8-0.9c-0.5-0.6-1-1.2-1.5-1.9l-0.2-0.2c0-0.1,0,0-0.1-0.2l-0.1-0.1L53,25.7c-0.2-0.4-0.5-0.8-0.6-1.2
                c-0.4-0.8-0.8-1.6-0.9-2.9c0-0.4,0-0.7,0-1.1c0.1-0.5,0.2-0.9,0.4-1.4l0.5-1l0.5-1c0.2-0.3,0.4-0.7,0.7-1.1
                c0.4-0.7,0.9-1.5,1.3-2.1c0.4-0.6,0.9-1.3,1.3-1.9l0.7-0.9l0.3-0.4l0-0.1l0,0l0,0c-0.1,0.2,0,0-0.1,0.1l0.1-0.1l0.2-0.2l0.2-0.2
                c0-0.1,0-0.1,0-0.1c0,0,0.1-0.1,0-0.1c0,0,0-0.1,0,0c-0.1,0.1,0,0.1-0.1,0.2c0,0.2,0,0.4,0,0.5c0,0,0,0,0,0l-0.2-0.2
                c-1-1-2.1-2.1-3.1-3.1l0.8,0.6l-1.8-1l-1.9-0.8l4-5.4c1.2,1.3,2.3,2.7,3.4,4.1l0.1,0.1l0.1,0.1L59,5.4l0.2,0.3
                c0.1,0.1,0.1,0.2,0.2,0.3l0.3,0.4C59.9,6.7,60,7,60.2,7.2c0.1,0.3,0.3,0.6,0.4,1c0.2,0.7,0.4,1.5,0.4,2.4c0,0.9-0.2,1.8-0.5,2.6
                c-0.6,1.5-1.5,2.5-2.3,3.3l-1.9,1.8l-2.9,2.7c0-0.1,0-0.1,0-0.1c0-0.1,0-0.1,0-0.2c0-0.1-0.1-0.2,0-0.1c0,0.1,0,0.1,0.1,0.2
                l0.1,0.1l0,0.1l0,0l0.1,0.2l0.7,1.1c0.9,1.5,1.8,2.9,2.7,4.4l1.3,2.2l0.7,1.1l0.1,0.1l0.2,0.3l0,0.1l0.2,0.4l0.1,0.3l0.1,0.3
                c0.1,0.2,0.1,0.3,0.1,0.5c0.1,0.4,0.2,0.8,0.1,1.3c0,0.1,0,0.3,0,0.5c0,0.2,0,0.3-0.2,0.6c-0.1,0.3-0.3,0.6-0.4,0.7l-0.1,0.1
                l-0.8,1l-1.6,2l-0.8,1l-0.9,1l-1.8,2c-0.6,0.6-1.3,1.4-1.6,1.8c-0.1,0.1,0,0.1-0.1,0.1c0,0,0,0,0,0c0,0,0-0.1,0-0.2c0,0,0,0,0,0
                c0,0,0,0.1,0,0.1c0,0.1,0.1,0.2,0.2,0.3l1.4,2.2c0.4,0.7,0.9,1.4,1.3,2.2l1.2,2.3l0.3,0.6c0.2,0.3,0.2,0.4,0.3,0.6
                c0.2,0.3,0.3,0.9,0.5,1.4c0.2,1,0.3,2,0.1,2.9c-0.2,0.9-0.6,1.8-1.2,2.6c-1.1,1.4-2,2.7-3.1,4.1l-1.6,2c-0.5,0.7-1.1,1.3-1,2.1
                c0.1,0.8,0.8,1.4,1.3,2.1l1.6,2l-0.1,0l1.7-0.8l0,0.1c-0.3-0.4-0.7-0.8-1-1.2c-0.1-0.2-0.3-0.5-0.4-0.7c-0.1-0.2-0.2-0.5-0.2-0.7
                l-0.1-0.4c0-0.1,0-0.3,0-0.4c0-0.3,0-0.5,0.1-0.8c0-0.3,0.1-0.5,0.2-0.7C53.5,65.5,53.6,65.3,53.7,65.1z M53.7,65.1
                c-0.1,0.2-0.2,0.5-0.3,0.7c-0.1,0.2-0.2,0.5-0.2,0.7c0,0.3-0.1,0.5-0.1,0.8c0,0.1,0,0.3,0,0.4l0.1,0.4c0,0.3,0.2,0.5,0.3,0.7
                c0.1,0.2,0.2,0.5,0.4,0.7c0.3,0.4,0.6,0.8,1,1.2l0,0l-0.1,0l-1.7,0.9l-0.1,0l0,0l-1.7-1.9l-0.8-1c-0.3-0.3-0.5-0.7-0.7-1.2
                c-0.1-0.5,0-1,0.2-1.4c0.1-0.2,0.2-0.4,0.3-0.6l0.4-0.5l1.4-2.1c0.9-1.4,1.8-2.9,2.7-4.3c0.4-0.7,0.6-1.4,0.7-2.1
                c0.1-0.7-0.1-1.4-0.3-2.1c-0.2-0.3-0.3-0.6-0.5-1c-0.1-0.2-0.2-0.4-0.3-0.5l-0.4-0.5l-1.4-2c-0.4-0.7-1-1.3-1.6-2l-1.6-1.9
                c-0.2-0.2-0.4-0.4-0.5-0.7c-0.1-0.2-0.2-0.3-0.3-0.5c-0.1-0.2-0.1-0.4-0.2-0.6c-0.1-0.5-0.1-1,0.1-1.4c0.1-0.2,0.1-0.4,0.2-0.6
                c0.1-0.2,0.2-0.4,0.2-0.5l1.5-2.3l1.4-2.1l0.7-1l0.7-1.1l1.3-2.2l0.7-1.1l0.1-0.1c-0.1,0.1-0.2,0.3-0.3,0.5
                c-0.1,0.2-0.1,0.2-0.1,0.3c0,0.1,0,0.2,0,0.2c0,0.1,0,0.1,0,0.1l-2.6-3.3c-1-1.4-2-2.7-3.1-4.1l-0.8-1L48,24
                c-0.2-0.2-0.4-0.6-0.5-0.9c-0.3-0.7-0.6-1.5-0.6-2.5c0-0.5,0.1-1,0.2-1.5c0.1-0.4,0.3-0.9,0.5-1.3c0.1-0.2,0.2-0.4,0.4-0.6
                l0.2-0.3l0.1-0.1l0.1-0.1l0.2-0.2l0.1-0.1l0.1-0.1l0,0l0,0l0.3-0.3l0.9-0.9l1.8-1.8l0.9-0.9l0.2-0.2l0.3-0.3
                c0.1-0.1,0.2-0.2,0.3-0.3c0.4-0.4,0.7-0.8,0.7-0.8c0,0,0,0.2-0.1,0l-0.1-0.2c-0.1-0.1-0.1-0.2-0.2-0.3l-0.1-0.1c0,0,0-0.1-0.1-0.2
                l-0.2-0.3l-0.1-0.1l0,0c0,0-0.1-0.1,0,0.1l0,0l0-0.1c-1-1.3-2.1-2.5-3.1-3.9L40.9-6.5l13.2,6.6l2.2,1.1l2.1,1.2l0.4,0.2l0.3,0.4
                c1,1.1,2,2.2,3,3.3c0.2,0.2,0.4,0.4,0.5,0.7C63,7.4,63.2,7.7,63.3,8c0.3,0.7,0.6,1.6,0.5,2.6c0,0.5-0.1,0.9-0.2,1.3
                c-0.1,0.4-0.3,0.7-0.4,1c-0.2,0.3-0.3,0.6-0.5,0.8c-0.1,0.1-0.2,0.3-0.3,0.4l-0.2,0.2l-0.4,0.5l-0.4,0.4L60.7,16
                c-0.5,0.5-1,1.1-1.4,1.6c-0.5,0.5-0.9,1-1.3,1.5c-0.2,0.3-0.4,0.5-0.6,0.8l-0.6,0.9l-0.6,0.9c0.1-0.1,0.1-0.2,0.1-0.3c0,0,0,0,0,0
                c0,0.3,0.1,0.8,0.3,1.4c0.1,0.3,0.2,0.6,0.3,0.8l0.2,0.5l0.1,0.1c0,0,0,0,0,0.1l0.1,0.2c0.3,0.6,0.6,1.2,1,1.7l0.6,0.9l0.7,0.9
                c0.4,0.6,0.9,1.2,1.3,1.8l0.3,0.5l0.4,0.7c0.1,0.2,0.2,0.5,0.3,0.8c0.1,0.3,0.1,0.5,0.2,0.8c0.1,1.1-0.2,2.2-0.7,3
                c-0.2,0.4-0.6,0.8-0.8,1.1l-0.8,0.8c-0.5,0.5-1,1-1.4,1.6c-0.9,1.1-1.8,2.3-2.6,3.5l-0.6,0.9L54.6,44c-0.1,0.1-0.1,0.1-0.1,0.3
                c-0.1,0.2-0.1,0.6,0,0.9c0,0.1,0,0.3,0.1,0.4c0,0.1,0.1,0.3,0.2,0.5c0.7,1.2,1.4,2.5,2.2,3.8l2.5,3.7c0.4,0.6,0.7,1.4,0.5,2.2
                c-0.1,0.2-0.1,0.4-0.2,0.6l-0.3,0.5l-0.7,0.9c-0.9,1.2-1.8,2.4-2.6,3.6L53.7,65.1z"/>
        </g>
        <g>
            <path fill="#FFFFFF" d="M22.4,59.7c3.3-5.5,3.3-5.5-1.1-10.2c-2.2-2.4-2.6-4.8-1.1-7.6c1.1-2,2.2-3.9,3.5-5.7
                c1.5-2.2,1.6-3.7,0.1-5.9c-0.9-1.3-1.9-2.5-2.8-3.7c-1.7-2.4-1.6-4.9-0.2-7.4c1-1.8,2.1-3.6,3.2-5.3c1.9-3.1,1.8-3.5-0.4-6.2
                c-0.9-1.1-2-2.2-2.8-3.5c-0.6,0.3-1.1,0.6-1.6,0.9C19.8,6,20.4,6.9,21,7.8c1.8,2.5,1.8,4.9-0.1,7.4c-1.3,1.6-2.5,3.3-3.5,5.2
                c-0.4,0.9-0.5,2.3-0.1,3.1c1.2,2.6,2.9,5.1,4.2,7.7c0.5,1,0.8,2.6,0.4,3.5c-0.8,1.9-2.1,3.6-3.3,5.2c-2.5,3.5-2.4,5.4,0.1,8.8
                c0.9,1.2,1.7,2.6,2.5,3.9c1.3,2,1.3,4-0.3,5.9c-1.1,1.3-2.1,2.7-3.1,4c-1.6,2.1-1.9,3.8-1,5.9c1.3,0.9,2.7,1.7,4.2,2.5
                C18.2,67,18.9,65.7,22.4,59.7z"/>
            <path fill="#FFFFFF" d="M22.4,59.7c0.7-1.1,1.4-2.3,1.9-3.5c0.3-0.6,0.5-1.3,0.4-1.9c-0.1-0.6-0.4-1.2-0.8-1.7
                c-0.8-1-1.7-2-2.7-2.9c-0.9-0.9-1.8-2.1-2-3.5c-0.3-1.4,0-2.9,0.5-4.1c0.6-1.3,1.2-2.4,1.8-3.6l1-1.8l0.5-0.9l0.4-0.8
                c0.2-0.5,0.4-1,0.4-1.5c0-0.2-0.1-0.5-0.1-0.7c-0.1-0.2-0.1-0.4-0.3-0.7c-0.1-0.2-0.2-0.4-0.4-0.7c-0.2-0.2-0.3-0.4-0.6-0.7
                l-1.3-1.5c-0.9-1.1-1.8-1.8-2.6-3.5c-0.8-1.6-0.9-3.5-0.5-5.2c0.1-0.4,0.2-0.8,0.4-1.2c0.2-0.4,0.3-0.7,0.5-1.1l0.9-1.8l1.8-3.5
                L22,12l0.2-0.4c0.1-0.1,0.1-0.2,0.1-0.3l0.1-0.3c0-0.1,0-0.1,0-0.2c0,0,0,0,0-0.1c0,0,0,0,0,0c0,0,0,0.1,0,0.1c0,0,0,0.1,0,0.1
                c0,0.1-0.1,0-0.1,0c0,0-0.2-0.2-0.3-0.4c-0.1-0.2-0.4-0.4-0.5-0.6l-0.3-0.3l-0.3-0.4c-0.5-0.5-0.9-0.9-1.4-1.5L18,6l4.2,1.1
                L20.8,8l1.1-4.7L23.2,5l0.3,0.4l0.2,0.2l0.1,0.1l0.2,0.3c0.2,0.3,0.4,0.6,0.6,1c0.3,0.6,0.6,1.1,0.8,1.7c0.2,0.6,0.4,1.1,0.4,1.8
                c0,0.3,0.1,0.6,0.1,1c0,0.3,0,0.6-0.1,1c0,0.7-0.2,1.2-0.4,1.8c-0.2,0.6-0.5,1.1-0.7,1.6c-0.3,0.5-0.6,0.9-0.9,1.3
                c-0.4,0.5-0.9,1.2-1.3,1.8c-0.2,0.3-0.5,0.6-0.7,0.9l-0.5,0.8l-0.5,0.8l-0.2,0.4l-0.1,0.1l0,0l0,0c-0.1,0.2,0.1-0.2,0.1-0.2l0,0
                L20.4,22c0,0.1,0.1-0.2,0-0.1c0,0,0,0.1,0,0.1c0,0.1,0,0.2,0,0.2c0,0,0,0,0,0c0,0,0-0.1,0-0.1l0,0l0,0c0,0-0.1-0.2-0.1-0.1l0,0
                l0.1,0.1l0.1,0.2l0.5,1l2,4l1,2l0.1,0.3l0.1,0.1l0.1,0.2l0,0.1c0.1,0.2,0.1,0.3,0.2,0.7l0.1,0.5l0.1,0.4c0.1,0.3,0.1,0.5,0.2,0.8
                c0.1,0.6,0.1,1.2,0,1.9c-0.1,0.4-0.1,0.7-0.2,1.2l-0.1,0.3l-0.1,0.2L24.5,36l0,0l0,0l-0.1,0.2l-0.6,1c-0.2,0.4-0.5,0.8-0.8,1.1
                l-0.4,0.6l-0.4,0.5l-0.7,0.9l-0.7,0.9l-0.1,0.1l0,0.1l0,0l0,0c0.1-0.2,0,0,0-0.1l-0.2,0.2L20.3,42l-0.3,0.5
                c-0.1,0.1-0.1,0.2-0.2,0.3c-0.1,0.2-0.3,0.4-0.4,0.6c-0.1,0.2-0.2,0.4-0.2,0.6c0,0.2-0.1,0.4-0.1,0.6c0,0.1,0,0.2,0,0.3
                c0,0.1,0.1,0.2,0.1,0.3l0.1,0.4l0.2,0.4c0.1,0.3,0.2,0.5,0.4,0.8l0.2,0.4l0.1,0.2l0.1,0.1l0,0c0.1,0.1,0,0,0.1,0.1l0,0l0,0.1
                l1.1,1.9l1.1,2c0.3,0.5,0.3,0.6,0.5,1.2l0.2,0.7c0.1,0.2,0.1,0.5,0.1,0.7c0.1,0.9,0.1,2-0.3,2.8c-0.1,0.5-0.4,0.8-0.7,1.2
                c-0.3,0.3-0.6,0.7-0.8,1L20.1,61c-1,1.1-2.1,2.2-2.7,3.3c-0.3,0.6-0.5,1.2-0.6,1.9c0,0.7,0.2,1.3,0.4,2L17.1,68l2,1.4l2.1,1.2
                l-0.2,0.3c-0.3-0.4-0.6-0.9-0.8-1.3l-0.4-0.7c-0.1-0.2-0.2-0.5-0.3-0.7c-0.1-0.2-0.1-0.5-0.2-0.8c-0.1-0.3,0-0.5,0-0.8
                c0-0.3,0-0.5,0.1-0.8c0.1-0.3,0.1-0.5,0.2-0.7c0.2-0.5,0.4-1,0.6-1.4c0.2-0.5,0.5-0.9,0.7-1.4C21.4,61.5,21.9,60.6,22.4,59.7z
                 M22.4,59.7c-0.5,0.9-1,1.8-1.5,2.7c-0.2,0.4-0.5,0.9-0.7,1.4c-0.2,0.5-0.4,0.9-0.6,1.4c-0.1,0.2-0.1,0.5-0.2,0.7
                c-0.1,0.2-0.1,0.5-0.1,0.7c0,0.2,0,0.5,0.1,0.7c0,0.2,0.1,0.5,0.2,0.7c0.1,0.2,0.2,0.5,0.3,0.7l0.4,0.7c0.3,0.4,0.6,0.8,0.9,1.2
                l0.6,0.7L21,71l-2.2-1.1l-2.1-1.2l-0.1,0l-0.1-0.1c-0.3-0.7-0.6-1.5-0.7-2.3c0-0.8,0.2-1.7,0.5-2.4c0.2-0.4,0.4-0.8,0.6-1.1
                l0.3-0.5l0.1-0.1l0.1-0.2l0.2-0.2l1.3-1.8L20,58c0.2-0.4,0.4-0.6,0.5-0.8c0.1-0.3,0.3-0.5,0.3-0.8c0.2-0.5,0.1-1-0.1-1.5
                c0-0.1-0.1-0.3-0.1-0.4c-0.1-0.1-0.1-0.2-0.2-0.3c-0.1-0.2-0.4-0.7-0.5-0.8l-1.3-1.8l-1.4-1.8c-0.9-1.1-2.2-2.6-2.6-4.8
                c-0.1-0.5-0.1-1.1-0.1-1.7c0-0.6,0.2-1,0.3-1.5c0.1-0.5,0.3-0.9,0.5-1.4c0.1-0.2,0.2-0.5,0.3-0.6l0.3-0.5l0.3-0.5l0.1-0.2l0.2-0.3
                l0.6-1l0.5-0.9l0.3-0.5l0.2-0.4l0.4-0.8l0.4-1l0.1-0.3l0,0l0,0c0.1-0.1-0.1,0.2-0.1,0.1l0,0c0,0,0,0,0,0c0,0.1,0,0.1,0,0.1
                c0,0,0-0.2-0.1-0.4c0-0.1,0-0.2-0.1-0.3l-0.1-0.1l0-0.1c0,0-0.1-0.2-0.2-0.4l0-0.1c0,0-0.1-0.1,0,0.1l0,0l0,0l-0.1-0.1l-0.1-0.2
                l-1.1-1.9l-2.2-3.8l-0.6-1l-0.1-0.2l-0.1-0.1l0,0l-0.1-0.2l-0.1-0.2c-0.1-0.2-0.2-0.4-0.2-0.7l-0.1-0.6c-0.1-0.7-0.2-1.4-0.1-2.1
                c0-0.3,0.1-0.7,0.1-1c0-0.3,0.3-0.9,0.4-1.2l0.1-0.3l0,0l0.1-0.2l0,0l0-0.1l0.1-0.1l0.3-0.6l0.7-1.1l0.7-1.1
                c0.2-0.3,0.4-0.6,0.7-0.9l1.4-1.8c0.1-0.2,0.3-0.4,0.4-0.5c0.1-0.2,0.2-0.3,0.2-0.5c0-0.1,0.1-0.3,0.1-0.3c0-0.1,0-0.1,0-0.2
                c0-0.1,0-0.1,0-0.2c0-0.1-0.1-0.2-0.1-0.4c0-0.1-0.1-0.2-0.1-0.3c-0.1-0.3-0.4-0.6-0.6-0.9l0,0c-0.1-0.2,0.1,0.2,0.1,0.2l0,0
                l0-0.1l-0.1-0.1L18,9.4l-0.3-0.5L16.4,7l-2.1-3.1l3.1-1.6l1.8-0.9l2.5-1.3l1.7,2.4l0.9,1.3c0.3,0.5,0.8,1,1.2,1.5l0.3,0.4l0.3,0.5
                c0.2,0.3,0.4,0.5,0.7,0.9c0.2,0.4,0.5,0.7,0.7,1.3l0.2,0.4C27.9,8.9,28,9,28,9.2c0.1,0.4,0.2,0.7,0.2,1.1c0,0.7-0.1,1.6-0.3,2.1
                c-0.1,0.3-0.2,0.5-0.3,0.8l-0.3,0.6c-0.1,0.2-0.2,0.4-0.3,0.6l-0.3,0.4l-0.6,0.8l-2.2,3.3l-1.1,1.6l-0.4,0.7L22,21.8
                c-0.4,0.9-0.4,1.7-0.2,2.6c0.1,0.8,1,2,1.7,3.1l1.1,1.7c0.2,0.3,0.4,0.6,0.6,0.9c0.2,0.3,0.3,0.7,0.5,1.1c0.2,0.4,0.2,0.8,0.3,1.2
                c0,0.4,0.1,0.9,0,1.3c-0.1,0.9-0.5,1.6-0.9,2.3l-0.6,0.8l-0.6,0.8l-1.2,1.6c-0.4,0.5-0.7,1.1-1.1,1.6c-0.3,0.5-0.8,1.1-1,1.7
                c-0.6,1.1-1,2.3-0.8,3.6c0.2,1.2,0.8,2.4,1.7,3.4c0.8,1,1.8,2,2.5,3.1c0.4,0.5,0.7,1.2,0.8,1.8c0.1,0.7-0.1,1.3-0.4,1.9
                C23.8,57.5,23.1,58.6,22.4,59.7z"/>
        </g>
        <g>
            <path fill="#FFFFFF" d="M42.9,62.3c1.4-1.9,2.8-3.9,4.3-5.7c1.1-1.4,0.9-2.4-0.1-3.7c-1.2-1.6-2.6-3.1-3.4-4.9
                c-2-4.6-3.3-4.1,1.1-8.8c0.7-0.8,1.6-1.4,2.4-2.2c2.2-2,2.4-4.3,0.5-6.6c-1.5-1.9-3.2-3.8-4.5-5.8c-1.5-2.5-1.2-3.8,0.6-6
                c1.4-1.7,2.8-3.5,4.1-5.2c1.1-1.5,1.1-2.8-0.2-4.3c-1.8-2.3-3.5-4.7-5-7.2c-1.1-1.9-1.4-2.1-3.4-1.1C41.1,3,43,5.2,44.5,7.5
                c1.8,2.7,1.6,5.1-0.4,7.6c-1.3,1.7-2.8,3.3-4.2,4.9c-1,1.2-1.4,2.3-0.3,3.6c1.6,1.8,3.2,3.5,4.6,5.4c0.7,1,1.7,2.8,1.3,3.6
                c-1.4,3.1-3.1,6.1-5.2,8.8c-1.9,2.6-2.1,3.8,0.3,5.9c3.9,3.4,4.7,8.1,2,12.5c-1.4,2.2-2.9,4.3-4.3,6.2c1.9,2.7,3.8,5.4,5.5,8.1
                c0.7-0.1,1.4-0.2,2-0.4c-1.1-1.4-2.2-2.8-3.2-4.2C40.7,66.8,40.8,65.1,42.9,62.3z"/>
            <path fill="#FFFFFF" d="M42.9,62.3c1-1.3,1.8-2.6,2.8-3.8l1.5-1.9c0.5-0.6,0.8-1.4,0.6-2.1c-0.2-0.7-0.8-1.3-1.3-1.9
                c-0.5-0.6-1-1.2-1.5-1.9c-1-1.2-1.7-2.8-2.4-4.2c-0.4-0.7-0.8-1.4-1.1-2.3c-0.1-0.5-0.1-1,0.1-1.4c0.2-0.4,0.4-0.8,0.6-1.2
                c0.5-0.7,1-1.3,1.5-2c0.3-0.3,0.5-0.6,0.8-0.9l0.8-0.9c0.3-0.3,0.6-0.6,0.9-0.8l0.4-0.4l0.4-0.4c0.1-0.1,0.3-0.3,0.4-0.4l0.2-0.4
                c0.1-0.1,0.1-0.3,0.2-0.4c0-0.1,0.1-0.3,0.1-0.4c0.2-1.1-0.3-2.2-1.3-3.3c-1.1-1.2-2.2-2.3-3.2-3.6l-0.8-1l-0.4-0.5l-0.2-0.2
                l-0.1-0.1l0-0.1l-0.1-0.1L41.4,25l-0.2-0.3c-0.1-0.1-0.1-0.2-0.2-0.4c-0.1-0.3-0.2-0.5-0.4-0.8c-0.1-0.3-0.2-0.6-0.2-0.9
                c-0.2-1.3,0.1-2.6,0.6-3.6c0.2-0.4,0.5-0.9,0.8-1.3l0.4-0.6c0-0.1,0.2-0.3,0.3-0.4c0.9-1.3,1.8-2.6,2.7-3.9l0.7-1l0-0.1l0,0
                c0.1-0.2-0.2,0.2-0.1,0.2l0,0l0.1-0.1l0.2-0.3l0.1-0.1c0,0,0,0,0,0l0,0c0,0,0-0.1,0,0c0,0,0,0,0,0c0,0,0,0-0.1-0.1
                c-0.1-0.1-0.1-0.1-0.1-0.2c-0.1-0.1-0.1-0.2-0.2-0.2l-0.8-1l-1.5-1.9c-0.5-0.6-1-1.3-1.5-2L40.4,4l-0.7-1
                c-0.1-0.1-0.1-0.1-0.1-0.2c0,0,0.1,0.1,0.1,0.1c0,0,0,0,0.1,0c0.1,0.1,0.1,0.1,0.2,0.2c0.3,0.2,0.7,0.3,1.1,0.3c0.1,0,0.2,0,0.2,0
                c0,0,0.1,0,0.1,0c0,0,0,0,0,0l-0.6,0.3l1.3-5.1c1,1.2,2,2.4,3,3.7l1.5,2L47,5.1l0.2,0.3l0.1,0.1l0,0.1l0,0l0,0l0.1,0.2l0.6,1.1
                c0.3,0.6,0.6,1.3,0.8,1.9c0.2,0.6,0.3,1.3,0.3,2c0.1,1.4-0.3,2.7-0.7,3.9c-0.3,0.5-0.5,1.1-0.8,1.5c-0.3,0.4-0.6,0.9-1,1.3
                l-1.6,1.8l-1.6,1.8L42.7,22l-0.3,0.4c-0.1,0.1-0.2,0.2-0.2,0.2c0,0,0,0,0,0c0,0,0,0,0-0.1c0-0.1,0.1-0.2,0.1-0.3
                c0-0.2,0-0.3,0-0.4c0-0.1-0.1-0.1-0.1-0.2c0,0,0-0.1,0-0.1c-0.1-0.1-0.1-0.1,0.2,0.3l0.8,0.9c0.5,0.6,1,1.2,1.6,1.9l1.6,2.1
                l0.4,0.5l0,0.1l0.1,0.1l0.1,0.1l0.2,0.3c0.3,0.5,0.5,0.9,0.8,1.4c0.2,0.5,0.4,1,0.6,1.7c0,0.2,0.1,0.4,0.1,0.6c0,0.3,0,0.5,0,0.8
                c0,0.2,0,0.6-0.2,1c-0.1,0.4-0.3,0.8-0.3,0.8L47,36.2l-1.3,2.2c-0.5,0.7-1,1.4-1.4,2.1c-0.5,0.7-1,1.4-1.6,2l-0.7,0.9
                c-0.2,0.2-0.4,0.5-0.5,0.7c-0.1,0.2-0.2,0.4-0.3,0.5c0,0.1-0.1,0-0.1,0.1c0,0.2,0.3,0.7,0.8,1.2l0.9,0.9c0.3,0.4,0.7,0.8,0.9,1.1
                c1.1,1.5,1.8,3.3,2,5.2c0.1,0.9,0,1.9-0.1,2.8c-0.2,0.9-0.4,1.8-0.8,2.6c-0.4,0.8-0.8,1.6-1.3,2.3l-1.5,1.9l-2.9,3.8l0-0.7
                c0.8,1.4,1.7,2.8,2.6,4.2c0.9,1.4,1.7,2.8,2.6,4.1L43.8,74l2-0.3L45.8,74l-2-2.7l-1-1.3c-0.2-0.2-0.3-0.5-0.5-0.7
                c-0.1-0.2-0.3-0.5-0.4-0.7l-0.4-0.8l-0.2-0.8c-0.1-0.3,0-0.6-0.1-0.8c0-0.3,0.1-0.6,0.1-0.8c0-0.3,0.2-0.5,0.3-0.8
                c0.1-0.3,0.2-0.5,0.4-0.8C42.2,63.2,42.6,62.8,42.9,62.3z M42.9,62.3c-0.3,0.5-0.7,0.9-0.9,1.4c-0.1,0.2-0.3,0.5-0.4,0.8
                c-0.1,0.3-0.2,0.5-0.2,0.8c0,0.3-0.1,0.5-0.1,0.8c0,0.3,0,0.6,0.1,0.8l0.2,0.8l0.4,0.7c0.1,0.3,0.3,0.5,0.4,0.7
                c0.2,0.2,0.3,0.5,0.5,0.7l1,1.3l2.1,2.6l0.2,0.2L46,74l-2,0.5l-0.1,0l-0.1-0.1c-1-1.3-1.9-2.6-2.9-4c-1-1.3-1.9-2.6-2.9-3.9
                l-0.2-0.3l0.2-0.4l2.5-4.1l1.2-2.1c0.4-0.6,0.7-1.3,0.9-2c0.2-0.7,0.3-1.4,0.4-2.1c0-0.7,0-1.4-0.2-2c-0.3-1.3-1-2.5-1.9-3.5
                c-0.2-0.3-0.5-0.4-0.7-0.7l-0.9-0.7c-0.7-0.6-1.5-1.2-2.1-2.6c-0.3-0.7-0.4-1.5-0.3-2.2c0.1-0.7,0.3-1.3,0.6-1.8
                c0.2-0.5,0.5-0.9,0.7-1.3l0.7-1c0.4-0.7,0.8-1.3,1.2-1.9c0.4-0.7,0.7-1.3,1.1-2l1-2l0.9-2.2c0.1-0.2-0.1,0.1-0.1,0.2
                c-0.1,0.2-0.1,0.4-0.1,0.4c0,0.1,0,0.1,0,0.2c0,0,0,0,0,0c0,0-0.1-0.3-0.3-0.5c-0.1-0.2-0.3-0.5-0.4-0.7L41.9,31l-0.1-0.1l0,0
                c0,0,0-0.1,0,0l0,0l0-0.1l-0.4-0.4l-1.4-1.6c-0.5-0.6-1.1-1.2-1.6-1.7l-0.8-0.9c-0.2-0.2-0.8-0.8-1.2-1.6
                c-0.1-0.2-0.2-0.4-0.3-0.6c-0.1-0.2-0.2-0.5-0.2-0.8c-0.1-0.5-0.1-1.1-0.1-1.6c0.1-0.5,0.2-1,0.3-1.5c0.2-0.4,0.3-0.8,0.6-1.1
                l0.3-0.5l0.2-0.3l0.2-0.3l0.2-0.2l0.8-0.9l1.5-1.9l1.6-1.8l0.4-0.6l0.3-0.6c0.1-0.3,0.2-0.6,0.2-0.8c0-0.1,0-0.3-0.1-0.4
                c0-0.1-0.1-0.2-0.1-0.3c-0.2-0.3-0.4-0.7-0.6-1c0.2,0.4,0.1,0.1,0.1,0.2l0,0l0,0l0-0.1l-0.1-0.1L41.3,9L41,8.5l-1.3-1.9
                c-0.9-1.3-1.9-2.6-2.9-3.9l-2.6-3.5l3.9-1.5l0.7-0.3L39-2.6l0.2-0.1l0.5-0.1l0.3-0.1l0.4-0.1C40.6-3,40.9-3,41.2-3
                c0.8,0,1.6,0.3,2.3,0.7c0.2,0.1,0.3,0.2,0.5,0.3l0.3,0.3c0.2,0.2,0.3,0.4,0.5,0.5c0.2,0.3,0.4,0.5,0.6,0.8l0.6,1L47,2.6
                c0.4,0.6,0.7,1.3,1.2,1.9l1.3,2l0.6,0.9l0.5,0.7c0.2,0.3,0.3,0.6,0.4,0.9c0.1,0.3,0.2,0.7,0.3,1.1c0.1,0.4,0.1,0.8,0.1,1.2
                c0,0.8-0.2,1.6-0.6,2.3c-0.1,0.2-0.2,0.4-0.3,0.5c0,0.1-0.1,0.2-0.1,0.2l-0.1,0.1L50,15.2l-0.8,0.9c-1,1.2-2.1,2.4-3.2,3.6
                l-0.8,0.9c-0.3,0.3-0.4,0.5-0.6,0.7c-0.3,0.4-0.4,0.7-0.4,1c0,0.1,0,0.2,0,0.3c0,0.1,0.1,0.2,0.1,0.3c0,0.1,0,0.1,0,0.2l0.1,0.3
                l0.3,0.5l1.1,1.8c0.7,1.3,1.8,2.6,2.7,3.9c0.2,0.3,0.5,0.8,0.7,1.1c0.2,0.4,0.4,0.9,0.6,1.3c0.3,1,0.3,2.1,0,3
                c-0.1,0.2-0.2,0.5-0.3,0.7c-0.1,0.2-0.2,0.4-0.4,0.6L48.7,37c-0.2,0.2-0.3,0.3-0.4,0.4l-0.5,0.4l-0.5,0.4
                c-0.3,0.2-0.6,0.5-0.9,0.7l-0.9,0.8c-0.3,0.2-0.6,0.5-0.8,0.8c-0.6,0.6-1.1,1.1-1.6,1.7c-0.2,0.3-0.4,0.6-0.6,0.9
                c-0.1,0.3-0.2,0.6-0.1,0.9c0.1,0.7,0.5,1.4,0.8,2.1c0.7,1.5,1.2,3,2.1,4.2c0.5,0.6,0.9,1.3,1.4,1.9c0.5,0.6,1,1.3,1.2,2.1
                c0.2,0.8-0.2,1.7-0.7,2.3l-1.5,1.9C44.8,59.7,43.9,61,42.9,62.3z"/>
        </g>
        <g>
            <path fill="#FFFFFF" d="M29.5,2.7c1.5,1.9,3.2,3.7,4.4,5.8c0.5,0.9,0.5,2.6-0.1,3.4c-1.7,2.6-3.5,5.2-5.6,7.5
                C26.7,21,26.5,22,28,23.6c1.8,1.9,3.5,4,5.3,6c1.3,1.6,1.2,3.2,0.2,4.9c-1.5,2.3-3.1,4.6-4.6,6.8c-2,2.9-1.8,3.5,0.6,6
                c1.7,1.8,2.9,4.1,4.4,6.1c1,1.4,0.9,2.8-0.1,4.1c-1.9,2.4-4,4.6-6,6.9c-0.6,0.7-1.5,1.8-1.3,2.4c0.7,2.3,2,4.2,4.9,5.7
                c-0.5-1.6-0.6-2.8-1.2-3.6c-1.2-1.9-1-3.4,0.5-5c2.4-2.5,4.6-5.2,7-7.6c1.1-1.1,1.1-1.7-0.1-2.8c-1.7-1.5-3.4-3.1-4.9-4.9
                c-1.8-2.3-2.2-5-0.8-7.6c1.4-2.5,3-4.8,4.7-7c1-1.3,1.1-2.2,0-3.4c-1.7-1.9-3.3-3.8-4.7-5.9c-1.8-2.6-1.5-4.9,0.5-7.1
                c1.6-1.7,3.2-3.3,4.9-4.9c1.3-1.2,1.1-2.2-0.1-3.5c-2-2.3-4.1-4.6-5.6-7.3c-0.3-0.6-0.6-1-1-1.2C29.8,1,29,1.2,28.1,1.4
                C28.6,1.8,29.1,2.2,29.5,2.7z"/>
            <path fill="#FFFFFF" d="M29.5,2.7c1.1,1.4,2.3,2.7,3.4,4.1c0.3,0.4,0.5,0.7,0.7,1.1c0.3,0.4,0.5,0.7,0.6,1.2
                c0.1,0.4,0.2,0.9,0.1,1.3c0,0.5-0.1,0.9-0.3,1.3c-0.9,1.5-1.9,3-2.9,4.5c-0.5,0.7-1,1.5-1.6,2.1c-0.6,0.7-1.2,1.4-1.6,2.1
                c-0.2,0.3-0.3,0.7-0.4,1c0,0.3,0.1,0.6,0.4,0.9c0.4,0.6,1.2,1.2,1.8,1.9l3.7,3.8l0.5,0.5l0.2,0.2l0,0l0,0c0,0-0.1-0.1,0.1,0.1
                l0.1,0.1l0.1,0.1c0.1,0.2,0.3,0.3,0.4,0.6c0.1,0.3,0.3,0.5,0.4,0.8c0.5,1.1,0.4,2.4,0,3.5c-0.1,0.3-0.2,0.5-0.3,0.8
                c-0.1,0.2-0.3,0.5-0.4,0.7l-0.7,1.2L32.4,39l-1.4,2.3l-0.7,1.2L30,43c-0.1,0.2-0.2,0.3-0.3,0.5c-0.2,0.3-0.3,0.6-0.3,0.7
                c0,0.1,0,0,0.1,0c0.1,0.1,0.6,0.7,1.3,1.3l0.2,0.2l0.3,0.3l0.5,0.5c0.3,0.3,0.6,0.6,0.9,1l1,1.2l0.8,1.1l0.8,1.1l0.4,0.5l0.2,0.3
                l0.1,0.1l0,0.1l0.2,0.2l0.2,0.3l0.1,0.1c0,0,0.1,0.2,0.1,0.3c0.2,0.4,0.4,0.9,0.5,1.3c0.3,0.8,0.3,1.7,0.1,2.6
                c-0.2,0.9-0.5,1.7-0.9,2.3L36,59.5l-0.2,0.3l-0.4,0.5l-1.7,2.1l-3.4,4.1c-0.3,0.4-0.5,0.6-0.6,0.9l-0.1,0.1c0,0,0,0,0,0
                c0,0,0.1-0.1,0.1-0.1c0,0,0.1-0.2,0.1-0.3c0,0,0-0.1,0-0.1l0-0.2c0-0.2,0-0.5-0.1-0.7l0-0.2c0,0.1-0.1-0.2-0.1-0.2l0,0l0,0.1
                l0.1,0.3c0.1,0.2,0.2,0.5,0.2,0.5c0.1,0.1,0.1,0.2,0.1,0.3l0.2,0.3c0.6,0.9,1.4,1.5,2.6,2.1L28,73.6l-0.4-1.5l-0.2-0.6
                c-0.1-0.2-0.1-0.3-0.1-0.4c0-0.1,0-0.1-0.1-0.2c0,0,0,0,0,0c0,0,0,0,0,0L27,70.4L26.8,70l-0.1-0.2l-0.1-0.3
                c-0.2-0.4-0.4-0.9-0.5-1.3c-0.2-0.9-0.3-1.9-0.1-2.8c0-0.2,0.1-0.5,0.2-0.7c0.1-0.2,0.2-0.4,0.2-0.6c0.1-0.2,0.2-0.4,0.3-0.6
                l0.3-0.5l0.3-0.5l0.3-0.4l0.3-0.4l0.2-0.2l0.9-1l3.8-4l1.9-2l0.4-0.4l0.2-0.2c0,0-0.1,0.1-0.1,0.1c0,0-0.1,0.1-0.1,0.2
                c0,0.1,0,0.1-0.1,0.2c0,0.1-0.1,0.2-0.1,0.3c0,0.2,0,0.5,0.1,0.7c0.1,0.3,0.1,0.3,0.2,0.5c0.1,0.2,0.1,0.1,0.1,0.2c0,0,0.1,0,0,0
                L35.6,56l0,0l-0.1-0.1l-0.1-0.1l-1-1c-0.6-0.7-1.3-1.2-2-2.1l-1-1.2l-0.5-0.6l-0.2-0.3l-0.1-0.1l0,0l-0.1-0.2l-0.1-0.1
                c-0.4-0.5-1.3-2.1-1.5-3.3c-0.7-2.5-0.1-5.3,1.3-7.2l1.6-2.2c0.3-0.4,0.5-0.7,0.8-1.1l0.9-1.1l1.8-2.2c0,0,0.3-0.4,0.3-0.4
                c0.1-0.1,0.1-0.1,0.1-0.2c0-0.1,0.1,0,0.1-0.1c-0.1-0.1,0-0.2-0.2-0.3l-0.1-0.2l-0.2-0.3l-0.8-1.1c-0.5-0.7-1.1-1.4-1.6-2.2
                l-1.6-2.4l-0.2-0.3l0-0.1L31,25.4l0,0l0,0l-0.1-0.2l-0.3-0.6c-0.1-0.2-0.2-0.5-0.3-0.7C30.1,23.6,30,23.3,30,23
                c-0.3-1.1-0.2-2.2,0.2-3.2c0.4-1,1-1.8,1.7-2.5l4.1-3.7l1-0.9c0.2-0.2,0.3-0.3,0.5-0.5c0.2-0.2,0.2-0.3,0.4-0.5
                c0.2-0.3,0.2-0.7,0.1-1.1c-0.1-0.4-0.4-0.7-0.6-1.1c-1.1-1.4-2.3-2.8-3.4-4.3c-0.5-0.7-1.1-1.5-1.5-2.3c-0.2-0.4-0.5-0.8-0.7-1.2
                c-0.1-0.2-0.2-0.4-0.4-0.6l-0.5-0.5l0,0l-2.6,0.6l0,0L28.8,2C29,2.2,29.3,2.5,29.5,2.7z M29.5,2.7C29.3,2.5,29,2.2,28.8,2
                l-0.7-0.6l0,0l0,0l2.6-0.6l0,0l0,0l0.5,0.5c0.1,0.2,0.3,0.4,0.4,0.6L32.4,3c0.5,0.8,1,1.5,1.6,2.2c1.1,1.4,2.4,2.7,3.6,4.1
                c0.3,0.4,0.6,0.7,0.8,1.2c0.2,0.5,0.2,1.1,0,1.6c-0.1,0.2-0.3,0.5-0.4,0.7c-0.1,0.2-0.3,0.4-0.5,0.5l-0.9,1
                c-1.2,1.3-2.5,2.7-3.6,4c-0.5,0.7-1,1.4-1.1,2.1c-0.2,0.7-0.2,1.5,0.1,2.2c0,0.2,0.1,0.3,0.2,0.5c0.1,0.2,0.1,0.3,0.3,0.5l0.4,0.6
                l0.1,0.1l0,0l0,0c-0.1-0.1,0,0,0,0l0.1,0.1l0.2,0.3l1.7,2c0.5,0.7,1.3,1.3,1.9,2l1,1l0.2,0.2l0.3,0.3c0.2,0.2,0.4,0.6,0.6,0.8
                c0.4,0.7,0.5,1.8,0.3,2.6c-0.1,0.4-0.3,0.7-0.4,1.1c-0.2,0.4-0.2,0.4-0.4,0.7l-1.4,2.2l-0.7,1.1c-0.2,0.4-0.4,0.8-0.7,1.2
                l-1.3,2.4c-0.1,0.2-0.2,0.6-0.3,0.8c0,0.3-0.2,0.6-0.1,0.8c-0.1,0.5,0.1,1.1,0.2,1.6c0.1,0.3,0.2,0.5,0.3,0.7
                c0,0.1,0.4,0.5,0.7,0.9l1.6,1.6c0.5,0.6,1.3,1.2,2,1.7l1,0.9l0.2,0.2l0.4,0.4c0.1,0.1,0.3,0.3,0.5,0.5c0.2,0.2,0.3,0.4,0.5,0.7
                c0.2,0.4,0.3,0.6,0.4,1.1c0.1,0.5,0.2,1,0.1,1.4c0,0.2-0.1,0.5-0.1,0.7c-0.1,0.2-0.1,0.3-0.2,0.5c-0.1,0.3-0.3,0.7-0.4,0.8
                c-0.1,0.2-0.3,0.5-0.5,0.6l-0.2,0.3L39.7,59l-1.8,2l-3.6,4.1l-0.9,1l-0.2,0.3l-0.1,0.1L33,66.6l0,0.1c0,0,0,0-0.1,0.1c0,0,0,0,0,0
                c0,0,0,0,0,0c0,0,0,0,0,0c0-0.1,0-0.2,0-0.1c0,0,0,0,0,0c0,0,0,0,0,0l0.1,0.1l0.2,0.3l0.1,0.1l0,0.1c-0.2-0.4,0-0.1-0.1-0.2l0,0
                l0,0.1c0.1,0.2,0.2,0.4,0.3,0.6l0.3,0.6c0.1,0.2,0.1,0.3,0.2,0.5c0.1,0.3,0.2,0.6,0.3,0.9l0.2,0.7l0.3,1.2l2.1,7.9l-7-3.7
                c-1-0.5-2-1.1-2.9-1.9c-0.9-0.8-1.8-1.8-2.4-2.9L24,70l-0.4-0.9c-0.2-0.4-0.2-0.5-0.3-0.7l-0.1-0.3l0-0.1l0,0c0,0-0.1-0.3-0.1-0.2
                l-0.1-0.2c-0.1-0.3-0.1-0.7-0.1-1c0-0.2,0-0.3,0-0.4l0.1-0.3c0-0.2,0.1-0.4,0.2-0.6c0.1-0.3,0.2-0.5,0.3-0.7l0.3-0.5l0.3-0.4
                c0.4-0.5,0.8-0.9,1-1.2l3.6-3.9l1.8-1.9l0.5-0.5l0.2-0.2c0,0,0,0,0-0.1c0.1-0.1,0.1-0.1,0.1-0.1c0,0,0.1,0,0.1,0c0-0.1,0,0,0.1,0
                c0,0,0,0,0,0l-0.1-0.1L31.5,55l-1.3-2.2l-0.7-1.1l-0.6-1c-0.2-0.3-0.5-0.7-0.7-1l-0.4-0.5L27.7,49l0-0.1l0,0c0,0-0.1-0.1,0.1,0.1
                l0,0l-0.2-0.3c-0.3-0.4-0.6-0.7-0.9-1.2c-0.3-0.5-0.7-1-1-1.8c-0.3-0.8-0.3-1.9,0-2.6c0.2-0.7,0.5-1.2,0.8-1.7
                c0.1-0.2,0.3-0.4,0.5-0.6l0.4-0.5l0.8-1.1l1.6-2.1l1.6-2.1l0.8-1.1c0.2-0.2,0.2-0.3,0.3-0.5c0.1-0.1,0.2-0.3,0.3-0.4
                c0.3-0.6,0.4-1.1,0.3-1.7c0-0.2-0.1-0.3-0.1-0.4c0-0.1-0.2-0.3-0.3-0.5l-0.1-0.1l0-0.1c0.1,0.2,0,0,0.1,0.1l0,0l0,0L32.3,30
                l-0.4-0.5l-3.3-4.2c-0.5-0.7-1.1-1.3-1.7-2.2c-0.3-0.4-0.4-1-0.4-1.6c0.1-0.6,0.3-1.1,0.6-1.4c0.6-0.8,1.2-1.3,1.8-2
                c0.6-0.6,1.2-1.3,1.7-2c1.1-1.4,2.2-2.8,3.1-4.3c0.2-0.4,0.3-0.8,0.3-1.2c0-0.4,0-0.9-0.1-1.3C34,8.7,33.7,8.4,33.5,8
                c-0.2-0.4-0.5-0.8-0.7-1.1C31.8,5.4,30.6,4.1,29.5,2.7z"/>
        </g>
        <g>
            <path fill="#FFFFFF" d="M13.1,53.5c-1.4-1.6-2.8-3.2-4.1-5c-2.7-3.5-2.6-5.7,0.3-9c1.1-1.2,2.1-2.4,3.2-3.6
                c2.5-2.6,2.4-4.5-0.4-6.9c-0.2-0.2-0.5-0.3-0.7-0.5c-4.1-3.9-6.1-6.9-1.5-11.9c1.2-1.3,2.1-2.9,3.2-4.2c1-1.2,1-2.2,0.4-3.3
                c-0.8,0.7-1.6,1.5-2.4,2.2c-0.2,1.1-0.7,2.1-1.7,3.3c-1.7,2-3.2,4.2-4.7,6.5c-0.3,0.5-0.3,1.5,0,2c1.6,2.6,3.4,5.1,5.2,7.6
                c1.6,2.2,1.6,3.7,0,5.8c-1.4,1.8-2.9,3.5-4.5,5.2c-1.8,1.9-1.8,2.7-0.1,4.7c1.7,2,3.3,4,5,6.1c1.3,1.5,1.3,3,0.1,4.6
                c-0.7,1-1.4,1.9-2.1,2.9c0.3,0.4,0.7,0.9,1,1.3c1.3-1.6,2.5-3.2,3.9-4.7C14.1,55.5,14.1,54.7,13.1,53.5z"/>
            <path fill="#FFFFFF" d="M13.1,53.5l-4.3-5.1c-0.7-0.9-1.3-1.8-1.7-2.9c-0.4-1.1-0.4-2.4,0.1-3.4c0.4-1.1,1.1-2.1,1.8-3l2.1-2.6
                c0.7-0.9,1.4-1.8,1.8-2.6c0.2-0.4,0.3-0.8,0.3-1.2c0-0.3-0.1-0.6-0.3-0.9c-0.2-0.3-0.5-0.6-0.8-0.9c-0.2-0.2-0.4-0.3-0.6-0.5
                l-0.1-0.1l-0.1-0.1l0,0l0,0c0.2,0.1,0,0,0.1,0.1l0,0l-0.4-0.2c-0.7-0.5-1-0.8-1.5-1.1c-0.5-0.4-0.9-0.8-1.3-1.2
                c-0.9-0.9-1.8-1.9-2.4-3.2c-0.7-1.4-0.8-3.2-0.4-4.8c0.4-1.5,1.1-2.8,1.9-3.9L7.5,15l0.1-0.2l0.1-0.1c-0.1,0.1,0.1-0.1-0.1,0.1
                l0,0l0,0l0,0l0.2-0.3L8.9,13c0.3-0.4,0.6-0.9,0.9-1.4l0.5-0.7l0.2-0.4l0.1-0.1l0,0l0,0l0,0c0,0-0.2,0.3-0.1,0.1l0.1-0.2l0.1-0.2
                l0.1-0.1c0,0,0,0,0,0c0,0-0.1,0.1-0.1,0.1c0,0,0,0,0,0.1c0,0.1,0,0.1,0,0.2c-0.1,0.3,0,0.5-0.1,0.3l5,0.9
                c-0.7,0.7-1.4,1.4-2.1,2.1l0.9-1.9c-0.4,2.2-1.4,3.7-2.3,4.9L10,19.6c-0.7,1-1.3,1.9-2,2.8l-0.2,0.3l-0.1,0.2L7.6,23l0,0l0,0
                c0.4-0.6,0.1-0.2,0.2-0.3l0,0.1l-0.1,0.1c0,0,0,0.1,0,0l0.1-0.1c0-0.1,0.1-0.2,0.1-0.3l0-0.2c0-0.1,0-0.2,0-0.2
                c0-0.1,0-0.1-0.1-0.4c0-0.1-0.1-0.1-0.1-0.2l-0.1-0.1l-0.1-0.1l0.1,0.2l0.2,0.4c0.7,1,1.3,2.1,1.9,3.1c0.6,1,1.3,2.1,1.9,3.1
                l0.5,0.8l0.3,0.4l0.2,0.4c0.1,0.2,0.1,0.2,0.3,0.5l0.3,0.7c0.2,0.4,0.3,1,0.5,1.4c0.1,0.5,0.1,1.1,0.1,1.7
                c-0.1,0.6-0.1,1.1-0.3,1.6c-0.1,0.2-0.2,0.5-0.3,0.7l-0.3,0.6c-0.2,0.4-0.5,0.7-0.7,1c-0.1,0.2-0.2,0.3-0.4,0.5l-0.3,0.3l-0.6,0.6
                l-1.3,1.3l-2.6,2.5l-0.6,0.6C6,43.8,5.8,44,5.8,44.1c-0.1,0.3-0.2,0-0.2,0.4c0.1,0.6,1,1.8,1.7,2.7l2.1,3l1,1.5l0.3,0.4
                c0.2,0.2,0.2,0.3,0.3,0.4c0.2,0.2,0.3,0.6,0.5,0.9c0.3,0.7,0.3,1.5,0.1,2.2c-0.2,0.7-0.6,1.3-1,1.8c-0.8,1-1.5,1.9-2.3,2.8l0-0.3
                l1,1.3l-0.3,0c0.5-0.6,1-1.2,1.6-1.9c0.5-0.6,1.1-1.2,1.6-1.8l0.8-0.9l0.4-0.5c0.1-0.2,0.2-0.3,0.3-0.5c0.1-0.2,0.1-0.4,0.2-0.6
                c0-0.2,0-0.4-0.1-0.6C13.6,54.1,13.3,53.8,13.1,53.5z M13.1,53.5c0.3,0.3,0.5,0.6,0.7,1c0.1,0.2,0.1,0.4,0.1,0.6
                c0,0.2-0.1,0.4-0.1,0.6c-0.1,0.2-0.2,0.4-0.3,0.5L13,56.7l-0.8,0.9c-0.5,0.6-1,1.2-1.5,1.9c-0.5,0.6-1,1.3-1.4,2l-0.1,0.2L9,61.5
                l-1.1-1.3l-0.1-0.1l0.1-0.2c0.7-1,1.3-2,2-3.1c0.3-0.5,0.5-1,0.6-1.5c0.1-0.5-0.1-1-0.3-1.4c-0.5-0.8-1.5-1.7-2.3-2.6l-2.6-2.6
                l-1.3-1.3l-0.7-0.8l-0.3-0.5c-0.1-0.2-0.2-0.3-0.3-0.6c-0.1-0.2-0.2-0.4-0.3-0.7c-0.1-0.3-0.1-0.6-0.1-0.9c0-0.3,0-0.6,0.1-0.9
                c0-0.3,0.2-0.5,0.2-0.7c0.2-0.5,0.4-0.8,0.7-1.2l0.5-0.8l2.1-3L7,36.2l0.5-0.7L7.8,35L8,34.8c0.1-0.2,0.2-0.4,0.3-0.5l0.1-0.2
                c0-0.1,0-0.1,0-0.2c0-0.2-0.1-0.2-0.1-0.3c-0.1-0.1-0.1-0.2-0.2-0.3c-0.1-0.1-0.1-0.1-0.3-0.4l-0.3-0.4l-0.1-0.1l0,0l0,0
                c0.1,0.1,0,0,0,0l0,0l-0.1-0.2l-0.6-0.7c-0.7-1-1.5-1.9-2.2-2.9c-0.7-1-1.5-1.9-2.2-2.9L2,25.3l-0.1-0.2l-0.1-0.2l-0.1-0.1
                l-0.1-0.2c-0.1-0.1-0.1-0.3-0.2-0.4C1.1,23.4,1,22.7,1,22.1c0-0.3,0-0.7,0.1-1.1c0-0.1,0.1-0.3,0.1-0.4c0-0.2,0.1-0.3,0.2-0.5
                l0.1-0.3l0-0.1l0-0.1l0.2-0.3l0,0l0.1-0.1L2,18.9l0.3-0.4c0.7-1.1,1.4-2.2,2.2-3.2l2.3-2.9c0.6-0.7,0.9-1.3,1-1.5l0.4-1.4L8.6,9
                c0.9-0.8,1.8-1.6,2.7-2.4L14.4,4l1.9,3.5c0.5,0.8,0.9,2.1,0.8,3.5c0,0.3-0.1,0.7-0.2,1c-0.1,0.3-0.2,0.6-0.3,0.9
                c-0.1,0.3-0.3,0.6-0.5,0.8l-0.1,0.2L15.9,14l-0.1,0.2l-1.2,1.4c-0.4,0.4-0.7,0.8-1.1,1.2L12.4,18l-0.3,0.3l-0.2,0.2l-0.1,0.1
                l-0.1,0.1l-0.5,0.5c-0.6,0.7-1.1,1.3-1.4,1.9c-0.3,0.6-0.4,1.1-0.2,1.8c0.2,0.7,0.6,1.5,1.2,2.3c0.3,0.4,0.6,0.8,0.9,1.2
                c0.3,0.4,0.8,0.9,1,1.1l0.3,0.3l0.1,0.1l0,0l0,0l0.1,0.1l0.2,0.2c0.2,0.2,0.4,0.5,0.6,0.7c0.4,0.5,0.8,1.1,1.1,1.8
                c0.3,0.7,0.4,1.5,0.3,2.3c-0.1,0.8-0.5,1.4-0.8,1.9c-0.8,1.1-1.7,1.8-2.4,2.5l-2.4,2.3c-0.8,0.8-1.5,1.6-1.9,2.5
                c-0.5,0.9-0.6,2-0.3,3.1c0.3,1,0.9,2,1.5,2.9C10.2,50.1,11.7,51.8,13.1,53.5z"/>
        </g>
        <g>
            <path fill="#FFFFFF" d="M65.1,45.6c-0.4-0.7-0.3-2,0.2-2.7c1.7-2.4,3.4-4.8,5.4-6.8c1.8-1.7,1.5-3.1,0.3-4.8
                c-1.6-2.2-3.2-4.5-4.7-6.8c-1.7-2.8-1.5-4.3,0.6-6.8c0.5-0.6,0.9-1.1,1.4-1.7c-0.3-0.5-0.7-0.9-1-1.4c-1.5,2.1-3,4.3-4.5,6.4
                c-0.8,1.1-0.7,2,0.1,3.1c1.8,2.5,3.5,5,5.4,7.5c1.3,1.8,1.3,3.3-0.3,4.9c-1.9,1.9-3.7,3.9-5.3,6.1c-0.5,0.7-0.6,2.3-0.2,3
                c2,3.1,4.3,6,6.4,8.9c1,1.4,0.8,2.5-0.4,3.7c-0.5,0.5-0.9,1.2-1.3,1.9c0.1,0,0.2,0,0.3-0.1c1.3-1.7,2.4-3.5,3.4-5.4
                c-0.2-0.5-0.5-1-0.9-1.5C68.2,50.8,66.6,48.2,65.1,45.6z"/>
            <path fill="#FFFFFF" d="M65.1,45.6c-0.3-0.7-0.3-1.4-0.1-2.1c0.1-0.4,0.3-0.7,0.5-1l0.6-0.9c0.4-0.6,0.8-1.2,1.2-1.8
                c0.4-0.6,0.9-1.2,1.3-1.8c0.4-0.6,0.9-1.1,1.4-1.7l0.4-0.4l0.3-0.4c0.3-0.3,0.4-0.6,0.5-0.8c0.2-0.6,0.2-1.1-0.1-1.7
                c-0.3-0.5-0.7-1.1-1.2-1.6L67.3,28l-1.4-1.7l-0.7-0.8l-0.7-1c-0.2-0.3-0.5-0.8-0.7-1.3c-0.1-0.5-0.4-0.9-0.4-1.5
                c0-0.3,0-0.6-0.1-0.9c0-0.3,0.1-0.6,0.1-0.8c0-0.3,0.1-0.5,0.2-0.8l0.3-0.7c0.2-0.4,0.4-0.8,0.7-1.2l0.7-1l1.2-1.8l-0.1,3.1
                l-1.1-1.2l4.3,0c-1.2,2-2.3,3.9-3.5,5.8l-0.5,0.7l-0.1,0.1l0,0c0-0.1-0.1,0.2,0.1-0.2l0,0l0,0L65.4,23l-0.1,0.2
                c0,0,0.1-0.1,0.1-0.1c0.1-0.2,0.1-0.3,0.2-0.5c0-0.2,0-0.4,0-0.5c0-0.1,0-0.1,0.1,0l0.4,0.6l1,1.4l2,2.7c0.3,0.5,0.7,0.9,1,1.4
                l1.1,1.6l0.2,0.4l0.1,0.2c0,0.1,0.1,0.1,0.2,0.3c0.3,0.5,0.6,1,0.7,1.6c0.1,0.3,0.2,0.6,0.2,0.8c0,0.3,0.1,0.6,0.1,1
                c0,0.6-0.1,1.3-0.3,1.9c-0.2,0.6-0.4,1.1-0.7,1.5c-0.1,0.2-0.3,0.4-0.4,0.6l-0.4,0.5l-0.2,0.2l-0.1,0.1l0,0c-0.1,0.1,0.1-0.1,0,0
                l0,0l0,0l-0.3,0.3l-0.6,0.6l-1.2,1.2c-0.4,0.4-0.8,0.8-1.2,1.2l-1.1,1.1l-0.5,0.6L65.2,44l-0.1,0.1l0,0l0,0l0,0
                c0.3-0.5,0.1-0.1,0.1-0.2l-0.1,0.1L65,44.3c0,0,0.1-0.1,0.1-0.1c0,0,0-0.1,0-0.1l0,0c0,0.1-0.1,0.2-0.1,0.3l0,0.1c0,0,0,0,0,0
                c0,0-0.1-0.2-0.2-0.2l0,0c-0.1-0.1,0,0,0-0.1l0,0l0,0l0.1,0.1l0.1,0.2l1.7,3c1.1,2,2.3,3.9,3.4,5.9l0.3,0.4l0.2,0.4
                c0.1,0.1,0.2,0.4,0.2,0.6c0.1,0.2,0.1,0.4,0.2,0.7c0.2,0.9-0.1,1.9-0.6,2.5c-0.2,0.3-0.5,0.6-0.7,0.8l-0.2,0.2l0,0
                c0,0,0.1-0.1,0-0.1l0,0l0,0l-0.1,0.1l-0.3,0.3c-0.2,0.3-0.6,0.8-1,1.3l-0.8-1.2l0.2,0L67,59.5c0.7-0.8,1.3-1.6,2-2.4
                c0.6-0.9,1.2-1.8,1.7-2.6l0,0.3l-0.3-0.6c-0.1-0.2-0.2-0.4-0.3-0.6l-0.7-1.1c-0.5-0.8-1-1.5-1.5-2.2c-0.2-0.4-0.5-0.7-0.7-1.1
                l-0.7-1.2L65.1,45.6z M65.1,45.6l1.4,2.3l0.7,1.1c0.2,0.4,0.5,0.7,0.8,1.1c0.5,0.7,1.1,1.4,1.6,2.1l0.8,1.1
                c0.1,0.2,0.3,0.4,0.4,0.6l0.4,0.6l0.1,0.1l-0.1,0.2l-1.4,2.9l-1.6,2.8l-0.1,0.2l-0.3,0.1l-0.3,0.1l-1.8,0.6l1-1.8
                c0.3-0.5,0.4-1,0.9-1.6l0.3-0.4l0.1-0.1l0,0l0,0c-0.1,0.1,0.1-0.1,0.1-0.1l0,0l0.1-0.1c0.2-0.2,0.2-0.4,0.3-0.5
                c0.1-0.3,0.1-0.5,0-0.8c0-0.1-0.1-0.1-0.1-0.2c0-0.1,0-0.1-0.1-0.2l-0.3-0.3l0,0c-0.1-0.1,0.1,0.1,0,0.1l0,0l0,0l-0.1-0.1L67.6,55
                c-1.5-1.7-3.2-3.4-4.6-5.1l-2.2-2.6l-0.1-0.2l-0.1-0.1l0,0l0,0c0,0,0,0.1-0.1-0.1l0-0.1c-0.2-0.3-0.4-0.8-0.5-1
                c-0.1-0.3-0.2-0.6-0.2-0.8c0-0.3-0.1-0.5-0.1-0.7c0-0.5,0-0.9,0.1-1.4l0.1-0.4c0-0.2,0.1-0.4,0.2-0.5c0.1-0.2,0.2-0.4,0.2-0.5
                l0.1-0.2l0-0.1l0.2-0.3l0.1-0.2l0.3-0.4l0.5-0.8l1.1-1.5c0.4-0.5,0.7-1,1.1-1.4l1.1-1.3l0.5-0.7l0.3-0.3l0,0l0,0
                c0,0,0.1-0.1,0.1-0.1l0,0l0,0l0.1-0.1c0-0.1,0.1-0.1,0.1-0.2c0,0,0-0.1,0-0.1c0.1-0.1,0,0,0,0c0,0,0,0.1,0,0.1c0,0,0,0.1,0,0.1
                c0,0,0,0.1,0,0.1c0,0,0,0,0,0c0,0,0,0,0,0c0,0,0-0.1-0.1-0.1l-0.1-0.2l-0.2-0.4l-0.9-1.2c-0.3-0.5-0.7-0.9-1-1.4l-2-2.8l-1-1.4
                l-0.5-0.8c-0.3-0.4-0.5-0.9-0.8-1.5c-0.2-0.6-0.4-1.4-0.3-2.2c0-0.4,0.1-0.8,0.2-1.1c0.1-0.3,0.2-0.7,0.4-1
                c0.1-0.2,0.2-0.4,0.3-0.5l0.1-0.2l0.1-0.2l0.1-0.2l0,0l0.1-0.1l0.5-0.7c1.4-1.8,2.9-3.5,4.3-5.3l2.5-3l1.8,2.9l1,1.6l1.1,1.8
                l-1.2,1.2l-1.6,1.5l-0.7,0.7l-0.5,0.6c-0.1,0.1-0.1,0.2-0.2,0.3c-0.1,0.1-0.1,0.2-0.1,0.2c0,0.1-0.1,0.1-0.1,0.2
                c0,0.1,0,0.2,0,0.2c-0.1,0.2,0,0.4,0,0.6c0.1,0.2,0.1,0.4,0.2,0.7l0.2,0.5l0.1,0.3l0.1,0.1l0,0l0,0c0,0-0.1-0.2-0.1-0.1l0,0l0,0.1
                l0.5,1l1,1.9l2.1,3.8c0.3,0.6,0.8,1.3,1,2.1c0.3,0.8,0.2,1.8-0.2,2.5c-0.2,0.3-0.5,0.7-0.8,0.9l-0.8,0.8c-0.5,0.5-1.1,1-1.5,1.5
                c-0.5,0.5-1,1.1-1.4,1.6c-0.4,0.6-0.9,1.1-1.3,1.7l-0.6,0.9c-0.2,0.3-0.4,0.6-0.5,0.9C64.9,44.1,64.8,44.9,65.1,45.6z"/>
        </g>
        <g>
            <path fill="#FFFFFF" d="M1.8,31.4c-0.2-0.3-0.4-0.5-0.7-0.8c-0.4,1.9-0.6,3.9-0.6,5.9c0.4-0.6,0.8-1.2,1.1-1.8
                C2.1,33.8,2.3,32.1,1.8,31.4z"/>
            <path fill="#FFFFFF" d="M1.8,31.4c-0.2-0.3-0.5-0.5-0.8-0.7l0.4-0.1c0.1,0.5,0.4,1.1,0.8,1.6c0.4,0.5,0.8,1.1,1.1,1.6
                c0.4,0.5,0.7,1,0.8,1.4c0.1,0.5,0.1,0.9-0.1,1.4l-6.2-2.1c0.3-0.2,0.7-0.4,1.2-0.5c0.3-0.1,0.5-0.1,0.8-0.2l0,0l0,0
                c0,0.1,0.1-0.1-0.1,0.1l0,0l0,0l0,0l0.1,0l0.1,0l0.2-0.1c0.2-0.1,0.2,0,0.3-0.1c0.2,0,0.5-0.2,0.7-0.4c0.1-0.1,0.2-0.2,0.3-0.3
                c0.1-0.1,0.1-0.2,0.2-0.3c0.1-0.2,0.2-0.4,0.2-0.7c0-0.1,0-0.2,0-0.3C1.9,31.6,1.8,31.5,1.8,31.4z M1.8,31.4
                c0.1,0.1,0.1,0.2,0.2,0.3c0,0.1,0.1,0.2,0.2,0.3c0.1,0.1,0.1,0.2,0.2,0.3l0.2,0.4l0.4,0.8C2.9,33.7,3,33.8,3.1,34
                c0.1,0.2,0.1,0.3,0.2,0.5c0.1,0.2,0.1,0.5,0.1,0.6l0.1,0.2l0,0.1l0,0.1l0,0l0,0l0,0c-0.1,0.2,0,0.1-0.1,0.1l0,0l0,0
                c0.1,0.3,0.1,0.7,0.1,1c0,0.6-0.1,1.3-0.3,1.8l-4,10.3l-2.1-12.4C-3,35.9-3,35.3-2.8,34.8c0.2-0.5,0.5-1,1-1.5
                c0.2-0.2,0.5-0.5,0.8-0.7l0.8-0.7c0.5-0.4,0.9-0.9,1.2-1.3l0.3-0.4l0.1,0.3C1.4,30.8,1.6,31.1,1.8,31.4z"/>
        </g>
        <g>
            <path fill="#FFFFFF" d="M62.8,65.1c0.7-0.7,1.4-1.3,2.1-2c-0.2-0.1-0.3-0.2-0.4-0.3C63.9,63.5,63.4,64.3,62.8,65.1z"/>
            <path fill="#FFFFFF" d="M62.8,65.1c-0.1-0.3-0.3-0.6-0.4-0.9c-0.1-0.3-0.2-0.5-0.2-0.8c-0.1-0.2-0.1-0.5-0.1-0.7
                c0-0.2,0-0.4-0.1-0.6c0-0.7,0.1-1.2,0.4-1.6l0.3,5.2c-0.2-0.1-0.4-0.2-0.5-0.4l5.1-0.7c-0.2,0.2-0.4,0.3-0.6,0.4
                c-0.2,0.1-0.6,0.2-0.9,0.2c-0.2,0-0.4,0-0.6,0c-0.2,0-0.4,0-0.7,0c-0.3,0-0.5,0-0.8-0.1C63.5,65.3,63.2,65.2,62.8,65.1z
                 M62.8,65.1c-0.2-0.3-0.4-0.6-0.5-0.8c-0.2-0.3-0.2-0.5-0.4-0.7c-0.1-0.2-0.2-0.4-0.3-0.6c-0.1-0.2-0.1-0.4-0.2-0.6
                c-0.1-0.3-0.1-0.7-0.1-0.9c0-0.3,0.1-0.5,0.2-0.7l1.3-2.6l3.8,1.9c0.1,0.1,0.2,0.2,0.3,0.3l2.9,3.4l-2.6,1.9
                c-0.4,0.3-0.9,0.4-1.6,0.4c-0.2,0-0.4,0-0.6-0.1c-0.2,0-0.4-0.1-0.7-0.2c-0.3-0.1-0.5-0.1-0.7-0.2C63.5,65.4,63.2,65.3,62.8,65.1z
                "/>
        </g>
    </symbol>



    <symbol id="icon-clinical-proof" viewBox="0 0 68 68">
        <path opacity="0.15" fill="#8E9BA3" d="M52.7,50.8l-2.3-4.2c-0.7,0.6-1.3,1.2-2.1,1.8c-4.2,3.3-7.8,3.7-12.6,4.4
            c-3.5,0.5-9.4-1.2-12.3-3.7c-2-1.7-3.5-3-4.7-4.5l-3.5,6.3c-0.2,0.3-0.6,1-0.6,1c-0.5,1-0.8,2.1-0.8,3.2c0,6.6,9,12,20,12
            s20-5.4,20-12c0-1.1-0.3-2.2-0.8-3.2C53.3,51.8,52.9,51.1,52.7,50.8z"/>
        <path fill="#3899D0" d="M52.1,49.2c0,0-0.3-0.6-0.5-0.8L39.2,28.8v-2.8c-3.4-0.1-6.9-0.2-10.3-0.3v3.2L16.4,48.4
            c-0.2,0.3-0.5,0.8-0.5,0.8c-0.5,0.9-0.7,1.8-0.7,2.7c0,5.5,8.4,9.9,18.8,9.9s18.8-4.4,18.8-9.9C52.8,51,52.6,50.1,52.1,49.2z"/>
        <path fill="#3899D0" d="M39.2,27.1V16.2H28.8v10.6C32.3,26.9,35.7,27,39.2,27.1z"/>
        <g>
            <path fill="#43BBFF" d="M50.3,50.5c-0.1-0.2-0.3-0.5-0.4-0.6l0-0.1l-6-9.5c-2.2,1.6-5.6,2.9-9.8,2.9c-4.2,0-7.6-1.2-9.8-2.9
                l-6,9.5l0,0.1c-0.1,0.1-0.2,0.4-0.4,0.6c-0.3,0.5-0.4,1-0.4,1.4c0,3.1,6.3,7.5,16.7,7.5c10.3,0,16.7-4.4,16.7-7.5
                C50.7,51.5,50.5,51,50.3,50.5z"/>
        </g>
        <path opacity="0.2" fill="#8E9BA3" d="M28.8,23.1C30.3,23.7,32,24,34,24c2,0,3.7-0.4,5.2-0.9v-6.9H28.8V23.1z"/>
        <path fill="#3F7FAF" d="M41.4,14.7c-1.4-1.4-4.2-2.4-7.4-2.4c-3.2,0-6,1-7.4,2.4h-0.9v2c0,2.4,3.7,4.4,8.3,4.4c4.6,0,8.3-2,8.3-4.4
            v-2H41.4z"/>
        <ellipse fill="#3899D0" cx="34" cy="14.7" rx="8.3" ry="4.4"/>
        <ellipse fill="#3F7FAF" cx="34" cy="14.7" rx="5.3" ry="2.8"/>
        <path fill="#F6F6F6" d="M26,52.9c0,0-0.1,0-0.1,0c-4.8-0.8-6.5-4.3-6.5-4.5c-0.1-0.3,0-0.7,0.3-0.8c0.3-0.1,0.7,0,0.8,0.3
            c0.1,0.1,1.5,3.1,5.7,3.8c0.3,0.1,0.6,0.4,0.5,0.7C26.5,52.7,26.3,52.9,26,52.9z"/>
        <ellipse opacity="0.3" fill="#206E91" cx="34" cy="40.3" rx="9.7" ry="4.2"/>
        <path fill="#F6F6F6" d="M28.6,48.2c0,0-0.1,0-0.1,0c-4.8-0.8-6.5-3.9-6.5-4.1c-0.2-0.3,0-0.7,0.3-0.8c0.3-0.2,0.7,0,0.8,0.2
            c0.1,0.1,1.5,2.7,5.7,3.4c0.3,0.1,0.6,0.4,0.5,0.7C29.1,48,28.9,48.2,28.6,48.2z"/>
        <path fill="#F6F6F6" d="M30.9,43.6C30.9,43.6,30.9,43.6,30.9,43.6c-4.8-0.4-6.6-3.3-6.6-3.4c-0.2-0.3-0.1-0.7,0.2-0.8
            c0.3-0.2,0.7-0.1,0.8,0.2c0.1,0.1,1.5,2.5,5.6,2.8c0.3,0,0.6,0.3,0.6,0.7C31.5,43.4,31.2,43.6,30.9,43.6z"/>
        <circle fill="#43BBFF" cx="39.7" cy="4.8" r="3.8"/>
        <circle fill="#43BBFF" cx="30.4" cy="9.5" r="2.5"/>
        <circle fill="#43BBFF" cx="36.6" cy="14.7" r="2"/>
    </symbol>



    <symbol id="icon-dairy-free" viewBox="0 0 50 70">
        <g>
            <g>
                <g>
                    <circle fill="#0EAFAF" cx="25" cy="25.6" r="25"/>
                </g>
                <g>
                    <g>
                        <path fill="#FFFFFF" d="M26.7,17.6c-4.1-1-2.8-4.8-2.8-4.8l-1.7-3l-4.8,2.8l-4.8,2.8l1.7,3c0,0,4,0.8,2.8,4.8
                            c-0.8,3.1,1.1,5.8,2,7.4l4.8,8.2c0,0,2.2,3.8,8.6-0.2c6.6-3.6,4.4-7.4,4.4-7.4L32.2,23C31.3,21.5,29.9,18.5,26.7,17.6z
                             M35.1,31.4c0,0,1.8,3-3.5,5.8c-5,3.1-6.8,0.1-6.8,0.1l-3.7-6.4L31.4,25L35.1,31.4z"/>
                    </g>
                </g>
            </g>
            <g>
                <g>
                    <g>
                        <g>
                            <path fill="#0A8E8A" d="M25,4.6c11.5,0,21,9.4,21,20.9c0,11.6-9.3,21-20.9,21.1l-0.1,0c-11.5,0-21-9.4-21-20.9
                                C4,14.1,13.3,4.7,25,4.6L25,4.6 M25,0.6C25,0.6,24.9,0.6,25,0.6C11.1,0.7-0.1,11.9,0,25.7c0.1,13.8,11.2,24.9,25,24.9
                                c0,0,0.1,0,0.1,0C38.9,50.6,50,39.4,50,25.6C49.9,11.8,38.8,0.6,25,0.6L25,0.6z"/>
                        </g>
                    </g>
                </g>
                <line fill="none" stroke="#0A8E8A" stroke-width="4" stroke-miterlimit="10" x1="41.6" y1="9" x2="8.4" y2="42.3"/>
            </g>
        </g>
        <g>
            <path fill="#61666B" d="M6.7,59.7c1.9,0,2.9,0.9,2.9,3.6c0,2.7-1,3.6-2.9,3.6H4.6v-7.2H6.7z M6.7,66.2c1.4,0,2.2-0.6,2.2-3
                c0-2.4-0.8-3-2.2-3H5.4v5.9H6.7z"/>
            <path fill="#61666B" d="M12.6,61.5c1.4,0,1.8,0.7,1.8,2v3.3c0,0-0.1,0-0.3,0c-0.2,0-0.3,0-0.3,0l-0.1-0.8C13.4,66.6,12.8,67,12,67
                c-0.9,0-1.5-0.5-1.5-1.6c0-1,0.6-1.6,1.9-1.6c0.6,0,1.1,0,1.3,0.1v-0.5c0-0.8-0.4-1.2-1.2-1.2c-0.7,0-1.4,0.2-1.4,0.2
                c0,0-0.1-0.1-0.2-0.2c-0.1-0.2-0.1-0.3-0.1-0.3C10.8,61.8,11.6,61.5,12.6,61.5z M12.4,64.3c-0.8,0-1.2,0.3-1.2,1c0,0.7,0.4,1,1,1
                c0.9,0,1.4-0.7,1.4-1.6v-0.4C13.4,64.4,12.9,64.3,12.4,64.3z"/>
            <path fill="#61666B" d="M16.5,60.5c0,0-0.1,0-0.4,0c-0.3,0-0.4,0-0.4,0v-0.7c0,0,0.1,0,0.4,0c0.3,0,0.4,0,0.4,0V60.5z M16.4,66.8
                c0,0-0.1,0-0.4,0c-0.3,0-0.4,0-0.4,0v-5.2c0,0,0.1,0,0.4,0c0.2,0,0.4,0,0.4,0V66.8z"/>
            <path fill="#61666B" d="M19.9,61.5c0.4,0,0.7,0.1,0.9,0.2c0,0.3-0.1,0.5-0.3,0.6c-0.2-0.1-0.4-0.2-0.7-0.2c-0.5,0-0.9,0.4-1.2,1
                v3.6c0,0-0.1,0-0.4,0s-0.4,0-0.4,0v-5.2c0,0,0.1,0,0.4,0s0.4,0,0.4,0v0.8C19,61.7,19.5,61.5,19.9,61.5z"/>
            <path fill="#61666B" d="M23.5,67.8c-0.3,1-0.7,1.5-1.5,1.5c-0.3,0-0.5-0.1-0.5-0.1c0,0-0.1-0.1-0.1-0.3c0-0.1,0.1-0.3,0.1-0.3
                c0,0,0.2,0,0.4,0c0.4,0,0.7-0.2,1-1.1l0.3-0.8c-0.1,0-0.2,0-0.2,0l-2-5.1c0,0,0.1,0,0.4,0s0.4,0,0.4,0l1.3,3.4
                c0.2,0.6,0.4,1.1,0.4,1.1h0c0,0,0.1-0.4,0.3-1.1l1.2-3.4c0,0,0.1,0,0.4,0c0.2,0,0.4,0,0.4,0L23.5,67.8z"/>
            <path fill="#61666B" d="M29.3,66.8c0,0-0.1,0.1-0.4,0.1c-0.2,0-0.4-0.1-0.4-0.1v-7.1h3.9c0,0.1,0.1,0.2,0.1,0.3
                c0,0.1,0,0.2-0.1,0.3h-3.2V63h2.8c0,0.1,0.1,0.2,0.1,0.3c0,0.1,0,0.2-0.1,0.3h-2.8V66.8z"/>
            <path fill="#61666B" d="M35.3,61.5c0.4,0,0.7,0.1,0.9,0.2c0,0.3-0.1,0.5-0.3,0.6c-0.2-0.1-0.4-0.2-0.7-0.2c-0.5,0-0.9,0.4-1.2,1
                v3.6c0,0-0.1,0-0.4,0s-0.4,0-0.4,0v-5.2c0,0,0.1,0,0.4,0s0.4,0,0.4,0v0.8C34.4,61.7,34.9,61.5,35.3,61.5z"/>
            <path fill="#61666B" d="M37.2,64.5c0.1,1.4,0.6,1.9,1.5,1.9c0.8,0,1.2-0.3,1.2-0.3c0.1,0.1,0.2,0.3,0.3,0.5c0,0-0.5,0.4-1.6,0.4
                c-1.4,0-2.2-0.9-2.2-2.8c0-1.9,0.9-2.7,2.1-2.7c1.2,0,1.9,0.7,1.9,1.9c0,0.6-0.1,1-0.1,1H37.2z M38.6,62.1c-0.8,0-1.3,0.5-1.4,1.8
                h2.5c0-0.1,0-0.3,0-0.6C39.8,62.7,39.5,62.1,38.6,62.1z"/>
            <path fill="#61666B" d="M42.1,64.5c0.1,1.4,0.6,1.9,1.5,1.9c0.8,0,1.2-0.3,1.2-0.3c0.1,0.1,0.2,0.3,0.3,0.5c0,0-0.5,0.4-1.6,0.4
                c-1.4,0-2.2-0.9-2.2-2.8c0-1.9,0.9-2.7,2.1-2.7c1.2,0,1.9,0.7,1.9,1.9c0,0.6-0.1,1-0.1,1H42.1z M43.5,62.1c-0.8,0-1.3,0.5-1.4,1.8
                h2.5c0-0.1,0-0.3,0-0.6C44.7,62.7,44.3,62.1,43.5,62.1z"/>
        </g>
    </symbol>



    <symbol id="icon-gluten-free" viewBox="0 0 50 70">
        <g>
            <g>
                <g>
                    <circle fill="#EC892C" cx="25" cy="26.1" r="25"/>
                </g>
                <g>
                    <path fill="#FFFFFF" d="M18.1,32.7c4.5-2.3,10-0.6,12.3,3.9C25.9,38.9,20.4,37.1,18.1,32.7z"/>
                    <path fill="#FFFFFF" d="M35.8,27c-4.5,2.3-6.2,7.9-3.9,12.3C36.4,37.1,38.2,31.5,35.8,27z"/>
                    <path fill="#FFFFFF" d="M16.4,26.4c3.8-2,8.5-0.5,10.5,3.3C23,31.6,18.3,30.2,16.4,26.4z"/>
                    <path fill="#FFFFFF" d="M31.7,22c-3.8,2-5.3,6.7-3.3,10.5C32.2,30.5,33.6,25.8,31.7,22z"/>
                    <path fill="#FFFFFF" d="M15.3,20.8c3-1.6,6.7-0.4,8.3,2.6C20.6,25,16.9,23.9,15.3,20.8z"/>
                    <path fill="#FFFFFF" d="M27.7,18c-3,1.6-4.2,5.3-2.6,8.3C28.1,24.7,29.3,21,27.7,18z"/>
                    <path fill="#FFFFFF" d="M18.9,12.4c-1.1,3.5,0.8,7.3,4.4,8.4C24.4,17.2,22.4,13.5,18.9,12.4z"/>
                </g>
            </g>
            <g>
                <g>
                    <g>
                        <g>
                            <path fill="#CE6328" d="M25,5.1c11.5,0,21,9.4,21,20.9c0,5.6-2.1,10.9-6.1,14.9c-4,4-9.2,6.2-14.8,6.2l-0.1,0
                                c-11.5,0-21-9.4-21-20.9C4,14.6,13.3,5.1,25,5.1L25,5.1 M25,1.1C25,1.1,24.9,1.1,25,1.1C11.1,1.1,0,12.4,0,26.2
                                C0.1,40,11.2,51.1,25,51.1c0,0,0.1,0,0.1,0C38.9,51,50.1,39.8,50,26C49.9,12.2,38.8,1.1,25,1.1L25,1.1z"/>
                        </g>
                    </g>
                </g>
                <line fill="none" stroke="#CE6328" stroke-width="4" stroke-miterlimit="10" x1="41.6" y1="9.5" x2="8.4" y2="42.7"/>
            </g>
        </g>
        <g>
            <path fill="#61666B" d="M4.8,61.5c1.2,0,1.8,0.3,1.8,0.3c0,0.2-0.1,0.4-0.2,0.5c0,0-0.7-0.2-1.5-0.2c-1.3,0-2.2,0.7-2.2,3.1
                c0,2.4,1,3,2.2,3c0.5,0,1-0.1,1.2-0.1v-2.6H4.4c0,0-0.1-0.1-0.1-0.3c0-0.2,0.1-0.3,0.1-0.3h2.3v3.7c0,0-0.7,0.3-2,0.3
                c-1.9,0-2.9-1.2-2.9-3.7C1.9,62.8,2.9,61.5,4.8,61.5z"/>
            <path fill="#61666B" d="M8.8,68.8c0,0-0.1,0-0.4,0c-0.3,0-0.4,0-0.4,0v-7.4c0,0,0.1,0,0.4,0c0.2,0,0.4,0,0.4,0V68.8z"/>
            <path fill="#61666B" d="M10.2,63.6c0,0,0.1,0,0.4,0c0.2,0,0.4,0,0.4,0v3.7c0,0.7,0.4,1,1.1,1c0.5,0,1.1-0.3,1.4-0.9v-3.8
                c0,0,0.1,0,0.4,0c0.2,0,0.4,0,0.4,0v5.2c0,0-0.1,0-0.4,0c-0.2,0-0.4,0-0.4,0v-0.6c-0.4,0.5-1,0.8-1.7,0.8c-1,0-1.5-0.6-1.5-1.5
                V63.6z"/>
            <path fill="#61666B" d="M16.5,67c0,1,0.3,1.3,1.1,1.3c0.2,0,0.5,0,0.5,0s0.1,0.1,0.1,0.3c0,0.2,0,0.3,0,0.3
                c-0.1,0-0.4,0.1-0.7,0.1c-1.2,0-1.6-0.7-1.6-1.9v-2.9H15c0,0,0-0.1,0-0.3c0-0.2,0-0.3,0-0.3h0.8v-1c0.2-0.1,0.5-0.2,0.7-0.2v1.1
                h1.4c0,0,0,0.1,0,0.3c0,0.2,0,0.3,0,0.3h-1.4V67z"/>
            <path fill="#61666B" d="M19.4,66.4c0.1,1.4,0.6,1.9,1.5,1.9c0.8,0,1.2-0.3,1.2-0.3c0.1,0.1,0.2,0.3,0.3,0.5c0,0-0.5,0.4-1.6,0.4
                c-1.4,0-2.2-0.9-2.2-2.8c0-1.9,0.9-2.7,2.1-2.7c1.2,0,1.9,0.7,1.9,1.9c0,0.6-0.1,1-0.1,1H19.4z M20.8,64c-0.8,0-1.3,0.5-1.4,1.8
                h2.5c0-0.1,0-0.3,0-0.6C22,64.6,21.6,64,20.8,64z"/>
            <path fill="#61666B" d="M27.7,68.8c0,0-0.1,0-0.4,0c-0.2,0-0.4,0-0.4,0v-3.7c0-0.7-0.4-1-1.1-1c-0.5,0-1.1,0.3-1.4,0.9v3.8
                c0,0-0.1,0-0.4,0c-0.2,0-0.4,0-0.4,0v-5.2c0,0,0.1,0,0.4,0c0.2,0,0.4,0,0.4,0v0.6c0.4-0.5,1-0.8,1.7-0.8c1,0,1.5,0.6,1.5,1.5V68.8
                z"/>
            <path fill="#61666B" d="M32,68.7c0,0-0.1,0.1-0.4,0.1s-0.4-0.1-0.4-0.1v-7.1h3.9c0,0.1,0.1,0.2,0.1,0.3c0,0.1,0,0.2-0.1,0.3H32V65
                h2.8c0,0.1,0.1,0.2,0.1,0.3c0,0.1,0,0.2-0.1,0.3H32V68.7z"/>
            <path fill="#61666B" d="M38,63.5c0.4,0,0.7,0.1,0.9,0.2c0,0.3-0.1,0.5-0.3,0.6c-0.2-0.1-0.4-0.2-0.7-0.2c-0.5,0-0.9,0.4-1.2,1v3.6
                c0,0-0.1,0-0.4,0s-0.4,0-0.4,0v-5.2c0,0,0.1,0,0.4,0s0.4,0,0.4,0v0.8C37.1,63.7,37.6,63.5,38,63.5z"/>
            <path fill="#61666B" d="M40,66.4c0.1,1.4,0.6,1.9,1.5,1.9c0.8,0,1.2-0.3,1.2-0.3c0.1,0.1,0.2,0.3,0.3,0.5c0,0-0.5,0.4-1.6,0.4
                c-1.4,0-2.2-0.9-2.2-2.8c0-1.9,0.9-2.7,2.1-2.7c1.2,0,1.9,0.7,1.9,1.9c0,0.6-0.1,1-0.1,1H40z M41.4,64c-0.8,0-1.3,0.5-1.4,1.8h2.5
                c0-0.1,0-0.3,0-0.6C42.5,64.6,42.2,64,41.4,64z"/>
            <path fill="#61666B" d="M44.8,66.4c0.1,1.4,0.6,1.9,1.5,1.9c0.8,0,1.2-0.3,1.2-0.3c0.1,0.1,0.2,0.3,0.3,0.5c0,0-0.5,0.4-1.6,0.4
                c-1.4,0-2.2-0.9-2.2-2.8c0-1.9,0.9-2.7,2.1-2.7c1.2,0,1.9,0.7,1.9,1.9c0,0.6-0.1,1-0.1,1H44.8z M46.2,64c-0.8,0-1.3,0.5-1.4,1.8
                h2.5c0-0.1,0-0.3,0-0.6C47.4,64.6,47.1,64,46.2,64z"/>
        </g>
    </symbol>



    <symbol id="icon-guarantee" viewBox="0 0 68 68">
        <path opacity="0.1" fill="#8E9BA3" d="M20.3,39.3v10.6c0,4.5,6.1,8.2,13.6,8.2c7.5,0,13.6-3.7,13.6-8.2V39.3H20.3z"/>
        <ellipse fill="#EC892C" cx="34" cy="28.2" rx="19.1" ry="18.2"/>
        <rect x="14.9" y="27" fill="#EC892C" width="38.2" height="7.8"/>
        <g>
            <path fill="#E47830" d="M51,15.6c1.4,1.4,2.1,7.1-1.3,10.5c-3.4,3.4-5.9-3.2-5.9-3.2s-6.6-2.5-3.2-5.9S49.6,14.1,51,15.6z"/>
            <path fill="#E47830" d="M17,15.6c-1.4,1.4-2.1,7.1,1.3,10.5c3.4,3.4,5.9-3.2,5.9-3.2s6.6-2.5,3.2-5.9C24,13.5,18.4,14.1,17,15.6z"
                />
        </g>
        <path fill="#E8E8E8" d="M26.1,17.9c0,0-4.1-2.4-7.6-0.7c0,0-1.6,2.5,0.3,6.9c2.3,5.3,7.3-1.4,7.3-1.4L26.1,17.9z"/>
        <path fill="#E8E8E8" d="M41.9,17.9c0,0,4.1-2.4,7.6-0.7c0,0,1.6,2.5-0.3,6.9c-2.3,5.3-7.3-1.4-7.3-1.4L41.9,17.9z"/>
        <path fill="#EC892C" d="M20.6,46.9c0,0-1.2,3.6,1.2,6.7h2.8c0,0,0.4-2.8,1.3-3.3c0.9-0.6-0.7-5.4-0.7-5.4L20.6,46.9z"/>
        <path fill="#E47830" d="M20.6,46.9c0,0-0.3,0.9-0.3,2.2c1.3,1.2,3,2.1,4.8,2.6c0.2-0.6,0.5-1.2,0.8-1.4c0.9-0.6-0.7-5.4-0.7-5.4
            L20.6,46.9z"/>
        <path fill="#EC892C" d="M47.1,46.9c0,0,1.2,3.6-1.2,6.7h-2.8c0,0-0.4-2.8-1.3-3.3c-0.9-0.6,0.7-5.4,0.7-5.4L47.1,46.9z"/>
        <path fill="#E47830" d="M47.1,46.9c0,0,0.3,0.9,0.3,2.2c-1.3,1.2-3,2.1-4.8,2.6c-0.2-0.6-0.5-1.2-0.8-1.4c-0.9-0.6,0.7-5.4,0.7-5.4
            L47.1,46.9z"/>
        <ellipse fill="#EC892C" cx="34" cy="34" rx="19.1" ry="18.2"/>
        <ellipse fill="#E47830" cx="34" cy="42.3" rx="7.5" ry="5.8"/>
        <g>
            <ellipse fill="#F6F6F6" cx="24.6" cy="32.7" rx="1.7" ry="2.1"/>
            <ellipse fill="#F6F6F6" cx="43.4" cy="32.7" rx="1.7" ry="2.1"/>
        </g>
        <ellipse fill="#CE6328" cx="30" cy="42.9" rx="1.1" ry="1.8"/>
        <ellipse fill="#CE6328" cx="38.1" cy="42.9" rx="1.1" ry="1.8"/>
        <rect x="32.8" y="13" fill="#E47830" width="2.4" height="6.5"/>
        <ellipse fill="#EC892C" cx="23.2" cy="53.6" rx="1.4" ry="0.5"/>
        <ellipse fill="#EC892C" cx="44.5" cy="53.6" rx="1.4" ry="0.5"/>
    </symbol>



    <symbol id="icon-multi-nutrient" viewBox="0 0 68 68">
        <g>
            <path fill-rule="evenodd" clip-rule="evenodd" fill="#EBEDED" d="M24.5,48c-2.3,2.2-3.8,5.1-5.3,8c-1.4-0.4-2.6-1.1-3.3-2.4
                c-0.2-0.3-0.1-0.6,0.1-0.9c3.5-5.7,8.1-10.2,14-13.4c2.4-1.3,4.9-2.6,7.4-3.9c3-1.6,5.8-3.6,7.8-6.4c1-1.3,1.8-2.8,2.6-4.2
                c0.1-0.1,0.1-0.2,0.1-0.4c-0.2,0.3-0.3,0.5-0.5,0.8c-2.4,2.7-4.6,5-7.8,6.6c-2.6,1.3-5.2,2.6-7.8,3.7c-3.5,1.5-6.8,3.2-9.7,5.6
                c-0.6,0.5-1.2,1.1-1.9,1.6c-1-2.1-1.5-4.3-1.3-6.6c0.6-5.8,3.7-9.7,9-12.1c2.8-1.2,5.7-1.9,8.6-2.6c1.8-0.4,3.6-0.8,5.4-1.2
                c3.6-1,6.8-2.5,9.1-5.7c0.1,0.2,0.2,0.3,0.2,0.4c2.5,4.6,3.6,9.4,3.2,14.6c-0.2,3.5-1.2,6.8-2.8,9.9C48.6,44.8,44,48.2,38,49.5
                c-3.5,0.8-7,0.9-10.5-0.3C26.5,48.9,25.5,48.4,24.5,48z"/>
        </g>
        <g>
            <path fill-rule="evenodd" clip-rule="evenodd" fill="#569345" d="M22.3,45.5c-2.3,2.2-3.8,5.1-5.3,8c-1.4-0.4-2.6-1.1-3.3-2.4
                c-0.2-0.3-0.1-0.6,0.1-0.9c3.5-5.7,8.1-10.2,14-13.4c2.4-1.3,4.9-2.6,7.4-3.9c3-1.6,5.8-3.6,7.8-6.4c1-1.3,1.8-2.8,2.6-4.2
                c0.1-0.1,0.1-0.2,0.1-0.4c-0.2,0.3-0.3,0.5-0.5,0.8c-2.4,2.7-4.6,5-7.8,6.6c-2.6,1.3-5.2,2.6-7.8,3.7c-3.5,1.5-6.8,3.2-9.7,5.6
                c-0.6,0.5-1.2,1.1-1.9,1.6c-1-2.1-1.5-4.3-1.3-6.6c0.6-5.8,3.7-9.7,9-12.1c2.8-1.2,5.7-1.9,8.6-2.6c1.8-0.4,3.6-0.8,5.4-1.2
                c3.6-1,6.8-2.5,9.1-5.7c0.1,0.2,0.2,0.3,0.2,0.4c2.5,4.6,3.6,9.4,3.2,14.6c-0.2,3.5-1.2,6.8-2.8,9.9c-2.9,5.5-7.5,8.8-13.5,10.1
                c-3.5,0.8-7,0.9-10.5-0.3C24.3,46.4,23.4,45.9,22.3,45.5z"/>
        </g>
        <path fill="#45733B" d="M48.7,12c0,0-2.5,9.5-3,9.9c-1.7,1.4-2,5.4-16.2,11c-10.2,4-11.6,7.2-11.6,7.2s-4.6-7.7,2.6-15.9
            C27.7,16.1,39.8,21.9,48.7,12z"/>
        <path opacity="0.3" fill="#34592C" d="M48.7,12c0,0-0.1,13.3-14.7,18.8c-9.3,3.5-16.1,8.6-16.1,8.6s5.3-10.6,15.3-12.8
            C43.3,24.5,47.9,14.4,48.7,12z"/>
    </symbol>



    <symbol id="icon-soy-free" viewBox="0 0 50 70">
        <g>
            <g>
                <g>
                    <circle fill="#82B76E" cx="25" cy="25.1" r="25"/>
                </g>
                <g>
                    <g>
                        <path fill="#FFFFFF" d="M25.2,21.7l3.1,5.2c1.3-0.8,1.6-2.6,0.8-4C28.3,21.5,26.5,21,25.2,21.7z"/>
                    </g>
                    <g>
                        <path fill="#FFFFFF" d="M28.8,27.7l3.1,5.2c1.3-0.8,1.6-2.6,0.8-4C31.8,27.5,30.1,27,28.8,27.7z"/>
                    </g>
                    <g>
                        <path fill="#FFFFFF" d="M21.5,15.6l3.1,5.2c1.3-0.8,1.6-2.6,0.8-4C24.6,15.4,22.9,14.9,21.5,15.6z"/>
                    </g>
                    <g>
                        <path fill="#FFFFFF" d="M17.1,11.9c-5.3,3.2-6,11.5-1.6,18.9c4.4,7.4,12,10.7,17.4,7.6c5.3-3.2,6-11.5,1.6-18.9
                            C30,12.1,22.4,8.8,17.1,11.9z M31.9,36.6L18.1,13.7c4.3-2.5,10.8,0.5,14.6,6.9C36.5,26.9,36.1,34.1,31.9,36.6z"/>
                    </g>
                </g>
            </g>
            <g>
                <g>
                    <g>
                        <g>
                            <path fill="#569345" d="M25,4.1c11.5,0,21,9.4,21,20.9c0,5.6-2.1,10.9-6.1,14.9s-9.2,6.2-14.8,6.2l-0.1,0
                                c-11.5,0-21-9.4-21-20.9C4,13.6,13.3,4.2,25,4.1L25,4.1 M25,0.1C25,0.1,24.9,0.1,25,0.1C11.1,0.2,0,11.4,0,25.2
                                C0.1,39,11.2,50.1,25,50.1c0,0,0.1,0,0.1,0c13.8-0.1,25-11.3,24.9-25.1C50,11.3,38.8,0.1,25,0.1L25,0.1z"/>
                        </g>
                    </g>
                </g>
                <line fill="none" stroke="#569345" stroke-width="4" stroke-miterlimit="10" x1="41.6" y1="8.5" x2="8.4" y2="41.8"/>
            </g>
        </g>
        <g>
            <path fill="#61666B" d="M10.1,60.1c1.1,0,1.9,0.3,1.9,0.3c0,0.2-0.1,0.4-0.2,0.6c0,0-0.7-0.2-1.6-0.2c-1.2,0-1.7,0.5-1.7,1.3
                c0,0.9,0.8,1.1,1.8,1.4c1,0.3,1.9,0.7,1.9,2c0,1.3-0.9,2-2.4,2c-1.3,0-2.1-0.4-2.1-0.4c0-0.2,0.1-0.4,0.2-0.6c0,0,0.9,0.3,1.8,0.3
                c1.1,0,1.7-0.5,1.7-1.3c0-0.9-0.7-1.1-1.5-1.4c-1.1-0.3-2.3-0.6-2.3-2C7.7,60.9,8.5,60.1,10.1,60.1z"/>
            <path fill="#61666B" d="M15.2,62c1.3,0,2.1,0.8,2.1,2.7c0,2-0.8,2.7-2.1,2.7s-2.1-0.7-2.1-2.7C13.1,62.8,13.9,62,15.2,62z
                 M15.2,62.6c-0.9,0-1.4,0.5-1.4,2.2c0,1.7,0.5,2.2,1.4,2.2c0.9,0,1.4-0.5,1.4-2.2C16.6,63.1,16.1,62.6,15.2,62.6z"/>
            <path fill="#61666B" d="M20.4,68.3c-0.3,1-0.7,1.5-1.5,1.5c-0.3,0-0.5-0.1-0.5-0.1c0,0-0.1-0.1-0.1-0.3c0-0.1,0-0.3,0.1-0.3
                c0,0,0.2,0,0.4,0c0.4,0,0.7-0.2,1-1.1l0.3-0.8c-0.1,0-0.2,0-0.2,0l-2-5.1c0,0,0.1,0,0.4,0c0.2,0,0.4,0,0.4,0l1.3,3.4
                c0.2,0.6,0.4,1.1,0.4,1.1h0c0,0,0.1-0.4,0.3-1.1l1.2-3.4c0,0,0.1,0,0.4,0c0.2,0,0.4,0,0.4,0L20.4,68.3z"/>
            <path fill="#61666B" d="M26.2,67.3c0,0-0.1,0.1-0.4,0.1c-0.2,0-0.4-0.1-0.4-0.1v-7.1h3.9c0,0.1,0.1,0.2,0.1,0.3
                c0,0.1,0,0.2-0.1,0.3h-3.2v2.7H29c0,0.1,0.1,0.2,0.1,0.3c0,0.1,0,0.2-0.1,0.3h-2.8V67.3z"/>
            <path fill="#61666B" d="M32.2,62c0.4,0,0.7,0.1,0.9,0.2c0,0.3-0.1,0.5-0.3,0.6c-0.2-0.1-0.4-0.2-0.7-0.2c-0.5,0-0.9,0.4-1.2,1v3.6
                c0,0-0.1,0-0.4,0s-0.4,0-0.4,0v-5.2c0,0,0.1,0,0.4,0s0.4,0,0.4,0V63C31.3,62.2,31.8,62,32.2,62z"/>
            <path fill="#61666B" d="M34.1,65c0.1,1.4,0.6,1.9,1.5,1.9c0.8,0,1.2-0.3,1.2-0.3c0.1,0.1,0.2,0.3,0.3,0.5c0,0-0.5,0.4-1.6,0.4
                c-1.4,0-2.2-0.9-2.2-2.8c0-1.9,0.9-2.7,2.1-2.7c1.2,0,1.9,0.7,1.9,1.9c0,0.6-0.1,1-0.1,1H34.1z M35.5,62.6c-0.8,0-1.3,0.5-1.4,1.8
                h2.5c0-0.1,0-0.3,0-0.6C36.7,63.2,36.4,62.6,35.5,62.6z"/>
            <path fill="#61666B" d="M39,65c0.1,1.4,0.6,1.9,1.5,1.9c0.8,0,1.2-0.3,1.2-0.3c0.1,0.1,0.2,0.3,0.3,0.5c0,0-0.5,0.4-1.6,0.4
                c-1.4,0-2.2-0.9-2.2-2.8c0-1.9,0.9-2.7,2.1-2.7c1.2,0,1.9,0.7,1.9,1.9c0,0.6-0.1,1-0.1,1H39z M40.4,62.6c-0.8,0-1.3,0.5-1.4,1.8
                h2.5c0-0.1,0-0.3,0-0.6C41.6,63.2,41.2,62.6,40.4,62.6z"/>
        </g>
    </symbol>



    <symbol id="icon-vegan" viewBox="0 0 50 70">
        <circle fill="#477737" cx="24.4" cy="26" r="23.6"/>
        <g>
            <g>
                <g>
                    <g>
                        <path fill="#3E6834" d="M25,4.9c11.5,0,21,9.4,21,20.9c0,5.6-2.1,10.9-6.1,14.9c-4,4-9.2,6.2-14.8,6.2l-0.1,0
                            C13.5,46.9,4,37.5,4,26C4,14.4,13.3,4.9,25,4.9L25,4.9 M25,0.9C25,0.9,24.9,0.9,25,0.9C11.1,0.9,0,12.2,0,26
                            c0.1,13.8,11.2,24.9,25,24.9c0,0,0.1,0,0.1,0c13.8-0.1,25-11.3,24.9-25.1C50,12,38.8,0.9,25,0.9L25,0.9z"/>
                    </g>
                </g>
            </g>
            <path fill="none" stroke="#3E6834" stroke-width="4" stroke-miterlimit="10" d="M8.4,42.5"/>
            <path fill="none" stroke="#3E6834" stroke-width="4" stroke-miterlimit="10" d="M41.6,9.3"/>
        </g>
        <g>
            <g>
                <path fill-rule="evenodd" clip-rule="evenodd" fill="#FFFFFF" d="M31.3,34.3c1.5,1.4,2.5,3.3,3.5,5.2c0.9-0.3,1.7-0.7,2.2-1.6
                    c0.1-0.2,0.1-0.4,0-0.6c-2.3-3.7-5.3-6.7-9.2-8.8c-1.6-0.9-3.2-1.7-4.8-2.5c-2-1.1-3.8-2.4-5.2-4.2c-0.7-0.9-1.2-1.8-1.7-2.8
                    c0-0.1-0.1-0.1,0-0.2c0.1,0.2,0.2,0.3,0.3,0.5c1.6,1.8,3,3.3,5.1,4.3c1.7,0.8,3.4,1.7,5.2,2.4c2.3,1,4.5,2.1,6.4,3.7
                    c0.4,0.3,0.8,0.7,1.2,1.1c0.7-1.4,1-2.8,0.8-4.3c-0.4-3.8-2.5-6.3-5.9-7.9c-1.8-0.8-3.7-1.3-5.7-1.7c-1.2-0.3-2.4-0.5-3.5-0.8
                    c-2.4-0.6-4.5-1.6-6-3.7c-0.1,0.1-0.1,0.2-0.2,0.2c-1.6,3-2.3,6.1-2.1,9.5c0.2,2.3,0.8,4.4,1.9,6.4c1.9,3.6,4.9,5.8,8.9,6.6
                    c2.3,0.5,4.6,0.6,6.9-0.2C30,34.8,30.7,34.5,31.3,34.3z"/>
            </g>
            <g>
                <path fill="#61666B" d="M14.7,64.8c0.2,0.5,0.2,0.9,0.2,0.9h0c0,0,0.1-0.4,0.3-0.9l1.9-5.3c0,0,0.1-0.1,0.3-0.1
                    c0.2,0,0.4,0.1,0.4,0.1l-2.5,7.1c0,0-0.2,0-0.4,0c-0.2,0-0.4,0-0.4,0L12,59.5c0,0,0.1-0.1,0.4-0.1c0.2,0,0.3,0.1,0.3,0.1
                    L14.7,64.8z"/>
                <path fill="#61666B" d="M18.6,64.2c0.1,1.4,0.6,1.9,1.5,1.9c0.8,0,1.2-0.3,1.2-0.3c0.1,0.1,0.2,0.3,0.3,0.5c0,0-0.5,0.4-1.6,0.4
                    c-1.4,0-2.2-0.9-2.2-2.8c0-1.9,0.9-2.7,2.1-2.7c1.2,0,1.9,0.7,1.9,1.9c0,0.6-0.1,1-0.1,1H18.6z M20,61.8c-0.8,0-1.3,0.5-1.4,1.8
                    h2.5c0-0.1,0-0.3,0-0.6C21.1,62.4,20.8,61.8,20,61.8z"/>
                <path fill="#61666B" d="M27,61.3c0.1,0.2,0.1,0.4,0,0.6l-0.9,0c0.2,0.3,0.3,0.7,0.3,1.1c0,1.1-0.7,1.7-1.9,1.7
                    c-0.2,0-0.4,0-0.5-0.1c-0.1,0.2-0.3,0.4-0.3,0.7c0.1,1,3.2,0,3.2,2c0,0.9-0.9,1.7-2.5,1.7c-1.4,0-2-0.6-2-1.4
                    c0-0.8,0.6-1.3,0.9-1.4c-0.1-0.1-0.2-0.3-0.2-0.6c0-0.4,0.3-0.8,0.5-1.1c-0.6-0.3-0.9-0.8-0.9-1.6c0-1.1,0.7-1.8,1.9-1.8
                    c0.4,0,0.8,0.1,1.1,0.2L27,61.3z M23.8,66.5c-0.4,0.3-0.6,0.7-0.6,1.1c0,0.6,0.4,1,1.3,1c1.1,0,1.8-0.4,1.8-1
                    C26.3,66.5,24.7,66.8,23.8,66.5z M24.6,61.8c-0.7,0-1.2,0.4-1.2,1.2c0,0.8,0.5,1.2,1.2,1.2c0.7,0,1.2-0.4,1.2-1.2
                    C25.8,62.2,25.3,61.8,24.6,61.8z"/>
                <path fill="#61666B" d="M29.6,61.2c1.4,0,1.8,0.7,1.8,2v3.3c0,0-0.1,0-0.3,0c-0.2,0-0.3,0-0.3,0l-0.1-0.8
                    c-0.3,0.6-0.9,0.9-1.7,0.9c-0.9,0-1.5-0.5-1.5-1.6c0-1,0.6-1.6,1.9-1.6c0.6,0,1.1,0,1.3,0.1v-0.5c0-0.8-0.4-1.2-1.2-1.2
                    c-0.7,0-1.4,0.2-1.4,0.2c0,0-0.1-0.1-0.2-0.2c-0.1-0.2,0-0.3,0-0.3C27.9,61.6,28.7,61.2,29.6,61.2z M29.5,64.1
                    c-0.8,0-1.2,0.3-1.2,1c0,0.7,0.4,1,1,1c0.9,0,1.4-0.7,1.4-1.6v-0.4C30.5,64.1,30,64.1,29.5,64.1z"/>
                <path fill="#61666B" d="M36.7,66.6c0,0-0.1,0-0.4,0c-0.2,0-0.4,0-0.4,0v-3.7c0-0.7-0.4-1-1.1-1c-0.6,0-1.1,0.3-1.4,0.9v3.8
                    c0,0-0.1,0-0.4,0c-0.2,0-0.4,0-0.4,0v-5.2c0,0,0.1,0,0.4,0c0.2,0,0.4,0,0.4,0V62c0.4-0.5,1-0.8,1.7-0.8c1,0,1.5,0.6,1.5,1.5V66.6
                    z"/>
            </g>
        </g>
    </symbol>

    <symbol id="icon-artificial-color-free" viewBox="0 0 54.4 82.8">
        <circle fill="#BC73AF" cx="27.2" cy="27.4" r="26.7"/>
        <g>
            <path fill="#952A90" d="M27.2,3.6c13.2,0,23.9,10.7,23.9,23.9S40.4,51.3,27.2,51.3S3.4,40.6,3.4,27.4
                S14.1,3.6,27.2,3.6 M27.2,0.8C12.5,0.8,0.5,12.7,0.5,27.4s11.9,26.7,26.7,26.7c14.7,0,26.7-11.9,26.7-26.7S42,0.8,27.2,0.8
                L27.2,0.8z"/>
            <path fill="#952A90" d="M27.2,54.7C12.2,54.7,0,42.5,0,27.4c0-15,12.2-27.2,27.2-27.2c15,0,27.2,12.2,27.2,27.2
                C54.4,42.5,42.2,54.7,27.2,54.7z M27.2,1.3C12.8,1.3,1.1,13,1.1,27.4c0,14.4,11.7,26.1,26.1,26.1c14.4,0,26.1-11.7,26.1-26.1
                C53.4,13,41.6,1.3,27.2,1.3z M27.2,51.9c-13.5,0-24.4-10.9-24.4-24.4C2.8,14,13.8,3,27.2,3S51.6,14,51.6,27.4
                C51.6,40.9,40.7,51.9,27.2,51.9z M27.2,4.1C14.4,4.1,3.9,14.6,3.9,27.4s10.5,23.3,23.3,23.3s23.3-10.5,23.3-23.3
                S40.1,4.1,27.2,4.1z"/>
        </g>
        <path fill="#FFFFFF" d="M42.3,37.6l-11-15.9c-1.2-1.5-1.3-3.7-1.3-3.7V9.6c0.6-0.1,1.1-0.5,1.1-1c0-0.6-0.5-1-1.2-1
            h-5.5c-0.7,0-1.2,0.5-1.2,1c0,0.6,0.5,1,1.2,1v8.3c0,0-0.1,2.3-1.3,3.7l-11,15.9c0,0-0.7,1.1-0.3,2.3c0.2,0.8,0.9,1.3,1.7,1.4h13.8
            h13.8c1,0,1.6-0.6,1.8-1.2C43.1,38.5,42.3,37.6,42.3,37.6z M42.1,38.5c0.6,1.1-0.3,2-0.6,1.2c0,0-0.8-1.3-0.9-1.4L29.1,22
            c-1.4-1.8-0.9-4.4-0.9-4.5l0-0.1V8.7h1.2l0,9.4l0,0.1c0,0.1,0.1,2.7,1.5,4.4"/>
        <g>
            <g>
                    <rect x="25.8" y="2.4" transform="matrix(0.7071 0.7071 -0.7071 0.7071 27.3799 -11.2064)" fill="#952A90" width="2.8" height="50.2"/>
                <path fill="#952A90" d="M10.5,46.9l-2.8-2.8L44,8l2.8,2.8L10.5,46.9z M9.3,44.2l1.2,1.2l34.7-34.7L44,9.5
                    L9.3,44.2z"/>
            </g>
        </g>
        <g>
            <path fill="#666766" d="M10.6,68.4l-0.8,2.3h-1l2.5-7.4h1.2l2.5,7.4h-1l-0.8-2.3H10.6z M13,67.6l-0.7-2.1c-0.2-0.5-0.3-0.9-0.4-1.4
                h0c-0.1,0.4-0.2,0.9-0.4,1.3l-0.7,2.1H13z"/>
            <path fill="#666766" d="M16,67c0-0.6,0-1.2,0-1.7h0.8l0,1h0c0.2-0.7,0.8-1.2,1.5-1.2c0.1,0,0.2,0,0.3,0v0.9c-0.1,0-0.2,0-0.3,0
                c-0.7,0-1.2,0.5-1.3,1.2c0,0.1,0,0.3,0,0.5v2.8h-1V67z"/>
            <path fill="#666766" d="M21.1,63.9v1.5h1.4v0.7h-1.4V69c0,0.7,0.2,1,0.7,1c0.3,0,0.4,0,0.6-0.1l0,0.7c-0.2,0.1-0.5,0.1-0.9,0.1
                c-0.5,0-0.8-0.1-1-0.4c-0.3-0.3-0.4-0.8-0.4-1.4v-2.9h-0.8v-0.7h0.8v-1.3L21.1,63.9z"/>
            <path fill="#666766" d="M24.6,63.9c0,0.3-0.2,0.6-0.6,0.6c-0.3,0-0.6-0.3-0.6-0.6c0-0.3,0.3-0.6,0.6-0.6
                C24.4,63.3,24.6,63.5,24.6,63.9z M23.5,70.7v-5.3h1v5.3H23.5z"/>
            <path fill="#666766" d="M26.2,70.7v-4.6h-0.7v-0.7h0.7v-0.3c0-1.4,0.8-2.3,2.3-2.3c0.5,0,1.1,0.2,1.4,0.4l-0.3,0.7
                c-0.2-0.2-0.6-0.3-1.1-0.3c-1,0-1.3,0.7-1.3,1.6v0.3h3.1v5.3h-1v-4.6h-2.1v4.6H26.2z"/>
            <path fill="#666766" d="M35.7,70.5c-0.3,0.1-0.8,0.3-1.5,0.3c-1.6,0-2.7-1.1-2.7-2.7c0-1.6,1.1-2.8,2.9-2.8c0.6,0,1.1,0.1,1.3,0.3
                l-0.2,0.7c-0.2-0.1-0.6-0.3-1.1-0.3c-1.2,0-1.9,0.9-1.9,2c0,1.2,0.8,2,1.8,2c0.5,0,0.9-0.1,1.2-0.3L35.7,70.5z"/>
            <path fill="#666766" d="M37.9,63.9c0,0.3-0.2,0.6-0.6,0.6c-0.3,0-0.6-0.3-0.6-0.6c0-0.3,0.3-0.6,0.6-0.6
                C37.6,63.3,37.9,63.5,37.9,63.9z M36.8,70.7v-5.3h1v5.3H36.8z"/>
            <path fill="#666766" d="M42.3,70.7L42.2,70h0c-0.3,0.4-0.9,0.8-1.6,0.8c-1.1,0-1.6-0.8-1.6-1.5c0-1.3,1.1-2,3.2-2v-0.1
                c0-0.4-0.1-1.2-1.2-1.2c-0.5,0-1,0.2-1.4,0.4l-0.2-0.6c0.4-0.3,1.1-0.5,1.7-0.5c1.6,0,2,1.1,2,2.2v2c0,0.5,0,0.9,0.1,1.3H42.3z
                M42.2,68c-1.1,0-2.3,0.2-2.3,1.2c0,0.6,0.4,0.9,0.9,0.9c0.7,0,1.1-0.4,1.3-0.9c0-0.1,0.1-0.2,0.1-0.3V68z"/>
            <path fill="#666766" d="M44.7,62.9h1v7.8h-1V62.9z"/>
        </g>
        <g>
            <g>
                <path fill="#666766" d="M9.8,82.4c-0.4,0.2-1.1,0.4-2,0.4c-2.1,0-3.7-1.3-3.7-3.8c0-2.3,1.6-3.9,3.9-3.9
                    c0.9,0,1.5,0.2,1.8,0.3l-0.2,0.8c-0.4-0.2-0.9-0.3-1.5-0.3c-1.7,0-2.9,1.1-2.9,3.1c0,1.8,1,3,2.8,3c0.6,0,1.2-0.1,1.6-0.3
                    L9.8,82.4z"/>
                <path fill="#666766" d="M15.6,80c0,2-1.4,2.8-2.7,2.8c-1.4,0-2.6-1.1-2.6-2.7c0-1.8,1.2-2.8,2.6-2.8
                    C14.6,77.2,15.6,78.3,15.6,80z M11.4,80c0,1.2,0.7,2,1.6,2c0.9,0,1.6-0.9,1.6-2.1c0-0.9-0.5-2-1.6-2C11.9,78,11.4,79,11.4,80z"/>
                <path fill="#666766" d="M16.9,74.9h1v7.8h-1V74.9z"/>
                <path fill="#666766" d="M24.3,80c0,2-1.4,2.8-2.7,2.8c-1.4,0-2.6-1.1-2.6-2.7c0-1.8,1.2-2.8,2.6-2.8
                    C23.2,77.2,24.3,78.3,24.3,80z M20,80c0,1.2,0.7,2,1.6,2c0.9,0,1.6-0.9,1.6-2.1c0-0.9-0.5-2-1.6-2C20.5,78,20,79,20,80z"/>
                <path fill="#666766" d="M25.5,79c0-0.6,0-1.2,0-1.7h0.8l0,1h0c0.2-0.7,0.8-1.2,1.5-1.2c0.1,0,0.2,0,0.3,0v0.9
                    c-0.1,0-0.2,0-0.3,0c-0.7,0-1.2,0.5-1.3,1.2c0,0.1,0,0.3,0,0.5v2.8h-1V79z"/>
            </g>
            <g>
                <path fill="#666766" d="M31.9,75.3h4v0.8h-3v2.5h2.8v0.8h-2.8v3.4h-1V75.3z"/>
                <path fill="#666766" d="M37,79c0-0.6,0-1.2,0-1.7h0.8l0,1h0c0.2-0.7,0.8-1.2,1.5-1.2c0.1,0,0.2,0,0.3,0v0.9
                    c-0.1,0-0.2,0-0.3,0c-0.7,0-1.2,0.5-1.3,1.2c0,0.1,0,0.3,0,0.5v2.8h-1V79z"/>
                <path fill="#666766" d="M41,80.2c0,1.3,0.9,1.8,1.8,1.8c0.7,0,1.1-0.1,1.5-0.3l0.2,0.7c-0.3,0.2-0.9,0.3-1.8,0.3
                    c-1.6,0-2.6-1.1-2.6-2.7c0-1.6,0.9-2.9,2.5-2.9c1.7,0,2.2,1.5,2.2,2.5c0,0.2,0,0.4,0,0.5H41z M43.8,79.5c0-0.6-0.3-1.6-1.3-1.6
                    c-1,0-1.4,0.9-1.5,1.6H43.8z"/>
                <path fill="#666766" d="M46.5,80.2c0,1.3,0.9,1.8,1.8,1.8c0.7,0,1.1-0.1,1.5-0.3l0.2,0.7c-0.3,0.2-0.9,0.3-1.8,0.3
                    c-1.6,0-2.6-1.1-2.6-2.7c0-1.6,0.9-2.9,2.5-2.9c1.7,0,2.2,1.5,2.2,2.5c0,0.2,0,0.4,0,0.5H46.5z M49.3,79.5c0-0.6-0.3-1.6-1.3-1.6
                    c-1,0-1.4,0.9-1.5,1.6H49.3z"/>
            </g>
        </g>
    </symbol>



    <symbol id="icon-wheat-free" viewBox="0 0 54.9 71.3">
      <circle fill="#AF956A" cx="27.2" cy="27.9" r="26.7"/>
        <g>
            <path fill="#FFFFFF" d="M20,13.9c-1.3-2.1-5.4-3.9-5.4-3.9s-0.1,4.6,1.3,6.7c1.3,2.1,5.6,3.8,5.6,3.8
                S21.4,16,20,13.9z"/>
            <path fill="#FFFFFF" d="M25.1,27.1c0,0-1.4-4.3-3.4-5.8c-1.9-1.6-6.4-2.1-6.4-2.1s1.3,4.5,3.2,6
                C20.5,26.7,25.1,27.1,25.1,27.1z"/>
            <path fill="#FFFFFF" d="M28.6,21.2c0,0-1.9,4.1-1.6,6.5c0.1,0.5,0.2,1.1,0.4,1.6c-0.4-0.4-0.9-0.8-1.3-1
                c-2.1-1.3-6.6-1.1-6.6-1.1s1.9,4.2,4.1,5.4c1.8,1.1,5.3,1,6.4,1c0.1,0.1,0.1,0.1,0.1,0.1s0-0.1,0.1-0.1c0.1,0,0.2,0,0.2,0
                s0-0.1-0.1-0.2c0.5-1,1.9-4.2,1.6-6.2C31.7,24.6,28.6,21.2,28.6,21.2z"/>
            <path fill="#FFFFFF" d="M30.7,34.3c-2.4-0.5-5.6,0.1-5.6,0.1s2.5,3.9,4.8,4.8c1.5,0.6,2.7,0.2,3.3-0.2L40.5,49
                l1.2-0.8l-7.3-10.2c0.6-0.6,1.2-1.5,1.2-2.6c0.1-2.5-2.5-6.3-2.5-6.3S31.2,31.9,30.7,34.3z"/>
            <path id="XMLID_33_" fill="#FFFFFF" d="M26.4,26.2c0,0,1.5-4.4,0.8-6.7C26.6,17,23,14.1,23,14.1s-1.3,4.3-0.6,6.7
                C23.1,23.2,26.4,26.2,26.4,26.2z"/>
        </g>
        <g>
            <g>
                <path fill="#9B6D29" d="M27.2,4.1c13.2,0,23.9,10.7,23.9,23.9S40.4,51.8,27.2,51.8S3.4,41.1,3.4,27.9
                    S14.1,4.1,27.2,4.1 M27.2,1.3C12.5,1.3,0.5,13.2,0.5,27.9s11.9,26.7,26.7,26.7c14.7,0,26.7-11.9,26.7-26.7S42,1.3,27.2,1.3
                    L27.2,1.3z"/>
                <path fill="#9B6D29" d="M27.2,55.2C12.2,55.2,0,42.9,0,27.9c0-15,12.2-27.2,27.2-27.2c15,0,27.2,12.2,27.2,27.2
                    C54.4,42.9,42.2,55.2,27.2,55.2z M27.2,1.8C12.8,1.8,1.1,13.5,1.1,27.9c0,14.4,11.7,26.1,26.1,26.1c14.4,0,26.1-11.7,26.1-26.1
                    C53.4,13.5,41.6,1.8,27.2,1.8z M27.2,52.3c-13.5,0-24.4-10.9-24.4-24.4S13.8,3.5,27.2,3.5s24.4,10.9,24.4,24.4
                    S40.7,52.3,27.2,52.3z M27.2,4.6C14.4,4.6,3.9,15.1,3.9,27.9s10.5,23.3,23.3,23.3s23.3-10.5,23.3-23.3S40.1,4.6,27.2,4.6z"/>
            </g>
        </g>
        <g>
            <g>
                    <rect x="25.8" y="2.9" transform="matrix(0.7071 0.7071 -0.7071 0.7071 27.7263 -11.0625)" fill="#9B6D29" width="2.8" height="50.2"/>
                <path fill="#9B6D29" d="M10.5,47.4l-2.8-2.8L44,8.4l2.8,2.8L10.5,47.4z M9.2,44.7l1.2,1.2l34.7-34.7L44,10
                    L9.2,44.7z"/>
            </g>
        </g>
        <g>
            <path fill="#666766" d="M3.8,71l-1.9-7.4h1l0.9,3.8c0.2,0.9,0.4,1.8,0.6,2.6h0c0.1-0.7,0.4-1.6,0.6-2.6l1-3.7h1
                l0.9,3.8c0.2,0.9,0.4,1.8,0.5,2.5h0C8.6,69,8.8,68.2,9,67.3l1-3.7h1L8.9,71h-1L7,67.1c-0.2-0.9-0.4-1.7-0.5-2.4h0
                c-0.1,0.7-0.3,1.5-0.6,2.4L4.8,71H3.8z"/>
            <path fill="#666766" d="M11.8,63.1h1v3.3h0c0.2-0.3,0.4-0.5,0.7-0.7c0.3-0.2,0.6-0.3,1-0.3c0.7,0,1.9,0.4,1.9,2.3
                V71h-1v-3.1c0-0.9-0.3-1.6-1.2-1.6c-0.6,0-1.1,0.4-1.3,1c-0.1,0.1-0.1,0.3-0.1,0.5V71h-1V63.1z"/>
            <path fill="#666766" d="M18.5,68.5c0,1.3,0.9,1.8,1.8,1.8c0.7,0,1.1-0.1,1.5-0.3l0.2,0.7c-0.3,0.2-0.9,0.3-1.8,0.3
                c-1.6,0-2.6-1.1-2.6-2.7c0-1.6,0.9-2.9,2.5-2.9c1.7,0,2.2,1.5,2.2,2.5c0,0.2,0,0.4,0,0.5H18.5z M21.3,67.8c0-0.6-0.3-1.6-1.3-1.6
                c-1,0-1.4,0.9-1.5,1.6H21.3z"/>
            <path fill="#666766" d="M26.4,71l-0.1-0.7h0c-0.3,0.4-0.9,0.8-1.6,0.8c-1.1,0-1.6-0.8-1.6-1.5c0-1.3,1.1-2,3.2-2
                v-0.1c0-0.4-0.1-1.2-1.2-1.2c-0.5,0-1,0.2-1.4,0.4L23.4,66c0.4-0.3,1.1-0.5,1.7-0.5c1.6,0,2,1.1,2,2.2v2c0,0.5,0,0.9,0.1,1.3H26.4z
                M26.2,68.2c-1.1,0-2.3,0.2-2.3,1.2c0,0.6,0.4,0.9,0.9,0.9c0.7,0,1.1-0.4,1.3-0.9c0-0.1,0.1-0.2,0.1-0.3V68.2z"/>
            <path fill="#666766" d="M29.9,64.1v1.5h1.4v0.7h-1.4v2.9c0,0.7,0.2,1,0.7,1c0.3,0,0.4,0,0.6-0.1l0,0.7
                c-0.2,0.1-0.5,0.1-0.9,0.1c-0.5,0-0.8-0.1-1-0.4c-0.3-0.3-0.4-0.8-0.4-1.4v-2.9h-0.8v-0.7h0.8v-1.3L29.9,64.1z"/>
            <path fill="#666766" d="M34.7,63.5h4v0.8h-3v2.5h2.8v0.8h-2.8V71h-1V63.5z"/>
            <path fill="#666766" d="M39.7,67.3c0-0.6,0-1.2,0-1.7h0.8l0,1h0c0.2-0.7,0.8-1.2,1.5-1.2c0.1,0,0.2,0,0.3,0v0.9
                c-0.1,0-0.2,0-0.3,0c-0.7,0-1.2,0.5-1.3,1.2c0,0.1,0,0.3,0,0.5V71h-1V67.3z"/>
            <path fill="#666766" d="M43.8,68.5c0,1.3,0.9,1.8,1.8,1.8c0.7,0,1.1-0.1,1.5-0.3l0.2,0.7c-0.3,0.2-0.9,0.3-1.8,0.3
                c-1.6,0-2.6-1.1-2.6-2.7c0-1.6,0.9-2.9,2.5-2.9c1.7,0,2.2,1.5,2.2,2.5c0,0.2,0,0.4,0,0.5H43.8z M46.6,67.8c0-0.6-0.3-1.6-1.3-1.6
                c-1,0-1.4,0.9-1.5,1.6H46.6z"/>
            <path fill="#666766" d="M49.3,68.5c0,1.3,0.9,1.8,1.8,1.8c0.7,0,1.1-0.1,1.5-0.3l0.2,0.7c-0.3,0.2-0.9,0.3-1.8,0.3
                c-1.6,0-2.6-1.1-2.6-2.7c0-1.6,0.9-2.9,2.5-2.9c1.7,0,2.2,1.5,2.2,2.5c0,0.2,0,0.4,0,0.5H49.3z M52.1,67.8c0-0.6-0.3-1.6-1.3-1.6
                c-1,0-1.4,0.9-1.5,1.6H52.1z"/>
        </g>
    </symbol>



    <symbol id="share-facebook" viewBox="0 0 32 32">
        <path fill="#3b5998" d="M16,0.5C7.4,0.5,0.5,7.4,0.5,16c0,8.6,6.9,15.5,15.5,15.5c8.6,0,15.5-6.9,15.5-15.5
        C31.5,7.4,24.6,0.5,16,0.5z M19.3,16h-2.2c0,3.5,0,7.7,0,7.7h-3.2c0,0,0-4.2,0-7.7h-1.5v-2.7h1.5v-1.8c0-1.3,0.6-3.2,3.2-3.2l2.4,0
        v2.7c0,0-1.4,0-1.7,0c-0.3,0-0.7,0.1-0.7,0.7v1.6h2.5L19.3,16z"/>
    </symbol>

    <symbol id="share-twitter" viewBox="0 0 32 32">
        <path fill="#1da1f2" d="M16,0.5C7.4,0.5,0.5,7.4,0.5,16c0,8.6,6.9,15.5,15.5,15.5c8.6,0,15.5-6.9,15.5-15.5
        C31.5,7.4,24.6,0.5,16,0.5z M22.2,12.8c0,0.1,0,0.3,0,0.4c0,4.2-3.2,9-9,9c-1.8,0-3.5-0.5-4.9-1.4c0.2,0,0.5,0,0.8,0
        c1.5,0,2.9-0.5,3.9-1.4c-1.4,0-2.6-0.9-3-2.2c0.2,0,0.4,0.1,0.6,0.1c0.3,0,0.6,0,0.8-0.1C10,17,8.9,15.7,8.9,14.2c0,0,0,0,0,0
        c0.4,0.2,0.9,0.4,1.4,0.4C9.5,14,8.9,13,8.9,11.9c0-0.6,0.2-1.1,0.4-1.6c1.6,1.9,3.9,3.2,6.6,3.3c-0.1-0.2-0.1-0.5-0.1-0.7
        c0-1.8,1.4-3.2,3.2-3.2c0.9,0,1.7,0.4,2.3,1c0.7-0.1,1.4-0.4,2-0.8c-0.2,0.7-0.7,1.4-1.4,1.8c0.6-0.1,1.3-0.2,1.8-0.5
        C23.3,11.8,22.8,12.4,22.2,12.8z"/>
    </symbol>



    <symbol id="share-pinterest" viewBox="0 0 32 32">
        <path fill="#bd081c" d="M16,0.5C7.4,0.5,0.5,7.4,0.5,16c0,8.6,6.9,15.5,15.5,15.5S31.5,24.6,31.5,16C31.5,7.4,24.6,0.5,16,0.5z
        M17.6,19.5c-1,0-1.9-0.5-2.2-1.1c0,0-0.5,2.1-0.6,2.4c-0.4,1.4-1.5,2.8-1.6,2.9c-0.1,0.1-0.2,0.1-0.2-0.1c0-0.2-0.3-1.9,0-3.4
        c0.2-0.7,1.1-4.9,1.1-4.9s-0.3-0.6-0.3-1.4c0-1.3,0.8-2.3,1.7-2.3c0.8,0,1.2,0.6,1.2,1.3c0,0.8-0.5,2-0.8,3.2
        c-0.2,0.9,0.5,1.7,1.4,1.7c1.7,0,2.8-2.2,2.8-4.7c0-2-1.3-3.4-3.7-3.4c-2.7,0-4.4,2-4.4,4.3c0,0.8,0.2,1.3,0.6,1.7
        c0.2,0.2,0.2,0.3,0.1,0.5c0,0.2-0.1,0.6-0.2,0.7c-0.1,0.2-0.2,0.3-0.4,0.2c-1.2-0.5-1.8-1.9-1.8-3.4c0-2.5,2.1-5.6,6.4-5.6
        c3.4,0,5.6,2.5,5.6,5.1C22.4,16.8,20.5,19.5,17.6,19.5z"/>
    </symbol>

    <symbol id="share-email" viewBox="0 0 32 32">
        <path fill="#BDBEC0" d="M16 0c-8.837 0-16 7.163-16 16s7.163 16 16 16 16-7.163 16-16-7.163-16-16-16zM8 8h16c0.286 0 0.563 0.061 0.817 0.177l-8.817 10.286-8.817-10.287c0.254-0.116 0.531-0.177 0.817-0.177zM6 22v-12c0-0.042 0.002-0.084 0.004-0.125l5.864 6.842-5.8 5.8c-0.045-0.167-0.069-0.34-0.069-0.517zM24 24h-16c-0.177 0-0.35-0.024-0.517-0.069l5.691-5.691 2.826 3.297 2.826-3.297 5.691 5.691c-0.167 0.045-0.34 0.069-0.517 0.069zM26 22c0 0.177-0.024 0.35-0.069 0.517l-5.8-5.8 5.865-6.842c0.003 0.041 0.004 0.083 0.004 0.125v12z"></path>
    </symbol>

</svg>