<?xml version="1.0" encoding="utf-8"?>
<!-- Generator: Adobe Illustrator 22.1.0, SVG Export Plug-In . SVG Version: 6.00 Build 0)  -->
<svg version="1.1" id="Layer_1" xmlns="http://www.w3.org/2000/svg" xmlns:xlink="http://www.w3.org/1999/xlink" x="0px" y="0px"
	 viewBox="0 0 275 112" style="enable-background:new 0 0 275 112;" xml:space="preserve"><defs xmlns="http://www.w3.org/2000/svg"><style type="text/css"><![CDATA[@font-face {font-family: 'GloberBook';src: url('/assets/fonts/webfonts/316613_0_0.eot');src: url('/assets/fonts/webfonts/316613_0_0.eot?#iefix') format('embedded-opentype'),url('/assets/fonts/webfonts/316613_0_0.woff2') format('woff2'),url('/assets/fonts/webfonts/316613_0_0.woff') format('woff'),url('/assets/fonts/webfonts/316613_0_0.ttf') format('truetype');}@font-face {font-family: 'Glober';font-weight: bold;font-style: normal;src: url('/assets/fonts/webfonts/316613_1_0.eot');src: url('/assets/fonts/webfonts/316613_1_0.eot?#iefix') format('embedded-opentype'),url('/assets/fonts/webfonts/316613_1_0.woff2') format('woff2'),url('/assets/fonts/webfonts/316613_1_0.woff') format('woff'),url('/assets/fonts/webfonts/316613_1_0.ttf') format('truetype');}@font-face {font-family: 'Glober';font-weight: bold;font-style: italic;src: url('/assets/fonts/webfonts/316613_2_0.eot');src: url('/assets/fonts/webfonts/316613_2_0.eot?#iefix') format('embedded-opentype'),url('/assets/fonts/webfonts/316613_2_0.woff2') format('woff2'),url('/assets/fonts/webfonts/316613_2_0.woff') format('woff'),url('/assets/fonts/webfonts/316613_2_0.ttf') format('truetype');}@font-face {font-family: 'GloberBookItalic';src: url('/assets/fonts/webfonts/316613_3_0.eot');src: url('/assets/fonts/webfonts/316613_3_0.eot?#iefix') format('embedded-opentype'),url('/assets/fonts/webfonts/316613_3_0.woff2') format('woff2'),url('/assets/fonts/webfonts/316613_3_0.woff') format('woff'),url('/assets/fonts/webfonts/316613_3_0.ttf') format('truetype');}@font-face {font-family: 'Glober';font-weight: normal;font-style: normal;src: url('/assets/fonts/webfonts/316613_4_0.eot');src: url('/assets/fonts/webfonts/316613_4_0.eot?#iefix') format('embedded-opentype'),url('/assets/fonts/webfonts/316613_4_0.woff2') format('woff2'),url('/assets/fonts/webfonts/316613_4_0.woff') format('woff'),url('/assets/fonts/webfonts/316613_4_0.ttf') format('truetype');}@font-face {font-family: 'Glober';font-weight: normal;font-style: italic;src: url('/assets/fonts/webfonts/316613_5_0.eot');src: url('/assets/fonts/webfonts/316613_5_0.eot?#iefix') format('embedded-opentype'),url('/assets/fonts/webfonts/316613_5_0.woff2') format('woff2'),url('/assets/fonts/webfonts/316613_5_0.woff') format('woff'),url('/assets/fonts/webfonts/316613_5_0.ttf') format('truetype');}]]></style></defs>
<style type="text/css">
	.st0{clip-path:url(#SVGID_2_);}
	.st1{fill:#603517;}
	.st2{fill:#40AD4A;}
	.st3{fill:#FF8C00;}
	.st4{fill:#999999;}
	.st5{fill:#EFEFEF;}
	.st6{fill:#FFFFFF;stroke:#B3B3B3;stroke-width:0.25;stroke-miterlimit:10;}
	.st7{fill:#E8E8E8;}
	.st8{fill:#DBDBDB;}
	.st9{fill:#666666;}
	.st10{fill:#EAE8E1;}
	.st11{fill:#D1C1AE;}
	.st12{fill:#A59483;}
	.st13{opacity:0.2;fill:#A59483;}
	.st14{fill:#E5D8C6;}
	.st15{fill:#DDCEB9;}
	.st16{fill:#DB771D;}
	.st17{fill:#FDD3AE;}
	.st18{fill:#DF6000;}
	.st19{fill:#FF7D7D;}
	.st20{fill:#542F11;}
	.st21{fill:#EB871E;}
	.st22{fill:#08B5E5;}
	.st23{fill:#FFFFFF;}
	.st24{font-family:'Glober';font-weight: bold;}
	.st25{font-family:'Glober';font-weight: bold;font-size:36px;}
	.st26{font-family:'Glober';font-weight: bold;font-size:8.1881px;}
	.st27{fill:#7C441E;}
	.st28{fill:#5EA900;}
	.st29{fill:#70B700;}
	.st30{fill:#82C400;}
	.st31{fill:#94D100;}
	.st32{fill:#FF7900;}
	.st33{fill:#E55C00;}
</style>
<g>
	<defs>
		<rect id="SVGID_1_" width="275" height="112"/>
	</defs>
	<clipPath id="SVGID_2_">
		<use xlink:href="#SVGID_1_"  style="overflow:visible;"/>
	</clipPath>
	<g class="st0">
		<path class="st1" d="M176.4,52.2c1.7,4,2.6,8.5,2.6,13.1s-0.9,9.1-2.6,13.1c-1.7,4-4.2,7.7-7.2,10.7s-6.7,5.5-10.7,7.2
			c-4,1.7-8.5,2.6-13.1,2.6c-4.6,0-9.1-0.9-13.1-2.6c-4-1.7-7.7-4.2-10.7-7.2s-5.5-6.7-7.2-10.7s-2.6-8.5-2.6-13.1s0.9-9.1,2.6-13.1
			"/>
		<circle class="st2" cx="42.6" cy="59" r="32.6"/>
		<g>
			<g>
				<path class="st3" d="M262.1,97.8c-0.1-1.3-1-2.3-1-2.3c-1-1.6-2.5-2.4-2.5-2.4c-0.4-0.2-0.6-0.9-0.7-1.3l-0.1-0.8
					c-0.5-1.8-1.1-10.4-1.1-10.4c-0.1-8.4-1.2-10.6-1.2-10.6c-0.6-1.2-0.6-3.1-0.6-3.1l0.1-9.8c0.5-5.1,0-9,0-9
					c-0.5-6.5-7.1-6.3-7.1-6.3c-3.5-0.2-6-1.3-6.6-2.7c-0.5-1.2-0.5-2.5-0.4-3.4l1.3-1.3c0,0,0.8-0.9,0.8-2.3l0.3-2
					c0.6-0.2,0.9-1.2,1.1-2.3c0.3-1.3,0.3-2.3-0.5-2.5c0,0,0,0,0,0l-0.1-1.8c0,0,1.1-7-7-7.7c0,0-7,0.4-7.3,7l0.4,2.5
					c-0.1,0-0.2,0-0.2,0c-0.8,0.2-0.8,1.3-0.5,2.6c0.3,1.2,0.6,2.2,1.3,2.2l0.1,0.7c0,0,0.2,2.9,1.1,3.7l1.4,1.3
					c0,1.2,0.3,3.1-0.7,4.1c-1,0.9-4.2,1.3-6.4,1.4c0,0-6.6-0.4-7.3,6.1c0,0-0.5,3.9-0.1,9l-0.1,9.8c0,0,0,1.9-0.7,3.1
					c0,0-1.1,2.2-1.5,10.6c0,0-0.8,8.6-1.3,10.4l-0.1,0.6l0,0c0,0-0.2,1.3-0.8,1.6c0,0-1.5,0.9-2.5,2.4c0,0-1,1-1,2.3
					c0,0-1,3.3-0.6,3.8c0,0,1.1,1,1.6-1.5c0,0,0.7-2.1,1.2-2.3c0,0-0.9,4.9-0.9,5.5c0,0-0.4,3.7,0.2,4c0,0,0.8,1.1,1.3-2.3l0.6-2.9
					c0,0-0.4,4.8-0.3,5.6c0,0,0,0.7,0.6,0.8c0,0,0.7,0.2,0.9-2.1l0.5-3.8l0.1,4.1c0,0,0,1.3,0.6,1.2c0,0,0.7,0.2,0.7-1.7l0.5-4.9
					l0.4,3.5c0,0-0.1,1.3,0.5,1.4c0,0,0.6,0.2,0.6-1.6l-0.1-7.8c0,0,0-2.6-0.7-3.9c0-0.9,0.2-2.3,0.8-3.7l4-14.8c0,0,0.6-2,0.3-4
					l0.7-5.9l0,0c0.4,2.8,1.5,5.7,1.5,8.5c0,1.3-0.5,2.8-0.8,4.1c-0.3,1.3-0.7,2.5-1.1,3.8c-0.8,2.4-1.4,5-1.7,7.6
					c-0.1,1.4-0.6,2.5-0.9,3.9c-0.3,1.3-0.5,2.7-0.7,4c-0.3,1.5-0.4,2.8-0.5,4.7c0,1.4,0.2,2.7,0.2,4.1c0,1.3,0.3,2.6,0.2,3.9
					c-0.1,1.2-0.1,2.5,0,3.6c0.2,2.3,0.1,4.2,0.6,6.4c0.1,0.7,0.2,1.4,0.1,2.2c-0.1,0.6-0.1,1.3-0.3,2c-0.3,1.6-0.3,3.2-0.6,4.7
					c-0.4,2-1,4-1.5,6c-0.4,1.5-0.8,3.3-0.9,4.9c0,0.9-0.1,1.8-0.1,2.7c-0.1,2-0.3,3.9-0.1,5.9c0.1,1.1,0.1,7.5,0.1,8.6
					c0,1.1,0.2,2.5-0.1,3.5c-0.2,1-0.8,1.9-1,2.9c-0.2,1-0.2,1.7-0.7,2.6c-0.5,0.8-0.9,1.6-1.5,2.2c-0.6,0.7-1.1,1.4-1.6,2.2
					c-0.5,0.8-1.5,1.3-1.3,2.4c0.4,0.2,0.5,0.7,0.8,1c0.3,0.2,0.8,0.5,1.2,0.6c0.5,0.2,1.1,0.3,1.6,0.3c0.2,0,0.3-0.1,0.6-0.1
					c0.3,0,0.5,0.2,0.8,0.1c2.4-0.2,2.8-3.1,3.3-4.8c0.3-1,0.7-1.9,1.1-2.9c0.2-0.5,0.4-1,0.5-1.4c0.2-0.6,0-1.1,0.1-1.7
					c0.2-1.1,0.7-1.7,0.5-3c-0.2-1.1,0.2-1.9,0.5-2.9c1-3.4,2.1-12,3.5-15.2c0.5-1.1,0.7-2,1-3.1c0.6-2.2,0.7-4.6,1.1-6.8
					c0.3-1.7,1-3.1,1.5-4.7c0.3-0.8,0.7-1.5,1-2.2c0.9-2.8,1.1-6.1,1.5-9.1c0.3-2.2,0.8-4.4,1.2-6.6c0.4-2.1,1.2-4,1.4-6.1
					c0.1-1.1,0-1.7,0.1-2.9c0-0.5,0-1.2,0.5-1.2c0.4,0,0.8,0.2,1.2,0.2c0.3,0,0.6,0,0.9-0.1c0,0.7-0.4,1-0.4,1.7
					c-0.1,0.7-0.1,1.5-0.1,2.2c0,1.3,0.1,2.6,0.3,3.8c0.2,1.2,0,2.4,0,3.6c0,1.2,0.2,2.3,0.1,3.4c0,1.1-0.3,2.1-0.3,3.3
					c0,1.2,0.1,2.3,0.1,3.4c0,2,0.6,4.1,0.9,6.1c0.2,1,0.1,2.1,0,3.1c-0.1,1.1-0.3,2.1-0.5,3.1c-0.3,1-0.2,2-0.3,3.1
					c-0.1,1.2-0.2,2.3-0.1,3.4c0.2,2.3-0.1,4.5-0.1,6.8c0,1.2,0,7.5-0.1,8.7c-0.1,1.1,0.1,2.4-0.5,3.3c-1.3,2-0.6,4.2-1.1,6.3
					c-0.5,2.1-0.8,4.3-1.2,6.5c-0.2,1.2,0.9,1.8,2,1.5c0.6-0.2,0.8-0.4,1.5-0.4c0.7,0,1-0.1,1.5-0.3c0.7-0.3,1.9-0.5,2.2-1.4
					c1.3,0.1,0.9-2,0.7-2.6c-0.5-1-1-1.9-1.1-3c-0.1-1.1-0.6-2.2-0.6-3.3c0-0.6,0.3-1,0.4-1.5c0.1-0.6-0.1-1.2,0-1.8
					c0.2-1.5,0.5-3,1-4.4c0.4-1,2-6.6,2.3-7.7c0.6-2.3,1.2-3.7,1.5-6c0.3-2.2,0.8-4.8,0.8-7c0-1.4-0.1-2.4-0.2-3.5
					c-0.2-1.1-0.2-2.2,0-3.4c0.2-1,0.3-2.1,0.3-3.2c0-1.1-0.1-2.2,0-3.2c0.1-1.1,0.5-2.1,0.8-3.1c0.3-1.1,0.7-1.9,0.9-3
					c0.4-2.1,0.9-4.2,1.4-6.3c0.5-2.1,1.2-4,1.5-6.2c0.2-1.1,0.5-2.1,0.6-3.2c0.1-1.2,0-2.4,0-3.6c0-2-0.3-3.9-0.4-5.9
					c-0.1-1.2-0.5-2.2-0.5-3.4c0-1.2-0.8-2.2-1-3.3c-0.2-1-0.8-2.1-1.2-3c-0.8-1.9-1.7-3.1-1.9-5.1c-0.1-1.1,0.1-2.9,0.2-4
					c0.2-1.1,0.6-2.2,0.8-3.3c0.2-1.1,0.4-3,0.8-3.9c0.4,0.9,0.7,1.4,0.7,1.4l0.7,6.6c-0.4,2,0.2,4,0.2,4l3.7,14.9
					c0.5,1.4,0.7,2.8,0.7,3.7c-0.7,1.2-0.7,3.9-0.7,3.9l-0.1,7.8c0,1.8,0.6,1.6,0.6,1.6c0.6,0,0.5-1.4,0.5-1.4l0.4-3.5l0.5,4.9
					c0,1.9,0.7,1.7,0.7,1.7c0.6,0.1,0.6-1.2,0.6-1.2l0.1-4.1l0.5,3.8c0.2,2.3,0.9,2.1,0.9,2.1c0.6-0.1,0.6-0.8,0.6-0.8
					c0.1-0.9-0.3-5.6-0.3-5.6l0.6,2.9c0.5,3.3,1.3,2.3,1.3,2.3c0.6-0.3,0.2-4,0.2-4c0-0.6-0.9-5.5-0.9-5.5c0.5,0.2,1.2,2.3,1.2,2.3
					c0.5,2.4,1.6,1.5,1.6,1.5C263.1,101.1,262.1,97.8,262.1,97.8z"/>
				<g>
					<g>
						<path class="st4" d="M229.8,43.8c-0.6,1-2.1,1.7-3.2,1.5c0-1.1-0.6-1.3-1.5-1.3c-0.9,0-0.7-0.1-1.5-0.6
							c-0.7-0.4-1.4-0.7-2.2,0.3c-0.5,0.7-1.6,2.4-1.3,3.1c0.4,0.7,2.5,1.4,2.9,2.1c0.4,0.7,0.8,1.1,1.1,1.9
							c0.5,1.4,1.5,2.1,2.1,3.5c0.6,1.3,1,2.6,2,3.7c1.7,1.8,1.9-1.4,2.4-2.6c0.7-1.8,0.8-2.9,0.5-4.9c-0.3-1.7,0.2-3.8-0.4-5.3
							c-0.2-0.6-0.5-1-0.8-1.5c-0.2,0-0.1,0.1-0.2,0.2V43.8z"/>
						<path class="st4" d="M243.5,43.9c0.6,1,2.1,1.7,3.2,1.5c0-1.1,0.6-1.3,1.5-1.3c0.9,0,0.7-0.1,1.5-0.6c0.6-0.4,1.4-0.7,2.2,0.3
							c0.5,0.7,1.6,2.4,1.3,3.1c-0.4,0.7-2.5,1.4-2.9,2.1c-0.4,0.7-0.8,1.1-1.1,1.9c-0.5,1.4-1.5,2.1-2.1,3.5c-0.6,1.3-1,2.6-2,3.7
							c-1.7,1.8-1.9-1.4-2.4-2.6c-0.7-1.8-0.8-2.9-0.5-4.9c0.3-1.7-0.2-3.8,0.4-5.3c0.2-0.6,0.5-1,0.8-1.5c0.2,0,0.1,0.1,0.2,0.2
							V43.9z"/>
						<path class="st4" d="M220.1,46.1c0.7-0.3,1.3-0.7,2.1-0.3c0.6,0.3,1.3,0.8,1.4,1.5c0.1,0.7-0.1,1.6-1,1.6
							c-0.8,0-1.4-1-1.8-1.6c-0.2-0.3-0.3-0.7-0.6-0.9L220.1,46.1z"/>
						<g>
							<path class="st4" d="M215.5,91.7c-0.3-0.2-0.2,0.6,0.1,0.7c0.3,0.1,0.6-0.1,0.8,0c0.1,0,0.2,0.2,0.4,0.1
								c0.2-0.1,0.1-0.3,0.2-0.4c0.3-0.3,0.4,0,0.7,0.2c0.7,0.4,0.6-1.1-0.1-1.1c-0.3,0-0.6,0.2-0.9,0.2c-0.3,0-0.6-0.1-0.8,0
								C215.7,91.4,215.6,91.7,215.5,91.7L215.5,91.7z"/>
							<path class="st4" d="M219,70.8c-0.4-0.4-0.4-1.2,0.2-1.1c0.2,0,0.3,0.2,0.5,0.3c0.2,0.1,0.5-0.1,0.7,0
								c0.5,0.2,0.2,0.9-0.2,1.1C219.7,71.2,219.3,71,219,70.8L219,70.8z"/>
							<path class="st5" d="M220,73c-0.1-1-0.1-3,0.7-3.3c0.4-0.1,1,0.2,1.2,0.5c0.5,0.7,0.1,0.9-0.2,1.4c-1.3,2.3-1.6,4.5-1.8,7.2
								c-0.2,2.7-0.8,5.2-1.1,7.8c-0.2,1.3-0.3,2.8-0.5,4.2c-0.1,0.9,0,1-0.7,0.7c-0.6-0.3-0.7-0.3-0.5-1.2c0.2-1.3,0.7-2.7,1-4.1
								c0.2-1.4,0.3-2.7,0.5-4.1c0.2-1.4,0-2.9,0.2-4.3c0.1-1.3,0.3-2.6,0.5-3.9c0.1-0.5,0.3-1,0.2-1.6L220,73z"/>
							<path class="st4" d="M219,68.3c-0.1,0-0.5,0.5-0.5,0.8c0,0.4,0.5,0.6,0.9,0.6c0.1,0,0.3-0.1,0.4-0.1c0.1,0,0.3,0.2,0.4,0.2
								c0.5,0,0.5-0.1,0.9,0.3c0.9,0.8,1,0,0.7-0.8c-0.3-0.9-0.7-1.2-1.7-1.2c-0.4,0-0.8,0.1-1.1,0.3L219,68.3z"/>
							<path class="st6" d="M220,48.7c0-0.8-0.8-1.5-0.4-2.2c0.3-0.5,1.5-0.7,2-0.5c0.4,0.2,1.1,0.8,1.4,1.2
								c0.2,0.3,0.3,0.7,0.2,1.1c-0.1,0.4-0.4,0.5-0.6,0.9c-0.6,1.3-0.4,3.1-0.4,4.5c0,1.7-0.1,3.3,0,5c0,0.8-0.2,1.7-0.2,2.5
								c0,0.9-0.1,1.7-0.2,2.6c-0.1,0.8,0,1.7,0.3,2.5c0.2,0.7,0.8,1.3,1,2.1c0.1,0.6-0.3,1.9-1,1.2c-0.3-0.2-0.2-0.6-0.6-0.9
								c-0.3-0.2-0.7-0.2-1-0.2c-0.4,0-0.8,0-1.2,0c-0.5,0.1-0.7,0.3-0.9-0.3c-0.2-0.7,0.6-1.5,0.8-2.2c1.1-3,1.2-6.3,1.1-9.5
								c-0.1-1.3,0.1-2.7,0.1-4c0-0.7-0.1-1.4-0.2-2.1c-0.1-0.7-0.3-1.3-0.3-2L220,48.7z"/>
							<path class="st6" d="M220.2,70.6c-0.1,0.7,0,1.4,0,2c-0.4,1.7-1,3.2-1.5,5c-0.2,0.9-0.5,1.9-0.6,2.8c-0.1,1-0.1,1.9-0.2,2.9
								c-0.1,0.9-0.3,1.8-0.3,2.7c0,1,0.1,2,0.1,3c0,0.4,0,0.9,0,1.4c0,0.4,0.2,1.1,0.1,1.4c-0.2,0.7-1.3,0.3-1.8,0.4
								c-1,0.1-1.1-0.6-0.7-1.7c0.3-0.8,0.6-1.5,0.7-2.5c0.2-1.9,0.5-3.6,0.7-5.4c0.1-0.9,0.4-1.7,0.5-2.6c0.1-0.9,0.2-1.8,0.5-2.7
								c0.6-1.5,0.7-3.4,0.9-5c0.1-0.4-0.1-1.5,0.2-1.8c0.2-0.3,1.1,0.2,1.3,0.4L220.2,70.6z"/>
							<g>
								<path class="st4" d="M211.4,95.9c-0.1,0.2-0.4,0.3-0.1,0.5c0.1,0.1,0.4,0.3,0.6,0.4c0.3,0.1,0.4-0.1,0.3-0.4
									c-0.1-0.3-0.5-0.2-0.6-0.4L211.4,95.9z"/>
								<path class="st4" d="M210.7,98.6c-0.2,0-0.4,0.1-0.3,0.3c0,0.1,0.5,0.1,0.5,0.1C211.4,98.9,210.9,98.3,210.7,98.6
									L210.7,98.6z"/>
								<path class="st4" d="M213,99.1c-0.3,0.4,0.4,1.2,0.8,0.9c0.1-0.1,0.2-0.7,0.1-0.8c-0.2-0.3-0.6,0-0.8-0.1L213,99.1z"/>
								<path class="st4" d="M212.5,102.4c-0.5,0.1-0.1,0.8,0.3,0.7c0.2,0,0.3-0.3,0.2-0.5C213,102.3,212.7,102.3,212.5,102.4
									L212.5,102.4z"/>
								<path class="st4" d="M212.2,104.7c-0.1,0.2,0.2,0.5,0.4,0.5c0.1-0.1,0.2-0.5,0.1-0.6C212.6,104.5,212.3,104.4,212.2,104.7
									L212.2,104.7z"/>
								<path class="st4" d="M215,99.2c-0.2,0-0.5,0.3-0.4,0.5c0.1,0.3,0.4,0.3,0.6,0.4c0.3,0.1,0.4,0.1,0.4-0.3
									c0-0.2,0-0.7-0.3-0.6L215,99.2z"/>
								<path class="st4" d="M214.4,102.7c-0.2,0.4-0.3,1,0.4,0.9c0.2,0,0.3-0.3,0.3-0.5C215.1,102.7,214.7,102.7,214.4,102.7
									L214.4,102.7z"/>
								<path class="st4" d="M214.2,105.6c-0.5,0.1-0.1,0.7,0.3,0.4c0.1-0.1,0.3-0.4,0.2-0.5C214.7,105.3,214.4,105.4,214.2,105.6
									L214.2,105.6z"/>
								<path class="st4" d="M216.5,98.8c-0.2,0.1-0.3,0.5-0.1,0.7c0.1,0.2,0.6,0.2,0.7,0.1c0.2-0.1,0.2-0.5,0.2-0.7
									c-0.1-0.3-0.3-0.3-0.6-0.3L216.5,98.8z"/>
								<path class="st4" d="M216.3,102.1c-0.1,0.2-0.3,0.3-0.2,0.6c0.1,0.2,0.3,0.3,0.5,0.3C217.2,102.9,216.9,102.1,216.3,102.1
									L216.3,102.1z"/>
								<path class="st4" d="M216.2,104.9c-0.2,0.3,0.1,0.7,0.4,0.5c0.1-0.1,0.2-0.3,0.2-0.4c-0.1-0.2-0.3-0.2-0.4-0.2L216.2,104.9z
									"/>
								<path class="st4" d="M218,98.4c-0.3,0.5,0,1,0.6,0.7c0.2-0.1,0.2-0.4,0.1-0.6c-0.1-0.3-0.3-0.2-0.6-0.2L218,98.4z"/>
								<path class="st4" d="M218.3,101.6c-0.1,0.1-0.1,0.3,0,0.4c0.1,0.1,0.4,0,0.5,0C218.9,101.8,218.7,101.4,218.3,101.6
									L218.3,101.6z"/>
								<path class="st4" d="M218.2,103.6c0,0.3,0.3,0.6,0.5,0.3C218.9,103.7,218.5,103.2,218.2,103.6L218.2,103.6z"/>
								<path class="st4" d="M214.3,93.1c-0.2,0-0.4,0.1-0.5,0.1c-0.2,0-0.3,0.2-0.2,0.3c0.1,0.1,0.3,0.1,0.4,0.2
									c0.1,0.1,0.2,0.2,0.3,0.4c0.1,0.1,0.1,0.3,0.2,0.4c0.1,0.1,0.4,0,0.5,0c0.3,0,0.8,0,1.1,0.1c0.4,0.1,0.5,0.4,0.9,0.3
									c0.2,0,0.4-0.1,0.6-0.2c0.2-0.1,0.4-0.1,0.5-0.2c0.2-0.1,0.1-0.1-0.1-0.3c-0.1-0.1-0.2-0.2-0.4-0.3
									c-0.5-0.2-1.1-0.1-1.6-0.2c-0.4-0.1-0.7-0.2-1.1-0.3C214.7,93.3,214.5,93.2,214.3,93.1L214.3,93.1z"/>
								<path class="st6" d="M215.2,92.6c-0.2-0.1-0.8,0-1,0.2c-0.4,0.2-0.3,0.3-0.1,0.6c0.1,0.1,0.3,0.1,0.3,0.3
									c0.1,0.2,0,0.4,0.2,0.5c0.3,0.2,0.8,0,1.1,0.1c0.7,0.1,1.4,0.4,2.1,0.1c0.3-0.2,0.5-0.5,0.3-0.9c-0.1-0.1-0.3-0.2-0.3-0.3
									c-0.1-0.1-0.1-0.4-0.2-0.5c-0.2-0.2-1-0.2-1.3-0.2C216.1,92.4,215.5,92.4,215.2,92.6L215.2,92.6z"/>
								<path class="st6" d="M212.5,96.4c0.2-0.1,0-0.7,0.2-1c0.2-0.2,0.5-0.4,0.8-0.6c0.6-0.5,1.2-0.9,0.3-1.3
									c-0.4-0.2-0.4-0.2-0.6,0.2c-0.1,0.3-0.3,0.4-0.5,0.7c-0.3,0.3-1.2,1-1.3,1.5c-0.1,0.3,0.6,0.5,0.9,0.6L212.5,96.4z"/>
								<path class="st6" d="M211.2,98.8c0-0.7,0.2-0.9,0.6-1.4c0.2-0.2,0.4-0.4,0.2-0.6c0,0-0.6-0.4-0.7-0.4
									c-0.6,0-0.2,1.2-0.3,1.6c-0.1,0.1-0.5,0.4-0.5,0.6C210.6,98.9,211.1,98.4,211.2,98.8L211.2,98.8z"/>
								<path class="st6" d="M210.4,99.8c-0.2,0-0.4,1.1,0.1,0.8c0.2-0.1,0.2-0.9,0.4-1.1c0.1-0.3,0.4-0.8-0.2-0.8
									C210.1,98.8,210.4,99.6,210.4,99.8L210.4,99.8z"/>
								<path class="st6" d="M213.1,98.9c0.3-0.6,0.5-1.1,0.6-1.8c0.1-0.7,0.3-1.3,0.5-2c0.1-0.4,0-0.6,0.4-0.8
									c0.3-0.1,0.8,0,0.8,0.3c0,0.3-0.4,0.7-0.5,0.9c-0.1,0.3-0.2,0.6-0.3,0.9c-0.1,0.3-0.4,0.6-0.5,0.9c-0.1,0.4-0.1,0.7-0.1,1.1
									c0,0.4,0,0.7-0.5,0.8C213.4,99.5,212.7,99.3,213.1,98.9L213.1,98.9z"/>
								<path class="st6" d="M214.8,99.1c0.2-0.6,0.3-1.2,0.3-1.8c0-0.7,0.1-1.3,0.2-2c0-0.4-0.1-0.6,0.3-0.8
									c0.3-0.1,0.8-0.2,0.9,0.2c0.1,0.2-0.3,0.7-0.3,1c-0.1,0.3-0.1,0.6-0.2,1c-0.1,0.3-0.1,0.8-0.1,1.1c0,0.4,0,0.7-0.1,1
									c-0.1,0.4,0.1,0.7-0.3,0.9C215.2,99.6,214.5,99.5,214.8,99.1L214.8,99.1z"/>
								<path class="st6" d="M216.4,98.7c0.1-0.5,0.2-1,0.1-1.5c-0.1-0.6,0-1.1,0-1.7c0-0.3-0.1-0.5,0.2-0.7
									c0.2-0.1,0.7-0.2,0.8,0.1c0.1,0.2-0.2,0.6-0.2,0.8c-0.1,0.3,0,0.5-0.1,0.8c0,0.3,0,0.6,0,0.9c0,0.3,0,0.6,0,0.8
									c0,0.4,0.1,0.6-0.2,0.8C216.8,99,216.2,99,216.4,98.7L216.4,98.7z"/>
								<path class="st6" d="M217.9,98.3c0.1-0.5,0.1-1-0.1-1.5c-0.1-0.5-0.1-1.1-0.2-1.6c0-0.3-0.2-0.5,0.1-0.7
									c0.2-0.2,0.6-0.3,0.8-0.1c0.1,0.2-0.1,0.6-0.1,0.8c0,0.3,0,0.5,0,0.8c0,0.3,0.1,0.6,0.1,0.9c0,0.3,0.1,0.5,0.1,0.8
									c0,0.4,0.2,0.5-0.1,0.7C218.3,98.6,217.7,98.7,217.9,98.3L217.9,98.3z"/>
								<path class="st6" d="M213.1,102.5c0-0.7,0.2-1.1,0.6-1.7c0.1-0.2,0.4-0.5,0.2-0.8c0-0.1-0.8-0.3-0.9-0.2
									c-0.3,0.1-0.2,0.6-0.3,0.9c0,0.3-0.1,0.5-0.2,0.8c-0.1,0.2-0.3,0.6-0.2,0.8c0.1,0.3,0.4,0.3,0.7,0.3
									C213.1,102.6,213.1,102.6,213.1,102.5L213.1,102.5z"/>
								<path class="st6" d="M215.1,102.8c-0.1-0.8,0-1.3,0.3-2c0.1-0.3,0.4-0.6,0.1-0.9c-0.1-0.1-0.9-0.2-1-0.1
									c-0.3,0.2-0.2,0.7-0.1,1c0,0.4,0,0.6-0.1,0.9c0,0.2-0.2,0.7,0,0.9c0.1,0.3,0.5,0.3,0.7,0.3
									C215.1,102.9,215.1,102.9,215.1,102.8L215.1,102.8z"/>
								<path class="st6" d="M217,102.3c-0.2-0.7,0-1.2,0.2-1.8c0.1-0.2,0.3-0.6,0.1-0.8c-0.1-0.1-0.8-0.1-0.9-0.1
									c-0.3,0.2-0.1,0.6-0.1,0.9c0.1,0.3,0,0.5,0,0.8c0,0.2-0.1,0.7,0,0.9c0.1,0.3,0.5,0.2,0.7,0.2C217,102.4,217,102.3,217,102.3
									L217,102.3z"/>
								<path class="st6" d="M218.9,101.6c-0.3-0.6-0.2-1.1-0.1-1.7c0-0.2,0.2-0.6-0.1-0.8c-0.1,0-0.8,0.1-0.9,0.1
									c-0.2,0.2,0,0.6,0.1,0.9c0.1,0.3,0.1,0.5,0.1,0.8c0,0.2,0,0.6,0.1,0.8c0.2,0.2,0.5,0.1,0.7,0.1
									C218.9,101.6,218.9,101.6,218.9,101.6L218.9,101.6z"/>
								<path class="st6" d="M212.2,103.2c0,0,0-0.1,0-0.1c0,0.4,0,0.8-0.1,1.2c-0.1,0.7,0.1,0.4,0.7,0.4c0-0.3-0.1-0.4-0.1-0.7
									c0-0.2,0.1-0.4,0.2-0.6c0.2-0.6,0-0.6-0.6-0.6c0,0.1,0,0.1,0,0.2L212.2,103.2z"/>
								<path class="st6" d="M214.2,103.8c0,0,0-0.1,0-0.1c0,0.5-0.1,1-0.1,1.5c-0.1,0.8,0.1,0.4,0.8,0.5c0.1-0.3-0.1-0.5-0.1-0.8
									c0-0.3,0.1-0.4,0.2-0.7c0.3-0.7,0.1-0.7-0.7-0.7c0,0.1,0,0.1,0,0.2L214.2,103.8z"/>
								<path class="st6" d="M216.1,103.2c0,0,0-0.1,0-0.1c0,0.5,0,1,0,1.5c-0.1,0.8,0.1,0.4,0.8,0.4c0-0.3-0.2-0.5-0.2-0.8
									c0-0.3,0.1-0.5,0.2-0.7c0.3-0.7,0-0.7-0.8-0.7c0,0.1,0,0.1,0,0.2L216.1,103.2z"/>
								<path class="st6" d="M218.3,102.2c0,0,0-0.1,0-0.1c0,0.4,0,0.8,0,1.1c-0.1,0.7,0.1,0.3,0.6,0.3c0-0.2-0.1-0.4-0.1-0.6
									c0-0.2,0.1-0.4,0.1-0.6c0.2-0.6,0-0.6-0.6-0.5c0,0.1,0,0.1,0,0.2L218.3,102.2z"/>
								<path class="st6" d="M212.2,105.3c-0.1-0.3,0.2-0.6,0.4-0.3c0.1,0.2,0,0.5-0.1,0.7c-0.3,0.9-0.4-0.2-0.3-0.6L212.2,105.3z"
									/>
								<path class="st6" d="M214,106.3c-0.1-0.4,0.2-0.7,0.5-0.3c0.2,0.2,0,0.6-0.1,0.9c-0.3,1.2-0.5-0.2-0.4-0.8L214,106.3z"/>
								<path class="st6" d="M216.1,105.8c-0.1-0.4,0.2-0.7,0.5-0.3c0.2,0.2,0,0.6-0.1,0.9c-0.3,1.2-0.5-0.2-0.4-0.8L216.1,105.8z"
									/>
								<path class="st6" d="M218.3,104.3c-0.1-0.3,0.2-0.6,0.4-0.3c0.1,0.2,0,0.5-0.1,0.7c-0.3,1-0.4-0.2-0.3-0.6L218.3,104.3z"/>
							</g>
						</g>
						<g>
							<path class="st4" d="M257.3,92.1c0.3-0.2,0.2,0.6-0.1,0.7c-0.3,0.1-0.6-0.1-0.8-0.1c-0.1,0-0.2,0.2-0.4,0.1
								c-0.2-0.1-0.1-0.3-0.2-0.4c-0.3-0.3-0.4,0-0.7,0.2c-0.7,0.4-0.6-1.1,0.1-1.1c0.3,0,0.6,0.2,0.9,0.2c0.3,0,0.6-0.1,0.8,0
								C257.1,91.9,257.2,92.1,257.3,92.1L257.3,92.1z"/>
							<path class="st4" d="M254,71.2c0.4-0.4,0.4-1.2-0.2-1.1c-0.2,0-0.3,0.2-0.5,0.3c-0.2,0.1-0.5-0.1-0.7,0
								c-0.5,0.2-0.3,0.9,0.1,1.1C253.3,71.6,253.6,71.4,254,71.2L254,71.2z"/>
							<path class="st5" d="M253,73.3c0.1-1,0.2-3-0.7-3.3c-0.4-0.1-1,0.2-1.3,0.5c-0.5,0.7-0.1,0.9,0.2,1.4
								c1.3,2.3,1.5,4.5,1.7,7.2c0.2,2.7,0.7,5.2,1,7.8c0.1,1.3,0.3,2.8,0.4,4.2c0.1,0.9,0,1,0.7,0.7c0.6-0.3,0.7-0.3,0.5-1.2
								c-0.2-1.4-0.7-2.7-0.9-4.1c-0.2-1.4-0.3-2.7-0.5-4.1c-0.2-1.4,0-2.9-0.1-4.3c-0.1-1.3-0.2-2.6-0.5-3.9
								c-0.1-0.5-0.3-1-0.2-1.6L253,73.3z"/>
							<path class="st4" d="M254,68.7c0.1,0,0.5,0.6,0.5,0.8c0,0.4-0.5,0.6-0.9,0.5c-0.1,0-0.3-0.1-0.4-0.1c-0.1,0-0.3,0.2-0.4,0.2
								c-0.5,0-0.5-0.1-0.9,0.3c-0.9,0.8-1,0-0.7-0.8c0.3-0.9,0.7-1.2,1.7-1.1c0.4,0,0.8,0.1,1.1,0.3L254,68.7z"/>
							<path class="st6" d="M253.2,49.1c0-0.8,0.8-1.5,0.4-2.2c-0.3-0.5-1.5-0.7-2-0.5c-0.4,0.2-1.1,0.8-1.4,1.2
								c-0.2,0.3-0.3,0.7-0.2,1.1c0.1,0.4,0.4,0.5,0.5,0.9c0.6,1.3,0.4,3.1,0.4,4.5c0,1.7,0,3.3-0.1,5c0,0.8,0.2,1.7,0.1,2.6
								c0,0.9,0,1.7,0.1,2.6c0.1,0.8,0,1.7-0.3,2.5c-0.3,0.7-0.8,1.3-1,2c-0.1,0.6,0.2,1.9,1,1.3c0.3-0.2,0.2-0.6,0.6-0.9
								c0.3-0.2,0.7-0.2,1-0.2c0.4,0,0.8,0,1.2,0.1c0.5,0.1,0.7,0.3,0.9-0.3c0.2-0.7-0.5-1.5-0.8-2.2c-1-3-1.1-6.3-1-9.5
								c0.1-1.3-0.1-2.7-0.1-4c0-0.7,0.1-1.4,0.2-2.1c0.1-0.7,0.3-1.3,0.3-2L253.2,49.1z"/>
							<path class="st6" d="M252.8,71c0.1,0.7,0,1.4-0.1,2c0.3,1.7,1,3.2,1.4,5c0.2,0.9,0.5,1.9,0.6,2.8c0.1,1,0.1,1.9,0.2,2.9
								c0.1,0.9,0.3,1.8,0.3,2.8c0,1-0.1,2-0.1,3c0,0.4,0,0.9,0,1.4c0,0.4-0.2,1.1-0.1,1.4c0.2,0.7,1.3,0.3,1.8,0.4
								c0.9,0.1,1.1-0.6,0.7-1.7c-0.3-0.8-0.6-1.5-0.6-2.5c-0.1-1.9-0.4-3.6-0.7-5.5c-0.1-0.9-0.4-1.7-0.5-2.6
								c-0.1-0.9-0.2-1.9-0.5-2.7c-0.6-1.5-0.6-3.4-0.9-5c-0.1-0.4,0.1-1.5-0.2-1.8c-0.2-0.3-1.1,0.2-1.3,0.4L252.8,71z"/>
							<g>
								<path class="st4" d="M261.3,96.4c0.1,0.2,0.4,0.3,0.1,0.5c-0.1,0.1-0.4,0.3-0.6,0.4c-0.3,0.1-0.4-0.1-0.3-0.4
									c0.1-0.3,0.5-0.2,0.6-0.3L261.3,96.4z"/>
								<path class="st4" d="M262,99.1c0.2,0,0.4,0.1,0.3,0.3c0,0.1-0.5,0.1-0.5,0.1C261.2,99.4,261.8,98.8,262,99.1L262,99.1z"/>
								<path class="st4" d="M259.6,99.6c0.3,0.4-0.4,1.2-0.8,0.9c-0.1-0.1-0.2-0.7-0.1-0.8c0.2-0.3,0.6,0,0.8,0L259.6,99.6z"/>
								<path class="st4" d="M260.2,102.8c0.5,0.1,0.1,0.8-0.4,0.7c-0.2,0-0.3-0.3-0.2-0.5C259.7,102.7,259.9,102.8,260.2,102.8
									L260.2,102.8z"/>
								<path class="st4" d="M260.4,105.2c0.1,0.2-0.2,0.5-0.4,0.5c-0.1-0.1-0.2-0.5-0.1-0.6C260,105,260.3,104.9,260.4,105.2
									L260.4,105.2z"/>
								<path class="st4" d="M257.6,99.7c0.2,0,0.5,0.3,0.4,0.5c-0.1,0.3-0.4,0.3-0.6,0.4c-0.3,0.1-0.4,0.1-0.4-0.3
									c0-0.2,0-0.7,0.3-0.6L257.6,99.7z"/>
								<path class="st4" d="M258.2,103.1c0.2,0.4,0.3,1-0.4,0.9c-0.2,0-0.3-0.3-0.3-0.5C257.6,103.2,257.9,103.1,258.2,103.1
									L258.2,103.1z"/>
								<path class="st4" d="M258.4,106c0.5,0.1,0.1,0.7-0.3,0.4c-0.1-0.1-0.3-0.4-0.2-0.5C257.9,105.7,258.3,105.8,258.4,106
									L258.4,106z"/>
								<path class="st4" d="M256.2,99.2c0.2,0.1,0.2,0.5,0.1,0.7c-0.1,0.2-0.6,0.2-0.7,0.1c-0.2-0.1-0.2-0.5-0.2-0.7
									c0.1-0.3,0.3-0.3,0.6-0.3L256.2,99.2z"/>
								<path class="st4" d="M256.3,102.5c0.1,0.2,0.3,0.3,0.2,0.6c-0.1,0.2-0.3,0.3-0.5,0.3C255.5,103.3,255.7,102.5,256.3,102.5
									L256.3,102.5z"/>
								<path class="st4" d="M256.4,105.3c0.2,0.3-0.1,0.7-0.4,0.5c-0.1-0.1-0.2-0.3-0.2-0.4c0.1-0.2,0.3-0.2,0.4-0.1L256.4,105.3z"
									/>
								<path class="st4" d="M254.7,98.8c0.3,0.5-0.1,1-0.6,0.7c-0.2-0.1-0.2-0.4-0.1-0.6c0.1-0.3,0.3-0.2,0.6-0.2L254.7,98.8z"/>
								<path class="st4" d="M254.3,102c0.1,0.1,0.1,0.3,0,0.4c-0.1,0.1-0.4,0-0.5,0C253.7,102.2,254,101.8,254.3,102L254.3,102z"/>
								<path class="st4" d="M254.4,104c0,0.3-0.3,0.6-0.5,0.3C253.7,104,254.1,103.6,254.4,104L254.4,104z"/>
								<path class="st4" d="M258.4,93.5c0.2,0,0.4,0.1,0.5,0.1c0.2,0.1,0.3,0.2,0.2,0.4c-0.1,0.1-0.3,0.1-0.4,0.2
									c-0.1,0.1-0.2,0.2-0.3,0.4c-0.1,0.1-0.1,0.3-0.2,0.4c-0.1,0.1-0.4,0-0.5,0c-0.3,0-0.8,0-1.1,0.1c-0.4,0.1-0.5,0.4-0.9,0.3
									c-0.2,0-0.4-0.1-0.6-0.2c-0.2-0.1-0.4-0.1-0.5-0.2c-0.2-0.1-0.1-0.1,0.1-0.3c0.1-0.1,0.2-0.2,0.4-0.3
									c0.5-0.2,1.1-0.1,1.6-0.2c0.4-0.1,0.7-0.2,1.1-0.3C258,93.8,258.3,93.6,258.4,93.5L258.4,93.5z"/>
								<path class="st6" d="M257.5,93c0.2-0.1,0.8,0.1,1,0.2c0.4,0.2,0.3,0.3,0.1,0.6c-0.1,0.1-0.3,0.1-0.3,0.3
									c-0.1,0.2,0,0.4-0.2,0.5c-0.3,0.2-0.8,0-1.1,0.1c-0.7,0.1-1.4,0.4-2.1,0c-0.3-0.2-0.5-0.5-0.3-0.9c0.1-0.1,0.3-0.2,0.3-0.3
									c0.1-0.1,0.1-0.4,0.2-0.5c0.2-0.2,1-0.2,1.3-0.1C256.6,92.8,257.2,92.8,257.5,93L257.5,93z"/>
								<path class="st6" d="M260.2,96.9c-0.2-0.1,0-0.7-0.2-1c-0.2-0.2-0.5-0.4-0.7-0.6c-0.6-0.5-1.2-0.9-0.3-1.3
									c0.4-0.2,0.4-0.2,0.6,0.2c0.1,0.3,0.3,0.4,0.5,0.7c0.3,0.3,1.2,1,1.2,1.5c0.1,0.4-0.6,0.5-0.9,0.6L260.2,96.9z"/>
								<path class="st6" d="M261.5,99.3c0-0.7-0.2-0.9-0.6-1.4c-0.2-0.2-0.4-0.4-0.2-0.6c0,0,0.6-0.3,0.7-0.3
									c0.6,0,0.1,1.2,0.3,1.6c0.1,0.1,0.5,0.5,0.4,0.6C262.1,99.3,261.6,98.8,261.5,99.3L261.5,99.3z"/>
								<path class="st6" d="M262.3,100.3c0.2,0,0.4,1.1-0.1,0.8c-0.2-0.1-0.2-0.9-0.4-1.1c-0.1-0.3-0.4-0.8,0.2-0.8
									C262.6,99.3,262.3,100.1,262.3,100.3L262.3,100.3z"/>
								<path class="st6" d="M259.6,99.4c-0.3-0.6-0.5-1.1-0.6-1.8c-0.1-0.7-0.3-1.3-0.5-2c-0.1-0.4,0-0.7-0.4-0.8
									c-0.3-0.1-0.8,0-0.8,0.3c0,0.3,0.4,0.7,0.5,0.9c0.1,0.3,0.2,0.6,0.3,0.9c0.1,0.3,0.4,0.6,0.5,0.9c0.1,0.4,0.1,0.7,0,1.1
									c0,0.4,0,0.7,0.5,0.8C259.3,99.9,260,99.7,259.6,99.4L259.6,99.4z"/>
								<path class="st6" d="M257.8,99.5c-0.2-0.6-0.3-1.2-0.3-1.8c0-0.7-0.1-1.3-0.1-2c0-0.4,0.1-0.6-0.3-0.8
									c-0.3-0.1-0.8-0.2-0.9,0.1c-0.1,0.2,0.3,0.7,0.3,1c0.1,0.3,0.1,0.6,0.2,1c0.1,0.3,0.1,0.8,0.1,1.1c0,0.4,0,0.7,0,1
									c0.1,0.4-0.1,0.7,0.3,0.9C257.4,100,258.1,99.9,257.8,99.5L257.8,99.5z"/>
								<path class="st6" d="M256.2,99.1c-0.1-0.5-0.2-1-0.1-1.6c0.1-0.6,0-1.1,0-1.7c0-0.3,0.1-0.5-0.2-0.7c-0.2-0.1-0.7-0.2-0.8,0
									c-0.1,0.2,0.2,0.6,0.2,0.8c0,0.3,0,0.5,0.1,0.8c0,0.3,0,0.6,0,0.9c0,0.3-0.1,0.6,0,0.8c0,0.4-0.1,0.6,0.2,0.8
									C255.9,99.4,256.4,99.4,256.2,99.1L256.2,99.1z"/>
								<path class="st6" d="M254.8,98.8c-0.1-0.5-0.1-1,0.1-1.5c0.1-0.5,0.1-1.1,0.2-1.6c0-0.3,0.2-0.5-0.1-0.7
									c-0.2-0.2-0.6-0.3-0.8-0.1c-0.1,0.2,0.1,0.6,0.1,0.8c0,0.3,0,0.5,0,0.8c0,0.3-0.1,0.6-0.1,0.9c0,0.3-0.1,0.5-0.1,0.8
									c0,0.4-0.2,0.5,0.1,0.7C254.4,99,255,99.1,254.8,98.8L254.8,98.8z"/>
								<path class="st6" d="M259.5,103c0-0.7-0.2-1.1-0.6-1.7c-0.1-0.2-0.4-0.5-0.2-0.8c0-0.1,0.9-0.2,0.9-0.2
									c0.3,0.1,0.2,0.6,0.2,0.9c0,0.3,0.1,0.5,0.2,0.8c0.1,0.2,0.2,0.6,0.2,0.8c-0.1,0.3-0.4,0.3-0.7,0.3
									C259.5,103.1,259.5,103,259.5,103L259.5,103z"/>
								<path class="st6" d="M257.5,103.3c0.1-0.8,0-1.3-0.3-2c-0.1-0.3-0.3-0.6-0.1-0.9c0.1-0.1,0.9-0.2,1-0.1
									c0.3,0.2,0.1,0.7,0.1,1c0,0.4,0,0.6,0.1,0.9c0,0.2,0.1,0.7,0,0.9c-0.2,0.3-0.5,0.2-0.7,0.3
									C257.5,103.4,257.5,103.3,257.5,103.3L257.5,103.3z"/>
								<path class="st6" d="M255.7,102.7c0.2-0.7,0-1.2-0.2-1.8c-0.1-0.2-0.3-0.6-0.1-0.8c0.1-0.1,0.8-0.1,0.9-0.1
									c0.3,0.2,0.1,0.6,0.1,0.9c-0.1,0.3,0,0.5,0,0.8c0,0.2,0.1,0.7,0,0.9c-0.1,0.3-0.5,0.2-0.7,0.2
									C255.7,102.8,255.7,102.7,255.7,102.7L255.7,102.7z"/>
								<path class="st6" d="M253.8,102c0.3-0.6,0.2-1.1,0.1-1.7c0-0.2-0.2-0.6,0.1-0.8c0.1,0,0.8,0.1,0.9,0.1
									c0.2,0.2,0,0.6-0.1,0.9c-0.1,0.3-0.1,0.5-0.1,0.8c0,0.2,0,0.6-0.1,0.8c-0.2,0.2-0.5,0.1-0.7,0.1
									C253.8,102,253.8,102,253.8,102L253.8,102z"/>
								<path class="st6" d="M260.4,103.6c0,0,0-0.1,0-0.1c0,0.4,0,0.8,0,1.2c0.1,0.7-0.1,0.4-0.7,0.4c0-0.3,0.1-0.4,0.1-0.7
									c0-0.2-0.1-0.4-0.2-0.6c-0.2-0.6,0-0.6,0.6-0.6c0,0.1,0,0.1,0,0.2L260.4,103.6z"/>
								<path class="st6" d="M258.4,104.2c0,0,0-0.1,0-0.1c0,0.5,0,1,0.1,1.5c0.1,0.8-0.1,0.4-0.8,0.5c-0.1-0.3,0.1-0.5,0.1-0.8
									c0-0.3-0.1-0.4-0.2-0.7c-0.3-0.7,0-0.7,0.7-0.7c0,0.1,0,0.1,0,0.2L258.4,104.2z"/>
								<path class="st6" d="M256.5,103.6c0,0,0-0.1,0-0.1c0,0.5,0,1,0,1.5c0.1,0.8-0.1,0.4-0.8,0.4c0-0.3,0.2-0.5,0.2-0.8
									c0-0.3-0.1-0.5-0.2-0.7c-0.2-0.7,0-0.7,0.8-0.7c0,0.1,0,0.1,0,0.2L256.5,103.6z"/>
								<path class="st6" d="M254.4,102.6c0,0,0-0.1,0-0.1c0,0.4,0,0.8,0,1.1c0.1,0.7-0.1,0.3-0.6,0.3c0-0.2,0.1-0.4,0.1-0.6
									c0-0.2-0.1-0.4-0.1-0.6c-0.2-0.6,0-0.6,0.6-0.5c0,0.1,0,0.1,0,0.2L254.4,102.6z"/>
								<path class="st6" d="M260.4,105.8c0.1-0.3-0.1-0.6-0.4-0.3c-0.1,0.2,0,0.5,0.1,0.7c0.3,0.9,0.4-0.2,0.4-0.6L260.4,105.8z"/>
								<path class="st6" d="M258.6,106.8c0.1-0.4-0.2-0.7-0.5-0.3c-0.2,0.2,0,0.6,0.1,0.9c0.3,1.2,0.5-0.2,0.4-0.8L258.6,106.8z"/>
								<path class="st6" d="M256.5,106.2c0.1-0.4-0.2-0.7-0.5-0.3c-0.2,0.2,0,0.6,0.1,0.9c0.3,1.2,0.5-0.2,0.4-0.8L256.5,106.2z"/>
								<path class="st6" d="M254.3,104.7c0.1-0.3-0.2-0.6-0.4-0.3c-0.2,0.2,0,0.5,0.1,0.7c0.3,1,0.4-0.2,0.4-0.6L254.3,104.7z"/>
							</g>
						</g>
						<g>
							<g>
								<path class="st6" d="M239.7,66.1c0,0.3-1.3,0.5-2.9,0.5c-1.6,0-2.9-0.2-2.9-0.5c0-0.3,1.3-0.5,2.9-0.5
									C238.4,65.6,239.7,65.8,239.7,66.1z"/>
								<path class="st6" d="M239.9,67.8c0,0.3-1.4,0.5-3.2,0.5c-1.8,0-3.2-0.2-3.2-0.5c0-0.3,1.4-0.5,3.2-0.5
									C238.5,67.3,239.9,67.6,239.9,67.8z"/>
								<path class="st6" d="M240,70.1c0,0.3-1.4,0.5-3.2,0.5c-1.8,0-3.2-0.2-3.2-0.5c0-0.3,1.4-0.5,3.2-0.5
									C238.6,69.6,240,69.9,240,70.1z"/>
								<path class="st6" d="M239.8,72.7c0,0.3-1.4,0.5-3.2,0.5c-1.8,0-3.2-0.2-3.2-0.5c0-0.3,1.4-0.5,3.2-0.5
									C238.4,72.2,239.8,72.4,239.8,72.7z"/>
								<path class="st6" d="M240.3,75c0,0.4-1.6,0.7-3.6,0.7c-2,0-3.6-0.3-3.6-0.7c0-0.4,1.6-0.7,3.6-0.7
									C238.7,74.3,240.3,74.6,240.3,75z"/>
								<path class="st6" d="M240.3,77.1c0,0.4-1.6,0.7-3.6,0.7c-2,0-3.6-0.3-3.6-0.7c0-0.4,1.6-0.7,3.6-0.7
									C238.7,76.4,240.3,76.7,240.3,77.1z"/>
								<path class="st6" d="M240.3,79.3c0,0.4-1.6,0.7-3.6,0.7c-2,0-3.6-0.3-3.6-0.7c0-0.4,1.6-0.7,3.6-0.7
									C238.7,78.6,240.3,78.9,240.3,79.3z"/>
								<path class="st4" d="M238.2,81.6c0,0.3-0.8,0.5-1.7,0.5c-1,0-1.7-0.2-1.7-0.5c0-0.3,0.8-0.5,1.7-0.5
									C237.4,81.1,238.2,81.4,238.2,81.6z"/>
								<polygon class="st4" points="238.4,80.8 235,80.9 235.3,59.6 238.1,59.6 								"/>
								<path class="st7" d="M235.1,60c0.4,0.5,2.5,0.1,3.1,0.1C238.7,57.8,235.3,58.7,235.1,60L235.1,60z"/>
								<path class="st7" d="M235.3,61c0,0.3-0.2,0.9-0.1,1.1c0.2,0.2,0.9,0.1,1.2,0.1c0.5,0,2.3,0.2,2.1-0.5c-0.7-0.2,0-0.7-0.1-1
									c-0.1-0.5-0.7-0.4-1.2-0.4C236.8,60.3,234.6,60.1,235.3,61L235.3,61z"/>
								<path class="st7" d="M235.2,63.3c0,0.3-0.3,0.9-0.1,1.1c0.2,0.2,1,0.1,1.3,0.1c0.6,0,2.5,0.2,2.3-0.5c-0.8-0.2,0-0.7-0.1-1
									c-0.2-0.5-0.8-0.4-1.3-0.4C236.9,62.6,234.4,62.4,235.2,63.3L235.2,63.3z"/>
								<path class="st7" d="M235,65.9c0,0.3-0.3,0.9-0.1,1.1c0.2,0.2,1,0.1,1.3,0.1c0.6,0,2.5,0.2,2.3-0.5c-0.8-0.2,0-0.7-0.1-1
									c-0.2-0.5-0.8-0.4-1.3-0.4C236.7,65.2,234.3,65,235,65.9L235,65.9z"/>
								<path class="st7" d="M235.1,68.4c0,0.3-0.3,1-0.1,1.2c0.2,0.3,1,0.1,1.3,0.1c0.6,0,2.5,0.2,2.3-0.5c-0.8-0.2,0-0.8-0.1-1.1
									c-0.2-0.6-0.8-0.4-1.3-0.5C236.8,67.7,234.3,67.4,235.1,68.4L235.1,68.4z"/>
								<path class="st7" d="M234.9,71.2c0,0.4-0.3,1.1-0.1,1.4c0.2,0.3,1.1,0.2,1.4,0.1c0.6,0,2.7,0.2,2.5-0.6
									c-0.8-0.2,0-0.9-0.1-1.3c-0.2-0.6-0.8-0.5-1.4-0.5C236.8,70.3,234.1,70,234.9,71.2L234.9,71.2z"/>
								<path class="st7" d="M234.8,73.9c0,0.4-0.3,1.1-0.1,1.4c0.2,0.3,1.1,0.2,1.4,0.1c0.6,0,2.8,0.2,2.6-0.6
									c-0.4-0.2,0-0.9-0.1-1.3c-0.2-0.6-0.8-0.5-1.4-0.5C236.7,73,234,72.7,234.8,73.9L234.8,73.9z"/>
								<path class="st7" d="M234.9,76.6c0,0.4-0.3,1.1-0.1,1.4c0.2,0.3,1.1,0.2,1.4,0.1c0.6,0,2.8,0.2,2.6-0.6
									c-0.4-0.2,0-0.9-0.1-1.3c-0.2-0.6-0.8-0.5-1.4-0.5C236.8,75.7,234.1,75.4,234.9,76.6L234.9,76.6z"/>
								<path class="st7" d="M234.8,78.9c0,0.3-0.3,0.8-0.1,1c0.2,0.2,1.1,0.1,1.4,0.1c0.6,0,2.8,0.2,2.6-0.4
									c-0.4-0.1,0-0.6-0.1-0.9c-0.2-0.5-0.8-0.4-1.4-0.4C236.7,78.3,234,78.1,234.8,78.9L234.8,78.9z"/>
								<path class="st7" d="M234.7,80.7c0,0.2-0.3,0.7-0.1,0.8c0.2,0.2,1.1,0.1,1.4,0.1c0.6,0,2.8,0.1,2.6-0.4
									c-0.4-0.2,0-0.5-0.1-0.8c-0.2-0.4-0.8-0.3-1.4-0.3C236.6,80.2,233.9,80,234.7,80.7L234.7,80.7z"/>
							</g>
							<path class="st7" d="M238.2,63.1c0,0,2.7,0.3,4.3,1.9l0.2,0.9c0,0-2.1-1.8-4.4-1.6L238.2,63.1z"/>
							<path class="st7" d="M238.2,60.7c0,0,7.8,0.5,8.7,7.2l-0.4,0.3c0,0-0.8-5.8-8.3-6.1L238.2,60.7z"/>
							<path class="st7" d="M238,58.2c0,0,5.9,0.7,9.4,4.2l-1.5,0.4c0,0-4.9-3.3-8.7-3.7L238,58.2z"/>
							<path class="st7" d="M237.9,47.4c0.2,0,6-1.2,8.7,2.4l-0.5,0.5c0,0-2-3-8.4-2L237.9,47.4z"/>
							<path class="st7" d="M237.9,49.3c0.2,0,6.9-1.4,10,2.9l-0.5,0.5c0,0-2.4-3.6-9.7-2.3L237.9,49.3z"/>
							<path class="st7" d="M237.2,51.5c0.2,0,7.4-1.6,10.9,3.8l-0.2,1.1c0,0-3.7-5.6-10.9-3.9L237.2,51.5z"/>
							<path class="st7" d="M236.7,54.1c0.2,0,8.1-1.5,11.9,3.9l-0.3,1.1c0,0-4-5.7-11.9-4L236.7,54.1z"/>
							<path class="st7" d="M236.4,56.4c0.2,0,8-1.5,11.9,3.9l-0.3,1.1c0,0-4-5.7-11.9-4L236.4,56.4z"/>
							<path class="st7" d="M245.9,46.8c0,0-2.4-2.3-7.4-1.7l0.2,0.8c0,0,3.2-1,7.3,1.8L245.9,46.8z"/>
							<path class="st7" d="M238.2,42.5c0,0,3.9-1.1,6.7,1.8l-1.4,0.2c0,0-1.4-2.5-5.4-1l-0.4-0.8L238.2,42.5z"/>
							<path class="st6" d="M237.9,58.5c0,0,6,6.3,8.7,3.1c0,0,2-1.6,1.8-4.1l0.3-0.9c0,0,1.5,5.6-2.8,7.2c0,0-4.9,0.6-8.7-4.7
								L237.9,58.5z"/>
							<path class="st6" d="M238.3,57.3c0,0,6,4.1,9.1,0c0,0,1.1-1.8,0.5-3.5l0.5-0.8c0,0,1.7,4.3-1.4,6.6c0,0-1.4,1.3-3.6,0.7
								c0,0-4.6-1-5.5-2.3L238.3,57.3z"/>
							<path class="st6" d="M238.4,54.8c0,0,4.5,2.8,7.6-0.2c0,0,2.4-2.1,0.5-4.3l0.6-0.5c0,0,2,2.6,0.8,4.6c0,0-2.2,3.1-5.4,3
								c0,0-3.5-0.5-4.2-1.6L238.4,54.8z"/>
							<path class="st6" d="M246.1,47.8c0,0,2,2.1-3.7,5c0,0-1.9,0.4-4.3,0.2l0.1,1c0,0,3.4,0.7,5,0c0,0,6.6-2.9,3.4-6.7L246.1,47.8
								z"/>
							<path class="st6" d="M238,50.6c0,0,2,0.3,4-1c0,0,5.1-2.6,2.8-4.2l0.1-0.6c0,0,2.5,1.5,1.3,3.1c0,0-1.9,2.1-5,3.3
								c0,0-2.4,0.6-3.2,0.3l-0.3-0.6L238,50.6z"/>
							<path class="st6" d="M237.7,48.2c0,0,4.9-0.9,5.7-4l1.4,0c0,0,0.5,1-0.3,1.7c0,0-2.9,2.8-6.6,3.7l-0.7-0.9L237.7,48.2z"/>
							<path class="st6" d="M238.2,41.4c0,0,3.7-1,4.2,2.4c0,0,0.4,1.4-3.3,2.8l-0.3-0.5c0,0,3.2-0.9,3-2.5c0,0-0.5-2.6-3.7-1.1
								l-0.3-0.9L238.2,41.4z"/>
							<path class="st6" d="M248.8,59.8c0,0,0.3,3.1-2.6,5.8c0,0-1.5,1.7-4.3-1c0,0-1.4-0.9-2.3-3.5l1.3,0.7c0,0,4.1,8,7.6-1.4
								L248.8,59.8z"/>
							<path class="st6" d="M243.1,65.3c0,0,3,4.9,5.3-3.3l0.3-1.2c0,0,0.5,3.4-2.1,6.2c0,0-2.8,2.7-5.9-3.9L243.1,65.3z"/>
							<path class="st6" d="M248.3,64.1c0,0-1.8,6.7-4.7,2.7l-0.8-0.5c0,0,2.1,5,4.3,1.6C247.1,67.9,248.5,66.4,248.3,64.1z"/>
							<path class="st7" d="M235.5,63.1c0,0-2.7,0.3-4.3,1.9l-0.2,0.9c0,0,2.1-1.8,4.4-1.6L235.5,63.1z"/>
							<path class="st7" d="M235.4,60.6c0,0-7.8,0.5-8.7,7.2l0.4,0.3c0,0,0.8-5.8,8.3-6.1L235.4,60.6z"/>
							<path class="st7" d="M235.6,58.1c0,0-5.9,0.7-9.4,4.2l1.5,0.4c0,0,4.9-3.3,8.7-3.7L235.6,58.1z"/>
							<path class="st7" d="M235.7,47.3c-0.2,0-6-1.2-8.7,2.4l0.5,0.5c0,0,2-3,8.4-2L235.7,47.3z"/>
							<path class="st7" d="M235.7,49.3c-0.2,0-6.9-1.4-10,2.9l0.5,0.5c0,0,2.4-3.6,9.7-2.3L235.7,49.3z"/>
							<path class="st7" d="M236.4,51.4c-0.2,0-7.4-1.6-10.9,3.8l0.2,1.1c0,0,3.7-5.6,10.9-3.9L236.4,51.4z"/>
							<path class="st7" d="M236.9,54c-0.2,0-8-1.5-11.9,3.9l0.3,1.1c0,0,4-5.7,11.9-4L236.9,54z"/>
							<path class="st7" d="M237.3,56.3c-0.2,0-8.1-1.5-11.9,3.9l0.3,1.1c0,0,4-5.7,11.9-4L237.3,56.3z"/>
							<path class="st7" d="M227.7,46.7c0,0,2.4-2.3,7.4-1.7l-0.2,0.8c0,0-3.2-1-7.3,1.8L227.7,46.7z"/>
							<path class="st7" d="M235.5,42.4c0,0-3.9-1.1-6.7,1.8l1.4,0.2c0,0,1.4-2.5,5.4-1l0.4-0.8L235.5,42.4z"/>
							<rect x="235.6" y="39.3" class="st4" width="2.3" height="3.9"/>
							<path class="st6" d="M235.7,58.4c0,0-6,6.3-8.7,3.1c0,0-2-1.6-1.8-4.1l-0.3-0.9c0,0-1.5,5.6,2.8,7.2c0,0,4.9,0.6,8.7-4.7
								L235.7,58.4z"/>
							<path class="st6" d="M235.3,57.2c0,0-6,4.1-9.1,0c0,0-1.1-1.8-0.5-3.5l-0.5-0.8c0,0-1.7,4.3,1.4,6.6c0,0,1.4,1.3,3.6,0.7
								c0,0,4.6-1,5.5-2.3L235.3,57.2z"/>
							<path class="st6" d="M235.3,54.8c0,0-4.5,2.8-7.6-0.2c0,0-2.4-2.1-0.5-4.3l-0.6-0.5c0,0-2,2.6-0.8,4.6c0,0,2.2,3.1,5.4,3
								c0,0,3.5-0.5,4.2-1.6L235.3,54.8z"/>
							<path class="st6" d="M227.6,47.7c0,0-2,2.1,3.7,5c0,0,1.9,0.4,4.3,0.2l-0.1,1c0,0-3.4,0.7-5,0c0,0-6.6-2.9-3.4-6.7
								L227.6,47.7z"/>
							<path class="st6" d="M235.6,50.5c0,0-2,0.3-4-1c0,0-5.1-2.6-2.8-4.2l-0.1-0.6c0,0-2.5,1.5-1.3,3.1c0,0,1.9,2.1,5,3.3
								c0,0,2.4,0.6,3.2,0.3l0.3-0.6L235.6,50.5z"/>
							<path class="st6" d="M235.9,48.1c0,0-4.9-0.9-5.7-4l-1.4,0c0,0-0.5,1,0.3,1.7c0,0,2.9,2.8,6.6,3.7l0.7-0.9L235.9,48.1z"/>
							<path class="st6" d="M235.5,41.4c0,0-3.7-1-4.2,2.4c0,0-0.4,1.4,3.3,2.8l0.3-0.5c0,0-3.2-0.9-3-2.5c0,0,0.5-2.6,3.7-1.1
								l0.3-0.9L235.5,41.4z"/>
							<path class="st6" d="M236.3,58.6c-0.1,0.5-0.1,3.2,0.8,2.5c0.4-0.3,0.4-1.3,0.3-1.7c0-0.7-0.2-1-0.9-0.8L236.3,58.6z"/>
							<path class="st7" d="M234.7,36c0,0.2-0.2,0.2-0.3,0.3c-0.1,0.2,0.1,0.3,0.2,0.4c0.1,0.2,0.1,0.4,0,0.5
								c-0.2,0.1-0.4,0-0.4,0.3c0,0.2,0.2,0.2,0.2,0.4c0,0.3-0.1,0.3-0.3,0.4c-0.1,0.1-0.3,0.3-0.2,0.5c0.1,0.1,0.4,0,0.5,0.2
								c0.3,0.4-0.4,0.5-0.6,0.7c-0.5,0.4,0.1,0.5,0.4,0.6c0.2,0.1,0.3,0.2,0.5,0.3c0.2,0.1,0.4,0,0.6,0.1c0.4,0,0.8,0.1,1.3,0.1
								c0.8,0,1.6-0.2,2.4-0.2c0.3,0,0.9-0.2,0.7-0.6c-0.1-0.2-0.8-0.5-0.7-0.7c0-0.1,0.3-0.1,0.4-0.3c0.1-0.2,0.1-0.4,0-0.5
								c-0.1-0.1-0.4-0.1-0.4-0.3c0-0.2,0.3-0.1,0.4-0.3c0.4-0.4-0.6-0.4-0.3-0.9c0.1-0.2,0.3-0.2,0.1-0.4c-0.1-0.2-0.2-0.2-0.3-0.4
								c-0.1-0.2,0-0.2-0.2-0.3c-0.2-0.1-0.5,0-0.7,0c-0.4,0.1-0.8,0.1-1.3,0.1C236,35.8,235.4,35.8,234.7,36L234.7,36z"/>
							<rect x="235.6" y="37.2" class="st4" width="2.3" height="3.1"/>
							<path class="st6" d="M237.9,38c0,0.3-0.7,0.4-1,0.4c-0.3,0-0.9,0.1-1.1-0.1c-0.2-0.1-0.2-0.4-0.4-0.3c-0.1,0-0.2,0.2-0.4,0.3
								c-0.3,0.2-0.7,0.3-0.3,0.7c0.1,0.1,0.3,0.2,0.5,0.2c0.3,0,0.4,0,0.6,0.2c0.4,0.2,0.8,0.1,1.2,0.1c0.2,0,0.4,0,0.6,0
								c0.2,0,0.3-0.2,0.5-0.2c0.3-0.1,0.8-0.1,0.7-0.6c-0.1-0.2-0.3-0.2-0.4-0.4C238.2,38.2,238.1,37.9,237.9,38
								C237.9,38,237.9,38,237.9,38L237.9,38z"/>
							<path class="st6" d="M237.9,39.6c0,0.3-0.7,0.4-1,0.4c-0.3,0-0.9,0.1-1.1-0.1c-0.2-0.1-0.2-0.4-0.4-0.3
								c-0.1,0-0.2,0.2-0.4,0.3c-0.3,0.2-0.7,0.3-0.3,0.7c0.1,0.1,0.3,0.2,0.5,0.2c0.3,0,0.4,0,0.6,0.2c0.4,0.2,0.8,0.1,1.2,0.1
								c0.2,0,0.4,0,0.6,0c0.2,0,0.3-0.2,0.5-0.2c0.3-0.1,0.8-0.1,0.7-0.6c-0.1-0.2-0.3-0.2-0.4-0.4
								C238.2,39.7,238.2,39.4,237.9,39.6C238,39.5,238,39.5,237.9,39.6L237.9,39.6z"/>
							<path class="st6" d="M238.2,42.1c-0.3,0.1-0.3-0.2-0.3-0.4c0-0.3,0-0.3-0.3-0.3c-0.4,0-0.8,0.1-1.2,0.1
								c-0.4,0-0.8-0.4-0.8,0.3c0,0.2,0,0.3-0.1,0.5c-0.1,0.2-0.1,0.3,0.1,0.4C235.9,42.8,238.4,42.8,238.2,42.1
								C238.2,42.2,238.2,42.2,238.2,42.1L238.2,42.1z"/>
							<path class="st6" d="M238.1,42.9c-0.8,0.1-1.6,0.1-2.4,0c-0.7-0.1-0.1,0.4,0,0.7c0.1,0.4,0,0.8,0.6,0.9c0.3,0,0.6,0,0.8-0.1
								c0.2,0,0.6,0,0.8-0.2c0.3-0.2-0.1-0.5,0-0.7C238,43.4,238.5,43,238.1,42.9L238.1,42.9z"/>
							<g>
								<path class="st4" d="M223,42.9c-0.5,0-0.2,0.6,0.1,0.7c0.1,0.1,0.4,0.1,0.6,0c0.1-0.1,0.2-0.3,0-0.3L223,42.9z"/>
								<path class="st4" d="M235.3,43.2c0.2,0,0.4,0.3,0.4,0.5c0.1,0.3,0.1,0.5-0.2,0.8c-0.8,0.8-0.5-0.6-0.5-1L235.3,43.2z"/>
								<path class="st6" d="M235.1,44.6c0.1-0.2,0.2-0.5,0.3-0.7c0.1-0.3,0.1-0.5-0.2-0.7c-0.5-0.3-1.4,0.2-2,0.2
									c-1.3,0.1-2.6,0.2-3.8-0.1c-1.1-0.3-2.1-0.6-3.3-0.7c-1.1-0.1-2.1,0.1-3.2,0.3c-0.3,1.1,2.7,0.7,3.2,0.8
									c0.7,0.1,1.2,0.3,1.9,0.4c0.6,0.1,1.3,0.1,1.9,0.1c0.5,0,1,0.1,1.5,0.1c0.5,0,1.1,0,1.6,0.1c0.4,0.1,0.8,0.3,1.1,0.4
									C234.3,44.9,235.4,45.1,235.1,44.6L235.1,44.6z"/>
							</g>
							<g>
								<path class="st4" d="M250.6,42.9c0.5,0,0.2,0.6-0.1,0.7c-0.1,0.1-0.4,0.1-0.6,0c-0.1-0.1-0.2-0.3,0-0.3L250.6,42.9z"/>
								<path class="st4" d="M238.3,43.2c-0.2,0-0.4,0.3-0.4,0.5c-0.1,0.3-0.1,0.5,0.2,0.8c0.8,0.8,0.5-0.6,0.5-1L238.3,43.2z"/>
								<path class="st6" d="M238.5,44.6c-0.1-0.2-0.2-0.5-0.3-0.7c-0.1-0.3-0.1-0.5,0.2-0.7c0.5-0.3,1.4,0.2,2,0.2
									c1.3,0.1,2.6,0.2,3.8-0.1c1.1-0.3,2.1-0.6,3.3-0.7c1.1-0.1,2.1,0.1,3.2,0.3c0.3,1.1-2.7,0.7-3.2,0.8
									c-0.7,0.1-1.2,0.3-1.9,0.4c-0.6,0.1-1.3,0.1-1.9,0.1c-0.5,0-1,0.1-1.5,0.1c-0.5,0-1.1,0-1.6,0.1c-0.4,0.1-0.8,0.3-1.1,0.4
									C239.3,44.8,238.2,45,238.5,44.6L238.5,44.6z"/>
							</g>
							<path class="st6" d="M237.1,44.2c-0.5,0.1-1.2,0-1.4,0.7c-0.5,0.1-1.1,0-1.4,0.5c-0.2,0.5,0,1.2,0.4,1.5
								c0.4,0.4,0.9,0.5,1.1,1.1c0.3,0.7,0,0.9-0.2,1.5c-0.2,0.6,0.1,1,0,1.6c0,0.2-0.3,0.4-0.3,0.7c0,0.3,0.1,0.5,0.2,0.8
								c0.2,1.2-0.4,2.1-0.4,3.4c0,1.1,0.2,2.4,1.1,3.1c1.2,0.8,1.8-0.8,2.2-1.7c0.6-1.2,0-2,0-3.2c0-1.2-0.4-2.1-0.3-3.4
								c0-0.8-0.3-1.6-0.2-2.4c0.1-0.8,0.8-1.1,1.2-1.7C239.9,45.2,238.4,44.4,237.1,44.2L237.1,44.2z"/>
							<path class="st6" d="M224.8,59.7c0,0-0.3,3.1,2.6,5.8c0,0,1.5,1.7,4.3-1c0,0,1.4-0.9,2.3-3.5l-1.3,0.7c0,0-4.1,8-7.6-1.4
								L224.8,59.7z"/>
							<path class="st6" d="M230.5,65.3c0,0-3,4.9-5.3-3.3l-0.3-1.2c0,0-0.5,3.4,2.1,6.2c0,0,2.8,2.7,5.9-3.9L230.5,65.3z"/>
							<path class="st6" d="M225.3,64c0,0,1.8,6.7,4.7,2.7l0.8-0.5c0,0-2.1,5-4.3,1.6C226.5,67.9,225.2,66.3,225.3,64z"/>
						</g>
						<g>
							<path class="st4" d="M237.1,94.4c0,0.3-0.3,0.6-0.6,0.6H236c-0.3,0-0.6-0.3-0.6-0.6v-0.5c0-0.3,0.3-0.6,0.6-0.6h0.5
								c0.3,0,0.6,0.3,0.6,0.6V94.4z"/>
							<path class="st7" d="M232.1,93.1c-0.2,0.6,0.2,1.6,0.6,1.9c0.6,0.5,1.4,0.6,1.4-0.4c0-0.5-0.3-0.6,0.3-0.8
								c0.3-0.1,0.9-0.1,1.1,0.1c0.5,0.5,0.1,1.6-0.3,2c-0.4,0.4-1.1,1-1.6,1.1c-0.7,0.1-1.4-0.3-1.9-0.6c-1.3-0.8-1.5-3.1-1.4-4.5
								C231,91.6,231.6,92.6,232.1,93.1L232.1,93.1z"/>
							<path class="st7" d="M240.4,93.1c0.2,0.6-0.2,1.6-0.6,1.9c-0.6,0.5-1.4,0.6-1.4-0.4c0-0.5,0.3-0.6-0.3-0.8
								c-0.3-0.1-0.9-0.1-1.1,0.1c-0.5,0.5-0.1,1.6,0.3,2c0.4,0.4,1.1,1,1.6,1.1c0.7,0.1,1.4-0.3,1.9-0.6c1.3-0.8,1.5-3.1,1.4-4.5
								C241.5,91.6,240.9,92.6,240.4,93.1L240.4,93.1z"/>
							<path class="st7" d="M234.1,81.6c-0.8,0.3-1.2-0.3-1.7-0.7c-0.6-0.5-1.2-0.3-1.5,0.5c-0.2,0.7,0.4,1.4,0.5,2.1
								c0.1,0.4,0.1,0.7,0,1.1c-0.1,0.4-0.3,0.7-0.1,1c0.5,0,0.6,0,0.9,0.4c0.2,0.3,0.5,0.4,0.7,0.6c0.4,0.5,0.5,1.4,0.9,1.9
								c0.1,0.2,0.5,0.6,0.7,0.8c0.3,0.2,0.6,0.2,0.8,0.6c0.1,0.2,0,0.4,0.1,0.5c0,0.1,0.3,0.3,0.3,0.4c0.1,0.3,0.3,0.7,0.4,0.9
								c0.1,0.2,0.3,0.9,0.7,0.6c0.2-0.1,0.1-0.4,0.1-0.5c0.1-0.2,0.2-0.3,0.3-0.5c0.1-0.2,0-0.4,0.1-0.5c0.1-0.2,0.3-0.3,0.4-0.5
								c0.1-0.2,0-0.4,0-0.5c0.1-0.4,0.1-0.2,0.3-0.4c0.6-0.5,0.8-0.9,1-1.6c0.3-0.7,0.8-1.3,1.1-1.9c0.4-0.7,1.1-1,1.4-1.8
								c0.2-0.8,0.2-1.5-0.2-2.2c-0.2-0.4-0.8-1.4-1.3-1.4c-0.3,0-0.6,0.5-0.8,0.7c-0.4,0.2-0.8,0.3-1.2,0.3c-0.7,0-1.4,0.2-2.1,0.2
								c-0.5,0-1.5-0.3-1.9,0L234.1,81.6z"/>
							<path class="st6" d="M232,80.5c-0.8-0.1-1.4-1.5-2.4-1.7c-1.3-0.3-2.4-0.3-3.4,0.5c-0.9,0.8-1.6,1.5-1.9,2.7
								c-0.2,1.2-0.1,2.7,0.4,3.7c0.5,1,1.6,1.1,2.4,1.8c0.4,0.3,0.8,0.9,0.7,1.4c-0.1,0.7-0.8,0.7-0.1,1.3c0.8,0.7,1.8,0.8,2.4,1.8
								c0.8,1.3,1.2,1.4,2.7,1.6c0.9,0.1,1.9,0.7,2.9,0.5c0.1-2-1.2-0.9-2.4-1.6c-0.9-0.5-1.6-1.5-2-2.4c-0.5-1.1-0.7-2.4-0.4-3.6
								c0.4-1.3,0.8-2.1,0.6-3.4c-0.1-0.5-0.5-1.2-0.3-1.7C231.3,81,232.4,81.1,232,80.5L232,80.5z"/>
							<path class="st6" d="M240.3,80.5c0.8-0.1,1.4-1.5,2.4-1.7c1.3-0.3,2.4-0.3,3.4,0.5c0.9,0.8,1.6,1.5,1.9,2.7
								c0.2,1.2,0.1,2.7-0.4,3.7c-0.5,1-1.6,1.1-2.4,1.8c-0.4,0.3-0.8,0.9-0.7,1.4c0.1,0.7,0.8,0.7,0.1,1.3
								c-0.8,0.7-1.8,0.8-2.4,1.8c-0.8,1.3-1.2,1.4-2.7,1.6c-0.9,0.1-1.9,0.7-2.9,0.5c-0.1-2,1.2-0.9,2.4-1.6c0.9-0.5,1.6-1.5,2-2.4
								c0.5-1.1,0.7-2.4,0.4-3.6c-0.4-1.3-0.8-2.1-0.6-3.4c0.1-0.5,0.5-1.2,0.3-1.7C240.9,81,239.9,81.1,240.3,80.5L240.3,80.5z"/>
						</g>
						<path class="st4" d="M227,92.7c0,0-0.3-1.5,1.1-1.6c0,0,2,0.8,2.3,2.7c0,0-0.3,0.6-0.9,0.1c-0.7-0.5-0.1,0-0.1,0L227,92.7z"/>
						<path class="st6" d="M229.7,94.2c-3.5-0.8-3.4,5.2-3.4,7.5c-0.1,3.3-0.5,6.5-0.4,9.7c0.1,1.5-0.1,3.1,0,4.6
							c0,0.7-0.1,1.6,0,2.3c0.1,0.6,0.4,1.2,0.6,1.8c0.4,1.4,1.1,2.5,1.5,3.8c0.5,1.4,0.2,3.5-1.7,3c-1.2-0.3-2.8-0.1-4-0.6
							c-1.6-0.7-0.3-2.6,0.1-3.6c1.4-3,0.7-5.9,0.8-9.3c0.1-1.7,0.1-3.4,0-4.9c-0.1-1.6-0.2-3.2,0.1-4.9c0.3-1.8,0.3-3.3,0.3-5
							c0-0.7,0-1.5-0.2-2.2c-0.2-0.6-0.6-1.1-0.6-1.8c0-0.7,0.4-1.8,1-2.1c0.8-0.5,1.3,0.2,2.1,0.3c0.9,0.1,1.3-0.3,2.2,0.1
							C228.7,93.1,229.3,93.4,229.7,94.2L229.7,94.2z"/>
						<path class="st4" d="M244.5,92.8c0,0,0.5-1.4-0.9-1.8c0,0-2.2,0.6-2.7,2.4c0,0,0.2,0.7,0.9,0.3c0.7-0.4,0.1,0,0.1,0
							L244.5,92.8z"/>
						<path class="st6" d="M241.6,93.9c3.6-0.4,2.7,5.7,2.4,8c-0.4,3.3-0.4,6.6-0.9,9.8c-0.3,1.5-0.4,3.1-0.6,4.6
							c-0.1,0.7-0.1,1.6-0.3,2.3c-0.2,0.6-0.6,1.2-0.8,1.8c-0.6,1.3-1.5,2.3-2.1,3.6c-0.7,1.4-0.7,3.5,1.3,3.2
							c1.3-0.2,2.8,0.3,4.1-0.1c1.7-0.5,0.7-2.6,0.4-3.7c-1-3.3,0.1-6.1,0.4-9.5c0.2-1.7,0.4-3.4,0.7-5c0.3-1.6,0.6-3.2,0.6-4.9
							c0-1.8,0.1-3.3,0.4-5c0.1-0.7,0.2-1.5,0.5-2.2c0.2-0.6,0.7-1.1,0.9-1.8c0.1-0.7-0.2-1.9-0.7-2.3c-0.7-0.6-1.3,0.1-2.2,0
							c-0.9,0-1.3-0.4-2.2-0.2C242.7,93,242,93.3,241.6,93.9L241.6,93.9z"/>
						<g>
							<path class="st9" d="M235.8,25.6c0,1.3-1.1,2.4-2.4,2.4c-1.3,0-2.4-1.1-2.4-2.4c0-1.3,1.1-2.4,2.4-2.4
								C234.7,23.2,235.8,24.3,235.8,25.6z"/>
							<path class="st9" d="M242.2,25.8c0,1.3-1.1,2.4-2.4,2.4c-1.3,0-2.4-1.1-2.4-2.4c0-1.3,1.1-2.4,2.4-2.4
								C241.1,23.4,242.2,24.5,242.2,25.8z"/>
							<path class="st9" d="M239.3,27.3c0,1.3-1.1,2.4-2.4,2.4c-1.3,0-2.4-1.1-2.4-2.4c0-1.3,1.1-2.4,2.4-2.4
								C238.2,24.9,239.3,26,239.3,27.3z"/>
							<g>
								<path class="st10" d="M237.1,33.1c0,0.1-0.1,0.2-0.2,0.2l0,0c-0.1,0-0.2-0.1-0.2-0.2v-0.9c0-0.1,0.1-0.2,0.2-0.2l0,0
									c0.1,0,0.2,0.1,0.2,0.2V33.1z"/>
								<path class="st10" d="M237.6,33.1c0,0.1-0.1,0.2-0.2,0.2l0,0c-0.1,0-0.2-0.1-0.2-0.2v-0.9c0-0.1,0.1-0.2,0.2-0.2l0,0
									c0.1,0,0.2,0.1,0.2,0.2V33.1z"/>
								<path class="st10" d="M238.1,33c0,0.1-0.1,0.2-0.2,0.2l0,0c-0.1,0-0.2-0.1-0.2-0.2v-0.9c0-0.1,0.1-0.2,0.2-0.2l0,0
									c0.1,0,0.2,0.1,0.2,0.2V33z"/>
								<path class="st10" d="M238.5,33c0,0.1-0.1,0.2-0.2,0.2l0,0c-0.1,0-0.2-0.1-0.2-0.2v-0.9c0-0.1,0.1-0.2,0.2-0.2l0,0
									c0.1,0,0.2,0.1,0.2,0.2V33z"/>
								<path class="st10" d="M239,33c0,0.1-0.1,0.2-0.2,0.2l0,0c-0.1,0-0.2-0.1-0.2-0.2V32c0-0.1,0.1-0.2,0.2-0.2l0,0
									c0.1,0,0.2,0.1,0.2,0.2V33z"/>
								<path class="st10" d="M239.2,32.9c0,0.1-0.1,0.2-0.2,0.2l0,0c-0.1,0-0.2-0.1-0.2-0.2v-0.9c0-0.1,0.1-0.2,0.2-0.2l0,0
									c0.1,0,0.2,0.1,0.2,0.2V32.9z"/>
								<path class="st10" d="M236.2,33c0,0.1,0.1,0.2,0.2,0.2l0,0c0.1,0,0.2-0.1,0.2-0.2v-0.9c0-0.1-0.1-0.2-0.2-0.2l0,0
									c-0.1,0-0.2,0.1-0.2,0.2V33z"/>
								<path class="st10" d="M235.7,33c0,0.1,0.1,0.2,0.2,0.2l0,0c0.1,0,0.2-0.1,0.2-0.2v-0.9c0-0.1-0.1-0.2-0.2-0.2l0,0
									c-0.1,0-0.2,0.1-0.2,0.2V33z"/>
								<path class="st10" d="M235.2,33c0,0.1,0.1,0.2,0.2,0.2l0,0c0.1,0,0.2-0.1,0.2-0.2v-0.9c0-0.1-0.1-0.2-0.2-0.2l0,0
									c-0.1,0-0.2,0.1-0.2,0.2V33z"/>
								<path class="st10" d="M234.8,32.9c0,0.1,0.1,0.2,0.2,0.2l0,0c0.1,0,0.2-0.1,0.2-0.2V32c0-0.1-0.1-0.2-0.2-0.2l0,0
									c-0.1,0-0.2,0.1-0.2,0.2V32.9z"/>
								<path class="st10" d="M234.3,32.9c0,0.1,0.1,0.2,0.2,0.2l0,0c0.1,0,0.2-0.1,0.2-0.2V32c0-0.1-0.1-0.2-0.2-0.2l0,0
									c-0.1,0-0.2,0.1-0.2,0.2V32.9z"/>
								<path class="st10" d="M234.1,32.8c0,0.1,0.1,0.2,0.2,0.2l0,0c0.1,0,0.2-0.1,0.2-0.2v-0.9c0-0.1-0.1-0.2-0.2-0.2l0,0
									c-0.1,0-0.2,0.1-0.2,0.2V32.8z"/>
								<path class="st11" d="M236.7,32.7c0,0.3,0,0.5,0,0.5C236.6,33.2,236.6,33,236.7,32.7c-0.1-0.3-0.1-0.5,0-0.5
									C236.7,32.2,236.7,32.4,236.7,32.7z"/>
								<path class="st11" d="M236.1,32.8c0,0.3,0,0.5,0,0.5C236,33.3,236,33,236.1,32.8c-0.1-0.3-0.1-0.5,0-0.5
									C236.1,32.3,236.1,32.5,236.1,32.8z"/>
								<path class="st11" d="M235.6,32.7c0,0.3,0,0.5,0,0.5C235.6,33.2,235.5,33,235.6,32.7c-0.1-0.3-0.1-0.5,0-0.5
									C235.6,32.3,235.6,32.5,235.6,32.7z"/>
								<path class="st11" d="M235.1,32.7c0,0.3,0,0.5,0,0.5C235.1,33.2,235.1,33,235.1,32.7c-0.1-0.3-0.1-0.5,0-0.5
									C235.1,32.2,235.1,32.4,235.1,32.7z"/>
								<path class="st11" d="M234.7,32.6c0,0.3,0,0.5,0,0.5C234.6,33.1,234.6,32.9,234.7,32.6c-0.1-0.3-0.1-0.5,0-0.5
									C234.6,32.1,234.7,32.4,234.7,32.6z"/>
								<path class="st11" d="M237.2,32.7c0,0.3,0,0.5,0,0.5C237.1,33.2,237.1,33,237.2,32.7c-0.1-0.3-0.1-0.5,0-0.5
									C237.2,32.2,237.2,32.5,237.2,32.7z"/>
								<path class="st11" d="M237.6,32.7c0,0.3,0,0.5,0,0.5C237.6,33.2,237.5,33,237.6,32.7c-0.1-0.3-0.1-0.5,0-0.5
									C237.6,32.2,237.6,32.5,237.6,32.7z"/>
								<path class="st11" d="M238,32.7c0,0.3,0,0.5,0,0.5C238,33.2,237.9,33,238,32.7c-0.1-0.3-0.1-0.5,0-0.5
									C238,32.2,238,32.5,238,32.7z"/>
								<path class="st11" d="M238.5,32.7c0,0.3,0,0.5,0,0.5C238.4,33.2,238.4,33,238.5,32.7c-0.1-0.3-0.1-0.5,0-0.5
									C238.4,32.2,238.5,32.5,238.5,32.7z"/>
								<path class="st11" d="M238.9,32.7c0,0.3,0,0.5,0,0.5C238.9,33.2,238.9,33,238.9,32.7c-0.1-0.3-0.1-0.5,0-0.5
									C238.9,32.2,238.9,32.4,238.9,32.7z"/>
								<g>
									<path class="st12" d="M231.2,28.7c0,0.3,0.1,0.4,0.2,0.6c0.1,0.2,0.1,0.4,0.2,0.6c0.2,0.4,0.7,0.5,1.1,0.6
										c0.2,0,0.5,0.1,0.7,0.1c0.2,0,0.5,0.2,0.6,0.2c0.4-0.1,0-1-0.1-1.3c-0.2-0.4-0.8-0.5-1.2-0.6
										C232.3,28.9,231.6,28.6,231.2,28.7L231.2,28.7z"/>
									<g>
										<path class="st12" d="M242,28.7c0,0.3-0.1,0.4-0.2,0.6c-0.1,0.2-0.1,0.4-0.2,0.6c-0.2,0.4-0.7,0.5-1.1,0.6
											c-0.2,0-0.5,0.1-0.7,0.1c-0.2,0-0.5,0.2-0.6,0.2c-0.4-0.1,0-1,0.1-1.3c0.2-0.4,0.8-0.5,1.2-0.6
											C240.9,28.9,241.6,28.6,242,28.7L242,28.7z"/>
										<path class="st6" d="M240.4,29.1c0,1.1-0.7,2.8-1.4,3.6c-0.5,0.5-1.3,0.4-1.9,0.4c-0.1,0-0.1,0-0.2,0
											c-0.8,0-2.3,0.1-2.7-0.4c-0.7-0.8-1.4-2.5-1.4-3.6l-1.3-0.4c0.1,0.8,0.6,1.4,0.7,2.2c0.1,0.7,0,1.5,0.1,2.2
											c0.1,0.6,1,1.1,1.4,1.5c0.4,0.4,1,1,1.5,1.2c0.4,0.2,1,0.2,1.5,0c0.5,0.2,1.1,0.1,1.5,0c0.5-0.2,1.1-0.8,1.5-1.2
											c0.4-0.4,1.3-0.9,1.4-1.5c0.1-0.8,0-1.5,0.1-2.2c0.1-0.8,0.6-1.4,0.7-2.2L240.4,29.1z"/>
										<path class="st13" d="M240.6,29.9c-0.2,0.9-0.4,1.7-0.9,2.5c-0.1,0.2-0.8,1.1-0.7,0.5c0-0.3,0.5-0.7,0.7-1
											c0.2-0.3,0.4-0.6,0.6-0.9c0.1-0.3,0.2-0.6,0.3-0.9L240.6,29.9z"/>
									</g>
								</g>
								<g>
									<path class="st13" d="M232.6,29.9c0.2,0.9,0.4,1.7,0.9,2.5c0.1,0.2,0.8,1.1,0.7,0.5c0-0.3-0.5-0.7-0.7-1
										c-0.2-0.3-0.4-0.6-0.6-0.9c-0.1-0.3-0.2-0.6-0.3-0.9L232.6,29.9z"/>
								</g>
								<path class="st6" d="M242.6,26.8c0-0.4,0.1-0.8,0.1-1.1c0.3-1.5,0.5-2.7,0-4.2c-0.7-2.4-3.7-4.1-6-3.9
									c-2.4-0.1-5.3,1.5-6,3.9c-0.4,1.5-0.3,2.7,0,4.2c0.1,0.3,0.2,0.7,0.1,1.1c0,0.3-0.2,0.6-0.2,0.9c-0.1,0.9,0.5,1.1,1.2,1.2
									c0.7,0.1,1.8,0.4,2,1.2c0.2,0.4-0.2,0.9,0.3,1c0.4,0.1,0.8-0.4,1.1,0c0.2-0.2,0.4-0.2,0.5,0c0.3-0.3,0.6-0.1,0.8,0
									c0,0,0,0,0,0c0.3-0.1,0.6-0.3,0.9-0.1c0.2-0.2,0.4-0.2,0.5,0c0.3-0.4,0.8,0,1.1,0c0.5-0.1,0.2-0.6,0.3-1
									c0.3-0.8,1.4-1.1,2-1.2c0.7-0.1,1.3-0.4,1.2-1.2C242.7,27.4,242.6,27.1,242.6,26.8z M235,26.4c-0.2,0.2-0.5,0.3-0.7,0.4
									c-0.5,0.2-1,0.5-1.5,0.6c-0.9,0.2-1-0.8-1.1-1.5c0-0.3-0.1-0.8,0-1.1c0.1-0.3,0.5-0.4,0.8-0.5c0.3-0.1,0.6-0.1,0.9-0.2
									c0.3-0.1,0.7-0.2,1.1-0.1c0.3,0.1,0.6,0.4,0.8,0.6c0.2,0.3-0.1,0.8,0.1,1.1h0C235.4,25.9,235.2,26.3,235,26.4z M237.6,28.9
									c-0.5,0.3-0.6-0.5-1-0.3c-0.1,0.1-0.1,0.3-0.3,0.4c-0.2,0.1-0.4,0-0.5-0.1c-0.3-0.2-0.3-0.7-0.2-1.1c0.1-0.4,0.5-1.7,1-1.8
									c0.1,0,0.1,0.1,0.1,0.1l0,0c0,0.3,0.2-0.1,0.3-0.1c0.2,0,0.3,0.3,0.4,0.4c0.2,0.4,0.3,0.8,0.4,1.3
									C237.9,28,238,28.6,237.6,28.9z M241.7,25.9c-0.1,0.7-0.2,1.7-1.1,1.5c-0.5-0.1-1-0.4-1.5-0.6c-0.2-0.1-0.5-0.2-0.7-0.4
									c-0.2-0.1-0.4-0.5-0.3-0.7h0c0.1-0.3-0.1-0.7,0.1-1.1c0.2-0.3,0.4-0.6,0.8-0.6c0.4-0.1,0.8,0,1.1,0.1
									c0.3,0.1,0.6,0.1,0.9,0.2c0.3,0.1,0.6,0.2,0.8,0.5C241.8,25.1,241.7,25.6,241.7,25.9z"/>
								<path class="st6" d="M236.7,32c0,0.1-0.1,0.2-0.2,0.2H236c-0.1,0-0.2-0.1-0.2-0.2v-0.8c0-0.1,0.1-0.2,0.2-0.2h0.5
									c0.1,0,0.2,0.1,0.2,0.2V32z"/>
								<path class="st6" d="M236.1,32c0,0.1-0.1,0.2-0.2,0.2h-0.5c-0.1,0-0.2-0.1-0.2-0.2v-0.8c0-0.1,0.1-0.2,0.2-0.2h0.5
									c0.1,0,0.2,0.1,0.2,0.2V32z"/>
								<path class="st6" d="M235.4,31.9c0,0.1-0.1,0.2-0.2,0.2h-0.4c-0.1,0-0.2-0.1-0.2-0.2v-0.7c0-0.1,0.1-0.2,0.2-0.2h0.4
									c0.1,0,0.2,0.1,0.2,0.2V31.9z"/>
								<path class="st6" d="M235.1,31.9c0,0.1-0.1,0.2-0.2,0.2h-0.4c-0.1,0-0.2-0.1-0.2-0.2v-0.7c0-0.1,0.1-0.2,0.2-0.2h0.4
									c0.1,0,0.2,0.1,0.2,0.2V31.9z"/>
								<path class="st6" d="M234.8,31.8c0,0.1-0.1,0.2-0.2,0.2h-0.4c-0.1,0-0.2-0.1-0.2-0.2v-0.7c0-0.1,0.1-0.2,0.2-0.2h0.4
									c0.1,0,0.2,0.1,0.2,0.2V31.8z"/>
								<path class="st14" d="M230.8,26.9c0.5-0.4,0.1-1.6,0.3-2.1c0.1-0.3,0.3-0.5,0.5-0.8c0.2-0.4-0.1-0.6-0.2-0.9
									c-0.1-0.2-0.1-0.3-0.2-0.5c0-0.1,0-0.4-0.2-0.5c-0.3-0.1-0.5,0.5-0.5,0.7c-0.1,0.4,0,0.8,0,1.1c0,0.4,0,0.8,0,1.2
									C230.6,25.7,231,26.4,230.8,26.9L230.8,26.9z"/>
								<path class="st14" d="M232.3,29c0.7,0,1.2,0,1.9,0.2c0.3,0.1,0.5,0.3,0.6,0.5c0.1,0.3,0,0.5,0,0.9c0.1,0.1,0.2,0,0.3,0
									c0.1,0,0.1,0,0.2,0c0.1,0,0.1,0.1,0.2,0.1c0.1,0,0.2-0.1,0.3-0.1c0.2,0,0.1,0.1,0.2,0.1c0.2,0.1,0.4-0.2,0.6,0
									c0.2,0.1,0.2,0.5,0.3,0.6c-0.3-0.1-0.5-0.3-0.8-0.2c-0.2,0.1-0.1,0.1-0.3,0c-0.1,0-0.3,0-0.4,0.1c-0.3-0.3-0.5-0.1-0.8,0
									c-0.4,0.1-0.7,0-0.6-0.4c0-0.4,0.1-0.6-0.1-0.9c-0.2-0.3-0.4-0.4-0.7-0.6C232.8,29.2,232.4,29.2,232.3,29L232.3,29z"/>
								<path class="st6" d="M236.7,32c0,0.1,0.1,0.2,0.2,0.2h0.4c0.1,0,0.2-0.1,0.2-0.2v-0.8c0-0.1-0.1-0.2-0.2-0.2h-0.4
									c-0.1,0-0.2,0.1-0.2,0.2V32z"/>
								<path class="st6" d="M237.2,32c0,0.1,0.1,0.2,0.2,0.2h0.4c0.1,0,0.2-0.1,0.2-0.2v-0.8c0-0.1-0.1-0.2-0.2-0.2h-0.4
									c-0.1,0-0.2,0.1-0.2,0.2V32z"/>
								<path class="st6" d="M238,31.9c0,0.1,0.1,0.2,0.2,0.2h0.4c0.1,0,0.2-0.1,0.2-0.2v-0.7c0-0.1-0.1-0.2-0.2-0.2h-0.4
									c-0.1,0-0.2,0.1-0.2,0.2V31.9z"/>
								<path class="st6" d="M238.3,31.9c0,0.1,0.1,0.2,0.2,0.2h0.4c0.1,0,0.2-0.1,0.2-0.2v-0.7c0-0.1-0.1-0.2-0.2-0.2h-0.4
									c-0.1,0-0.2,0.1-0.2,0.2V31.9z"/>
								<path class="st6" d="M238.6,31.8c0,0.1,0.1,0.2,0.2,0.2h0.4c0.1,0,0.2-0.1,0.2-0.2v-0.7c0-0.1-0.1-0.2-0.2-0.2h-0.4
									c-0.1,0-0.2,0.1-0.2,0.2V31.8z"/>
								<path class="st14" d="M242.5,26.9c-0.5-0.4-0.1-1.6-0.3-2.1c-0.1-0.3-0.3-0.5-0.5-0.8c-0.2-0.4,0.1-0.6,0.2-0.9
									c0.1-0.2,0.1-0.3,0.2-0.5c0-0.1,0-0.4,0.2-0.5c0.3-0.1,0.5,0.5,0.5,0.7c0.1,0.4,0,0.8,0,1.1c0,0.4,0,0.8,0,1.2
									C242.7,25.7,242.4,26.4,242.5,26.9L242.5,26.9z"/>
								<path class="st14" d="M241.1,29c-0.7,0-1.2,0-1.9,0.2c-0.3,0.1-0.5,0.3-0.6,0.5c-0.1,0.3,0,0.5-0.1,0.9
									c-0.1,0.1-0.2,0-0.3,0c-0.1,0-0.1,0-0.2,0c-0.1,0-0.1,0.1-0.2,0.1c-0.1,0-0.2-0.1-0.3-0.1c-0.2,0-0.1,0.1-0.2,0.1
									c-0.2,0.1-0.4-0.2-0.6,0c-0.2,0.1-0.4,0.5-0.3,0.6c0.3-0.1,0.5-0.3,0.8-0.2c0.2,0.1,0.1,0.1,0.3,0c0.1,0,0.3,0,0.4,0.1
									c0.3-0.3,0.5-0.1,0.8,0c0.4,0.1,0.7,0,0.6-0.4c0-0.4-0.1-0.6,0.1-0.9c0.2-0.3,0.4-0.4,0.7-0.6
									C240.6,29.2,240.9,29.2,241.1,29L241.1,29z"/>
							</g>
							<path class="st15" d="M236.7,31.6c0,0.2,0,0.4,0,0.4C236.6,32,236.6,31.8,236.7,31.6c0-0.2,0-0.4,0-0.4
								C236.7,31.2,236.7,31.4,236.7,31.6z"/>
							<path class="st15" d="M237.6,31.5c0,0.2,0,0.4,0,0.4C237.6,31.9,237.6,31.7,237.6,31.5c0-0.2,0-0.4,0-0.4
								C237.6,31.1,237.6,31.3,237.6,31.5z"/>
							<path class="st15" d="M238.1,31.5c0,0.2,0,0.4,0,0.4C238.1,31.9,238.1,31.7,238.1,31.5c0-0.2,0-0.4,0-0.4
								C238.1,31.1,238.1,31.3,238.1,31.5z"/>
							<path class="st15" d="M238.6,31.4c0,0.2,0,0.4,0,0.4C238.6,31.8,238.6,31.6,238.6,31.4c0-0.2,0-0.4,0-0.4
								C238.6,31,238.6,31.2,238.6,31.4z"/>
							<path class="st15" d="M239,31.4c0,0.2,0,0.4,0,0.4C239,31.8,239,31.6,239,31.4c0-0.2,0-0.4,0-0.4C239,31,239,31.2,239,31.4z"
								/>
							<path class="st15" d="M235.8,31.5c0,0.2,0,0.4,0,0.4C235.8,31.9,235.8,31.7,235.8,31.5c0-0.2,0-0.4,0-0.4
								C235.8,31.1,235.8,31.3,235.8,31.5z"/>
							<path class="st15" d="M235.3,31.4c0,0.2,0,0.4,0,0.4C235.2,31.8,235.2,31.7,235.3,31.4c0-0.2,0-0.4,0-0.4
								C235.3,31.1,235.3,31.2,235.3,31.4z"/>
							<path class="st15" d="M234.7,31.4c0,0.2,0,0.4,0,0.4C234.6,31.7,234.6,31.6,234.7,31.4c0-0.2,0-0.4,0-0.4
								C234.6,31,234.7,31.1,234.7,31.4z"/>
							<path class="st15" d="M234.2,31.4c0,0.2,0,0.4,0,0.4C234.2,31.8,234.2,31.6,234.2,31.4c0-0.2,0-0.4,0-0.4
								C234.2,31,234.2,31.2,234.2,31.4z"/>
						</g>
					</g>
				</g>
			</g>
			<path class="st16" d="M234.1,14.8c0,0-1.7,0.2-2.2-1.7s0.6-3.4,2.1-3.9c1.5-0.5,5.8-0.2,7.4,0.4c1.6,0.6,2.2,3.4,1.1,4.9
				C241.2,16.2,234.9,15.1,234.1,14.8z"/>
			<g>
				<path class="st17" d="M246.4,25.5c-0.3-0.2-0.5-0.3-0.8-0.4c-0.7-4.2-3.9-7.9-8-8.1c-4-0.2-7.4,2.9-8.7,6.8
					c-0.9,0.3-1.9,1.2-1.9,2.5c0,1.1,0.7,2.1,1.5,2.4c0.7,4.5,4.4,8,8.1,8.1c4.1,0.2,7.6-3,8.8-7.4c0.3,0,0.6-0.1,0.8-0.2
					c0.5-0.4,0.9-1.1,1-1.9C247.2,26.7,246.9,26,246.4,25.5z"/>
			</g>
			<path class="st18" d="M234.1,23.4l-2,0c-0.3,0-0.6,0.3-0.6,0.6l0,0c0,0.3,0.3,0.6,0.6,0.6l2,0c0.3,0,0.6-0.3,0.6-0.6l0,0
				C234.7,23.7,234.5,23.4,234.1,23.4z"/>
			<path class="st18" d="M240.3,23.5l2,0.1c0.3,0,0.6,0.3,0.6,0.6l0,0c0,0.3-0.3,0.6-0.6,0.6l-2-0.1c-0.3,0-0.6-0.3-0.6-0.6l0,0
				C239.7,23.8,240,23.5,240.3,23.5z"/>
			<path class="st19" d="M237.9,33.1c-0.4,0.4-1,0.5-1.4,0c-0.4-0.5-1.2,0.2-0.7,0.7c0.8,0.8,2,0.9,2.8,0
				C239,33.4,238.3,32.7,237.9,33.1z"/>
			<path class="st20" d="M242.1,26.2c-0.4,0.4-1,0.5-1.4,0c-0.4-0.5-1.2,0.2-0.7,0.7c0.8,0.8,2,0.9,2.8,0
				C243.2,26.4,242.6,25.7,242.1,26.2z"/>
			<path class="st20" d="M234.1,26.2c-0.4,0.4-1,0.5-1.4,0c-0.4-0.5-1.2,0.2-0.7,0.7c0.8,0.8,2,0.9,2.8,0
				C235.2,26.4,234.5,25.7,234.1,26.2z"/>
			<path class="st21" d="M244,16.1c-2.1-2.2-8.7-4.2-13.2-0.3c-0.2,0.1-0.3,0.3-0.5,0.4c0,0,0,0,0,0c0,0-2.6,1.8-3.5,5.2
				s0.2,5,0.4,6.7c0.2,1.6-0.5,2.3,0.1,4.2c0.6,1.9,1.7,1.9,2.1,3.1c0.4,1.2,0,2.1,0,2.1s0.8-0.9,0.6-2.7s-0.9-2.4-1-3.5
				c-0.1-1.1,0.6-2.1,1.5-4.1c0.9-2,1.1-3.6,4.8-4.7c2.7-0.8,4-2.8,4.5-3.9c1.2,0.4,3.4,1.2,3.6,3.1c0.5,2.6,1.9,3.8,1.2,6.3
				c0,0,1.6-1.1,2-3C247.2,22.3,246.5,18.8,244,16.1z"/>
		</g>
		<g>
			<g>
				<line class="st22" x1="80.1" y1="59.3" x2="107.9" y2="59.3"/>
			</g>
			<g>
				<g>
					<rect x="80.1" y="55.1" class="st22" width="15.8" height="8.4"/>
				</g>
				<g>
					<g>
						<polygon class="st22" points="93.5,67.7 107.9,59.3 93.5,51 						"/>
					</g>
				</g>
			</g>
		</g>
		<g>
			<g>
				<line class="st22" x1="183.1" y1="59.3" x2="211" y2="59.3"/>
			</g>
			<g>
				<g>
					<rect x="183.1" y="55.1" class="st22" width="15.8" height="8.4"/>
				</g>
				<g>
					<g>
						<polygon class="st22" points="196.5,67.7 211,59.3 196.5,51 						"/>
					</g>
				</g>
			</g>
		</g>
		<text transform="matrix(1 0 0 1 25 66.333)" class="st23 st24 st25">Sr</text>
		<text transform="matrix(1 0 0 1 24 76.8945)" class="st23 st24 st26">Strontium</text>
		<circle class="st27" cx="130.2" cy="81.1" r="1.8"/>
		<circle class="st27" cx="138.5" cy="87.9" r="1.8"/>
		<circle class="st27" cx="119.7" cy="73.1" r="1.8"/>
		<circle class="st27" cx="123.7" cy="63.4" r="1.8"/>
		<circle class="st27" cx="164.6" cy="62.2" r="1.8"/>
		<circle class="st27" cx="168.5" cy="83.6" r="1.8"/>
		<circle class="st27" cx="117.7" cy="58.1" r="1.8"/>
		<circle class="st27" cx="158.9" cy="84.4" r="1.4"/>
		<circle class="st27" cx="155.2" cy="91.9" r="1.4"/>
		<circle class="st27" cx="170.7" cy="58.2" r="1.4"/>
		<circle class="st27" cx="159.3" cy="58.8" r="1.4"/>
		<circle class="st27" cx="131.2" cy="71.8" r="1.4"/>
		<circle class="st27" cx="157.6" cy="74.9" r="1.4"/>
		<circle class="st27" cx="172.7" cy="70.1" r="1.4"/>
		<circle class="st27" cx="146.5" cy="94.5" r="1.4"/>
		<circle class="st27" cx="130.4" cy="55.6" r="1.4"/>
		<g>
			<g>
				<g>
					<polygon class="st28" points="145.7,53.3 145.7,53.3 147.3,53.9 147.3,53.9 156.9,27.5 155.3,26.9 					"/>
					<g>
						<path class="st29" d="M154.2,24.4C154.2,24.4,154.2,24.5,154.2,24.4c-0.6,1.7-0.3,3.1,0.1,4.1c0.4,0.9,1.4,1.3,2.3,0.8
							c0.9-0.5,2.1-1.4,2.7-3c0,0,0,0,0,0c0,0,0,0,0,0c1.1-3-0.6-6.1-0.6-6.1S155.3,21.5,154.2,24.4
							C154.2,24.4,154.2,24.4,154.2,24.4z"/>
					</g>
					<g>
						<path class="st29" d="M157.2,29.7C157.2,29.7,157.2,29.7,157.2,29.7c-1.8,1.1-2.8,2.8-3.2,3.9c-0.2,0.5,0.1,1.1,0.6,1.2
							c0.9,0.2,2.4,0.3,4-0.7c0,0,0,0,0,0c0,0,0,0,0,0c2.6-1.6,3.5-4.8,3.5-4.8S159.8,28.1,157.2,29.7
							C157.2,29.7,157.2,29.7,157.2,29.7z"/>
					</g>
					<g>
						<g>
							<path class="st29" d="M153.7,28.3C153.7,28.3,153.7,28.3,153.7,28.3c0.7,2,0.3,4-0.1,5c-0.2,0.5-0.8,0.8-1.3,0.5
								c-0.8-0.4-2-1.3-2.6-3.1c0,0,0,0,0,0c0,0,0,0,0,0c-1-2.9,0.4-5.9,0.4-5.9S152.7,25.4,153.7,28.3
								C153.7,28.3,153.7,28.3,153.7,28.3z"/>
						</g>
					</g>
					<g>
						<path class="st29" d="M155,35.8C155,35.8,155,35.8,155,35.8c-1.8,1.1-2.8,2.8-3.2,3.9c-0.2,0.5,0.1,1.1,0.6,1.2
							c0.9,0.2,2.4,0.3,4-0.7c0,0,0,0,0,0c0,0,0,0,0,0c2.6-1.6,3.5-4.8,3.5-4.8S157.6,34.2,155,35.8C155,35.8,155,35.8,155,35.8z"/>
					</g>
					<g>
						<g>
							<path class="st29" d="M151.4,34.4C151.4,34.4,151.4,34.4,151.4,34.4c0.7,2,0.3,4-0.1,5c-0.2,0.5-0.8,0.8-1.3,0.5
								c-0.8-0.4-2-1.3-2.6-3.1c0,0,0,0,0,0c0,0,0,0,0,0c-1-2.9,0.4-5.9,0.4-5.9S150.5,31.5,151.4,34.4
								C151.4,34.4,151.4,34.4,151.4,34.4z"/>
						</g>
					</g>
				</g>
				<g>
					<polygon class="st28" points="145.3,53.2 145.3,53.2 146.9,52.6 146.9,52.6 137.6,26.9 135.9,27.5 					"/>
					<g>
						<path class="st29" d="M133.4,26.3C133.4,26.3,133.4,26.3,133.4,26.3c0.6,1.7,1.8,2.6,2.7,3.1c0.8,0.4,1.8,0,2.2-0.8
							c0.4-1,0.7-2.4,0.1-4.1c0,0,0,0,0,0c0,0,0,0,0,0c-1.1-3-4.4-4.3-4.4-4.3S132.4,23.3,133.4,26.3
							C133.4,26.3,133.4,26.3,133.4,26.3z"/>
					</g>
					<g>
						<path class="st29" d="M139.1,28.3C139.1,28.3,139.1,28.3,139.1,28.3c-0.7,2-0.3,4,0.1,5c0.2,0.5,0.8,0.8,1.3,0.5
							c0.8-0.4,2-1.3,2.6-3.1c0,0,0,0,0,0c0,0,0,0,0,0c1-2.9-0.4-5.9-0.4-5.9S140.1,25.4,139.1,28.3
							C139.1,28.3,139.1,28.3,139.1,28.3z"/>
					</g>
					<g>
						<g>
							<path class="st29" d="M135.6,29.8C135.6,29.8,135.6,29.8,135.6,29.8c1.8,1.1,2.8,2.8,3.2,3.9c0.2,0.5-0.1,1.1-0.6,1.2
								c-0.9,0.2-2.4,0.3-4-0.7c0,0,0,0,0,0c0,0,0,0,0,0c-2.6-1.6-3.5-4.8-3.5-4.8S133,28.2,135.6,29.8
								C135.6,29.7,135.6,29.8,135.6,29.8z"/>
						</g>
					</g>
					<g>
						<path class="st29" d="M141.4,34.4C141.4,34.4,141.4,34.4,141.4,34.4c-0.7,2-0.3,4,0.1,5c0.2,0.5,0.8,0.8,1.3,0.5
							c0.8-0.4,2-1.3,2.6-3.1c0,0,0,0,0,0c0,0,0,0,0,0c1-2.9-0.4-5.9-0.4-5.9S142.3,31.5,141.4,34.4
							C141.4,34.4,141.4,34.4,141.4,34.4z"/>
					</g>
					<g>
						<g>
							<path class="st29" d="M137.8,35.8C137.8,35.8,137.8,35.8,137.8,35.8c1.8,1.1,2.8,2.8,3.2,3.9c0.2,0.5-0.1,1.1-0.6,1.2
								c-0.9,0.2-2.4,0.3-4-0.7c0,0,0,0,0,0c0,0,0,0,0,0c-2.6-1.6-3.5-4.8-3.5-4.8S135.2,34.3,137.8,35.8
								C137.8,35.8,137.8,35.8,137.8,35.8z"/>
						</g>
					</g>
				</g>
				<g>
					<polygon class="st30" points="145.5,47.3 145.5,47.3 147.2,47.3 147.2,47.3 147.2,17.7 145.5,17.7 					"/>
					<g>
						<path class="st31" d="M143.6,15.7C143.6,15.7,143.6,15.7,143.6,15.7c0,1.7,0.7,2.9,1.4,3.7c0.7,0.8,1.9,0.8,2.6,0
							c0.7-0.8,1.4-2,1.4-3.7c0,0,0,0,0,0c0,0,0,0,0,0c0-3.2-2.7-5.6-2.7-5.6S143.6,12.5,143.6,15.7
							C143.6,15.7,143.6,15.7,143.6,15.7z"/>
					</g>
					<g>
						<path class="st31" d="M148.4,19.6C148.4,19.6,148.4,19.6,148.4,19.6c-1.2,1.5-1.6,3.2-1.6,4.4c-0.1,0.8,0.6,1.4,1.4,1.2
							c0.9-0.2,2.1-0.7,3.2-2c0,0,0,0,0,0c0,0,0,0,0,0c1.9-2.4,1.6-5.7,1.6-5.7S150.3,17.2,148.4,19.6
							C148.4,19.6,148.4,19.6,148.4,19.6z"/>
					</g>
					<g>
						<g>
							<path class="st31" d="M144.3,19.6C144.3,19.6,144.3,19.6,144.3,19.6c1.2,1.5,1.6,3.2,1.6,4.4c0.1,0.8-0.6,1.4-1.4,1.2
								c-0.9-0.2-2.1-0.7-3.2-2c0,0,0,0,0,0c0,0,0,0,0,0c-1.9-2.4-1.6-5.7-1.6-5.7S142.4,17.2,144.3,19.6
								C144.3,19.6,144.3,19.6,144.3,19.6z"/>
						</g>
					</g>
					<g>
						<path class="st31" d="M148.4,26.1C148.4,26.1,148.4,26.1,148.4,26.1c-1.2,1.5-1.6,3.2-1.6,4.4c-0.1,0.8,0.6,1.4,1.4,1.2
							c0.9-0.2,2.1-0.7,3.2-2c0,0,0,0,0,0c0,0,0,0,0,0c1.9-2.4,1.6-5.7,1.6-5.7S150.3,23.7,148.4,26.1
							C148.4,26.1,148.4,26.1,148.4,26.1z"/>
					</g>
					<g>
						<g>
							<path class="st31" d="M144.3,26.1C144.3,26.1,144.3,26.1,144.3,26.1c1.2,1.5,1.6,3.2,1.6,4.4c0.1,0.8-0.6,1.4-1.4,1.2
								c-0.9-0.2-2.1-0.7-3.2-2c0,0,0,0,0,0c0,0,0,0,0,0c-1.9-2.4-1.6-5.7-1.6-5.7S142.4,23.7,144.3,26.1
								C144.3,26.1,144.3,26.1,144.3,26.1z"/>
						</g>
					</g>
				</g>
			</g>
			<g>
				<g>
					<path class="st32" d="M150.3,44.3c2.9,0,5.1,2.7,4.6,5.5l-4.8,34.5c-0.4,2.4-1.2,11.5-3.7,11.6v0c0,0,0,0,0,0c0,0,0,0,0,0v0
						c-2.5,0-3.3-9.2-3.7-11.6l-4.8-34.5c-0.6-2.9,1.6-5.5,4.6-5.5H150.3z"/>
					<path class="st33" d="M142.2,60.1c0.6,0,1.2,0.5,1.2,1.2v0c0,0.6-0.5,1.2-1.2,1.2H140l-0.4-2.3H142.2z"/>
					<path class="st33" d="M145.9,84c0.6,0,1.2,0.5,1.2,1.2v0c0,0.6-0.5,1.2-1.2,1.2h-2.2l-0.4-2.3H145.9z"/>
					<path class="st33" d="M147.3,65.3L147.3,65.3c0-0.7,0.5-1.2,1.2-1.2h4l-0.4,2.3h-3.7C147.8,66.4,147.3,65.9,147.3,65.3z"/>
					<path class="st33" d="M145.5,77.5L145.5,77.5c0-0.7,0.5-1.2,1.2-1.2h4l-0.4,2.3h-3.7C146,78.6,145.5,78.1,145.5,77.5z"/>
					<path class="st33" d="M145.6,48.1h-0.3h-2.9h-1.1c-0.6,0-1.2,0.5-1.2,1.2v0c0,0.6,0.5,1.2,1.2,1.2h1.5h2.1h0.7
						c0.6,0,1.2-0.5,1.2-1.2v0C146.8,48.7,146.3,48.1,145.6,48.1z"/>
					<path class="st33" d="M150.3,53.9H148c-0.6,0-1.2,0.5-1.2,1.2v0c0,0.6,0.5,1.2,1.2,1.2h2.3c0.6,0,1.2-0.5,1.2-1.2v0
						C151.5,54.4,151,53.9,150.3,53.9z"/>
					<path class="st33" d="M141.2,69.4h3.6c0.6,0,1.2,0.5,1.2,1.2v0c0,0.6-0.5,1.2-1.2,1.2h-3.2L141.2,69.4z"/>
				</g>
			</g>
		</g>
	</g>
</g>
</svg>
