<?xml version="1.0" encoding="utf-8"?>
<!-- Generator: Adobe Illustrator 23.0.1, SVG Export Plug-In . SVG Version: 6.00 Build 0)  -->
<svg version="1.1" id="Layer_1" xmlns="http://www.w3.org/2000/svg" xmlns:xlink="http://www.w3.org/1999/xlink" x="0px" y="0px"
	 viewBox="0 0 223.9 223.9" style="enable-background:new 0 0 223.9 223.9;" xml:space="preserve">
<style type="text/css">
	.st0{fill-rule:evenodd;clip-rule:evenodd;fill:#DE6126;}
	.st1{fill:#FFFFFF;}
</style>
<g>
	<g>
		<path class="st0" d="M111.9,0c61.8,0,111.9,50.1,111.9,111.9s-50.1,111.9-111.9,111.9C50.1,223.9,0,173.8,0,111.9S50.1,0,111.9,0z
			"/>
	</g>
	<g>
		<path class="st1" d="M26.8,89.6c-0.6-2.4-0.6-4.6,0-6.6h25c0.7,2.1,0.7,4.3,0,6.6H26.8z M26.8,102.1c-0.6-2.4-0.6-4.6,0-6.6h25
			c0.7,2.1,0.7,4.3,0,6.6H26.8z"/>
		<path class="st1" d="M74.4,80c0-3.8,1.1-6.7,3.3-8.9c2.2-2.2,5.5-3.5,9.8-3.9L87,59.5c0.9-0.4,2.1-0.5,3.5-0.5
			c0.7,0,1.3,0,1.9,0.1c0.6,0.1,1,0.2,1.2,0.3l0.4,0.2L93.3,67c1.8,0.1,3.6,0.3,5.4,0.6c1.8,0.3,3.1,0.6,4,0.8l1.3,0.4
			c0,1-0.1,2.2-0.5,3.5c-0.2,0.5-0.4,1.1-0.7,1.5s-0.5,0.8-0.8,1l-0.3,0.3c-2.8-0.9-5.9-1.4-9.5-1.4c-3,0-5.3,0.4-6.9,1.2
			c-1.6,0.8-2.4,2.2-2.4,4.1c0,1,0.3,1.9,1,2.6c0.7,0.8,1.6,1.3,2.7,1.8s2.4,0.9,3.8,1.3c1.5,0.4,2.9,0.9,4.4,1.3s2.9,1,4.3,1.7
			s2.7,1.5,3.8,2.4c1.1,0.9,2,2.1,2.7,3.6c0.7,1.5,1,3.3,1,5.2c0,7.7-4.5,12-13.4,12.9l0.7,8.4c-0.7,0.4-1.9,0.5-3.4,0.5
			c-0.6,0-1.3,0-1.8-0.1c-0.6-0.1-1-0.2-1.3-0.3l-0.4-0.1l0.6-8.3c-2.3-0.1-4.6-0.4-6.7-0.8c-2.2-0.5-3.7-0.9-4.7-1.3l-1.5-0.6
			c-0.2-0.8-0.1-1.8,0.3-3.2c0.2-0.6,0.4-1.2,0.6-1.7c0.3-0.5,0.5-0.9,0.7-1.1l0.3-0.3c0.5,0.2,1.1,0.3,2,0.6
			c0.8,0.2,2.4,0.5,4.6,0.9s4.3,0.5,6.2,0.5c3,0,5.2-0.4,6.6-1.2s2.2-2.2,2.2-4.2c0-1.3-0.4-2.5-1.3-3.4c-0.9-0.9-2-1.6-3.4-2
			c-1.4-0.5-2.9-0.9-4.6-1.5c-1.6-0.5-3.3-1.1-5-1.6s-3.2-1.2-4.6-2.1c-1.4-0.8-2.5-2-3.4-3.6C74.9,83.9,74.4,82.1,74.4,80z"/>
		<path class="st1" d="M110.8,75.4c2.8-0.8,5.2-1.8,7.1-3.1c2-1.3,3.7-3.1,5.4-5.3c0.9-0.4,2.3-0.6,4.2-0.6c0.8,0,1.6,0,2.3,0.1
			c0.7,0.1,1.2,0.2,1.5,0.3l0.4,0.2v44.7c-0.9,0.4-2.3,0.6-4.3,0.6c-0.8,0-1.6,0-2.3-0.1c-0.7-0.1-1.3-0.2-1.6-0.3l-0.5-0.1V85.8
			c0-3.1,0.1-5.9,0.3-8.4c-2.9,2.3-6.4,4-10.6,5c-0.8-0.8-1.4-1.9-1.8-3.1C110.7,78,110.6,76.7,110.8,75.4z"/>
		<path class="st1" d="M140.5,110.5c-0.1-1.2,0.1-2.3,0.5-3.5c0.4-1.2,0.9-2.1,1.6-2.8c2.9,0.9,6,1.4,9.4,1.4c3.1,0,5.4-0.5,6.9-1.6
			c1.5-1,2.3-2.9,2.3-5.5c0-2.4-0.6-4.1-1.9-5.2c-1.3-1.1-3.3-1.6-6.2-1.6h-5.7c-0.9-2.3-0.9-4.5,0-6.6h5.7c4.4,0,6.6-2,6.6-6
			c0-2.2-0.6-3.9-1.9-4.8c-1.3-1-3.2-1.5-5.8-1.5c-1.4,0-2.8,0.1-4.2,0.4s-2.4,0.5-3.1,0.7l-1,0.4c-2-1.5-2.9-3.5-2.6-6.1
			c0.3-0.2,0.8-0.4,1.4-0.7c0.6-0.3,1.9-0.6,4-1.1c2-0.5,4.1-0.7,6.3-0.7c4.9,0,8.7,1.1,11.5,3.2c2.7,2.1,4.1,5.2,4.1,9.3
			c0,5-1.8,8.3-5.4,10.1c4.6,1.8,6.9,5.7,6.9,11.5c0,4.4-1.4,7.7-4.1,9.9s-7.1,3.4-13.2,3.4c-1.5,0-2.9-0.1-4.2-0.2
			c-1.4-0.2-2.5-0.4-3.4-0.6c-0.9-0.2-1.7-0.5-2.4-0.7c-0.7-0.2-1.2-0.5-1.5-0.6L140.5,110.5z"/>
		<path class="st1" d="M175.3,75.4c2.8-0.8,5.2-1.8,7.1-3.1c2-1.3,3.7-3.1,5.4-5.3c0.9-0.4,2.3-0.6,4.2-0.6c0.8,0,1.6,0,2.3,0.1
			c0.7,0.1,1.2,0.2,1.5,0.3l0.4,0.2v44.7c-0.9,0.4-2.3,0.6-4.3,0.6c-0.8,0-1.6,0-2.3-0.1c-0.7-0.1-1.3-0.2-1.6-0.3l-0.5-0.1V85.8
			c0-3.1,0.1-5.9,0.3-8.4c-2.9,2.3-6.4,4-10.6,5c-0.8-0.8-1.4-1.9-1.8-3.1C175.1,78,175.1,76.7,175.3,75.4z"/>
		<path class="st1" d="M54.7,168.6v-23.8c0.4-0.2,1.1-0.3,2-0.3c0.4,0,0.8,0,1.1,0.1c0.3,0,0.6,0.1,0.7,0.1l0.2,0.1v1.1
			c0.9-1.1,2.4-1.7,4.4-1.7c0.9,0,1.7,0.2,2.4,0.5s1.3,0.8,1.9,1.5c0.5,0.7,0.9,1.6,1.2,2.8c0.3,1.2,0.4,2.5,0.4,4.2
			c0,1.6-0.1,3-0.4,4.2c-0.3,1.2-0.7,2.1-1.2,2.8c-0.5,0.7-1.1,1.2-1.9,1.5s-1.5,0.5-2.4,0.5c-2,0-3.5-0.6-4.4-1.7v8.4
			c-0.5,0.2-1.2,0.3-2.1,0.3c-0.4,0-0.8,0-1.1-0.1c-0.3,0-0.6-0.1-0.7-0.1L54.7,168.6z M58.8,155.1c0,1,0.3,1.9,0.8,2.5
			c0.5,0.7,1.2,1,2.1,1c0.5,0,1-0.1,1.4-0.2c0.4-0.2,0.7-0.4,1-0.8s0.5-1,0.7-1.7c0.1-0.7,0.2-1.7,0.2-2.8s-0.1-2-0.2-2.8
			c-0.1-0.7-0.4-1.3-0.7-1.7s-0.6-0.7-1-0.8c-0.4-0.2-0.8-0.2-1.4-0.2c-0.9,0-1.6,0.3-2.1,1c-0.5,0.6-0.8,1.5-0.8,2.5V155.1z"/>
		<path class="st1" d="M72.1,153c0-3,0.6-5.2,1.9-6.6c1.3-1.4,3.1-2.2,5.4-2.2c2.1,0,3.7,0.6,4.9,1.7s1.8,2.8,1.8,5.1
			c0,0.6,0,1.2-0.1,1.8c-0.1,0.6-0.1,1-0.2,1.2l-0.1,0.4h-9.6c0.1,1.6,0.5,2.6,1.2,3.3s1.6,0.9,2.8,0.9c0.6,0,1.3-0.1,1.9-0.2
			c0.6-0.1,1.1-0.3,1.4-0.4l0.4-0.2c0.4,0.3,0.6,0.8,0.9,1.3s0.4,1.1,0.4,1.6c-0.1,0-0.1,0.1-0.2,0.1c-0.1,0.1-0.3,0.2-0.7,0.3
			s-0.7,0.3-1.1,0.4s-0.9,0.2-1.5,0.3c-0.6,0.1-1.3,0.1-2,0.1c-2.6,0-4.5-0.7-5.8-2.2C72.7,158.2,72.1,155.9,72.1,153z M76.3,151.5
			h5.7c0-0.5,0.1-0.8,0.1-1.1c0-2-0.9-3-2.6-3C77.6,147.4,76.6,148.8,76.3,151.5z"/>
		<path class="st1" d="M89.6,161.4v-16.6c0.4-0.2,1.1-0.2,2-0.2c0.4,0,0.8,0,1.1,0.1c0.3,0,0.6,0.1,0.7,0.1l0.2,0.1v1.8
			c1.2-1.6,2.4-2.4,3.6-2.4c1,0,2,0.3,2.9,0.8c-0.1,1.4-0.7,2.5-1.8,3.4c-0.6-0.5-1.2-0.7-1.9-0.7c-1.1,0-2,0.6-2.8,1.7v11.9
			c-0.5,0.2-1.2,0.3-2,0.3c-0.4,0-0.8,0-1.1-0.1c-0.3,0-0.6-0.1-0.7-0.1L89.6,161.4z"/>
		<path class="st1" d="M108.7,161.4v-16.6c0.4-0.2,1.1-0.3,2-0.3c0.4,0,0.8,0,1.1,0.1c0.3,0,0.6,0.1,0.7,0.1l0.2,0.1v1
			c1.1-1,2.5-1.6,4.2-1.6c1.9,0,3.3,0.6,4.2,1.9c1.3-1.3,3-1.9,5.1-1.9c1.6,0,2.8,0.5,3.6,1.4c0.9,0.9,1.3,2.1,1.3,3.6v12.2
			c-0.5,0.2-1.2,0.3-2,0.3c-0.4,0-0.8,0-1.1-0.1c-0.3,0-0.6-0.1-0.7-0.1l-0.2-0.1v-11.5c0-1.6-0.8-2.3-2.4-2.3c-1,0-1.9,0.4-2.7,1.2
			v12.6c-0.5,0.2-1.2,0.3-2,0.3c-0.4,0-0.8,0-1.1-0.1s-0.6-0.1-0.7-0.1l-0.2-0.1v-11.5c0-1.6-0.8-2.3-2.4-2.3c-1,0-1.9,0.4-2.7,1.2
			v12.6c-0.5,0.2-1.2,0.3-2,0.3c-0.4,0-0.8,0-1.1-0.1c-0.3,0-0.6-0.1-0.7-0.1L108.7,161.4z"/>
		<path class="st1" d="M136.6,159.8c-1.3-1.4-1.9-3.7-1.9-6.7c0-3.1,0.6-5.3,1.9-6.7c1.3-1.4,3.1-2.1,5.5-2.1c2.4,0,4.2,0.7,5.5,2.1
			c1.3,1.4,1.9,3.7,1.9,6.8c0,3.1-0.6,5.4-1.9,6.8s-3.1,2.1-5.5,2.1S137.9,161.2,136.6,159.8z M139.1,150.3
			c-0.2,0.8-0.2,1.7-0.2,2.8s0.1,2,0.2,2.8c0.2,0.8,0.4,1.3,0.7,1.8s0.6,0.7,1,0.9c0.4,0.2,0.8,0.2,1.4,0.2c0.5,0,1-0.1,1.4-0.2
			s0.7-0.5,1-0.9c0.3-0.4,0.5-1,0.7-1.8s0.2-1.7,0.2-2.8c0-1.1-0.1-2.1-0.2-2.8c-0.1-0.8-0.4-1.3-0.7-1.7c-0.3-0.4-0.6-0.7-1-0.9
			s-0.8-0.3-1.4-0.3c-0.5,0-1,0.1-1.4,0.3c-0.4,0.2-0.7,0.5-1,0.9C139.5,148.9,139.3,149.5,139.1,150.3z"/>
		<path class="st1" d="M153.2,161.4v-16.6c0.4-0.2,1.1-0.3,2-0.3c0.4,0,0.8,0,1.1,0.1c0.3,0,0.6,0.1,0.7,0.1l0.2,0.1v1
			c1.1-1.1,2.6-1.6,4.5-1.6c1.6,0,2.9,0.4,3.8,1.3s1.3,2.1,1.3,3.6v12.2c-0.5,0.2-1.2,0.3-2,0.3c-0.4,0-0.8,0-1.1-0.1
			c-0.3,0-0.6-0.1-0.7-0.1l-0.2-0.1v-11.5c0-0.7-0.2-1.3-0.6-1.7s-1.1-0.6-2-0.6c-1.1,0-2,0.4-2.9,1.2v12.6c-0.5,0.2-1.2,0.3-2,0.3
			c-0.4,0-0.8,0-1.1-0.1c-0.3,0-0.6-0.1-0.7-0.1L153.2,161.4z"/>
		<path class="st1" d="M169.5,146.1c0-0.3,0-0.6,0.1-0.9s0.1-0.5,0.1-0.6l0-0.2h2.5v-2.7c0.9-0.5,2-0.8,3.3-0.8c0.3,0,0.5,0,0.8,0
			v3.4h3.8c0.1,0.4,0.2,0.9,0.2,1.6c0,0.3,0,0.5-0.1,0.8s-0.1,0.5-0.1,0.6l0,0.2h-3.8v7.6c0,1.3,0.2,2.2,0.7,2.6
			c0.5,0.5,1.3,0.7,2.4,0.7l1.1-0.1c0.2,0.5,0.3,1.1,0.3,1.7c0,0.3,0,0.5-0.1,0.8s-0.1,0.4-0.1,0.6l0,0.2c-0.7,0.2-1.5,0.3-2.4,0.3
			c-2.1,0-3.6-0.5-4.5-1.6c-1-1.1-1.5-2.7-1.5-4.8v-7.8h-2.5C169.5,147.3,169.5,146.8,169.5,146.1z"/>
		<path class="st1" d="M183.5,161.4v-23.8c0.4-0.2,1.1-0.3,2-0.3c0.4,0,0.8,0,1.1,0.1c0.3,0,0.6,0.1,0.7,0.1l0.2,0.1v8.3
			c1.1-1.1,2.6-1.6,4.5-1.6c1.6,0,2.9,0.4,3.8,1.3s1.3,2.1,1.3,3.6v12.2c-0.5,0.2-1.2,0.3-2,0.3c-0.4,0-0.8,0-1.1-0.1
			c-0.3,0-0.6-0.1-0.7-0.1l-0.2-0.1v-11.5c0-0.7-0.2-1.3-0.6-1.7s-1.1-0.6-2-0.6c-1.1,0-2,0.4-2.9,1.2v12.6c-0.5,0.2-1.2,0.3-2,0.3
			c-0.4,0-0.8,0-1.1-0.1c-0.3,0-0.6-0.1-0.7-0.1L183.5,161.4z"/>
	</g>
</g>
</svg>
