<?xml version="1.0" encoding="utf-8"?>
<!-- Generator: Adobe Illustrator 23.0.1, SVG Export Plug-In . SVG Version: 6.00 Build 0)  -->
<svg version="1.1" id="Layer_1" xmlns="http://www.w3.org/2000/svg" xmlns:xlink="http://www.w3.org/1999/xlink" x="0px" y="0px"
	 viewBox="0 0 223.9 223.9" style="enable-background:new 0 0 223.9 223.9;" xml:space="preserve">
<style type="text/css">
	.st0{fill-rule:evenodd;clip-rule:evenodd;fill:#DE6126;}
	.st1{fill:#FFFFFF;}
</style>
<g>
	<path class="st0" d="M111.9,0c61.8,0,111.9,50.1,111.9,111.9s-50.1,111.9-111.9,111.9C50.1,223.9,0,173.8,0,111.9S50.1,0,111.9,0z"
		/>
	<path class="st1" d="M26.8,89.6c-0.6-2.4-0.6-4.6,0-6.6h25c0.7,2.1,0.7,4.3,0,6.6H26.8z M26.8,102.1c-0.6-2.4-0.6-4.6,0-6.6h25
		c0.7,2.1,0.7,4.3,0,6.6H26.8z M54.7,168.6v-23.8c0.4-0.2,1.1-0.3,2-0.3c0.4,0,0.8,0,1.1,0.1c0.3,0,0.6,0.1,0.7,0.1l0.2,0.1v1.1
		c0.9-1.1,2.4-1.7,4.4-1.7c0.9,0,1.7,0.2,2.4,0.5s1.3,0.8,1.9,1.5c0.5,0.7,0.9,1.6,1.2,2.8c0.3,1.2,0.4,2.5,0.4,4.2
		c0,1.6-0.1,3-0.4,4.2s-0.7,2.1-1.2,2.8s-1.1,1.2-1.9,1.5s-1.5,0.5-2.4,0.5c-2,0-3.5-0.6-4.4-1.7v8.4c-0.5,0.2-1.2,0.3-2.1,0.3
		c-0.4,0-0.8,0-1.1-0.1c-0.3,0-0.6-0.1-0.7-0.1L54.7,168.6L54.7,168.6z M58.8,155.1c0,1,0.3,1.9,0.8,2.5c0.5,0.7,1.2,1,2.1,1
		c0.5,0,1-0.1,1.4-0.2c0.4-0.2,0.7-0.4,1-0.8c0.3-0.4,0.5-1,0.7-1.7c0.1-0.7,0.2-1.7,0.2-2.8s-0.1-2-0.2-2.8
		c-0.1-0.7-0.4-1.3-0.7-1.7s-0.6-0.7-1-0.8c-0.4-0.2-0.8-0.2-1.4-0.2c-0.9,0-1.6,0.3-2.1,1c-0.5,0.6-0.8,1.5-0.8,2.5V155.1z
		 M72.1,153c0-3,0.6-5.2,1.9-6.6c1.3-1.4,3.1-2.2,5.4-2.2c2.1,0,3.7,0.6,4.9,1.7s1.8,2.8,1.8,5.1c0,0.6,0,1.2-0.1,1.8
		s-0.1,1-0.2,1.2l-0.1,0.4h-9.6c0.1,1.6,0.5,2.6,1.2,3.3s1.6,0.9,2.8,0.9c0.6,0,1.3-0.1,1.9-0.2c0.6-0.1,1.1-0.3,1.4-0.4l0.4-0.2
		c0.4,0.3,0.6,0.8,0.9,1.3s0.4,1.1,0.4,1.6c-0.1,0-0.1,0.1-0.2,0.1c-0.1,0.1-0.3,0.2-0.7,0.3s-0.7,0.3-1.1,0.4s-0.9,0.2-1.5,0.3
		s-1.3,0.1-2,0.1c-2.6,0-4.5-0.7-5.8-2.2C72.7,158.2,72.1,155.9,72.1,153L72.1,153z M76.3,151.5H82c0-0.5,0.1-0.8,0.1-1.1
		c0-2-0.9-3-2.6-3C77.6,147.4,76.6,148.8,76.3,151.5z M89.6,161.4v-16.6c0.4-0.2,1.1-0.2,2-0.2c0.4,0,0.8,0,1.1,0.1
		c0.3,0,0.6,0.1,0.7,0.1l0.2,0.1v1.8c1.2-1.6,2.4-2.4,3.6-2.4c1,0,2,0.3,2.9,0.8c-0.1,1.4-0.7,2.5-1.8,3.4c-0.6-0.5-1.2-0.7-1.9-0.7
		c-1.1,0-2,0.6-2.8,1.7v11.9c-0.5,0.2-1.2,0.3-2,0.3c-0.4,0-0.8,0-1.1-0.1c-0.3,0-0.6-0.1-0.7-0.1C89.8,161.5,89.6,161.4,89.6,161.4
		z M108.7,161.4v-16.6c0.4-0.2,1.1-0.3,2-0.3c0.4,0,0.8,0,1.1,0.1c0.3,0,0.6,0.1,0.7,0.1l0.2,0.1v1c1.1-1,2.5-1.6,4.2-1.6
		c1.9,0,3.3,0.6,4.2,1.9c1.3-1.3,3-1.9,5.1-1.9c1.6,0,2.8,0.5,3.6,1.4c0.9,0.9,1.3,2.1,1.3,3.6v12.2c-0.5,0.2-1.2,0.3-2,0.3
		c-0.4,0-0.8,0-1.1-0.1c-0.3,0-0.6-0.1-0.7-0.1l-0.2-0.1v-11.5c0-1.6-0.8-2.3-2.4-2.3c-1,0-1.9,0.4-2.7,1.2v12.6
		c-0.5,0.2-1.2,0.3-2,0.3c-0.4,0-0.8,0-1.1-0.1s-0.6-0.1-0.7-0.1l-0.2-0.1v-11.5c0-1.6-0.8-2.3-2.4-2.3c-1,0-1.9,0.4-2.7,1.2v12.6
		c-0.5,0.2-1.2,0.3-2,0.3c-0.4,0-0.8,0-1.1-0.1c-0.3,0-0.6-0.1-0.7-0.1L108.7,161.4L108.7,161.4z M136.6,159.8
		c-1.3-1.4-1.9-3.7-1.9-6.7c0-3.1,0.6-5.3,1.9-6.7c1.3-1.4,3.1-2.1,5.5-2.1s4.2,0.7,5.5,2.1c1.3,1.4,1.9,3.7,1.9,6.8
		s-0.6,5.4-1.9,6.8s-3.1,2.1-5.5,2.1S137.9,161.2,136.6,159.8L136.6,159.8z M139.1,150.3c-0.2,0.8-0.2,1.7-0.2,2.8s0.1,2,0.2,2.8
		c0.2,0.8,0.4,1.3,0.7,1.8s0.6,0.7,1,0.9s0.8,0.2,1.4,0.2c0.5,0,1-0.1,1.4-0.2s0.7-0.5,1-0.9s0.5-1,0.7-1.8s0.2-1.7,0.2-2.8
		s-0.1-2.1-0.2-2.8c-0.1-0.8-0.4-1.3-0.7-1.7s-0.6-0.7-1-0.9s-0.8-0.3-1.4-0.3c-0.5,0-1,0.1-1.4,0.3s-0.7,0.5-1,0.9
		C139.5,148.9,139.3,149.5,139.1,150.3z M153.2,161.4v-16.6c0.4-0.2,1.1-0.3,2-0.3c0.4,0,0.8,0,1.1,0.1c0.3,0,0.6,0.1,0.7,0.1
		l0.2,0.1v1c1.1-1.1,2.6-1.6,4.5-1.6c1.6,0,2.9,0.4,3.8,1.3s1.3,2.1,1.3,3.6v12.2c-0.5,0.2-1.2,0.3-2,0.3c-0.4,0-0.8,0-1.1-0.1
		c-0.3,0-0.6-0.1-0.7-0.1l-0.2-0.1v-11.5c0-0.7-0.2-1.3-0.6-1.7s-1.1-0.6-2-0.6c-1.1,0-2,0.4-2.9,1.2v12.6c-0.5,0.2-1.2,0.3-2,0.3
		c-0.4,0-0.8,0-1.1-0.1c-0.3,0-0.6-0.1-0.7-0.1L153.2,161.4L153.2,161.4z M169.5,146.1c0-0.3,0-0.6,0.1-0.9s0.1-0.5,0.1-0.6v-0.2
		h2.5v-2.7c0.9-0.5,2-0.8,3.3-0.8h0.8v3.4h3.8c0.1,0.4,0.2,0.9,0.2,1.6c0,0.3,0,0.5-0.1,0.8s-0.1,0.5-0.1,0.6v0.2h-3.8v7.6
		c0,1.3,0.2,2.2,0.7,2.6c0.5,0.5,1.3,0.7,2.4,0.7l1.1-0.1c0.2,0.5,0.3,1.1,0.3,1.7c0,0.3,0,0.5-0.1,0.8s-0.1,0.4-0.1,0.6v0.2
		c-0.7,0.2-1.5,0.3-2.4,0.3c-2.1,0-3.6-0.5-4.5-1.6c-1-1.1-1.5-2.7-1.5-4.8v-7.8h-2.5C169.5,147.3,169.5,146.8,169.5,146.1z
		 M183.5,161.4v-23.8c0.4-0.2,1.1-0.3,2-0.3c0.4,0,0.8,0,1.1,0.1c0.3,0,0.6,0.1,0.7,0.1l0.2,0.1v8.3c1.1-1.1,2.6-1.6,4.5-1.6
		c1.6,0,2.9,0.4,3.8,1.3s1.3,2.1,1.3,3.6v12.2c-0.5,0.2-1.2,0.3-2,0.3c-0.4,0-0.8,0-1.1-0.1c-0.3,0-0.6-0.1-0.7-0.1l-0.2-0.1v-11.5
		c0-0.7-0.2-1.3-0.6-1.7s-1.1-0.6-2-0.6c-1.1,0-2,0.4-2.9,1.2v12.6c-0.5,0.2-1.2,0.3-2,0.3c-0.4,0-0.8,0-1.1-0.1
		c-0.3,0-0.6-0.1-0.7-0.1L183.5,161.4L183.5,161.4z"/>
	<g>
		<path class="st1" d="M73.1,81c0-3.8,1.1-6.9,3.4-9.1c2.3-2.2,5.6-3.6,10-4L86,60.1c0.9-0.4,2.1-0.6,3.5-0.6c0.7,0,1.3,0,1.9,0.1
			c0.6,0.1,1,0.2,1.3,0.3l0.4,0.2l-0.6,7.7c1.8,0.1,3.7,0.3,5.5,0.6s3.2,0.6,4.1,0.8l1.4,0.4c0,1.1-0.1,2.2-0.5,3.6
			c-0.2,0.6-0.4,1.1-0.7,1.6c-0.3,0.5-0.6,0.8-0.8,1.1l-0.3,0.3c-2.8-1-6.1-1.4-9.7-1.4c-3.1,0-5.4,0.4-7,1.2
			c-1.6,0.8-2.4,2.2-2.4,4.2c0,1,0.3,1.9,1,2.7c0.7,0.8,1.6,1.4,2.7,1.8c1.1,0.4,2.4,0.9,3.9,1.3c1.5,0.4,3,0.9,4.5,1.3s3,1,4.4,1.8
			c1.5,0.7,2.8,1.6,3.9,2.5s2,2.2,2.7,3.7s1,3.3,1,5.3c0,7.9-4.6,12.3-13.7,13.2l0.7,8.6c-0.8,0.4-1.9,0.5-3.5,0.5
			c-0.7,0-1.3,0-1.9-0.1c-0.6-0.1-1-0.2-1.3-0.3l-0.4-0.1l0.6-8.5c-2.4-0.1-4.7-0.4-6.9-0.8c-2.2-0.5-3.8-0.9-4.8-1.3l-1.6-0.6
			c-0.2-0.8-0.1-1.9,0.3-3.3c0.2-0.6,0.4-1.2,0.6-1.7s0.5-0.9,0.7-1.1l0.3-0.3c0.5,0.2,1.2,0.3,2,0.6c0.9,0.2,2.4,0.5,4.7,0.9
			c2.3,0.4,4.4,0.6,6.3,0.6c3,0,5.3-0.4,6.7-1.2c1.5-0.8,2.2-2.3,2.2-4.3c0-1.4-0.5-2.5-1.3-3.5s-2.1-1.6-3.5-2.1
			c-1.4-0.5-3-1-4.7-1.5c-1.7-0.5-3.4-1.1-5.1-1.7c-1.7-0.6-3.3-1.3-4.7-2.1c-1.4-0.9-2.6-2.1-3.5-3.6C73.6,85.1,73.1,83.2,73.1,81z
			"/>
		<path class="st1" d="M110.3,76.3c2.9-0.8,5.3-1.8,7.3-3.2c2-1.4,3.8-3.2,5.5-5.4c0.9-0.4,2.3-0.6,4.3-0.6c0.9,0,1.6,0.1,2.4,0.2
			c0.7,0.1,1.2,0.2,1.5,0.3l0.4,0.2v45.7c-0.9,0.4-2.4,0.6-4.3,0.6c-0.8,0-1.6-0.1-2.3-0.2c-0.8-0.1-1.3-0.2-1.6-0.3l-0.5-0.1V87
			c0-3.1,0.1-6,0.3-8.6c-2.9,2.4-6.5,4-10.8,5.1c-0.9-0.8-1.5-1.9-1.9-3.2S110.1,77.7,110.3,76.3z"/>
		<path class="st1" d="M140.7,112.2c-0.1-1.2,0.1-2.4,0.5-3.6c0.4-1.2,0.9-2.1,1.7-2.9c2.9,1,6.1,1.4,9.6,1.4c3.2,0,5.6-0.5,7.1-1.6
			c1.5-1.1,2.3-2.9,2.3-5.6c0-2.4-0.7-4.2-2-5.4c-1.3-1.1-3.4-1.7-6.3-1.7h-5.9c-1-2.3-1-4.6,0-6.8h5.9c4.5,0,6.8-2,6.8-6.1
			c0-2.3-0.7-3.9-2-4.9c-1.3-1-3.3-1.5-6-1.5c-1.5,0-2.9,0.1-4.3,0.4c-1.4,0.2-2.4,0.5-3.1,0.7l-1,0.4c-2.1-1.5-3-3.6-2.7-6.3
			c0.3-0.2,0.8-0.4,1.4-0.7c0.6-0.3,2-0.7,4.1-1.1c2.1-0.5,4.2-0.7,6.5-0.7c5,0,8.9,1.1,11.7,3.2c2.8,2.2,4.2,5.3,4.2,9.5
			c0,5.1-1.8,8.5-5.5,10.3c4.7,1.9,7,5.8,7,11.7c0,4.5-1.4,7.9-4.1,10.1c-2.8,2.3-7.2,3.4-13.4,3.4c-1.5,0-2.9-0.1-4.3-0.3
			c-1.4-0.2-2.6-0.4-3.5-0.6c-0.9-0.2-1.8-0.5-2.5-0.7c-0.7-0.2-1.2-0.5-1.6-0.6L140.7,112.2z"/>
		<path class="st1" d="M177.3,109.4c0-2.5,0.3-4.7,1-6.6s1.8-3.7,3.3-5.4s2.9-2.8,3.8-3.6c1-0.8,2.6-1.9,4.8-3.4
			c0.3-0.2,0.4-0.3,0.6-0.4c2.2-1.5,3.8-2.7,4.9-3.6c1.1-0.9,1.9-1.9,2.4-3c0.6-1.1,0.8-2.3,0.8-3.8c0-2-0.7-3.6-2.2-4.6
			c-1.4-1-3.4-1.5-6-1.5c-1.4,0-2.9,0.1-4.5,0.4s-2.7,0.6-3.6,0.9l-1.2,0.4c-1.9-1.6-2.8-3.7-2.5-6.3c0.4-0.2,1-0.4,1.8-0.7
			c0.7-0.3,2.3-0.6,4.6-1.1c2.3-0.4,4.6-0.7,6.8-0.7c2.2,0,4.3,0.2,6.1,0.7c1.8,0.5,3.5,1.2,4.9,2.2c1.4,1,2.6,2.3,3.4,4
			s1.2,3.7,1.2,6c0,1.1-0.1,2.1-0.2,3.1s-0.4,1.8-0.7,2.7c-0.3,0.8-0.7,1.6-1,2.2c-0.3,0.6-0.9,1.3-1.6,2c-0.7,0.7-1.3,1.3-1.8,1.8
			s-1.3,1.1-2.3,1.7c-1,0.7-1.9,1.2-2.5,1.7c-0.7,0.4-1.6,1-2.9,1.8c-0.4,0.2-1,0.6-1.9,1.1c-0.9,0.5-1.6,1-2.1,1.2
			c-0.5,0.3-1,0.7-1.8,1.3c-0.7,0.6-1.3,1.1-1.6,1.5c-0.4,0.4-0.7,1-1,1.6c-0.3,0.6-0.4,1.3-0.4,2c0,0.2,0,0.6,0.1,1h20.2
			c0.6,1,0.8,2.3,0.8,3.8c0,1.4-0.3,2.7-0.8,3.9h-28.6C177.4,112.5,177.3,111,177.3,109.4z"/>
	</g>
</g>
</svg>
