<svg id="Layer_1" data-name="Layer 1" xmlns="http://www.w3.org/2000/svg" xmlns:xlink="http://www.w3.org/1999/xlink" viewBox="0 0 150 29.72"><defs><style>.cls-1{fill:none}.cls-2{fill:#d21f31}.cls-3{fill:#343466}.cls-4{fill:#e51e25}.cls-5{clip-path:url(#clip-path)}.cls-6{fill:url(#linear-gradient)}.cls-7{clip-path:url(#clip-path-2)}.cls-8{fill:url(#linear-gradient-2)}.cls-9{fill:#3c1c0d}.cls-10{clip-path:url(#clip-path-3)}.cls-11{fill:#47260f}.cls-12{fill:url(#linear-gradient-3)}.cls-13{clip-path:url(#clip-path-5)}.cls-14{fill:#714b1e}.cls-15{fill:url(#linear-gradient-4)}.cls-16{clip-path:url(#clip-path-7)}.cls-17{fill:url(#linear-gradient-5)}.cls-18{clip-path:url(#clip-path-9)}.cls-19{fill:#664118}.cls-20{fill:url(#linear-gradient-6)}.cls-21{clip-path:url(#clip-path-11)}.cls-22{fill:url(#linear-gradient-7)}.cls-23{clip-path:url(#clip-path-13)}.cls-24{fill:#9c7a56}.cls-25{fill:url(#linear-gradient-8)}.cls-26{fill:#8b653f}.cls-27{fill:#785328}.cls-28{clip-path:url(#clip-path-15)}.cls-29{fill:#523010}.cls-30{fill:url(#linear-gradient-9)}.cls-31{clip-path:url(#clip-path-17)}.cls-32{fill:#825c34}.cls-33{fill:url(#linear-gradient-10)}.cls-34{clip-path:url(#clip-path-19)}.cls-35{fill:url(#linear-gradient-11)}.cls-36{clip-path:url(#clip-path-21)}.cls-37{fill:url(#linear-gradient-12)}.cls-38{clip-path:url(#clip-path-23)}.cls-39{fill:url(#linear-gradient-13)}.cls-40{clip-path:url(#clip-path-25)}.cls-41{fill:#3c1c0c}.cls-42{fill:url(#linear-gradient-14)}.cls-43{clip-path:url(#clip-path-27)}.cls-44{fill:url(#linear-gradient-15)}.cls-45{clip-path:url(#clip-path-29)}.cls-46{fill:url(#linear-gradient-16)}.cls-47{clip-path:url(#clip-path-31)}.cls-48{fill:#8d6842}.cls-49{fill:url(#linear-gradient-17)}.cls-50{clip-path:url(#clip-path-33)}.cls-51{fill:url(#linear-gradient-18)}.cls-52{fill:#905a24}.cls-53{clip-path:url(#clip-path-35)}.cls-54{fill:#ffd569}.cls-55{fill:url(#linear-gradient-19)}.cls-56{clip-path:url(#clip-path-37)}.cls-57{fill:url(#linear-gradient-20)}.cls-58{clip-path:url(#clip-path-39)}.cls-59{fill:#efcc95}.cls-60{fill:url(#linear-gradient-21)}.cls-61{clip-path:url(#clip-path-41)}.cls-62{fill:url(#linear-gradient-22)}.cls-63{clip-path:url(#clip-path-43)}.cls-64{fill:#e3ac53}.cls-65{fill:url(#linear-gradient-23)}.cls-66{clip-path:url(#clip-path-45)}.cls-67{fill:#dead72}.cls-68{fill:url(#linear-gradient-24)}.cls-69{clip-path:url(#clip-path-47)}.cls-70{fill:#eabd79}.cls-71{fill:url(#linear-gradient-25)}.cls-72{clip-path:url(#clip-path-49)}.cls-73{fill:#c17a2a}.cls-74{fill:url(#linear-gradient-26)}.cls-75{fill:#edc68c}.cls-76{clip-path:url(#clip-path-51)}.cls-77{fill:url(#linear-gradient-27)}.cls-78{clip-path:url(#clip-path-53)}.cls-79{fill:url(#linear-gradient-28)}.cls-80{clip-path:url(#clip-path-55)}.cls-81{fill:url(#linear-gradient-29)}.cls-82{clip-path:url(#clip-path-57)}.cls-83{fill:url(#linear-gradient-30)}.cls-84{clip-path:url(#clip-path-59)}.cls-85{fill:url(#linear-gradient-31)}.cls-86{clip-path:url(#clip-path-61)}.cls-87{fill:url(#linear-gradient-32)}.cls-88{clip-path:url(#clip-path-63)}.cls-89{fill:url(#linear-gradient-33)}.cls-90{clip-path:url(#clip-path-65)}.cls-91{fill:url(#linear-gradient-34)}.cls-92{clip-path:url(#clip-path-67)}.cls-93{fill:#dfb27d}.cls-94{fill:url(#linear-gradient-35)}.cls-95{clip-path:url(#clip-path-69)}.cls-96{fill:url(#linear-gradient-36)}.cls-97{clip-path:url(#clip-path-71)}.cls-98{fill:url(#linear-gradient-37)}.cls-99{clip-path:url(#clip-path-73)}.cls-100{fill:#ffedc1}.cls-101{fill:url(#linear-gradient-38)}.cls-102{clip-path:url(#clip-path-75)}.cls-103{fill:url(#linear-gradient-39)}.cls-104{clip-path:url(#clip-path-77)}.cls-105{fill:url(#linear-gradient-40)}.cls-106{clip-path:url(#clip-path-79)}.cls-107{fill:#ffe4a2}.cls-108{fill:url(#linear-gradient-41)}.cls-109{clip-path:url(#clip-path-81)}.cls-110{fill:#db9b28}.cls-111{fill:url(#linear-gradient-42)}.cls-112{clip-path:url(#clip-path-83)}.cls-113{fill:url(#linear-gradient-43)}.cls-114{fill:#f7e4ca}.cls-115{clip-path:url(#clip-path-85)}.cls-116{fill:url(#linear-gradient-44)}.cls-117{clip-path:url(#clip-path-87)}.cls-118{fill:url(#linear-gradient-45)}.cls-119{clip-path:url(#clip-path-88)}.cls-120{fill:url(#linear-gradient-46)}.cls-121{fill:#f9efe1}.cls-122{clip-path:url(#clip-path-90)}.cls-123{fill:url(#linear-gradient-47)}.cls-124{clip-path:url(#clip-path-92)}.cls-125{fill:url(#linear-gradient-48)}.cls-126{clip-path:url(#clip-path-94)}.cls-127{fill:#d99128}.cls-128{fill:url(#radial-gradient)}</style><clipPath id="clip-path" transform="translate(0 -.14)"><path class="cls-1" d="M105 3.07A22.22 22.22 0 0 0 97.32.72 30.84 30.84 0 0 0 93 .45h-1.3a30.47 30.47 0 0 0-3.36.3 26.54 26.54 0 0 0-3.43.73A18.76 18.76 0 0 0 81 3.07v14.18a9 9 0 0 0 3.15 7.19 14 14 0 0 0 2.15 1.36c.73.41 1.55.82 2.35 1.21s1.87.88 2.62 1.21c1 .46 1.74.75 1.74.74s1.57-.64 3.44-1.51a29.27 29.27 0 0 0 5.37-3 9 9 0 0 0 3.18-7.21V3.07"/></clipPath><linearGradient id="linear-gradient" x1="966.82" y1="-1487.37" x2="969.62" y2="-1487.37" gradientTransform="matrix(8.85 0 0 8.85 -8477.77 13180.94)" gradientUnits="userSpaceOnUse"><stop offset="0" stop-color="#ffd66b"/><stop offset=".28" stop-color="#fee2d2"/><stop offset=".49" stop-color="#e9ab70"/><stop offset="1" stop-color="#dc9427"/></linearGradient><clipPath id="clip-path-2" transform="translate(0 -.14)"><path class="cls-1" d="M104 3.26a37.35 37.35 0 0 0-11.19.3 24.87 24.87 0 0 0-3.32.9A21.54 21.54 0 0 0 86.06 6a20.11 20.11 0 0 0-4.1 3v8.18a8.08 8.08 0 0 0 2.83 6.46l3.45 1.79 2.64 1.37L93 28c1.41-.59 6.55-2.84 8.22-4.25a8.08 8.08 0 0 0 2.78-6.5v-14"/></clipPath><linearGradient id="linear-gradient-2" x1="966.91" y1="-1487.58" x2="968.11" y2="-1487.3" gradientTransform="matrix(8.85 0 0 8.85 -8477.77 13180.94)" gradientUnits="userSpaceOnUse"><stop offset="0" stop-color="#dbc9b8"/><stop offset=".31" stop-color="#785124"/><stop offset="1" stop-color="#4c2b11"/></linearGradient><clipPath id="clip-path-3" transform="translate(0 -.14)"><path class="cls-1" d="M100.7 17.56a.91.91 0 0 0 .24-.65h-.08a.82.82 0 0 1-.21.59 1 1 0 0 1-.74.26v.08a1.07 1.07 0 0 0 .79-.28"/></clipPath><linearGradient id="linear-gradient-3" x1="184.06" y1="-1454.59" x2="184.11" y2="-1454.59" gradientTransform="matrix(18.73 0 0 -42.25 -3348.32 -61438.92)" gradientUnits="userSpaceOnUse"><stop offset="0" stop-color="#47260f"/><stop offset="1" stop-color="#47260f"/></linearGradient><clipPath id="clip-path-5" transform="translate(0 -.14)"><path class="cls-1" d="M103.46 17h.08c0-1.33-.32-2.38-2.18-3.5v.07c1.83 1.1 2.18 2.13 2.14 3.43"/></clipPath><linearGradient id="linear-gradient-4" x1="102.15" y1="-1404.47" x2="102.21" y2="-1404.47" gradientTransform="matrix(40.34 0 0 -88.41 -4019.2 -124160.14)" gradientUnits="userSpaceOnUse"><stop offset="0" stop-color="#714b1e"/><stop offset="1" stop-color="#9c7a56"/></linearGradient><clipPath id="clip-path-7" transform="translate(0 -.14)"><path class="cls-1" d="M97.75 19.38l-.12-.07h-.08l.15.09a4.85 4.85 0 0 0 2.49.69v-.08a4.79 4.79 0 0 1-2.45-.68m5.7-2.42h.08a3.34 3.34 0 0 1-.83 2.13 3.3 3.3 0 0 1-2.51 1v-.08a3.23 3.23 0 0 0 2.45-1 3.28 3.28 0 0 0 .81-2.08z"/></clipPath><linearGradient id="linear-gradient-5" x1="58.81" y1="-1407.04" x2="58.87" y2="-1407.04" gradientTransform="matrix(108.58 0 0 -82.64 -6288.08 -116253.28)" gradientUnits="userSpaceOnUse"><stop offset="0" stop-color="#47260f"/><stop offset="1" stop-color="#9c7a56"/></linearGradient><clipPath id="clip-path-9" transform="translate(0 -.14)"><path class="cls-1" d="M98 17a3.08 3.08 0 0 0 1.87.8v-.08a3 3 0 0 1-1.79-.72l-.51-.46.08.17.35.29"/></clipPath><linearGradient id="linear-gradient-6" x1="100.18" y1="-1441.66" x2="100.24" y2="-1441.66" gradientTransform="matrix(42.46 0 0 -48.8 -4155.81 -70331.58)" gradientUnits="userSpaceOnUse"><stop offset="0" stop-color="#664118"/><stop offset="1" stop-color="#47260f"/></linearGradient><clipPath id="clip-path-11" transform="translate(0 -.14)"><path class="cls-1" d="M101.15 13.43l.17.1v-.07l-.17-.1c-.73-.43-1.08-.67-1.07-1.19H100c0 .56.37.82 1.11 1.25"/></clipPath><linearGradient id="linear-gradient-7" x1="-85.88" y1="-1273.48" x2="-85.82" y2="-1273.48" gradientTransform="matrix(-23.87 0 0 49.4 -1948.17 62917.85)" xlink:href="#linear-gradient-4"/><clipPath id="clip-path-13" transform="translate(0 -.14)"><path class="cls-1" d="M85.32 9.71v6.8h.08V9.4l-.08.08v.23"/></clipPath><linearGradient id="linear-gradient-8" x1=".54" y1="-1474.68" x2=".59" y2="-1474.68" gradientTransform="matrix(0 -129.38 -26.47 0 -38955.2 85.75)" gradientUnits="userSpaceOnUse"><stop offset="0" stop-color="#9c7a56"/><stop offset="1" stop-color="#af906f"/></linearGradient><clipPath id="clip-path-15" transform="translate(0 -.14)"><path class="cls-1" d="M86.19 17.79v-.08c-.22 0-.8 0-.8-1.2h-.08c0 1.27.66 1.27.88 1.28m0 0v-.08a1.67 1.67 0 0 0 .69-.12h.08a1.71 1.71 0 0 1-.77.15z"/></clipPath><linearGradient id="linear-gradient-9" x1="-70" y1="-1272.64" x2="-69.95" y2="-1272.64" gradientTransform="matrix(-29.99 0 0 48.04 -2012.35 61155.89)" gradientUnits="userSpaceOnUse"><stop offset="0" stop-color="#523010"/><stop offset="1" stop-color="#9c7a56"/></linearGradient><clipPath id="clip-path-17" transform="translate(0 -.14)"><path class="cls-1" d="M89.45 19.19a5.81 5.81 0 0 1-3.34.88v.08a5.89 5.89 0 0 0 3.38-.89l.14-.09h-.08l-.1.07m-5.85-.07a3.94 3.94 0 0 1-.83-2.7h-.07a4 4 0 0 0 .85 2.75 3.36 3.36 0 0 0 2.57 1v-.08a3.29 3.29 0 0 1-2.51-1zm-.9-9.74l.08.07v6.9h-.08v-7z"/></clipPath><linearGradient id="linear-gradient-10" x1="57.15" y1="-1376.62" x2="57.2" y2="-1376.62" gradientTransform="matrix(126.1 0 0 -219.71 -7123.68 -302448.76)" gradientUnits="userSpaceOnUse"><stop offset="0" stop-color="#825c34"/><stop offset="1" stop-color="#9c7a56"/></linearGradient><clipPath id="clip-path-19" transform="translate(0 -.14)"><path class="cls-1" d="M99.74 15.49v.07c.9.54 1.15.82 1.16 1.33h.08c0-.54-.27-.84-1.2-1.39m0 0v.07A5 5 0 0 1 97.9 14a3.12 3.12 0 0 1-.43-1.72h.08c0 1.23.37 2.16 2.19 3.24z"/></clipPath><linearGradient id="linear-gradient-11" x1="78.13" y1="-1395.79" x2="78.18" y2="-1395.79" gradientTransform="matrix(62.91 0 0 -108.9 -4817.29 -151992.06)" gradientUnits="userSpaceOnUse"><stop offset="0" stop-color="#47260f"/><stop offset=".5" stop-color="#9c7a56"/><stop offset="1" stop-color="#47260f"/></linearGradient><clipPath id="clip-path-21" transform="translate(0 -.14)"><path class="cls-1" d="M94.31 17.07a1.16 1.16 0 0 1-1.11.7v.08a1.24 1.24 0 0 0 1.18-.74 5.7 5.7 0 0 0 .43-2.52h-.08a5.64 5.64 0 0 1-.42 2.48m-1.11.7v.08a1.79 1.79 0 0 1-.47-.07l.08-.06a1.62 1.62 0 0 0 .38.05z"/></clipPath><linearGradient id="linear-gradient-12" x1="-45.65" y1="-1308.93" x2="-45.6" y2="-1308.93" gradientTransform="matrix(-37.63 0 0 84.05 -1623.19 110030.21)" gradientUnits="userSpaceOnUse"><stop offset="0" stop-color="#47260f"/><stop offset="1" stop-color="#714b1e"/></linearGradient><clipPath id="clip-path-23" transform="translate(0 -.14)"><path class="cls-1" d="M93.26 11.41v.08a1.09 1.09 0 0 1 1.08.63 5.72 5.72 0 0 1 .38 2.47h.08a5.79 5.79 0 0 0-.39-2.51 1.16 1.16 0 0 0-1.15-.68m-.45.14l-.08-.06a1.8 1.8 0 0 1 .53-.08v.08a1.76 1.76 0 0 0-.45.06z"/></clipPath><linearGradient id="linear-gradient-13" x1="-45.65" y1="-1307.44" x2="-45.6" y2="-1307.44" gradientTransform="matrix(-37.63 0 0 82.66 -1623.19 108082.19)" xlink:href="#linear-gradient-5"/><clipPath id="clip-path-25" transform="translate(0 -.14)"><path class="cls-1" d="M90.22 10a5.35 5.35 0 0 1 3-.8v-.06a5.43 5.43 0 0 0-3.06.82l-.14.09h.08l.1-.07m3-.88v.08a3.8 3.8 0 0 1 3.14 1.46 6.3 6.3 0 0 1 1.07 3.86h.08a6.41 6.41 0 0 0-1.09-3.9 3.87 3.87 0 0 0-3.16-1.46zM92.73 20l.08.09a4.56 4.56 0 0 0 .66 0v-.08a4.14 4.14 0 0 1-.74-.06zm4.73-5.46h.08a7.05 7.05 0 0 1-1 4 3.55 3.55 0 0 1-3 1.6v-.08a3.47 3.47 0 0 0 3-1.57 7 7 0 0 0 1-4z"/></clipPath><linearGradient id="linear-gradient-14" x1="54.38" y1="-1376.22" x2="54.44" y2="-1376.22" gradientTransform="matrix(136.17 0 0 -224.62 -7314.96 -309110.08)" gradientUnits="userSpaceOnUse"><stop offset="0" stop-color="#3c1c0c"/><stop offset="1" stop-color="#9c7a56"/></linearGradient><clipPath id="clip-path-27" transform="translate(0 -.14)"><path class="cls-1" d="M102.74 12.21a2.53 2.53 0 0 0-1.7-.82v.08a2.46 2.46 0 0 1 1.65.79l.53.56-.08-.19-.4-.42m-1.7-.82v.08a1.12 1.12 0 0 0-.66.16.64.64 0 0 0-.27.55H100c0-.73.71-.79 1-.79z"/></clipPath><linearGradient id="linear-gradient-15" x1="-15.97" y1="-1275.87" x2="-15.92" y2="-1275.87" gradientTransform="matrix(-57.8 0 0 51 -820.03 65080.73)" xlink:href="#linear-gradient-14"/><clipPath id="clip-path-29" transform="translate(0 -.14)"><path class="cls-1" d="M97.47 12.24h.08a2.82 2.82 0 0 1 1-2.18 3.31 3.31 0 0 1 2.09-.8v-.08a3.39 3.39 0 0 0-2.14.82 2.93 2.93 0 0 0-1 2.24m3.14-3v-.06a3.83 3.83 0 0 1 2.49.78l.12.09h-.08l-.09-.07a3.74 3.74 0 0 0-2.44-.77z"/></clipPath><linearGradient id="linear-gradient-16" x1="59.9" y1="-1409.62" x2="59.96" y2="-1409.62" gradientTransform="matrix(104.35 0 0 -81.12 -6153.58 -114342.04)" xlink:href="#linear-gradient-12"/><clipPath id="clip-path-31" transform="translate(0 -.14)"><path class="cls-1" d="M92.89 3.86a36.56 36.56 0 0 1 10.83-.32l.08-.07a36.68 36.68 0 0 0-10.92.32 21.19 21.19 0 0 0-10.69 5.38h.08a21.12 21.12 0 0 1 10.62-5.31"/></clipPath><linearGradient id="linear-gradient-17" x1="40.27" y1="-1389.13" x2="40.32" y2="-1389.13" gradientTransform="matrix(392.77 0 0 -136.69 -15733.02 -189880.83)" gradientUnits="userSpaceOnUse"><stop offset="0" stop-color="#8d6842"/><stop offset="1" stop-color="#9c7a56"/></linearGradient><clipPath id="clip-path-33" transform="translate(0 -.14)"><path class="cls-1" d="M82.19 17.26a7.87 7.87 0 0 0 2.75 6.28c1.54 1.3 6.26 3.42 8.07 4.18v-.08c-1.83-.77-6.5-2.87-8-4.16a7.79 7.79 0 0 1-2.72-6.22V9.21h-.08v8.09"/></clipPath><linearGradient id="linear-gradient-18" x1="17.18" y1="-1346.57" x2="17.24" y2="-1346.57" gradientTransform="matrix(-196.64 0 0 362.07 3472.13 487573.41)" xlink:href="#linear-gradient-12"/><clipPath id="clip-path-35" transform="translate(0 -.14)"><path class="cls-1" d="M84.19 24.44a9 9 0 0 1-3.19-7.2V3.06L80.88 3v14.24a10.32 10.32 0 0 0 .78 4.06 8.56 8.56 0 0 0 2.43 3.25 28.82 28.82 0 0 0 5.2 2.94q1.26.59 2.55 1.15l1.15.49V29s-6.74-2.77-8.81-4.52"/></clipPath><linearGradient id="linear-gradient-19" x1="46.65" y1="-1366.03" x2="46.7" y2="-1366.03" gradientTransform="matrix(220.25 0 0 -500.21 -10192.72 -683283.96)" gradientUnits="userSpaceOnUse"><stop offset="0" stop-color="#ffd569"/><stop offset=".83" stop-color="#a26f29"/><stop offset="1" stop-color="#905a24"/></linearGradient><clipPath id="clip-path-37" transform="translate(0 -.14)"><path class="cls-1" d="M99.81 12.18h.19c0-.82.83-.87 1.08-.86v-.15c-.6 0-1.22.25-1.24 1"/></clipPath><linearGradient id="linear-gradient-20" x1="158.84" y1="-1454.06" x2="158.9" y2="-1454.06" gradientTransform="matrix(22.48 0 0 -43.5 -3471.11 -63234.71)" gradientUnits="userSpaceOnUse"><stop offset="0" stop-color="#905a24"/><stop offset="1" stop-color="#905a24"/></linearGradient><clipPath id="clip-path-39" transform="translate(0 -.14)"><path class="cls-1" d="M100.62 9.49v-.15a3.23 3.23 0 0 0-2 .78 2.74 2.74 0 0 0-.95 2.12h.15a2.79 2.79 0 0 1 2.83-2.77"/></clipPath><linearGradient id="linear-gradient-21" x1="85.33" y1="-1411.76" x2="85.38" y2="-1411.76" gradientTransform="matrix(54.32 0 0 -77.88 -4537.06 -109931.35)" gradientUnits="userSpaceOnUse"><stop offset="0" stop-color="#efcc95"/><stop offset="1" stop-color="#e3ac53"/></linearGradient><clipPath id="clip-path-41" transform="translate(0 -.14)"><path class="cls-1" d="M101 11.16v.15a2.62 2.62 0 0 1 1.75.84l.27.28-.15-.39a2.78 2.78 0 0 0-1.86-.89"/></clipPath><linearGradient id="linear-gradient-22" x1="109.08" y1="-1444.91" x2="109.14" y2="-1444.91" gradientTransform="matrix(36.76 0 0 -48.04 -3908.87 -69398.05)" gradientUnits="userSpaceOnUse"><stop offset="0" stop-color="#905a24"/><stop offset=".58" stop-color="#be8932"/><stop offset="1" stop-color="#e4b05d"/></linearGradient><clipPath id="clip-path-43" transform="translate(0 -.14)"><path class="cls-1" d="M102.91 10.21l.15-.07H103a3.67 3.67 0 0 0-2.39-.75v.15a3.55 3.55 0 0 1 2.29.72"/></clipPath><linearGradient id="linear-gradient-23" x1="95.95" y1="-1460.6" x2="96.01" y2="-1460.6" gradientTransform="matrix(44.46 0 0 -41.05 -4165.21 -59940.96)" gradientUnits="userSpaceOnUse"><stop offset="0" stop-color="#e3ac53"/><stop offset="1" stop-color="#c17a2a"/></linearGradient><clipPath id="clip-path-45" transform="translate(0 -.14)"><path class="cls-1" d="M101.2 13.73l.08-.13-.17-.1c-.7-.41-1.16-.69-1.14-1.32h-.15c0 .78.61 1.09 1.39 1.56"/></clipPath><linearGradient id="linear-gradient-24" x1="-114.41" y1="-1412.57" x2="-114.35" y2="-1412.57" gradientTransform="matrix(0 -28.3 -51.74 0 -72982.57 -3224.47)" gradientUnits="userSpaceOnUse"><stop offset="0" stop-color="#dead72"/><stop offset="1" stop-color="#905a24"/></linearGradient><clipPath id="clip-path-47" transform="translate(0 -.14)"><path class="cls-1" d="M101 16.88h.15c0-.67-.38-1-1.31-1.58l-.08.13c.95.56 1.22.89 1.23 1.45"/></clipPath><linearGradient id="linear-gradient-25" x1="-79.56" y1="-1281.16" x2="-79.5" y2="-1281.16" gradientTransform="matrix(-25.25 0 0 53.63 -1907.28 68719.33)" gradientUnits="userSpaceOnUse"><stop offset="0" stop-color="#eabd79"/><stop offset="1" stop-color="#c17a2a"/></linearGradient><clipPath id="clip-path-49" transform="translate(0 -.14)"><path class="cls-1" d="M97.87 19.19l-.15.09h.08a4.71 4.71 0 0 0 2.41.67v-.15a4.58 4.58 0 0 1-2.33-.64"/></clipPath><linearGradient id="linear-gradient-26" x1="96.08" y1="-1460.53" x2="96.13" y2="-1460.53" gradientTransform="matrix(45.15 0 0 -39.43 -4239.98 -57568.82)" gradientUnits="userSpaceOnUse"><stop offset="0" stop-color="#c17a2a"/><stop offset=".85" stop-color="#975f26"/><stop offset="1" stop-color="#905a24"/></linearGradient><clipPath id="clip-path-51" transform="translate(0 -.14)"><path class="cls-1" d="M97.78 12.25h-.15c0 1.2.36 2.11 2.15 3.17l.08-.13c-1.75-1-2.07-1.89-2.07-3"/></clipPath><linearGradient id="linear-gradient-27" x1="103.44" y1="-1408.15" x2="103.49" y2="-1408.15" gradientTransform="matrix(40.5 0 0 -82.43 -4091.69 -116060.35)" gradientUnits="userSpaceOnUse"><stop offset="0" stop-color="#efcc95"/><stop offset="1" stop-color="#c17a2a"/></linearGradient><clipPath id="clip-path-53" transform="translate(0 -.14)"><path class="cls-1" d="M99.9 18.07v-.15a3.17 3.17 0 0 1-1.9-.82l-.25-.23.15.34a3.33 3.33 0 0 0 2 .86"/></clipPath><linearGradient id="linear-gradient-28" x1="-39.45" y1="-1270.38" x2="-39.39" y2="-1270.38" gradientTransform="matrix(-39.67 0 0 46.74 -1464.95 59394.66)" xlink:href="#linear-gradient-25"/><clipPath id="clip-path-55" transform="translate(0 -.14)"><path class="cls-1" d="M100.2 19.83V20a3 3 0 0 0 3.18-3h-.15a2.88 2.88 0 0 1-3 2.87"/></clipPath><linearGradient id="linear-gradient-29" x1="81.33" y1="-1408.79" x2="81.38" y2="-1408.79" gradientTransform="matrix(57.85 0 0 -79.83 -4604.7 -112442.13)" gradientUnits="userSpaceOnUse"><stop offset="0" stop-color="#905a24"/><stop offset="1" stop-color="#9a6627"/></linearGradient><clipPath id="clip-path-57" transform="translate(0 -.14)"><path class="cls-1" d="M101.17 16.88H101a1 1 0 0 1-.26.7 1.16 1.16 0 0 1-.85.31v.15a1.14 1.14 0 0 0 1.26-1.2"/></clipPath><linearGradient id="linear-gradient-30" x1="156.25" y1="-1445.62" x2="156.31" y2="-1445.62" gradientTransform="matrix(22.93 0 0 -46.54 -3483.6 -67261.21)" gradientUnits="userSpaceOnUse"><stop offset="0" stop-color="#eabd79"/><stop offset="1" stop-color="#eabd79"/></linearGradient><clipPath id="clip-path-59" transform="translate(0 -.14)"><path class="cls-1" d="M103.23 17h.15a3.2 3.2 0 0 0-.38-1.8 4.62 4.62 0 0 0-1.74-1.6l-.08.13c1.75 1.05 2.06 2 2 3.22"/></clipPath><linearGradient id="linear-gradient-31" x1="100.19" y1="-1314.58" x2="100.25" y2="-1314.58" gradientTransform="matrix(0 61.13 64.84 0 85346.38 -6110.76)" gradientUnits="userSpaceOnUse"><stop offset="0" stop-color="#dead72"/><stop offset="1" stop-color="#9a6627"/></linearGradient><clipPath id="clip-path-61" transform="translate(0 -.14)"><path class="cls-1" d="M93.26 11.33a1.25 1.25 0 0 1 1.22.72 5.84 5.84 0 0 1 .4 2.54H95c0-2.42-.52-3.41-1.77-3.41v.15"/></clipPath><linearGradient id="linear-gradient-32" x1="-34.38" y1="-1409.46" x2="-34.33" y2="-1409.46" gradientTransform="matrix(0 -62.07 -56.98 0 -80222.71 -2119.73)" gradientUnits="userSpaceOnUse"><stop offset="0" stop-color="#eabd79"/><stop offset="1" stop-color="#905a24"/></linearGradient><clipPath id="clip-path-63" transform="translate(0 -.14)"><path class="cls-1" d="M93.26 11.33v-.15a1.89 1.89 0 0 0-.76.15l.15.1a1.88 1.88 0 0 1 .61-.1"/></clipPath><linearGradient id="linear-gradient-33" x1="246.72" y1="-1500.13" x2="246.78" y2="-1500.13" gradientTransform="matrix(13.85 0 0 -29.46 -3325.69 -44183.26)" xlink:href="#linear-gradient-20"/><clipPath id="clip-path-65" transform="translate(0 -.14)"><path class="cls-1" d="M93.47 19.82V20a3.4 3.4 0 0 0 2.9-1.54 6.9 6.9 0 0 0 1-3.91h-.15c0 3.14-1.37 5.29-3.76 5.29"/></clipPath><linearGradient id="linear-gradient-34" x1="73.81" y1="-1390.85" x2="73.86" y2="-1390.85" gradientTransform="matrix(71.1 0 0 -123.83 -5154.08 -172205.92)" xlink:href="#linear-gradient-20"/><clipPath id="clip-path-67" transform="translate(0 -.14)"><path class="cls-1" d="M90.22 24.17v.15l.15-.15V10.22l-.15-.08v14.03"/></clipPath><linearGradient id="linear-gradient-35" x1="48.59" y1="-1250.82" x2="48.64" y2="-1250.82" gradientTransform="matrix(0 257.88 28.13 0 35271.56 -12519.26)" gradientUnits="userSpaceOnUse"><stop offset="0" stop-color="#dfb27d"/><stop offset="1" stop-color="#c17a2a"/></linearGradient><clipPath id="clip-path-69" transform="translate(0 -.14)"><path class="cls-1" d="M92.65 11.43l-.15-.1v6.62l.15-.11v-6.41"/></clipPath><linearGradient id="linear-gradient-36" x1="1090.49" y1="-1386.3" x2="1090.54" y2="-1386.3" gradientTransform="matrix(2.81 0 0 -145.15 -2969.49 -201208.03)" xlink:href="#linear-gradient-20"/><clipPath id="clip-path-71" transform="translate(0 -.14)"><path class="cls-1" d="M97.23 14.53h.15a6.23 6.23 0 0 0-1.06-3.81 3.72 3.72 0 0 0-3.08-1.42v.15c2.57 0 4 1.95 4 5.08"/></clipPath><linearGradient id="linear-gradient-37" x1="71.6" y1="-1392.67" x2="71.66" y2="-1392.67" gradientTransform="matrix(75.17 0 0 -120 -5289.54 -167107.05)" gradientUnits="userSpaceOnUse"><stop offset="0" stop-color="#edc68c"/><stop offset="1" stop-color="#905a24"/></linearGradient><clipPath id="clip-path-73" transform="translate(0 -.14)"><path class="cls-1" d="M93.24 9.45V9.3a5.29 5.29 0 0 0-3 .79h-.07l.15.08a5.15 5.15 0 0 1 2.89-.77"/></clipPath><linearGradient id="linear-gradient-38" x1="86.59" y1="-1459.38" x2="86.65" y2="-1459.38" gradientTransform="matrix(55.41 0 0 -41.54 -4707.5 -60610.49)" gradientUnits="userSpaceOnUse"><stop offset="0" stop-color="#ffedc1"/><stop offset=".13" stop-color="#fde7b9"/><stop offset="1" stop-color="#edc68c"/></linearGradient><clipPath id="clip-path-75" transform="translate(0 -.14)"><path class="cls-1" d="M92.5 19.71l.15.2a3.94 3.94 0 0 0 .82.08v-.16a3.37 3.37 0 0 1-1-.12"/></clipPath><linearGradient id="linear-gradient-39" x1="-135.31" y1="-1221.98" x2="-135.26" y2="-1221.98" gradientTransform="matrix(-17.63 0 0 29.78 -2292.51 36415.93)" gradientUnits="userSpaceOnUse"><stop offset="0" stop-color="#905a24"/><stop offset="1" stop-color="#c17a2a"/></linearGradient><clipPath id="clip-path-77" transform="translate(0 -.14)"><path class="cls-1" d="M92.5 24.17l.16.16V19.9l-.15-.2v4.46"/></clipPath><linearGradient id="linear-gradient-40" x1="1065" y1="-1394.67" x2="1065.06" y2="-1394.67" gradientTransform="matrix(2.88 0 0 -108.77 -2971.41 -151669.49)" xlink:href="#linear-gradient-20"/><clipPath id="clip-path-79" transform="translate(0 -.14)"><path class="cls-1" d="M94.88 14.59H95c0 2.36-.59 3.49-1.83 3.49v-.15a1.32 1.32 0 0 0 1.25-.78 5.78 5.78 0 0 0 .43-2.56"/></clipPath><linearGradient id="linear-gradient-41" x1="126.96" y1="-1404.33" x2="127.02" y2="-1404.33" gradientTransform="matrix(31.24 0 0 -88.26 -3872.77 -123930.75)" gradientUnits="userSpaceOnUse"><stop offset="0" stop-color="#ffe4a2"/><stop offset=".1" stop-color="#ffe4a2"/><stop offset=".6" stop-color="#f7e4ca"/><stop offset="1" stop-color="#eabd79"/></linearGradient><clipPath id="clip-path-81" transform="translate(0 -.14)"><path class="cls-1" d="M87.2 9.69l-.2-.15v8.15l.15.09V9.7"/></clipPath><linearGradient id="linear-gradient-42" x1="60.46" y1="-1247.67" x2="60.52" y2="-1247.67" gradientTransform="matrix(0 149.69 27.82 0 34794.38 -9041.07)" gradientUnits="userSpaceOnUse"><stop offset="0" stop-color="#db9b28"/><stop offset="1" stop-color="#c17a2a"/></linearGradient><clipPath id="clip-path-83" transform="translate(0 -.14)"><path class="cls-1" d="M89.32 19l.15.08V9.52l-.15.15v9.32"/></clipPath><linearGradient id="linear-gradient-43" x1="56.56" y1="-1980.94" x2="56.61" y2="-1980.94" gradientTransform="matrix(0 173.74 -27.81 0 -54998.26 -9816.92)" xlink:href="#linear-gradient-26"/><clipPath id="clip-path-85" transform="translate(0 -.14)"><path class="cls-1" d="M86.12 19.83V20a5.74 5.74 0 0 0 3.29-.86h.07l-.16-.14a5.55 5.55 0 0 1-3.2.84"/></clipPath><linearGradient id="linear-gradient-44" x1="82.69" y1="-1451.97" x2="82.74" y2="-1451.97" gradientTransform="matrix(61.08 0 0 -43.03 -4964.67 -62458.67)" xlink:href="#linear-gradient-20"/><clipPath id="clip-path-87" transform="translate(0 -.14)"><path class="cls-1" d="M86.19 18a1.75 1.75 0 0 0 1-.25l-.19-.07a1.72 1.72 0 0 1-.85.19V18m0 0v-.15a.81.81 0 0 1-.78-.45 2 2 0 0 1-.18-.91h-.15c.04.63.18 1.51 1.15 1.51zm-1.1-8.31l.15-.16v6.96h-.15v-6.8z"/></clipPath><linearGradient id="linear-gradient-45" x1="967.32" y1="-1487.46" x2="967.56" y2="-1487.46" gradientTransform="matrix(8.85 0 0 8.85 -8477.77 13180.94)" gradientUnits="userSpaceOnUse"><stop offset="0" stop-color="#ce8f3c"/><stop offset="1" stop-color="#ffe7b0"/></linearGradient><clipPath id="clip-path-88" transform="translate(0 -.14)"><path class="cls-1" d="M83 16.41h-.15a3.86 3.86 0 0 0 .81 2.65 3.22 3.22 0 0 0 2.46.93v-.15C84 19.81 83 18.66 83 16.41"/></clipPath><linearGradient id="linear-gradient-46" x1="85.02" y1="-1403.18" x2="85.07" y2="-1403.18" gradientTransform="matrix(59.45 0 0 -89.81 -4971.29 -125995.38)" gradientUnits="userSpaceOnUse"><stop offset="0" stop-color="#db9b28"/><stop offset=".94" stop-color="#945e25"/><stop offset="1" stop-color="#905a24"/></linearGradient><clipPath id="clip-path-90" transform="translate(0 -.14)"><path class="cls-1" d="M82.85 16.41H83l.01-6.68-.16-.15v6.83"/></clipPath><linearGradient id="linear-gradient-47" x1="-.82" y1="-1471.43" x2="-.76" y2="-1471.43" gradientTransform="matrix(0 -124.13 -27.6 0 -40528.34 -85.19)" xlink:href="#linear-gradient-46"/><clipPath id="clip-path-92" transform="translate(0 -.14)"><path class="cls-1" d="M84.88 23.6a7.94 7.94 0 0 1-2.77-6.34V9.14L82 9.06v8.19a8.08 8.08 0 0 0 2.83 6.46c1.62 1.41 6.76 3.67 8.17 4.29v-.2c-1.79-.75-6.56-2.89-8.12-4.2"/></clipPath><linearGradient id="linear-gradient-48" x1="20.88" y1="-1371.36" x2="20.94" y2="-1371.36" gradientTransform="matrix(0 -343.69 -225.67 0 -309393.72 7205.63)" gradientUnits="userSpaceOnUse"><stop offset="0" stop-color="#c17a2a"/><stop offset=".3" stop-color="#db9b28"/><stop offset="1" stop-color="#c17a2a"/></linearGradient><clipPath id="clip-path-94" transform="translate(0 -.14)"><path class="cls-1" d="M101.16 16.88c0-.67-.38-1-1.31-1.58-1.75-1-2.07-1.89-2.07-3a2.79 2.79 0 0 1 2.83-2.76 3.55 3.55 0 0 1 2.29.72v1.85a2.77 2.77 0 0 0-1.86-.89c-.59 0-1.22.25-1.24 1s.61 1.09 1.39 1.56c1.75 1.05 2.06 2 2 3.22a2.88 2.88 0 0 1-3 2.87 4.58 4.58 0 0 1-2.33-.64v-2a3.33 3.33 0 0 0 2 .86 1.13 1.13 0 0 0 1.26-1.19m-8.62-5.57a1.91 1.91 0 0 1 .76-.15c1.25 0 1.77 1 1.77 3.41s-.59 3.49-1.83 3.49a2 2 0 0 1-.7-.13v-6.62zm0 12.84v-4.46a3.39 3.39 0 0 0 1 .12c2.38 0 3.76-2.15 3.76-5.29s-1.41-5.08-4-5.08a5.15 5.15 0 0 0-2.89.77v13.95zM86.19 18a1.75 1.75 0 0 0 1-.25V9.67h2.13v9.32a5.56 5.56 0 0 1-3.2.84C84 19.81 83 18.65 83 16.41V9.73h2.08v6.8c0 .6.15 1.5 1.11 1.51z"/></clipPath><radialGradient id="radial-gradient" cx="967.49" cy="-1487.67" r="1.57" gradientTransform="matrix(8.85 0 0 8.85 -8477.77 13180.94)" gradientUnits="userSpaceOnUse"><stop offset="0" stop-color="#ffe7b0"/><stop offset=".53" stop-color="#febf53"/><stop offset=".56" stop-color="#f8b94b"/><stop offset="1" stop-color="#d99128"/></radialGradient></defs><title>shipping-icons</title><path class="cls-2" d="M13.05 9.75L10.68 13h12.93c.65 0 .64.25.33.68l-1.2 1.62c-.17.22-.47.64.54.64h5.29l1.57-2.13c1-1.32.08-4.06-3.39-4.06z" transform="translate(0 -.14)"/><path class="cls-2" d="M9.73 20.25l4.77-6.47h5.9c.65 0 .64.25.33.68l-1.2 1.64c-.17.22-.47.64.54.64H28a8.2 8.2 0 0 1-6.62 3.51zM37 16.73l-2.58 3.51h-6.81l2.58-3.51z" transform="translate(0 -.14)"/><path class="cls-2" d="M47.43 15.8H30.77l4.57-6.19h6.8l-2.61 3.55h3.05l2.6-3.55h6.81l-4.56 6.19z"/><path class="cls-2" d="M46.86 16.74l-2.58 3.51h-6.81L40 16.74h6.81z" transform="translate(0 -.14)"/><path class="cls-2" d="M0 17.98h10.04l-.55.74H0v-.74zm0-1.38h11.06l-.55.73H0v-.73zm0 2.76h9.02l-.55.75H0v-.75zm74.22-.64h-9.99l.54-.74h9.45v.74zm0 1.39H63.21l.55-.75h10.46v.75zm-8.43-3.51h8.43v.73l-8.98.02.55-.75z"/><path class="cls-2" d="M61.43 9.75l-4.56 6.19h-7.21l4.56-6.19zm-12.36 6.99l-.73 1c-.85 1.15-.1 2.5 2.7 2.5H62l2.57-3.51z" transform="translate(0 -.14)"/><path class="cls-3" d="M122.11 22.37l-.67 3.2h.74l.67-3.2h-.74zm1.06 0l-.12.55h.99l-.56 2.65h.74l.56-2.65h.97l.15-.55h-2.73zm5.48 4.06l-.66 3.2h2.18l.1-.53h-1.42l.56-2.67h-.76zm-2.47-4.06l-.67 3.2h2.35l.12-.56h-1.61l.17-.82h1.41l.11-.49h-1.41l.16-.79h1.62l.13-.54h-2.38zm-8.04 3.2h.69l.45-2.24.81 2.24h.89l.68-3.2h-.67l-.49 2.29-.74-2.29h-.94l-.68 3.2zm18.66 0h.73l1.39-2.44.29 1.89h-.97l-.34.55h2.12l-.5-3.2h-.86l-1.86 3.2z"/><path class="cls-3" d="M116.24 22.51h-.74l-.44 2.09c-.37 1.61 2.52 1.49 2.81.24l.49-2.33h-.73l-.44 2c-.12.79-1.65 1.12-1.35-.13zm15.22.43a1.47 1.47 0 0 0-1.25-.42h-1.32l-.66 3.2h1.3a2.26 2.26 0 0 0 1.45-.48 2 2 0 0 0 .48-2.3zm-1 1.89a1.33 1.33 0 0 1-.89.34h-.52l.45-2.11h.68a.66.66 0 0 1 .68.38 1.47 1.47 0 0 1-.39 1.38zm-14.34 1.74h-1.51l-.66 3.2h.73l.56-2.68a2.05 2.05 0 0 1 .79.06.42.42 0 0 1 .06.59c-.25.33-.39.33-1 .29v.44a.81.81 0 0 0 .31.08c1.67 0 1.88-2 .64-2z" transform="translate(0 -.14)"/><path class="cls-3" d="M139.61 26.43l.5 3.2h.83l1.83-3.2h-.74l-1.34 2.46-.36-2.46h-.72z"/><path class="cls-3" d="M136.47 29.77h.73l.57-2.66h.56c.75 0 .46.92-.43.92h-.17l.54 1.75h.82l-.49-1.38c1.16-.24 1.35-1.82 0-1.82h-1.44z" transform="translate(0 -.14)"/><path class="cls-4" d="M114.71 25.9l-.02.21h34.61l.03-.21h-34.62z"/><path class="cls-3" d="M143.18 22.37l-.68 3.2h2.35l.12-.56h-1.6l.17-.82h1.41l.11-.49h-1.42l.17-.79h1.61l.13-.54h-2.37zm-3.01 0l-.12.55h.99l-.56 2.65h.74l.56-2.65h.97l.15-.55h-2.73zm-4.84 0l-.12.55h.99l-.56 2.65h.74l.56-2.65h.97l.15-.55h-2.73z"/><path class="cls-3" d="M119 26.52a2 2 0 0 0-2.05 1.48 1.36 1.36 0 0 0 1.34 1.89 2 2 0 0 0 2-1.4c.31-1.32-.36-1.97-1.29-1.97zm.54 1.79a1.2 1.2 0 0 1-1.26 1c-.52 0-.88-.54-.6-1.28a1.21 1.21 0 0 1 1.29-1c.35.06.83.36.57 1.28zm14.36-1.19l.12-.55h-1c-1.34 0-1.67.83-1.06 1.44l.81.7a.31.31 0 0 1-.27.51h-1.18l-.12.55h1.26c1.3 0 1.35-1 1-1.38l-.86-.82c-.14-.11 0-.46.25-.46z" transform="translate(0 -.14)"/><path class="cls-3" d="M122.76 27.12l.12-.55h-1c-1.34 0-1.67.83-1.06 1.44l.81.7a.31.31 0 0 1-.27.51h-1.18l-.12.55h1.26c1.3 0 1.35-1 1-1.38l-.86-.82c-.14-.11 0-.46.25-.46zM135 23.07l.12-.55h-1c-1.34 0-1.67.83-1.06 1.44l.81.7a.31.31 0 0 1-.27.51h-1.18l-.12.55h1.26c1.3 0 1.35-1 1-1.38l-.86-.82c-.14-.11 0-.46.25-.46h1zm12.76 0l.12-.55h-1c-1.34 0-1.67.83-1.06 1.44l.81.7a.31.31 0 0 1-.27.51h-1.18l-.12.55h1.26c1.3 0 1.35-1 1-1.38l-.86-.82c-.14-.11 0-.46.25-.46h1z" transform="translate(0 -.14)"/><path class="cls-3" d="M123.11 26.43l-.12.55h.99l-.56 2.65h.74l.56-2.65h.97l.15-.55h-2.73zm1.48 3.2h.72l1.4-2.45.28 1.9h-.97l-.34.55h2.12l-.5-3.2h-.86l-1.85 3.2zm9.87-3.2l-.68 3.2h2.36l.12-.56h-1.61l.17-.82h1.41l.11-.5h-1.42l.17-.79h1.61l.14-.53h-2.38zm12.38 0l-.68 3.2h2.35l.12-.56h-1.61l.17-.82h1.41l.12-.5h-1.42l.17-.79h1.61l.13-.53h-2.37zm2.09 2.68l-.01.06h.17l-.09.46h.07l.1-.46h.17l.02-.06h-.43zm.89.52h.07l.11-.52h-.1l-.25.44-.05-.44h-.1l-.12.52h.07l.1-.44.05.44h.07l.25-.44-.1.44z"/><path class="cls-3" d="M146.49 26.63a2.17 2.17 0 0 0-2.91 1.51 1.34 1.34 0 0 0 1.42 1.7 2.43 2.43 0 0 0 .83-.08l.15-.57a2.15 2.15 0 0 1-.82.12.9.9 0 0 1-.77-.34 1.35 1.35 0 0 1 .3-1.53c.3-.38.9-.47 1.67-.26l.09-.54z" transform="translate(0 -.14)"/><path class="cls-3" d="M142.95 26.43l-.68 3.2h.75l.67-3.2h-.74z"/><path class="cls-3" d="M136.23 4.78c-2.33-.3-14.92-.19-16.77-.18l-3.34 15.5c5.11-2.57 9.67-4.79 14.73-7.21C137.28 9.82 141.71 9 142.63 9c.62 0 .27-.3 0-.36-3.6-.79-12.32 3.25-12.32 3.25l-1.91-5.78h12.4c-.69-1-2.05-1-4.57-1.33z" transform="translate(0 -.14)"/><path class="cls-3" d="M121.34.15l17 3.74c2.73.6 3.08 1.54 3.08 1.54s3-.36 3.53.68c.7 1.33-1.09 3.86-1.09 3.86L118.07 20.1h26.82l4.4-20z" transform="translate(0 -.14)"/><path class="cls-3" d="M140.91 6.12s-.13.72-2.78.94c-.24 0-.3.18 0 .19s4.76-.14 5.25-.09.43.35.37.64a14 14 0 0 1-.48 1.36c-.09.2.08.2.21.07a9.05 9.05 0 0 0 1-2.11.81.81 0 0 0-.73-.91 21 21 0 0 0-2.8-.07z" transform="translate(0 -.14)"/><g class="cls-5"><path class="cls-6" d="M80.66.2h24.79v28.73H80.66z" transform="translate(0 -.14)"/></g><g class="cls-7"><path class="cls-8" d="M81.81 2.67h22.63V28.2H81.81z" transform="translate(0 -.14)"/></g><path class="cls-9" d="M93 28l-8.22-4.25c1.67 1.37 6.81 3.63 8.22 4.25m12.12-10.72a10.34 10.34 0 0 1-.78 4.06 8.58 8.58 0 0 1-2.43 3.25 28.82 28.82 0 0 1-5.21 2.94q-1.26.59-2.55 1.15l-1.15.45v.08l1.19-.5q1.28-.55 2.55-1.15a26.88 26.88 0 0 0 5.22-3 8.62 8.62 0 0 0 2.45-3.28 10.36 10.36 0 0 0 .78-4.09V2.93h-.08v14.31M81 2.94C85.34.52 90.75.28 92.87.3h.26c2.12 0 7.53.22 11.9 2.64h.16l-.12-.07C100.68.44 95.26.21 93.13.22h-.26c-2.13 0-7.55.22-11.94 2.65l-.12.07h.16" transform="translate(0 -.14)"/><path class="cls-9" d="M81.59 21.33A8.65 8.65 0 0 0 84 24.61a26.81 26.81 0 0 0 5.22 2.95q1.27.59 2.55 1.15l1.18.5v-.08l-1.15-.49q-1.28-.55-2.55-1.15a28.82 28.82 0 0 1-5.2-2.94 8.58 8.58 0 0 1-2.43-3.25 10.32 10.32 0 0 1-.78-4.06V3h-.08v14.24a10.4 10.4 0 0 0 .78 4.09M103 10.09h.14l-.09-.07a3.77 3.77 0 0 0-2.44-.77v.08a3.67 3.67 0 0 1 2.39.75m-.2 2.07a2.62 2.62 0 0 0-1.75-.84v.08a2.54 2.54 0 0 1 1.7.82l.4.42-.08-.19-.27-.28" transform="translate(0 -.14)"/><path class="cls-9" d="M100 12.18c0-.73.71-.79 1-.79v-.08c-.25 0-1.06 0-1.08.86m3.1.26l.08.19v-2.53h-.08v2.31m-6.74-1.72a6.23 6.23 0 0 1 1.06 3.81h.08a6.3 6.3 0 0 0-1.07-3.86 3.8 3.8 0 0 0-3.14-1.46v.13a3.72 3.72 0 0 1 3.08 1.43m1.31 1.51a2.74 2.74 0 0 1 .95-2.12 3.23 3.23 0 0 1 2-.78v-.08a3.31 3.31 0 0 0-2.09.8 2.82 2.82 0 0 0-1 2.18h.08" transform="translate(0 -.14)"/><path class="cls-9" d="M99.74 15.49v-.07c-1.79-1.06-2.14-2-2.15-3.17h-.08c0 1.23.37 2.16 2.19 3.24m1.37-2l.17.1v-.07l-.17-.1c-.74-.44-1.12-.69-1.11-1.25h.04c0 .63.44.9 1.14 1.32M100.2 20v.08a3.23 3.23 0 0 0 2.45-1 3.28 3.28 0 0 0 .81-2.08h-.08a3 3 0 0 1-3.18 3m-.42-4.56v.07c.93.55 1.19.85 1.2 1.39h.02c0-.57-.29-.89-1.23-1.45m1 2.19a1 1 0 0 0 .26-.7h-.08a.91.91 0 0 1-.24.65 1.07 1.07 0 0 1-.79.28v.08a1.16 1.16 0 0 0 .85-.31" transform="translate(0 -.14)"/><path class="cls-9" d="M103 15.2a3.2 3.2 0 0 1 .37 1.76h.08c0-1.3-.31-2.33-2.14-3.43v.07a4.62 4.62 0 0 1 1.69 1.6m-6.65 3.24A3.4 3.4 0 0 1 93.47 20v.08a3.47 3.47 0 0 0 3-1.57 7 7 0 0 0 1-4h-.08a6.9 6.9 0 0 1-1 3.91M98 17.1a3.17 3.17 0 0 0 1.93.82v-.08A3.08 3.08 0 0 1 98 17l-.39-.35.08.17.26.23m-.19 2.22h-.16l.12.07a4.77 4.77 0 0 0 2.45.68V20a4.68 4.68 0 0 1-2.41-.66" transform="translate(0 -.14)"/><path class="cls-9" d="M97.72 16.87l-.08-.17v2.62h.08v-2.45m-5-5.38l-.08-.05v6.41l.08-.06v-6.3" transform="translate(0 -.14)"/><path class="cls-9" d="M92.73 17.78l-.08.06a1.94 1.94 0 0 0 .54.09v-.08a1.74 1.74 0 0 1-.47-.07" transform="translate(0 -.14)"/><path class="cls-9" d="M94.44 17.15a5.77 5.77 0 0 0 .43-2.56h-.07a5.7 5.7 0 0 1-.43 2.52 1.24 1.24 0 0 1-1.18.74v.08a1.32 1.32 0 0 0 1.25-.78m-1.79 2.75l.08.09a4.13 4.13 0 0 0 .74.06V20a4 4 0 0 1-.82-.08" transform="translate(0 -.14)"/><path class="cls-9" d="M92.66 24.17v.16l.08.08v-4.4l-.08-.09v4.27m-2.44 0V10.16h-.08v14.3l.07-.08v-.15" transform="translate(0 -.14)"/><path class="cls-9" d="M90.14 24.32h2.59v.08h-2.59zm-.66-14.65v9.4h.08V9.44l-.08.08v.15m-.07 9.45a5.74 5.74 0 0 1-3.29.86v.08a5.81 5.81 0 0 0 3.34-.88l.1-.07h-.15M87 17.68h-.08a1.7 1.7 0 0 1-.77.15v.08a1.74 1.74 0 0 0 .85-.19" transform="translate(0 -.14)"/><path class="cls-9" d="M87 14.71v2.92h.08V9.54L87 9.46v5.23m-3.29 4.35a3.85 3.85 0 0 1-.81-2.65h-.08a3.94 3.94 0 0 0 .83 2.7 3.29 3.29 0 0 0 2.51 1V20a3.21 3.21 0 0 1-2.46-.93m1.74-1.64a.81.81 0 0 0 .78.45v-.08c-.22 0-.88 0-.88-1.28h-.08a2 2 0 0 0 .18.91" transform="translate(0 -.14)"/><path class="cls-9" d="M82.77 9.51h.08v6.9h-.08zm2.47.2v6.8h.08V9.48l-.08.08v.16m4.08-.19h.15l.08-.08h-.23L87 9.46l.08.08h2.28" transform="translate(0 -.14)"/><path class="cls-9" d="M82.77 9.48h2.55v.11h-2.55zm10.49 1.93a1.16 1.16 0 0 1 1.15.68 5.79 5.79 0 0 1 .39 2.51h.08a5.84 5.84 0 0 0-.4-2.54 1.25 1.25 0 0 0-1.22-.72v.08" transform="translate(0 -.14)"/><path class="cls-9" d="M93.26 11.41v-.08a1.87 1.87 0 0 0-.61.1l.08.05a1.88 1.88 0 0 1 .53-.08m-3.14-1.31h.15a5.29 5.29 0 0 1 3-.79v-.08a5.36 5.36 0 0 0-3 .8l-.1.07m2.74-6.38a21.26 21.26 0 0 0-10.8 5.42h.08a21.2 21.2 0 0 1 10.69-5.35 36.68 36.68 0 0 1 10.92-.32l.08-.07a36.87 36.87 0 0 0-11 .31m11 11v2.55a7.87 7.87 0 0 1-2.75 6.28C99.52 24.84 94.81 27 93 27.72v.08c1.79-.75 6.55-2.89 8.12-4.2a8 8 0 0 0 2.78-6.34V3.4l-.08.07v11.24m-18.89 8.83a7.86 7.86 0 0 1-2.75-6.28V9.17h-.08v8.12a8 8 0 0 0 2.77 6.34c1.55 1.31 6.33 3.46 8.12 4.2v-.08c-1.81-.76-6.53-2.88-8.07-4.18M93.13.14h-.26c-2.13 0-7.57.22-12 2.66l-.16.09h.08l.12-.07C85.32.44 90.74.21 92.87.22h.26c2.13 0 7.55.22 11.94 2.65l.12.07h.08l-.16-.09C100.7.36 95.26.13 93.13.14" transform="translate(0 -.14)"/><path class="cls-9" d="M105.19 17.24a10.36 10.36 0 0 1-.78 4.09 8.63 8.63 0 0 1-2.41 3.28 26.81 26.81 0 0 1-5.22 3q-1.27.59-2.55 1.15l-1.19.5v.08l1.22-.51c.6-.26 1.53-.67 2.55-1.15a27 27 0 0 0 5.24-3 8.68 8.68 0 0 0 2.47-3.31 10.48 10.48 0 0 0 .79-4.12V2.89h-.08v14.35M91.82 28.71q-1.28-.55-2.55-1.15A26.84 26.84 0 0 1 84 24.61a8.65 8.65 0 0 1-2.45-3.28 10.4 10.4 0 0 1-.78-4.09V2.93h-.08v14.31a10.49 10.49 0 0 0 .79 4.12A8.69 8.69 0 0 0 84 24.67a26.91 26.91 0 0 0 5.24 3c1 .48 1.95.89 2.55 1.15l1.21.48v-.08l-1.18-.5" transform="translate(0 -.14)"/><g class="cls-10"><path class="cls-11" d="M100.7 17.56a.91.91 0 0 0 .24-.65h-.08a.82.82 0 0 1-.21.59 1 1 0 0 1-.74.26v.08a1.07 1.07 0 0 0 .79-.28" transform="translate(0 -.14)"/></g><g class="cls-10"><path class="cls-12" d="M99.9 16.88h1v1h-1z" transform="translate(0 -.14)"/></g><path class="cls-9" d="M97.65 16.69l-.08-.17v2.84h.08v-2.67" transform="translate(0 -.14)"/><g class="cls-13"><path class="cls-14" d="M103.46 17h.08c0-1.33-.32-2.38-2.18-3.5v.07c1.83 1.1 2.18 2.13 2.14 3.43" transform="translate(0 -.14)"/></g><g class="cls-13"><path class="cls-15" d="M101.31 13.47h2.26V17h-2.26z" transform="translate(0 -.14)"/></g><g class="cls-16"><path class="cls-11" d="M97.75 19.38l-.12-.07h-.08l.15.09a4.85 4.85 0 0 0 2.49.69v-.08a4.79 4.79 0 0 1-2.45-.68m5.7-2.42h.08a3.34 3.34 0 0 1-.83 2.13 3.3 3.3 0 0 1-2.51 1v-.08a3.23 3.23 0 0 0 2.45-1 3.28 3.28 0 0 0 .81-2.08z" transform="translate(0 -.14)"/></g><g class="cls-16"><path class="cls-17" d="M97.56 17h6v3.18h-6V17z" transform="translate(0 -.14)"/></g><g class="cls-18"><path class="cls-19" d="M98 17a3.08 3.08 0 0 0 1.87.8v-.08a3 3 0 0 1-1.79-.72l-.51-.46.08.17.35.29" transform="translate(0 -.14)"/></g><g class="cls-18"><path class="cls-20" d="M97.57 16.52h2.33v1.32h-2.33z" transform="translate(0 -.14)"/></g><g class="cls-21"><path class="cls-14" d="M101.15 13.43l.17.1v-.07l-.17-.1c-.73-.43-1.08-.67-1.07-1.19H100c0 .56.37.82 1.11 1.25" transform="translate(0 -.14)"/></g><g class="cls-21"><path class="cls-22" d="M100 12.18h1.33v1.35H100z" transform="translate(0 -.14)"/></g><g class="cls-23"><path class="cls-24" d="M85.32 9.71v6.8h.08V9.4l-.08.08v.23" transform="translate(0 -.14)"/></g><g class="cls-23"><path class="cls-25" d="M85.3 9.4h.09v7.12h-.09z" transform="translate(0 -.14)"/></g><path class="cls-26" d="M92.81 11.55l-.08-.06v6.3l.08-.06v-6.18" transform="translate(0 -.14)"/><path class="cls-27" d="M82.7 9.4h2.7v.11h-2.7z" transform="translate(0 -.14)"/><path class="cls-14" d="M87 14.71V9.46l-.08-.08v8.18H87v-2.92" transform="translate(0 -.14)"/><g class="cls-28"><path class="cls-29" d="M86.19 17.79v-.08c-.22 0-.8 0-.8-1.2h-.08c0 1.27.66 1.27.88 1.28m0 0v-.08a1.67 1.67 0 0 0 .69-.12h.08a1.71 1.71 0 0 1-.77.15z" transform="translate(0 -.14)"/></g><g class="cls-28"><path class="cls-30" d="M85.31 16.51H87v1.28h-1.69z" transform="translate(0 -.14)"/></g><path class="cls-19" d="M86.89 9.38l.08.08h2.59l.08-.08H86.9" transform="translate(0 -.14)"/><g class="cls-31"><path class="cls-32" d="M89.45 19.19a5.81 5.81 0 0 1-3.34.88v.08a5.89 5.89 0 0 0 3.38-.89l.14-.09h-.08l-.1.07m-5.85-.07a3.94 3.94 0 0 1-.83-2.7h-.07a4 4 0 0 0 .85 2.75 3.36 3.36 0 0 0 2.57 1v-.08a3.29 3.29 0 0 1-2.51-1zm-.9-9.74l.08.07v6.9h-.08v-7z" transform="translate(0 -.14)"/></g><g class="cls-31"><path class="cls-33" d="M82.7 9.43h6.94v10.72H82.7z" transform="translate(0 -.14)"/></g><path class="cls-26" d="M89.56 9.67v9.44h.08V9.36l-.08.08v.23" transform="translate(0 -.14)"/><g class="cls-34"><path class="cls-11" d="M99.74 15.49v.07c.9.54 1.15.82 1.16 1.33h.08c0-.54-.27-.84-1.2-1.39m0 0v.07A5 5 0 0 1 97.9 14a3.12 3.12 0 0 1-.43-1.72h.08c0 1.23.37 2.16 2.19 3.24z" transform="translate(0 -.14)"/></g><g class="cls-34"><path class="cls-35" d="M97.47 12.26h3.46v4.63h-3.46z" transform="translate(0 -.14)"/></g><path class="cls-29" d="M90.14 24.17V10.1h-.08v14.48l.08-.08v-.23" transform="translate(0 -.14)"/><g class="cls-36"><path class="cls-11" d="M94.31 17.07a1.16 1.16 0 0 1-1.11.7v.08a1.24 1.24 0 0 0 1.18-.74 5.7 5.7 0 0 0 .43-2.52h-.08a5.64 5.64 0 0 1-.42 2.48m-1.11.7v.08a1.79 1.79 0 0 1-.47-.07l.08-.06a1.62 1.62 0 0 0 .38.05z" transform="translate(0 -.14)"/></g><g class="cls-36"><path class="cls-37" d="M92.73 14.59h2.07v3.26h-2.07z" transform="translate(0 -.14)"/></g><g class="cls-38"><path class="cls-11" d="M93.26 11.41v.08a1.09 1.09 0 0 1 1.08.63 5.72 5.72 0 0 1 .38 2.47h.08a5.79 5.79 0 0 0-.39-2.51 1.16 1.16 0 0 0-1.15-.68m-.45.14l-.08-.06a1.8 1.8 0 0 1 .53-.08v.08a1.76 1.76 0 0 0-.45.06z" transform="translate(0 -.14)"/></g><g class="cls-38"><path class="cls-39" d="M92.73 11.41h2.07v3.18h-2.07z" transform="translate(0 -.14)"/></g><path class="cls-26" d="M90.06 24.39h2.75v.08h-2.75z" transform="translate(0 -.14)"/><g class="cls-40"><path class="cls-41" d="M90.22 10a5.35 5.35 0 0 1 3-.8v-.06a5.43 5.43 0 0 0-3.06.82l-.14.09h.08l.1-.07m3-.88v.08a3.8 3.8 0 0 1 3.14 1.46 6.3 6.3 0 0 1 1.07 3.86h.08a6.41 6.41 0 0 0-1.09-3.9 3.87 3.87 0 0 0-3.16-1.46zM92.73 20l.08.09a4.56 4.56 0 0 0 .66 0v-.08a4.14 4.14 0 0 1-.74-.06zm4.73-5.46h.08a7.05 7.05 0 0 1-1 4 3.55 3.55 0 0 1-3 1.6v-.08a3.47 3.47 0 0 0 3-1.57 7 7 0 0 0 1-4z" transform="translate(0 -.14)"/></g><g class="cls-40"><path class="cls-42" d="M90 9.14h7.49v11H90v-11z" transform="translate(0 -.14)"/></g><path class="cls-26" d="M103.14 12.64l.08.19v-2.77h-.08v2.54" transform="translate(0 -.14)"/><g class="cls-43"><path class="cls-41" d="M102.74 12.21a2.53 2.53 0 0 0-1.7-.82v.08a2.46 2.46 0 0 1 1.65.79l.53.56-.08-.19-.4-.42m-1.7-.82v.08a1.12 1.12 0 0 0-.66.16.64.64 0 0 0-.27.55H100c0-.73.71-.79 1-.79z" transform="translate(0 -.14)"/></g><g class="cls-43"><path class="cls-44" d="M100 11.39h3.18v1.44H100z" transform="translate(0 -.14)"/></g><g class="cls-45"><path class="cls-11" d="M97.47 12.24h.08a2.82 2.82 0 0 1 1-2.18 3.31 3.31 0 0 1 2.09-.8v-.08a3.39 3.39 0 0 0-2.14.82 2.93 2.93 0 0 0-1 2.24m3.14-3v-.06a3.83 3.83 0 0 1 2.49.78l.12.09h-.08l-.09-.07a3.74 3.74 0 0 0-2.44-.77z" transform="translate(0 -.14)"/></g><g class="cls-45"><path class="cls-46" d="M97.47 9.16h5.74v3.1h-5.74z" transform="translate(0 -.14)"/></g><path class="cls-27" d="M92.73 24.17v.23l.08.08v-4.39l-.08-.09v4.17" transform="translate(0 -.14)"/><g class="cls-47"><path class="cls-48" d="M92.89 3.86a36.56 36.56 0 0 1 10.83-.32l.08-.07a36.68 36.68 0 0 0-10.92.32 21.19 21.19 0 0 0-10.69 5.38h.08a21.12 21.12 0 0 1 10.62-5.31" transform="translate(0 -.14)"/></g><g class="cls-47"><path class="cls-49" d="M82.19 3h21.6v6.2h-21.6V3z" transform="translate(0 -.14)"/></g><path class="cls-9" d="M103.74 14.71v2.55a7.79 7.79 0 0 1-2.74 6.22c-1.53 1.29-6.19 3.39-8 4.16v.08c1.81-.76 6.52-2.87 8.07-4.18a7.87 7.87 0 0 0 2.75-6.28V3.47l-.08.07v11.18" transform="translate(0 -.14)"/><g class="cls-50"><path class="cls-11" d="M82.19 17.26a7.87 7.87 0 0 0 2.75 6.28c1.54 1.3 6.26 3.42 8.07 4.18v-.08c-1.83-.77-6.5-2.87-8-4.16a7.79 7.79 0 0 1-2.72-6.22V9.21h-.08v8.09" transform="translate(0 -.14)"/></g><g class="cls-50"><path class="cls-51" d="M82.18 9.16H93v18.56H82.18z" transform="translate(0 -.14)"/></g><path class="cls-52" d="M96.7 27.49a28.82 28.82 0 0 0 5.21-2.94 8.55 8.55 0 0 0 2.43-3.25 10.32 10.32 0 0 0 .78-4.06V3l-.15.09v14.15a9 9 0 0 1-3.15 7.19C99.74 26.19 93 29 93 29v.17l1.15-.49q1.28-.55 2.55-1.15" transform="translate(0 -.14)"/><g class="cls-53"><path class="cls-54" d="M84.19 24.44a9 9 0 0 1-3.19-7.2V3.06L80.88 3v14.24a10.32 10.32 0 0 0 .78 4.06 8.56 8.56 0 0 0 2.43 3.25 28.82 28.82 0 0 0 5.2 2.94q1.26.59 2.55 1.15l1.15.49V29s-6.74-2.77-8.81-4.52" transform="translate(0 -.14)"/></g><g class="cls-53"><path class="cls-55" d="M80.88 3H93v26.13H80.88z" transform="translate(0 -.14)"/></g><path class="cls-54" d="M93 .45s6.71-.28 12 2.62l.15-.09h-.08C100.66.52 95.25.28 93.13.3h-.26C90.75.28 85.34.52 81 2.94h-.08l.15.09C86.29.17 93 .47 93 .45" transform="translate(0 -.14)"/><g class="cls-56"><path class="cls-52" d="M99.81 12.18h.19c0-.82.83-.87 1.08-.86v-.15c-.6 0-1.22.25-1.24 1" transform="translate(0 -.14)"/></g><g class="cls-56"><path class="cls-57" d="M99.81 11.15H101v1h-1.19z" transform="translate(0 -.14)"/></g><g class="cls-58"><path class="cls-59" d="M100.62 9.49v-.15a3.23 3.23 0 0 0-2 .78 2.74 2.74 0 0 0-.95 2.12h.15a2.79 2.79 0 0 1 2.83-2.77" transform="translate(0 -.14)"/></g><g class="cls-58"><path class="cls-60" d="M97.63 9.34h3v2.92h-3z" transform="translate(0 -.14)"/></g><g class="cls-61"><path class="cls-52" d="M101 11.16v.15a2.62 2.62 0 0 1 1.75.84l.27.28-.15-.39a2.78 2.78 0 0 0-1.86-.89" transform="translate(0 -.14)"/></g><g class="cls-61"><path class="cls-62" d="M101 11.16h2v1.28h-2z" transform="translate(0 -.14)"/></g><g class="cls-63"><path class="cls-64" d="M102.91 10.21l.15-.07H103a3.67 3.67 0 0 0-2.39-.75v.15a3.55 3.55 0 0 1 2.29.72" transform="translate(0 -.14)"/></g><g class="cls-63"><path class="cls-65" d="M100.61 9.31h2.45v.89h-2.45z" transform="translate(0 -.14)"/></g><path class="cls-52" d="M102.91 12.05l.15.39v-2.31l-.15.07v1.85" transform="translate(0 -.14)"/><g class="cls-66"><path class="cls-67" d="M101.2 13.73l.08-.13-.17-.1c-.7-.41-1.16-.69-1.14-1.32h-.15c0 .78.61 1.09 1.39 1.56" transform="translate(0 -.14)"/></g><g class="cls-66"><path class="cls-68" d="M99.79 12.18h1.48v1.56h-1.48z" transform="translate(0 -.14)"/></g><g class="cls-69"><path class="cls-70" d="M101 16.88h.15c0-.67-.38-1-1.31-1.58l-.08.13c.95.56 1.22.89 1.23 1.45" transform="translate(0 -.14)"/></g><g class="cls-69"><path class="cls-71" d="M99.78 15.29h1.39v1.59h-1.39z" transform="translate(0 -.14)"/></g><g class="cls-72"><path class="cls-73" d="M97.87 19.19l-.15.09h.08a4.71 4.71 0 0 0 2.41.67v-.15a4.58 4.58 0 0 1-2.33-.64" transform="translate(0 -.14)"/></g><g class="cls-72"><path class="cls-74" d="M97.72 19.19h2.48V20h-2.48z" transform="translate(0 -.14)"/></g><path class="cls-75" d="M97.87 17.21l-.15-.34v2.41l.15-.09v-2" transform="translate(0 -.14)"/><g class="cls-76"><path class="cls-59" d="M97.78 12.25h-.15c0 1.2.36 2.11 2.15 3.17l.08-.13c-1.75-1-2.07-1.89-2.07-3" transform="translate(0 -.14)"/></g><g class="cls-76"><path class="cls-77" d="M97.63 12.25h2.23v3.17h-2.23z" transform="translate(0 -.14)"/></g><g class="cls-78"><path class="cls-70" d="M99.9 18.07v-.15a3.17 3.17 0 0 1-1.9-.82l-.25-.23.15.34a3.33 3.33 0 0 0 2 .86" transform="translate(0 -.14)"/></g><g class="cls-78"><path class="cls-79" d="M97.72 16.87h2.18v1.21h-2.18z" transform="translate(0 -.14)"/></g><g class="cls-80"><path class="cls-52" d="M100.2 19.83V20a3 3 0 0 0 3.18-3h-.15a2.88 2.88 0 0 1-3 2.87" transform="translate(0 -.14)"/></g><g class="cls-80"><path class="cls-81" d="M100.2 17h3.18v3h-3.18z" transform="translate(0 -.14)"/></g><g class="cls-82"><path class="cls-70" d="M101.17 16.88H101a1 1 0 0 1-.26.7 1.16 1.16 0 0 1-.85.31v.15a1.14 1.14 0 0 0 1.26-1.2" transform="translate(0 -.14)"/></g><g class="cls-82"><path class="cls-83" d="M99.9 16.88h1.28v1.2H99.9z" transform="translate(0 -.14)"/></g><g class="cls-84"><path class="cls-67" d="M103.23 17h.15a3.2 3.2 0 0 0-.38-1.8 4.62 4.62 0 0 0-1.74-1.6l-.08.13c1.75 1.05 2.06 2 2 3.22" transform="translate(0 -.14)"/></g><g class="cls-84"><path class="cls-85" d="M101.2 13.6h2.2V17h-2.2z" transform="translate(0 -.14)"/></g><g class="cls-86"><path class="cls-70" d="M93.26 11.33a1.25 1.25 0 0 1 1.22.72 5.84 5.84 0 0 1 .4 2.54H95c0-2.42-.52-3.41-1.77-3.41v.15" transform="translate(0 -.14)"/></g><g class="cls-86"><path class="cls-87" d="M93.26 11.18H95v3.41h-1.74z" transform="translate(0 -.14)"/></g><g class="cls-88"><path class="cls-52" d="M93.26 11.33v-.15a1.89 1.89 0 0 0-.76.15l.15.1a1.88 1.88 0 0 1 .61-.1" transform="translate(0 -.14)"/></g><g class="cls-88"><path class="cls-89" d="M92.5 11.18h.76v.26h-.76v-.26z" transform="translate(0 -.14)"/></g><g class="cls-90"><path class="cls-52" d="M93.47 19.82V20a3.4 3.4 0 0 0 2.9-1.54 6.9 6.9 0 0 0 1-3.91h-.15c0 3.14-1.37 5.29-3.76 5.29" transform="translate(0 -.14)"/></g><g class="cls-90"><path class="cls-91" d="M93.47 14.53h3.91V20h-3.91z" transform="translate(0 -.14)"/></g><g class="cls-92"><path class="cls-93" d="M90.22 24.17v.15l.15-.15V10.22l-.15-.08v14.03" transform="translate(0 -.14)"/></g><g class="cls-92"><path class="cls-94" d="M90.19 10.13h.18v14.19h-.18z" transform="translate(0 -.14)"/></g><g class="cls-95"><path class="cls-52" d="M92.65 11.43l-.15-.1v6.62l.15-.11v-6.41" transform="translate(0 -.14)"/></g><g class="cls-95"><path class="cls-96" d="M92.5 11.33h.15V18h-.15z" transform="translate(0 -.14)"/></g><g class="cls-97"><path class="cls-75" d="M97.23 14.53h.15a6.23 6.23 0 0 0-1.06-3.81 3.72 3.72 0 0 0-3.08-1.42v.15c2.57 0 4 1.95 4 5.08" transform="translate(0 -.14)"/></g><g class="cls-97"><path class="cls-98" d="M93.24 9.3h4.14v5.24h-4.14z" transform="translate(0 -.14)"/></g><g class="cls-99"><path class="cls-100" d="M93.24 9.45V9.3a5.29 5.29 0 0 0-3 .79h-.07l.15.08a5.15 5.15 0 0 1 2.89-.77" transform="translate(0 -.14)"/></g><g class="cls-99"><path class="cls-101" d="M90.2 9.3h3v.92h-3z" transform="translate(0 -.14)"/></g><g class="cls-102"><path class="cls-52" d="M92.5 19.71l.15.2a3.94 3.94 0 0 0 .82.08v-.16a3.37 3.37 0 0 1-1-.12" transform="translate(0 -.14)"/></g><g class="cls-102"><path class="cls-103" d="M92.5 19.71h1V20h-1z" transform="translate(0 -.14)"/></g><g class="cls-104"><path class="cls-52" d="M92.5 24.17l.16.16V19.9l-.15-.2v4.46" transform="translate(0 -.14)"/></g><g class="cls-104"><path class="cls-105" d="M92.5 19.71h.16v4.62h-.16z" transform="translate(0 -.14)"/></g><path class="cls-52" d="M90.37 24.16l-.15.15h2.44l-.16-.16h-2.13" transform="translate(0 -.14)"/><g class="cls-106"><path class="cls-107" d="M94.88 14.59H95c0 2.36-.59 3.49-1.83 3.49v-.15a1.32 1.32 0 0 0 1.25-.78 5.78 5.78 0 0 0 .43-2.56" transform="translate(0 -.14)"/></g><g class="cls-106"><path class="cls-108" d="M93.2 14.59H95v3.49h-1.8z" transform="translate(0 -.14)"/></g><path class="cls-107" d="M93.2 17.93a1.9 1.9 0 0 1-.54-.09l-.16.16a2.06 2.06 0 0 0 .7.13v-.15" transform="translate(0 -.14)"/><g class="cls-109"><path class="cls-110" d="M87.2 9.69l-.2-.15v8.15l.15.09V9.7" transform="translate(0 -.14)"/></g><g class="cls-109"><path class="cls-111" d="M87 9.54h.17v8.23H87z" transform="translate(0 -.14)"/></g><g class="cls-112"><path class="cls-73" d="M89.32 19l.15.08V9.52l-.15.15v9.32" transform="translate(0 -.14)"/></g><g class="cls-112"><path class="cls-113" d="M89.31 9.52h.17v9.56h-.17z" transform="translate(0 -.14)"/></g><path class="cls-114" d="M89.32 9.67l.15-.15H87l.15.15h2.13" transform="translate(0 -.14)"/><g class="cls-115"><path class="cls-52" d="M86.12 19.83V20a5.74 5.74 0 0 0 3.29-.86h.07l-.16-.14a5.55 5.55 0 0 1-3.2.84" transform="translate(0 -.14)"/></g><g class="cls-115"><path class="cls-116" d="M86.12 19h3.36v1h-3.36z" transform="translate(0 -.14)"/></g><g class="cls-117"><path class="cls-118" d="M86.19 18a1.75 1.75 0 0 0 1-.25l-.19-.07a1.72 1.72 0 0 1-.85.19V18m0 0v-.15a.81.81 0 0 1-.78-.45 2 2 0 0 1-.18-.91h-.15c.04.63.18 1.51 1.15 1.51zm-1.1-8.31l.15-.16v6.96h-.15v-6.8z" transform="translate(0 -.14)"/></g><g class="cls-119"><path class="cls-110" d="M83 16.41h-.15a3.86 3.86 0 0 0 .81 2.65 3.22 3.22 0 0 0 2.46.93v-.15C84 19.81 83 18.66 83 16.41" transform="translate(0 -.14)"/></g><g class="cls-119"><path class="cls-120" d="M82.85 16.41h3.27V20h-3.27v-3.59z" transform="translate(0 -.14)"/></g><path class="cls-121" d="M85.09 9.71l.15-.16h-2.39l.15.15h2.08" transform="translate(0 -.14)"/><g class="cls-122"><path class="cls-110" d="M82.85 9.58H83v6.83h-.15z" transform="translate(0 -.14)"/></g><g class="cls-122"><path class="cls-123" d="M82.85 9.58H83v6.83h-.15z" transform="translate(0 -.14)"/></g><path class="cls-73" d="M92.86 3.71a36.83 36.83 0 0 1 11-.31l.15-.14a37.35 37.35 0 0 0-11.19.3A21.36 21.36 0 0 0 82 9.06l.15.07a21.27 21.27 0 0 1 10.71-5.42" transform="translate(0 -.14)"/><path class="cls-54" d="M103.87 3.4v13.86a8 8 0 0 1-2.78 6.34c-1.56 1.32-6.33 3.46-8.12 4.2v.2c1.41-.59 6.55-2.85 8.22-4.26a8.08 8.08 0 0 0 2.81-6.48v-14l-.15.14" transform="translate(0 -.14)"/><g class="cls-124"><path class="cls-73" d="M84.88 23.6a7.94 7.94 0 0 1-2.77-6.34V9.14L82 9.06v8.19a8.08 8.08 0 0 0 2.83 6.46c1.62 1.41 6.76 3.67 8.17 4.29v-.2c-1.79-.75-6.56-2.89-8.12-4.2" transform="translate(0 -.14)"/></g><g class="cls-124"><path class="cls-125" d="M81.95 9.06H93V28H82z" transform="translate(0 -.14)"/></g><g class="cls-126"><path class="cls-127" d="M101.16 16.88c0-.67-.38-1-1.31-1.58-1.75-1-2.07-1.89-2.07-3a2.79 2.79 0 0 1 2.83-2.76 3.55 3.55 0 0 1 2.29.72v1.85a2.77 2.77 0 0 0-1.86-.89c-.59 0-1.22.25-1.24 1s.61 1.09 1.39 1.56c1.75 1.05 2.06 2 2 3.22a2.88 2.88 0 0 1-3 2.87 4.58 4.58 0 0 1-2.33-.64v-2a3.33 3.33 0 0 0 2 .86 1.13 1.13 0 0 0 1.26-1.19m-8.62-5.57a1.91 1.91 0 0 1 .76-.15c1.25 0 1.77 1 1.77 3.41s-.59 3.49-1.83 3.49a2 2 0 0 1-.7-.13v-6.62zm0 12.84v-4.46a3.39 3.39 0 0 0 1 .12c2.38 0 3.76-2.15 3.76-5.29s-1.41-5.08-4-5.08a5.15 5.15 0 0 0-2.89.77v13.95zM86.19 18a1.75 1.75 0 0 0 1-.25V9.67h2.13v9.32a5.56 5.56 0 0 1-3.2.84C84 19.81 83 18.65 83 16.41V9.73h2.08v6.8c0 .6.15 1.5 1.11 1.51z" transform="translate(0 -.14)"/></g><g class="cls-126"><path class="cls-128" d="M83 9.44h20.3v14.8H83z" transform="translate(0 -.14)"/></g><path class="cls-52" d="M101.48 28.6a1.28 1.28 0 1 1-1.27-1.24 1.25 1.25 0 0 1 1.27 1.24zm-2.24 0a1 1 0 0 0 1 1 1 1 0 0 0 0-2 1 1 0 0 0-1 1zm.77.65h-.29V28a2.54 2.54 0 0 1 .48 0 .78.78 0 0 1 .43.09.35.35 0 0 1 .12.27.32.32 0 0 1-.26.29.37.37 0 0 1 .23.3 1 1 0 0 0 .09.31h-.31a1.06 1.06 0 0 1-.1-.3c0-.14-.1-.2-.26-.2H100v.5zm0-.71h.14c.16 0 .29-.05.29-.18s-.08-.19-.27-.19h-.16v.36z" transform="translate(0 -.14)"/></svg>