<?xml version="1.0" standalone="no"?>
<!DOCTYPE svg PUBLIC "-//W3C//DTD SVG 1.1//EN" "http://www.w3.org/Graphics/SVG/1.1/DTD/svg11.dtd" >
<svg xmlns="http://www.w3.org/2000/svg" xmlns:xlink="http://www.w3.org/1999/xlink" version="1.1">
<metadata></metadata>
<defs>
<font id="globerregular_italic" horiz-adv-x="1134" >
<font-face units-per-em="2048" ascent="1536" descent="-512" />
<missing-glyph horiz-adv-x="497" />
<glyph unicode="&#xfb01;" horiz-adv-x="1165" d="M86 10l203 951h-131q-4 22 4 59q4 16 9 30.5t8 20.5l3 6h131l27 123q34 165 140.5 250.5t305.5 85.5q98 0 192.5 -15t139.5 -31l45 -15q-12 -66 -61 -109q-15 5 -43 13.5t-113.5 22t-171.5 13.5q-133 0 -198 -49t-87 -156l-28 -133h551q38 0 78 -8l-226 -1059 q-27 -10 -76 -10q-24 0 -41.5 2.5t-23.5 5.5l-6 2l203 951h-484l-203 -951q-26 -10 -75 -10q-23 0 -41 2.5t-25 5.5z" />
<glyph unicode="&#xfb02;" horiz-adv-x="1171" d="M88 10l203 951h-131q0 41 4 59q9 41 20 57h131l27 123q71 336 434 336q98 0 198 -17.5t151 -34.5l51 -18l-310 -1456q-26 -10 -75 -10q-24 0 -42 2.5t-24 5.5l-6 2l291 1372q-125 33 -246 33q-125 0 -188 -50.5t-84 -154.5l-29 -133h229q0 -39 -4 -57q-6 -26 -20 -59 h-230l-202 -951q-27 -10 -76 -10q-23 0 -41 2.5t-25 5.5z" />
<glyph horiz-adv-x="0" />
<glyph horiz-adv-x="682" />
<glyph unicode=" "  horiz-adv-x="497" />
<glyph unicode="&#x09;" horiz-adv-x="497" />
<glyph unicode="&#xa0;" horiz-adv-x="497" />
<glyph unicode="!" horiz-adv-x="532" d="M55 10l33 150q25 10 82 10q24 0 43.5 -2.5t26.5 -5.5l8 -2l-33 -150q-27 -10 -82 -10q-25 0 -44.5 2.5t-26.5 5.5zM154 360l211 1104q18 11 81 11q27 0 46.5 -2.5t25.5 -5.5l6 -3l-260 -1104q-20 -12 -57 -12q-16 0 -29.5 3t-18.5 6z" />
<glyph unicode="&#x22;" horiz-adv-x="675" d="M246 1061l59 403q25 11 76 11q23 0 41 -2.5t24 -5.5l7 -3l-113 -403q-16 -8 -49 -8q-14 0 -25 2t-16 4zM512 1061l59 403q23 11 76 11q22 0 40 -2.5t25 -5.5l7 -3l-113 -403q-18 -8 -49 -8q-15 0 -26 2t-15 4z" />
<glyph unicode="#" horiz-adv-x="1341" d="M16 272q0 49 2 60q10 46 25 61h225l234 471h-187q-5 22 2 62q6 37 23 59h219l139 279q34 12 68 12q39 0 63 -12l-137 -279h316l139 279q35 12 67 12q40 0 64 -12l-139 -279h184q4 -33 -2 -57q-6 -33 -23 -64h-217l-233 -471h178q0 -48 -2 -59q-9 -39 -25 -62h-213 l-127 -260q-42 -12 -69 -12q-16 0 -64 12l129 260h-315l-129 -260q-42 -12 -70 -12q-19 0 -61 12l127 260h-191zM401 393h316l231 471h-315z" />
<glyph unicode="$" horiz-adv-x="1140" d="M6 78q0 19 17 59q24 43 43 53q19 -6 53.5 -15t130.5 -24.5t182 -15.5q352 0 402 234q13 60 -3.5 105.5t-55 71.5t-92 48t-114 35.5t-120.5 34t-112.5 43.5t-89 63t-50.5 94.5t2 136.5q34 158 157.5 253t321.5 110l37 242q26 10 69 10q20 0 37 -2.5t24 -5.5l7 -2l-68 -238 q92 -3 174.5 -15t119.5 -23l36 -11q0 -1 -1.5 -8t-3.5 -14t-6.5 -18t-10.5 -22q-20 -38 -45 -51q-123 41 -299 41q-346 0 -396 -231q-12 -56 6 -98t57 -67t93 -46t115 -35.5t121 -36t112 -47t88.5 -68t50 -99.5t-3.5 -142q-34 -164 -161.5 -260t-333.5 -111l-39 -260 q-23 -10 -70 -10q-20 0 -37 2.5t-24 5.5l-7 2l68 258q-106 2 -201 20.5t-138 35.5z" />
<glyph unicode="%" horiz-adv-x="1538" d="M178 -10l1100 1437q20 11 65 11q19 0 34.5 -3t21.5 -5l6 -3l-1098 -1437q-24 -10 -67 -10q-18 0 -33.5 2.5t-22.5 5.5zM186 1061q74 354 349 354q272 0 196 -354t-348 -354q-134 0 -185.5 84t-11.5 270zM290 904.5q9 -56.5 35.5 -78t77.5 -21.5q75 0 126 56t81 200 q23 99 14.5 156.5t-35 79.5t-75.5 22q-77 0 -127.5 -57.5t-81.5 -200.5q-24 -100 -15 -156.5zM840 334q74 354 346 354q132 0 184 -84.5t14 -269.5q-76 -354 -348 -354q-133 0 -184.5 84t-11.5 270zM941.5 209q-0.5 -51 14.5 -79.5t39.5 -40t61.5 -11.5q76 0 126 56t81 200 q22 99 13 156.5t-36 79.5t-76 22q-76 0 -127 -57.5t-80 -200.5q-16 -74 -16.5 -125z" />
<glyph unicode="&#x26;" horiz-adv-x="1298" d="M30.5 171.5q-16.5 66.5 0.5 158.5q14 65 49.5 126t77 105t94.5 83t93 62t81 42q-41 168 -6 319q33 160 136.5 253t266.5 93q136 0 200 -70.5t42 -179.5q-13 -62 -45 -116.5t-72.5 -97t-103 -86t-120 -75.5t-140.5 -73q74 -220 262 -393q102 102 186 262q36 3 66.5 -10.5 t40.5 -38.5q-77 -146 -217 -281q104 -80 221 -133q-6 -36 -31.5 -70.5t-58.5 -52.5q-139 62 -252 152q-25 -22 -60.5 -45.5t-94.5 -54.5t-138.5 -50.5t-161.5 -19.5q-77 0 -140.5 20t-111 62.5t-64 109zM180 348q-25 -113 34 -179.5t181 -66.5q164 0 332 115 q-192 186 -274 434q-39 -20 -75.5 -45t-79.5 -63t-74.5 -88.5t-43.5 -106.5zM555 1075q-27 -131 2 -264q78 39 133.5 72t106 74.5t81 89t42.5 102.5q15 73 -18 115.5t-111 42.5q-87 0 -150 -59.5t-86 -172.5z" />
<glyph unicode="'" horiz-adv-x="409" d="M246 1061l59 403q23 11 76 11q22 0 40 -2.5t25 -5.5l7 -3l-113 -403q-16 -8 -49 -8q-14 0 -25 2t-16 4z" />
<glyph unicode="(" horiz-adv-x="587" d="M85.5 328q3.5 165 37.5 327q25 118 66.5 237.5t88 216t97 185.5t95.5 154.5t81.5 114t58.5 73.5l21 25q28 2 59 -16q15 -9 24.5 -20.5t11.5 -18.5l3 -7q-14 -15 -37.5 -43.5t-88 -123.5t-120.5 -197.5t-117.5 -261t-95.5 -318.5t-41 -316.5t8 -265t35 -194t38 -127.5 l18 -41q-19 -27 -58 -45q-17 -8 -33.5 -12t-24.5 -4h-7q-8 17 -21.5 49.5t-42 137.5t-44 215.5t-12 275.5z" />
<glyph unicode=")" horiz-adv-x="587" d="M-127 -289q14 15 37 43.5t88 123.5t120.5 197.5t117.5 261t96 318.5t40.5 316.5t-8.5 265t-35 194t-37 127.5l-18 41q19 26 58 46q17 8 33.5 12t24.5 4h7q8 -17 21 -49.5t41.5 -137t43.5 -215.5t11.5 -276.5t-37.5 -327.5t-99 -325t-133 -280t-131 -211t-103 -141 l-40 -48q-30 -2 -61 16q-14 8 -23 19.5t-11 18.5z" />
<glyph unicode="*" horiz-adv-x="704" d="M242 1245q13 54 45 82l153 -55l37 172q45 15 86 0l-37 -172l179 55q19 -27 6 -82l-176 -53l75 -145q-51 -40 -84 -50l-73 142l-131 -142q-38 11 -62 47l133 146z" />
<glyph unicode="+" horiz-adv-x="944" d="M98 537q-6 20 2 57q3 16 8.5 30.5t9.5 20.5l5 6h297l63 299q21 8 58 8q16 0 30.5 -2t20.5 -4l6 -2l-63 -299h299q1 -20 -5 -57q-4 -16 -9 -30.5t-8 -20.5l-3 -6h-299l-64 -297q-22 -11 -59 -11q-16 0 -30 2.5t-19 5.5l-6 3l63 297h-297z" />
<glyph unicode="," horiz-adv-x="462" d="M-39 -190q9 8 23 22.5t44 63.5t46 104q-16 1 -29 3.5t-17 4.5l-5 2l32 150q31 10 84 10q24 0 44.5 -2.5t28.5 -5.5l9 -2l-22 -103q-11 -53 -35 -102t-49.5 -81t-49.5 -56.5t-39 -35.5l-16 -11z" />
<glyph unicode="-" horiz-adv-x="731" d="M145 537q-6 20 2 57q3 16 8.5 30.5t10.5 20.5l4 6h401q4 -20 -2 -57q-4 -16 -9.5 -30.5t-9.5 -20.5l-3 -6h-402z" />
<glyph unicode="." horiz-adv-x="454" d="M20 10l33 150q29 10 86 10q24 0 44.5 -2.5t28.5 -5.5l9 -2l-33 -150q-31 -10 -86 -10q-25 0 -45.5 2.5t-28.5 5.5z" />
<glyph unicode="/" horiz-adv-x="935" d="M-102 -84l1030 1608q29 12 76 12q23 0 41 -3t25 -6l7 -3l-1030 -1608q-29 -12 -78 -12q-22 0 -39.5 3t-24.5 6z" />
<glyph unicode="0" horiz-adv-x="1263" d="M158 725q79 368 235.5 528t403.5 160q243 0 331 -186t7 -563q-40 -189 -100.5 -321.5t-142.5 -212t-179.5 -115t-220.5 -35.5q-493 0 -334 745zM270 350q13 -131 73 -187.5t175 -56.5q176 0 286.5 135.5t178.5 454.5q35 163 38.5 276.5t-25 183t-84.5 100t-144 30.5 q-173 0 -283.5 -135t-179.5 -455q-48 -215 -35 -346z" />
<glyph unicode="1" horiz-adv-x="821" d="M149.5 1016q-2.5 33 12.5 69q269 68 465 295q24 13 73 13q22 0 40 -3.5t25 -6.5l7 -3l-291 -1368q-25 -12 -78 -12q-22 0 -40 3t-25 6l-8 3l190 897q34 156 70 275q-170 -162 -420 -223q-18 22 -20.5 55z" />
<glyph unicode="2" horiz-adv-x="1083" d="M-10 0q2 65 16 137q12 62 33.5 116.5t44 94.5t58.5 78.5t64 63t74 54.5t75 46t81.5 44.5t79.5 43.5q174 100 227 139q110 82 146 186q7 21 12 44q13 47 5 90.5t-32.5 77t-80 53.5t-136.5 20q-73 0 -153 -14t-124 -28l-44 -15q-45 38 -21 108q19 8 53.5 20.5t138 33 t202.5 20.5q185 0 284 -100t60 -289q-18 -81 -49 -139.5t-96 -110.5t-112 -80t-160 -88q-16 -9 -24.5 -13.5t-22.5 -12t-26 -13.5q-19 -10 -58.5 -30.5t-62.5 -33t-60 -34.5t-60.5 -40t-52.5 -44.5t-47.5 -53t-35 -61.5t-24.5 -73q-3 -14 -4.5 -28.5t-2 -23t-1.5 -10.5h675 q7 -20 -2 -67q-7 -34 -26 -68h-811z" />
<glyph unicode="3" horiz-adv-x="1062" d="M-20 49q5 30 22.5 61t40.5 50q127 -49 285 -49q179 0 276.5 69.5t126.5 202.5q59 285 -272 285h-127q-13 62 26 123h127q292 0 344 251q27 120 -33 183t-208 63q-71 0 -143 -12t-108 -24l-36 -13q-23 17 -30.5 46t3.5 61q17 8 47.5 19t123.5 29.5t184 18.5 q205 0 293 -101t53 -268q-50 -239 -264 -313q228 -76 168 -369q-18 -83 -59 -150t-107.5 -120.5t-169 -82.5t-232.5 -29q-60 0 -116.5 7t-93.5 17t-66 20.5t-42 17.5z" />
<glyph unicode="4" horiz-adv-x="1177" d="M27 362q-10 19 0 60q4 18 10 33.5t10 21.5l4 6l852 897q27 13 80 13q22 0 39.5 -3.5t23.5 -6.5l7 -3l-191 -897h197q8 -20 0 -61q-4 -18 -10.5 -33t-10.5 -21l-4 -6h-196l-76 -350q-29 -12 -74 -12q-21 0 -38.5 3t-24.5 6l-7 3l76 350h-667zM207 483h512l147 697z" />
<glyph unicode="5" horiz-adv-x="1071" d="M-16 41q3 30 20.5 61t42.5 50q12 -5 33.5 -12t90 -19t138.5 -12q189 0 296.5 67.5t139.5 214.5q16 68 7.5 122t-41 91t-101 56.5t-172.5 19.5q-45 0 -96 -3.5t-93.5 -8t-49.5 -4.5l153 729h701q9 -69 -27 -133h-555l-98 -463q50 10 143 10q235 0 330 -114.5t51 -325.5 q-43 -198 -188.5 -292.5t-409.5 -94.5q-64 0 -119.5 6.5t-90 15t-59.5 17.5t-36 15z" />
<glyph unicode="6" horiz-adv-x="1130" d="M111 526q88 416 330 630t601 237q17 -58 -24 -121q-245 -26 -414 -143t-264 -351q172 74 313 74q89 0 158.5 -27t116.5 -83t60 -142t-11 -203q-30 -142 -107 -237t-185 -137.5t-245 -42.5q-207 0 -297.5 134.5t-31.5 411.5zM260 518q-46 -215 6.5 -317.5t186.5 -102.5 q136 0 238 81.5t134 236.5q34 160 -26 237.5t-191 77.5q-142 0 -315 -88q-25 -80 -33 -125z" />
<glyph unicode="7" horiz-adv-x="1009" d="M135 8q31 144 83 268.5t112.5 216t128.5 172t135.5 150.5t127 136.5t110 145t77.5 160.5h-698q-6 25 2 68q4 20 11 37t12 24l4 7h839q5 -33 -6 -84q-24 -101 -73 -192.5t-110 -165.5t-131.5 -147.5t-142 -154.5t-135 -170.5t-117.5 -210.5t-83 -260q-56 -8 -72 -8 q-10 0 -74 8z" />
<glyph unicode="8" horiz-adv-x="1193" d="M72 367q10 45 30 87t41.5 73t55 61.5t58 49.5t63 42t57.5 32.5l53 26.5q-93 56 -136.5 149.5t-17.5 215.5q32 152 159.5 230.5t326.5 78.5q190 0 284 -100t60 -256q-10 -46 -28.5 -87t-45 -73.5t-51 -57.5t-60 -48.5t-57 -36.5t-55.5 -31q113 -62 170 -163t27 -243 q-35 -168 -176.5 -252.5t-376.5 -84.5q-213 0 -314.5 110t-66.5 277zM215 344q-24 -110 44.5 -177t225.5 -67q149 0 249 67t122 175q14 64 -0.5 112.5t-66.5 89t-88 59.5t-120 57q-41 19 -61 28q-27 -15 -52 -30t-69 -49t-77.5 -69.5t-64 -88t-42.5 -107.5zM418 1085 q-13 -59 0.5 -104.5t62.5 -83t83.5 -56.5t113.5 -54q25 -11 37 -17q213 125 250 301q23 106 -38 163.5t-190 57.5q-127 0 -213 -56t-106 -151z" />
<glyph unicode="9" horiz-adv-x="1124" d="M109 0q-12 64 26 121q244 24 411.5 141t264.5 352q-138 -73 -289 -73q-89 0 -160.5 28t-121.5 85t-65.5 143.5t7.5 203.5q46 211 184.5 311.5t346.5 100.5q209 0 299.5 -135t31.5 -412q-45 -211 -132 -372t-208 -265.5t-269.5 -161t-325.5 -67.5zM326 977 q-34 -160 27 -237.5t192 -77.5q90 0 177 27.5t138 60.5q20 64 33 124q89 420 -207 420q-134 0 -230 -80.5t-130 -236.5z" />
<glyph unicode=":" horiz-adv-x="479" d="M25 10l32 150q29 10 86 10q24 0 44.5 -2.5t28.5 -5.5l9 -2l-32 -150q-32 -10 -87 -10q-25 0 -45.5 2.5t-28.5 5.5zM197 819l30 150q31 10 88 10q24 0 44 -2.5t28 -4.5l8 -3l-30 -150q-31 -10 -86 -10q-25 0 -45.5 2.5t-28.5 4.5z" />
<glyph unicode=";" horiz-adv-x="495" d="M-23 -190q9 8 23 22.5t44 63.5t46 104q-16 1 -29.5 3.5t-18.5 4.5l-5 2l33 150q29 10 86 10q24 0 44.5 -2.5t29.5 -5.5l8 -2l-23 -103q-11 -53 -35 -102t-49.5 -81t-49 -56.5t-39.5 -35.5l-15 -11zM209 819l31 150q31 10 88 10q24 0 44 -2.5t28 -4.5l8 -3l-31 -150 q-31 -10 -86 -10q-25 0 -45.5 2.5t-28.5 4.5z" />
<glyph unicode="&#x3c;" horiz-adv-x="935" d="M94 526q-4 29 4 68q4 18 9.5 34.5t9.5 23.5l4 7l719 297q8 -16 -2 -57q-4 -18 -9.5 -33.5t-9.5 -21.5l-4 -6l-588 -246l484 -242q6 -20 -2 -61q-4 -17 -9.5 -32t-9.5 -21l-4 -7z" />
<glyph unicode="=" horiz-adv-x="1054" d="M115 356q-3 64 24 117h709q3 -59 -25 -117h-708zM190 715q-3 59 25 114h709q3 -56 -25 -114h-709z" />
<glyph unicode="&#x3e;" horiz-adv-x="935" d="M80 229q-6 21 2 60q4 18 9.5 33.5t8.5 21.5l4 6l586 242l-481 246q-6 20 2 61q4 18 9.5 32.5t9.5 19.5l3 5l592 -297q6 -24 -2 -65q-4 -17 -10 -34t-10 -26l-4 -8z" />
<glyph unicode="?" horiz-adv-x="878" d="M135 10l33 150q29 10 86 10q24 0 44.5 -2.5t29.5 -5.5l8 -2l-33 -150q-31 -10 -86 -10q-25 0 -45.5 2.5t-28.5 5.5zM223 1346q15 8 43.5 19t116.5 29.5t176 18.5q185 0 269.5 -90.5t50.5 -249.5q-17 -82 -51.5 -147t-77 -107t-90.5 -78t-95.5 -70.5t-89 -73.5t-74.5 -98 t-49 -134q-20 -17 -61 -17q-16 0 -30 4t-19 8l-6 5q19 92 53 163.5t73.5 116t83.5 81t86.5 68t80 66t67 86.5t43.5 119q24 106 -29.5 163.5t-183.5 57.5q-70 0 -136 -12t-97 -24l-31 -13q-46 39 -23 109z" />
<glyph unicode="@" horiz-adv-x="1871" d="M102.5 214q-29.5 152 10.5 357q53 249 200 437t354.5 286.5t444.5 98.5q149 0 267.5 -36t198 -103.5t127.5 -162.5t54.5 -213.5t-20.5 -256.5q-44 -211 -162.5 -329t-286.5 -118q-186 0 -203 137q-102 -137 -292 -137q-56 0 -100.5 13t-80.5 41.5t-54 74t-21.5 112 t16.5 154.5q23 109 64 188t96 124t116 65.5t132 20.5q165 0 221 -107l20 98q25 13 68 13q19 0 34 -3.5t20 -6.5l5 -3l-106 -507q-39 -175 92 -175q99 0 181 86.5t118 258.5q43 202 -3 352.5t-179.5 234.5t-341.5 84q-205 0 -380 -86.5t-297 -250.5t-169 -384 q-32 -148 -19 -263t57.5 -198t120.5 -136.5t168.5 -79t202.5 -25.5q150 0 303.5 44.5t286.5 119.5q44 -20 35 -78q-315 -193 -668 -193q-160 0 -289.5 49.5t-220.5 150t-120.5 252.5zM680 447.5q2 -51.5 13.5 -85t37 -54t55.5 -28.5t70 -8q89 0 156 57.5t90 139.5l41 199 q16 82 -26.5 141t-133.5 59q-51 0 -91 -12.5t-79.5 -43.5t-69.5 -92t-49 -151q-16 -70 -14 -121.5z" />
<glyph unicode="A" horiz-adv-x="1323" d="M-96 12l852 1450q35 13 86 13q24 0 44.5 -3.5t29.5 -6.5l8 -3l233 -1450q-29 -12 -86 -12q-17 0 -32.5 3t-22.5 6l-6 3l-64 391h-653l-230 -391q-27 -12 -90 -12q-22 0 -39 3t-24 6zM365 530h563l-103 641q-5 36 -7.5 71.5t-2.5 53.5v17h-6q-25 -62 -72 -142z" />
<glyph unicode="B" horiz-adv-x="1286" d="M68 0l313 1475h510q82 0 145 -23t99.5 -63t58.5 -94q22 -53 21 -113q0 -62 -11 -131q-14 -69 -46 -126t-70.5 -92.5t-72.5 -57t-65 -32.5q23 -5 48 -20t53 -44t44.5 -70.5t22.5 -99.5q2 -16 3 -33q0 -45 -13 -99q-79 -377 -512 -377h-528zM246 123h350q162 0 249 71.5 t116 208.5q11 50 11 90q0 79 -40 125q-60 68 -217 68h-350zM389 805h336q275 0 334 274q10 47 10 86q0 187 -229 187h-334z" />
<glyph unicode="C" horiz-adv-x="1140" d="M154 737q80 376 265 567t470 191q99 0 181.5 -17t115.5 -34l33 -17q-10 -63 -72 -114q-12 6 -33.5 14.5t-91.5 22.5t-143 14q-80 0 -147.5 -18t-132 -62.5t-116.5 -115.5t-95.5 -180t-74.5 -253t-33 -252q0 -9 -1 -18q1 -95 21 -159q22 -70 67.5 -113t105 -60.5 t139.5 -17.5t158.5 12.5t117.5 25.5l38 13q26 -33 26 -80q0 -18 -4 -37q-6 -3 -17 -7.5t-48 -16.5t-78 -21t-106 -16.5t-132 -7.5q-448 0 -448 464q0 128 35 293z" />
<glyph unicode="D" horiz-adv-x="1355" d="M68 0l313 1475h428q117 0 204 -26.5t147 -84.5q61 -56 90 -146q27 -82 26 -198v-20q-2 -128 -37 -293q-43 -205 -110 -343.5t-162 -218t-207.5 -112.5t-263.5 -33h-428zM246 129h264q89 0 158.5 16t135 56.5t115.5 108.5t92.5 175t73.5 252q31 146 34 253v26 q0 89 -18 149q-21 68 -69 108.5t-110.5 56.5t-151.5 16h-264z" />
<glyph unicode="E" horiz-adv-x="1138" d="M68 0l313 1475h813q6 -26 0 -62q-9 -38 -27 -65h-661l-115 -539h559q6 -28 0 -59q-9 -38 -26 -66h-559l-119 -557h682q6 -27 0 -61q-10 -37 -27 -66h-833z" />
<glyph unicode="F" horiz-adv-x="1097" d="M70 12l311 1463h805q2 -13 2 -27q0 -19 -4 -37q-6 -30 -25 -63h-653l-119 -560h571q7 -21 -2 -61q-7 -36 -24 -65h-572l-139 -650q-27 -12 -78 -12q-23 0 -41 3t-25 6z" />
<glyph unicode="G" horiz-adv-x="1284" d="M156 737q79 373 274.5 565.5t487.5 192.5q107 0 198 -17t128 -34l38 -17q-16 -69 -72 -112q-14 5 -40.5 13.5t-105.5 22t-155 13.5q-82 0 -152.5 -18t-139.5 -63t-124 -115.5t-101.5 -180t-76.5 -252.5q-31 -145 -31 -256q0 -106 26 -175q25 -69 75 -112.5t113 -61 t145 -17.5q128 0 242 26l112 531h-335q-6 24 2 63q4 19 10.5 35t11.5 22l4 7h481l-159 -750q-19 -8 -53.5 -19t-143 -29.5t-219.5 -18.5q-292 0 -406 190q-66 113 -66 290q0 123 32 277z" />
<glyph unicode="H" horiz-adv-x="1396" d="M70 12l309 1450q29 13 78 13q22 0 40 -3.5t25 -6.5l8 -3l-137 -639h692l138 639q28 13 77 13q22 0 40.5 -3.5t25.5 -6.5l8 -3l-309 -1450q-27 -12 -78 -12q-24 0 -42.5 3t-24.5 6l-7 3l144 676h-692l-144 -676q-29 -12 -78 -12q-24 0 -42.5 3t-24.5 6z" />
<glyph unicode="I" horiz-adv-x="552" d="M70 12l309 1450q27 13 78 13q23 0 41 -3.5t25 -6.5l7 -3l-309 -1450q-29 -12 -78 -12q-24 0 -42 3t-25 6z" />
<glyph unicode="J" horiz-adv-x="890" d="M-74 41q12 73 66 117q96 -43 213 -43q235 0 287 241l235 1106q23 13 78 13q23 0 41.5 -3.5t25.5 -6.5l7 -3l-236 -1102q-41 -192 -153 -286t-287 -94q-71 0 -140.5 15t-102.5 31z" />
<glyph unicode="K" horiz-adv-x="1251" d="M70 12l309 1450q29 13 80 13q22 0 39.5 -3.5t24.5 -6.5l7 -3l-135 -633h209l563 633q35 13 95 13q44 0 79 -13l-624 -700l375 -750q-32 -12 -91 -12q-16 0 -32.5 3t-25.5 6l-9 3l-342 690h-223l-148 -690q-25 -12 -78 -12q-22 0 -40 3t-25 6z" />
<glyph unicode="L" horiz-adv-x="1044" d="M68 0l311 1462q29 13 78 13q23 0 41 -3.5t25 -6.5l7 -3l-282 -1329h641q0 -47 -4 -65q-6 -31 -25 -68h-792z" />
<glyph unicode="M" horiz-adv-x="1726" d="M70 12l309 1450q31 13 88 13q22 0 42 -3.5t29 -6.5l9 -3l278 -893h6l674 893q50 13 101 13q27 0 51.5 -3.5t35.5 -6.5l11 -3l-309 -1450q-29 -12 -78 -12q-22 0 -40.5 3t-26.5 6l-7 3l184 869q76 342 99 409h-6q-54 -98 -203 -301l-471 -606q-22 -8 -53 -8q-13 0 -24 2 t-16 4l-5 2l-201 602q-73 227 -76 305h-6q0 -76 -70 -399l-186 -879q-25 -12 -72 -12q-20 0 -36.5 3t-23.5 6z" />
<glyph unicode="N" horiz-adv-x="1433" d="M70 12l309 1450q35 13 92 13q27 0 49 -3.5t30 -6.5l9 -3l371 -1030q19 -53 38 -114.5t28 -96.5l10 -35h6q16 140 53 314l205 962q25 13 76 13q22 0 38 -3.5t22 -6.5l5 -3l-309 -1450q-29 -12 -88 -12q-27 0 -49.5 3t-31.5 6l-9 3l-375 1043q-20 55 -38 113.5t-26 89.5 l-8 32h-6q-14 -120 -57 -321l-203 -957q-25 -12 -74 -12q-21 0 -37.5 3t-23.5 6z" />
<glyph unicode="O" horiz-adv-x="1386" d="M162 764q79 383 257.5 557t450.5 174q267 1 375 -199q62 -114 61 -290q0 -132 -34 -299q-40 -196 -107 -337t-158.5 -226t-201 -124.5t-244.5 -39.5q-267 0 -373 197q-60 112 -61 287q0 132 35 300zM277 490q-1 -19 -1 -36q0 -84 16 -144q19 -72 60 -118t97.5 -66 t132.5 -20q95 0 174 32.5t148 105t123 196t91 297.5q30 140 34 247q1 21 1 41q0 81 -14 139q-18 72 -59 118t-97.5 66t-132.5 20q-96 0 -174.5 -32.5t-148.5 -105t-124.5 -196t-91.5 -297.5q-30 -140 -34 -247z" />
<glyph unicode="P" horiz-adv-x="1232" d="M70 12l311 1463h518q127 0 210.5 -64t110.5 -171q13 -53 13 -111q0 -61 -14 -128q-41 -193 -174.5 -298t-331.5 -105h-367l-125 -586q-27 -12 -76 -12q-24 0 -43 3t-26 6zM375 729h352q132 0 222 81.5t120 223.5q11 53 11 98q0 80 -34 132q-54 82 -188 82h-352z" />
<glyph unicode="Q" horiz-adv-x="1386" d="M162 764q79 383 257.5 557t450.5 174q267 0 375 -199q62 -114 62 -290q0 -132 -35 -299q-91 -445 -328 -615q91 -98 232 -129q-14 -41 -44.5 -76.5t-68.5 -52.5q-74 25 -137.5 77t-98.5 116q-117 -47 -266 -47q-268 0 -373 197q-61 112 -61 287q0 132 35 300zM277 490 q-1 -19 -1 -36q0 -84 16 -144q19 -72 60 -118t97.5 -66t132.5 -20q95 0 174 32.5t148 105t123 196t91 297.5q30 140 34 247q1 21 1 41q0 81 -14 139q-18 72 -59 118t-97.5 66t-132.5 20q-96 0 -174.5 -32.5t-148.5 -105t-124.5 -196t-91.5 -297.5q-30 -140 -34 -247z" />
<glyph unicode="R" horiz-adv-x="1282" d="M70 12l311 1463h508q128 0 213.5 -59.5t115.5 -160.5q15 -52 15 -110q0 -55 -14 -117q-32 -152 -129 -247.5t-246 -129.5l217 -639q-33 -12 -90 -12q-25 0 -43.5 3t-24.5 6l-6 3l-203 623h-340l-133 -623q-27 -12 -76 -12q-24 0 -43 3t-26 6zM381 764h342q131 0 221 76.5 t119 214.5q10 46 10 86q0 77 -38 128q-57 77 -187 77h-342z" />
<glyph unicode="S" horiz-adv-x="1161" d="M4 61q18 73 66 121q19 -7 53 -17.5t129.5 -28t181.5 -17.5q173 0 279 69.5t135 202.5q7 33 7 61q-1 28 -7 52q-12 48 -50.5 80.5t-82 53t-109.5 40.5q-163 55 -231 95q-154 93 -154 257v14q1 36 10 76q38 185 181.5 280t382.5 95q105 0 198.5 -13.5t134.5 -27.5l41 -14 q-13 -70 -65 -119q-138 43 -316 43q-177 0 -280.5 -70t-130.5 -198q-6 -27 -7.5 -51t6 -45t12.5 -37.5t24.5 -33t29.5 -27t39.5 -24t42 -20t50.5 -19.5t50.5 -17t56.5 -18q1 0 1.5 -0.5t1.5 -0.5q38 -12 69.5 -25t66 -30.5t61 -38t51.5 -46t42 -57.5q16 -32 26 -68 q10 -35 10 -76q0 -46 -11 -100q-80 -382 -583 -382q-73 0 -142 8.5t-116 20t-83.5 23.5t-53.5 20z" />
<glyph unicode="T" horiz-adv-x="1089" d="M215 1341q-3 12 -3 26q0 19 5 42q4 17 10.5 33.5t11.5 24.5l5 8h960q3 -11 3 -24q0 -18 -5 -42q-4 -17 -10.5 -34t-11.5 -25l-4 -9h-400l-282 -1329q-29 -12 -78 -12q-24 0 -42.5 3t-25.5 6l-6 3l283 1329h-410z" />
<glyph unicode="U" horiz-adv-x="1376" d="M160 481l209 981q28 13 77 13q23 0 41.5 -3.5t25.5 -6.5l7 -3l-213 -1003q-11 -54 -11 -101q0 -95 48 -157q72 -92 238 -92q164 0 275.5 92t146.5 258l213 1003q26 13 75 13q22 0 40.5 -3.5t25.5 -6.5l8 -3l-209 -981q-51 -240 -205.5 -370.5t-380.5 -130.5 q-231 0 -346 134q-80 93 -80 235q0 61 15 132z" />
<glyph unicode="V" horiz-adv-x="1275" d="M223 1460q27 15 84 15q18 0 33.5 -3.5t21.5 -6.5l7 -3l153 -1091q6 -48 9.5 -96t3.5 -71v-24h6q31 82 92 191l620 1091q23 13 82 13q23 0 42 -3.5t27 -6.5l7 -3l-821 -1452q-35 -10 -84 -10q-23 0 -43.5 2.5t-29.5 5.5l-9 2z" />
<glyph unicode="W" horiz-adv-x="1955" d="M233 1462q27 13 78 13q24 0 41.5 -3.5t23.5 -6.5l5 -3l80 -1046q5 -56 5 -116v-22q0 -43 -2 -68l-1 -32h6q35 111 96 236l525 1048q24 13 77 13q24 0 43 -3.5t26 -6.5l7 -3l62 -1046q2 -40 2 -75q0 -23 -1 -45q-2 -53 -6 -86l-4 -32h7q36 103 102 236l518 1048 q35 13 80 13q20 0 37.5 -3.5t25.5 -6.5l7 -3l-719 -1450q-33 -12 -84 -12q-22 0 -43 3t-31 6l-10 3l-56 1037q-2 49 -2 88q0 26 1 48q2 55 6 83l4 28h-6q-19 -87 -99 -247l-516 -1037q-36 -12 -92 -12q-50 0 -82 12z" />
<glyph unicode="X" horiz-adv-x="1247" d="M-84 10l643 762l-301 690q33 13 92 13q24 0 41.5 -3.5t22.5 -6.5l6 -3l256 -575l495 575q35 13 99 13q47 0 82 -13l-609 -704l326 -744q-33 -14 -90 -14q-25 0 -43 3t-24 6l-5 3l-278 629l-531 -631q-35 -10 -96 -10q-41 0 -86 10z" />
<glyph unicode="Y" horiz-adv-x="1273" d="M221 1462q33 13 94 13q25 0 42 -3.5t21 -6.5l5 -3l276 -686l574 686q47 13 102 13q24 0 45 -3.5t30 -6.5l9 -3l-710 -841l-129 -609q-27 -12 -76 -12q-24 0 -43 3t-26 6l-7 3l129 604z" />
<glyph unicode="Z" horiz-adv-x="1196" d="M-43 0q0 49 4 70q3 13 25 65l1063 1204h-750q0 51 4 72q5 24 25 64h923q3 -9 3 -22q0 -18 -5 -44q-8 -38 -26 -70l-1067 -1204h837q1 -8 1 -18q0 -20 -5 -47q-9 -46 -24 -70h-1008z" />
<glyph unicode="[" horiz-adv-x="659" d="M-6 -348l426 2007h379q4 -21 -4 -62q-4 -18 -9 -33t-8 -20l-4 -6h-237l-377 -1765h237q4 -21 -4 -60q-4 -19 -9 -34.5t-8 -20.5l-3 -6h-379z" />
<glyph unicode="\" horiz-adv-x="929" d="M236 1524q28 12 79 12q23 0 42 -3t27 -6l7 -3l344 -1608q-27 -12 -80 -12q-22 0 -40 3t-25 6l-8 3z" />
<glyph unicode="]" horiz-adv-x="659" d="M-123 -348q-6 18 2 61q4 17 9.5 32t9.5 21l4 7h235l377 1765h-235q-6 18 2 59q4 18 9.5 33.5t9.5 21.5l3 7h377l-426 -2007h-377z" />
<glyph unicode="^" horiz-adv-x="1054" d="M176 936l469 528q23 11 68 11q20 0 36 -2.5t21 -5.5l6 -3l244 -528q-21 -10 -64 -10q-19 0 -36 2.5t-24 5.5l-7 2l-201 434l-383 -434q-26 -10 -69 -10q-19 0 -34 2.5t-20 5.5z" />
<glyph unicode="_" horiz-adv-x="1114" d="M-27 -92q4 16 9.5 29t9.5 17l4 5h854q4 -14 -4 -51q-4 -17 -8.5 -30.5t-7.5 -17.5l-3 -5h-854q-8 14 0 53z" />
<glyph unicode="`" horiz-adv-x="487" d="M104 1595q22 27 65 45t79 15l149 -295q-37 -43 -98 -49z" />
<glyph unicode="a" d="M106 571q26 123 63.5 215t82 151t102 95.5t118.5 51t136 14.5q222 0 287 -166l39 135q14 10 65 10q23 0 39.5 -2.5t21.5 -4.5l5 -3l-225 -1057q-27 -10 -64 -10q-17 0 -32 2.5t-21 5.5l-6 2l14 131q-126 -161 -346 -161q-308 0 -308 346q0 106 29 245zM242 200 q43 -96 194 -96q124 0 219.5 92.5t120.5 213.5l58 262q7 36 7 69q1 39 -9 75q-18 68 -72.5 112.5t-136.5 44.5q-152 0 -237.5 -97t-135.5 -337q-28 -132 -27 -220q-1 -75 19 -119z" />
<glyph unicode="b" horiz-adv-x="1136" d="M35 10l321 1516q25 10 76 10q23 0 41 -2.5t25 -5.5l6 -2l-123 -578q71 78 152 114t196 36q88 0 151 -32t102 -102q38 -69 42 -179q0 -11 1 -23q0 -103 -28 -244q-32 -153 -81.5 -259.5t-115 -166.5t-140 -86t-168.5 -26q-109 0 -181 41.5t-102 117.5l-35 -129 q-30 -10 -70 -10q-23 0 -40 2.5t-23 5.5zM266 410q-8 -37 -8 -72q0 -38 10 -74q18 -70 70 -115t131 -45q153 0 241 98t140 337q24 121 25 204v6q-1 79 -27 128q-28 51 -75 73.5t-120 22.5q-122 0 -211.5 -88t-117.5 -211z" />
<glyph unicode="c" horiz-adv-x="907" d="M100 569q58 270 195.5 399.5t355.5 129.5q79 0 141 -12t84 -24l23 -13q-12 -67 -63 -111q-70 35 -185 35q-163 0 -261 -107t-144 -327q-22 -101 -22 -178q0 -90 30 -146q55 -104 221 -104q123 0 207 39q20 -18 30.5 -48t4.5 -61q-53 -28 -118 -44.5t-175 -16.5 q-217 0 -300 156q-49 91 -49 224q0 94 25 209z" />
<glyph unicode="d" d="M80 300q-1 15 -1 32q0 101 27 237q32 153 82 258.5t116.5 163.5t140 82.5t165.5 24.5q103 0 177.5 -42.5t103.5 -117.5l125 588q25 10 76 10q23 0 40.5 -2.5t23.5 -5.5l7 -2l-321 -1516q-27 -10 -64 -10q-17 0 -33 2.5t-23 5.5l-7 2l14 125q-122 -155 -356 -155 q-84 0 -146 33t-102 104t-45 183zM228 282q13 -96 66 -137t155 -41q83 0 154.5 45.5t115 114t59.5 146.5l58 262q7 33 7 65q1 41 -11 79q-20 68 -72.5 112.5t-126.5 44.5q-149 0 -240 -99t-141 -335q-27 -118 -28 -202q1 -30 4 -55z" />
<glyph unicode="e" horiz-adv-x="1034" d="M100 575q31 141 85.5 244t127.5 163t156 88t180 28q171 0 255 -108q58 -74 57 -184q0 -50 -11 -106q-13 -56 -29.5 -108t-26.5 -76l-11 -24h-650q-12 -75 -12 -134q0 -104 37 -160q58 -88 211 -87q69 0 135 16.5t98 33.5l31 17q20 -18 30.5 -48.5t4.5 -61.5 q-6 -4 -16 -9.5t-45.5 -21t-73.5 -27t-98 -21t-121 -9.5q-218 0 -296 156q-44 88 -44 217q0 99 26 222zM256 602h522q14 24 35 117q8 39 8 74q0 65 -29 111q-45 72 -169 73q-268 0 -367 -375z" />
<glyph unicode="f" horiz-adv-x="708" d="M86 10l203 951h-139q-4 25 4 59q9 41 20 57h139l27 123q33 162 124.5 249t268.5 87q55 0 105.5 -9t73.5 -17l24 -9q-15 -65 -64 -108q-57 22 -151 22q-109 0 -159.5 -49.5t-72.5 -155.5l-28 -133h289q0 -45 -2 -59q-2 -8 -23 -57h-289l-203 -951q-24 -10 -75 -10 q-23 0 -41 2.5t-25 5.5z" />
<glyph unicode="g" horiz-adv-x="1136" d="M-23 -449q16 67 66 105q105 -43 236 -43q72 0 124.5 10.5t100.5 38.5t83 77.5t65 126.5t55 187l18 74q-122 -147 -354 -147q-84 0 -146.5 33t-102.5 104.5t-44 182.5q-1 15 -1 29q0 103 27 240q32 153 81 258.5t115 163.5t139.5 82.5t168.5 24.5q215 0 281 -162l35 131 q18 10 69 10q23 0 41 -2.5t24 -4.5l7 -3l-217 -1014q-31 -148 -75 -250.5t-113 -175t-165.5 -106t-228.5 -33.5q-84 0 -156.5 16t-102.5 32zM226 334.5q0 -83.5 29 -134.5t75.5 -73.5t115.5 -22.5q66 0 124 28t98 72.5t67 94.5t39 100l60 275q7 43 7 84q0 39 -13 77 q-14 39 -37 70t-64.5 49.5t-95.5 18.5q-153 0 -242 -98t-139 -336q-24 -121 -24 -204.5z" />
<glyph unicode="h" horiz-adv-x="1126" d="M35 10l321 1516q25 10 76 10q22 0 40 -2.5t25 -5.5l7 -2l-125 -578q153 150 354 150q150 0 223 -93q51 -65 51 -157q0 -40 -10 -86l-159 -752q-29 -10 -76 -10q-23 0 -41 2.5t-25 5.5l-6 2l160 752q8 37 8 68q0 145 -184 145q-86 0 -174 -50t-152 -137l-166 -778 q-27 -10 -76 -10q-23 0 -40.5 2.5t-23.5 5.5z" />
<glyph unicode="i" horiz-adv-x="489" d="M41 10l225 1057q23 10 76 10q22 0 40 -2.5t25 -4.5l7 -3l-226 -1057q-26 -10 -75 -10q-24 0 -42 2.5t-24 5.5zM307 1311l33 149q29 10 86 10q24 0 44.5 -2.5t29.5 -5.5l8 -2l-33 -149q-31 -11 -86 -11q-25 0 -45.5 3t-28.5 5z" />
<glyph unicode="j" horiz-adv-x="489" d="M-332 -459q5 23 13.5 42t14.5 27l5 7q31 -8 80 -8q88 0 142 49t75 154l268 1255q23 10 76 10q22 0 40 -2.5t25 -4.5l7 -3l-267 -1247q-35 -165 -126.5 -248.5t-229.5 -83.5q-38 0 -69 4.5t-42 9.5l-12 4q-4 15 0 35zM307 1315l33 149q29 11 86 11q24 0 44 -2.5t28 -5.5 l8 -3l-33 -149q-31 -12 -84 -12q-25 0 -45.5 3t-28.5 6z" />
<glyph unicode="k" horiz-adv-x="1019" d="M35 10l323 1518q29 8 76 8q19 0 37 -2t27 -4l8 -2l-195 -907h174l385 446q44 10 95 10q20 0 37.5 -2.5t24.5 -4.5l7 -3l-438 -510l262 -545q-35 -12 -86 -12q-19 0 -37 3t-27 6l-8 3l-229 492h-184l-105 -494q-28 -10 -73 -10q-22 0 -40.5 2.5t-26.5 5.5z" />
<glyph unicode="l" horiz-adv-x="497" d="M45 10l322 1516q22 10 75 10q22 0 40 -2.5t25 -5.5l7 -2l-321 -1516q-27 -10 -76 -10q-24 0 -42 2.5t-24 5.5z" />
<glyph unicode="m" horiz-adv-x="1710" d="M35 10l225 1057q25 10 76 10q22 0 40 -2.5t25 -4.5l7 -3l-27 -127q152 158 334 158q100 0 169.5 -44.5t82.5 -133.5q83 90 170.5 134t197.5 44q140 0 209 -95q48 -66 48 -154q0 -38 -9 -81l-162 -758q-26 -10 -75 -10q-23 0 -41 2.5t-25 5.5l-6 2l160 752q8 39 8 71 q0 142 -166 142q-82 0 -164 -49t-145 -140l-166 -776q-27 -10 -76 -10q-23 0 -41 2.5t-24 5.5l-7 2l160 752q8 39 8 71q0 142 -166 142q-79 0 -162.5 -50t-144.5 -137l-166 -778q-27 -10 -76 -10q-23 0 -40.5 2.5t-23.5 5.5z" />
<glyph unicode="n" horiz-adv-x="1126" d="M35 10l225 1057q25 10 76 10q22 0 40 -2.5t25 -4.5l7 -3l-29 -129q163 160 354 160q153 0 225 -90q50 -62 49 -155q0 -42 -10 -91l-159 -752q-29 -10 -76 -10q-23 0 -41 2.5t-25 5.5l-6 2l160 752q8 37 8 68q0 145 -184 145q-86 0 -174 -50t-152 -137l-166 -778 q-27 -10 -76 -10q-23 0 -40.5 2.5t-23.5 5.5z" />
<glyph unicode="o" horiz-adv-x="1103" d="M104 573q32 150 82.5 253t121.5 162t153.5 84.5t189.5 25.5q211 0 294 -146q47 -83 47 -214q0 -100 -27 -228q-32 -150 -83 -254t-122.5 -164t-155 -86t-190.5 -26q-210 0 -292 148q-46 83 -45 214q0 101 27 231zM222 323q0 -84 29 -134q30 -51 76 -72t115 -21 t123.5 21.5t103.5 71.5t86.5 137t63.5 213q21 101 23 177q0 12 1 23q1 61 -11 103q-14 50 -44 81.5t-70 44.5t-95 13q-69 0 -124 -21.5t-104 -71t-86 -136.5t-63 -213q-24 -130 -24 -216z" />
<glyph unicode="p" horiz-adv-x="1138" d="M-70 -479l330 1546q25 10 76 10q23 0 38.5 -2.5t19.5 -4.5l5 -3l-20 -129q131 160 342 160q92 0 157 -33t105 -103.5t43 -181.5q1 -11 1 -23q0 -104 -28 -245q-32 -153 -83 -259t-119 -164.5t-143.5 -83.5t-170.5 -25q-100 0 -172 43.5t-102 115.5l-131 -618 q-25 -10 -76 -10q-23 0 -41 2.5t-25 4.5zM266 410q-7 -30 -7 -61q0 -37 11 -76q18 -70 71 -119.5t128 -49.5q153 0 241 98t140 337q27 124 27 208q0 80 -25 131t-73.5 73t-125.5 22q-122 0 -211.5 -88t-117.5 -211z" />
<glyph unicode="q" d="M78 294q-1 17 -1 35q0 99 25 232q32 153 81 259.5t114.5 166.5t140 85.5t168.5 25.5q219 0 281 -160l41 129q22 10 61 10q23 0 41.5 -2.5t25.5 -4.5l7 -3l-330 -1546q-25 -10 -76 -10q-23 0 -40.5 2.5t-24.5 4.5l-6 3l129 604q-66 -77 -142.5 -111t-191.5 -34 q-86 0 -149.5 32t-106 102t-47.5 180zM224 334.5q0 -83.5 28.5 -134.5t75 -73.5t116.5 -22.5q119 0 208.5 87t119.5 206l59 277q6 34 6 65q0 79 -41 144q-59 90 -175 90q-152 0 -237.5 -97t-135.5 -337q-24 -121 -24 -204.5z" />
<glyph unicode="r" horiz-adv-x="798" d="M35 10l225 1057q25 10 76 10q23 0 41 -2.5t25 -4.5l6 -3l-33 -149q43 56 87 94t85.5 55t73.5 23t69 6q92 0 166 -49q-26 -72 -88 -119q-47 35 -137 35q-69 0 -146 -55.5t-143 -149.5l-160 -748q-25 -10 -76 -10q-23 0 -40.5 2.5t-23.5 5.5z" />
<glyph unicode="s" horiz-adv-x="907" d="M-12 49q15 79 65 115q14 -6 38 -15t94 -24.5t134 -15.5q109 0 182.5 45t92.5 137q4 20 4.5 37.5t-4 32.5t-9.5 27t-17 23.5t-21 19.5t-27 17l-29 14.5t-33.5 13l-34.5 11.5t-36 11q-31 9 -57.5 20t-55 26.5t-49 33.5t-39.5 42t-27 52t-12 64q-1 9 -1 20q0 27 8 57 q30 138 138 211.5t292 73.5q81 0 147.5 -13t92.5 -25l26 -13q-11 -69 -66 -109q-90 35 -211 35q-120 0 -191.5 -46t-90.5 -134q-4 -18 -4 -34q0 -21 7 -39q12 -32 50 -55.5t68 -36t90 -32.5q32 -10 56.5 -20t51 -23t45.5 -28t37 -34t29 -41.5t17.5 -50t5.5 -61t-9 -72.5 q-32 -147 -138.5 -216.5t-295.5 -69.5q-57 0 -110.5 7t-88.5 17t-62 20.5t-40 17.5z" />
<glyph unicode="t" horiz-adv-x="735" d="M129 961q-6 20 2 57q4 18 9.5 33t9.5 21l4 5h159l41 195q56 34 128 34q13 0 26 -1l-47 -228h293q6 -20 -2 -57q-4 -16 -9.5 -31t-9.5 -21l-4 -7h-293l-125 -588q-20 -82 -20 -137q0 -44 13 -72q29 -62 147 -62q23 0 53.5 3t49.5 5l19 3q6 -25 -2 -62q-3 -16 -7.5 -29.5 t-7.5 -19.5l-3 -6q-61 -16 -147 -16q-176 0 -230 96q-31 55 -32 142q0 65 18 149l127 594h-160z" />
<glyph unicode="u" horiz-adv-x="1124" d="M92 322l158 745q29 10 76 10q23 0 40.5 -2.5t23.5 -4.5l7 -3l-159 -752q-8 -37 -8 -67q0 -146 186 -146q83 0 170.5 49.5t152.5 137.5l166 778q27 10 76 10q23 0 41 -2.5t24 -4.5l7 -3l-226 -1057q-14 -10 -65 -10q-22 0 -39.5 2.5t-24.5 5.5l-6 2l13 119 q-149 -149 -351 -149q-150 0 -222 96q-50 66 -50 158q0 41 10 88z" />
<glyph unicode="v" horiz-adv-x="1036" d="M141 1067q29 10 80 10q24 0 40.5 -2.5t20.5 -4.5l5 -3l106 -700q7 -50 11.5 -103t5.5 -80v-28h6q42 94 108 209l402 702q33 10 78 10q21 0 39.5 -2.5t26.5 -4.5l9 -3l-606 -1057q-37 -10 -86 -10q-24 0 -44.5 2.5t-28.5 5.5l-9 2z" />
<glyph unicode="w" horiz-adv-x="1619" d="M152 1067q22 10 71 10q23 0 39.5 -2.5t21.5 -4.5l5 -3l73 -717q6 -55 6 -110q0 -38 -3 -76h6q32 86 84 186l381 717q34 10 79 10q22 0 40 -2.5t25 -4.5l7 -3l64 -713q4 -45 3.5 -92.5t-3.5 -97.5h6q27 73 88 188l375 715q26 10 69 10q21 0 38.5 -2.5t24.5 -4.5l7 -3 l-553 -1057q-58 -10 -82 -10q-20 0 -78 10l-59 629q-9 98 -9 169q0 62 7 103h-6q-29 -91 -127 -272l-338 -629q-45 -10 -80 -10q-30 0 -80 10z" />
<glyph unicode="x" horiz-adv-x="1009" d="M-84 10l496 549l-254 508q29 10 82 10q24 0 41.5 -2.5t22.5 -4.5l5 -3l199 -408l364 408q42 10 93 10q23 0 42 -2.5t27 -4.5l8 -3l-473 -524l265 -533q-21 -10 -76 -10q-24 0 -42 2.5t-24 5.5l-6 2l-211 432l-389 -432q-43 -10 -96 -10q-22 0 -40.5 2.5t-25.5 5.5z" />
<glyph unicode="y" horiz-adv-x="1126" d="M-33 -449q16 67 66 105q104 -43 235 -43q90 0 151 18t113.5 67t89.5 134.5t68 220.5l15 64q-75 -74 -158 -105.5t-191 -31.5q-109 0 -177 47t-87 122q-10 37 -10 79q0 43 10 91l160 748q29 10 76 10q23 0 40.5 -2.5t23.5 -4.5l7 -3l-159 -752q-8 -37 -8 -67 q0 -146 186 -146q83 0 170.5 49.5t152.5 137.5l166 778q27 10 76 10q23 0 41 -2.5t24 -4.5l7 -3l-217 -1014q-46 -214 -113.5 -334t-178.5 -175.5t-290 -55.5q-84 0 -156.5 16t-102.5 32z" />
<glyph unicode="z" horiz-adv-x="933" d="M-43 0q-2 6 -2 17q0 18 6 49q7 36 23 59l755 827h-538q-3 10 -3 23q0 18 5 41q4 18 10 33.5t10 21.5l4 6h697q0 -2 1 -13t0.5 -22t-3.5 -24q-3 -15 -25 -66l-756 -827h582q4 -9 4 -23q0 -17 -6 -41q-4 -17 -10 -32.5t-11 -22.5l-4 -6h-739z" />
<glyph unicode="{" horiz-adv-x="704" d="M86 625q-5 29 2 59q5 26 23 61h63q44 0 71.5 27.5t37.5 71.5l114 542q27 126 111.5 199.5t216.5 73.5h119q4 -24 -4 -60q-3 -11 -7 -23t-8.5 -22t-5.5 -14h-90q-158 0 -194 -158l-107 -501q-14 -72 -40.5 -118.5t-74.5 -76.5q35 -29 41.5 -78.5t-8.5 -115.5l-106 -504 q-36 -158 125 -158h90q4 -23 -4 -59q-6 -31 -21 -60h-119q-132 0 -186 73.5t-27 199.5l117 544q10 44 -5.5 70.5t-59.5 26.5h-64z" />
<glyph unicode="|" horiz-adv-x="544" d="M-18 -393l426 2001q22 10 75 10q22 0 40 -2.5t25 -5.5l7 -2l-426 -2001q-27 -10 -76 -10q-24 0 -41.5 2.5t-23.5 4.5z" />
<glyph unicode="}" horiz-adv-x="704" d="M-113 -289q-5 29 2 58q6 27 23 61h88q159 0 195 158l106 504q27 137 113 192q-59 54 -31 197l106 501q36 158 -124 158h-89q-4 26 3 59q6 27 22 60h117q133 0 187.5 -73.5t27.5 -199.5l-115 -542q-10 -44 5.5 -71.5t58.5 -27.5h61q5 -29 -2 -59q-8 -38 -23 -61h-61 q-85 0 -106 -97l-117 -544q-27 -127 -112 -200t-218 -73h-117z" />
<glyph unicode="~" horiz-adv-x="1089" d="M150 596q4 5 11 13t31 28t51 35.5t70.5 28t89.5 12.5q45 0 85.5 -16.5t66.5 -36t65 -36t82 -16.5q44 0 86 18.5t62 37.5l20 18q58 -16 58 -76q-4 -5 -10.5 -13t-31 -28.5t-52 -36t-71.5 -28.5t-91 -13q-45 0 -86 16.5t-67 36t-65.5 36t-82.5 16.5q-44 0 -85.5 -18.5 t-61.5 -37.5l-19 -18q-58 15 -55 78z" />
<glyph unicode="&#xa1;" horiz-adv-x="509" d="M-43 -403l260 1103q20 11 57 11q16 0 29.5 -2.5t18.5 -5.5l6 -3l-211 -1103q-19 -11 -82 -11q-27 0 -46.5 3t-25.5 5zM229 901l33 150q31 10 86 10q25 0 45.5 -2.5t28.5 -4.5l8 -3l-33 -150q-29 -10 -86 -10q-24 0 -44.5 2.5t-28.5 4.5z" />
<glyph unicode="&#xa2;" horiz-adv-x="944" d="M106 539q54 254 181 395t317 160l31 190q36 12 70 12q35 0 59 -12l-51 -188q63 -3 113 -14.5t68 -21.5l19 -11q-12 -62 -67 -107q-65 35 -180 35q-162 0 -261 -108.5t-145 -329.5q-47 -221 8.5 -328t220.5 -107q53 0 104.5 10.5t76.5 20.5l26 10q37 -37 25 -104 q-10 -6 -29.5 -14.5t-83.5 -24.5t-133 -20l-29 -189q-21 -14 -67 -14q-48 0 -62 14l52 191q-182 17 -249.5 159t-13.5 396z" />
<glyph unicode="&#xa3;" horiz-adv-x="1071" d="M16 0l29 135q87 66 142 131.5t79 129t30.5 117t2.5 120.5h-168q-8 17 2 57q9 49 23 58h135q-27 177 -2 296q41 189 174 280t330 91q181 0 313 -61q-6 -72 -70 -111q-122 45 -250 45q-138 0 -226.5 -61.5t-115.5 -188.5q-5 -23 -7 -49.5t-3 -45.5t1 -51t3.5 -45.5t5.5 -51 t5 -47.5h389q0 -46 -2 -56q-7 -36 -23 -59h-358q3 -66 -5 -122t-31.5 -120.5t-75 -129t-128.5 -126.5h627q10 -10 -2 -67q-11 -52 -27 -68h-797z" />
<glyph unicode="&#xa4;" horiz-adv-x="1208" d="M30 154l1 6l184 151q-61 108 -31 244q26 132 135 244l-120 151q8 24 39 51q16 12 30 18.5t20 7.5l7 1l119 -149q125 82 262 82q132 0 223 -84l184 151q20 0 43 -27q9 -12 13.5 -24.5t4.5 -19.5l1 -7l-182 -151q59 -108 32 -244q-29 -135 -137 -246l121 -149 q-6 -24 -39 -51q-15 -13 -29 -20t-21 -8l-7 -1l-119 151q-124 -81 -262 -81q-137 0 -228 81l-182 -151q-25 2 -45 31q-9 12 -13 24.5t-4 18.5zM295 555q-28 -124 39.5 -209.5t191.5 -85.5t227.5 85t131.5 210q26 124 -41.5 209.5t-192.5 85.5q-123 0 -226.5 -85.5 t-129.5 -209.5z" />
<glyph unicode="&#xa5;" horiz-adv-x="1249" d="M129 307q-4 21 2 53q5 24 19 48h344l32 155h-344q0 31 4 51q4 26 19 50h295l-275 725q29 12 84 12q24 0 43.5 -3t27.5 -6l7 -3l250 -668l553 670q29 10 80 10q21 0 39 -2.5t26 -4.5l8 -3l-606 -727h293q4 -18 -2 -50q-9 -34 -20 -51h-342l-33 -155h342q4 -16 -2 -50 q-3 -20 -19 -51h-342l-63 -295q-23 -12 -72 -12q-21 0 -37.5 3t-23.5 6l-6 3l63 295h-344z" />
<glyph unicode="&#xa6;" horiz-adv-x="524" d="M-31 -391l199 936q21 10 74 10q22 0 39 -2.5t23 -4.5l7 -3l-198 -936q-25 -10 -74 -10q-24 0 -41.5 2.5t-23.5 4.5zM201 696l192 912q21 10 74 10q22 0 39.5 -2.5t23.5 -5.5l7 -2l-193 -912q-25 -10 -74 -10q-24 0 -41 2.5t-23 5.5z" />
<glyph unicode="&#xa7;" horiz-adv-x="995" d="M20 31q4 69 56 104q30 -10 107.5 -24.5t152.5 -14.5q137 0 214 38t97 124q8 39 -10.5 69t-56 47t-86.5 34t-101 30t-100 35t-83.5 49t-51 72t-2.5 104q30 133 192 238q-106 71 -76 209q27 132 136 200t276 68q151 0 270 -45q0 -26 -14.5 -54.5t-38.5 -45.5 q-26 9 -89 20.5t-126 11.5q-247 0 -278 -153q-8 -40 9.5 -70t53 -48t82 -35t96 -30t95 -35t79 -49t48 -72t1.5 -103q-28 -129 -180 -228q61 -37 88 -89.5t11 -131.5q-16 -75 -58.5 -130t-105 -86t-135 -45.5t-158.5 -14.5q-83 0 -161.5 12.5t-115.5 25.5zM291 717 q-7 -32 3.5 -57.5t29 -41.5t53.5 -31t64.5 -23.5t77 -21.5t75.5 -22q27 19 40 29t38.5 33t41 48.5t21.5 55.5q8 37 -4.5 64.5t-47.5 47t-67 31t-88 28.5t-86 28q-132 -80 -151 -168z" />
<glyph unicode="&#xa8;" horiz-adv-x="931" d="M176 1262l29 133q27 10 78 10q22 0 39.5 -2.5t24.5 -4.5l7 -3l-28 -133q-27 -11 -76 -11q-23 0 -41.5 2.5t-25.5 5.5zM500 1262l28 133q27 10 78 10q22 0 40 -2.5t25 -4.5l7 -3l-29 -133q-27 -11 -76 -11q-23 0 -41 2.5t-25 5.5z" />
<glyph unicode="&#xa9;" horiz-adv-x="1644" d="M127.5 475q-10.5 104 11.5 221q40 190 168 351t309 254.5t371 93.5t331 -93.5t199.5 -254.5t18.5 -351t-167.5 -351t-308 -254t-370.5 -93q-114 0 -213.5 35.5t-171 99t-119.5 151t-58.5 191.5zM242 696q-34 -161 16.5 -298.5t171 -217.5t281.5 -80q162 0 316 80 t262.5 217t142.5 299t-15.5 298.5t-169.5 216t-282 79.5q-161 0 -315.5 -79.5t-264 -216.5t-143.5 -298zM494 711q87 407 438 407q60 0 110.5 -11t70.5 -23l20 -11q-9 -50 -54 -84q-71 35 -153 35q-127 0 -203.5 -73t-112.5 -240q-67 -310 185 -310q40 0 83.5 7.5t67.5 14.5 l23 7q31 -23 20 -82q-10 -5 -29 -13t-79 -21t-123 -13q-173 0 -239.5 105.5t-24.5 304.5z" />
<glyph unicode="&#xaa;" horiz-adv-x="737" d="M78 412q-3 47 18 88h477q3 -44 -18 -88h-477zM152 809q41 197 278 197q80 0 152 -9l14 66q15 70 -11.5 103.5t-97.5 33.5q-40 0 -85 -8t-70 -16l-25 -7q-24 31 -14 76q108 45 225 45q119 0 162.5 -55t19.5 -166l-94 -442q-16 -9 -45 -9q-11 0 -21 2t-14 4l-4 3l4 75 q-83 -96 -223 -96q-89 0 -130.5 53t-20.5 150zM254 809q-25 -119 96 -119q75 0 130.5 49.5t74.5 130.5l12 52q-3 0 -53.5 3t-87.5 3q-149 0 -172 -119z" />
<glyph unicode="&#xab;" horiz-adv-x="1034" d="M84 487q-8 23 0 62q4 18 10.5 34.5t11.5 23.5l5 7l507 428q33 -26 33 -92l-438 -397l268 -399q-26 -66 -71 -93zM451 492q-6 20 2 57q4 17 9.5 32.5t9.5 22.5l3 6l471 396q36 -28 29 -88l-397 -365l241 -367q-17 -60 -65 -88z" />
<glyph unicode="&#xac;" horiz-adv-x="1228" d="M152 801.5q-1 16.5 2 32.5q4 18 11 34.5t12 23.5l5 7h936l-112 -528q-27 -15 -68 -15q-18 0 -33.5 4t-21.5 8l-6 3l86 401h-807q-1 3 -2 8t-2 21.5z" />
<glyph unicode="&#xad;" horiz-adv-x="528" />
<glyph unicode="&#xae;" horiz-adv-x="1093" d="M184 965q38 178 192 305t333 127q117 0 204.5 -58t124 -157.5t11.5 -216.5t-104.5 -217t-191.5 -158t-229 -58q-178 0 -278 127t-62 306zM252 965q-32 -152 52 -258.5t235 -106.5q152 0 281 106.5t161 258.5t-51.5 258t-235.5 106q-151 0 -280.5 -106t-161.5 -258z M420 745l98 461h182q73 0 105 -37t18 -102q-23 -100 -116 -127l77 -190q-18 -11 -43 -11q-10 0 -19 1.5t-13 3.5l-4 1l-76 189h-101l-41 -189q-16 -6 -34 -6q-9 0 -17 1.5t-12 3.5zM541 991h110q87 0 103 76q8 42 -8.5 62t-61.5 20h-111z" />
<glyph unicode="&#xaf;" horiz-adv-x="833" d="M57 1290q-12 50 21 101h614q9 -44 -20 -101h-615z" />
<glyph unicode="&#xb0;" horiz-adv-x="724" d="M242 1264q22 101 107 177.5t204 76.5q117 0 168 -74t31 -174q-22 -101 -103.5 -174.5t-199.5 -73.5q-123 0 -176 71t-31 171zM330 1266q-13 -68 19 -116t114 -48q80 0 133 48.5t68 117.5q13 71 -18 119.5t-111 48.5t-135 -50.5t-70 -119.5z" />
<glyph unicode="&#xb1;" horiz-adv-x="1044" d="M94 279q-6 20 2 57q4 16 9.5 30.5t9.5 20.5l4 6h710q4 -20 -4 -57q-4 -16 -9 -30.5t-8 -20.5l-3 -6h-711zM197 766q-4 20 2 57q4 16 9.5 30.5t9.5 20.5l3 7h297l51 237q23 8 60 8q16 0 30 -2t19 -4l6 -2l-51 -237h299q4 -21 -4 -58q-3 -16 -8 -30.5t-9 -20.5l-4 -6h-299 l-49 -236q-22 -10 -59 -10q-16 0 -30 2.5t-20 5.5l-6 2l50 236h-297z" />
<glyph unicode="&#xb2;" horiz-adv-x="616" d="M98 709q-2 37 8 84q16 77 66 132.5t110.5 86.5t120.5 58t105.5 64t56.5 87q10 53 -22 83.5t-111 30.5q-41 0 -85.5 -7.5t-59.5 -12.5q-19 37 -8 78q81 28 190 28q117 0 168.5 -51.5t30.5 -142.5q-12 -58 -47 -102.5t-79 -69.5t-95.5 -51.5t-97 -49.5t-84 -63t-54.5 -92 h350q4 -30 0 -45q-6 -24 -18 -45h-445z" />
<glyph unicode="&#xb3;" horiz-adv-x="614" d="M92 733q12 51 43 72q64 -21 150 -21q100 0 146 33t58 92q26 125 -120 125h-93q-6 42 19 84h92q125 0 148 107q12 56 -17.5 83t-99.5 27q-38 0 -77.5 -4.5t-60.5 -8.5l-20 -5q-23 26 -10 74q79 30 190 30q115 0 167.5 -48t33.5 -136q-23 -111 -125 -158q106 -49 76 -178 q-43 -203 -322 -203q-50 0 -94.5 8.5t-63.5 17.5z" />
<glyph unicode="&#xb4;" horiz-adv-x="458" d="M29 1360l276 295q39 3 74 -14t45 -46l-318 -284q-62 6 -77 49z" />
<glyph unicode="&#xb5;" horiz-adv-x="1193" d="M-9 -488q0 11 1.5 52.5t7 91.5t19 134.5t34.5 180.5l234 1096q26 10 75 10q24 0 42 -2.5t24 -4.5l6 -3l-162 -754q-44 -211 181 -211q90 0 177 54t146 133l166 778q25 10 76 10q23 0 41 -2.5t25 -4.5l6 -3l-226 -1057q-25 -10 -76 -10q-23 0 -40.5 2.5t-23.5 5.5l-7 2 l26 121q-148 -151 -340 -151q-143 0 -202 86q-31 -177 -42.5 -313t-6.5 -183l4 -47q-33 -25 -82 -32.5t-82 5.5q-1 5 -1 16z" />
<glyph unicode="&#xb6;" horiz-adv-x="1067" d="M121 -457l272 1288q-92 2 -150 46.5t-74.5 110.5t-0.5 142q30 124 127.5 213t236.5 89h111l-401 -1889q-23 -8 -62 -8q-20 0 -35 2t-19 4zM504 -457l399 1880q21 9 62 9q18 0 33 -2t20 -4l6 -3l-399 -1880q-23 -8 -64 -8q-18 0 -32.5 2t-19.5 4z" />
<glyph unicode="&#xb7;" horiz-adv-x="460" d="M131 516l27 133q27 10 78 10q22 0 40 -2.5t26 -4.5l7 -3l-26 -133q-31 -12 -80 -12q-23 0 -41 3t-24 6z" />
<glyph unicode="&#xb8;" horiz-adv-x="606" d="M-301 -397q9 47 49 71q64 -32 137 -32q141 0 166 118q22 107 -104 107h-72l-14 24l80 201l84 -18l-52 -127q114 0 158.5 -50t24.5 -139q-22 -100 -94 -151t-189 -51q-50 0 -93.5 12t-61.5 24z" />
<glyph unicode="&#xb9;" horiz-adv-x="495" d="M186 1270q146 37 252 133q19 8 51 8q24 0 48 -8l-148 -688q-18 -6 -47 -6q-35 0 -53 6l102 483q16 68 21 82q-105 -72 -219 -94q-24 31 -7 84z" />
<glyph unicode="&#xba;" horiz-adv-x="770" d="M96 412q-4 19 2 45q5 23 17 43h483q3 -16 -2 -43q-6 -29 -16 -45h-484zM182 948q38 178 122 260t220 82q137 0 187.5 -81t11.5 -261q-37 -181 -122 -262.5t-222 -81.5q-136 0 -185.5 81.5t-11.5 262.5zM284.5 747.5q24.5 -55.5 112.5 -55.5q87 0 137 57t80 199 q29 142 3.5 199t-111.5 57q-87 0 -137 -57.5t-80 -198.5q-29 -145 -4.5 -200.5z" />
<glyph unicode="&#xbb;" horiz-adv-x="1036" d="M27 186l397 367l-242 365q26 65 66 88l303 -396q6 -22 -2 -61q-4 -16 -9.5 -30.5t-9.5 -20.5l-4 -6l-471 -394q-28 22 -28 88zM352 154l436 399l-266 397q21 60 70 92l330 -428q4 -24 -4 -65q-4 -17 -9.5 -32.5t-9.5 -22.5l-4 -7l-512 -426q-35 30 -31 93z" />
<glyph unicode="&#xbc;" horiz-adv-x="1337" d="M80 -12l1100 1439q18 11 57 11q17 0 30.5 -3t18.5 -5l4 -3l-1097 -1439q-23 -8 -60 -8q-15 0 -28 2t-19 4zM205 1270q146 37 252 133q19 8 51 8q19 0 47 -8l-147 -688q-21 -6 -48 -6q-37 0 -55 6l103 483q20 80 20 82q-101 -71 -217 -94q-24 27 -6 84zM621 182v31 q8 26 14 35l444 446q24 8 51 8q28 0 48 -8l-93 -432h84q0 -33 -2 -41q-4 -20 -14 -39h-84l-37 -176q-42 -6 -45 -6q-15 0 -45 6l37 176h-358zM750 262h245l66 311z" />
<glyph unicode="&#xbd;" horiz-adv-x="1445" d="M80 -12l1100 1439q18 11 57 11q17 0 30.5 -3t18.5 -5l4 -3l-1097 -1439q-23 -8 -60 -8q-15 0 -28 2t-19 4zM205 1270q146 37 252 133q19 8 51 8q19 0 47 -8l-147 -688q-21 -6 -48 -6q-37 0 -55 6l103 483q20 80 20 82q-101 -71 -217 -94q-24 27 -6 84zM758 0q0 37 10 84 q16 77 65.5 132.5t110 86.5t120 58t105 64t56.5 87q11 53 -20 84t-109 31q-43 0 -89 -8t-59 -13q-20 33 -8 78q81 29 190 29q117 0 168.5 -52t32.5 -143q-11 -50 -38.5 -89.5t-64 -65t-79 -47.5t-85.5 -42.5t-81 -44t-68.5 -59t-44.5 -80.5h351q6 -15 2 -45q-6 -24 -21 -45 h-444z" />
<glyph unicode="&#xbe;" horiz-adv-x="1439" d="M117 733q7 45 41 72q65 -21 151 -21q100 0 146.5 33t58.5 92q26 125 -121 125h-92q-9 43 18 84h93q124 0 147 107q12 56 -18 83t-99 27q-38 0 -78 -4.5t-60 -8.5l-21 -5q-22 26 -9 74q80 30 191 30q114 0 166 -48t33 -136q-12 -58 -41.5 -96t-83.5 -62q52 -23 72 -64.5 t3 -113.5q-43 -203 -319 -203q-50 0 -94.5 8.5t-64.5 17.5zM182 -12l1100 1439q18 11 57 11q17 0 30.5 -3t18.5 -5l5 -3l-1098 -1439q-22 -8 -59 -8q-15 0 -28.5 2t-19.5 4zM722 203.5q0 6.5 1 11.5q7 23 14 33l445 446q24 8 51 8t47 -8l-92 -432h84q0 -33 -2 -41 q-4 -16 -15 -39h-84l-36 -176q-42 -6 -45 -6q-16 0 -46 6l37 176h-358q0 2 -0.5 8.5t-0.5 13zM852 262h246l65 311z" />
<glyph unicode="&#xbf;" horiz-adv-x="860" d="M-47 -8q17 82 51.5 147t77 107t90 78t95.5 70.5t89.5 73.5t75 98t49.5 134q21 13 60 13q17 0 32 -3.5t21 -6.5l6 -3q-19 -92 -53.5 -163.5t-74 -116t-84 -81t-87.5 -68t-80.5 -66t-67.5 -86.5t-44 -119q-22 -106 30.5 -163.5t182.5 -57.5q71 0 137 12.5t97 24.5l30 12 q44 -36 24 -109q-15 -8 -43.5 -19t-116.5 -29.5t-176 -18.5q-185 0 -270 90.5t-51 249.5zM500 905l30 150q31 10 84 10q25 0 45.5 -2.5t28.5 -4.5l8 -3l-30 -150q-29 -10 -86 -10q-24 0 -44 2.5t-28 4.5z" />
<glyph unicode="&#xc0;" horiz-adv-x="1323" d="M-96 12l852 1450q35 13 86 13q24 0 44.5 -3.5t29.5 -6.5l8 -3l233 -1450q-29 -12 -86 -12q-17 0 -32.5 3t-22.5 6l-6 3l-64 391h-653l-230 -391q-27 -12 -90 -12q-22 0 -39 3t-24 6zM365 530h563l-103 641q-5 36 -7.5 71.5t-2.5 53.5v17h-6q-25 -62 -72 -142zM690 1829 q22 27 65 44.5t79 14.5l149 -295q-37 -43 -98 -49z" />
<glyph unicode="&#xc1;" horiz-adv-x="1323" d="M-96 12l852 1450q35 13 86 13q24 0 44.5 -3.5t29.5 -6.5l8 -3l233 -1450q-29 -12 -86 -12q-17 0 -32.5 3t-22.5 6l-6 3l-64 391h-653l-230 -391q-27 -12 -90 -12q-22 0 -39 3t-24 6zM365 530h563l-103 641q-5 36 -7.5 71.5t-2.5 53.5v17h-6q-25 -62 -72 -142zM743 1595 l275 295q40 3 74.5 -13.5t44.5 -45.5l-318 -285q-61 7 -76 49z" />
<glyph unicode="&#xc2;" horiz-adv-x="1323" d="M-96 12l852 1450q35 13 86 13q24 0 44.5 -3.5t29.5 -6.5l8 -3l233 -1450q-29 -12 -86 -12q-17 0 -32.5 3t-22.5 6l-6 3l-64 391h-653l-230 -391q-27 -12 -90 -12q-22 0 -39 3t-24 6zM365 530h563l-103 641q-5 36 -7.5 71.5t-2.5 53.5v17h-6q-25 -62 -72 -142zM573 1634 l318 221h53l223 -221q-1 -2 -6.5 -9.5t-7 -9.5t-6 -8.5t-6.5 -9t-6.5 -7.5t-7.5 -7.5t-7.5 -6t-8.5 -5.5l-9 -4.5t-10 -3.5l-195 161l-260 -161q-58 23 -64 71z" />
<glyph unicode="&#xc3;" horiz-adv-x="1323" d="M-96 12l852 1450q35 13 86 13q24 0 44.5 -3.5t29.5 -6.5l8 -3l233 -1450q-29 -12 -86 -12q-17 0 -32.5 3t-22.5 6l-6 3l-64 391h-653l-230 -391q-27 -12 -90 -12q-22 0 -39 3t-24 6zM365 530h563l-103 641q-5 36 -7.5 71.5t-2.5 53.5v17h-6q-25 -62 -72 -142zM592 1649 q2 4 6 10.5t18.5 23.5t32 30.5t46.5 25t61 12.5q47 2 88.5 -16.5t78 -37t70.5 -16.5q25 0 48.5 14t34.5 28l11 14q21 -3 41.5 -21.5t28.5 -40.5q-2 -4 -6.5 -10t-20 -22t-33.5 -28.5t-47.5 -22.5t-62.5 -11q-47 -2 -88 16t-76 36.5t-67 17.5q-28 -1 -52 -15.5t-34 -28.5 l-11 -14q-26 3 -45 18.5t-22 37.5z" />
<glyph unicode="&#xc4;" horiz-adv-x="1323" d="M-96 12l852 1450q35 13 86 13q24 0 44.5 -3.5t29.5 -6.5l8 -3l233 -1450q-29 -12 -86 -12q-17 0 -32.5 3t-22.5 6l-6 3l-64 391h-653l-230 -391q-27 -12 -90 -12q-22 0 -39 3t-24 6zM365 530h563l-103 641q-5 36 -7.5 71.5t-2.5 53.5v17h-6q-25 -62 -72 -142zM621 1610 l28 135q27 8 78 8q22 0 40.5 -2t26.5 -4l7 -2l-29 -135q-29 -8 -78 -8q-23 0 -41 2t-25 4zM944 1610l29 135q27 8 78 8q22 0 40 -2t25 -4l8 -2l-28 -135q-29 -8 -78 -8q-23 0 -41.5 2t-25.5 4z" />
<glyph unicode="&#xc5;" horiz-adv-x="1320" d="M-96 12l825 1407q-53 20 -82.5 77.5t-13.5 131.5q22 101 103.5 156t181.5 55q96 0 154 -61t36 -164q-16 -73 -63.5 -121t-112.5 -70l223 -1411q-27 -12 -84 -12q-22 0 -37 3t-20 6l-4 3l-64 391h-653l-230 -391q-41 -12 -90 -12q-22 0 -39 3t-24 6zM365 530h563l-101 637 q-5 36 -7.5 71.5t-2.5 53.5v17h-6q-25 -62 -72 -142zM727 1620q-11 -57 17 -97t96 -40t115.5 41t58.5 96q11 56 -18.5 94.5t-98.5 38.5q-68 0 -113.5 -39t-56.5 -94z" />
<glyph unicode="&#xc6;" horiz-adv-x="1751" d="M-111 12l1198 1463h719q14 -56 -26 -127h-570l-114 -539h467q10 -65 -27 -127h-467l-119 -555h590q6 -31 -1 -66t-26 -61h-716l82 389h-512l-306 -377q-38 -12 -94 -12q-54 0 -78 12zM471 516h436l164 758z" />
<glyph unicode="&#xc7;" horiz-adv-x="1140" d="M152 737q80 376 264 567t469 191q100 0 183 -17t116 -34l33 -17q-1 -26 -21 -61q-11 -16 -24 -29.5t-20 -18.5l-7 -5q-12 6 -33.5 14.5t-91.5 22.5t-143 14q-80 0 -147.5 -18t-132 -62.5t-116.5 -115.5t-95.5 -180t-74.5 -253t-33 -252.5t19.5 -178t67.5 -113t105.5 -61 t139.5 -17.5t158.5 12.5t117.5 25.5l38 13q16 -14 26 -49q3 -18 2 -32.5t-4 -24.5l-2 -9q-16 -8 -46 -19t-128 -30t-203 -20l-37 -101q221 0 183 -188q-22 -100 -94.5 -151.5t-188.5 -51.5q-50 0 -94 12t-63 24l-19 11q13 51 51 72q55 -33 137 -33q140 0 166 119 q22 106 -104 106h-72l-16 25l61 162q-474 53 -327 751z" />
<glyph unicode="&#xc8;" horiz-adv-x="1138" d="M68 0l313 1475h813q6 -26 0 -62q-9 -38 -27 -65h-661l-115 -539h559q6 -28 0 -59q-9 -38 -26 -66h-559l-119 -557h682q6 -27 0 -61q-10 -37 -27 -66h-833zM625 1829q22 27 64.5 44.5t78.5 14.5l150 -295q-37 -43 -99 -49z" />
<glyph unicode="&#xc9;" horiz-adv-x="1138" d="M68 0l313 1475h813q6 -26 0 -62q-9 -38 -27 -65h-661l-115 -539h559q6 -28 0 -59q-9 -38 -26 -66h-559l-119 -557h682q6 -27 0 -61q-10 -37 -27 -66h-833zM655 1597l275 295q40 3 74.5 -13.5t44.5 -45.5l-316 -285q-63 6 -78 49z" />
<glyph unicode="&#xca;" horiz-adv-x="1138" d="M68 0l313 1475h813q6 -26 0 -62q-9 -38 -27 -65h-661l-115 -539h559q6 -28 0 -59q-9 -38 -26 -66h-559l-119 -557h682q6 -27 0 -61q-10 -37 -27 -66h-833zM520 1634l318 221h53l223 -221q-34 -56 -86 -71l-192 161l-261 -161q-46 17 -55 71z" />
<glyph unicode="&#xcb;" horiz-adv-x="1138" d="M68 0l313 1475h813q6 -26 0 -62q-9 -38 -27 -65h-661l-115 -539h559q6 -28 0 -59q-9 -38 -26 -66h-559l-119 -557h682q6 -27 0 -61q-10 -37 -27 -66h-833zM578 1589l28 135q27 9 78 9q22 0 40 -2.5t25 -4.5l7 -2l-29 -135q-27 -8 -76 -8q-23 0 -41 2t-25 4zM901 1589 l29 135q27 9 78 9q22 0 39.5 -2.5t24.5 -4.5l7 -2l-28 -135q-27 -8 -76 -8q-23 0 -41.5 2t-25.5 4z" />
<glyph unicode="&#xcc;" horiz-adv-x="552" d="M70 12l309 1450q27 13 78 13q23 0 41 -3.5t25 -6.5l7 -3l-309 -1450q-29 -12 -78 -12q-24 0 -42 3t-25 6zM317 1829q22 27 65 44.5t79 14.5l149 -295q-37 -43 -98 -49z" />
<glyph unicode="&#xcd;" horiz-adv-x="552" d="M70 12l309 1450q27 13 78 13q23 0 41 -3.5t25 -6.5l7 -3l-309 -1450q-29 -12 -78 -12q-24 0 -42 3t-25 6zM328 1597l274 295q40 3 74.5 -13.5t44.5 -45.5l-315 -285q-63 6 -78 49z" />
<glyph unicode="&#xce;" horiz-adv-x="552" d="M70 12l309 1450q27 13 78 13q23 0 41 -3.5t25 -6.5l7 -3l-309 -1450q-29 -12 -78 -12q-24 0 -42 3t-25 6zM195 1634l309 221h53l231 -221q-40 -58 -86 -71l-194 161l-260 -161q-44 17 -53 71z" />
<glyph unicode="&#xcf;" horiz-adv-x="552" d="M70 12l309 1450q27 13 78 13q23 0 41 -3.5t25 -6.5l7 -3l-309 -1450q-29 -12 -78 -12q-24 0 -42 3t-25 6zM229 1579l29 135q27 8 78 8q22 0 40 -2t25 -4l7 -2l-29 -135q-27 -8 -76 -8q-23 0 -41.5 2t-25.5 4zM553 1579l29 135q26 8 77 8q22 0 40 -2t25 -4l7 -2l-29 -135 q-26 -8 -75 -8q-23 0 -41.5 2t-25.5 4z" />
<glyph unicode="&#xd0;" horiz-adv-x="1372" d="M61 676q-3 57 23 108h168l147 691h428q297 0 405 -183t21 -590q-35 -164 -85.5 -285t-113.5 -201t-147.5 -128t-178.5 -68t-214 -20h-428l143 676h-168zM264 129h264q89 0 158.5 16t135 56.5t116 108.5t93 175t73.5 252q31 146 34 253t-18 175t-69.5 108.5t-111 56.5 t-151.5 16h-264l-121 -562h320q3 -53 -23 -108h-319z" />
<glyph unicode="&#xd1;" horiz-adv-x="1433" d="M70 12l309 1450q35 13 92 13q27 0 49 -3.5t30 -6.5l9 -3l371 -1030q19 -53 38 -114.5t28 -96.5l10 -35h6q16 140 53 314l205 962q25 13 76 13q22 0 38 -3.5t22 -6.5l5 -3l-309 -1450q-29 -12 -88 -12q-27 0 -49.5 3t-31.5 6l-9 3l-375 1043q-20 55 -38 113.5t-26 89.5 l-8 32h-6q-14 -120 -57 -321l-203 -957q-25 -12 -74 -12q-21 0 -37.5 3t-23.5 6zM680 1665q2 4 6 10t18 22t31 28t46 22t61 10q37 0 71 -11t55.5 -24.5t49.5 -24.5t55 -11t53 13t38 27l12 13q21 -6 34 -26t13 -44q-6 -9 -16 -19.5t-30.5 -28t-51.5 -29t-66 -11.5 q-58 0 -125 35t-105 35q-26 0 -52 -14t-39 -28l-13 -14q-48 23 -45 70z" />
<glyph unicode="&#xd2;" horiz-adv-x="1386" d="M162 764q79 383 257.5 557t450.5 174q267 0 375 -199.5t27 -588.5q-40 -196 -107 -337t-158.5 -226t-201 -124.5t-244.5 -39.5q-268 0 -373.5 197t-25.5 587zM277 490q-4 -107 15 -179.5t60 -118.5t97.5 -66t132.5 -20q95 0 174 32.5t148 105t123 196t91 297.5 q30 140 34.5 247t-13.5 179.5t-59 118.5t-97.5 66t-132.5 20q-96 0 -174.5 -32.5t-148.5 -105t-124.5 -196t-91.5 -297.5q-30 -140 -34 -247zM766 1827q22 26 63 43t78 14l140 -278q-32 -40 -97 -47z" />
<glyph unicode="&#xd3;" horiz-adv-x="1386" d="M162 764q79 383 257.5 557t450.5 174q267 0 375 -199.5t27 -588.5q-40 -196 -107 -337t-158.5 -226t-201 -124.5t-244.5 -39.5q-268 0 -373.5 197t-25.5 587zM277 490q-4 -107 15 -179.5t60 -118.5t97.5 -66t132.5 -20q95 0 174 32.5t148 105t123 196t91 297.5 q30 140 34.5 247t-13.5 179.5t-59 118.5t-97.5 66t-132.5 20q-96 0 -174.5 -32.5t-148.5 -105t-124.5 -196t-91.5 -297.5q-30 -140 -34 -247zM788 1630l267 285q39 3 74 -14t45 -46l-308 -274q-64 10 -78 49z" />
<glyph unicode="&#xd4;" horiz-adv-x="1386" d="M162 764q79 383 257.5 557t450.5 174q267 0 375 -199.5t27 -588.5q-40 -196 -107 -337t-158.5 -226t-201 -124.5t-244.5 -39.5q-268 0 -373.5 197t-25.5 587zM277 490q-4 -107 15 -179.5t60 -118.5t97.5 -66t132.5 -20q95 0 174 32.5t148 105t123 196t91 297.5 q30 140 34.5 247t-13.5 179.5t-59 118.5t-97.5 66t-132.5 20q-96 0 -174.5 -32.5t-148.5 -105t-124.5 -196t-91.5 -297.5q-30 -140 -34 -247zM614 1634l306 221h53l235 -221q-40 -57 -86 -71l-194 161l-260 -161q-48 19 -54 71z" />
<glyph unicode="&#xd5;" horiz-adv-x="1386" d="M162 764q79 383 257.5 557t450.5 174q267 0 375 -199.5t27 -588.5q-40 -196 -107 -337t-158.5 -226t-201 -124.5t-244.5 -39.5q-268 0 -373.5 197t-25.5 587zM277 490q-4 -107 15 -179.5t60 -118.5t97.5 -66t132.5 -20q95 0 174 32.5t148 105t123 196t91 297.5 q30 140 34.5 247t-13.5 179.5t-59 118.5t-97.5 66t-132.5 20q-96 0 -174.5 -32.5t-148.5 -105t-124.5 -196t-91.5 -297.5q-30 -140 -34 -247zM631 1686q2 4 5.5 10t17 22t30.5 28.5t45.5 23.5t61.5 12q61 2 129.5 -30.5t105.5 -31.5q27 1 52.5 16t37.5 30l12 14 q20 -7 33 -26t15 -42q-2 -4 -5.5 -10.5t-17 -22.5t-30.5 -29t-45.5 -24t-61.5 -12q-54 -2 -126 31t-110 32q-27 -1 -53 -15.5t-39 -29.5l-12 -14q-39 22 -45 68z" />
<glyph unicode="&#xd6;" horiz-adv-x="1386" d="M162 764q79 383 257.5 557t450.5 174q267 0 375 -199.5t27 -588.5q-40 -196 -107 -337t-158.5 -226t-201 -124.5t-244.5 -39.5q-268 0 -373.5 197t-25.5 587zM277 490q-4 -107 15 -179.5t60 -118.5t97.5 -66t132.5 -20q95 0 174 32.5t148 105t123 196t91 297.5 q30 140 34.5 247t-13.5 179.5t-59 118.5t-97.5 66t-132.5 20q-96 0 -174.5 -32.5t-148.5 -105t-124.5 -196t-91.5 -297.5q-30 -140 -34 -247zM659 1630l29 135q27 9 78 9q22 0 40.5 -2t25.5 -4l8 -3l-29 -135q-29 -8 -78 -8q-23 0 -41.5 2t-25.5 4zM983 1630l29 135 q27 9 78 9q22 0 40 -2t26 -4l7 -3l-28 -135q-29 -8 -78 -8q-23 0 -41.5 2t-25.5 4z" />
<glyph unicode="&#xd7;" horiz-adv-x="944" d="M90 354l287 238l-187 237q15 25 48 50q14 13 28 22t22 11l7 3l186 -237l289 237q23 -7 41 -36q11 -11 18 -23.5t8 -19.5l1 -7l-289 -237l188 -238q-14 -24 -47 -49q-14 -13 -28 -22t-22 -12l-7 -3l-189 238l-286 -238q-23 8 -41 37q-11 11 -18 23.5t-8 19.5z" />
<glyph unicode="&#xd8;" horiz-adv-x="1384" d="M10 -41l174 221q-103 196 -24 584q79 383 257.5 557t450.5 174q181 0 287 -90l127 162q63 -6 98 -54l-153 -190q130 -199 43 -616q-40 -196 -107 -337t-158.5 -226t-201 -124.5t-244.5 -39.5q-201 0 -309 108l-141 -182q-64 6 -99 53zM291 307l774 989q-75 72 -217 72 q-96 0 -174.5 -32.5t-148.5 -105t-124.5 -196t-91.5 -297.5q-60 -276 -18 -430zM342 201q74 -95 238 -95q95 0 174 32.5t148 105t123 196t91 297.5q66 311 10 461z" />
<glyph unicode="&#xd9;" horiz-adv-x="1376" d="M160 481l209 981q28 13 77 13q23 0 41.5 -3.5t25.5 -6.5l7 -3l-213 -1003q-35 -166 37 -258t238 -92q164 0 275.5 92t146.5 258l213 1003q26 13 75 13q22 0 40.5 -3.5t25.5 -6.5l8 -3l-209 -981q-51 -240 -205.5 -370.5t-380.5 -130.5q-231 0 -346 134t-65 367zM684 1829 q22 27 64.5 44.5t78.5 14.5l142 -282q-34 -40 -99 -50z" />
<glyph unicode="&#xda;" horiz-adv-x="1376" d="M160 481l209 981q28 13 77 13q23 0 41.5 -3.5t25.5 -6.5l7 -3l-213 -1003q-35 -166 37 -258t238 -92q164 0 275.5 92t146.5 258l213 1003q26 13 75 13q22 0 40.5 -3.5t25.5 -6.5l8 -3l-209 -981q-51 -240 -205.5 -370.5t-380.5 -130.5q-231 0 -346 134t-65 367zM762 1597 l274 295q40 3 74.5 -13.5t44.5 -45.5l-315 -285q-63 6 -78 49z" />
<glyph unicode="&#xdb;" horiz-adv-x="1376" d="M160 481l209 981q28 13 77 13q23 0 41.5 -3.5t25.5 -6.5l7 -3l-213 -1003q-35 -166 37 -258t238 -92q164 0 275.5 92t146.5 258l213 1003q26 13 75 13q22 0 40.5 -3.5t25.5 -6.5l8 -3l-209 -981q-51 -240 -205.5 -370.5t-380.5 -130.5q-231 0 -346 134t-65 367zM618 1634 l306 221h53l235 -221q-40 -58 -86 -71l-194 161l-260 -161q-48 19 -54 71z" />
<glyph unicode="&#xdc;" horiz-adv-x="1376" d="M160 481l209 981q28 13 77 13q23 0 41.5 -3.5t25.5 -6.5l7 -3l-213 -1003q-35 -166 37 -258t238 -92q164 0 275.5 92t146.5 258l213 1003q26 13 75 13q22 0 40.5 -3.5t25.5 -6.5l8 -3l-209 -981q-51 -240 -205.5 -370.5t-380.5 -130.5q-231 0 -346 134t-65 367zM657 1614 l29 133q27 10 78 10q22 0 40 -2.5t25 -4.5l7 -3l-29 -133q-27 -10 -76 -10q-23 0 -41.5 2.5t-25.5 5.5zM981 1614l29 133q26 10 77 10q22 0 40 -2.5t25 -4.5l7 -3l-29 -133q-26 -10 -75 -10q-23 0 -41.5 2.5t-25.5 5.5z" />
<glyph unicode="&#xdd;" horiz-adv-x="1273" d="M221 1462q33 13 94 13q25 0 42 -3.5t21 -6.5l5 -3l276 -686l574 686q47 13 102 13q24 0 45 -3.5t30 -6.5l9 -3l-710 -841l-129 -609q-27 -12 -76 -12q-24 0 -43 3t-26 6l-7 3l129 604zM709 1597l274 295q40 3 74.5 -13.5t44.5 -45.5l-316 -285q-62 6 -77 49z" />
<glyph unicode="&#xde;" horiz-adv-x="1236" d="M70 12l309 1450q25 13 78 13q24 0 42 -3.5t25 -6.5l6 -3l-59 -276h367q128 0 211 -60.5t111 -163t1 -231.5q-41 -189 -173.5 -292t-330.5 -103h-366l-70 -324q-27 -12 -78 -12q-24 0 -42.5 3t-24.5 6zM317 465h353q133 0 223 78t119 215q29 142 -26.5 220.5t-188.5 78.5 h-353z" />
<glyph unicode="&#xdf;" horiz-adv-x="1169" d="M35 10l239 1129q83 397 496 397q78 0 140 -20t99.5 -54.5t61 -80t25 -96t-8.5 -103.5q-24 -98 -88 -205q-9 0 -23.5 -1t-54 -10t-71.5 -25.5t-63 -53t-42 -86.5q-8 -39 1.5 -72.5t31.5 -57.5t51 -50t60 -49.5t59 -54.5t47.5 -66.5t25.5 -85t-7 -109.5 q-30 -139 -134 -207.5t-266 -68.5q-63 0 -115.5 9t-74.5 18l-21 9q7 72 58 111q74 -27 153 -27q106 0 171 46t83 126q9 44 1 82.5t-29 65.5t-49 54.5t-59 50.5t-59 52t-48 60t-27 74.5t4 95.5q14 64 46.5 113t67.5 73.5t75.5 39.5t63.5 18.5t38 3.5q33 59 47 125 q20 102 -24 168.5t-162 66.5q-141 0 -221.5 -69.5t-110.5 -206.5l-240 -1129q-25 -10 -76 -10q-23 0 -40.5 2.5t-23.5 5.5z" />
<glyph unicode="&#xe0;" d="M106 571q26 123 63.5 215t82 151t102 95.5t118.5 51t136 14.5q222 0 287 -166l39 135q14 10 65 10q23 0 39.5 -2.5t21.5 -4.5l5 -3l-225 -1057q-27 -10 -64 -10q-17 0 -32 2.5t-21 5.5l-6 2l14 131q-126 -161 -346 -161q-403 0 -279 591zM242 200q43 -96 194 -96 q124 0 219.5 92.5t120.5 213.5l58 262q15 77 -2.5 144.5t-72 112t-136.5 44.5q-152 0 -237.5 -97t-135.5 -337q-51 -243 -8 -339zM547 1516q25 28 62.5 47t70.5 16l158 -289q-37 -43 -99 -49z" />
<glyph unicode="&#xe1;" d="M106 571q26 123 63.5 215t82 151t102 95.5t118.5 51t136 14.5q222 0 287 -166l39 135q14 10 65 10q23 0 39.5 -2.5t21.5 -4.5l5 -3l-225 -1057q-27 -10 -64 -10q-17 0 -32 2.5t-21 5.5l-6 2l14 131q-126 -161 -346 -161q-403 0 -279 591zM242 200q43 -96 194 -96 q124 0 219.5 92.5t120.5 213.5l58 262q15 77 -2.5 144.5t-72 112t-136.5 44.5q-152 0 -237.5 -97t-135.5 -337q-51 -243 -8 -339zM530 1253l275 295q37 3 67.5 -15t42.5 -48l-307 -281q-63 6 -78 49z" />
<glyph unicode="&#xe2;" d="M106 571q26 123 63.5 215t82 151t102 95.5t118.5 51t136 14.5q222 0 287 -166l39 135q14 10 65 10q23 0 39.5 -2.5t21.5 -4.5l5 -3l-225 -1057q-27 -10 -64 -10q-17 0 -32 2.5t-21 5.5l-6 2l14 131q-126 -161 -346 -161q-403 0 -279 591zM242 200q43 -96 194 -96 q124 0 219.5 92.5t120.5 213.5l58 262q15 77 -2.5 144.5t-72 112t-136.5 44.5q-152 0 -237.5 -97t-135.5 -337q-51 -243 -8 -339zM428 1303l305 213h51l220 -213q-37 -57 -84 -68l-183 156l-256 -158q-40 15 -53 70z" />
<glyph unicode="&#xe3;" d="M106 571q26 123 63.5 215t82 151t102 95.5t118.5 51t136 14.5q222 0 287 -166l39 135q14 10 65 10q23 0 39.5 -2.5t21.5 -4.5l5 -3l-225 -1057q-27 -10 -64 -10q-17 0 -32 2.5t-21 5.5l-6 2l14 131q-126 -161 -346 -161q-403 0 -279 591zM242 200q43 -96 194 -96 q124 0 219.5 92.5t120.5 213.5l58 262q15 77 -2.5 144.5t-72 112t-136.5 44.5q-152 0 -237.5 -97t-135.5 -337q-51 -243 -8 -339zM449 1364q69 92 163 92q58 0 125 -35t105 -35t65 18.5t37 35.5q45 -19 45 -70q-5 -10 -20 -27.5t-54.5 -40t-85.5 -22.5q-47 0 -87.5 18 t-75.5 36t-68 18q-27 0 -53.5 -14.5t-39.5 -29.5l-13 -14q-43 27 -43 70z" />
<glyph unicode="&#xe4;" d="M106 571q26 123 63.5 215t82 151t102 95.5t118.5 51t136 14.5q222 0 287 -166l39 135q14 10 65 10q23 0 39.5 -2.5t21.5 -4.5l5 -3l-225 -1057q-27 -10 -64 -10q-17 0 -32 2.5t-21 5.5l-6 2l14 131q-126 -161 -346 -161q-403 0 -279 591zM242 200q43 -96 194 -96 q124 0 219.5 92.5t120.5 213.5l58 262q15 77 -2.5 144.5t-72 112t-136.5 44.5q-152 0 -237.5 -97t-135.5 -337q-51 -243 -8 -339zM449 1309l28 133q27 10 78 10q22 0 40 -2.5t25 -5.5l7 -2l-29 -133q-27 -11 -76 -11q-23 0 -41 3t-25 5zM772 1309l29 133q27 10 78 10 q22 0 39.5 -2.5t24.5 -5.5l7 -2l-28 -133q-27 -11 -76 -11q-23 0 -41.5 3t-25.5 5z" />
<glyph unicode="&#xe5;" d="M106 571q26 123 63.5 215t82 151t102 95.5t118.5 51t136 14.5q222 0 287 -166l39 135q14 10 65 10q23 0 39.5 -2.5t21.5 -4.5l5 -3l-225 -1057q-27 -10 -64 -10q-17 0 -32 2.5t-21 5.5l-6 2l14 131q-126 -161 -346 -161q-403 0 -279 591zM242 200q43 -96 194 -96 q124 0 219.5 92.5t120.5 213.5l58 262q15 77 -2.5 144.5t-72 112t-136.5 44.5q-152 0 -237.5 -97t-135.5 -337q-51 -243 -8 -339zM496 1425q18 98 97 153.5t175 55.5q94 0 154.5 -55.5t42.5 -153.5q-20 -101 -98 -158t-179 -57q-102 0 -157 57t-35 158zM596 1425 q-11 -53 15 -90t89 -37q65 0 109 37.5t55 89.5q10 51 -17.5 87t-92.5 36q-62 0 -105 -37t-53 -86z" />
<glyph unicode="&#xe6;" horiz-adv-x="1617" d="M75 300.5q-4 111.5 27 268.5q111 529 465 529q116 0 177.5 -39t89.5 -127l38 135q15 10 66 10q16 0 29 -2.5t19 -4.5l5 -3l-22 -125q139 156 299 156q176 0 242 -102t26 -291q-11 -50 -27.5 -99.5t-27.5 -73.5l-11 -24h-596q-33 -208 17 -306t184 -98q65 0 127 16.5 t92 33.5l29 16q36 -31 29 -100q-5 -4 -14 -10t-40.5 -21.5t-66 -27.5t-90 -21.5t-113.5 -9.5q-183 0 -229 163l-37 -133q-13 -10 -55 -10q-17 0 -31 2.5t-20 5.5l-5 2l15 121q-62 -79 -135.5 -115t-184.5 -36q-77 0 -134.5 33t-95 104.5t-41.5 183zM219 335q-1 -85 22 -135 t63.5 -73t101.5 -23q122 0 205.5 90.5t109.5 215.5l53 245q14 59 7 116t-28 102t-64 72.5t-99 27.5q-125 0 -210 -100.5t-134 -333.5q-26 -119 -27 -204zM897 618h479q13 35 27 101q13 52 9 99t-21.5 82t-58 56t-99.5 21q-112 0 -199 -85.5t-137 -273.5z" />
<glyph unicode="&#xe7;" horiz-adv-x="901" d="M86 -465q13 51 51 72q55 -33 135 -33q142 0 166 111q21 104 -104 104h-72l-16 23l67 176q-157 30 -210 184.5t-1 398.5q58 271 193.5 399t353.5 128q79 0 141 -12t84 -24l23 -13q-12 -61 -68 -107q-65 35 -180 35q-162 0 -260.5 -108.5t-144.5 -329.5q-47 -221 8.5 -328 t220.5 -107q53 0 104.5 10.5t76.5 20.5l26 10q37 -37 25 -104q-12 -7 -34.5 -16.5t-101 -26.5t-166.5 -18l-43 -115q114 0 157.5 -47.5t25.5 -134.5q-42 -195 -281 -195q-50 0 -94 12t-63 24z" />
<glyph unicode="&#xe8;" horiz-adv-x="1034" d="M100 575q31 141 85.5 244t127.5 163t156 88t180 28q170 0 254.5 -107.5t46.5 -290.5q-13 -56 -29.5 -108t-26.5 -76l-11 -24h-650q-33 -206 25 -293.5t211 -87.5q69 0 135 16.5t98 33.5l31 17q20 -18 30.5 -48.5t4.5 -61.5q-6 -4 -16 -9.5t-45.5 -21t-73.5 -27t-98 -21 t-121 -9.5q-217 0 -295.5 155.5t-18.5 439.5zM256 602h522q14 24 35 117q24 113 -21 185.5t-169 72.5q-268 0 -367 -375zM512 1528q22 27 64.5 44.5t78.5 14.5l150 -295q-37 -43 -98 -49z" />
<glyph unicode="&#xe9;" horiz-adv-x="1034" d="M100 575q31 141 85.5 244t127.5 163t156 88t180 28q170 0 254.5 -107.5t46.5 -290.5q-13 -56 -29.5 -108t-26.5 -76l-11 -24h-650q-33 -206 25 -293.5t211 -87.5q69 0 135 16.5t98 33.5l31 17q20 -18 30.5 -48.5t4.5 -61.5q-6 -4 -16 -9.5t-45.5 -21t-73.5 -27t-98 -21 t-121 -9.5q-217 0 -295.5 155.5t-18.5 439.5zM256 602h522q14 24 35 117q24 113 -21 185.5t-169 72.5q-268 0 -367 -375zM522 1292l277 295q39 3 74 -13.5t45 -45.5l-318 -285q-63 6 -78 49z" />
<glyph unicode="&#xea;" horiz-adv-x="1034" d="M100 575q31 141 85.5 244t127.5 163t156 88t180 28q170 0 254.5 -107.5t46.5 -290.5q-13 -56 -29.5 -108t-26.5 -76l-11 -24h-650q-33 -206 25 -293.5t211 -87.5q69 0 135 16.5t98 33.5l31 17q20 -18 30.5 -48.5t4.5 -61.5q-6 -4 -16 -9.5t-45.5 -21t-73.5 -27t-98 -21 t-121 -9.5q-217 0 -295.5 155.5t-18.5 439.5zM256 602h522q14 24 35 117q24 113 -21 185.5t-169 72.5q-268 0 -367 -375zM397 1303l301 215h52l229 -215q-37 -57 -84 -68l-188 156l-254 -158q-43 16 -56 70z" />
<glyph unicode="&#xeb;" horiz-adv-x="1034" d="M100 575q31 141 85.5 244t127.5 163t156 88t180 28q170 0 254.5 -107.5t46.5 -290.5q-13 -56 -29.5 -108t-26.5 -76l-11 -24h-650q-33 -206 25 -293.5t211 -87.5q69 0 135 16.5t98 33.5l31 17q20 -18 30.5 -48.5t4.5 -61.5q-6 -4 -16 -9.5t-45.5 -21t-73.5 -27t-98 -21 t-121 -9.5q-217 0 -295.5 155.5t-18.5 439.5zM256 602h522q14 24 35 117q24 113 -21 185.5t-169 72.5q-268 0 -367 -375zM451 1290l28 133q25 11 76 11q22 0 40.5 -3t26.5 -5l7 -3l-29 -133q-29 -10 -78 -10q-23 0 -40.5 2.5t-23.5 5.5zM774 1290l29 133q25 11 76 11 q22 0 40 -3t25 -5l8 -3l-28 -133q-29 -10 -78 -10q-23 0 -41 2.5t-25 5.5z" />
<glyph unicode="&#xec;" horiz-adv-x="489" d="M41 10l225 1057q23 10 76 10q22 0 40 -2.5t25 -4.5l7 -3l-226 -1057q-26 -10 -75 -10q-24 0 -42 2.5t-24 5.5zM211 1532q24 27 66 44.5t77 14.5l152 -295q-37 -43 -100 -49z" />
<glyph unicode="&#xed;" horiz-adv-x="489" d="M41 10l225 1057q23 10 76 10q22 0 40 -2.5t25 -4.5l7 -3l-226 -1057q-26 -10 -75 -10q-24 0 -42 2.5t-24 5.5zM252 1292l276 295q39 3 74 -13.5t45 -45.5l-317 -285q-63 6 -78 49z" />
<glyph unicode="&#xee;" horiz-adv-x="489" d="M41 10l225 1057q23 10 76 10q22 0 40 -2.5t25 -4.5l7 -3l-226 -1057q-26 -10 -75 -10q-24 0 -42 2.5t-24 5.5zM100 1303l301 217h52l229 -217q-37 -57 -82 -68l-190 156l-254 -158q-43 17 -56 70z" />
<glyph unicode="&#xef;" horiz-adv-x="489" d="M41 10l225 1057q23 10 76 10q22 0 40 -2.5t25 -4.5l7 -3l-226 -1057q-26 -10 -75 -10q-24 0 -42 2.5t-24 5.5zM147 1298l29 136q27 8 76 8q23 0 41.5 -2t25.5 -4l7 -2l-29 -136q-27 -8 -78 -8q-22 0 -40 2t-25 4zM471 1298l29 136q27 8 78 8q22 0 39.5 -2t24.5 -4l7 -2 l-28 -136q-27 -8 -76 -8q-23 0 -41.5 2t-25.5 4z" />
<glyph unicode="&#xf0;" d="M98 551q30 142 80.5 241t119.5 155.5t148 81t179 24.5q95 0 172 -40t108 -106q-3 227 -149 373l-224 -123q-21 12 -35 34.5t-14 45.5l191 104q-98 69 -225 95q7 70 51 108q153 -26 299 -131l180 100q37 -30 37 -88l-142 -77q113 -120 149 -297t-13 -422 q-38 -184 -93.5 -311t-129.5 -200.5t-160.5 -105.5t-198.5 -32q-210 0 -300.5 144.5t-29.5 426.5zM219.5 347.5q-1.5 -72.5 12.5 -120t44 -77.5t70 -42t94 -12q68 0 123 20.5t105 67t88.5 130t64.5 202.5q21 98 21.5 171t-15 119.5t-48 75.5t-74 40.5t-97.5 11.5 q-68 0 -121 -20t-100.5 -66.5t-83.5 -129t-61 -202.5q-21 -96 -22.5 -168.5z" />
<glyph unicode="&#xf1;" horiz-adv-x="1126" d="M35 10l225 1057q25 10 76 10q22 0 40 -2.5t25 -4.5l7 -3l-29 -129q163 160 354 160q152 0 224.5 -90.5t39.5 -245.5l-159 -752q-29 -10 -76 -10q-23 0 -41 2.5t-25 5.5l-6 2l160 752q47 213 -176 213q-86 0 -174 -50t-152 -137l-166 -778q-27 -10 -76 -10 q-23 0 -40.5 2.5t-23.5 5.5zM446 1370q2 4 6 10.5t19 23t32.5 29t47 23t61.5 10.5q59 0 127.5 -34.5t104.5 -34.5q27 0 53 15.5t39 30.5l12 15q22 -9 36.5 -29t14.5 -43q-2 -4 -6.5 -10.5t-19.5 -23t-33 -29t-47.5 -23t-61.5 -10.5q-47 0 -88 17.5t-76 35t-67 17.5 q-27 0 -53 -15.5t-39 -30.5l-12 -16q-50 24 -50 72z" />
<glyph unicode="&#xf2;" horiz-adv-x="1103" d="M104 573q32 150 82.5 253t121.5 162t153.5 84.5t189.5 25.5q211 0 294 -145.5t20 -442.5q-32 -150 -83 -254t-122.5 -164t-155 -86t-190.5 -26q-210 0 -291.5 147.5t-18.5 445.5zM221.5 325.5q-0.5 -85.5 29.5 -136.5t76 -72t115 -21t123.5 21.5t103.5 71.5t86.5 137 t63.5 213q21 101 23.5 177t-11 126.5t-43.5 81.5t-70 44t-95 13q-69 0 -124 -21.5t-104 -71t-86 -136.5t-63 -213q-24 -128 -24.5 -213.5zM481 1528q22 27 62.5 44.5t77.5 14.5l155 -295q-35 -41 -96 -47z" />
<glyph unicode="&#xf3;" horiz-adv-x="1103" d="M104 573q32 150 82.5 253t121.5 162t153.5 84.5t189.5 25.5q211 0 294 -145.5t20 -442.5q-32 -150 -83 -254t-122.5 -164t-155 -86t-190.5 -26q-210 0 -291.5 147.5t-18.5 445.5zM221.5 325.5q-0.5 -85.5 29.5 -136.5t76 -72t115 -21t123.5 21.5t103.5 71.5t86.5 137 t63.5 213q21 101 23.5 177t-11 126.5t-43.5 81.5t-70 44t-95 13q-69 0 -124 -21.5t-104 -71t-86 -136.5t-63 -213q-24 -128 -24.5 -213.5zM520 1292l277 295q39 3 73.5 -13.5t44.5 -45.5l-317 -285q-63 6 -78 49z" />
<glyph unicode="&#xf4;" horiz-adv-x="1103" d="M104 573q32 150 82.5 253t121.5 162t153.5 84.5t189.5 25.5q211 0 294 -145.5t20 -442.5q-32 -150 -83 -254t-122.5 -164t-155 -86t-190.5 -26q-210 0 -291.5 147.5t-18.5 445.5zM221.5 325.5q-0.5 -85.5 29.5 -136.5t76 -72t115 -21t123.5 21.5t103.5 71.5t86.5 137 t63.5 213q21 101 23.5 177t-11 126.5t-43.5 81.5t-70 44t-95 13q-69 0 -124 -21.5t-104 -71t-86 -136.5t-63 -213q-24 -128 -24.5 -213.5zM397 1303l301 213h52l229 -213q-37 -57 -82 -68l-190 156l-254 -158q-43 16 -56 70z" />
<glyph unicode="&#xf5;" horiz-adv-x="1103" d="M104 573q32 150 82.5 253t121.5 162t153.5 84.5t189.5 25.5q211 0 294 -145.5t20 -442.5q-32 -150 -83 -254t-122.5 -164t-155 -86t-190.5 -26q-210 0 -291.5 147.5t-18.5 445.5zM221.5 325.5q-0.5 -85.5 29.5 -136.5t76 -72t115 -21t123.5 21.5t103.5 71.5t86.5 137 t63.5 213q21 101 23.5 177t-11 126.5t-43.5 81.5t-70 44t-95 13q-69 0 -124 -21.5t-104 -71t-86 -136.5t-63 -213q-24 -128 -24.5 -213.5zM428 1358q2 4 6 10.5t19 23t32.5 29t47 23t61.5 10.5q47 0 88 -17.5t76 -35t67 -17.5q27 0 53.5 15t39.5 30l12 15q49 -16 49 -70 q-2 -4 -6 -10.5t-19 -23t-32.5 -29t-47 -23t-61.5 -10.5q-47 0 -88 18t-76 36t-67 18q-27 0 -54 -15.5t-40 -30.5l-13 -16q-47 21 -47 70z" />
<glyph unicode="&#xf6;" horiz-adv-x="1103" d="M104 573q32 150 82.5 253t121.5 162t153.5 84.5t189.5 25.5q211 0 294 -145.5t20 -442.5q-32 -150 -83 -254t-122.5 -164t-155 -86t-190.5 -26q-210 0 -291.5 147.5t-18.5 445.5zM221.5 325.5q-0.5 -85.5 29.5 -136.5t76 -72t115 -21t123.5 21.5t103.5 71.5t86.5 137 t63.5 213q21 101 23.5 177t-11 126.5t-43.5 81.5t-70 44t-95 13q-69 0 -124 -21.5t-104 -71t-86 -136.5t-63 -213q-24 -128 -24.5 -213.5zM455 1307l28 135q25 8 76 8q22 0 40.5 -2t26.5 -4l7 -2l-29 -135q-27 -9 -76 -9q-23 0 -41 2t-25 4zM778 1307l29 135q25 8 76 8 q22 0 40 -2t25 -4l8 -2l-28 -135q-27 -9 -76 -9q-23 0 -41.5 2t-25.5 4z" />
<glyph unicode="&#xf7;" horiz-adv-x="1110" d="M127 537q-6 20 2 57q3 16 8.5 30.5t10.5 20.5l4 6h815q2 -20 -4 -57q-4 -16 -9 -30.5t-8 -20.5l-4 -6h-815zM377 188l31 150q29 10 86 10q24 0 44.5 -2.5t28.5 -5.5l8 -2l-30 -150q-33 -10 -88 -10q-25 0 -45 2.5t-28 5.5zM516 850l33 149q29 11 86 11q24 0 44.5 -3 t28.5 -5l9 -3l-33 -149q-31 -10 -86 -10q-25 0 -45.5 2.5t-28.5 5.5z" />
<glyph unicode="&#xf8;" horiz-adv-x="1099" d="M12 -45l121 151q-97 151 -31 467q32 150 82.5 253t121.5 162t153.5 84.5t189.5 25.5q138 0 221 -62l105 133q55 -6 84 -47l-125 -155q95 -149 29 -457q-32 -150 -83 -254t-122.5 -164t-155 -86t-190.5 -26q-136 0 -213 57l-105 -129q-53 3 -82 47zM233 229l549 699 q-53 53 -161 53q-69 0 -124 -21.5t-104 -71t-86 -136.5t-63 -213q-42 -204 -11 -310zM285 143q52 -47 155 -47q69 0 123.5 21.5t103.5 71.5t86.5 137t63.5 213q39 194 12 297z" />
<glyph unicode="&#xf9;" horiz-adv-x="1124" d="M92 322l158 745q29 10 76 10q23 0 40.5 -2.5t23.5 -4.5l7 -3l-159 -752q-47 -213 178 -213q83 0 170.5 49.5t152.5 137.5l166 778q27 10 76 10q23 0 41 -2.5t24 -4.5l7 -3l-226 -1057q-14 -10 -65 -10q-22 0 -39.5 2.5t-24.5 5.5l-6 2l13 119q-149 -149 -351 -149 q-150 0 -222.5 96.5t-39.5 245.5zM520 1528q22 27 60.5 43.5t74.5 13.5l152 -293q-37 -43 -92 -49z" />
<glyph unicode="&#xfa;" horiz-adv-x="1124" d="M92 322l158 745q29 10 76 10q23 0 40.5 -2.5t23.5 -4.5l7 -3l-159 -752q-47 -213 178 -213q83 0 170.5 49.5t152.5 137.5l166 778q27 10 76 10q23 0 41 -2.5t24 -4.5l7 -3l-226 -1057q-14 -10 -65 -10q-22 0 -39.5 2.5t-24.5 5.5l-6 2l13 119q-149 -149 -351 -149 q-150 0 -222.5 96.5t-39.5 245.5zM547 1292l276 295q39 3 74 -13.5t45 -45.5l-317 -285q-63 6 -78 49z" />
<glyph unicode="&#xfb;" horiz-adv-x="1124" d="M92 322l158 745q29 10 76 10q23 0 40.5 -2.5t23.5 -4.5l7 -3l-159 -752q-47 -213 178 -213q83 0 170.5 49.5t152.5 137.5l166 778q27 10 76 10q23 0 41 -2.5t24 -4.5l7 -3l-226 -1057q-14 -10 -65 -10q-22 0 -39.5 2.5t-24.5 5.5l-6 2l13 119q-149 -149 -351 -149 q-150 0 -222.5 96.5t-39.5 245.5zM414 1303l303 215h51l225 -215q-33 -57 -82 -68l-190 156l-254 -158q-43 17 -53 70z" />
<glyph unicode="&#xfc;" horiz-adv-x="1124" d="M92 322l158 745q29 10 76 10q23 0 40.5 -2.5t23.5 -4.5l7 -3l-159 -752q-47 -213 178 -213q83 0 170.5 49.5t152.5 137.5l166 778q27 10 76 10q23 0 41 -2.5t24 -4.5l7 -3l-226 -1057q-14 -10 -65 -10q-22 0 -39.5 2.5t-24.5 5.5l-6 2l13 119q-149 -149 -351 -149 q-150 0 -222.5 96.5t-39.5 245.5zM463 1311l29 133q26 10 77 10q22 0 40.5 -2.5t26.5 -5.5l7 -2l-29 -133q-28 -11 -77 -11q-23 0 -41.5 3t-25.5 5zM786 1311l29 133q27 10 78 10q22 0 40.5 -2.5t26.5 -5.5l7 -2l-29 -133q-29 -11 -78 -11q-23 0 -41.5 3t-25.5 5z" />
<glyph unicode="&#xfd;" horiz-adv-x="1124" d="M-33 -449q16 67 66 105q104 -43 235 -43q90 0 151 18t113.5 67t89.5 134.5t68 220.5l15 64q-75 -74 -158 -105.5t-191 -31.5q-109 0 -177 47t-87.5 122t0.5 170l160 748q29 10 76 10q23 0 40.5 -2.5t23.5 -4.5l7 -3l-159 -752q-47 -213 178 -213q83 0 170.5 49.5 t152.5 137.5l166 778q27 10 76 10q23 0 41 -2.5t24 -4.5l7 -3l-217 -1014q-46 -214 -113.5 -334t-178.5 -175.5t-290 -55.5q-84 0 -156.5 16t-102.5 32zM549 1292l276 295q39 3 74 -13.5t45 -45.5l-317 -285q-63 6 -78 49z" />
<glyph unicode="&#xfe;" horiz-adv-x="1138" d="M-70 -479l426 2005q25 10 76 10q23 0 41 -2.5t25 -5.5l6 -2l-125 -588q131 160 350 160q188 0 261 -142.5t9 -445.5q-32 -153 -81.5 -258.5t-116 -164t-140.5 -83t-169 -24.5q-221 0 -283 159l-131 -618q-25 -10 -76 -10q-23 0 -41 2.5t-25 4.5zM266 410 q-25 -123 27.5 -214.5t175.5 -91.5q153 0 241 98t140 337q26 122 26.5 204.5t-24.5 134t-73.5 73.5t-125.5 22q-122 0 -211.5 -88t-117.5 -211z" />
<glyph unicode="&#xff;" horiz-adv-x="1124" d="M-33 -449q16 67 66 105q104 -43 235 -43q90 0 151 18t113.5 67t89.5 134.5t68 220.5l15 64q-75 -74 -158 -105.5t-191 -31.5q-109 0 -177 47t-87.5 122t0.5 170l160 748q29 10 76 10q23 0 40.5 -2.5t23.5 -4.5l7 -3l-159 -752q-47 -213 178 -213q83 0 170.5 49.5 t152.5 137.5l166 778q27 10 76 10q23 0 41 -2.5t24 -4.5l7 -3l-217 -1014q-46 -214 -113.5 -334t-178.5 -175.5t-290 -55.5q-84 0 -156.5 16t-102.5 32zM477 1313l29 133q27 10 78 10q22 0 40 -2.5t26 -5.5l7 -2l-28 -133q-29 -10 -78 -10q-23 0 -41.5 2.5t-25.5 4.5z M801 1313l28 133q27 10 78 10q22 0 40.5 -2.5t26.5 -5.5l7 -2l-29 -133q-29 -10 -78 -10q-23 0 -41 2.5t-25 4.5z" />
<glyph unicode="&#x152;" horiz-adv-x="1734" d="M162 768q42 196 111.5 337t163.5 226t206 124.5t250 39.5q86 0 172 -20h725q6 -29 -2 -64q-5 -34 -25 -63h-575l-115 -539h473q6 -27 0 -61q-10 -37 -26 -64h-473l-119 -557h596q6 -28 0 -64q-8 -32 -27 -63h-747q-94 -20 -179 -20q-274 0 -382.5 199.5t-26.5 588.5z M278.5 489.5q-3.5 -107.5 17 -179.5t63.5 -118t102 -66t137 -20q101 0 188 33l256 1196q-74 33 -176 33q-99 0 -180.5 -32.5t-153.5 -105t-128 -196t-93 -297.5q-29 -140 -32.5 -247.5z" />
<glyph unicode="&#x153;" horiz-adv-x="1665" d="M100 563q32 150 83 254.5t121 165.5t152.5 88t186.5 27q123 0 191 -53.5t90 -170.5q140 224 374 224q176 0 250 -105.5t35 -292.5q-13 -56 -29.5 -108t-27.5 -76l-10 -24h-603q-33 -209 15 -298.5t188 -89.5q64 0 128 16.5t96 33.5l32 16q36 -29 29 -100q-5 -4 -14.5 -10 t-42.5 -21.5t-69.5 -27.5t-94 -21.5t-117.5 -9.5q-236 0 -277 221q-137 -221 -380 -221q-207 0 -288 143t-18 440zM219.5 325.5q-1.5 -85.5 27 -136.5t72.5 -72t111 -21q136 0 219 98.5t135 346.5q27 127 30 213t-20.5 135.5t-65.5 70.5t-110 21q-67 0 -120.5 -21.5 t-101.5 -71t-86 -137t-64 -212.5q-25 -128 -26.5 -213.5zM936 602h475q20 51 35 117q24 115 -15.5 186.5t-158.5 71.5q-117 0 -200 -90t-136 -285z" />
<glyph unicode="&#x178;" horiz-adv-x="1273" d="M221 1462q33 13 94 13q25 0 42 -3.5t21 -6.5l5 -3l276 -686l574 686q47 13 102 13q24 0 45 -3.5t30 -6.5l9 -3l-710 -841l-129 -609q-27 -12 -76 -12q-24 0 -43 3t-26 6l-7 3l129 604zM610 1640l27 134q27 10 78 10q22 0 40 -2.5t25 -5.5l8 -2l-26 -134q-31 -10 -80 -10 q-23 0 -41 2.5t-25 5.5zM934 1640l27 134q26 10 77 10q22 0 40.5 -2.5t25.5 -5.5l8 -2l-27 -134q-30 -10 -79 -10q-23 0 -41 2.5t-25 5.5z" />
<glyph unicode="&#x2c6;" horiz-adv-x="811" d="M55 1221l318 221h53l223 -221q-41 -59 -86 -70l-194 160l-260 -162q-48 18 -54 72z" />
<glyph unicode="&#x2dc;" horiz-adv-x="669" d="M47 1343q3 4 8.5 10.5t24.5 23t39 29.5t52 23.5t65 10.5q37 0 67.5 -11t48 -24t42.5 -24t52 -11q26 0 52.5 15t39.5 30l13 15q22 -9 34.5 -28t12.5 -42q-3 -4 -8.5 -10.5t-24 -23t-38.5 -29t-51.5 -23t-63.5 -10.5q-47 0 -82.5 18t-65 35.5t-61.5 17.5q-27 0 -54.5 -15.5 t-40.5 -30.5l-14 -15q-47 24 -47 69z" />
<glyph unicode="&#x2000;" horiz-adv-x="957" />
<glyph unicode="&#x2001;" horiz-adv-x="1915" />
<glyph unicode="&#x2002;" horiz-adv-x="957" />
<glyph unicode="&#x2003;" horiz-adv-x="1915" />
<glyph unicode="&#x2004;" horiz-adv-x="638" />
<glyph unicode="&#x2005;" horiz-adv-x="478" />
<glyph unicode="&#x2006;" horiz-adv-x="319" />
<glyph unicode="&#x2007;" horiz-adv-x="319" />
<glyph unicode="&#x2008;" horiz-adv-x="239" />
<glyph unicode="&#x2009;" horiz-adv-x="383" />
<glyph unicode="&#x200a;" horiz-adv-x="106" />
<glyph unicode="&#x2010;" horiz-adv-x="731" d="M145 537q-6 20 2 57q3 16 8.5 30.5t10.5 20.5l4 6h401q4 -20 -2 -57q-4 -16 -9.5 -30.5t-9.5 -20.5l-3 -6h-402z" />
<glyph unicode="&#x2011;" horiz-adv-x="731" d="M145 537q-6 20 2 57q3 16 8.5 30.5t10.5 20.5l4 6h401q4 -20 -2 -57q-4 -16 -9.5 -30.5t-9.5 -20.5l-3 -6h-402z" />
<glyph unicode="&#x2012;" horiz-adv-x="731" d="M145 537q-6 20 2 57q3 16 8.5 30.5t10.5 20.5l4 6h401q4 -20 -2 -57q-4 -16 -9.5 -30.5t-9.5 -20.5l-3 -6h-402z" />
<glyph unicode="&#x2013;" horiz-adv-x="1187" d="M168 537q-6 20 2 57q3 16 8.5 30.5t9.5 20.5l5 6h813q1 -20 -5 -57q-4 -16 -9 -30.5t-8 -20.5l-3 -6h-813z" />
<glyph unicode="&#x2014;" horiz-adv-x="1699" d="M168 537q-6 20 2 57q3 16 8.5 30.5t9.5 20.5l5 6h1325q1 -20 -5 -57q-4 -16 -9 -30.5t-8 -20.5l-3 -6h-1325z" />
<glyph unicode="&#x2018;" horiz-adv-x="442" d="M229 1085l21 103q11 53 34.5 101.5t49 81t49 57t38.5 36.5l15 11l49 -41q-9 -7 -22.5 -21.5t-44.5 -64t-47 -105.5q17 -1 31 -3t19 -4l5 -1l-31 -150q-31 -12 -88 -12q-24 0 -43.5 3t-27.5 6z" />
<glyph unicode="&#x2019;" horiz-adv-x="425" d="M227 1114q8 7 21.5 21.5t43.5 64t46 105.5q-16 1 -29.5 3.5t-18.5 4.5l-5 2l32 149q29 11 84 11q24 0 44.5 -2.5t28.5 -5.5l9 -3l-22 -102q-11 -53 -34 -102.5t-48.5 -82t-49.5 -57t-39 -36.5l-16 -11z" />
<glyph unicode="&#x201a;" horiz-adv-x="456" d="M-39 -190q9 8 23 22.5t44 63.5t46 104q-16 1 -29 3.5t-17 4.5l-5 2l32 150q27 10 84 10q24 0 44.5 -2.5t28.5 -5.5l9 -2l-22 -103q-11 -53 -35 -102t-49.5 -81t-49.5 -56.5t-39 -35.5l-16 -11z" />
<glyph unicode="&#x201c;" horiz-adv-x="663" d="M225 1083l23 103q11 53 34 102.5t48.5 82t49 57t38.5 36.5l16 11l47 -41q-8 -7 -21 -21.5t-43 -64t-46 -105.5q16 -1 29 -3.5t18 -4.5l6 -2l-33 -150q-29 -10 -86 -10q-24 0 -44 2.5t-28 4.5zM481 1083l23 103q11 53 34.5 102.5t49 82t49.5 57t39 36.5l16 11l47 -41 q-8 -7 -21.5 -21.5t-44 -64t-46.5 -105.5q16 -1 29.5 -3.5t18.5 -4.5l5 -2l-33 -150q-27 -10 -84 -10q-24 0 -44.5 2.5t-28.5 4.5z" />
<glyph unicode="&#x201d;" horiz-adv-x="684" d="M227 1114q3 3 8.5 8t20.5 23t28.5 38.5t29.5 53.5t26 68q-16 1 -29.5 3.5t-18.5 4.5l-5 2l32 149q27 11 84 11q24 0 44.5 -2.5t28.5 -5.5l9 -3l-22 -102q-11 -53 -34.5 -102.5t-49 -82t-50 -57t-39.5 -36.5l-16 -11zM485 1114q8 7 21.5 21.5t43.5 64t46 105.5 q-16 1 -29 3.5t-19 4.5l-5 2l32 149q30 11 87 11q24 0 43.5 -2.5t27.5 -5.5l8 -3l-22 -102q-11 -53 -34 -102.5t-48.5 -82t-49.5 -57t-39 -36.5l-16 -11z" />
<glyph unicode="&#x201e;" horiz-adv-x="716" d="M-37 -190q9 8 22.5 22.5t44 63.5t46.5 104q-16 1 -29.5 3.5t-18.5 4.5l-5 2l32 150q29 10 86 10q24 0 44 -2.5t28 -5.5l8 -2l-22 -103q-11 -53 -34.5 -102t-49 -81t-49 -56.5t-38.5 -35.5l-16 -11zM223 -190q9 8 23 22.5t44 63.5t46 104q-16 1 -29.5 3.5t-18.5 4.5l-5 2 l32 150q29 10 86 10q24 0 44 -2.5t28 -5.5l8 -2l-22 -103q-11 -53 -34.5 -102t-49 -81t-49 -56.5t-38.5 -35.5l-16 -11z" />
<glyph unicode="&#x2022;" horiz-adv-x="649" d="M186 578q12 57 55.5 92t98.5 35q56 0 84 -34.5t16 -92.5q-12 -56 -54.5 -90.5t-98.5 -34.5q-55 0 -84 34.5t-17 90.5z" />
<glyph unicode="&#x2026;" horiz-adv-x="1202" d="M20 10l33 150q29 10 86 10q24 0 44.5 -2.5t28.5 -5.5l9 -2l-33 -150q-31 -10 -86 -10q-25 0 -45.5 2.5t-28.5 5.5zM393 10l33 150q29 10 86 10q24 0 44 -2.5t28 -5.5l8 -2l-33 -150q-31 -10 -84 -10q-25 0 -45.5 2.5t-28.5 5.5zM764 10l33 150q27 10 84 10 q24 0 44.5 -2.5t28.5 -5.5l9 -2l-33 -150q-31 -10 -86 -10q-25 0 -45 2.5t-27 5.5z" />
<glyph unicode="&#x202f;" horiz-adv-x="383" />
<glyph unicode="&#x2039;" horiz-adv-x="694" d="M84 487q-8 23 0 62q4 18 10.5 34.5t11.5 23.5l5 7l507 428q33 -26 33 -92l-438 -397l268 -399q-26 -66 -71 -93z" />
<glyph unicode="&#x203a;" horiz-adv-x="694" d="M10 154l436 399l-266 397q21 63 70 92l328 -428q5 -24 -3 -65q-4 -17 -10 -32.5t-10 -22.5l-4 -7l-510 -426q-35 28 -31 93z" />
<glyph unicode="&#x205f;" horiz-adv-x="478" />
<glyph unicode="&#x20ac;" horiz-adv-x="1198" d="M72 475q3 53 41 100h143q6 53 18 111q13 62 29 115h-162q3 52 39 100h154q177 492 602 492q91 0 164 -16t100 -32l27 -16q-20 -71 -68 -104q-10 5 -28.5 12.5t-78 20t-122.5 12.5q-151 0 -261.5 -84.5t-183.5 -284.5h529q0 -55 -39 -100h-524q-15 -55 -27 -117 q-19 -93 -21 -109h459q-4 -57 -41 -100h-428q-7 -105 10 -178.5t57 -115t93.5 -59.5t128.5 -18q69 0 136 11.5t100 22.5l32 12q36 -33 25 -105q-14 -7 -40.5 -18t-114 -29t-183.5 -18q-430 0 -393 495h-172z" />
<glyph unicode="&#x2122;" horiz-adv-x="1273" d="M242 1415v29q3 17 12 31h416q3 -13 0 -29q-2 -13 -13 -31h-172l-112 -524q-10 -6 -35 -6q-11 0 -19.5 1.5t-10.5 3.5l-3 1l113 524h-176zM647 891l123 577q14 7 43 7q9 0 15.5 -1t12.5 -3l9 -3l61 -200q23 -81 37 -154q21 38 101 146l147 208q22 7 45 7q12 0 22.5 -1.5 t14.5 -3.5l4 -2l-123 -577q-13 -6 -33 -6q-10 0 -18.5 1.5t-11.5 3.5l-4 1l55 254q6 29 51 233q-63 -93 -88 -127l-147 -202q-13 -7 -33 -7q-9 0 -16 2t-10 4l-3 1l-57 200q-6 24 -18 65.5t-17 63.5q-1 -9 -45 -233l-55 -254q-13 -6 -31 -6q-9 0 -16.5 1.5t-11.5 3.5z" />
<glyph unicode="&#x25fc;" horiz-adv-x="1075" d="M0 0v1075h1075v-1075h-1075z" />
</font>
</defs>
</svg>
