<?xml version="1.0" standalone="no"?>
<!DOCTYPE svg PUBLIC "-//W3C//DTD SVG 1.1//EN" "http://www.w3.org/Graphics/SVG/1.1/DTD/svg11.dtd" >
<svg xmlns="http://www.w3.org/2000/svg">
<metadata></metadata>
<defs>
<font id="globerbook_italic" horiz-adv-x="1126" >
<font-face units-per-em="2048" ascent="1536" descent="-512" />
<missing-glyph horiz-adv-x="518" />
<glyph unicode="&#xfb01;" horiz-adv-x="1148" d="M90 8l209 983h-131q-6 14 0 43q3 13 7.5 23.5t7.5 14.5l3 5h131l27 123q34 167 135 251.5t301 84.5q88 0 176.5 -14t132.5 -28l44 -15q-3 -50 -43 -82q-15 6 -43 14.5t-111.5 22.5t-163.5 14q-154 0 -225.5 -56.5t-97.5 -181.5l-29 -133h581q9 0 30 -2t28 -2l-225 -1065 q-19 -8 -54 -8q-17 0 -29.5 2t-16.5 4l-3 2l209 983h-539l-208 -983q-17 -8 -54 -8q-16 0 -28.5 2t-16.5 4z" />
<glyph unicode="&#xfb02;" horiz-adv-x="1153" d="M90 8l209 983h-131q-5 14 0 43q6 25 18 43h131l27 123q33 161 133 248.5t287 87.5q94 0 188.5 -17.5t142.5 -34.5l48 -18l-309 -1458q-19 -8 -54 -8q-17 0 -29.5 2t-16.5 4l-3 2l297 1397q-131 43 -272 43q-97 0 -161 -28.5t-97 -79t-49 -130.5l-29 -133h254 q0 -35 -2 -43q-2 -10 -5.5 -19.5t-7 -15.5t-4.5 -8h-254l-208 -983q-17 -8 -54 -8q-16 0 -28.5 2t-16.5 4z" />
<glyph horiz-adv-x="0" />
<glyph horiz-adv-x="682" />
<glyph unicode=" "  horiz-adv-x="518" />
<glyph unicode="&#x09;" horiz-adv-x="518" />
<glyph unicode="&#xa0;" horiz-adv-x="518" />
<glyph unicode="!" horiz-adv-x="512" d="M63 8l25 115q21 8 64 8q19 0 34 -2t20 -4l5 -2l-25 -115q-20 -8 -63 -8q-19 0 -34 2t-21 4zM156 336l223 1130q4 9 57 9q24 0 37 -2.5t15 -4.5l1 -2l-256 -1130q-13 -10 -40 -10q-13 0 -22 2.5t-12 5.5z" />
<glyph unicode="&#x22;" horiz-adv-x="636" d="M256 1069l63 397q21 9 56 9q16 0 29 -2.5t18 -4.5l4 -2l-104 -397q-12 -6 -35 -6q-10 0 -18 1.5t-11 3.5zM494 1069l63 397q18 9 55 9q16 0 29 -2.5t18 -4.5l5 -2l-105 -397q-12 -6 -35 -6q-10 0 -17.5 1.5t-10.5 3.5z" />
<glyph unicode="#" horiz-adv-x="1327" d="M23 289q0 30 4 45q5 26 14 45h235l248 502h-205q0 33 3 45q6 24 18 45h229l148 297q21 8 49 8q31 0 47 -8l-147 -297h342l147 297q21 8 49 8q31 0 47 -8l-147 -297h201q0 -35 -2 -43q-5 -22 -19 -47h-225l-248 -502h195q5 -20 0 -45q-8 -30 -19 -45h-221l-137 -279 q-30 -10 -51 -10q-16 0 -46 10l138 279h-342l-138 -279q-30 -10 -53 -10q-13 0 -43 10l137 279h-208zM373 379h342l248 502h-342z" />
<glyph unicode="$" horiz-adv-x="1146" d="M14 74q0 19 13 45q13 25 30 37q19 -6 52.5 -15.5t129.5 -25t183 -15.5q187 0 301 65.5t143 196.5q12 59 -0.5 104.5t-44.5 73.5t-78 51t-100.5 36.5t-111 30.5t-110 32.5t-98.5 43t-75.5 62.5t-41 89.5t4.5 124.5q33 155 157 249t322 107l39 242q18 8 53 8q16 0 29 -2 t18 -4l5 -2l-64 -240q96 -1 179.5 -12.5t118.5 -23.5l36 -11q-7 -29 -17 -45q-11 -18 -30 -37q-127 39 -305 39q-186 0 -294.5 -67.5t-135.5 -192.5q-12 -56 1 -99t45 -69.5t78 -48t100 -35t110.5 -30.5t110 -34t98 -45.5t75 -65t40.5 -93t-5 -129.5q-34 -159 -164 -255 t-332 -108l-43 -262q-14 -8 -51 -8q-16 0 -29.5 2t-18.5 4l-5 2l67 260q-108 1 -204 18.5t-139 34.5z" />
<glyph unicode="%" horiz-adv-x="1525" d="M184 -12l1100 1442q16 8 53 8q16 0 27.5 -2t15.5 -4l4 -2l-1099 -1442q-19 -8 -56 -8q-14 0 -25 2t-16 4zM197 1061q74 354 340 354q268 0 192 -354t-344 -354q-129 0 -178.5 84t-9.5 270zM288 848q31 -62 115 -62t141 62t89 213q32 149 1 212.5t-114 63.5 q-84 0 -141.5 -63t-89.5 -213q-32 -151 -1 -213zM831 334q74 354 338 354q268 0 195 -354q-76 -354 -344 -354q-130 0 -179.5 84t-9.5 270zM922 120.5q30 -61.5 114 -61.5t142 62t90 213q31 149 -0.5 212.5t-114.5 63.5q-84 0 -141 -63t-88 -213q-32 -152 -2 -213.5z" />
<glyph unicode="&#x26;" horiz-adv-x="1294" d="M37.5 170q-15.5 66 1.5 158q14 66 49.5 127t77.5 103.5t95 81.5t92.5 61t80.5 40q-41 166 -6 318q35 165 138 259.5t261 94.5q131 0 192 -71.5t38 -174.5q-11 -52 -34 -98t-59.5 -86.5t-76.5 -74.5t-98.5 -69.5t-111.5 -63.5t-128 -64q73 -242 287 -432q128 120 211 294 q28 2 51 -8.5t30 -29.5q-73 -157 -235 -308q96 -78 231 -139q-4 -27 -22.5 -52.5t-40.5 -37.5q-124 53 -254 154q-25 -21 -56 -42t-92 -54.5t-142.5 -54.5t-166.5 -21q-76 0 -139 20t-110.5 62t-63 108zM150 338q-26 -125 37 -196.5t196 -71.5q61 0 122 14.5t109.5 38 t79.5 42.5t56 38q-216 198 -297 465q-43 -22 -82.5 -48t-88 -67t-84 -97t-48.5 -118zM530 786q93 44 157.5 80.5t123.5 81t93.5 95.5t47.5 110q17 83 -22 130.5t-129 47.5q-101 0 -172.5 -67.5t-98.5 -196.5q-30 -139 0 -281z" />
<glyph unicode="'" horiz-adv-x="399" d="M256 1069l63 397q19 9 56 9q16 0 29 -2.5t18 -4.5l4 -2l-104 -397q-12 -6 -35 -6q-10 0 -18 1.5t-11 3.5z" />
<glyph unicode="(" horiz-adv-x="581" d="M93.5 324q2.5 166 37.5 331q26 120 68 240.5t89.5 217t98.5 185t97.5 153t83.5 113t59 72.5l22 25q23 2 43 -12q10 -6 17 -14.5t9 -13.5l1 -5q-15 -15 -39.5 -44t-93 -125.5t-127.5 -201t-123.5 -265.5t-99.5 -325t-40.5 -323t12 -269t40 -197t42.5 -129l19 -42 q-12 -19 -39 -33q-13 -6 -24.5 -9t-17.5 -3h-5q-9 17 -23 48.5t-44.5 135.5t-47.5 214t-14.5 276z" />
<glyph unicode=")" horiz-adv-x="579" d="M-127 -305q14 15 39 44t93 125.5t127 201t123 265t99 324.5t40.5 323t-11.5 269t-39 197t-42 130l-19 42q10 19 39 33q13 6 24 9t16 3h5q9 -17 23 -48.5t44.5 -135.5t47.5 -214.5t14.5 -276.5t-37.5 -331q-26 -120 -68 -240.5t-89.5 -216.5t-98.5 -185t-97.5 -153.5 t-83.5 -112.5t-59 -73l-22 -24q-23 -2 -43 12q-10 6 -16.5 14.5t-7.5 13.5z" />
<glyph unicode="*" horiz-adv-x="706" d="M254 1253q10 43 35 66l160 -57l36 178q40 13 68 0l-37 -178l184 57q17 -22 7 -66l-187 -55l80 -151q-33 -28 -61 -37l-80 147l-137 -149q-30 8 -50 36l142 154z" />
<glyph unicode="+" horiz-adv-x="942" d="M106 551q-3 14 3 43q3 13 7 23.5t6 14.5l3 5h303l66 303q14 8 43 8q13 0 23.5 -2t15.5 -4l4 -2l-66 -303h303q6 -14 0 -43q-3 -13 -7.5 -23.5t-7.5 -14.5l-3 -5h-303l-64 -303q-16 -8 -45 -8q-13 0 -23 2t-14 4l-4 2l64 303h-304z" />
<glyph unicode="," horiz-adv-x="450" d="M-29 -178q9 7 22.5 20.5t42.5 59.5t44 98q-13 0 -23.5 2t-14.5 4l-5 2l24 115q25 8 68 8q19 0 35 -2t22 -4l7 -2l-19 -82q-10 -46 -30.5 -89t-42.5 -71t-43 -49.5t-34 -31.5l-14 -9z" />
<glyph unicode="-" horiz-adv-x="731" d="M154 551q-4 14 2 43q3 13 7 23.5t7 14.5l2 5h385q6 -14 0 -43q-3 -13 -7.5 -23.5t-7.5 -14.5l-3 -5h-385z" />
<glyph unicode="." horiz-adv-x="442" d="M35 8l24 115q25 8 68 8q19 0 35 -2t22 -4l6 -2l-24 -115q-25 -8 -68 -8q-19 0 -35 2t-22 4z" />
<glyph unicode="/" horiz-adv-x="901" d="M-102 -88l1036 1616q18 8 53 8q17 0 31 -2t19 -4l5 -2l-1036 -1616q-22 -8 -59 -8q-16 0 -28 2t-17 4z" />
<glyph unicode="0" horiz-adv-x="1267" d="M162 696q74 371 231 544t398 173q243 0 333 -172t17 -545t-230.5 -544.5t-400.5 -171.5t-332 171t-16 545zM237.5 337q14.5 -139 82.5 -202t196 -63q195 0 318.5 147.5t193.5 476.5q69 334 9 479.5t-255 145.5q-192 0 -315.5 -147.5t-194.5 -477.5q-49 -220 -34.5 -359z " />
<glyph unicode="1" horiz-adv-x="802" d="M162 1073q281 70 481 311q14 9 51 9q16 0 28 -2.5t16 -4.5l5 -2l-292 -1376q-17 -8 -56 -8q-16 0 -29 2t-18 4l-4 2l201 942q37 182 69 283q-173 -181 -444 -250q-27 34 -8 90z" />
<glyph unicode="2" horiz-adv-x="1077" d="M-2 0q2 65 16 137q12 58 33.5 109.5t43 89.5t58.5 76.5t62.5 61.5t74.5 54.5t74.5 46t82 45.5t79.5 44q175 98 215 125q124 83 171 180q20 40 30 88q7 33 8 63t-6 61t-26 56t-48.5 44.5t-78 30.5t-111.5 11q-76 0 -160.5 -15.5t-131.5 -30.5l-46 -15q-14 12 -17.5 36 t3.5 50q19 7 52.5 18t136 29t202.5 18q86 0 154 -22t116 -67.5t63 -116t-4 -167.5q-15 -65 -45 -119t-61 -90.5t-98 -82t-111.5 -71t-145.5 -79.5q-17 -9 -26 -14q-18 -10 -61.5 -32.5t-67 -35t-64 -37t-65 -44t-56.5 -50t-52 -60.5t-38.5 -69.5t-27.5 -83.5 q-12 -52 -12 -74h702q5 -15 -2 -49q-7 -32 -18 -49h-797z" />
<glyph unicode="3" horiz-adv-x="1052" d="M-14 47q3 22 16 45t29 33q2 -1 16 -5.5t21 -6.5t24 -7t29 -8t31.5 -7.5t37.5 -6.5t39.5 -5t45 -4t47.5 -1q369 0 432 297q11 65 9 113.5t-23.5 83.5t-49 58t-68.5 36t-80.5 18.5t-86.5 5.5h-109q-6 43 19 88h108q326 0 387 283q27 127 -38 196.5t-224 69.5 q-74 0 -148 -12.5t-112 -25.5l-37 -13q-17 10 -22 32.5t2 43.5q17 7 47.5 18t121.5 29t179 18q198 0 283 -103.5t51 -262.5q-26 -121 -91.5 -197.5t-193.5 -124.5q129 -53 169.5 -140t10.5 -231q-17 -77 -56 -142t-103.5 -118.5t-164.5 -83.5t-227 -30q-91 0 -171.5 17 t-115.5 33z" />
<glyph unicode="4" horiz-adv-x="1169" d="M29 371q-4 14 2 45q3 14 7.5 25t7.5 15l3 5l877 923q16 9 55 9q16 0 29 -2.5t18 -4.5l4 -2l-196 -923h208q4 -14 -2 -45q-3 -14 -7.5 -25t-7.5 -15l-3 -5h-209l-76 -363q-18 -8 -53 -8q-16 0 -28 2t-16 4l-5 2l76 363h-684zM164 461h569l164 774z" />
<glyph unicode="5" horiz-adv-x="1064" d="M-6 35q2 23 13.5 45.5t29.5 34.5q12 -5 34.5 -12t92 -19t139.5 -12q205 0 321 75t150 234q11 56 12 104t-18.5 87.5t-56.5 68t-102 44t-156 15.5q-84 0 -244 -20l149 713h682q9 -50 -18 -97h-578l-110 -516q1 0 10 1.5t24.5 3t35.5 3.5t46 3.5t52 1.5q238 0 332.5 -110.5 t50.5 -315.5q-40 -195 -184.5 -291t-403.5 -96q-61 0 -115 5.5t-87 13.5t-57 16.5t-34 14.5z" />
<glyph unicode="6" horiz-adv-x="1128" d="M100 279q-10 103 19 247q44 211 131 373t207 266.5t264 161.5t313 68q10 -43 -16 -92q-259 -26 -440 -155t-281 -388q184 92 352 92q184 0 274.5 -115.5t43.5 -343.5q-43 -208 -179.5 -310.5t-338.5 -102.5q-98 0 -171 31.5t-120.5 98t-57.5 169.5zM225 518 q-49 -226 17 -338t217 -112q148 0 256.5 89.5t144.5 258.5q37 175 -30 261.5t-212 86.5q-161 0 -358 -111q-18 -56 -35 -135z" />
<glyph unicode="7" horiz-adv-x="1007" d="M162 8q31 146 84.5 272.5t116 219t132.5 174.5t139.5 154t130.5 141t111.5 152.5t77.5 172.5h-735q-4 18 2 49q4 15 8.5 27.5t7.5 17.5l3 5h833q3 -28 -4 -62q-18 -82 -52 -156.5t-77.5 -136t-95.5 -121t-107.5 -117.5t-111 -118.5t-109.5 -131.5t-101 -149t-86 -179 t-63 -214q-32 -8 -53 -8q-27 0 -51 8z" />
<glyph unicode="8" horiz-adv-x="1196" d="M76 350q14 66 49 126.5t72.5 101t91 80t85.5 58.5t75 42q-212 125 -164 344q30 147 158.5 229t318.5 82q187 0 279 -96.5t61 -253.5q-43 -215 -305 -352q254 -145 200 -396q-34 -162 -174 -248.5t-368 -86.5q-212 0 -312.5 106.5t-66.5 263.5zM182 336 q-26 -120 48.5 -193t250.5 -73q166 0 276.5 73.5t135.5 190.5q9 36 6.5 67.5t-10.5 57.5t-25 49.5t-37 42.5t-46.5 36.5t-54 32.5t-59 30t-61.5 29q-46 21 -69 32q-29 -15 -58.5 -31.5t-81 -53.5t-91 -76.5t-75.5 -96.5t-49 -117zM384 1020.5q2 -31.5 15 -59.5t32 -50 t46 -42t57 -36.5t64.5 -33.5t69.5 -32q23 -10 34 -15q253 135 293 327q25 116 -44 181t-210 65q-139 0 -234 -63.5t-118 -169.5q-7 -40 -5 -71.5z" />
<glyph unicode="9" horiz-adv-x="1124" d="M120 48q5 27 17 46q258 26 438.5 153t280.5 386q-179 -92 -352 -92q-118 0 -198 50t-113 152.5t0 257.5q44 205 186.5 308.5t335.5 103.5q202 0 291 -135.5t30 -411.5q-45 -211 -132 -372.5t-206.5 -265.5t-263.5 -160.5t-313 -67.5q-6 21 -1 48zM293 977 q-37 -175 30 -261.5t212 -86.5q170 0 360 110q28 99 35 135q47 226 -19.5 338.5t-216.5 112.5q-148 0 -256 -89t-145 -259z" />
<glyph unicode=":" horiz-adv-x="458" d="M33 8l24 115q25 8 68 8q19 0 35 -2t22 -4l6 -2l-24 -115q-25 -8 -68 -8q-19 0 -35 2t-22 4zM205 817l24 115q25 8 68 8q19 0 35 -2t22 -4l6 -2l-24 -115q-25 -8 -68 -8q-19 0 -35 2t-22 4z" />
<glyph unicode=";" horiz-adv-x="487" d="M-10 -178q3 2 8 7t19.5 22t27 36t27.5 49.5t24 63.5q-13 0 -23.5 2t-14.5 4l-5 2l25 115q24 8 67 8q19 0 35 -2t22 -4l7 -2l-19 -82q-10 -46 -30.5 -89t-42.5 -71t-42.5 -49.5t-34.5 -31.5l-13 -9zM225 817l25 115q24 8 67 8q19 0 35 -2t22 -4l7 -2l-25 -115 q-24 -8 -67 -8q-19 0 -35 2t-22 4z" />
<glyph unicode="&#x3c;" horiz-adv-x="952" d="M104 539q-3 22 5 55q3 15 7.5 28t7.5 19l3 6l719 301q6 -12 0 -45q-3 -14 -7.5 -25.5t-8.5 -16.5l-3 -5l-630 -264l518 -260q6 -14 0 -47q-4 -14 -8.5 -25.5t-7.5 -16.5l-3 -5z" />
<glyph unicode="=" horiz-adv-x="1046" d="M125 377q-3 45 18 86h688q3 -36 -18 -86h-688zM199 725q0 45 18 86h688q3 -39 -18 -86h-688z" />
<glyph unicode="&#x3e;" horiz-adv-x="950" d="M92 238q-6 16 2 47q3 15 7 26.5t7 16.5l3 4l628 260l-516 264q-4 16 2 47q3 15 7 26t7 15l3 4l592 -301q3 -20 -3 -53q-4 -15 -9 -28.5t-8 -19.5l-3 -7z" />
<glyph unicode="?" horiz-adv-x="872" d="M147 8l25 115q25 8 68 8q19 0 35 -2t22 -4l6 -2l-24 -115q-25 -8 -68 -8q-19 0 -35 2t-22 4zM231 1348q15 7 43 18t114 29t173 18q94 0 161.5 -25t102.5 -69t47.5 -104t-4.5 -130q-18 -83 -53 -148.5t-78 -109t-92 -81t-97.5 -75.5t-91.5 -81t-78 -107.5t-52 -146.5 q-16 -10 -47 -10q-12 0 -22.5 2.5t-14.5 5.5l-4 2q20 95 55.5 169t77.5 121t89 86t93 73.5t86 72.5t72 94t47 127q23 111 -31.5 176.5t-198.5 65.5q-75 0 -145 -12.5t-103 -25.5l-32 -13q-35 25 -17 78z" />
<glyph unicode="@" horiz-adv-x="1873" d="M110.5 215q-27.5 152 12.5 356q53 248 198.5 436t349 287t435.5 99q248 0 407 -98.5t213 -271.5t5 -402q-43 -209 -159 -328t-280 -119q-80 0 -128.5 36t-55.5 109q-105 -145 -295 -145q-70 0 -122 20t-89.5 66.5t-44.5 122t14 186.5q23 108 65 187.5t97.5 124.5 t116.5 65.5t131 20.5q170 0 223 -119l25 113q16 8 45 8q13 0 24.5 -2t17.5 -4l5 -2l-109 -510q-44 -201 101 -201q106 0 197 92.5t130 278.5q68 318 -76.5 507t-471.5 189q-208 0 -389 -89.5t-309.5 -260t-176.5 -396.5q-36 -191 -11.5 -328.5t105.5 -226.5t195 -131.5 t258 -42.5q305 0 602 172q36 -16 27 -59q-306 -193 -666 -193q-159 0 -286 50t-215 150.5t-115.5 252.5zM672 569q-67 -321 182 -321q99 0 172.5 65t95.5 154l43 201q20 90 -26 157.5t-148 67.5q-43 0 -79 -8t-74 -29.5t-67.5 -57t-55.5 -94t-43 -135.5z" />
<glyph unicode="A" horiz-adv-x="1310" d="M-92 8l872 1458q21 9 56 9q16 0 28.5 -2.5t17.5 -4.5l5 -2l254 -1458q-21 -8 -60 -8q-13 0 -24.5 2t-16.5 4l-6 2l-73 418h-691l-252 -418q-18 -8 -63 -8q-16 0 -27.5 2t-15.5 4zM324 520h622l-123 711q-4 29 -6.5 55.5t-2.5 38.5l-1 12h-4q-20 -43 -55 -106z" />
<glyph unicode="B" horiz-adv-x="1288" d="M80 0l313 1475h496q86 0 150 -22t100 -60q37 -38 57 -89q19 -48 18 -102v-8q-2 -58 -12 -121q-7 -36 -18.5 -68t-24 -57.5t-29 -48.5t-30 -39.5t-32 -32.5t-30.5 -25.5t-30 -20t-26 -14.5t-21.5 -10.5t-14.5 -6.5q1 -1 6 -3q13 -6 23.5 -11.5t32.5 -21.5t37.5 -34t33 -48 t25.5 -64q9 -36 10 -87q0 -47 -12 -100q-19 -91 -56 -159.5t-98.5 -119t-152.5 -76.5t-211 -26h-504zM207 92h385q180 0 273.5 76.5t125.5 226.5q12 53 12 97q0 85 -44 134q-66 74 -240 74h-383zM354 791h369q306 0 371 296q10 50 10 92q0 78 -36 127q-56 76 -224 76h-365z " />
<glyph unicode="C" horiz-adv-x="1132" d="M170 756q82 376 256 557.5t453 181.5q99 0 181 -17t114 -34l32 -17q-11 -44 -51 -81q-12 6 -35 15t-97 24.5t-151 15.5q-107 0 -193.5 -32.5t-164 -107t-137.5 -206.5t-101 -320q-32 -151 -35 -265q0 -13 -1 -27q0 -97 20 -163q22 -74 71 -120t112 -65t149 -19 q84 0 166 14t122 28l40 13q18 -25 18 -61q0 -11 -2 -23q-6 -3 -16.5 -7.5t-47 -16t-77.5 -20.5t-105.5 -16t-132.5 -7q-424 0 -424 464q0 136 37 312z" />
<glyph unicode="D" horiz-adv-x="1355" d="M80 0l313 1475h393q119 0 207.5 -24.5t152.5 -80.5q63 -54 93 -142q29 -85 29 -208v-8q-1 -128 -37 -295q-44 -209 -109 -349t-157.5 -221t-203.5 -114t-263 -33h-418zM207 94h289q124 0 215 28.5t171 99.5t138 198t98 317q33 153 36 265v25q0 95 -20 159 q-24 72 -76.5 116t-122 61t-167.5 17h-289z" />
<glyph unicode="E" horiz-adv-x="1138" d="M80 0l313 1475h801q1 -8 1 -16q0 -14 -3 -29q-7 -34 -18 -50h-695l-125 -585h592q3 -21 0 -45q-6 -27 -18 -48h-592l-129 -608h715q0 -37 -2 -45q-6 -26 -19 -49h-821z" />
<glyph unicode="F" horiz-adv-x="1101" d="M82 8l311 1467h797q0 -39 -2 -48q-4 -24 -19 -47h-690l-129 -606h600q5 -11 0 -45q-3 -11 -7 -21t-7 -17t-4 -9h-600l-144 -674q-18 -8 -55 -8q-16 0 -29 2t-18 4z" />
<glyph unicode="G" horiz-adv-x="1269" d="M170 764q159 731 731 731q105 0 195 -17t128 -34l38 -17q-17 -48 -52 -79q-15 6 -42.5 15t-110 23.5t-162.5 14.5q-107 0 -197 -32.5t-172.5 -106.5t-147 -207t-104.5 -320q-33 -153 -33 -270q0 -112 26 -185t78 -119.5t117.5 -65.5t151.5 -19q117 0 285 33l123 577h-369 q-4 18 2 47q3 15 7.5 26.5t7.5 16.5l4 4h473l-156 -733q-19 -8 -53 -19t-141.5 -29.5t-216.5 -18.5q-277 0 -383 201q-61 115 -61 290q0 130 34 293z" />
<glyph unicode="H" horiz-adv-x="1390" d="M82 8l309 1458q20 9 55 9q16 0 29 -2.5t18 -4.5l5 -2l-142 -661h754l141 661q21 9 56 9q16 0 28.5 -2.5t17.5 -4.5l5 -2l-309 -1458q-19 -8 -56 -8q-18 0 -31 2t-16 4l-4 2l148 699h-754l-148 -699q-20 -8 -55 -8q-17 0 -30 2t-17 4z" />
<glyph unicode="I" horiz-adv-x="530" d="M82 8l309 1458q18 9 55 9q16 0 29 -2.5t18 -4.5l5 -2l-310 -1458q-18 -8 -55 -8q-17 0 -30 2t-17 4z" />
<glyph unicode="J" horiz-adv-x="874" d="M-66 41q10 57 50 84q11 -5 31.5 -13.5t80 -22t115.5 -13.5q115 0 189.5 59.5t105.5 198.5l239 1132q17 9 56 9q16 0 28.5 -2.5t17.5 -4.5l5 -2l-240 -1130q-38 -182 -139.5 -269t-269.5 -87q-69 0 -136.5 15t-100.5 31z" />
<glyph unicode="K" horiz-adv-x="1245" d="M80 8l309 1458q20 9 57 9q16 0 28.5 -2.5t17.5 -4.5l4 -2l-140 -653h254l594 653q27 9 62 9q23 0 59 -9l-633 -706l383 -752q-22 -8 -63 -8q-16 0 -31 2t-22 4l-7 2l-354 711h-260l-152 -711q-18 -8 -55 -8q-16 0 -28.5 2t-17.5 4z" />
<glyph unicode="L" horiz-adv-x="1034" d="M80 0l311 1466q20 9 55 9q16 0 29 -2.5t18 -4.5l5 -2l-291 -1370h661q0 -36 -2 -47q-3 -19 -18 -49h-768z" />
<glyph unicode="M" horiz-adv-x="1728" d="M80 8l309 1458q29 9 70 9q17 0 31.5 -2.5t19.5 -4.5l6 -2l307 -929h4l719 929q45 9 80 9q21 0 38.5 -2.5t24.5 -4.5l7 -2l-310 -1458q-18 -8 -55 -8q-16 0 -29 2t-18 4l-4 2l221 1039q41 195 74 303h-6q-30 -63 -150 -215l-575 -729q-18 -9 -43 -9q-11 0 -21 2.5t-14 4.5 l-4 2q-34 100 -118.5 346.5t-129.5 380.5q-25 69 -41 132.5t-16 84.5h-6q0 -65 -52 -312l-219 -1030q-16 -8 -51 -8q-16 0 -28 2t-17 4z" />
<glyph unicode="N" horiz-adv-x="1425" d="M80 8l309 1458q25 9 66 9q19 0 34 -2.5t20 -4.5l5 -2l502 -1325h4q14 113 49 273l223 1052q17 9 54 9q16 0 27.5 -2.5t15.5 -4.5l4 -2l-310 -1458q-20 -8 -63 -8q-19 0 -34.5 2t-21.5 4l-6 2l-497 1309h-4q-13 -71 -54 -268l-221 -1041q-18 -8 -55 -8q-15 0 -26.5 2 t-16.5 4z" />
<glyph unicode="O" horiz-adv-x="1384" d="M148 325q-13 66 -13 146q0 129 35 293q82 384 256 557.5t440 173.5q266 1 372 -193q60 -108 59 -277q0 -133 -37 -304q-83 -389 -252.5 -565t-434.5 -176q-175 0 -282.5 85.5t-142.5 259.5zM246 477q0 -111 24 -185q24 -76 69.5 -126t104 -72t129.5 -22 q212 0 359.5 157.5t220.5 507.5q31 143 33 257v18q0 101 -20 171q-22 76 -67 126t-105 72t-136 22q-212 0 -359.5 -157t-222.5 -509q-30 -144 -30 -260z" />
<glyph unicode="P" horiz-adv-x="1226" d="M82 8l311 1467h506q95 0 165 -34.5t107 -94.5q37 -62 49 -144q4 -28 3 -56q0 -58 -15 -122q-40 -191 -169 -299.5t-322 -108.5h-400l-129 -608q-18 -8 -53 -8q-17 0 -30.5 2t-18.5 4zM338 713h395q143 0 240.5 87.5t130.5 241.5q12 58 12 106q0 84 -38 142 q-60 90 -204 90h-395z" />
<glyph unicode="Q" horiz-adv-x="1384" d="M148 325q-13 66 -13 146q0 129 35 293q82 384 256 557.5t440 173.5q265 0 372 -193q59 -109 59 -277q0 -133 -37 -304q-99 -467 -332 -635q81 -99 225 -137q-19 -63 -82 -92q-68 19 -131 67t-100 109q-115 -53 -267 -53q-175 0 -282.5 85.5t-142.5 259.5zM245 477 q0 -111 25 -185q24 -75 69.5 -125.5t104 -72.5t129.5 -22q212 0 359.5 157.5t220.5 507.5q31 143 33 257v18q0 101 -20 171q-23 76 -67.5 126t-104.5 72t-136 22q-212 0 -359.5 -157t-222.5 -509q-31 -144 -31 -260z" />
<glyph unicode="R" horiz-adv-x="1269" d="M82 8l311 1467h494q189 0 275 -122q58 -82 58 -196q0 -54 -14 -115q-32 -153 -131 -249t-250 -127l215 -658q-22 -8 -63 -8q-17 0 -32.5 2t-22.5 4l-7 2l-206 645h-383l-138 -645q-18 -8 -53 -8q-17 0 -30.5 2t-18.5 4zM346 748h385q139 0 238 83.5t129 231.5 q11 50 11 93q-1 85 -43 140q-64 84 -202 84h-385z" />
<glyph unicode="S" horiz-adv-x="1146" d="M12 57q11 52 47 88q19 -7 52 -18t128.5 -29t182.5 -18q186 0 302.5 77t147.5 224q8 38 8.5 70.5t-8 59t-21 47.5t-34 39t-42.5 31t-52 25.5t-57 21t-62 19.5q-42 13 -69 22t-66 24t-64 28.5t-56 34.5t-49.5 42.5t-36 51t-24.5 62.5t-7 74.5t10 88.5q38 182 178 277.5 t368 95.5q102 0 193.5 -12.5t132.5 -25.5l41 -13q-13 -55 -47 -86q-146 43 -326 43q-188 0 -299 -78.5t-139 -218.5q-7 -34 -7.5 -64t4 -53.5t18 -44.5t27.5 -37t39 -31t45.5 -25.5t54.5 -23t59 -20l65 -19.5t72 -23.5t68.5 -28t63.5 -35.5t53.5 -43t42.5 -54t26.5 -66 t10.5 -81t-11 -97q-39 -187 -184 -282.5t-379 -95.5q-71 0 -138 8t-112.5 19t-80.5 22.5t-52 19.5z" />
<glyph unicode="T" horiz-adv-x="1083" d="M225 1380q-2 7 -2 16q0 13 4 31q3 13 7.5 25t7.5 18l4 5h948q2 -7 2 -16q0 -14 -4 -32q-3 -13 -7.5 -24.5t-7.5 -16.5l-3 -6h-416l-291 -1372q-18 -8 -55 -8q-17 0 -30 2t-18 4l-4 2l291 1372h-426z" />
<glyph unicode="U" horiz-adv-x="1368" d="M166 467l213 999q20 9 55 9q16 0 29.5 -2.5t18.5 -4.5l5 -2l-215 -1013q-13 -60 -12 -111q0 -104 52 -170q78 -100 257 -100t300 100t159 281l215 1013q18 9 53 9q16 0 29 -2.5t18 -4.5l5 -2l-213 -999q-49 -233 -198.5 -360t-369.5 -127q-225 0 -337 130q-79 91 -78 230 q0 59 14 127z" />
<glyph unicode="V" horiz-adv-x="1255" d="M229 1464q19 11 60 11q13 0 23.5 -2.5t15.5 -4.5l4 -2l174 -1177q5 -38 7.5 -75.5t2.5 -55.5v-19h6q25 64 74 148l674 1179q18 9 61 9q17 0 30.5 -2.5t18.5 -4.5l4 -2l-833 -1458q-22 -8 -55 -8q-15 0 -28 2t-18 4l-6 2z" />
<glyph unicode="W" horiz-adv-x="1939" d="M238 1466q18 9 55 9q17 0 30.5 -2.5t18.5 -4.5l4 -2l90 -1118q4 -52 5 -105q0 -26 0.5 -46t-0.5 -33l-1 -27h6q28 92 89 211l571 1118q16 9 53 9q16 0 28.5 -2.5t16.5 -4.5l4 -2l82 -1118q4 -54 4 -106q0 -18 1 -33q0 -29 -1 -46l-2 -26h4q25 88 86 211l560 1118 q18 9 59 9q15 0 27 -2.5t17 -4.5l5 -2l-727 -1458q-20 -8 -55 -8q-15 0 -27.5 2t-18.5 4l-5 2l-87 1116q-4 61 -4 104v11q0 46 4 69l3 23h-7q-14 -70 -84 -207l-569 -1116q-32 -8 -59 -8q-20 0 -52 8z" />
<glyph unicode="X" horiz-adv-x="1222" d="M-70 8l631 750l-301 708q23 9 68 9q13 0 25 -2.5t18 -4.5l6 -2l268 -630l543 630q36 9 74 9q23 0 59 -9l-610 -704l323 -752q-24 -10 -67 -10q-14 0 -26 2t-17 4l-6 2l-289 672l-563 -672q-32 -8 -76 -8q-28 0 -60 8z" />
<glyph unicode="Y" horiz-adv-x="1257" d="M225 1466q25 9 68 9q14 0 26 -2.5t17 -4.5l6 -2l301 -731l625 731q20 9 69 9q19 0 34.5 -2.5t21.5 -4.5l6 -2l-719 -843l-131 -615q-20 -8 -55 -8q-16 0 -29 2t-18 4l-5 2l129 613z" />
<glyph unicode="Z" horiz-adv-x="1181" d="M-41 0q0 36 2 49q5 21 19 49l1116 1278h-789q0 1 -1 9.5t-0.5 19t3.5 22.5q7 29 19 48h911q0 -40 -2 -48q-4 -22 -18 -51l-1117 -1278h871q5 -16 -2 -49q-3 -16 -19 -49h-993z" />
<glyph unicode="[" horiz-adv-x="647" d="M2 -348l426 2007h354q6 -14 -2 -47q-3 -15 -7.5 -26.5t-7.5 -15.5l-3 -5h-252l-385 -1819h252q4 -16 -2 -47q-4 -15 -8.5 -26.5t-7.5 -16.5l-3 -4h-354z" />
<glyph unicode="\" horiz-adv-x="892" d="M238 1526q20 10 57 10q17 0 31 -2.5t19 -5.5l5 -2l346 -1612q-20 -10 -57 -10q-16 0 -30 2.5t-19 5.5l-6 2z" />
<glyph unicode="]" horiz-adv-x="647" d="M-123 -348q-6 14 2 47q3 14 7.5 25.5t7.5 16.5l4 5h252l385 1819h-252q-4 14 2 47q4 15 8.5 26.5t6.5 15.5l3 5h354l-426 -2007h-354z" />
<glyph unicode="^" horiz-adv-x="1044" d="M182 934l471 532q17 9 54 9q16 0 28.5 -2.5t16.5 -4.5l4 -2l245 -532q-14 -8 -51 -8q-16 0 -29 2t-17 4l-5 2l-213 459l-403 -459q-17 -8 -54 -8q-16 0 -28 2t-15 4z" />
<glyph unicode="_" horiz-adv-x="1087" d="M-25 -121q-6 10 2 41q3 13 7 22.5t7 13.5l3 3h835q6 -10 0 -39q-4 -14 -8.5 -24t-6.5 -14l-3 -3h-836z" />
<glyph unicode="`" horiz-adv-x="487" d="M119 1608q18 21 48 34.5t58 12.5l162 -303q-26 -33 -76 -39z" />
<glyph unicode="a" horiz-adv-x="1134" d="M113 559q32 153 82.5 260t117.5 167t142.5 86t169.5 26q222 0 293 -187l38 162q17 8 48 8q16 0 28 -2t16 -4l3 -2l-226 -1065q-18 -8 -45 -8q-12 0 -23 2t-15 4l-5 2l27 158q-142 -186 -377 -186q-303 0 -303 338q0 105 29 241zM211 178q49 -108 215 -108 q137 0 245.5 105t135.5 235l55 260q8 40 8 78q0 40 -10 80q-18 76 -78.5 128t-152.5 52q-167 0 -263.5 -108.5t-150.5 -360.5q-28 -131 -28 -224q0 -85 24 -137z" />
<glyph unicode="b" horiz-adv-x="1140" d="M47 8l324 1520q14 8 51 8q16 0 29 -2t17 -4l5 -2l-131 -610q139 180 369 180q307 0 306 -339q0 -104 -28 -239q-32 -153 -82 -260t-117.5 -167.5t-144 -86.5t-172.5 -26q-118 0 -190.5 49t-102.5 131l-33 -152q-16 -8 -51 -8q-16 0 -28.5 2t-16.5 4zM233 410 q-8 -39 -8 -77q0 -43 10 -83q19 -76 78 -128t148 -52q171 0 269.5 108.5t152.5 360.5q28 132 28 225q1 85 -23 136q-50 108 -220 108q-129 0 -237.5 -102t-139.5 -228z" />
<glyph unicode="c" horiz-adv-x="905" d="M111 563q114 535 540 535q74 0 133.5 -12t81.5 -24l23 -13q-10 -54 -53 -80q-66 37 -185 37q-177 0 -284.5 -114.5t-157.5 -348.5q-23 -106 -23 -187q0 -100 34 -164q62 -116 243 -116q56 0 108 11t77 21l24 11q15 -11 23 -33t5 -47q-11 -7 -32 -16.5t-92 -26t-148 -16.5 q-207 0 -291 154q-50 91 -50 225q0 92 24 204z" />
<glyph unicode="d" horiz-adv-x="1134" d="M113 557q32 152 83.5 260t119.5 168t143 86.5t166 26.5q223 0 290 -180l132 610q14 8 51 8q16 0 29 -2t17 -4l5 -2l-324 -1520q-18 -8 -45 -8q-12 0 -23 2t-15 4l-5 2l27 158q-69 -91 -155.5 -138.5t-207.5 -47.5q-316 0 -316 344q0 101 28 233zM214 178 q52 -108 222 -108q71 0 136 30t111.5 79.5t78.5 109t45 121.5l55 260q10 38 10 77q0 21 -4 43q-8 60 -32 108.5t-76 79t-123 30.5q-166 0 -267.5 -110t-154.5 -359q-27 -128 -27 -219q1 -89 26 -142z" />
<glyph unicode="e" horiz-adv-x="1034" d="M113 571q60 261 197.5 394t326.5 133q177 0 259 -112q56 -76 57 -181q0 -49 -13 -105t-28 -104.5t-24 -69.5l-9 -20h-676q-15 -84 -15 -151q0 -109 38 -175q62 -106 227 -106q72 0 141.5 19.5t103.5 38.5l33 20q30 -27 30 -64q0 -8 -1 -16q-5 -4 -14 -10t-41 -22 t-67.5 -28t-92.5 -22t-117 -10q-210 0 -294 157q-48 89 -49 218q0 97 28 216zM221 590h588q25 49 41 133q10 37 10 72q0 19 -3 37q-8 52 -32 91.5t-74.5 63t-121.5 23.5q-144 0 -249 -103t-159 -317z" />
<glyph unicode="f" horiz-adv-x="696" d="M88 8l209 983h-143q-5 14 0 43q6 25 18 43h143l27 123q16 79 42.5 137t69.5 104.5t110 70.5t157 24q49 0 96 -7t69 -15l23 -7q-7 -51 -45 -82q-59 23 -149 23q-128 0 -186 -57.5t-83 -180.5l-28 -133h315q0 -35 -2 -43q-2 -10 -5.5 -19t-7 -16t-3.5 -8h-316l-209 -983 q-16 -8 -53 -8q-16 0 -28.5 2t-16.5 4z" />
<glyph unicode="g" horiz-adv-x="1136" d="M-12 -457q11 57 47 78q108 -41 239 -41q101 0 170.5 20.5t126.5 74t96 145t68 233.5l25 109q-68 -88 -152 -135t-207 -47q-193 0 -271 142q-44 79 -44 206q0 103 29 239q26 123 64.5 215.5t84.5 152t104.5 96.5t120 52t136.5 15q217 0 290 -185l33 156q16 8 53 8 q16 0 29 -2t18 -4l5 -2l-215 -1016q-31 -148 -73 -248.5t-108 -174.5t-162.5 -108t-230.5 -34q-78 0 -147 14t-99 28zM214 178q51 -108 222 -108q62 0 118 22t96.5 56.5t73 79t52 87.5t29.5 84l59 277q5 40 6 84q1 5 1 9q0 40 -14 81q-15 44 -39.5 79t-71.5 57t-109 22 q-171 0 -269.5 -108.5t-152.5 -360.5q-27 -128 -27 -219q0 -89 26 -142z" />
<glyph unicode="h" horiz-adv-x="1128" d="M47 8l324 1520q16 8 51 8q16 0 28.5 -2t17.5 -4l5 -2l-131 -608q161 178 389 178q148 0 219 -88q49 -61 49 -151q0 -40 -10 -87l-164 -764q-18 -8 -53 -8q-16 0 -28.5 2t-16.5 4l-4 2l162 762q9 41 9 75q0 165 -204 165q-98 0 -201.5 -62.5t-175.5 -169.5l-163 -770 q-19 -8 -54 -8q-16 0 -28 2t-16 4z" />
<glyph unicode="i" horiz-adv-x="471" d="M53 8l226 1061q16 8 53 8q16 0 28.5 -2t16.5 -4l4 -2l-225 -1061q-17 -8 -54 -8q-16 0 -28.5 2t-16.5 4zM319 1331l25 115q25 8 68 8q19 0 35 -2t22 -4l6 -2l-24 -115q-25 -8 -68 -8q-19 0 -35 2t-22 4z" />
<glyph unicode="j" horiz-adv-x="471" d="M-348 -469q4 16 10 29.5t10 18.5l4 5q31 -8 86 -8q101 0 161.5 56t86.5 180l269 1257q14 8 53 8q16 0 28 -2t16 -4l5 -2l-266 -1249q-34 -166 -124 -249t-222 -83q-38 0 -67.5 4.5t-39.5 9.5l-10 4q-1 6 -1 12t1 13zM322 1337l24 115q23 8 68 8q19 0 34.5 -2t21.5 -4 l5 -2l-24 -115q-23 -8 -66 -8q-20 0 -36 2t-21 4z" />
<glyph unicode="k" horiz-adv-x="1013" d="M47 8l324 1520q16 8 51 8q16 0 28.5 -2t17.5 -4l5 -2l-197 -922h218l413 463q17 8 60 8q16 0 30 -1.5t19 -3.5l6 -1l-461 -518l285 -543q-23 -10 -62 -10q-14 0 -26 2.5t-18 5.5l-5 2l-262 510h-215l-108 -512q-19 -8 -54 -8q-16 0 -28 2t-16 4z" />
<glyph unicode="l" horiz-adv-x="479" d="M57 8l324 1520q14 8 51 8q16 0 29 -2t17 -4l5 -2l-323 -1520q-17 -8 -54 -8q-16 0 -28.5 2t-16.5 4z" />
<glyph unicode="m" horiz-adv-x="1724" d="M47 8l225 1061q19 8 54 8q16 0 28.5 -2t17.5 -4l5 -2l-33 -156q161 185 361 185q105 0 175 -51t76 -150q175 201 385 201q141 0 209 -85q46 -57 46 -145q0 -43 -11 -92l-164 -768q-18 -8 -53 -8q-16 0 -28.5 2t-16.5 4l-4 2l162 762q10 46 10 84q0 62 -27 98 q-43 58 -157 58q-95 0 -193.5 -61.5t-167.5 -174.5l-162 -766q-18 -8 -53 -8q-16 0 -28 2t-17 4l-4 2l162 762q10 46 10 84q0 62 -27 98q-43 58 -157 58q-91 0 -189 -62.5t-166 -169.5l-163 -770q-21 -8 -56 -8q-16 0 -28 2t-16 4z" />
<glyph unicode="n" d="M47 8l225 1061q19 8 54 8q16 0 28 -2t16 -4l5 -2l-33 -158q88 93 179 140t204 47q147 0 220 -90q51 -63 51 -153q0 -39 -9 -83l-162 -764q-18 -8 -53 -8q-16 0 -28.5 2t-16.5 4l-4 2l162 762q9 41 9 75q0 165 -204 165q-98 0 -201.5 -62.5t-175.5 -169.5l-163 -770 q-19 -8 -54 -8q-16 0 -28 2t-16 4z" />
<glyph unicode="o" horiz-adv-x="1101" d="M113 561q31 148 84.5 254.5t124 167t149.5 88t174 27.5q336 0 336 -350q0 -99 -27 -226q-31 -149 -84 -255.5t-123 -168.5t-150 -90t-177 -28q-206 0 -288 142q-46 80 -46 209q0 101 27 230zM187 351v-26q0 -64 12 -109q15 -54 48.5 -87.5t78.5 -48t106 -14.5 q318 0 420 473q22 107 25 188q1 14 1 26q0 64 -13 109q-15 54 -48 87.5t-78 48t-106 14.5q-69 0 -129.5 -23.5t-117 -76.5t-101 -147.5t-72.5 -225.5q-23 -107 -26 -188z" />
<glyph unicode="p" horiz-adv-x="1136" d="M-59 -494l331 1563q17 8 54 8q16 0 28.5 -2t16.5 -4l4 -2l-33 -151q139 180 369 180q94 0 159 -32t103.5 -101.5t40.5 -179.5v-14q0 -106 -29 -253q-32 -154 -81.5 -260t-116 -166t-142 -86t-172.5 -26q-99 0 -177.5 58.5t-109.5 141.5l-143 -674q-16 -8 -53 -8 q-16 0 -28.5 2t-16.5 4zM238 430q-7 -33 -7 -67q0 -48 15 -97q24 -84 86.5 -140t144.5 -56q169 0 260.5 107t145.5 362q28 132 28 225q0 84 -23 136q-50 108 -220 108q-138 0 -243.5 -100.5t-133.5 -229.5z" />
<glyph unicode="q" horiz-adv-x="1138" d="M113 561q32 153 83 259.5t119.5 166.5t145.5 85.5t174 25.5q107 0 182 -51t103 -129l32 151q15 8 52 8q16 0 29 -2t17 -4l5 -2l-332 -1563q-16 -8 -53 -8q-16 0 -28.5 2t-16.5 4l-4 2l139 654q-139 -180 -363 -180q-312 0 -312 344q0 103 28 237zM212 178 q47 -108 216 -108q135 0 242.5 99.5t138.5 227.5l59 281q6 34 6 67q0 44 -12 87q-20 75 -78.5 125.5t-142.5 50.5q-171 0 -269.5 -108.5t-152.5 -360.5q-30 -136 -30 -230q0 -81 23 -131z" />
<glyph unicode="r" horiz-adv-x="794" d="M47 8l225 1061q17 8 54 8q16 0 28.5 -2t16.5 -4l4 -2l-37 -166q37 54 79 92.5t75 57.5t73 29.5t61 12t52 1.5q41 0 79.5 -11t56 -20t26.5 -16q-16 -59 -68 -86q-62 36 -139 36t-162 -59.5t-164 -183.5l-157 -748q-17 -8 -54 -8q-16 0 -28.5 2t-16.5 4z" />
<glyph unicode="s" horiz-adv-x="905" d="M-6 45q7 52 45 80q14 -6 38 -15t94.5 -23.5t135.5 -14.5q122 0 205.5 51.5t105.5 157.5q5 26 5.5 48t-3 39.5t-13 33.5t-19.5 27.5t-27 22.5t-31.5 18.5t-37 16t-39.5 14t-43 13.5q-249 77 -249 253q0 30 7 62q60 269 412 269q74 0 138 -12t91 -24l27 -11q-3 -22 -17 -45 t-31 -35q-92 37 -217 37q-265 0 -307 -197q-5 -20 -4 -39q0 -22 6 -42q12 -36 43 -61t68 -42.5t88 -32.5q27 -9 47.5 -16.5t46.5 -18.5t45.5 -22.5t40.5 -27.5t35.5 -33t27 -40t18 -48t5 -57t-7.5 -67q-62 -284 -426 -284q-56 0 -107.5 6.5t-85.5 16t-60 19.5t-38 16z" />
<glyph unicode="t" horiz-adv-x="718" d="M139 991q-3 6 -3 16.5t3 26.5q3 14 7.5 24.5t7.5 14.5l4 4h164l43 203q44 26 89 26l17 -1l-47 -228h313q3 -7 3 -18t-3 -25q-3 -13 -7.5 -23.5t-7.5 -14.5l-3 -5h-313l-136 -631q-20 -93 -20 -154v-12q2 -64 41 -94t125 -30q26 0 59.5 2.5t53.5 5.5l20 2q1 -2 2 -5.5 t2 -15t-2 -24.5q-3 -12 -6.5 -22t-5.5 -13l-2 -4q-96 -16 -144 -16q-169 0 -217 94q-27 51 -26 131q0 66 18 153l135 633h-164z" />
<glyph unicode="u" d="M104 311l160 758q18 8 53 8q16 0 28.5 -2t16.5 -4l5 -2l-162 -762q-9 -43 -9 -77q0 -66 32 -104q48 -58 171 -58q98 0 201.5 61.5t175.5 169.5l164 770q18 8 53 8q16 0 28 -2t17 -4l4 -2l-225 -1061q-18 -8 -53 -8q-16 0 -28 2t-16 4l-5 2l33 148q-84 -89 -176.5 -132.5 t-206.5 -43.5q-146 0 -219 92q-51 64 -51 156q0 39 9 83z" />
<glyph unicode="v" horiz-adv-x="1026" d="M150 1069q20 8 57 8q14 0 25 -2t16 -4l4 -2l125 -741q8 -50 13 -101.5t6 -77.5l1 -26h6q41 86 109 201l438 745q17 8 60 8q15 0 27 -2t17 -4l5 -2l-623 -1061q-22 -8 -55 -8q-16 0 -28.5 2t-17.5 4l-5 2z" />
<glyph unicode="w" horiz-adv-x="1622" d="M160 1069q16 8 51 8q15 0 26.5 -2t16.5 -4l4 -2l84 -766q7 -74 7 -122q0 -32 -3 -52h6q1 1 11 26t29 65t42 83l414 766q20 8 63 8q12 0 22 -2t13 -4l4 -2l92 -762q7 -65 7 -112q0 -39 -5 -66h7q1 1 11 25t29.5 64.5t43.5 86.5l405 764q12 8 57 8q16 0 29.5 -2t19.5 -4 l5 -2l-568 -1061q-40 -8 -53 -8q-9 0 -49 8l-82 684q-16 139 -16 260h-6q-13 -53 -125 -260l-373 -684q-32 -8 -51 -8q-12 0 -52 8z" />
<glyph unicode="x" horiz-adv-x="999" d="M-72 8l492 541l-254 520q20 8 59 8q14 0 26 -2t17 -4l6 -2l222 -446l405 446q9 8 60 8q17 0 33 -2t23 -4l7 -2l-477 -522l264 -539q-20 -8 -59 -8q-14 0 -25.5 2t-16.5 4l-5 2l-232 463l-420 -463q-8 -10 -63 -10q-16 0 -31.5 2.5t-22.5 5.5z" />
<glyph unicode="y" d="M-20 -457q11 57 47 78q108 -41 239 -41q102 0 170.5 19.5t126.5 71t97 142t71 232.5l25 111q-84 -89 -174.5 -132.5t-204.5 -43.5q-161 0 -233 93q-50 64 -50 158q0 42 10 91l160 747q18 8 53 8q16 0 28.5 -2t16.5 -4l5 -2l-162 -762q-9 -43 -9 -77q0 -65 32 -104 q48 -58 171 -58q98 0 201.5 61.5t175.5 169.5l164 770q18 8 53 8q16 0 28 -2t17 -4l4 -2l-217 -1024q-31 -148 -72 -247t-106.5 -171.5t-160.5 -105.5t-230 -33q-78 0 -147 14t-99 28z" />
<glyph unicode="z" horiz-adv-x="923" d="M-41 0q0 37 2 47q3 12 6.5 21t6.5 15t3 7l799 897h-561q-4 14 2 45q3 15 7.5 26t7.5 15l4 4h673q0 -35 -2 -43q-4 -26 -18 -47l-797 -897h613q6 -12 0 -45q-4 -14 -8.5 -25t-7.5 -16l-3 -4h-727z" />
<glyph unicode="{" horiz-adv-x="696" d="M90 639q0 33 2 45q7 29 19 47h67q43 0 71 29.5t36 73.5l118 552q27 127 112 200t218 73h98l1 -8q1 -8 0.5 -17.5t-3.5 -19.5q-2 -10 -5.5 -19.5t-7 -17t-3.5 -8.5h-80q-187 0 -229 -187l-109 -512q-14 -71 -38 -114t-68 -70q32 -26 37.5 -73t-9.5 -113l-108 -512 q-42 -187 147 -187h80q5 -14 0 -45q-6 -27 -18 -45h-99q-133 0 -187.5 73.5t-27.5 199.5l119 553q8 45 -7 73.5t-58 28.5h-68z" />
<glyph unicode="|" horiz-adv-x="520" d="M-8 -395l426 2005q16 8 53 8q16 0 28.5 -2t16.5 -4l4 -2l-426 -2005q-16 -8 -53 -8q-16 0 -28.5 2t-16.5 4z" />
<glyph unicode="}" horiz-adv-x="694" d="M-113 -289q0 28 4 45q2 10 5 19.5t6.5 17t3.5 8.5h80q187 0 229 187l109 512q14 71 38 114t68 70q-32 26 -38 73t9 113l109 512q42 187 -148 187h-79q0 30 2 43q7 33 16 47h98q133 0 187.5 -73.5t27.5 -199.5l-118 -552q-8 -45 7 -74t58 -29h68l1 -8q1 -8 0.5 -17.5 t-3.5 -19.5q-4 -24 -19 -47h-67q-43 0 -71 -29t-36 -73l-119 -553q-27 -127 -111.5 -200t-217.5 -73h-99z" />
<glyph unicode="~" horiz-adv-x="1105" d="M168 606q4 4 10.5 11.5t30.5 26t50 32.5t67.5 25.5t85.5 11.5q45 0 85.5 -16.5t66.5 -36t65 -36t82 -16.5q44 0 87 18.5t64 37.5l21 18q46 -9 49 -57q-4 -4 -10.5 -11.5t-30 -26.5t-50 -33t-69.5 -26t-88 -12t-86 16.5t-67 36t-65.5 36t-82.5 16.5q-44 0 -86.5 -18.5 t-62.5 -36.5l-21 -19q-45 9 -45 59z" />
<glyph unicode="&#xa1;" horiz-adv-x="489" d="M-29 -406l256 1131q12 10 41 10q12 0 21 -2.5t13 -4.5l3 -3l-223 -1131q-4 -8 -57 -8zM246 938l24 115q25 8 68 8q19 0 35 -2t22 -4l6 -2l-24 -115q-25 -8 -68 -8q-19 0 -35 2t-22 4z" />
<glyph unicode="&#xa2;" horiz-adv-x="942" d="M115 539q55 258 183.5 400t317.5 157l29 188q24 8 53 8q35 0 47 -8l-49 -186q63 -3 114 -15t71 -23l20 -11q-10 -53 -51 -78q-7 4 -21 10t-62 16.5t-101 10.5q-176 0 -285.5 -117t-159.5 -352q-51 -235 11.5 -350t242.5 -115q56 0 109 11t78 21l26 11q28 -20 21 -78 q-11 -6 -31.5 -15t-85.5 -25t-133 -19l-31 -187q-25 -10 -53 -10q-27 0 -47 10l51 189q-183 15 -251 157.5t-13 399.5z" />
<glyph unicode="&#xa3;" horiz-adv-x="1054" d="M20 0l21 98q77 57 131 115.5t82 111.5t43 108.5t14 107t-4 106.5h-170l-1 9q-1 8 -0.5 16.5t3.5 17.5q7 32 17 43h143q-19 159 -15 230q2 46 11 88q40 185 170 274.5t323 89.5q74 0 147.5 -13t105 -23.5t49.5 -18.5q-7 -57 -52 -82q-11 5 -41 14.5t-93.5 20t-125.5 10.5 q-311 0 -372 -279q-3 -15 -5 -31t-3 -29t-1 -31.5v-29.5t1.5 -32t2 -30t3.5 -32.5t3.5 -30.5t4 -33t4.5 -32h399q6 -19 2 -41q-6 -31 -20 -45h-373q5 -74 -1 -135t-29.5 -132.5t-78 -142.5t-139.5 -139h641q7 -7 0 -49q-6 -39 -20 -49h-777z" />
<glyph unicode="&#xa4;" horiz-adv-x="1204" d="M42 149l1 5l184 151q-63 110 -34 250q27 139 141 250l-121 151q6 19 29 39q13 9 23.5 14t14.5 6l5 1l125 -152q130 88 264 88q132 0 227 -88l180 152q17 -1 35 -21q7 -9 10.5 -18.5t3.5 -14.5v-6l-182 -151q65 -112 39 -250q-29 -139 -143 -250l121 -151q-6 -19 -29 -37 q-12 -11 -22.5 -17t-15.5 -6h-5l-123 152q-130 -88 -266 -88q-137 0 -232 88l-182 -152q-17 0 -35 23q-7 9 -10 18t-3 14zM276 555q-29 -131 43 -222t203 -91q132 0 242 90.5t139 222.5q28 132 -44 222.5t-204 90.5q-131 0 -241 -90.5t-138 -222.5z" />
<glyph unicode="&#xa5;" horiz-adv-x="1236" d="M135 342q0 8 2 16q2 9 5.5 17t7 14t4.5 8h350l35 162h-351q0 1 -1 7.5t-1 14.5t2 17q4 19 17 39h315l-291 754q21 10 58 10q18 0 32.5 -2t19.5 -4l5 -2l272 -713l596 713q21 8 58 8q16 0 29.5 -2t18.5 -4l5 -2l-635 -756h316q0 -1 1 -7.5t1 -14.5t-2 -17q-2 -8 -17 -39 h-350l-35 -162h350q6 -11 0 -39q-4 -21 -16 -39h-350l-66 -311q-14 -8 -51 -8q-16 0 -28 2t-15 4l-4 2l65 311h-350q0 1 -1 8t-1 15z" />
<glyph unicode="&#xa6;" horiz-adv-x="524" d="M39 -176l336 1587q18 8 55 8q16 0 29 -2t17 -4l5 -2l-336 -1587q-18 -8 -55 -8q-16 0 -29 2t-17 4z" />
<glyph unicode="&#xa7;" horiz-adv-x="993" d="M29 29q4 55 41 80q156 -39 264 -39q155 0 237.5 42t102.5 136q9 42 -10.5 74t-58 51t-89 37.5t-104.5 33t-103.5 37t-86 49.5t-53 72t-3.5 103q32 143 211 243q-123 74 -94 211q27 125 130.5 189.5t266.5 64.5q68 0 133 -10.5t92 -18.5t41 -14q0 -21 -11.5 -43.5 t-29.5 -32.5q-11 4 -36.5 10.5t-81.5 15.5t-103 9q-141 0 -212 -43.5t-89 -124.5q-9 -43 9 -76.5t54 -53.5t84 -39t99 -33.5t98 -37t82 -49.5t50 -71t3 -101q-31 -140 -196 -235q67 -36 97.5 -87t14.5 -130q-59 -268 -444 -268q-81 0 -157 12.5t-112 24.5zM270 719 q-8 -36 2 -65t28.5 -47t56 -35t67.5 -26t80.5 -23.5t79.5 -24.5q153 84 174 190q7 34 -2.5 61.5t-29 45.5t-55 35t-66 27.5t-77.5 25.5t-75 26q-161 -85 -183 -190z" />
<glyph unicode="&#xa8;" horiz-adv-x="931" d="M199 1260l22 108q23 6 64 6q18 0 33 -1.5t20 -2.5l6 -2l-22 -108q-23 -9 -64 -9q-18 0 -33 2.5t-21 4.5zM504 1260l22 108q23 6 64 6q18 0 33 -1.5t21 -2.5l5 -2l-22 -108q-23 -9 -64 -9q-18 0 -33 2.5t-20 4.5z" />
<glyph unicode="&#xa9;" horiz-adv-x="1650" d="M138.5 477q-10.5 103 11.5 219q40 188 166.5 347t305.5 251t367 92t327.5 -92t197.5 -251t18 -347q-30 -141 -112 -269t-194 -221t-251.5 -147.5t-280.5 -54.5q-113 0 -211.5 35t-169 98t-117.5 150t-57.5 190zM217.5 502.5q9.5 -91.5 51.5 -168.5t105 -133t150 -87.5 t187 -31.5q166 0 324.5 82.5t271 224t147.5 307.5q19 102 10 193.5t-51 168.5t-104 132.5t-149 87t-187 31.5q-166 0 -325.5 -82t-272.5 -223.5t-148 -307.5q-19 -102 -9.5 -193.5zM502 711q87 407 434 407q60 0 109 -11t69 -23l19 -11q-6 -37 -43 -63q-70 37 -158 37 q-140 0 -222 -78.5t-120 -257.5q-72 -334 198 -334q43 0 88.5 8.5t69.5 16.5l25 8q25 -15 18 -62q-10 -5 -28 -13t-77 -21t-122 -13q-171 0 -236.5 105.5t-23.5 304.5z" />
<glyph unicode="&#xaa;" horiz-adv-x="739" d="M88 436q-3 30 14 64h463q3 -30 -14 -64h-463zM158 803q43 192 274 192q45 0 170 -10l16 80q18 84 -12 122t-108 38q-42 0 -88 -8.5t-72 -16.5l-25 -8q-18 26 -8 57q104 41 217 41q112 0 153 -53.5t19 -161.5l-96 -448q-13 -9 -31 -9q-9 0 -16 2t-9 4l-3 3l8 86 q-40 -51 -102 -79t-134 -28q-88 0 -130.5 52.5t-22.5 144.5zM231 803q-25 -133 109 -133q85 0 150 53t88 145l12 60q-100 8 -160 8q-88 0 -136 -32t-63 -101z" />
<glyph unicode="&#xab;" horiz-adv-x="1013" d="M94 508q-6 16 0 43q3 13 7.5 24t8.5 16l3 5l516 446q29 -20 22 -69l-465 -420l287 -422q-14 -50 -53 -70zM440 510q-4 14 2 41q3 13 7 23.5t7 15.5l3 4l471 407q27 -18 20 -67l-418 -381l256 -383q-14 -50 -49 -68z" />
<glyph unicode="&#xac;" horiz-adv-x="1224" d="M168 807q-6 16 0 45q4 14 8.5 25.5t7.5 16.5l2 5h918l-111 -520q-18 -8 -49 -8q-14 0 -24.5 2t-14.5 4l-4 2l92 428h-825z" />
<glyph unicode="&#xad;" horiz-adv-x="548" />
<glyph unicode="&#xae;" horiz-adv-x="1099" d="M195 965q38 177 188.5 301.5t327.5 124.5t275.5 -124.5t60.5 -301.5q-37 -177 -188.5 -301.5t-328.5 -124.5q-116 0 -201.5 57t-121.5 155t-12 214zM246 965q-34 -156 52.5 -266.5t242.5 -110.5t288 110t166 267t-52 266.5t-243 109.5q-155 0 -287.5 -109.5 t-166.5 -266.5zM428 745l98 461h179q73 0 102.5 -35t15.5 -100q-19 -97 -116 -125l77 -198q-12 -9 -30 -9q-8 0 -15 1.5t-11 3.5l-3 1l-74 195h-129l-43 -195q-10 -6 -24 -6q-7 0 -14 1.5t-10 3.5zM530 985h127q51 0 77.5 21.5t35.5 64.5q9 46 -8 68t-68 22h-127z" />
<glyph unicode="&#xaf;" horiz-adv-x="833" d="M66 1290q-12 38 16 82h596q11 -33 -16 -82h-596z" />
<glyph unicode="&#xb0;" horiz-adv-x="737" d="M250 1264q22 99 105 173t200 74q116 0 164.5 -72t28.5 -169q-22 -99 -101.5 -171.5t-195.5 -72.5q-121 0 -171.5 70t-29.5 168zM313 1266q-15 -76 21 -129.5t127 -53.5q88 0 147.5 54t75.5 131q15 77 -20 131.5t-123 54.5t-150 -56.5t-78 -131.5z" />
<glyph unicode="&#xb1;" horiz-adv-x="1056" d="M109 293q-4 14 2 43q3 13 7 23.5t6 14.5l3 5h692q6 -14 0 -43q-3 -13 -7.5 -23.5t-7.5 -14.5l-3 -5h-692zM213 780q-6 14 0 43q3 13 7.5 23.5t7.5 15.5l3 4h304l51 242q16 8 45 8q13 0 23 -2t14 -4l4 -2l-51 -242h303q4 -14 -2 -43q-3 -13 -7 -23.5t-7 -15.5l-3 -4h-303 l-51 -241q-16 -9 -45 -9q-13 0 -23 2t-14 4l-4 3l51 241h-303z" />
<glyph unicode="&#xb2;" horiz-adv-x="618" d="M104 709q-1 37 9 84q12 57 42.5 101t70 72t85.5 50.5t91 42.5t83.5 41.5t66 53.5t36.5 73q13 58 -20 94.5t-124 36.5q-32 0 -69 -5t-58 -9.5t-24 -6.5q-18 24 -4 58q76 26 180 26q118 0 165.5 -50.5t29.5 -137.5q-15 -72 -66 -122t-114.5 -79.5t-126.5 -58.5t-112 -78 t-61 -119h373q3 -16 0 -35q-3 -18 -14 -32h-439z" />
<glyph unicode="&#xb3;" horiz-adv-x="618" d="M102 729q4 34 29 53q68 -20 154 -20q116 0 166.5 37.5t64.5 103.5q14 72 -23.5 106.5t-113.5 34.5h-90q-7 32 14 64h90q69 0 112.5 33.5t55.5 91.5q12 62 -21.5 93.5t-109.5 31.5q-40 0 -81 -5t-62 -9l-21 -5q-17 20 -4 56q75 26 184 26q112 0 162 -47t31 -135 q-14 -59 -45 -97t-86 -63q54 -24 75 -64.5t5 -115.5q-42 -201 -314 -201q-47 0 -90 8t-62 16z" />
<glyph unicode="&#xb4;" horiz-adv-x="458" d="M35 1352l293 303q29 1 53 -12t33 -35l-320 -295q-46 6 -59 39z" />
<glyph unicode="&#xb5;" horiz-adv-x="1189" d="M1 -491q0 11 1.5 53t7 92.5t19 135.5t34.5 181l234 1098q18 8 53 8q17 0 29.5 -2t16.5 -4l3 -2l-163 -766q-48 -235 198 -235q107 0 209 67t166 162l164 772q16 8 53 8q16 0 28.5 -2t16.5 -4l4 -2l-225 -1061q-16 -8 -53 -8q-16 0 -28.5 2t-16.5 4l-4 2l32 154 q-168 -182 -383 -182q-158 0 -219 96q-36 -194 -50.5 -334t-10.5 -184l4 -43q-24 -18 -58 -24.5t-61 1.5q-1 6 -1 17z" />
<glyph unicode="&#xb6;" horiz-adv-x="960" d="M72 -457l299 1413q-109 3 -153.5 73t-24.5 165q22 97 99.5 167.5t188.5 70.5h80l-401 -1889q-16 -8 -47 -8q-15 0 -25 2t-13 4zM422 -457l399 1880q14 9 47 9q14 0 24 -2t14 -4l3 -3l-399 -1880q-14 -8 -45 -8q-15 0 -25.5 2t-13.5 4z" />
<glyph unicode="&#xb7;" horiz-adv-x="452" d="M143 528l23 107q22 8 63 8q18 0 33 -2t21 -4l6 -2l-23 -107q-22 -8 -63 -8q-18 0 -33 2t-21 4z" />
<glyph unicode="&#xb8;" horiz-adv-x="606" d="M-297 -391q11 37 41 57l9 -4q9 -5 21.5 -9.5t29.5 -9.5t39.5 -8.5t45.5 -3.5q151 0 181 133q11 56 -19.5 85.5t-99.5 29.5h-66l-10 21l72 186l67 -10l-51 -129q116 0 162 -48.5t27 -136.5q-44 -200 -279 -200q-47 0 -89.5 12t-61.5 24z" />
<glyph unicode="&#xb9;" horiz-adv-x="495" d="M193 1264q72 18 143 57t121 84q12 6 37 6q23 0 32 -6l-147 -692q-16 -4 -33 -4q-27 0 -39 4l111 518q5 29 18 82q-116 -84 -239 -111q-18 21 -4 62z" />
<glyph unicode="&#xba;" horiz-adv-x="776" d="M109 436q0 25 2 33q3 22 12 31h471v-31q-6 -25 -14 -33h-471zM190 948q38 178 120 260t216 82q135 0 182.5 -81t8.5 -261q-38 -180 -120 -262t-216 -82t-181.5 82t-9.5 262zM263.5 733q29.5 -63 129.5 -63t158 64t90 214q31 149 0.5 214t-129.5 65q-100 0 -157 -65 t-89 -214q-32 -152 -2.5 -215z" />
<glyph unicode="&#xbb;" horiz-adv-x="1013" d="M33 170l418 383l-256 381q15 49 49 67l299 -407q2 -14 -4 -43q-3 -12 -6.5 -22t-6.5 -15l-2 -4l-471 -408q-27 18 -20 68zM332 131l463 422l-285 420q14 46 51 69l328 -446q4 -16 -2 -45q-3 -12 -7 -22.5t-7 -15.5l-3 -5l-518 -447q-26 23 -20 70z" />
<glyph unicode="&#xbc;" horiz-adv-x="1316" d="M86 -14l1102 1444q14 8 43 8q12 0 20.5 -2t11.5 -4l3 -2l-1100 -1444q-14 -6 -41 -6q-11 0 -21 1.5t-14 2.5zM213 1264q72 18 142 57t120 84q15 6 37 6q23 0 35 -6l-148 -692q-16 -4 -34 -4q-25 0 -37 4l110 518q2 12 19 82q-116 -83 -240 -111q-18 21 -4 62zM606 213 q3 16 12 25l459 458q18 6 39 6t33 -6l-94 -442h86q5 -14 0 -31q-3 -13 -13 -33h-86l-38 -184q-18 -6 -33 -6q-27 0 -33 6l39 184h-369q-4 9 -2 23zM709 254h280l76 350z" />
<glyph unicode="&#xbd;" horiz-adv-x="1431" d="M86 -14l1102 1444q14 8 43 8q12 0 20.5 -2t11.5 -4l3 -2l-1100 -1444q-14 -6 -41 -6q-11 0 -21 1.5t-14 2.5zM213 1264q72 18 142 57t120 84q15 6 37 6q23 0 35 -6l-148 -692q-16 -4 -34 -4q-25 0 -37 4l110 518q2 12 19 82q-116 -83 -240 -111q-18 21 -4 62zM750 0 q0 37 10 84q12 57 42.5 101t70 72t85.5 50.5t91 42.5t83.5 41.5t66 53.5t36.5 73q12 58 -21.5 94.5t-123.5 36.5q-32 0 -69.5 -4.5t-58.5 -9t-24 -6.5q-16 26 -4 57q78 27 182 27q118 0 165.5 -51t27.5 -138q-11 -53 -41 -94t-70 -67t-86 -47.5t-92 -43.5t-85 -47t-67.5 -65 t-38.5 -92h373q6 -16 0 -35q-3 -20 -14 -33h-438z" />
<glyph unicode="&#xbe;" horiz-adv-x="1425" d="M127 729q4 34 29 53q67 -20 153 -20q116 0 167 37.5t65 103.5q14 72 -24 106.5t-114 34.5h-90q-7 31 15 64h90q69 0 112.5 33.5t55.5 91.5q12 62 -21.5 93.5t-109.5 31.5q-40 0 -81 -5t-62 -9l-21 -5q-17 20 -4 56q75 26 184 26q112 0 162 -47t31 -135 q-26 -113 -132 -160q54 -24 75 -64.5t5 -115.5q-42 -201 -313 -201q-47 0 -90 8t-63 16zM195 -14l1101 1444q14 8 43 8q12 0 20.5 -2t11.5 -4l3 -2l-1100 -1444q-14 -6 -41 -6q-11 0 -20.5 1.5t-13.5 2.5zM715 215q3 14 12 23l459 458q18 6 39 6q20 0 32 -6l-94 -442h86 q5 -14 0 -31q-4 -16 -12 -33h-86l-39 -184q-18 -6 -33 -6q-26 0 -32 6l38 184h-368q-5 9 -2 25zM817 254h281l76 350z" />
<glyph unicode="&#xbf;" horiz-adv-x="856" d="M-41 -20q17 83 52.5 148.5t78.5 109t92 81t98.5 75.5t92.5 81t78.5 107.5t52.5 146.5q14 8 43 8q13 0 23.5 -2t15.5 -4l4 -2q-20 -95 -56 -169t-78 -121t-88.5 -86t-92.5 -73.5t-86 -72.5t-72 -94t-47 -127q-23 -111 31 -176.5t198 -65.5q75 0 145.5 13t103.5 25l34 13 q15 -12 19.5 -34t-3.5 -44q-15 -7 -43.5 -18t-114.5 -29t-172 -18q-185 0 -263 91t-46 237zM526 942l25 115q22 8 65 8q19 0 35 -2t23 -4l6 -2l-25 -115q-22 -8 -65 -8q-19 0 -35 2t-23 4z" />
<glyph unicode="&#xc0;" horiz-adv-x="1310" d="M-92 8l872 1458q21 9 56 9q16 0 28.5 -2.5t17.5 -4.5l5 -2l254 -1458q-21 -8 -60 -8q-13 0 -24.5 2t-16.5 4l-6 2l-73 418h-691l-252 -418q-18 -8 -63 -8q-16 0 -27.5 2t-15.5 4zM324 520h622l-123 711q-4 29 -6.5 55.5t-2.5 38.5l-1 12h-4q-20 -43 -55 -106zM698 1841 q18 21 48.5 34.5t58.5 12.5l162 -303q-26 -33 -76 -39z" />
<glyph unicode="&#xc1;" horiz-adv-x="1310" d="M-92 8l872 1458q21 9 56 9q16 0 28.5 -2.5t17.5 -4.5l5 -2l254 -1458q-21 -8 -60 -8q-16 0 -27.5 2t-15.5 4l-4 2l-73 418h-691l-252 -418q-24 -8 -63 -8q-16 0 -27.5 2t-15.5 4zM324 520h622l-123 711q-4 29 -6.5 55.5t-2.5 38.5l-1 12h-4q-20 -43 -55 -106zM766 1587 l291 303q29 1 53 -12t33 -35l-318 -295q-46 6 -59 39z" />
<glyph unicode="&#xc2;" horiz-adv-x="1310" d="M-92 8l872 1458q21 9 56 9q16 0 28.5 -2.5t17.5 -4.5l5 -2l254 -1458q-21 -8 -60 -8q-13 0 -24.5 2t-16.5 4l-6 2l-73 418h-691l-252 -418q-18 -8 -63 -8q-16 0 -27.5 2t-15.5 4zM324 520h622l-123 711q-4 29 -6.5 55.5t-2.5 38.5l-1 12h-4q-20 -43 -55 -106zM578 1628 l307 213h53l215 -213q-23 -45 -61 -53l-197 172l-270 -178q-44 18 -47 59z" />
<glyph unicode="&#xc3;" horiz-adv-x="1310" d="M-92 8l872 1458q21 9 56 9q16 0 28.5 -2.5t17.5 -4.5l5 -2l254 -1458q-21 -8 -60 -8q-13 0 -24.5 2t-16.5 4l-6 2l-73 418h-691l-252 -418q-24 -8 -63 -8q-16 0 -27.5 2t-15.5 4zM324 520h622l-123 711q-4 29 -6.5 55.5t-2.5 38.5l-1 12h-4q-20 -43 -55 -106zM610 1638 l5.5 11t16.5 25t29 31.5t43 25t58 12.5q55 0 123.5 -37t105.5 -37q25 1 48 15t33 28l11 14q46 0 60 -34q-2 -4 -5.5 -10.5t-17.5 -24t-30 -30.5t-44 -24t-59 -12q-43 -1 -83 17.5t-75.5 37t-68.5 17.5q-25 0 -48.5 -14.5t-34.5 -29.5l-11 -15q-22 0 -37.5 9.5t-18.5 24.5z " />
<glyph unicode="&#xc4;" horiz-adv-x="1310" d="M-92 8l872 1458q21 9 56 9q16 0 28.5 -2.5t17.5 -4.5l5 -2l254 -1458q-21 -8 -60 -8q-13 0 -24.5 2t-16.5 4l-6 2l-73 418h-691l-252 -418q-18 -8 -63 -8q-16 0 -27.5 2t-15.5 4zM324 520h622l-123 711q-4 29 -6.5 55.5t-2.5 38.5l-1 12h-4q-20 -43 -55 -106zM645 1593 l25 109q18 6 61 6q17 0 32 -1.5t21 -2.5l7 -2l-25 -109q-22 -8 -61 -8q-19 0 -34 2t-21 4zM948 1593l25 109q20 6 61 6q18 0 33.5 -1.5t22.5 -2.5l6 -2l-25 -109q-22 -8 -63 -8q-18 0 -33 2t-21 4z" />
<glyph unicode="&#xc5;" horiz-adv-x="1310" d="M-92 8l848 1415q-72 16 -106.5 70t-16.5 137q22 101 103.5 159t176.5 58t154 -58t37 -159q-18 -82 -75.5 -135.5t-133.5 -69.5l246 -1417q-21 -8 -60 -8q-16 0 -27.5 2t-15.5 4l-4 2l-73 418h-691l-252 -418q-18 -8 -63 -8q-16 0 -27.5 2t-15.5 4zM324 520h622l-123 711 q-4 29 -6.5 55.5t-2.5 38.5l-1 12h-4q-20 -43 -55 -106zM713 1630q-12 -61 17.5 -104t103.5 -43q75 0 127 44t63 103q13 61 -20 103.5t-109 42.5q-72 0 -120.5 -43t-61.5 -103z" />
<glyph unicode="&#xc6;" horiz-adv-x="1742" d="M-104 8l1198 1467h704q13 -45 -20 -95h-586l-125 -585h483q9 -49 -18 -95h-483l-129 -606h606q10 -48 -21 -94h-704l86 406h-547l-324 -398q-36 -8 -63 -8q-41 0 -57 8zM416 500h491l172 815z" />
<glyph unicode="&#xc7;" horiz-adv-x="1130" d="M166 760q82 376 254 555.5t450 179.5q99 0 181 -17t115 -34l32 -17q0 -18 -14 -43q-7 -13 -16.5 -22.5t-15.5 -12.5l-5 -3q-12 6 -35 15t-97 24.5t-151 15.5q-107 0 -193.5 -32.5t-164 -107t-137.5 -206.5t-101 -320q-32 -151 -35 -265.5t19.5 -189t71 -120.5t111.5 -65 t149 -19q84 0 166 14t122 28l39 13q15 -8 21 -35q2 -14 1 -25t-3 -17l-2 -7q-6 -3 -16.5 -7.5t-47 -16t-77 -20.5t-104 -16t-130.5 -7l-51 -95q116 0 159.5 -46t24.5 -134q-39 -194 -276 -194q-47 0 -89.5 11.5t-61.5 23.5l-19 12q11 37 41 57l9 -5q8 -4 20.5 -8.5t29 -9.5 t39 -8.5t45.5 -3.5q153 0 178 123q12 56 -18 85.5t-99 29.5h-65l-12 20l79 146q-236 22 -316 219t-5 557z" />
<glyph unicode="&#xc8;" horiz-adv-x="1138" d="M80 0l313 1475h801q3 -21 -2 -45q-7 -34 -18 -50h-695l-125 -585h592q3 -21 0 -45q-6 -27 -18 -48h-592l-129 -608h715q0 -37 -2 -45q-6 -26 -19 -49h-821zM637 1841q18 21 48 34.5t58 12.5l162 -303q-26 -33 -76 -39z" />
<glyph unicode="&#xc9;" horiz-adv-x="1138" d="M80 0l313 1475h801q3 -21 -2 -45q-7 -34 -18 -50h-695l-125 -585h592q3 -21 0 -45q-6 -27 -18 -48h-592l-129 -608h715q0 -37 -2 -45q-6 -26 -19 -49h-821zM659 1589l291 303q30 1 53.5 -12t32.5 -35l-317 -295q-47 6 -60 39z" />
<glyph unicode="&#xca;" horiz-adv-x="1138" d="M80 0l313 1475h801q3 -21 -2 -45q-7 -34 -18 -50h-695l-125 -585h592q3 -21 0 -45q-6 -27 -18 -48h-592l-129 -608h715q0 -37 -2 -45q-6 -26 -19 -49h-821zM530 1628l308 213h53l215 -213q-24 -47 -62 -55l-202 174l-273 -176q-36 14 -39 57z" />
<glyph unicode="&#xcb;" horiz-adv-x="1138" d="M80 0l313 1475h801q3 -21 -2 -45q-7 -34 -18 -50h-695l-125 -585h592q3 -21 0 -45q-6 -27 -18 -48h-592l-129 -608h715q0 -37 -2 -45q-6 -26 -19 -49h-821zM612 1577l23 109q22 6 63 6q17 0 31.5 -1.5t20.5 -2.5l6 -2l-23 -109q-22 -8 -61 -8q-18 0 -33 2t-21 4z M918 1577l22 109q20 6 61 6q18 0 33 -1.5t21 -2.5l6 -2l-23 -109q-22 -8 -63 -8q-18 0 -32.5 2t-19.5 4z" />
<glyph unicode="&#xcc;" horiz-adv-x="530" d="M82 8l309 1458q18 9 55 9q16 0 29 -2.5t18 -4.5l5 -2l-310 -1458q-18 -8 -55 -8q-17 0 -30 2t-17 4zM322 1841q18 21 48 34.5t58 12.5l162 -303q-26 -33 -76 -39z" />
<glyph unicode="&#xcd;" horiz-adv-x="530" d="M82 8l309 1458q18 9 55 9q16 0 29 -2.5t18 -4.5l5 -2l-310 -1458q-18 -8 -55 -8q-17 0 -30 2t-17 4zM324 1589l290 303q30 1 53.5 -12t32.5 -35l-317 -295q-46 6 -59 39z" />
<glyph unicode="&#xce;" horiz-adv-x="530" d="M82 8l309 1458q18 9 55 9q16 0 29 -2.5t18 -4.5l5 -2l-310 -1458q-18 -8 -55 -8q-17 0 -30 2t-17 4zM190 1628l308 213h53l215 -213q-25 -48 -55 -55l-203 174l-272 -176q-43 17 -46 57z" />
<glyph unicode="&#xcf;" horiz-adv-x="530" d="M82 8l309 1458q18 9 55 9q16 0 29 -2.5t18 -4.5l5 -2l-310 -1458q-18 -8 -55 -8q-17 0 -30 2t-17 4zM256 1577l23 109q22 6 63 6q18 0 33 -1.5t21 -2.5l5 -2l-22 -109q-23 -8 -64 -8q-18 0 -33 2t-20 4zM561 1577l23 109q22 6 63 6q18 0 33 -1.5t21 -2.5l6 -2l-23 -109 q-22 -8 -63 -8q-18 0 -33 2t-21 4z" />
<glyph unicode="&#xd0;" horiz-adv-x="1368" d="M66 690q-3 35 16 82h174l150 703h393q119 0 207.5 -24.5t151.5 -80t93.5 -143t29 -215.5t-37.5 -295q-44 -209 -109 -349t-157.5 -221t-203.5 -114t-263 -33h-418l148 690h-174zM219 94h289q124 0 215 28.5t171 99.5t138 198t98 317q33 153 36 265t-20.5 184.5t-76 116 t-122 60.5t-167.5 17h-288l-130 -608h300q3 -33 -17 -82h-299z" />
<glyph unicode="&#xd1;" horiz-adv-x="1425" d="M80 8l309 1458q25 9 66 9q19 0 34 -2.5t20 -4.5l5 -2l502 -1325h4q14 113 49 273l223 1052q17 9 54 9q16 0 27.5 -2.5t15.5 -4.5l4 -2l-310 -1458q-20 -8 -63 -8q-19 0 -34.5 2t-21.5 4l-6 2l-497 1309h-4q-13 -71 -54 -268l-221 -1041q-18 -8 -55 -8q-15 0 -26.5 2 t-16.5 4zM686 1634q2 4 5.5 9.5t16.5 21t28.5 27t43 21t58.5 9.5q55 0 122 -35.5t103 -35.5q26 0 51.5 13.5t37.5 26.5l13 13q17 -5 30.5 -20.5t12.5 -32.5q-10 -15 -25 -30.5t-50.5 -33.5t-75.5 -18q-55 0 -122 36.5t-104 36.5q-26 0 -51.5 -15t-37.5 -29l-13 -15 q-40 17 -43 51z" />
<glyph unicode="&#xd2;" horiz-adv-x="1384" d="M148 325q-35 174 22 439q82 384 256 557.5t440 173.5q265 0 371.5 -193.5t22.5 -580.5q-83 -389 -252.5 -565t-434.5 -176q-175 0 -282.5 85.5t-142.5 259.5zM245.5 481.5q-0.5 -113.5 24 -189t70 -126t104 -72.5t129.5 -22q212 0 359.5 157.5t220.5 507.5 q31 143 33 256.5t-20.5 189.5t-67 126t-104.5 72t-136 22q-212 0 -359.5 -157t-222.5 -509q-30 -142 -30.5 -255.5zM778 1841q18 21 48.5 34.5t58.5 12.5l151 -289q-26 -33 -75 -36z" />
<glyph unicode="&#xd3;" horiz-adv-x="1384" d="M148 325q-35 174 22 439q82 384 256 557.5t440 173.5q265 0 371.5 -193.5t22.5 -580.5q-83 -389 -252.5 -565t-434.5 -176q-175 0 -282.5 85.5t-142.5 259.5zM245.5 481.5q-0.5 -113.5 24 -189t70 -126t104 -72.5t129.5 -22q212 0 359.5 157.5t220.5 507.5 q31 143 33 256.5t-20.5 189.5t-67 126t-104.5 72t-136 22q-212 0 -359.5 -157t-222.5 -509q-30 -142 -30.5 -255.5zM879 1614l278 289q31 2 55 -11.5t33 -36.5l-305 -278q-49 6 -61 37z" />
<glyph unicode="&#xd4;" horiz-adv-x="1384" d="M148 325q-35 174 22 439q82 384 256 557.5t440 173.5q265 0 371.5 -193.5t22.5 -580.5q-83 -389 -252.5 -565t-434.5 -176q-175 0 -282.5 85.5t-142.5 259.5zM245.5 481.5q-0.5 -113.5 24 -189t70 -126t104 -72.5t129.5 -22q212 0 359.5 157.5t220.5 507.5 q31 143 33 256.5t-20.5 189.5t-67 126t-104.5 72t-136 22q-212 0 -359.5 -157t-222.5 -509q-30 -142 -30.5 -255.5zM621 1628l307 213h53l215 -213q-25 -48 -55 -55l-203 174l-272 -176q-42 17 -45 57z" />
<glyph unicode="&#xd5;" horiz-adv-x="1384" d="M148 325q-35 174 22 439q82 384 256 557.5t440 173.5q265 0 371.5 -193.5t22.5 -580.5q-83 -389 -252.5 -565t-434.5 -176q-175 0 -282.5 85.5t-142.5 259.5zM245.5 481.5q-0.5 -113.5 24 -189t70 -126t104 -72.5t129.5 -22q212 0 359.5 157.5t220.5 507.5 q31 143 33 256.5t-20.5 189.5t-67 126t-104.5 72t-136 22q-212 0 -359.5 -157t-222.5 -509q-30 -142 -30.5 -255.5zM668 1671q1 4 4 9.5t14.5 21t26 27.5t41 22.5t57.5 11.5q55 2 124.5 -31t104.5 -32q27 1 53 15.5t38 28.5l12 15q34 -10 37 -47q-1 -4 -4 -10t-14.5 -21.5 t-26.5 -28t-41.5 -23t-57.5 -11.5q-53 -2 -122.5 32t-106.5 33q-27 -1 -52 -15.5t-37 -29.5l-11 -14q-34 18 -39 47z" />
<glyph unicode="&#xd6;" horiz-adv-x="1384" d="M148 325q-35 174 22 439q82 384 256 557.5t440 173.5q265 0 371.5 -193.5t22.5 -580.5q-83 -389 -252.5 -565t-434.5 -176q-175 0 -282.5 85.5t-142.5 259.5zM245.5 481.5q-0.5 -113.5 24 -189t70 -126t104 -72.5t129.5 -22q212 0 359.5 157.5t220.5 507.5 q31 143 33 256.5t-20.5 189.5t-67 126t-104.5 72t-136 22q-212 0 -359.5 -157t-222.5 -509q-30 -142 -30.5 -255.5zM688 1618l23 108q22 7 63 7q18 0 33 -1.5t21 -3.5l6 -2l-23 -108q-22 -8 -63 -8q-18 0 -33 2t-21 4zM993 1618l23 108q22 7 63 7q17 0 32 -1.5t21 -3.5l7 -2 l-23 -108q-24 -8 -63 -8q-18 0 -33 2t-21 4z" />
<glyph unicode="&#xd7;" horiz-adv-x="933" d="M106 354l285 238l-184 237q10 19 37 37q10 10 21 17.5t17 9.5l5 2l186 -236l289 236q17 -6 31 -29q8 -8 13 -17t6 -15l1 -5l-287 -237l187 -238q-10 -19 -37 -37q-10 -10 -21 -17t-17 -9l-5 -2l-189 235l-286 -235q-17 5 -31 28q-8 8 -13.5 17.5t-6.5 14.5z" />
<glyph unicode="&#xd8;" horiz-adv-x="1382" d="M27 -51l174 223q-114 207 -31 592q82 384 256 557.5t440 173.5q182 0 291 -92l125 162q45 -9 76 -43l-144 -183q135 -199 46 -618q-83 -389 -252.5 -565t-434.5 -176q-210 0 -323 122l-152 -194q-50 10 -71 41zM276 272l816 1047q-87 84 -234 84q-212 0 -359.5 -157 t-222.5 -509q-62 -300 0 -465zM319 190q83 -118 254 -118q212 0 359.5 157.5t220.5 507.5q72 337 -10 508z" />
<glyph unicode="&#xd9;" horiz-adv-x="1368" d="M166 467l213 999q20 9 55 9q16 0 29.5 -2.5t18.5 -4.5l5 -2l-215 -1013q-38 -182 39.5 -281.5t257.5 -99.5q179 0 300 100t159 281l215 1013q18 9 53 9q16 0 29 -2.5t18 -4.5l5 -2l-213 -999q-49 -233 -198.5 -360t-369.5 -127q-224 0 -336.5 130t-64.5 357zM719 1841 q18 21 48 34.5t58 12.5l150 -284q-23 -33 -76 -39z" />
<glyph unicode="&#xda;" horiz-adv-x="1368" d="M166 467l213 999q20 9 55 9q16 0 29.5 -2.5t18.5 -4.5l5 -2l-215 -1013q-38 -182 39.5 -281.5t257.5 -99.5q179 0 300 100t159 281l215 1013q18 9 53 9q16 0 29 -2.5t18 -4.5l5 -2l-213 -999q-49 -233 -198.5 -360t-369.5 -127q-224 0 -336.5 130t-64.5 357zM762 1589 l291 303q30 1 53.5 -12t32.5 -35l-318 -295q-46 6 -59 39z" />
<glyph unicode="&#xdb;" horiz-adv-x="1368" d="M166 467l213 999q20 9 55 9q16 0 29.5 -2.5t18.5 -4.5l5 -2l-215 -1013q-38 -182 39.5 -281.5t257.5 -99.5q179 0 300 100t159 281l215 1013q18 9 53 9q16 0 29 -2.5t18 -4.5l5 -2l-213 -999q-49 -233 -198.5 -360t-369.5 -127q-224 0 -336.5 130t-64.5 357zM616 1628 l308 213h53l215 -213q-9 -17 -14.5 -25.5t-15.5 -17.5t-23 -12l-203 174l-272 -176q-45 18 -48 57z" />
<glyph unicode="&#xdc;" horiz-adv-x="1368" d="M166 467l213 999q20 9 55 9q16 0 29.5 -2.5t18.5 -4.5l5 -2l-215 -1013q-38 -182 39.5 -281.5t257.5 -99.5q179 0 300 100t159 281l215 1013q18 9 53 9q16 0 29 -2.5t18 -4.5l5 -2l-213 -999q-49 -233 -198.5 -360t-369.5 -127q-224 0 -336.5 130t-64.5 357zM678 1610 l22 108q23 6 64 6q18 0 33 -1.5t21 -2.5l5 -2l-22 -108q-23 -8 -64 -8q-18 0 -33 2t-20 4zM983 1610l23 108q22 6 63 6q18 0 33 -1.5t20 -2.5l6 -2l-22 -108q-23 -8 -64 -8q-18 0 -33 2t-21 4z" />
<glyph unicode="&#xdd;" horiz-adv-x="1257" d="M225 1466q25 9 68 9q14 0 26 -2.5t17 -4.5l6 -2l301 -731l625 731q20 9 69 9q19 0 34.5 -2.5t21.5 -4.5l6 -2l-719 -843l-131 -615q-20 -8 -55 -8q-16 0 -29 2t-18 4l-5 2l129 613zM725 1589l291 303q30 1 53.5 -12t32.5 -35l-318 -295q-46 6 -59 39z" />
<glyph unicode="&#xde;" horiz-adv-x="1236" d="M82 8l309 1458q16 9 55 9q17 0 30 -2.5t18 -4.5l4 -2l-62 -288h400q189 0 274.5 -125.5t44.5 -317.5q-40 -185 -171 -288t-325 -103h-399l-72 -336q-16 -8 -55 -8q-17 0 -30 2t-17 4zM281 440h395q144 0 240 84t128 234q32 154 -28.5 238.5t-204.5 84.5h-395z" />
<glyph unicode="&#xdf;" horiz-adv-x="1167" d="M47 8l240 1131q83 397 483 397q95 0 165 -30t103.5 -79t46.5 -112t-4 -129q-6 -30 -16.5 -59.5t-21.5 -52.5t-20 -40.5t-17 -30.5t-9 -14q-10 0 -26.5 -1t-60.5 -12t-80 -29t-71 -58t-46 -94q-9 -45 5 -83t43 -64.5t66 -56t72.5 -57.5t62.5 -70t37.5 -92.5t-4.5 -125.5 q-58 -266 -385 -266q-63 0 -113 9t-69 18l-18 9q4 56 39 80q82 -28 163 -28q123 0 194 53.5t89 142.5q12 56 -0.5 102.5t-40.5 77t-64.5 61t-73 56t-64.5 62t-40 78.5t0 106q10 49 32.5 89t51 65t60.5 44t62 28.5t54.5 15.5t39.5 7l14 1q31 46 47 127q7 42 7.5 81t-14 72 t-39.5 58t-68 39t-99 14q-160 0 -249.5 -79t-121.5 -230l-239 -1131q-17 -8 -54 -8q-16 0 -28.5 2t-16.5 4z" />
<glyph unicode="&#xe0;" horiz-adv-x="1134" d="M113 559q32 153 82.5 260t117.5 167t142.5 86t169.5 26q222 0 293 -187l38 162q17 8 48 8q16 0 28 -2t16 -4l3 -2l-226 -1065q-18 -8 -45 -8q-12 0 -23 2t-15 4l-5 2l27 158q-142 -186 -377 -186q-396 0 -274 579zM211 178q49 -108 215 -108q137 0 245.5 105t135.5 235 l55 260q17 83 -1.5 158.5t-79 127.5t-152.5 52q-167 0 -263.5 -108.5t-150.5 -360.5q-53 -253 -4 -361zM541 1538q15 20 46 34t58 13l164 -303q-26 -33 -76 -39z" />
<glyph unicode="&#xe1;" horiz-adv-x="1134" d="M113 559q32 153 82.5 260t117.5 167t142.5 86t169.5 26q222 0 293 -187l38 162q17 8 48 8q16 0 28 -2t16 -4l3 -2l-226 -1065q-18 -8 -45 -8q-12 0 -23 2t-15 4l-5 2l27 158q-142 -186 -377 -186q-396 0 -274 579zM211 178q49 -108 215 -108q137 0 245.5 105t135.5 235 l55 260q17 83 -1.5 158.5t-79 127.5t-152.5 52q-167 0 -263.5 -108.5t-150.5 -360.5q-53 -253 -4 -361zM547 1284l293 303q29 1 53 -12t33 -35l-320 -295q-46 6 -59 39z" />
<glyph unicode="&#xe2;" horiz-adv-x="1134" d="M113 559q32 153 82.5 260t117.5 167t142.5 86t169.5 26q222 0 293 -187l38 162q17 8 48 8q16 0 28 -2t16 -4l3 -2l-226 -1065q-18 -8 -45 -8q-12 0 -23 2t-15 4l-5 2l27 158q-142 -186 -377 -186q-396 0 -274 579zM211 178q49 -108 215 -108q137 0 245.5 105t135.5 235 l55 260q17 83 -1.5 158.5t-79 127.5t-152.5 52q-167 0 -263.5 -108.5t-150.5 -360.5q-53 -253 -4 -361zM430 1284l301 211h51l211 -211q-22 -43 -59 -51l-189 170l-270 -172q-39 16 -45 53z" />
<glyph unicode="&#xe3;" horiz-adv-x="1134" d="M113 559q32 153 82.5 260t117.5 167t142.5 86t169.5 26q222 0 293 -187l38 162q17 8 48 8q16 0 28 -2t16 -4l3 -2l-226 -1065q-18 -8 -45 -8q-12 0 -23 2t-15 4l-5 2l27 158q-142 -186 -377 -186q-396 0 -274 579zM211 178q49 -108 215 -108q137 0 245.5 105t135.5 235 l55 260q17 83 -1.5 158.5t-79 127.5t-152.5 52q-167 0 -263.5 -108.5t-150.5 -360.5q-53 -253 -4 -361zM479 1362q1 1 10.5 13.5t20.5 23t28 23.5t40 20.5t49 7.5q55 0 121.5 -36t103.5 -36q60 0 102 54q35 -9 35 -50q-6 -12 -19 -28t-47.5 -36t-74.5 -20q-55 0 -123 36 t-104 36q-26 0 -52.5 -14t-39.5 -28l-13 -15q-31 15 -37 49z" />
<glyph unicode="&#xe4;" horiz-adv-x="1134" d="M113 559q32 153 82.5 260t117.5 167t142.5 86t169.5 26q222 0 293 -187l38 162q17 8 48 8q16 0 28 -2t16 -4l3 -2l-226 -1065q-18 -8 -45 -8q-12 0 -23 2t-15 4l-5 2l27 158q-142 -186 -377 -186q-396 0 -274 579zM211 178q49 -108 215 -108q137 0 245.5 105t135.5 235 l55 260q17 83 -1.5 158.5t-79 127.5t-152.5 52q-167 0 -263.5 -108.5t-150.5 -360.5q-53 -253 -4 -361zM510 1333l25 109q20 6 61 6q18 0 33.5 -1.5t21.5 -2.5l6 -2l-24 -109q-23 -8 -64 -8q-18 0 -33 2t-20 4zM815 1333l25 109q20 6 61 6q18 0 33.5 -1.5t21.5 -2.5l7 -2 l-25 -109q-23 -8 -64 -8q-18 0 -33 2t-21 4z" />
<glyph unicode="&#xe5;" horiz-adv-x="1134" d="M113 559q32 153 82.5 260t117.5 167t142.5 86t169.5 26q222 0 293 -187l38 162q17 8 48 8q16 0 28 -2t16 -4l3 -2l-226 -1065q-18 -8 -45 -8q-12 0 -23 2t-15 4l-5 2l27 158q-142 -186 -377 -186q-396 0 -274 579zM211 178q49 -108 215 -108q137 0 245.5 105t135.5 235 l55 260q17 83 -1.5 158.5t-79 127.5t-152.5 52q-167 0 -263.5 -108.5t-150.5 -360.5q-53 -253 -4 -361zM520 1427q21 92 96 145.5t164 53.5q88 0 142.5 -53t33.5 -146q-20 -93 -94.5 -146.5t-169.5 -53.5t-143.5 53t-28.5 147zM598 1427q-11 -55 17 -93t94 -38 q68 0 113.5 38.5t56.5 92.5q11 56 -17.5 92.5t-97.5 36.5q-66 0 -110.5 -37.5t-55.5 -91.5z" />
<glyph unicode="&#xe6;" horiz-adv-x="1648" d="M86 294q-4 110 27 267q32 152 83.5 259.5t118 166.5t139.5 85t160 26q110 0 171 -38.5t92 -125.5l34 139q16 8 47 8q15 0 25.5 -2t14.5 -4l3 -2l-28 -141q128 166 319 166q169 0 237 -104t30 -281q-11 -49 -27 -97t-26 -71l-11 -23h-610q-38 -231 11.5 -340.5 t193.5 -109.5q43 0 85 7.5t71 18t52 21.5t34 19l11 7q34 -24 25 -73q-5 -4 -13.5 -10t-38.5 -22t-63.5 -28t-86.5 -22t-109 -10q-201 0 -250 174l-31 -146q-18 -8 -41 -8q-12 0 -22.5 2t-15.5 4l-5 2l19 139q-64 -86 -143 -126.5t-191 -40.5q-85 0 -146.5 32t-101 102 t-43.5 180zM213.5 178q49.5 -108 204.5 -108q69 0 130.5 30t104 79.5t71.5 108.5t42 122l55 260q15 60 7.5 120.5t-28.5 108.5t-68 78.5t-111 30.5q-156 0 -254.5 -110.5t-151.5 -358.5q-51 -253 -1.5 -361zM903 606h522q19 37 35 119q15 57 11.5 108.5t-21 91t-61 62.5 t-109.5 23q-126 0 -226 -97.5t-151 -306.5z" />
<glyph unicode="&#xe7;" horiz-adv-x="905" d="M111 563q114 535 540 535q74 0 133.5 -12t81.5 -24l23 -13q-10 -54 -53 -80q-66 37 -185 37q-177 0 -284.5 -114.5t-157.5 -348.5q-51 -235 11.5 -351t242.5 -116q56 0 108 11t77 21l24 11q15 -11 23 -33t5 -47q-11 -6 -31.5 -15.5t-89.5 -26t-145 -17.5l-41 -105 q116 0 161.5 -48.5t27.5 -135.5q-21 -96 -87.5 -138t-185.5 -42q-47 0 -89.5 11.5t-61.5 23.5l-19 12q11 37 41 57l9 -5q9 -4 21 -8.5t29 -9.5t39.5 -8.5t45.5 -3.5q154 0 178 121q12 55 -18.5 83t-100.5 28h-66l-10 20l55 152q-172 25 -238.5 177t-12.5 402z" />
<glyph unicode="&#xe8;" horiz-adv-x="1034" d="M113 571q60 261 197.5 394t326.5 133q177 0 259.5 -112t43.5 -286q-13 -56 -28 -104.5t-24 -69.5l-9 -20h-676q-38 -219 23.5 -325.5t226.5 -106.5q72 0 141.5 19.5t103.5 38.5l33 20q37 -33 29 -80q-5 -4 -14 -10t-41 -22t-67.5 -28t-92.5 -22t-117 -10 q-210 0 -294.5 157t-20.5 434zM221 590h588q25 49 41 133q15 57 7 109t-32 91.5t-74.5 63t-121.5 23.5q-144 0 -249 -103t-159 -317zM528 1540q18 21 48.5 34.5t58.5 12.5l162 -303q-26 -33 -76 -39z" />
<glyph unicode="&#xe9;" horiz-adv-x="1034" d="M113 571q60 261 197.5 394t326.5 133q177 0 259.5 -112t43.5 -286q-13 -56 -28 -104.5t-24 -69.5l-9 -20h-676q-38 -219 23.5 -325.5t226.5 -106.5q72 0 141.5 19.5t103.5 38.5l33 20q37 -33 29 -80q-5 -4 -14 -10t-41 -22t-67.5 -28t-92.5 -22t-117 -10 q-210 0 -294.5 157t-20.5 434zM221 590h588q25 49 41 133q15 57 7 109t-32 91.5t-74.5 63t-121.5 23.5q-144 0 -249 -103t-159 -317zM530 1284l293 303q29 1 53 -12t33 -35l-319 -295q-47 6 -60 39z" />
<glyph unicode="&#xea;" horiz-adv-x="1034" d="M113 571q60 261 197.5 394t326.5 133q177 0 259.5 -112t43.5 -286q-13 -56 -28 -104.5t-24 -69.5l-9 -20h-676q-38 -219 23.5 -325.5t226.5 -106.5q72 0 141.5 19.5t103.5 38.5l33 20q37 -33 29 -80q-5 -4 -14 -10t-41 -22t-67.5 -28t-92.5 -22t-117 -10 q-210 0 -294.5 157t-20.5 434zM221 590h588q25 49 41 133q15 57 7 109t-32 91.5t-74.5 63t-121.5 23.5q-144 0 -249 -103t-159 -317zM408 1286l299 211h51l211 -211q-22 -43 -60 -51l-190 170l-264 -172q-41 16 -47 53z" />
<glyph unicode="&#xeb;" horiz-adv-x="1034" d="M113 571q60 261 197.5 394t326.5 133q177 0 259.5 -112t43.5 -286q-13 -56 -28 -104.5t-24 -69.5l-9 -20h-676q-38 -219 23.5 -325.5t226.5 -106.5q72 0 141.5 19.5t103.5 38.5l33 20q37 -33 29 -80q-5 -4 -14 -10t-41 -22t-67.5 -28t-92.5 -22t-117 -10 q-210 0 -294.5 157t-20.5 434zM221 590h588q25 49 41 133q15 57 7 109t-32 91.5t-74.5 63t-121.5 23.5q-144 0 -249 -103t-159 -317zM481 1307l23 108q20 6 61 6q18 0 33.5 -1.5t21.5 -3.5l7 -1l-23 -108q-22 -9 -63 -9q-18 0 -33 2t-21 4zM786 1307l23 108q20 6 61 6 q18 0 33.5 -1.5t22.5 -3.5l6 -1l-23 -108q-22 -9 -63 -9q-18 0 -33 2t-21 4z" />
<glyph unicode="&#xec;" horiz-adv-x="471" d="M53 8l226 1061q16 8 53 8q16 0 28.5 -2t16.5 -4l4 -2l-225 -1061q-17 -8 -54 -8q-16 0 -28.5 2t-16.5 4zM215 1544q18 21 48.5 34.5t58.5 12.5l163 -303q-26 -33 -75 -39z" />
<glyph unicode="&#xed;" horiz-adv-x="471" d="M53 8l226 1061q16 8 53 8q16 0 28.5 -2t16.5 -4l4 -2l-225 -1061q-17 -8 -54 -8q-16 0 -28.5 2t-16.5 4zM248 1284l293 303q29 1 53 -12t33 -35l-320 -295q-46 6 -59 39z" />
<glyph unicode="&#xee;" horiz-adv-x="471" d="M53 8l226 1061q16 8 53 8q16 0 28.5 -2t16.5 -4l4 -2l-225 -1061q-17 -8 -54 -8q-16 0 -28.5 2t-16.5 4zM96 1286l287 211h51l225 -211q-22 -43 -59 -51l-197 170l-268 -172q-33 13 -39 53z" />
<glyph unicode="&#xef;" horiz-adv-x="471" d="M53 8l226 1061q16 8 53 8q16 0 28.5 -2t16.5 -4l4 -2l-225 -1061q-17 -8 -54 -8q-16 0 -28.5 2t-16.5 4zM164 1319l22 108q23 9 64 9q18 0 33 -2t21 -4l5 -3l-22 -108q-23 -6 -64 -6q-18 0 -33 1.5t-20 3.5zM469 1319l23 108q22 9 63 9q18 0 33 -2t20 -4l6 -3l-22 -108 q-23 -6 -64 -6q-18 0 -33 1.5t-21 3.5z" />
<glyph unicode="&#xf0;" horiz-adv-x="1134" d="M109 539q29 141 78.5 242t117 160t145 85.5t173.5 26.5q108 0 191.5 -52t111.5 -135q1 150 -35.5 250t-118.5 184l-240 -131q-37 23 -34 64l211 119q-101 78 -248 108q0 46 37 76q176 -33 303 -131l174 96q34 -24 31 -69l-148 -80q239 -249 137 -723q-38 -183 -93 -310 t-128.5 -201t-159 -106t-194.5 -32q-204 0 -287.5 139t-23.5 420zM184 300.5q2 -86.5 36.5 -138.5t86 -74t125.5 -22q75 0 136.5 22.5t117 73t98.5 139.5t70 215q24 103 20 179t-23 127.5t-57.5 83.5t-83.5 45.5t-100 13.5q-75 0 -134.5 -22t-111.5 -73t-91 -139t-66 -215 q-25 -129 -23 -215.5z" />
<glyph unicode="&#xf1;" d="M47 8l225 1061q19 8 54 8q16 0 28 -2t16 -4l5 -2l-33 -158q88 93 179 140t204 47q147 0 220 -89.5t42 -236.5l-162 -764q-18 -8 -53 -8q-16 0 -28.5 2t-16.5 4l-4 2l162 762q51 240 -195 240q-98 0 -201.5 -62.5t-175.5 -169.5l-163 -770q-19 -8 -54 -8q-16 0 -28 2 t-16 4zM471 1374l5 10t15.5 22t27.5 28t41.5 22t57.5 10q55 0 124 -35.5t106 -35.5q26 0 51 15.5t37 31.5l12 16q20 -5 32 -19t11 -34q-2 -4 -5.5 -10t-16.5 -22t-29 -28t-43.5 -22t-58.5 -10q-54 0 -121.5 36.5t-104.5 36.5q-26 0 -51.5 -17t-38.5 -33l-12 -17 q-42 17 -39 55z" />
<glyph unicode="&#xf2;" horiz-adv-x="1101" d="M113 561q31 148 84.5 254.5t124 167t149.5 88t174 27.5q431 0 309 -576q-31 -149 -84 -255.5t-123 -168.5t-150 -90t-177 -28q-207 0 -288.5 142t-18.5 439zM187 351q-3 -81 12 -135t48.5 -87.5t78.5 -48t106 -14.5q318 0 420 473q22 107 25 188t-12 135t-48 87.5t-78 48 t-106 14.5q-69 0 -129.5 -23.5t-117 -76.5t-101 -147.5t-72.5 -225.5q-23 -107 -26 -188zM506 1540q18 21 48.5 34.5t57.5 12.5l162 -303q-26 -33 -76 -39z" />
<glyph unicode="&#xf3;" horiz-adv-x="1101" d="M113 561q31 148 84.5 254.5t124 167t149.5 88t174 27.5q431 0 309 -576q-31 -149 -84 -255.5t-123 -168.5t-150 -90t-177 -28q-207 0 -288.5 142t-18.5 439zM187 351q-3 -81 12 -135t48.5 -87.5t78.5 -48t106 -14.5q318 0 420 473q22 107 25 188t-12 135t-48 87.5t-78 48 t-106 14.5q-69 0 -129.5 -23.5t-117 -76.5t-101 -147.5t-72.5 -225.5q-23 -107 -26 -188zM526 1284l293 303q29 1 53 -12t33 -35l-319 -295q-47 6 -60 39z" />
<glyph unicode="&#xf4;" horiz-adv-x="1101" d="M113 561q31 148 84.5 254.5t124 167t149.5 88t174 27.5q431 0 309 -576q-31 -149 -84 -255.5t-123 -168.5t-150 -90t-177 -28q-207 0 -288.5 142t-18.5 439zM187 351q-3 -81 12 -135t48.5 -87.5t78.5 -48t106 -14.5q318 0 420 473q22 107 25 188t-12 135t-48 87.5t-78 48 t-106 14.5q-69 0 -129.5 -23.5t-117 -76.5t-101 -147.5t-72.5 -225.5q-23 -107 -26 -188zM406 1286l288 211h51l224 -211q-22 -43 -60 -51l-196 170l-269 -172q-32 13 -38 53z" />
<glyph unicode="&#xf5;" horiz-adv-x="1101" d="M113 561q31 148 84.5 254.5t124 167t149.5 88t174 27.5q431 0 309 -576q-31 -149 -84 -255.5t-123 -168.5t-150 -90t-177 -28q-207 0 -288.5 142t-18.5 439zM187 351q-3 -81 12 -135t48.5 -87.5t78.5 -48t106 -14.5q318 0 420 473q22 107 25 188t-12 135t-48 87.5t-78 48 t-106 14.5q-69 0 -129.5 -23.5t-117 -76.5t-101 -147.5t-72.5 -225.5q-23 -107 -26 -188zM449 1358l5 10t16 22t28.5 28t42 22t57.5 10q55 0 123.5 -36t105.5 -36q26 0 52 16t39 32l12 16q38 -12 41 -53q-2 -4 -5.5 -10t-16.5 -22t-28.5 -28.5t-43 -22.5t-58.5 -10 q-43 0 -83 18.5t-75.5 37t-68.5 18.5q-26 0 -52.5 -16t-39.5 -32l-13 -15q-38 14 -38 51z" />
<glyph unicode="&#xf6;" horiz-adv-x="1101" d="M113 561q31 148 84.5 254.5t124 167t149.5 88t174 27.5q431 0 309 -576q-31 -149 -84 -255.5t-123 -168.5t-150 -90t-177 -28q-207 0 -288.5 142t-18.5 439zM187 351q-3 -81 12 -135t48.5 -87.5t78.5 -48t106 -14.5q318 0 420 473q22 107 25 188t-12 135t-48 87.5t-78 48 t-106 14.5q-69 0 -129.5 -23.5t-117 -76.5t-101 -147.5t-72.5 -225.5q-23 -107 -26 -188zM485 1331l23 109q22 8 63 8q17 0 32 -2t21 -4l7 -2l-23 -109q-24 -8 -63 -8q-18 0 -33 2t-21 4zM791 1331l22 109q21 8 64 8q17 0 31.5 -2t19.5 -4l6 -2l-23 -109q-22 -8 -61 -8 q-19 0 -34 2t-20 4z" />
<glyph unicode="&#xf7;" horiz-adv-x="1144" d="M156 551q-4 14 2 43q3 13 7 23.5t7 14.5l2 5h797q6 -14 0 -43q-3 -13 -7.5 -23.5t-7.5 -14.5l-4 -5h-796zM416 207l24 115q25 8 68 8q19 0 35 -2t22 -4l6 -2l-24 -115q-23 -8 -66 -8q-19 0 -35.5 2t-23.5 4zM557 866l25 115q24 8 67 8q19 0 35 -2t22 -4l7 -2l-25 -115 q-24 -8 -67 -8q-19 0 -35 2t-22 4z" />
<glyph unicode="&#xf8;" horiz-adv-x="1097" d="M35 -49l112 143q-105 142 -36 467q31 148 84.5 254.5t124 167t149.5 88t174 27.5q147 0 229 -68l109 137q44 -6 66 -39l-123 -155q94 -142 28 -451q-31 -149 -84 -255.5t-123 -168.5t-150 -90t-177 -28q-138 0 -217 61l-103 -131q-44 9 -63 41zM211 539q-53 -247 2 -361 l600 772q-59 62 -182 62q-69 0 -129.5 -23.5t-117 -76.5t-101 -147.5t-72.5 -225.5zM258 115q60 -49 172 -49q318 0 420 473q48 234 4 346z" />
<glyph unicode="&#xf9;" d="M104 311l160 758q18 8 53 8q16 0 28.5 -2t16.5 -4l5 -2l-162 -762q-26 -122 22.5 -180.5t171.5 -58.5q98 0 201.5 61.5t175.5 169.5l164 770q18 8 53 8q16 0 28 -2t17 -4l4 -2l-225 -1061q-18 -8 -53 -8q-16 0 -28 2t-16 4l-5 2l33 148q-84 -89 -176.5 -132.5 t-206.5 -43.5q-146 0 -219 91.5t-42 239.5zM537 1540q18 21 48 34.5t58 12.5l162 -303q-26 -33 -76 -39z" />
<glyph unicode="&#xfa;" d="M104 311l160 758q18 8 53 8q16 0 28.5 -2t16.5 -4l5 -2l-162 -762q-26 -122 22.5 -180.5t171.5 -58.5q98 0 201.5 61.5t175.5 169.5l164 770q18 8 53 8q16 0 28 -2t17 -4l4 -2l-225 -1061q-18 -8 -53 -8q-16 0 -28 2t-16 4l-5 2l33 148q-84 -89 -176.5 -132.5 t-206.5 -43.5q-146 0 -219 91.5t-42 239.5zM555 1284l293 303q29 1 53 -12t33 -35l-320 -295q-46 6 -59 39z" />
<glyph unicode="&#xfb;" d="M104 311l160 758q18 8 53 8q16 0 28.5 -2t16.5 -4l5 -2l-162 -762q-26 -122 22.5 -180.5t171.5 -58.5q98 0 201.5 61.5t175.5 169.5l164 770q18 8 53 8q16 0 28 -2t17 -4l4 -2l-225 -1061q-18 -8 -53 -8q-16 0 -28 2t-16 4l-5 2l33 148q-84 -89 -176.5 -132.5 t-206.5 -43.5q-146 0 -219 91.5t-42 239.5zM418 1286l293 213h51l219 -213q-22 -43 -59 -51l-197 170l-268 -172q-33 13 -39 53z" />
<glyph unicode="&#xfc;" d="M104 311l160 758q18 8 53 8q16 0 28.5 -2t16.5 -4l5 -2l-162 -762q-26 -122 22.5 -180.5t171.5 -58.5q98 0 201.5 61.5t175.5 169.5l164 770q18 8 53 8q16 0 28 -2t17 -4l4 -2l-225 -1061q-18 -8 -53 -8q-16 0 -28 2t-16 4l-5 2l33 148q-84 -89 -176.5 -132.5 t-206.5 -43.5q-146 0 -219 91.5t-42 239.5zM492 1335l22 109q23 8 64 8q17 0 32 -2t21 -4l6 -2l-23 -109q-24 -6 -63 -6q-18 0 -33 1.5t-20 3.5zM797 1335l22 109q21 8 62 8q18 0 33 -2t20 -4l6 -2l-22 -109q-23 -6 -64 -6q-18 0 -32.5 1.5t-19.5 3.5z" />
<glyph unicode="&#xfd;" d="M-20 -457q11 57 47 78q108 -41 239 -41q102 0 170.5 19.5t126.5 71t97 142t71 232.5l25 111q-84 -89 -174.5 -132.5t-204.5 -43.5q-161 0 -233.5 93t-39.5 249l160 747q18 8 53 8q16 0 28.5 -2t16.5 -4l5 -2l-162 -762q-26 -122 22.5 -180.5t171.5 -58.5q98 0 201.5 61.5 t175.5 169.5l164 770q18 8 53 8q16 0 28 -2t17 -4l4 -2l-217 -1024q-31 -148 -72 -247t-106.5 -171.5t-160.5 -105.5t-230 -33q-78 0 -147 14t-99 28zM557 1266l285 297q29 2 53 -10.5t31 -34.5l-312 -289q-48 6 -57 37z" />
<glyph unicode="&#xfe;" horiz-adv-x="1140" d="M-59 -494l430 2022q14 8 51 8q16 0 29 -2t17 -4l5 -2l-131 -610q139 180 369 180q400 0 278 -578q-32 -153 -82 -260t-117.5 -167.5t-144 -86.5t-172.5 -26q-108 0 -185.5 48t-105.5 132l-139 -654q-16 -8 -53 -8q-16 0 -28.5 2t-16.5 4zM233 410q-17 -82 5.5 -159.5 t83.5 -129t145 -51.5q170 0 266 108t150 361q55 253 7 361t-218 108q-70 0 -135.5 -29t-114 -77t-82.5 -106t-49 -118z" />
<glyph unicode="&#xff;" d="M-20 -457q11 57 47 78q108 -41 239 -41q102 0 170.5 19.5t126.5 71t97 142t71 232.5l25 111q-84 -89 -174.5 -132.5t-204.5 -43.5q-161 0 -233.5 93t-39.5 249l160 747q18 8 53 8q16 0 28.5 -2t16.5 -4l5 -2l-162 -762q-26 -122 22.5 -180.5t171.5 -58.5q98 0 201.5 61.5 t175.5 169.5l164 770q18 8 53 8q16 0 28 -2t17 -4l4 -2l-217 -1024q-31 -148 -72 -247t-106.5 -171.5t-160.5 -105.5t-230 -33q-78 0 -147 14t-99 28zM502 1337l22 109q23 8 64 8q18 0 33 -2t21 -4l5 -2l-22 -109q-23 -8 -64 -8q-18 0 -33 2t-20 4zM807 1337l22 109 q23 8 64 8q18 0 33 -2t20 -4l6 -2l-22 -109q-23 -8 -64 -8q-18 0 -33 2t-21 4z" />
<glyph unicode="&#x152;" horiz-adv-x="1714" d="M172 766q42 196 111 337t162 226.5t204 125.5t246 40q90 0 172 -20h700q5 -16 -2 -48q-7 -30 -18 -47h-608l-125 -585h506q4 -14 0 -45q-5 -24 -19 -48h-506l-129 -608h629q3 -24 -2 -45q-5 -27 -18 -49h-723q-90 -20 -179 -20q-269 0 -376 198.5t-25 587.5zM242 427 q3 -127 49.5 -206t120 -114t180.5 -35q104 0 176 28l272 1276q-75 27 -163 27q-461 0 -603 -666q-35 -183 -32 -310z" />
<glyph unicode="&#x153;" horiz-adv-x="1689" d="M111 557q32 150 81.5 255.5t117 167.5t148 90t181.5 28q133 0 203.5 -61.5t83.5 -196.5q145 258 393 258q174 0 245 -104.5t33 -280.5q-12 -56 -28.5 -108t-27.5 -75l-11 -24h-623q-38 -233 12 -333.5t203 -100.5q64 0 128.5 18t97.5 36l32 19q34 -21 27 -73 q-5 -4 -14.5 -10t-41.5 -22t-67.5 -28t-91 -22t-113.5 -10q-241 0 -276 256q-72 -134 -165 -195t-226 -61q-203 0 -283.5 140.5t-17.5 436.5zM189 351q-3 -81 11 -135t46 -87.5t75.5 -48t102.5 -14.5q99 0 168.5 42.5t125 148.5t93.5 286q29 134 31 225.5t-24 145t-72.5 76 t-120.5 22.5t-134 -23.5t-113 -77t-94 -146.5t-69 -226q-23 -107 -26 -188zM926 590h536q21 42 39 135q27 126 -14.5 205.5t-171.5 79.5q-132 0 -233.5 -104t-155.5 -316z" />
<glyph unicode="&#x178;" horiz-adv-x="1257" d="M225 1466q25 9 68 9q14 0 26 -2.5t17 -4.5l6 -2l301 -731l625 731q20 9 69 9q19 0 34.5 -2.5t21.5 -4.5l6 -2l-719 -843l-131 -615q-20 -8 -55 -8q-16 0 -29 2t-18 4l-5 2l129 613zM625 1612l24 108q21 6 62 6q18 0 33.5 -1.5t21.5 -2.5l6 -2l-24 -108q-23 -8 -64 -8 q-18 0 -33 2t-21 4zM930 1612l24 108q21 6 62 6q18 0 33.5 -1.5t21.5 -2.5l6 -2l-24 -108q-23 -8 -64 -8q-18 0 -33 2t-20 4z" />
<glyph unicode="&#x2c6;" horiz-adv-x="811" d="M59 1204l308 215h53l215 -215q-25 -45 -62 -53l-202 174l-273 -176q-36 14 -39 55z" />
<glyph unicode="&#x2dc;" horiz-adv-x="669" d="M66 1323l7.5 10t21.5 22.5t35.5 29t47.5 22.5t60 10q44 0 79 -17.5t65 -35.5t62 -18q26 0 52.5 15t39.5 31l13 15q37 -15 37 -51q-2 -4 -7 -10t-21 -22t-34 -28t-47.5 -22t-60.5 -10q-43 0 -78 18t-65 35.5t-62 17.5q-26 0 -52.5 -15.5t-39.5 -30.5l-13 -15 q-40 15 -40 49z" />
<glyph unicode="&#x2000;" horiz-adv-x="951" />
<glyph unicode="&#x2001;" horiz-adv-x="1903" />
<glyph unicode="&#x2002;" horiz-adv-x="951" />
<glyph unicode="&#x2003;" horiz-adv-x="1903" />
<glyph unicode="&#x2004;" horiz-adv-x="634" />
<glyph unicode="&#x2005;" horiz-adv-x="475" />
<glyph unicode="&#x2006;" horiz-adv-x="317" />
<glyph unicode="&#x2007;" horiz-adv-x="317" />
<glyph unicode="&#x2008;" horiz-adv-x="237" />
<glyph unicode="&#x2009;" horiz-adv-x="380" />
<glyph unicode="&#x200a;" horiz-adv-x="105" />
<glyph unicode="&#x2010;" horiz-adv-x="731" d="M154 551q-4 14 2 43q3 13 7 23.5t7 14.5l2 5h385q6 -14 0 -43q-3 -13 -7.5 -23.5t-7.5 -14.5l-3 -5h-385z" />
<glyph unicode="&#x2011;" horiz-adv-x="731" d="M154 551q-4 14 2 43q3 13 7 23.5t7 14.5l2 5h385q6 -14 0 -43q-3 -13 -7.5 -23.5t-7.5 -14.5l-3 -5h-385z" />
<glyph unicode="&#x2012;" horiz-adv-x="731" d="M154 551q-4 14 2 43q3 13 7 23.5t7 14.5l2 5h385q6 -14 0 -43q-3 -13 -7.5 -23.5t-7.5 -14.5l-3 -5h-385z" />
<glyph unicode="&#x2013;" horiz-adv-x="1167" d="M168 551q-4 14 2 43q3 13 7 23.5t7 14.5l2 5h795q6 -14 0 -43q-3 -13 -7.5 -23.5t-7.5 -14.5l-3 -5h-795z" />
<glyph unicode="&#x2014;" horiz-adv-x="1679" d="M168 551q-4 14 2 43q3 13 7 23.5t7 14.5l2 5h1307q6 -14 0 -43q-3 -13 -7.5 -23.5t-7.5 -14.5l-3 -5h-1307z" />
<glyph unicode="&#x2018;" horiz-adv-x="432" d="M250 1141l18 84q10 46 30.5 88.5t42.5 70.5t43 49.5t34 31.5l14 10l37 -33q-9 -7 -22.5 -20t-43 -59t-45.5 -99l48 -7l-25 -116q-23 -8 -66 -8q-19 0 -35.5 2t-23.5 4z" />
<glyph unicode="&#x2019;" horiz-adv-x="417" d="M246 1165q3 2 8 7t19 22t26.5 36t27.5 49.5t25 63.5q-14 0 -24.5 2.5t-14.5 4.5l-4 2l25 114q22 9 65 9q19 0 35 -2.5t22 -4.5l7 -2l-17 -82q-10 -46 -31 -89t-43 -71.5t-42.5 -49.5t-33.5 -31l-13 -10z" />
<glyph unicode="&#x201a;" horiz-adv-x="444" d="M-29 -178q9 7 22.5 20.5t42.5 59.5t44 98q-13 0 -23.5 2t-14.5 4l-5 2l24 115q25 8 68 8q19 0 35 -2t22 -4l7 -2l-19 -82q-10 -46 -30.5 -89t-42.5 -71t-43 -49.5t-34 -31.5l-14 -9z" />
<glyph unicode="&#x201c;" horiz-adv-x="649" d="M242 1139l16 82q10 46 30.5 89.5t42.5 71.5t42.5 49.5t33.5 31.5l13 10l39 -33q-8 -7 -21 -20.5t-41.5 -59.5t-44.5 -98q14 0 24.5 -2t14.5 -4l4 -3l-24 -114q-23 -9 -68 -9q-18 0 -33.5 2t-21.5 4zM471 1139l16 82q10 46 30.5 89.5t42.5 71.5t42.5 49.5t33.5 31.5l13 10 l39 -33q-3 -2 -8 -7t-19.5 -22t-27 -36t-27.5 -49.5t-24 -63.5q14 0 24.5 -2t14.5 -4l4 -3l-25 -114q-23 -9 -68 -9q-19 0 -34.5 2t-21.5 4z" />
<glyph unicode="&#x201d;" horiz-adv-x="649" d="M246 1165q3 2 8 7t19.5 22t27 36t27.5 49.5t24 63.5q-14 0 -24.5 2.5t-14.5 4.5l-4 2l25 114q22 9 67 9q19 0 34.5 -2.5t21.5 -4.5l6 -2l-17 -82q-10 -46 -30.5 -89t-42.5 -71.5t-42 -49.5t-33 -31l-13 -10zM475 1165q8 7 21 20.5t41.5 59.5t44.5 98q-14 0 -24.5 2.5 t-14.5 4.5l-4 2l24 114q23 9 68 9q18 0 33.5 -2.5t21.5 -4.5l6 -2l-16 -82q-10 -46 -30.5 -89t-42.5 -71.5t-42.5 -49.5t-33.5 -31l-13 -10z" />
<glyph unicode="&#x201e;" horiz-adv-x="675" d="M-29 -178q8 7 21.5 20.5t42.5 59.5t45 98q-14 0 -24.5 2t-14.5 4l-4 2l24 115q23 8 68 8q19 0 34.5 -2t20.5 -4l6 -2l-18 -82q-10 -46 -30 -89t-42 -71t-42.5 -49.5t-33.5 -31.5l-14 -9zM205 -178q3 2 8.5 7t20 22t27.5 36t28 49.5t24 63.5q-14 0 -24.5 2t-14.5 4l-4 2 l25 115q22 8 67 8q19 0 34.5 -2t21.5 -4l6 -2l-18 -82q-10 -46 -30 -89t-42 -71t-42.5 -49.5t-33.5 -31.5l-14 -9z" />
<glyph unicode="&#x2022;" horiz-adv-x="612" d="M203 578q9 42 40 67t70 25q41 0 62 -25t12 -67q-9 -41 -40 -66t-71 -25q-39 0 -60.5 25.5t-12.5 65.5z" />
<glyph unicode="&#x2026;" horiz-adv-x="1118" d="M35 8l24 115q25 8 68 8q19 0 35 -2t22 -4l6 -2l-24 -115q-25 -8 -68 -8q-19 0 -35 2t-22 4zM371 8l24 115q23 8 66 8q19 0 35 -2t22 -4l6 -2l-24 -115q-25 -8 -68 -8q-19 0 -34.5 2t-21.5 4zM705 8l24 115q23 8 66 8q19 0 35 -2t22 -4l6 -2l-24 -115q-25 -8 -68 -8 q-19 0 -34.5 2t-21.5 4z" />
<glyph unicode="&#x202f;" horiz-adv-x="380" />
<glyph unicode="&#x2039;" horiz-adv-x="696" d="M94 508q-6 16 0 43q3 13 7.5 24t8.5 16l3 5l516 446q29 -20 22 -69l-465 -420l287 -422q-14 -50 -53 -70z" />
<glyph unicode="&#x203a;" horiz-adv-x="694" d="M14 131l463 422l-284 420q14 48 51 69l327 -446q4 -16 -2 -45q-3 -12 -7 -22.5t-6 -15.5l-3 -5l-518 -447q-28 22 -21 70z" />
<glyph unicode="&#x205f;" horiz-adv-x="475" />
<glyph unicode="&#x20ac;" horiz-adv-x="1189" d="M82 487q0 32 27 76h149q3 17 6.5 37.5t8.5 45.5l8 40q26 113 30 127h-161q3 37 28 78h158q174 502 588 502q92 0 164 -16t98 -32l26 -16q-13 -47 -49 -74q-10 6 -29 14t-82.5 22t-131.5 14q-163 0 -281.5 -95t-196.5 -319h553q0 -43 -30 -78h-549q-4 -15 -29 -129 q-18 -76 -25 -121h480q0 -39 -29 -76h-457q-6 -81 -3 -143t21 -108.5t43 -78t63 -51t81 -28t96 -8.5q75 0 146 12t105 24l34 13q23 -26 16 -76q-13 -7 -38.5 -17.5t-112 -28t-182.5 -17.5q-212 0 -305 125.5t-70 381.5h-168z" />
<glyph unicode="&#x2122;" horiz-adv-x="1280" d="M250 1423v27q4 18 10 25h416q4 -15 0 -25q-3 -16 -10 -27h-179l-114 -532q-9 -6 -29 -6q-8 0 -14.5 1.5t-9.5 3.5l-3 1l115 532h-182zM659 891l123 577q12 7 35 7q15 0 29 -7l65 -221q29 -92 39 -149q51 82 103 143l161 227q15 7 35 7q10 0 18 -1.5t11 -3.5l2 -2 l-123 -577q-8 -6 -24 -6q-8 0 -14.5 1.5t-9.5 3.5l-3 1l57 262l49 240q-63 -94 -90 -127l-157 -217q-11 -7 -29 -7q-8 0 -14 2t-8 4l-3 1l-61 217q-6 24 -19.5 65.5t-19.5 61.5q-9 -68 -45 -238l-57 -264q-9 -6 -25 -6q-7 0 -13.5 1.5t-8.5 3.5z" />
<glyph unicode="&#x25fc;" horiz-adv-x="1075" d="M0 0v1075h1075v-1075h-1075z" />
</font>
</defs>
</svg>
